%TF.GenerationSoftware,KiCad,Pcbnew,9.0.0*%
%TF.CreationDate,2025-04-17T11:42:54-07:00*%
%TF.ProjectId,Teensy_Telemetry_Compact,5465656e-7379-45f5-9465-6c656d657472,rev?*%
%TF.SameCoordinates,Original*%
%TF.FileFunction,Drillmap*%
%TF.FilePolarity,Positive*%
%FSLAX45Y45*%
G04 Gerber Fmt 4.5, Leading zero omitted, Abs format (unit mm)*
G04 Created by KiCad (PCBNEW 9.0.0) date 2025-04-17 11:42:54*
%MOMM*%
%LPD*%
G01*
G04 APERTURE LIST*
%ADD10C,0.150000*%
%ADD11C,0.200000*%
%ADD12C,0.120000*%
%ADD13C,0.320000*%
G04 APERTURE END LIST*
D10*
X12950000Y-13850000D02*
X8250000Y-13850000D01*
X7900000Y-8800000D02*
G75*
G02*
X8250000Y-8450000I350000J0D01*
G01*
X7900000Y-13500000D02*
X7900000Y-8800000D01*
X13300000Y-13500000D02*
G75*
G02*
X12950000Y-13850000I-350000J0D01*
G01*
X12950000Y-8450000D02*
G75*
G02*
X13300000Y-8800000I0J-350000D01*
G01*
X8250000Y-13850000D02*
G75*
G02*
X7900000Y-13500000I0J350000D01*
G01*
X8250000Y-8450000D02*
X12950000Y-8450000D01*
X13300000Y-8800000D02*
X13300000Y-13500000D01*
D11*
D12*
X13015000Y-12935000D02*
X13135000Y-13055000D01*
X13135000Y-12935000D02*
X13015000Y-13055000D01*
D13*
X8410000Y-9600000D02*
G75*
G02*
X8090000Y-9600000I-160000J0D01*
G01*
X8090000Y-9600000D02*
G75*
G02*
X8410000Y-9600000I160000J0D01*
G01*
X8410000Y-12700000D02*
G75*
G02*
X8090000Y-12700000I-160000J0D01*
G01*
X8090000Y-12700000D02*
G75*
G02*
X8410000Y-12700000I160000J0D01*
G01*
X13110000Y-9600000D02*
G75*
G02*
X12790000Y-9600000I-160000J0D01*
G01*
X12790000Y-9600000D02*
G75*
G02*
X13110000Y-9600000I160000J0D01*
G01*
X13110000Y-13500000D02*
G75*
G02*
X12790000Y-13500000I-160000J0D01*
G01*
X12790000Y-13500000D02*
G75*
G02*
X13110000Y-13500000I160000J0D01*
G01*
D11*
X8153277Y-14168984D02*
X8153277Y-13968984D01*
X8153277Y-13968984D02*
X8200896Y-13968984D01*
X8200896Y-13968984D02*
X8229467Y-13978508D01*
X8229467Y-13978508D02*
X8248515Y-13997555D01*
X8248515Y-13997555D02*
X8258039Y-14016603D01*
X8258039Y-14016603D02*
X8267562Y-14054698D01*
X8267562Y-14054698D02*
X8267562Y-14083269D01*
X8267562Y-14083269D02*
X8258039Y-14121365D01*
X8258039Y-14121365D02*
X8248515Y-14140412D01*
X8248515Y-14140412D02*
X8229467Y-14159460D01*
X8229467Y-14159460D02*
X8200896Y-14168984D01*
X8200896Y-14168984D02*
X8153277Y-14168984D01*
X8353277Y-14168984D02*
X8353277Y-14035650D01*
X8353277Y-14073746D02*
X8362801Y-14054698D01*
X8362801Y-14054698D02*
X8372324Y-14045174D01*
X8372324Y-14045174D02*
X8391372Y-14035650D01*
X8391372Y-14035650D02*
X8410420Y-14035650D01*
X8477086Y-14168984D02*
X8477086Y-14035650D01*
X8477086Y-13968984D02*
X8467563Y-13978508D01*
X8467563Y-13978508D02*
X8477086Y-13988031D01*
X8477086Y-13988031D02*
X8486610Y-13978508D01*
X8486610Y-13978508D02*
X8477086Y-13968984D01*
X8477086Y-13968984D02*
X8477086Y-13988031D01*
X8600896Y-14168984D02*
X8581848Y-14159460D01*
X8581848Y-14159460D02*
X8572324Y-14140412D01*
X8572324Y-14140412D02*
X8572324Y-13968984D01*
X8705658Y-14168984D02*
X8686610Y-14159460D01*
X8686610Y-14159460D02*
X8677086Y-14140412D01*
X8677086Y-14140412D02*
X8677086Y-13968984D01*
X8934229Y-14168984D02*
X8934229Y-13968984D01*
X8934229Y-13968984D02*
X9000896Y-14111841D01*
X9000896Y-14111841D02*
X9067563Y-13968984D01*
X9067563Y-13968984D02*
X9067563Y-14168984D01*
X9248515Y-14168984D02*
X9248515Y-14064222D01*
X9248515Y-14064222D02*
X9238991Y-14045174D01*
X9238991Y-14045174D02*
X9219944Y-14035650D01*
X9219944Y-14035650D02*
X9181848Y-14035650D01*
X9181848Y-14035650D02*
X9162801Y-14045174D01*
X9248515Y-14159460D02*
X9229467Y-14168984D01*
X9229467Y-14168984D02*
X9181848Y-14168984D01*
X9181848Y-14168984D02*
X9162801Y-14159460D01*
X9162801Y-14159460D02*
X9153277Y-14140412D01*
X9153277Y-14140412D02*
X9153277Y-14121365D01*
X9153277Y-14121365D02*
X9162801Y-14102317D01*
X9162801Y-14102317D02*
X9181848Y-14092793D01*
X9181848Y-14092793D02*
X9229467Y-14092793D01*
X9229467Y-14092793D02*
X9248515Y-14083269D01*
X9343753Y-14035650D02*
X9343753Y-14235650D01*
X9343753Y-14045174D02*
X9362801Y-14035650D01*
X9362801Y-14035650D02*
X9400896Y-14035650D01*
X9400896Y-14035650D02*
X9419944Y-14045174D01*
X9419944Y-14045174D02*
X9429467Y-14054698D01*
X9429467Y-14054698D02*
X9438991Y-14073746D01*
X9438991Y-14073746D02*
X9438991Y-14130888D01*
X9438991Y-14130888D02*
X9429467Y-14149936D01*
X9429467Y-14149936D02*
X9419944Y-14159460D01*
X9419944Y-14159460D02*
X9400896Y-14168984D01*
X9400896Y-14168984D02*
X9362801Y-14168984D01*
X9362801Y-14168984D02*
X9343753Y-14159460D01*
X9524705Y-14149936D02*
X9534229Y-14159460D01*
X9534229Y-14159460D02*
X9524705Y-14168984D01*
X9524705Y-14168984D02*
X9515182Y-14159460D01*
X9515182Y-14159460D02*
X9524705Y-14149936D01*
X9524705Y-14149936D02*
X9524705Y-14168984D01*
X9524705Y-14045174D02*
X9534229Y-14054698D01*
X9534229Y-14054698D02*
X9524705Y-14064222D01*
X9524705Y-14064222D02*
X9515182Y-14054698D01*
X9515182Y-14054698D02*
X9524705Y-14045174D01*
X9524705Y-14045174D02*
X9524705Y-14064222D01*
D12*
X7772500Y-14437500D02*
X7892500Y-14557500D01*
X7892500Y-14437500D02*
X7772500Y-14557500D01*
D11*
X8258039Y-14588984D02*
X8143753Y-14588984D01*
X8200896Y-14588984D02*
X8200896Y-14388984D01*
X8200896Y-14388984D02*
X8181848Y-14417555D01*
X8181848Y-14417555D02*
X8162801Y-14436603D01*
X8162801Y-14436603D02*
X8143753Y-14446127D01*
X8343753Y-14569936D02*
X8353277Y-14579460D01*
X8353277Y-14579460D02*
X8343753Y-14588984D01*
X8343753Y-14588984D02*
X8334229Y-14579460D01*
X8334229Y-14579460D02*
X8343753Y-14569936D01*
X8343753Y-14569936D02*
X8343753Y-14588984D01*
X8429467Y-14408031D02*
X8438991Y-14398508D01*
X8438991Y-14398508D02*
X8458039Y-14388984D01*
X8458039Y-14388984D02*
X8505658Y-14388984D01*
X8505658Y-14388984D02*
X8524705Y-14398508D01*
X8524705Y-14398508D02*
X8534229Y-14408031D01*
X8534229Y-14408031D02*
X8543753Y-14427079D01*
X8543753Y-14427079D02*
X8543753Y-14446127D01*
X8543753Y-14446127D02*
X8534229Y-14474698D01*
X8534229Y-14474698D02*
X8419944Y-14588984D01*
X8419944Y-14588984D02*
X8543753Y-14588984D01*
X8667563Y-14388984D02*
X8686610Y-14388984D01*
X8686610Y-14388984D02*
X8705658Y-14398508D01*
X8705658Y-14398508D02*
X8715182Y-14408031D01*
X8715182Y-14408031D02*
X8724705Y-14427079D01*
X8724705Y-14427079D02*
X8734229Y-14465174D01*
X8734229Y-14465174D02*
X8734229Y-14512793D01*
X8734229Y-14512793D02*
X8724705Y-14550888D01*
X8724705Y-14550888D02*
X8715182Y-14569936D01*
X8715182Y-14569936D02*
X8705658Y-14579460D01*
X8705658Y-14579460D02*
X8686610Y-14588984D01*
X8686610Y-14588984D02*
X8667563Y-14588984D01*
X8667563Y-14588984D02*
X8648515Y-14579460D01*
X8648515Y-14579460D02*
X8638991Y-14569936D01*
X8638991Y-14569936D02*
X8629467Y-14550888D01*
X8629467Y-14550888D02*
X8619944Y-14512793D01*
X8619944Y-14512793D02*
X8619944Y-14465174D01*
X8619944Y-14465174D02*
X8629467Y-14427079D01*
X8629467Y-14427079D02*
X8638991Y-14408031D01*
X8638991Y-14408031D02*
X8648515Y-14398508D01*
X8648515Y-14398508D02*
X8667563Y-14388984D01*
X8858039Y-14388984D02*
X8877086Y-14388984D01*
X8877086Y-14388984D02*
X8896134Y-14398508D01*
X8896134Y-14398508D02*
X8905658Y-14408031D01*
X8905658Y-14408031D02*
X8915182Y-14427079D01*
X8915182Y-14427079D02*
X8924705Y-14465174D01*
X8924705Y-14465174D02*
X8924705Y-14512793D01*
X8924705Y-14512793D02*
X8915182Y-14550888D01*
X8915182Y-14550888D02*
X8905658Y-14569936D01*
X8905658Y-14569936D02*
X8896134Y-14579460D01*
X8896134Y-14579460D02*
X8877086Y-14588984D01*
X8877086Y-14588984D02*
X8858039Y-14588984D01*
X8858039Y-14588984D02*
X8838991Y-14579460D01*
X8838991Y-14579460D02*
X8829467Y-14569936D01*
X8829467Y-14569936D02*
X8819944Y-14550888D01*
X8819944Y-14550888D02*
X8810420Y-14512793D01*
X8810420Y-14512793D02*
X8810420Y-14465174D01*
X8810420Y-14465174D02*
X8819944Y-14427079D01*
X8819944Y-14427079D02*
X8829467Y-14408031D01*
X8829467Y-14408031D02*
X8838991Y-14398508D01*
X8838991Y-14398508D02*
X8858039Y-14388984D01*
X9010420Y-14588984D02*
X9010420Y-14455650D01*
X9010420Y-14474698D02*
X9019944Y-14465174D01*
X9019944Y-14465174D02*
X9038991Y-14455650D01*
X9038991Y-14455650D02*
X9067563Y-14455650D01*
X9067563Y-14455650D02*
X9086610Y-14465174D01*
X9086610Y-14465174D02*
X9096134Y-14484222D01*
X9096134Y-14484222D02*
X9096134Y-14588984D01*
X9096134Y-14484222D02*
X9105658Y-14465174D01*
X9105658Y-14465174D02*
X9124705Y-14455650D01*
X9124705Y-14455650D02*
X9153277Y-14455650D01*
X9153277Y-14455650D02*
X9172325Y-14465174D01*
X9172325Y-14465174D02*
X9181848Y-14484222D01*
X9181848Y-14484222D02*
X9181848Y-14588984D01*
X9277086Y-14588984D02*
X9277086Y-14455650D01*
X9277086Y-14474698D02*
X9286610Y-14465174D01*
X9286610Y-14465174D02*
X9305658Y-14455650D01*
X9305658Y-14455650D02*
X9334229Y-14455650D01*
X9334229Y-14455650D02*
X9353277Y-14465174D01*
X9353277Y-14465174D02*
X9362801Y-14484222D01*
X9362801Y-14484222D02*
X9362801Y-14588984D01*
X9362801Y-14484222D02*
X9372325Y-14465174D01*
X9372325Y-14465174D02*
X9391372Y-14455650D01*
X9391372Y-14455650D02*
X9419944Y-14455650D01*
X9419944Y-14455650D02*
X9438991Y-14465174D01*
X9438991Y-14465174D02*
X9448515Y-14484222D01*
X9448515Y-14484222D02*
X9448515Y-14588984D01*
X9838991Y-14379460D02*
X9667563Y-14636603D01*
X10096134Y-14388984D02*
X10115182Y-14388984D01*
X10115182Y-14388984D02*
X10134229Y-14398508D01*
X10134229Y-14398508D02*
X10143753Y-14408031D01*
X10143753Y-14408031D02*
X10153277Y-14427079D01*
X10153277Y-14427079D02*
X10162801Y-14465174D01*
X10162801Y-14465174D02*
X10162801Y-14512793D01*
X10162801Y-14512793D02*
X10153277Y-14550888D01*
X10153277Y-14550888D02*
X10143753Y-14569936D01*
X10143753Y-14569936D02*
X10134229Y-14579460D01*
X10134229Y-14579460D02*
X10115182Y-14588984D01*
X10115182Y-14588984D02*
X10096134Y-14588984D01*
X10096134Y-14588984D02*
X10077087Y-14579460D01*
X10077087Y-14579460D02*
X10067563Y-14569936D01*
X10067563Y-14569936D02*
X10058039Y-14550888D01*
X10058039Y-14550888D02*
X10048515Y-14512793D01*
X10048515Y-14512793D02*
X10048515Y-14465174D01*
X10048515Y-14465174D02*
X10058039Y-14427079D01*
X10058039Y-14427079D02*
X10067563Y-14408031D01*
X10067563Y-14408031D02*
X10077087Y-14398508D01*
X10077087Y-14398508D02*
X10096134Y-14388984D01*
X10248515Y-14569936D02*
X10258039Y-14579460D01*
X10258039Y-14579460D02*
X10248515Y-14588984D01*
X10248515Y-14588984D02*
X10238991Y-14579460D01*
X10238991Y-14579460D02*
X10248515Y-14569936D01*
X10248515Y-14569936D02*
X10248515Y-14588984D01*
X10381848Y-14388984D02*
X10400896Y-14388984D01*
X10400896Y-14388984D02*
X10419944Y-14398508D01*
X10419944Y-14398508D02*
X10429468Y-14408031D01*
X10429468Y-14408031D02*
X10438991Y-14427079D01*
X10438991Y-14427079D02*
X10448515Y-14465174D01*
X10448515Y-14465174D02*
X10448515Y-14512793D01*
X10448515Y-14512793D02*
X10438991Y-14550888D01*
X10438991Y-14550888D02*
X10429468Y-14569936D01*
X10429468Y-14569936D02*
X10419944Y-14579460D01*
X10419944Y-14579460D02*
X10400896Y-14588984D01*
X10400896Y-14588984D02*
X10381848Y-14588984D01*
X10381848Y-14588984D02*
X10362801Y-14579460D01*
X10362801Y-14579460D02*
X10353277Y-14569936D01*
X10353277Y-14569936D02*
X10343753Y-14550888D01*
X10343753Y-14550888D02*
X10334229Y-14512793D01*
X10334229Y-14512793D02*
X10334229Y-14465174D01*
X10334229Y-14465174D02*
X10343753Y-14427079D01*
X10343753Y-14427079D02*
X10353277Y-14408031D01*
X10353277Y-14408031D02*
X10362801Y-14398508D01*
X10362801Y-14398508D02*
X10381848Y-14388984D01*
X10619944Y-14455650D02*
X10619944Y-14588984D01*
X10572325Y-14379460D02*
X10524706Y-14522317D01*
X10524706Y-14522317D02*
X10648515Y-14522317D01*
X10705658Y-14388984D02*
X10838991Y-14388984D01*
X10838991Y-14388984D02*
X10753277Y-14588984D01*
X10905658Y-14408031D02*
X10915182Y-14398508D01*
X10915182Y-14398508D02*
X10934229Y-14388984D01*
X10934229Y-14388984D02*
X10981849Y-14388984D01*
X10981849Y-14388984D02*
X11000896Y-14398508D01*
X11000896Y-14398508D02*
X11010420Y-14408031D01*
X11010420Y-14408031D02*
X11019944Y-14427079D01*
X11019944Y-14427079D02*
X11019944Y-14446127D01*
X11019944Y-14446127D02*
X11010420Y-14474698D01*
X11010420Y-14474698D02*
X10896134Y-14588984D01*
X10896134Y-14588984D02*
X11019944Y-14588984D01*
X11096134Y-14388984D02*
X11096134Y-14427079D01*
X11172325Y-14388984D02*
X11172325Y-14427079D01*
X11467563Y-14665174D02*
X11458039Y-14655650D01*
X11458039Y-14655650D02*
X11438991Y-14627079D01*
X11438991Y-14627079D02*
X11429468Y-14608031D01*
X11429468Y-14608031D02*
X11419944Y-14579460D01*
X11419944Y-14579460D02*
X11410420Y-14531841D01*
X11410420Y-14531841D02*
X11410420Y-14493746D01*
X11410420Y-14493746D02*
X11419944Y-14446127D01*
X11419944Y-14446127D02*
X11429468Y-14417555D01*
X11429468Y-14417555D02*
X11438991Y-14398508D01*
X11438991Y-14398508D02*
X11458039Y-14369936D01*
X11458039Y-14369936D02*
X11467563Y-14360412D01*
X11648515Y-14588984D02*
X11534229Y-14588984D01*
X11591372Y-14588984D02*
X11591372Y-14388984D01*
X11591372Y-14388984D02*
X11572325Y-14417555D01*
X11572325Y-14417555D02*
X11553277Y-14436603D01*
X11553277Y-14436603D02*
X11534229Y-14446127D01*
X11886610Y-14588984D02*
X11886610Y-14388984D01*
X11972325Y-14588984D02*
X11972325Y-14484222D01*
X11972325Y-14484222D02*
X11962801Y-14465174D01*
X11962801Y-14465174D02*
X11943753Y-14455650D01*
X11943753Y-14455650D02*
X11915182Y-14455650D01*
X11915182Y-14455650D02*
X11896134Y-14465174D01*
X11896134Y-14465174D02*
X11886610Y-14474698D01*
X12096134Y-14588984D02*
X12077087Y-14579460D01*
X12077087Y-14579460D02*
X12067563Y-14569936D01*
X12067563Y-14569936D02*
X12058039Y-14550888D01*
X12058039Y-14550888D02*
X12058039Y-14493746D01*
X12058039Y-14493746D02*
X12067563Y-14474698D01*
X12067563Y-14474698D02*
X12077087Y-14465174D01*
X12077087Y-14465174D02*
X12096134Y-14455650D01*
X12096134Y-14455650D02*
X12124706Y-14455650D01*
X12124706Y-14455650D02*
X12143753Y-14465174D01*
X12143753Y-14465174D02*
X12153277Y-14474698D01*
X12153277Y-14474698D02*
X12162801Y-14493746D01*
X12162801Y-14493746D02*
X12162801Y-14550888D01*
X12162801Y-14550888D02*
X12153277Y-14569936D01*
X12153277Y-14569936D02*
X12143753Y-14579460D01*
X12143753Y-14579460D02*
X12124706Y-14588984D01*
X12124706Y-14588984D02*
X12096134Y-14588984D01*
X12277087Y-14588984D02*
X12258039Y-14579460D01*
X12258039Y-14579460D02*
X12248515Y-14560412D01*
X12248515Y-14560412D02*
X12248515Y-14388984D01*
X12429468Y-14579460D02*
X12410420Y-14588984D01*
X12410420Y-14588984D02*
X12372325Y-14588984D01*
X12372325Y-14588984D02*
X12353277Y-14579460D01*
X12353277Y-14579460D02*
X12343753Y-14560412D01*
X12343753Y-14560412D02*
X12343753Y-14484222D01*
X12343753Y-14484222D02*
X12353277Y-14465174D01*
X12353277Y-14465174D02*
X12372325Y-14455650D01*
X12372325Y-14455650D02*
X12410420Y-14455650D01*
X12410420Y-14455650D02*
X12429468Y-14465174D01*
X12429468Y-14465174D02*
X12438991Y-14484222D01*
X12438991Y-14484222D02*
X12438991Y-14503269D01*
X12438991Y-14503269D02*
X12343753Y-14522317D01*
X12505658Y-14665174D02*
X12515182Y-14655650D01*
X12515182Y-14655650D02*
X12534230Y-14627079D01*
X12534230Y-14627079D02*
X12543753Y-14608031D01*
X12543753Y-14608031D02*
X12553277Y-14579460D01*
X12553277Y-14579460D02*
X12562801Y-14531841D01*
X12562801Y-14531841D02*
X12562801Y-14493746D01*
X12562801Y-14493746D02*
X12553277Y-14446127D01*
X12553277Y-14446127D02*
X12543753Y-14417555D01*
X12543753Y-14417555D02*
X12534230Y-14398508D01*
X12534230Y-14398508D02*
X12515182Y-14369936D01*
X12515182Y-14369936D02*
X12505658Y-14360412D01*
X12867563Y-14665174D02*
X12858039Y-14655650D01*
X12858039Y-14655650D02*
X12838991Y-14627079D01*
X12838991Y-14627079D02*
X12829468Y-14608031D01*
X12829468Y-14608031D02*
X12819944Y-14579460D01*
X12819944Y-14579460D02*
X12810420Y-14531841D01*
X12810420Y-14531841D02*
X12810420Y-14493746D01*
X12810420Y-14493746D02*
X12819944Y-14446127D01*
X12819944Y-14446127D02*
X12829468Y-14417555D01*
X12829468Y-14417555D02*
X12838991Y-14398508D01*
X12838991Y-14398508D02*
X12858039Y-14369936D01*
X12858039Y-14369936D02*
X12867563Y-14360412D01*
X12943753Y-14455650D02*
X12943753Y-14588984D01*
X12943753Y-14474698D02*
X12953277Y-14465174D01*
X12953277Y-14465174D02*
X12972325Y-14455650D01*
X12972325Y-14455650D02*
X13000896Y-14455650D01*
X13000896Y-14455650D02*
X13019944Y-14465174D01*
X13019944Y-14465174D02*
X13029468Y-14484222D01*
X13029468Y-14484222D02*
X13029468Y-14588984D01*
X13153277Y-14588984D02*
X13134230Y-14579460D01*
X13134230Y-14579460D02*
X13124706Y-14569936D01*
X13124706Y-14569936D02*
X13115182Y-14550888D01*
X13115182Y-14550888D02*
X13115182Y-14493746D01*
X13115182Y-14493746D02*
X13124706Y-14474698D01*
X13124706Y-14474698D02*
X13134230Y-14465174D01*
X13134230Y-14465174D02*
X13153277Y-14455650D01*
X13153277Y-14455650D02*
X13181849Y-14455650D01*
X13181849Y-14455650D02*
X13200896Y-14465174D01*
X13200896Y-14465174D02*
X13210420Y-14474698D01*
X13210420Y-14474698D02*
X13219944Y-14493746D01*
X13219944Y-14493746D02*
X13219944Y-14550888D01*
X13219944Y-14550888D02*
X13210420Y-14569936D01*
X13210420Y-14569936D02*
X13200896Y-14579460D01*
X13200896Y-14579460D02*
X13181849Y-14588984D01*
X13181849Y-14588984D02*
X13153277Y-14588984D01*
X13277087Y-14455650D02*
X13353277Y-14455650D01*
X13305658Y-14388984D02*
X13305658Y-14560412D01*
X13305658Y-14560412D02*
X13315182Y-14579460D01*
X13315182Y-14579460D02*
X13334230Y-14588984D01*
X13334230Y-14588984D02*
X13353277Y-14588984D01*
X13572325Y-14455650D02*
X13572325Y-14655650D01*
X13572325Y-14465174D02*
X13591372Y-14455650D01*
X13591372Y-14455650D02*
X13629468Y-14455650D01*
X13629468Y-14455650D02*
X13648515Y-14465174D01*
X13648515Y-14465174D02*
X13658039Y-14474698D01*
X13658039Y-14474698D02*
X13667563Y-14493746D01*
X13667563Y-14493746D02*
X13667563Y-14550888D01*
X13667563Y-14550888D02*
X13658039Y-14569936D01*
X13658039Y-14569936D02*
X13648515Y-14579460D01*
X13648515Y-14579460D02*
X13629468Y-14588984D01*
X13629468Y-14588984D02*
X13591372Y-14588984D01*
X13591372Y-14588984D02*
X13572325Y-14579460D01*
X13781849Y-14588984D02*
X13762801Y-14579460D01*
X13762801Y-14579460D02*
X13753277Y-14560412D01*
X13753277Y-14560412D02*
X13753277Y-14388984D01*
X13943753Y-14588984D02*
X13943753Y-14484222D01*
X13943753Y-14484222D02*
X13934230Y-14465174D01*
X13934230Y-14465174D02*
X13915182Y-14455650D01*
X13915182Y-14455650D02*
X13877087Y-14455650D01*
X13877087Y-14455650D02*
X13858039Y-14465174D01*
X13943753Y-14579460D02*
X13924706Y-14588984D01*
X13924706Y-14588984D02*
X13877087Y-14588984D01*
X13877087Y-14588984D02*
X13858039Y-14579460D01*
X13858039Y-14579460D02*
X13848515Y-14560412D01*
X13848515Y-14560412D02*
X13848515Y-14541365D01*
X13848515Y-14541365D02*
X13858039Y-14522317D01*
X13858039Y-14522317D02*
X13877087Y-14512793D01*
X13877087Y-14512793D02*
X13924706Y-14512793D01*
X13924706Y-14512793D02*
X13943753Y-14503269D01*
X14010420Y-14455650D02*
X14086611Y-14455650D01*
X14038992Y-14388984D02*
X14038992Y-14560412D01*
X14038992Y-14560412D02*
X14048515Y-14579460D01*
X14048515Y-14579460D02*
X14067563Y-14588984D01*
X14067563Y-14588984D02*
X14086611Y-14588984D01*
X14229468Y-14579460D02*
X14210420Y-14588984D01*
X14210420Y-14588984D02*
X14172325Y-14588984D01*
X14172325Y-14588984D02*
X14153277Y-14579460D01*
X14153277Y-14579460D02*
X14143753Y-14560412D01*
X14143753Y-14560412D02*
X14143753Y-14484222D01*
X14143753Y-14484222D02*
X14153277Y-14465174D01*
X14153277Y-14465174D02*
X14172325Y-14455650D01*
X14172325Y-14455650D02*
X14210420Y-14455650D01*
X14210420Y-14455650D02*
X14229468Y-14465174D01*
X14229468Y-14465174D02*
X14238992Y-14484222D01*
X14238992Y-14484222D02*
X14238992Y-14503269D01*
X14238992Y-14503269D02*
X14143753Y-14522317D01*
X14410420Y-14588984D02*
X14410420Y-14388984D01*
X14410420Y-14579460D02*
X14391373Y-14588984D01*
X14391373Y-14588984D02*
X14353277Y-14588984D01*
X14353277Y-14588984D02*
X14334230Y-14579460D01*
X14334230Y-14579460D02*
X14324706Y-14569936D01*
X14324706Y-14569936D02*
X14315182Y-14550888D01*
X14315182Y-14550888D02*
X14315182Y-14493746D01*
X14315182Y-14493746D02*
X14324706Y-14474698D01*
X14324706Y-14474698D02*
X14334230Y-14465174D01*
X14334230Y-14465174D02*
X14353277Y-14455650D01*
X14353277Y-14455650D02*
X14391373Y-14455650D01*
X14391373Y-14455650D02*
X14410420Y-14465174D01*
X14486611Y-14665174D02*
X14496134Y-14655650D01*
X14496134Y-14655650D02*
X14515182Y-14627079D01*
X14515182Y-14627079D02*
X14524706Y-14608031D01*
X14524706Y-14608031D02*
X14534230Y-14579460D01*
X14534230Y-14579460D02*
X14543753Y-14531841D01*
X14543753Y-14531841D02*
X14543753Y-14493746D01*
X14543753Y-14493746D02*
X14534230Y-14446127D01*
X14534230Y-14446127D02*
X14524706Y-14417555D01*
X14524706Y-14417555D02*
X14515182Y-14398508D01*
X14515182Y-14398508D02*
X14496134Y-14369936D01*
X14496134Y-14369936D02*
X14486611Y-14360412D01*
X7892500Y-14761500D02*
G75*
G02*
X7692500Y-14761500I-100000J0D01*
G01*
X7692500Y-14761500D02*
G75*
G02*
X7892500Y-14761500I100000J0D01*
G01*
X8134229Y-14652984D02*
X8258039Y-14652984D01*
X8258039Y-14652984D02*
X8191372Y-14729174D01*
X8191372Y-14729174D02*
X8219943Y-14729174D01*
X8219943Y-14729174D02*
X8238991Y-14738698D01*
X8238991Y-14738698D02*
X8248515Y-14748222D01*
X8248515Y-14748222D02*
X8258039Y-14767269D01*
X8258039Y-14767269D02*
X8258039Y-14814888D01*
X8258039Y-14814888D02*
X8248515Y-14833936D01*
X8248515Y-14833936D02*
X8238991Y-14843460D01*
X8238991Y-14843460D02*
X8219943Y-14852984D01*
X8219943Y-14852984D02*
X8162801Y-14852984D01*
X8162801Y-14852984D02*
X8143753Y-14843460D01*
X8143753Y-14843460D02*
X8134229Y-14833936D01*
X8343753Y-14833936D02*
X8353277Y-14843460D01*
X8353277Y-14843460D02*
X8343753Y-14852984D01*
X8343753Y-14852984D02*
X8334229Y-14843460D01*
X8334229Y-14843460D02*
X8343753Y-14833936D01*
X8343753Y-14833936D02*
X8343753Y-14852984D01*
X8429467Y-14672031D02*
X8438991Y-14662508D01*
X8438991Y-14662508D02*
X8458039Y-14652984D01*
X8458039Y-14652984D02*
X8505658Y-14652984D01*
X8505658Y-14652984D02*
X8524705Y-14662508D01*
X8524705Y-14662508D02*
X8534229Y-14672031D01*
X8534229Y-14672031D02*
X8543753Y-14691079D01*
X8543753Y-14691079D02*
X8543753Y-14710127D01*
X8543753Y-14710127D02*
X8534229Y-14738698D01*
X8534229Y-14738698D02*
X8419944Y-14852984D01*
X8419944Y-14852984D02*
X8543753Y-14852984D01*
X8667563Y-14652984D02*
X8686610Y-14652984D01*
X8686610Y-14652984D02*
X8705658Y-14662508D01*
X8705658Y-14662508D02*
X8715182Y-14672031D01*
X8715182Y-14672031D02*
X8724705Y-14691079D01*
X8724705Y-14691079D02*
X8734229Y-14729174D01*
X8734229Y-14729174D02*
X8734229Y-14776793D01*
X8734229Y-14776793D02*
X8724705Y-14814888D01*
X8724705Y-14814888D02*
X8715182Y-14833936D01*
X8715182Y-14833936D02*
X8705658Y-14843460D01*
X8705658Y-14843460D02*
X8686610Y-14852984D01*
X8686610Y-14852984D02*
X8667563Y-14852984D01*
X8667563Y-14852984D02*
X8648515Y-14843460D01*
X8648515Y-14843460D02*
X8638991Y-14833936D01*
X8638991Y-14833936D02*
X8629467Y-14814888D01*
X8629467Y-14814888D02*
X8619944Y-14776793D01*
X8619944Y-14776793D02*
X8619944Y-14729174D01*
X8619944Y-14729174D02*
X8629467Y-14691079D01*
X8629467Y-14691079D02*
X8638991Y-14672031D01*
X8638991Y-14672031D02*
X8648515Y-14662508D01*
X8648515Y-14662508D02*
X8667563Y-14652984D01*
X8858039Y-14652984D02*
X8877086Y-14652984D01*
X8877086Y-14652984D02*
X8896134Y-14662508D01*
X8896134Y-14662508D02*
X8905658Y-14672031D01*
X8905658Y-14672031D02*
X8915182Y-14691079D01*
X8915182Y-14691079D02*
X8924705Y-14729174D01*
X8924705Y-14729174D02*
X8924705Y-14776793D01*
X8924705Y-14776793D02*
X8915182Y-14814888D01*
X8915182Y-14814888D02*
X8905658Y-14833936D01*
X8905658Y-14833936D02*
X8896134Y-14843460D01*
X8896134Y-14843460D02*
X8877086Y-14852984D01*
X8877086Y-14852984D02*
X8858039Y-14852984D01*
X8858039Y-14852984D02*
X8838991Y-14843460D01*
X8838991Y-14843460D02*
X8829467Y-14833936D01*
X8829467Y-14833936D02*
X8819944Y-14814888D01*
X8819944Y-14814888D02*
X8810420Y-14776793D01*
X8810420Y-14776793D02*
X8810420Y-14729174D01*
X8810420Y-14729174D02*
X8819944Y-14691079D01*
X8819944Y-14691079D02*
X8829467Y-14672031D01*
X8829467Y-14672031D02*
X8838991Y-14662508D01*
X8838991Y-14662508D02*
X8858039Y-14652984D01*
X9010420Y-14852984D02*
X9010420Y-14719650D01*
X9010420Y-14738698D02*
X9019944Y-14729174D01*
X9019944Y-14729174D02*
X9038991Y-14719650D01*
X9038991Y-14719650D02*
X9067563Y-14719650D01*
X9067563Y-14719650D02*
X9086610Y-14729174D01*
X9086610Y-14729174D02*
X9096134Y-14748222D01*
X9096134Y-14748222D02*
X9096134Y-14852984D01*
X9096134Y-14748222D02*
X9105658Y-14729174D01*
X9105658Y-14729174D02*
X9124705Y-14719650D01*
X9124705Y-14719650D02*
X9153277Y-14719650D01*
X9153277Y-14719650D02*
X9172325Y-14729174D01*
X9172325Y-14729174D02*
X9181848Y-14748222D01*
X9181848Y-14748222D02*
X9181848Y-14852984D01*
X9277086Y-14852984D02*
X9277086Y-14719650D01*
X9277086Y-14738698D02*
X9286610Y-14729174D01*
X9286610Y-14729174D02*
X9305658Y-14719650D01*
X9305658Y-14719650D02*
X9334229Y-14719650D01*
X9334229Y-14719650D02*
X9353277Y-14729174D01*
X9353277Y-14729174D02*
X9362801Y-14748222D01*
X9362801Y-14748222D02*
X9362801Y-14852984D01*
X9362801Y-14748222D02*
X9372325Y-14729174D01*
X9372325Y-14729174D02*
X9391372Y-14719650D01*
X9391372Y-14719650D02*
X9419944Y-14719650D01*
X9419944Y-14719650D02*
X9438991Y-14729174D01*
X9438991Y-14729174D02*
X9448515Y-14748222D01*
X9448515Y-14748222D02*
X9448515Y-14852984D01*
X9838991Y-14643460D02*
X9667563Y-14900603D01*
X10096134Y-14652984D02*
X10115182Y-14652984D01*
X10115182Y-14652984D02*
X10134229Y-14662508D01*
X10134229Y-14662508D02*
X10143753Y-14672031D01*
X10143753Y-14672031D02*
X10153277Y-14691079D01*
X10153277Y-14691079D02*
X10162801Y-14729174D01*
X10162801Y-14729174D02*
X10162801Y-14776793D01*
X10162801Y-14776793D02*
X10153277Y-14814888D01*
X10153277Y-14814888D02*
X10143753Y-14833936D01*
X10143753Y-14833936D02*
X10134229Y-14843460D01*
X10134229Y-14843460D02*
X10115182Y-14852984D01*
X10115182Y-14852984D02*
X10096134Y-14852984D01*
X10096134Y-14852984D02*
X10077087Y-14843460D01*
X10077087Y-14843460D02*
X10067563Y-14833936D01*
X10067563Y-14833936D02*
X10058039Y-14814888D01*
X10058039Y-14814888D02*
X10048515Y-14776793D01*
X10048515Y-14776793D02*
X10048515Y-14729174D01*
X10048515Y-14729174D02*
X10058039Y-14691079D01*
X10058039Y-14691079D02*
X10067563Y-14672031D01*
X10067563Y-14672031D02*
X10077087Y-14662508D01*
X10077087Y-14662508D02*
X10096134Y-14652984D01*
X10248515Y-14833936D02*
X10258039Y-14843460D01*
X10258039Y-14843460D02*
X10248515Y-14852984D01*
X10248515Y-14852984D02*
X10238991Y-14843460D01*
X10238991Y-14843460D02*
X10248515Y-14833936D01*
X10248515Y-14833936D02*
X10248515Y-14852984D01*
X10448515Y-14852984D02*
X10334229Y-14852984D01*
X10391372Y-14852984D02*
X10391372Y-14652984D01*
X10391372Y-14652984D02*
X10372325Y-14681555D01*
X10372325Y-14681555D02*
X10353277Y-14700603D01*
X10353277Y-14700603D02*
X10334229Y-14710127D01*
X10524706Y-14672031D02*
X10534229Y-14662508D01*
X10534229Y-14662508D02*
X10553277Y-14652984D01*
X10553277Y-14652984D02*
X10600896Y-14652984D01*
X10600896Y-14652984D02*
X10619944Y-14662508D01*
X10619944Y-14662508D02*
X10629468Y-14672031D01*
X10629468Y-14672031D02*
X10638991Y-14691079D01*
X10638991Y-14691079D02*
X10638991Y-14710127D01*
X10638991Y-14710127D02*
X10629468Y-14738698D01*
X10629468Y-14738698D02*
X10515182Y-14852984D01*
X10515182Y-14852984D02*
X10638991Y-14852984D01*
X10810420Y-14652984D02*
X10772325Y-14652984D01*
X10772325Y-14652984D02*
X10753277Y-14662508D01*
X10753277Y-14662508D02*
X10743753Y-14672031D01*
X10743753Y-14672031D02*
X10724706Y-14700603D01*
X10724706Y-14700603D02*
X10715182Y-14738698D01*
X10715182Y-14738698D02*
X10715182Y-14814888D01*
X10715182Y-14814888D02*
X10724706Y-14833936D01*
X10724706Y-14833936D02*
X10734229Y-14843460D01*
X10734229Y-14843460D02*
X10753277Y-14852984D01*
X10753277Y-14852984D02*
X10791372Y-14852984D01*
X10791372Y-14852984D02*
X10810420Y-14843460D01*
X10810420Y-14843460D02*
X10819944Y-14833936D01*
X10819944Y-14833936D02*
X10829468Y-14814888D01*
X10829468Y-14814888D02*
X10829468Y-14767269D01*
X10829468Y-14767269D02*
X10819944Y-14748222D01*
X10819944Y-14748222D02*
X10810420Y-14738698D01*
X10810420Y-14738698D02*
X10791372Y-14729174D01*
X10791372Y-14729174D02*
X10753277Y-14729174D01*
X10753277Y-14729174D02*
X10734229Y-14738698D01*
X10734229Y-14738698D02*
X10724706Y-14748222D01*
X10724706Y-14748222D02*
X10715182Y-14767269D01*
X10953277Y-14652984D02*
X10972325Y-14652984D01*
X10972325Y-14652984D02*
X10991372Y-14662508D01*
X10991372Y-14662508D02*
X11000896Y-14672031D01*
X11000896Y-14672031D02*
X11010420Y-14691079D01*
X11010420Y-14691079D02*
X11019944Y-14729174D01*
X11019944Y-14729174D02*
X11019944Y-14776793D01*
X11019944Y-14776793D02*
X11010420Y-14814888D01*
X11010420Y-14814888D02*
X11000896Y-14833936D01*
X11000896Y-14833936D02*
X10991372Y-14843460D01*
X10991372Y-14843460D02*
X10972325Y-14852984D01*
X10972325Y-14852984D02*
X10953277Y-14852984D01*
X10953277Y-14852984D02*
X10934229Y-14843460D01*
X10934229Y-14843460D02*
X10924706Y-14833936D01*
X10924706Y-14833936D02*
X10915182Y-14814888D01*
X10915182Y-14814888D02*
X10905658Y-14776793D01*
X10905658Y-14776793D02*
X10905658Y-14729174D01*
X10905658Y-14729174D02*
X10915182Y-14691079D01*
X10915182Y-14691079D02*
X10924706Y-14672031D01*
X10924706Y-14672031D02*
X10934229Y-14662508D01*
X10934229Y-14662508D02*
X10953277Y-14652984D01*
X11096134Y-14652984D02*
X11096134Y-14691079D01*
X11172325Y-14652984D02*
X11172325Y-14691079D01*
X11467563Y-14929174D02*
X11458039Y-14919650D01*
X11458039Y-14919650D02*
X11438991Y-14891079D01*
X11438991Y-14891079D02*
X11429468Y-14872031D01*
X11429468Y-14872031D02*
X11419944Y-14843460D01*
X11419944Y-14843460D02*
X11410420Y-14795841D01*
X11410420Y-14795841D02*
X11410420Y-14757746D01*
X11410420Y-14757746D02*
X11419944Y-14710127D01*
X11419944Y-14710127D02*
X11429468Y-14681555D01*
X11429468Y-14681555D02*
X11438991Y-14662508D01*
X11438991Y-14662508D02*
X11458039Y-14633936D01*
X11458039Y-14633936D02*
X11467563Y-14624412D01*
X11629468Y-14719650D02*
X11629468Y-14852984D01*
X11581848Y-14643460D02*
X11534229Y-14786317D01*
X11534229Y-14786317D02*
X11658039Y-14786317D01*
X11886610Y-14852984D02*
X11886610Y-14652984D01*
X11972325Y-14852984D02*
X11972325Y-14748222D01*
X11972325Y-14748222D02*
X11962801Y-14729174D01*
X11962801Y-14729174D02*
X11943753Y-14719650D01*
X11943753Y-14719650D02*
X11915182Y-14719650D01*
X11915182Y-14719650D02*
X11896134Y-14729174D01*
X11896134Y-14729174D02*
X11886610Y-14738698D01*
X12096134Y-14852984D02*
X12077087Y-14843460D01*
X12077087Y-14843460D02*
X12067563Y-14833936D01*
X12067563Y-14833936D02*
X12058039Y-14814888D01*
X12058039Y-14814888D02*
X12058039Y-14757746D01*
X12058039Y-14757746D02*
X12067563Y-14738698D01*
X12067563Y-14738698D02*
X12077087Y-14729174D01*
X12077087Y-14729174D02*
X12096134Y-14719650D01*
X12096134Y-14719650D02*
X12124706Y-14719650D01*
X12124706Y-14719650D02*
X12143753Y-14729174D01*
X12143753Y-14729174D02*
X12153277Y-14738698D01*
X12153277Y-14738698D02*
X12162801Y-14757746D01*
X12162801Y-14757746D02*
X12162801Y-14814888D01*
X12162801Y-14814888D02*
X12153277Y-14833936D01*
X12153277Y-14833936D02*
X12143753Y-14843460D01*
X12143753Y-14843460D02*
X12124706Y-14852984D01*
X12124706Y-14852984D02*
X12096134Y-14852984D01*
X12277087Y-14852984D02*
X12258039Y-14843460D01*
X12258039Y-14843460D02*
X12248515Y-14824412D01*
X12248515Y-14824412D02*
X12248515Y-14652984D01*
X12429468Y-14843460D02*
X12410420Y-14852984D01*
X12410420Y-14852984D02*
X12372325Y-14852984D01*
X12372325Y-14852984D02*
X12353277Y-14843460D01*
X12353277Y-14843460D02*
X12343753Y-14824412D01*
X12343753Y-14824412D02*
X12343753Y-14748222D01*
X12343753Y-14748222D02*
X12353277Y-14729174D01*
X12353277Y-14729174D02*
X12372325Y-14719650D01*
X12372325Y-14719650D02*
X12410420Y-14719650D01*
X12410420Y-14719650D02*
X12429468Y-14729174D01*
X12429468Y-14729174D02*
X12438991Y-14748222D01*
X12438991Y-14748222D02*
X12438991Y-14767269D01*
X12438991Y-14767269D02*
X12343753Y-14786317D01*
X12515182Y-14843460D02*
X12534230Y-14852984D01*
X12534230Y-14852984D02*
X12572325Y-14852984D01*
X12572325Y-14852984D02*
X12591372Y-14843460D01*
X12591372Y-14843460D02*
X12600896Y-14824412D01*
X12600896Y-14824412D02*
X12600896Y-14814888D01*
X12600896Y-14814888D02*
X12591372Y-14795841D01*
X12591372Y-14795841D02*
X12572325Y-14786317D01*
X12572325Y-14786317D02*
X12543753Y-14786317D01*
X12543753Y-14786317D02*
X12524706Y-14776793D01*
X12524706Y-14776793D02*
X12515182Y-14757746D01*
X12515182Y-14757746D02*
X12515182Y-14748222D01*
X12515182Y-14748222D02*
X12524706Y-14729174D01*
X12524706Y-14729174D02*
X12543753Y-14719650D01*
X12543753Y-14719650D02*
X12572325Y-14719650D01*
X12572325Y-14719650D02*
X12591372Y-14729174D01*
X12667563Y-14929174D02*
X12677087Y-14919650D01*
X12677087Y-14919650D02*
X12696134Y-14891079D01*
X12696134Y-14891079D02*
X12705658Y-14872031D01*
X12705658Y-14872031D02*
X12715182Y-14843460D01*
X12715182Y-14843460D02*
X12724706Y-14795841D01*
X12724706Y-14795841D02*
X12724706Y-14757746D01*
X12724706Y-14757746D02*
X12715182Y-14710127D01*
X12715182Y-14710127D02*
X12705658Y-14681555D01*
X12705658Y-14681555D02*
X12696134Y-14662508D01*
X12696134Y-14662508D02*
X12677087Y-14633936D01*
X12677087Y-14633936D02*
X12667563Y-14624412D01*
X13029468Y-14929174D02*
X13019944Y-14919650D01*
X13019944Y-14919650D02*
X13000896Y-14891079D01*
X13000896Y-14891079D02*
X12991372Y-14872031D01*
X12991372Y-14872031D02*
X12981849Y-14843460D01*
X12981849Y-14843460D02*
X12972325Y-14795841D01*
X12972325Y-14795841D02*
X12972325Y-14757746D01*
X12972325Y-14757746D02*
X12981849Y-14710127D01*
X12981849Y-14710127D02*
X12991372Y-14681555D01*
X12991372Y-14681555D02*
X13000896Y-14662508D01*
X13000896Y-14662508D02*
X13019944Y-14633936D01*
X13019944Y-14633936D02*
X13029468Y-14624412D01*
X13105658Y-14719650D02*
X13105658Y-14852984D01*
X13105658Y-14738698D02*
X13115182Y-14729174D01*
X13115182Y-14729174D02*
X13134230Y-14719650D01*
X13134230Y-14719650D02*
X13162801Y-14719650D01*
X13162801Y-14719650D02*
X13181849Y-14729174D01*
X13181849Y-14729174D02*
X13191372Y-14748222D01*
X13191372Y-14748222D02*
X13191372Y-14852984D01*
X13315182Y-14852984D02*
X13296134Y-14843460D01*
X13296134Y-14843460D02*
X13286611Y-14833936D01*
X13286611Y-14833936D02*
X13277087Y-14814888D01*
X13277087Y-14814888D02*
X13277087Y-14757746D01*
X13277087Y-14757746D02*
X13286611Y-14738698D01*
X13286611Y-14738698D02*
X13296134Y-14729174D01*
X13296134Y-14729174D02*
X13315182Y-14719650D01*
X13315182Y-14719650D02*
X13343753Y-14719650D01*
X13343753Y-14719650D02*
X13362801Y-14729174D01*
X13362801Y-14729174D02*
X13372325Y-14738698D01*
X13372325Y-14738698D02*
X13381849Y-14757746D01*
X13381849Y-14757746D02*
X13381849Y-14814888D01*
X13381849Y-14814888D02*
X13372325Y-14833936D01*
X13372325Y-14833936D02*
X13362801Y-14843460D01*
X13362801Y-14843460D02*
X13343753Y-14852984D01*
X13343753Y-14852984D02*
X13315182Y-14852984D01*
X13438992Y-14719650D02*
X13515182Y-14719650D01*
X13467563Y-14652984D02*
X13467563Y-14824412D01*
X13467563Y-14824412D02*
X13477087Y-14843460D01*
X13477087Y-14843460D02*
X13496134Y-14852984D01*
X13496134Y-14852984D02*
X13515182Y-14852984D01*
X13734230Y-14719650D02*
X13734230Y-14919650D01*
X13734230Y-14729174D02*
X13753277Y-14719650D01*
X13753277Y-14719650D02*
X13791373Y-14719650D01*
X13791373Y-14719650D02*
X13810420Y-14729174D01*
X13810420Y-14729174D02*
X13819944Y-14738698D01*
X13819944Y-14738698D02*
X13829468Y-14757746D01*
X13829468Y-14757746D02*
X13829468Y-14814888D01*
X13829468Y-14814888D02*
X13819944Y-14833936D01*
X13819944Y-14833936D02*
X13810420Y-14843460D01*
X13810420Y-14843460D02*
X13791373Y-14852984D01*
X13791373Y-14852984D02*
X13753277Y-14852984D01*
X13753277Y-14852984D02*
X13734230Y-14843460D01*
X13943753Y-14852984D02*
X13924706Y-14843460D01*
X13924706Y-14843460D02*
X13915182Y-14824412D01*
X13915182Y-14824412D02*
X13915182Y-14652984D01*
X14105658Y-14852984D02*
X14105658Y-14748222D01*
X14105658Y-14748222D02*
X14096134Y-14729174D01*
X14096134Y-14729174D02*
X14077087Y-14719650D01*
X14077087Y-14719650D02*
X14038992Y-14719650D01*
X14038992Y-14719650D02*
X14019944Y-14729174D01*
X14105658Y-14843460D02*
X14086611Y-14852984D01*
X14086611Y-14852984D02*
X14038992Y-14852984D01*
X14038992Y-14852984D02*
X14019944Y-14843460D01*
X14019944Y-14843460D02*
X14010420Y-14824412D01*
X14010420Y-14824412D02*
X14010420Y-14805365D01*
X14010420Y-14805365D02*
X14019944Y-14786317D01*
X14019944Y-14786317D02*
X14038992Y-14776793D01*
X14038992Y-14776793D02*
X14086611Y-14776793D01*
X14086611Y-14776793D02*
X14105658Y-14767269D01*
X14172325Y-14719650D02*
X14248515Y-14719650D01*
X14200896Y-14652984D02*
X14200896Y-14824412D01*
X14200896Y-14824412D02*
X14210420Y-14843460D01*
X14210420Y-14843460D02*
X14229468Y-14852984D01*
X14229468Y-14852984D02*
X14248515Y-14852984D01*
X14391373Y-14843460D02*
X14372325Y-14852984D01*
X14372325Y-14852984D02*
X14334230Y-14852984D01*
X14334230Y-14852984D02*
X14315182Y-14843460D01*
X14315182Y-14843460D02*
X14305658Y-14824412D01*
X14305658Y-14824412D02*
X14305658Y-14748222D01*
X14305658Y-14748222D02*
X14315182Y-14729174D01*
X14315182Y-14729174D02*
X14334230Y-14719650D01*
X14334230Y-14719650D02*
X14372325Y-14719650D01*
X14372325Y-14719650D02*
X14391373Y-14729174D01*
X14391373Y-14729174D02*
X14400896Y-14748222D01*
X14400896Y-14748222D02*
X14400896Y-14767269D01*
X14400896Y-14767269D02*
X14305658Y-14786317D01*
X14572325Y-14852984D02*
X14572325Y-14652984D01*
X14572325Y-14843460D02*
X14553277Y-14852984D01*
X14553277Y-14852984D02*
X14515182Y-14852984D01*
X14515182Y-14852984D02*
X14496134Y-14843460D01*
X14496134Y-14843460D02*
X14486611Y-14833936D01*
X14486611Y-14833936D02*
X14477087Y-14814888D01*
X14477087Y-14814888D02*
X14477087Y-14757746D01*
X14477087Y-14757746D02*
X14486611Y-14738698D01*
X14486611Y-14738698D02*
X14496134Y-14729174D01*
X14496134Y-14729174D02*
X14515182Y-14719650D01*
X14515182Y-14719650D02*
X14553277Y-14719650D01*
X14553277Y-14719650D02*
X14572325Y-14729174D01*
X14648515Y-14929174D02*
X14658039Y-14919650D01*
X14658039Y-14919650D02*
X14677087Y-14891079D01*
X14677087Y-14891079D02*
X14686611Y-14872031D01*
X14686611Y-14872031D02*
X14696134Y-14843460D01*
X14696134Y-14843460D02*
X14705658Y-14795841D01*
X14705658Y-14795841D02*
X14705658Y-14757746D01*
X14705658Y-14757746D02*
X14696134Y-14710127D01*
X14696134Y-14710127D02*
X14686611Y-14681555D01*
X14686611Y-14681555D02*
X14677087Y-14662508D01*
X14677087Y-14662508D02*
X14658039Y-14633936D01*
X14658039Y-14633936D02*
X14648515Y-14624412D01*
M02*
