M48
; DRILL file {KiCad 9.0.0} date 2025-04-17T11:42:54-0700
; FORMAT={-:-/ absolute / metric / decimal}
; #@! TF.CreationDate,2025-04-17T11:42:54-07:00
; #@! TF.GenerationSoftware,Kicad,Pcbnew,9.0.0
; #@! TF.FileFunction,Plated,1,4,PTH
FMAT,2
METRIC
; #@! TA.AperFunction,Plated,PTH,ViaDrill
T1C0.400
; #@! TA.AperFunction,Plated,PTH,ComponentDrill
T2C0.950
; #@! TA.AperFunction,Plated,PTH,ComponentDrill
T3C1.100
%
G90
G05
T1
X82.0Y-122.5
X83.0Y-122.5
X84.0Y-122.5
X88.9Y-117.3
X88.9Y-118.2
X99.68Y-113.46
X106.0Y-108.0
X106.0Y-109.0
X107.0Y-108.0
X107.0Y-109.0
X108.0Y-108.0
X108.0Y-109.0
X108.275Y-117.2
X109.6Y-117.6
X113.5Y-113.5
X119.8Y-117.25
X124.0Y-136.0
X124.0Y-137.0
X125.0Y-136.0
X125.0Y-137.0
T2
X83.175Y-89.505
X83.175Y-112.0
X83.175Y-114.905
X85.715Y-89.505
X85.715Y-112.0
X85.715Y-114.905
X88.255Y-89.505
X88.255Y-112.0
X88.255Y-114.905
X90.795Y-89.505
X90.795Y-112.0
X90.795Y-114.905
X93.335Y-86.6
X93.335Y-89.505
X93.335Y-112.0
X93.335Y-114.905
X95.875Y-86.6
X95.875Y-112.0
X95.875Y-114.905
X98.415Y-86.6
X98.415Y-112.0
X98.415Y-114.905
X100.955Y-86.6
X100.955Y-112.0
X100.955Y-114.905
X103.495Y-86.6
X103.495Y-112.0
X103.495Y-114.905
X109.64Y-89.5
X109.64Y-112.0
X109.64Y-114.9
X112.18Y-89.5
X112.18Y-112.0
X112.18Y-114.9
X114.72Y-89.5
X114.72Y-112.0
X114.72Y-114.9
X117.26Y-89.5
X117.26Y-112.0
X117.26Y-114.9
X119.8Y-86.6
X119.8Y-89.5
X119.8Y-112.0
X119.8Y-114.9
X122.34Y-86.6
X122.34Y-112.0
X122.34Y-114.9
X124.88Y-86.6
X124.88Y-112.0
X124.88Y-114.9
X127.42Y-86.6
X127.42Y-112.0
X127.42Y-114.9
X128.75Y-120.85
X128.75Y-123.35
X128.75Y-125.85
X128.75Y-128.35
X129.96Y-86.6
X129.96Y-112.0
X129.96Y-114.9
T3
X81.38Y-120.0
X81.38Y-135.24
X83.92Y-120.0
X83.92Y-132.7
X83.92Y-135.24
X86.46Y-120.0
X86.46Y-135.24
X89.0Y-120.0
X89.0Y-135.24
X91.54Y-120.0
X91.54Y-135.24
X94.08Y-120.0
X94.08Y-135.24
X96.62Y-120.0
X96.62Y-135.24
X99.16Y-120.0
X99.16Y-135.24
X101.7Y-120.0
X101.7Y-135.24
X104.24Y-120.0
X104.24Y-135.24
X106.78Y-120.0
X106.78Y-122.54
X106.78Y-125.08
X106.78Y-127.62
X106.78Y-130.16
X106.78Y-132.7
X106.78Y-135.24
X109.32Y-120.0
X109.32Y-122.54
X109.32Y-125.08
X109.32Y-127.62
X109.32Y-130.16
X109.32Y-132.7
X109.32Y-135.24
X111.86Y-120.0
X111.86Y-135.24
X114.4Y-120.0
X114.4Y-122.54
X114.4Y-125.08
X114.4Y-127.62
X114.4Y-130.16
X114.4Y-132.7
X114.4Y-135.24
M30
