G04 #@! TF.GenerationSoftware,KiCad,Pcbnew,7.0.8*
G04 #@! TF.CreationDate,2024-01-21T01:23:10-07:00*
G04 #@! TF.ProjectId,Pedal Load ,50656461-6c20-44c6-9f61-64202e6b6963,rev?*
G04 #@! TF.SameCoordinates,Original*
G04 #@! TF.FileFunction,Soldermask,Bot*
G04 #@! TF.FilePolarity,Negative*
%FSLAX46Y46*%
G04 Gerber Fmt 4.6, Leading zero omitted, Abs format (unit mm)*
G04 Created by KiCad (PCBNEW 7.0.8) date 2024-01-21 01:23:10*
%MOMM*%
%LPD*%
G01*
G04 APERTURE LIST*
G04 Aperture macros list*
%AMRoundRect*
0 Rectangle with rounded corners*
0 $1 Rounding radius*
0 $2 $3 $4 $5 $6 $7 $8 $9 X,Y pos of 4 corners*
0 Add a 4 corners polygon primitive as box body*
4,1,4,$2,$3,$4,$5,$6,$7,$8,$9,$2,$3,0*
0 Add four circle primitives for the rounded corners*
1,1,$1+$1,$2,$3*
1,1,$1+$1,$4,$5*
1,1,$1+$1,$6,$7*
1,1,$1+$1,$8,$9*
0 Add four rect primitives between the rounded corners*
20,1,$1+$1,$2,$3,$4,$5,0*
20,1,$1+$1,$4,$5,$6,$7,0*
20,1,$1+$1,$6,$7,$8,$9,0*
20,1,$1+$1,$8,$9,$2,$3,0*%
G04 Aperture macros list end*
%ADD10C,3.200000*%
%ADD11O,1.950000X1.700000*%
%ADD12RoundRect,0.250000X-0.725000X0.600000X-0.725000X-0.600000X0.725000X-0.600000X0.725000X0.600000X0*%
%ADD13O,1.700000X1.700000*%
%ADD14R,1.700000X1.700000*%
%ADD15C,1.600000*%
G04 APERTURE END LIST*
D10*
X173800000Y-48145584D03*
D11*
X169925000Y-97100000D03*
X169925000Y-94600000D03*
D12*
X169925000Y-92100000D03*
D10*
X107154416Y-48145584D03*
X173800000Y-104445584D03*
D11*
X170300000Y-65100000D03*
X170300000Y-62600000D03*
X170300000Y-60100000D03*
D12*
X170300000Y-57600000D03*
D11*
X110954416Y-97745584D03*
X110954416Y-95245584D03*
X110954416Y-92745584D03*
D12*
X110954416Y-90245584D03*
D13*
X129404416Y-67045584D03*
X126864416Y-67045584D03*
X124324416Y-67045584D03*
X121784416Y-67045584D03*
X119244416Y-67045584D03*
D14*
X116704416Y-67045584D03*
D15*
X154394416Y-85165584D03*
X156934416Y-85165584D03*
X154394416Y-82625584D03*
X156934416Y-82625584D03*
X154394416Y-80085584D03*
X156934416Y-80085584D03*
X154394416Y-77545584D03*
X156934416Y-77545584D03*
X154394416Y-75005584D03*
X156934416Y-75005584D03*
X131534416Y-75005584D03*
X128994416Y-72465584D03*
X131534416Y-72465584D03*
X134074416Y-72465584D03*
X136614416Y-72465584D03*
X139154416Y-72465584D03*
X141694416Y-72465584D03*
X144234416Y-72465584D03*
X146774416Y-72465584D03*
X149314416Y-72465584D03*
X151854416Y-72465584D03*
X154394416Y-72465584D03*
X156934416Y-72465584D03*
X159474416Y-72465584D03*
X162014416Y-72465584D03*
X162014416Y-75005584D03*
X162014416Y-77545584D03*
X162014416Y-80085584D03*
X162014416Y-82625584D03*
X162014416Y-85165584D03*
X162014416Y-87705584D03*
X159474416Y-87705584D03*
X156934416Y-87705584D03*
X154394416Y-87705584D03*
X151854416Y-87705584D03*
X149314416Y-87705584D03*
X146774416Y-87705584D03*
X144234416Y-87705584D03*
X141694416Y-87705584D03*
X139154416Y-87705584D03*
X136614416Y-87705584D03*
X134074416Y-87705584D03*
X131534416Y-87705584D03*
X128994416Y-87705584D03*
D10*
X107154416Y-104445584D03*
D13*
X157400000Y-66165000D03*
D14*
X157400000Y-63625000D03*
M02*
