G04 #@! TF.GenerationSoftware,KiCad,Pcbnew,7.0.8*
G04 #@! TF.CreationDate,2024-01-21T01:23:10-07:00*
G04 #@! TF.ProjectId,Pedal Load ,50656461-6c20-44c6-9f61-64202e6b6963,rev?*
G04 #@! TF.SameCoordinates,Original*
G04 #@! TF.FileFunction,Soldermask,Top*
G04 #@! TF.FilePolarity,Negative*
%FSLAX46Y46*%
G04 Gerber Fmt 4.6, Leading zero omitted, Abs format (unit mm)*
G04 Created by KiCad (PCBNEW 7.0.8) date 2024-01-21 01:23:10*
%MOMM*%
%LPD*%
G01*
G04 APERTURE LIST*
G04 Aperture macros list*
%AMRoundRect*
0 Rectangle with rounded corners*
0 $1 Rounding radius*
0 $2 $3 $4 $5 $6 $7 $8 $9 X,Y pos of 4 corners*
0 Add a 4 corners polygon primitive as box body*
4,1,4,$2,$3,$4,$5,$6,$7,$8,$9,$2,$3,0*
0 Add four circle primitives for the rounded corners*
1,1,$1+$1,$2,$3*
1,1,$1+$1,$4,$5*
1,1,$1+$1,$6,$7*
1,1,$1+$1,$8,$9*
0 Add four rect primitives between the rounded corners*
20,1,$1+$1,$2,$3,$4,$5,0*
20,1,$1+$1,$4,$5,$6,$7,0*
20,1,$1+$1,$6,$7,$8,$9,0*
20,1,$1+$1,$8,$9,$2,$3,0*%
G04 Aperture macros list end*
%ADD10RoundRect,0.200000X0.275000X-0.200000X0.275000X0.200000X-0.275000X0.200000X-0.275000X-0.200000X0*%
%ADD11RoundRect,0.225000X0.250000X-0.225000X0.250000X0.225000X-0.250000X0.225000X-0.250000X-0.225000X0*%
%ADD12C,3.200000*%
%ADD13RoundRect,0.225000X-0.250000X0.225000X-0.250000X-0.225000X0.250000X-0.225000X0.250000X0.225000X0*%
%ADD14O,1.950000X1.700000*%
%ADD15RoundRect,0.250000X-0.725000X0.600000X-0.725000X-0.600000X0.725000X-0.600000X0.725000X0.600000X0*%
%ADD16RoundRect,0.100000X-0.637500X-0.100000X0.637500X-0.100000X0.637500X0.100000X-0.637500X0.100000X0*%
%ADD17R,0.700000X0.450000*%
%ADD18RoundRect,0.200000X0.200000X0.275000X-0.200000X0.275000X-0.200000X-0.275000X0.200000X-0.275000X0*%
%ADD19RoundRect,0.150000X-0.825000X-0.150000X0.825000X-0.150000X0.825000X0.150000X-0.825000X0.150000X0*%
%ADD20RoundRect,0.200000X-0.275000X0.200000X-0.275000X-0.200000X0.275000X-0.200000X0.275000X0.200000X0*%
%ADD21O,1.700000X1.700000*%
%ADD22R,1.700000X1.700000*%
%ADD23C,1.600000*%
G04 APERTURE END LIST*
D10*
X168000000Y-80000000D03*
X168000000Y-81650000D03*
D11*
X143080000Y-61170000D03*
X143080000Y-62720000D03*
D12*
X173800000Y-48145584D03*
D13*
X141240000Y-97975000D03*
X141240000Y-96425000D03*
D14*
X169925000Y-97100000D03*
X169925000Y-94600000D03*
D15*
X169925000Y-92100000D03*
D16*
X133462500Y-95125000D03*
X133462500Y-95775000D03*
X133462500Y-96425000D03*
X133462500Y-97075000D03*
X133462500Y-97725000D03*
X133462500Y-98375000D03*
X133462500Y-99025000D03*
X133462500Y-99675000D03*
X127737500Y-99675000D03*
X127737500Y-99025000D03*
X127737500Y-98375000D03*
X127737500Y-97725000D03*
X127737500Y-97075000D03*
X127737500Y-96425000D03*
X127737500Y-95775000D03*
X127737500Y-95125000D03*
D17*
X162020584Y-63619416D03*
X164020584Y-62969416D03*
X164020584Y-64269416D03*
D10*
X168000000Y-84650000D03*
X168000000Y-86300000D03*
D12*
X107154416Y-48145584D03*
D13*
X138700000Y-97975000D03*
X138700000Y-96425000D03*
D12*
X173800000Y-104445584D03*
D14*
X170300000Y-65100000D03*
X170300000Y-62600000D03*
X170300000Y-60100000D03*
D15*
X170300000Y-57600000D03*
D18*
X148575000Y-57600000D03*
X150225000Y-57600000D03*
D19*
X150300000Y-60130000D03*
X150300000Y-61400000D03*
X150300000Y-62670000D03*
X150300000Y-63940000D03*
X145350000Y-63940000D03*
X145350000Y-62670000D03*
X145350000Y-61400000D03*
X145350000Y-60130000D03*
D14*
X110954416Y-97745584D03*
X110954416Y-95245584D03*
X110954416Y-92745584D03*
D15*
X110954416Y-90245584D03*
D20*
X157400000Y-60425000D03*
X157400000Y-58775000D03*
D21*
X129404416Y-67045584D03*
X126864416Y-67045584D03*
X124324416Y-67045584D03*
X121784416Y-67045584D03*
X119244416Y-67045584D03*
D22*
X116704416Y-67045584D03*
D13*
X139140000Y-102375000D03*
X139140000Y-100825000D03*
X136600000Y-102375000D03*
X136600000Y-100825000D03*
D23*
X154394416Y-85165584D03*
X156934416Y-85165584D03*
X154394416Y-82625584D03*
X156934416Y-82625584D03*
X154394416Y-80085584D03*
X156934416Y-80085584D03*
X154394416Y-77545584D03*
X156934416Y-77545584D03*
X154394416Y-75005584D03*
X156934416Y-75005584D03*
X131534416Y-75005584D03*
X128994416Y-72465584D03*
X131534416Y-72465584D03*
X134074416Y-72465584D03*
X136614416Y-72465584D03*
X139154416Y-72465584D03*
X141694416Y-72465584D03*
X144234416Y-72465584D03*
X146774416Y-72465584D03*
X149314416Y-72465584D03*
X151854416Y-72465584D03*
X154394416Y-72465584D03*
X156934416Y-72465584D03*
X159474416Y-72465584D03*
X162014416Y-72465584D03*
X162014416Y-75005584D03*
X162014416Y-77545584D03*
X162014416Y-80085584D03*
X162014416Y-82625584D03*
X162014416Y-85165584D03*
X162014416Y-87705584D03*
X159474416Y-87705584D03*
X156934416Y-87705584D03*
X154394416Y-87705584D03*
X151854416Y-87705584D03*
X149314416Y-87705584D03*
X146774416Y-87705584D03*
X144234416Y-87705584D03*
X141694416Y-87705584D03*
X139154416Y-87705584D03*
X136614416Y-87705584D03*
X134074416Y-87705584D03*
X131534416Y-87705584D03*
X128994416Y-87705584D03*
D11*
X139500000Y-61225000D03*
X139500000Y-62775000D03*
D12*
X107154416Y-104445584D03*
D21*
X157400000Y-66165000D03*
D22*
X157400000Y-63625000D03*
M02*
