G04 #@! TF.GenerationSoftware,KiCad,Pcbnew,7.0.8*
G04 #@! TF.CreationDate,2023-12-04T23:32:15-07:00*
G04 #@! TF.ProjectId,wheelspeed,77686565-6c73-4706-9565-642e6b696361,v1*
G04 #@! TF.SameCoordinates,Original*
G04 #@! TF.FileFunction,AssemblyDrawing,Top*
%FSLAX46Y46*%
G04 Gerber Fmt 4.6, Leading zero omitted, Abs format (unit mm)*
G04 Created by KiCad (PCBNEW 7.0.8) date 2023-12-04 23:32:15*
%MOMM*%
%LPD*%
G01*
G04 APERTURE LIST*
%ADD10C,0.080000*%
%ADD11C,0.150000*%
%ADD12C,0.060000*%
%ADD13C,0.100000*%
G04 #@! TA.AperFunction,Profile*
%ADD14C,0.100000*%
G04 #@! TD*
G04 APERTURE END LIST*
D10*
X136520899Y-94195833D02*
X136282804Y-94362499D01*
X136520899Y-94481547D02*
X136020899Y-94481547D01*
X136020899Y-94481547D02*
X136020899Y-94291071D01*
X136020899Y-94291071D02*
X136044709Y-94243452D01*
X136044709Y-94243452D02*
X136068518Y-94219642D01*
X136068518Y-94219642D02*
X136116137Y-94195833D01*
X136116137Y-94195833D02*
X136187566Y-94195833D01*
X136187566Y-94195833D02*
X136235185Y-94219642D01*
X136235185Y-94219642D02*
X136258994Y-94243452D01*
X136258994Y-94243452D02*
X136282804Y-94291071D01*
X136282804Y-94291071D02*
X136282804Y-94481547D01*
X136068518Y-94005356D02*
X136044709Y-93981547D01*
X136044709Y-93981547D02*
X136020899Y-93933928D01*
X136020899Y-93933928D02*
X136020899Y-93814880D01*
X136020899Y-93814880D02*
X136044709Y-93767261D01*
X136044709Y-93767261D02*
X136068518Y-93743452D01*
X136068518Y-93743452D02*
X136116137Y-93719642D01*
X136116137Y-93719642D02*
X136163756Y-93719642D01*
X136163756Y-93719642D02*
X136235185Y-93743452D01*
X136235185Y-93743452D02*
X136520899Y-94029166D01*
X136520899Y-94029166D02*
X136520899Y-93719642D01*
D11*
X146738095Y-90867319D02*
X146738095Y-89867319D01*
X146738095Y-90343509D02*
X147309523Y-90343509D01*
X147309523Y-90867319D02*
X147309523Y-89867319D01*
X147738095Y-89962557D02*
X147785714Y-89914938D01*
X147785714Y-89914938D02*
X147880952Y-89867319D01*
X147880952Y-89867319D02*
X148119047Y-89867319D01*
X148119047Y-89867319D02*
X148214285Y-89914938D01*
X148214285Y-89914938D02*
X148261904Y-89962557D01*
X148261904Y-89962557D02*
X148309523Y-90057795D01*
X148309523Y-90057795D02*
X148309523Y-90153033D01*
X148309523Y-90153033D02*
X148261904Y-90295890D01*
X148261904Y-90295890D02*
X147690476Y-90867319D01*
X147690476Y-90867319D02*
X148309523Y-90867319D01*
X131738095Y-103867319D02*
X131738095Y-102867319D01*
X131738095Y-103343509D02*
X132309523Y-103343509D01*
X132309523Y-103867319D02*
X132309523Y-102867319D01*
X133214285Y-103200652D02*
X133214285Y-103867319D01*
X132976190Y-102819700D02*
X132738095Y-103533985D01*
X132738095Y-103533985D02*
X133357142Y-103533985D01*
X131738095Y-90867319D02*
X131738095Y-89867319D01*
X131738095Y-90343509D02*
X132309523Y-90343509D01*
X132309523Y-90867319D02*
X132309523Y-89867319D01*
X133309523Y-90867319D02*
X132738095Y-90867319D01*
X133023809Y-90867319D02*
X133023809Y-89867319D01*
X133023809Y-89867319D02*
X132928571Y-90010176D01*
X132928571Y-90010176D02*
X132833333Y-90105414D01*
X132833333Y-90105414D02*
X132738095Y-90153033D01*
D10*
X136520899Y-98095833D02*
X136282804Y-98262499D01*
X136520899Y-98381547D02*
X136020899Y-98381547D01*
X136020899Y-98381547D02*
X136020899Y-98191071D01*
X136020899Y-98191071D02*
X136044709Y-98143452D01*
X136044709Y-98143452D02*
X136068518Y-98119642D01*
X136068518Y-98119642D02*
X136116137Y-98095833D01*
X136116137Y-98095833D02*
X136187566Y-98095833D01*
X136187566Y-98095833D02*
X136235185Y-98119642D01*
X136235185Y-98119642D02*
X136258994Y-98143452D01*
X136258994Y-98143452D02*
X136282804Y-98191071D01*
X136282804Y-98191071D02*
X136282804Y-98381547D01*
X136520899Y-97619642D02*
X136520899Y-97905356D01*
X136520899Y-97762499D02*
X136020899Y-97762499D01*
X136020899Y-97762499D02*
X136092328Y-97810118D01*
X136092328Y-97810118D02*
X136139947Y-97857737D01*
X136139947Y-97857737D02*
X136163756Y-97905356D01*
D11*
X146738095Y-103867319D02*
X146738095Y-102867319D01*
X146738095Y-103343509D02*
X147309523Y-103343509D01*
X147309523Y-103867319D02*
X147309523Y-102867319D01*
X147690476Y-102867319D02*
X148309523Y-102867319D01*
X148309523Y-102867319D02*
X147976190Y-103248271D01*
X147976190Y-103248271D02*
X148119047Y-103248271D01*
X148119047Y-103248271D02*
X148214285Y-103295890D01*
X148214285Y-103295890D02*
X148261904Y-103343509D01*
X148261904Y-103343509D02*
X148309523Y-103438747D01*
X148309523Y-103438747D02*
X148309523Y-103676842D01*
X148309523Y-103676842D02*
X148261904Y-103772080D01*
X148261904Y-103772080D02*
X148214285Y-103819700D01*
X148214285Y-103819700D02*
X148119047Y-103867319D01*
X148119047Y-103867319D02*
X147833333Y-103867319D01*
X147833333Y-103867319D02*
X147738095Y-103819700D01*
X147738095Y-103819700D02*
X147690476Y-103772080D01*
D12*
X132033333Y-93943832D02*
X132014285Y-93962880D01*
X132014285Y-93962880D02*
X131957143Y-93981927D01*
X131957143Y-93981927D02*
X131919047Y-93981927D01*
X131919047Y-93981927D02*
X131861904Y-93962880D01*
X131861904Y-93962880D02*
X131823809Y-93924784D01*
X131823809Y-93924784D02*
X131804762Y-93886689D01*
X131804762Y-93886689D02*
X131785714Y-93810499D01*
X131785714Y-93810499D02*
X131785714Y-93753356D01*
X131785714Y-93753356D02*
X131804762Y-93677165D01*
X131804762Y-93677165D02*
X131823809Y-93639070D01*
X131823809Y-93639070D02*
X131861904Y-93600975D01*
X131861904Y-93600975D02*
X131919047Y-93581927D01*
X131919047Y-93581927D02*
X131957143Y-93581927D01*
X131957143Y-93581927D02*
X132014285Y-93600975D01*
X132014285Y-93600975D02*
X132033333Y-93620022D01*
X132414285Y-93981927D02*
X132185714Y-93981927D01*
X132300000Y-93981927D02*
X132300000Y-93581927D01*
X132300000Y-93581927D02*
X132261904Y-93639070D01*
X132261904Y-93639070D02*
X132223809Y-93677165D01*
X132223809Y-93677165D02*
X132185714Y-93696213D01*
X132088988Y-96181927D02*
X132088988Y-96505737D01*
X132088988Y-96505737D02*
X132108035Y-96543832D01*
X132108035Y-96543832D02*
X132127083Y-96562880D01*
X132127083Y-96562880D02*
X132165178Y-96581927D01*
X132165178Y-96581927D02*
X132241369Y-96581927D01*
X132241369Y-96581927D02*
X132279464Y-96562880D01*
X132279464Y-96562880D02*
X132298511Y-96543832D01*
X132298511Y-96543832D02*
X132317559Y-96505737D01*
X132317559Y-96505737D02*
X132317559Y-96181927D01*
X132717559Y-96581927D02*
X132488988Y-96581927D01*
X132603274Y-96581927D02*
X132603274Y-96181927D01*
X132603274Y-96181927D02*
X132565178Y-96239070D01*
X132565178Y-96239070D02*
X132527083Y-96277165D01*
X132527083Y-96277165D02*
X132488988Y-96296213D01*
D13*
X136918750Y-93112500D02*
X136918750Y-95112500D01*
X135668750Y-93112500D02*
X136918750Y-93112500D01*
X136918750Y-95112500D02*
X135668750Y-95112500D01*
X135668750Y-95112500D02*
X135668750Y-93112500D01*
X135668750Y-99012500D02*
X135668750Y-97012500D01*
X136918750Y-99012500D02*
X135668750Y-99012500D01*
X135668750Y-97012500D02*
X136918750Y-97012500D01*
X136918750Y-97012500D02*
X136918750Y-99012500D01*
X132900000Y-94200000D02*
X131300000Y-94200000D01*
X132900000Y-93400000D02*
X132900000Y-94200000D01*
X131300000Y-94200000D02*
X131300000Y-93400000D01*
X131300000Y-93400000D02*
X132900000Y-93400000D01*
X131593750Y-95350000D02*
X131993750Y-94950000D01*
X131593750Y-97850000D02*
X131593750Y-95350000D01*
X131993750Y-94950000D02*
X133193750Y-94950000D01*
X133193750Y-94950000D02*
X133193750Y-97850000D01*
X133193750Y-97850000D02*
X131593750Y-97850000D01*
D14*
X147250000Y-87662500D02*
X132750000Y-87662500D01*
X147250000Y-106162500D02*
G75*
G03*
X150000000Y-103412500I0J2750000D01*
G01*
X130000000Y-90412500D02*
X130000000Y-103412500D01*
X150000000Y-90412500D02*
G75*
G03*
X147250000Y-87662500I-2749900J100D01*
G01*
X132750000Y-87662500D02*
G75*
G03*
X130000000Y-90412500I0J-2750000D01*
G01*
X130000000Y-103412500D02*
G75*
G03*
X132750000Y-106162500I2749900J-100D01*
G01*
X150000000Y-103412500D02*
X150000000Y-90412500D01*
X132750000Y-106162500D02*
X147250000Y-106162500D01*
M02*
