%TF.GenerationSoftware,KiCad,Pcbnew,7.0.8*%
%TF.CreationDate,2023-12-02T16:20:52-07:00*%
%TF.ProjectId,wheelspeed,77686565-6c73-4706-9565-642e6b696361,v1*%
%TF.SameCoordinates,Original*%
%TF.FileFunction,Drillmap*%
%TF.FilePolarity,Positive*%
%FSLAX45Y45*%
G04 Gerber Fmt 4.5, Leading zero omitted, Abs format (unit mm)*
G04 Created by KiCad (PCBNEW 7.0.8) date 2023-12-02 16:20:52*
%MOMM*%
%LPD*%
G01*
G04 APERTURE LIST*
%ADD10C,0.100000*%
%ADD11C,0.200000*%
%ADD12C,0.040000*%
%ADD13C,0.095000*%
%ADD14C,0.270000*%
G04 APERTURE END LIST*
D10*
X14725000Y-8766250D02*
X13275000Y-8766250D01*
X14725000Y-10616250D02*
G75*
G03*
X15000000Y-10341250I0J275000D01*
G01*
X13000000Y-9041250D02*
X13000000Y-10341250D01*
X15000000Y-9041250D02*
G75*
G03*
X14725000Y-8766250I-274990J10D01*
G01*
X13275000Y-8766250D02*
G75*
G03*
X13000000Y-9041250I0J-275000D01*
G01*
X13000000Y-10341250D02*
G75*
G03*
X13275000Y-10616250I274990J-10D01*
G01*
X15000000Y-10341250D02*
X15000000Y-9041250D01*
X13275000Y-10616250D02*
X14725000Y-10616250D01*
D11*
D12*
X13070000Y-9850000D02*
X13110000Y-9890000D01*
X13110000Y-9850000D02*
X13070000Y-9890000D01*
D13*
X14201875Y-9466250D02*
G75*
G03*
X14201875Y-9466250I-47500J0D01*
G01*
X14201875Y-9716250D02*
G75*
G03*
X14201875Y-9716250I-47500J0D01*
G01*
X14201875Y-9966250D02*
G75*
G03*
X14201875Y-9966250I-47500J0D01*
G01*
X14201875Y-10216250D02*
G75*
G03*
X14201875Y-10216250I-47500J0D01*
G01*
D14*
X13250000Y-8906250D02*
X13250000Y-9176250D01*
X13115000Y-9041250D02*
X13385000Y-9041250D01*
X13250000Y-10206250D02*
X13250000Y-10476250D01*
X13115000Y-10341250D02*
X13385000Y-10341250D01*
X14750000Y-8906250D02*
X14750000Y-9176250D01*
X14615000Y-9041250D02*
X14885000Y-9041250D01*
X14750000Y-10206250D02*
X14750000Y-10476250D01*
X14615000Y-10341250D02*
X14885000Y-10341250D01*
D11*
X13255777Y-10932734D02*
X13255777Y-10732734D01*
X13255777Y-10732734D02*
X13303396Y-10732734D01*
X13303396Y-10732734D02*
X13331967Y-10742258D01*
X13331967Y-10742258D02*
X13351015Y-10761305D01*
X13351015Y-10761305D02*
X13360539Y-10780353D01*
X13360539Y-10780353D02*
X13370062Y-10818448D01*
X13370062Y-10818448D02*
X13370062Y-10847020D01*
X13370062Y-10847020D02*
X13360539Y-10885115D01*
X13360539Y-10885115D02*
X13351015Y-10904162D01*
X13351015Y-10904162D02*
X13331967Y-10923210D01*
X13331967Y-10923210D02*
X13303396Y-10932734D01*
X13303396Y-10932734D02*
X13255777Y-10932734D01*
X13455777Y-10932734D02*
X13455777Y-10799400D01*
X13455777Y-10837496D02*
X13465301Y-10818448D01*
X13465301Y-10818448D02*
X13474824Y-10808924D01*
X13474824Y-10808924D02*
X13493872Y-10799400D01*
X13493872Y-10799400D02*
X13512920Y-10799400D01*
X13579586Y-10932734D02*
X13579586Y-10799400D01*
X13579586Y-10732734D02*
X13570062Y-10742258D01*
X13570062Y-10742258D02*
X13579586Y-10751781D01*
X13579586Y-10751781D02*
X13589110Y-10742258D01*
X13589110Y-10742258D02*
X13579586Y-10732734D01*
X13579586Y-10732734D02*
X13579586Y-10751781D01*
X13703396Y-10932734D02*
X13684348Y-10923210D01*
X13684348Y-10923210D02*
X13674824Y-10904162D01*
X13674824Y-10904162D02*
X13674824Y-10732734D01*
X13808158Y-10932734D02*
X13789110Y-10923210D01*
X13789110Y-10923210D02*
X13779586Y-10904162D01*
X13779586Y-10904162D02*
X13779586Y-10732734D01*
X14036729Y-10932734D02*
X14036729Y-10732734D01*
X14036729Y-10732734D02*
X14103396Y-10875591D01*
X14103396Y-10875591D02*
X14170062Y-10732734D01*
X14170062Y-10732734D02*
X14170062Y-10932734D01*
X14351015Y-10932734D02*
X14351015Y-10827972D01*
X14351015Y-10827972D02*
X14341491Y-10808924D01*
X14341491Y-10808924D02*
X14322443Y-10799400D01*
X14322443Y-10799400D02*
X14284348Y-10799400D01*
X14284348Y-10799400D02*
X14265301Y-10808924D01*
X14351015Y-10923210D02*
X14331967Y-10932734D01*
X14331967Y-10932734D02*
X14284348Y-10932734D01*
X14284348Y-10932734D02*
X14265301Y-10923210D01*
X14265301Y-10923210D02*
X14255777Y-10904162D01*
X14255777Y-10904162D02*
X14255777Y-10885115D01*
X14255777Y-10885115D02*
X14265301Y-10866067D01*
X14265301Y-10866067D02*
X14284348Y-10856543D01*
X14284348Y-10856543D02*
X14331967Y-10856543D01*
X14331967Y-10856543D02*
X14351015Y-10847020D01*
X14446253Y-10799400D02*
X14446253Y-10999400D01*
X14446253Y-10808924D02*
X14465301Y-10799400D01*
X14465301Y-10799400D02*
X14503396Y-10799400D01*
X14503396Y-10799400D02*
X14522443Y-10808924D01*
X14522443Y-10808924D02*
X14531967Y-10818448D01*
X14531967Y-10818448D02*
X14541491Y-10837496D01*
X14541491Y-10837496D02*
X14541491Y-10894639D01*
X14541491Y-10894639D02*
X14531967Y-10913686D01*
X14531967Y-10913686D02*
X14522443Y-10923210D01*
X14522443Y-10923210D02*
X14503396Y-10932734D01*
X14503396Y-10932734D02*
X14465301Y-10932734D01*
X14465301Y-10932734D02*
X14446253Y-10923210D01*
X14627205Y-10913686D02*
X14636729Y-10923210D01*
X14636729Y-10923210D02*
X14627205Y-10932734D01*
X14627205Y-10932734D02*
X14617682Y-10923210D01*
X14617682Y-10923210D02*
X14627205Y-10913686D01*
X14627205Y-10913686D02*
X14627205Y-10932734D01*
X14627205Y-10808924D02*
X14636729Y-10818448D01*
X14636729Y-10818448D02*
X14627205Y-10827972D01*
X14627205Y-10827972D02*
X14617682Y-10818448D01*
X14617682Y-10818448D02*
X14627205Y-10808924D01*
X14627205Y-10808924D02*
X14627205Y-10827972D01*
D12*
X12955000Y-11241250D02*
X12995000Y-11281250D01*
X12995000Y-11241250D02*
X12955000Y-11281250D01*
D11*
X13293872Y-11152734D02*
X13312920Y-11152734D01*
X13312920Y-11152734D02*
X13331967Y-11162258D01*
X13331967Y-11162258D02*
X13341491Y-11171781D01*
X13341491Y-11171781D02*
X13351015Y-11190829D01*
X13351015Y-11190829D02*
X13360539Y-11228924D01*
X13360539Y-11228924D02*
X13360539Y-11276543D01*
X13360539Y-11276543D02*
X13351015Y-11314638D01*
X13351015Y-11314638D02*
X13341491Y-11333686D01*
X13341491Y-11333686D02*
X13331967Y-11343210D01*
X13331967Y-11343210D02*
X13312920Y-11352734D01*
X13312920Y-11352734D02*
X13293872Y-11352734D01*
X13293872Y-11352734D02*
X13274824Y-11343210D01*
X13274824Y-11343210D02*
X13265301Y-11333686D01*
X13265301Y-11333686D02*
X13255777Y-11314638D01*
X13255777Y-11314638D02*
X13246253Y-11276543D01*
X13246253Y-11276543D02*
X13246253Y-11228924D01*
X13246253Y-11228924D02*
X13255777Y-11190829D01*
X13255777Y-11190829D02*
X13265301Y-11171781D01*
X13265301Y-11171781D02*
X13274824Y-11162258D01*
X13274824Y-11162258D02*
X13293872Y-11152734D01*
X13446253Y-11333686D02*
X13455777Y-11343210D01*
X13455777Y-11343210D02*
X13446253Y-11352734D01*
X13446253Y-11352734D02*
X13436729Y-11343210D01*
X13436729Y-11343210D02*
X13446253Y-11333686D01*
X13446253Y-11333686D02*
X13446253Y-11352734D01*
X13627205Y-11219400D02*
X13627205Y-11352734D01*
X13579586Y-11143210D02*
X13531967Y-11286067D01*
X13531967Y-11286067D02*
X13655777Y-11286067D01*
X13770062Y-11152734D02*
X13789110Y-11152734D01*
X13789110Y-11152734D02*
X13808158Y-11162258D01*
X13808158Y-11162258D02*
X13817682Y-11171781D01*
X13817682Y-11171781D02*
X13827205Y-11190829D01*
X13827205Y-11190829D02*
X13836729Y-11228924D01*
X13836729Y-11228924D02*
X13836729Y-11276543D01*
X13836729Y-11276543D02*
X13827205Y-11314638D01*
X13827205Y-11314638D02*
X13817682Y-11333686D01*
X13817682Y-11333686D02*
X13808158Y-11343210D01*
X13808158Y-11343210D02*
X13789110Y-11352734D01*
X13789110Y-11352734D02*
X13770062Y-11352734D01*
X13770062Y-11352734D02*
X13751015Y-11343210D01*
X13751015Y-11343210D02*
X13741491Y-11333686D01*
X13741491Y-11333686D02*
X13731967Y-11314638D01*
X13731967Y-11314638D02*
X13722443Y-11276543D01*
X13722443Y-11276543D02*
X13722443Y-11228924D01*
X13722443Y-11228924D02*
X13731967Y-11190829D01*
X13731967Y-11190829D02*
X13741491Y-11171781D01*
X13741491Y-11171781D02*
X13751015Y-11162258D01*
X13751015Y-11162258D02*
X13770062Y-11152734D01*
X13960539Y-11152734D02*
X13979586Y-11152734D01*
X13979586Y-11152734D02*
X13998634Y-11162258D01*
X13998634Y-11162258D02*
X14008158Y-11171781D01*
X14008158Y-11171781D02*
X14017682Y-11190829D01*
X14017682Y-11190829D02*
X14027205Y-11228924D01*
X14027205Y-11228924D02*
X14027205Y-11276543D01*
X14027205Y-11276543D02*
X14017682Y-11314638D01*
X14017682Y-11314638D02*
X14008158Y-11333686D01*
X14008158Y-11333686D02*
X13998634Y-11343210D01*
X13998634Y-11343210D02*
X13979586Y-11352734D01*
X13979586Y-11352734D02*
X13960539Y-11352734D01*
X13960539Y-11352734D02*
X13941491Y-11343210D01*
X13941491Y-11343210D02*
X13931967Y-11333686D01*
X13931967Y-11333686D02*
X13922443Y-11314638D01*
X13922443Y-11314638D02*
X13912920Y-11276543D01*
X13912920Y-11276543D02*
X13912920Y-11228924D01*
X13912920Y-11228924D02*
X13922443Y-11190829D01*
X13922443Y-11190829D02*
X13931967Y-11171781D01*
X13931967Y-11171781D02*
X13941491Y-11162258D01*
X13941491Y-11162258D02*
X13960539Y-11152734D01*
X14112920Y-11352734D02*
X14112920Y-11219400D01*
X14112920Y-11238448D02*
X14122443Y-11228924D01*
X14122443Y-11228924D02*
X14141491Y-11219400D01*
X14141491Y-11219400D02*
X14170063Y-11219400D01*
X14170063Y-11219400D02*
X14189110Y-11228924D01*
X14189110Y-11228924D02*
X14198634Y-11247972D01*
X14198634Y-11247972D02*
X14198634Y-11352734D01*
X14198634Y-11247972D02*
X14208158Y-11228924D01*
X14208158Y-11228924D02*
X14227205Y-11219400D01*
X14227205Y-11219400D02*
X14255777Y-11219400D01*
X14255777Y-11219400D02*
X14274824Y-11228924D01*
X14274824Y-11228924D02*
X14284348Y-11247972D01*
X14284348Y-11247972D02*
X14284348Y-11352734D01*
X14379586Y-11352734D02*
X14379586Y-11219400D01*
X14379586Y-11238448D02*
X14389110Y-11228924D01*
X14389110Y-11228924D02*
X14408158Y-11219400D01*
X14408158Y-11219400D02*
X14436729Y-11219400D01*
X14436729Y-11219400D02*
X14455777Y-11228924D01*
X14455777Y-11228924D02*
X14465301Y-11247972D01*
X14465301Y-11247972D02*
X14465301Y-11352734D01*
X14465301Y-11247972D02*
X14474824Y-11228924D01*
X14474824Y-11228924D02*
X14493872Y-11219400D01*
X14493872Y-11219400D02*
X14522443Y-11219400D01*
X14522443Y-11219400D02*
X14541491Y-11228924D01*
X14541491Y-11228924D02*
X14551015Y-11247972D01*
X14551015Y-11247972D02*
X14551015Y-11352734D01*
X14941491Y-11143210D02*
X14770063Y-11400353D01*
X15198634Y-11152734D02*
X15217682Y-11152734D01*
X15217682Y-11152734D02*
X15236729Y-11162258D01*
X15236729Y-11162258D02*
X15246253Y-11171781D01*
X15246253Y-11171781D02*
X15255777Y-11190829D01*
X15255777Y-11190829D02*
X15265301Y-11228924D01*
X15265301Y-11228924D02*
X15265301Y-11276543D01*
X15265301Y-11276543D02*
X15255777Y-11314638D01*
X15255777Y-11314638D02*
X15246253Y-11333686D01*
X15246253Y-11333686D02*
X15236729Y-11343210D01*
X15236729Y-11343210D02*
X15217682Y-11352734D01*
X15217682Y-11352734D02*
X15198634Y-11352734D01*
X15198634Y-11352734D02*
X15179586Y-11343210D01*
X15179586Y-11343210D02*
X15170063Y-11333686D01*
X15170063Y-11333686D02*
X15160539Y-11314638D01*
X15160539Y-11314638D02*
X15151015Y-11276543D01*
X15151015Y-11276543D02*
X15151015Y-11228924D01*
X15151015Y-11228924D02*
X15160539Y-11190829D01*
X15160539Y-11190829D02*
X15170063Y-11171781D01*
X15170063Y-11171781D02*
X15179586Y-11162258D01*
X15179586Y-11162258D02*
X15198634Y-11152734D01*
X15351015Y-11333686D02*
X15360539Y-11343210D01*
X15360539Y-11343210D02*
X15351015Y-11352734D01*
X15351015Y-11352734D02*
X15341491Y-11343210D01*
X15341491Y-11343210D02*
X15351015Y-11333686D01*
X15351015Y-11333686D02*
X15351015Y-11352734D01*
X15484348Y-11152734D02*
X15503396Y-11152734D01*
X15503396Y-11152734D02*
X15522444Y-11162258D01*
X15522444Y-11162258D02*
X15531967Y-11171781D01*
X15531967Y-11171781D02*
X15541491Y-11190829D01*
X15541491Y-11190829D02*
X15551015Y-11228924D01*
X15551015Y-11228924D02*
X15551015Y-11276543D01*
X15551015Y-11276543D02*
X15541491Y-11314638D01*
X15541491Y-11314638D02*
X15531967Y-11333686D01*
X15531967Y-11333686D02*
X15522444Y-11343210D01*
X15522444Y-11343210D02*
X15503396Y-11352734D01*
X15503396Y-11352734D02*
X15484348Y-11352734D01*
X15484348Y-11352734D02*
X15465301Y-11343210D01*
X15465301Y-11343210D02*
X15455777Y-11333686D01*
X15455777Y-11333686D02*
X15446253Y-11314638D01*
X15446253Y-11314638D02*
X15436729Y-11276543D01*
X15436729Y-11276543D02*
X15436729Y-11228924D01*
X15436729Y-11228924D02*
X15446253Y-11190829D01*
X15446253Y-11190829D02*
X15455777Y-11171781D01*
X15455777Y-11171781D02*
X15465301Y-11162258D01*
X15465301Y-11162258D02*
X15484348Y-11152734D01*
X15741491Y-11352734D02*
X15627206Y-11352734D01*
X15684348Y-11352734D02*
X15684348Y-11152734D01*
X15684348Y-11152734D02*
X15665301Y-11181305D01*
X15665301Y-11181305D02*
X15646253Y-11200353D01*
X15646253Y-11200353D02*
X15627206Y-11209877D01*
X15922444Y-11152734D02*
X15827206Y-11152734D01*
X15827206Y-11152734D02*
X15817682Y-11247972D01*
X15817682Y-11247972D02*
X15827206Y-11238448D01*
X15827206Y-11238448D02*
X15846253Y-11228924D01*
X15846253Y-11228924D02*
X15893872Y-11228924D01*
X15893872Y-11228924D02*
X15912920Y-11238448D01*
X15912920Y-11238448D02*
X15922444Y-11247972D01*
X15922444Y-11247972D02*
X15931967Y-11267019D01*
X15931967Y-11267019D02*
X15931967Y-11314638D01*
X15931967Y-11314638D02*
X15922444Y-11333686D01*
X15922444Y-11333686D02*
X15912920Y-11343210D01*
X15912920Y-11343210D02*
X15893872Y-11352734D01*
X15893872Y-11352734D02*
X15846253Y-11352734D01*
X15846253Y-11352734D02*
X15827206Y-11343210D01*
X15827206Y-11343210D02*
X15817682Y-11333686D01*
X15998634Y-11152734D02*
X16131967Y-11152734D01*
X16131967Y-11152734D02*
X16046253Y-11352734D01*
X16198634Y-11152734D02*
X16198634Y-11190829D01*
X16274825Y-11152734D02*
X16274825Y-11190829D01*
X16570063Y-11428924D02*
X16560539Y-11419400D01*
X16560539Y-11419400D02*
X16541491Y-11390829D01*
X16541491Y-11390829D02*
X16531968Y-11371781D01*
X16531968Y-11371781D02*
X16522444Y-11343210D01*
X16522444Y-11343210D02*
X16512920Y-11295591D01*
X16512920Y-11295591D02*
X16512920Y-11257496D01*
X16512920Y-11257496D02*
X16522444Y-11209877D01*
X16522444Y-11209877D02*
X16531968Y-11181305D01*
X16531968Y-11181305D02*
X16541491Y-11162258D01*
X16541491Y-11162258D02*
X16560539Y-11133686D01*
X16560539Y-11133686D02*
X16570063Y-11124162D01*
X16751015Y-11352734D02*
X16636729Y-11352734D01*
X16693872Y-11352734D02*
X16693872Y-11152734D01*
X16693872Y-11152734D02*
X16674825Y-11181305D01*
X16674825Y-11181305D02*
X16655777Y-11200353D01*
X16655777Y-11200353D02*
X16636729Y-11209877D01*
X16989111Y-11352734D02*
X16989111Y-11152734D01*
X17074825Y-11352734D02*
X17074825Y-11247972D01*
X17074825Y-11247972D02*
X17065301Y-11228924D01*
X17065301Y-11228924D02*
X17046253Y-11219400D01*
X17046253Y-11219400D02*
X17017682Y-11219400D01*
X17017682Y-11219400D02*
X16998634Y-11228924D01*
X16998634Y-11228924D02*
X16989111Y-11238448D01*
X17198634Y-11352734D02*
X17179587Y-11343210D01*
X17179587Y-11343210D02*
X17170063Y-11333686D01*
X17170063Y-11333686D02*
X17160539Y-11314638D01*
X17160539Y-11314638D02*
X17160539Y-11257496D01*
X17160539Y-11257496D02*
X17170063Y-11238448D01*
X17170063Y-11238448D02*
X17179587Y-11228924D01*
X17179587Y-11228924D02*
X17198634Y-11219400D01*
X17198634Y-11219400D02*
X17227206Y-11219400D01*
X17227206Y-11219400D02*
X17246253Y-11228924D01*
X17246253Y-11228924D02*
X17255777Y-11238448D01*
X17255777Y-11238448D02*
X17265301Y-11257496D01*
X17265301Y-11257496D02*
X17265301Y-11314638D01*
X17265301Y-11314638D02*
X17255777Y-11333686D01*
X17255777Y-11333686D02*
X17246253Y-11343210D01*
X17246253Y-11343210D02*
X17227206Y-11352734D01*
X17227206Y-11352734D02*
X17198634Y-11352734D01*
X17379587Y-11352734D02*
X17360539Y-11343210D01*
X17360539Y-11343210D02*
X17351015Y-11324162D01*
X17351015Y-11324162D02*
X17351015Y-11152734D01*
X17531968Y-11343210D02*
X17512920Y-11352734D01*
X17512920Y-11352734D02*
X17474825Y-11352734D01*
X17474825Y-11352734D02*
X17455777Y-11343210D01*
X17455777Y-11343210D02*
X17446253Y-11324162D01*
X17446253Y-11324162D02*
X17446253Y-11247972D01*
X17446253Y-11247972D02*
X17455777Y-11228924D01*
X17455777Y-11228924D02*
X17474825Y-11219400D01*
X17474825Y-11219400D02*
X17512920Y-11219400D01*
X17512920Y-11219400D02*
X17531968Y-11228924D01*
X17531968Y-11228924D02*
X17541492Y-11247972D01*
X17541492Y-11247972D02*
X17541492Y-11267019D01*
X17541492Y-11267019D02*
X17446253Y-11286067D01*
X17608158Y-11428924D02*
X17617682Y-11419400D01*
X17617682Y-11419400D02*
X17636730Y-11390829D01*
X17636730Y-11390829D02*
X17646253Y-11371781D01*
X17646253Y-11371781D02*
X17655777Y-11343210D01*
X17655777Y-11343210D02*
X17665301Y-11295591D01*
X17665301Y-11295591D02*
X17665301Y-11257496D01*
X17665301Y-11257496D02*
X17655777Y-11209877D01*
X17655777Y-11209877D02*
X17646253Y-11181305D01*
X17646253Y-11181305D02*
X17636730Y-11162258D01*
X17636730Y-11162258D02*
X17617682Y-11133686D01*
X17617682Y-11133686D02*
X17608158Y-11124162D01*
D13*
X12995000Y-11525250D02*
G75*
G03*
X12995000Y-11525250I-47500J0D01*
G01*
D11*
X13293872Y-11416734D02*
X13312920Y-11416734D01*
X13312920Y-11416734D02*
X13331967Y-11426258D01*
X13331967Y-11426258D02*
X13341491Y-11435781D01*
X13341491Y-11435781D02*
X13351015Y-11454829D01*
X13351015Y-11454829D02*
X13360539Y-11492924D01*
X13360539Y-11492924D02*
X13360539Y-11540543D01*
X13360539Y-11540543D02*
X13351015Y-11578638D01*
X13351015Y-11578638D02*
X13341491Y-11597686D01*
X13341491Y-11597686D02*
X13331967Y-11607210D01*
X13331967Y-11607210D02*
X13312920Y-11616734D01*
X13312920Y-11616734D02*
X13293872Y-11616734D01*
X13293872Y-11616734D02*
X13274824Y-11607210D01*
X13274824Y-11607210D02*
X13265301Y-11597686D01*
X13265301Y-11597686D02*
X13255777Y-11578638D01*
X13255777Y-11578638D02*
X13246253Y-11540543D01*
X13246253Y-11540543D02*
X13246253Y-11492924D01*
X13246253Y-11492924D02*
X13255777Y-11454829D01*
X13255777Y-11454829D02*
X13265301Y-11435781D01*
X13265301Y-11435781D02*
X13274824Y-11426258D01*
X13274824Y-11426258D02*
X13293872Y-11416734D01*
X13446253Y-11597686D02*
X13455777Y-11607210D01*
X13455777Y-11607210D02*
X13446253Y-11616734D01*
X13446253Y-11616734D02*
X13436729Y-11607210D01*
X13436729Y-11607210D02*
X13446253Y-11597686D01*
X13446253Y-11597686D02*
X13446253Y-11616734D01*
X13551015Y-11616734D02*
X13589110Y-11616734D01*
X13589110Y-11616734D02*
X13608158Y-11607210D01*
X13608158Y-11607210D02*
X13617682Y-11597686D01*
X13617682Y-11597686D02*
X13636729Y-11569115D01*
X13636729Y-11569115D02*
X13646253Y-11531019D01*
X13646253Y-11531019D02*
X13646253Y-11454829D01*
X13646253Y-11454829D02*
X13636729Y-11435781D01*
X13636729Y-11435781D02*
X13627205Y-11426258D01*
X13627205Y-11426258D02*
X13608158Y-11416734D01*
X13608158Y-11416734D02*
X13570062Y-11416734D01*
X13570062Y-11416734D02*
X13551015Y-11426258D01*
X13551015Y-11426258D02*
X13541491Y-11435781D01*
X13541491Y-11435781D02*
X13531967Y-11454829D01*
X13531967Y-11454829D02*
X13531967Y-11502448D01*
X13531967Y-11502448D02*
X13541491Y-11521496D01*
X13541491Y-11521496D02*
X13551015Y-11531019D01*
X13551015Y-11531019D02*
X13570062Y-11540543D01*
X13570062Y-11540543D02*
X13608158Y-11540543D01*
X13608158Y-11540543D02*
X13627205Y-11531019D01*
X13627205Y-11531019D02*
X13636729Y-11521496D01*
X13636729Y-11521496D02*
X13646253Y-11502448D01*
X13827205Y-11416734D02*
X13731967Y-11416734D01*
X13731967Y-11416734D02*
X13722443Y-11511972D01*
X13722443Y-11511972D02*
X13731967Y-11502448D01*
X13731967Y-11502448D02*
X13751015Y-11492924D01*
X13751015Y-11492924D02*
X13798634Y-11492924D01*
X13798634Y-11492924D02*
X13817682Y-11502448D01*
X13817682Y-11502448D02*
X13827205Y-11511972D01*
X13827205Y-11511972D02*
X13836729Y-11531019D01*
X13836729Y-11531019D02*
X13836729Y-11578638D01*
X13836729Y-11578638D02*
X13827205Y-11597686D01*
X13827205Y-11597686D02*
X13817682Y-11607210D01*
X13817682Y-11607210D02*
X13798634Y-11616734D01*
X13798634Y-11616734D02*
X13751015Y-11616734D01*
X13751015Y-11616734D02*
X13731967Y-11607210D01*
X13731967Y-11607210D02*
X13722443Y-11597686D01*
X13960539Y-11416734D02*
X13979586Y-11416734D01*
X13979586Y-11416734D02*
X13998634Y-11426258D01*
X13998634Y-11426258D02*
X14008158Y-11435781D01*
X14008158Y-11435781D02*
X14017682Y-11454829D01*
X14017682Y-11454829D02*
X14027205Y-11492924D01*
X14027205Y-11492924D02*
X14027205Y-11540543D01*
X14027205Y-11540543D02*
X14017682Y-11578638D01*
X14017682Y-11578638D02*
X14008158Y-11597686D01*
X14008158Y-11597686D02*
X13998634Y-11607210D01*
X13998634Y-11607210D02*
X13979586Y-11616734D01*
X13979586Y-11616734D02*
X13960539Y-11616734D01*
X13960539Y-11616734D02*
X13941491Y-11607210D01*
X13941491Y-11607210D02*
X13931967Y-11597686D01*
X13931967Y-11597686D02*
X13922443Y-11578638D01*
X13922443Y-11578638D02*
X13912920Y-11540543D01*
X13912920Y-11540543D02*
X13912920Y-11492924D01*
X13912920Y-11492924D02*
X13922443Y-11454829D01*
X13922443Y-11454829D02*
X13931967Y-11435781D01*
X13931967Y-11435781D02*
X13941491Y-11426258D01*
X13941491Y-11426258D02*
X13960539Y-11416734D01*
X14112920Y-11616734D02*
X14112920Y-11483400D01*
X14112920Y-11502448D02*
X14122443Y-11492924D01*
X14122443Y-11492924D02*
X14141491Y-11483400D01*
X14141491Y-11483400D02*
X14170063Y-11483400D01*
X14170063Y-11483400D02*
X14189110Y-11492924D01*
X14189110Y-11492924D02*
X14198634Y-11511972D01*
X14198634Y-11511972D02*
X14198634Y-11616734D01*
X14198634Y-11511972D02*
X14208158Y-11492924D01*
X14208158Y-11492924D02*
X14227205Y-11483400D01*
X14227205Y-11483400D02*
X14255777Y-11483400D01*
X14255777Y-11483400D02*
X14274824Y-11492924D01*
X14274824Y-11492924D02*
X14284348Y-11511972D01*
X14284348Y-11511972D02*
X14284348Y-11616734D01*
X14379586Y-11616734D02*
X14379586Y-11483400D01*
X14379586Y-11502448D02*
X14389110Y-11492924D01*
X14389110Y-11492924D02*
X14408158Y-11483400D01*
X14408158Y-11483400D02*
X14436729Y-11483400D01*
X14436729Y-11483400D02*
X14455777Y-11492924D01*
X14455777Y-11492924D02*
X14465301Y-11511972D01*
X14465301Y-11511972D02*
X14465301Y-11616734D01*
X14465301Y-11511972D02*
X14474824Y-11492924D01*
X14474824Y-11492924D02*
X14493872Y-11483400D01*
X14493872Y-11483400D02*
X14522443Y-11483400D01*
X14522443Y-11483400D02*
X14541491Y-11492924D01*
X14541491Y-11492924D02*
X14551015Y-11511972D01*
X14551015Y-11511972D02*
X14551015Y-11616734D01*
X14941491Y-11407210D02*
X14770063Y-11664353D01*
X15198634Y-11416734D02*
X15217682Y-11416734D01*
X15217682Y-11416734D02*
X15236729Y-11426258D01*
X15236729Y-11426258D02*
X15246253Y-11435781D01*
X15246253Y-11435781D02*
X15255777Y-11454829D01*
X15255777Y-11454829D02*
X15265301Y-11492924D01*
X15265301Y-11492924D02*
X15265301Y-11540543D01*
X15265301Y-11540543D02*
X15255777Y-11578638D01*
X15255777Y-11578638D02*
X15246253Y-11597686D01*
X15246253Y-11597686D02*
X15236729Y-11607210D01*
X15236729Y-11607210D02*
X15217682Y-11616734D01*
X15217682Y-11616734D02*
X15198634Y-11616734D01*
X15198634Y-11616734D02*
X15179586Y-11607210D01*
X15179586Y-11607210D02*
X15170063Y-11597686D01*
X15170063Y-11597686D02*
X15160539Y-11578638D01*
X15160539Y-11578638D02*
X15151015Y-11540543D01*
X15151015Y-11540543D02*
X15151015Y-11492924D01*
X15151015Y-11492924D02*
X15160539Y-11454829D01*
X15160539Y-11454829D02*
X15170063Y-11435781D01*
X15170063Y-11435781D02*
X15179586Y-11426258D01*
X15179586Y-11426258D02*
X15198634Y-11416734D01*
X15351015Y-11597686D02*
X15360539Y-11607210D01*
X15360539Y-11607210D02*
X15351015Y-11616734D01*
X15351015Y-11616734D02*
X15341491Y-11607210D01*
X15341491Y-11607210D02*
X15351015Y-11597686D01*
X15351015Y-11597686D02*
X15351015Y-11616734D01*
X15484348Y-11416734D02*
X15503396Y-11416734D01*
X15503396Y-11416734D02*
X15522444Y-11426258D01*
X15522444Y-11426258D02*
X15531967Y-11435781D01*
X15531967Y-11435781D02*
X15541491Y-11454829D01*
X15541491Y-11454829D02*
X15551015Y-11492924D01*
X15551015Y-11492924D02*
X15551015Y-11540543D01*
X15551015Y-11540543D02*
X15541491Y-11578638D01*
X15541491Y-11578638D02*
X15531967Y-11597686D01*
X15531967Y-11597686D02*
X15522444Y-11607210D01*
X15522444Y-11607210D02*
X15503396Y-11616734D01*
X15503396Y-11616734D02*
X15484348Y-11616734D01*
X15484348Y-11616734D02*
X15465301Y-11607210D01*
X15465301Y-11607210D02*
X15455777Y-11597686D01*
X15455777Y-11597686D02*
X15446253Y-11578638D01*
X15446253Y-11578638D02*
X15436729Y-11540543D01*
X15436729Y-11540543D02*
X15436729Y-11492924D01*
X15436729Y-11492924D02*
X15446253Y-11454829D01*
X15446253Y-11454829D02*
X15455777Y-11435781D01*
X15455777Y-11435781D02*
X15465301Y-11426258D01*
X15465301Y-11426258D02*
X15484348Y-11416734D01*
X15617682Y-11416734D02*
X15741491Y-11416734D01*
X15741491Y-11416734D02*
X15674825Y-11492924D01*
X15674825Y-11492924D02*
X15703396Y-11492924D01*
X15703396Y-11492924D02*
X15722444Y-11502448D01*
X15722444Y-11502448D02*
X15731967Y-11511972D01*
X15731967Y-11511972D02*
X15741491Y-11531019D01*
X15741491Y-11531019D02*
X15741491Y-11578638D01*
X15741491Y-11578638D02*
X15731967Y-11597686D01*
X15731967Y-11597686D02*
X15722444Y-11607210D01*
X15722444Y-11607210D02*
X15703396Y-11616734D01*
X15703396Y-11616734D02*
X15646253Y-11616734D01*
X15646253Y-11616734D02*
X15627206Y-11607210D01*
X15627206Y-11607210D02*
X15617682Y-11597686D01*
X15808158Y-11416734D02*
X15941491Y-11416734D01*
X15941491Y-11416734D02*
X15855777Y-11616734D01*
X16103396Y-11483400D02*
X16103396Y-11616734D01*
X16055777Y-11407210D02*
X16008158Y-11550067D01*
X16008158Y-11550067D02*
X16131967Y-11550067D01*
X16198634Y-11416734D02*
X16198634Y-11454829D01*
X16274825Y-11416734D02*
X16274825Y-11454829D01*
X16570063Y-11692924D02*
X16560539Y-11683400D01*
X16560539Y-11683400D02*
X16541491Y-11654829D01*
X16541491Y-11654829D02*
X16531968Y-11635781D01*
X16531968Y-11635781D02*
X16522444Y-11607210D01*
X16522444Y-11607210D02*
X16512920Y-11559591D01*
X16512920Y-11559591D02*
X16512920Y-11521496D01*
X16512920Y-11521496D02*
X16522444Y-11473877D01*
X16522444Y-11473877D02*
X16531968Y-11445305D01*
X16531968Y-11445305D02*
X16541491Y-11426258D01*
X16541491Y-11426258D02*
X16560539Y-11397686D01*
X16560539Y-11397686D02*
X16570063Y-11388162D01*
X16731968Y-11483400D02*
X16731968Y-11616734D01*
X16684348Y-11407210D02*
X16636729Y-11550067D01*
X16636729Y-11550067D02*
X16760539Y-11550067D01*
X16989111Y-11616734D02*
X16989111Y-11416734D01*
X17074825Y-11616734D02*
X17074825Y-11511972D01*
X17074825Y-11511972D02*
X17065301Y-11492924D01*
X17065301Y-11492924D02*
X17046253Y-11483400D01*
X17046253Y-11483400D02*
X17017682Y-11483400D01*
X17017682Y-11483400D02*
X16998634Y-11492924D01*
X16998634Y-11492924D02*
X16989111Y-11502448D01*
X17198634Y-11616734D02*
X17179587Y-11607210D01*
X17179587Y-11607210D02*
X17170063Y-11597686D01*
X17170063Y-11597686D02*
X17160539Y-11578638D01*
X17160539Y-11578638D02*
X17160539Y-11521496D01*
X17160539Y-11521496D02*
X17170063Y-11502448D01*
X17170063Y-11502448D02*
X17179587Y-11492924D01*
X17179587Y-11492924D02*
X17198634Y-11483400D01*
X17198634Y-11483400D02*
X17227206Y-11483400D01*
X17227206Y-11483400D02*
X17246253Y-11492924D01*
X17246253Y-11492924D02*
X17255777Y-11502448D01*
X17255777Y-11502448D02*
X17265301Y-11521496D01*
X17265301Y-11521496D02*
X17265301Y-11578638D01*
X17265301Y-11578638D02*
X17255777Y-11597686D01*
X17255777Y-11597686D02*
X17246253Y-11607210D01*
X17246253Y-11607210D02*
X17227206Y-11616734D01*
X17227206Y-11616734D02*
X17198634Y-11616734D01*
X17379587Y-11616734D02*
X17360539Y-11607210D01*
X17360539Y-11607210D02*
X17351015Y-11588162D01*
X17351015Y-11588162D02*
X17351015Y-11416734D01*
X17531968Y-11607210D02*
X17512920Y-11616734D01*
X17512920Y-11616734D02*
X17474825Y-11616734D01*
X17474825Y-11616734D02*
X17455777Y-11607210D01*
X17455777Y-11607210D02*
X17446253Y-11588162D01*
X17446253Y-11588162D02*
X17446253Y-11511972D01*
X17446253Y-11511972D02*
X17455777Y-11492924D01*
X17455777Y-11492924D02*
X17474825Y-11483400D01*
X17474825Y-11483400D02*
X17512920Y-11483400D01*
X17512920Y-11483400D02*
X17531968Y-11492924D01*
X17531968Y-11492924D02*
X17541492Y-11511972D01*
X17541492Y-11511972D02*
X17541492Y-11531019D01*
X17541492Y-11531019D02*
X17446253Y-11550067D01*
X17617682Y-11607210D02*
X17636730Y-11616734D01*
X17636730Y-11616734D02*
X17674825Y-11616734D01*
X17674825Y-11616734D02*
X17693873Y-11607210D01*
X17693873Y-11607210D02*
X17703396Y-11588162D01*
X17703396Y-11588162D02*
X17703396Y-11578638D01*
X17703396Y-11578638D02*
X17693873Y-11559591D01*
X17693873Y-11559591D02*
X17674825Y-11550067D01*
X17674825Y-11550067D02*
X17646253Y-11550067D01*
X17646253Y-11550067D02*
X17627206Y-11540543D01*
X17627206Y-11540543D02*
X17617682Y-11521496D01*
X17617682Y-11521496D02*
X17617682Y-11511972D01*
X17617682Y-11511972D02*
X17627206Y-11492924D01*
X17627206Y-11492924D02*
X17646253Y-11483400D01*
X17646253Y-11483400D02*
X17674825Y-11483400D01*
X17674825Y-11483400D02*
X17693873Y-11492924D01*
X17770063Y-11692924D02*
X17779587Y-11683400D01*
X17779587Y-11683400D02*
X17798634Y-11654829D01*
X17798634Y-11654829D02*
X17808158Y-11635781D01*
X17808158Y-11635781D02*
X17817682Y-11607210D01*
X17817682Y-11607210D02*
X17827206Y-11559591D01*
X17827206Y-11559591D02*
X17827206Y-11521496D01*
X17827206Y-11521496D02*
X17817682Y-11473877D01*
X17817682Y-11473877D02*
X17808158Y-11445305D01*
X17808158Y-11445305D02*
X17798634Y-11426258D01*
X17798634Y-11426258D02*
X17779587Y-11397686D01*
X17779587Y-11397686D02*
X17770063Y-11388162D01*
X12895000Y-11689250D02*
X12895000Y-11889250D01*
X12795000Y-11789250D02*
X12995000Y-11789250D01*
X13246253Y-11699781D02*
X13255777Y-11690258D01*
X13255777Y-11690258D02*
X13274824Y-11680734D01*
X13274824Y-11680734D02*
X13322443Y-11680734D01*
X13322443Y-11680734D02*
X13341491Y-11690258D01*
X13341491Y-11690258D02*
X13351015Y-11699781D01*
X13351015Y-11699781D02*
X13360539Y-11718829D01*
X13360539Y-11718829D02*
X13360539Y-11737877D01*
X13360539Y-11737877D02*
X13351015Y-11766448D01*
X13351015Y-11766448D02*
X13236729Y-11880734D01*
X13236729Y-11880734D02*
X13360539Y-11880734D01*
X13446253Y-11861686D02*
X13455777Y-11871210D01*
X13455777Y-11871210D02*
X13446253Y-11880734D01*
X13446253Y-11880734D02*
X13436729Y-11871210D01*
X13436729Y-11871210D02*
X13446253Y-11861686D01*
X13446253Y-11861686D02*
X13446253Y-11880734D01*
X13522443Y-11680734D02*
X13655777Y-11680734D01*
X13655777Y-11680734D02*
X13570062Y-11880734D01*
X13770062Y-11680734D02*
X13789110Y-11680734D01*
X13789110Y-11680734D02*
X13808158Y-11690258D01*
X13808158Y-11690258D02*
X13817682Y-11699781D01*
X13817682Y-11699781D02*
X13827205Y-11718829D01*
X13827205Y-11718829D02*
X13836729Y-11756924D01*
X13836729Y-11756924D02*
X13836729Y-11804543D01*
X13836729Y-11804543D02*
X13827205Y-11842638D01*
X13827205Y-11842638D02*
X13817682Y-11861686D01*
X13817682Y-11861686D02*
X13808158Y-11871210D01*
X13808158Y-11871210D02*
X13789110Y-11880734D01*
X13789110Y-11880734D02*
X13770062Y-11880734D01*
X13770062Y-11880734D02*
X13751015Y-11871210D01*
X13751015Y-11871210D02*
X13741491Y-11861686D01*
X13741491Y-11861686D02*
X13731967Y-11842638D01*
X13731967Y-11842638D02*
X13722443Y-11804543D01*
X13722443Y-11804543D02*
X13722443Y-11756924D01*
X13722443Y-11756924D02*
X13731967Y-11718829D01*
X13731967Y-11718829D02*
X13741491Y-11699781D01*
X13741491Y-11699781D02*
X13751015Y-11690258D01*
X13751015Y-11690258D02*
X13770062Y-11680734D01*
X13960539Y-11680734D02*
X13979586Y-11680734D01*
X13979586Y-11680734D02*
X13998634Y-11690258D01*
X13998634Y-11690258D02*
X14008158Y-11699781D01*
X14008158Y-11699781D02*
X14017682Y-11718829D01*
X14017682Y-11718829D02*
X14027205Y-11756924D01*
X14027205Y-11756924D02*
X14027205Y-11804543D01*
X14027205Y-11804543D02*
X14017682Y-11842638D01*
X14017682Y-11842638D02*
X14008158Y-11861686D01*
X14008158Y-11861686D02*
X13998634Y-11871210D01*
X13998634Y-11871210D02*
X13979586Y-11880734D01*
X13979586Y-11880734D02*
X13960539Y-11880734D01*
X13960539Y-11880734D02*
X13941491Y-11871210D01*
X13941491Y-11871210D02*
X13931967Y-11861686D01*
X13931967Y-11861686D02*
X13922443Y-11842638D01*
X13922443Y-11842638D02*
X13912920Y-11804543D01*
X13912920Y-11804543D02*
X13912920Y-11756924D01*
X13912920Y-11756924D02*
X13922443Y-11718829D01*
X13922443Y-11718829D02*
X13931967Y-11699781D01*
X13931967Y-11699781D02*
X13941491Y-11690258D01*
X13941491Y-11690258D02*
X13960539Y-11680734D01*
X14112920Y-11880734D02*
X14112920Y-11747400D01*
X14112920Y-11766448D02*
X14122443Y-11756924D01*
X14122443Y-11756924D02*
X14141491Y-11747400D01*
X14141491Y-11747400D02*
X14170063Y-11747400D01*
X14170063Y-11747400D02*
X14189110Y-11756924D01*
X14189110Y-11756924D02*
X14198634Y-11775972D01*
X14198634Y-11775972D02*
X14198634Y-11880734D01*
X14198634Y-11775972D02*
X14208158Y-11756924D01*
X14208158Y-11756924D02*
X14227205Y-11747400D01*
X14227205Y-11747400D02*
X14255777Y-11747400D01*
X14255777Y-11747400D02*
X14274824Y-11756924D01*
X14274824Y-11756924D02*
X14284348Y-11775972D01*
X14284348Y-11775972D02*
X14284348Y-11880734D01*
X14379586Y-11880734D02*
X14379586Y-11747400D01*
X14379586Y-11766448D02*
X14389110Y-11756924D01*
X14389110Y-11756924D02*
X14408158Y-11747400D01*
X14408158Y-11747400D02*
X14436729Y-11747400D01*
X14436729Y-11747400D02*
X14455777Y-11756924D01*
X14455777Y-11756924D02*
X14465301Y-11775972D01*
X14465301Y-11775972D02*
X14465301Y-11880734D01*
X14465301Y-11775972D02*
X14474824Y-11756924D01*
X14474824Y-11756924D02*
X14493872Y-11747400D01*
X14493872Y-11747400D02*
X14522443Y-11747400D01*
X14522443Y-11747400D02*
X14541491Y-11756924D01*
X14541491Y-11756924D02*
X14551015Y-11775972D01*
X14551015Y-11775972D02*
X14551015Y-11880734D01*
X14941491Y-11671210D02*
X14770063Y-11928353D01*
X15198634Y-11680734D02*
X15217682Y-11680734D01*
X15217682Y-11680734D02*
X15236729Y-11690258D01*
X15236729Y-11690258D02*
X15246253Y-11699781D01*
X15246253Y-11699781D02*
X15255777Y-11718829D01*
X15255777Y-11718829D02*
X15265301Y-11756924D01*
X15265301Y-11756924D02*
X15265301Y-11804543D01*
X15265301Y-11804543D02*
X15255777Y-11842638D01*
X15255777Y-11842638D02*
X15246253Y-11861686D01*
X15246253Y-11861686D02*
X15236729Y-11871210D01*
X15236729Y-11871210D02*
X15217682Y-11880734D01*
X15217682Y-11880734D02*
X15198634Y-11880734D01*
X15198634Y-11880734D02*
X15179586Y-11871210D01*
X15179586Y-11871210D02*
X15170063Y-11861686D01*
X15170063Y-11861686D02*
X15160539Y-11842638D01*
X15160539Y-11842638D02*
X15151015Y-11804543D01*
X15151015Y-11804543D02*
X15151015Y-11756924D01*
X15151015Y-11756924D02*
X15160539Y-11718829D01*
X15160539Y-11718829D02*
X15170063Y-11699781D01*
X15170063Y-11699781D02*
X15179586Y-11690258D01*
X15179586Y-11690258D02*
X15198634Y-11680734D01*
X15351015Y-11861686D02*
X15360539Y-11871210D01*
X15360539Y-11871210D02*
X15351015Y-11880734D01*
X15351015Y-11880734D02*
X15341491Y-11871210D01*
X15341491Y-11871210D02*
X15351015Y-11861686D01*
X15351015Y-11861686D02*
X15351015Y-11880734D01*
X15551015Y-11880734D02*
X15436729Y-11880734D01*
X15493872Y-11880734D02*
X15493872Y-11680734D01*
X15493872Y-11680734D02*
X15474825Y-11709305D01*
X15474825Y-11709305D02*
X15455777Y-11728353D01*
X15455777Y-11728353D02*
X15436729Y-11737877D01*
X15674825Y-11680734D02*
X15693872Y-11680734D01*
X15693872Y-11680734D02*
X15712920Y-11690258D01*
X15712920Y-11690258D02*
X15722444Y-11699781D01*
X15722444Y-11699781D02*
X15731967Y-11718829D01*
X15731967Y-11718829D02*
X15741491Y-11756924D01*
X15741491Y-11756924D02*
X15741491Y-11804543D01*
X15741491Y-11804543D02*
X15731967Y-11842638D01*
X15731967Y-11842638D02*
X15722444Y-11861686D01*
X15722444Y-11861686D02*
X15712920Y-11871210D01*
X15712920Y-11871210D02*
X15693872Y-11880734D01*
X15693872Y-11880734D02*
X15674825Y-11880734D01*
X15674825Y-11880734D02*
X15655777Y-11871210D01*
X15655777Y-11871210D02*
X15646253Y-11861686D01*
X15646253Y-11861686D02*
X15636729Y-11842638D01*
X15636729Y-11842638D02*
X15627206Y-11804543D01*
X15627206Y-11804543D02*
X15627206Y-11756924D01*
X15627206Y-11756924D02*
X15636729Y-11718829D01*
X15636729Y-11718829D02*
X15646253Y-11699781D01*
X15646253Y-11699781D02*
X15655777Y-11690258D01*
X15655777Y-11690258D02*
X15674825Y-11680734D01*
X15912920Y-11680734D02*
X15874825Y-11680734D01*
X15874825Y-11680734D02*
X15855777Y-11690258D01*
X15855777Y-11690258D02*
X15846253Y-11699781D01*
X15846253Y-11699781D02*
X15827206Y-11728353D01*
X15827206Y-11728353D02*
X15817682Y-11766448D01*
X15817682Y-11766448D02*
X15817682Y-11842638D01*
X15817682Y-11842638D02*
X15827206Y-11861686D01*
X15827206Y-11861686D02*
X15836729Y-11871210D01*
X15836729Y-11871210D02*
X15855777Y-11880734D01*
X15855777Y-11880734D02*
X15893872Y-11880734D01*
X15893872Y-11880734D02*
X15912920Y-11871210D01*
X15912920Y-11871210D02*
X15922444Y-11861686D01*
X15922444Y-11861686D02*
X15931967Y-11842638D01*
X15931967Y-11842638D02*
X15931967Y-11795019D01*
X15931967Y-11795019D02*
X15922444Y-11775972D01*
X15922444Y-11775972D02*
X15912920Y-11766448D01*
X15912920Y-11766448D02*
X15893872Y-11756924D01*
X15893872Y-11756924D02*
X15855777Y-11756924D01*
X15855777Y-11756924D02*
X15836729Y-11766448D01*
X15836729Y-11766448D02*
X15827206Y-11775972D01*
X15827206Y-11775972D02*
X15817682Y-11795019D01*
X15998634Y-11680734D02*
X16122444Y-11680734D01*
X16122444Y-11680734D02*
X16055777Y-11756924D01*
X16055777Y-11756924D02*
X16084348Y-11756924D01*
X16084348Y-11756924D02*
X16103396Y-11766448D01*
X16103396Y-11766448D02*
X16112920Y-11775972D01*
X16112920Y-11775972D02*
X16122444Y-11795019D01*
X16122444Y-11795019D02*
X16122444Y-11842638D01*
X16122444Y-11842638D02*
X16112920Y-11861686D01*
X16112920Y-11861686D02*
X16103396Y-11871210D01*
X16103396Y-11871210D02*
X16084348Y-11880734D01*
X16084348Y-11880734D02*
X16027206Y-11880734D01*
X16027206Y-11880734D02*
X16008158Y-11871210D01*
X16008158Y-11871210D02*
X15998634Y-11861686D01*
X16198634Y-11680734D02*
X16198634Y-11718829D01*
X16274825Y-11680734D02*
X16274825Y-11718829D01*
X16570063Y-11956924D02*
X16560539Y-11947400D01*
X16560539Y-11947400D02*
X16541491Y-11918829D01*
X16541491Y-11918829D02*
X16531968Y-11899781D01*
X16531968Y-11899781D02*
X16522444Y-11871210D01*
X16522444Y-11871210D02*
X16512920Y-11823591D01*
X16512920Y-11823591D02*
X16512920Y-11785496D01*
X16512920Y-11785496D02*
X16522444Y-11737877D01*
X16522444Y-11737877D02*
X16531968Y-11709305D01*
X16531968Y-11709305D02*
X16541491Y-11690258D01*
X16541491Y-11690258D02*
X16560539Y-11661686D01*
X16560539Y-11661686D02*
X16570063Y-11652162D01*
X16731968Y-11747400D02*
X16731968Y-11880734D01*
X16684348Y-11671210D02*
X16636729Y-11814067D01*
X16636729Y-11814067D02*
X16760539Y-11814067D01*
X16989111Y-11880734D02*
X16989111Y-11680734D01*
X17074825Y-11880734D02*
X17074825Y-11775972D01*
X17074825Y-11775972D02*
X17065301Y-11756924D01*
X17065301Y-11756924D02*
X17046253Y-11747400D01*
X17046253Y-11747400D02*
X17017682Y-11747400D01*
X17017682Y-11747400D02*
X16998634Y-11756924D01*
X16998634Y-11756924D02*
X16989111Y-11766448D01*
X17198634Y-11880734D02*
X17179587Y-11871210D01*
X17179587Y-11871210D02*
X17170063Y-11861686D01*
X17170063Y-11861686D02*
X17160539Y-11842638D01*
X17160539Y-11842638D02*
X17160539Y-11785496D01*
X17160539Y-11785496D02*
X17170063Y-11766448D01*
X17170063Y-11766448D02*
X17179587Y-11756924D01*
X17179587Y-11756924D02*
X17198634Y-11747400D01*
X17198634Y-11747400D02*
X17227206Y-11747400D01*
X17227206Y-11747400D02*
X17246253Y-11756924D01*
X17246253Y-11756924D02*
X17255777Y-11766448D01*
X17255777Y-11766448D02*
X17265301Y-11785496D01*
X17265301Y-11785496D02*
X17265301Y-11842638D01*
X17265301Y-11842638D02*
X17255777Y-11861686D01*
X17255777Y-11861686D02*
X17246253Y-11871210D01*
X17246253Y-11871210D02*
X17227206Y-11880734D01*
X17227206Y-11880734D02*
X17198634Y-11880734D01*
X17379587Y-11880734D02*
X17360539Y-11871210D01*
X17360539Y-11871210D02*
X17351015Y-11852162D01*
X17351015Y-11852162D02*
X17351015Y-11680734D01*
X17531968Y-11871210D02*
X17512920Y-11880734D01*
X17512920Y-11880734D02*
X17474825Y-11880734D01*
X17474825Y-11880734D02*
X17455777Y-11871210D01*
X17455777Y-11871210D02*
X17446253Y-11852162D01*
X17446253Y-11852162D02*
X17446253Y-11775972D01*
X17446253Y-11775972D02*
X17455777Y-11756924D01*
X17455777Y-11756924D02*
X17474825Y-11747400D01*
X17474825Y-11747400D02*
X17512920Y-11747400D01*
X17512920Y-11747400D02*
X17531968Y-11756924D01*
X17531968Y-11756924D02*
X17541492Y-11775972D01*
X17541492Y-11775972D02*
X17541492Y-11795019D01*
X17541492Y-11795019D02*
X17446253Y-11814067D01*
X17617682Y-11871210D02*
X17636730Y-11880734D01*
X17636730Y-11880734D02*
X17674825Y-11880734D01*
X17674825Y-11880734D02*
X17693873Y-11871210D01*
X17693873Y-11871210D02*
X17703396Y-11852162D01*
X17703396Y-11852162D02*
X17703396Y-11842638D01*
X17703396Y-11842638D02*
X17693873Y-11823591D01*
X17693873Y-11823591D02*
X17674825Y-11814067D01*
X17674825Y-11814067D02*
X17646253Y-11814067D01*
X17646253Y-11814067D02*
X17627206Y-11804543D01*
X17627206Y-11804543D02*
X17617682Y-11785496D01*
X17617682Y-11785496D02*
X17617682Y-11775972D01*
X17617682Y-11775972D02*
X17627206Y-11756924D01*
X17627206Y-11756924D02*
X17646253Y-11747400D01*
X17646253Y-11747400D02*
X17674825Y-11747400D01*
X17674825Y-11747400D02*
X17693873Y-11756924D01*
X17770063Y-11956924D02*
X17779587Y-11947400D01*
X17779587Y-11947400D02*
X17798634Y-11918829D01*
X17798634Y-11918829D02*
X17808158Y-11899781D01*
X17808158Y-11899781D02*
X17817682Y-11871210D01*
X17817682Y-11871210D02*
X17827206Y-11823591D01*
X17827206Y-11823591D02*
X17827206Y-11785496D01*
X17827206Y-11785496D02*
X17817682Y-11737877D01*
X17817682Y-11737877D02*
X17808158Y-11709305D01*
X17808158Y-11709305D02*
X17798634Y-11690258D01*
X17798634Y-11690258D02*
X17779587Y-11661686D01*
X17779587Y-11661686D02*
X17770063Y-11652162D01*
M02*
