G04 #@! TF.GenerationSoftware,KiCad,Pcbnew,7.0.8*
G04 #@! TF.CreationDate,2024-01-19T21:48:40-07:00*
G04 #@! TF.ProjectId,wheelspeed,77686565-6c73-4706-9565-642e6b696361,v1*
G04 #@! TF.SameCoordinates,Original*
G04 #@! TF.FileFunction,Copper,L2,Bot*
G04 #@! TF.FilePolarity,Positive*
%FSLAX46Y46*%
G04 Gerber Fmt 4.6, Leading zero omitted, Abs format (unit mm)*
G04 Created by KiCad (PCBNEW 7.0.8) date 2024-01-19 21:48:40*
%MOMM*%
%LPD*%
G01*
G04 APERTURE LIST*
G04 Aperture macros list*
%AMRoundRect*
0 Rectangle with rounded corners*
0 $1 Rounding radius*
0 $2 $3 $4 $5 $6 $7 $8 $9 X,Y pos of 4 corners*
0 Add a 4 corners polygon primitive as box body*
4,1,4,$2,$3,$4,$5,$6,$7,$8,$9,$2,$3,0*
0 Add four circle primitives for the rounded corners*
1,1,$1+$1,$2,$3*
1,1,$1+$1,$4,$5*
1,1,$1+$1,$6,$7*
1,1,$1+$1,$8,$9*
0 Add four rect primitives between the rounded corners*
20,1,$1+$1,$2,$3,$4,$5,0*
20,1,$1+$1,$4,$5,$6,$7,0*
20,1,$1+$1,$6,$7,$8,$9,0*
20,1,$1+$1,$8,$9,$2,$3,0*%
G04 Aperture macros list end*
G04 #@! TA.AperFunction,ComponentPad*
%ADD10C,4.500000*%
G04 #@! TD*
G04 #@! TA.AperFunction,SMDPad,CuDef*
%ADD11RoundRect,0.300000X0.450000X0.575000X-0.450000X0.575000X-0.450000X-0.575000X0.450000X-0.575000X0*%
G04 #@! TD*
G04 #@! TA.AperFunction,ComponentPad*
%ADD12RoundRect,0.250000X0.725000X-0.600000X0.725000X0.600000X-0.725000X0.600000X-0.725000X-0.600000X0*%
G04 #@! TD*
G04 #@! TA.AperFunction,ComponentPad*
%ADD13O,1.950000X1.700000*%
G04 #@! TD*
G04 #@! TA.AperFunction,SMDPad,CuDef*
%ADD14RoundRect,0.250000X0.262500X0.450000X-0.262500X0.450000X-0.262500X-0.450000X0.262500X-0.450000X0*%
G04 #@! TD*
G04 #@! TA.AperFunction,ViaPad*
%ADD15C,0.800000*%
G04 #@! TD*
G04 #@! TA.AperFunction,Conductor*
%ADD16C,0.500000*%
G04 #@! TD*
G04 #@! TA.AperFunction,Conductor*
%ADD17C,0.300000*%
G04 #@! TD*
G04 #@! TA.AperFunction,Conductor*
%ADD18C,0.250000*%
G04 #@! TD*
G04 APERTURE END LIST*
D10*
X147500000Y-90412500D03*
X132500000Y-103412500D03*
X132500000Y-90412500D03*
X147500000Y-103412500D03*
D11*
X148400000Y-99500000D03*
X145600000Y-99500000D03*
D12*
X141543750Y-102162500D03*
D13*
X141543750Y-99662500D03*
X141543750Y-97162500D03*
X141543750Y-94662500D03*
D14*
X147612500Y-97100000D03*
X145787500Y-97100000D03*
D15*
X130900000Y-98700000D03*
D16*
X142937500Y-102162500D02*
X145600000Y-99500000D01*
X141543750Y-102162500D02*
X142937500Y-102162500D01*
D17*
X141543750Y-97162500D02*
X145725000Y-97162500D01*
X145725000Y-97162500D02*
X145787500Y-97100000D01*
D18*
X147612500Y-97100000D02*
X147800000Y-97100000D01*
X148400000Y-97700000D02*
X148400000Y-99500000D01*
X147800000Y-97100000D02*
X148400000Y-97700000D01*
G04 #@! TA.AperFunction,Conductor*
G36*
X146397957Y-87682685D02*
G01*
X146443712Y-87735489D01*
X146453656Y-87804647D01*
X146424631Y-87868203D01*
X146381809Y-87900076D01*
X146219680Y-87973044D01*
X146219678Y-87973045D01*
X145934968Y-88145157D01*
X145934960Y-88145162D01*
X145739416Y-88298361D01*
X145739416Y-88298362D01*
X146738627Y-89297573D01*
X146628922Y-89374390D01*
X146461890Y-89541422D01*
X146385073Y-89651126D01*
X145385862Y-88651916D01*
X145385861Y-88651916D01*
X145232662Y-88847460D01*
X145232657Y-88847468D01*
X145060545Y-89132178D01*
X145060543Y-89132180D01*
X144924005Y-89435556D01*
X144923999Y-89435571D01*
X144825032Y-89753170D01*
X144765060Y-90080423D01*
X144744974Y-90412500D01*
X144765060Y-90744576D01*
X144825032Y-91071829D01*
X144923999Y-91389428D01*
X144924005Y-91389443D01*
X145060543Y-91692819D01*
X145060545Y-91692821D01*
X145232656Y-91977530D01*
X145385862Y-92173082D01*
X146385073Y-91173872D01*
X146461890Y-91283578D01*
X146628922Y-91450610D01*
X146738626Y-91527425D01*
X145739416Y-92526636D01*
X145739416Y-92526637D01*
X145934969Y-92679843D01*
X146219678Y-92851954D01*
X146219680Y-92851956D01*
X146523056Y-92988494D01*
X146523071Y-92988500D01*
X146840670Y-93087467D01*
X147167923Y-93147439D01*
X147500000Y-93167525D01*
X147832076Y-93147439D01*
X148159329Y-93087467D01*
X148476928Y-92988500D01*
X148476943Y-92988494D01*
X148780319Y-92851956D01*
X148780321Y-92851954D01*
X149065031Y-92679842D01*
X149065039Y-92679836D01*
X149260582Y-92526637D01*
X149260582Y-92526636D01*
X148261373Y-91527426D01*
X148371078Y-91450610D01*
X148538110Y-91283578D01*
X148614926Y-91173873D01*
X149614136Y-92173082D01*
X149614137Y-92173082D01*
X149767336Y-91977539D01*
X149767343Y-91977529D01*
X149769382Y-91974157D01*
X149820909Y-91926969D01*
X149889768Y-91915129D01*
X149954097Y-91942396D01*
X149993472Y-92000114D01*
X149999500Y-92038305D01*
X149999500Y-101786693D01*
X149979815Y-101853732D01*
X149927011Y-101899487D01*
X149857853Y-101909431D01*
X149794297Y-101880406D01*
X149769383Y-101850843D01*
X149767343Y-101847469D01*
X149614136Y-101651916D01*
X148614925Y-102651126D01*
X148538110Y-102541422D01*
X148371078Y-102374390D01*
X148261372Y-102297573D01*
X149260582Y-101298362D01*
X149260582Y-101298361D01*
X149065030Y-101145156D01*
X148974196Y-101090245D01*
X148927009Y-101038717D01*
X148915170Y-100969858D01*
X148942439Y-100905529D01*
X149000157Y-100866155D01*
X149024466Y-100860907D01*
X149029255Y-100860368D01*
X149199522Y-100800789D01*
X149352262Y-100704816D01*
X149479816Y-100577262D01*
X149575789Y-100424522D01*
X149635368Y-100254255D01*
X149650500Y-100119954D01*
X149650500Y-98880046D01*
X149640515Y-98791426D01*
X149635369Y-98745750D01*
X149635368Y-98745745D01*
X149592904Y-98624390D01*
X149575789Y-98575478D01*
X149479816Y-98422738D01*
X149352262Y-98295184D01*
X149256181Y-98234812D01*
X149199521Y-98199210D01*
X149108546Y-98167377D01*
X149051770Y-98126655D01*
X149026022Y-98061702D01*
X149025500Y-98050335D01*
X149025500Y-97782738D01*
X149027224Y-97767124D01*
X149026938Y-97767097D01*
X149027672Y-97759334D01*
X149025500Y-97690203D01*
X149025500Y-97660651D01*
X149025500Y-97660650D01*
X149024629Y-97653759D01*
X149024172Y-97647945D01*
X149022709Y-97601372D01*
X149017122Y-97582144D01*
X149013174Y-97563084D01*
X149010664Y-97543208D01*
X148993507Y-97499875D01*
X148991619Y-97494359D01*
X148978619Y-97449612D01*
X148968418Y-97432363D01*
X148959860Y-97414894D01*
X148952486Y-97396268D01*
X148952483Y-97396264D01*
X148952483Y-97396263D01*
X148925098Y-97358571D01*
X148921890Y-97353687D01*
X148898172Y-97313582D01*
X148898163Y-97313571D01*
X148884005Y-97299413D01*
X148871370Y-97284620D01*
X148859593Y-97268412D01*
X148823693Y-97238713D01*
X148819381Y-97234790D01*
X148661818Y-97077227D01*
X148628333Y-97015904D01*
X148625499Y-96989546D01*
X148625499Y-96599998D01*
X148625498Y-96599981D01*
X148614999Y-96497203D01*
X148614998Y-96497200D01*
X148610773Y-96484449D01*
X148559814Y-96330666D01*
X148467712Y-96181344D01*
X148343656Y-96057288D01*
X148246489Y-95997355D01*
X148194336Y-95965187D01*
X148194331Y-95965185D01*
X148177172Y-95959499D01*
X148027797Y-95910001D01*
X148027795Y-95910000D01*
X147925010Y-95899500D01*
X147299998Y-95899500D01*
X147299980Y-95899501D01*
X147197203Y-95910000D01*
X147197200Y-95910001D01*
X147030668Y-95965185D01*
X147030663Y-95965187D01*
X146881342Y-96057289D01*
X146787681Y-96150951D01*
X146726358Y-96184436D01*
X146656666Y-96179452D01*
X146612319Y-96150951D01*
X146518657Y-96057289D01*
X146518656Y-96057288D01*
X146421489Y-95997355D01*
X146369336Y-95965187D01*
X146369331Y-95965185D01*
X146352172Y-95959499D01*
X146202797Y-95910001D01*
X146202795Y-95910000D01*
X146100010Y-95899500D01*
X145474998Y-95899500D01*
X145474980Y-95899501D01*
X145372203Y-95910000D01*
X145372200Y-95910001D01*
X145205668Y-95965185D01*
X145205663Y-95965187D01*
X145056342Y-96057289D01*
X144932289Y-96181342D01*
X144840187Y-96330663D01*
X144840185Y-96330668D01*
X144808263Y-96427004D01*
X144768490Y-96484449D01*
X144703974Y-96511272D01*
X144690557Y-96512000D01*
X142926471Y-96512000D01*
X142859432Y-96492315D01*
X142824896Y-96459123D01*
X142707243Y-96291096D01*
X142540153Y-96124006D01*
X142444870Y-96057289D01*
X142383151Y-96014073D01*
X142339528Y-95959499D01*
X142332334Y-95890000D01*
X142363856Y-95827645D01*
X142383148Y-95810928D01*
X142540151Y-95700995D01*
X142707245Y-95533901D01*
X142842785Y-95340330D01*
X142942653Y-95126163D01*
X143003813Y-94897908D01*
X143024409Y-94662500D01*
X143003813Y-94427092D01*
X142942653Y-94198837D01*
X142842785Y-93984671D01*
X142842784Y-93984669D01*
X142707244Y-93791097D01*
X142540152Y-93624005D01*
X142346580Y-93488465D01*
X142346578Y-93488464D01*
X142239496Y-93438531D01*
X142132413Y-93388597D01*
X142132409Y-93388596D01*
X142132405Y-93388594D01*
X141904163Y-93327438D01*
X141904153Y-93327436D01*
X141727716Y-93312000D01*
X141359784Y-93312000D01*
X141183346Y-93327436D01*
X141183336Y-93327438D01*
X140955094Y-93388594D01*
X140955085Y-93388598D01*
X140740921Y-93488464D01*
X140740919Y-93488465D01*
X140547347Y-93624005D01*
X140380256Y-93791097D01*
X140380251Y-93791104D01*
X140244717Y-93984665D01*
X140244715Y-93984669D01*
X140144848Y-94198835D01*
X140144844Y-94198844D01*
X140083688Y-94427086D01*
X140083686Y-94427096D01*
X140063091Y-94662499D01*
X140063091Y-94662500D01*
X140083686Y-94897903D01*
X140083688Y-94897913D01*
X140144844Y-95126155D01*
X140144846Y-95126159D01*
X140144847Y-95126163D01*
X140194781Y-95233246D01*
X140244714Y-95340328D01*
X140244715Y-95340330D01*
X140380255Y-95533902D01*
X140547347Y-95700994D01*
X140704345Y-95810925D01*
X140747970Y-95865502D01*
X140755164Y-95935000D01*
X140723641Y-95997355D01*
X140704345Y-96014075D01*
X140547347Y-96124005D01*
X140380256Y-96291097D01*
X140380251Y-96291104D01*
X140244717Y-96484665D01*
X140244715Y-96484669D01*
X140144848Y-96698835D01*
X140144844Y-96698844D01*
X140083688Y-96927086D01*
X140083686Y-96927096D01*
X140063091Y-97162499D01*
X140063091Y-97162500D01*
X140083686Y-97397903D01*
X140083688Y-97397913D01*
X140144844Y-97626155D01*
X140144846Y-97626159D01*
X140144847Y-97626163D01*
X140174710Y-97690203D01*
X140244714Y-97840328D01*
X140244715Y-97840330D01*
X140380255Y-98033902D01*
X140547347Y-98200994D01*
X140704781Y-98311230D01*
X140748406Y-98365807D01*
X140755600Y-98435305D01*
X140724077Y-98497660D01*
X140704782Y-98514380D01*
X140547672Y-98624390D01*
X140547670Y-98624391D01*
X140380644Y-98791417D01*
X140245149Y-98984921D01*
X140145320Y-99199007D01*
X140145317Y-99199013D01*
X140088114Y-99412499D01*
X140088114Y-99412500D01*
X141139781Y-99412500D01*
X141107231Y-99463149D01*
X141068750Y-99594205D01*
X141068750Y-99730795D01*
X141107231Y-99861851D01*
X141139781Y-99912500D01*
X140088114Y-99912500D01*
X140145317Y-100125986D01*
X140145320Y-100125992D01*
X140245149Y-100340077D01*
X140245150Y-100340079D01*
X140380636Y-100533573D01*
X140527893Y-100680831D01*
X140561377Y-100742154D01*
X140556393Y-100811846D01*
X140514521Y-100867779D01*
X140505308Y-100874050D01*
X140350097Y-100969785D01*
X140350093Y-100969788D01*
X140226039Y-101093842D01*
X140133937Y-101243163D01*
X140133936Y-101243166D01*
X140078751Y-101409703D01*
X140078751Y-101409704D01*
X140078750Y-101409704D01*
X140068250Y-101512483D01*
X140068250Y-102812501D01*
X140068251Y-102812519D01*
X140073530Y-102864190D01*
X140060760Y-102932883D01*
X140012879Y-102983767D01*
X139945089Y-103000687D01*
X139898105Y-102989330D01*
X139892809Y-102986880D01*
X139816917Y-102951768D01*
X139816913Y-102951766D01*
X139636247Y-102912000D01*
X139497637Y-102912000D01*
X139497633Y-102912000D01*
X139359838Y-102926986D01*
X139184526Y-102986057D01*
X139184524Y-102986058D01*
X139026012Y-103081431D01*
X139026011Y-103081432D01*
X138891709Y-103208649D01*
X138787888Y-103361776D01*
X138719419Y-103533622D01*
X138689490Y-103716185D01*
X138699505Y-103900906D01*
X138699505Y-103900911D01*
X138748994Y-104079156D01*
X138748997Y-104079162D01*
X138835648Y-104242602D01*
X138898290Y-104316350D01*
X138955413Y-104383600D01*
X139102686Y-104495554D01*
X139270583Y-104573232D01*
X139270584Y-104573232D01*
X139270586Y-104573233D01*
X139325398Y-104585297D01*
X139451253Y-104613000D01*
X139451256Y-104613000D01*
X139589857Y-104613000D01*
X139589863Y-104613000D01*
X139727660Y-104598014D01*
X139902971Y-104538944D01*
X140061486Y-104443570D01*
X140195791Y-104316349D01*
X140299608Y-104163230D01*
X140368081Y-103991375D01*
X140398010Y-103808817D01*
X140387995Y-103624093D01*
X140384844Y-103612744D01*
X140385876Y-103542882D01*
X140424514Y-103484668D01*
X140488491Y-103456585D01*
X140543323Y-103461863D01*
X140665953Y-103502499D01*
X140768741Y-103513000D01*
X142318758Y-103512999D01*
X142421547Y-103502499D01*
X142588084Y-103447314D01*
X142737406Y-103355212D01*
X142861462Y-103231156D01*
X142953564Y-103081834D01*
X142985029Y-102986878D01*
X143024800Y-102929435D01*
X143083443Y-102905053D01*
X143083218Y-102903961D01*
X143088887Y-102902789D01*
X143089316Y-102902612D01*
X143090142Y-102902530D01*
X143090288Y-102902499D01*
X143090297Y-102902499D01*
X143090304Y-102902496D01*
X143097366Y-102901039D01*
X143097378Y-102901098D01*
X143104743Y-102899465D01*
X143104729Y-102899406D01*
X143111746Y-102897741D01*
X143111755Y-102897741D01*
X143183923Y-102871474D01*
X143256834Y-102847314D01*
X143256843Y-102847307D01*
X143263382Y-102844260D01*
X143263408Y-102844316D01*
X143270190Y-102841032D01*
X143270163Y-102840978D01*
X143276606Y-102837740D01*
X143276617Y-102837737D01*
X143340783Y-102795534D01*
X143406156Y-102755212D01*
X143406162Y-102755205D01*
X143411825Y-102750729D01*
X143411862Y-102750777D01*
X143417704Y-102746018D01*
X143417664Y-102745971D01*
X143423191Y-102741332D01*
X143423196Y-102741330D01*
X143429243Y-102734921D01*
X143475886Y-102685481D01*
X145249548Y-100911819D01*
X145310871Y-100878334D01*
X145337229Y-100875500D01*
X145936226Y-100875500D01*
X146003265Y-100895185D01*
X146049020Y-100947989D01*
X146058964Y-101017147D01*
X146029939Y-101080703D01*
X146000376Y-101105617D01*
X145934968Y-101145156D01*
X145934960Y-101145162D01*
X145739416Y-101298361D01*
X145739416Y-101298362D01*
X146738627Y-102297573D01*
X146628922Y-102374390D01*
X146461890Y-102541422D01*
X146385073Y-102651126D01*
X145385862Y-101651916D01*
X145385861Y-101651916D01*
X145232662Y-101847460D01*
X145232657Y-101847468D01*
X145060545Y-102132178D01*
X145060543Y-102132180D01*
X144924005Y-102435556D01*
X144923999Y-102435571D01*
X144825032Y-102753170D01*
X144765060Y-103080423D01*
X144744974Y-103412500D01*
X144765060Y-103744576D01*
X144825032Y-104071829D01*
X144923999Y-104389428D01*
X144924005Y-104389443D01*
X145060543Y-104692819D01*
X145060545Y-104692821D01*
X145232656Y-104977530D01*
X145385862Y-105173082D01*
X146385073Y-104173872D01*
X146461890Y-104283578D01*
X146628922Y-104450610D01*
X146738626Y-104527425D01*
X145739416Y-105526636D01*
X145739416Y-105526637D01*
X145934969Y-105679843D01*
X146219678Y-105851954D01*
X146219680Y-105851955D01*
X146381809Y-105924924D01*
X146434864Y-105970389D01*
X146454916Y-106037319D01*
X146435600Y-106104466D01*
X146383048Y-106150510D01*
X146330918Y-106162000D01*
X133669082Y-106162000D01*
X133602043Y-106142315D01*
X133556288Y-106089511D01*
X133546344Y-106020353D01*
X133575369Y-105956797D01*
X133618191Y-105924924D01*
X133780319Y-105851955D01*
X133780321Y-105851954D01*
X134065031Y-105679842D01*
X134065039Y-105679836D01*
X134260582Y-105526637D01*
X134260582Y-105526636D01*
X133261372Y-104527426D01*
X133371078Y-104450610D01*
X133538110Y-104283578D01*
X133614926Y-104173873D01*
X134614136Y-105173082D01*
X134614137Y-105173082D01*
X134767336Y-104977539D01*
X134767342Y-104977531D01*
X134939454Y-104692821D01*
X134939456Y-104692819D01*
X135075994Y-104389443D01*
X135076000Y-104389428D01*
X135174967Y-104071829D01*
X135234939Y-103744576D01*
X135255025Y-103412500D01*
X135234939Y-103080423D01*
X135174967Y-102753170D01*
X135076000Y-102435571D01*
X135075994Y-102435556D01*
X134939456Y-102132180D01*
X134939454Y-102132178D01*
X134767343Y-101847469D01*
X134614136Y-101651916D01*
X133614925Y-102651126D01*
X133538110Y-102541422D01*
X133371078Y-102374390D01*
X133261372Y-102297573D01*
X134260582Y-101298362D01*
X134260582Y-101298361D01*
X134065030Y-101145156D01*
X133780321Y-100973045D01*
X133780319Y-100973043D01*
X133476943Y-100836505D01*
X133476928Y-100836499D01*
X133159329Y-100737532D01*
X132832076Y-100677560D01*
X132500000Y-100657474D01*
X132167923Y-100677560D01*
X131840670Y-100737532D01*
X131523071Y-100836499D01*
X131523056Y-100836505D01*
X131219680Y-100973043D01*
X131219678Y-100973045D01*
X130934968Y-101145157D01*
X130934960Y-101145162D01*
X130739416Y-101298361D01*
X130739416Y-101298362D01*
X131738627Y-102297573D01*
X131628922Y-102374390D01*
X131461890Y-102541422D01*
X131385073Y-102651126D01*
X130385862Y-101651916D01*
X130385861Y-101651916D01*
X130232662Y-101847460D01*
X130232656Y-101847468D01*
X130230617Y-101850843D01*
X130179089Y-101898031D01*
X130110229Y-101909869D01*
X130045901Y-101882600D01*
X130006527Y-101824881D01*
X130000500Y-101786693D01*
X130000500Y-92038306D01*
X130020185Y-91971267D01*
X130072989Y-91925512D01*
X130142147Y-91915568D01*
X130205703Y-91944593D01*
X130230621Y-91974163D01*
X130232656Y-91977530D01*
X130385862Y-92173082D01*
X131385073Y-91173872D01*
X131461890Y-91283578D01*
X131628922Y-91450610D01*
X131738626Y-91527425D01*
X130739416Y-92526636D01*
X130739416Y-92526637D01*
X130934969Y-92679843D01*
X131219678Y-92851954D01*
X131219680Y-92851956D01*
X131523056Y-92988494D01*
X131523071Y-92988500D01*
X131840670Y-93087467D01*
X132167923Y-93147439D01*
X132500000Y-93167525D01*
X132832076Y-93147439D01*
X133159329Y-93087467D01*
X133476928Y-92988500D01*
X133476943Y-92988494D01*
X133780319Y-92851956D01*
X133780321Y-92851954D01*
X134065031Y-92679842D01*
X134065039Y-92679836D01*
X134260582Y-92526637D01*
X134260582Y-92526636D01*
X133261373Y-91527426D01*
X133371078Y-91450610D01*
X133538110Y-91283578D01*
X133614926Y-91173873D01*
X134614136Y-92173082D01*
X134614137Y-92173082D01*
X134767336Y-91977539D01*
X134767342Y-91977531D01*
X134939454Y-91692821D01*
X134939456Y-91692819D01*
X135075994Y-91389443D01*
X135076000Y-91389428D01*
X135174967Y-91071829D01*
X135234939Y-90744576D01*
X135255025Y-90412500D01*
X135234939Y-90080423D01*
X135174967Y-89753170D01*
X135076000Y-89435571D01*
X135075994Y-89435556D01*
X134939456Y-89132180D01*
X134939454Y-89132178D01*
X134767343Y-88847469D01*
X134614136Y-88651916D01*
X133614925Y-89651126D01*
X133538110Y-89541422D01*
X133371078Y-89374390D01*
X133261372Y-89297573D01*
X134260582Y-88298362D01*
X134260582Y-88298361D01*
X134065030Y-88145156D01*
X133780321Y-87973045D01*
X133780319Y-87973044D01*
X133618191Y-87900076D01*
X133565136Y-87854611D01*
X133545084Y-87787681D01*
X133564400Y-87720534D01*
X133616952Y-87674490D01*
X133669082Y-87663000D01*
X146330918Y-87663000D01*
X146397957Y-87682685D01*
G37*
G04 #@! TD.AperFunction*
G04 #@! TA.AperFunction,Conductor*
G36*
X144803271Y-97832685D02*
G01*
X144841769Y-97871901D01*
X144919551Y-97998006D01*
X144937991Y-98065398D01*
X144917068Y-98132061D01*
X144863426Y-98176831D01*
X144854967Y-98180143D01*
X144800480Y-98199208D01*
X144647737Y-98295184D01*
X144520184Y-98422737D01*
X144424211Y-98575476D01*
X144364631Y-98745745D01*
X144364630Y-98745750D01*
X144349500Y-98880039D01*
X144349500Y-99637769D01*
X144329815Y-99704808D01*
X144313181Y-99725450D01*
X142990805Y-101047825D01*
X142929482Y-101081310D01*
X142859790Y-101076326D01*
X142815443Y-101047825D01*
X142737407Y-100969789D01*
X142737406Y-100969788D01*
X142588084Y-100877686D01*
X142582191Y-100874051D01*
X142535467Y-100822103D01*
X142524244Y-100753140D01*
X142552088Y-100689058D01*
X142559607Y-100680831D01*
X142706855Y-100533582D01*
X142842350Y-100340078D01*
X142942179Y-100125992D01*
X142942182Y-100125986D01*
X142999386Y-99912500D01*
X141947719Y-99912500D01*
X141980269Y-99861851D01*
X142018750Y-99730795D01*
X142018750Y-99594205D01*
X141980269Y-99463149D01*
X141947719Y-99412500D01*
X142999386Y-99412500D01*
X142999385Y-99412499D01*
X142942182Y-99199013D01*
X142942179Y-99199007D01*
X142842350Y-98984922D01*
X142842349Y-98984920D01*
X142706863Y-98791426D01*
X142706858Y-98791420D01*
X142539829Y-98624391D01*
X142539823Y-98624386D01*
X142382717Y-98514380D01*
X142339092Y-98459803D01*
X142331898Y-98390305D01*
X142363421Y-98327950D01*
X142382710Y-98311235D01*
X142540151Y-98200995D01*
X142707245Y-98033901D01*
X142789149Y-97916929D01*
X142824897Y-97865877D01*
X142879474Y-97822252D01*
X142926472Y-97813000D01*
X144736232Y-97813000D01*
X144803271Y-97832685D01*
G37*
G04 #@! TD.AperFunction*
M02*
