%TF.GenerationSoftware,KiCad,Pcbnew,7.0.8*%
%TF.CreationDate,2023-12-02T16:31:01-07:00*%
%TF.ProjectId,cansplitter,63616e73-706c-4697-9474-65722e6b6963,rev?*%
%TF.SameCoordinates,Original*%
%TF.FileFunction,Drillmap*%
%TF.FilePolarity,Positive*%
%FSLAX45Y45*%
G04 Gerber Fmt 4.5, Leading zero omitted, Abs format (unit mm)*
G04 Created by KiCad (PCBNEW 7.0.8) date 2023-12-02 16:31:01*
%MOMM*%
%LPD*%
G01*
G04 APERTURE LIST*
%ADD10C,0.100000*%
%ADD11C,0.200000*%
%ADD12C,0.343000*%
G04 APERTURE END LIST*
D10*
X12500000Y-6200000D02*
X17000000Y-6200000D01*
X17000000Y-9800000D01*
X12500000Y-9800000D01*
X12500000Y-6200000D01*
D11*
D12*
X12793500Y-7828500D02*
X13136500Y-8171500D01*
X13136500Y-7828500D02*
X12793500Y-8171500D01*
X14028500Y-6507500D02*
X14371500Y-6850500D01*
X14371500Y-6507500D02*
X14028500Y-6850500D01*
X14028500Y-9149500D02*
X14371500Y-9492500D01*
X14371500Y-9149500D02*
X14028500Y-9492500D01*
X16498500Y-6939500D02*
X16841500Y-7282500D01*
X16841500Y-6939500D02*
X16498500Y-7282500D01*
X16498500Y-8717500D02*
X16841500Y-9060500D01*
X16841500Y-8717500D02*
X16498500Y-9060500D01*
D11*
X12755777Y-10116484D02*
X12755777Y-9916484D01*
X12755777Y-9916484D02*
X12803396Y-9916484D01*
X12803396Y-9916484D02*
X12831967Y-9926008D01*
X12831967Y-9926008D02*
X12851015Y-9945055D01*
X12851015Y-9945055D02*
X12860539Y-9964103D01*
X12860539Y-9964103D02*
X12870062Y-10002198D01*
X12870062Y-10002198D02*
X12870062Y-10030770D01*
X12870062Y-10030770D02*
X12860539Y-10068865D01*
X12860539Y-10068865D02*
X12851015Y-10087912D01*
X12851015Y-10087912D02*
X12831967Y-10106960D01*
X12831967Y-10106960D02*
X12803396Y-10116484D01*
X12803396Y-10116484D02*
X12755777Y-10116484D01*
X12955777Y-10116484D02*
X12955777Y-9983150D01*
X12955777Y-10021246D02*
X12965301Y-10002198D01*
X12965301Y-10002198D02*
X12974824Y-9992674D01*
X12974824Y-9992674D02*
X12993872Y-9983150D01*
X12993872Y-9983150D02*
X13012920Y-9983150D01*
X13079586Y-10116484D02*
X13079586Y-9983150D01*
X13079586Y-9916484D02*
X13070062Y-9926008D01*
X13070062Y-9926008D02*
X13079586Y-9935531D01*
X13079586Y-9935531D02*
X13089110Y-9926008D01*
X13089110Y-9926008D02*
X13079586Y-9916484D01*
X13079586Y-9916484D02*
X13079586Y-9935531D01*
X13203396Y-10116484D02*
X13184348Y-10106960D01*
X13184348Y-10106960D02*
X13174824Y-10087912D01*
X13174824Y-10087912D02*
X13174824Y-9916484D01*
X13308158Y-10116484D02*
X13289110Y-10106960D01*
X13289110Y-10106960D02*
X13279586Y-10087912D01*
X13279586Y-10087912D02*
X13279586Y-9916484D01*
X13536729Y-10116484D02*
X13536729Y-9916484D01*
X13536729Y-9916484D02*
X13603396Y-10059341D01*
X13603396Y-10059341D02*
X13670062Y-9916484D01*
X13670062Y-9916484D02*
X13670062Y-10116484D01*
X13851015Y-10116484D02*
X13851015Y-10011722D01*
X13851015Y-10011722D02*
X13841491Y-9992674D01*
X13841491Y-9992674D02*
X13822443Y-9983150D01*
X13822443Y-9983150D02*
X13784348Y-9983150D01*
X13784348Y-9983150D02*
X13765301Y-9992674D01*
X13851015Y-10106960D02*
X13831967Y-10116484D01*
X13831967Y-10116484D02*
X13784348Y-10116484D01*
X13784348Y-10116484D02*
X13765301Y-10106960D01*
X13765301Y-10106960D02*
X13755777Y-10087912D01*
X13755777Y-10087912D02*
X13755777Y-10068865D01*
X13755777Y-10068865D02*
X13765301Y-10049817D01*
X13765301Y-10049817D02*
X13784348Y-10040293D01*
X13784348Y-10040293D02*
X13831967Y-10040293D01*
X13831967Y-10040293D02*
X13851015Y-10030770D01*
X13946253Y-9983150D02*
X13946253Y-10183150D01*
X13946253Y-9992674D02*
X13965301Y-9983150D01*
X13965301Y-9983150D02*
X14003396Y-9983150D01*
X14003396Y-9983150D02*
X14022443Y-9992674D01*
X14022443Y-9992674D02*
X14031967Y-10002198D01*
X14031967Y-10002198D02*
X14041491Y-10021246D01*
X14041491Y-10021246D02*
X14041491Y-10078389D01*
X14041491Y-10078389D02*
X14031967Y-10097436D01*
X14031967Y-10097436D02*
X14022443Y-10106960D01*
X14022443Y-10106960D02*
X14003396Y-10116484D01*
X14003396Y-10116484D02*
X13965301Y-10116484D01*
X13965301Y-10116484D02*
X13946253Y-10106960D01*
X14127205Y-10097436D02*
X14136729Y-10106960D01*
X14136729Y-10106960D02*
X14127205Y-10116484D01*
X14127205Y-10116484D02*
X14117682Y-10106960D01*
X14117682Y-10106960D02*
X14127205Y-10097436D01*
X14127205Y-10097436D02*
X14127205Y-10116484D01*
X14127205Y-9992674D02*
X14136729Y-10002198D01*
X14136729Y-10002198D02*
X14127205Y-10011722D01*
X14127205Y-10011722D02*
X14117682Y-10002198D01*
X14117682Y-10002198D02*
X14127205Y-9992674D01*
X14127205Y-9992674D02*
X14127205Y-10011722D01*
X12295000Y-10345000D02*
X12495000Y-10545000D01*
X12495000Y-10345000D02*
X12295000Y-10545000D01*
X12736729Y-10336484D02*
X12860539Y-10336484D01*
X12860539Y-10336484D02*
X12793872Y-10412674D01*
X12793872Y-10412674D02*
X12822443Y-10412674D01*
X12822443Y-10412674D02*
X12841491Y-10422198D01*
X12841491Y-10422198D02*
X12851015Y-10431722D01*
X12851015Y-10431722D02*
X12860539Y-10450770D01*
X12860539Y-10450770D02*
X12860539Y-10498389D01*
X12860539Y-10498389D02*
X12851015Y-10517436D01*
X12851015Y-10517436D02*
X12841491Y-10526960D01*
X12841491Y-10526960D02*
X12822443Y-10536484D01*
X12822443Y-10536484D02*
X12765301Y-10536484D01*
X12765301Y-10536484D02*
X12746253Y-10526960D01*
X12746253Y-10526960D02*
X12736729Y-10517436D01*
X12946253Y-10517436D02*
X12955777Y-10526960D01*
X12955777Y-10526960D02*
X12946253Y-10536484D01*
X12946253Y-10536484D02*
X12936729Y-10526960D01*
X12936729Y-10526960D02*
X12946253Y-10517436D01*
X12946253Y-10517436D02*
X12946253Y-10536484D01*
X13127205Y-10403150D02*
X13127205Y-10536484D01*
X13079586Y-10326960D02*
X13031967Y-10469817D01*
X13031967Y-10469817D02*
X13155777Y-10469817D01*
X13212920Y-10336484D02*
X13336729Y-10336484D01*
X13336729Y-10336484D02*
X13270062Y-10412674D01*
X13270062Y-10412674D02*
X13298634Y-10412674D01*
X13298634Y-10412674D02*
X13317682Y-10422198D01*
X13317682Y-10422198D02*
X13327205Y-10431722D01*
X13327205Y-10431722D02*
X13336729Y-10450770D01*
X13336729Y-10450770D02*
X13336729Y-10498389D01*
X13336729Y-10498389D02*
X13327205Y-10517436D01*
X13327205Y-10517436D02*
X13317682Y-10526960D01*
X13317682Y-10526960D02*
X13298634Y-10536484D01*
X13298634Y-10536484D02*
X13241491Y-10536484D01*
X13241491Y-10536484D02*
X13222443Y-10526960D01*
X13222443Y-10526960D02*
X13212920Y-10517436D01*
X13460539Y-10336484D02*
X13479586Y-10336484D01*
X13479586Y-10336484D02*
X13498634Y-10346008D01*
X13498634Y-10346008D02*
X13508158Y-10355531D01*
X13508158Y-10355531D02*
X13517682Y-10374579D01*
X13517682Y-10374579D02*
X13527205Y-10412674D01*
X13527205Y-10412674D02*
X13527205Y-10460293D01*
X13527205Y-10460293D02*
X13517682Y-10498389D01*
X13517682Y-10498389D02*
X13508158Y-10517436D01*
X13508158Y-10517436D02*
X13498634Y-10526960D01*
X13498634Y-10526960D02*
X13479586Y-10536484D01*
X13479586Y-10536484D02*
X13460539Y-10536484D01*
X13460539Y-10536484D02*
X13441491Y-10526960D01*
X13441491Y-10526960D02*
X13431967Y-10517436D01*
X13431967Y-10517436D02*
X13422443Y-10498389D01*
X13422443Y-10498389D02*
X13412920Y-10460293D01*
X13412920Y-10460293D02*
X13412920Y-10412674D01*
X13412920Y-10412674D02*
X13422443Y-10374579D01*
X13422443Y-10374579D02*
X13431967Y-10355531D01*
X13431967Y-10355531D02*
X13441491Y-10346008D01*
X13441491Y-10346008D02*
X13460539Y-10336484D01*
X13612920Y-10536484D02*
X13612920Y-10403150D01*
X13612920Y-10422198D02*
X13622443Y-10412674D01*
X13622443Y-10412674D02*
X13641491Y-10403150D01*
X13641491Y-10403150D02*
X13670063Y-10403150D01*
X13670063Y-10403150D02*
X13689110Y-10412674D01*
X13689110Y-10412674D02*
X13698634Y-10431722D01*
X13698634Y-10431722D02*
X13698634Y-10536484D01*
X13698634Y-10431722D02*
X13708158Y-10412674D01*
X13708158Y-10412674D02*
X13727205Y-10403150D01*
X13727205Y-10403150D02*
X13755777Y-10403150D01*
X13755777Y-10403150D02*
X13774824Y-10412674D01*
X13774824Y-10412674D02*
X13784348Y-10431722D01*
X13784348Y-10431722D02*
X13784348Y-10536484D01*
X13879586Y-10536484D02*
X13879586Y-10403150D01*
X13879586Y-10422198D02*
X13889110Y-10412674D01*
X13889110Y-10412674D02*
X13908158Y-10403150D01*
X13908158Y-10403150D02*
X13936729Y-10403150D01*
X13936729Y-10403150D02*
X13955777Y-10412674D01*
X13955777Y-10412674D02*
X13965301Y-10431722D01*
X13965301Y-10431722D02*
X13965301Y-10536484D01*
X13965301Y-10431722D02*
X13974824Y-10412674D01*
X13974824Y-10412674D02*
X13993872Y-10403150D01*
X13993872Y-10403150D02*
X14022443Y-10403150D01*
X14022443Y-10403150D02*
X14041491Y-10412674D01*
X14041491Y-10412674D02*
X14051015Y-10431722D01*
X14051015Y-10431722D02*
X14051015Y-10536484D01*
X14441491Y-10326960D02*
X14270063Y-10584103D01*
X14698634Y-10336484D02*
X14717682Y-10336484D01*
X14717682Y-10336484D02*
X14736729Y-10346008D01*
X14736729Y-10346008D02*
X14746253Y-10355531D01*
X14746253Y-10355531D02*
X14755777Y-10374579D01*
X14755777Y-10374579D02*
X14765301Y-10412674D01*
X14765301Y-10412674D02*
X14765301Y-10460293D01*
X14765301Y-10460293D02*
X14755777Y-10498389D01*
X14755777Y-10498389D02*
X14746253Y-10517436D01*
X14746253Y-10517436D02*
X14736729Y-10526960D01*
X14736729Y-10526960D02*
X14717682Y-10536484D01*
X14717682Y-10536484D02*
X14698634Y-10536484D01*
X14698634Y-10536484D02*
X14679586Y-10526960D01*
X14679586Y-10526960D02*
X14670063Y-10517436D01*
X14670063Y-10517436D02*
X14660539Y-10498389D01*
X14660539Y-10498389D02*
X14651015Y-10460293D01*
X14651015Y-10460293D02*
X14651015Y-10412674D01*
X14651015Y-10412674D02*
X14660539Y-10374579D01*
X14660539Y-10374579D02*
X14670063Y-10355531D01*
X14670063Y-10355531D02*
X14679586Y-10346008D01*
X14679586Y-10346008D02*
X14698634Y-10336484D01*
X14851015Y-10517436D02*
X14860539Y-10526960D01*
X14860539Y-10526960D02*
X14851015Y-10536484D01*
X14851015Y-10536484D02*
X14841491Y-10526960D01*
X14841491Y-10526960D02*
X14851015Y-10517436D01*
X14851015Y-10517436D02*
X14851015Y-10536484D01*
X15051015Y-10536484D02*
X14936729Y-10536484D01*
X14993872Y-10536484D02*
X14993872Y-10336484D01*
X14993872Y-10336484D02*
X14974825Y-10365055D01*
X14974825Y-10365055D02*
X14955777Y-10384103D01*
X14955777Y-10384103D02*
X14936729Y-10393627D01*
X15117682Y-10336484D02*
X15241491Y-10336484D01*
X15241491Y-10336484D02*
X15174825Y-10412674D01*
X15174825Y-10412674D02*
X15203396Y-10412674D01*
X15203396Y-10412674D02*
X15222444Y-10422198D01*
X15222444Y-10422198D02*
X15231967Y-10431722D01*
X15231967Y-10431722D02*
X15241491Y-10450770D01*
X15241491Y-10450770D02*
X15241491Y-10498389D01*
X15241491Y-10498389D02*
X15231967Y-10517436D01*
X15231967Y-10517436D02*
X15222444Y-10526960D01*
X15222444Y-10526960D02*
X15203396Y-10536484D01*
X15203396Y-10536484D02*
X15146253Y-10536484D01*
X15146253Y-10536484D02*
X15127206Y-10526960D01*
X15127206Y-10526960D02*
X15117682Y-10517436D01*
X15422444Y-10336484D02*
X15327206Y-10336484D01*
X15327206Y-10336484D02*
X15317682Y-10431722D01*
X15317682Y-10431722D02*
X15327206Y-10422198D01*
X15327206Y-10422198D02*
X15346253Y-10412674D01*
X15346253Y-10412674D02*
X15393872Y-10412674D01*
X15393872Y-10412674D02*
X15412920Y-10422198D01*
X15412920Y-10422198D02*
X15422444Y-10431722D01*
X15422444Y-10431722D02*
X15431967Y-10450770D01*
X15431967Y-10450770D02*
X15431967Y-10498389D01*
X15431967Y-10498389D02*
X15422444Y-10517436D01*
X15422444Y-10517436D02*
X15412920Y-10526960D01*
X15412920Y-10526960D02*
X15393872Y-10536484D01*
X15393872Y-10536484D02*
X15346253Y-10536484D01*
X15346253Y-10536484D02*
X15327206Y-10526960D01*
X15327206Y-10526960D02*
X15317682Y-10517436D01*
X15555777Y-10336484D02*
X15574825Y-10336484D01*
X15574825Y-10336484D02*
X15593872Y-10346008D01*
X15593872Y-10346008D02*
X15603396Y-10355531D01*
X15603396Y-10355531D02*
X15612920Y-10374579D01*
X15612920Y-10374579D02*
X15622444Y-10412674D01*
X15622444Y-10412674D02*
X15622444Y-10460293D01*
X15622444Y-10460293D02*
X15612920Y-10498389D01*
X15612920Y-10498389D02*
X15603396Y-10517436D01*
X15603396Y-10517436D02*
X15593872Y-10526960D01*
X15593872Y-10526960D02*
X15574825Y-10536484D01*
X15574825Y-10536484D02*
X15555777Y-10536484D01*
X15555777Y-10536484D02*
X15536729Y-10526960D01*
X15536729Y-10526960D02*
X15527206Y-10517436D01*
X15527206Y-10517436D02*
X15517682Y-10498389D01*
X15517682Y-10498389D02*
X15508158Y-10460293D01*
X15508158Y-10460293D02*
X15508158Y-10412674D01*
X15508158Y-10412674D02*
X15517682Y-10374579D01*
X15517682Y-10374579D02*
X15527206Y-10355531D01*
X15527206Y-10355531D02*
X15536729Y-10346008D01*
X15536729Y-10346008D02*
X15555777Y-10336484D01*
X15698634Y-10336484D02*
X15698634Y-10374579D01*
X15774825Y-10336484D02*
X15774825Y-10374579D01*
X16070063Y-10612674D02*
X16060539Y-10603150D01*
X16060539Y-10603150D02*
X16041491Y-10574579D01*
X16041491Y-10574579D02*
X16031968Y-10555531D01*
X16031968Y-10555531D02*
X16022444Y-10526960D01*
X16022444Y-10526960D02*
X16012920Y-10479341D01*
X16012920Y-10479341D02*
X16012920Y-10441246D01*
X16012920Y-10441246D02*
X16022444Y-10393627D01*
X16022444Y-10393627D02*
X16031968Y-10365055D01*
X16031968Y-10365055D02*
X16041491Y-10346008D01*
X16041491Y-10346008D02*
X16060539Y-10317436D01*
X16060539Y-10317436D02*
X16070063Y-10307912D01*
X16241491Y-10336484D02*
X16146253Y-10336484D01*
X16146253Y-10336484D02*
X16136729Y-10431722D01*
X16136729Y-10431722D02*
X16146253Y-10422198D01*
X16146253Y-10422198D02*
X16165301Y-10412674D01*
X16165301Y-10412674D02*
X16212920Y-10412674D01*
X16212920Y-10412674D02*
X16231968Y-10422198D01*
X16231968Y-10422198D02*
X16241491Y-10431722D01*
X16241491Y-10431722D02*
X16251015Y-10450770D01*
X16251015Y-10450770D02*
X16251015Y-10498389D01*
X16251015Y-10498389D02*
X16241491Y-10517436D01*
X16241491Y-10517436D02*
X16231968Y-10526960D01*
X16231968Y-10526960D02*
X16212920Y-10536484D01*
X16212920Y-10536484D02*
X16165301Y-10536484D01*
X16165301Y-10536484D02*
X16146253Y-10526960D01*
X16146253Y-10526960D02*
X16136729Y-10517436D01*
X16489110Y-10536484D02*
X16489110Y-10336484D01*
X16574825Y-10536484D02*
X16574825Y-10431722D01*
X16574825Y-10431722D02*
X16565301Y-10412674D01*
X16565301Y-10412674D02*
X16546253Y-10403150D01*
X16546253Y-10403150D02*
X16517682Y-10403150D01*
X16517682Y-10403150D02*
X16498634Y-10412674D01*
X16498634Y-10412674D02*
X16489110Y-10422198D01*
X16698634Y-10536484D02*
X16679587Y-10526960D01*
X16679587Y-10526960D02*
X16670063Y-10517436D01*
X16670063Y-10517436D02*
X16660539Y-10498389D01*
X16660539Y-10498389D02*
X16660539Y-10441246D01*
X16660539Y-10441246D02*
X16670063Y-10422198D01*
X16670063Y-10422198D02*
X16679587Y-10412674D01*
X16679587Y-10412674D02*
X16698634Y-10403150D01*
X16698634Y-10403150D02*
X16727206Y-10403150D01*
X16727206Y-10403150D02*
X16746253Y-10412674D01*
X16746253Y-10412674D02*
X16755777Y-10422198D01*
X16755777Y-10422198D02*
X16765301Y-10441246D01*
X16765301Y-10441246D02*
X16765301Y-10498389D01*
X16765301Y-10498389D02*
X16755777Y-10517436D01*
X16755777Y-10517436D02*
X16746253Y-10526960D01*
X16746253Y-10526960D02*
X16727206Y-10536484D01*
X16727206Y-10536484D02*
X16698634Y-10536484D01*
X16879587Y-10536484D02*
X16860539Y-10526960D01*
X16860539Y-10526960D02*
X16851015Y-10507912D01*
X16851015Y-10507912D02*
X16851015Y-10336484D01*
X17031968Y-10526960D02*
X17012920Y-10536484D01*
X17012920Y-10536484D02*
X16974825Y-10536484D01*
X16974825Y-10536484D02*
X16955777Y-10526960D01*
X16955777Y-10526960D02*
X16946253Y-10507912D01*
X16946253Y-10507912D02*
X16946253Y-10431722D01*
X16946253Y-10431722D02*
X16955777Y-10412674D01*
X16955777Y-10412674D02*
X16974825Y-10403150D01*
X16974825Y-10403150D02*
X17012920Y-10403150D01*
X17012920Y-10403150D02*
X17031968Y-10412674D01*
X17031968Y-10412674D02*
X17041492Y-10431722D01*
X17041492Y-10431722D02*
X17041492Y-10450770D01*
X17041492Y-10450770D02*
X16946253Y-10469817D01*
X17117682Y-10526960D02*
X17136730Y-10536484D01*
X17136730Y-10536484D02*
X17174825Y-10536484D01*
X17174825Y-10536484D02*
X17193873Y-10526960D01*
X17193873Y-10526960D02*
X17203396Y-10507912D01*
X17203396Y-10507912D02*
X17203396Y-10498389D01*
X17203396Y-10498389D02*
X17193873Y-10479341D01*
X17193873Y-10479341D02*
X17174825Y-10469817D01*
X17174825Y-10469817D02*
X17146253Y-10469817D01*
X17146253Y-10469817D02*
X17127206Y-10460293D01*
X17127206Y-10460293D02*
X17117682Y-10441246D01*
X17117682Y-10441246D02*
X17117682Y-10431722D01*
X17117682Y-10431722D02*
X17127206Y-10412674D01*
X17127206Y-10412674D02*
X17146253Y-10403150D01*
X17146253Y-10403150D02*
X17174825Y-10403150D01*
X17174825Y-10403150D02*
X17193873Y-10412674D01*
X17270063Y-10612674D02*
X17279587Y-10603150D01*
X17279587Y-10603150D02*
X17298634Y-10574579D01*
X17298634Y-10574579D02*
X17308158Y-10555531D01*
X17308158Y-10555531D02*
X17317682Y-10526960D01*
X17317682Y-10526960D02*
X17327206Y-10479341D01*
X17327206Y-10479341D02*
X17327206Y-10441246D01*
X17327206Y-10441246D02*
X17317682Y-10393627D01*
X17317682Y-10393627D02*
X17308158Y-10365055D01*
X17308158Y-10365055D02*
X17298634Y-10346008D01*
X17298634Y-10346008D02*
X17279587Y-10317436D01*
X17279587Y-10317436D02*
X17270063Y-10307912D01*
X17631968Y-10612674D02*
X17622444Y-10603150D01*
X17622444Y-10603150D02*
X17603396Y-10574579D01*
X17603396Y-10574579D02*
X17593873Y-10555531D01*
X17593873Y-10555531D02*
X17584349Y-10526960D01*
X17584349Y-10526960D02*
X17574825Y-10479341D01*
X17574825Y-10479341D02*
X17574825Y-10441246D01*
X17574825Y-10441246D02*
X17584349Y-10393627D01*
X17584349Y-10393627D02*
X17593873Y-10365055D01*
X17593873Y-10365055D02*
X17603396Y-10346008D01*
X17603396Y-10346008D02*
X17622444Y-10317436D01*
X17622444Y-10317436D02*
X17631968Y-10307912D01*
X17708158Y-10403150D02*
X17708158Y-10536484D01*
X17708158Y-10422198D02*
X17717682Y-10412674D01*
X17717682Y-10412674D02*
X17736730Y-10403150D01*
X17736730Y-10403150D02*
X17765301Y-10403150D01*
X17765301Y-10403150D02*
X17784349Y-10412674D01*
X17784349Y-10412674D02*
X17793873Y-10431722D01*
X17793873Y-10431722D02*
X17793873Y-10536484D01*
X17917682Y-10536484D02*
X17898634Y-10526960D01*
X17898634Y-10526960D02*
X17889111Y-10517436D01*
X17889111Y-10517436D02*
X17879587Y-10498389D01*
X17879587Y-10498389D02*
X17879587Y-10441246D01*
X17879587Y-10441246D02*
X17889111Y-10422198D01*
X17889111Y-10422198D02*
X17898634Y-10412674D01*
X17898634Y-10412674D02*
X17917682Y-10403150D01*
X17917682Y-10403150D02*
X17946254Y-10403150D01*
X17946254Y-10403150D02*
X17965301Y-10412674D01*
X17965301Y-10412674D02*
X17974825Y-10422198D01*
X17974825Y-10422198D02*
X17984349Y-10441246D01*
X17984349Y-10441246D02*
X17984349Y-10498389D01*
X17984349Y-10498389D02*
X17974825Y-10517436D01*
X17974825Y-10517436D02*
X17965301Y-10526960D01*
X17965301Y-10526960D02*
X17946254Y-10536484D01*
X17946254Y-10536484D02*
X17917682Y-10536484D01*
X18041492Y-10403150D02*
X18117682Y-10403150D01*
X18070063Y-10336484D02*
X18070063Y-10507912D01*
X18070063Y-10507912D02*
X18079587Y-10526960D01*
X18079587Y-10526960D02*
X18098634Y-10536484D01*
X18098634Y-10536484D02*
X18117682Y-10536484D01*
X18336730Y-10403150D02*
X18336730Y-10603150D01*
X18336730Y-10412674D02*
X18355777Y-10403150D01*
X18355777Y-10403150D02*
X18393873Y-10403150D01*
X18393873Y-10403150D02*
X18412920Y-10412674D01*
X18412920Y-10412674D02*
X18422444Y-10422198D01*
X18422444Y-10422198D02*
X18431968Y-10441246D01*
X18431968Y-10441246D02*
X18431968Y-10498389D01*
X18431968Y-10498389D02*
X18422444Y-10517436D01*
X18422444Y-10517436D02*
X18412920Y-10526960D01*
X18412920Y-10526960D02*
X18393873Y-10536484D01*
X18393873Y-10536484D02*
X18355777Y-10536484D01*
X18355777Y-10536484D02*
X18336730Y-10526960D01*
X18546254Y-10536484D02*
X18527206Y-10526960D01*
X18527206Y-10526960D02*
X18517682Y-10507912D01*
X18517682Y-10507912D02*
X18517682Y-10336484D01*
X18708158Y-10536484D02*
X18708158Y-10431722D01*
X18708158Y-10431722D02*
X18698635Y-10412674D01*
X18698635Y-10412674D02*
X18679587Y-10403150D01*
X18679587Y-10403150D02*
X18641492Y-10403150D01*
X18641492Y-10403150D02*
X18622444Y-10412674D01*
X18708158Y-10526960D02*
X18689111Y-10536484D01*
X18689111Y-10536484D02*
X18641492Y-10536484D01*
X18641492Y-10536484D02*
X18622444Y-10526960D01*
X18622444Y-10526960D02*
X18612920Y-10507912D01*
X18612920Y-10507912D02*
X18612920Y-10488865D01*
X18612920Y-10488865D02*
X18622444Y-10469817D01*
X18622444Y-10469817D02*
X18641492Y-10460293D01*
X18641492Y-10460293D02*
X18689111Y-10460293D01*
X18689111Y-10460293D02*
X18708158Y-10450770D01*
X18774825Y-10403150D02*
X18851015Y-10403150D01*
X18803396Y-10336484D02*
X18803396Y-10507912D01*
X18803396Y-10507912D02*
X18812920Y-10526960D01*
X18812920Y-10526960D02*
X18831968Y-10536484D01*
X18831968Y-10536484D02*
X18851015Y-10536484D01*
X18993873Y-10526960D02*
X18974825Y-10536484D01*
X18974825Y-10536484D02*
X18936730Y-10536484D01*
X18936730Y-10536484D02*
X18917682Y-10526960D01*
X18917682Y-10526960D02*
X18908158Y-10507912D01*
X18908158Y-10507912D02*
X18908158Y-10431722D01*
X18908158Y-10431722D02*
X18917682Y-10412674D01*
X18917682Y-10412674D02*
X18936730Y-10403150D01*
X18936730Y-10403150D02*
X18974825Y-10403150D01*
X18974825Y-10403150D02*
X18993873Y-10412674D01*
X18993873Y-10412674D02*
X19003396Y-10431722D01*
X19003396Y-10431722D02*
X19003396Y-10450770D01*
X19003396Y-10450770D02*
X18908158Y-10469817D01*
X19174825Y-10536484D02*
X19174825Y-10336484D01*
X19174825Y-10526960D02*
X19155777Y-10536484D01*
X19155777Y-10536484D02*
X19117682Y-10536484D01*
X19117682Y-10536484D02*
X19098635Y-10526960D01*
X19098635Y-10526960D02*
X19089111Y-10517436D01*
X19089111Y-10517436D02*
X19079587Y-10498389D01*
X19079587Y-10498389D02*
X19079587Y-10441246D01*
X19079587Y-10441246D02*
X19089111Y-10422198D01*
X19089111Y-10422198D02*
X19098635Y-10412674D01*
X19098635Y-10412674D02*
X19117682Y-10403150D01*
X19117682Y-10403150D02*
X19155777Y-10403150D01*
X19155777Y-10403150D02*
X19174825Y-10412674D01*
X19251016Y-10612674D02*
X19260539Y-10603150D01*
X19260539Y-10603150D02*
X19279587Y-10574579D01*
X19279587Y-10574579D02*
X19289111Y-10555531D01*
X19289111Y-10555531D02*
X19298635Y-10526960D01*
X19298635Y-10526960D02*
X19308158Y-10479341D01*
X19308158Y-10479341D02*
X19308158Y-10441246D01*
X19308158Y-10441246D02*
X19298635Y-10393627D01*
X19298635Y-10393627D02*
X19289111Y-10365055D01*
X19289111Y-10365055D02*
X19279587Y-10346008D01*
X19279587Y-10346008D02*
X19260539Y-10317436D01*
X19260539Y-10317436D02*
X19251016Y-10307912D01*
M02*
