G04 #@! TF.GenerationSoftware,KiCad,Pcbnew,9.0.0*
G04 #@! TF.CreationDate,2025-03-18T22:32:33-07:00*
G04 #@! TF.ProjectId,steering wheel v4,73746565-7269-46e6-9720-776865656c20,B*
G04 #@! TF.SameCoordinates,Original*
G04 #@! TF.FileFunction,Copper,L3,Inr*
G04 #@! TF.FilePolarity,Positive*
%FSLAX46Y46*%
G04 Gerber Fmt 4.6, Leading zero omitted, Abs format (unit mm)*
G04 Created by KiCad (PCBNEW 9.0.0) date 2025-03-18 22:32:33*
%MOMM*%
%LPD*%
G01*
G04 APERTURE LIST*
G04 Aperture macros list*
%AMRoundRect*
0 Rectangle with rounded corners*
0 $1 Rounding radius*
0 $2 $3 $4 $5 $6 $7 $8 $9 X,Y pos of 4 corners*
0 Add a 4 corners polygon primitive as box body*
4,1,4,$2,$3,$4,$5,$6,$7,$8,$9,$2,$3,0*
0 Add four circle primitives for the rounded corners*
1,1,$1+$1,$2,$3*
1,1,$1+$1,$4,$5*
1,1,$1+$1,$6,$7*
1,1,$1+$1,$8,$9*
0 Add four rect primitives between the rounded corners*
20,1,$1+$1,$2,$3,$4,$5,0*
20,1,$1+$1,$4,$5,$6,$7,0*
20,1,$1+$1,$6,$7,$8,$9,0*
20,1,$1+$1,$8,$9,$2,$3,0*%
G04 Aperture macros list end*
G04 #@! TA.AperFunction,ComponentPad*
%ADD10R,1.700000X1.700000*%
G04 #@! TD*
G04 #@! TA.AperFunction,ComponentPad*
%ADD11O,1.700000X1.700000*%
G04 #@! TD*
G04 #@! TA.AperFunction,HeatsinkPad*
%ADD12O,1.200000X1.900000*%
G04 #@! TD*
G04 #@! TA.AperFunction,HeatsinkPad*
%ADD13C,1.450000*%
G04 #@! TD*
G04 #@! TA.AperFunction,ComponentPad*
%ADD14C,1.100000*%
G04 #@! TD*
G04 #@! TA.AperFunction,ComponentPad*
%ADD15R,0.800000X3.000000*%
G04 #@! TD*
G04 #@! TA.AperFunction,ComponentPad*
%ADD16RoundRect,0.250000X-0.600000X-0.725000X0.600000X-0.725000X0.600000X0.725000X-0.600000X0.725000X0*%
G04 #@! TD*
G04 #@! TA.AperFunction,ComponentPad*
%ADD17O,1.700000X1.950000*%
G04 #@! TD*
G04 #@! TA.AperFunction,ComponentPad*
%ADD18RoundRect,0.250000X-0.750000X0.600000X-0.750000X-0.600000X0.750000X-0.600000X0.750000X0.600000X0*%
G04 #@! TD*
G04 #@! TA.AperFunction,ComponentPad*
%ADD19O,2.000000X1.700000*%
G04 #@! TD*
G04 #@! TA.AperFunction,ComponentPad*
%ADD20RoundRect,0.250000X0.750000X-0.600000X0.750000X0.600000X-0.750000X0.600000X-0.750000X-0.600000X0*%
G04 #@! TD*
G04 #@! TA.AperFunction,ViaPad*
%ADD21C,0.700000*%
G04 #@! TD*
G04 APERTURE END LIST*
D10*
X197062500Y-128467058D03*
D11*
X197062500Y-125927058D03*
D12*
X174200000Y-150402500D03*
D13*
X175200000Y-147702500D03*
X180200000Y-147702500D03*
D12*
X181200000Y-150402500D03*
D10*
X153700000Y-61900000D03*
D11*
X153700000Y-64440000D03*
D14*
X192721122Y-82837913D03*
X192721122Y-84837913D03*
X192721122Y-86837913D03*
D15*
X211459122Y-32095413D03*
X206739122Y-32095413D03*
D16*
X146721122Y-56937913D03*
D17*
X149221122Y-56937913D03*
X151721122Y-56937913D03*
X154221122Y-56937913D03*
D18*
X108721122Y-34987913D03*
D19*
X108721122Y-37487913D03*
D15*
X97195627Y-32112913D03*
X92475627Y-32112913D03*
D14*
X111156122Y-86752913D03*
X111156122Y-84752913D03*
X111156122Y-82752913D03*
D20*
X189921122Y-37487913D03*
D19*
X189921122Y-34987913D03*
D21*
X191000000Y-70500000D03*
X179500000Y-101500000D03*
X143000000Y-90500000D03*
X184250000Y-111500000D03*
X179100000Y-144000000D03*
X191250000Y-132500000D03*
X137600000Y-73800000D03*
X142200000Y-73000000D03*
X151500000Y-82500000D03*
X185750000Y-126750000D03*
X167750000Y-115000000D03*
X154650000Y-83200000D03*
X173040000Y-105500000D03*
X164000000Y-106000000D03*
X141500000Y-84000000D03*
X148200000Y-82200000D03*
X155000000Y-131000000D03*
X147400000Y-83400000D03*
X184000000Y-105500000D03*
X185000000Y-103000000D03*
X143000000Y-84500000D03*
X196500000Y-32500000D03*
X150000000Y-131000000D03*
X108496122Y-134500000D03*
X143000000Y-82500000D03*
X166500000Y-101500000D03*
X169500000Y-120000000D03*
X155000000Y-84000000D03*
X145621122Y-59512913D03*
X148200000Y-84800000D03*
X175500000Y-102775000D03*
X153000000Y-36000000D03*
X193583622Y-121089971D03*
X147400000Y-82200000D03*
X196500000Y-38000000D03*
X192500000Y-106000000D03*
X147400000Y-84800000D03*
X148200000Y-83400000D03*
X196000000Y-132500000D03*
X141500000Y-83000000D03*
X183500000Y-109000000D03*
X192500000Y-116750000D03*
X182750000Y-120500000D03*
X101500000Y-35675000D03*
X152025000Y-66825000D03*
X145921122Y-68912913D03*
X116000000Y-131500000D03*
X157084220Y-97415780D03*
X152000000Y-81500000D03*
X157000000Y-87000000D03*
X187000000Y-117000000D03*
X183850000Y-120650000D03*
X100500000Y-51500000D03*
X222500000Y-35000000D03*
X106500000Y-34000000D03*
X88912500Y-28587500D03*
X177000000Y-139400000D03*
X152000000Y-85500000D03*
X100000000Y-140500000D03*
X203000000Y-68500000D03*
X98000000Y-29000000D03*
X201500000Y-148500000D03*
X113000000Y-134500000D03*
X154500000Y-134500000D03*
X162500000Y-109500000D03*
X166500000Y-118000000D03*
X114000000Y-80500000D03*
X142925000Y-74750000D03*
X212000000Y-34500000D03*
X174000000Y-141000000D03*
X197000000Y-134500000D03*
X181500000Y-112500000D03*
X172000000Y-101000000D03*
X159500000Y-96500000D03*
X172500000Y-116000000D03*
X179000000Y-117000000D03*
X164500000Y-96500000D03*
X176500000Y-117000000D03*
X163000000Y-96500000D03*
X166000000Y-126500000D03*
X187000000Y-113000000D03*
X192000000Y-129389000D03*
X187000000Y-112000000D03*
X164000000Y-108500000D03*
X154000000Y-81000000D03*
X164000000Y-109500000D03*
X150186122Y-80500000D03*
X176375000Y-145346043D03*
X141125000Y-76450000D03*
X175900000Y-138100000D03*
X167400000Y-118400000D03*
X169200000Y-116600000D03*
X121000000Y-85500000D03*
X167500000Y-90500000D03*
X149500000Y-92000000D03*
X179651000Y-103500000D03*
G04 #@! TA.AperFunction,Conductor*
G36*
X229979675Y-26102365D02*
G01*
X232465341Y-27472904D01*
X232467588Y-27474175D01*
X232468011Y-27474420D01*
X232471723Y-27478323D01*
X232479325Y-27481892D01*
X232479387Y-27481938D01*
X232477534Y-27484435D01*
X232491204Y-27498811D01*
X232514932Y-27522730D01*
X232515288Y-27524140D01*
X232516157Y-27525053D01*
X232518128Y-27535359D01*
X232525922Y-27566151D01*
X232528764Y-27565771D01*
X232528777Y-27565868D01*
X232529824Y-27581569D01*
X232529863Y-27581721D01*
X232529863Y-27582144D01*
X232529876Y-27582339D01*
X232529876Y-31903623D01*
X232529873Y-31911700D01*
X232529872Y-31911708D01*
X232529872Y-31917900D01*
X232529872Y-31918988D01*
X232519942Y-31952773D01*
X232510187Y-31985995D01*
X232510173Y-31986009D01*
X232510170Y-31986023D01*
X232510136Y-31986052D01*
X232484887Y-32014521D01*
X232473751Y-32023728D01*
X232473624Y-32023845D01*
X227704478Y-35967563D01*
X227704474Y-35967567D01*
X227684636Y-35983972D01*
X227620429Y-36011525D01*
X227605614Y-36012413D01*
X217712010Y-36012413D01*
X217711982Y-36012411D01*
X217688840Y-36012411D01*
X217688788Y-36012396D01*
X217558727Y-36012400D01*
X217403178Y-36037042D01*
X217253401Y-36085714D01*
X217113087Y-36157215D01*
X216985683Y-36249788D01*
X216959746Y-36275728D01*
X216930007Y-36305469D01*
X216915769Y-36319708D01*
X216915766Y-36319711D01*
X207375476Y-45860016D01*
X207375399Y-45860084D01*
X207287219Y-45948251D01*
X207287131Y-45948355D01*
X207267777Y-45967706D01*
X207267773Y-45967711D01*
X207175196Y-46095114D01*
X207103689Y-46235441D01*
X207103689Y-46235442D01*
X207055017Y-46385226D01*
X207055016Y-46385232D01*
X207030380Y-46540778D01*
X207030380Y-46540782D01*
X207030380Y-46540783D01*
X207030381Y-46619430D01*
X207030381Y-66146504D01*
X207030380Y-66146508D01*
X207030380Y-66162585D01*
X207030380Y-66162594D01*
X207016787Y-66208882D01*
X207010695Y-66229628D01*
X207010694Y-66229629D01*
X207010693Y-66229633D01*
X207010686Y-66229638D01*
X206996171Y-66248109D01*
X206983235Y-66261691D01*
X206983234Y-66261690D01*
X206983212Y-66261715D01*
X196490245Y-77278305D01*
X196490227Y-77278325D01*
X196484946Y-77283866D01*
X196484903Y-77283894D01*
X196465268Y-77304517D01*
X196464403Y-77305426D01*
X196464401Y-77305426D01*
X196464365Y-77305466D01*
X196387035Y-77386547D01*
X196387032Y-77386550D01*
X196387031Y-77386552D01*
X196300099Y-77511103D01*
X196234760Y-77643689D01*
X196232957Y-77647348D01*
X196187146Y-77792158D01*
X196187146Y-77792161D01*
X196163711Y-77942231D01*
X196163521Y-78017294D01*
X196163518Y-78018175D01*
X196163518Y-78018176D01*
X196163265Y-78091728D01*
X196163269Y-78091810D01*
X196105510Y-95248346D01*
X196105510Y-95248455D01*
X196105236Y-95313060D01*
X196105236Y-95313063D01*
X196127675Y-95463379D01*
X196172562Y-95608587D01*
X196238863Y-95745343D01*
X196238869Y-95745353D01*
X196325059Y-95870519D01*
X196325064Y-95870525D01*
X196377964Y-95926692D01*
X196378033Y-95926766D01*
X199204225Y-98932397D01*
X199204260Y-98932434D01*
X199209916Y-98938454D01*
X199209936Y-98938491D01*
X199221222Y-98950488D01*
X199221240Y-98950507D01*
X199237027Y-98981692D01*
X199252783Y-99012765D01*
X199252788Y-99012825D01*
X199252798Y-99012844D01*
X199252793Y-99012883D01*
X199254869Y-99035428D01*
X199254866Y-99060072D01*
X199254876Y-99060221D01*
X199254876Y-133400622D01*
X199254874Y-133400630D01*
X199254876Y-133466189D01*
X199254876Y-133470458D01*
X199254794Y-133548368D01*
X199254794Y-133548371D01*
X199281393Y-133709859D01*
X199281395Y-133709866D01*
X199281395Y-133709867D01*
X199281396Y-133709870D01*
X199325243Y-133839374D01*
X199333888Y-133864908D01*
X199410876Y-134009357D01*
X199510302Y-134139361D01*
X199510316Y-134139377D01*
X199629547Y-134251497D01*
X199629551Y-134251500D01*
X199629555Y-134251504D01*
X199629557Y-134251505D01*
X199629564Y-134251511D01*
X199765421Y-134342761D01*
X199765429Y-134342765D01*
X199765433Y-134342768D01*
X199839410Y-134376441D01*
X199852860Y-134382580D01*
X199893074Y-134400938D01*
X199908425Y-134407946D01*
X199908456Y-134407956D01*
X219557366Y-143376539D01*
X219610178Y-143422284D01*
X219629876Y-143489319D01*
X219629876Y-149801358D01*
X219629869Y-149808623D01*
X219628576Y-149813009D01*
X219628884Y-149816895D01*
X219628877Y-149816950D01*
X219627468Y-149816770D01*
X219619909Y-149842423D01*
X219610184Y-149875543D01*
X219610135Y-149875592D01*
X219610120Y-149875644D01*
X219609885Y-149875846D01*
X219574749Y-149911613D01*
X217258167Y-151459157D01*
X217258061Y-151459219D01*
X217229058Y-151478598D01*
X217162380Y-151499474D01*
X217160156Y-151499494D01*
X217124163Y-151499490D01*
X217124009Y-151499500D01*
X182256854Y-151499500D01*
X182189815Y-151479815D01*
X182144060Y-151427011D01*
X182134116Y-151357853D01*
X182146368Y-151319207D01*
X182219873Y-151174945D01*
X182273402Y-151010201D01*
X182300500Y-150839111D01*
X182300500Y-149965889D01*
X182273402Y-149794799D01*
X182219873Y-149630055D01*
X182141232Y-149475712D01*
X182039414Y-149335572D01*
X181916928Y-149213086D01*
X181776788Y-149111268D01*
X181622445Y-149032627D01*
X181457701Y-148979098D01*
X181457699Y-148979097D01*
X181457698Y-148979097D01*
X181326271Y-148958281D01*
X181286611Y-148952000D01*
X181113389Y-148952000D01*
X181081192Y-148957099D01*
X180942301Y-148979097D01*
X180942299Y-148979097D01*
X180927207Y-148984001D01*
X180857366Y-148985993D01*
X180797535Y-148949909D01*
X180766710Y-148887207D01*
X180774678Y-148817793D01*
X180818909Y-148763706D01*
X180832591Y-148755588D01*
X180842302Y-148750641D01*
X180998359Y-148637259D01*
X181134759Y-148500859D01*
X181248141Y-148344802D01*
X181335715Y-148172929D01*
X181395324Y-147989472D01*
X181425500Y-147798949D01*
X181425500Y-147606051D01*
X181395324Y-147415528D01*
X181335715Y-147232071D01*
X181248141Y-147060198D01*
X181134759Y-146904141D01*
X180998359Y-146767741D01*
X180842302Y-146654359D01*
X180670429Y-146566785D01*
X180486972Y-146507176D01*
X180486970Y-146507175D01*
X180486969Y-146507175D01*
X180340614Y-146483995D01*
X180296449Y-146477000D01*
X180103551Y-146477000D01*
X180067697Y-146482678D01*
X179913030Y-146507175D01*
X179729568Y-146566786D01*
X179557697Y-146654359D01*
X179468661Y-146719047D01*
X179401641Y-146767741D01*
X179401639Y-146767743D01*
X179401638Y-146767743D01*
X179265243Y-146904138D01*
X179265243Y-146904139D01*
X179265241Y-146904141D01*
X179216547Y-146971161D01*
X179151859Y-147060197D01*
X179064286Y-147232068D01*
X179004675Y-147415530D01*
X178974500Y-147606051D01*
X178974500Y-147798948D01*
X179004675Y-147989469D01*
X179004676Y-147989472D01*
X179064285Y-148172929D01*
X179151859Y-148344802D01*
X179265241Y-148500859D01*
X179401641Y-148637259D01*
X179557698Y-148750641D01*
X179729571Y-148838215D01*
X179913028Y-148897824D01*
X180103551Y-148928000D01*
X180103552Y-148928000D01*
X180296448Y-148928000D01*
X180296449Y-148928000D01*
X180486972Y-148897824D01*
X180522020Y-148886435D01*
X180591858Y-148884440D01*
X180651691Y-148920520D01*
X180682520Y-148983221D01*
X180674556Y-149052635D01*
X180630328Y-149106725D01*
X180625132Y-149110090D01*
X180623223Y-149111259D01*
X180564666Y-149153804D01*
X180483072Y-149213086D01*
X180483070Y-149213088D01*
X180483069Y-149213088D01*
X180360588Y-149335569D01*
X180360588Y-149335570D01*
X180360586Y-149335572D01*
X180335408Y-149370227D01*
X180258768Y-149475711D01*
X180180128Y-149630052D01*
X180126597Y-149794802D01*
X180099500Y-149965889D01*
X180099500Y-150839110D01*
X180113535Y-150927728D01*
X180126598Y-151010201D01*
X180180127Y-151174945D01*
X180253631Y-151319206D01*
X180266527Y-151387874D01*
X180240251Y-151452615D01*
X180183144Y-151492872D01*
X180143146Y-151499500D01*
X175256854Y-151499500D01*
X175189815Y-151479815D01*
X175144060Y-151427011D01*
X175134116Y-151357853D01*
X175146368Y-151319207D01*
X175219873Y-151174945D01*
X175273402Y-151010201D01*
X175300500Y-150839111D01*
X175300500Y-149965889D01*
X175273402Y-149794799D01*
X175219873Y-149630055D01*
X175141232Y-149475712D01*
X175039414Y-149335572D01*
X174916928Y-149213086D01*
X174800926Y-149128805D01*
X174776786Y-149111266D01*
X174774874Y-149110095D01*
X174774299Y-149109460D01*
X174772846Y-149108404D01*
X174773067Y-149108098D01*
X174727998Y-149058284D01*
X174716575Y-148989354D01*
X174744231Y-148925191D01*
X174802187Y-148886166D01*
X174872040Y-148884669D01*
X174877952Y-148886427D01*
X174913028Y-148897824D01*
X175103551Y-148928000D01*
X175103552Y-148928000D01*
X175296448Y-148928000D01*
X175296449Y-148928000D01*
X175486972Y-148897824D01*
X175670429Y-148838215D01*
X175842302Y-148750641D01*
X175998359Y-148637259D01*
X176134759Y-148500859D01*
X176248141Y-148344802D01*
X176335715Y-148172929D01*
X176395324Y-147989472D01*
X176425500Y-147798949D01*
X176425500Y-147606051D01*
X176395324Y-147415528D01*
X176335715Y-147232071D01*
X176248141Y-147060198D01*
X176134759Y-146904141D01*
X175998359Y-146767741D01*
X175842302Y-146654359D01*
X175670429Y-146566785D01*
X175486972Y-146507176D01*
X175486970Y-146507175D01*
X175486969Y-146507175D01*
X175340614Y-146483995D01*
X175296449Y-146477000D01*
X175103551Y-146477000D01*
X175067697Y-146482678D01*
X174913030Y-146507175D01*
X174729568Y-146566786D01*
X174557697Y-146654359D01*
X174468661Y-146719047D01*
X174401641Y-146767741D01*
X174401639Y-146767743D01*
X174401638Y-146767743D01*
X174265243Y-146904138D01*
X174265243Y-146904139D01*
X174265241Y-146904141D01*
X174216547Y-146971161D01*
X174151859Y-147060197D01*
X174064286Y-147232068D01*
X174004675Y-147415530D01*
X173974500Y-147606051D01*
X173974500Y-147798948D01*
X174004675Y-147989469D01*
X174004676Y-147989472D01*
X174064285Y-148172929D01*
X174151859Y-148344802D01*
X174265241Y-148500859D01*
X174401641Y-148637259D01*
X174557698Y-148750641D01*
X174567394Y-148755581D01*
X174618192Y-148803553D01*
X174634990Y-148871373D01*
X174612456Y-148937509D01*
X174557742Y-148980963D01*
X174488222Y-148987938D01*
X174472790Y-148984000D01*
X174457703Y-148979098D01*
X174457698Y-148979097D01*
X174326271Y-148958281D01*
X174286611Y-148952000D01*
X174113389Y-148952000D01*
X174073728Y-148958281D01*
X173942302Y-148979097D01*
X173777552Y-149032628D01*
X173623211Y-149111268D01*
X173599074Y-149128805D01*
X173483072Y-149213086D01*
X173483070Y-149213088D01*
X173483069Y-149213088D01*
X173360588Y-149335569D01*
X173360588Y-149335570D01*
X173360586Y-149335572D01*
X173335408Y-149370227D01*
X173258768Y-149475711D01*
X173180128Y-149630052D01*
X173126597Y-149794802D01*
X173099500Y-149965889D01*
X173099500Y-150839110D01*
X173113535Y-150927728D01*
X173126598Y-151010201D01*
X173180127Y-151174945D01*
X173253631Y-151319206D01*
X173266527Y-151387874D01*
X173240251Y-151452615D01*
X173183144Y-151492872D01*
X173143146Y-151499500D01*
X86741332Y-151499500D01*
X86723200Y-151494175D01*
X86704301Y-151493842D01*
X86676056Y-151480332D01*
X86674293Y-151479815D01*
X86672460Y-151478615D01*
X86672447Y-151478606D01*
X86649079Y-151462994D01*
X86649065Y-151462989D01*
X86645462Y-151460583D01*
X86642156Y-151458374D01*
X86642155Y-151458373D01*
X86642150Y-151458370D01*
X84326748Y-149911613D01*
X84281937Y-149858006D01*
X84273370Y-149816855D01*
X84272621Y-149816951D01*
X84272614Y-149816896D01*
X84272279Y-149811616D01*
X84271628Y-149808487D01*
X84271628Y-149801350D01*
X84271622Y-149801240D01*
X84271622Y-147366624D01*
X86570622Y-147366624D01*
X86570622Y-147609201D01*
X86602283Y-147849698D01*
X86665069Y-148084017D01*
X86757895Y-148308118D01*
X86757899Y-148308127D01*
X86767117Y-148324093D01*
X86879186Y-148518202D01*
X86879188Y-148518205D01*
X86879189Y-148518206D01*
X87026855Y-148710649D01*
X87026861Y-148710656D01*
X87198378Y-148882173D01*
X87198385Y-148882179D01*
X87270493Y-148937509D01*
X87390833Y-149029849D01*
X87600910Y-149151137D01*
X87825022Y-149243967D01*
X88059333Y-149306751D01*
X88239708Y-149330497D01*
X88299833Y-149338413D01*
X88299834Y-149338413D01*
X88542411Y-149338413D01*
X88597966Y-149331099D01*
X88782911Y-149306751D01*
X89017222Y-149243967D01*
X89241334Y-149151137D01*
X89451411Y-149029849D01*
X89643860Y-148882178D01*
X89815387Y-148710651D01*
X89963058Y-148518202D01*
X90084346Y-148308125D01*
X90177176Y-148084013D01*
X90239960Y-147849702D01*
X90271622Y-147609201D01*
X90271622Y-147366625D01*
X90239960Y-147126124D01*
X90177176Y-146891813D01*
X90084346Y-146667701D01*
X89963058Y-146457624D01*
X89815387Y-146265175D01*
X89815382Y-146265169D01*
X89643865Y-146093652D01*
X89643858Y-146093646D01*
X89451415Y-145945980D01*
X89451414Y-145945979D01*
X89451411Y-145945977D01*
X89241334Y-145824689D01*
X89161076Y-145791445D01*
X89017226Y-145731860D01*
X88782907Y-145669074D01*
X88542411Y-145637413D01*
X88542410Y-145637413D01*
X88299834Y-145637413D01*
X88299833Y-145637413D01*
X88059336Y-145669074D01*
X87825017Y-145731860D01*
X87600916Y-145824686D01*
X87600907Y-145824690D01*
X87390828Y-145945980D01*
X87198385Y-146093646D01*
X87198378Y-146093652D01*
X87026861Y-146265169D01*
X87026855Y-146265176D01*
X86879189Y-146457619D01*
X86757899Y-146667698D01*
X86757895Y-146667707D01*
X86665069Y-146891808D01*
X86602283Y-147126127D01*
X86570622Y-147366624D01*
X84271622Y-147366624D01*
X84271622Y-143489343D01*
X84291307Y-143422304D01*
X84344111Y-143376549D01*
X84344123Y-143376542D01*
X94541528Y-138722021D01*
X105745622Y-138722021D01*
X105745622Y-149203805D01*
X105756383Y-149243965D01*
X105779730Y-149331100D01*
X105802322Y-149370229D01*
X105845622Y-149445227D01*
X105938808Y-149538413D01*
X106052936Y-149604305D01*
X106180230Y-149638413D01*
X106180232Y-149638413D01*
X115012012Y-149638413D01*
X115012014Y-149638413D01*
X115139308Y-149604305D01*
X115253436Y-149538413D01*
X115346622Y-149445227D01*
X115412514Y-149331099D01*
X115446622Y-149203805D01*
X115446622Y-144466471D01*
X129684285Y-144466471D01*
X129684285Y-144853528D01*
X129707978Y-145097968D01*
X129721627Y-145238776D01*
X129795962Y-145618625D01*
X129795963Y-145618631D01*
X129795964Y-145618632D01*
X129795966Y-145618642D01*
X129906595Y-145989523D01*
X129951454Y-146099746D01*
X130018777Y-146265169D01*
X130052502Y-146348034D01*
X130052506Y-146348043D01*
X130232310Y-146690783D01*
X130232311Y-146690786D01*
X130350540Y-146871333D01*
X130444350Y-147014591D01*
X130686640Y-147316430D01*
X130686647Y-147316437D01*
X130686651Y-147316442D01*
X130956914Y-147593479D01*
X130956920Y-147593485D01*
X131252669Y-147843172D01*
X131365988Y-147921452D01*
X131571126Y-148063162D01*
X131665245Y-148115547D01*
X131909324Y-148251401D01*
X132037160Y-148307152D01*
X132046751Y-148314093D01*
X132097429Y-148333437D01*
X132147113Y-148355107D01*
X132147122Y-148355108D01*
X132154087Y-148357114D01*
X132171319Y-148361642D01*
X137714557Y-150477610D01*
X139417931Y-151127823D01*
X139510929Y-151163322D01*
X139533335Y-151176276D01*
X139572233Y-151186723D01*
X139578161Y-151188986D01*
X139594377Y-151195176D01*
X139609870Y-151201090D01*
X139635615Y-151203747D01*
X139660608Y-151210460D01*
X139700886Y-151210484D01*
X139740958Y-151214620D01*
X139756724Y-151212092D01*
X139776412Y-151210528D01*
X143353504Y-151212673D01*
X143353508Y-151212674D01*
X143419400Y-151212713D01*
X143419400Y-151212712D01*
X143485292Y-151212752D01*
X143485295Y-151212751D01*
X143493765Y-151212756D01*
X143493977Y-151212742D01*
X143506964Y-151212750D01*
X143679448Y-151182432D01*
X143844044Y-151122612D01*
X143995745Y-151035109D01*
X144129941Y-150922585D01*
X144242549Y-150788460D01*
X144330146Y-150636814D01*
X144388117Y-150477616D01*
X144390067Y-150472262D01*
X144390069Y-150472254D01*
X144420495Y-150299790D01*
X144420495Y-150291592D01*
X144420496Y-150278119D01*
X144420500Y-150278105D01*
X144420500Y-150209461D01*
X144420502Y-150146334D01*
X144420500Y-150146329D01*
X144420501Y-150138750D01*
X144420500Y-150138716D01*
X144420500Y-139037839D01*
X144420489Y-139037702D01*
X144420491Y-139024727D01*
X144390351Y-138853703D01*
X144390120Y-138852389D01*
X144390116Y-138852374D01*
X144332203Y-138693186D01*
X144330291Y-138687930D01*
X144306684Y-138647021D01*
X147095622Y-138647021D01*
X147095622Y-149128805D01*
X147102321Y-149153805D01*
X147129730Y-149256100D01*
X147144164Y-149281100D01*
X147195622Y-149370227D01*
X147288808Y-149463413D01*
X147402936Y-149529305D01*
X147530230Y-149563413D01*
X147530232Y-149563413D01*
X156362012Y-149563413D01*
X156362014Y-149563413D01*
X156489308Y-149529305D01*
X156603436Y-149463413D01*
X156696622Y-149370227D01*
X156762514Y-149256099D01*
X156796622Y-149128805D01*
X156796622Y-139192289D01*
X159409498Y-139192289D01*
X159409500Y-139192318D01*
X159409500Y-150291592D01*
X159409509Y-150291741D01*
X159409509Y-150305269D01*
X159409510Y-150305284D01*
X159439879Y-150477610D01*
X159439883Y-150477625D01*
X159497795Y-150636810D01*
X159499709Y-150642070D01*
X159587176Y-150793642D01*
X159587179Y-150793647D01*
X159699620Y-150927727D01*
X159699621Y-150927728D01*
X159833639Y-151040261D01*
X159833643Y-151040264D01*
X159976144Y-151122615D01*
X159985160Y-151127825D01*
X160149577Y-151187756D01*
X160321900Y-151218236D01*
X160409400Y-151218286D01*
X160475292Y-151218326D01*
X160475294Y-151218324D01*
X160490512Y-151218333D01*
X164053344Y-151220469D01*
X164072899Y-151222033D01*
X164075384Y-151222431D01*
X164089042Y-151224621D01*
X164089042Y-151224620D01*
X164089043Y-151224621D01*
X164114114Y-151222033D01*
X164128820Y-151220515D01*
X164168792Y-151220539D01*
X164194084Y-151213778D01*
X164220130Y-151211090D01*
X164251488Y-151199119D01*
X164263677Y-151195176D01*
X164296107Y-151186508D01*
X164310274Y-151178339D01*
X164327976Y-151169922D01*
X171671189Y-148366868D01*
X171682887Y-148365107D01*
X171732570Y-148343437D01*
X171783249Y-148324093D01*
X171783251Y-148324091D01*
X171789579Y-148320671D01*
X171805112Y-148311799D01*
X171920676Y-148261401D01*
X172258873Y-148073162D01*
X172577331Y-147853172D01*
X172873080Y-147603485D01*
X173143360Y-147326430D01*
X173385650Y-147024591D01*
X173597689Y-146700785D01*
X173777499Y-146358032D01*
X173923402Y-145999530D01*
X174034038Y-145628625D01*
X174105732Y-145262271D01*
X175524500Y-145262271D01*
X175524500Y-145429814D01*
X175557182Y-145594117D01*
X175557184Y-145594125D01*
X175621295Y-145748903D01*
X175714373Y-145888205D01*
X175832837Y-146006669D01*
X175925494Y-146068580D01*
X175972137Y-146099746D01*
X176126918Y-146163859D01*
X176291228Y-146196542D01*
X176291232Y-146196543D01*
X176291233Y-146196543D01*
X176458768Y-146196543D01*
X176458769Y-146196542D01*
X176623082Y-146163859D01*
X176777863Y-146099746D01*
X176917162Y-146006669D01*
X177035626Y-145888205D01*
X177128703Y-145748906D01*
X177192816Y-145594125D01*
X177225500Y-145429810D01*
X177225500Y-145262276D01*
X177192816Y-145097961D01*
X177128703Y-144943180D01*
X177075482Y-144863529D01*
X177035626Y-144803880D01*
X176917162Y-144685416D01*
X176777860Y-144592338D01*
X176623082Y-144528227D01*
X176623074Y-144528225D01*
X176458771Y-144495543D01*
X176458767Y-144495543D01*
X176291233Y-144495543D01*
X176291228Y-144495543D01*
X176126925Y-144528225D01*
X176126917Y-144528227D01*
X175972139Y-144592338D01*
X175832837Y-144685416D01*
X175714373Y-144803880D01*
X175621295Y-144943182D01*
X175557184Y-145097960D01*
X175557182Y-145097968D01*
X175524500Y-145262271D01*
X174105732Y-145262271D01*
X174108373Y-145248776D01*
X174108407Y-145248420D01*
X174108816Y-145244214D01*
X174137994Y-144943180D01*
X174145715Y-144863527D01*
X174145715Y-144476473D01*
X174108373Y-144091224D01*
X174074127Y-143916228D01*
X178249500Y-143916228D01*
X178249500Y-144083771D01*
X178282182Y-144248074D01*
X178282184Y-144248082D01*
X178346295Y-144402860D01*
X178439373Y-144542162D01*
X178557837Y-144660626D01*
X178594940Y-144685417D01*
X178697137Y-144753703D01*
X178851918Y-144817816D01*
X179016228Y-144850499D01*
X179016232Y-144850500D01*
X179016233Y-144850500D01*
X179183768Y-144850500D01*
X179183769Y-144850499D01*
X179348082Y-144817816D01*
X179502863Y-144753703D01*
X179642162Y-144660626D01*
X179760626Y-144542162D01*
X179853703Y-144402863D01*
X179917816Y-144248082D01*
X179950500Y-144083767D01*
X179950500Y-143916233D01*
X179917816Y-143751918D01*
X179853703Y-143597137D01*
X179781661Y-143489319D01*
X179760626Y-143457837D01*
X179642162Y-143339373D01*
X179502860Y-143246295D01*
X179348082Y-143182184D01*
X179348074Y-143182182D01*
X179183771Y-143149500D01*
X179183767Y-143149500D01*
X179016233Y-143149500D01*
X179016228Y-143149500D01*
X178851925Y-143182182D01*
X178851917Y-143182184D01*
X178697139Y-143246295D01*
X178557837Y-143339373D01*
X178439373Y-143457837D01*
X178346295Y-143597139D01*
X178282184Y-143751917D01*
X178282182Y-143751925D01*
X178249500Y-143916228D01*
X174074127Y-143916228D01*
X174034038Y-143711375D01*
X173999962Y-143597137D01*
X173923404Y-143340476D01*
X173922956Y-143339374D01*
X173777499Y-142981968D01*
X173772251Y-142971965D01*
X173622132Y-142685808D01*
X173597689Y-142639215D01*
X173591141Y-142629216D01*
X173472912Y-142448667D01*
X173385650Y-142315409D01*
X173143360Y-142013570D01*
X173143351Y-142013561D01*
X173143348Y-142013557D01*
X172873085Y-141736520D01*
X172873084Y-141736519D01*
X172873080Y-141736515D01*
X172577331Y-141486828D01*
X172555830Y-141471975D01*
X172258873Y-141266837D01*
X171920682Y-141078602D01*
X171920678Y-141078600D01*
X171920676Y-141078599D01*
X171866287Y-141054879D01*
X171805114Y-141028200D01*
X171805113Y-141028200D01*
X171792838Y-141022846D01*
X171783249Y-141015907D01*
X171732570Y-140996562D01*
X171729916Y-140995404D01*
X171729915Y-140995403D01*
X171682890Y-140974894D01*
X171675974Y-140972902D01*
X171658680Y-140968356D01*
X164328332Y-138170212D01*
X164328332Y-138170211D01*
X164319064Y-138166673D01*
X164296666Y-138153724D01*
X164257765Y-138143276D01*
X164251837Y-138141013D01*
X164251831Y-138141011D01*
X164224666Y-138130641D01*
X164224663Y-138130640D01*
X164220130Y-138128910D01*
X164201016Y-138126936D01*
X164197787Y-138126431D01*
X164196555Y-138125849D01*
X164184816Y-138123682D01*
X164169395Y-138119540D01*
X164169388Y-138119539D01*
X164135459Y-138119518D01*
X164122813Y-138118863D01*
X164089045Y-138115378D01*
X164089040Y-138115379D01*
X164073268Y-138117907D01*
X164053571Y-138119470D01*
X160644917Y-138117426D01*
X160476495Y-138117326D01*
X160476492Y-138117326D01*
X160476490Y-138117325D01*
X160410600Y-138117287D01*
X160410490Y-138117286D01*
X160336939Y-138117243D01*
X160336709Y-138117257D01*
X160323038Y-138117249D01*
X160150549Y-138147568D01*
X159985963Y-138207384D01*
X159985954Y-138207389D01*
X159834253Y-138294891D01*
X159834253Y-138294892D01*
X159700060Y-138407413D01*
X159700052Y-138407421D01*
X159587453Y-138541536D01*
X159499854Y-138693185D01*
X159499852Y-138693189D01*
X159439932Y-138857737D01*
X159439930Y-138857745D01*
X159409506Y-139030201D01*
X159409505Y-139030210D01*
X159409503Y-139045751D01*
X159409503Y-139051880D01*
X159409500Y-139051895D01*
X159409500Y-139110460D01*
X159409500Y-139117765D01*
X159409500Y-139117773D01*
X159409498Y-139192289D01*
X156796622Y-139192289D01*
X156796622Y-138647021D01*
X156762514Y-138519727D01*
X156696622Y-138405599D01*
X156603436Y-138312413D01*
X156532609Y-138271521D01*
X156489309Y-138246521D01*
X156425661Y-138229467D01*
X156362014Y-138212413D01*
X147662014Y-138212413D01*
X147530230Y-138212413D01*
X147402934Y-138246521D01*
X147288808Y-138312413D01*
X147288805Y-138312415D01*
X147195624Y-138405596D01*
X147195622Y-138405599D01*
X147129730Y-138519725D01*
X147109560Y-138595003D01*
X147095622Y-138647021D01*
X144306684Y-138647021D01*
X144242824Y-138536358D01*
X144242822Y-138536355D01*
X144242820Y-138536352D01*
X144130379Y-138402272D01*
X144130378Y-138402271D01*
X143996360Y-138289738D01*
X143996356Y-138289735D01*
X143844846Y-138202178D01*
X143844843Y-138202176D01*
X143844840Y-138202175D01*
X143680423Y-138142244D01*
X143508100Y-138111764D01*
X143508097Y-138111763D01*
X143508092Y-138111763D01*
X143420603Y-138111714D01*
X143420600Y-138111714D01*
X143420599Y-138111713D01*
X143420598Y-138111713D01*
X143420555Y-138111713D01*
X143376060Y-138111686D01*
X143354708Y-138111674D01*
X143354706Y-138111674D01*
X143347075Y-138111670D01*
X139776647Y-138109529D01*
X139757099Y-138107967D01*
X139748615Y-138106607D01*
X139740958Y-138105380D01*
X139740956Y-138105380D01*
X139707569Y-138108825D01*
X139694771Y-138109480D01*
X139661207Y-138109460D01*
X139661205Y-138109460D01*
X139645416Y-138113679D01*
X139645417Y-138113680D01*
X139635909Y-138116221D01*
X139609870Y-138118910D01*
X139572526Y-138133164D01*
X139566317Y-138134824D01*
X139566316Y-138134823D01*
X139533897Y-138143490D01*
X139519730Y-138151658D01*
X139502021Y-138160077D01*
X132171319Y-140958355D01*
X132171318Y-140958354D01*
X132158800Y-140963132D01*
X132147113Y-140964893D01*
X132097461Y-140986547D01*
X132094755Y-140987581D01*
X132094741Y-140987587D01*
X132046750Y-141005906D01*
X132040478Y-141009296D01*
X132024887Y-141018199D01*
X131909322Y-141068600D01*
X131571126Y-141256837D01*
X131252671Y-141476826D01*
X130956914Y-141726520D01*
X130686651Y-142003557D01*
X130686642Y-142003567D01*
X130686640Y-142003570D01*
X130678613Y-142013570D01*
X130444349Y-142305410D01*
X130232311Y-142629213D01*
X130232310Y-142629216D01*
X130052506Y-142971956D01*
X130052502Y-142971965D01*
X129906595Y-143330476D01*
X129795966Y-143701357D01*
X129795964Y-143701367D01*
X129721626Y-144081229D01*
X129684285Y-144466471D01*
X115446622Y-144466471D01*
X115446622Y-138722021D01*
X115412514Y-138594727D01*
X115346622Y-138480599D01*
X115253436Y-138387413D01*
X115185299Y-138348074D01*
X115139309Y-138321521D01*
X115039926Y-138294892D01*
X115012014Y-138287413D01*
X106312014Y-138287413D01*
X106180230Y-138287413D01*
X106052934Y-138321521D01*
X105938808Y-138387413D01*
X105938805Y-138387415D01*
X105845624Y-138480596D01*
X105845622Y-138480599D01*
X105779730Y-138594725D01*
X105753348Y-138693186D01*
X105745622Y-138722021D01*
X94541528Y-138722021D01*
X96087822Y-138016228D01*
X175049500Y-138016228D01*
X175049500Y-138183771D01*
X175082182Y-138348074D01*
X175082184Y-138348082D01*
X175146295Y-138502860D01*
X175239373Y-138642162D01*
X175357837Y-138760626D01*
X175450494Y-138822537D01*
X175497137Y-138853703D01*
X175497138Y-138853703D01*
X175497139Y-138853704D01*
X175506895Y-138857745D01*
X175651918Y-138917816D01*
X175816228Y-138950499D01*
X175816232Y-138950500D01*
X175816233Y-138950500D01*
X175983768Y-138950500D01*
X175983769Y-138950499D01*
X176148082Y-138917816D01*
X176302863Y-138853703D01*
X176442162Y-138760626D01*
X176530767Y-138672021D01*
X188445622Y-138672021D01*
X188445622Y-149153804D01*
X188479730Y-149281100D01*
X188494540Y-149306751D01*
X188545622Y-149395227D01*
X188638808Y-149488413D01*
X188752936Y-149554305D01*
X188880230Y-149588413D01*
X188880232Y-149588413D01*
X197712012Y-149588413D01*
X197712014Y-149588413D01*
X197839308Y-149554305D01*
X197953436Y-149488413D01*
X198046622Y-149395227D01*
X198112514Y-149281099D01*
X198146622Y-149153805D01*
X198146622Y-147366624D01*
X213570622Y-147366624D01*
X213570622Y-147609201D01*
X213602283Y-147849698D01*
X213665069Y-148084017D01*
X213757895Y-148308118D01*
X213757899Y-148308127D01*
X213767117Y-148324093D01*
X213879186Y-148518202D01*
X213879188Y-148518205D01*
X213879189Y-148518206D01*
X214026855Y-148710649D01*
X214026861Y-148710656D01*
X214198378Y-148882173D01*
X214198385Y-148882179D01*
X214270493Y-148937509D01*
X214390833Y-149029849D01*
X214600910Y-149151137D01*
X214825022Y-149243967D01*
X215059333Y-149306751D01*
X215239708Y-149330497D01*
X215299833Y-149338413D01*
X215299834Y-149338413D01*
X215542411Y-149338413D01*
X215597966Y-149331099D01*
X215782911Y-149306751D01*
X216017222Y-149243967D01*
X216241334Y-149151137D01*
X216451411Y-149029849D01*
X216643860Y-148882178D01*
X216815387Y-148710651D01*
X216963058Y-148518202D01*
X217084346Y-148308125D01*
X217177176Y-148084013D01*
X217239960Y-147849702D01*
X217271622Y-147609201D01*
X217271622Y-147366625D01*
X217239960Y-147126124D01*
X217177176Y-146891813D01*
X217084346Y-146667701D01*
X216963058Y-146457624D01*
X216815387Y-146265175D01*
X216815382Y-146265169D01*
X216643865Y-146093652D01*
X216643858Y-146093646D01*
X216451415Y-145945980D01*
X216451414Y-145945979D01*
X216451411Y-145945977D01*
X216241334Y-145824689D01*
X216161076Y-145791445D01*
X216017226Y-145731860D01*
X215782907Y-145669074D01*
X215542411Y-145637413D01*
X215542410Y-145637413D01*
X215299834Y-145637413D01*
X215299833Y-145637413D01*
X215059336Y-145669074D01*
X214825017Y-145731860D01*
X214600916Y-145824686D01*
X214600907Y-145824690D01*
X214390828Y-145945980D01*
X214198385Y-146093646D01*
X214198378Y-146093652D01*
X214026861Y-146265169D01*
X214026855Y-146265176D01*
X213879189Y-146457619D01*
X213757899Y-146667698D01*
X213757895Y-146667707D01*
X213665069Y-146891808D01*
X213602283Y-147126127D01*
X213570622Y-147366624D01*
X198146622Y-147366624D01*
X198146622Y-138672021D01*
X198112514Y-138544727D01*
X198046622Y-138430599D01*
X197953436Y-138337413D01*
X197870861Y-138289738D01*
X197839309Y-138271521D01*
X197775661Y-138254467D01*
X197712014Y-138237413D01*
X189012014Y-138237413D01*
X188880230Y-138237413D01*
X188752934Y-138271521D01*
X188638808Y-138337413D01*
X188638805Y-138337415D01*
X188545624Y-138430596D01*
X188545622Y-138430599D01*
X188479730Y-138544725D01*
X188445622Y-138672021D01*
X176530767Y-138672021D01*
X176560626Y-138642162D01*
X176653703Y-138502863D01*
X176717816Y-138348082D01*
X176750500Y-138183767D01*
X176750500Y-138016233D01*
X176717816Y-137851918D01*
X176653703Y-137697137D01*
X176622537Y-137650494D01*
X176560626Y-137557837D01*
X176442162Y-137439373D01*
X176302860Y-137346295D01*
X176148082Y-137282184D01*
X176148074Y-137282182D01*
X175983771Y-137249500D01*
X175983767Y-137249500D01*
X175816233Y-137249500D01*
X175816228Y-137249500D01*
X175651925Y-137282182D01*
X175651917Y-137282184D01*
X175497139Y-137346295D01*
X175357837Y-137439373D01*
X175239373Y-137557837D01*
X175146295Y-137697139D01*
X175082184Y-137851917D01*
X175082182Y-137851925D01*
X175049500Y-138016228D01*
X96087822Y-138016228D01*
X103974920Y-134416228D01*
X107645622Y-134416228D01*
X107645622Y-134583771D01*
X107678304Y-134748074D01*
X107678306Y-134748082D01*
X107742417Y-134902860D01*
X107835495Y-135042162D01*
X107953959Y-135160626D01*
X108046616Y-135222537D01*
X108093259Y-135253703D01*
X108248040Y-135317816D01*
X108412350Y-135350499D01*
X108412354Y-135350500D01*
X108412355Y-135350500D01*
X108579890Y-135350500D01*
X108579891Y-135350499D01*
X108744204Y-135317816D01*
X108898985Y-135253703D01*
X109038284Y-135160626D01*
X109156748Y-135042162D01*
X109249825Y-134902863D01*
X109313938Y-134748082D01*
X109346622Y-134583767D01*
X109346622Y-134416233D01*
X109313938Y-134251918D01*
X109249825Y-134097137D01*
X109191172Y-134009357D01*
X109156748Y-133957837D01*
X109038284Y-133839373D01*
X108898982Y-133746295D01*
X108744204Y-133682184D01*
X108744196Y-133682182D01*
X108579893Y-133649500D01*
X108579889Y-133649500D01*
X108412355Y-133649500D01*
X108412350Y-133649500D01*
X108248047Y-133682182D01*
X108248039Y-133682184D01*
X108093261Y-133746295D01*
X107953959Y-133839373D01*
X107835495Y-133957837D01*
X107742417Y-134097139D01*
X107678306Y-134251917D01*
X107678304Y-134251925D01*
X107645622Y-134416228D01*
X103974920Y-134416228D01*
X104001624Y-134404039D01*
X104001633Y-134404038D01*
X104057704Y-134378440D01*
X104057784Y-134378405D01*
X104136059Y-134342775D01*
X104136072Y-134342768D01*
X104189020Y-134307205D01*
X104271934Y-134251514D01*
X104271938Y-134251511D01*
X104271944Y-134251507D01*
X104391188Y-134139376D01*
X104490625Y-134009358D01*
X104567613Y-133864910D01*
X104620106Y-133709872D01*
X104620108Y-133709859D01*
X104646707Y-133548373D01*
X104646707Y-133548368D01*
X104646708Y-133548364D01*
X104646622Y-133466522D01*
X104646624Y-133400630D01*
X104646622Y-133400622D01*
X104646622Y-132416228D01*
X190399500Y-132416228D01*
X190399500Y-132583771D01*
X190432182Y-132748074D01*
X190432184Y-132748082D01*
X190496295Y-132902860D01*
X190589373Y-133042162D01*
X190707837Y-133160626D01*
X190800494Y-133222537D01*
X190847137Y-133253703D01*
X191001918Y-133317816D01*
X191166228Y-133350499D01*
X191166232Y-133350500D01*
X191166233Y-133350500D01*
X191333768Y-133350500D01*
X191333769Y-133350499D01*
X191498082Y-133317816D01*
X191652863Y-133253703D01*
X191792162Y-133160626D01*
X191910626Y-133042162D01*
X192003703Y-132902863D01*
X192067816Y-132748082D01*
X192100500Y-132583767D01*
X192100500Y-132416233D01*
X192100499Y-132416228D01*
X195149500Y-132416228D01*
X195149500Y-132583771D01*
X195182182Y-132748074D01*
X195182184Y-132748082D01*
X195246295Y-132902860D01*
X195339373Y-133042162D01*
X195457837Y-133160626D01*
X195550494Y-133222537D01*
X195597137Y-133253703D01*
X195751918Y-133317816D01*
X195916228Y-133350499D01*
X195916232Y-133350500D01*
X195916233Y-133350500D01*
X196083768Y-133350500D01*
X196083769Y-133350499D01*
X196248082Y-133317816D01*
X196402863Y-133253703D01*
X196542162Y-133160626D01*
X196660626Y-133042162D01*
X196753703Y-132902863D01*
X196817816Y-132748082D01*
X196850500Y-132583767D01*
X196850500Y-132416233D01*
X196817816Y-132251918D01*
X196753703Y-132097137D01*
X196716970Y-132042162D01*
X196660626Y-131957837D01*
X196542162Y-131839373D01*
X196402860Y-131746295D01*
X196248082Y-131682184D01*
X196248074Y-131682182D01*
X196083771Y-131649500D01*
X196083767Y-131649500D01*
X195916233Y-131649500D01*
X195916228Y-131649500D01*
X195751925Y-131682182D01*
X195751917Y-131682184D01*
X195597139Y-131746295D01*
X195457837Y-131839373D01*
X195339373Y-131957837D01*
X195246295Y-132097139D01*
X195182184Y-132251917D01*
X195182182Y-132251925D01*
X195149500Y-132416228D01*
X192100499Y-132416228D01*
X192067816Y-132251918D01*
X192003703Y-132097137D01*
X191966970Y-132042162D01*
X191910626Y-131957837D01*
X191792162Y-131839373D01*
X191652860Y-131746295D01*
X191498082Y-131682184D01*
X191498074Y-131682182D01*
X191333771Y-131649500D01*
X191333767Y-131649500D01*
X191166233Y-131649500D01*
X191166228Y-131649500D01*
X191001925Y-131682182D01*
X191001917Y-131682184D01*
X190847139Y-131746295D01*
X190707837Y-131839373D01*
X190589373Y-131957837D01*
X190496295Y-132097139D01*
X190432184Y-132251917D01*
X190432182Y-132251925D01*
X190399500Y-132416228D01*
X104646622Y-132416228D01*
X104646622Y-131416228D01*
X115149500Y-131416228D01*
X115149500Y-131583771D01*
X115182182Y-131748074D01*
X115182184Y-131748082D01*
X115246295Y-131902860D01*
X115339373Y-132042162D01*
X115457837Y-132160626D01*
X115550494Y-132222537D01*
X115597137Y-132253703D01*
X115751918Y-132317816D01*
X115916228Y-132350499D01*
X115916232Y-132350500D01*
X115916233Y-132350500D01*
X116083768Y-132350500D01*
X116083769Y-132350499D01*
X116248082Y-132317816D01*
X116402863Y-132253703D01*
X116542162Y-132160626D01*
X116660626Y-132042162D01*
X116753703Y-131902863D01*
X116817816Y-131748082D01*
X116850500Y-131583767D01*
X116850500Y-131416233D01*
X116817816Y-131251918D01*
X116753703Y-131097137D01*
X116744770Y-131083768D01*
X116674791Y-130979036D01*
X116674788Y-130979033D01*
X116660623Y-130957834D01*
X116619017Y-130916228D01*
X149149500Y-130916228D01*
X149149500Y-131083771D01*
X149182182Y-131248074D01*
X149182184Y-131248082D01*
X149246295Y-131402860D01*
X149339373Y-131542162D01*
X149457837Y-131660626D01*
X149550494Y-131722537D01*
X149597137Y-131753703D01*
X149751918Y-131817816D01*
X149916228Y-131850499D01*
X149916232Y-131850500D01*
X149916233Y-131850500D01*
X150083768Y-131850500D01*
X150083769Y-131850499D01*
X150248082Y-131817816D01*
X150402863Y-131753703D01*
X150542162Y-131660626D01*
X150660626Y-131542162D01*
X150753703Y-131402863D01*
X150817816Y-131248082D01*
X150850500Y-131083767D01*
X150850500Y-130916233D01*
X150850499Y-130916228D01*
X154149500Y-130916228D01*
X154149500Y-131083771D01*
X154182182Y-131248074D01*
X154182184Y-131248082D01*
X154246295Y-131402860D01*
X154339373Y-131542162D01*
X154457837Y-131660626D01*
X154550494Y-131722537D01*
X154597137Y-131753703D01*
X154751918Y-131817816D01*
X154916228Y-131850499D01*
X154916232Y-131850500D01*
X154916233Y-131850500D01*
X155083768Y-131850500D01*
X155083769Y-131850499D01*
X155248082Y-131817816D01*
X155402863Y-131753703D01*
X155542162Y-131660626D01*
X155660626Y-131542162D01*
X155753703Y-131402863D01*
X155817816Y-131248082D01*
X155850500Y-131083767D01*
X155850500Y-130916233D01*
X155817816Y-130751918D01*
X155753703Y-130597137D01*
X155722537Y-130550494D01*
X155660626Y-130457837D01*
X155542162Y-130339373D01*
X155402860Y-130246295D01*
X155248082Y-130182184D01*
X155248074Y-130182182D01*
X155083771Y-130149500D01*
X155083767Y-130149500D01*
X154916233Y-130149500D01*
X154916228Y-130149500D01*
X154751925Y-130182182D01*
X154751917Y-130182184D01*
X154597139Y-130246295D01*
X154457837Y-130339373D01*
X154339373Y-130457837D01*
X154246295Y-130597139D01*
X154182184Y-130751917D01*
X154182182Y-130751925D01*
X154149500Y-130916228D01*
X150850499Y-130916228D01*
X150817816Y-130751918D01*
X150753703Y-130597137D01*
X150722537Y-130550494D01*
X150660626Y-130457837D01*
X150542162Y-130339373D01*
X150402860Y-130246295D01*
X150248082Y-130182184D01*
X150248074Y-130182182D01*
X150083771Y-130149500D01*
X150083767Y-130149500D01*
X149916233Y-130149500D01*
X149916228Y-130149500D01*
X149751925Y-130182182D01*
X149751917Y-130182184D01*
X149597139Y-130246295D01*
X149457837Y-130339373D01*
X149339373Y-130457837D01*
X149246295Y-130597139D01*
X149182184Y-130751917D01*
X149182182Y-130751925D01*
X149149500Y-130916228D01*
X116619017Y-130916228D01*
X116542162Y-130839373D01*
X116402860Y-130746295D01*
X116248082Y-130682184D01*
X116248074Y-130682182D01*
X116083771Y-130649500D01*
X116083767Y-130649500D01*
X115916233Y-130649500D01*
X115916228Y-130649500D01*
X115751925Y-130682182D01*
X115751917Y-130682184D01*
X115597139Y-130746295D01*
X115457837Y-130839373D01*
X115339373Y-130957837D01*
X115246295Y-131097139D01*
X115182184Y-131251917D01*
X115182182Y-131251925D01*
X115149500Y-131416228D01*
X104646622Y-131416228D01*
X104646622Y-127378711D01*
X122070622Y-127378711D01*
X122070622Y-127621288D01*
X122102283Y-127861785D01*
X122165069Y-128096104D01*
X122257895Y-128320205D01*
X122257898Y-128320212D01*
X122379186Y-128530289D01*
X122379188Y-128530292D01*
X122379189Y-128530293D01*
X122526855Y-128722736D01*
X122526861Y-128722743D01*
X122698378Y-128894260D01*
X122698384Y-128894265D01*
X122890833Y-129041936D01*
X123100910Y-129163224D01*
X123325022Y-129256054D01*
X123559333Y-129318838D01*
X123739708Y-129342584D01*
X123799833Y-129350500D01*
X123799834Y-129350500D01*
X124042411Y-129350500D01*
X124090510Y-129344167D01*
X124282911Y-129318838D01*
X124517222Y-129256054D01*
X124741334Y-129163224D01*
X124951411Y-129041936D01*
X125143860Y-128894265D01*
X125315387Y-128722738D01*
X125463058Y-128530289D01*
X125584346Y-128320212D01*
X125677176Y-128096100D01*
X125739960Y-127861789D01*
X125771622Y-127621288D01*
X125771622Y-127378712D01*
X125771622Y-127378711D01*
X178070622Y-127378711D01*
X178070622Y-127621288D01*
X178102283Y-127861785D01*
X178165069Y-128096104D01*
X178257895Y-128320205D01*
X178257898Y-128320212D01*
X178379186Y-128530289D01*
X178379188Y-128530292D01*
X178379189Y-128530293D01*
X178526855Y-128722736D01*
X178526861Y-128722743D01*
X178698378Y-128894260D01*
X178698384Y-128894265D01*
X178890833Y-129041936D01*
X179100910Y-129163224D01*
X179325022Y-129256054D01*
X179559333Y-129318838D01*
X179739708Y-129342584D01*
X179799833Y-129350500D01*
X179799834Y-129350500D01*
X180042411Y-129350500D01*
X180090510Y-129344167D01*
X180282911Y-129318838D01*
X180333704Y-129305228D01*
X191149500Y-129305228D01*
X191149500Y-129472771D01*
X191182182Y-129637074D01*
X191182184Y-129637082D01*
X191246295Y-129791860D01*
X191339373Y-129931162D01*
X191457837Y-130049626D01*
X191550494Y-130111537D01*
X191597137Y-130142703D01*
X191751918Y-130206816D01*
X191916228Y-130239499D01*
X191916232Y-130239500D01*
X191916233Y-130239500D01*
X192083768Y-130239500D01*
X192083769Y-130239499D01*
X192248082Y-130206816D01*
X192402863Y-130142703D01*
X192542162Y-130049626D01*
X192660626Y-129931162D01*
X192753703Y-129791863D01*
X192817816Y-129637082D01*
X192850500Y-129472767D01*
X192850500Y-129305233D01*
X192817816Y-129140918D01*
X192753703Y-128986137D01*
X192692316Y-128894265D01*
X192660626Y-128846837D01*
X192542162Y-128728373D01*
X192402860Y-128635295D01*
X192248082Y-128571184D01*
X192248074Y-128571182D01*
X192083771Y-128538500D01*
X192083767Y-128538500D01*
X191916233Y-128538500D01*
X191916228Y-128538500D01*
X191751925Y-128571182D01*
X191751917Y-128571184D01*
X191597139Y-128635295D01*
X191457837Y-128728373D01*
X191339373Y-128846837D01*
X191246295Y-128986139D01*
X191182184Y-129140917D01*
X191182182Y-129140925D01*
X191149500Y-129305228D01*
X180333704Y-129305228D01*
X180517222Y-129256054D01*
X180592423Y-129224904D01*
X180689777Y-129184580D01*
X180741327Y-129163227D01*
X180741327Y-129163226D01*
X180741334Y-129163224D01*
X180951411Y-129041936D01*
X181143860Y-128894265D01*
X181315387Y-128722738D01*
X181463058Y-128530289D01*
X181584346Y-128320212D01*
X181677176Y-128096100D01*
X181739960Y-127861789D01*
X181771622Y-127621288D01*
X181771622Y-127378712D01*
X181739960Y-127138211D01*
X181677176Y-126903900D01*
X181677174Y-126903895D01*
X181595864Y-126707594D01*
X181584349Y-126679794D01*
X181584344Y-126679785D01*
X181576517Y-126666228D01*
X184899500Y-126666228D01*
X184899500Y-126833771D01*
X184932182Y-126998074D01*
X184932184Y-126998082D01*
X184996295Y-127152860D01*
X185089373Y-127292162D01*
X185207837Y-127410626D01*
X185300494Y-127472537D01*
X185347137Y-127503703D01*
X185347138Y-127503703D01*
X185347139Y-127503704D01*
X185361313Y-127509575D01*
X185501918Y-127567816D01*
X185666228Y-127600499D01*
X185666232Y-127600500D01*
X185666233Y-127600500D01*
X185833768Y-127600500D01*
X185833769Y-127600499D01*
X185998082Y-127567816D01*
X186152863Y-127503703D01*
X186292162Y-127410626D01*
X186410626Y-127292162D01*
X186503703Y-127152863D01*
X186567816Y-126998082D01*
X186600500Y-126833767D01*
X186600500Y-126666233D01*
X186567816Y-126501918D01*
X186503703Y-126347137D01*
X186472537Y-126300494D01*
X186410626Y-126207837D01*
X186292162Y-126089373D01*
X186152860Y-125996295D01*
X185998080Y-125932183D01*
X185998074Y-125932182D01*
X185833771Y-125899500D01*
X185833767Y-125899500D01*
X185666233Y-125899500D01*
X185666228Y-125899500D01*
X185501925Y-125932182D01*
X185501917Y-125932184D01*
X185347139Y-125996295D01*
X185207837Y-126089373D01*
X185089373Y-126207837D01*
X184996295Y-126347139D01*
X184932184Y-126501917D01*
X184932182Y-126501925D01*
X184899500Y-126666228D01*
X181576517Y-126666228D01*
X181558417Y-126634878D01*
X181463058Y-126469711D01*
X181315387Y-126277262D01*
X181315382Y-126277256D01*
X181143865Y-126105739D01*
X181143858Y-126105733D01*
X180951415Y-125958067D01*
X180951414Y-125958066D01*
X180951411Y-125958064D01*
X180741334Y-125836776D01*
X180741327Y-125836773D01*
X180702695Y-125820771D01*
X195712000Y-125820771D01*
X195712000Y-126033345D01*
X195745254Y-126243301D01*
X195801443Y-126416233D01*
X195810944Y-126445472D01*
X195907451Y-126634878D01*
X196032390Y-126806844D01*
X196145930Y-126920384D01*
X196179415Y-126981707D01*
X196174431Y-127051399D01*
X196132559Y-127107332D01*
X196101583Y-127124247D01*
X195970169Y-127173261D01*
X195970164Y-127173264D01*
X195854955Y-127259510D01*
X195854952Y-127259513D01*
X195768706Y-127374722D01*
X195768702Y-127374729D01*
X195718408Y-127509575D01*
X195712147Y-127567815D01*
X195712001Y-127569181D01*
X195712000Y-127569193D01*
X195712000Y-129364928D01*
X195712001Y-129364934D01*
X195718408Y-129424541D01*
X195768702Y-129559386D01*
X195768706Y-129559393D01*
X195854952Y-129674602D01*
X195854955Y-129674605D01*
X195970164Y-129760851D01*
X195970171Y-129760855D01*
X196105017Y-129811149D01*
X196105016Y-129811149D01*
X196111944Y-129811893D01*
X196164627Y-129817558D01*
X197960372Y-129817557D01*
X198019983Y-129811149D01*
X198154831Y-129760854D01*
X198270046Y-129674604D01*
X198356296Y-129559389D01*
X198406591Y-129424541D01*
X198413000Y-129364931D01*
X198412999Y-127569186D01*
X198406591Y-127509575D01*
X198404401Y-127503704D01*
X198356297Y-127374729D01*
X198356293Y-127374722D01*
X198270047Y-127259513D01*
X198270044Y-127259510D01*
X198154835Y-127173264D01*
X198154828Y-127173260D01*
X198023417Y-127124247D01*
X197967483Y-127082376D01*
X197943066Y-127016911D01*
X197957918Y-126948638D01*
X197979063Y-126920390D01*
X198092604Y-126806850D01*
X198217551Y-126634874D01*
X198314057Y-126445470D01*
X198379746Y-126243301D01*
X198413000Y-126033345D01*
X198413000Y-125820771D01*
X198379746Y-125610815D01*
X198314057Y-125408646D01*
X198217551Y-125219242D01*
X198217549Y-125219239D01*
X198217548Y-125219237D01*
X198092609Y-125047271D01*
X197942286Y-124896948D01*
X197770320Y-124772009D01*
X197580914Y-124675502D01*
X197580913Y-124675501D01*
X197580912Y-124675501D01*
X197378743Y-124609812D01*
X197378741Y-124609811D01*
X197378740Y-124609811D01*
X197217457Y-124584266D01*
X197168787Y-124576558D01*
X196956213Y-124576558D01*
X196907542Y-124584266D01*
X196746260Y-124609811D01*
X196544085Y-124675502D01*
X196354679Y-124772009D01*
X196182713Y-124896948D01*
X196032390Y-125047271D01*
X195907451Y-125219237D01*
X195810944Y-125408643D01*
X195745253Y-125610818D01*
X195712000Y-125820771D01*
X180702695Y-125820771D01*
X180517226Y-125743947D01*
X180286725Y-125682184D01*
X180282911Y-125681162D01*
X180282910Y-125681161D01*
X180282907Y-125681161D01*
X180042411Y-125649500D01*
X180042410Y-125649500D01*
X179799834Y-125649500D01*
X179799833Y-125649500D01*
X179559336Y-125681161D01*
X179325017Y-125743947D01*
X179100916Y-125836773D01*
X179100907Y-125836777D01*
X178935662Y-125932182D01*
X178891225Y-125957838D01*
X178890828Y-125958067D01*
X178698385Y-126105733D01*
X178698378Y-126105739D01*
X178526861Y-126277256D01*
X178526855Y-126277263D01*
X178379189Y-126469706D01*
X178257899Y-126679785D01*
X178257895Y-126679794D01*
X178165069Y-126903895D01*
X178102283Y-127138214D01*
X178070622Y-127378711D01*
X125771622Y-127378711D01*
X125739960Y-127138211D01*
X125677176Y-126903900D01*
X125676746Y-126902863D01*
X125612631Y-126748074D01*
X125584346Y-126679788D01*
X125463058Y-126469711D01*
X125444457Y-126445470D01*
X125422019Y-126416228D01*
X165149500Y-126416228D01*
X165149500Y-126583771D01*
X165182182Y-126748074D01*
X165182184Y-126748082D01*
X165246295Y-126902860D01*
X165339373Y-127042162D01*
X165457837Y-127160626D01*
X165550494Y-127222537D01*
X165597137Y-127253703D01*
X165751918Y-127317816D01*
X165916228Y-127350499D01*
X165916232Y-127350500D01*
X165916233Y-127350500D01*
X166083768Y-127350500D01*
X166083769Y-127350499D01*
X166248082Y-127317816D01*
X166402863Y-127253703D01*
X166542162Y-127160626D01*
X166660626Y-127042162D01*
X166753703Y-126902863D01*
X166817816Y-126748082D01*
X166850500Y-126583767D01*
X166850500Y-126416233D01*
X166817816Y-126251918D01*
X166757266Y-126105739D01*
X166753704Y-126097139D01*
X166660626Y-125957837D01*
X166542162Y-125839373D01*
X166402860Y-125746295D01*
X166248082Y-125682184D01*
X166248074Y-125682182D01*
X166083771Y-125649500D01*
X166083767Y-125649500D01*
X165916233Y-125649500D01*
X165916228Y-125649500D01*
X165751925Y-125682182D01*
X165751917Y-125682184D01*
X165597139Y-125746295D01*
X165457837Y-125839373D01*
X165339373Y-125957837D01*
X165246295Y-126097139D01*
X165182184Y-126251917D01*
X165182182Y-126251925D01*
X165149500Y-126416228D01*
X125422019Y-126416228D01*
X125315388Y-126277263D01*
X125315382Y-126277256D01*
X125143865Y-126105739D01*
X125143858Y-126105733D01*
X124951415Y-125958067D01*
X124951414Y-125958066D01*
X124951411Y-125958064D01*
X124741334Y-125836776D01*
X124741327Y-125836773D01*
X124517226Y-125743947D01*
X124286725Y-125682184D01*
X124282911Y-125681162D01*
X124282910Y-125681161D01*
X124282907Y-125681161D01*
X124042411Y-125649500D01*
X124042410Y-125649500D01*
X123799834Y-125649500D01*
X123799833Y-125649500D01*
X123559336Y-125681161D01*
X123325017Y-125743947D01*
X123100916Y-125836773D01*
X123100907Y-125836777D01*
X122935662Y-125932182D01*
X122891225Y-125957838D01*
X122890828Y-125958067D01*
X122698385Y-126105733D01*
X122698378Y-126105739D01*
X122526861Y-126277256D01*
X122526855Y-126277263D01*
X122379189Y-126469706D01*
X122257899Y-126679785D01*
X122257895Y-126679794D01*
X122165069Y-126903895D01*
X122102283Y-127138214D01*
X122070622Y-127378711D01*
X104646622Y-127378711D01*
X104646622Y-114632502D01*
X145420622Y-114632502D01*
X145420622Y-115143323D01*
X145460699Y-115652554D01*
X145460699Y-115652555D01*
X145529885Y-116089373D01*
X145540608Y-116157076D01*
X145659854Y-116653773D01*
X145692323Y-116753703D01*
X145817700Y-117139577D01*
X145915630Y-117376000D01*
X146013182Y-117611511D01*
X146245085Y-118066646D01*
X146245090Y-118066654D01*
X146245092Y-118066658D01*
X146245095Y-118066665D01*
X146511977Y-118502174D01*
X146511984Y-118502185D01*
X146812224Y-118915431D01*
X146812234Y-118915445D01*
X147098399Y-119250500D01*
X147143975Y-119303862D01*
X147505173Y-119665060D01*
X147505179Y-119665065D01*
X147893589Y-119996800D01*
X147893596Y-119996805D01*
X148306851Y-120297052D01*
X148370846Y-120336268D01*
X148742369Y-120563939D01*
X148742375Y-120563941D01*
X148742389Y-120563950D01*
X149197524Y-120795853D01*
X149669452Y-120991332D01*
X149669457Y-120991334D01*
X149715220Y-121006203D01*
X150155262Y-121149181D01*
X150651959Y-121268427D01*
X151156481Y-121348336D01*
X151665717Y-121388413D01*
X151665725Y-121388413D01*
X152176519Y-121388413D01*
X152176527Y-121388413D01*
X152685763Y-121348336D01*
X153190285Y-121268427D01*
X153686982Y-121149181D01*
X154172792Y-120991332D01*
X154644720Y-120795853D01*
X155099855Y-120563950D01*
X155099870Y-120563940D01*
X155099874Y-120563939D01*
X155340915Y-120416228D01*
X155535393Y-120297052D01*
X155948648Y-119996805D01*
X156042991Y-119916228D01*
X168649500Y-119916228D01*
X168649500Y-120083771D01*
X168682182Y-120248074D01*
X168682184Y-120248082D01*
X168746295Y-120402860D01*
X168839373Y-120542162D01*
X168957837Y-120660626D01*
X169050494Y-120722537D01*
X169097137Y-120753703D01*
X169251918Y-120817816D01*
X169416228Y-120850499D01*
X169416232Y-120850500D01*
X169416233Y-120850500D01*
X169583768Y-120850500D01*
X169583769Y-120850499D01*
X169748082Y-120817816D01*
X169902863Y-120753703D01*
X170042162Y-120660626D01*
X170160626Y-120542162D01*
X170253703Y-120402863D01*
X170317816Y-120248082D01*
X170350500Y-120083767D01*
X170350500Y-119916233D01*
X170317816Y-119751918D01*
X170253703Y-119597137D01*
X170222537Y-119550494D01*
X170160626Y-119457837D01*
X170042162Y-119339373D01*
X169902860Y-119246295D01*
X169748082Y-119182184D01*
X169748074Y-119182182D01*
X169583771Y-119149500D01*
X169583767Y-119149500D01*
X169416233Y-119149500D01*
X169416228Y-119149500D01*
X169251925Y-119182182D01*
X169251917Y-119182184D01*
X169097139Y-119246295D01*
X168957837Y-119339373D01*
X168839373Y-119457837D01*
X168746295Y-119597139D01*
X168682184Y-119751917D01*
X168682182Y-119751925D01*
X168649500Y-119916228D01*
X156042991Y-119916228D01*
X156337071Y-119665060D01*
X156698269Y-119303862D01*
X157030014Y-118915439D01*
X157330261Y-118502184D01*
X157444215Y-118316228D01*
X166549500Y-118316228D01*
X166549500Y-118483771D01*
X166582182Y-118648074D01*
X166582184Y-118648082D01*
X166646295Y-118802860D01*
X166739373Y-118942162D01*
X166857837Y-119060626D01*
X166950494Y-119122537D01*
X166997137Y-119153703D01*
X167151918Y-119217816D01*
X167295093Y-119246295D01*
X167316228Y-119250499D01*
X167316232Y-119250500D01*
X167316233Y-119250500D01*
X167483768Y-119250500D01*
X167483769Y-119250499D01*
X167648082Y-119217816D01*
X167802863Y-119153703D01*
X167942162Y-119060626D01*
X168060626Y-118942162D01*
X168153703Y-118802863D01*
X168217816Y-118648082D01*
X168250500Y-118483767D01*
X168250500Y-118316233D01*
X168217816Y-118151918D01*
X168153703Y-117997137D01*
X168117711Y-117943271D01*
X168060626Y-117857837D01*
X167942162Y-117739373D01*
X167802860Y-117646295D01*
X167648082Y-117582184D01*
X167648074Y-117582182D01*
X167483771Y-117549500D01*
X167483767Y-117549500D01*
X167316233Y-117549500D01*
X167316228Y-117549500D01*
X167151925Y-117582182D01*
X167151917Y-117582184D01*
X166997139Y-117646295D01*
X166857837Y-117739373D01*
X166739373Y-117857837D01*
X166646295Y-117997139D01*
X166582184Y-118151917D01*
X166582182Y-118151925D01*
X166549500Y-118316228D01*
X157444215Y-118316228D01*
X157458682Y-118292620D01*
X157487649Y-118245351D01*
X157597148Y-118066665D01*
X157597149Y-118066661D01*
X157597159Y-118066646D01*
X157829062Y-117611511D01*
X158024541Y-117139583D01*
X158182390Y-116653773D01*
X158215412Y-116516228D01*
X168349500Y-116516228D01*
X168349500Y-116683771D01*
X168382182Y-116848074D01*
X168382184Y-116848082D01*
X168446295Y-117002860D01*
X168539373Y-117142162D01*
X168657837Y-117260626D01*
X168750494Y-117322537D01*
X168797137Y-117353703D01*
X168951918Y-117417816D01*
X169078724Y-117443039D01*
X169116228Y-117450499D01*
X169116232Y-117450500D01*
X169116233Y-117450500D01*
X169283768Y-117450500D01*
X169283769Y-117450499D01*
X169448082Y-117417816D01*
X169602863Y-117353703D01*
X169742162Y-117260626D01*
X169860626Y-117142162D01*
X169953703Y-117002863D01*
X170017816Y-116848082D01*
X170050500Y-116683767D01*
X170050500Y-116516233D01*
X170017816Y-116351918D01*
X169953703Y-116197137D01*
X169921873Y-116149500D01*
X169860626Y-116057837D01*
X169742162Y-115939373D01*
X169707523Y-115916228D01*
X171649500Y-115916228D01*
X171649500Y-116083771D01*
X171682182Y-116248074D01*
X171682184Y-116248082D01*
X171746295Y-116402860D01*
X171839373Y-116542162D01*
X171957837Y-116660626D01*
X172005211Y-116692280D01*
X172097137Y-116753703D01*
X172251918Y-116817816D01*
X172404037Y-116848074D01*
X172416228Y-116850499D01*
X172416232Y-116850500D01*
X172416233Y-116850500D01*
X172583768Y-116850500D01*
X172583769Y-116850499D01*
X172748082Y-116817816D01*
X172828550Y-116784484D01*
X172898015Y-116777016D01*
X172960495Y-116808290D01*
X172996148Y-116868379D01*
X173000000Y-116899046D01*
X173000000Y-117500000D01*
X175376000Y-117500000D01*
X175443039Y-117519685D01*
X175488794Y-117572489D01*
X175500000Y-117624000D01*
X175500000Y-120000000D01*
X181850953Y-120000000D01*
X181917992Y-120019685D01*
X181963747Y-120072489D01*
X181973691Y-120141647D01*
X181965514Y-120171453D01*
X181932184Y-120251917D01*
X181932182Y-120251925D01*
X181899500Y-120416228D01*
X181899500Y-120583771D01*
X181932182Y-120748074D01*
X181932184Y-120748082D01*
X181996295Y-120902860D01*
X182089373Y-121042162D01*
X182207837Y-121160626D01*
X182288358Y-121214428D01*
X182347137Y-121253703D01*
X182347138Y-121253703D01*
X182347139Y-121253704D01*
X182382201Y-121268227D01*
X182501918Y-121317816D01*
X182655349Y-121348335D01*
X182666228Y-121350499D01*
X182666232Y-121350500D01*
X182666233Y-121350500D01*
X182833768Y-121350500D01*
X182833769Y-121350499D01*
X182998082Y-121317816D01*
X183145649Y-121256690D01*
X183215118Y-121249222D01*
X183277598Y-121280497D01*
X183280756Y-121283544D01*
X183307838Y-121310626D01*
X183307839Y-121310627D01*
X183318600Y-121317817D01*
X183447137Y-121403703D01*
X183601918Y-121467816D01*
X183766228Y-121500499D01*
X183766232Y-121500500D01*
X183766233Y-121500500D01*
X183933768Y-121500500D01*
X183933769Y-121500499D01*
X184098082Y-121467816D01*
X184252863Y-121403703D01*
X184392162Y-121310626D01*
X184510626Y-121192162D01*
X184603703Y-121052863D01*
X184623032Y-121006199D01*
X192733122Y-121006199D01*
X192733122Y-121173742D01*
X192765804Y-121338045D01*
X192765806Y-121338053D01*
X192829917Y-121492831D01*
X192922995Y-121632133D01*
X193041459Y-121750597D01*
X193134116Y-121812508D01*
X193180759Y-121843674D01*
X193335540Y-121907787D01*
X193499850Y-121940470D01*
X193499854Y-121940471D01*
X193499855Y-121940471D01*
X193667390Y-121940471D01*
X193667391Y-121940470D01*
X193831704Y-121907787D01*
X193986485Y-121843674D01*
X194125784Y-121750597D01*
X194244248Y-121632133D01*
X194337325Y-121492834D01*
X194401438Y-121338053D01*
X194434122Y-121173738D01*
X194434122Y-121006204D01*
X194401438Y-120841889D01*
X194337325Y-120687108D01*
X194306159Y-120640465D01*
X194244248Y-120547808D01*
X194125784Y-120429344D01*
X193986482Y-120336266D01*
X193831704Y-120272155D01*
X193831696Y-120272153D01*
X193667393Y-120239471D01*
X193667389Y-120239471D01*
X193499855Y-120239471D01*
X193499850Y-120239471D01*
X193335547Y-120272153D01*
X193335539Y-120272155D01*
X193180761Y-120336266D01*
X193041459Y-120429344D01*
X192922995Y-120547808D01*
X192829917Y-120687110D01*
X192765806Y-120841888D01*
X192765804Y-120841896D01*
X192733122Y-121006199D01*
X184623032Y-121006199D01*
X184667816Y-120898082D01*
X184700500Y-120733767D01*
X184700500Y-120566233D01*
X184667816Y-120401918D01*
X184605686Y-120251925D01*
X184603704Y-120247139D01*
X184598580Y-120239471D01*
X184519713Y-120121437D01*
X184498835Y-120054759D01*
X184500000Y-120050512D01*
X184500000Y-117624000D01*
X184519685Y-117556961D01*
X184572489Y-117511206D01*
X184624000Y-117500000D01*
X186246124Y-117500000D01*
X186313163Y-117519685D01*
X186334365Y-117538555D01*
X186335066Y-117537855D01*
X186457837Y-117660626D01*
X186550494Y-117722537D01*
X186597137Y-117753703D01*
X186751918Y-117817816D01*
X186916228Y-117850499D01*
X186916232Y-117850500D01*
X186916233Y-117850500D01*
X187083768Y-117850500D01*
X187083769Y-117850499D01*
X187248082Y-117817816D01*
X187402863Y-117753703D01*
X187542162Y-117660626D01*
X187660626Y-117542162D01*
X187753703Y-117402863D01*
X187817816Y-117248082D01*
X187850500Y-117083767D01*
X187850500Y-116916233D01*
X187817816Y-116751918D01*
X187782322Y-116666228D01*
X191649500Y-116666228D01*
X191649500Y-116833771D01*
X191682182Y-116998074D01*
X191682184Y-116998082D01*
X191746295Y-117152860D01*
X191839373Y-117292162D01*
X191957837Y-117410626D01*
X192006347Y-117443039D01*
X192097137Y-117503703D01*
X192097138Y-117503703D01*
X192097139Y-117503704D01*
X192132201Y-117518227D01*
X192251918Y-117567816D01*
X192416228Y-117600499D01*
X192416232Y-117600500D01*
X192416233Y-117600500D01*
X192583768Y-117600500D01*
X192583769Y-117600499D01*
X192748082Y-117567816D01*
X192902863Y-117503703D01*
X193042162Y-117410626D01*
X193160626Y-117292162D01*
X193253703Y-117152863D01*
X193317816Y-116998082D01*
X193350500Y-116833767D01*
X193350500Y-116666233D01*
X193317816Y-116501918D01*
X193255686Y-116351925D01*
X193253704Y-116347139D01*
X193160626Y-116207837D01*
X193042162Y-116089373D01*
X192902860Y-115996295D01*
X192748082Y-115932184D01*
X192748074Y-115932182D01*
X192583771Y-115899500D01*
X192583767Y-115899500D01*
X192416233Y-115899500D01*
X192416228Y-115899500D01*
X192251925Y-115932182D01*
X192251917Y-115932184D01*
X192097139Y-115996295D01*
X191957837Y-116089373D01*
X191839373Y-116207837D01*
X191746295Y-116347139D01*
X191682184Y-116501917D01*
X191682182Y-116501925D01*
X191649500Y-116666228D01*
X187782322Y-116666228D01*
X187761439Y-116615813D01*
X187753704Y-116597139D01*
X187660626Y-116457837D01*
X187542162Y-116339373D01*
X187402860Y-116246295D01*
X187248082Y-116182184D01*
X187248074Y-116182182D01*
X187099809Y-116152690D01*
X187037898Y-116120305D01*
X187003324Y-116059589D01*
X187000000Y-116031073D01*
X187000000Y-113968926D01*
X187019685Y-113901887D01*
X187072489Y-113856132D01*
X187099800Y-113847310D01*
X187248082Y-113817816D01*
X187402863Y-113753703D01*
X187542162Y-113660626D01*
X187660626Y-113542162D01*
X187753703Y-113402863D01*
X187817816Y-113248082D01*
X187850500Y-113083767D01*
X187850500Y-112916233D01*
X187817816Y-112751918D01*
X187753703Y-112597137D01*
X187734828Y-112568890D01*
X187713951Y-112502214D01*
X187732435Y-112434834D01*
X187734829Y-112431109D01*
X187744769Y-112416233D01*
X187753703Y-112402863D01*
X187817816Y-112248082D01*
X187850500Y-112083767D01*
X187850500Y-111916233D01*
X187817816Y-111751918D01*
X187753703Y-111597137D01*
X187722537Y-111550494D01*
X187660626Y-111457837D01*
X187542162Y-111339373D01*
X187402860Y-111246295D01*
X187248082Y-111182184D01*
X187248074Y-111182182D01*
X187099809Y-111152690D01*
X187037898Y-111120305D01*
X187003324Y-111059589D01*
X187000000Y-111031073D01*
X187000000Y-109000000D01*
X184500000Y-109000000D01*
X184468927Y-109000000D01*
X184401888Y-108980315D01*
X184356133Y-108927511D01*
X184347310Y-108900191D01*
X184317817Y-108751925D01*
X184317816Y-108751918D01*
X184284486Y-108671453D01*
X184277017Y-108601984D01*
X184308292Y-108539504D01*
X184368381Y-108503852D01*
X184399047Y-108500000D01*
X184500000Y-108500000D01*
X184500000Y-106253874D01*
X184519685Y-106186835D01*
X184538559Y-106165638D01*
X184537854Y-106164933D01*
X184542158Y-106160628D01*
X184542162Y-106160626D01*
X184660626Y-106042162D01*
X184744773Y-105916228D01*
X191649500Y-105916228D01*
X191649500Y-106083771D01*
X191682182Y-106248074D01*
X191682184Y-106248082D01*
X191746295Y-106402860D01*
X191839373Y-106542162D01*
X191957837Y-106660626D01*
X192050494Y-106722537D01*
X192097137Y-106753703D01*
X192251918Y-106817816D01*
X192416228Y-106850499D01*
X192416232Y-106850500D01*
X192416233Y-106850500D01*
X192583768Y-106850500D01*
X192583769Y-106850499D01*
X192748082Y-106817816D01*
X192902863Y-106753703D01*
X193042162Y-106660626D01*
X193160626Y-106542162D01*
X193253703Y-106402863D01*
X193317816Y-106248082D01*
X193350500Y-106083767D01*
X193350500Y-105916233D01*
X193317816Y-105751918D01*
X193253703Y-105597137D01*
X193222537Y-105550494D01*
X193160626Y-105457837D01*
X193042162Y-105339373D01*
X192902860Y-105246295D01*
X192748082Y-105182184D01*
X192748074Y-105182182D01*
X192583771Y-105149500D01*
X192583767Y-105149500D01*
X192416233Y-105149500D01*
X192416228Y-105149500D01*
X192251925Y-105182182D01*
X192251917Y-105182184D01*
X192097139Y-105246295D01*
X191957837Y-105339373D01*
X191839373Y-105457837D01*
X191746295Y-105597139D01*
X191682184Y-105751917D01*
X191682182Y-105751925D01*
X191649500Y-105916228D01*
X184744773Y-105916228D01*
X184753703Y-105902863D01*
X184817816Y-105748082D01*
X184850500Y-105583767D01*
X184850500Y-105416233D01*
X184817816Y-105251918D01*
X184753703Y-105097137D01*
X184722537Y-105050494D01*
X184660626Y-104957837D01*
X184542162Y-104839373D01*
X184402860Y-104746295D01*
X184248082Y-104682184D01*
X184248074Y-104682182D01*
X184083771Y-104649500D01*
X184083767Y-104649500D01*
X183916233Y-104649500D01*
X183916228Y-104649500D01*
X183751925Y-104682182D01*
X183751917Y-104682184D01*
X183597139Y-104746295D01*
X183457837Y-104839373D01*
X183339373Y-104957837D01*
X183246295Y-105097139D01*
X183182184Y-105251917D01*
X183182182Y-105251925D01*
X183149500Y-105416228D01*
X183149500Y-105583771D01*
X183182182Y-105748074D01*
X183182184Y-105748082D01*
X183215514Y-105828547D01*
X183222983Y-105898016D01*
X183191708Y-105960496D01*
X183131619Y-105996148D01*
X183100953Y-106000000D01*
X175500000Y-106000000D01*
X175500000Y-108376000D01*
X175480315Y-108443039D01*
X175427511Y-108488794D01*
X175376000Y-108500000D01*
X173000000Y-108500000D01*
X173000000Y-115100953D01*
X172980315Y-115167992D01*
X172927511Y-115213747D01*
X172858353Y-115223691D01*
X172828547Y-115215514D01*
X172748082Y-115182184D01*
X172748074Y-115182182D01*
X172583771Y-115149500D01*
X172583767Y-115149500D01*
X172416233Y-115149500D01*
X172416228Y-115149500D01*
X172251925Y-115182182D01*
X172251917Y-115182184D01*
X172097139Y-115246295D01*
X171957837Y-115339373D01*
X171839373Y-115457837D01*
X171746295Y-115597139D01*
X171682184Y-115751917D01*
X171682182Y-115751925D01*
X171649500Y-115916228D01*
X169707523Y-115916228D01*
X169602860Y-115846295D01*
X169448082Y-115782184D01*
X169448074Y-115782182D01*
X169283771Y-115749500D01*
X169283767Y-115749500D01*
X169116233Y-115749500D01*
X169116228Y-115749500D01*
X168951925Y-115782182D01*
X168951917Y-115782184D01*
X168797139Y-115846295D01*
X168657837Y-115939373D01*
X168539373Y-116057837D01*
X168446295Y-116197139D01*
X168382184Y-116351917D01*
X168382182Y-116351925D01*
X168349500Y-116516228D01*
X158215412Y-116516228D01*
X158301636Y-116157076D01*
X158381545Y-115652554D01*
X158421622Y-115143318D01*
X158421622Y-114916228D01*
X166899500Y-114916228D01*
X166899500Y-115083771D01*
X166932182Y-115248074D01*
X166932184Y-115248082D01*
X166996295Y-115402860D01*
X167089373Y-115542162D01*
X167207837Y-115660626D01*
X167300494Y-115722537D01*
X167347137Y-115753703D01*
X167501918Y-115817816D01*
X167645093Y-115846295D01*
X167666228Y-115850499D01*
X167666232Y-115850500D01*
X167666233Y-115850500D01*
X167833768Y-115850500D01*
X167833769Y-115850499D01*
X167998082Y-115817816D01*
X168152863Y-115753703D01*
X168292162Y-115660626D01*
X168410626Y-115542162D01*
X168503703Y-115402863D01*
X168567816Y-115248082D01*
X168600500Y-115083767D01*
X168600500Y-114916233D01*
X168567816Y-114751918D01*
X168503703Y-114597137D01*
X168472537Y-114550494D01*
X168410626Y-114457837D01*
X168292162Y-114339373D01*
X168152860Y-114246295D01*
X167998082Y-114182184D01*
X167998074Y-114182182D01*
X167833771Y-114149500D01*
X167833767Y-114149500D01*
X167666233Y-114149500D01*
X167666228Y-114149500D01*
X167501925Y-114182182D01*
X167501917Y-114182184D01*
X167347139Y-114246295D01*
X167207837Y-114339373D01*
X167089373Y-114457837D01*
X166996295Y-114597139D01*
X166932184Y-114751917D01*
X166932182Y-114751925D01*
X166899500Y-114916228D01*
X158421622Y-114916228D01*
X158421622Y-114632508D01*
X158381545Y-114123272D01*
X158301636Y-113618750D01*
X158182390Y-113122053D01*
X158024541Y-112636243D01*
X157829062Y-112164315D01*
X157597159Y-111709180D01*
X157597150Y-111709166D01*
X157597148Y-111709160D01*
X157407895Y-111400330D01*
X157330261Y-111273642D01*
X157030014Y-110860387D01*
X157030009Y-110860380D01*
X156698274Y-110471970D01*
X156698269Y-110471964D01*
X156337071Y-110110766D01*
X156337064Y-110110760D01*
X155948654Y-109779025D01*
X155948640Y-109779015D01*
X155679905Y-109583768D01*
X155535393Y-109478774D01*
X155503908Y-109459480D01*
X155099874Y-109211886D01*
X155099867Y-109211883D01*
X155099863Y-109211881D01*
X155099855Y-109211876D01*
X154644720Y-108979973D01*
X154452109Y-108900191D01*
X154172786Y-108784491D01*
X153733153Y-108641647D01*
X153686982Y-108626645D01*
X153190285Y-108507399D01*
X153167890Y-108503852D01*
X152685763Y-108427490D01*
X152542664Y-108416228D01*
X163149500Y-108416228D01*
X163149500Y-108583771D01*
X163182182Y-108748074D01*
X163182184Y-108748082D01*
X163246295Y-108902859D01*
X163246302Y-108902872D01*
X163265170Y-108931111D01*
X163286047Y-108997789D01*
X163267561Y-109065168D01*
X163265170Y-109068889D01*
X163246302Y-109097127D01*
X163246295Y-109097140D01*
X163182184Y-109251917D01*
X163182182Y-109251925D01*
X163149500Y-109416228D01*
X163149500Y-109583771D01*
X163182182Y-109748074D01*
X163182184Y-109748082D01*
X163246295Y-109902860D01*
X163339373Y-110042162D01*
X163457837Y-110160626D01*
X163550494Y-110222537D01*
X163597137Y-110253703D01*
X163751918Y-110317816D01*
X163916228Y-110350499D01*
X163916232Y-110350500D01*
X163916233Y-110350500D01*
X164083768Y-110350500D01*
X164083769Y-110350499D01*
X164248082Y-110317816D01*
X164402863Y-110253703D01*
X164542162Y-110160626D01*
X164660626Y-110042162D01*
X164753703Y-109902863D01*
X164817816Y-109748082D01*
X164850500Y-109583767D01*
X164850500Y-109416233D01*
X164817816Y-109251918D01*
X164753703Y-109097137D01*
X164734828Y-109068889D01*
X164713951Y-109002214D01*
X164732435Y-108934834D01*
X164734829Y-108931109D01*
X164744769Y-108916233D01*
X164753703Y-108902863D01*
X164817816Y-108748082D01*
X164850500Y-108583767D01*
X164850500Y-108416233D01*
X164817816Y-108251918D01*
X164753703Y-108097137D01*
X164722537Y-108050494D01*
X164660626Y-107957837D01*
X164542162Y-107839373D01*
X164402860Y-107746295D01*
X164248082Y-107682184D01*
X164248074Y-107682182D01*
X164083771Y-107649500D01*
X164083767Y-107649500D01*
X163916233Y-107649500D01*
X163916228Y-107649500D01*
X163751925Y-107682182D01*
X163751917Y-107682184D01*
X163597139Y-107746295D01*
X163457837Y-107839373D01*
X163339373Y-107957837D01*
X163246295Y-108097139D01*
X163182184Y-108251917D01*
X163182182Y-108251925D01*
X163149500Y-108416228D01*
X152542664Y-108416228D01*
X152176532Y-108387413D01*
X152176527Y-108387413D01*
X151665717Y-108387413D01*
X151665711Y-108387413D01*
X151156480Y-108427490D01*
X151156479Y-108427490D01*
X150651964Y-108507398D01*
X150651961Y-108507398D01*
X150651959Y-108507399D01*
X150554841Y-108530715D01*
X150155273Y-108626642D01*
X150155267Y-108626643D01*
X150155262Y-108626645D01*
X150155250Y-108626649D01*
X149669457Y-108784491D01*
X149197526Y-108979972D01*
X149197524Y-108979973D01*
X148742389Y-109211876D01*
X148742385Y-109211878D01*
X148742376Y-109211883D01*
X148742369Y-109211886D01*
X148306860Y-109478768D01*
X148306849Y-109478775D01*
X147893603Y-109779015D01*
X147893589Y-109779025D01*
X147505179Y-110110760D01*
X147505165Y-110110773D01*
X147143982Y-110471956D01*
X147143969Y-110471970D01*
X146812234Y-110860380D01*
X146812224Y-110860394D01*
X146511984Y-111273640D01*
X146511977Y-111273651D01*
X146245095Y-111709160D01*
X146245092Y-111709167D01*
X146245087Y-111709176D01*
X146245085Y-111709180D01*
X146075422Y-112042162D01*
X146013181Y-112164317D01*
X145817700Y-112636248D01*
X145659858Y-113122041D01*
X145659851Y-113122064D01*
X145540607Y-113618755D01*
X145460699Y-114123270D01*
X145460699Y-114123271D01*
X145420622Y-114632502D01*
X104646622Y-114632502D01*
X104646622Y-105916228D01*
X163149500Y-105916228D01*
X163149500Y-106083771D01*
X163182182Y-106248074D01*
X163182184Y-106248082D01*
X163246295Y-106402860D01*
X163339373Y-106542162D01*
X163457837Y-106660626D01*
X163550494Y-106722537D01*
X163597137Y-106753703D01*
X163751918Y-106817816D01*
X163916228Y-106850499D01*
X163916232Y-106850500D01*
X163916233Y-106850500D01*
X164083768Y-106850500D01*
X164083769Y-106850499D01*
X164248082Y-106817816D01*
X164402863Y-106753703D01*
X164542162Y-106660626D01*
X164660626Y-106542162D01*
X164753703Y-106402863D01*
X164817816Y-106248082D01*
X164850500Y-106083767D01*
X164850500Y-105916233D01*
X164817816Y-105751918D01*
X164753703Y-105597137D01*
X164744770Y-105583768D01*
X164674791Y-105479036D01*
X164674788Y-105479033D01*
X164660623Y-105457834D01*
X164619017Y-105416228D01*
X172189500Y-105416228D01*
X172189500Y-105583771D01*
X172222182Y-105748074D01*
X172222184Y-105748082D01*
X172286295Y-105902860D01*
X172379373Y-106042162D01*
X172497837Y-106160626D01*
X172590494Y-106222537D01*
X172637137Y-106253703D01*
X172637138Y-106253703D01*
X172637139Y-106253704D01*
X172672201Y-106268227D01*
X172791918Y-106317816D01*
X172956228Y-106350499D01*
X172956232Y-106350500D01*
X172956233Y-106350500D01*
X173123768Y-106350500D01*
X173123769Y-106350499D01*
X173288082Y-106317816D01*
X173442863Y-106253703D01*
X173582162Y-106160626D01*
X173700626Y-106042162D01*
X173793703Y-105902863D01*
X173857816Y-105748082D01*
X173890500Y-105583767D01*
X173890500Y-105416233D01*
X173857816Y-105251918D01*
X173793703Y-105097137D01*
X173762537Y-105050494D01*
X173700626Y-104957837D01*
X173582162Y-104839373D01*
X173442860Y-104746295D01*
X173288082Y-104682184D01*
X173288074Y-104682182D01*
X173123771Y-104649500D01*
X173123767Y-104649500D01*
X172956233Y-104649500D01*
X172956228Y-104649500D01*
X172791925Y-104682182D01*
X172791917Y-104682184D01*
X172637139Y-104746295D01*
X172497837Y-104839373D01*
X172379373Y-104957837D01*
X172286295Y-105097139D01*
X172222184Y-105251917D01*
X172222182Y-105251925D01*
X172189500Y-105416228D01*
X164619017Y-105416228D01*
X164542162Y-105339373D01*
X164402860Y-105246295D01*
X164248082Y-105182184D01*
X164248074Y-105182182D01*
X164083771Y-105149500D01*
X164083767Y-105149500D01*
X163916233Y-105149500D01*
X163916228Y-105149500D01*
X163751925Y-105182182D01*
X163751917Y-105182184D01*
X163597139Y-105246295D01*
X163457837Y-105339373D01*
X163339373Y-105457837D01*
X163246295Y-105597139D01*
X163182184Y-105751917D01*
X163182182Y-105751925D01*
X163149500Y-105916228D01*
X104646622Y-105916228D01*
X104646622Y-102691228D01*
X174649500Y-102691228D01*
X174649500Y-102858771D01*
X174682182Y-103023074D01*
X174682184Y-103023082D01*
X174746295Y-103177860D01*
X174839373Y-103317162D01*
X174957837Y-103435626D01*
X175050494Y-103497537D01*
X175097137Y-103528703D01*
X175251918Y-103592816D01*
X175416228Y-103625499D01*
X175416232Y-103625500D01*
X175416233Y-103625500D01*
X175583768Y-103625500D01*
X175583769Y-103625499D01*
X175748082Y-103592816D01*
X175902863Y-103528703D01*
X176042162Y-103435626D01*
X176061560Y-103416228D01*
X178800500Y-103416228D01*
X178800500Y-103583771D01*
X178833182Y-103748074D01*
X178833184Y-103748082D01*
X178897295Y-103902860D01*
X178990373Y-104042162D01*
X179108837Y-104160626D01*
X179201494Y-104222537D01*
X179248137Y-104253703D01*
X179402918Y-104317816D01*
X179567228Y-104350499D01*
X179567232Y-104350500D01*
X179567233Y-104350500D01*
X179734768Y-104350500D01*
X179734769Y-104350499D01*
X179899082Y-104317816D01*
X180053863Y-104253703D01*
X180193162Y-104160626D01*
X180311626Y-104042162D01*
X180404703Y-103902863D01*
X180468816Y-103748082D01*
X180501500Y-103583767D01*
X180501500Y-103416233D01*
X180468816Y-103251918D01*
X180404703Y-103097137D01*
X180395770Y-103083768D01*
X180325791Y-102979036D01*
X180325788Y-102979033D01*
X180311623Y-102957834D01*
X180270017Y-102916228D01*
X184149500Y-102916228D01*
X184149500Y-103083771D01*
X184182182Y-103248074D01*
X184182184Y-103248082D01*
X184246295Y-103402860D01*
X184339373Y-103542162D01*
X184457837Y-103660626D01*
X184550494Y-103722537D01*
X184597137Y-103753703D01*
X184751918Y-103817816D01*
X184916228Y-103850499D01*
X184916232Y-103850500D01*
X184916233Y-103850500D01*
X185083768Y-103850500D01*
X185083769Y-103850499D01*
X185248082Y-103817816D01*
X185402863Y-103753703D01*
X185542162Y-103660626D01*
X185660626Y-103542162D01*
X185753703Y-103402863D01*
X185817816Y-103248082D01*
X185850500Y-103083767D01*
X185850500Y-102916233D01*
X185817816Y-102751918D01*
X185753703Y-102597137D01*
X185706783Y-102526917D01*
X185660626Y-102457837D01*
X185542162Y-102339373D01*
X185402860Y-102246295D01*
X185248082Y-102182184D01*
X185248074Y-102182182D01*
X185083771Y-102149500D01*
X185083767Y-102149500D01*
X184916233Y-102149500D01*
X184916228Y-102149500D01*
X184751925Y-102182182D01*
X184751917Y-102182184D01*
X184597139Y-102246295D01*
X184457837Y-102339373D01*
X184339373Y-102457837D01*
X184246295Y-102597139D01*
X184182184Y-102751917D01*
X184182182Y-102751925D01*
X184149500Y-102916228D01*
X180270017Y-102916228D01*
X180193162Y-102839373D01*
X180053860Y-102746295D01*
X179899082Y-102682184D01*
X179899074Y-102682182D01*
X179734771Y-102649500D01*
X179734767Y-102649500D01*
X179567233Y-102649500D01*
X179567228Y-102649500D01*
X179402925Y-102682182D01*
X179402917Y-102682184D01*
X179248139Y-102746295D01*
X179108837Y-102839373D01*
X178990373Y-102957837D01*
X178897295Y-103097139D01*
X178833184Y-103251917D01*
X178833182Y-103251925D01*
X178800500Y-103416228D01*
X176061560Y-103416228D01*
X176074928Y-103402860D01*
X176155329Y-103322460D01*
X176160623Y-103317165D01*
X176160626Y-103317162D01*
X176204216Y-103251925D01*
X176253703Y-103177863D01*
X176317816Y-103023082D01*
X176350500Y-102858767D01*
X176350500Y-102691233D01*
X176317816Y-102526918D01*
X176253703Y-102372137D01*
X176217406Y-102317815D01*
X176160626Y-102232837D01*
X176042162Y-102114373D01*
X175902860Y-102021295D01*
X175748082Y-101957184D01*
X175748074Y-101957182D01*
X175583771Y-101924500D01*
X175583767Y-101924500D01*
X175416233Y-101924500D01*
X175416228Y-101924500D01*
X175251925Y-101957182D01*
X175251917Y-101957184D01*
X175097139Y-102021295D01*
X174957837Y-102114373D01*
X174839373Y-102232837D01*
X174746295Y-102372139D01*
X174682184Y-102526917D01*
X174682182Y-102526925D01*
X174649500Y-102691228D01*
X104646622Y-102691228D01*
X104646622Y-100426540D01*
X164754200Y-100426540D01*
X164754200Y-100573459D01*
X164782858Y-100717534D01*
X164782861Y-100717544D01*
X164839078Y-100853266D01*
X164839083Y-100853275D01*
X164920698Y-100975419D01*
X164920701Y-100975423D01*
X165024576Y-101079298D01*
X165024580Y-101079301D01*
X165146724Y-101160916D01*
X165146730Y-101160919D01*
X165146731Y-101160920D01*
X165282458Y-101217140D01*
X165426540Y-101245799D01*
X165426544Y-101245800D01*
X165532307Y-101245800D01*
X165599346Y-101265485D01*
X165645101Y-101318289D01*
X165655045Y-101387447D01*
X165653924Y-101393992D01*
X165649500Y-101416231D01*
X165649500Y-101583771D01*
X165682182Y-101748074D01*
X165682184Y-101748082D01*
X165746295Y-101902860D01*
X165839373Y-102042162D01*
X165957837Y-102160626D01*
X166050494Y-102222537D01*
X166097137Y-102253703D01*
X166251918Y-102317816D01*
X166416228Y-102350499D01*
X166416232Y-102350500D01*
X166416233Y-102350500D01*
X166583768Y-102350500D01*
X166583769Y-102350499D01*
X166748082Y-102317816D01*
X166902863Y-102253703D01*
X167042162Y-102160626D01*
X167160626Y-102042162D01*
X167253703Y-101902863D01*
X167317816Y-101748082D01*
X167350500Y-101583767D01*
X167350500Y-101416233D01*
X167317816Y-101251918D01*
X167253703Y-101097137D01*
X167244770Y-101083768D01*
X167174791Y-100979036D01*
X167174788Y-100979033D01*
X167160623Y-100957834D01*
X167119017Y-100916228D01*
X171149500Y-100916228D01*
X171149500Y-101083771D01*
X171182182Y-101248074D01*
X171182184Y-101248082D01*
X171246295Y-101402860D01*
X171339373Y-101542162D01*
X171457837Y-101660626D01*
X171550494Y-101722537D01*
X171597137Y-101753703D01*
X171751918Y-101817816D01*
X171916228Y-101850499D01*
X171916232Y-101850500D01*
X171916233Y-101850500D01*
X172083768Y-101850500D01*
X172083769Y-101850499D01*
X172248082Y-101817816D01*
X172402863Y-101753703D01*
X172542162Y-101660626D01*
X172660626Y-101542162D01*
X172744773Y-101416228D01*
X178649500Y-101416228D01*
X178649500Y-101583771D01*
X178682182Y-101748074D01*
X178682184Y-101748082D01*
X178746295Y-101902860D01*
X178839373Y-102042162D01*
X178957837Y-102160626D01*
X179050494Y-102222537D01*
X179097137Y-102253703D01*
X179251918Y-102317816D01*
X179416228Y-102350499D01*
X179416232Y-102350500D01*
X179416233Y-102350500D01*
X179583768Y-102350500D01*
X179583769Y-102350499D01*
X179748082Y-102317816D01*
X179902863Y-102253703D01*
X180042162Y-102160626D01*
X180160626Y-102042162D01*
X180253703Y-101902863D01*
X180317816Y-101748082D01*
X180350500Y-101583767D01*
X180350500Y-101416233D01*
X180317816Y-101251918D01*
X180253703Y-101097137D01*
X180222537Y-101050494D01*
X180160626Y-100957837D01*
X180042162Y-100839373D01*
X179902860Y-100746295D01*
X179748082Y-100682184D01*
X179748074Y-100682182D01*
X179583771Y-100649500D01*
X179583767Y-100649500D01*
X179416233Y-100649500D01*
X179416228Y-100649500D01*
X179251925Y-100682182D01*
X179251917Y-100682184D01*
X179097139Y-100746295D01*
X178957837Y-100839373D01*
X178839373Y-100957837D01*
X178746295Y-101097139D01*
X178682184Y-101251917D01*
X178682182Y-101251925D01*
X178649500Y-101416228D01*
X172744773Y-101416228D01*
X172753703Y-101402863D01*
X172817816Y-101248082D01*
X172850500Y-101083767D01*
X172850500Y-100916233D01*
X172817816Y-100751918D01*
X172753703Y-100597137D01*
X172710384Y-100532306D01*
X172660626Y-100457837D01*
X172542162Y-100339373D01*
X172402860Y-100246295D01*
X172248082Y-100182184D01*
X172248074Y-100182182D01*
X172083771Y-100149500D01*
X172083767Y-100149500D01*
X171916233Y-100149500D01*
X171916228Y-100149500D01*
X171751925Y-100182182D01*
X171751917Y-100182184D01*
X171597139Y-100246295D01*
X171457837Y-100339373D01*
X171339373Y-100457837D01*
X171246295Y-100597139D01*
X171182184Y-100751917D01*
X171182182Y-100751925D01*
X171149500Y-100916228D01*
X167119017Y-100916228D01*
X167042162Y-100839373D01*
X166902860Y-100746295D01*
X166748082Y-100682184D01*
X166748074Y-100682182D01*
X166583771Y-100649500D01*
X166583767Y-100649500D01*
X166416233Y-100649500D01*
X166416232Y-100649500D01*
X166393988Y-100653924D01*
X166324397Y-100647695D01*
X166269221Y-100604830D01*
X166245978Y-100538940D01*
X166245800Y-100532306D01*
X166245800Y-100426544D01*
X166245799Y-100426540D01*
X166217141Y-100282465D01*
X166217140Y-100282458D01*
X166160920Y-100146731D01*
X166160919Y-100146730D01*
X166160916Y-100146724D01*
X166079301Y-100024580D01*
X166079298Y-100024576D01*
X165975423Y-99920701D01*
X165975419Y-99920698D01*
X165853275Y-99839083D01*
X165853266Y-99839078D01*
X165717544Y-99782861D01*
X165717545Y-99782861D01*
X165717542Y-99782860D01*
X165717538Y-99782859D01*
X165717534Y-99782858D01*
X165573459Y-99754200D01*
X165573455Y-99754200D01*
X165426545Y-99754200D01*
X165426540Y-99754200D01*
X165282465Y-99782858D01*
X165282455Y-99782861D01*
X165146733Y-99839078D01*
X165146724Y-99839083D01*
X165024580Y-99920698D01*
X165024576Y-99920701D01*
X164920701Y-100024576D01*
X164920698Y-100024580D01*
X164839083Y-100146724D01*
X164839078Y-100146733D01*
X164782861Y-100282455D01*
X164782858Y-100282465D01*
X164754200Y-100426540D01*
X104646622Y-100426540D01*
X104646622Y-99410540D01*
X159674200Y-99410540D01*
X159674200Y-99557459D01*
X159702858Y-99701534D01*
X159702861Y-99701544D01*
X159759078Y-99837266D01*
X159759083Y-99837275D01*
X159840698Y-99959419D01*
X159840701Y-99959423D01*
X159944576Y-100063298D01*
X159944580Y-100063301D01*
X160066724Y-100144916D01*
X160066730Y-100144919D01*
X160066731Y-100144920D01*
X160202458Y-100201140D01*
X160346540Y-100229799D01*
X160346544Y-100229800D01*
X160346545Y-100229800D01*
X160493456Y-100229800D01*
X160493457Y-100229799D01*
X160637542Y-100201140D01*
X160773269Y-100144920D01*
X160895420Y-100063301D01*
X160999301Y-99959420D01*
X161080920Y-99837269D01*
X161137140Y-99701542D01*
X161165800Y-99557455D01*
X161165800Y-99410545D01*
X161137140Y-99266458D01*
X161080920Y-99130731D01*
X161080919Y-99130730D01*
X161080916Y-99130724D01*
X160999301Y-99008580D01*
X160999298Y-99008576D01*
X160895423Y-98904701D01*
X160895419Y-98904698D01*
X160773275Y-98823083D01*
X160773266Y-98823078D01*
X160637544Y-98766861D01*
X160637545Y-98766861D01*
X160637542Y-98766860D01*
X160637538Y-98766859D01*
X160637534Y-98766858D01*
X160493459Y-98738200D01*
X160493455Y-98738200D01*
X160346545Y-98738200D01*
X160346540Y-98738200D01*
X160202465Y-98766858D01*
X160202455Y-98766861D01*
X160066733Y-98823078D01*
X160066724Y-98823083D01*
X159944580Y-98904698D01*
X159944576Y-98904701D01*
X159840701Y-99008576D01*
X159840698Y-99008580D01*
X159759083Y-99130724D01*
X159759078Y-99130733D01*
X159702861Y-99266455D01*
X159702858Y-99266465D01*
X159674200Y-99410540D01*
X104646622Y-99410540D01*
X104646622Y-99035412D01*
X104654746Y-99007741D01*
X104660002Y-98979384D01*
X104665284Y-98971853D01*
X104666307Y-98968373D01*
X104680260Y-98950496D01*
X104691601Y-98938438D01*
X104691610Y-98938419D01*
X104692780Y-98937173D01*
X105203018Y-98394540D01*
X164754200Y-98394540D01*
X164754200Y-98541459D01*
X164782858Y-98685534D01*
X164782861Y-98685544D01*
X164839078Y-98821266D01*
X164839083Y-98821275D01*
X164920698Y-98943419D01*
X164920701Y-98943423D01*
X165024576Y-99047298D01*
X165024580Y-99047301D01*
X165146724Y-99128916D01*
X165146730Y-99128919D01*
X165146731Y-99128920D01*
X165282458Y-99185140D01*
X165426540Y-99213799D01*
X165426544Y-99213800D01*
X165426545Y-99213800D01*
X165573456Y-99213800D01*
X165573457Y-99213799D01*
X165717542Y-99185140D01*
X165853269Y-99128920D01*
X165975420Y-99047301D01*
X166079301Y-98943420D01*
X166160920Y-98821269D01*
X166217140Y-98685542D01*
X166245800Y-98541455D01*
X166245800Y-98394545D01*
X166217140Y-98250458D01*
X166160920Y-98114731D01*
X166160919Y-98114730D01*
X166160916Y-98114724D01*
X166079301Y-97992580D01*
X166079298Y-97992576D01*
X165975423Y-97888701D01*
X165975419Y-97888698D01*
X165853275Y-97807083D01*
X165853266Y-97807078D01*
X165717544Y-97750861D01*
X165717545Y-97750861D01*
X165717542Y-97750860D01*
X165717538Y-97750859D01*
X165717534Y-97750858D01*
X165573459Y-97722200D01*
X165573455Y-97722200D01*
X165426545Y-97722200D01*
X165426540Y-97722200D01*
X165282465Y-97750858D01*
X165282455Y-97750861D01*
X165146733Y-97807078D01*
X165146724Y-97807083D01*
X165024580Y-97888698D01*
X165024576Y-97888701D01*
X164920701Y-97992576D01*
X164920698Y-97992580D01*
X164839083Y-98114724D01*
X164839078Y-98114733D01*
X164782861Y-98250455D01*
X164782858Y-98250465D01*
X164754200Y-98394540D01*
X105203018Y-98394540D01*
X106202116Y-97332008D01*
X156233720Y-97332008D01*
X156233720Y-97499551D01*
X156266402Y-97663854D01*
X156266404Y-97663862D01*
X156330515Y-97818640D01*
X156423593Y-97957942D01*
X156542057Y-98076406D01*
X156599415Y-98114731D01*
X156681357Y-98169483D01*
X156836138Y-98233596D01*
X157000448Y-98266279D01*
X157000452Y-98266280D01*
X157000453Y-98266280D01*
X157167988Y-98266280D01*
X157167988Y-98266279D01*
X157332302Y-98233596D01*
X157487083Y-98169483D01*
X157626382Y-98076406D01*
X157744846Y-97957942D01*
X157837923Y-97818643D01*
X157902036Y-97663862D01*
X157934720Y-97499547D01*
X157934720Y-97332013D01*
X157902036Y-97167698D01*
X157837923Y-97012917D01*
X157806757Y-96966274D01*
X157744846Y-96873617D01*
X157626382Y-96755153D01*
X157487080Y-96662075D01*
X157332302Y-96597964D01*
X157332294Y-96597962D01*
X157167991Y-96565280D01*
X157167987Y-96565280D01*
X157000453Y-96565280D01*
X157000448Y-96565280D01*
X156836145Y-96597962D01*
X156836137Y-96597964D01*
X156681359Y-96662075D01*
X156542057Y-96755153D01*
X156423593Y-96873617D01*
X156330515Y-97012919D01*
X156266404Y-97167697D01*
X156266402Y-97167705D01*
X156233720Y-97332008D01*
X106202116Y-97332008D01*
X107063223Y-96416228D01*
X158649500Y-96416228D01*
X158649500Y-96583771D01*
X158682182Y-96748074D01*
X158682184Y-96748082D01*
X158746295Y-96902860D01*
X158839373Y-97042162D01*
X158957837Y-97160626D01*
X158968432Y-97167705D01*
X159097137Y-97253703D01*
X159251918Y-97317816D01*
X159416228Y-97350499D01*
X159416232Y-97350500D01*
X159416233Y-97350500D01*
X159583768Y-97350500D01*
X159583769Y-97350499D01*
X159748082Y-97317816D01*
X159902863Y-97253703D01*
X160042162Y-97160626D01*
X160160626Y-97042162D01*
X160253703Y-96902863D01*
X160317816Y-96748082D01*
X160350500Y-96583767D01*
X160350500Y-96416233D01*
X160350499Y-96416228D01*
X162149500Y-96416228D01*
X162149500Y-96583771D01*
X162182182Y-96748074D01*
X162182184Y-96748082D01*
X162246295Y-96902860D01*
X162339373Y-97042162D01*
X162457837Y-97160626D01*
X162468432Y-97167705D01*
X162597137Y-97253703D01*
X162751918Y-97317816D01*
X162916228Y-97350499D01*
X162916232Y-97350500D01*
X162916233Y-97350500D01*
X163083768Y-97350500D01*
X163083769Y-97350499D01*
X163248082Y-97317816D01*
X163402863Y-97253703D01*
X163542162Y-97160626D01*
X163542165Y-97160623D01*
X163662319Y-97040470D01*
X163723642Y-97006985D01*
X163793334Y-97011969D01*
X163837681Y-97040470D01*
X163957837Y-97160626D01*
X163968432Y-97167705D01*
X164097137Y-97253703D01*
X164251918Y-97317816D01*
X164416228Y-97350499D01*
X164416232Y-97350500D01*
X164416233Y-97350500D01*
X164583768Y-97350500D01*
X164583769Y-97350499D01*
X164748082Y-97317816D01*
X164902863Y-97253703D01*
X165042162Y-97160626D01*
X165160626Y-97042162D01*
X165253703Y-96902863D01*
X165317816Y-96748082D01*
X165350500Y-96583767D01*
X165350500Y-96416233D01*
X165317816Y-96251918D01*
X165253703Y-96097137D01*
X165184131Y-95993015D01*
X165160626Y-95957837D01*
X165042162Y-95839373D01*
X164902860Y-95746295D01*
X164748082Y-95682184D01*
X164748074Y-95682182D01*
X164583771Y-95649500D01*
X164583767Y-95649500D01*
X164416233Y-95649500D01*
X164416228Y-95649500D01*
X164251925Y-95682182D01*
X164251917Y-95682184D01*
X164097139Y-95746295D01*
X163957837Y-95839373D01*
X163957834Y-95839376D01*
X163837681Y-95959530D01*
X163776358Y-95993015D01*
X163706666Y-95988031D01*
X163662319Y-95959530D01*
X163542162Y-95839373D01*
X163402860Y-95746295D01*
X163248082Y-95682184D01*
X163248074Y-95682182D01*
X163083771Y-95649500D01*
X163083767Y-95649500D01*
X162916233Y-95649500D01*
X162916228Y-95649500D01*
X162751925Y-95682182D01*
X162751917Y-95682184D01*
X162597139Y-95746295D01*
X162457837Y-95839373D01*
X162339373Y-95957837D01*
X162246295Y-96097139D01*
X162182184Y-96251917D01*
X162182182Y-96251925D01*
X162149500Y-96416228D01*
X160350499Y-96416228D01*
X160317816Y-96251918D01*
X160253703Y-96097137D01*
X160184131Y-95993015D01*
X160160626Y-95957837D01*
X160042162Y-95839373D01*
X159902860Y-95746295D01*
X159748082Y-95682184D01*
X159748074Y-95682182D01*
X159583771Y-95649500D01*
X159583767Y-95649500D01*
X159416233Y-95649500D01*
X159416228Y-95649500D01*
X159251925Y-95682182D01*
X159251917Y-95682184D01*
X159097139Y-95746295D01*
X158957837Y-95839373D01*
X158839373Y-95957837D01*
X158746295Y-96097139D01*
X158682184Y-96251917D01*
X158682182Y-96251925D01*
X158649500Y-96416228D01*
X107063223Y-96416228D01*
X107518218Y-95932345D01*
X107524337Y-95925848D01*
X107524338Y-95925849D01*
X107576441Y-95870530D01*
X107662640Y-95745352D01*
X107728944Y-95608590D01*
X107773830Y-95463383D01*
X107796271Y-95313063D01*
X107795953Y-95238272D01*
X107787588Y-92753704D01*
X107784769Y-91916228D01*
X148649500Y-91916228D01*
X148649500Y-92083771D01*
X148682182Y-92248074D01*
X148682184Y-92248082D01*
X148746295Y-92402860D01*
X148839373Y-92542162D01*
X148957837Y-92660626D01*
X149050494Y-92722537D01*
X149097137Y-92753703D01*
X149251918Y-92817816D01*
X149416228Y-92850499D01*
X149416232Y-92850500D01*
X149416233Y-92850500D01*
X149583768Y-92850500D01*
X149583769Y-92850499D01*
X149748082Y-92817816D01*
X149902863Y-92753703D01*
X150042162Y-92660626D01*
X150160626Y-92542162D01*
X150253703Y-92402863D01*
X150317816Y-92248082D01*
X150350500Y-92083767D01*
X150350500Y-91916233D01*
X150317816Y-91751918D01*
X150253703Y-91597137D01*
X150222537Y-91550494D01*
X150160626Y-91457837D01*
X150042162Y-91339373D01*
X149902860Y-91246295D01*
X149748082Y-91182184D01*
X149748074Y-91182182D01*
X149583771Y-91149500D01*
X149583767Y-91149500D01*
X149416233Y-91149500D01*
X149416228Y-91149500D01*
X149251925Y-91182182D01*
X149251917Y-91182184D01*
X149097139Y-91246295D01*
X148957837Y-91339373D01*
X148839373Y-91457837D01*
X148746295Y-91597139D01*
X148682184Y-91751917D01*
X148682182Y-91751925D01*
X148649500Y-91916228D01*
X107784769Y-91916228D01*
X107784750Y-91910558D01*
X107779719Y-90416228D01*
X142149500Y-90416228D01*
X142149500Y-90583771D01*
X142182182Y-90748074D01*
X142182184Y-90748082D01*
X142246295Y-90902860D01*
X142339373Y-91042162D01*
X142457837Y-91160626D01*
X142550494Y-91222537D01*
X142597137Y-91253703D01*
X142751918Y-91317816D01*
X142916228Y-91350499D01*
X142916232Y-91350500D01*
X142916233Y-91350500D01*
X143083768Y-91350500D01*
X143083769Y-91350499D01*
X143248082Y-91317816D01*
X143402863Y-91253703D01*
X143542162Y-91160626D01*
X143660626Y-91042162D01*
X143753703Y-90902863D01*
X143817816Y-90748082D01*
X143850500Y-90583767D01*
X143850500Y-90416233D01*
X143850499Y-90416228D01*
X166649500Y-90416228D01*
X166649500Y-90583771D01*
X166682182Y-90748074D01*
X166682184Y-90748082D01*
X166746295Y-90902860D01*
X166839373Y-91042162D01*
X166957837Y-91160626D01*
X167050494Y-91222537D01*
X167097137Y-91253703D01*
X167251918Y-91317816D01*
X167416228Y-91350499D01*
X167416232Y-91350500D01*
X167416233Y-91350500D01*
X167583768Y-91350500D01*
X167583769Y-91350499D01*
X167748082Y-91317816D01*
X167902863Y-91253703D01*
X168042162Y-91160626D01*
X168160626Y-91042162D01*
X168253703Y-90902863D01*
X168317816Y-90748082D01*
X168350500Y-90583767D01*
X168350500Y-90416233D01*
X168317816Y-90251918D01*
X168253703Y-90097137D01*
X168222537Y-90050494D01*
X168160626Y-89957837D01*
X168042162Y-89839373D01*
X167902860Y-89746295D01*
X167748082Y-89682184D01*
X167748074Y-89682182D01*
X167583771Y-89649500D01*
X167583767Y-89649500D01*
X167416233Y-89649500D01*
X167416228Y-89649500D01*
X167251925Y-89682182D01*
X167251917Y-89682184D01*
X167097139Y-89746295D01*
X166957837Y-89839373D01*
X166839373Y-89957837D01*
X166746295Y-90097139D01*
X166682184Y-90251917D01*
X166682182Y-90251925D01*
X166649500Y-90416228D01*
X143850499Y-90416228D01*
X143817816Y-90251918D01*
X143753703Y-90097137D01*
X143722537Y-90050494D01*
X143660626Y-89957837D01*
X143542162Y-89839373D01*
X143402860Y-89746295D01*
X143248082Y-89682184D01*
X143248074Y-89682182D01*
X143083771Y-89649500D01*
X143083767Y-89649500D01*
X142916233Y-89649500D01*
X142916228Y-89649500D01*
X142751925Y-89682182D01*
X142751917Y-89682184D01*
X142597139Y-89746295D01*
X142457837Y-89839373D01*
X142339373Y-89957837D01*
X142246295Y-90097139D01*
X142182184Y-90251917D01*
X142182182Y-90251925D01*
X142149500Y-90416228D01*
X107779719Y-90416228D01*
X107779700Y-90410558D01*
X107770257Y-87605739D01*
X107767019Y-86643822D01*
X107753571Y-82649443D01*
X110105622Y-82649443D01*
X110105622Y-82856382D01*
X110145990Y-83059325D01*
X110145992Y-83059333D01*
X110224279Y-83248335D01*
X110225181Y-83250511D01*
X110270153Y-83317817D01*
X110340146Y-83422570D01*
X110486463Y-83568887D01*
X110486471Y-83568893D01*
X110607573Y-83649811D01*
X110652379Y-83703423D01*
X110661086Y-83772748D01*
X110630932Y-83835775D01*
X110607573Y-83856015D01*
X110486471Y-83936932D01*
X110486463Y-83936938D01*
X110340146Y-84083255D01*
X110225180Y-84255316D01*
X110145992Y-84446492D01*
X110145990Y-84446500D01*
X110105622Y-84649443D01*
X110105622Y-84856382D01*
X110142576Y-85042162D01*
X110145992Y-85059333D01*
X110225181Y-85250511D01*
X110270153Y-85317817D01*
X110340146Y-85422570D01*
X110486463Y-85568887D01*
X110486471Y-85568893D01*
X110608022Y-85650111D01*
X110652828Y-85703723D01*
X110661535Y-85773048D01*
X110631381Y-85836075D01*
X110611119Y-85853631D01*
X110611054Y-85854291D01*
X111109676Y-86352913D01*
X111103461Y-86352913D01*
X111001728Y-86380172D01*
X110910516Y-86432833D01*
X110836042Y-86507307D01*
X110783381Y-86598519D01*
X110756122Y-86700252D01*
X110756122Y-86706467D01*
X110257500Y-86207845D01*
X110257499Y-86207845D01*
X110225627Y-86255544D01*
X110225622Y-86255554D01*
X110146472Y-86446638D01*
X110146470Y-86446646D01*
X110106122Y-86649492D01*
X110106122Y-86856333D01*
X110146470Y-87059179D01*
X110146472Y-87059187D01*
X110225622Y-87250272D01*
X110257499Y-87297980D01*
X110257500Y-87297980D01*
X110756122Y-86799358D01*
X110756122Y-86805574D01*
X110783381Y-86907307D01*
X110836042Y-86998519D01*
X110910516Y-87072993D01*
X111001728Y-87125654D01*
X111103461Y-87152913D01*
X111109676Y-87152913D01*
X110611053Y-87651533D01*
X110611054Y-87651534D01*
X110658755Y-87683408D01*
X110658761Y-87683411D01*
X110849847Y-87762562D01*
X110849855Y-87762564D01*
X111052701Y-87802912D01*
X111052705Y-87802913D01*
X111259539Y-87802913D01*
X111259542Y-87802912D01*
X111462388Y-87762564D01*
X111462396Y-87762562D01*
X111653488Y-87683408D01*
X111701188Y-87651534D01*
X111701189Y-87651533D01*
X111202569Y-87152913D01*
X111208783Y-87152913D01*
X111310516Y-87125654D01*
X111401728Y-87072993D01*
X111476202Y-86998519D01*
X111528863Y-86907307D01*
X111556122Y-86805574D01*
X111556122Y-86799360D01*
X112054742Y-87297980D01*
X112054743Y-87297979D01*
X112086617Y-87250279D01*
X112165771Y-87059187D01*
X112165773Y-87059179D01*
X112194208Y-86916228D01*
X156149500Y-86916228D01*
X156149500Y-87083771D01*
X156182182Y-87248074D01*
X156182184Y-87248082D01*
X156246295Y-87402860D01*
X156339373Y-87542162D01*
X156457837Y-87660626D01*
X156550494Y-87722537D01*
X156597137Y-87753703D01*
X156751918Y-87817816D01*
X156903876Y-87848042D01*
X156916228Y-87850499D01*
X156916232Y-87850500D01*
X156916233Y-87850500D01*
X157083768Y-87850500D01*
X157083769Y-87850499D01*
X157248082Y-87817816D01*
X157402863Y-87753703D01*
X157542162Y-87660626D01*
X157660626Y-87542162D01*
X157753703Y-87402863D01*
X157817816Y-87248082D01*
X157850500Y-87083767D01*
X157850500Y-86916233D01*
X157817816Y-86751918D01*
X157768227Y-86632201D01*
X157753704Y-86597139D01*
X157660626Y-86457837D01*
X157542162Y-86339373D01*
X157402860Y-86246295D01*
X157248082Y-86182184D01*
X157248074Y-86182182D01*
X157083771Y-86149500D01*
X157083767Y-86149500D01*
X156916233Y-86149500D01*
X156916228Y-86149500D01*
X156751925Y-86182182D01*
X156751917Y-86182184D01*
X156597139Y-86246295D01*
X156457837Y-86339373D01*
X156339373Y-86457837D01*
X156246295Y-86597139D01*
X156182184Y-86751917D01*
X156182182Y-86751925D01*
X156149500Y-86916228D01*
X112194208Y-86916228D01*
X112200225Y-86885979D01*
X112200230Y-86885951D01*
X112206122Y-86856327D01*
X112206122Y-86649496D01*
X112206121Y-86649492D01*
X112165773Y-86446646D01*
X112165771Y-86446638D01*
X112086620Y-86255552D01*
X112086617Y-86255546D01*
X112054743Y-86207845D01*
X112054742Y-86207844D01*
X111556122Y-86706465D01*
X111556122Y-86700252D01*
X111528863Y-86598519D01*
X111476202Y-86507307D01*
X111401728Y-86432833D01*
X111310516Y-86380172D01*
X111208783Y-86352913D01*
X111202569Y-86352913D01*
X111701189Y-85854291D01*
X111701010Y-85852476D01*
X111659414Y-85802702D01*
X111650707Y-85733377D01*
X111680862Y-85670350D01*
X111704213Y-85650115D01*
X111825777Y-85568890D01*
X111972099Y-85422568D01*
X111976335Y-85416228D01*
X120149500Y-85416228D01*
X120149500Y-85583771D01*
X120182182Y-85748074D01*
X120182184Y-85748082D01*
X120246295Y-85902860D01*
X120339373Y-86042162D01*
X120457837Y-86160626D01*
X120528504Y-86207844D01*
X120597137Y-86253703D01*
X120597138Y-86253703D01*
X120597139Y-86253704D01*
X120632201Y-86268227D01*
X120751918Y-86317816D01*
X120916228Y-86350499D01*
X120916232Y-86350500D01*
X120916233Y-86350500D01*
X121083768Y-86350500D01*
X121083769Y-86350499D01*
X121248082Y-86317816D01*
X121402863Y-86253703D01*
X121542162Y-86160626D01*
X121660626Y-86042162D01*
X121753703Y-85902863D01*
X121817816Y-85748082D01*
X121850500Y-85583767D01*
X121850500Y-85416233D01*
X121817816Y-85251918D01*
X121753703Y-85097137D01*
X121716970Y-85042162D01*
X121660626Y-84957837D01*
X121542162Y-84839373D01*
X121402860Y-84746295D01*
X121248082Y-84682184D01*
X121248074Y-84682182D01*
X121083771Y-84649500D01*
X121083767Y-84649500D01*
X120916233Y-84649500D01*
X120916228Y-84649500D01*
X120751925Y-84682182D01*
X120751917Y-84682184D01*
X120597139Y-84746295D01*
X120457837Y-84839373D01*
X120339373Y-84957837D01*
X120246295Y-85097139D01*
X120182184Y-85251917D01*
X120182182Y-85251925D01*
X120149500Y-85416228D01*
X111976335Y-85416228D01*
X112087063Y-85250511D01*
X112166252Y-85059333D01*
X112206622Y-84856378D01*
X112206622Y-84649448D01*
X112166252Y-84446493D01*
X112087063Y-84255315D01*
X111972099Y-84083258D01*
X111972097Y-84083255D01*
X111825779Y-83936937D01*
X111751193Y-83887101D01*
X111704668Y-83856014D01*
X111659864Y-83802404D01*
X111651157Y-83733079D01*
X111681311Y-83670051D01*
X111704669Y-83649811D01*
X111825777Y-83568890D01*
X111972099Y-83422568D01*
X112087063Y-83250511D01*
X112166252Y-83059333D01*
X112206622Y-82856378D01*
X112206622Y-82649448D01*
X112166252Y-82446493D01*
X112087063Y-82255315D01*
X111972099Y-82083258D01*
X111972097Y-82083255D01*
X111825779Y-81936937D01*
X111679764Y-81839374D01*
X111653720Y-81821972D01*
X111643684Y-81817815D01*
X111462542Y-81742783D01*
X111462534Y-81742781D01*
X111259591Y-81702413D01*
X111259587Y-81702413D01*
X111052657Y-81702413D01*
X111052652Y-81702413D01*
X110849709Y-81742781D01*
X110849701Y-81742783D01*
X110658525Y-81821971D01*
X110486464Y-81936937D01*
X110340146Y-82083255D01*
X110225180Y-82255316D01*
X110145992Y-82446492D01*
X110145990Y-82446500D01*
X110105622Y-82649443D01*
X107753571Y-82649443D01*
X107753552Y-82643773D01*
X107746838Y-80649500D01*
X107737921Y-78001045D01*
X107737956Y-78000925D01*
X107737921Y-78000926D01*
X107737921Y-78000924D01*
X107737782Y-77942307D01*
X107714356Y-77792190D01*
X107668531Y-77647331D01*
X107601358Y-77511053D01*
X107514378Y-77386480D01*
X107461935Y-77331518D01*
X107459670Y-77329140D01*
X106700897Y-76532502D01*
X123920622Y-76532502D01*
X123920622Y-77043323D01*
X123960699Y-77552554D01*
X123960699Y-77552555D01*
X124009523Y-77860812D01*
X124040608Y-78057076D01*
X124159854Y-78553773D01*
X124159858Y-78553784D01*
X124317700Y-79039577D01*
X124450553Y-79360311D01*
X124513182Y-79511511D01*
X124745085Y-79966646D01*
X124745090Y-79966654D01*
X124745092Y-79966658D01*
X124745095Y-79966665D01*
X124919904Y-80251925D01*
X125011983Y-80402184D01*
X125153626Y-80597139D01*
X125312224Y-80815431D01*
X125312234Y-80815445D01*
X125607048Y-81160626D01*
X125643975Y-81203862D01*
X126005173Y-81565060D01*
X126005179Y-81565065D01*
X126393589Y-81896800D01*
X126393596Y-81896805D01*
X126806851Y-82197052D01*
X126909658Y-82260052D01*
X127242369Y-82463939D01*
X127242375Y-82463941D01*
X127242389Y-82463950D01*
X127697524Y-82695853D01*
X128115275Y-82868891D01*
X128169457Y-82891334D01*
X128292981Y-82931469D01*
X128655262Y-83049181D01*
X129151959Y-83168427D01*
X129656481Y-83248336D01*
X130165717Y-83288413D01*
X130165725Y-83288413D01*
X130676519Y-83288413D01*
X130676527Y-83288413D01*
X131185763Y-83248336D01*
X131690285Y-83168427D01*
X132186982Y-83049181D01*
X132596170Y-82916228D01*
X140649500Y-82916228D01*
X140649500Y-83083771D01*
X140682182Y-83248074D01*
X140682184Y-83248082D01*
X140746295Y-83402859D01*
X140746302Y-83402872D01*
X140765170Y-83431111D01*
X140786047Y-83497789D01*
X140767561Y-83565168D01*
X140765170Y-83568889D01*
X140746302Y-83597127D01*
X140746295Y-83597140D01*
X140682184Y-83751917D01*
X140682182Y-83751925D01*
X140649500Y-83916228D01*
X140649500Y-84083771D01*
X140682182Y-84248074D01*
X140682184Y-84248082D01*
X140746295Y-84402860D01*
X140839373Y-84542162D01*
X140957837Y-84660626D01*
X141041052Y-84716228D01*
X141097137Y-84753703D01*
X141251918Y-84817816D01*
X141416228Y-84850499D01*
X141416232Y-84850500D01*
X141416233Y-84850500D01*
X141583768Y-84850500D01*
X141583769Y-84850499D01*
X141748082Y-84817816D01*
X141902863Y-84753703D01*
X141997829Y-84690248D01*
X142064504Y-84669371D01*
X142131884Y-84687855D01*
X142178575Y-84739834D01*
X142181279Y-84745898D01*
X142246295Y-84902860D01*
X142339373Y-85042162D01*
X142457837Y-85160626D01*
X142521045Y-85202860D01*
X142597137Y-85253703D01*
X142751918Y-85317816D01*
X142840878Y-85335511D01*
X142916228Y-85350499D01*
X142916232Y-85350500D01*
X142916233Y-85350500D01*
X143083768Y-85350500D01*
X143083769Y-85350499D01*
X143248082Y-85317816D01*
X143402863Y-85253703D01*
X143542162Y-85160626D01*
X143660626Y-85042162D01*
X143753703Y-84902863D01*
X143817816Y-84748082D01*
X143850500Y-84583767D01*
X143850500Y-84416233D01*
X143817816Y-84251918D01*
X143753703Y-84097137D01*
X143722537Y-84050494D01*
X143660626Y-83957837D01*
X143542162Y-83839373D01*
X143402860Y-83746295D01*
X143248082Y-83682184D01*
X143248074Y-83682182D01*
X143083771Y-83649500D01*
X143083767Y-83649500D01*
X142916233Y-83649500D01*
X142916228Y-83649500D01*
X142751925Y-83682182D01*
X142751917Y-83682184D01*
X142597140Y-83746295D01*
X142502171Y-83809751D01*
X142484349Y-83815330D01*
X142468680Y-83825488D01*
X142451697Y-83825554D01*
X142435493Y-83830628D01*
X142417486Y-83825688D01*
X142398811Y-83825761D01*
X142384489Y-83816635D01*
X142368113Y-83812143D01*
X142355633Y-83798250D01*
X142339886Y-83788216D01*
X142324843Y-83763971D01*
X142321424Y-83760164D01*
X142320689Y-83758600D01*
X142317975Y-83752718D01*
X142317816Y-83751918D01*
X142253703Y-83597137D01*
X142229418Y-83560793D01*
X142225339Y-83551952D01*
X142221597Y-83526635D01*
X142213951Y-83502214D01*
X142216575Y-83492647D01*
X142215125Y-83482832D01*
X142225665Y-83459512D01*
X142232435Y-83434834D01*
X142234829Y-83431109D01*
X142253703Y-83402863D01*
X142317816Y-83248082D01*
X142317816Y-83248079D01*
X142318720Y-83245898D01*
X142362561Y-83191495D01*
X142428855Y-83169430D01*
X142496554Y-83186709D01*
X142502167Y-83190246D01*
X142597137Y-83253703D01*
X142751918Y-83317816D01*
X142916228Y-83350499D01*
X142916232Y-83350500D01*
X142916233Y-83350500D01*
X143083768Y-83350500D01*
X143083769Y-83350499D01*
X143248082Y-83317816D01*
X143402863Y-83253703D01*
X143542162Y-83160626D01*
X143660626Y-83042162D01*
X143753703Y-82902863D01*
X143817816Y-82748082D01*
X143850500Y-82583767D01*
X143850500Y-82416233D01*
X143817816Y-82251918D01*
X143761613Y-82116233D01*
X143761611Y-82116228D01*
X146549500Y-82116228D01*
X146549500Y-82283771D01*
X146582182Y-82448074D01*
X146582184Y-82448082D01*
X146646296Y-82602861D01*
X146646298Y-82602865D01*
X146731988Y-82731110D01*
X146752866Y-82797787D01*
X146734381Y-82865167D01*
X146731988Y-82868890D01*
X146646298Y-82997134D01*
X146646296Y-82997138D01*
X146582184Y-83151917D01*
X146582182Y-83151925D01*
X146549500Y-83316228D01*
X146549500Y-83483771D01*
X146582182Y-83648074D01*
X146582184Y-83648082D01*
X146646295Y-83802860D01*
X146739373Y-83942162D01*
X146809530Y-84012319D01*
X146843015Y-84073642D01*
X146838031Y-84143334D01*
X146809530Y-84187681D01*
X146739376Y-84257834D01*
X146739373Y-84257837D01*
X146646295Y-84397139D01*
X146582184Y-84551917D01*
X146582182Y-84551925D01*
X146549500Y-84716228D01*
X146549500Y-84883771D01*
X146582182Y-85048074D01*
X146582184Y-85048082D01*
X146646295Y-85202860D01*
X146739373Y-85342162D01*
X146857837Y-85460626D01*
X146928091Y-85507568D01*
X146997137Y-85553703D01*
X146997138Y-85553703D01*
X146997139Y-85553704D01*
X147029420Y-85567075D01*
X147151918Y-85617816D01*
X147314272Y-85650110D01*
X147316228Y-85650499D01*
X147316232Y-85650500D01*
X147316233Y-85650500D01*
X147483768Y-85650500D01*
X147483769Y-85650499D01*
X147648082Y-85617816D01*
X147752547Y-85574543D01*
X147822016Y-85567075D01*
X147847449Y-85574542D01*
X147951918Y-85617816D01*
X148114272Y-85650110D01*
X148116228Y-85650499D01*
X148116232Y-85650500D01*
X148116233Y-85650500D01*
X148283768Y-85650500D01*
X148283769Y-85650499D01*
X148448082Y-85617816D01*
X148602863Y-85553703D01*
X148742162Y-85460626D01*
X148860626Y-85342162D01*
X148953703Y-85202863D01*
X149017816Y-85048082D01*
X149050500Y-84883767D01*
X149050500Y-84716233D01*
X149017816Y-84551918D01*
X148961613Y-84416233D01*
X148953704Y-84397139D01*
X148860626Y-84257837D01*
X148790470Y-84187681D01*
X148756985Y-84126358D01*
X148761969Y-84056666D01*
X148790470Y-84012319D01*
X148860623Y-83942165D01*
X148860626Y-83942162D01*
X148864121Y-83936932D01*
X148953703Y-83802863D01*
X149017816Y-83648082D01*
X149050500Y-83483767D01*
X149050500Y-83316233D01*
X149017816Y-83151918D01*
X148953703Y-82997137D01*
X148868010Y-82868889D01*
X148847133Y-82802214D01*
X148865617Y-82734833D01*
X148868000Y-82731125D01*
X148953703Y-82602863D01*
X149017816Y-82448082D01*
X149024152Y-82416228D01*
X150649500Y-82416228D01*
X150649500Y-82583771D01*
X150682182Y-82748074D01*
X150682184Y-82748082D01*
X150746295Y-82902860D01*
X150839373Y-83042162D01*
X150957837Y-83160626D01*
X151032710Y-83210654D01*
X151097137Y-83253703D01*
X151251918Y-83317816D01*
X151416228Y-83350499D01*
X151416232Y-83350500D01*
X151416233Y-83350500D01*
X151583768Y-83350500D01*
X151583769Y-83350499D01*
X151748082Y-83317816D01*
X151902863Y-83253703D01*
X152042162Y-83160626D01*
X152086560Y-83116228D01*
X153799500Y-83116228D01*
X153799500Y-83283771D01*
X153832182Y-83448074D01*
X153832184Y-83448082D01*
X153896295Y-83602860D01*
X153989373Y-83742162D01*
X154112145Y-83864934D01*
X154110362Y-83866716D01*
X154143494Y-83915342D01*
X154149500Y-83953465D01*
X154149500Y-84083771D01*
X154182182Y-84248074D01*
X154182184Y-84248082D01*
X154246295Y-84402860D01*
X154339373Y-84542162D01*
X154457837Y-84660626D01*
X154541052Y-84716228D01*
X154597137Y-84753703D01*
X154751918Y-84817816D01*
X154916228Y-84850499D01*
X154916232Y-84850500D01*
X154916233Y-84850500D01*
X155083768Y-84850500D01*
X155083769Y-84850499D01*
X155248082Y-84817816D01*
X155402863Y-84753703D01*
X155431688Y-84734443D01*
X191670622Y-84734443D01*
X191670622Y-84941382D01*
X191710990Y-85144325D01*
X191710992Y-85144333D01*
X191790181Y-85335511D01*
X191844114Y-85416228D01*
X191905146Y-85507570D01*
X192051463Y-85653887D01*
X192051471Y-85653893D01*
X192172573Y-85734811D01*
X192217379Y-85788423D01*
X192226086Y-85857748D01*
X192195932Y-85920775D01*
X192172573Y-85941015D01*
X192051471Y-86021932D01*
X192051463Y-86021938D01*
X191905146Y-86168255D01*
X191790180Y-86340316D01*
X191710992Y-86531492D01*
X191710990Y-86531500D01*
X191670622Y-86734443D01*
X191670622Y-86941382D01*
X191710990Y-87144325D01*
X191710992Y-87144333D01*
X191790180Y-87335509D01*
X191905146Y-87507570D01*
X192051464Y-87653888D01*
X192051467Y-87653890D01*
X192223524Y-87768854D01*
X192414702Y-87848043D01*
X192617652Y-87888412D01*
X192617656Y-87888413D01*
X192617657Y-87888413D01*
X192824588Y-87888413D01*
X192824589Y-87888412D01*
X193027542Y-87848043D01*
X193218720Y-87768854D01*
X193390777Y-87653890D01*
X193537099Y-87507568D01*
X193652063Y-87335511D01*
X193731252Y-87144333D01*
X193771622Y-86941378D01*
X193771622Y-86734448D01*
X193731252Y-86531493D01*
X193652063Y-86340315D01*
X193537099Y-86168258D01*
X193537097Y-86168255D01*
X193390779Y-86021937D01*
X193344234Y-85990837D01*
X193269668Y-85941014D01*
X193224864Y-85887404D01*
X193216157Y-85818079D01*
X193246311Y-85755051D01*
X193269669Y-85734811D01*
X193390777Y-85653890D01*
X193537099Y-85507568D01*
X193652063Y-85335511D01*
X193731252Y-85144333D01*
X193771622Y-84941378D01*
X193771622Y-84734448D01*
X193731252Y-84531493D01*
X193652063Y-84340315D01*
X193537099Y-84168258D01*
X193537097Y-84168255D01*
X193390780Y-84021938D01*
X193390772Y-84021932D01*
X193269219Y-83940713D01*
X193224413Y-83887101D01*
X193215706Y-83817776D01*
X193245860Y-83754749D01*
X193266124Y-83737189D01*
X193266189Y-83736533D01*
X192767569Y-83237913D01*
X192773783Y-83237913D01*
X192875516Y-83210654D01*
X192966728Y-83157993D01*
X193041202Y-83083519D01*
X193093863Y-82992307D01*
X193121122Y-82890574D01*
X193121122Y-82884360D01*
X193619742Y-83382980D01*
X193619743Y-83382979D01*
X193651617Y-83335279D01*
X193730771Y-83144187D01*
X193730773Y-83144179D01*
X193771121Y-82941333D01*
X193771122Y-82941330D01*
X193771122Y-82734496D01*
X193771121Y-82734492D01*
X193730773Y-82531646D01*
X193730771Y-82531638D01*
X193651620Y-82340552D01*
X193651617Y-82340546D01*
X193619743Y-82292845D01*
X193619742Y-82292844D01*
X193121122Y-82791465D01*
X193121122Y-82785252D01*
X193093863Y-82683519D01*
X193041202Y-82592307D01*
X192966728Y-82517833D01*
X192875516Y-82465172D01*
X192773783Y-82437913D01*
X192767569Y-82437913D01*
X193266189Y-81939291D01*
X193266189Y-81939290D01*
X193218481Y-81907413D01*
X193027396Y-81828263D01*
X193027388Y-81828261D01*
X192824542Y-81787913D01*
X192617701Y-81787913D01*
X192414855Y-81828261D01*
X192414847Y-81828263D01*
X192223763Y-81907413D01*
X192223753Y-81907418D01*
X192176054Y-81939290D01*
X192176054Y-81939291D01*
X192674676Y-82437913D01*
X192668461Y-82437913D01*
X192566728Y-82465172D01*
X192475516Y-82517833D01*
X192401042Y-82592307D01*
X192348381Y-82683519D01*
X192321122Y-82785252D01*
X192321122Y-82791467D01*
X191822500Y-82292845D01*
X191822499Y-82292845D01*
X191790627Y-82340544D01*
X191790622Y-82340554D01*
X191711472Y-82531638D01*
X191711470Y-82531646D01*
X191671122Y-82734492D01*
X191671122Y-82941333D01*
X191711470Y-83144179D01*
X191711472Y-83144187D01*
X191790622Y-83335272D01*
X191822499Y-83382980D01*
X191822500Y-83382980D01*
X192321122Y-82884358D01*
X192321122Y-82890574D01*
X192348381Y-82992307D01*
X192401042Y-83083519D01*
X192475516Y-83157993D01*
X192566728Y-83210654D01*
X192668461Y-83237913D01*
X192674676Y-83237913D01*
X192176053Y-83736533D01*
X192176232Y-83738347D01*
X192217829Y-83788122D01*
X192226536Y-83857447D01*
X192196381Y-83920474D01*
X192173024Y-83940713D01*
X192051467Y-84021935D01*
X192051463Y-84021938D01*
X191905146Y-84168255D01*
X191790180Y-84340316D01*
X191710992Y-84531492D01*
X191710990Y-84531500D01*
X191670622Y-84734443D01*
X155431688Y-84734443D01*
X155542162Y-84660626D01*
X155542165Y-84660623D01*
X155562114Y-84640675D01*
X155660623Y-84542165D01*
X155660626Y-84542162D01*
X155667755Y-84531492D01*
X155753703Y-84402863D01*
X155817816Y-84248082D01*
X155850500Y-84083767D01*
X155850500Y-83916233D01*
X155817816Y-83751918D01*
X155753703Y-83597137D01*
X155706595Y-83526635D01*
X155660626Y-83457837D01*
X155537855Y-83335066D01*
X155539627Y-83333293D01*
X155506484Y-83284589D01*
X155500500Y-83246534D01*
X155500500Y-83116232D01*
X155500499Y-83116228D01*
X155489180Y-83059325D01*
X155467816Y-82951918D01*
X155403703Y-82797137D01*
X155362073Y-82734833D01*
X155310626Y-82657837D01*
X155192162Y-82539373D01*
X155052860Y-82446295D01*
X154898082Y-82382184D01*
X154898074Y-82382182D01*
X154733771Y-82349500D01*
X154733767Y-82349500D01*
X154566233Y-82349500D01*
X154566228Y-82349500D01*
X154401925Y-82382182D01*
X154401917Y-82382184D01*
X154247139Y-82446295D01*
X154107837Y-82539373D01*
X153989373Y-82657837D01*
X153896295Y-82797139D01*
X153832184Y-82951917D01*
X153832182Y-82951925D01*
X153799500Y-83116228D01*
X152086560Y-83116228D01*
X152160626Y-83042162D01*
X152160843Y-83041836D01*
X152161238Y-83041247D01*
X152161239Y-83041245D01*
X152193938Y-82992307D01*
X152253703Y-82902863D01*
X152317816Y-82748082D01*
X152350500Y-82583767D01*
X152350500Y-82416233D01*
X152344251Y-82384819D01*
X152350477Y-82315231D01*
X152393338Y-82260052D01*
X152397884Y-82257217D01*
X152397798Y-82257088D01*
X152509901Y-82182182D01*
X152542162Y-82160626D01*
X152660626Y-82042162D01*
X152753703Y-81902863D01*
X152817816Y-81748082D01*
X152850500Y-81583767D01*
X152850500Y-81416233D01*
X152817816Y-81251918D01*
X152753703Y-81097137D01*
X152744770Y-81083768D01*
X152674791Y-80979036D01*
X152674788Y-80979033D01*
X152660623Y-80957834D01*
X152619017Y-80916228D01*
X153149500Y-80916228D01*
X153149500Y-81083771D01*
X153182182Y-81248074D01*
X153182184Y-81248082D01*
X153246295Y-81402860D01*
X153339373Y-81542162D01*
X153457837Y-81660626D01*
X153493976Y-81684773D01*
X153597137Y-81753703D01*
X153751918Y-81817816D01*
X153916228Y-81850499D01*
X153916232Y-81850500D01*
X153916233Y-81850500D01*
X154083768Y-81850500D01*
X154083769Y-81850499D01*
X154248082Y-81817816D01*
X154402863Y-81753703D01*
X154542162Y-81660626D01*
X154660626Y-81542162D01*
X154753703Y-81402863D01*
X154817816Y-81248082D01*
X154850500Y-81083767D01*
X154850500Y-80916233D01*
X154817816Y-80751918D01*
X154753703Y-80597137D01*
X154702815Y-80520978D01*
X154660626Y-80457837D01*
X154542162Y-80339373D01*
X154402860Y-80246295D01*
X154248082Y-80182184D01*
X154248074Y-80182182D01*
X154083771Y-80149500D01*
X154083767Y-80149500D01*
X153916233Y-80149500D01*
X153916228Y-80149500D01*
X153751925Y-80182182D01*
X153751917Y-80182184D01*
X153597139Y-80246295D01*
X153457837Y-80339373D01*
X153339373Y-80457837D01*
X153246295Y-80597139D01*
X153182184Y-80751917D01*
X153182182Y-80751925D01*
X153149500Y-80916228D01*
X152619017Y-80916228D01*
X152542162Y-80839373D01*
X152402860Y-80746295D01*
X152248082Y-80682184D01*
X152248074Y-80682182D01*
X152083771Y-80649500D01*
X152083767Y-80649500D01*
X151916233Y-80649500D01*
X151916228Y-80649500D01*
X151751925Y-80682182D01*
X151751917Y-80682184D01*
X151597139Y-80746295D01*
X151457837Y-80839373D01*
X151339373Y-80957837D01*
X151246295Y-81097139D01*
X151182184Y-81251917D01*
X151182182Y-81251925D01*
X151149500Y-81416228D01*
X151149500Y-81583771D01*
X151155748Y-81615181D01*
X151149521Y-81684773D01*
X151106657Y-81739950D01*
X151102116Y-81742784D01*
X151102202Y-81742913D01*
X150957837Y-81839373D01*
X150839373Y-81957837D01*
X150746295Y-82097139D01*
X150682184Y-82251917D01*
X150682182Y-82251925D01*
X150649500Y-82416228D01*
X149024152Y-82416228D01*
X149050500Y-82283767D01*
X149050500Y-82116233D01*
X149017816Y-81951918D01*
X148953703Y-81797137D01*
X148898076Y-81713886D01*
X148860626Y-81657837D01*
X148742162Y-81539373D01*
X148602860Y-81446295D01*
X148448082Y-81382184D01*
X148448074Y-81382182D01*
X148283771Y-81349500D01*
X148283767Y-81349500D01*
X148116233Y-81349500D01*
X148116228Y-81349500D01*
X147951925Y-81382182D01*
X147951917Y-81382184D01*
X147847453Y-81425455D01*
X147777983Y-81432924D01*
X147752547Y-81425455D01*
X147648082Y-81382184D01*
X147648074Y-81382182D01*
X147483771Y-81349500D01*
X147483767Y-81349500D01*
X147316233Y-81349500D01*
X147316228Y-81349500D01*
X147151925Y-81382182D01*
X147151917Y-81382184D01*
X146997139Y-81446295D01*
X146857837Y-81539373D01*
X146739373Y-81657837D01*
X146646295Y-81797139D01*
X146582184Y-81951917D01*
X146582182Y-81951925D01*
X146549500Y-82116228D01*
X143761611Y-82116228D01*
X143753705Y-82097141D01*
X143753704Y-82097139D01*
X143660626Y-81957837D01*
X143542162Y-81839373D01*
X143402860Y-81746295D01*
X143248082Y-81682184D01*
X143248074Y-81682182D01*
X143083771Y-81649500D01*
X143083767Y-81649500D01*
X142916233Y-81649500D01*
X142916228Y-81649500D01*
X142751925Y-81682182D01*
X142751917Y-81682184D01*
X142597139Y-81746295D01*
X142457837Y-81839373D01*
X142339373Y-81957837D01*
X142246295Y-82097139D01*
X142181279Y-82254101D01*
X142137437Y-82308505D01*
X142071143Y-82330569D01*
X142003444Y-82313289D01*
X141997827Y-82309750D01*
X141902860Y-82246295D01*
X141748082Y-82182184D01*
X141748074Y-82182182D01*
X141583771Y-82149500D01*
X141583767Y-82149500D01*
X141416233Y-82149500D01*
X141416228Y-82149500D01*
X141251925Y-82182182D01*
X141251917Y-82182184D01*
X141097139Y-82246295D01*
X140957837Y-82339373D01*
X140839373Y-82457837D01*
X140746295Y-82597139D01*
X140682184Y-82751917D01*
X140682182Y-82751925D01*
X140649500Y-82916228D01*
X132596170Y-82916228D01*
X132672792Y-82891332D01*
X133144720Y-82695853D01*
X133599855Y-82463950D01*
X133599870Y-82463940D01*
X133599874Y-82463939D01*
X133801235Y-82340544D01*
X134035393Y-82197052D01*
X134448648Y-81896805D01*
X134837071Y-81565060D01*
X135198269Y-81203862D01*
X135530014Y-80815439D01*
X135820057Y-80416228D01*
X149335622Y-80416228D01*
X149335622Y-80583771D01*
X149368304Y-80748074D01*
X149368306Y-80748082D01*
X149432417Y-80902860D01*
X149525495Y-81042162D01*
X149643959Y-81160626D01*
X149708667Y-81203862D01*
X149783259Y-81253703D01*
X149938040Y-81317816D01*
X150097328Y-81349500D01*
X150102350Y-81350499D01*
X150102354Y-81350500D01*
X150102355Y-81350500D01*
X150269890Y-81350500D01*
X150269891Y-81350499D01*
X150434204Y-81317816D01*
X150588985Y-81253703D01*
X150728284Y-81160626D01*
X150846748Y-81042162D01*
X150939825Y-80902863D01*
X151003938Y-80748082D01*
X151036622Y-80583767D01*
X151036622Y-80416233D01*
X151003938Y-80251918D01*
X150939825Y-80097137D01*
X150908659Y-80050494D01*
X150846748Y-79957837D01*
X150728284Y-79839373D01*
X150588982Y-79746295D01*
X150434204Y-79682184D01*
X150434196Y-79682182D01*
X150269893Y-79649500D01*
X150269889Y-79649500D01*
X150102355Y-79649500D01*
X150102350Y-79649500D01*
X149938047Y-79682182D01*
X149938039Y-79682184D01*
X149783261Y-79746295D01*
X149643959Y-79839373D01*
X149525495Y-79957837D01*
X149432417Y-80097139D01*
X149368306Y-80251917D01*
X149368304Y-80251925D01*
X149335622Y-80416228D01*
X135820057Y-80416228D01*
X135830261Y-80402184D01*
X135835672Y-80393353D01*
X135865089Y-80345351D01*
X136097148Y-79966665D01*
X136097149Y-79966661D01*
X136097159Y-79966646D01*
X136329062Y-79511511D01*
X136524541Y-79039583D01*
X136682390Y-78553773D01*
X136801636Y-78057076D01*
X136881545Y-77552554D01*
X136921622Y-77043318D01*
X136921622Y-76532508D01*
X136908536Y-76366228D01*
X140274500Y-76366228D01*
X140274500Y-76533771D01*
X140307182Y-76698074D01*
X140307184Y-76698082D01*
X140371295Y-76852860D01*
X140464373Y-76992162D01*
X140582837Y-77110626D01*
X140675494Y-77172537D01*
X140722137Y-77203703D01*
X140876918Y-77267816D01*
X141041228Y-77300499D01*
X141041232Y-77300500D01*
X141041233Y-77300500D01*
X141208768Y-77300500D01*
X141208769Y-77300499D01*
X141373082Y-77267816D01*
X141527863Y-77203703D01*
X141667162Y-77110626D01*
X141785626Y-76992162D01*
X141878703Y-76852863D01*
X141942816Y-76698082D01*
X141975500Y-76533767D01*
X141975500Y-76532502D01*
X167420622Y-76532502D01*
X167420622Y-77043323D01*
X167460699Y-77552554D01*
X167460699Y-77552555D01*
X167509523Y-77860812D01*
X167540608Y-78057076D01*
X167659854Y-78553773D01*
X167659858Y-78553784D01*
X167817700Y-79039577D01*
X167950553Y-79360311D01*
X168013182Y-79511511D01*
X168245085Y-79966646D01*
X168245090Y-79966654D01*
X168245092Y-79966658D01*
X168245095Y-79966665D01*
X168419904Y-80251925D01*
X168511983Y-80402184D01*
X168653626Y-80597139D01*
X168812224Y-80815431D01*
X168812234Y-80815445D01*
X169107048Y-81160626D01*
X169143975Y-81203862D01*
X169505173Y-81565060D01*
X169505179Y-81565065D01*
X169893589Y-81896800D01*
X169893596Y-81896805D01*
X170306851Y-82197052D01*
X170409658Y-82260052D01*
X170742369Y-82463939D01*
X170742375Y-82463941D01*
X170742389Y-82463950D01*
X171197524Y-82695853D01*
X171615275Y-82868891D01*
X171669457Y-82891334D01*
X171792981Y-82931469D01*
X172155262Y-83049181D01*
X172651959Y-83168427D01*
X173156481Y-83248336D01*
X173665717Y-83288413D01*
X173665725Y-83288413D01*
X174176519Y-83288413D01*
X174176527Y-83288413D01*
X174685763Y-83248336D01*
X175190285Y-83168427D01*
X175686982Y-83049181D01*
X176172792Y-82891332D01*
X176644720Y-82695853D01*
X177099855Y-82463950D01*
X177099870Y-82463940D01*
X177099874Y-82463939D01*
X177301235Y-82340544D01*
X177535393Y-82197052D01*
X177948648Y-81896805D01*
X178337071Y-81565060D01*
X178698269Y-81203862D01*
X179030014Y-80815439D01*
X179330261Y-80402184D01*
X179517194Y-80097137D01*
X179597148Y-79966665D01*
X179597149Y-79966661D01*
X179597159Y-79966646D01*
X179829062Y-79511511D01*
X180024541Y-79039583D01*
X180182390Y-78553773D01*
X180301636Y-78057076D01*
X180381545Y-77552554D01*
X180421622Y-77043318D01*
X180421622Y-76532508D01*
X180381545Y-76023272D01*
X180301636Y-75518750D01*
X180182390Y-75022053D01*
X180051045Y-74617815D01*
X180024543Y-74536248D01*
X179886449Y-74202860D01*
X179829062Y-74064315D01*
X179597159Y-73609180D01*
X179597150Y-73609166D01*
X179597148Y-73609160D01*
X179375873Y-73248074D01*
X179330261Y-73173642D01*
X179030014Y-72760387D01*
X179030009Y-72760380D01*
X178698274Y-72371970D01*
X178698269Y-72371964D01*
X178337071Y-72010766D01*
X178337064Y-72010760D01*
X177948654Y-71679025D01*
X177948640Y-71679015D01*
X177535394Y-71378775D01*
X177535393Y-71378774D01*
X177489252Y-71350499D01*
X177099874Y-71111886D01*
X177099867Y-71111883D01*
X177099863Y-71111881D01*
X177099855Y-71111876D01*
X176644720Y-70879973D01*
X176493520Y-70817344D01*
X176172786Y-70684491D01*
X175792618Y-70560968D01*
X175686982Y-70526645D01*
X175227061Y-70416228D01*
X190149500Y-70416228D01*
X190149500Y-70583771D01*
X190182182Y-70748074D01*
X190182184Y-70748082D01*
X190246295Y-70902860D01*
X190339373Y-71042162D01*
X190457837Y-71160626D01*
X190550494Y-71222537D01*
X190597137Y-71253703D01*
X190751918Y-71317816D01*
X190916228Y-71350499D01*
X190916232Y-71350500D01*
X190916233Y-71350500D01*
X191083768Y-71350500D01*
X191083769Y-71350499D01*
X191248082Y-71317816D01*
X191402863Y-71253703D01*
X191542162Y-71160626D01*
X191660626Y-71042162D01*
X191753703Y-70902863D01*
X191817816Y-70748082D01*
X191850500Y-70583767D01*
X191850500Y-70416233D01*
X191817816Y-70251918D01*
X191753703Y-70097137D01*
X191722537Y-70050494D01*
X191660626Y-69957837D01*
X191542162Y-69839373D01*
X191402860Y-69746295D01*
X191248082Y-69682184D01*
X191248074Y-69682182D01*
X191083771Y-69649500D01*
X191083767Y-69649500D01*
X190916233Y-69649500D01*
X190916228Y-69649500D01*
X190751925Y-69682182D01*
X190751917Y-69682184D01*
X190597139Y-69746295D01*
X190457837Y-69839373D01*
X190339373Y-69957837D01*
X190246295Y-70097139D01*
X190182184Y-70251917D01*
X190182182Y-70251925D01*
X190149500Y-70416228D01*
X175227061Y-70416228D01*
X175190285Y-70407399D01*
X174685763Y-70327490D01*
X174176532Y-70287413D01*
X174176527Y-70287413D01*
X173665717Y-70287413D01*
X173665711Y-70287413D01*
X173156480Y-70327490D01*
X173156479Y-70327490D01*
X172651964Y-70407398D01*
X172651961Y-70407398D01*
X172651959Y-70407399D01*
X172615167Y-70416232D01*
X172155273Y-70526642D01*
X172155267Y-70526643D01*
X172155262Y-70526645D01*
X172155250Y-70526649D01*
X171669457Y-70684491D01*
X171197526Y-70879972D01*
X171197524Y-70879973D01*
X170742389Y-71111876D01*
X170742385Y-71111878D01*
X170742376Y-71111883D01*
X170742369Y-71111886D01*
X170306860Y-71378768D01*
X170306849Y-71378775D01*
X169893603Y-71679015D01*
X169893589Y-71679025D01*
X169505179Y-72010760D01*
X169505165Y-72010773D01*
X169143982Y-72371956D01*
X169143969Y-72371970D01*
X168812234Y-72760380D01*
X168812224Y-72760394D01*
X168511984Y-73173640D01*
X168511977Y-73173651D01*
X168245095Y-73609160D01*
X168245092Y-73609167D01*
X168245087Y-73609176D01*
X168245085Y-73609180D01*
X168105174Y-73883771D01*
X168013181Y-74064317D01*
X167817700Y-74536248D01*
X167659858Y-75022041D01*
X167659851Y-75022064D01*
X167540607Y-75518755D01*
X167460699Y-76023270D01*
X167460699Y-76023271D01*
X167420622Y-76532502D01*
X141975500Y-76532502D01*
X141975500Y-76366233D01*
X141942816Y-76201918D01*
X141878703Y-76047137D01*
X141847537Y-76000494D01*
X141785626Y-75907837D01*
X141667162Y-75789373D01*
X141527860Y-75696295D01*
X141373082Y-75632184D01*
X141373074Y-75632182D01*
X141208771Y-75599500D01*
X141208767Y-75599500D01*
X141041233Y-75599500D01*
X141041228Y-75599500D01*
X140876925Y-75632182D01*
X140876917Y-75632184D01*
X140722139Y-75696295D01*
X140582837Y-75789373D01*
X140464373Y-75907837D01*
X140371295Y-76047139D01*
X140307184Y-76201917D01*
X140307182Y-76201925D01*
X140274500Y-76366228D01*
X136908536Y-76366228D01*
X136881545Y-76023272D01*
X136801636Y-75518750D01*
X136682390Y-75022053D01*
X136551045Y-74617815D01*
X136524543Y-74536248D01*
X136386449Y-74202860D01*
X136329062Y-74064315D01*
X136151703Y-73716228D01*
X136749500Y-73716228D01*
X136749500Y-73883771D01*
X136782182Y-74048074D01*
X136782184Y-74048082D01*
X136846295Y-74202860D01*
X136939373Y-74342162D01*
X137057837Y-74460626D01*
X137095055Y-74485494D01*
X137197137Y-74553703D01*
X137351918Y-74617816D01*
X137516228Y-74650499D01*
X137516232Y-74650500D01*
X137516233Y-74650500D01*
X137683768Y-74650500D01*
X137683769Y-74650499D01*
X137848082Y-74617816D01*
X138002863Y-74553703D01*
X138142162Y-74460626D01*
X138260626Y-74342162D01*
X138353703Y-74202863D01*
X138417816Y-74048082D01*
X138450500Y-73883767D01*
X138450500Y-73716233D01*
X138417816Y-73551918D01*
X138353703Y-73397137D01*
X138322537Y-73350494D01*
X138260626Y-73257837D01*
X138142162Y-73139373D01*
X138002860Y-73046295D01*
X137950729Y-73024702D01*
X137848082Y-72982184D01*
X137848074Y-72982182D01*
X137683771Y-72949500D01*
X137683767Y-72949500D01*
X137516233Y-72949500D01*
X137516228Y-72949500D01*
X137351925Y-72982182D01*
X137351917Y-72982184D01*
X137197139Y-73046295D01*
X137057837Y-73139373D01*
X136939373Y-73257837D01*
X136846295Y-73397139D01*
X136782184Y-73551917D01*
X136782182Y-73551925D01*
X136749500Y-73716228D01*
X136151703Y-73716228D01*
X136097159Y-73609180D01*
X136097153Y-73609171D01*
X136097151Y-73609166D01*
X136097148Y-73609160D01*
X135875873Y-73248074D01*
X135830261Y-73173642D01*
X135643239Y-72916228D01*
X141349500Y-72916228D01*
X141349500Y-73083771D01*
X141382182Y-73248074D01*
X141382184Y-73248082D01*
X141446295Y-73402860D01*
X141539373Y-73542162D01*
X141657837Y-73660626D01*
X141741052Y-73716228D01*
X141797137Y-73753703D01*
X141951918Y-73817816D01*
X142116228Y-73850499D01*
X142116232Y-73850500D01*
X142116233Y-73850500D01*
X142283768Y-73850500D01*
X142283769Y-73850499D01*
X142448082Y-73817816D01*
X142602863Y-73753703D01*
X142742162Y-73660626D01*
X142860626Y-73542162D01*
X142953703Y-73402863D01*
X143017816Y-73248082D01*
X143050500Y-73083767D01*
X143050500Y-72916233D01*
X143017816Y-72751918D01*
X142953703Y-72597137D01*
X142922537Y-72550494D01*
X142860626Y-72457837D01*
X142742162Y-72339373D01*
X142602860Y-72246295D01*
X142448082Y-72182184D01*
X142448074Y-72182182D01*
X142283771Y-72149500D01*
X142283767Y-72149500D01*
X142116233Y-72149500D01*
X142116228Y-72149500D01*
X141951925Y-72182182D01*
X141951917Y-72182184D01*
X141797139Y-72246295D01*
X141657837Y-72339373D01*
X141539373Y-72457837D01*
X141446295Y-72597139D01*
X141382184Y-72751917D01*
X141382182Y-72751925D01*
X141349500Y-72916228D01*
X135643239Y-72916228D01*
X135530014Y-72760387D01*
X135530009Y-72760380D01*
X135198274Y-72371970D01*
X135198269Y-72371964D01*
X134837071Y-72010766D01*
X134837064Y-72010760D01*
X134448654Y-71679025D01*
X134448640Y-71679015D01*
X134035394Y-71378775D01*
X134035393Y-71378774D01*
X133989252Y-71350499D01*
X133599874Y-71111886D01*
X133599867Y-71111883D01*
X133599863Y-71111881D01*
X133599855Y-71111876D01*
X133144720Y-70879973D01*
X132993520Y-70817344D01*
X132672786Y-70684491D01*
X132327129Y-70572181D01*
X132186982Y-70526645D01*
X131690285Y-70407399D01*
X131185763Y-70327490D01*
X130676532Y-70287413D01*
X130676527Y-70287413D01*
X130165717Y-70287413D01*
X130165711Y-70287413D01*
X129656480Y-70327490D01*
X129656479Y-70327490D01*
X129151964Y-70407398D01*
X129151961Y-70407398D01*
X129151959Y-70407399D01*
X129115167Y-70416232D01*
X128655273Y-70526642D01*
X128655267Y-70526643D01*
X128655262Y-70526645D01*
X128655250Y-70526649D01*
X128169457Y-70684491D01*
X127697526Y-70879972D01*
X127697524Y-70879973D01*
X127242389Y-71111876D01*
X127242385Y-71111878D01*
X127242376Y-71111883D01*
X127242369Y-71111886D01*
X126806860Y-71378768D01*
X126806849Y-71378775D01*
X126393603Y-71679015D01*
X126393589Y-71679025D01*
X126005179Y-72010760D01*
X126005165Y-72010773D01*
X125643982Y-72371956D01*
X125643969Y-72371970D01*
X125312234Y-72760380D01*
X125312224Y-72760394D01*
X125011984Y-73173640D01*
X125011977Y-73173651D01*
X124745095Y-73609160D01*
X124745092Y-73609167D01*
X124745087Y-73609176D01*
X124745085Y-73609180D01*
X124605174Y-73883771D01*
X124513181Y-74064317D01*
X124317700Y-74536248D01*
X124159858Y-75022041D01*
X124159851Y-75022064D01*
X124040607Y-75518755D01*
X123960699Y-76023270D01*
X123960699Y-76023271D01*
X123920622Y-76532502D01*
X106700897Y-76532502D01*
X102394075Y-72010760D01*
X99439338Y-68908575D01*
X99363680Y-68829141D01*
X145070622Y-68829141D01*
X145070622Y-68996684D01*
X145103304Y-69160987D01*
X145103306Y-69160995D01*
X145167417Y-69315773D01*
X145260495Y-69455075D01*
X145378959Y-69573539D01*
X145471616Y-69635450D01*
X145518259Y-69666616D01*
X145673040Y-69730729D01*
X145837350Y-69763412D01*
X145837354Y-69763413D01*
X145837355Y-69763413D01*
X146004890Y-69763413D01*
X146004891Y-69763412D01*
X146169204Y-69730729D01*
X146323985Y-69666616D01*
X146463284Y-69573539D01*
X146581748Y-69455075D01*
X146674825Y-69315776D01*
X146738938Y-69160995D01*
X146771622Y-68996680D01*
X146771622Y-68829146D01*
X146738938Y-68664831D01*
X146674825Y-68510050D01*
X146643659Y-68463407D01*
X146581748Y-68370750D01*
X146463284Y-68252286D01*
X146323982Y-68159208D01*
X146169204Y-68095097D01*
X146169196Y-68095095D01*
X146004893Y-68062413D01*
X146004889Y-68062413D01*
X145837355Y-68062413D01*
X145837350Y-68062413D01*
X145673047Y-68095095D01*
X145673039Y-68095097D01*
X145518261Y-68159208D01*
X145378959Y-68252286D01*
X145260495Y-68370750D01*
X145167417Y-68510052D01*
X145103306Y-68664830D01*
X145103304Y-68664838D01*
X145070622Y-68829141D01*
X99363680Y-68829141D01*
X97838508Y-67227860D01*
X97375006Y-66741228D01*
X151174500Y-66741228D01*
X151174500Y-66908771D01*
X151207182Y-67073074D01*
X151207184Y-67073082D01*
X151271295Y-67227860D01*
X151364373Y-67367162D01*
X151482837Y-67485626D01*
X151575494Y-67547537D01*
X151622137Y-67578703D01*
X151776918Y-67642816D01*
X151941228Y-67675499D01*
X151941232Y-67675500D01*
X151941233Y-67675500D01*
X152108768Y-67675500D01*
X152108769Y-67675499D01*
X152273082Y-67642816D01*
X152427863Y-67578703D01*
X152567162Y-67485626D01*
X152685626Y-67367162D01*
X152778703Y-67227863D01*
X152842816Y-67073082D01*
X152875500Y-66908767D01*
X152875500Y-66741233D01*
X152842816Y-66576918D01*
X152793227Y-66457201D01*
X152778704Y-66422139D01*
X152685626Y-66282837D01*
X152567162Y-66164373D01*
X152427860Y-66071295D01*
X152273082Y-66007184D01*
X152273074Y-66007182D01*
X152108771Y-65974500D01*
X152108767Y-65974500D01*
X151941233Y-65974500D01*
X151941228Y-65974500D01*
X151776925Y-66007182D01*
X151776917Y-66007184D01*
X151622139Y-66071295D01*
X151482837Y-66164373D01*
X151364373Y-66282837D01*
X151271295Y-66422139D01*
X151207184Y-66576917D01*
X151207182Y-66576925D01*
X151174500Y-66741228D01*
X97375006Y-66741228D01*
X96916423Y-66259761D01*
X96916420Y-66259756D01*
X96905322Y-66248105D01*
X96887609Y-66213696D01*
X96873346Y-66185996D01*
X96873345Y-66185988D01*
X96873344Y-66185986D01*
X96873344Y-66185980D01*
X96871117Y-66162592D01*
X96871118Y-66146508D01*
X96871117Y-66146504D01*
X96871117Y-61002135D01*
X152349500Y-61002135D01*
X152349500Y-62797870D01*
X152349501Y-62797876D01*
X152355908Y-62857483D01*
X152406202Y-62992328D01*
X152406206Y-62992335D01*
X152492452Y-63107544D01*
X152492455Y-63107547D01*
X152607664Y-63193793D01*
X152607671Y-63193797D01*
X152739082Y-63242810D01*
X152795016Y-63284681D01*
X152819433Y-63350145D01*
X152804582Y-63418418D01*
X152783431Y-63446673D01*
X152669889Y-63560215D01*
X152544951Y-63732179D01*
X152448444Y-63921585D01*
X152382753Y-64123760D01*
X152349500Y-64333713D01*
X152349500Y-64546286D01*
X152382753Y-64756239D01*
X152448444Y-64958414D01*
X152544951Y-65147820D01*
X152669890Y-65319786D01*
X152820213Y-65470109D01*
X152992179Y-65595048D01*
X152992181Y-65595049D01*
X152992184Y-65595051D01*
X153181588Y-65691557D01*
X153383757Y-65757246D01*
X153593713Y-65790500D01*
X153593714Y-65790500D01*
X153806286Y-65790500D01*
X153806287Y-65790500D01*
X154016243Y-65757246D01*
X154218412Y-65691557D01*
X154407816Y-65595051D01*
X154429789Y-65579086D01*
X154579786Y-65470109D01*
X154579788Y-65470106D01*
X154579792Y-65470104D01*
X154730104Y-65319792D01*
X154730106Y-65319788D01*
X154730109Y-65319786D01*
X154855048Y-65147820D01*
X154855047Y-65147820D01*
X154855051Y-65147816D01*
X154951557Y-64958412D01*
X155017246Y-64756243D01*
X155050500Y-64546287D01*
X155050500Y-64333713D01*
X155017246Y-64123757D01*
X154951557Y-63921588D01*
X154855051Y-63732184D01*
X154855049Y-63732181D01*
X154855048Y-63732179D01*
X154730109Y-63560213D01*
X154616569Y-63446673D01*
X154583084Y-63385350D01*
X154588068Y-63315658D01*
X154629940Y-63259725D01*
X154660915Y-63242810D01*
X154792331Y-63193796D01*
X154907546Y-63107546D01*
X154993796Y-62992331D01*
X155044091Y-62857483D01*
X155050500Y-62797873D01*
X155050499Y-61002128D01*
X155044091Y-60942517D01*
X154993796Y-60807669D01*
X154993795Y-60807668D01*
X154993793Y-60807664D01*
X154907547Y-60692455D01*
X154907544Y-60692452D01*
X154792335Y-60606206D01*
X154792328Y-60606202D01*
X154657482Y-60555908D01*
X154657483Y-60555908D01*
X154597883Y-60549501D01*
X154597881Y-60549500D01*
X154597873Y-60549500D01*
X154597864Y-60549500D01*
X152802129Y-60549500D01*
X152802123Y-60549501D01*
X152742516Y-60555908D01*
X152607671Y-60606202D01*
X152607664Y-60606206D01*
X152492455Y-60692452D01*
X152492452Y-60692455D01*
X152406206Y-60807664D01*
X152406202Y-60807671D01*
X152355908Y-60942517D01*
X152349501Y-61002116D01*
X152349501Y-61002123D01*
X152349500Y-61002135D01*
X96871117Y-61002135D01*
X96871117Y-59429141D01*
X144770622Y-59429141D01*
X144770622Y-59596684D01*
X144803304Y-59760987D01*
X144803306Y-59760995D01*
X144867417Y-59915773D01*
X144960495Y-60055075D01*
X145078959Y-60173539D01*
X145171616Y-60235450D01*
X145218259Y-60266616D01*
X145373040Y-60330729D01*
X145537350Y-60363412D01*
X145537354Y-60363413D01*
X145537355Y-60363413D01*
X145704890Y-60363413D01*
X145704891Y-60363412D01*
X145869204Y-60330729D01*
X146023985Y-60266616D01*
X146163284Y-60173539D01*
X146281748Y-60055075D01*
X146374825Y-59915776D01*
X146438938Y-59760995D01*
X146471622Y-59596680D01*
X146471622Y-59429146D01*
X146438938Y-59264831D01*
X146374825Y-59110050D01*
X146343659Y-59063407D01*
X146281748Y-58970750D01*
X146163284Y-58852286D01*
X146023982Y-58759208D01*
X145869204Y-58695097D01*
X145869196Y-58695095D01*
X145704893Y-58662413D01*
X145704889Y-58662413D01*
X145537355Y-58662413D01*
X145537350Y-58662413D01*
X145373047Y-58695095D01*
X145373039Y-58695097D01*
X145218261Y-58759208D01*
X145078959Y-58852286D01*
X144960495Y-58970750D01*
X144867417Y-59110052D01*
X144803306Y-59264830D01*
X144803304Y-59264838D01*
X144770622Y-59429141D01*
X96871117Y-59429141D01*
X96871117Y-56162896D01*
X145370622Y-56162896D01*
X145370622Y-57712914D01*
X145370623Y-57712931D01*
X145381122Y-57815709D01*
X145381123Y-57815712D01*
X145427016Y-57954207D01*
X145436308Y-57982247D01*
X145528410Y-58131569D01*
X145652466Y-58255625D01*
X145801788Y-58347727D01*
X145968325Y-58402912D01*
X146071113Y-58413413D01*
X147371130Y-58413412D01*
X147473919Y-58402912D01*
X147640456Y-58347727D01*
X147789778Y-58255625D01*
X147913834Y-58131569D01*
X148005936Y-57982247D01*
X148005936Y-57982244D01*
X148009300Y-57976792D01*
X148061248Y-57930067D01*
X148130210Y-57918844D01*
X148194292Y-57946687D01*
X148202520Y-57954207D01*
X148341335Y-58093022D01*
X148513301Y-58217961D01*
X148513303Y-58217962D01*
X148513306Y-58217964D01*
X148702710Y-58314470D01*
X148904879Y-58380159D01*
X149114835Y-58413413D01*
X149114836Y-58413413D01*
X149327408Y-58413413D01*
X149327409Y-58413413D01*
X149537365Y-58380159D01*
X149739534Y-58314470D01*
X149928938Y-58217964D01*
X149950911Y-58201999D01*
X150100908Y-58093022D01*
X150100910Y-58093019D01*
X150100914Y-58093017D01*
X150251226Y-57942705D01*
X150370805Y-57778117D01*
X150426133Y-57735453D01*
X150495746Y-57729474D01*
X150557542Y-57762079D01*
X150571435Y-57778112D01*
X150673682Y-57918844D01*
X150691018Y-57942705D01*
X150841335Y-58093022D01*
X151013301Y-58217961D01*
X151013303Y-58217962D01*
X151013306Y-58217964D01*
X151202710Y-58314470D01*
X151404879Y-58380159D01*
X151614835Y-58413413D01*
X151614836Y-58413413D01*
X151827408Y-58413413D01*
X151827409Y-58413413D01*
X152037365Y-58380159D01*
X152239534Y-58314470D01*
X152428938Y-58217964D01*
X152450911Y-58201999D01*
X152600908Y-58093022D01*
X152600910Y-58093019D01*
X152600914Y-58093017D01*
X152751226Y-57942705D01*
X152870805Y-57778117D01*
X152926133Y-57735453D01*
X152995746Y-57729474D01*
X153057542Y-57762079D01*
X153071435Y-57778112D01*
X153173682Y-57918844D01*
X153191018Y-57942705D01*
X153341335Y-58093022D01*
X153513301Y-58217961D01*
X153513303Y-58217962D01*
X153513306Y-58217964D01*
X153702710Y-58314470D01*
X153904879Y-58380159D01*
X154114835Y-58413413D01*
X154114836Y-58413413D01*
X154327408Y-58413413D01*
X154327409Y-58413413D01*
X154537365Y-58380159D01*
X154739534Y-58314470D01*
X154928938Y-58217964D01*
X154950911Y-58201999D01*
X155100908Y-58093022D01*
X155100910Y-58093019D01*
X155100914Y-58093017D01*
X155251226Y-57942705D01*
X155251228Y-57942701D01*
X155251231Y-57942699D01*
X155376170Y-57770733D01*
X155376169Y-57770733D01*
X155376173Y-57770729D01*
X155472679Y-57581325D01*
X155538368Y-57379156D01*
X155571622Y-57169200D01*
X155571622Y-56706626D01*
X155538368Y-56496670D01*
X155472679Y-56294501D01*
X155376173Y-56105097D01*
X155376171Y-56105094D01*
X155376170Y-56105092D01*
X155251231Y-55933126D01*
X155100908Y-55782803D01*
X154928942Y-55657864D01*
X154739536Y-55561357D01*
X154739535Y-55561356D01*
X154739534Y-55561356D01*
X154537365Y-55495667D01*
X154537363Y-55495666D01*
X154537362Y-55495666D01*
X154376079Y-55470121D01*
X154327409Y-55462413D01*
X154114835Y-55462413D01*
X154066164Y-55470121D01*
X153904882Y-55495666D01*
X153702707Y-55561357D01*
X153513301Y-55657864D01*
X153341335Y-55782803D01*
X153191016Y-55933122D01*
X153191012Y-55933127D01*
X153071440Y-56097706D01*
X153016111Y-56140372D01*
X152946497Y-56146351D01*
X152884702Y-56113746D01*
X152870804Y-56097706D01*
X152751231Y-55933127D01*
X152751227Y-55933122D01*
X152600908Y-55782803D01*
X152428942Y-55657864D01*
X152239536Y-55561357D01*
X152239535Y-55561356D01*
X152239534Y-55561356D01*
X152037365Y-55495667D01*
X152037363Y-55495666D01*
X152037362Y-55495666D01*
X151876079Y-55470121D01*
X151827409Y-55462413D01*
X151614835Y-55462413D01*
X151566164Y-55470121D01*
X151404882Y-55495666D01*
X151202707Y-55561357D01*
X151013301Y-55657864D01*
X150841335Y-55782803D01*
X150691016Y-55933122D01*
X150691012Y-55933127D01*
X150571440Y-56097706D01*
X150516111Y-56140372D01*
X150446497Y-56146351D01*
X150384702Y-56113746D01*
X150370804Y-56097706D01*
X150251231Y-55933127D01*
X150251227Y-55933122D01*
X150100908Y-55782803D01*
X149928942Y-55657864D01*
X149739536Y-55561357D01*
X149739535Y-55561356D01*
X149739534Y-55561356D01*
X149537365Y-55495667D01*
X149537363Y-55495666D01*
X149537362Y-55495666D01*
X149376079Y-55470121D01*
X149327409Y-55462413D01*
X149114835Y-55462413D01*
X149066164Y-55470121D01*
X148904882Y-55495666D01*
X148702707Y-55561357D01*
X148513301Y-55657864D01*
X148341337Y-55782802D01*
X148202520Y-55921619D01*
X148141197Y-55955103D01*
X148071505Y-55950119D01*
X148015572Y-55908247D01*
X148009300Y-55899033D01*
X147913834Y-55744257D01*
X147789779Y-55620202D01*
X147789778Y-55620201D01*
X147640456Y-55528099D01*
X147473919Y-55472914D01*
X147473917Y-55472913D01*
X147371132Y-55462413D01*
X146071120Y-55462413D01*
X146071103Y-55462414D01*
X145968325Y-55472913D01*
X145968322Y-55472914D01*
X145801790Y-55528098D01*
X145801785Y-55528100D01*
X145652464Y-55620202D01*
X145528411Y-55744255D01*
X145436309Y-55893576D01*
X145436307Y-55893581D01*
X145431447Y-55908247D01*
X145381123Y-56060116D01*
X145381123Y-56060117D01*
X145381122Y-56060117D01*
X145370622Y-56162896D01*
X96871117Y-56162896D01*
X96871117Y-46693491D01*
X96871119Y-46685352D01*
X96871128Y-46685322D01*
X96871125Y-46670756D01*
X96871149Y-46670674D01*
X96871141Y-46619430D01*
X96871142Y-46619430D01*
X96871130Y-46540699D01*
X96846478Y-46385180D01*
X96797807Y-46235430D01*
X96726316Y-46095134D01*
X96633763Y-45967745D01*
X96624676Y-45958658D01*
X96624671Y-45958648D01*
X96570329Y-45904306D01*
X96570328Y-45904305D01*
X96570327Y-45904303D01*
X96525884Y-45859855D01*
X96525833Y-45859810D01*
X96032648Y-45366625D01*
X122070622Y-45366625D01*
X122070622Y-45609201D01*
X122102284Y-45849702D01*
X122105005Y-45859855D01*
X122165069Y-46084017D01*
X122257895Y-46308118D01*
X122257898Y-46308125D01*
X122379186Y-46518202D01*
X122379188Y-46518205D01*
X122379189Y-46518206D01*
X122526855Y-46710649D01*
X122526861Y-46710656D01*
X122698378Y-46882173D01*
X122698384Y-46882178D01*
X122890833Y-47029849D01*
X123100910Y-47151137D01*
X123325022Y-47243967D01*
X123559333Y-47306751D01*
X123739708Y-47330497D01*
X123799833Y-47338413D01*
X123799834Y-47338413D01*
X124042411Y-47338413D01*
X124090510Y-47332080D01*
X124282911Y-47306751D01*
X124517222Y-47243967D01*
X124741334Y-47151137D01*
X124951411Y-47029849D01*
X125143860Y-46882178D01*
X125315387Y-46710651D01*
X125463058Y-46518202D01*
X125475075Y-46497388D01*
X129490249Y-46497388D01*
X129490249Y-46890445D01*
X129528775Y-47281619D01*
X129605453Y-47667111D01*
X129605456Y-47667122D01*
X129719559Y-48043271D01*
X129869979Y-48406416D01*
X129869981Y-48406421D01*
X130055260Y-48753054D01*
X130055271Y-48753072D01*
X130273636Y-49079877D01*
X130273646Y-49079891D01*
X130523003Y-49383734D01*
X130800931Y-49661662D01*
X130800936Y-49661666D01*
X130800937Y-49661667D01*
X131104780Y-49911024D01*
X131431600Y-50129399D01*
X131431609Y-50129404D01*
X131431611Y-50129405D01*
X131778244Y-50314684D01*
X131778246Y-50314684D01*
X131778252Y-50314688D01*
X132141396Y-50465107D01*
X132517534Y-50579207D01*
X132517540Y-50579208D01*
X132517543Y-50579209D01*
X132517554Y-50579212D01*
X132903046Y-50655890D01*
X133294217Y-50694417D01*
X133294220Y-50694417D01*
X133687278Y-50694417D01*
X133687281Y-50694417D01*
X134078452Y-50655890D01*
X134153497Y-50640962D01*
X134463943Y-50579212D01*
X134463954Y-50579209D01*
X134463954Y-50579208D01*
X134463964Y-50579207D01*
X134840102Y-50465107D01*
X135203246Y-50314688D01*
X135549898Y-50129399D01*
X135876718Y-49911024D01*
X136180561Y-49661667D01*
X136458499Y-49383729D01*
X136707856Y-49079886D01*
X136926231Y-48753066D01*
X137111520Y-48406414D01*
X137261939Y-48043270D01*
X137376039Y-47667132D01*
X137376041Y-47667122D01*
X137376044Y-47667111D01*
X137452722Y-47281619D01*
X137465573Y-47151137D01*
X137491249Y-46890449D01*
X137491249Y-46497388D01*
X166410249Y-46497388D01*
X166410249Y-46890445D01*
X166448775Y-47281619D01*
X166525453Y-47667111D01*
X166525456Y-47667122D01*
X166639559Y-48043271D01*
X166789979Y-48406416D01*
X166789981Y-48406421D01*
X166975260Y-48753054D01*
X166975271Y-48753072D01*
X167193636Y-49079877D01*
X167193646Y-49079891D01*
X167443003Y-49383734D01*
X167720931Y-49661662D01*
X167720936Y-49661666D01*
X167720937Y-49661667D01*
X168024780Y-49911024D01*
X168351600Y-50129399D01*
X168351609Y-50129404D01*
X168351611Y-50129405D01*
X168698244Y-50314684D01*
X168698246Y-50314684D01*
X168698252Y-50314688D01*
X169061396Y-50465107D01*
X169437534Y-50579207D01*
X169437540Y-50579208D01*
X169437543Y-50579209D01*
X169437554Y-50579212D01*
X169823046Y-50655890D01*
X170214217Y-50694417D01*
X170214220Y-50694417D01*
X170607278Y-50694417D01*
X170607281Y-50694417D01*
X170998452Y-50655890D01*
X171073497Y-50640962D01*
X171383943Y-50579212D01*
X171383954Y-50579209D01*
X171383954Y-50579208D01*
X171383964Y-50579207D01*
X171760102Y-50465107D01*
X172123246Y-50314688D01*
X172469898Y-50129399D01*
X172796718Y-49911024D01*
X173100561Y-49661667D01*
X173378499Y-49383729D01*
X173627856Y-49079886D01*
X173846231Y-48753066D01*
X174031520Y-48406414D01*
X174181939Y-48043270D01*
X174296039Y-47667132D01*
X174296041Y-47667122D01*
X174296044Y-47667111D01*
X174372722Y-47281619D01*
X174385573Y-47151137D01*
X174411249Y-46890449D01*
X174411249Y-46497385D01*
X174372722Y-46106214D01*
X174344778Y-45965730D01*
X174296044Y-45720722D01*
X174296041Y-45720711D01*
X174296040Y-45720708D01*
X174296039Y-45720702D01*
X174188631Y-45366625D01*
X178070622Y-45366625D01*
X178070622Y-45609201D01*
X178102284Y-45849702D01*
X178105005Y-45859855D01*
X178165069Y-46084017D01*
X178257895Y-46308118D01*
X178257898Y-46308125D01*
X178379186Y-46518202D01*
X178379188Y-46518205D01*
X178379189Y-46518206D01*
X178526855Y-46710649D01*
X178526861Y-46710656D01*
X178698378Y-46882173D01*
X178698384Y-46882178D01*
X178890833Y-47029849D01*
X179100910Y-47151137D01*
X179325022Y-47243967D01*
X179559333Y-47306751D01*
X179739708Y-47330497D01*
X179799833Y-47338413D01*
X179799834Y-47338413D01*
X180042411Y-47338413D01*
X180090510Y-47332080D01*
X180282911Y-47306751D01*
X180517222Y-47243967D01*
X180741334Y-47151137D01*
X180951411Y-47029849D01*
X181143860Y-46882178D01*
X181315387Y-46710651D01*
X181463058Y-46518202D01*
X181584346Y-46308125D01*
X181677176Y-46084013D01*
X181739960Y-45849702D01*
X181771622Y-45609201D01*
X181771622Y-45366625D01*
X181739960Y-45126124D01*
X181677176Y-44891813D01*
X181584346Y-44667701D01*
X181463058Y-44457624D01*
X181315387Y-44265175D01*
X181315382Y-44265169D01*
X181143865Y-44093652D01*
X181143858Y-44093646D01*
X180951415Y-43945980D01*
X180951414Y-43945979D01*
X180951411Y-43945977D01*
X180741334Y-43824689D01*
X180709843Y-43811645D01*
X180517226Y-43731860D01*
X180282907Y-43669074D01*
X180042411Y-43637413D01*
X180042410Y-43637413D01*
X179799834Y-43637413D01*
X179799833Y-43637413D01*
X179559336Y-43669074D01*
X179325017Y-43731860D01*
X179100916Y-43824686D01*
X179100907Y-43824690D01*
X178890828Y-43945980D01*
X178698385Y-44093646D01*
X178698378Y-44093652D01*
X178526861Y-44265169D01*
X178526855Y-44265176D01*
X178379189Y-44457619D01*
X178257899Y-44667698D01*
X178257895Y-44667707D01*
X178165069Y-44891808D01*
X178102283Y-45126127D01*
X178073526Y-45344564D01*
X178070622Y-45366625D01*
X174188631Y-45366625D01*
X174181939Y-45344564D01*
X174031520Y-44981420D01*
X174019104Y-44958192D01*
X173846237Y-44634779D01*
X173846236Y-44634777D01*
X173846231Y-44634768D01*
X173627856Y-44307948D01*
X173378499Y-44004105D01*
X173378498Y-44004104D01*
X173378494Y-44004099D01*
X173100566Y-43726171D01*
X172796723Y-43476814D01*
X172796722Y-43476813D01*
X172796718Y-43476810D01*
X172469898Y-43258435D01*
X172469893Y-43258432D01*
X172469886Y-43258428D01*
X172123253Y-43073149D01*
X172123248Y-43073147D01*
X171760103Y-42922727D01*
X171383954Y-42808624D01*
X171383943Y-42808621D01*
X170998451Y-42731943D01*
X170703838Y-42702927D01*
X170607281Y-42693417D01*
X170214217Y-42693417D01*
X170125000Y-42702204D01*
X169823046Y-42731943D01*
X169437554Y-42808621D01*
X169437543Y-42808624D01*
X169061394Y-42922727D01*
X168698249Y-43073147D01*
X168698244Y-43073149D01*
X168351611Y-43258428D01*
X168351593Y-43258439D01*
X168024788Y-43476804D01*
X168024774Y-43476814D01*
X167720931Y-43726171D01*
X167443003Y-44004099D01*
X167193646Y-44307942D01*
X167193636Y-44307956D01*
X166975271Y-44634761D01*
X166975260Y-44634779D01*
X166789981Y-44981412D01*
X166789979Y-44981417D01*
X166639559Y-45344562D01*
X166525456Y-45720711D01*
X166525453Y-45720722D01*
X166448775Y-46106214D01*
X166410249Y-46497388D01*
X137491249Y-46497388D01*
X137491249Y-46497385D01*
X137452722Y-46106214D01*
X137424778Y-45965730D01*
X137376044Y-45720722D01*
X137376041Y-45720711D01*
X137376040Y-45720708D01*
X137376039Y-45720702D01*
X137261939Y-45344564D01*
X137111520Y-44981420D01*
X137099104Y-44958192D01*
X136926237Y-44634779D01*
X136926236Y-44634777D01*
X136926231Y-44634768D01*
X136707856Y-44307948D01*
X136458499Y-44004105D01*
X136458498Y-44004104D01*
X136458494Y-44004099D01*
X136180566Y-43726171D01*
X135876723Y-43476814D01*
X135876722Y-43476813D01*
X135876718Y-43476810D01*
X135549898Y-43258435D01*
X135549893Y-43258432D01*
X135549886Y-43258428D01*
X135203253Y-43073149D01*
X135203248Y-43073147D01*
X134840103Y-42922727D01*
X134463954Y-42808624D01*
X134463943Y-42808621D01*
X134078451Y-42731943D01*
X133783838Y-42702927D01*
X133687281Y-42693417D01*
X133294217Y-42693417D01*
X133205000Y-42702204D01*
X132903046Y-42731943D01*
X132517554Y-42808621D01*
X132517543Y-42808624D01*
X132141394Y-42922727D01*
X131778249Y-43073147D01*
X131778244Y-43073149D01*
X131431611Y-43258428D01*
X131431593Y-43258439D01*
X131104788Y-43476804D01*
X131104774Y-43476814D01*
X130800931Y-43726171D01*
X130523003Y-44004099D01*
X130273646Y-44307942D01*
X130273636Y-44307956D01*
X130055271Y-44634761D01*
X130055260Y-44634779D01*
X129869981Y-44981412D01*
X129869979Y-44981417D01*
X129719559Y-45344562D01*
X129605456Y-45720711D01*
X129605453Y-45720722D01*
X129528775Y-46106214D01*
X129490249Y-46497388D01*
X125475075Y-46497388D01*
X125584346Y-46308125D01*
X125677176Y-46084013D01*
X125739960Y-45849702D01*
X125771622Y-45609201D01*
X125771622Y-45366625D01*
X125739960Y-45126124D01*
X125677176Y-44891813D01*
X125584346Y-44667701D01*
X125463058Y-44457624D01*
X125315387Y-44265175D01*
X125315382Y-44265169D01*
X125143865Y-44093652D01*
X125143858Y-44093646D01*
X124951415Y-43945980D01*
X124951414Y-43945979D01*
X124951411Y-43945977D01*
X124741334Y-43824689D01*
X124709843Y-43811645D01*
X124517226Y-43731860D01*
X124282907Y-43669074D01*
X124042411Y-43637413D01*
X124042410Y-43637413D01*
X123799834Y-43637413D01*
X123799833Y-43637413D01*
X123559336Y-43669074D01*
X123325017Y-43731860D01*
X123100916Y-43824686D01*
X123100907Y-43824690D01*
X122890828Y-43945980D01*
X122698385Y-44093646D01*
X122698378Y-44093652D01*
X122526861Y-44265169D01*
X122526855Y-44265176D01*
X122379189Y-44457619D01*
X122257899Y-44667698D01*
X122257895Y-44667707D01*
X122165069Y-44891808D01*
X122102283Y-45126127D01*
X122073526Y-45344564D01*
X122070622Y-45366625D01*
X96032648Y-45366625D01*
X90243563Y-39577540D01*
X152794200Y-39577540D01*
X152794200Y-39724459D01*
X152822858Y-39868534D01*
X152822861Y-39868544D01*
X152879078Y-40004266D01*
X152879083Y-40004275D01*
X152960698Y-40126419D01*
X152960701Y-40126423D01*
X153064576Y-40230298D01*
X153064580Y-40230301D01*
X153186724Y-40311916D01*
X153186730Y-40311919D01*
X153186731Y-40311920D01*
X153322458Y-40368140D01*
X153466540Y-40396799D01*
X153466544Y-40396800D01*
X153466545Y-40396800D01*
X153613456Y-40396800D01*
X153613457Y-40396799D01*
X153757542Y-40368140D01*
X153893269Y-40311920D01*
X154015420Y-40230301D01*
X154119301Y-40126420D01*
X154200920Y-40004269D01*
X154257140Y-39868542D01*
X154285800Y-39724455D01*
X154285800Y-39577545D01*
X154257140Y-39433458D01*
X154200920Y-39297731D01*
X154200919Y-39297730D01*
X154200916Y-39297724D01*
X154119301Y-39175580D01*
X154119298Y-39175576D01*
X154015423Y-39071701D01*
X154015419Y-39071698D01*
X153893275Y-38990083D01*
X153893266Y-38990078D01*
X153757544Y-38933861D01*
X153757545Y-38933861D01*
X153757542Y-38933860D01*
X153757538Y-38933859D01*
X153757534Y-38933858D01*
X153613459Y-38905200D01*
X153613455Y-38905200D01*
X153466545Y-38905200D01*
X153466540Y-38905200D01*
X153322465Y-38933858D01*
X153322455Y-38933861D01*
X153186733Y-38990078D01*
X153186724Y-38990083D01*
X153064580Y-39071698D01*
X153064576Y-39071701D01*
X152960701Y-39175576D01*
X152960698Y-39175580D01*
X152879083Y-39297724D01*
X152879078Y-39297733D01*
X152822861Y-39433455D01*
X152822858Y-39433465D01*
X152794200Y-39577540D01*
X90243563Y-39577540D01*
X88047649Y-37381626D01*
X107220622Y-37381626D01*
X107220622Y-37594200D01*
X107253876Y-37804156D01*
X107309087Y-37974078D01*
X107319566Y-38006327D01*
X107416073Y-38195733D01*
X107541012Y-38367699D01*
X107691335Y-38518022D01*
X107863301Y-38642961D01*
X107863303Y-38642962D01*
X107863306Y-38642964D01*
X108052710Y-38739470D01*
X108254879Y-38805159D01*
X108464835Y-38838413D01*
X108464836Y-38838413D01*
X108977408Y-38838413D01*
X108977409Y-38838413D01*
X109187365Y-38805159D01*
X109389534Y-38739470D01*
X109578938Y-38642964D01*
X109600911Y-38626999D01*
X109691009Y-38561540D01*
X147714200Y-38561540D01*
X147714200Y-38708459D01*
X147742858Y-38852534D01*
X147742861Y-38852544D01*
X147799078Y-38988266D01*
X147799083Y-38988275D01*
X147880698Y-39110419D01*
X147880701Y-39110423D01*
X147984576Y-39214298D01*
X147984580Y-39214301D01*
X148106724Y-39295916D01*
X148106730Y-39295919D01*
X148106731Y-39295920D01*
X148242458Y-39352140D01*
X148386540Y-39380799D01*
X148386544Y-39380800D01*
X148386545Y-39380800D01*
X148533456Y-39380800D01*
X148533457Y-39380799D01*
X148677542Y-39352140D01*
X148813269Y-39295920D01*
X148935420Y-39214301D01*
X149039301Y-39110420D01*
X149120920Y-38988269D01*
X149177140Y-38852542D01*
X149205800Y-38708455D01*
X149205800Y-38561545D01*
X149177140Y-38417458D01*
X149120920Y-38281731D01*
X149120919Y-38281730D01*
X149120916Y-38281724D01*
X149039301Y-38159580D01*
X149039298Y-38159576D01*
X148935423Y-38055701D01*
X148935419Y-38055698D01*
X148813275Y-37974083D01*
X148813266Y-37974078D01*
X148677544Y-37917861D01*
X148677545Y-37917861D01*
X148677542Y-37917860D01*
X148677538Y-37917859D01*
X148677534Y-37917858D01*
X148533459Y-37889200D01*
X148533455Y-37889200D01*
X148386545Y-37889200D01*
X148386540Y-37889200D01*
X148242465Y-37917858D01*
X148242455Y-37917861D01*
X148106733Y-37974078D01*
X148106724Y-37974083D01*
X147984580Y-38055698D01*
X147984576Y-38055701D01*
X147880701Y-38159576D01*
X147880698Y-38159580D01*
X147799083Y-38281724D01*
X147799078Y-38281733D01*
X147742861Y-38417455D01*
X147742858Y-38417465D01*
X147714200Y-38561540D01*
X109691009Y-38561540D01*
X109750908Y-38518022D01*
X109750910Y-38518019D01*
X109750914Y-38518017D01*
X109901226Y-38367705D01*
X109901228Y-38367701D01*
X109901231Y-38367699D01*
X110024304Y-38198301D01*
X110026173Y-38195729D01*
X110122679Y-38006325D01*
X110188368Y-37804156D01*
X110221622Y-37594200D01*
X110221622Y-37381626D01*
X110188368Y-37171670D01*
X110122679Y-36969501D01*
X110026173Y-36780097D01*
X110026171Y-36780094D01*
X110026170Y-36780092D01*
X109901231Y-36608126D01*
X109762053Y-36468948D01*
X109728568Y-36407625D01*
X109733552Y-36337933D01*
X109775424Y-36282000D01*
X109784638Y-36275728D01*
X109939465Y-36180230D01*
X110063437Y-36056258D01*
X110149809Y-35916228D01*
X152149500Y-35916228D01*
X152149500Y-36083771D01*
X152182182Y-36248074D01*
X152182184Y-36248082D01*
X152246295Y-36402860D01*
X152339373Y-36542162D01*
X152457837Y-36660626D01*
X152547372Y-36720451D01*
X152597137Y-36753703D01*
X152751918Y-36817816D01*
X152859459Y-36839207D01*
X152916228Y-36850499D01*
X152916232Y-36850500D01*
X152954416Y-36850500D01*
X153021455Y-36870185D01*
X153067210Y-36922989D01*
X153077154Y-36992147D01*
X153048129Y-37055703D01*
X153042097Y-37062181D01*
X152960701Y-37143576D01*
X152960698Y-37143580D01*
X152879083Y-37265724D01*
X152879078Y-37265733D01*
X152822861Y-37401455D01*
X152822858Y-37401465D01*
X152794200Y-37545540D01*
X152794200Y-37692459D01*
X152822858Y-37836534D01*
X152822861Y-37836544D01*
X152879078Y-37972266D01*
X152879083Y-37972275D01*
X152960698Y-38094419D01*
X152960701Y-38094423D01*
X153064576Y-38198298D01*
X153064580Y-38198301D01*
X153186724Y-38279916D01*
X153186730Y-38279919D01*
X153186731Y-38279920D01*
X153322458Y-38336140D01*
X153466540Y-38364799D01*
X153466544Y-38364800D01*
X153466545Y-38364800D01*
X153613456Y-38364800D01*
X153613457Y-38364799D01*
X153757542Y-38336140D01*
X153893269Y-38279920D01*
X154015420Y-38198301D01*
X154119301Y-38094420D01*
X154200920Y-37972269D01*
X154257140Y-37836542D01*
X154285800Y-37692455D01*
X154285800Y-37545545D01*
X154257140Y-37401458D01*
X154200920Y-37265731D01*
X154200919Y-37265730D01*
X154200916Y-37265724D01*
X154119301Y-37143580D01*
X154119298Y-37143576D01*
X154015423Y-37039701D01*
X154015419Y-37039698D01*
X153893275Y-36958083D01*
X153893266Y-36958078D01*
X153757544Y-36901861D01*
X153757545Y-36901861D01*
X153757542Y-36901860D01*
X153757538Y-36901859D01*
X153757534Y-36901858D01*
X153607480Y-36872011D01*
X153607845Y-36870172D01*
X153551166Y-36847286D01*
X153510807Y-36790251D01*
X153507690Y-36720451D01*
X153540426Y-36662361D01*
X153542158Y-36660628D01*
X153542162Y-36660626D01*
X153660626Y-36542162D01*
X153753703Y-36402863D01*
X153817816Y-36248082D01*
X153850500Y-36083767D01*
X153850500Y-35916233D01*
X153817816Y-35751918D01*
X153753703Y-35597137D01*
X153722537Y-35550494D01*
X153660626Y-35457837D01*
X153542162Y-35339373D01*
X153402860Y-35246295D01*
X153248082Y-35182184D01*
X153248074Y-35182182D01*
X153083771Y-35149500D01*
X153083767Y-35149500D01*
X152916233Y-35149500D01*
X152916228Y-35149500D01*
X152751925Y-35182182D01*
X152751917Y-35182184D01*
X152597139Y-35246295D01*
X152457837Y-35339373D01*
X152339373Y-35457837D01*
X152246295Y-35597139D01*
X152182184Y-35751917D01*
X152182182Y-35751925D01*
X152149500Y-35916228D01*
X110149809Y-35916228D01*
X110155478Y-35907037D01*
X110155480Y-35907032D01*
X110167375Y-35871137D01*
X110210627Y-35740610D01*
X110210628Y-35740603D01*
X110221121Y-35637899D01*
X110221122Y-35637886D01*
X110221122Y-35237913D01*
X109154134Y-35237913D01*
X109187047Y-35180906D01*
X109221122Y-35053739D01*
X109221122Y-34922087D01*
X109210280Y-34881626D01*
X188420622Y-34881626D01*
X188420622Y-35094199D01*
X188448804Y-35272137D01*
X188453876Y-35304156D01*
X188503810Y-35457837D01*
X188519566Y-35506327D01*
X188616073Y-35695733D01*
X188741012Y-35867699D01*
X188880190Y-36006877D01*
X188913675Y-36068200D01*
X188908691Y-36137892D01*
X188866819Y-36193825D01*
X188857606Y-36200096D01*
X188702781Y-36295593D01*
X188702777Y-36295596D01*
X188578806Y-36419567D01*
X188486765Y-36568788D01*
X188486763Y-36568793D01*
X188431616Y-36735215D01*
X188431615Y-36735222D01*
X188421122Y-36837926D01*
X188421122Y-37237913D01*
X189488110Y-37237913D01*
X189455197Y-37294920D01*
X189421122Y-37422087D01*
X189421122Y-37553739D01*
X189455197Y-37680906D01*
X189488110Y-37737913D01*
X188421123Y-37737913D01*
X188421123Y-38137899D01*
X188431616Y-38240610D01*
X188486763Y-38407032D01*
X188486765Y-38407037D01*
X188578806Y-38556258D01*
X188702776Y-38680228D01*
X188851997Y-38772269D01*
X188852002Y-38772271D01*
X189018424Y-38827418D01*
X189018431Y-38827419D01*
X189121141Y-38837912D01*
X189671121Y-38837912D01*
X189671122Y-38837911D01*
X189671122Y-37920925D01*
X189728129Y-37953838D01*
X189855296Y-37987913D01*
X189986948Y-37987913D01*
X190114115Y-37953838D01*
X190171122Y-37920925D01*
X190171122Y-38837912D01*
X190721094Y-38837912D01*
X190721108Y-38837911D01*
X190823819Y-38827418D01*
X190990241Y-38772271D01*
X190990246Y-38772269D01*
X191139467Y-38680228D01*
X191263437Y-38556258D01*
X191355478Y-38407037D01*
X191355480Y-38407032D01*
X191410627Y-38240610D01*
X191410628Y-38240603D01*
X191421121Y-38137899D01*
X191421122Y-38137886D01*
X191421122Y-37916228D01*
X195649500Y-37916228D01*
X195649500Y-38083771D01*
X195682182Y-38248074D01*
X195682184Y-38248082D01*
X195746295Y-38402860D01*
X195839373Y-38542162D01*
X195957837Y-38660626D01*
X195987174Y-38680228D01*
X196097137Y-38753703D01*
X196251918Y-38817816D01*
X196416228Y-38850499D01*
X196416232Y-38850500D01*
X196416233Y-38850500D01*
X196583768Y-38850500D01*
X196583769Y-38850499D01*
X196748082Y-38817816D01*
X196902863Y-38753703D01*
X197042162Y-38660626D01*
X197160626Y-38542162D01*
X197253703Y-38402863D01*
X197317816Y-38248082D01*
X197350500Y-38083767D01*
X197350500Y-37916233D01*
X197317816Y-37751918D01*
X197253703Y-37597137D01*
X197219227Y-37545540D01*
X197160626Y-37457837D01*
X197042162Y-37339373D01*
X196902860Y-37246295D01*
X196748082Y-37182184D01*
X196748074Y-37182182D01*
X196583771Y-37149500D01*
X196583767Y-37149500D01*
X196416233Y-37149500D01*
X196416228Y-37149500D01*
X196251925Y-37182182D01*
X196251917Y-37182184D01*
X196097139Y-37246295D01*
X195957837Y-37339373D01*
X195839373Y-37457837D01*
X195746295Y-37597139D01*
X195682184Y-37751917D01*
X195682182Y-37751925D01*
X195649500Y-37916228D01*
X191421122Y-37916228D01*
X191421122Y-37737913D01*
X190354134Y-37737913D01*
X190387047Y-37680906D01*
X190421122Y-37553739D01*
X190421122Y-37422087D01*
X190387047Y-37294920D01*
X190354134Y-37237913D01*
X191421121Y-37237913D01*
X191421121Y-36837941D01*
X191421120Y-36837926D01*
X191410627Y-36735215D01*
X191355480Y-36568793D01*
X191355478Y-36568788D01*
X191263437Y-36419567D01*
X191139467Y-36295597D01*
X190984637Y-36200097D01*
X190937913Y-36148149D01*
X190926690Y-36079186D01*
X190954534Y-36015104D01*
X190962031Y-36006899D01*
X191101226Y-35867705D01*
X191226173Y-35695729D01*
X191322679Y-35506325D01*
X191388368Y-35304156D01*
X191421622Y-35094200D01*
X191421622Y-34881626D01*
X191388368Y-34671670D01*
X191322679Y-34469501D01*
X191226173Y-34280097D01*
X191226171Y-34280094D01*
X191226170Y-34280092D01*
X191101231Y-34108126D01*
X190950908Y-33957803D01*
X190778942Y-33832864D01*
X190589536Y-33736357D01*
X190589535Y-33736356D01*
X190589534Y-33736356D01*
X190387365Y-33670667D01*
X190387363Y-33670666D01*
X190387362Y-33670666D01*
X190226079Y-33645121D01*
X190177409Y-33637413D01*
X189664835Y-33637413D01*
X189616164Y-33645121D01*
X189454882Y-33670666D01*
X189252707Y-33736357D01*
X189063301Y-33832864D01*
X188891335Y-33957803D01*
X188741012Y-34108126D01*
X188616073Y-34280092D01*
X188519566Y-34469498D01*
X188453875Y-34671673D01*
X188420622Y-34881626D01*
X109210280Y-34881626D01*
X109187047Y-34794920D01*
X109154134Y-34737913D01*
X110221121Y-34737913D01*
X110221121Y-34337941D01*
X110221120Y-34337926D01*
X110210627Y-34235215D01*
X110155480Y-34068793D01*
X110155478Y-34068788D01*
X110063437Y-33919567D01*
X109939467Y-33795597D01*
X109790246Y-33703556D01*
X109790241Y-33703554D01*
X109623819Y-33648407D01*
X109623812Y-33648406D01*
X109521108Y-33637913D01*
X108971122Y-33637913D01*
X108971122Y-34554901D01*
X108914115Y-34521988D01*
X108786948Y-34487913D01*
X108655296Y-34487913D01*
X108528129Y-34521988D01*
X108471122Y-34554901D01*
X108471122Y-33637913D01*
X107921150Y-33637913D01*
X107921134Y-33637914D01*
X107818424Y-33648407D01*
X107652002Y-33703554D01*
X107651997Y-33703556D01*
X107502776Y-33795597D01*
X107378806Y-33919567D01*
X107286765Y-34068788D01*
X107286763Y-34068793D01*
X107231616Y-34235215D01*
X107231615Y-34235222D01*
X107221122Y-34337926D01*
X107221122Y-34737913D01*
X108288110Y-34737913D01*
X108255197Y-34794920D01*
X108221122Y-34922087D01*
X108221122Y-35053739D01*
X108255197Y-35180906D01*
X108288110Y-35237913D01*
X107221123Y-35237913D01*
X107221123Y-35637899D01*
X107231616Y-35740610D01*
X107286763Y-35907032D01*
X107286765Y-35907037D01*
X107378806Y-36056258D01*
X107502776Y-36180228D01*
X107657606Y-36275728D01*
X107704330Y-36327676D01*
X107715553Y-36396639D01*
X107687709Y-36460721D01*
X107680191Y-36468948D01*
X107541011Y-36608128D01*
X107416073Y-36780092D01*
X107319566Y-36969498D01*
X107253875Y-37171673D01*
X107234355Y-37294920D01*
X107220622Y-37381626D01*
X88047649Y-37381626D01*
X86919159Y-36253136D01*
X86919026Y-36253019D01*
X86915804Y-36249797D01*
X86788402Y-36157226D01*
X86788399Y-36157224D01*
X86788392Y-36157220D01*
X86648090Y-36085727D01*
X86642058Y-36083767D01*
X86498314Y-36037056D01*
X86342771Y-36012415D01*
X86342765Y-36012414D01*
X86335035Y-36012414D01*
X86335035Y-36012413D01*
X86329907Y-36012413D01*
X86264031Y-36012413D01*
X86264022Y-36012412D01*
X86198138Y-36012411D01*
X86198137Y-36012411D01*
X86189514Y-36012411D01*
X86189486Y-36012413D01*
X76295884Y-36012413D01*
X76271855Y-36005357D01*
X76246992Y-36002367D01*
X76233389Y-35994062D01*
X76228845Y-35992728D01*
X76216873Y-35983981D01*
X76200624Y-35970543D01*
X76200616Y-35970539D01*
X75741915Y-35591228D01*
X100649500Y-35591228D01*
X100649500Y-35758771D01*
X100682182Y-35923074D01*
X100682184Y-35923082D01*
X100746295Y-36077860D01*
X100839373Y-36217162D01*
X100957837Y-36335626D01*
X101049150Y-36396639D01*
X101097137Y-36428703D01*
X101251918Y-36492816D01*
X101416228Y-36525499D01*
X101416232Y-36525500D01*
X101416233Y-36525500D01*
X101583768Y-36525500D01*
X101583769Y-36525499D01*
X101748082Y-36492816D01*
X101902863Y-36428703D01*
X102042162Y-36335626D01*
X102160626Y-36217162D01*
X102253703Y-36077863D01*
X102317816Y-35923082D01*
X102350500Y-35758767D01*
X102350500Y-35591233D01*
X102317816Y-35426918D01*
X102253703Y-35272137D01*
X102192744Y-35180906D01*
X102160626Y-35132837D01*
X102042164Y-35014375D01*
X102023255Y-35001741D01*
X101902863Y-34921297D01*
X101902862Y-34921296D01*
X101902860Y-34921295D01*
X101748082Y-34857184D01*
X101748074Y-34857182D01*
X101583771Y-34824500D01*
X101583767Y-34824500D01*
X101416233Y-34824500D01*
X101416228Y-34824500D01*
X101251925Y-34857182D01*
X101251917Y-34857184D01*
X101097139Y-34921295D01*
X100957837Y-35014373D01*
X100839373Y-35132837D01*
X100746295Y-35272139D01*
X100682184Y-35426917D01*
X100682182Y-35426925D01*
X100649500Y-35591228D01*
X75741915Y-35591228D01*
X74102094Y-34235222D01*
X71416601Y-32014525D01*
X71377482Y-31956633D01*
X71371622Y-31918965D01*
X71371622Y-30866624D01*
X80070622Y-30866624D01*
X80070622Y-31109201D01*
X80102283Y-31349698D01*
X80165069Y-31584017D01*
X80230450Y-31741860D01*
X80257898Y-31808125D01*
X80379186Y-32018202D01*
X80379188Y-32018205D01*
X80379189Y-32018206D01*
X80526855Y-32210649D01*
X80526861Y-32210656D01*
X80698378Y-32382173D01*
X80698384Y-32382178D01*
X80890833Y-32529849D01*
X81100910Y-32651137D01*
X81325022Y-32743967D01*
X81559333Y-32806751D01*
X81739708Y-32830497D01*
X81799833Y-32838413D01*
X81799834Y-32838413D01*
X82042411Y-32838413D01*
X82090510Y-32832080D01*
X82282911Y-32806751D01*
X82517222Y-32743967D01*
X82741334Y-32651137D01*
X82951411Y-32529849D01*
X83143860Y-32382178D01*
X83315387Y-32210651D01*
X83463058Y-32018202D01*
X83584346Y-31808125D01*
X83677176Y-31584013D01*
X83739960Y-31349702D01*
X83771622Y-31109201D01*
X83771622Y-30866625D01*
X83739960Y-30626124D01*
X83723595Y-30565048D01*
X91575127Y-30565048D01*
X91575127Y-33660783D01*
X91575128Y-33660789D01*
X91581535Y-33720396D01*
X91631829Y-33855241D01*
X91631833Y-33855248D01*
X91718079Y-33970457D01*
X91718082Y-33970460D01*
X91833291Y-34056706D01*
X91833298Y-34056710D01*
X91968144Y-34107004D01*
X91968143Y-34107004D01*
X91975071Y-34107748D01*
X92027754Y-34113413D01*
X92923499Y-34113412D01*
X92983110Y-34107004D01*
X93117958Y-34056709D01*
X93233173Y-33970459D01*
X93319423Y-33855244D01*
X93369718Y-33720396D01*
X93376127Y-33660786D01*
X93376127Y-32659361D01*
X96295627Y-32659361D01*
X96842075Y-32112913D01*
X96842075Y-32112912D01*
X96295627Y-31566464D01*
X96295627Y-32659361D01*
X93376127Y-32659361D01*
X93376126Y-30565068D01*
X96295627Y-30565068D01*
X96295627Y-30952912D01*
X96314963Y-30960922D01*
X96316041Y-30960334D01*
X96385733Y-30965316D01*
X96430084Y-30993818D01*
X96945627Y-31509361D01*
X96945627Y-32716464D01*
X96430084Y-33232007D01*
X96416976Y-33239164D01*
X96406926Y-33250217D01*
X96374479Y-33264105D01*
X96295627Y-33285221D01*
X96295627Y-33660757D01*
X96302028Y-33720285D01*
X96302030Y-33720292D01*
X96352272Y-33854999D01*
X96352276Y-33855006D01*
X96438436Y-33970100D01*
X96438439Y-33970103D01*
X96553533Y-34056263D01*
X96553540Y-34056267D01*
X96688247Y-34106509D01*
X96688254Y-34106511D01*
X96747782Y-34112912D01*
X96747799Y-34112913D01*
X97643455Y-34112913D01*
X97643471Y-34112912D01*
X97702999Y-34106511D01*
X97703006Y-34106509D01*
X97837713Y-34056267D01*
X97837720Y-34056263D01*
X97952814Y-33970103D01*
X97952817Y-33970100D01*
X98038977Y-33855006D01*
X98038981Y-33854999D01*
X98089223Y-33720292D01*
X98089225Y-33720285D01*
X98095626Y-33660757D01*
X98095627Y-33660740D01*
X98095627Y-33272913D01*
X98076286Y-33264902D01*
X98075205Y-33265493D01*
X98005513Y-33260507D01*
X97961169Y-33232007D01*
X97445627Y-32716465D01*
X97445627Y-32112912D01*
X97549179Y-32112912D01*
X97549179Y-32112913D01*
X98095626Y-32659361D01*
X98095627Y-32659360D01*
X98095627Y-32416228D01*
X195649500Y-32416228D01*
X195649500Y-32583771D01*
X195682182Y-32748074D01*
X195682184Y-32748082D01*
X195746295Y-32902860D01*
X195839373Y-33042162D01*
X195957837Y-33160626D01*
X196001887Y-33190059D01*
X196097137Y-33253703D01*
X196097138Y-33253703D01*
X196097139Y-33253704D01*
X196125600Y-33265493D01*
X196251918Y-33317816D01*
X196416228Y-33350499D01*
X196416232Y-33350500D01*
X196416233Y-33350500D01*
X196583768Y-33350500D01*
X196583769Y-33350499D01*
X196748082Y-33317816D01*
X196902863Y-33253703D01*
X197042162Y-33160626D01*
X197160626Y-33042162D01*
X197253703Y-32902863D01*
X197317816Y-32748082D01*
X197350500Y-32583767D01*
X197350500Y-32416233D01*
X197317816Y-32251918D01*
X197253703Y-32097137D01*
X197204731Y-32023845D01*
X197160626Y-31957837D01*
X197042162Y-31839373D01*
X196902860Y-31746295D01*
X196748082Y-31682184D01*
X196748074Y-31682182D01*
X196583771Y-31649500D01*
X196583767Y-31649500D01*
X196416233Y-31649500D01*
X196416228Y-31649500D01*
X196251925Y-31682182D01*
X196251917Y-31682184D01*
X196097139Y-31746295D01*
X195957837Y-31839373D01*
X195839373Y-31957837D01*
X195746295Y-32097139D01*
X195682184Y-32251917D01*
X195682182Y-32251925D01*
X195649500Y-32416228D01*
X98095627Y-32416228D01*
X98095627Y-31566465D01*
X98095626Y-31566464D01*
X97549179Y-32112912D01*
X97445627Y-32112912D01*
X97445627Y-31509359D01*
X97961169Y-30993818D01*
X98022492Y-30960333D01*
X98069582Y-30963700D01*
X98095627Y-30952912D01*
X98095627Y-30565085D01*
X98095626Y-30565068D01*
X98089225Y-30505540D01*
X98089223Y-30505533D01*
X98038981Y-30370826D01*
X98038977Y-30370819D01*
X97952817Y-30255725D01*
X97952814Y-30255722D01*
X97837720Y-30169562D01*
X97837713Y-30169558D01*
X97703006Y-30119316D01*
X97702999Y-30119314D01*
X97643471Y-30112913D01*
X96747782Y-30112913D01*
X96688254Y-30119314D01*
X96688247Y-30119316D01*
X96553540Y-30169558D01*
X96553533Y-30169562D01*
X96438439Y-30255722D01*
X96438436Y-30255725D01*
X96352276Y-30370819D01*
X96352272Y-30370826D01*
X96302030Y-30505533D01*
X96302028Y-30505540D01*
X96295627Y-30565068D01*
X93376126Y-30565068D01*
X93376126Y-30565041D01*
X93369718Y-30505430D01*
X93363229Y-30488033D01*
X93319424Y-30370584D01*
X93319420Y-30370577D01*
X93233174Y-30255368D01*
X93233171Y-30255365D01*
X93117962Y-30169119D01*
X93117955Y-30169115D01*
X92983109Y-30118821D01*
X92983110Y-30118821D01*
X92923510Y-30112414D01*
X92923508Y-30112413D01*
X92923500Y-30112413D01*
X92923491Y-30112413D01*
X92027756Y-30112413D01*
X92027750Y-30112414D01*
X91968143Y-30118821D01*
X91833298Y-30169115D01*
X91833291Y-30169119D01*
X91718082Y-30255365D01*
X91718079Y-30255368D01*
X91631833Y-30370577D01*
X91631829Y-30370584D01*
X91581535Y-30505430D01*
X91575128Y-30565029D01*
X91575128Y-30565036D01*
X91575127Y-30565048D01*
X83723595Y-30565048D01*
X83677176Y-30391813D01*
X83584346Y-30167701D01*
X83463058Y-29957624D01*
X83315387Y-29765175D01*
X83315382Y-29765169D01*
X83143865Y-29593652D01*
X83143858Y-29593646D01*
X82951415Y-29445980D01*
X82951414Y-29445979D01*
X82951411Y-29445977D01*
X82741334Y-29324689D01*
X82741327Y-29324686D01*
X82517226Y-29231860D01*
X82282907Y-29169074D01*
X82042411Y-29137413D01*
X82042410Y-29137413D01*
X81799834Y-29137413D01*
X81799833Y-29137413D01*
X81559336Y-29169074D01*
X81325017Y-29231860D01*
X81100916Y-29324686D01*
X81100907Y-29324690D01*
X80890828Y-29445980D01*
X80698385Y-29593646D01*
X80698378Y-29593652D01*
X80526861Y-29765169D01*
X80526855Y-29765176D01*
X80379189Y-29957619D01*
X80257899Y-30167698D01*
X80257895Y-30167707D01*
X80165069Y-30391808D01*
X80102283Y-30626127D01*
X80070622Y-30866624D01*
X71371622Y-30866624D01*
X71371622Y-27581720D01*
X71375327Y-27569101D01*
X71374321Y-27555991D01*
X71384980Y-27536226D01*
X71391307Y-27514681D01*
X71401995Y-27504677D01*
X71407487Y-27494495D01*
X71419442Y-27485461D01*
X71419005Y-27484937D01*
X71419023Y-27484922D01*
X71430843Y-27476846D01*
X71435459Y-27473358D01*
X71435631Y-27473198D01*
X71438415Y-27471659D01*
X71438429Y-27471655D01*
X71438489Y-27471623D01*
X71438529Y-27471595D01*
X73883895Y-26123278D01*
X73883978Y-26123240D01*
X73892258Y-26118673D01*
X73892260Y-26118673D01*
X73921804Y-26102379D01*
X73936464Y-26098608D01*
X73946814Y-26091965D01*
X73981704Y-26086972D01*
X73981748Y-26086960D01*
X74015491Y-26086988D01*
X74015528Y-26086977D01*
X74020576Y-26086980D01*
X118571088Y-26115749D01*
X118571113Y-26115752D01*
X118587897Y-26115762D01*
X118605968Y-26115773D01*
X118672994Y-26135498D01*
X118682232Y-26142058D01*
X125425380Y-31410731D01*
X125425382Y-31410733D01*
X125477304Y-31451301D01*
X125529223Y-31491867D01*
X125529278Y-31491889D01*
X125535946Y-31497097D01*
X125535946Y-31497098D01*
X125542817Y-31502464D01*
X125542824Y-31502468D01*
X125542828Y-31502471D01*
X125688949Y-31581812D01*
X125846162Y-31635948D01*
X126010154Y-31663393D01*
X126027347Y-31663397D01*
X126027403Y-31663412D01*
X126089138Y-31663412D01*
X126093290Y-31663413D01*
X126159182Y-31663414D01*
X126159186Y-31663413D01*
X126167807Y-31663413D01*
X126167836Y-31663412D01*
X177742310Y-31663412D01*
X177742314Y-31663414D01*
X177808206Y-31663413D01*
X177808206Y-31663412D01*
X177874092Y-31663413D01*
X177874096Y-31663412D01*
X177882231Y-31663412D01*
X177882511Y-31663394D01*
X177891342Y-31663392D01*
X178055334Y-31635948D01*
X178212547Y-31581813D01*
X178358669Y-31502472D01*
X178372217Y-31491891D01*
X178372275Y-31491867D01*
X178436264Y-31441869D01*
X178476115Y-31410734D01*
X178476115Y-31410731D01*
X178490519Y-31399479D01*
X178490526Y-31399471D01*
X179580866Y-30547548D01*
X205838622Y-30547548D01*
X205838622Y-33643283D01*
X205838623Y-33643289D01*
X205845030Y-33702896D01*
X205895324Y-33837741D01*
X205895328Y-33837748D01*
X205981574Y-33952957D01*
X205981577Y-33952960D01*
X206096786Y-34039206D01*
X206096793Y-34039210D01*
X206231639Y-34089504D01*
X206231638Y-34089504D01*
X206238566Y-34090248D01*
X206291249Y-34095913D01*
X207186994Y-34095912D01*
X207246605Y-34089504D01*
X207381453Y-34039209D01*
X207496668Y-33952959D01*
X207582918Y-33837744D01*
X207633213Y-33702896D01*
X207639622Y-33643286D01*
X207639622Y-32641861D01*
X210559122Y-32641861D01*
X211105570Y-32095413D01*
X211105570Y-32095412D01*
X210559122Y-31548964D01*
X210559122Y-32641861D01*
X207639622Y-32641861D01*
X207639621Y-30547568D01*
X210559122Y-30547568D01*
X210559122Y-30935412D01*
X210578458Y-30943422D01*
X210579536Y-30942834D01*
X210649228Y-30947816D01*
X210693579Y-30976318D01*
X211209122Y-31491861D01*
X211209122Y-32698964D01*
X210693579Y-33214507D01*
X210680471Y-33221664D01*
X210670421Y-33232717D01*
X210637974Y-33246605D01*
X210559122Y-33267721D01*
X210559122Y-33643257D01*
X210565523Y-33702785D01*
X210565525Y-33702792D01*
X210615767Y-33837499D01*
X210615771Y-33837506D01*
X210701931Y-33952600D01*
X210701934Y-33952603D01*
X210817028Y-34038763D01*
X210817035Y-34038767D01*
X210951742Y-34089009D01*
X210951749Y-34089011D01*
X211011277Y-34095412D01*
X211011294Y-34095413D01*
X211906950Y-34095413D01*
X211906966Y-34095412D01*
X211966494Y-34089011D01*
X211966501Y-34089009D01*
X212101208Y-34038767D01*
X212101215Y-34038763D01*
X212216309Y-33952603D01*
X212216312Y-33952600D01*
X212302472Y-33837506D01*
X212302476Y-33837499D01*
X212352718Y-33702792D01*
X212352720Y-33702785D01*
X212359121Y-33643257D01*
X212359122Y-33643240D01*
X212359122Y-33255413D01*
X212339781Y-33247402D01*
X212338700Y-33247993D01*
X212269008Y-33243007D01*
X212224664Y-33214507D01*
X211709122Y-32698965D01*
X211709122Y-32095412D01*
X211812674Y-32095412D01*
X211812674Y-32095413D01*
X212359121Y-32641861D01*
X212359122Y-32641860D01*
X212359122Y-31548965D01*
X212359121Y-31548964D01*
X211812674Y-32095412D01*
X211709122Y-32095412D01*
X211709122Y-31491859D01*
X212224664Y-30976318D01*
X212285987Y-30942833D01*
X212333077Y-30946200D01*
X212359122Y-30935412D01*
X212359122Y-30866624D01*
X220070622Y-30866624D01*
X220070622Y-31109201D01*
X220102283Y-31349698D01*
X220165069Y-31584017D01*
X220230450Y-31741860D01*
X220257898Y-31808125D01*
X220379186Y-32018202D01*
X220379188Y-32018205D01*
X220379189Y-32018206D01*
X220526855Y-32210649D01*
X220526861Y-32210656D01*
X220698378Y-32382173D01*
X220698384Y-32382178D01*
X220890833Y-32529849D01*
X221100910Y-32651137D01*
X221325022Y-32743967D01*
X221559333Y-32806751D01*
X221739708Y-32830497D01*
X221799833Y-32838413D01*
X221799834Y-32838413D01*
X222042411Y-32838413D01*
X222090510Y-32832080D01*
X222282911Y-32806751D01*
X222517222Y-32743967D01*
X222741334Y-32651137D01*
X222951411Y-32529849D01*
X223143860Y-32382178D01*
X223315387Y-32210651D01*
X223463058Y-32018202D01*
X223584346Y-31808125D01*
X223677176Y-31584013D01*
X223739960Y-31349702D01*
X223771622Y-31109201D01*
X223771622Y-30866625D01*
X223739960Y-30626124D01*
X223677176Y-30391813D01*
X223584346Y-30167701D01*
X223463058Y-29957624D01*
X223315387Y-29765175D01*
X223315382Y-29765169D01*
X223143865Y-29593652D01*
X223143858Y-29593646D01*
X222951415Y-29445980D01*
X222951414Y-29445979D01*
X222951411Y-29445977D01*
X222741334Y-29324689D01*
X222741327Y-29324686D01*
X222517226Y-29231860D01*
X222282907Y-29169074D01*
X222042411Y-29137413D01*
X222042410Y-29137413D01*
X221799834Y-29137413D01*
X221799833Y-29137413D01*
X221559336Y-29169074D01*
X221325017Y-29231860D01*
X221100916Y-29324686D01*
X221100907Y-29324690D01*
X220890828Y-29445980D01*
X220698385Y-29593646D01*
X220698378Y-29593652D01*
X220526861Y-29765169D01*
X220526855Y-29765176D01*
X220379189Y-29957619D01*
X220257899Y-30167698D01*
X220257895Y-30167707D01*
X220165069Y-30391808D01*
X220102283Y-30626127D01*
X220070622Y-30866624D01*
X212359122Y-30866624D01*
X212359122Y-30547585D01*
X212359121Y-30547568D01*
X212352720Y-30488040D01*
X212352718Y-30488033D01*
X212302476Y-30353326D01*
X212302472Y-30353319D01*
X212216312Y-30238225D01*
X212216309Y-30238222D01*
X212101215Y-30152062D01*
X212101208Y-30152058D01*
X211966501Y-30101816D01*
X211966494Y-30101814D01*
X211906966Y-30095413D01*
X211011277Y-30095413D01*
X210951749Y-30101814D01*
X210951742Y-30101816D01*
X210817035Y-30152058D01*
X210817028Y-30152062D01*
X210701934Y-30238222D01*
X210701931Y-30238225D01*
X210615771Y-30353319D01*
X210615767Y-30353326D01*
X210565525Y-30488033D01*
X210565523Y-30488040D01*
X210559122Y-30547568D01*
X207639621Y-30547568D01*
X207639621Y-30547541D01*
X207633213Y-30487930D01*
X207589533Y-30370819D01*
X207582919Y-30353084D01*
X207582915Y-30353077D01*
X207496669Y-30237868D01*
X207496666Y-30237865D01*
X207381457Y-30151619D01*
X207381450Y-30151615D01*
X207246604Y-30101321D01*
X207246605Y-30101321D01*
X207187005Y-30094914D01*
X207187003Y-30094913D01*
X207186995Y-30094913D01*
X207186986Y-30094913D01*
X206291251Y-30094913D01*
X206291245Y-30094914D01*
X206231638Y-30101321D01*
X206096793Y-30151615D01*
X206096786Y-30151619D01*
X205981577Y-30237865D01*
X205981574Y-30237868D01*
X205895328Y-30353077D01*
X205895324Y-30353084D01*
X205845030Y-30487930D01*
X205838623Y-30547529D01*
X205838623Y-30547536D01*
X205838622Y-30547548D01*
X179580866Y-30547548D01*
X185201083Y-26156264D01*
X185201086Y-26156264D01*
X185219262Y-26142060D01*
X185254747Y-26127983D01*
X185284197Y-26116299D01*
X185284203Y-26116298D01*
X185284207Y-26116298D01*
X185295519Y-26115773D01*
X185318592Y-26115759D01*
X185318592Y-26115758D01*
X185332998Y-26115750D01*
X185333012Y-26115747D01*
X229919724Y-26086954D01*
X229979675Y-26102365D01*
G37*
G04 #@! TD.AperFunction*
M02*
