G04 #@! TF.GenerationSoftware,KiCad,Pcbnew,8.0.2*
G04 #@! TF.CreationDate,2025-01-25T18:37:13-07:00*
G04 #@! TF.ProjectId,steering wheel v4,73746565-7269-46e6-9720-776865656c20,rev?*
G04 #@! TF.SameCoordinates,Original*
G04 #@! TF.FileFunction,Legend,Bot*
G04 #@! TF.FilePolarity,Positive*
%FSLAX46Y46*%
G04 Gerber Fmt 4.6, Leading zero omitted, Abs format (unit mm)*
G04 Created by KiCad (PCBNEW 8.0.2) date 2025-01-25 18:37:13*
%MOMM*%
%LPD*%
G01*
G04 APERTURE LIST*
G04 Aperture macros list*
%AMRoundRect*
0 Rectangle with rounded corners*
0 $1 Rounding radius*
0 $2 $3 $4 $5 $6 $7 $8 $9 X,Y pos of 4 corners*
0 Add a 4 corners polygon primitive as box body*
4,1,4,$2,$3,$4,$5,$6,$7,$8,$9,$2,$3,0*
0 Add four circle primitives for the rounded corners*
1,1,$1+$1,$2,$3*
1,1,$1+$1,$4,$5*
1,1,$1+$1,$6,$7*
1,1,$1+$1,$8,$9*
0 Add four rect primitives between the rounded corners*
20,1,$1+$1,$2,$3,$4,$5,0*
20,1,$1+$1,$4,$5,$6,$7,0*
20,1,$1+$1,$6,$7,$8,$9,0*
20,1,$1+$1,$8,$9,$2,$3,0*%
G04 Aperture macros list end*
%ADD10C,0.150000*%
%ADD11C,0.120000*%
%ADD12C,3.200000*%
%ADD13R,1.700000X1.700000*%
%ADD14O,1.700000X1.700000*%
%ADD15O,1.350000X1.700000*%
%ADD16O,1.100000X1.500000*%
%ADD17C,1.100000*%
%ADD18R,0.750000X2.530000*%
%ADD19RoundRect,0.250000X-0.600000X-0.725000X0.600000X-0.725000X0.600000X0.725000X-0.600000X0.725000X0*%
%ADD20O,1.700000X1.950000*%
%ADD21RoundRect,0.250000X-0.750000X0.600000X-0.750000X-0.600000X0.750000X-0.600000X0.750000X0.600000X0*%
%ADD22O,2.000000X1.700000*%
%ADD23RoundRect,0.250000X0.750000X-0.600000X0.750000X0.600000X-0.750000X0.600000X-0.750000X-0.600000X0*%
%ADD24C,0.990600*%
%ADD25C,0.787400*%
G04 APERTURE END LIST*
D10*
X152254455Y-35637732D02*
X152254455Y-36352017D01*
X152254455Y-36352017D02*
X152302074Y-36494874D01*
X152302074Y-36494874D02*
X152397312Y-36590113D01*
X152397312Y-36590113D02*
X152540169Y-36637732D01*
X152540169Y-36637732D02*
X152635407Y-36637732D01*
X151349693Y-35971065D02*
X151349693Y-36637732D01*
X151587788Y-35590113D02*
X151825883Y-36304398D01*
X151825883Y-36304398D02*
X151206836Y-36304398D01*
D11*
X153826122Y-39722913D02*
X153826122Y-40357913D01*
X153826122Y-40357913D02*
X153191122Y-40357913D01*
%LPC*%
D12*
X179921122Y-45487913D03*
X123921122Y-127500000D03*
D13*
X125471122Y-89922913D03*
D14*
X125471122Y-92462913D03*
D12*
X221921122Y-30987913D03*
X123921122Y-45487913D03*
D15*
X174245000Y-150315000D03*
D16*
X174555000Y-147315000D03*
X179395000Y-147315000D03*
D15*
X179705000Y-150315000D03*
D13*
X153700000Y-61900000D03*
D14*
X153700000Y-64440000D03*
D17*
X192721122Y-82837913D03*
X192721122Y-84837913D03*
X192721122Y-86837913D03*
D18*
X213598622Y-32095413D03*
X215728622Y-32095413D03*
D19*
X146721122Y-56937913D03*
D20*
X149221122Y-56937913D03*
X151721122Y-56937913D03*
X154221122Y-56937913D03*
D21*
X108721122Y-34987913D03*
D22*
X108721122Y-37487913D03*
D12*
X88421122Y-147487913D03*
D18*
X90336122Y-32112913D03*
X88206122Y-32112913D03*
D12*
X215421122Y-147487913D03*
X179921122Y-127500000D03*
D17*
X111156122Y-86752913D03*
X111156122Y-84752913D03*
X111156122Y-82752913D03*
D12*
X81921122Y-30987913D03*
D23*
X189921122Y-37487913D03*
D22*
X189921122Y-34987913D03*
D24*
X154461122Y-39087913D03*
X149381122Y-40103913D03*
X149381122Y-38071913D03*
D25*
X153191122Y-39722913D03*
X153191122Y-38452913D03*
X151921122Y-39722913D03*
X151921122Y-38452913D03*
X150651122Y-39722913D03*
X150651122Y-38452913D03*
%LPD*%
M02*
