G04 #@! TF.GenerationSoftware,KiCad,Pcbnew,9.0.0*
G04 #@! TF.CreationDate,2025-03-18T22:32:34-07:00*
G04 #@! TF.ProjectId,steering wheel v4,73746565-7269-46e6-9720-776865656c20,B*
G04 #@! TF.SameCoordinates,Original*
G04 #@! TF.FileFunction,Soldermask,Bot*
G04 #@! TF.FilePolarity,Negative*
%FSLAX46Y46*%
G04 Gerber Fmt 4.6, Leading zero omitted, Abs format (unit mm)*
G04 Created by KiCad (PCBNEW 9.0.0) date 2025-03-18 22:32:34*
%MOMM*%
%LPD*%
G01*
G04 APERTURE LIST*
G04 Aperture macros list*
%AMRoundRect*
0 Rectangle with rounded corners*
0 $1 Rounding radius*
0 $2 $3 $4 $5 $6 $7 $8 $9 X,Y pos of 4 corners*
0 Add a 4 corners polygon primitive as box body*
4,1,4,$2,$3,$4,$5,$6,$7,$8,$9,$2,$3,0*
0 Add four circle primitives for the rounded corners*
1,1,$1+$1,$2,$3*
1,1,$1+$1,$4,$5*
1,1,$1+$1,$6,$7*
1,1,$1+$1,$8,$9*
0 Add four rect primitives between the rounded corners*
20,1,$1+$1,$2,$3,$4,$5,0*
20,1,$1+$1,$4,$5,$6,$7,0*
20,1,$1+$1,$6,$7,$8,$9,0*
20,1,$1+$1,$8,$9,$2,$3,0*%
G04 Aperture macros list end*
%ADD10C,3.200000*%
%ADD11R,1.700000X1.700000*%
%ADD12O,1.700000X1.700000*%
%ADD13O,1.200000X1.900000*%
%ADD14C,1.450000*%
%ADD15C,1.100000*%
%ADD16R,0.800000X3.000000*%
%ADD17RoundRect,0.250000X-0.600000X-0.725000X0.600000X-0.725000X0.600000X0.725000X-0.600000X0.725000X0*%
%ADD18O,1.700000X1.950000*%
%ADD19RoundRect,0.250000X-0.750000X0.600000X-0.750000X-0.600000X0.750000X-0.600000X0.750000X0.600000X0*%
%ADD20O,2.000000X1.700000*%
%ADD21C,0.990600*%
%ADD22RoundRect,0.250000X0.750000X-0.600000X0.750000X0.600000X-0.750000X0.600000X-0.750000X-0.600000X0*%
%ADD23C,0.787400*%
G04 APERTURE END LIST*
D10*
X179921122Y-45487913D03*
X123921122Y-127500000D03*
D11*
X197062500Y-128467058D03*
D12*
X197062500Y-125927058D03*
D10*
X221921122Y-30987913D03*
X123921122Y-45487913D03*
D13*
X174200000Y-150402500D03*
D14*
X175200000Y-147702500D03*
X180200000Y-147702500D03*
D13*
X181200000Y-150402500D03*
D11*
X153700000Y-61900000D03*
D12*
X153700000Y-64440000D03*
D15*
X192721122Y-82837913D03*
X192721122Y-84837913D03*
X192721122Y-86837913D03*
D16*
X211459122Y-32095413D03*
X206739122Y-32095413D03*
D17*
X146721122Y-56937913D03*
D18*
X149221122Y-56937913D03*
X151721122Y-56937913D03*
X154221122Y-56937913D03*
D19*
X108721122Y-34987913D03*
D20*
X108721122Y-37487913D03*
D10*
X88421122Y-147487913D03*
D21*
X160420000Y-99484000D03*
X165500000Y-98468000D03*
X165500000Y-100500000D03*
D16*
X97195627Y-32112913D03*
X92475627Y-32112913D03*
D10*
X215421122Y-147487913D03*
X179921122Y-127500000D03*
D15*
X111156122Y-86752913D03*
X111156122Y-84752913D03*
X111156122Y-82752913D03*
D10*
X81921122Y-30987913D03*
D22*
X189921122Y-37487913D03*
D20*
X189921122Y-34987913D03*
D21*
X148460000Y-38635000D03*
X153540000Y-37619000D03*
X153540000Y-39651000D03*
D23*
X149730000Y-38000000D03*
X149730000Y-39270000D03*
X151000000Y-38000000D03*
X151000000Y-39270000D03*
X152270000Y-38000000D03*
X152270000Y-39270000D03*
M02*
