%TF.GenerationSoftware,KiCad,Pcbnew,8.0.2*%
%TF.CreationDate,2025-01-24T23:57:38-07:00*%
%TF.ProjectId,steering wheel v4,73746565-7269-46e6-9720-776865656c20,rev?*%
%TF.SameCoordinates,Original*%
%TF.FileFunction,Drillmap*%
%TF.FilePolarity,Positive*%
%FSLAX45Y45*%
G04 Gerber Fmt 4.5, Leading zero omitted, Abs format (unit mm)*
G04 Created by KiCad (PCBNEW 8.0.2) date 2025-01-24 23:57:38*
%MOMM*%
%LPD*%
G01*
G04 APERTURE LIST*
%ADD10C,0.050000*%
%ADD11C,0.200000*%
%ADD12C,0.100000*%
%ADD13C,0.320000*%
G04 APERTURE END LIST*
D10*
X21747567Y-15191576D02*
G75*
G02*
X21719793Y-15200002I-27777J41576D01*
G01*
X22013038Y-14987505D02*
G75*
G02*
X21990813Y-15029084I-49998J-5D01*
G01*
X21983799Y-14295446D02*
G75*
G02*
X22013038Y-14340931I-20759J-45484D01*
G01*
X20004776Y-13392137D02*
G75*
G02*
X19975538Y-13346651I20764J45487D01*
G01*
X19961964Y-9864355D02*
G75*
G02*
X19975541Y-9898607I-36424J-34255D01*
G01*
X19674178Y-9558298D02*
G75*
G02*
X19660606Y-9523879I36422J34248D01*
G01*
X19666402Y-7801989D02*
G75*
G02*
X19680198Y-7767674I49999J-171D01*
G01*
X20753088Y-6621239D02*
G75*
G02*
X20739293Y-6655724I-49998J-1D01*
G01*
X20753088Y-4661952D02*
G75*
G02*
X20767732Y-4626595I50002J2D01*
G01*
X21728393Y-3665936D02*
G75*
G02*
X21763748Y-3651290I35357J-35354D01*
G01*
X22796905Y-3639824D02*
G75*
G02*
X22765042Y-3651292I-31866J38534D01*
G01*
X23303038Y-3197757D02*
G75*
G02*
X23284902Y-3236290I-49998J-3D01*
G01*
X23277180Y-2707034D02*
G75*
G02*
X23303039Y-2750819I-24140J-43786D01*
G01*
X22995149Y-2558644D02*
G75*
G02*
X23019323Y-2564859I31J-49997D01*
G01*
X18494486Y-2572131D02*
G75*
G02*
X18525238Y-2561530I30784J-39400D01*
G01*
X17811605Y-3105691D02*
G75*
G02*
X17780820Y-3116291I-30785J39401D01*
G01*
X12609329Y-3116291D02*
G75*
G02*
X12578545Y-3105691I1J50001D01*
G01*
X11864912Y-2561530D02*
G75*
G02*
X11895664Y-2572130I-32J-50000D01*
G01*
X7370826Y-2564858D02*
G75*
G02*
X7395000Y-2558642I24144J-43782D01*
G01*
X7087112Y-2750819D02*
G75*
G02*
X7112971Y-2707036I49998J-1D01*
G01*
X7105249Y-3236289D02*
G75*
G02*
X7087114Y-3197757I31861J38529D01*
G01*
X7625107Y-3651291D02*
G75*
G02*
X7593245Y-3639823I3J50001D01*
G01*
X8626402Y-3651291D02*
G75*
G02*
X8661756Y-3665937I-2J-49999D01*
G01*
X9622417Y-4626596D02*
G75*
G02*
X9637060Y-4661952I-35357J-35354D01*
G01*
X9650856Y-6655724D02*
G75*
G02*
X9637062Y-6621239I36204J34484D01*
G01*
X10709954Y-7767673D02*
G75*
G02*
X10723751Y-7801989I-36204J-34487D01*
G01*
X10729545Y-9523879D02*
G75*
G02*
X10715972Y-9558299I-49995J-171D01*
G01*
X10414612Y-13346651D02*
G75*
G02*
X10385374Y-13392137I-50002J1D01*
G01*
X8377112Y-14340931D02*
G75*
G02*
X8406351Y-14295446I49998J2D01*
G01*
X8399338Y-15029082D02*
G75*
G02*
X8377115Y-14987505I27772J41572D01*
G01*
X8670357Y-15200000D02*
G75*
G02*
X8642584Y-15191575I3J50000D01*
G01*
X8670357Y-15200000D02*
X15195075Y-15200000D01*
X14392000Y-15021221D02*
X14392000Y-13911221D01*
X20753088Y-4661952D02*
X20753088Y-6621239D01*
X22013038Y-14340931D02*
X22013038Y-14987505D01*
X20004776Y-13392137D02*
X21983799Y-14295446D01*
X7395000Y-2558644D02*
X11864912Y-2561530D01*
X22765042Y-3651291D02*
X21763748Y-3651291D01*
X19666402Y-7801989D02*
X19660605Y-9523879D01*
X13972680Y-13861000D02*
X14342030Y-13861221D01*
X13972680Y-15071000D02*
X14341970Y-15071221D01*
X21990812Y-15029082D02*
X21747567Y-15191576D01*
X8399338Y-15029082D02*
X8642583Y-15191576D01*
X16040970Y-15071779D02*
G75*
G02*
X15991001Y-15021779I30J49999D01*
G01*
X16040970Y-15071779D02*
X16410320Y-15072000D01*
X23277180Y-2707034D02*
X23019324Y-2564858D01*
X15991000Y-13911779D02*
G75*
G02*
X16041030Y-13861780I50000J-1D01*
G01*
X10723748Y-7801989D02*
X10729545Y-9523879D01*
X19975538Y-9898607D02*
X19975538Y-13346651D01*
X22995149Y-2558644D02*
X18525238Y-2561530D01*
X17391075Y-4669392D02*
G75*
G02*
X16691075Y-4669392I-350000J0D01*
G01*
X16691075Y-4669392D02*
G75*
G02*
X17391075Y-4669392I350000J0D01*
G01*
X9650856Y-6655724D02*
X10709954Y-7767673D01*
X10414612Y-9898607D02*
X10414612Y-13346651D01*
X7625107Y-3651291D02*
X8626402Y-3651291D01*
X8377112Y-14340931D02*
X8377112Y-14987505D01*
X7105249Y-3236289D02*
X7593244Y-3639824D01*
X15792112Y-11488791D02*
G75*
G02*
X14592112Y-11488791I-600000J0D01*
G01*
X14592112Y-11488791D02*
G75*
G02*
X15792112Y-11488791I600000J0D01*
G01*
X8661757Y-3665936D02*
X9622417Y-4626596D01*
X10428186Y-9864355D02*
X10715971Y-9558298D01*
X13228680Y-14787000D02*
G75*
G02*
X13228680Y-14145000I140000J321000D01*
G01*
X7112970Y-2707034D02*
X7370826Y-2564858D01*
X16041030Y-13861779D02*
X16410320Y-13862000D01*
X23284901Y-3236289D02*
X22796905Y-3639824D01*
X13699075Y-4669392D02*
G75*
G02*
X12999075Y-4669392I-350000J0D01*
G01*
X12999075Y-4669392D02*
G75*
G02*
X13699075Y-4669392I350000J0D01*
G01*
X21719793Y-15200000D02*
X15195075Y-15200000D01*
X16410320Y-15072000D02*
X17154320Y-14788000D01*
X7087112Y-3197757D02*
X7087112Y-2750819D01*
X15195075Y-3116291D02*
X17780820Y-3116291D01*
X15991000Y-15021779D02*
X15991000Y-13911779D01*
X13592112Y-7678791D02*
G75*
G02*
X12392112Y-7678791I-600000J0D01*
G01*
X12392112Y-7678791D02*
G75*
G02*
X13592112Y-7678791I600000J0D01*
G01*
X15195075Y-3116291D02*
X12609329Y-3116291D01*
X20739293Y-6655724D02*
X19680196Y-7767673D01*
X14392000Y-15021221D02*
G75*
G02*
X14341970Y-15071220I-50000J1D01*
G01*
X9637062Y-4661952D02*
X9637062Y-6621239D01*
X11895664Y-2572131D02*
X12578545Y-3105691D01*
X23303038Y-3197757D02*
X23303038Y-2750819D01*
X19961964Y-9864355D02*
X19674178Y-9558298D01*
X14342030Y-13861221D02*
G75*
G02*
X14391999Y-13911221I-30J-49999D01*
G01*
X13972680Y-15071000D02*
X13228680Y-14787000D01*
X17154320Y-14146000D02*
G75*
G02*
X17154320Y-14788000I-140000J-321000D01*
G01*
X16410320Y-13862000D02*
X17154320Y-14146000D01*
X21728393Y-3665936D02*
X20767733Y-4626596D01*
X13972680Y-13861000D02*
X13228680Y-14145000D01*
X17992112Y-7678791D02*
G75*
G02*
X16792112Y-7678791I-600000J0D01*
G01*
X16792112Y-7678791D02*
G75*
G02*
X17992112Y-7678791I600000J0D01*
G01*
X10385374Y-13392137D02*
X8406351Y-14295446D01*
X18494486Y-2572131D02*
X17811605Y-3105691D01*
X10414612Y-9898607D02*
G75*
G02*
X10428188Y-9864357I49998J-3D01*
G01*
X19764612Y-14908791D02*
X18894612Y-14908791D01*
X18894612Y-13873791D01*
X19764612Y-13873791D01*
X19764612Y-14908791D01*
X15629612Y-14906291D02*
X14759612Y-14906291D01*
X14759612Y-13871291D01*
X15629612Y-13871291D01*
X15629612Y-14906291D01*
X11494612Y-14913791D02*
X10624612Y-14913791D01*
X10624612Y-13878791D01*
X11494612Y-13878791D01*
X11494612Y-14913791D01*
D11*
D12*
X14888582Y-3757661D02*
X14987642Y-3856721D01*
X14987642Y-3757661D02*
X14888582Y-3856721D01*
X14888582Y-3960861D02*
X14987642Y-4059921D01*
X14987642Y-3960861D02*
X14888582Y-4059921D01*
X15396582Y-3859261D02*
X15495642Y-3958321D01*
X15495642Y-3859261D02*
X15396582Y-3958321D01*
D13*
X8352112Y-3098791D02*
G75*
G02*
X8032112Y-3098791I-160000J0D01*
G01*
X8032112Y-3098791D02*
G75*
G02*
X8352112Y-3098791I160000J0D01*
G01*
X9002112Y-14748791D02*
G75*
G02*
X8682112Y-14748791I-160000J0D01*
G01*
X8682112Y-14748791D02*
G75*
G02*
X9002112Y-14748791I160000J0D01*
G01*
X12552112Y-4548791D02*
G75*
G02*
X12232112Y-4548791I-160000J0D01*
G01*
X12232112Y-4548791D02*
G75*
G02*
X12552112Y-4548791I160000J0D01*
G01*
X12552112Y-12750000D02*
G75*
G02*
X12232112Y-12750000I-160000J0D01*
G01*
X12232112Y-12750000D02*
G75*
G02*
X12552112Y-12750000I160000J0D01*
G01*
X18152112Y-4548791D02*
G75*
G02*
X17832112Y-4548791I-160000J0D01*
G01*
X17832112Y-4548791D02*
G75*
G02*
X18152112Y-4548791I160000J0D01*
G01*
X18152112Y-12750000D02*
G75*
G02*
X17832112Y-12750000I-160000J0D01*
G01*
X17832112Y-12750000D02*
G75*
G02*
X18152112Y-12750000I160000J0D01*
G01*
X21702112Y-14748791D02*
G75*
G02*
X21382112Y-14748791I-160000J0D01*
G01*
X21382112Y-14748791D02*
G75*
G02*
X21702112Y-14748791I160000J0D01*
G01*
X22352112Y-3098791D02*
G75*
G02*
X22032112Y-3098791I-160000J0D01*
G01*
X22032112Y-3098791D02*
G75*
G02*
X22352112Y-3098791I160000J0D01*
G01*
D11*
X7345389Y-15513984D02*
X7345389Y-15313984D01*
X7345389Y-15313984D02*
X7393008Y-15313984D01*
X7393008Y-15313984D02*
X7421579Y-15323508D01*
X7421579Y-15323508D02*
X7440627Y-15342555D01*
X7440627Y-15342555D02*
X7450151Y-15361603D01*
X7450151Y-15361603D02*
X7459675Y-15399698D01*
X7459675Y-15399698D02*
X7459675Y-15428269D01*
X7459675Y-15428269D02*
X7450151Y-15466365D01*
X7450151Y-15466365D02*
X7440627Y-15485412D01*
X7440627Y-15485412D02*
X7421579Y-15504460D01*
X7421579Y-15504460D02*
X7393008Y-15513984D01*
X7393008Y-15513984D02*
X7345389Y-15513984D01*
X7545389Y-15513984D02*
X7545389Y-15380650D01*
X7545389Y-15418746D02*
X7554913Y-15399698D01*
X7554913Y-15399698D02*
X7564437Y-15390174D01*
X7564437Y-15390174D02*
X7583484Y-15380650D01*
X7583484Y-15380650D02*
X7602532Y-15380650D01*
X7669198Y-15513984D02*
X7669198Y-15380650D01*
X7669198Y-15313984D02*
X7659675Y-15323508D01*
X7659675Y-15323508D02*
X7669198Y-15333031D01*
X7669198Y-15333031D02*
X7678722Y-15323508D01*
X7678722Y-15323508D02*
X7669198Y-15313984D01*
X7669198Y-15313984D02*
X7669198Y-15333031D01*
X7793008Y-15513984D02*
X7773960Y-15504460D01*
X7773960Y-15504460D02*
X7764437Y-15485412D01*
X7764437Y-15485412D02*
X7764437Y-15313984D01*
X7897770Y-15513984D02*
X7878722Y-15504460D01*
X7878722Y-15504460D02*
X7869198Y-15485412D01*
X7869198Y-15485412D02*
X7869198Y-15313984D01*
X8126341Y-15513984D02*
X8126341Y-15313984D01*
X8126341Y-15313984D02*
X8193008Y-15456841D01*
X8193008Y-15456841D02*
X8259675Y-15313984D01*
X8259675Y-15313984D02*
X8259675Y-15513984D01*
X8440627Y-15513984D02*
X8440627Y-15409222D01*
X8440627Y-15409222D02*
X8431103Y-15390174D01*
X8431103Y-15390174D02*
X8412056Y-15380650D01*
X8412056Y-15380650D02*
X8373960Y-15380650D01*
X8373960Y-15380650D02*
X8354913Y-15390174D01*
X8440627Y-15504460D02*
X8421580Y-15513984D01*
X8421580Y-15513984D02*
X8373960Y-15513984D01*
X8373960Y-15513984D02*
X8354913Y-15504460D01*
X8354913Y-15504460D02*
X8345389Y-15485412D01*
X8345389Y-15485412D02*
X8345389Y-15466365D01*
X8345389Y-15466365D02*
X8354913Y-15447317D01*
X8354913Y-15447317D02*
X8373960Y-15437793D01*
X8373960Y-15437793D02*
X8421580Y-15437793D01*
X8421580Y-15437793D02*
X8440627Y-15428269D01*
X8535865Y-15380650D02*
X8535865Y-15580650D01*
X8535865Y-15390174D02*
X8554913Y-15380650D01*
X8554913Y-15380650D02*
X8593008Y-15380650D01*
X8593008Y-15380650D02*
X8612056Y-15390174D01*
X8612056Y-15390174D02*
X8621580Y-15399698D01*
X8621580Y-15399698D02*
X8631103Y-15418746D01*
X8631103Y-15418746D02*
X8631103Y-15475888D01*
X8631103Y-15475888D02*
X8621580Y-15494936D01*
X8621580Y-15494936D02*
X8612056Y-15504460D01*
X8612056Y-15504460D02*
X8593008Y-15513984D01*
X8593008Y-15513984D02*
X8554913Y-15513984D01*
X8554913Y-15513984D02*
X8535865Y-15504460D01*
X8716818Y-15494936D02*
X8726341Y-15504460D01*
X8726341Y-15504460D02*
X8716818Y-15513984D01*
X8716818Y-15513984D02*
X8707294Y-15504460D01*
X8707294Y-15504460D02*
X8716818Y-15494936D01*
X8716818Y-15494936D02*
X8716818Y-15513984D01*
X8716818Y-15390174D02*
X8726341Y-15399698D01*
X8726341Y-15399698D02*
X8716818Y-15409222D01*
X8716818Y-15409222D02*
X8707294Y-15399698D01*
X8707294Y-15399698D02*
X8716818Y-15390174D01*
X8716818Y-15390174D02*
X8716818Y-15409222D01*
D12*
X6985552Y-15792970D02*
X7084612Y-15892030D01*
X7084612Y-15792970D02*
X6985552Y-15892030D01*
D11*
X7383484Y-15733984D02*
X7402532Y-15733984D01*
X7402532Y-15733984D02*
X7421579Y-15743508D01*
X7421579Y-15743508D02*
X7431103Y-15753031D01*
X7431103Y-15753031D02*
X7440627Y-15772079D01*
X7440627Y-15772079D02*
X7450151Y-15810174D01*
X7450151Y-15810174D02*
X7450151Y-15857793D01*
X7450151Y-15857793D02*
X7440627Y-15895888D01*
X7440627Y-15895888D02*
X7431103Y-15914936D01*
X7431103Y-15914936D02*
X7421579Y-15924460D01*
X7421579Y-15924460D02*
X7402532Y-15933984D01*
X7402532Y-15933984D02*
X7383484Y-15933984D01*
X7383484Y-15933984D02*
X7364437Y-15924460D01*
X7364437Y-15924460D02*
X7354913Y-15914936D01*
X7354913Y-15914936D02*
X7345389Y-15895888D01*
X7345389Y-15895888D02*
X7335865Y-15857793D01*
X7335865Y-15857793D02*
X7335865Y-15810174D01*
X7335865Y-15810174D02*
X7345389Y-15772079D01*
X7345389Y-15772079D02*
X7354913Y-15753031D01*
X7354913Y-15753031D02*
X7364437Y-15743508D01*
X7364437Y-15743508D02*
X7383484Y-15733984D01*
X7535865Y-15914936D02*
X7545389Y-15924460D01*
X7545389Y-15924460D02*
X7535865Y-15933984D01*
X7535865Y-15933984D02*
X7526341Y-15924460D01*
X7526341Y-15924460D02*
X7535865Y-15914936D01*
X7535865Y-15914936D02*
X7535865Y-15933984D01*
X7640627Y-15933984D02*
X7678722Y-15933984D01*
X7678722Y-15933984D02*
X7697770Y-15924460D01*
X7697770Y-15924460D02*
X7707294Y-15914936D01*
X7707294Y-15914936D02*
X7726341Y-15886365D01*
X7726341Y-15886365D02*
X7735865Y-15848269D01*
X7735865Y-15848269D02*
X7735865Y-15772079D01*
X7735865Y-15772079D02*
X7726341Y-15753031D01*
X7726341Y-15753031D02*
X7716818Y-15743508D01*
X7716818Y-15743508D02*
X7697770Y-15733984D01*
X7697770Y-15733984D02*
X7659675Y-15733984D01*
X7659675Y-15733984D02*
X7640627Y-15743508D01*
X7640627Y-15743508D02*
X7631103Y-15753031D01*
X7631103Y-15753031D02*
X7621579Y-15772079D01*
X7621579Y-15772079D02*
X7621579Y-15819698D01*
X7621579Y-15819698D02*
X7631103Y-15838746D01*
X7631103Y-15838746D02*
X7640627Y-15848269D01*
X7640627Y-15848269D02*
X7659675Y-15857793D01*
X7659675Y-15857793D02*
X7697770Y-15857793D01*
X7697770Y-15857793D02*
X7716818Y-15848269D01*
X7716818Y-15848269D02*
X7726341Y-15838746D01*
X7726341Y-15838746D02*
X7735865Y-15819698D01*
X7831103Y-15933984D02*
X7869198Y-15933984D01*
X7869198Y-15933984D02*
X7888246Y-15924460D01*
X7888246Y-15924460D02*
X7897770Y-15914936D01*
X7897770Y-15914936D02*
X7916818Y-15886365D01*
X7916818Y-15886365D02*
X7926341Y-15848269D01*
X7926341Y-15848269D02*
X7926341Y-15772079D01*
X7926341Y-15772079D02*
X7916818Y-15753031D01*
X7916818Y-15753031D02*
X7907294Y-15743508D01*
X7907294Y-15743508D02*
X7888246Y-15733984D01*
X7888246Y-15733984D02*
X7850151Y-15733984D01*
X7850151Y-15733984D02*
X7831103Y-15743508D01*
X7831103Y-15743508D02*
X7821579Y-15753031D01*
X7821579Y-15753031D02*
X7812056Y-15772079D01*
X7812056Y-15772079D02*
X7812056Y-15819698D01*
X7812056Y-15819698D02*
X7821579Y-15838746D01*
X7821579Y-15838746D02*
X7831103Y-15848269D01*
X7831103Y-15848269D02*
X7850151Y-15857793D01*
X7850151Y-15857793D02*
X7888246Y-15857793D01*
X7888246Y-15857793D02*
X7907294Y-15848269D01*
X7907294Y-15848269D02*
X7916818Y-15838746D01*
X7916818Y-15838746D02*
X7926341Y-15819698D01*
X8116818Y-15933984D02*
X8002532Y-15933984D01*
X8059675Y-15933984D02*
X8059675Y-15733984D01*
X8059675Y-15733984D02*
X8040627Y-15762555D01*
X8040627Y-15762555D02*
X8021579Y-15781603D01*
X8021579Y-15781603D02*
X8002532Y-15791127D01*
X8202532Y-15933984D02*
X8202532Y-15800650D01*
X8202532Y-15819698D02*
X8212056Y-15810174D01*
X8212056Y-15810174D02*
X8231103Y-15800650D01*
X8231103Y-15800650D02*
X8259675Y-15800650D01*
X8259675Y-15800650D02*
X8278722Y-15810174D01*
X8278722Y-15810174D02*
X8288246Y-15829222D01*
X8288246Y-15829222D02*
X8288246Y-15933984D01*
X8288246Y-15829222D02*
X8297770Y-15810174D01*
X8297770Y-15810174D02*
X8316818Y-15800650D01*
X8316818Y-15800650D02*
X8345389Y-15800650D01*
X8345389Y-15800650D02*
X8364437Y-15810174D01*
X8364437Y-15810174D02*
X8373960Y-15829222D01*
X8373960Y-15829222D02*
X8373960Y-15933984D01*
X8469199Y-15933984D02*
X8469199Y-15800650D01*
X8469199Y-15819698D02*
X8478722Y-15810174D01*
X8478722Y-15810174D02*
X8497770Y-15800650D01*
X8497770Y-15800650D02*
X8526342Y-15800650D01*
X8526342Y-15800650D02*
X8545389Y-15810174D01*
X8545389Y-15810174D02*
X8554913Y-15829222D01*
X8554913Y-15829222D02*
X8554913Y-15933984D01*
X8554913Y-15829222D02*
X8564437Y-15810174D01*
X8564437Y-15810174D02*
X8583484Y-15800650D01*
X8583484Y-15800650D02*
X8612056Y-15800650D01*
X8612056Y-15800650D02*
X8631103Y-15810174D01*
X8631103Y-15810174D02*
X8640627Y-15829222D01*
X8640627Y-15829222D02*
X8640627Y-15933984D01*
X9031103Y-15724460D02*
X8859675Y-15981603D01*
X9288246Y-15733984D02*
X9307294Y-15733984D01*
X9307294Y-15733984D02*
X9326342Y-15743508D01*
X9326342Y-15743508D02*
X9335865Y-15753031D01*
X9335865Y-15753031D02*
X9345389Y-15772079D01*
X9345389Y-15772079D02*
X9354913Y-15810174D01*
X9354913Y-15810174D02*
X9354913Y-15857793D01*
X9354913Y-15857793D02*
X9345389Y-15895888D01*
X9345389Y-15895888D02*
X9335865Y-15914936D01*
X9335865Y-15914936D02*
X9326342Y-15924460D01*
X9326342Y-15924460D02*
X9307294Y-15933984D01*
X9307294Y-15933984D02*
X9288246Y-15933984D01*
X9288246Y-15933984D02*
X9269199Y-15924460D01*
X9269199Y-15924460D02*
X9259675Y-15914936D01*
X9259675Y-15914936D02*
X9250151Y-15895888D01*
X9250151Y-15895888D02*
X9240627Y-15857793D01*
X9240627Y-15857793D02*
X9240627Y-15810174D01*
X9240627Y-15810174D02*
X9250151Y-15772079D01*
X9250151Y-15772079D02*
X9259675Y-15753031D01*
X9259675Y-15753031D02*
X9269199Y-15743508D01*
X9269199Y-15743508D02*
X9288246Y-15733984D01*
X9440627Y-15914936D02*
X9450151Y-15924460D01*
X9450151Y-15924460D02*
X9440627Y-15933984D01*
X9440627Y-15933984D02*
X9431104Y-15924460D01*
X9431104Y-15924460D02*
X9440627Y-15914936D01*
X9440627Y-15914936D02*
X9440627Y-15933984D01*
X9573961Y-15733984D02*
X9593008Y-15733984D01*
X9593008Y-15733984D02*
X9612056Y-15743508D01*
X9612056Y-15743508D02*
X9621580Y-15753031D01*
X9621580Y-15753031D02*
X9631104Y-15772079D01*
X9631104Y-15772079D02*
X9640627Y-15810174D01*
X9640627Y-15810174D02*
X9640627Y-15857793D01*
X9640627Y-15857793D02*
X9631104Y-15895888D01*
X9631104Y-15895888D02*
X9621580Y-15914936D01*
X9621580Y-15914936D02*
X9612056Y-15924460D01*
X9612056Y-15924460D02*
X9593008Y-15933984D01*
X9593008Y-15933984D02*
X9573961Y-15933984D01*
X9573961Y-15933984D02*
X9554913Y-15924460D01*
X9554913Y-15924460D02*
X9545389Y-15914936D01*
X9545389Y-15914936D02*
X9535865Y-15895888D01*
X9535865Y-15895888D02*
X9526342Y-15857793D01*
X9526342Y-15857793D02*
X9526342Y-15810174D01*
X9526342Y-15810174D02*
X9535865Y-15772079D01*
X9535865Y-15772079D02*
X9545389Y-15753031D01*
X9545389Y-15753031D02*
X9554913Y-15743508D01*
X9554913Y-15743508D02*
X9573961Y-15733984D01*
X9707294Y-15733984D02*
X9831104Y-15733984D01*
X9831104Y-15733984D02*
X9764437Y-15810174D01*
X9764437Y-15810174D02*
X9793008Y-15810174D01*
X9793008Y-15810174D02*
X9812056Y-15819698D01*
X9812056Y-15819698D02*
X9821580Y-15829222D01*
X9821580Y-15829222D02*
X9831104Y-15848269D01*
X9831104Y-15848269D02*
X9831104Y-15895888D01*
X9831104Y-15895888D02*
X9821580Y-15914936D01*
X9821580Y-15914936D02*
X9812056Y-15924460D01*
X9812056Y-15924460D02*
X9793008Y-15933984D01*
X9793008Y-15933984D02*
X9735865Y-15933984D01*
X9735865Y-15933984D02*
X9716818Y-15924460D01*
X9716818Y-15924460D02*
X9707294Y-15914936D01*
X9926342Y-15933984D02*
X9964437Y-15933984D01*
X9964437Y-15933984D02*
X9983485Y-15924460D01*
X9983485Y-15924460D02*
X9993008Y-15914936D01*
X9993008Y-15914936D02*
X10012056Y-15886365D01*
X10012056Y-15886365D02*
X10021580Y-15848269D01*
X10021580Y-15848269D02*
X10021580Y-15772079D01*
X10021580Y-15772079D02*
X10012056Y-15753031D01*
X10012056Y-15753031D02*
X10002532Y-15743508D01*
X10002532Y-15743508D02*
X9983485Y-15733984D01*
X9983485Y-15733984D02*
X9945389Y-15733984D01*
X9945389Y-15733984D02*
X9926342Y-15743508D01*
X9926342Y-15743508D02*
X9916818Y-15753031D01*
X9916818Y-15753031D02*
X9907294Y-15772079D01*
X9907294Y-15772079D02*
X9907294Y-15819698D01*
X9907294Y-15819698D02*
X9916818Y-15838746D01*
X9916818Y-15838746D02*
X9926342Y-15848269D01*
X9926342Y-15848269D02*
X9945389Y-15857793D01*
X9945389Y-15857793D02*
X9983485Y-15857793D01*
X9983485Y-15857793D02*
X10002532Y-15848269D01*
X10002532Y-15848269D02*
X10012056Y-15838746D01*
X10012056Y-15838746D02*
X10021580Y-15819698D01*
X10145389Y-15733984D02*
X10164437Y-15733984D01*
X10164437Y-15733984D02*
X10183485Y-15743508D01*
X10183485Y-15743508D02*
X10193008Y-15753031D01*
X10193008Y-15753031D02*
X10202532Y-15772079D01*
X10202532Y-15772079D02*
X10212056Y-15810174D01*
X10212056Y-15810174D02*
X10212056Y-15857793D01*
X10212056Y-15857793D02*
X10202532Y-15895888D01*
X10202532Y-15895888D02*
X10193008Y-15914936D01*
X10193008Y-15914936D02*
X10183485Y-15924460D01*
X10183485Y-15924460D02*
X10164437Y-15933984D01*
X10164437Y-15933984D02*
X10145389Y-15933984D01*
X10145389Y-15933984D02*
X10126342Y-15924460D01*
X10126342Y-15924460D02*
X10116818Y-15914936D01*
X10116818Y-15914936D02*
X10107294Y-15895888D01*
X10107294Y-15895888D02*
X10097770Y-15857793D01*
X10097770Y-15857793D02*
X10097770Y-15810174D01*
X10097770Y-15810174D02*
X10107294Y-15772079D01*
X10107294Y-15772079D02*
X10116818Y-15753031D01*
X10116818Y-15753031D02*
X10126342Y-15743508D01*
X10126342Y-15743508D02*
X10145389Y-15733984D01*
X10288246Y-15733984D02*
X10288246Y-15772079D01*
X10364437Y-15733984D02*
X10364437Y-15772079D01*
X10659675Y-16010174D02*
X10650151Y-16000650D01*
X10650151Y-16000650D02*
X10631104Y-15972079D01*
X10631104Y-15972079D02*
X10621580Y-15953031D01*
X10621580Y-15953031D02*
X10612056Y-15924460D01*
X10612056Y-15924460D02*
X10602532Y-15876841D01*
X10602532Y-15876841D02*
X10602532Y-15838746D01*
X10602532Y-15838746D02*
X10612056Y-15791127D01*
X10612056Y-15791127D02*
X10621580Y-15762555D01*
X10621580Y-15762555D02*
X10631104Y-15743508D01*
X10631104Y-15743508D02*
X10650151Y-15714936D01*
X10650151Y-15714936D02*
X10659675Y-15705412D01*
X10716818Y-15733984D02*
X10840627Y-15733984D01*
X10840627Y-15733984D02*
X10773961Y-15810174D01*
X10773961Y-15810174D02*
X10802532Y-15810174D01*
X10802532Y-15810174D02*
X10821580Y-15819698D01*
X10821580Y-15819698D02*
X10831104Y-15829222D01*
X10831104Y-15829222D02*
X10840627Y-15848269D01*
X10840627Y-15848269D02*
X10840627Y-15895888D01*
X10840627Y-15895888D02*
X10831104Y-15914936D01*
X10831104Y-15914936D02*
X10821580Y-15924460D01*
X10821580Y-15924460D02*
X10802532Y-15933984D01*
X10802532Y-15933984D02*
X10745389Y-15933984D01*
X10745389Y-15933984D02*
X10726342Y-15924460D01*
X10726342Y-15924460D02*
X10716818Y-15914936D01*
X11078723Y-15933984D02*
X11078723Y-15733984D01*
X11164437Y-15933984D02*
X11164437Y-15829222D01*
X11164437Y-15829222D02*
X11154913Y-15810174D01*
X11154913Y-15810174D02*
X11135866Y-15800650D01*
X11135866Y-15800650D02*
X11107294Y-15800650D01*
X11107294Y-15800650D02*
X11088247Y-15810174D01*
X11088247Y-15810174D02*
X11078723Y-15819698D01*
X11288246Y-15933984D02*
X11269199Y-15924460D01*
X11269199Y-15924460D02*
X11259675Y-15914936D01*
X11259675Y-15914936D02*
X11250151Y-15895888D01*
X11250151Y-15895888D02*
X11250151Y-15838746D01*
X11250151Y-15838746D02*
X11259675Y-15819698D01*
X11259675Y-15819698D02*
X11269199Y-15810174D01*
X11269199Y-15810174D02*
X11288246Y-15800650D01*
X11288246Y-15800650D02*
X11316818Y-15800650D01*
X11316818Y-15800650D02*
X11335866Y-15810174D01*
X11335866Y-15810174D02*
X11345389Y-15819698D01*
X11345389Y-15819698D02*
X11354913Y-15838746D01*
X11354913Y-15838746D02*
X11354913Y-15895888D01*
X11354913Y-15895888D02*
X11345389Y-15914936D01*
X11345389Y-15914936D02*
X11335866Y-15924460D01*
X11335866Y-15924460D02*
X11316818Y-15933984D01*
X11316818Y-15933984D02*
X11288246Y-15933984D01*
X11469199Y-15933984D02*
X11450151Y-15924460D01*
X11450151Y-15924460D02*
X11440627Y-15905412D01*
X11440627Y-15905412D02*
X11440627Y-15733984D01*
X11621580Y-15924460D02*
X11602532Y-15933984D01*
X11602532Y-15933984D02*
X11564437Y-15933984D01*
X11564437Y-15933984D02*
X11545389Y-15924460D01*
X11545389Y-15924460D02*
X11535866Y-15905412D01*
X11535866Y-15905412D02*
X11535866Y-15829222D01*
X11535866Y-15829222D02*
X11545389Y-15810174D01*
X11545389Y-15810174D02*
X11564437Y-15800650D01*
X11564437Y-15800650D02*
X11602532Y-15800650D01*
X11602532Y-15800650D02*
X11621580Y-15810174D01*
X11621580Y-15810174D02*
X11631104Y-15829222D01*
X11631104Y-15829222D02*
X11631104Y-15848269D01*
X11631104Y-15848269D02*
X11535866Y-15867317D01*
X11707294Y-15924460D02*
X11726342Y-15933984D01*
X11726342Y-15933984D02*
X11764437Y-15933984D01*
X11764437Y-15933984D02*
X11783485Y-15924460D01*
X11783485Y-15924460D02*
X11793008Y-15905412D01*
X11793008Y-15905412D02*
X11793008Y-15895888D01*
X11793008Y-15895888D02*
X11783485Y-15876841D01*
X11783485Y-15876841D02*
X11764437Y-15867317D01*
X11764437Y-15867317D02*
X11735866Y-15867317D01*
X11735866Y-15867317D02*
X11716818Y-15857793D01*
X11716818Y-15857793D02*
X11707294Y-15838746D01*
X11707294Y-15838746D02*
X11707294Y-15829222D01*
X11707294Y-15829222D02*
X11716818Y-15810174D01*
X11716818Y-15810174D02*
X11735866Y-15800650D01*
X11735866Y-15800650D02*
X11764437Y-15800650D01*
X11764437Y-15800650D02*
X11783485Y-15810174D01*
X11859675Y-16010174D02*
X11869199Y-16000650D01*
X11869199Y-16000650D02*
X11888247Y-15972079D01*
X11888247Y-15972079D02*
X11897770Y-15953031D01*
X11897770Y-15953031D02*
X11907294Y-15924460D01*
X11907294Y-15924460D02*
X11916818Y-15876841D01*
X11916818Y-15876841D02*
X11916818Y-15838746D01*
X11916818Y-15838746D02*
X11907294Y-15791127D01*
X11907294Y-15791127D02*
X11897770Y-15762555D01*
X11897770Y-15762555D02*
X11888247Y-15743508D01*
X11888247Y-15743508D02*
X11869199Y-15714936D01*
X11869199Y-15714936D02*
X11859675Y-15705412D01*
X12221580Y-16010174D02*
X12212056Y-16000650D01*
X12212056Y-16000650D02*
X12193008Y-15972079D01*
X12193008Y-15972079D02*
X12183485Y-15953031D01*
X12183485Y-15953031D02*
X12173961Y-15924460D01*
X12173961Y-15924460D02*
X12164437Y-15876841D01*
X12164437Y-15876841D02*
X12164437Y-15838746D01*
X12164437Y-15838746D02*
X12173961Y-15791127D01*
X12173961Y-15791127D02*
X12183485Y-15762555D01*
X12183485Y-15762555D02*
X12193008Y-15743508D01*
X12193008Y-15743508D02*
X12212056Y-15714936D01*
X12212056Y-15714936D02*
X12221580Y-15705412D01*
X12297770Y-15800650D02*
X12297770Y-15933984D01*
X12297770Y-15819698D02*
X12307294Y-15810174D01*
X12307294Y-15810174D02*
X12326342Y-15800650D01*
X12326342Y-15800650D02*
X12354913Y-15800650D01*
X12354913Y-15800650D02*
X12373961Y-15810174D01*
X12373961Y-15810174D02*
X12383485Y-15829222D01*
X12383485Y-15829222D02*
X12383485Y-15933984D01*
X12507294Y-15933984D02*
X12488247Y-15924460D01*
X12488247Y-15924460D02*
X12478723Y-15914936D01*
X12478723Y-15914936D02*
X12469199Y-15895888D01*
X12469199Y-15895888D02*
X12469199Y-15838746D01*
X12469199Y-15838746D02*
X12478723Y-15819698D01*
X12478723Y-15819698D02*
X12488247Y-15810174D01*
X12488247Y-15810174D02*
X12507294Y-15800650D01*
X12507294Y-15800650D02*
X12535866Y-15800650D01*
X12535866Y-15800650D02*
X12554913Y-15810174D01*
X12554913Y-15810174D02*
X12564437Y-15819698D01*
X12564437Y-15819698D02*
X12573961Y-15838746D01*
X12573961Y-15838746D02*
X12573961Y-15895888D01*
X12573961Y-15895888D02*
X12564437Y-15914936D01*
X12564437Y-15914936D02*
X12554913Y-15924460D01*
X12554913Y-15924460D02*
X12535866Y-15933984D01*
X12535866Y-15933984D02*
X12507294Y-15933984D01*
X12631104Y-15800650D02*
X12707294Y-15800650D01*
X12659675Y-15733984D02*
X12659675Y-15905412D01*
X12659675Y-15905412D02*
X12669199Y-15924460D01*
X12669199Y-15924460D02*
X12688247Y-15933984D01*
X12688247Y-15933984D02*
X12707294Y-15933984D01*
X12926342Y-15800650D02*
X12926342Y-16000650D01*
X12926342Y-15810174D02*
X12945389Y-15800650D01*
X12945389Y-15800650D02*
X12983485Y-15800650D01*
X12983485Y-15800650D02*
X13002532Y-15810174D01*
X13002532Y-15810174D02*
X13012056Y-15819698D01*
X13012056Y-15819698D02*
X13021580Y-15838746D01*
X13021580Y-15838746D02*
X13021580Y-15895888D01*
X13021580Y-15895888D02*
X13012056Y-15914936D01*
X13012056Y-15914936D02*
X13002532Y-15924460D01*
X13002532Y-15924460D02*
X12983485Y-15933984D01*
X12983485Y-15933984D02*
X12945389Y-15933984D01*
X12945389Y-15933984D02*
X12926342Y-15924460D01*
X13135866Y-15933984D02*
X13116818Y-15924460D01*
X13116818Y-15924460D02*
X13107294Y-15905412D01*
X13107294Y-15905412D02*
X13107294Y-15733984D01*
X13297770Y-15933984D02*
X13297770Y-15829222D01*
X13297770Y-15829222D02*
X13288247Y-15810174D01*
X13288247Y-15810174D02*
X13269199Y-15800650D01*
X13269199Y-15800650D02*
X13231104Y-15800650D01*
X13231104Y-15800650D02*
X13212056Y-15810174D01*
X13297770Y-15924460D02*
X13278723Y-15933984D01*
X13278723Y-15933984D02*
X13231104Y-15933984D01*
X13231104Y-15933984D02*
X13212056Y-15924460D01*
X13212056Y-15924460D02*
X13202532Y-15905412D01*
X13202532Y-15905412D02*
X13202532Y-15886365D01*
X13202532Y-15886365D02*
X13212056Y-15867317D01*
X13212056Y-15867317D02*
X13231104Y-15857793D01*
X13231104Y-15857793D02*
X13278723Y-15857793D01*
X13278723Y-15857793D02*
X13297770Y-15848269D01*
X13364437Y-15800650D02*
X13440628Y-15800650D01*
X13393009Y-15733984D02*
X13393009Y-15905412D01*
X13393009Y-15905412D02*
X13402532Y-15924460D01*
X13402532Y-15924460D02*
X13421580Y-15933984D01*
X13421580Y-15933984D02*
X13440628Y-15933984D01*
X13583485Y-15924460D02*
X13564437Y-15933984D01*
X13564437Y-15933984D02*
X13526342Y-15933984D01*
X13526342Y-15933984D02*
X13507294Y-15924460D01*
X13507294Y-15924460D02*
X13497770Y-15905412D01*
X13497770Y-15905412D02*
X13497770Y-15829222D01*
X13497770Y-15829222D02*
X13507294Y-15810174D01*
X13507294Y-15810174D02*
X13526342Y-15800650D01*
X13526342Y-15800650D02*
X13564437Y-15800650D01*
X13564437Y-15800650D02*
X13583485Y-15810174D01*
X13583485Y-15810174D02*
X13593009Y-15829222D01*
X13593009Y-15829222D02*
X13593009Y-15848269D01*
X13593009Y-15848269D02*
X13497770Y-15867317D01*
X13764437Y-15933984D02*
X13764437Y-15733984D01*
X13764437Y-15924460D02*
X13745390Y-15933984D01*
X13745390Y-15933984D02*
X13707294Y-15933984D01*
X13707294Y-15933984D02*
X13688247Y-15924460D01*
X13688247Y-15924460D02*
X13678723Y-15914936D01*
X13678723Y-15914936D02*
X13669199Y-15895888D01*
X13669199Y-15895888D02*
X13669199Y-15838746D01*
X13669199Y-15838746D02*
X13678723Y-15819698D01*
X13678723Y-15819698D02*
X13688247Y-15810174D01*
X13688247Y-15810174D02*
X13707294Y-15800650D01*
X13707294Y-15800650D02*
X13745390Y-15800650D01*
X13745390Y-15800650D02*
X13764437Y-15810174D01*
X13840628Y-16010174D02*
X13850151Y-16000650D01*
X13850151Y-16000650D02*
X13869199Y-15972079D01*
X13869199Y-15972079D02*
X13878723Y-15953031D01*
X13878723Y-15953031D02*
X13888247Y-15924460D01*
X13888247Y-15924460D02*
X13897770Y-15876841D01*
X13897770Y-15876841D02*
X13897770Y-15838746D01*
X13897770Y-15838746D02*
X13888247Y-15791127D01*
X13888247Y-15791127D02*
X13878723Y-15762555D01*
X13878723Y-15762555D02*
X13869199Y-15743508D01*
X13869199Y-15743508D02*
X13850151Y-15714936D01*
X13850151Y-15714936D02*
X13840628Y-15705412D01*
X7084612Y-16106500D02*
G75*
G02*
X6884612Y-16106500I-100000J0D01*
G01*
X6884612Y-16106500D02*
G75*
G02*
X7084612Y-16106500I100000J0D01*
G01*
X7326341Y-15997984D02*
X7450151Y-15997984D01*
X7450151Y-15997984D02*
X7383484Y-16074174D01*
X7383484Y-16074174D02*
X7412056Y-16074174D01*
X7412056Y-16074174D02*
X7431103Y-16083698D01*
X7431103Y-16083698D02*
X7440627Y-16093222D01*
X7440627Y-16093222D02*
X7450151Y-16112269D01*
X7450151Y-16112269D02*
X7450151Y-16159888D01*
X7450151Y-16159888D02*
X7440627Y-16178936D01*
X7440627Y-16178936D02*
X7431103Y-16188460D01*
X7431103Y-16188460D02*
X7412056Y-16197984D01*
X7412056Y-16197984D02*
X7354913Y-16197984D01*
X7354913Y-16197984D02*
X7335865Y-16188460D01*
X7335865Y-16188460D02*
X7326341Y-16178936D01*
X7535865Y-16178936D02*
X7545389Y-16188460D01*
X7545389Y-16188460D02*
X7535865Y-16197984D01*
X7535865Y-16197984D02*
X7526341Y-16188460D01*
X7526341Y-16188460D02*
X7535865Y-16178936D01*
X7535865Y-16178936D02*
X7535865Y-16197984D01*
X7621579Y-16017031D02*
X7631103Y-16007508D01*
X7631103Y-16007508D02*
X7650151Y-15997984D01*
X7650151Y-15997984D02*
X7697770Y-15997984D01*
X7697770Y-15997984D02*
X7716818Y-16007508D01*
X7716818Y-16007508D02*
X7726341Y-16017031D01*
X7726341Y-16017031D02*
X7735865Y-16036079D01*
X7735865Y-16036079D02*
X7735865Y-16055127D01*
X7735865Y-16055127D02*
X7726341Y-16083698D01*
X7726341Y-16083698D02*
X7612056Y-16197984D01*
X7612056Y-16197984D02*
X7735865Y-16197984D01*
X7859675Y-15997984D02*
X7878722Y-15997984D01*
X7878722Y-15997984D02*
X7897770Y-16007508D01*
X7897770Y-16007508D02*
X7907294Y-16017031D01*
X7907294Y-16017031D02*
X7916818Y-16036079D01*
X7916818Y-16036079D02*
X7926341Y-16074174D01*
X7926341Y-16074174D02*
X7926341Y-16121793D01*
X7926341Y-16121793D02*
X7916818Y-16159888D01*
X7916818Y-16159888D02*
X7907294Y-16178936D01*
X7907294Y-16178936D02*
X7897770Y-16188460D01*
X7897770Y-16188460D02*
X7878722Y-16197984D01*
X7878722Y-16197984D02*
X7859675Y-16197984D01*
X7859675Y-16197984D02*
X7840627Y-16188460D01*
X7840627Y-16188460D02*
X7831103Y-16178936D01*
X7831103Y-16178936D02*
X7821579Y-16159888D01*
X7821579Y-16159888D02*
X7812056Y-16121793D01*
X7812056Y-16121793D02*
X7812056Y-16074174D01*
X7812056Y-16074174D02*
X7821579Y-16036079D01*
X7821579Y-16036079D02*
X7831103Y-16017031D01*
X7831103Y-16017031D02*
X7840627Y-16007508D01*
X7840627Y-16007508D02*
X7859675Y-15997984D01*
X8050151Y-15997984D02*
X8069199Y-15997984D01*
X8069199Y-15997984D02*
X8088246Y-16007508D01*
X8088246Y-16007508D02*
X8097770Y-16017031D01*
X8097770Y-16017031D02*
X8107294Y-16036079D01*
X8107294Y-16036079D02*
X8116818Y-16074174D01*
X8116818Y-16074174D02*
X8116818Y-16121793D01*
X8116818Y-16121793D02*
X8107294Y-16159888D01*
X8107294Y-16159888D02*
X8097770Y-16178936D01*
X8097770Y-16178936D02*
X8088246Y-16188460D01*
X8088246Y-16188460D02*
X8069199Y-16197984D01*
X8069199Y-16197984D02*
X8050151Y-16197984D01*
X8050151Y-16197984D02*
X8031103Y-16188460D01*
X8031103Y-16188460D02*
X8021579Y-16178936D01*
X8021579Y-16178936D02*
X8012056Y-16159888D01*
X8012056Y-16159888D02*
X8002532Y-16121793D01*
X8002532Y-16121793D02*
X8002532Y-16074174D01*
X8002532Y-16074174D02*
X8012056Y-16036079D01*
X8012056Y-16036079D02*
X8021579Y-16017031D01*
X8021579Y-16017031D02*
X8031103Y-16007508D01*
X8031103Y-16007508D02*
X8050151Y-15997984D01*
X8202532Y-16197984D02*
X8202532Y-16064650D01*
X8202532Y-16083698D02*
X8212056Y-16074174D01*
X8212056Y-16074174D02*
X8231103Y-16064650D01*
X8231103Y-16064650D02*
X8259675Y-16064650D01*
X8259675Y-16064650D02*
X8278722Y-16074174D01*
X8278722Y-16074174D02*
X8288246Y-16093222D01*
X8288246Y-16093222D02*
X8288246Y-16197984D01*
X8288246Y-16093222D02*
X8297770Y-16074174D01*
X8297770Y-16074174D02*
X8316818Y-16064650D01*
X8316818Y-16064650D02*
X8345389Y-16064650D01*
X8345389Y-16064650D02*
X8364437Y-16074174D01*
X8364437Y-16074174D02*
X8373960Y-16093222D01*
X8373960Y-16093222D02*
X8373960Y-16197984D01*
X8469199Y-16197984D02*
X8469199Y-16064650D01*
X8469199Y-16083698D02*
X8478722Y-16074174D01*
X8478722Y-16074174D02*
X8497770Y-16064650D01*
X8497770Y-16064650D02*
X8526342Y-16064650D01*
X8526342Y-16064650D02*
X8545389Y-16074174D01*
X8545389Y-16074174D02*
X8554913Y-16093222D01*
X8554913Y-16093222D02*
X8554913Y-16197984D01*
X8554913Y-16093222D02*
X8564437Y-16074174D01*
X8564437Y-16074174D02*
X8583484Y-16064650D01*
X8583484Y-16064650D02*
X8612056Y-16064650D01*
X8612056Y-16064650D02*
X8631103Y-16074174D01*
X8631103Y-16074174D02*
X8640627Y-16093222D01*
X8640627Y-16093222D02*
X8640627Y-16197984D01*
X9031103Y-15988460D02*
X8859675Y-16245603D01*
X9288246Y-15997984D02*
X9307294Y-15997984D01*
X9307294Y-15997984D02*
X9326342Y-16007508D01*
X9326342Y-16007508D02*
X9335865Y-16017031D01*
X9335865Y-16017031D02*
X9345389Y-16036079D01*
X9345389Y-16036079D02*
X9354913Y-16074174D01*
X9354913Y-16074174D02*
X9354913Y-16121793D01*
X9354913Y-16121793D02*
X9345389Y-16159888D01*
X9345389Y-16159888D02*
X9335865Y-16178936D01*
X9335865Y-16178936D02*
X9326342Y-16188460D01*
X9326342Y-16188460D02*
X9307294Y-16197984D01*
X9307294Y-16197984D02*
X9288246Y-16197984D01*
X9288246Y-16197984D02*
X9269199Y-16188460D01*
X9269199Y-16188460D02*
X9259675Y-16178936D01*
X9259675Y-16178936D02*
X9250151Y-16159888D01*
X9250151Y-16159888D02*
X9240627Y-16121793D01*
X9240627Y-16121793D02*
X9240627Y-16074174D01*
X9240627Y-16074174D02*
X9250151Y-16036079D01*
X9250151Y-16036079D02*
X9259675Y-16017031D01*
X9259675Y-16017031D02*
X9269199Y-16007508D01*
X9269199Y-16007508D02*
X9288246Y-15997984D01*
X9440627Y-16178936D02*
X9450151Y-16188460D01*
X9450151Y-16188460D02*
X9440627Y-16197984D01*
X9440627Y-16197984D02*
X9431104Y-16188460D01*
X9431104Y-16188460D02*
X9440627Y-16178936D01*
X9440627Y-16178936D02*
X9440627Y-16197984D01*
X9640627Y-16197984D02*
X9526342Y-16197984D01*
X9583484Y-16197984D02*
X9583484Y-15997984D01*
X9583484Y-15997984D02*
X9564437Y-16026555D01*
X9564437Y-16026555D02*
X9545389Y-16045603D01*
X9545389Y-16045603D02*
X9526342Y-16055127D01*
X9716818Y-16017031D02*
X9726342Y-16007508D01*
X9726342Y-16007508D02*
X9745389Y-15997984D01*
X9745389Y-15997984D02*
X9793008Y-15997984D01*
X9793008Y-15997984D02*
X9812056Y-16007508D01*
X9812056Y-16007508D02*
X9821580Y-16017031D01*
X9821580Y-16017031D02*
X9831104Y-16036079D01*
X9831104Y-16036079D02*
X9831104Y-16055127D01*
X9831104Y-16055127D02*
X9821580Y-16083698D01*
X9821580Y-16083698D02*
X9707294Y-16197984D01*
X9707294Y-16197984D02*
X9831104Y-16197984D01*
X10002532Y-15997984D02*
X9964437Y-15997984D01*
X9964437Y-15997984D02*
X9945389Y-16007508D01*
X9945389Y-16007508D02*
X9935865Y-16017031D01*
X9935865Y-16017031D02*
X9916818Y-16045603D01*
X9916818Y-16045603D02*
X9907294Y-16083698D01*
X9907294Y-16083698D02*
X9907294Y-16159888D01*
X9907294Y-16159888D02*
X9916818Y-16178936D01*
X9916818Y-16178936D02*
X9926342Y-16188460D01*
X9926342Y-16188460D02*
X9945389Y-16197984D01*
X9945389Y-16197984D02*
X9983485Y-16197984D01*
X9983485Y-16197984D02*
X10002532Y-16188460D01*
X10002532Y-16188460D02*
X10012056Y-16178936D01*
X10012056Y-16178936D02*
X10021580Y-16159888D01*
X10021580Y-16159888D02*
X10021580Y-16112269D01*
X10021580Y-16112269D02*
X10012056Y-16093222D01*
X10012056Y-16093222D02*
X10002532Y-16083698D01*
X10002532Y-16083698D02*
X9983485Y-16074174D01*
X9983485Y-16074174D02*
X9945389Y-16074174D01*
X9945389Y-16074174D02*
X9926342Y-16083698D01*
X9926342Y-16083698D02*
X9916818Y-16093222D01*
X9916818Y-16093222D02*
X9907294Y-16112269D01*
X10145389Y-15997984D02*
X10164437Y-15997984D01*
X10164437Y-15997984D02*
X10183485Y-16007508D01*
X10183485Y-16007508D02*
X10193008Y-16017031D01*
X10193008Y-16017031D02*
X10202532Y-16036079D01*
X10202532Y-16036079D02*
X10212056Y-16074174D01*
X10212056Y-16074174D02*
X10212056Y-16121793D01*
X10212056Y-16121793D02*
X10202532Y-16159888D01*
X10202532Y-16159888D02*
X10193008Y-16178936D01*
X10193008Y-16178936D02*
X10183485Y-16188460D01*
X10183485Y-16188460D02*
X10164437Y-16197984D01*
X10164437Y-16197984D02*
X10145389Y-16197984D01*
X10145389Y-16197984D02*
X10126342Y-16188460D01*
X10126342Y-16188460D02*
X10116818Y-16178936D01*
X10116818Y-16178936D02*
X10107294Y-16159888D01*
X10107294Y-16159888D02*
X10097770Y-16121793D01*
X10097770Y-16121793D02*
X10097770Y-16074174D01*
X10097770Y-16074174D02*
X10107294Y-16036079D01*
X10107294Y-16036079D02*
X10116818Y-16017031D01*
X10116818Y-16017031D02*
X10126342Y-16007508D01*
X10126342Y-16007508D02*
X10145389Y-15997984D01*
X10288246Y-15997984D02*
X10288246Y-16036079D01*
X10364437Y-15997984D02*
X10364437Y-16036079D01*
X10659675Y-16274174D02*
X10650151Y-16264650D01*
X10650151Y-16264650D02*
X10631104Y-16236079D01*
X10631104Y-16236079D02*
X10621580Y-16217031D01*
X10621580Y-16217031D02*
X10612056Y-16188460D01*
X10612056Y-16188460D02*
X10602532Y-16140841D01*
X10602532Y-16140841D02*
X10602532Y-16102746D01*
X10602532Y-16102746D02*
X10612056Y-16055127D01*
X10612056Y-16055127D02*
X10621580Y-16026555D01*
X10621580Y-16026555D02*
X10631104Y-16007508D01*
X10631104Y-16007508D02*
X10650151Y-15978936D01*
X10650151Y-15978936D02*
X10659675Y-15969412D01*
X10764437Y-16083698D02*
X10745389Y-16074174D01*
X10745389Y-16074174D02*
X10735866Y-16064650D01*
X10735866Y-16064650D02*
X10726342Y-16045603D01*
X10726342Y-16045603D02*
X10726342Y-16036079D01*
X10726342Y-16036079D02*
X10735866Y-16017031D01*
X10735866Y-16017031D02*
X10745389Y-16007508D01*
X10745389Y-16007508D02*
X10764437Y-15997984D01*
X10764437Y-15997984D02*
X10802532Y-15997984D01*
X10802532Y-15997984D02*
X10821580Y-16007508D01*
X10821580Y-16007508D02*
X10831104Y-16017031D01*
X10831104Y-16017031D02*
X10840627Y-16036079D01*
X10840627Y-16036079D02*
X10840627Y-16045603D01*
X10840627Y-16045603D02*
X10831104Y-16064650D01*
X10831104Y-16064650D02*
X10821580Y-16074174D01*
X10821580Y-16074174D02*
X10802532Y-16083698D01*
X10802532Y-16083698D02*
X10764437Y-16083698D01*
X10764437Y-16083698D02*
X10745389Y-16093222D01*
X10745389Y-16093222D02*
X10735866Y-16102746D01*
X10735866Y-16102746D02*
X10726342Y-16121793D01*
X10726342Y-16121793D02*
X10726342Y-16159888D01*
X10726342Y-16159888D02*
X10735866Y-16178936D01*
X10735866Y-16178936D02*
X10745389Y-16188460D01*
X10745389Y-16188460D02*
X10764437Y-16197984D01*
X10764437Y-16197984D02*
X10802532Y-16197984D01*
X10802532Y-16197984D02*
X10821580Y-16188460D01*
X10821580Y-16188460D02*
X10831104Y-16178936D01*
X10831104Y-16178936D02*
X10840627Y-16159888D01*
X10840627Y-16159888D02*
X10840627Y-16121793D01*
X10840627Y-16121793D02*
X10831104Y-16102746D01*
X10831104Y-16102746D02*
X10821580Y-16093222D01*
X10821580Y-16093222D02*
X10802532Y-16083698D01*
X11078723Y-16197984D02*
X11078723Y-15997984D01*
X11164437Y-16197984D02*
X11164437Y-16093222D01*
X11164437Y-16093222D02*
X11154913Y-16074174D01*
X11154913Y-16074174D02*
X11135866Y-16064650D01*
X11135866Y-16064650D02*
X11107294Y-16064650D01*
X11107294Y-16064650D02*
X11088247Y-16074174D01*
X11088247Y-16074174D02*
X11078723Y-16083698D01*
X11288246Y-16197984D02*
X11269199Y-16188460D01*
X11269199Y-16188460D02*
X11259675Y-16178936D01*
X11259675Y-16178936D02*
X11250151Y-16159888D01*
X11250151Y-16159888D02*
X11250151Y-16102746D01*
X11250151Y-16102746D02*
X11259675Y-16083698D01*
X11259675Y-16083698D02*
X11269199Y-16074174D01*
X11269199Y-16074174D02*
X11288246Y-16064650D01*
X11288246Y-16064650D02*
X11316818Y-16064650D01*
X11316818Y-16064650D02*
X11335866Y-16074174D01*
X11335866Y-16074174D02*
X11345389Y-16083698D01*
X11345389Y-16083698D02*
X11354913Y-16102746D01*
X11354913Y-16102746D02*
X11354913Y-16159888D01*
X11354913Y-16159888D02*
X11345389Y-16178936D01*
X11345389Y-16178936D02*
X11335866Y-16188460D01*
X11335866Y-16188460D02*
X11316818Y-16197984D01*
X11316818Y-16197984D02*
X11288246Y-16197984D01*
X11469199Y-16197984D02*
X11450151Y-16188460D01*
X11450151Y-16188460D02*
X11440627Y-16169412D01*
X11440627Y-16169412D02*
X11440627Y-15997984D01*
X11621580Y-16188460D02*
X11602532Y-16197984D01*
X11602532Y-16197984D02*
X11564437Y-16197984D01*
X11564437Y-16197984D02*
X11545389Y-16188460D01*
X11545389Y-16188460D02*
X11535866Y-16169412D01*
X11535866Y-16169412D02*
X11535866Y-16093222D01*
X11535866Y-16093222D02*
X11545389Y-16074174D01*
X11545389Y-16074174D02*
X11564437Y-16064650D01*
X11564437Y-16064650D02*
X11602532Y-16064650D01*
X11602532Y-16064650D02*
X11621580Y-16074174D01*
X11621580Y-16074174D02*
X11631104Y-16093222D01*
X11631104Y-16093222D02*
X11631104Y-16112269D01*
X11631104Y-16112269D02*
X11535866Y-16131317D01*
X11707294Y-16188460D02*
X11726342Y-16197984D01*
X11726342Y-16197984D02*
X11764437Y-16197984D01*
X11764437Y-16197984D02*
X11783485Y-16188460D01*
X11783485Y-16188460D02*
X11793008Y-16169412D01*
X11793008Y-16169412D02*
X11793008Y-16159888D01*
X11793008Y-16159888D02*
X11783485Y-16140841D01*
X11783485Y-16140841D02*
X11764437Y-16131317D01*
X11764437Y-16131317D02*
X11735866Y-16131317D01*
X11735866Y-16131317D02*
X11716818Y-16121793D01*
X11716818Y-16121793D02*
X11707294Y-16102746D01*
X11707294Y-16102746D02*
X11707294Y-16093222D01*
X11707294Y-16093222D02*
X11716818Y-16074174D01*
X11716818Y-16074174D02*
X11735866Y-16064650D01*
X11735866Y-16064650D02*
X11764437Y-16064650D01*
X11764437Y-16064650D02*
X11783485Y-16074174D01*
X11859675Y-16274174D02*
X11869199Y-16264650D01*
X11869199Y-16264650D02*
X11888247Y-16236079D01*
X11888247Y-16236079D02*
X11897770Y-16217031D01*
X11897770Y-16217031D02*
X11907294Y-16188460D01*
X11907294Y-16188460D02*
X11916818Y-16140841D01*
X11916818Y-16140841D02*
X11916818Y-16102746D01*
X11916818Y-16102746D02*
X11907294Y-16055127D01*
X11907294Y-16055127D02*
X11897770Y-16026555D01*
X11897770Y-16026555D02*
X11888247Y-16007508D01*
X11888247Y-16007508D02*
X11869199Y-15978936D01*
X11869199Y-15978936D02*
X11859675Y-15969412D01*
X12221580Y-16274174D02*
X12212056Y-16264650D01*
X12212056Y-16264650D02*
X12193008Y-16236079D01*
X12193008Y-16236079D02*
X12183485Y-16217031D01*
X12183485Y-16217031D02*
X12173961Y-16188460D01*
X12173961Y-16188460D02*
X12164437Y-16140841D01*
X12164437Y-16140841D02*
X12164437Y-16102746D01*
X12164437Y-16102746D02*
X12173961Y-16055127D01*
X12173961Y-16055127D02*
X12183485Y-16026555D01*
X12183485Y-16026555D02*
X12193008Y-16007508D01*
X12193008Y-16007508D02*
X12212056Y-15978936D01*
X12212056Y-15978936D02*
X12221580Y-15969412D01*
X12297770Y-16064650D02*
X12297770Y-16197984D01*
X12297770Y-16083698D02*
X12307294Y-16074174D01*
X12307294Y-16074174D02*
X12326342Y-16064650D01*
X12326342Y-16064650D02*
X12354913Y-16064650D01*
X12354913Y-16064650D02*
X12373961Y-16074174D01*
X12373961Y-16074174D02*
X12383485Y-16093222D01*
X12383485Y-16093222D02*
X12383485Y-16197984D01*
X12507294Y-16197984D02*
X12488247Y-16188460D01*
X12488247Y-16188460D02*
X12478723Y-16178936D01*
X12478723Y-16178936D02*
X12469199Y-16159888D01*
X12469199Y-16159888D02*
X12469199Y-16102746D01*
X12469199Y-16102746D02*
X12478723Y-16083698D01*
X12478723Y-16083698D02*
X12488247Y-16074174D01*
X12488247Y-16074174D02*
X12507294Y-16064650D01*
X12507294Y-16064650D02*
X12535866Y-16064650D01*
X12535866Y-16064650D02*
X12554913Y-16074174D01*
X12554913Y-16074174D02*
X12564437Y-16083698D01*
X12564437Y-16083698D02*
X12573961Y-16102746D01*
X12573961Y-16102746D02*
X12573961Y-16159888D01*
X12573961Y-16159888D02*
X12564437Y-16178936D01*
X12564437Y-16178936D02*
X12554913Y-16188460D01*
X12554913Y-16188460D02*
X12535866Y-16197984D01*
X12535866Y-16197984D02*
X12507294Y-16197984D01*
X12631104Y-16064650D02*
X12707294Y-16064650D01*
X12659675Y-15997984D02*
X12659675Y-16169412D01*
X12659675Y-16169412D02*
X12669199Y-16188460D01*
X12669199Y-16188460D02*
X12688247Y-16197984D01*
X12688247Y-16197984D02*
X12707294Y-16197984D01*
X12926342Y-16064650D02*
X12926342Y-16264650D01*
X12926342Y-16074174D02*
X12945389Y-16064650D01*
X12945389Y-16064650D02*
X12983485Y-16064650D01*
X12983485Y-16064650D02*
X13002532Y-16074174D01*
X13002532Y-16074174D02*
X13012056Y-16083698D01*
X13012056Y-16083698D02*
X13021580Y-16102746D01*
X13021580Y-16102746D02*
X13021580Y-16159888D01*
X13021580Y-16159888D02*
X13012056Y-16178936D01*
X13012056Y-16178936D02*
X13002532Y-16188460D01*
X13002532Y-16188460D02*
X12983485Y-16197984D01*
X12983485Y-16197984D02*
X12945389Y-16197984D01*
X12945389Y-16197984D02*
X12926342Y-16188460D01*
X13135866Y-16197984D02*
X13116818Y-16188460D01*
X13116818Y-16188460D02*
X13107294Y-16169412D01*
X13107294Y-16169412D02*
X13107294Y-15997984D01*
X13297770Y-16197984D02*
X13297770Y-16093222D01*
X13297770Y-16093222D02*
X13288247Y-16074174D01*
X13288247Y-16074174D02*
X13269199Y-16064650D01*
X13269199Y-16064650D02*
X13231104Y-16064650D01*
X13231104Y-16064650D02*
X13212056Y-16074174D01*
X13297770Y-16188460D02*
X13278723Y-16197984D01*
X13278723Y-16197984D02*
X13231104Y-16197984D01*
X13231104Y-16197984D02*
X13212056Y-16188460D01*
X13212056Y-16188460D02*
X13202532Y-16169412D01*
X13202532Y-16169412D02*
X13202532Y-16150365D01*
X13202532Y-16150365D02*
X13212056Y-16131317D01*
X13212056Y-16131317D02*
X13231104Y-16121793D01*
X13231104Y-16121793D02*
X13278723Y-16121793D01*
X13278723Y-16121793D02*
X13297770Y-16112269D01*
X13364437Y-16064650D02*
X13440628Y-16064650D01*
X13393009Y-15997984D02*
X13393009Y-16169412D01*
X13393009Y-16169412D02*
X13402532Y-16188460D01*
X13402532Y-16188460D02*
X13421580Y-16197984D01*
X13421580Y-16197984D02*
X13440628Y-16197984D01*
X13583485Y-16188460D02*
X13564437Y-16197984D01*
X13564437Y-16197984D02*
X13526342Y-16197984D01*
X13526342Y-16197984D02*
X13507294Y-16188460D01*
X13507294Y-16188460D02*
X13497770Y-16169412D01*
X13497770Y-16169412D02*
X13497770Y-16093222D01*
X13497770Y-16093222D02*
X13507294Y-16074174D01*
X13507294Y-16074174D02*
X13526342Y-16064650D01*
X13526342Y-16064650D02*
X13564437Y-16064650D01*
X13564437Y-16064650D02*
X13583485Y-16074174D01*
X13583485Y-16074174D02*
X13593009Y-16093222D01*
X13593009Y-16093222D02*
X13593009Y-16112269D01*
X13593009Y-16112269D02*
X13497770Y-16131317D01*
X13764437Y-16197984D02*
X13764437Y-15997984D01*
X13764437Y-16188460D02*
X13745390Y-16197984D01*
X13745390Y-16197984D02*
X13707294Y-16197984D01*
X13707294Y-16197984D02*
X13688247Y-16188460D01*
X13688247Y-16188460D02*
X13678723Y-16178936D01*
X13678723Y-16178936D02*
X13669199Y-16159888D01*
X13669199Y-16159888D02*
X13669199Y-16102746D01*
X13669199Y-16102746D02*
X13678723Y-16083698D01*
X13678723Y-16083698D02*
X13688247Y-16074174D01*
X13688247Y-16074174D02*
X13707294Y-16064650D01*
X13707294Y-16064650D02*
X13745390Y-16064650D01*
X13745390Y-16064650D02*
X13764437Y-16074174D01*
X13840628Y-16274174D02*
X13850151Y-16264650D01*
X13850151Y-16264650D02*
X13869199Y-16236079D01*
X13869199Y-16236079D02*
X13878723Y-16217031D01*
X13878723Y-16217031D02*
X13888247Y-16188460D01*
X13888247Y-16188460D02*
X13897770Y-16140841D01*
X13897770Y-16140841D02*
X13897770Y-16102746D01*
X13897770Y-16102746D02*
X13888247Y-16055127D01*
X13888247Y-16055127D02*
X13878723Y-16026555D01*
X13878723Y-16026555D02*
X13869199Y-16007508D01*
X13869199Y-16007508D02*
X13850151Y-15978936D01*
X13850151Y-15978936D02*
X13840628Y-15969412D01*
M02*
