G04 #@! TF.GenerationSoftware,KiCad,Pcbnew,8.0.2*
G04 #@! TF.CreationDate,2025-02-01T15:31:24-07:00*
G04 #@! TF.ProjectId,sdm25wheel,73646d32-3577-4686-9565-6c2e6b696361,v1.1*
G04 #@! TF.SameCoordinates,Original*
G04 #@! TF.FileFunction,Legend,Bot*
G04 #@! TF.FilePolarity,Positive*
%FSLAX46Y46*%
G04 Gerber Fmt 4.6, Leading zero omitted, Abs format (unit mm)*
G04 Created by KiCad (PCBNEW 8.0.2) date 2025-02-01 15:31:24*
%MOMM*%
%LPD*%
G01*
G04 APERTURE LIST*
G04 Aperture macros list*
%AMRoundRect*
0 Rectangle with rounded corners*
0 $1 Rounding radius*
0 $2 $3 $4 $5 $6 $7 $8 $9 X,Y pos of 4 corners*
0 Add a 4 corners polygon primitive as box body*
4,1,4,$2,$3,$4,$5,$6,$7,$8,$9,$2,$3,0*
0 Add four circle primitives for the rounded corners*
1,1,$1+$1,$2,$3*
1,1,$1+$1,$4,$5*
1,1,$1+$1,$6,$7*
1,1,$1+$1,$8,$9*
0 Add four rect primitives between the rounded corners*
20,1,$1+$1,$2,$3,$4,$5,0*
20,1,$1+$1,$4,$5,$6,$7,0*
20,1,$1+$1,$6,$7,$8,$9,0*
20,1,$1+$1,$8,$9,$2,$3,0*%
G04 Aperture macros list end*
%ADD10C,0.150000*%
%ADD11C,0.000000*%
%ADD12C,0.990600*%
%ADD13RoundRect,0.250000X0.725000X-0.600000X0.725000X0.600000X-0.725000X0.600000X-0.725000X-0.600000X0*%
%ADD14O,1.950000X1.700000*%
%ADD15C,1.524000*%
%ADD16C,3.200000*%
%ADD17O,1.200000X1.900000*%
%ADD18C,1.450000*%
%ADD19RoundRect,0.250000X0.600000X0.725000X-0.600000X0.725000X-0.600000X-0.725000X0.600000X-0.725000X0*%
%ADD20O,1.700000X1.950000*%
%ADD21R,1.700000X1.700000*%
%ADD22O,1.700000X1.700000*%
%ADD23RoundRect,0.070000X-0.630000X-0.070000X0.630000X-0.070000X0.630000X0.070000X-0.630000X0.070000X0*%
G04 APERTURE END LIST*
D10*
X164877506Y-113169819D02*
X164877506Y-113884104D01*
X164877506Y-113884104D02*
X164925125Y-114026961D01*
X164925125Y-114026961D02*
X165020363Y-114122200D01*
X165020363Y-114122200D02*
X165163220Y-114169819D01*
X165163220Y-114169819D02*
X165258458Y-114169819D01*
X163925125Y-114169819D02*
X164401315Y-114169819D01*
X164401315Y-114169819D02*
X164401315Y-113169819D01*
X163020363Y-114074580D02*
X163067982Y-114122200D01*
X163067982Y-114122200D02*
X163210839Y-114169819D01*
X163210839Y-114169819D02*
X163306077Y-114169819D01*
X163306077Y-114169819D02*
X163448934Y-114122200D01*
X163448934Y-114122200D02*
X163544172Y-114026961D01*
X163544172Y-114026961D02*
X163591791Y-113931723D01*
X163591791Y-113931723D02*
X163639410Y-113741247D01*
X163639410Y-113741247D02*
X163639410Y-113598390D01*
X163639410Y-113598390D02*
X163591791Y-113407914D01*
X163591791Y-113407914D02*
X163544172Y-113312676D01*
X163544172Y-113312676D02*
X163448934Y-113217438D01*
X163448934Y-113217438D02*
X163306077Y-113169819D01*
X163306077Y-113169819D02*
X163210839Y-113169819D01*
X163210839Y-113169819D02*
X163067982Y-113217438D01*
X163067982Y-113217438D02*
X163020363Y-113265057D01*
X162306077Y-113169819D02*
X162306077Y-113884104D01*
X162306077Y-113884104D02*
X162353696Y-114026961D01*
X162353696Y-114026961D02*
X162448934Y-114122200D01*
X162448934Y-114122200D02*
X162591791Y-114169819D01*
X162591791Y-114169819D02*
X162687029Y-114169819D01*
X161353696Y-114169819D02*
X161829886Y-114169819D01*
X161829886Y-114169819D02*
X161829886Y-113169819D01*
X160448934Y-114074580D02*
X160496553Y-114122200D01*
X160496553Y-114122200D02*
X160639410Y-114169819D01*
X160639410Y-114169819D02*
X160734648Y-114169819D01*
X160734648Y-114169819D02*
X160877505Y-114122200D01*
X160877505Y-114122200D02*
X160972743Y-114026961D01*
X160972743Y-114026961D02*
X161020362Y-113931723D01*
X161020362Y-113931723D02*
X161067981Y-113741247D01*
X161067981Y-113741247D02*
X161067981Y-113598390D01*
X161067981Y-113598390D02*
X161020362Y-113407914D01*
X161020362Y-113407914D02*
X160972743Y-113312676D01*
X160972743Y-113312676D02*
X160877505Y-113217438D01*
X160877505Y-113217438D02*
X160734648Y-113169819D01*
X160734648Y-113169819D02*
X160639410Y-113169819D01*
X160639410Y-113169819D02*
X160496553Y-113217438D01*
X160496553Y-113217438D02*
X160448934Y-113265057D01*
X159734648Y-113169819D02*
X159734648Y-113884104D01*
X159734648Y-113884104D02*
X159782267Y-114026961D01*
X159782267Y-114026961D02*
X159877505Y-114122200D01*
X159877505Y-114122200D02*
X160020362Y-114169819D01*
X160020362Y-114169819D02*
X160115600Y-114169819D01*
X158782267Y-114169819D02*
X159258457Y-114169819D01*
X159258457Y-114169819D02*
X159258457Y-113169819D01*
X157877505Y-114074580D02*
X157925124Y-114122200D01*
X157925124Y-114122200D02*
X158067981Y-114169819D01*
X158067981Y-114169819D02*
X158163219Y-114169819D01*
X158163219Y-114169819D02*
X158306076Y-114122200D01*
X158306076Y-114122200D02*
X158401314Y-114026961D01*
X158401314Y-114026961D02*
X158448933Y-113931723D01*
X158448933Y-113931723D02*
X158496552Y-113741247D01*
X158496552Y-113741247D02*
X158496552Y-113598390D01*
X158496552Y-113598390D02*
X158448933Y-113407914D01*
X158448933Y-113407914D02*
X158401314Y-113312676D01*
X158401314Y-113312676D02*
X158306076Y-113217438D01*
X158306076Y-113217438D02*
X158163219Y-113169819D01*
X158163219Y-113169819D02*
X158067981Y-113169819D01*
X158067981Y-113169819D02*
X157925124Y-113217438D01*
X157925124Y-113217438D02*
X157877505Y-113265057D01*
X157163219Y-113169819D02*
X157163219Y-113884104D01*
X157163219Y-113884104D02*
X157210838Y-114026961D01*
X157210838Y-114026961D02*
X157306076Y-114122200D01*
X157306076Y-114122200D02*
X157448933Y-114169819D01*
X157448933Y-114169819D02*
X157544171Y-114169819D01*
X156210838Y-114169819D02*
X156687028Y-114169819D01*
X156687028Y-114169819D02*
X156687028Y-113169819D01*
X155306076Y-114074580D02*
X155353695Y-114122200D01*
X155353695Y-114122200D02*
X155496552Y-114169819D01*
X155496552Y-114169819D02*
X155591790Y-114169819D01*
X155591790Y-114169819D02*
X155734647Y-114122200D01*
X155734647Y-114122200D02*
X155829885Y-114026961D01*
X155829885Y-114026961D02*
X155877504Y-113931723D01*
X155877504Y-113931723D02*
X155925123Y-113741247D01*
X155925123Y-113741247D02*
X155925123Y-113598390D01*
X155925123Y-113598390D02*
X155877504Y-113407914D01*
X155877504Y-113407914D02*
X155829885Y-113312676D01*
X155829885Y-113312676D02*
X155734647Y-113217438D01*
X155734647Y-113217438D02*
X155591790Y-113169819D01*
X155591790Y-113169819D02*
X155496552Y-113169819D01*
X155496552Y-113169819D02*
X155353695Y-113217438D01*
X155353695Y-113217438D02*
X155306076Y-113265057D01*
X180087744Y-105242858D02*
X180040124Y-105100001D01*
X180040124Y-105100001D02*
X180040124Y-104861906D01*
X180040124Y-104861906D02*
X180087744Y-104766668D01*
X180087744Y-104766668D02*
X180135363Y-104719049D01*
X180135363Y-104719049D02*
X180230601Y-104671430D01*
X180230601Y-104671430D02*
X180325839Y-104671430D01*
X180325839Y-104671430D02*
X180421077Y-104719049D01*
X180421077Y-104719049D02*
X180468696Y-104766668D01*
X180468696Y-104766668D02*
X180516315Y-104861906D01*
X180516315Y-104861906D02*
X180563934Y-105052382D01*
X180563934Y-105052382D02*
X180611553Y-105147620D01*
X180611553Y-105147620D02*
X180659172Y-105195239D01*
X180659172Y-105195239D02*
X180754410Y-105242858D01*
X180754410Y-105242858D02*
X180849648Y-105242858D01*
X180849648Y-105242858D02*
X180944886Y-105195239D01*
X180944886Y-105195239D02*
X180992505Y-105147620D01*
X180992505Y-105147620D02*
X181040124Y-105052382D01*
X181040124Y-105052382D02*
X181040124Y-104814287D01*
X181040124Y-104814287D02*
X180992505Y-104671430D01*
X180706791Y-103814287D02*
X180040124Y-103814287D01*
X180706791Y-104242858D02*
X180182982Y-104242858D01*
X180182982Y-104242858D02*
X180087744Y-104195239D01*
X180087744Y-104195239D02*
X180040124Y-104100001D01*
X180040124Y-104100001D02*
X180040124Y-103957144D01*
X180040124Y-103957144D02*
X180087744Y-103861906D01*
X180087744Y-103861906D02*
X180135363Y-103814287D01*
X180706791Y-103338096D02*
X180040124Y-103338096D01*
X180611553Y-103338096D02*
X180659172Y-103290477D01*
X180659172Y-103290477D02*
X180706791Y-103195239D01*
X180706791Y-103195239D02*
X180706791Y-103052382D01*
X180706791Y-103052382D02*
X180659172Y-102957144D01*
X180659172Y-102957144D02*
X180563934Y-102909525D01*
X180563934Y-102909525D02*
X180040124Y-102909525D01*
X180040124Y-101671429D02*
X181040124Y-101671429D01*
X181040124Y-101671429D02*
X181040124Y-101433334D01*
X181040124Y-101433334D02*
X180992505Y-101290477D01*
X180992505Y-101290477D02*
X180897267Y-101195239D01*
X180897267Y-101195239D02*
X180802029Y-101147620D01*
X180802029Y-101147620D02*
X180611553Y-101100001D01*
X180611553Y-101100001D02*
X180468696Y-101100001D01*
X180468696Y-101100001D02*
X180278220Y-101147620D01*
X180278220Y-101147620D02*
X180182982Y-101195239D01*
X180182982Y-101195239D02*
X180087744Y-101290477D01*
X180087744Y-101290477D02*
X180040124Y-101433334D01*
X180040124Y-101433334D02*
X180040124Y-101671429D01*
X180087744Y-100290477D02*
X180040124Y-100385715D01*
X180040124Y-100385715D02*
X180040124Y-100576191D01*
X180040124Y-100576191D02*
X180087744Y-100671429D01*
X180087744Y-100671429D02*
X180182982Y-100719048D01*
X180182982Y-100719048D02*
X180563934Y-100719048D01*
X180563934Y-100719048D02*
X180659172Y-100671429D01*
X180659172Y-100671429D02*
X180706791Y-100576191D01*
X180706791Y-100576191D02*
X180706791Y-100385715D01*
X180706791Y-100385715D02*
X180659172Y-100290477D01*
X180659172Y-100290477D02*
X180563934Y-100242858D01*
X180563934Y-100242858D02*
X180468696Y-100242858D01*
X180468696Y-100242858D02*
X180373458Y-100719048D01*
X180706791Y-99909524D02*
X180040124Y-99671429D01*
X180040124Y-99671429D02*
X180706791Y-99433334D01*
X180040124Y-99052381D02*
X180706791Y-99052381D01*
X181040124Y-99052381D02*
X180992505Y-99100000D01*
X180992505Y-99100000D02*
X180944886Y-99052381D01*
X180944886Y-99052381D02*
X180992505Y-99004762D01*
X180992505Y-99004762D02*
X181040124Y-99052381D01*
X181040124Y-99052381D02*
X180944886Y-99052381D01*
X180040124Y-98433334D02*
X180087744Y-98528572D01*
X180087744Y-98528572D02*
X180182982Y-98576191D01*
X180182982Y-98576191D02*
X181040124Y-98576191D01*
X180040124Y-97290476D02*
X181040124Y-97290476D01*
X181040124Y-97290476D02*
X180325839Y-96957143D01*
X180325839Y-96957143D02*
X181040124Y-96623810D01*
X181040124Y-96623810D02*
X180040124Y-96623810D01*
X180040124Y-96004762D02*
X180087744Y-96100000D01*
X180087744Y-96100000D02*
X180135363Y-96147619D01*
X180135363Y-96147619D02*
X180230601Y-96195238D01*
X180230601Y-96195238D02*
X180516315Y-96195238D01*
X180516315Y-96195238D02*
X180611553Y-96147619D01*
X180611553Y-96147619D02*
X180659172Y-96100000D01*
X180659172Y-96100000D02*
X180706791Y-96004762D01*
X180706791Y-96004762D02*
X180706791Y-95861905D01*
X180706791Y-95861905D02*
X180659172Y-95766667D01*
X180659172Y-95766667D02*
X180611553Y-95719048D01*
X180611553Y-95719048D02*
X180516315Y-95671429D01*
X180516315Y-95671429D02*
X180230601Y-95671429D01*
X180230601Y-95671429D02*
X180135363Y-95719048D01*
X180135363Y-95719048D02*
X180087744Y-95766667D01*
X180087744Y-95766667D02*
X180040124Y-95861905D01*
X180040124Y-95861905D02*
X180040124Y-96004762D01*
X180706791Y-95385714D02*
X180706791Y-95004762D01*
X181040124Y-95242857D02*
X180182982Y-95242857D01*
X180182982Y-95242857D02*
X180087744Y-95195238D01*
X180087744Y-95195238D02*
X180040124Y-95100000D01*
X180040124Y-95100000D02*
X180040124Y-95004762D01*
X180040124Y-94528571D02*
X180087744Y-94623809D01*
X180087744Y-94623809D02*
X180135363Y-94671428D01*
X180135363Y-94671428D02*
X180230601Y-94719047D01*
X180230601Y-94719047D02*
X180516315Y-94719047D01*
X180516315Y-94719047D02*
X180611553Y-94671428D01*
X180611553Y-94671428D02*
X180659172Y-94623809D01*
X180659172Y-94623809D02*
X180706791Y-94528571D01*
X180706791Y-94528571D02*
X180706791Y-94385714D01*
X180706791Y-94385714D02*
X180659172Y-94290476D01*
X180659172Y-94290476D02*
X180611553Y-94242857D01*
X180611553Y-94242857D02*
X180516315Y-94195238D01*
X180516315Y-94195238D02*
X180230601Y-94195238D01*
X180230601Y-94195238D02*
X180135363Y-94242857D01*
X180135363Y-94242857D02*
X180087744Y-94290476D01*
X180087744Y-94290476D02*
X180040124Y-94385714D01*
X180040124Y-94385714D02*
X180040124Y-94528571D01*
X180040124Y-93766666D02*
X180706791Y-93766666D01*
X180516315Y-93766666D02*
X180611553Y-93719047D01*
X180611553Y-93719047D02*
X180659172Y-93671428D01*
X180659172Y-93671428D02*
X180706791Y-93576190D01*
X180706791Y-93576190D02*
X180706791Y-93480952D01*
X180087744Y-93195237D02*
X180040124Y-93099999D01*
X180040124Y-93099999D02*
X180040124Y-92909523D01*
X180040124Y-92909523D02*
X180087744Y-92814285D01*
X180087744Y-92814285D02*
X180182982Y-92766666D01*
X180182982Y-92766666D02*
X180230601Y-92766666D01*
X180230601Y-92766666D02*
X180325839Y-92814285D01*
X180325839Y-92814285D02*
X180373458Y-92909523D01*
X180373458Y-92909523D02*
X180373458Y-93052380D01*
X180373458Y-93052380D02*
X180421077Y-93147618D01*
X180421077Y-93147618D02*
X180516315Y-93195237D01*
X180516315Y-93195237D02*
X180563934Y-93195237D01*
X180563934Y-93195237D02*
X180659172Y-93147618D01*
X180659172Y-93147618D02*
X180706791Y-93052380D01*
X180706791Y-93052380D02*
X180706791Y-92909523D01*
X180706791Y-92909523D02*
X180659172Y-92814285D01*
X180706791Y-92338094D02*
X179706791Y-92338094D01*
X180659172Y-92338094D02*
X180706791Y-92242856D01*
X180706791Y-92242856D02*
X180706791Y-92052380D01*
X180706791Y-92052380D02*
X180659172Y-91957142D01*
X180659172Y-91957142D02*
X180611553Y-91909523D01*
X180611553Y-91909523D02*
X180516315Y-91861904D01*
X180516315Y-91861904D02*
X180230601Y-91861904D01*
X180230601Y-91861904D02*
X180135363Y-91909523D01*
X180135363Y-91909523D02*
X180087744Y-91957142D01*
X180087744Y-91957142D02*
X180040124Y-92052380D01*
X180040124Y-92052380D02*
X180040124Y-92242856D01*
X180040124Y-92242856D02*
X180087744Y-92338094D01*
X180040124Y-91290475D02*
X180087744Y-91385713D01*
X180087744Y-91385713D02*
X180135363Y-91433332D01*
X180135363Y-91433332D02*
X180230601Y-91480951D01*
X180230601Y-91480951D02*
X180516315Y-91480951D01*
X180516315Y-91480951D02*
X180611553Y-91433332D01*
X180611553Y-91433332D02*
X180659172Y-91385713D01*
X180659172Y-91385713D02*
X180706791Y-91290475D01*
X180706791Y-91290475D02*
X180706791Y-91147618D01*
X180706791Y-91147618D02*
X180659172Y-91052380D01*
X180659172Y-91052380D02*
X180611553Y-91004761D01*
X180611553Y-91004761D02*
X180516315Y-90957142D01*
X180516315Y-90957142D02*
X180230601Y-90957142D01*
X180230601Y-90957142D02*
X180135363Y-91004761D01*
X180135363Y-91004761D02*
X180087744Y-91052380D01*
X180087744Y-91052380D02*
X180040124Y-91147618D01*
X180040124Y-91147618D02*
X180040124Y-91290475D01*
X180040124Y-90528570D02*
X180706791Y-90528570D01*
X180516315Y-90528570D02*
X180611553Y-90480951D01*
X180611553Y-90480951D02*
X180659172Y-90433332D01*
X180659172Y-90433332D02*
X180706791Y-90338094D01*
X180706791Y-90338094D02*
X180706791Y-90242856D01*
X180706791Y-90052379D02*
X180706791Y-89671427D01*
X181040124Y-89909522D02*
X180182982Y-89909522D01*
X180182982Y-89909522D02*
X180087744Y-89861903D01*
X180087744Y-89861903D02*
X180040124Y-89766665D01*
X180040124Y-89766665D02*
X180040124Y-89671427D01*
X180087744Y-89385712D02*
X180040124Y-89290474D01*
X180040124Y-89290474D02*
X180040124Y-89099998D01*
X180040124Y-89099998D02*
X180087744Y-89004760D01*
X180087744Y-89004760D02*
X180182982Y-88957141D01*
X180182982Y-88957141D02*
X180230601Y-88957141D01*
X180230601Y-88957141D02*
X180325839Y-89004760D01*
X180325839Y-89004760D02*
X180373458Y-89099998D01*
X180373458Y-89099998D02*
X180373458Y-89242855D01*
X180373458Y-89242855D02*
X180421077Y-89338093D01*
X180421077Y-89338093D02*
X180516315Y-89385712D01*
X180516315Y-89385712D02*
X180563934Y-89385712D01*
X180563934Y-89385712D02*
X180659172Y-89338093D01*
X180659172Y-89338093D02*
X180706791Y-89242855D01*
X180706791Y-89242855D02*
X180706791Y-89099998D01*
X180706791Y-89099998D02*
X180659172Y-89004760D01*
X178430180Y-105338095D02*
X179430180Y-105338095D01*
X179430180Y-105338095D02*
X179430180Y-105100000D01*
X179430180Y-105100000D02*
X179382561Y-104957143D01*
X179382561Y-104957143D02*
X179287323Y-104861905D01*
X179287323Y-104861905D02*
X179192085Y-104814286D01*
X179192085Y-104814286D02*
X179001609Y-104766667D01*
X179001609Y-104766667D02*
X178858752Y-104766667D01*
X178858752Y-104766667D02*
X178668276Y-104814286D01*
X178668276Y-104814286D02*
X178573038Y-104861905D01*
X178573038Y-104861905D02*
X178477800Y-104957143D01*
X178477800Y-104957143D02*
X178430180Y-105100000D01*
X178430180Y-105100000D02*
X178430180Y-105338095D01*
X178715895Y-104385714D02*
X178715895Y-103909524D01*
X178430180Y-104480952D02*
X179430180Y-104147619D01*
X179430180Y-104147619D02*
X178430180Y-103814286D01*
X178334942Y-102814286D02*
X178382561Y-102909524D01*
X178382561Y-102909524D02*
X178477800Y-103004762D01*
X178477800Y-103004762D02*
X178620657Y-103147619D01*
X178620657Y-103147619D02*
X178668276Y-103242857D01*
X178668276Y-103242857D02*
X178668276Y-103338095D01*
X178430180Y-103290476D02*
X178477800Y-103385714D01*
X178477800Y-103385714D02*
X178573038Y-103480952D01*
X178573038Y-103480952D02*
X178763514Y-103528571D01*
X178763514Y-103528571D02*
X179096847Y-103528571D01*
X179096847Y-103528571D02*
X179287323Y-103480952D01*
X179287323Y-103480952D02*
X179382561Y-103385714D01*
X179382561Y-103385714D02*
X179430180Y-103290476D01*
X179430180Y-103290476D02*
X179430180Y-103100000D01*
X179430180Y-103100000D02*
X179382561Y-103004762D01*
X179382561Y-103004762D02*
X179287323Y-102909524D01*
X179287323Y-102909524D02*
X179096847Y-102861905D01*
X179096847Y-102861905D02*
X178763514Y-102861905D01*
X178763514Y-102861905D02*
X178573038Y-102909524D01*
X178573038Y-102909524D02*
X178477800Y-103004762D01*
X178477800Y-103004762D02*
X178430180Y-103100000D01*
X178430180Y-103100000D02*
X178430180Y-103290476D01*
X179430180Y-101766666D02*
X178430180Y-101528571D01*
X178430180Y-101528571D02*
X179144466Y-101338095D01*
X179144466Y-101338095D02*
X178430180Y-101147619D01*
X178430180Y-101147619D02*
X179430180Y-100909524D01*
X178430180Y-100528571D02*
X179430180Y-100528571D01*
X178430180Y-100100000D02*
X178953990Y-100100000D01*
X178953990Y-100100000D02*
X179049228Y-100147619D01*
X179049228Y-100147619D02*
X179096847Y-100242857D01*
X179096847Y-100242857D02*
X179096847Y-100385714D01*
X179096847Y-100385714D02*
X179049228Y-100480952D01*
X179049228Y-100480952D02*
X179001609Y-100528571D01*
X178477800Y-99242857D02*
X178430180Y-99338095D01*
X178430180Y-99338095D02*
X178430180Y-99528571D01*
X178430180Y-99528571D02*
X178477800Y-99623809D01*
X178477800Y-99623809D02*
X178573038Y-99671428D01*
X178573038Y-99671428D02*
X178953990Y-99671428D01*
X178953990Y-99671428D02*
X179049228Y-99623809D01*
X179049228Y-99623809D02*
X179096847Y-99528571D01*
X179096847Y-99528571D02*
X179096847Y-99338095D01*
X179096847Y-99338095D02*
X179049228Y-99242857D01*
X179049228Y-99242857D02*
X178953990Y-99195238D01*
X178953990Y-99195238D02*
X178858752Y-99195238D01*
X178858752Y-99195238D02*
X178763514Y-99671428D01*
X178477800Y-98385714D02*
X178430180Y-98480952D01*
X178430180Y-98480952D02*
X178430180Y-98671428D01*
X178430180Y-98671428D02*
X178477800Y-98766666D01*
X178477800Y-98766666D02*
X178573038Y-98814285D01*
X178573038Y-98814285D02*
X178953990Y-98814285D01*
X178953990Y-98814285D02*
X179049228Y-98766666D01*
X179049228Y-98766666D02*
X179096847Y-98671428D01*
X179096847Y-98671428D02*
X179096847Y-98480952D01*
X179096847Y-98480952D02*
X179049228Y-98385714D01*
X179049228Y-98385714D02*
X178953990Y-98338095D01*
X178953990Y-98338095D02*
X178858752Y-98338095D01*
X178858752Y-98338095D02*
X178763514Y-98814285D01*
X178430180Y-97766666D02*
X178477800Y-97861904D01*
X178477800Y-97861904D02*
X178573038Y-97909523D01*
X178573038Y-97909523D02*
X179430180Y-97909523D01*
X178953990Y-96290475D02*
X178906371Y-96147618D01*
X178906371Y-96147618D02*
X178858752Y-96099999D01*
X178858752Y-96099999D02*
X178763514Y-96052380D01*
X178763514Y-96052380D02*
X178620657Y-96052380D01*
X178620657Y-96052380D02*
X178525419Y-96099999D01*
X178525419Y-96099999D02*
X178477800Y-96147618D01*
X178477800Y-96147618D02*
X178430180Y-96242856D01*
X178430180Y-96242856D02*
X178430180Y-96623808D01*
X178430180Y-96623808D02*
X179430180Y-96623808D01*
X179430180Y-96623808D02*
X179430180Y-96290475D01*
X179430180Y-96290475D02*
X179382561Y-96195237D01*
X179382561Y-96195237D02*
X179334942Y-96147618D01*
X179334942Y-96147618D02*
X179239704Y-96099999D01*
X179239704Y-96099999D02*
X179144466Y-96099999D01*
X179144466Y-96099999D02*
X179049228Y-96147618D01*
X179049228Y-96147618D02*
X179001609Y-96195237D01*
X179001609Y-96195237D02*
X178953990Y-96290475D01*
X178953990Y-96290475D02*
X178953990Y-96623808D01*
X178430180Y-95480951D02*
X178477800Y-95576189D01*
X178477800Y-95576189D02*
X178525419Y-95623808D01*
X178525419Y-95623808D02*
X178620657Y-95671427D01*
X178620657Y-95671427D02*
X178906371Y-95671427D01*
X178906371Y-95671427D02*
X179001609Y-95623808D01*
X179001609Y-95623808D02*
X179049228Y-95576189D01*
X179049228Y-95576189D02*
X179096847Y-95480951D01*
X179096847Y-95480951D02*
X179096847Y-95338094D01*
X179096847Y-95338094D02*
X179049228Y-95242856D01*
X179049228Y-95242856D02*
X179001609Y-95195237D01*
X179001609Y-95195237D02*
X178906371Y-95147618D01*
X178906371Y-95147618D02*
X178620657Y-95147618D01*
X178620657Y-95147618D02*
X178525419Y-95195237D01*
X178525419Y-95195237D02*
X178477800Y-95242856D01*
X178477800Y-95242856D02*
X178430180Y-95338094D01*
X178430180Y-95338094D02*
X178430180Y-95480951D01*
X178430180Y-94290475D02*
X178953990Y-94290475D01*
X178953990Y-94290475D02*
X179049228Y-94338094D01*
X179049228Y-94338094D02*
X179096847Y-94433332D01*
X179096847Y-94433332D02*
X179096847Y-94623808D01*
X179096847Y-94623808D02*
X179049228Y-94719046D01*
X178477800Y-94290475D02*
X178430180Y-94385713D01*
X178430180Y-94385713D02*
X178430180Y-94623808D01*
X178430180Y-94623808D02*
X178477800Y-94719046D01*
X178477800Y-94719046D02*
X178573038Y-94766665D01*
X178573038Y-94766665D02*
X178668276Y-94766665D01*
X178668276Y-94766665D02*
X178763514Y-94719046D01*
X178763514Y-94719046D02*
X178811133Y-94623808D01*
X178811133Y-94623808D02*
X178811133Y-94385713D01*
X178811133Y-94385713D02*
X178858752Y-94290475D01*
X178430180Y-93814284D02*
X179096847Y-93814284D01*
X178906371Y-93814284D02*
X179001609Y-93766665D01*
X179001609Y-93766665D02*
X179049228Y-93719046D01*
X179049228Y-93719046D02*
X179096847Y-93623808D01*
X179096847Y-93623808D02*
X179096847Y-93528570D01*
X178430180Y-92766665D02*
X179430180Y-92766665D01*
X178477800Y-92766665D02*
X178430180Y-92861903D01*
X178430180Y-92861903D02*
X178430180Y-93052379D01*
X178430180Y-93052379D02*
X178477800Y-93147617D01*
X178477800Y-93147617D02*
X178525419Y-93195236D01*
X178525419Y-93195236D02*
X178620657Y-93242855D01*
X178620657Y-93242855D02*
X178906371Y-93242855D01*
X178906371Y-93242855D02*
X179001609Y-93195236D01*
X179001609Y-93195236D02*
X179049228Y-93147617D01*
X179049228Y-93147617D02*
X179096847Y-93052379D01*
X179096847Y-93052379D02*
X179096847Y-92861903D01*
X179096847Y-92861903D02*
X179049228Y-92766665D01*
X179096847Y-91623807D02*
X178430180Y-91385712D01*
X178430180Y-91385712D02*
X179096847Y-91147617D01*
X179430180Y-90861902D02*
X179430180Y-90242855D01*
X179430180Y-90242855D02*
X179049228Y-90576188D01*
X179049228Y-90576188D02*
X179049228Y-90433331D01*
X179049228Y-90433331D02*
X179001609Y-90338093D01*
X179001609Y-90338093D02*
X178953990Y-90290474D01*
X178953990Y-90290474D02*
X178858752Y-90242855D01*
X178858752Y-90242855D02*
X178620657Y-90242855D01*
X178620657Y-90242855D02*
X178525419Y-90290474D01*
X178525419Y-90290474D02*
X178477800Y-90338093D01*
X178477800Y-90338093D02*
X178430180Y-90433331D01*
X178430180Y-90433331D02*
X178430180Y-90719045D01*
X178430180Y-90719045D02*
X178477800Y-90814283D01*
X178477800Y-90814283D02*
X178525419Y-90861902D01*
X178525419Y-89814283D02*
X178477800Y-89766664D01*
X178477800Y-89766664D02*
X178430180Y-89814283D01*
X178430180Y-89814283D02*
X178477800Y-89861902D01*
X178477800Y-89861902D02*
X178525419Y-89814283D01*
X178525419Y-89814283D02*
X178430180Y-89814283D01*
X178430180Y-88814284D02*
X178430180Y-89385712D01*
X178430180Y-89099998D02*
X179430180Y-89099998D01*
X179430180Y-89099998D02*
X179287323Y-89195236D01*
X179287323Y-89195236D02*
X179192085Y-89290474D01*
X179192085Y-89290474D02*
X179144466Y-89385712D01*
D11*
G36*
X174166723Y-108875385D02*
G01*
X174223897Y-108881183D01*
X174274218Y-108896943D01*
X174319033Y-108923243D01*
X174359690Y-108960662D01*
X174374885Y-108978982D01*
X174403391Y-109025682D01*
X174421272Y-109075334D01*
X174428960Y-109126439D01*
X174426886Y-109177501D01*
X174415481Y-109227022D01*
X174395175Y-109273504D01*
X174366399Y-109315450D01*
X174329584Y-109351362D01*
X174285161Y-109379743D01*
X174233561Y-109399094D01*
X174182990Y-109407507D01*
X174126390Y-109406015D01*
X174072000Y-109393317D01*
X174021644Y-109369861D01*
X173977151Y-109336096D01*
X173950230Y-109305338D01*
X173925749Y-109266657D01*
X173907398Y-109225680D01*
X173897491Y-109186742D01*
X173894997Y-109160834D01*
X173897348Y-109101964D01*
X173911192Y-109047386D01*
X173936335Y-108997707D01*
X173972582Y-108953531D01*
X174014602Y-108918008D01*
X174058677Y-108893561D01*
X174106704Y-108879660D01*
X174161028Y-108875332D01*
X174166723Y-108875385D01*
G37*
G36*
X176529170Y-107755457D02*
G01*
X176582787Y-107768082D01*
X176631467Y-107791169D01*
X176674010Y-107823394D01*
X176709216Y-107863435D01*
X176735886Y-107909967D01*
X176752819Y-107961669D01*
X176758816Y-108017217D01*
X176754642Y-108071850D01*
X176740728Y-108121683D01*
X176716165Y-108167050D01*
X176680054Y-108210155D01*
X176659333Y-108229012D01*
X176613510Y-108258992D01*
X176563494Y-108278445D01*
X176511039Y-108287340D01*
X176457897Y-108285646D01*
X176405822Y-108273332D01*
X176356565Y-108250365D01*
X176311881Y-108216716D01*
X176301748Y-108206993D01*
X176274184Y-108175877D01*
X176253968Y-108143240D01*
X176237878Y-108104186D01*
X176230292Y-108073989D01*
X176225670Y-108032845D01*
X176225984Y-107991302D01*
X176231484Y-107955189D01*
X176247975Y-107908906D01*
X176276372Y-107861004D01*
X176313328Y-107820761D01*
X176357535Y-107789085D01*
X176407687Y-107766883D01*
X176462475Y-107755063D01*
X176520593Y-107754531D01*
X176529170Y-107755457D01*
G37*
G36*
X175031058Y-107567856D02*
G01*
X175082677Y-107579570D01*
X175131282Y-107601546D01*
X175175135Y-107632874D01*
X175212502Y-107672639D01*
X175241645Y-107719930D01*
X175242452Y-107721608D01*
X175252824Y-107744054D01*
X175259332Y-107761843D01*
X175262871Y-107779263D01*
X175264335Y-107800606D01*
X175264618Y-107830158D01*
X175263013Y-107866118D01*
X175252643Y-107921818D01*
X175232325Y-107970471D01*
X175201686Y-108012866D01*
X175160350Y-108049796D01*
X175159925Y-108050108D01*
X175111500Y-108078547D01*
X175060532Y-108095793D01*
X175008502Y-108102388D01*
X174956892Y-108098874D01*
X174907183Y-108085791D01*
X174860856Y-108063682D01*
X174819393Y-108033086D01*
X174784273Y-107994547D01*
X174756980Y-107948604D01*
X174738993Y-107895799D01*
X174734926Y-107870665D01*
X174734095Y-107822910D01*
X174740638Y-107773752D01*
X174754093Y-107728321D01*
X174763485Y-107707738D01*
X174782063Y-107678709D01*
X174808465Y-107648868D01*
X174820289Y-107637406D01*
X174860540Y-107606366D01*
X174905043Y-107584636D01*
X174957241Y-107570397D01*
X174978160Y-107567319D01*
X175031058Y-107567856D01*
G37*
G36*
X174940506Y-110162016D02*
G01*
X174969711Y-110162503D01*
X174990872Y-110163925D01*
X175007092Y-110166733D01*
X175021474Y-110171374D01*
X175037122Y-110178299D01*
X175061376Y-110191282D01*
X175105824Y-110224524D01*
X175141321Y-110264628D01*
X175167585Y-110310053D01*
X175184335Y-110359261D01*
X175191291Y-110410710D01*
X175188172Y-110462862D01*
X175174696Y-110514176D01*
X175150584Y-110563113D01*
X175115552Y-110608133D01*
X175114074Y-110609672D01*
X175070219Y-110646525D01*
X175021379Y-110672350D01*
X174968806Y-110686935D01*
X174913754Y-110690069D01*
X174857475Y-110681541D01*
X174801221Y-110661140D01*
X174771581Y-110643665D01*
X174734274Y-110611381D01*
X174702047Y-110571724D01*
X174677169Y-110527611D01*
X174661905Y-110481956D01*
X174661538Y-110480101D01*
X174659292Y-110459750D01*
X174658318Y-110432905D01*
X174658827Y-110404862D01*
X174658866Y-110404094D01*
X174667791Y-110348638D01*
X174687935Y-110297113D01*
X174718242Y-110251126D01*
X174757657Y-110212286D01*
X174805124Y-110182197D01*
X174820599Y-110174772D01*
X174835542Y-110168724D01*
X174850204Y-110164963D01*
X174867780Y-110162946D01*
X174891468Y-110162133D01*
X174924462Y-110161982D01*
X174940506Y-110162016D01*
G37*
G36*
X178636836Y-113484284D02*
G01*
X178637179Y-113485262D01*
X178645857Y-113502132D01*
X178661074Y-113525198D01*
X178680832Y-113551870D01*
X178703135Y-113579558D01*
X178725984Y-113605672D01*
X178747383Y-113627622D01*
X178793398Y-113667135D01*
X178862628Y-113714066D01*
X178937273Y-113751979D01*
X179015366Y-113780063D01*
X179094941Y-113797508D01*
X179174031Y-113803503D01*
X179193206Y-113804231D01*
X179206602Y-113806238D01*
X179210442Y-113809077D01*
X179203980Y-113814195D01*
X179188059Y-113823220D01*
X179165437Y-113834556D01*
X179138697Y-113846964D01*
X179110422Y-113859207D01*
X179083194Y-113870048D01*
X179063087Y-113877230D01*
X178994446Y-113897198D01*
X178917718Y-113913513D01*
X178836003Y-113925479D01*
X178814018Y-113927939D01*
X178781924Y-113930969D01*
X178755336Y-113932244D01*
X178729845Y-113931765D01*
X178701043Y-113929536D01*
X178664522Y-113925558D01*
X178616789Y-113919190D01*
X178518153Y-113899807D01*
X178426785Y-113872357D01*
X178340465Y-113835969D01*
X178256975Y-113789771D01*
X178174095Y-113732892D01*
X178161215Y-113722974D01*
X178143980Y-113707912D01*
X178137021Y-113698030D01*
X178139970Y-113692621D01*
X178152463Y-113690975D01*
X178159019Y-113690445D01*
X178178909Y-113686883D01*
X178206231Y-113680616D01*
X178238077Y-113672410D01*
X178271539Y-113663030D01*
X178303710Y-113653242D01*
X178331682Y-113643810D01*
X178356886Y-113634088D01*
X178410949Y-113610088D01*
X178467912Y-113581292D01*
X178523450Y-113549948D01*
X178573239Y-113518303D01*
X178593074Y-113505123D01*
X178615881Y-113491296D01*
X178630789Y-113484179D01*
X178636836Y-113484284D01*
G37*
G36*
X175639744Y-108330736D02*
G01*
X175732109Y-108339780D01*
X175823671Y-108356208D01*
X175911735Y-108379726D01*
X175993607Y-108410038D01*
X176008432Y-108416574D01*
X176087804Y-108456476D01*
X176159273Y-108500862D01*
X176181085Y-108517127D01*
X176216172Y-108546621D01*
X176253697Y-108581260D01*
X176291159Y-108618532D01*
X176326059Y-108655922D01*
X176355897Y-108690917D01*
X176378174Y-108721003D01*
X176386988Y-108734700D01*
X176409806Y-108772977D01*
X176431390Y-108812876D01*
X176450258Y-108851430D01*
X176464928Y-108885671D01*
X176473916Y-108912632D01*
X176482072Y-108944847D01*
X176406652Y-109039786D01*
X176363150Y-109094971D01*
X176321557Y-109149038D01*
X176286391Y-109196692D01*
X176256702Y-109239516D01*
X176231541Y-109279093D01*
X176209959Y-109317007D01*
X176191006Y-109354840D01*
X176173733Y-109394176D01*
X176157189Y-109436599D01*
X176140426Y-109483690D01*
X176132780Y-109504748D01*
X176117569Y-109543052D01*
X176100530Y-109582805D01*
X176084115Y-109618154D01*
X176066494Y-109652240D01*
X176038208Y-109702564D01*
X176004127Y-109759592D01*
X175965351Y-109821599D01*
X175922983Y-109886867D01*
X175878125Y-109953672D01*
X175831878Y-110020293D01*
X175785343Y-110085009D01*
X175782301Y-110089022D01*
X175774078Y-110097971D01*
X175764237Y-110104888D01*
X175751221Y-110110028D01*
X175733477Y-110113644D01*
X175709451Y-110115993D01*
X175677587Y-110117329D01*
X175636332Y-110117905D01*
X175584131Y-110117978D01*
X175536407Y-110117835D01*
X175498851Y-110117461D01*
X175469398Y-110116677D01*
X175445844Y-110115306D01*
X175425986Y-110113169D01*
X175407621Y-110110089D01*
X175388546Y-110105887D01*
X175366557Y-110100385D01*
X175331081Y-110090521D01*
X175232578Y-110054715D01*
X175140280Y-110008355D01*
X175054820Y-109951893D01*
X174976826Y-109885780D01*
X174906930Y-109810471D01*
X174845761Y-109726416D01*
X174817926Y-109679431D01*
X174777617Y-109596131D01*
X174744702Y-109507664D01*
X174720443Y-109417617D01*
X174706102Y-109329578D01*
X174703183Y-109287083D01*
X174702323Y-109236378D01*
X174703524Y-109182786D01*
X174706628Y-109130133D01*
X174711477Y-109082248D01*
X174717913Y-109042957D01*
X174722547Y-109022421D01*
X174752086Y-108924430D01*
X174792470Y-108830947D01*
X174842874Y-108742807D01*
X174902473Y-108660847D01*
X174970440Y-108585902D01*
X175045950Y-108518807D01*
X175128179Y-108460397D01*
X175216299Y-108411508D01*
X175309487Y-108372976D01*
X175406916Y-108345636D01*
X175463385Y-108335988D01*
X175549271Y-108329374D01*
X175639744Y-108330736D01*
G37*
G36*
X176889479Y-108739786D02*
G01*
X176945358Y-108740585D01*
X177025140Y-108743699D01*
X177112536Y-108748939D01*
X177204960Y-108756061D01*
X177299828Y-108764823D01*
X177394553Y-108774981D01*
X177486552Y-108786293D01*
X177573239Y-108798515D01*
X177652028Y-108811407D01*
X177654045Y-108811765D01*
X177684584Y-108817193D01*
X177715685Y-108822725D01*
X177740912Y-108827216D01*
X177821063Y-108842544D01*
X177954678Y-108872488D01*
X178089282Y-108907819D01*
X178222952Y-108947874D01*
X178353762Y-108991988D01*
X178479789Y-109039500D01*
X178599108Y-109089744D01*
X178709795Y-109142059D01*
X178809925Y-109195779D01*
X178836783Y-109211406D01*
X178934200Y-109271616D01*
X179020971Y-109331647D01*
X179098466Y-109392828D01*
X179168054Y-109456483D01*
X179231106Y-109523942D01*
X179288990Y-109596529D01*
X179343075Y-109675573D01*
X179394732Y-109762400D01*
X179440091Y-109847630D01*
X179497362Y-109970175D01*
X179546158Y-110095039D01*
X179587016Y-110223974D01*
X179620470Y-110358732D01*
X179647060Y-110501066D01*
X179667319Y-110652728D01*
X179670905Y-110690486D01*
X179675487Y-110765201D01*
X179677916Y-110848413D01*
X179678247Y-110937701D01*
X179676536Y-111030638D01*
X179672839Y-111124802D01*
X179667211Y-111217768D01*
X179659709Y-111307112D01*
X179650387Y-111390409D01*
X179646940Y-111416012D01*
X179640094Y-111462345D01*
X179632019Y-111512786D01*
X179623009Y-111565840D01*
X179613354Y-111620010D01*
X179603348Y-111673800D01*
X179593282Y-111725716D01*
X179583450Y-111774262D01*
X179574143Y-111817941D01*
X179565654Y-111855259D01*
X179558275Y-111884719D01*
X179552298Y-111904827D01*
X179548017Y-111914086D01*
X179548006Y-111914097D01*
X179546273Y-111915931D01*
X179544384Y-111916034D01*
X179540904Y-111912725D01*
X179534401Y-111904324D01*
X179523441Y-111889152D01*
X179506589Y-111865526D01*
X179454821Y-111797127D01*
X179388598Y-111721112D01*
X179321397Y-111656425D01*
X179253784Y-111603654D01*
X179239784Y-111594169D01*
X179209689Y-111574831D01*
X179181734Y-111558176D01*
X179157943Y-111545329D01*
X179140341Y-111537411D01*
X179130953Y-111535545D01*
X179130734Y-111535681D01*
X179133597Y-111541048D01*
X179144297Y-111552679D01*
X179161258Y-111568973D01*
X179182903Y-111588328D01*
X179194036Y-111598112D01*
X179234400Y-111635305D01*
X179277380Y-111677157D01*
X179320532Y-111721135D01*
X179361409Y-111764709D01*
X179397567Y-111805348D01*
X179426559Y-111840520D01*
X179500402Y-111943440D01*
X179566963Y-112055190D01*
X179622041Y-112170652D01*
X179666063Y-112290631D01*
X179679737Y-112338129D01*
X179692364Y-112389887D01*
X179703238Y-112442409D01*
X179711767Y-112492554D01*
X179717357Y-112537179D01*
X179719415Y-112573144D01*
X179720032Y-112588315D01*
X179722348Y-112604682D01*
X179725775Y-112612585D01*
X179728186Y-112618547D01*
X179730240Y-112634401D01*
X179731495Y-112656823D01*
X179731951Y-112682641D01*
X179731606Y-112708679D01*
X179730462Y-112731763D01*
X179728519Y-112748718D01*
X179725775Y-112756371D01*
X179722863Y-112762718D01*
X179720450Y-112778402D01*
X179719524Y-112799458D01*
X179719115Y-112816277D01*
X179717014Y-112846377D01*
X179713727Y-112872544D01*
X179710387Y-112892186D01*
X179705422Y-112921637D01*
X179700650Y-112950168D01*
X179699625Y-112956177D01*
X179690650Y-113001870D01*
X179678665Y-113054541D01*
X179664713Y-113110022D01*
X179649834Y-113164142D01*
X179635070Y-113212733D01*
X179623623Y-113247217D01*
X179610723Y-113284257D01*
X179597950Y-113319323D01*
X179586061Y-113350435D01*
X179575816Y-113375613D01*
X179567971Y-113392877D01*
X179563285Y-113400248D01*
X179560688Y-113397836D01*
X179557227Y-113386033D01*
X179554266Y-113367388D01*
X179551995Y-113351288D01*
X179547280Y-113323538D01*
X179541174Y-113291109D01*
X179534433Y-113258166D01*
X179528348Y-113231080D01*
X179493931Y-113110881D01*
X179448818Y-112996907D01*
X179393176Y-112889449D01*
X179327169Y-112788798D01*
X179250964Y-112695244D01*
X179164725Y-112609078D01*
X179154076Y-112599620D01*
X179093892Y-112551000D01*
X179026873Y-112503810D01*
X178955484Y-112459419D01*
X178882189Y-112419197D01*
X178809453Y-112384514D01*
X178739740Y-112356739D01*
X178675517Y-112337242D01*
X178641466Y-112328532D01*
X178574631Y-112308833D01*
X178517821Y-112287923D01*
X178469330Y-112265130D01*
X178427455Y-112239787D01*
X178417925Y-112233412D01*
X178404535Y-112225112D01*
X178397760Y-112221864D01*
X178393571Y-112225178D01*
X178397262Y-112236037D01*
X178409208Y-112253558D01*
X178428888Y-112276822D01*
X178452067Y-112299815D01*
X178481528Y-112321834D01*
X178515981Y-112339899D01*
X178557929Y-112355287D01*
X178609876Y-112369279D01*
X178652659Y-112379638D01*
X178689811Y-112389253D01*
X178719038Y-112397759D01*
X178742602Y-112405874D01*
X178762766Y-112414316D01*
X178781793Y-112423803D01*
X178787160Y-112426691D01*
X178848803Y-112463459D01*
X178908058Y-112505139D01*
X178963784Y-112550504D01*
X179014844Y-112598328D01*
X179060098Y-112647384D01*
X179098407Y-112696445D01*
X179128631Y-112744284D01*
X179149631Y-112789674D01*
X179160269Y-112831389D01*
X179161709Y-112847535D01*
X179160341Y-112862898D01*
X179154620Y-112879286D01*
X179143395Y-112901478D01*
X179136694Y-112913425D01*
X179113042Y-112950064D01*
X179082427Y-112990556D01*
X179044089Y-113035814D01*
X178997269Y-113086750D01*
X178941207Y-113144277D01*
X178898924Y-113186149D01*
X178839828Y-113242329D01*
X178783944Y-113292097D01*
X178728650Y-113337580D01*
X178671325Y-113380901D01*
X178609347Y-113424189D01*
X178540095Y-113469568D01*
X178496591Y-113496660D01*
X178385108Y-113559290D01*
X178274460Y-113611280D01*
X178162539Y-113653562D01*
X178047237Y-113687065D01*
X178025728Y-113692306D01*
X177953573Y-113708344D01*
X177874620Y-113723921D01*
X177792623Y-113738401D01*
X177711331Y-113751145D01*
X177634496Y-113761516D01*
X177565869Y-113768877D01*
X177542511Y-113771125D01*
X177517956Y-113773811D01*
X177500228Y-113776104D01*
X177489443Y-113777282D01*
X177463549Y-113778760D01*
X177428856Y-113779774D01*
X177387628Y-113780341D01*
X177342132Y-113780477D01*
X177294633Y-113780199D01*
X177247396Y-113779524D01*
X177202687Y-113778468D01*
X177162771Y-113777049D01*
X177129914Y-113775284D01*
X177106381Y-113773188D01*
X177086090Y-113770536D01*
X177042161Y-113763965D01*
X177000237Y-113756654D01*
X176962049Y-113748993D01*
X176929332Y-113741370D01*
X176903817Y-113734176D01*
X176887237Y-113727798D01*
X176881325Y-113722627D01*
X176882601Y-113718380D01*
X176888200Y-113704534D01*
X176897231Y-113683865D01*
X176908574Y-113658992D01*
X176921060Y-113632065D01*
X176936846Y-113597732D01*
X176949545Y-113569505D01*
X176960518Y-113544226D01*
X176971127Y-113518733D01*
X176982734Y-113489866D01*
X176996701Y-113454465D01*
X176998812Y-113449086D01*
X177031119Y-113365502D01*
X177059245Y-113289994D01*
X177084275Y-113219516D01*
X177107293Y-113151017D01*
X177129385Y-113081450D01*
X177168894Y-112948684D01*
X177216129Y-112774466D01*
X177257889Y-112601520D01*
X177294078Y-112430699D01*
X177324596Y-112262855D01*
X177349348Y-112098841D01*
X177368235Y-111939510D01*
X177381160Y-111785714D01*
X177388025Y-111638306D01*
X177388732Y-111498139D01*
X177383183Y-111366065D01*
X177371282Y-111242936D01*
X177352929Y-111129606D01*
X177345913Y-111099095D01*
X177323259Y-111033349D01*
X177291860Y-110976205D01*
X177251501Y-110927471D01*
X177201965Y-110886956D01*
X177143038Y-110854469D01*
X177074503Y-110829816D01*
X176996144Y-110812808D01*
X176983567Y-110810944D01*
X176948161Y-110806761D01*
X176912948Y-110803854D01*
X176883971Y-110802765D01*
X176860209Y-110803347D01*
X176822008Y-110805894D01*
X176780707Y-110810079D01*
X176739427Y-110815482D01*
X176701286Y-110821682D01*
X176669401Y-110828257D01*
X176646893Y-110834786D01*
X176645788Y-110835210D01*
X176611621Y-110852042D01*
X176570423Y-110878647D01*
X176522549Y-110914731D01*
X176468353Y-110959997D01*
X176408190Y-111014150D01*
X176342413Y-111076895D01*
X176271378Y-111147937D01*
X176233646Y-111186842D01*
X176078492Y-111355599D01*
X175932353Y-111529567D01*
X175793395Y-111711009D01*
X175659784Y-111902188D01*
X175584071Y-112019866D01*
X175514511Y-112137528D01*
X175453633Y-112251210D01*
X175401744Y-112360266D01*
X175359149Y-112464050D01*
X175326156Y-112561917D01*
X175303072Y-112653220D01*
X175299246Y-112672749D01*
X175294956Y-112701918D01*
X175294195Y-112726664D01*
X175296974Y-112751892D01*
X175303300Y-112782503D01*
X175314346Y-112819189D01*
X175333796Y-112863376D01*
X175361283Y-112911603D01*
X175397468Y-112965016D01*
X175443012Y-113024760D01*
X175464286Y-113051622D01*
X175491456Y-113086884D01*
X175511847Y-113115170D01*
X175526288Y-113138012D01*
X175535614Y-113156944D01*
X175540655Y-113173498D01*
X175542245Y-113189207D01*
X175541216Y-113205603D01*
X175537030Y-113229253D01*
X175527687Y-113262460D01*
X175515186Y-113295474D01*
X175500857Y-113325266D01*
X175486031Y-113348804D01*
X175472040Y-113363058D01*
X175464010Y-113367487D01*
X175450741Y-113369739D01*
X175432118Y-113366205D01*
X175428538Y-113365259D01*
X175404208Y-113359368D01*
X175380026Y-113354175D01*
X175370690Y-113352325D01*
X175327648Y-113343399D01*
X175277679Y-113332526D01*
X175222912Y-113320212D01*
X175165475Y-113306964D01*
X175107495Y-113293287D01*
X175051102Y-113279688D01*
X174998423Y-113266673D01*
X174951588Y-113254749D01*
X174912724Y-113244420D01*
X174883959Y-113236194D01*
X174820183Y-113216130D01*
X174754908Y-113194016D01*
X174698164Y-113172974D01*
X174650879Y-113153370D01*
X174613980Y-113135569D01*
X174588396Y-113119937D01*
X174580995Y-113114177D01*
X174560684Y-113096658D01*
X174537383Y-113074906D01*
X174514802Y-113052331D01*
X174472558Y-113005645D01*
X174424428Y-112946145D01*
X174374552Y-112877932D01*
X174322585Y-112800474D01*
X174268184Y-112713238D01*
X174211008Y-112615690D01*
X174150712Y-112507298D01*
X174086954Y-112387530D01*
X174074736Y-112364685D01*
X174054536Y-112328204D01*
X174031299Y-112287296D01*
X174007026Y-112245469D01*
X173983714Y-112206235D01*
X173982655Y-112204479D01*
X173962059Y-112170161D01*
X173942944Y-112138056D01*
X173926561Y-112110283D01*
X173914161Y-112088962D01*
X173906994Y-112076212D01*
X173906036Y-112074381D01*
X173900191Y-112060399D01*
X173896768Y-112044270D01*
X173895290Y-112022555D01*
X173895278Y-111991816D01*
X173896216Y-111931167D01*
X174040305Y-111788934D01*
X174086706Y-111743478D01*
X174136678Y-111695677D01*
X174180270Y-111655648D01*
X174218593Y-111622576D01*
X174252759Y-111595642D01*
X174283882Y-111574028D01*
X174313071Y-111556919D01*
X174341441Y-111543496D01*
X174370103Y-111532941D01*
X174400168Y-111524439D01*
X174475369Y-111502107D01*
X174552245Y-111471706D01*
X174630205Y-111433107D01*
X174709879Y-111385876D01*
X174791898Y-111329580D01*
X174876892Y-111263786D01*
X174965492Y-111188061D01*
X175058326Y-111101973D01*
X175156027Y-111005087D01*
X175167676Y-110993152D01*
X175271750Y-110882745D01*
X175377836Y-110763417D01*
X175486314Y-110634696D01*
X175597563Y-110496113D01*
X175711962Y-110347197D01*
X175829888Y-110187476D01*
X175951722Y-110016481D01*
X175985305Y-109968315D01*
X176021405Y-109915531D01*
X176052211Y-109868775D01*
X176078937Y-109825834D01*
X176102798Y-109784495D01*
X176125009Y-109742543D01*
X176146782Y-109697763D01*
X176169333Y-109647943D01*
X176193875Y-109590869D01*
X176221622Y-109524325D01*
X176251805Y-109453219D01*
X176284652Y-109381016D01*
X176315978Y-109318212D01*
X176346525Y-109263325D01*
X176377039Y-109214874D01*
X176387911Y-109198947D01*
X176454139Y-109110253D01*
X176531271Y-109019426D01*
X176618354Y-108927535D01*
X176714436Y-108835651D01*
X176819488Y-108739757D01*
X176889479Y-108739786D01*
G37*
G36*
X172479964Y-104272384D02*
G01*
X172481768Y-104293196D01*
X172484233Y-104323351D01*
X172487181Y-104360531D01*
X172490436Y-104402415D01*
X172493819Y-104446686D01*
X172497152Y-104491023D01*
X172500258Y-104533107D01*
X172502959Y-104570618D01*
X172505077Y-104601239D01*
X172506988Y-104629462D01*
X172510274Y-104677125D01*
X172513934Y-104729412D01*
X172517643Y-104781713D01*
X172521079Y-104829420D01*
X172523616Y-104864440D01*
X172527154Y-104913662D01*
X172530671Y-104962969D01*
X172533870Y-105008176D01*
X172536451Y-105045098D01*
X172538698Y-105077327D01*
X172541791Y-105121279D01*
X172545254Y-105170179D01*
X172548808Y-105220078D01*
X172552173Y-105267028D01*
X172555166Y-105308870D01*
X172558736Y-105359233D01*
X172562250Y-105409250D01*
X172565424Y-105454881D01*
X172567976Y-105492083D01*
X172568243Y-105496009D01*
X172571177Y-105537531D01*
X172574458Y-105581687D01*
X172577704Y-105623438D01*
X172580532Y-105657749D01*
X172581187Y-105665500D01*
X172584001Y-105701302D01*
X172587085Y-105743703D01*
X172590107Y-105788044D01*
X172592738Y-105829666D01*
X172594485Y-105857758D01*
X172597547Y-105904396D01*
X172601065Y-105955768D01*
X172604729Y-106007375D01*
X172608230Y-106054721D01*
X172612256Y-106108040D01*
X172619194Y-106201030D01*
X172625911Y-106292420D01*
X172632210Y-106379496D01*
X172637894Y-106459540D01*
X172642765Y-106529838D01*
X172644505Y-106555169D01*
X172647746Y-106601737D01*
X172651363Y-106653125D01*
X172655027Y-106704684D01*
X172658411Y-106751768D01*
X172660550Y-106781418D01*
X172664167Y-106831924D01*
X172667861Y-106883905D01*
X172671304Y-106932712D01*
X172674164Y-106973698D01*
X172675538Y-106993413D01*
X172678821Y-107039862D01*
X172682506Y-107091324D01*
X172686234Y-107142821D01*
X172689650Y-107189376D01*
X172691031Y-107208277D01*
X172694706Y-107260308D01*
X172698554Y-107316818D01*
X172702193Y-107372159D01*
X172705244Y-107420683D01*
X172707267Y-107452194D01*
X172710136Y-107492482D01*
X172713075Y-107529601D01*
X172715834Y-107560448D01*
X172718165Y-107581915D01*
X172720749Y-107606395D01*
X172723133Y-107640773D01*
X172724052Y-107671368D01*
X172724726Y-107695032D01*
X172726975Y-107708606D01*
X172730912Y-107711003D01*
X172731396Y-107710596D01*
X172733988Y-107702167D01*
X172735261Y-107683426D01*
X172735238Y-107653664D01*
X172733940Y-107612173D01*
X172732980Y-107587900D01*
X172731437Y-107547487D01*
X172729659Y-107499795D01*
X172727757Y-107447773D01*
X172725839Y-107394371D01*
X172724013Y-107342538D01*
X172722964Y-107312757D01*
X172720810Y-107253100D01*
X172718475Y-107190093D01*
X172716110Y-107127697D01*
X172713864Y-107069873D01*
X172711886Y-107020584D01*
X172710113Y-106976384D01*
X172707973Y-106921251D01*
X172705664Y-106860307D01*
X172703315Y-106796965D01*
X172701052Y-106734641D01*
X172699005Y-106676750D01*
X172698402Y-106659495D01*
X172696603Y-106608661D01*
X172694851Y-106560131D01*
X172693223Y-106515942D01*
X172691793Y-106478134D01*
X172690638Y-106448745D01*
X172689833Y-106429814D01*
X172689456Y-106421162D01*
X172688506Y-106397606D01*
X172687211Y-106364065D01*
X172685628Y-106322111D01*
X172683815Y-106273317D01*
X172681832Y-106219253D01*
X172679737Y-106161493D01*
X172677589Y-106101608D01*
X172676342Y-106066750D01*
X172674198Y-106007454D01*
X172672132Y-105950966D01*
X172670203Y-105898900D01*
X172668471Y-105852871D01*
X172666997Y-105814493D01*
X172665842Y-105785382D01*
X172665066Y-105767151D01*
X172664915Y-105763826D01*
X172663925Y-105740687D01*
X172662581Y-105707668D01*
X172660968Y-105666941D01*
X172659171Y-105620676D01*
X172657276Y-105571044D01*
X172655367Y-105520215D01*
X172655133Y-105513936D01*
X172652921Y-105455654D01*
X172650339Y-105389051D01*
X172647534Y-105317849D01*
X172644653Y-105245769D01*
X172641844Y-105176534D01*
X172639255Y-105113865D01*
X172638733Y-105101324D01*
X172635919Y-105031714D01*
X172633751Y-104973904D01*
X172632217Y-104927308D01*
X172631306Y-104891336D01*
X172631005Y-104865399D01*
X172631301Y-104848911D01*
X172632183Y-104841281D01*
X172633639Y-104841923D01*
X172633750Y-104842305D01*
X172635340Y-104851607D01*
X172638232Y-104871434D01*
X172642204Y-104900146D01*
X172647031Y-104936107D01*
X172652490Y-104977677D01*
X172658358Y-105023218D01*
X172664062Y-105067793D01*
X172670446Y-105117468D01*
X172676547Y-105164725D01*
X172682041Y-105207069D01*
X172686606Y-105242002D01*
X172689917Y-105267028D01*
X172695461Y-105308456D01*
X172707627Y-105399743D01*
X172718429Y-105481373D01*
X172728121Y-105555273D01*
X172736957Y-105623365D01*
X172736998Y-105623684D01*
X172741014Y-105653944D01*
X172745343Y-105685254D01*
X172749054Y-105710887D01*
X172751213Y-105725750D01*
X172755293Y-105755916D01*
X172758599Y-105782780D01*
X172759857Y-105793438D01*
X172763143Y-105819670D01*
X172767228Y-105851015D01*
X172771511Y-105882804D01*
X172773606Y-105898178D01*
X172778331Y-105933519D01*
X172782810Y-105967789D01*
X172786298Y-105995332D01*
X172786436Y-105996450D01*
X172788364Y-106011963D01*
X172790452Y-106028449D01*
X172792915Y-106047538D01*
X172795966Y-106070863D01*
X172799821Y-106100054D01*
X172804693Y-106136744D01*
X172810798Y-106182562D01*
X172818349Y-106239142D01*
X172827166Y-106305260D01*
X172834727Y-106362174D01*
X172840855Y-106408567D01*
X172845675Y-106445384D01*
X172849311Y-106473575D01*
X172851760Y-106492480D01*
X172855619Y-106521856D01*
X172860406Y-106558028D01*
X172865739Y-106598115D01*
X172871237Y-106639240D01*
X172876419Y-106678069D01*
X172881741Y-106718289D01*
X172886522Y-106754755D01*
X172890385Y-106784586D01*
X172892951Y-106804906D01*
X172896759Y-106835538D01*
X172904329Y-106894341D01*
X172911869Y-106950367D01*
X172919103Y-107001685D01*
X172925757Y-107046367D01*
X172931554Y-107082484D01*
X172936219Y-107108106D01*
X172937569Y-107113442D01*
X172939185Y-107113131D01*
X172939898Y-107101130D01*
X172939721Y-107077933D01*
X172938667Y-107044032D01*
X172936748Y-106999923D01*
X172933978Y-106946097D01*
X172930369Y-106883050D01*
X172929829Y-106873996D01*
X172926711Y-106821307D01*
X172923070Y-106759377D01*
X172919066Y-106690915D01*
X172914856Y-106618628D01*
X172910597Y-106545227D01*
X172906447Y-106473419D01*
X172902563Y-106405913D01*
X172899103Y-106345418D01*
X172898147Y-106328658D01*
X172895670Y-106285345D01*
X172892766Y-106234677D01*
X172889636Y-106180147D01*
X172886479Y-106125249D01*
X172883497Y-106073476D01*
X172882315Y-106052959D01*
X172876960Y-105959661D01*
X172871704Y-105867539D01*
X172866709Y-105779419D01*
X172862134Y-105698128D01*
X172858139Y-105626491D01*
X172857503Y-105615558D01*
X172855446Y-105584808D01*
X172853213Y-105556574D01*
X172851189Y-105535844D01*
X172850389Y-105527799D01*
X172850348Y-105513404D01*
X172852871Y-105509768D01*
X172857167Y-105516010D01*
X172862451Y-105531248D01*
X172867933Y-105554598D01*
X172871224Y-105571127D01*
X172876215Y-105595455D01*
X172880185Y-105613988D01*
X172881679Y-105620622D01*
X172886928Y-105643665D01*
X172894214Y-105675432D01*
X172902979Y-105713509D01*
X172912667Y-105755482D01*
X172922720Y-105798938D01*
X172932580Y-105841463D01*
X172941690Y-105880642D01*
X172949492Y-105914062D01*
X172956735Y-105945076D01*
X172964934Y-105980328D01*
X172972282Y-106012069D01*
X172977775Y-106035967D01*
X172979557Y-106043768D01*
X172983848Y-106062466D01*
X172988821Y-106084015D01*
X172994910Y-106110280D01*
X173002545Y-106143125D01*
X173012162Y-106184415D01*
X173024191Y-106236016D01*
X173026466Y-106245763D01*
X173031736Y-106268319D01*
X173038345Y-106296590D01*
X173045378Y-106326663D01*
X173053213Y-106360218D01*
X173064109Y-106406987D01*
X173077317Y-106463773D01*
X173092577Y-106529451D01*
X173109628Y-106602901D01*
X173128210Y-106683001D01*
X173135477Y-106714301D01*
X173150977Y-106780728D01*
X173164087Y-106836272D01*
X173175051Y-106881858D01*
X173184116Y-106918413D01*
X173191528Y-106946864D01*
X173197533Y-106968137D01*
X173202377Y-106983160D01*
X173206307Y-106992858D01*
X173209568Y-106998158D01*
X173212407Y-106999987D01*
X173215003Y-106999258D01*
X173225051Y-106991314D01*
X173239259Y-106976450D01*
X173255433Y-106956863D01*
X173270515Y-106937850D01*
X173326059Y-106873773D01*
X173390817Y-106806666D01*
X173463083Y-106738046D01*
X173541148Y-106669433D01*
X173623305Y-106602343D01*
X173707846Y-106538296D01*
X173793066Y-106478810D01*
X173811967Y-106466371D01*
X173872193Y-106428535D01*
X173938192Y-106389341D01*
X174007311Y-106350231D01*
X174076898Y-106312652D01*
X174144299Y-106278047D01*
X174206861Y-106247861D01*
X174261931Y-106223538D01*
X174283669Y-106214441D01*
X174305767Y-106205028D01*
X174321320Y-106198220D01*
X174328856Y-106194861D01*
X174373054Y-106176428D01*
X174426132Y-106155958D01*
X174485405Y-106134384D01*
X174548190Y-106112640D01*
X174611806Y-106091660D01*
X174673569Y-106072377D01*
X174730796Y-106055725D01*
X174739650Y-106053270D01*
X174799680Y-106037041D01*
X174855604Y-106022792D01*
X174909785Y-106010038D01*
X174964583Y-105998294D01*
X175022360Y-105987075D01*
X175085476Y-105975896D01*
X175156293Y-105964272D01*
X175237171Y-105951718D01*
X175274264Y-105946670D01*
X175350294Y-105939095D01*
X175434776Y-105933661D01*
X175525213Y-105930356D01*
X175619107Y-105929172D01*
X175713959Y-105930100D01*
X175807272Y-105933130D01*
X175896548Y-105938253D01*
X175979289Y-105945459D01*
X176052997Y-105954741D01*
X176064087Y-105956416D01*
X176110767Y-105963554D01*
X176148640Y-105969573D01*
X176180660Y-105975017D01*
X176209783Y-105980430D01*
X176238962Y-105986356D01*
X176271153Y-105993339D01*
X176309310Y-106001922D01*
X176339890Y-106009070D01*
X176403321Y-106025016D01*
X176468612Y-106042746D01*
X176533412Y-106061545D01*
X176595368Y-106080697D01*
X176652131Y-106099487D01*
X176701347Y-106117200D01*
X176740666Y-106133121D01*
X176744185Y-106134627D01*
X176759311Y-106140872D01*
X176781167Y-106149735D01*
X176806307Y-106159815D01*
X176940199Y-106217763D01*
X177086653Y-106291142D01*
X177233170Y-106374654D01*
X177378092Y-106467292D01*
X177519761Y-106568050D01*
X177656516Y-106675920D01*
X177666750Y-106684587D01*
X177696409Y-106710887D01*
X177732116Y-106743784D01*
X177772172Y-106781611D01*
X177814878Y-106822699D01*
X177858534Y-106865380D01*
X177901442Y-106907985D01*
X177941903Y-106948845D01*
X177978217Y-106986292D01*
X178008685Y-107018657D01*
X178031608Y-107044272D01*
X178031854Y-107044558D01*
X178089514Y-107114037D01*
X178147891Y-107188460D01*
X178205368Y-107265552D01*
X178260333Y-107343036D01*
X178311170Y-107418638D01*
X178356266Y-107490081D01*
X178394006Y-107555091D01*
X178404901Y-107574565D01*
X178414205Y-107590525D01*
X178419607Y-107598980D01*
X178422973Y-107604005D01*
X178432533Y-107620924D01*
X178445791Y-107646316D01*
X178461841Y-107678285D01*
X178479779Y-107714935D01*
X178498699Y-107754374D01*
X178517695Y-107794704D01*
X178535864Y-107834033D01*
X178552299Y-107870465D01*
X178566094Y-107902104D01*
X178576346Y-107927057D01*
X178578197Y-107931796D01*
X178587476Y-107955305D01*
X178595317Y-107974796D01*
X178600186Y-107986447D01*
X178607351Y-108003606D01*
X178620701Y-108039272D01*
X178635815Y-108083144D01*
X178651954Y-108132808D01*
X178668375Y-108185845D01*
X178684337Y-108239841D01*
X178699098Y-108292380D01*
X178711916Y-108341045D01*
X178722049Y-108383419D01*
X178722182Y-108384016D01*
X178728195Y-108410884D01*
X178733983Y-108436471D01*
X178738311Y-108455312D01*
X178738624Y-108456666D01*
X178743898Y-108482217D01*
X178750149Y-108516457D01*
X178756791Y-108555916D01*
X178763238Y-108597123D01*
X178768905Y-108636607D01*
X178773012Y-108666786D01*
X178777845Y-108702131D01*
X178782094Y-108733045D01*
X178783490Y-108745404D01*
X178785482Y-108769564D01*
X178787474Y-108800054D01*
X178789383Y-108834786D01*
X178791126Y-108871669D01*
X178792621Y-108908612D01*
X178793785Y-108943525D01*
X178794536Y-108974318D01*
X178794791Y-108998902D01*
X178794466Y-109015184D01*
X178793481Y-109021076D01*
X178793247Y-109021037D01*
X178785461Y-109018182D01*
X178768732Y-109011464D01*
X178745329Y-109001807D01*
X178717521Y-108990136D01*
X178714476Y-108988850D01*
X178561213Y-108928069D01*
X178402513Y-108872473D01*
X178241162Y-108822862D01*
X178079943Y-108780035D01*
X177921642Y-108744791D01*
X177769044Y-108717929D01*
X177751520Y-108715278D01*
X177719422Y-108710370D01*
X177690368Y-108705865D01*
X177669019Y-108702484D01*
X177654437Y-108700337D01*
X177627248Y-108696789D01*
X177595062Y-108692936D01*
X177562129Y-108689299D01*
X177489623Y-108681676D01*
X177481475Y-108649764D01*
X177477052Y-108633133D01*
X177460004Y-108576527D01*
X177438594Y-108513622D01*
X177414145Y-108447881D01*
X177387980Y-108382771D01*
X177361421Y-108321755D01*
X177335793Y-108268300D01*
X177270727Y-108149652D01*
X177187041Y-108019241D01*
X177095506Y-107898547D01*
X176996061Y-107787514D01*
X176888647Y-107686085D01*
X176773202Y-107594205D01*
X176649666Y-107511815D01*
X176517977Y-107438860D01*
X176378077Y-107375284D01*
X176297764Y-107344849D01*
X176209416Y-107315664D01*
X176117076Y-107288874D01*
X176024428Y-107265478D01*
X175935157Y-107246476D01*
X175852947Y-107232866D01*
X175851840Y-107232715D01*
X175822250Y-107228610D01*
X175792482Y-107224386D01*
X175768820Y-107220934D01*
X175753627Y-107219402D01*
X175727378Y-107217827D01*
X175693818Y-107216478D01*
X175655670Y-107215462D01*
X175615658Y-107214888D01*
X175466625Y-107219688D01*
X175317747Y-107236700D01*
X175170197Y-107265980D01*
X175023818Y-107307574D01*
X174878452Y-107361525D01*
X174733944Y-107427877D01*
X174590137Y-107506677D01*
X174519630Y-107549601D01*
X174451323Y-107594217D01*
X174389532Y-107638419D01*
X174331540Y-107684257D01*
X174274626Y-107733786D01*
X174216072Y-107789058D01*
X174206455Y-107798512D01*
X174105349Y-107906967D01*
X174013750Y-108022832D01*
X173931425Y-108146489D01*
X173858136Y-108278319D01*
X173793651Y-108418706D01*
X173737735Y-108568031D01*
X173706053Y-108670850D01*
X173667732Y-108828642D01*
X173640175Y-108990493D01*
X173623526Y-109154792D01*
X173617931Y-109319924D01*
X173623536Y-109484274D01*
X173640487Y-109646230D01*
X173661052Y-109768478D01*
X173696241Y-109919929D01*
X173741052Y-110064379D01*
X173795299Y-110201548D01*
X173858794Y-110331153D01*
X173931347Y-110452912D01*
X174012772Y-110566545D01*
X174102879Y-110671768D01*
X174201481Y-110768301D01*
X174308390Y-110855862D01*
X174423418Y-110934168D01*
X174546376Y-111002939D01*
X174575419Y-111017537D01*
X174606702Y-111033067D01*
X174632295Y-111045369D01*
X174655308Y-111055849D01*
X174678854Y-111065913D01*
X174706043Y-111076968D01*
X174739989Y-111090419D01*
X174748680Y-111093861D01*
X174770645Y-111102721D01*
X174787026Y-111109563D01*
X174794788Y-111113128D01*
X174795944Y-111115163D01*
X174792701Y-111125396D01*
X174782296Y-111142193D01*
X174766019Y-111164094D01*
X174745162Y-111189639D01*
X174721017Y-111217367D01*
X174694876Y-111245818D01*
X174668030Y-111273533D01*
X174641770Y-111299050D01*
X174617390Y-111320911D01*
X174596180Y-111337653D01*
X174569725Y-111355358D01*
X174542734Y-111370536D01*
X174513163Y-111383884D01*
X174478577Y-111396382D01*
X174436538Y-111409011D01*
X174384609Y-111422750D01*
X174366025Y-111427556D01*
X174313415Y-111442637D01*
X174269629Y-111458056D01*
X174231910Y-111475005D01*
X174197497Y-111494677D01*
X174163630Y-111518266D01*
X174163041Y-111518710D01*
X174132906Y-111543986D01*
X174098495Y-111576984D01*
X174062346Y-111615038D01*
X174026995Y-111655478D01*
X173994979Y-111695637D01*
X173987358Y-111705549D01*
X173971758Y-111724636D01*
X173959095Y-111738560D01*
X173951563Y-111744838D01*
X173944475Y-111745906D01*
X173924516Y-111742986D01*
X173896581Y-111734503D01*
X173862329Y-111721175D01*
X173823418Y-111703721D01*
X173781507Y-111682860D01*
X173738254Y-111659311D01*
X173695318Y-111633792D01*
X173693603Y-111632724D01*
X173560739Y-111542715D01*
X173433018Y-111441737D01*
X173311044Y-111330465D01*
X173195423Y-111209575D01*
X173086759Y-111079743D01*
X172985658Y-110941644D01*
X172892724Y-110795955D01*
X172808563Y-110643351D01*
X172762630Y-110549108D01*
X172695509Y-110391914D01*
X172638217Y-110230341D01*
X172590494Y-110063435D01*
X172552080Y-109890245D01*
X172522715Y-109709817D01*
X172502140Y-109521199D01*
X172501621Y-109514029D01*
X172500338Y-109487643D01*
X172499067Y-109449420D01*
X172497812Y-109399832D01*
X172496574Y-109339354D01*
X172495357Y-109268459D01*
X172494165Y-109187622D01*
X172493000Y-109097317D01*
X172491866Y-108998017D01*
X172490765Y-108890197D01*
X172489702Y-108774331D01*
X172488678Y-108650892D01*
X172487698Y-108520355D01*
X172486764Y-108383194D01*
X172485879Y-108239882D01*
X172485047Y-108090894D01*
X172484270Y-107936703D01*
X172483553Y-107777784D01*
X172482897Y-107614610D01*
X172482306Y-107447656D01*
X172481784Y-107277396D01*
X172481333Y-107104303D01*
X172480956Y-106928852D01*
X172480657Y-106751516D01*
X172480439Y-106572770D01*
X172480305Y-106393087D01*
X172480258Y-106212942D01*
X172480220Y-106064434D01*
X172480106Y-105923761D01*
X172479918Y-105794976D01*
X172479655Y-105678135D01*
X172479318Y-105573293D01*
X172478907Y-105480507D01*
X172478423Y-105399832D01*
X172477865Y-105331324D01*
X172477235Y-105275040D01*
X172476532Y-105231035D01*
X172475757Y-105199365D01*
X172474910Y-105180086D01*
X172473991Y-105173255D01*
X172473887Y-105173138D01*
X172472803Y-105165302D01*
X172471830Y-105146294D01*
X172470966Y-105117337D01*
X172470213Y-105079651D01*
X172469572Y-105034456D01*
X172469042Y-104982972D01*
X172468625Y-104926422D01*
X172468320Y-104866025D01*
X172468128Y-104803001D01*
X172468050Y-104738573D01*
X172468086Y-104673959D01*
X172468237Y-104610382D01*
X172468503Y-104549061D01*
X172468885Y-104491218D01*
X172469383Y-104438072D01*
X172469998Y-104390845D01*
X172470729Y-104350757D01*
X172471579Y-104319029D01*
X172472546Y-104296882D01*
X172473632Y-104285536D01*
X172475080Y-104278949D01*
X172478022Y-104268529D01*
X172479524Y-104267756D01*
X172479964Y-104272384D01*
G37*
%LPC*%
D12*
X196235000Y-106410000D03*
X195219000Y-101330000D03*
X197251000Y-101330000D03*
D13*
X155500000Y-110000000D03*
D14*
X155500000Y-107500000D03*
X155500000Y-105000000D03*
X155500000Y-102500000D03*
X155500000Y-100000000D03*
X155500000Y-97500000D03*
D15*
X194440000Y-79500000D03*
X191900000Y-79500000D03*
X167970000Y-80270000D03*
X165430000Y-80270000D03*
D16*
X196000000Y-112000000D03*
D17*
X181700000Y-114200000D03*
D18*
X182700000Y-111500000D03*
X187700000Y-111500000D03*
D17*
X188700000Y-114200000D03*
D19*
X170000000Y-93500000D03*
D20*
X167500000Y-93500000D03*
X165000000Y-93500000D03*
X162500000Y-93500000D03*
D21*
X194175000Y-85400000D03*
D22*
X191635000Y-85400000D03*
D23*
X155860000Y-86500000D03*
X155860000Y-87000000D03*
X155860000Y-87500000D03*
X155860000Y-88000000D03*
X155860000Y-88500000D03*
X160140000Y-88500000D03*
X160140000Y-88000000D03*
X160140000Y-87500000D03*
X160140000Y-87000000D03*
X160140000Y-86500000D03*
D16*
X155000000Y-79000000D03*
D21*
X166400000Y-103360000D03*
D22*
X166400000Y-105900000D03*
%LPD*%
M02*
