G04 #@! TF.GenerationSoftware,KiCad,Pcbnew,8.0.2*
G04 #@! TF.CreationDate,2025-02-01T15:11:49-07:00*
G04 #@! TF.ProjectId,sdm24logger,73646d32-346c-46f6-9767-65722e6b6963,v3.1*
G04 #@! TF.SameCoordinates,Original*
G04 #@! TF.FileFunction,Soldermask,Bot*
G04 #@! TF.FilePolarity,Negative*
%FSLAX46Y46*%
G04 Gerber Fmt 4.6, Leading zero omitted, Abs format (unit mm)*
G04 Created by KiCad (PCBNEW 8.0.2) date 2025-02-01 15:11:49*
%MOMM*%
%LPD*%
G01*
G04 APERTURE LIST*
%ADD10R,1.700000X1.700000*%
%ADD11O,1.700000X1.700000*%
%ADD12C,2.844800*%
%ADD13C,2.600000*%
%ADD14C,3.200000*%
%ADD15C,0.990600*%
%ADD16O,1.524000X1.924000*%
%ADD17C,1.840000*%
%ADD18C,1.600000*%
G04 APERTURE END LIST*
D10*
X91475000Y-102000000D03*
D11*
X88935000Y-102000000D03*
D12*
X121499999Y-89500115D03*
D13*
X114999999Y-94000000D03*
X111000000Y-94000000D03*
X107000000Y-94000000D03*
X103000000Y-94000000D03*
X99000001Y-94000000D03*
X95000001Y-94000000D03*
X91000002Y-94000000D03*
X87000002Y-94000000D03*
X113000001Y-90000000D03*
X109000001Y-90000000D03*
X105000001Y-90000000D03*
X101000002Y-90000000D03*
X97000002Y-90000000D03*
X93000003Y-90000000D03*
X89000003Y-90000000D03*
X114999999Y-86000000D03*
X111000000Y-86000000D03*
X107000000Y-86000000D03*
X103000000Y-86000000D03*
X99000001Y-86000000D03*
X95000001Y-86000000D03*
X91000002Y-86000000D03*
X87000002Y-86000000D03*
D12*
X143500005Y-89500115D03*
D13*
X177999999Y-94000000D03*
X174000000Y-94000000D03*
X170000000Y-94000000D03*
X166000000Y-94000000D03*
X162000001Y-94000000D03*
X158000001Y-94000000D03*
X154000002Y-94000000D03*
X150000002Y-94000000D03*
X176000001Y-90000000D03*
X172000001Y-90000000D03*
X168000001Y-90000000D03*
X164000002Y-90000000D03*
X160000002Y-90000000D03*
X156000003Y-90000000D03*
X152000003Y-90000000D03*
X177999999Y-86000000D03*
X174000000Y-86000000D03*
X170000000Y-86000000D03*
X166000000Y-86000000D03*
X162000001Y-86000000D03*
X158000001Y-86000000D03*
X154000002Y-86000000D03*
X150000002Y-86000000D03*
D10*
X170640000Y-103000000D03*
D11*
X168100000Y-103000000D03*
D10*
X118575000Y-148600000D03*
D11*
X116035000Y-148600000D03*
D14*
X86000000Y-153000000D03*
D15*
X141616000Y-135480000D03*
X140600000Y-130400000D03*
X142632000Y-130400000D03*
D16*
X111270000Y-151270000D03*
X108730000Y-151270000D03*
X102970000Y-151270000D03*
X100430000Y-151270000D03*
D17*
X125490000Y-146870000D03*
X137530000Y-146870000D03*
D18*
X132760000Y-142160000D03*
X130260000Y-142160000D03*
X130260000Y-144160000D03*
X132760000Y-144160000D03*
D16*
X178270000Y-151270000D03*
X175730000Y-151270000D03*
M02*
