G04 #@! TF.GenerationSoftware,KiCad,Pcbnew,7.0.8*
G04 #@! TF.CreationDate,2024-01-21T01:37:22-07:00*
G04 #@! TF.ProjectId,sdm24logger,73646d32-346c-46f6-9767-65722e6b6963,v3.1*
G04 #@! TF.SameCoordinates,Original*
G04 #@! TF.FileFunction,Copper,L1,Top*
G04 #@! TF.FilePolarity,Positive*
%FSLAX46Y46*%
G04 Gerber Fmt 4.6, Leading zero omitted, Abs format (unit mm)*
G04 Created by KiCad (PCBNEW 7.0.8) date 2024-01-21 01:37:22*
%MOMM*%
%LPD*%
G01*
G04 APERTURE LIST*
G04 Aperture macros list*
%AMRoundRect*
0 Rectangle with rounded corners*
0 $1 Rounding radius*
0 $2 $3 $4 $5 $6 $7 $8 $9 X,Y pos of 4 corners*
0 Add a 4 corners polygon primitive as box body*
4,1,4,$2,$3,$4,$5,$6,$7,$8,$9,$2,$3,0*
0 Add four circle primitives for the rounded corners*
1,1,$1+$1,$2,$3*
1,1,$1+$1,$4,$5*
1,1,$1+$1,$6,$7*
1,1,$1+$1,$8,$9*
0 Add four rect primitives between the rounded corners*
20,1,$1+$1,$2,$3,$4,$5,0*
20,1,$1+$1,$4,$5,$6,$7,0*
20,1,$1+$1,$6,$7,$8,$9,0*
20,1,$1+$1,$8,$9,$2,$3,0*%
G04 Aperture macros list end*
G04 #@! TA.AperFunction,SMDPad,CuDef*
%ADD10RoundRect,0.140000X0.140000X0.170000X-0.140000X0.170000X-0.140000X-0.170000X0.140000X-0.170000X0*%
G04 #@! TD*
G04 #@! TA.AperFunction,SMDPad,CuDef*
%ADD11RoundRect,0.135000X-0.135000X-0.185000X0.135000X-0.185000X0.135000X0.185000X-0.135000X0.185000X0*%
G04 #@! TD*
G04 #@! TA.AperFunction,SMDPad,CuDef*
%ADD12RoundRect,0.200000X0.200000X0.275000X-0.200000X0.275000X-0.200000X-0.275000X0.200000X-0.275000X0*%
G04 #@! TD*
G04 #@! TA.AperFunction,SMDPad,CuDef*
%ADD13RoundRect,0.140000X-0.140000X-0.170000X0.140000X-0.170000X0.140000X0.170000X-0.140000X0.170000X0*%
G04 #@! TD*
G04 #@! TA.AperFunction,SMDPad,CuDef*
%ADD14RoundRect,0.225000X-0.250000X0.225000X-0.250000X-0.225000X0.250000X-0.225000X0.250000X0.225000X0*%
G04 #@! TD*
G04 #@! TA.AperFunction,SMDPad,CuDef*
%ADD15RoundRect,0.250000X-1.500000X-0.550000X1.500000X-0.550000X1.500000X0.550000X-1.500000X0.550000X0*%
G04 #@! TD*
G04 #@! TA.AperFunction,SMDPad,CuDef*
%ADD16RoundRect,0.200000X-0.200000X-0.275000X0.200000X-0.275000X0.200000X0.275000X-0.200000X0.275000X0*%
G04 #@! TD*
G04 #@! TA.AperFunction,SMDPad,CuDef*
%ADD17RoundRect,0.225000X-0.225000X-0.250000X0.225000X-0.250000X0.225000X0.250000X-0.225000X0.250000X0*%
G04 #@! TD*
G04 #@! TA.AperFunction,SMDPad,CuDef*
%ADD18RoundRect,0.225000X0.225000X0.250000X-0.225000X0.250000X-0.225000X-0.250000X0.225000X-0.250000X0*%
G04 #@! TD*
G04 #@! TA.AperFunction,SMDPad,CuDef*
%ADD19R,1.000000X1.000000*%
G04 #@! TD*
G04 #@! TA.AperFunction,ComponentPad*
%ADD20R,1.700000X1.700000*%
G04 #@! TD*
G04 #@! TA.AperFunction,ComponentPad*
%ADD21O,1.700000X1.700000*%
G04 #@! TD*
G04 #@! TA.AperFunction,ComponentPad*
%ADD22C,2.600000*%
G04 #@! TD*
G04 #@! TA.AperFunction,SMDPad,CuDef*
%ADD23RoundRect,0.150000X-0.150000X0.512500X-0.150000X-0.512500X0.150000X-0.512500X0.150000X0.512500X0*%
G04 #@! TD*
G04 #@! TA.AperFunction,SMDPad,CuDef*
%ADD24RoundRect,0.200000X0.275000X-0.200000X0.275000X0.200000X-0.275000X0.200000X-0.275000X-0.200000X0*%
G04 #@! TD*
G04 #@! TA.AperFunction,SMDPad,CuDef*
%ADD25RoundRect,0.140000X0.170000X-0.140000X0.170000X0.140000X-0.170000X0.140000X-0.170000X-0.140000X0*%
G04 #@! TD*
G04 #@! TA.AperFunction,SMDPad,CuDef*
%ADD26RoundRect,0.050000X-0.050000X0.175000X-0.050000X-0.175000X0.050000X-0.175000X0.050000X0.175000X0*%
G04 #@! TD*
G04 #@! TA.AperFunction,SMDPad,CuDef*
%ADD27RoundRect,0.075000X-1.325000X0.075000X-1.325000X-0.075000X1.325000X-0.075000X1.325000X0.075000X0*%
G04 #@! TD*
G04 #@! TA.AperFunction,SMDPad,CuDef*
%ADD28RoundRect,0.135000X0.185000X-0.135000X0.185000X0.135000X-0.185000X0.135000X-0.185000X-0.135000X0*%
G04 #@! TD*
G04 #@! TA.AperFunction,SMDPad,CuDef*
%ADD29R,2.200000X1.050000*%
G04 #@! TD*
G04 #@! TA.AperFunction,SMDPad,CuDef*
%ADD30R,2.950000X3.500000*%
G04 #@! TD*
G04 #@! TA.AperFunction,SMDPad,CuDef*
%ADD31RoundRect,0.218750X0.218750X0.256250X-0.218750X0.256250X-0.218750X-0.256250X0.218750X-0.256250X0*%
G04 #@! TD*
G04 #@! TA.AperFunction,SMDPad,CuDef*
%ADD32RoundRect,0.225000X0.250000X-0.225000X0.250000X0.225000X-0.250000X0.225000X-0.250000X-0.225000X0*%
G04 #@! TD*
G04 #@! TA.AperFunction,SMDPad,CuDef*
%ADD33RoundRect,0.075000X0.075000X-0.260000X0.075000X0.260000X-0.075000X0.260000X-0.075000X-0.260000X0*%
G04 #@! TD*
G04 #@! TA.AperFunction,SMDPad,CuDef*
%ADD34RoundRect,0.250000X-0.325000X-0.650000X0.325000X-0.650000X0.325000X0.650000X-0.325000X0.650000X0*%
G04 #@! TD*
G04 #@! TA.AperFunction,SMDPad,CuDef*
%ADD35R,0.850000X1.100000*%
G04 #@! TD*
G04 #@! TA.AperFunction,SMDPad,CuDef*
%ADD36R,0.750000X1.100000*%
G04 #@! TD*
G04 #@! TA.AperFunction,SMDPad,CuDef*
%ADD37R,1.200000X1.000000*%
G04 #@! TD*
G04 #@! TA.AperFunction,SMDPad,CuDef*
%ADD38R,1.550000X1.350000*%
G04 #@! TD*
G04 #@! TA.AperFunction,SMDPad,CuDef*
%ADD39R,1.900000X1.350000*%
G04 #@! TD*
G04 #@! TA.AperFunction,SMDPad,CuDef*
%ADD40R,1.170000X1.800000*%
G04 #@! TD*
G04 #@! TA.AperFunction,SMDPad,CuDef*
%ADD41RoundRect,0.075000X-0.075000X0.725000X-0.075000X-0.725000X0.075000X-0.725000X0.075000X0.725000X0*%
G04 #@! TD*
G04 #@! TA.AperFunction,SMDPad,CuDef*
%ADD42RoundRect,0.075000X-0.725000X0.075000X-0.725000X-0.075000X0.725000X-0.075000X0.725000X0.075000X0*%
G04 #@! TD*
G04 #@! TA.AperFunction,SMDPad,CuDef*
%ADD43RoundRect,0.250000X-0.250000X-0.475000X0.250000X-0.475000X0.250000X0.475000X-0.250000X0.475000X0*%
G04 #@! TD*
G04 #@! TA.AperFunction,SMDPad,CuDef*
%ADD44R,0.450000X0.700000*%
G04 #@! TD*
G04 #@! TA.AperFunction,SMDPad,CuDef*
%ADD45R,1.500000X1.500000*%
G04 #@! TD*
G04 #@! TA.AperFunction,SMDPad,CuDef*
%ADD46RoundRect,0.150000X0.150000X-0.825000X0.150000X0.825000X-0.150000X0.825000X-0.150000X-0.825000X0*%
G04 #@! TD*
G04 #@! TA.AperFunction,SMDPad,CuDef*
%ADD47RoundRect,0.135000X-0.185000X0.135000X-0.185000X-0.135000X0.185000X-0.135000X0.185000X0.135000X0*%
G04 #@! TD*
G04 #@! TA.AperFunction,ConnectorPad*
%ADD48C,0.787400*%
G04 #@! TD*
G04 #@! TA.AperFunction,SMDPad,CuDef*
%ADD49RoundRect,0.250000X-0.650000X0.325000X-0.650000X-0.325000X0.650000X-0.325000X0.650000X0.325000X0*%
G04 #@! TD*
G04 #@! TA.AperFunction,SMDPad,CuDef*
%ADD50RoundRect,0.200000X-0.275000X0.200000X-0.275000X-0.200000X0.275000X-0.200000X0.275000X0.200000X0*%
G04 #@! TD*
G04 #@! TA.AperFunction,ComponentPad*
%ADD51C,1.524000*%
G04 #@! TD*
G04 #@! TA.AperFunction,SMDPad,CuDef*
%ADD52RoundRect,0.150000X0.825000X0.150000X-0.825000X0.150000X-0.825000X-0.150000X0.825000X-0.150000X0*%
G04 #@! TD*
G04 #@! TA.AperFunction,SMDPad,CuDef*
%ADD53RoundRect,0.135000X0.135000X0.185000X-0.135000X0.185000X-0.135000X-0.185000X0.135000X-0.185000X0*%
G04 #@! TD*
G04 #@! TA.AperFunction,SMDPad,CuDef*
%ADD54RoundRect,0.140000X-0.170000X0.140000X-0.170000X-0.140000X0.170000X-0.140000X0.170000X0.140000X0*%
G04 #@! TD*
G04 #@! TA.AperFunction,SMDPad,CuDef*
%ADD55RoundRect,0.147500X0.172500X-0.147500X0.172500X0.147500X-0.172500X0.147500X-0.172500X-0.147500X0*%
G04 #@! TD*
G04 #@! TA.AperFunction,SMDPad,CuDef*
%ADD56RoundRect,0.075000X0.260000X0.075000X-0.260000X0.075000X-0.260000X-0.075000X0.260000X-0.075000X0*%
G04 #@! TD*
G04 #@! TA.AperFunction,ComponentPad*
%ADD57C,1.600000*%
G04 #@! TD*
G04 #@! TA.AperFunction,SMDPad,CuDef*
%ADD58RoundRect,0.200000X-0.700000X-0.200000X0.700000X-0.200000X0.700000X0.200000X-0.700000X0.200000X0*%
G04 #@! TD*
G04 #@! TA.AperFunction,SMDPad,CuDef*
%ADD59R,0.900000X0.800000*%
G04 #@! TD*
G04 #@! TA.AperFunction,SMDPad,CuDef*
%ADD60RoundRect,0.100000X-0.100000X0.637500X-0.100000X-0.637500X0.100000X-0.637500X0.100000X0.637500X0*%
G04 #@! TD*
G04 #@! TA.AperFunction,SMDPad,CuDef*
%ADD61RoundRect,0.075000X-0.260000X-0.075000X0.260000X-0.075000X0.260000X0.075000X-0.260000X0.075000X0*%
G04 #@! TD*
G04 #@! TA.AperFunction,SMDPad,CuDef*
%ADD62RoundRect,0.250000X0.475000X-0.250000X0.475000X0.250000X-0.475000X0.250000X-0.475000X-0.250000X0*%
G04 #@! TD*
G04 #@! TA.AperFunction,SMDPad,CuDef*
%ADD63RoundRect,0.100000X-0.100000X0.675000X-0.100000X-0.675000X0.100000X-0.675000X0.100000X0.675000X0*%
G04 #@! TD*
G04 #@! TA.AperFunction,SMDPad,CuDef*
%ADD64RoundRect,0.100000X0.637500X0.100000X-0.637500X0.100000X-0.637500X-0.100000X0.637500X-0.100000X0*%
G04 #@! TD*
G04 #@! TA.AperFunction,SMDPad,CuDef*
%ADD65R,1.500000X2.000000*%
G04 #@! TD*
G04 #@! TA.AperFunction,SMDPad,CuDef*
%ADD66R,3.800000X2.000000*%
G04 #@! TD*
G04 #@! TA.AperFunction,ViaPad*
%ADD67C,0.700000*%
G04 #@! TD*
G04 #@! TA.AperFunction,ViaPad*
%ADD68C,0.800000*%
G04 #@! TD*
G04 #@! TA.AperFunction,ViaPad*
%ADD69C,0.500000*%
G04 #@! TD*
G04 #@! TA.AperFunction,Conductor*
%ADD70C,0.250000*%
G04 #@! TD*
G04 #@! TA.AperFunction,Conductor*
%ADD71C,0.300000*%
G04 #@! TD*
G04 #@! TA.AperFunction,Conductor*
%ADD72C,0.500000*%
G04 #@! TD*
G04 #@! TA.AperFunction,Conductor*
%ADD73C,0.200000*%
G04 #@! TD*
G04 #@! TA.AperFunction,Conductor*
%ADD74C,0.400000*%
G04 #@! TD*
G04 #@! TA.AperFunction,Conductor*
%ADD75C,0.156500*%
G04 #@! TD*
G04 #@! TA.AperFunction,Conductor*
%ADD76C,0.153900*%
G04 #@! TD*
G04 APERTURE END LIST*
D10*
X126480000Y-111500000D03*
X125520000Y-111500000D03*
D11*
X171590000Y-91000000D03*
X172610000Y-91000000D03*
D12*
X117725000Y-145700000D03*
X116075000Y-145700000D03*
D13*
X185220000Y-98100000D03*
X186180000Y-98100000D03*
D14*
X139600000Y-113825000D03*
X139600000Y-115375000D03*
D15*
X172260000Y-129140000D03*
X177860000Y-129140000D03*
D10*
X73505000Y-103965000D03*
X72545000Y-103965000D03*
D16*
X104375000Y-114900000D03*
X106025000Y-114900000D03*
D17*
X132925000Y-132100000D03*
X134475000Y-132100000D03*
D12*
X92025000Y-124700000D03*
X90375000Y-124700000D03*
D10*
X123025000Y-111400000D03*
X122065000Y-111400000D03*
D18*
X145475000Y-98200000D03*
X143925000Y-98200000D03*
D19*
X84900000Y-125600000D03*
D12*
X174185000Y-119440000D03*
X172535000Y-119440000D03*
D16*
X169575000Y-95100000D03*
X171225000Y-95100000D03*
D20*
X76540000Y-91465000D03*
D21*
X74000000Y-91465000D03*
D22*
X99999999Y-83000000D03*
X96000000Y-83000000D03*
X92000000Y-83000000D03*
X88000000Y-83000000D03*
X84000001Y-83000000D03*
X80000001Y-83000000D03*
X76000002Y-83000000D03*
X72000002Y-83000000D03*
X98000001Y-79000000D03*
X94000001Y-79000000D03*
X90000001Y-79000000D03*
X86000002Y-79000000D03*
X82000002Y-79000000D03*
X78000003Y-79000000D03*
X74000003Y-79000000D03*
X99999999Y-75000000D03*
X96000000Y-75000000D03*
X92000000Y-75000000D03*
X88000000Y-75000000D03*
X84000001Y-75000000D03*
X80000001Y-75000000D03*
X76000002Y-75000000D03*
X72000002Y-75000000D03*
X177999999Y-83000000D03*
X174000000Y-83000000D03*
X170000000Y-83000000D03*
X166000000Y-83000000D03*
X162000001Y-83000000D03*
X158000001Y-83000000D03*
X154000002Y-83000000D03*
X150000002Y-83000000D03*
X176000001Y-79000000D03*
X172000001Y-79000000D03*
X168000001Y-79000000D03*
X164000002Y-79000000D03*
X160000002Y-79000000D03*
X156000003Y-79000000D03*
X152000003Y-79000000D03*
X177999999Y-75000000D03*
X174000000Y-75000000D03*
X170000000Y-75000000D03*
X166000000Y-75000000D03*
X162000001Y-75000000D03*
X158000001Y-75000000D03*
X154000002Y-75000000D03*
X150000002Y-75000000D03*
D23*
X132550000Y-135462500D03*
X131600000Y-135462500D03*
X130650000Y-135462500D03*
X130650000Y-137737500D03*
X131600000Y-137737500D03*
X132550000Y-137737500D03*
D10*
X85780000Y-138100000D03*
X84820000Y-138100000D03*
D19*
X162800000Y-145300000D03*
D15*
X186060000Y-105840000D03*
X191660000Y-105840000D03*
D24*
X179800000Y-140425000D03*
X179800000Y-138775000D03*
D10*
X175480000Y-103400000D03*
X174520000Y-103400000D03*
D25*
X118100000Y-127680000D03*
X118100000Y-126720000D03*
D26*
X152680000Y-141075000D03*
X152280000Y-141075000D03*
X151880000Y-141075000D03*
X151480000Y-141075000D03*
X151080000Y-141075000D03*
X150680000Y-141075000D03*
X150280000Y-141075000D03*
X149880000Y-141075000D03*
X149880000Y-142225000D03*
X150280000Y-142225000D03*
X150680000Y-142225000D03*
X151080000Y-142225000D03*
X151480000Y-142225000D03*
X151880000Y-142225000D03*
X152280000Y-142225000D03*
X152680000Y-142225000D03*
D27*
X151280000Y-141650000D03*
D25*
X160075000Y-97515000D03*
X160075000Y-96555000D03*
D28*
X147030000Y-97770000D03*
X147030000Y-96750000D03*
D19*
X83200000Y-140200000D03*
D29*
X81700000Y-141675000D03*
D19*
X80200000Y-140200000D03*
D29*
X81700000Y-138725000D03*
D10*
X128460000Y-109170000D03*
X127500000Y-109170000D03*
D30*
X184335000Y-124400000D03*
X189785000Y-124400000D03*
D24*
X104300000Y-144925000D03*
X104300000Y-143275000D03*
D10*
X126260000Y-109170000D03*
X125300000Y-109170000D03*
D31*
X117085000Y-110697500D03*
X115510000Y-110697500D03*
D25*
X123000000Y-109780000D03*
X123000000Y-108820000D03*
D32*
X115410000Y-108972500D03*
X115410000Y-107422500D03*
D19*
X167060000Y-123340000D03*
D33*
X144300000Y-96700000D03*
X144800000Y-96700000D03*
X145300000Y-96700000D03*
X145800000Y-96700000D03*
X145800000Y-95220000D03*
X145300000Y-95220000D03*
X144800000Y-95220000D03*
X144300000Y-95220000D03*
D34*
X165835000Y-133140000D03*
X168785000Y-133140000D03*
D35*
X154945000Y-155450000D03*
X153845000Y-155450000D03*
X152745000Y-155450000D03*
X151645000Y-155450000D03*
X150545000Y-155450000D03*
X149445000Y-155450000D03*
X148345000Y-155450000D03*
D36*
X147295000Y-155450000D03*
D37*
X157580000Y-149300000D03*
X157580000Y-145600000D03*
D38*
X157405000Y-155325000D03*
D39*
X154080000Y-144625000D03*
X148110000Y-144625000D03*
D40*
X146085000Y-155100000D03*
D41*
X134000000Y-113325000D03*
X133500000Y-113325000D03*
X133000000Y-113325000D03*
X132500000Y-113325000D03*
X132000000Y-113325000D03*
X131500000Y-113325000D03*
X131000000Y-113325000D03*
X130500000Y-113325000D03*
X130000000Y-113325000D03*
X129500000Y-113325000D03*
X129000000Y-113325000D03*
X128500000Y-113325000D03*
X128000000Y-113325000D03*
X127500000Y-113325000D03*
X127000000Y-113325000D03*
X126500000Y-113325000D03*
X126000000Y-113325000D03*
X125500000Y-113325000D03*
X125000000Y-113325000D03*
X124500000Y-113325000D03*
X124000000Y-113325000D03*
X123500000Y-113325000D03*
X123000000Y-113325000D03*
X122500000Y-113325000D03*
X122000000Y-113325000D03*
D42*
X120325000Y-115000000D03*
X120325000Y-115500000D03*
X120325000Y-116000000D03*
X120325000Y-116500000D03*
X120325000Y-117000000D03*
X120325000Y-117500000D03*
X120325000Y-118000000D03*
X120325000Y-118500000D03*
X120325000Y-119000000D03*
X120325000Y-119500000D03*
X120325000Y-120000000D03*
X120325000Y-120500000D03*
X120325000Y-121000000D03*
X120325000Y-121500000D03*
X120325000Y-122000000D03*
X120325000Y-122500000D03*
X120325000Y-123000000D03*
X120325000Y-123500000D03*
X120325000Y-124000000D03*
X120325000Y-124500000D03*
X120325000Y-125000000D03*
X120325000Y-125500000D03*
X120325000Y-126000000D03*
X120325000Y-126500000D03*
X120325000Y-127000000D03*
D41*
X122000000Y-128675000D03*
X122500000Y-128675000D03*
X123000000Y-128675000D03*
X123500000Y-128675000D03*
X124000000Y-128675000D03*
X124500000Y-128675000D03*
X125000000Y-128675000D03*
X125500000Y-128675000D03*
X126000000Y-128675000D03*
X126500000Y-128675000D03*
X127000000Y-128675000D03*
X127500000Y-128675000D03*
X128000000Y-128675000D03*
X128500000Y-128675000D03*
X129000000Y-128675000D03*
X129500000Y-128675000D03*
X130000000Y-128675000D03*
X130500000Y-128675000D03*
X131000000Y-128675000D03*
X131500000Y-128675000D03*
X132000000Y-128675000D03*
X132500000Y-128675000D03*
X133000000Y-128675000D03*
X133500000Y-128675000D03*
X134000000Y-128675000D03*
D42*
X135675000Y-127000000D03*
X135675000Y-126500000D03*
X135675000Y-126000000D03*
X135675000Y-125500000D03*
X135675000Y-125000000D03*
X135675000Y-124500000D03*
X135675000Y-124000000D03*
X135675000Y-123500000D03*
X135675000Y-123000000D03*
X135675000Y-122500000D03*
X135675000Y-122000000D03*
X135675000Y-121500000D03*
X135675000Y-121000000D03*
X135675000Y-120500000D03*
X135675000Y-120000000D03*
X135675000Y-119500000D03*
X135675000Y-119000000D03*
X135675000Y-118500000D03*
X135675000Y-118000000D03*
X135675000Y-117500000D03*
X135675000Y-117000000D03*
X135675000Y-116500000D03*
X135675000Y-116000000D03*
X135675000Y-115500000D03*
X135675000Y-115000000D03*
D20*
X178075000Y-91000000D03*
D21*
X175535000Y-91000000D03*
D25*
X118045000Y-115490000D03*
X118045000Y-114530000D03*
D17*
X145355000Y-93460000D03*
X146905000Y-93460000D03*
D43*
X180450000Y-120460000D03*
X182350000Y-120460000D03*
D44*
X176650000Y-85900000D03*
X175350000Y-85900000D03*
X176000000Y-87900000D03*
X74795000Y-86275000D03*
X73495000Y-86275000D03*
X74145000Y-88275000D03*
D13*
X131520000Y-110100000D03*
X132480000Y-110100000D03*
D45*
X180860000Y-123400000D03*
D14*
X187410000Y-116925000D03*
X187410000Y-118475000D03*
X115500000Y-126125000D03*
X115500000Y-127675000D03*
D46*
X173095000Y-100075000D03*
X174365000Y-100075000D03*
X175635000Y-100075000D03*
X176905000Y-100075000D03*
X176905000Y-95125000D03*
X175635000Y-95125000D03*
X174365000Y-95125000D03*
X173095000Y-95125000D03*
D24*
X69100000Y-98225000D03*
X69100000Y-96575000D03*
D20*
X118575000Y-148600000D03*
D21*
X116035000Y-148600000D03*
D46*
X71095000Y-101475000D03*
X72365000Y-101475000D03*
X73635000Y-101475000D03*
X74905000Y-101475000D03*
X74905000Y-96525000D03*
X73635000Y-96525000D03*
X72365000Y-96525000D03*
X71095000Y-96525000D03*
D47*
X190600000Y-112990000D03*
X190600000Y-114010000D03*
D12*
X109425000Y-114900000D03*
X107775000Y-114900000D03*
D14*
X174260000Y-121065000D03*
X174260000Y-122615000D03*
D48*
X142251000Y-134210000D03*
X140981000Y-134210000D03*
X142251000Y-132940000D03*
X140981000Y-132940000D03*
X142251000Y-131670000D03*
X140981000Y-131670000D03*
D49*
X185200000Y-116825000D03*
X185200000Y-119775000D03*
D50*
X150300000Y-103375000D03*
X150300000Y-105025000D03*
X108700000Y-140575000D03*
X108700000Y-142225000D03*
X169210000Y-122840000D03*
X169210000Y-124490000D03*
D25*
X149900000Y-96780000D03*
X149900000Y-95820000D03*
D51*
X111270000Y-151270000D03*
X108730000Y-151270000D03*
D24*
X188960000Y-115265000D03*
X188960000Y-113615000D03*
D25*
X127200000Y-92480000D03*
X127200000Y-91520000D03*
D51*
X102970000Y-151270000D03*
X100430000Y-151270000D03*
D49*
X173710000Y-136065000D03*
X173710000Y-139015000D03*
D32*
X125400000Y-93175000D03*
X125400000Y-91625000D03*
D16*
X172535000Y-117540000D03*
X174185000Y-117540000D03*
D19*
X142730000Y-93460000D03*
D10*
X134680000Y-130600000D03*
X133720000Y-130600000D03*
D52*
X157350000Y-99240000D03*
X157350000Y-97970000D03*
X157350000Y-96700000D03*
X157350000Y-95430000D03*
X152400000Y-95430000D03*
X152400000Y-96700000D03*
X152400000Y-97970000D03*
X152400000Y-99240000D03*
D53*
X143310000Y-95160000D03*
X142290000Y-95160000D03*
D54*
X137745000Y-114720000D03*
X137745000Y-115680000D03*
D10*
X175480000Y-102100000D03*
X174520000Y-102100000D03*
D55*
X85800000Y-140185000D03*
X85800000Y-139215000D03*
D56*
X172360000Y-122340000D03*
X172360000Y-121840000D03*
X172360000Y-121340000D03*
X172360000Y-120840000D03*
X170880000Y-120840000D03*
X170880000Y-121340000D03*
X170880000Y-121840000D03*
X170880000Y-122340000D03*
D11*
X190550000Y-115200000D03*
X191570000Y-115200000D03*
D32*
X117210000Y-108972500D03*
X117210000Y-107422500D03*
D57*
X132760000Y-142160000D03*
X130260000Y-142160000D03*
X130260000Y-144160000D03*
X132760000Y-144160000D03*
D58*
X88000000Y-127300000D03*
X88000000Y-128400000D03*
X88000000Y-129500000D03*
X88000000Y-130600000D03*
X88000000Y-131700000D03*
X88000000Y-132800000D03*
X88000000Y-133900000D03*
X88000000Y-136900000D03*
X88000000Y-138000000D03*
X88000000Y-139100000D03*
X88000000Y-140200000D03*
X88000000Y-141300000D03*
X100000000Y-141300000D03*
X100000000Y-140200000D03*
X100000000Y-139100000D03*
X100000000Y-138000000D03*
X100000000Y-136900000D03*
X100000000Y-133900000D03*
X100000000Y-132800000D03*
X100000000Y-131700000D03*
X100000000Y-130600000D03*
X100000000Y-129500000D03*
X100000000Y-128400000D03*
X100000000Y-127300000D03*
D59*
X127580000Y-106420000D03*
X126180000Y-106420000D03*
X126180000Y-107520000D03*
X127580000Y-107520000D03*
D60*
X189275000Y-88737500D03*
X188625000Y-88737500D03*
X187975000Y-88737500D03*
X187325000Y-88737500D03*
X186675000Y-88737500D03*
X186025000Y-88737500D03*
X185375000Y-88737500D03*
X184725000Y-88737500D03*
X184725000Y-94462500D03*
X185375000Y-94462500D03*
X186025000Y-94462500D03*
X186675000Y-94462500D03*
X187325000Y-94462500D03*
X187975000Y-94462500D03*
X188625000Y-94462500D03*
X189275000Y-94462500D03*
D11*
X147090000Y-95500000D03*
X148110000Y-95500000D03*
D32*
X138700000Y-93875000D03*
X138700000Y-92325000D03*
X169210000Y-120915000D03*
X169210000Y-119365000D03*
D61*
X188980000Y-116640000D03*
X188980000Y-117140000D03*
X188980000Y-117640000D03*
X188980000Y-118140000D03*
X190460000Y-118140000D03*
X190460000Y-117640000D03*
X190460000Y-117140000D03*
X190460000Y-116640000D03*
D32*
X121100000Y-109775000D03*
X121100000Y-108225000D03*
D17*
X131425000Y-108400000D03*
X132975000Y-108400000D03*
D62*
X162275000Y-97985000D03*
X162275000Y-96085000D03*
D53*
X85810000Y-136900000D03*
X84790000Y-136900000D03*
D19*
X84600000Y-133600000D03*
D32*
X102700000Y-128675000D03*
X102700000Y-127125000D03*
D63*
X108775000Y-104540000D03*
X108125000Y-104540000D03*
X107475000Y-104540000D03*
X106825000Y-104540000D03*
X106825000Y-110340000D03*
X107475000Y-110340000D03*
X108125000Y-110340000D03*
X108775000Y-110340000D03*
D25*
X136700000Y-93680000D03*
X136700000Y-92720000D03*
D10*
X190680000Y-119400000D03*
X189720000Y-119400000D03*
D13*
X185220000Y-96600000D03*
X186180000Y-96600000D03*
D64*
X134865000Y-94020000D03*
X134865000Y-93370000D03*
X134865000Y-92720000D03*
X134865000Y-92070000D03*
X134865000Y-91420000D03*
X134865000Y-90770000D03*
X134865000Y-90120000D03*
X134865000Y-89470000D03*
X129140000Y-89470000D03*
X129140000Y-90120000D03*
X129140000Y-90770000D03*
X129140000Y-91420000D03*
X129140000Y-92070000D03*
X129140000Y-92720000D03*
X129140000Y-93370000D03*
X129140000Y-94020000D03*
D50*
X152300000Y-103375000D03*
X152300000Y-105025000D03*
D45*
X173800000Y-142700000D03*
D65*
X171060000Y-135990000D03*
X168760000Y-135990000D03*
D66*
X168760000Y-142290000D03*
D65*
X166460000Y-135990000D03*
D10*
X109080000Y-112200000D03*
X108120000Y-112200000D03*
X73505000Y-105265000D03*
X72545000Y-105265000D03*
D51*
X182270000Y-151270000D03*
X179730000Y-151270000D03*
D43*
X180450000Y-117960000D03*
X182350000Y-117960000D03*
D11*
X70090000Y-91490000D03*
X71110000Y-91490000D03*
D13*
X129320000Y-111200000D03*
X130280000Y-111200000D03*
D67*
X188000000Y-119700000D03*
X105100000Y-132700000D03*
X91600000Y-128100000D03*
X81400000Y-131900000D03*
X119900000Y-108200000D03*
X97200000Y-129900000D03*
X149600000Y-154200000D03*
X148700000Y-141700000D03*
X158675000Y-100635000D03*
X90700000Y-139100000D03*
X83400000Y-137000000D03*
X178200000Y-100200000D03*
X83750000Y-141500000D03*
X182400000Y-116500000D03*
X149481236Y-130227534D03*
X89500000Y-140250000D03*
X105400000Y-137000000D03*
X192900000Y-107300000D03*
X92000000Y-137100000D03*
X155650000Y-141100000D03*
X124935000Y-105870000D03*
X179300000Y-130700000D03*
X176400000Y-130700000D03*
X89700000Y-134100000D03*
X186800000Y-120700000D03*
X148000000Y-125500000D03*
X105600000Y-143300000D03*
X176400000Y-127600000D03*
X143400000Y-131700000D03*
X88300000Y-124700000D03*
X168800000Y-144000000D03*
X68500000Y-99400000D03*
X90700000Y-141300000D03*
X108400000Y-113100000D03*
X166100000Y-141600000D03*
X91000000Y-131900000D03*
X185800000Y-121100000D03*
X174300000Y-140200000D03*
X169300000Y-137600000D03*
X188700000Y-119000000D03*
X80200000Y-143600000D03*
X79000000Y-134300000D03*
X174200000Y-123800000D03*
X117600000Y-106100000D03*
X140200000Y-92100000D03*
X127480000Y-110170000D03*
X94100000Y-134400000D03*
X148600000Y-132700000D03*
X94400000Y-137400000D03*
X79300000Y-137000000D03*
X78600000Y-140300000D03*
X140510000Y-128980000D03*
X127200000Y-116800000D03*
X101900000Y-141600000D03*
X99100000Y-143800000D03*
X103300000Y-130400000D03*
X183500000Y-118000000D03*
X179300000Y-103600000D03*
X84600000Y-139100000D03*
X147519293Y-129860280D03*
X152435168Y-128665933D03*
X79200000Y-131800000D03*
X125000000Y-114900000D03*
X81700000Y-137100000D03*
X154800000Y-108100000D03*
X84750000Y-141000000D03*
X84100000Y-135800000D03*
X174300000Y-116200000D03*
X144700000Y-154900000D03*
X190400000Y-104300000D03*
X190400000Y-107300000D03*
X183500000Y-121000000D03*
X168100000Y-137600000D03*
X101100000Y-124900000D03*
D68*
X110200000Y-104600000D03*
D67*
X169200000Y-118100000D03*
X78800000Y-138000000D03*
X157300000Y-148100000D03*
X97000000Y-125100000D03*
X115700000Y-106000000D03*
X150800000Y-124800000D03*
X80400000Y-137100000D03*
X90700000Y-140200000D03*
X186100000Y-90400000D03*
X81900000Y-125400000D03*
X105700000Y-126700000D03*
X92600000Y-139800000D03*
X192000000Y-116300000D03*
X128900000Y-132700000D03*
X134700000Y-133300000D03*
X105500000Y-139700000D03*
X167300000Y-144000000D03*
X179300000Y-127600000D03*
X102800000Y-138000000D03*
X154500000Y-146100000D03*
X82100000Y-142900000D03*
X157800000Y-103800000D03*
X168100000Y-131600000D03*
X102900000Y-125900000D03*
X183500000Y-119000000D03*
X185800000Y-99300000D03*
X72300000Y-106200000D03*
X141100000Y-114200000D03*
X146400000Y-144400000D03*
X94600000Y-140800000D03*
X114200000Y-127800000D03*
X79900000Y-127000000D03*
D68*
X124400000Y-108700000D03*
D67*
X94800000Y-143400000D03*
X169900000Y-107500000D03*
X130200000Y-115200000D03*
D68*
X133000000Y-106900000D03*
D67*
X173100000Y-107700000D03*
X174400000Y-104500000D03*
X185700000Y-92900000D03*
X187100000Y-119700000D03*
X170200000Y-144000000D03*
X175500000Y-89200000D03*
X91900000Y-135100000D03*
X117800000Y-144300000D03*
X177700000Y-127600000D03*
X163875000Y-96135000D03*
X123900000Y-91800000D03*
X78600000Y-139000000D03*
X81300000Y-143700000D03*
D68*
X117000000Y-114100000D03*
D67*
X158050000Y-143840000D03*
X74800000Y-89300000D03*
X89700000Y-141300000D03*
X78800000Y-141600000D03*
X87900000Y-143500000D03*
X85400000Y-135800000D03*
X83700000Y-128900000D03*
X142600000Y-98500000D03*
X158800000Y-155100000D03*
X183500000Y-120000000D03*
X79100000Y-143100000D03*
X144700000Y-140400000D03*
X145860298Y-128219602D03*
X184600000Y-121100000D03*
X177700000Y-130700000D03*
X122600000Y-130600000D03*
X192900000Y-104300000D03*
X92700000Y-143600000D03*
X169400000Y-131600000D03*
X169400000Y-96300000D03*
X105500000Y-130300000D03*
X143300000Y-137700000D03*
X79400000Y-129500000D03*
X131700000Y-134100000D03*
X83800000Y-142900000D03*
X173200000Y-140200000D03*
X191600000Y-107300000D03*
X152200000Y-131800000D03*
X97700000Y-139600000D03*
X101900000Y-132700000D03*
X191600000Y-104300000D03*
X96100000Y-127100000D03*
X89600000Y-139100000D03*
X103800000Y-133800000D03*
X97800000Y-136400000D03*
X85750000Y-141250000D03*
X120800000Y-112400000D03*
X93700000Y-132000000D03*
X141200000Y-121200000D03*
X166100000Y-142800000D03*
X147200000Y-92300000D03*
X90446173Y-143599177D03*
D68*
X82400000Y-114100000D03*
X109100000Y-129000000D03*
D67*
X152500000Y-101800000D03*
X172600000Y-105331032D03*
D68*
X77800000Y-109500000D03*
D67*
X146500000Y-133700000D03*
X180100000Y-98100000D03*
D68*
X116700000Y-130300000D03*
D67*
X160100000Y-132400000D03*
X184200000Y-98100000D03*
X140100000Y-128000000D03*
X127900000Y-116000000D03*
X138600000Y-136600000D03*
X158900000Y-134700000D03*
X167800000Y-128900000D03*
X168800000Y-127900000D03*
X166800000Y-128900000D03*
X166800000Y-127900000D03*
X168800000Y-128900000D03*
X167800000Y-129900000D03*
X167800000Y-127900000D03*
X168800000Y-129900000D03*
X149700000Y-89900000D03*
X166800000Y-129900000D03*
X141600000Y-129400000D03*
X140200000Y-121500000D03*
X156900000Y-143900000D03*
X154600000Y-141600000D03*
X115300000Y-142600000D03*
X119800000Y-129100000D03*
X173200000Y-109000000D03*
X155900000Y-109000000D03*
D69*
X143000000Y-138600000D03*
X129000000Y-131600000D03*
X144300000Y-139500000D03*
X129900000Y-132700000D03*
D67*
X146400000Y-127500000D03*
X148000000Y-129100000D03*
X151600000Y-129000000D03*
X151500000Y-132500000D03*
X149400000Y-131900000D03*
X148000000Y-124600000D03*
X150300000Y-130600000D03*
X150150000Y-125450000D03*
X153900000Y-107200000D03*
X168500000Y-107200000D03*
X136300000Y-112700000D03*
X133900000Y-115700000D03*
X118900000Y-138100000D03*
X121600000Y-130400000D03*
X157700000Y-102600000D03*
X178900000Y-102600000D03*
X157200000Y-101500000D03*
X178400000Y-101500000D03*
X180600000Y-116300000D03*
X187300000Y-113600000D03*
D70*
X128500000Y-109210000D02*
X128460000Y-109170000D01*
X128500000Y-113325000D02*
X128500000Y-109210000D01*
D71*
X128460000Y-109170000D02*
X128480000Y-109190000D01*
X128460000Y-109170000D02*
X128460000Y-106850000D01*
X128030000Y-106420000D02*
X127580000Y-106420000D01*
X128460000Y-106850000D02*
X128030000Y-106420000D01*
D72*
X121800000Y-111400000D02*
X120800000Y-112400000D01*
X78700000Y-140200000D02*
X78600000Y-140300000D01*
X137750000Y-115675000D02*
X137745000Y-115680000D01*
X148920000Y-95820000D02*
X149900000Y-95820000D01*
X121200000Y-108225000D02*
X119925000Y-108225000D01*
D71*
X187745000Y-118140000D02*
X187410000Y-118475000D01*
X186180000Y-96600000D02*
X186180000Y-95880000D01*
D72*
X174520000Y-103600000D02*
X174520000Y-104380000D01*
X139975000Y-92325000D02*
X140200000Y-92100000D01*
D71*
X186025000Y-88737500D02*
X186025000Y-90325000D01*
X129500000Y-113325000D02*
X129500000Y-112423958D01*
X186025000Y-94462500D02*
X186025000Y-93225000D01*
D72*
X146905000Y-92595000D02*
X147200000Y-92300000D01*
X117430000Y-114530000D02*
X117000000Y-114100000D01*
X157405000Y-155325000D02*
X158575000Y-155325000D01*
D71*
X120325000Y-126500000D02*
X119100000Y-126500000D01*
X108120000Y-112820000D02*
X108400000Y-113100000D01*
X74145000Y-88275000D02*
X74145000Y-88645000D01*
X74145000Y-88645000D02*
X74800000Y-89300000D01*
D72*
X131600000Y-134200000D02*
X131700000Y-134100000D01*
X163825000Y-96085000D02*
X163875000Y-96135000D01*
X139600000Y-115375000D02*
X139925000Y-115375000D01*
D71*
X136800000Y-115500000D02*
X136980000Y-115680000D01*
D72*
X84820000Y-138100000D02*
X84820000Y-138880000D01*
X72365000Y-102865000D02*
X72365000Y-101475000D01*
X127500000Y-107600000D02*
X127580000Y-107520000D01*
X174520000Y-103600000D02*
X174520000Y-102100000D01*
X169210000Y-119365000D02*
X169210000Y-118110000D01*
X106825000Y-104537500D02*
X107475000Y-104537500D01*
D71*
X187325000Y-88737500D02*
X186025000Y-88737500D01*
X129500000Y-113325000D02*
X129500000Y-114500000D01*
X133720000Y-130220000D02*
X133500000Y-130000000D01*
X144300000Y-96700000D02*
X144300000Y-97200000D01*
X119200000Y-115000000D02*
X118730000Y-114530000D01*
D72*
X191570000Y-115870000D02*
X192000000Y-116300000D01*
X157580000Y-148380000D02*
X157300000Y-148100000D01*
D71*
X186025000Y-90325000D02*
X186100000Y-90400000D01*
X176000000Y-87900000D02*
X176000000Y-88700000D01*
D72*
X139600000Y-115375000D02*
X138925000Y-115375000D01*
X174185000Y-117540000D02*
X174185000Y-116315000D01*
X124075000Y-91625000D02*
X123900000Y-91800000D01*
X88000000Y-139100000D02*
X89600000Y-139100000D01*
D71*
X173040000Y-122340000D02*
X173315000Y-122615000D01*
X173315000Y-122615000D02*
X174260000Y-122615000D01*
D72*
X132480000Y-109620000D02*
X132975000Y-109125000D01*
X138620000Y-115680000D02*
X137745000Y-115680000D01*
X126180000Y-106420000D02*
X125485000Y-106420000D01*
X72545000Y-105955000D02*
X72300000Y-106200000D01*
X161325000Y-96085000D02*
X160855000Y-96555000D01*
D71*
X143925000Y-97575000D02*
X143925000Y-98200000D01*
D72*
X191570000Y-115200000D02*
X191570000Y-115870000D01*
X121200000Y-108225000D02*
X122405000Y-108225000D01*
X174520000Y-104380000D02*
X174400000Y-104500000D01*
X154080000Y-145680000D02*
X154500000Y-146100000D01*
X81700000Y-142500000D02*
X82100000Y-142900000D01*
X138700000Y-92325000D02*
X139975000Y-92325000D01*
D71*
X108120000Y-112200000D02*
X108120000Y-110267500D01*
D72*
X132480000Y-110100000D02*
X132480000Y-109620000D01*
D71*
X186180000Y-95880000D02*
X186025000Y-95725000D01*
X127300000Y-91420000D02*
X127200000Y-91520000D01*
D72*
X158575000Y-155325000D02*
X158800000Y-155100000D01*
X147560000Y-93460000D02*
X146905000Y-93460000D01*
X115410000Y-107422500D02*
X115410000Y-106290000D01*
X127500000Y-109170000D02*
X127500000Y-110150000D01*
X117725000Y-145700000D02*
X117725000Y-144375000D01*
X104300000Y-143275000D02*
X105575000Y-143275000D01*
X139925000Y-115375000D02*
X141100000Y-114200000D01*
X69100000Y-98800000D02*
X68500000Y-99400000D01*
X162275000Y-96085000D02*
X163825000Y-96085000D01*
D71*
X172360000Y-122340000D02*
X173040000Y-122340000D01*
D72*
X102700000Y-127125000D02*
X101675000Y-127125000D01*
X80200000Y-140200000D02*
X78700000Y-140200000D01*
X72545000Y-105265000D02*
X72545000Y-105955000D01*
X137580000Y-92720000D02*
X136700000Y-92720000D01*
X81700000Y-141675000D02*
X81700000Y-142500000D01*
X174185000Y-116315000D02*
X174300000Y-116200000D01*
X169575000Y-96125000D02*
X169400000Y-96300000D01*
X119925000Y-108225000D02*
X119900000Y-108200000D01*
X124870000Y-109170000D02*
X124400000Y-108700000D01*
X174200000Y-123800000D02*
X174200000Y-122675000D01*
X134475000Y-133075000D02*
X134700000Y-133300000D01*
X115500000Y-127675000D02*
X116225000Y-127675000D01*
X101600000Y-141300000D02*
X101900000Y-141600000D01*
X114325000Y-127675000D02*
X114200000Y-127800000D01*
X110137500Y-104537500D02*
X110200000Y-104600000D01*
X105575000Y-143275000D02*
X105600000Y-143300000D01*
X72545000Y-103965000D02*
X72545000Y-105265000D01*
X72545000Y-103045000D02*
X72365000Y-102865000D01*
X81700000Y-138200000D02*
X81700000Y-137100000D01*
X148600000Y-95500000D02*
X148920000Y-95820000D01*
X138700000Y-92325000D02*
X137975000Y-92325000D01*
X143925000Y-98200000D02*
X142900000Y-98200000D01*
X174365000Y-101265000D02*
X174520000Y-101420000D01*
X174200000Y-122675000D02*
X174260000Y-122615000D01*
X117210000Y-106490000D02*
X117600000Y-106100000D01*
D71*
X125000000Y-113325000D02*
X125000000Y-112020000D01*
X134865000Y-92720000D02*
X136700000Y-92720000D01*
D72*
X149445000Y-155450000D02*
X149445000Y-154355000D01*
D71*
X151280000Y-141650000D02*
X148750000Y-141650000D01*
D72*
X137975000Y-92325000D02*
X137580000Y-92720000D01*
X169210000Y-118110000D02*
X169200000Y-118100000D01*
X142251000Y-131670000D02*
X143370000Y-131670000D01*
D71*
X129140000Y-91420000D02*
X127300000Y-91420000D01*
X188980000Y-118140000D02*
X187745000Y-118140000D01*
D72*
X118045000Y-114530000D02*
X117430000Y-114530000D01*
D71*
X125000000Y-113325000D02*
X125000000Y-114900000D01*
D72*
X72545000Y-103965000D02*
X72545000Y-103045000D01*
X143370000Y-131670000D02*
X143400000Y-131700000D01*
D71*
X148750000Y-141650000D02*
X148700000Y-141700000D01*
D72*
X138925000Y-115375000D02*
X138620000Y-115680000D01*
D71*
X135675000Y-115500000D02*
X136800000Y-115500000D01*
D72*
X102700000Y-127125000D02*
X102700000Y-126100000D01*
X115410000Y-106290000D02*
X115700000Y-106000000D01*
X146905000Y-93460000D02*
X146905000Y-92595000D01*
X116225000Y-127675000D02*
X117180000Y-126720000D01*
X126480000Y-91520000D02*
X127200000Y-91520000D01*
X157580000Y-149300000D02*
X157580000Y-148380000D01*
D71*
X119100000Y-126500000D02*
X118880000Y-126720000D01*
D72*
X159595000Y-96555000D02*
X158470000Y-95430000D01*
X108775000Y-104537500D02*
X110137500Y-104537500D01*
X158470000Y-95430000D02*
X157350000Y-95430000D01*
X117180000Y-126720000D02*
X118100000Y-126720000D01*
X100000000Y-141300000D02*
X101600000Y-141300000D01*
X101675000Y-127125000D02*
X101500000Y-127300000D01*
X160855000Y-96555000D02*
X160075000Y-96555000D01*
D71*
X118730000Y-114530000D02*
X118045000Y-114530000D01*
D72*
X125485000Y-106420000D02*
X124935000Y-105870000D01*
X132975000Y-108400000D02*
X132975000Y-106925000D01*
X125400000Y-91625000D02*
X124075000Y-91625000D01*
X186180000Y-98100000D02*
X186180000Y-98920000D01*
D71*
X186025000Y-95725000D02*
X186025000Y-94462500D01*
X120325000Y-115000000D02*
X119200000Y-115000000D01*
D72*
X117210000Y-107422500D02*
X117210000Y-106490000D01*
X133720000Y-130920000D02*
X133720000Y-130600000D01*
X107475000Y-104537500D02*
X108125000Y-104537500D01*
X160075000Y-96555000D02*
X159595000Y-96555000D01*
X125400000Y-91625000D02*
X126375000Y-91625000D01*
X131600000Y-135462500D02*
X131600000Y-134200000D01*
X89500000Y-133900000D02*
X89700000Y-134100000D01*
X162275000Y-96085000D02*
X161325000Y-96085000D01*
X108125000Y-104537500D02*
X108775000Y-104537500D01*
X132975000Y-106925000D02*
X133000000Y-106900000D01*
D71*
X129823958Y-112100000D02*
X129900000Y-112100000D01*
X136980000Y-115680000D02*
X137745000Y-115680000D01*
D72*
X88000000Y-133900000D02*
X89500000Y-133900000D01*
X125300000Y-109170000D02*
X124870000Y-109170000D01*
X148110000Y-95500000D02*
X148110000Y-94010000D01*
X144900000Y-155100000D02*
X144700000Y-154900000D01*
D71*
X176000000Y-88700000D02*
X175500000Y-89200000D01*
D72*
X81700000Y-138725000D02*
X81700000Y-138200000D01*
X186180000Y-98920000D02*
X185800000Y-99300000D01*
D71*
X108120000Y-110267500D02*
X108125000Y-110262500D01*
X108120000Y-112200000D02*
X108120000Y-112820000D01*
D72*
X115500000Y-127675000D02*
X114325000Y-127675000D01*
X148110000Y-95500000D02*
X148600000Y-95500000D01*
D71*
X129500000Y-112423958D02*
X129823958Y-112100000D01*
D72*
X142900000Y-98200000D02*
X142600000Y-98500000D01*
X148110000Y-94010000D02*
X147560000Y-93460000D01*
D71*
X125000000Y-112020000D02*
X125520000Y-111500000D01*
D72*
X132975000Y-109125000D02*
X132975000Y-108400000D01*
X69100000Y-98225000D02*
X69100000Y-98800000D01*
X134475000Y-132100000D02*
X134475000Y-133075000D01*
X134475000Y-131675000D02*
X133720000Y-130920000D01*
X149445000Y-154355000D02*
X149600000Y-154200000D01*
D71*
X118880000Y-126720000D02*
X118100000Y-126720000D01*
D72*
X134475000Y-132100000D02*
X134475000Y-131675000D01*
X122405000Y-108225000D02*
X123000000Y-108820000D01*
X122065000Y-111400000D02*
X121800000Y-111400000D01*
D71*
X129500000Y-114500000D02*
X130200000Y-115200000D01*
D72*
X117725000Y-144375000D02*
X117800000Y-144300000D01*
D71*
X133500000Y-130000000D02*
X133500000Y-128675000D01*
D72*
X148110000Y-144625000D02*
X146625000Y-144625000D01*
X146085000Y-155100000D02*
X144900000Y-155100000D01*
D71*
X129900000Y-112100000D02*
X130280000Y-111720000D01*
D72*
X102700000Y-126100000D02*
X102900000Y-125900000D01*
D71*
X144300000Y-97200000D02*
X143925000Y-97575000D01*
D72*
X127500000Y-109170000D02*
X127500000Y-107600000D01*
X126375000Y-91625000D02*
X126480000Y-91520000D01*
D71*
X133720000Y-130600000D02*
X133720000Y-130220000D01*
D72*
X84820000Y-138880000D02*
X84600000Y-139100000D01*
X101500000Y-127300000D02*
X100000000Y-127300000D01*
X174365000Y-100075000D02*
X174365000Y-101265000D01*
X186180000Y-98100000D02*
X186180000Y-96600000D01*
D71*
X130280000Y-111720000D02*
X130280000Y-111200000D01*
X186025000Y-93225000D02*
X185700000Y-92900000D01*
D72*
X88000000Y-141300000D02*
X89700000Y-141300000D01*
X169575000Y-95100000D02*
X169575000Y-96125000D01*
X174520000Y-101420000D02*
X174520000Y-102100000D01*
X146625000Y-144625000D02*
X146400000Y-144400000D01*
X154080000Y-144625000D02*
X154080000Y-145680000D01*
X123625000Y-93175000D02*
X125400000Y-93175000D01*
D71*
X120325000Y-115500000D02*
X118055000Y-115500000D01*
D72*
X144200000Y-136200000D02*
X144200000Y-135000000D01*
X73505000Y-103965000D02*
X73505000Y-105265000D01*
X108775000Y-128675000D02*
X109100000Y-129000000D01*
X136200000Y-131500000D02*
X135300000Y-130600000D01*
D71*
X129000000Y-117100000D02*
X129000000Y-116100000D01*
D72*
X110900000Y-114900000D02*
X110900000Y-112600000D01*
X143410000Y-134210000D02*
X142251000Y-134210000D01*
D71*
X127820000Y-92480000D02*
X127200000Y-92480000D01*
D72*
X148900000Y-105100000D02*
X148900000Y-103800000D01*
D71*
X136800000Y-115000000D02*
X137080000Y-114720000D01*
D72*
X160000000Y-156200000D02*
X159600000Y-156600000D01*
D71*
X131500000Y-113325000D02*
X131500000Y-112200000D01*
D72*
X144200000Y-136200000D02*
X143300000Y-136200000D01*
X110900000Y-112600000D02*
X112802500Y-110697500D01*
X111600000Y-114900000D02*
X110900000Y-114900000D01*
X73505000Y-105505000D02*
X73505000Y-105265000D01*
X160100000Y-132400000D02*
X163500000Y-132400000D01*
D71*
X134000000Y-129500000D02*
X134680000Y-130180000D01*
D72*
X109800000Y-113600000D02*
X109800000Y-112500000D01*
D71*
X132700000Y-115600000D02*
X132200000Y-116100000D01*
D72*
X162800000Y-145300000D02*
X160000000Y-145300000D01*
X112802500Y-110697500D02*
X115510000Y-110697500D01*
X163000000Y-139900000D02*
X163000000Y-137400000D01*
D71*
X129000000Y-116100000D02*
X129000000Y-113325000D01*
D72*
X180100000Y-98100000D02*
X176200000Y-98100000D01*
X109425000Y-114900000D02*
X109425000Y-113975000D01*
X148900000Y-103800000D02*
X149325000Y-103375000D01*
D71*
X132700000Y-115000000D02*
X135675000Y-115000000D01*
D72*
X159200000Y-143700000D02*
X163000000Y-139900000D01*
X90000000Y-121700000D02*
X82400000Y-114100000D01*
D71*
X134000000Y-128675000D02*
X134000000Y-129500000D01*
X131500000Y-113325000D02*
X131500000Y-114500000D01*
D72*
X131425000Y-108400000D02*
X131425000Y-109225000D01*
X73505000Y-103095000D02*
X73635000Y-102965000D01*
X160000000Y-144500000D02*
X160000000Y-145300000D01*
X140800000Y-148600000D02*
X118575000Y-148600000D01*
D71*
X131500000Y-112200000D02*
X131200000Y-111900000D01*
D72*
X125825000Y-93175000D02*
X126520000Y-92480000D01*
D71*
X131500000Y-114500000D02*
X132000000Y-115000000D01*
D72*
X115400000Y-109900000D02*
X115410000Y-109890000D01*
X164410000Y-135990000D02*
X166460000Y-135990000D01*
D71*
X108775000Y-110262500D02*
X108775000Y-111175000D01*
X118627107Y-127680000D02*
X118100000Y-127680000D01*
D72*
X164240000Y-133140000D02*
X165835000Y-133140000D01*
X123400000Y-115500000D02*
X125700000Y-117800000D01*
X109800000Y-112500000D02*
X109500000Y-112200000D01*
X74800000Y-106500000D02*
X74500000Y-106500000D01*
X104500000Y-106600000D02*
X104375000Y-106725000D01*
X115510000Y-110697500D02*
X115510000Y-110010000D01*
D71*
X118055000Y-115500000D02*
X118045000Y-115490000D01*
D72*
X175500000Y-104500000D02*
X175480000Y-104480000D01*
X145000000Y-136200000D02*
X144200000Y-136200000D01*
X128300000Y-117800000D02*
X128650000Y-117450000D01*
X136200000Y-132500000D02*
X136200000Y-131500000D01*
X102700000Y-128675000D02*
X108775000Y-128675000D01*
X185220000Y-98100000D02*
X185220000Y-96600000D01*
X126600000Y-117800000D02*
X128300000Y-117800000D01*
X74500000Y-106500000D02*
X73505000Y-105505000D01*
D71*
X135675000Y-115000000D02*
X136800000Y-115000000D01*
X129000000Y-113325000D02*
X129000000Y-112200000D01*
D72*
X175480000Y-101320000D02*
X175480000Y-102100000D01*
D71*
X120325000Y-115500000D02*
X123400000Y-115500000D01*
D72*
X110900000Y-114900000D02*
X109425000Y-114900000D01*
X73900000Y-99600000D02*
X76400000Y-99600000D01*
D71*
X131200000Y-111900000D02*
X131200000Y-111100000D01*
D72*
X104500000Y-106600000D02*
X83400000Y-106600000D01*
X172631032Y-105300000D02*
X172600000Y-105331032D01*
D71*
X185375000Y-95625000D02*
X185220000Y-95780000D01*
D72*
X73635000Y-102965000D02*
X73635000Y-101475000D01*
X73505000Y-103965000D02*
X73505000Y-103095000D01*
D73*
X152680000Y-142225000D02*
X153325000Y-142225000D01*
D72*
X101400000Y-128400000D02*
X101675000Y-128675000D01*
X77800000Y-109500000D02*
X74800000Y-106500000D01*
X100000000Y-129500000D02*
X100000000Y-128400000D01*
X115510000Y-110010000D02*
X115400000Y-109900000D01*
X92025000Y-123725000D02*
X90000000Y-121700000D01*
X109450000Y-107350000D02*
X123625000Y-93175000D01*
X139075000Y-113825000D02*
X138180000Y-114720000D01*
X149325000Y-103375000D02*
X150300000Y-103375000D01*
X175500000Y-104531371D02*
X175500000Y-104500000D01*
X104375000Y-106725000D02*
X104375000Y-114900000D01*
X109425000Y-113975000D02*
X109800000Y-113600000D01*
X115410000Y-109890000D02*
X115410000Y-108972500D01*
X92025000Y-124700000D02*
X92025000Y-126125000D01*
X92025000Y-126125000D02*
X94300000Y-128400000D01*
X175480000Y-103400000D02*
X175480000Y-102100000D01*
X146500000Y-134700000D02*
X145000000Y-136200000D01*
X141700000Y-137400000D02*
X141100000Y-137400000D01*
D71*
X131500000Y-110120000D02*
X131520000Y-110100000D01*
D72*
X108700000Y-106600000D02*
X104500000Y-106600000D01*
X101675000Y-128675000D02*
X102700000Y-128675000D01*
D71*
X129320000Y-111880000D02*
X129320000Y-111200000D01*
D72*
X131425000Y-109225000D02*
X131520000Y-109320000D01*
D71*
X120325000Y-127000000D02*
X119307107Y-127000000D01*
D72*
X141100000Y-137400000D02*
X136200000Y-132500000D01*
D71*
X132700000Y-115000000D02*
X132700000Y-115600000D01*
D72*
X143300000Y-136200000D02*
X142100000Y-137400000D01*
X158400000Y-142900000D02*
X159200000Y-143700000D01*
D71*
X132000000Y-115000000D02*
X132700000Y-115000000D01*
D72*
X126520000Y-92480000D02*
X127200000Y-92480000D01*
X109450000Y-107350000D02*
X108700000Y-106600000D01*
D71*
X134680000Y-130180000D02*
X134680000Y-130600000D01*
D72*
X141700000Y-137400000D02*
X141700000Y-147700000D01*
X174731371Y-105300000D02*
X172631032Y-105300000D01*
X108775000Y-108025000D02*
X109450000Y-107350000D01*
X139600000Y-113825000D02*
X139075000Y-113825000D01*
X175635000Y-100075000D02*
X175635000Y-101165000D01*
X100000000Y-128400000D02*
X101400000Y-128400000D01*
D71*
X137080000Y-114720000D02*
X137745000Y-114720000D01*
X185220000Y-95780000D02*
X185220000Y-96600000D01*
D72*
X152300000Y-102000000D02*
X152500000Y-101800000D01*
X146500000Y-134700000D02*
X146500000Y-133700000D01*
X152300000Y-103375000D02*
X152300000Y-102000000D01*
X118045000Y-115490000D02*
X112190000Y-115490000D01*
X175635000Y-101165000D02*
X175480000Y-101320000D01*
X150300000Y-103375000D02*
X152300000Y-103375000D01*
X83400000Y-106600000D02*
X76400000Y-99600000D01*
X159200000Y-143700000D02*
X160000000Y-144500000D01*
X174731371Y-105300000D02*
X175500000Y-104531371D01*
D71*
X109080000Y-111480000D02*
X109080000Y-112200000D01*
D72*
X141700000Y-147700000D02*
X140800000Y-148600000D01*
D71*
X108775000Y-111175000D02*
X109080000Y-111480000D01*
D72*
X139600000Y-113825000D02*
X140175000Y-113825000D01*
X138180000Y-114720000D02*
X137745000Y-114720000D01*
D71*
X131520000Y-110780000D02*
X131520000Y-110100000D01*
X128230000Y-92070000D02*
X127820000Y-92480000D01*
D72*
X176200000Y-98100000D02*
X175635000Y-98665000D01*
D71*
X129000000Y-112200000D02*
X129320000Y-111880000D01*
D72*
X151645000Y-156000000D02*
X151645000Y-155450000D01*
X73635000Y-99865000D02*
X73900000Y-99600000D01*
X112190000Y-115490000D02*
X111600000Y-114900000D01*
X125700000Y-117800000D02*
X126600000Y-117800000D01*
X116700000Y-130300000D02*
X118100000Y-128900000D01*
X175480000Y-104480000D02*
X175480000Y-103400000D01*
X128650000Y-117450000D02*
X129000000Y-117100000D01*
X163500000Y-132400000D02*
X164240000Y-133140000D01*
D71*
X108775000Y-110262500D02*
X108775000Y-108025000D01*
D72*
X142100000Y-137400000D02*
X141700000Y-137400000D01*
D71*
X129140000Y-92070000D02*
X128230000Y-92070000D01*
D72*
X135300000Y-130600000D02*
X134680000Y-130600000D01*
X118100000Y-128900000D02*
X118100000Y-127680000D01*
D71*
X153325000Y-142225000D02*
X154000000Y-142900000D01*
D72*
X125400000Y-93175000D02*
X125825000Y-93175000D01*
X131520000Y-109320000D02*
X131520000Y-110100000D01*
X154000000Y-142900000D02*
X158400000Y-142900000D01*
X175635000Y-98665000D02*
X175635000Y-100075000D01*
X163000000Y-137400000D02*
X164410000Y-135990000D01*
X160000000Y-145300000D02*
X160000000Y-156200000D01*
D71*
X185375000Y-94462500D02*
X185375000Y-95625000D01*
D72*
X109500000Y-112200000D02*
X109080000Y-112200000D01*
D71*
X131200000Y-111100000D02*
X131520000Y-110780000D01*
D72*
X159600000Y-156600000D02*
X152245000Y-156600000D01*
X92025000Y-124700000D02*
X92025000Y-123725000D01*
X140175000Y-113825000D02*
X148900000Y-105100000D01*
X94300000Y-128400000D02*
X100000000Y-128400000D01*
D71*
X119307107Y-127000000D02*
X118627107Y-127680000D01*
D72*
X152245000Y-156600000D02*
X151645000Y-156000000D01*
D71*
X132200000Y-116100000D02*
X129000000Y-116100000D01*
D72*
X185220000Y-98100000D02*
X184200000Y-98100000D01*
D73*
X152280000Y-142225000D02*
X152680000Y-142225000D01*
D72*
X144200000Y-135000000D02*
X143410000Y-134210000D01*
X73635000Y-101475000D02*
X73635000Y-99865000D01*
D71*
X127500000Y-112423958D02*
X126576042Y-111500000D01*
X126576042Y-111500000D02*
X126480000Y-111500000D01*
X144400000Y-132200000D02*
X144700000Y-131900000D01*
X142251000Y-132940000D02*
X143660000Y-132940000D01*
X144700000Y-131900000D02*
X144700000Y-129900000D01*
X144700000Y-129900000D02*
X144700000Y-129500000D01*
X127500000Y-113325000D02*
X127500000Y-112423958D01*
X144700000Y-129500000D02*
X143500000Y-128300000D01*
X143660000Y-132940000D02*
X144400000Y-132200000D01*
X127500000Y-115600000D02*
X127900000Y-116000000D01*
X143200000Y-128000000D02*
X140100000Y-128000000D01*
X127500000Y-113325000D02*
X127500000Y-115600000D01*
X143500000Y-128300000D02*
X143200000Y-128000000D01*
X117100000Y-126000000D02*
X116975000Y-126125000D01*
X120325000Y-126000000D02*
X117100000Y-126000000D01*
X116975000Y-126125000D02*
X115500000Y-126125000D01*
D70*
X128000000Y-113325000D02*
X128000000Y-111644595D01*
D71*
X126235000Y-109195000D02*
X126260000Y-109170000D01*
X126260000Y-109170000D02*
X126260000Y-107600000D01*
D70*
X126260000Y-109904595D02*
X126260000Y-109170000D01*
D71*
X126260000Y-107600000D02*
X126180000Y-107520000D01*
D70*
X128000000Y-111644595D02*
X126260000Y-109904595D01*
D71*
X132925000Y-130775000D02*
X132925000Y-132100000D01*
X133000000Y-128675000D02*
X133000000Y-130700000D01*
X133000000Y-130700000D02*
X132925000Y-130775000D01*
D72*
X162275000Y-97985000D02*
X161525000Y-97985000D01*
X161055000Y-97515000D02*
X160075000Y-97515000D01*
X161525000Y-97985000D02*
X161055000Y-97515000D01*
D71*
X188540000Y-117140000D02*
X188325000Y-116925000D01*
D72*
X168100000Y-110800000D02*
X165200000Y-107900000D01*
X164485000Y-97985000D02*
X162275000Y-97985000D01*
D71*
X188980000Y-117140000D02*
X188540000Y-117140000D01*
D72*
X165200000Y-98700000D02*
X164485000Y-97985000D01*
X165200000Y-107900000D02*
X165200000Y-98700000D01*
X160075000Y-97515000D02*
X159495000Y-97515000D01*
X176700000Y-110800000D02*
X168100000Y-110800000D01*
X159040000Y-97970000D02*
X157350000Y-97970000D01*
X181660000Y-105840000D02*
X176700000Y-110800000D01*
X159495000Y-97515000D02*
X159040000Y-97970000D01*
D71*
X188325000Y-116925000D02*
X187410000Y-116925000D01*
D72*
X186060000Y-105840000D02*
X181660000Y-105840000D01*
X190680000Y-118880000D02*
X190460000Y-118660000D01*
X190680000Y-119400000D02*
X190680000Y-118880000D01*
X190460000Y-118660000D02*
X190460000Y-118240000D01*
D71*
X189416042Y-117640000D02*
X189720000Y-117943958D01*
D74*
X189720000Y-117943958D02*
X189720000Y-118477462D01*
D72*
X189720000Y-119400000D02*
X189720000Y-118477462D01*
D71*
X188980000Y-117640000D02*
X189416042Y-117640000D01*
D72*
X158900000Y-134700000D02*
X158900000Y-128000000D01*
D71*
X170880000Y-121340000D02*
X170340000Y-121340000D01*
D72*
X131175000Y-136600000D02*
X132100000Y-136600000D01*
X134800000Y-145100000D02*
X133800000Y-146100000D01*
X131150000Y-136625000D02*
X131600000Y-137075000D01*
X165985000Y-120915000D02*
X169210000Y-120915000D01*
D71*
X170340000Y-121340000D02*
X169915000Y-120915000D01*
D72*
X134800000Y-142800000D02*
X134800000Y-145100000D01*
X128000000Y-144900000D02*
X128000000Y-137100000D01*
X165200000Y-121700000D02*
X165985000Y-120915000D01*
X132760000Y-142160000D02*
X134160000Y-142160000D01*
D71*
X169915000Y-120915000D02*
X169210000Y-120915000D01*
D72*
X131150000Y-136625000D02*
X131175000Y-136600000D01*
X131625000Y-137075000D02*
X132100000Y-136600000D01*
X128475000Y-136625000D02*
X131150000Y-136625000D01*
X158900000Y-128000000D02*
X165200000Y-121700000D01*
X131600000Y-137075000D02*
X131600000Y-137737500D01*
X128000000Y-137100000D02*
X128475000Y-136625000D01*
X132100000Y-136600000D02*
X138600000Y-136600000D01*
X133800000Y-146100000D02*
X129200000Y-146100000D01*
X134160000Y-142160000D02*
X134800000Y-142800000D01*
X129200000Y-146100000D02*
X128000000Y-144900000D01*
X131600000Y-137075000D02*
X131625000Y-137075000D01*
D71*
X171600000Y-121840000D02*
X171600000Y-122900000D01*
X179800000Y-137700000D02*
X179800000Y-138775000D01*
X170880000Y-121840000D02*
X171600000Y-121840000D01*
D72*
X147300000Y-91200000D02*
X146300000Y-91200000D01*
D71*
X178165000Y-136065000D02*
X179800000Y-137700000D01*
X145300000Y-95220000D02*
X145300000Y-93515000D01*
X171600000Y-121840000D02*
X172360000Y-121840000D01*
X173710000Y-136065000D02*
X178165000Y-136065000D01*
D72*
X145355000Y-92145000D02*
X145355000Y-93460000D01*
X149700000Y-89900000D02*
X148600000Y-89900000D01*
X146300000Y-91200000D02*
X145355000Y-92145000D01*
X148600000Y-89900000D02*
X147300000Y-91200000D01*
D71*
X145300000Y-93515000D02*
X145355000Y-93460000D01*
D75*
X85800000Y-138120000D02*
X85780000Y-138100000D01*
D76*
X85800000Y-139215000D02*
X85800000Y-138120000D01*
X84790000Y-137110000D02*
X84790000Y-136900000D01*
X85780000Y-138100000D02*
X84790000Y-137110000D01*
X85800000Y-140185000D02*
X87985000Y-140185000D01*
D75*
X87985000Y-140185000D02*
X88000000Y-140200000D01*
D76*
X85785000Y-140200000D02*
X85800000Y-140185000D01*
X83200000Y-140200000D02*
X85785000Y-140200000D01*
D71*
X134200000Y-127300000D02*
X138400000Y-131500000D01*
X139810000Y-134210000D02*
X140981000Y-134210000D01*
X138400000Y-131500000D02*
X138400000Y-132800000D01*
X132500000Y-128675000D02*
X132500000Y-127773958D01*
X132973958Y-127300000D02*
X134200000Y-127300000D01*
X138400000Y-132800000D02*
X139810000Y-134210000D01*
X132500000Y-127773958D02*
X132973958Y-127300000D01*
X139700000Y-132400000D02*
X139700000Y-129700000D01*
X140981000Y-132940000D02*
X140240000Y-132940000D01*
X137000000Y-127000000D02*
X135675000Y-127000000D01*
X140240000Y-132940000D02*
X139700000Y-132400000D01*
X139700000Y-129700000D02*
X137000000Y-127000000D01*
X139200000Y-120500000D02*
X135675000Y-120500000D01*
X140981000Y-131670000D02*
X141600000Y-131051000D01*
X141600000Y-131051000D02*
X141600000Y-129400000D01*
X140200000Y-121500000D02*
X139200000Y-120500000D01*
D75*
X154945000Y-155450000D02*
X154945000Y-148345000D01*
X154945000Y-148345000D02*
X152600000Y-146000000D01*
X151880000Y-143080000D02*
X151880000Y-142225000D01*
X152600000Y-143800000D02*
X151880000Y-143080000D01*
X152600000Y-146000000D02*
X152600000Y-143800000D01*
X151480000Y-143480000D02*
X152000000Y-144000000D01*
X153845000Y-148445000D02*
X153845000Y-155450000D01*
X152000000Y-146600000D02*
X153845000Y-148445000D01*
X151480000Y-142225000D02*
X151480000Y-143480000D01*
X152000000Y-144000000D02*
X152000000Y-146600000D01*
X151400000Y-144202084D02*
X151080000Y-143882084D01*
X151400000Y-147100000D02*
X151400000Y-144202084D01*
X152745000Y-148445000D02*
X151400000Y-147100000D01*
X152745000Y-155450000D02*
X152745000Y-148445000D01*
X151080000Y-143882084D02*
X151080000Y-142225000D01*
X151380000Y-151600000D02*
X150980000Y-151600000D01*
X150680000Y-154765000D02*
X150680000Y-152500000D01*
X150680000Y-151300000D02*
X150680000Y-151122838D01*
X150680000Y-151122838D02*
X150680000Y-142225000D01*
X150545000Y-155450000D02*
X150545000Y-154900000D01*
X150980000Y-152200000D02*
X151380000Y-152200000D01*
X150545000Y-154900000D02*
X150680000Y-154765000D01*
X151380000Y-152200000D02*
G75*
G03*
X151680000Y-151900000I0J300000D01*
G01*
X151680000Y-151900000D02*
G75*
G03*
X151380000Y-151600000I-300000J0D01*
G01*
X150980000Y-152200000D02*
G75*
G03*
X150680000Y-152500000I0J-300000D01*
G01*
X150680000Y-151300000D02*
G75*
G03*
X150980000Y-151600000I300000J0D01*
G01*
X150100000Y-143700000D02*
X150100000Y-147300000D01*
X150280000Y-142225000D02*
X150280000Y-143520000D01*
X148345000Y-149055000D02*
X148345000Y-155450000D01*
X150280000Y-143520000D02*
X150100000Y-143700000D01*
X150100000Y-147300000D02*
X148345000Y-149055000D01*
X149880000Y-142900000D02*
X149880000Y-142225000D01*
X149500000Y-143280000D02*
X149880000Y-142900000D01*
X147295000Y-148205000D02*
X149500000Y-146000000D01*
X149500000Y-146000000D02*
X149500000Y-143280000D01*
X147295000Y-155450000D02*
X147295000Y-148205000D01*
D71*
X148100000Y-122400000D02*
X151200000Y-122400000D01*
X154600000Y-124100000D02*
X156600000Y-126100000D01*
X156600000Y-128100000D02*
X156600000Y-138800000D01*
X151200000Y-122400000D02*
X152900000Y-122400000D01*
X156900000Y-143900000D02*
X157580000Y-144580000D01*
X137500000Y-122400000D02*
X148100000Y-122400000D01*
D73*
X155500000Y-139900000D02*
X156600000Y-138800000D01*
D71*
X136900000Y-123000000D02*
X137400000Y-122500000D01*
X152900000Y-122400000D02*
X154600000Y-124100000D01*
X153375000Y-141075000D02*
X153700000Y-141400000D01*
X135675000Y-123000000D02*
X136900000Y-123000000D01*
X157580000Y-144580000D02*
X157580000Y-145600000D01*
X156600000Y-126100000D02*
X156600000Y-128100000D01*
X153700000Y-141400000D02*
X153900000Y-141600000D01*
X137400000Y-122500000D02*
X137500000Y-122400000D01*
D73*
X153400000Y-139900000D02*
X155500000Y-139900000D01*
D71*
X153900000Y-141600000D02*
X154600000Y-141600000D01*
D73*
X152680000Y-141075000D02*
X152680000Y-140620000D01*
X152680000Y-141075000D02*
X153375000Y-141075000D01*
X152680000Y-140620000D02*
X153400000Y-139900000D01*
X130650000Y-133875000D02*
X130650000Y-135462500D01*
X131525000Y-129900001D02*
X131525000Y-133000000D01*
X131500000Y-129875001D02*
X131525000Y-129900001D01*
X131525000Y-133000000D02*
X130650000Y-133875000D01*
X131500000Y-128675000D02*
X131500000Y-129875001D01*
X132000000Y-129875001D02*
X131975000Y-129900001D01*
X131975000Y-129900001D02*
X131975000Y-133000000D01*
X132000000Y-128675000D02*
X132000000Y-129875001D01*
X131975000Y-133000000D02*
X132550000Y-133575000D01*
X132550000Y-133575000D02*
X132550000Y-135462500D01*
D71*
X115300000Y-143300000D02*
X116075000Y-144075000D01*
X116075000Y-148560000D02*
X116035000Y-148600000D01*
X115300000Y-142600000D02*
X115300000Y-143300000D01*
X135675000Y-118000000D02*
X130900000Y-118000000D01*
X130900000Y-118000000D02*
X119800000Y-129100000D01*
X116075000Y-145700000D02*
X116075000Y-148560000D01*
X116075000Y-144075000D02*
X116075000Y-145700000D01*
X172610000Y-91000000D02*
X175535000Y-91000000D01*
X71000000Y-91465000D02*
X70975000Y-91490000D01*
X73975000Y-91490000D02*
X74000000Y-91465000D01*
X71110000Y-91490000D02*
X73975000Y-91490000D01*
D72*
X167660000Y-123340000D02*
X168160000Y-122840000D01*
X168160000Y-122840000D02*
X169210000Y-122840000D01*
D71*
X170460000Y-122340000D02*
X169960000Y-122840000D01*
D72*
X167060000Y-123340000D02*
X167660000Y-123340000D01*
D71*
X170880000Y-122340000D02*
X170460000Y-122340000D01*
X169960000Y-122840000D02*
X169210000Y-122840000D01*
D72*
X88000000Y-135900000D02*
X87400000Y-135300000D01*
X88000000Y-135900000D02*
X88000000Y-136900000D01*
X87400000Y-135300000D02*
X86300000Y-135300000D01*
X86300000Y-135300000D02*
X84600000Y-133600000D01*
X88000000Y-127300000D02*
X88000000Y-126400000D01*
X88000000Y-126400000D02*
X87200000Y-125600000D01*
X87200000Y-125600000D02*
X84900000Y-125600000D01*
D71*
X107775000Y-113575000D02*
X107775000Y-114900000D01*
X120325000Y-125000000D02*
X119300000Y-125000000D01*
X107775000Y-116375000D02*
X107775000Y-114900000D01*
X107475000Y-110262500D02*
X107475000Y-113275000D01*
X115600000Y-124200000D02*
X107775000Y-116375000D01*
X119300000Y-125000000D02*
X118500000Y-124200000D01*
X107475000Y-113275000D02*
X107775000Y-113575000D01*
X118500000Y-124200000D02*
X115600000Y-124200000D01*
X106825000Y-113475000D02*
X106825000Y-110262500D01*
X117000000Y-125100000D02*
X114600000Y-125100000D01*
X106025000Y-114900000D02*
X106025000Y-114275000D01*
X106025000Y-114275000D02*
X106825000Y-113475000D01*
X114600000Y-125100000D02*
X106025000Y-116525000D01*
X120325000Y-125500000D02*
X117400000Y-125500000D01*
X117400000Y-125500000D02*
X117000000Y-125100000D01*
X106025000Y-116525000D02*
X106025000Y-114900000D01*
X155800000Y-109000000D02*
X155900000Y-109000000D01*
X137000000Y-119500000D02*
X137300000Y-119800000D01*
X137300000Y-119800000D02*
X145000000Y-119800000D01*
X176900000Y-103400000D02*
X176905000Y-103395000D01*
X173200000Y-109000000D02*
X176900000Y-105300000D01*
X145000000Y-119800000D02*
X155800000Y-109000000D01*
X176900000Y-105300000D02*
X176900000Y-103400000D01*
X176905000Y-103395000D02*
X176905000Y-100075000D01*
X135675000Y-119500000D02*
X137000000Y-119500000D01*
D75*
X150280000Y-140375832D02*
X150280000Y-141075000D01*
X145850000Y-138600000D02*
X148504168Y-138600000D01*
X144300000Y-138300000D02*
X144300000Y-137900000D01*
X129000000Y-128675000D02*
X129000000Y-131600000D01*
X143000000Y-138600000D02*
X144000000Y-138600000D01*
X145150000Y-139100000D02*
X145250000Y-139100000D01*
X144900000Y-138300000D02*
X144900000Y-138850000D01*
X144900000Y-137900000D02*
X144900000Y-138300000D01*
X148504168Y-138600000D02*
X150280000Y-140375832D01*
X145750000Y-138600000D02*
X145850000Y-138600000D01*
X145250000Y-139100000D02*
G75*
G03*
X145500000Y-138850000I0J250000D01*
G01*
X144900000Y-137900000D02*
G75*
G03*
X144600000Y-137600000I-300000J0D01*
G01*
X144600000Y-137600000D02*
G75*
G03*
X144300000Y-137900000I0J-300000D01*
G01*
X144000000Y-138600000D02*
G75*
G03*
X144300000Y-138300000I0J300000D01*
G01*
X145750000Y-138600000D02*
G75*
G03*
X145500000Y-138850000I0J-250000D01*
G01*
X144900000Y-138850000D02*
G75*
G03*
X145150000Y-139100000I250000J0D01*
G01*
D71*
X116300000Y-131700000D02*
X123876042Y-131700000D01*
X74905000Y-103905000D02*
X80300000Y-109300000D01*
X96700000Y-121900000D02*
X106500000Y-121900000D01*
X106500000Y-121900000D02*
X116300000Y-131700000D01*
X123876042Y-131700000D02*
X126000000Y-129576042D01*
X74905000Y-101475000D02*
X74905000Y-103905000D01*
X80300000Y-109300000D02*
X84100000Y-109300000D01*
X126000000Y-129576042D02*
X126000000Y-128675000D01*
X84100000Y-109300000D02*
X96700000Y-121900000D01*
X94300000Y-123700000D02*
X81500000Y-110900000D01*
X71095000Y-106695000D02*
X71095000Y-101475000D01*
X106500000Y-123700000D02*
X94300000Y-123700000D01*
X115900000Y-133100000D02*
X106500000Y-123700000D01*
X126500000Y-128675000D02*
X126500000Y-130900000D01*
X81500000Y-110900000D02*
X75300000Y-110900000D01*
X124300000Y-133100000D02*
X115900000Y-133100000D01*
X126500000Y-130900000D02*
X124300000Y-133100000D01*
X75300000Y-110900000D02*
X71095000Y-106695000D01*
D75*
X129900000Y-132700000D02*
X129900000Y-130600000D01*
X129500000Y-130200000D02*
X129500000Y-128675000D01*
X129900000Y-130600000D02*
X129500000Y-130200000D01*
X144300000Y-139500000D02*
X148900000Y-139500000D01*
X149880000Y-140480000D02*
X149880000Y-141075000D01*
X148900000Y-139500000D02*
X149880000Y-140480000D01*
X137100000Y-126300000D02*
X136800000Y-126000000D01*
X151875000Y-141075000D02*
X151858250Y-141058250D01*
X153200000Y-138000000D02*
X153600000Y-138000000D01*
X145200000Y-126300000D02*
X137100000Y-126300000D01*
X146400000Y-127500000D02*
X145200000Y-126300000D01*
X151858250Y-141058250D02*
X151858250Y-140541750D01*
X152900000Y-139500000D02*
X152900000Y-138300000D01*
X136800000Y-126000000D02*
X135675000Y-126000000D01*
X151858250Y-140541750D02*
X152900000Y-139500000D01*
X151880000Y-141075000D02*
X151875000Y-141075000D01*
X148600000Y-129600000D02*
X148500000Y-129600000D01*
X152900000Y-137100000D02*
X152900000Y-130200000D01*
X152300000Y-129600000D02*
X148600000Y-129600000D01*
X153600000Y-137400000D02*
X153200000Y-137400000D01*
X148500000Y-129600000D02*
X148000000Y-129100000D01*
X152900000Y-130200000D02*
X152300000Y-129600000D01*
X152900000Y-137100000D02*
G75*
G03*
X153200000Y-137400000I300000J0D01*
G01*
X153600000Y-138000000D02*
G75*
G03*
X153900000Y-137700000I0J300000D01*
G01*
X153200000Y-138000000D02*
G75*
G03*
X152900000Y-138300000I0J-300000D01*
G01*
X153900000Y-137700000D02*
G75*
G03*
X153600000Y-137400000I-300000J0D01*
G01*
X151500000Y-132500000D02*
X151480000Y-132520000D01*
X151000000Y-126100000D02*
X151600000Y-126700000D01*
X151600000Y-126700000D02*
X151600000Y-129000000D01*
X147100000Y-125500000D02*
X147700000Y-126100000D01*
X147700000Y-126100000D02*
X151000000Y-126100000D01*
X151480000Y-132520000D02*
X151480000Y-141075000D01*
X135675000Y-125500000D02*
X147100000Y-125500000D01*
X149400000Y-135800000D02*
X149400000Y-135714607D01*
X148700000Y-136100000D02*
X149100000Y-136100000D01*
X137750000Y-124250000D02*
X137000000Y-125000000D01*
X150680000Y-141075000D02*
X150680000Y-139780000D01*
X149400000Y-138500000D02*
X149400000Y-137000000D01*
X147600000Y-124200000D02*
X137800000Y-124200000D01*
X149400000Y-135714607D02*
X149400000Y-131900000D01*
X149100000Y-136700000D02*
X148700000Y-136700000D01*
X137800000Y-124200000D02*
X137750000Y-124250000D01*
X148000000Y-124600000D02*
X147600000Y-124200000D01*
X150680000Y-139780000D02*
X149400000Y-138500000D01*
X137000000Y-125000000D02*
X135675000Y-125000000D01*
X149400000Y-137000000D02*
G75*
G03*
X149100000Y-136700000I-300000J0D01*
G01*
X148400000Y-136400000D02*
G75*
G03*
X148700000Y-136700000I300000J0D01*
G01*
X148700000Y-136100000D02*
G75*
G03*
X148400000Y-136400000I0J-300000D01*
G01*
X149100000Y-136100000D02*
G75*
G03*
X149400000Y-135800000I0J300000D01*
G01*
X150700000Y-131000000D02*
X150300000Y-130600000D01*
X151080000Y-139380000D02*
X150700000Y-139000000D01*
X137800000Y-123300000D02*
X137600000Y-123500000D01*
X151080000Y-141075000D02*
X151080000Y-139380000D01*
X137600000Y-123500000D02*
X135675000Y-123500000D01*
X150150000Y-125450000D02*
X148000000Y-123300000D01*
X148000000Y-123300000D02*
X137800000Y-123300000D01*
X150700000Y-139000000D02*
X150700000Y-133400000D01*
X150700000Y-133400000D02*
X150700000Y-131000000D01*
D71*
X153900000Y-107200000D02*
X142500000Y-118600000D01*
X142500000Y-118600000D02*
X137400000Y-118600000D01*
X137000000Y-119000000D02*
X135675000Y-119000000D01*
X168500000Y-107200000D02*
X173100000Y-102600000D01*
X137400000Y-118600000D02*
X137000000Y-119000000D01*
X173100000Y-102600000D02*
X173095000Y-102595000D01*
X173095000Y-102595000D02*
X173095000Y-100075000D01*
X131400000Y-95200000D02*
X130220000Y-94020000D01*
X136800000Y-102800000D02*
X131400000Y-97400000D01*
X134000000Y-112300000D02*
X136800000Y-109500000D01*
X134000000Y-113325000D02*
X134000000Y-112300000D01*
X131400000Y-97400000D02*
X131400000Y-95200000D01*
X136800000Y-109500000D02*
X136800000Y-102800000D01*
X130220000Y-94020000D02*
X129140000Y-94020000D01*
D72*
X90375000Y-127225000D02*
X90375000Y-124700000D01*
X89200000Y-128400000D02*
X90375000Y-127225000D01*
X88000000Y-128400000D02*
X89200000Y-128400000D01*
X100430000Y-147630000D02*
X96300000Y-143500000D01*
X100430000Y-151270000D02*
X100430000Y-147630000D01*
X96300000Y-131500000D02*
X94300000Y-129500000D01*
X96300000Y-143500000D02*
X96300000Y-131500000D01*
X94300000Y-129500000D02*
X88000000Y-129500000D01*
D71*
X87200000Y-138000000D02*
X86100000Y-136900000D01*
X88000000Y-138000000D02*
X87200000Y-138000000D01*
X86100000Y-136900000D02*
X85810000Y-136900000D01*
D73*
X130650000Y-138100000D02*
X130650000Y-137737500D01*
X130260000Y-142160000D02*
X130260000Y-140340000D01*
X131375000Y-139225000D02*
X131375000Y-138825000D01*
X131375000Y-138825000D02*
X130650000Y-138100000D01*
X130260000Y-140340000D02*
X131375000Y-139225000D01*
X132550000Y-138100000D02*
X132550000Y-137737500D01*
X131825000Y-140525000D02*
X131825000Y-138825000D01*
X131825000Y-138825000D02*
X132550000Y-138100000D01*
X131500000Y-142920000D02*
X131500000Y-140850000D01*
X130260000Y-144160000D02*
X131500000Y-142920000D01*
X131500000Y-140850000D02*
X131825000Y-140525000D01*
D71*
X188980000Y-116640000D02*
X188980000Y-115285000D01*
X188980000Y-115285000D02*
X188960000Y-115265000D01*
X190550000Y-114060000D02*
X190600000Y-114010000D01*
X190550000Y-115200000D02*
X190550000Y-114060000D01*
X190460000Y-116640000D02*
X190460000Y-116040000D01*
X190550000Y-115950000D02*
X190550000Y-115200000D01*
X190460000Y-116040000D02*
X190550000Y-115950000D01*
D72*
X172535000Y-117540000D02*
X172535000Y-119440000D01*
D71*
X172535000Y-120265000D02*
X172535000Y-119440000D01*
X172360000Y-120440000D02*
X172535000Y-120265000D01*
X172360000Y-120840000D02*
X172360000Y-120440000D01*
D72*
X179800000Y-140425000D02*
X179800000Y-151200000D01*
X179800000Y-151200000D02*
X179730000Y-151270000D01*
X104300000Y-146400000D02*
X104300000Y-144925000D01*
X102970000Y-147730000D02*
X104300000Y-146400000D01*
X102970000Y-151270000D02*
X102970000Y-147730000D01*
D71*
X110500000Y-134400000D02*
X107800000Y-131700000D01*
X127000000Y-130300000D02*
X127400000Y-130700000D01*
X127000000Y-128675000D02*
X127000000Y-130300000D01*
X127400000Y-131700000D02*
X124700000Y-134400000D01*
X124700000Y-134400000D02*
X110500000Y-134400000D01*
X107800000Y-131700000D02*
X100000000Y-131700000D01*
X127400000Y-130700000D02*
X127400000Y-131700000D01*
X98100000Y-131500000D02*
X98100000Y-134200000D01*
X127500000Y-129700000D02*
X127500000Y-128675000D01*
X99000000Y-130600000D02*
X98100000Y-131500000D01*
X125300000Y-136300000D02*
X128100000Y-133500000D01*
X98100000Y-134200000D02*
X99100000Y-135200000D01*
X107700000Y-135200000D02*
X108800000Y-136300000D01*
X128100000Y-133500000D02*
X128100000Y-130300000D01*
X128100000Y-130300000D02*
X127500000Y-129700000D01*
X108800000Y-136300000D02*
X125300000Y-136300000D01*
X100000000Y-130600000D02*
X99000000Y-130600000D01*
X99100000Y-135200000D02*
X107700000Y-135200000D01*
X135900000Y-104400000D02*
X127900000Y-96400000D01*
X128402500Y-93370000D02*
X129140000Y-93370000D01*
X127900000Y-93872500D02*
X128402500Y-93370000D01*
X135900000Y-107200000D02*
X135900000Y-104400000D01*
X135900000Y-109023958D02*
X135900000Y-107200000D01*
X132500000Y-112423958D02*
X135900000Y-109023958D01*
X127900000Y-96400000D02*
X127900000Y-93872500D01*
X132500000Y-113325000D02*
X132500000Y-112423958D01*
X135000000Y-106000000D02*
X132200000Y-103200000D01*
X129140000Y-92720000D02*
X128287107Y-92720000D01*
X135000000Y-108300000D02*
X135000000Y-106000000D01*
X128287107Y-92720000D02*
X127300000Y-93707107D01*
X127300000Y-98300000D02*
X132200000Y-103200000D01*
X127300000Y-93707107D02*
X127300000Y-98300000D01*
X135000000Y-108700000D02*
X135000000Y-108300000D01*
X132000000Y-113325000D02*
X132000000Y-111700000D01*
X132000000Y-111700000D02*
X135000000Y-108700000D01*
X138000000Y-98500000D02*
X138000000Y-111000000D01*
D73*
X135675000Y-116000000D02*
X134200000Y-116000000D01*
X134200000Y-116000000D02*
X133900000Y-115700000D01*
D71*
X134865000Y-95365000D02*
X138000000Y-98500000D01*
X134865000Y-94020000D02*
X134865000Y-95365000D01*
X138000000Y-111000000D02*
X136300000Y-112700000D01*
X186675000Y-92325000D02*
X187975000Y-91025000D01*
X187975000Y-91025000D02*
X187975000Y-88737500D01*
X186675000Y-94462500D02*
X186675000Y-92325000D01*
X171225000Y-95100000D02*
X173070000Y-95100000D01*
X173070000Y-95100000D02*
X173095000Y-95125000D01*
X129140000Y-89470000D02*
X126870000Y-89470000D01*
X112400000Y-75000000D02*
X99999999Y-75000000D01*
X126870000Y-89470000D02*
X112400000Y-75000000D01*
X137500000Y-80200000D02*
X142700000Y-75000000D01*
X137500000Y-85700000D02*
X137500000Y-80200000D01*
X134865000Y-89470000D02*
X134865000Y-88335000D01*
X142700000Y-75000000D02*
X150000002Y-75000000D01*
X134865000Y-88335000D02*
X137500000Y-85700000D01*
X146300000Y-81500000D02*
X148800000Y-79000000D01*
X138950000Y-85500000D02*
X142950000Y-81500000D01*
X135680000Y-90120000D02*
X134865000Y-90120000D01*
X148800000Y-79000000D02*
X152000003Y-79000000D01*
X134865000Y-90120000D02*
X135602500Y-90120000D01*
X142950000Y-81500000D02*
X146300000Y-81500000D01*
X135602500Y-90120000D02*
X138950000Y-86772500D01*
X138950000Y-86772500D02*
X138950000Y-85500000D01*
X139050000Y-87950000D02*
X141650000Y-87950000D01*
X136230000Y-90770000D02*
X139050000Y-87950000D01*
X146600000Y-83000000D02*
X150000002Y-83000000D01*
X134865000Y-90770000D02*
X136230000Y-90770000D01*
X141650000Y-87950000D02*
X146600000Y-83000000D01*
X138700000Y-89300000D02*
X144650000Y-89300000D01*
X136580000Y-91420000D02*
X138700000Y-89300000D01*
X134865000Y-91420000D02*
X136580000Y-91420000D01*
X144650000Y-89300000D02*
X148400000Y-85550000D01*
X148400000Y-85550000D02*
X153250000Y-85550000D01*
X154000002Y-84799998D02*
X154000002Y-83000000D01*
X153250000Y-85550000D02*
X154000002Y-84799998D01*
X102700000Y-79000000D02*
X98000001Y-79000000D01*
X105700000Y-82000000D02*
X102700000Y-79000000D01*
X129140000Y-90120000D02*
X125020000Y-90120000D01*
X116900000Y-82000000D02*
X105700000Y-82000000D01*
X125020000Y-90120000D02*
X116900000Y-82000000D01*
X129140000Y-90770000D02*
X107769999Y-90770000D01*
X107769999Y-90770000D02*
X99999999Y-83000000D01*
X137130000Y-92070000D02*
X138850000Y-90350000D01*
X134865000Y-92070000D02*
X137130000Y-92070000D01*
X156100000Y-86900000D02*
X155600000Y-87400000D01*
X145900000Y-90350000D02*
X148850000Y-87400000D01*
X158000001Y-83000000D02*
X158000001Y-84999999D01*
X138850000Y-90350000D02*
X145900000Y-90350000D01*
X148850000Y-87400000D02*
X155600000Y-87400000D01*
X158000001Y-84999999D02*
X156100000Y-86900000D01*
D72*
X118272500Y-108972500D02*
X119075000Y-109775000D01*
X117085000Y-110697500D02*
X117085000Y-110015000D01*
X117085000Y-110015000D02*
X117210000Y-109890000D01*
X122995000Y-109775000D02*
X123000000Y-109780000D01*
X122990000Y-111365000D02*
X123025000Y-111400000D01*
D71*
X124500000Y-113325000D02*
X124500000Y-110500000D01*
D72*
X123000000Y-109780000D02*
X123000000Y-111375000D01*
X117210000Y-108972500D02*
X118272500Y-108972500D01*
D71*
X124000000Y-112375000D02*
X123025000Y-111400000D01*
D72*
X121200000Y-109775000D02*
X122995000Y-109775000D01*
D71*
X124500000Y-110500000D02*
X123780000Y-109780000D01*
D72*
X119075000Y-109775000D02*
X121200000Y-109775000D01*
D71*
X123025000Y-111400000D02*
X123025000Y-111357034D01*
X123780000Y-109780000D02*
X123000000Y-109780000D01*
D72*
X123000000Y-111375000D02*
X123025000Y-111400000D01*
X117210000Y-109890000D02*
X117210000Y-108972500D01*
D71*
X124000000Y-113325000D02*
X124000000Y-112375000D01*
D72*
X138700000Y-93875000D02*
X137875000Y-93875000D01*
X138700000Y-93875000D02*
X139975000Y-93875000D01*
X139975000Y-93875000D02*
X141260000Y-95160000D01*
D71*
X134865000Y-93370000D02*
X135670000Y-93370000D01*
X144800000Y-95900000D02*
X144795000Y-95905000D01*
X144800000Y-96700000D02*
X144800000Y-95900000D01*
X143035000Y-95905000D02*
X142290000Y-95160000D01*
X144800000Y-95900000D02*
X144800000Y-95220000D01*
D72*
X137875000Y-93875000D02*
X137680000Y-93680000D01*
D71*
X135670000Y-93370000D02*
X135980000Y-93680000D01*
X144795000Y-95905000D02*
X143035000Y-95905000D01*
X135980000Y-93680000D02*
X136700000Y-93680000D01*
D72*
X141260000Y-95160000D02*
X142290000Y-95160000D01*
X138705000Y-93880000D02*
X138700000Y-93875000D01*
X137680000Y-93680000D02*
X136700000Y-93680000D01*
X108730000Y-142255000D02*
X108700000Y-142225000D01*
X108730000Y-151270000D02*
X108730000Y-142255000D01*
D71*
X118900000Y-138800000D02*
X117125000Y-140575000D01*
X122000000Y-130000000D02*
X121600000Y-130400000D01*
X118900000Y-138800000D02*
X118900000Y-138100000D01*
X122000000Y-128675000D02*
X122000000Y-130000000D01*
X117125000Y-140575000D02*
X108700000Y-140575000D01*
X176650000Y-85900000D02*
X176650000Y-84349999D01*
X175635000Y-93665000D02*
X175635000Y-95125000D01*
X178075000Y-88075000D02*
X178075000Y-91000000D01*
X178075000Y-91225000D02*
X175635000Y-93665000D01*
X176650000Y-84349999D02*
X177999999Y-83000000D01*
X178075000Y-91000000D02*
X178075000Y-91225000D01*
X176650000Y-85900000D02*
X176650000Y-86650000D01*
X176650000Y-86650000D02*
X178075000Y-88075000D01*
X175350000Y-85900000D02*
X175350000Y-84350000D01*
X171590000Y-91290000D02*
X171590000Y-91000000D01*
X174365000Y-95125000D02*
X174365000Y-94065000D01*
X174365000Y-94065000D02*
X171590000Y-91290000D01*
X175350000Y-85900000D02*
X175350000Y-86550000D01*
X175350000Y-84350000D02*
X174000000Y-83000000D01*
X171590000Y-90310000D02*
X171590000Y-91000000D01*
X175350000Y-86550000D02*
X171590000Y-90310000D01*
X73635000Y-96525000D02*
X73635000Y-94370000D01*
X76540000Y-88740000D02*
X76540000Y-91465000D01*
X74795000Y-86995000D02*
X76540000Y-88740000D01*
X74795000Y-86275000D02*
X74795000Y-86995000D01*
X76000002Y-84399998D02*
X76000002Y-83000000D01*
X74795000Y-86275000D02*
X74795000Y-85605000D01*
X74795000Y-85605000D02*
X76000002Y-84399998D01*
X73635000Y-94370000D02*
X76540000Y-91465000D01*
X76000002Y-75000000D02*
X76000002Y-83000000D01*
X70090000Y-91490000D02*
X70090000Y-92290000D01*
X70090000Y-91490000D02*
X70090000Y-90610000D01*
X73495000Y-86275000D02*
X73495000Y-85695000D01*
X73495000Y-85695000D02*
X72000002Y-84200002D01*
X72365000Y-96525000D02*
X72365000Y-94565000D01*
X72000002Y-84200002D02*
X72000002Y-83000000D01*
X70090000Y-92290000D02*
X72365000Y-94565000D01*
X72000002Y-83000000D02*
X72000002Y-75000000D01*
X73495000Y-86275000D02*
X73495000Y-87205000D01*
X70090000Y-90610000D02*
X73495000Y-87205000D01*
X157700000Y-102600000D02*
X155860000Y-102600000D01*
X182500000Y-97600000D02*
X184725000Y-95375000D01*
X153435000Y-105025000D02*
X152300000Y-105025000D01*
X182500000Y-99700000D02*
X182500000Y-97600000D01*
X135675000Y-117500000D02*
X136800000Y-117500000D01*
X155860000Y-102600000D02*
X153435000Y-105025000D01*
X178900000Y-102600000D02*
X179600000Y-102600000D01*
X184725000Y-95375000D02*
X184725000Y-94462500D01*
X152275000Y-106025000D02*
X152275000Y-105100000D01*
X137100000Y-117800000D02*
X140500000Y-117800000D01*
X140500000Y-117800000D02*
X152275000Y-106025000D01*
X179600000Y-102600000D02*
X182500000Y-99700000D01*
X136800000Y-117500000D02*
X137100000Y-117800000D01*
X150300000Y-105025000D02*
X150300000Y-104600000D01*
X136600000Y-117000000D02*
X137000000Y-116600000D01*
X178800000Y-101500000D02*
X181200000Y-99100000D01*
X184725000Y-92275000D02*
X184725000Y-88737500D01*
X181200000Y-95800000D02*
X184725000Y-92275000D01*
X181200000Y-99100000D02*
X181200000Y-95800000D01*
X153075000Y-104125000D02*
X154100000Y-103100000D01*
X150300000Y-104600000D02*
X150775000Y-104125000D01*
X154100000Y-102100000D02*
X154700000Y-101500000D01*
X137000000Y-116600000D02*
X140000000Y-116600000D01*
X140000000Y-116600000D02*
X150225000Y-106375000D01*
X154700000Y-101500000D02*
X157200000Y-101500000D01*
X154100000Y-103100000D02*
X154100000Y-102100000D01*
X150775000Y-104125000D02*
X153075000Y-104125000D01*
X135675000Y-117000000D02*
X136600000Y-117000000D01*
X150225000Y-106375000D02*
X150225000Y-105100000D01*
X178400000Y-101500000D02*
X178800000Y-101500000D01*
D72*
X148820000Y-96780000D02*
X149900000Y-96780000D01*
X152400000Y-96700000D02*
X149980000Y-96700000D01*
X146200000Y-98200000D02*
X145475000Y-98200000D01*
D71*
X145800000Y-95763958D02*
X145800000Y-95220000D01*
D72*
X147830000Y-97770000D02*
X148820000Y-96780000D01*
X149980000Y-96700000D02*
X149900000Y-96780000D01*
D71*
X145300000Y-96700000D02*
X145300000Y-96263958D01*
D72*
X146630000Y-97770000D02*
X146200000Y-98200000D01*
D71*
X145475000Y-98200000D02*
X145475000Y-97475000D01*
D72*
X147030000Y-97770000D02*
X147830000Y-97770000D01*
X147030000Y-97770000D02*
X146630000Y-97770000D01*
D71*
X145300000Y-96263958D02*
X145800000Y-95763958D01*
X145300000Y-97300000D02*
X145300000Y-96700000D01*
X145475000Y-97475000D02*
X145300000Y-97300000D01*
X147030000Y-95560000D02*
X147090000Y-95500000D01*
X145800000Y-96700000D02*
X146980000Y-96700000D01*
X147030000Y-96750000D02*
X147030000Y-95560000D01*
X146980000Y-96700000D02*
X147030000Y-96750000D01*
X143310000Y-95160000D02*
X143310000Y-94610000D01*
X142730000Y-94030000D02*
X142730000Y-93460000D01*
X143310000Y-94610000D02*
X142730000Y-94030000D01*
X144300000Y-95220000D02*
X143370000Y-95220000D01*
X143370000Y-95220000D02*
X143310000Y-95160000D01*
X69150000Y-96525000D02*
X69100000Y-96575000D01*
X71095000Y-96525000D02*
X69150000Y-96525000D01*
X172360000Y-121340000D02*
X173060000Y-121340000D01*
X189585000Y-113615000D02*
X190210000Y-112990000D01*
X171423958Y-120840000D02*
X171923958Y-121340000D01*
X171923958Y-121340000D02*
X172360000Y-121340000D01*
X180450000Y-116450000D02*
X180600000Y-116300000D01*
X188945000Y-113600000D02*
X188960000Y-113615000D01*
X190210000Y-112990000D02*
X190600000Y-112990000D01*
X188960000Y-113615000D02*
X189585000Y-113615000D01*
X173060000Y-121340000D02*
X173335000Y-121065000D01*
X180450000Y-117960000D02*
X180450000Y-116450000D01*
X187300000Y-113600000D02*
X188945000Y-113600000D01*
X170880000Y-120840000D02*
X171423958Y-120840000D01*
X173335000Y-121065000D02*
X174260000Y-121065000D01*
G04 #@! TA.AperFunction,Conductor*
G36*
X179511971Y-126902381D02*
G01*
X179590618Y-126918024D01*
X179635308Y-126936535D01*
X179691626Y-126974166D01*
X179725833Y-127008373D01*
X179763462Y-127064688D01*
X179781976Y-127109387D01*
X179797617Y-127188019D01*
X179800000Y-127212210D01*
X179800000Y-131087789D01*
X179797617Y-131111980D01*
X179781976Y-131190612D01*
X179763462Y-131235311D01*
X179725836Y-131291623D01*
X179691623Y-131325836D01*
X179635311Y-131363462D01*
X179590612Y-131381976D01*
X179511980Y-131397617D01*
X179487789Y-131400000D01*
X176212211Y-131400000D01*
X176188020Y-131397617D01*
X176109387Y-131381976D01*
X176064689Y-131363462D01*
X176008373Y-131325833D01*
X175974166Y-131291626D01*
X175936535Y-131235308D01*
X175918024Y-131190618D01*
X175902381Y-131111971D01*
X175900000Y-131087789D01*
X175900000Y-127212210D01*
X175902381Y-127188029D01*
X175918025Y-127109379D01*
X175936534Y-127064693D01*
X175974168Y-127008370D01*
X176008370Y-126974168D01*
X176064693Y-126936534D01*
X176109379Y-126918025D01*
X176188028Y-126902381D01*
X176212211Y-126900000D01*
X179487789Y-126900000D01*
X179511971Y-126902381D01*
G37*
G04 #@! TD.AperFunction*
G04 #@! TA.AperFunction,Conductor*
G36*
X89688997Y-124019685D02*
G01*
X89734752Y-124072489D01*
X89744696Y-124141647D01*
X89733862Y-124174194D01*
X89734303Y-124174359D01*
X89731204Y-124182669D01*
X89680909Y-124317517D01*
X89674500Y-124377127D01*
X89674500Y-124377134D01*
X89674500Y-124377135D01*
X89674500Y-125022870D01*
X89674501Y-125022876D01*
X89680908Y-125082483D01*
X89731202Y-125217328D01*
X89731203Y-125217330D01*
X89799767Y-125308919D01*
X89824184Y-125374383D01*
X89824500Y-125383230D01*
X89824500Y-126945612D01*
X89804815Y-127012651D01*
X89788181Y-127033293D01*
X89412180Y-127409293D01*
X89350857Y-127442778D01*
X89281165Y-127437794D01*
X89225232Y-127395922D01*
X89200815Y-127330458D01*
X89200499Y-127321627D01*
X89200499Y-127052128D01*
X89194091Y-126992517D01*
X89186773Y-126972897D01*
X89143797Y-126857671D01*
X89143793Y-126857664D01*
X89057547Y-126742455D01*
X89057544Y-126742452D01*
X88942335Y-126656206D01*
X88942328Y-126656202D01*
X88807482Y-126605908D01*
X88807483Y-126605908D01*
X88747883Y-126599501D01*
X88747881Y-126599500D01*
X88747873Y-126599500D01*
X88747865Y-126599500D01*
X88674500Y-126599500D01*
X88607461Y-126579815D01*
X88561706Y-126527011D01*
X88550500Y-126475500D01*
X88550500Y-126409397D01*
X88550903Y-126397585D01*
X88552762Y-126343174D01*
X88548924Y-126327424D01*
X88542283Y-126300174D01*
X88541096Y-126293931D01*
X88540745Y-126291379D01*
X88535070Y-126250080D01*
X88527921Y-126233622D01*
X88521180Y-126213578D01*
X88516933Y-126196148D01*
X88495238Y-126157564D01*
X88492414Y-126151878D01*
X88491815Y-126150500D01*
X88474780Y-126111280D01*
X88474780Y-126111279D01*
X88463458Y-126097363D01*
X88451557Y-126079876D01*
X88442768Y-126064244D01*
X88442767Y-126064243D01*
X88442766Y-126064241D01*
X88411456Y-126032931D01*
X88407210Y-126028225D01*
X88399812Y-126019132D01*
X88379278Y-125993892D01*
X88364612Y-125983539D01*
X88348445Y-125969920D01*
X87595906Y-125217381D01*
X87595857Y-125217328D01*
X87550680Y-125168956D01*
X87538264Y-125161405D01*
X87512861Y-125145957D01*
X87507610Y-125142383D01*
X87472341Y-125115638D01*
X87472342Y-125115638D01*
X87455642Y-125109052D01*
X87436716Y-125099652D01*
X87421380Y-125090327D01*
X87378758Y-125078384D01*
X87372740Y-125076360D01*
X87331565Y-125060124D01*
X87331556Y-125060122D01*
X87313716Y-125058288D01*
X87292951Y-125054342D01*
X87275669Y-125049500D01*
X87275665Y-125049500D01*
X87231406Y-125049500D01*
X87225064Y-125049175D01*
X87197427Y-125046333D01*
X87181029Y-125044648D01*
X87181024Y-125044648D01*
X87163344Y-125047697D01*
X87142276Y-125049500D01*
X85786989Y-125049500D01*
X85719950Y-125029815D01*
X85674195Y-124977011D01*
X85673607Y-124975704D01*
X85652206Y-124927235D01*
X85572765Y-124847794D01*
X85531247Y-124829462D01*
X85469992Y-124802415D01*
X85444865Y-124799500D01*
X84355143Y-124799500D01*
X84355117Y-124799502D01*
X84330012Y-124802413D01*
X84330008Y-124802415D01*
X84227235Y-124847793D01*
X84147794Y-124927234D01*
X84102415Y-125030006D01*
X84102415Y-125030008D01*
X84099500Y-125055131D01*
X84099500Y-126144856D01*
X84099502Y-126144882D01*
X84102413Y-126169987D01*
X84102415Y-126169991D01*
X84147793Y-126272764D01*
X84147794Y-126272765D01*
X84227235Y-126352206D01*
X84330009Y-126397585D01*
X84355135Y-126400500D01*
X85444864Y-126400499D01*
X85444879Y-126400497D01*
X85444882Y-126400497D01*
X85469987Y-126397586D01*
X85469988Y-126397585D01*
X85469991Y-126397585D01*
X85572765Y-126352206D01*
X85652206Y-126272765D01*
X85673556Y-126224411D01*
X85718640Y-126171038D01*
X85785426Y-126150510D01*
X85786989Y-126150500D01*
X86920613Y-126150500D01*
X86987652Y-126170185D01*
X87008294Y-126186819D01*
X87227145Y-126405670D01*
X87260630Y-126466993D01*
X87255646Y-126536685D01*
X87213774Y-126592618D01*
X87182798Y-126609533D01*
X87057669Y-126656203D01*
X87057664Y-126656206D01*
X86942455Y-126742452D01*
X86942452Y-126742455D01*
X86856206Y-126857664D01*
X86856202Y-126857671D01*
X86805910Y-126992513D01*
X86805909Y-126992517D01*
X86799500Y-127052127D01*
X86799500Y-127052134D01*
X86799500Y-127052135D01*
X86799500Y-127547870D01*
X86799501Y-127547876D01*
X86805908Y-127607483D01*
X86856202Y-127742328D01*
X86856203Y-127742330D01*
X86881176Y-127775690D01*
X86905592Y-127841155D01*
X86890740Y-127909428D01*
X86881176Y-127924310D01*
X86856203Y-127957669D01*
X86856202Y-127957671D01*
X86805910Y-128092513D01*
X86805909Y-128092517D01*
X86799500Y-128152127D01*
X86799500Y-128152134D01*
X86799500Y-128152135D01*
X86799500Y-128647870D01*
X86799501Y-128647876D01*
X86805908Y-128707483D01*
X86856202Y-128842328D01*
X86856203Y-128842330D01*
X86881176Y-128875690D01*
X86905592Y-128941155D01*
X86890740Y-129009428D01*
X86881176Y-129024310D01*
X86856203Y-129057669D01*
X86856202Y-129057671D01*
X86805910Y-129192513D01*
X86805909Y-129192517D01*
X86799500Y-129252127D01*
X86799500Y-129252134D01*
X86799500Y-129252135D01*
X86799500Y-129747870D01*
X86799501Y-129747876D01*
X86805908Y-129807483D01*
X86856202Y-129942328D01*
X86856203Y-129942330D01*
X86881176Y-129975690D01*
X86905592Y-130041155D01*
X86890740Y-130109428D01*
X86881176Y-130124310D01*
X86856203Y-130157669D01*
X86856202Y-130157671D01*
X86812262Y-130275483D01*
X86805909Y-130292517D01*
X86799500Y-130352127D01*
X86799500Y-130352134D01*
X86799500Y-130352135D01*
X86799500Y-130847870D01*
X86799501Y-130847876D01*
X86805908Y-130907483D01*
X86856202Y-131042328D01*
X86856203Y-131042330D01*
X86881176Y-131075690D01*
X86905592Y-131141155D01*
X86890740Y-131209428D01*
X86881176Y-131224310D01*
X86856203Y-131257669D01*
X86856202Y-131257671D01*
X86805910Y-131392513D01*
X86805909Y-131392517D01*
X86799500Y-131452127D01*
X86799500Y-131452134D01*
X86799500Y-131452135D01*
X86799500Y-131947870D01*
X86799501Y-131947876D01*
X86805908Y-132007483D01*
X86856202Y-132142328D01*
X86856203Y-132142330D01*
X86881176Y-132175690D01*
X86905592Y-132241155D01*
X86890740Y-132309428D01*
X86881176Y-132324310D01*
X86856203Y-132357669D01*
X86856202Y-132357671D01*
X86805910Y-132492513D01*
X86805909Y-132492517D01*
X86799500Y-132552127D01*
X86799500Y-132552134D01*
X86799500Y-132552135D01*
X86799500Y-133047870D01*
X86799501Y-133047876D01*
X86805909Y-133107484D01*
X86807692Y-133115029D01*
X86805207Y-133115616D01*
X86809299Y-133172924D01*
X86775820Y-133234230D01*
X86744922Y-133265128D01*
X86656980Y-133410603D01*
X86606409Y-133572893D01*
X86600000Y-133643427D01*
X86600000Y-133650000D01*
X89399999Y-133650000D01*
X89399999Y-133643417D01*
X89393591Y-133572897D01*
X89393590Y-133572892D01*
X89343018Y-133410603D01*
X89255072Y-133265122D01*
X89224183Y-133234234D01*
X89190697Y-133172912D01*
X89194793Y-133115625D01*
X89192306Y-133115038D01*
X89194089Y-133107488D01*
X89194088Y-133107488D01*
X89194091Y-133107483D01*
X89200500Y-133047873D01*
X89200499Y-132552128D01*
X89194091Y-132492517D01*
X89143797Y-132357671D01*
X89143797Y-132357670D01*
X89136786Y-132348305D01*
X89118823Y-132324310D01*
X89094406Y-132258849D01*
X89109257Y-132190575D01*
X89118823Y-132175690D01*
X89143796Y-132142331D01*
X89146401Y-132135348D01*
X89168377Y-132076425D01*
X89194091Y-132007483D01*
X89200500Y-131947873D01*
X89200499Y-131452128D01*
X89194091Y-131392517D01*
X89178263Y-131350080D01*
X89143797Y-131257670D01*
X89130023Y-131239271D01*
X89118823Y-131224310D01*
X89094406Y-131158849D01*
X89109257Y-131090575D01*
X89118823Y-131075690D01*
X89143796Y-131042331D01*
X89194091Y-130907483D01*
X89200500Y-130847873D01*
X89200499Y-130352128D01*
X89194091Y-130292517D01*
X89170557Y-130229420D01*
X89166236Y-130217833D01*
X89161252Y-130148141D01*
X89194737Y-130086818D01*
X89256061Y-130053334D01*
X89282418Y-130050500D01*
X94020613Y-130050500D01*
X94087652Y-130070185D01*
X94108294Y-130086819D01*
X95713181Y-131691705D01*
X95746666Y-131753028D01*
X95749500Y-131779386D01*
X95749500Y-143490602D01*
X95747238Y-143556829D01*
X95757715Y-143599819D01*
X95758901Y-143606061D01*
X95764929Y-143649920D01*
X95772079Y-143666379D01*
X95778819Y-143686420D01*
X95783067Y-143703852D01*
X95804763Y-143742439D01*
X95807582Y-143748115D01*
X95825220Y-143788720D01*
X95825221Y-143788722D01*
X95836541Y-143802636D01*
X95848439Y-143820117D01*
X95857234Y-143835760D01*
X95857236Y-143835761D01*
X95888532Y-143867057D01*
X95892783Y-143871766D01*
X95920722Y-143906108D01*
X95935381Y-143916455D01*
X95951552Y-143930077D01*
X96809794Y-144788319D01*
X96843279Y-144849642D01*
X96838295Y-144919334D01*
X96796423Y-144975267D01*
X96730959Y-144999684D01*
X96722113Y-145000000D01*
X78504066Y-145000000D01*
X78495968Y-144999469D01*
X78472457Y-144996374D01*
X78386775Y-144985093D01*
X78355508Y-144976715D01*
X78265081Y-144939259D01*
X78237048Y-144923074D01*
X78159398Y-144863491D01*
X78136508Y-144840601D01*
X78076925Y-144762951D01*
X78060740Y-144734918D01*
X78023284Y-144644491D01*
X78014906Y-144613223D01*
X78000531Y-144504035D01*
X78000000Y-144495933D01*
X78000000Y-141925000D01*
X80100000Y-141925000D01*
X80100000Y-142247844D01*
X80106401Y-142307372D01*
X80106403Y-142307379D01*
X80156645Y-142442086D01*
X80156649Y-142442093D01*
X80242809Y-142557187D01*
X80242812Y-142557190D01*
X80357906Y-142643350D01*
X80357913Y-142643354D01*
X80492620Y-142693596D01*
X80492627Y-142693598D01*
X80552155Y-142699999D01*
X80552172Y-142700000D01*
X81450000Y-142700000D01*
X81450000Y-141925000D01*
X81950000Y-141925000D01*
X81950000Y-142700000D01*
X82847828Y-142700000D01*
X82847844Y-142699999D01*
X82907372Y-142693598D01*
X82907379Y-142693596D01*
X83042086Y-142643354D01*
X83042093Y-142643350D01*
X83157187Y-142557190D01*
X83157190Y-142557187D01*
X83243350Y-142442093D01*
X83243354Y-142442086D01*
X83293596Y-142307379D01*
X83293598Y-142307372D01*
X83299999Y-142247844D01*
X83300000Y-142247827D01*
X83300000Y-141925000D01*
X81950000Y-141925000D01*
X81450000Y-141925000D01*
X80100000Y-141925000D01*
X78000000Y-141925000D01*
X78000000Y-141550000D01*
X86600001Y-141550000D01*
X86600001Y-141556582D01*
X86606408Y-141627102D01*
X86606409Y-141627107D01*
X86656981Y-141789396D01*
X86744927Y-141934877D01*
X86865122Y-142055072D01*
X87010604Y-142143019D01*
X87010603Y-142143019D01*
X87172894Y-142193590D01*
X87172893Y-142193590D01*
X87243427Y-142199999D01*
X87749999Y-142199999D01*
X87750000Y-142199998D01*
X87750000Y-141550000D01*
X88250000Y-141550000D01*
X88250000Y-142199999D01*
X88756581Y-142199999D01*
X88827102Y-142193591D01*
X88827107Y-142193590D01*
X88989396Y-142143018D01*
X89134877Y-142055072D01*
X89255072Y-141934877D01*
X89343019Y-141789395D01*
X89393590Y-141627106D01*
X89400000Y-141556572D01*
X89400000Y-141550000D01*
X88250000Y-141550000D01*
X87750000Y-141550000D01*
X86600001Y-141550000D01*
X78000000Y-141550000D01*
X78000000Y-140450000D01*
X79200000Y-140450000D01*
X79200000Y-140747844D01*
X79206401Y-140807372D01*
X79206403Y-140807379D01*
X79256645Y-140942086D01*
X79256649Y-140942093D01*
X79342809Y-141057187D01*
X79342812Y-141057190D01*
X79457906Y-141143350D01*
X79457913Y-141143354D01*
X79592620Y-141193596D01*
X79592627Y-141193598D01*
X79652155Y-141199999D01*
X79652172Y-141200000D01*
X79976000Y-141200000D01*
X80043039Y-141219685D01*
X80088794Y-141272489D01*
X80100000Y-141324000D01*
X80100000Y-141425000D01*
X81450000Y-141425000D01*
X81950000Y-141425000D01*
X83300000Y-141425000D01*
X83300000Y-141124499D01*
X83319685Y-141057460D01*
X83372489Y-141011705D01*
X83423998Y-141000499D01*
X83744864Y-141000499D01*
X83744879Y-141000497D01*
X83744882Y-141000497D01*
X83769987Y-140997586D01*
X83769988Y-140997585D01*
X83769991Y-140997585D01*
X83872765Y-140952206D01*
X83952206Y-140872765D01*
X83997585Y-140769991D01*
X84000500Y-140744865D01*
X84000500Y-140701450D01*
X84020185Y-140634411D01*
X84072989Y-140588656D01*
X84124500Y-140577450D01*
X85188884Y-140577450D01*
X85255923Y-140597135D01*
X85288652Y-140627814D01*
X85307138Y-140652862D01*
X85415799Y-140733057D01*
X85543271Y-140777662D01*
X85573537Y-140780500D01*
X86026462Y-140780499D01*
X86056729Y-140777662D01*
X86184201Y-140733057D01*
X86292862Y-140652862D01*
X86322417Y-140612815D01*
X86378065Y-140570565D01*
X86422187Y-140562450D01*
X86587137Y-140562450D01*
X86654176Y-140582135D01*
X86699931Y-140634939D01*
X86709875Y-140704097D01*
X86693254Y-140750600D01*
X86656980Y-140810603D01*
X86606409Y-140972893D01*
X86600000Y-141043427D01*
X86600000Y-141050000D01*
X89399999Y-141050000D01*
X89399999Y-141043417D01*
X89393591Y-140972897D01*
X89393590Y-140972892D01*
X89343018Y-140810603D01*
X89255072Y-140665122D01*
X89224183Y-140634234D01*
X89190697Y-140572912D01*
X89194793Y-140515625D01*
X89192306Y-140515038D01*
X89194089Y-140507488D01*
X89194088Y-140507488D01*
X89194091Y-140507483D01*
X89200500Y-140447873D01*
X89200499Y-139952128D01*
X89194091Y-139892517D01*
X89194090Y-139892513D01*
X89194090Y-139892512D01*
X89192308Y-139884969D01*
X89194797Y-139884380D01*
X89190692Y-139827110D01*
X89224167Y-139765781D01*
X89224183Y-139765766D01*
X89255072Y-139734877D01*
X89343019Y-139589395D01*
X89393590Y-139427106D01*
X89400000Y-139356572D01*
X89400000Y-139350000D01*
X87874000Y-139350000D01*
X87806961Y-139330315D01*
X87761206Y-139277511D01*
X87750000Y-139226000D01*
X87750000Y-138974000D01*
X87769685Y-138906961D01*
X87822489Y-138861206D01*
X87874000Y-138850000D01*
X89399999Y-138850000D01*
X89399999Y-138843417D01*
X89393591Y-138772897D01*
X89393590Y-138772892D01*
X89343018Y-138610603D01*
X89255072Y-138465122D01*
X89224183Y-138434234D01*
X89190697Y-138372912D01*
X89194793Y-138315625D01*
X89192306Y-138315038D01*
X89194089Y-138307488D01*
X89194088Y-138307488D01*
X89194091Y-138307483D01*
X89200500Y-138247873D01*
X89200499Y-137752128D01*
X89194091Y-137692517D01*
X89194090Y-137692513D01*
X89143797Y-137557670D01*
X89126538Y-137534616D01*
X89118823Y-137524310D01*
X89094406Y-137458849D01*
X89109257Y-137390575D01*
X89118823Y-137375690D01*
X89143796Y-137342331D01*
X89194091Y-137207483D01*
X89200500Y-137147873D01*
X89200499Y-136652128D01*
X89194091Y-136592517D01*
X89171713Y-136532519D01*
X89143797Y-136457671D01*
X89143793Y-136457664D01*
X89057547Y-136342455D01*
X89057544Y-136342452D01*
X88942335Y-136256206D01*
X88942328Y-136256202D01*
X88807482Y-136205908D01*
X88807483Y-136205908D01*
X88747883Y-136199501D01*
X88747881Y-136199500D01*
X88747873Y-136199500D01*
X88747865Y-136199500D01*
X88674500Y-136199500D01*
X88607461Y-136179815D01*
X88561706Y-136127011D01*
X88550500Y-136075500D01*
X88550500Y-135909397D01*
X88551839Y-135870185D01*
X88552762Y-135843174D01*
X88547508Y-135821614D01*
X88542283Y-135800174D01*
X88541096Y-135793931D01*
X88535070Y-135750082D01*
X88535070Y-135750080D01*
X88527921Y-135733622D01*
X88521180Y-135713578D01*
X88516933Y-135696148D01*
X88502335Y-135670185D01*
X88495239Y-135657564D01*
X88492414Y-135651876D01*
X88482046Y-135628007D01*
X88474780Y-135611280D01*
X88463454Y-135597359D01*
X88451556Y-135579877D01*
X88442764Y-135564240D01*
X88411472Y-135532948D01*
X88407215Y-135528231D01*
X88379278Y-135493892D01*
X88364613Y-135483540D01*
X88348441Y-135469917D01*
X87795905Y-134917380D01*
X87783373Y-134903961D01*
X87752004Y-134841530D01*
X87750000Y-134819328D01*
X87750000Y-134150000D01*
X88250000Y-134150000D01*
X88250000Y-134799999D01*
X88756581Y-134799999D01*
X88827102Y-134793591D01*
X88827107Y-134793590D01*
X88989396Y-134743018D01*
X89134877Y-134655072D01*
X89255072Y-134534877D01*
X89343019Y-134389395D01*
X89393590Y-134227106D01*
X89400000Y-134156572D01*
X89400000Y-134150000D01*
X88250000Y-134150000D01*
X87750000Y-134150000D01*
X86600001Y-134150000D01*
X86600001Y-134156582D01*
X86606408Y-134227102D01*
X86606409Y-134227107D01*
X86656981Y-134389396D01*
X86744927Y-134534877D01*
X86747869Y-134537819D01*
X86749334Y-134540502D01*
X86749554Y-134540783D01*
X86749507Y-134540819D01*
X86781354Y-134599142D01*
X86776370Y-134668834D01*
X86734498Y-134724767D01*
X86669034Y-134749184D01*
X86660188Y-134749500D01*
X86579386Y-134749500D01*
X86512347Y-134729815D01*
X86491705Y-134713181D01*
X85436818Y-133658293D01*
X85403333Y-133596970D01*
X85400499Y-133570612D01*
X85400499Y-133055143D01*
X85400499Y-133055136D01*
X85399657Y-133047872D01*
X85397586Y-133030012D01*
X85397585Y-133030010D01*
X85397585Y-133030009D01*
X85352206Y-132927235D01*
X85272765Y-132847794D01*
X85231247Y-132829462D01*
X85169992Y-132802415D01*
X85144865Y-132799500D01*
X84055143Y-132799500D01*
X84055117Y-132799502D01*
X84030012Y-132802413D01*
X84030008Y-132802415D01*
X83927235Y-132847793D01*
X83847794Y-132927234D01*
X83802415Y-133030006D01*
X83802415Y-133030008D01*
X83799500Y-133055131D01*
X83799500Y-134144856D01*
X83799502Y-134144882D01*
X83802413Y-134169987D01*
X83802415Y-134169991D01*
X83847793Y-134272764D01*
X83847794Y-134272765D01*
X83927235Y-134352206D01*
X84030009Y-134397585D01*
X84055135Y-134400500D01*
X84570612Y-134400499D01*
X84637651Y-134420183D01*
X84658293Y-134436818D01*
X85904079Y-135682603D01*
X85949320Y-135731044D01*
X85980628Y-135750082D01*
X85987140Y-135754042D01*
X85992379Y-135757607D01*
X86027658Y-135784361D01*
X86044353Y-135790944D01*
X86063290Y-135800351D01*
X86078618Y-135809672D01*
X86121247Y-135821616D01*
X86127263Y-135823639D01*
X86168436Y-135839876D01*
X86186287Y-135841711D01*
X86207052Y-135845657D01*
X86224335Y-135850500D01*
X86268594Y-135850500D01*
X86274935Y-135850824D01*
X86318972Y-135855352D01*
X86336656Y-135852303D01*
X86357724Y-135850500D01*
X87120613Y-135850500D01*
X87187652Y-135870185D01*
X87208294Y-135886819D01*
X87311611Y-135990136D01*
X87345096Y-136051459D01*
X87340112Y-136121151D01*
X87298240Y-136177084D01*
X87237184Y-136201107D01*
X87192516Y-136205908D01*
X87057671Y-136256202D01*
X87057664Y-136256206D01*
X86942455Y-136342452D01*
X86942452Y-136342455D01*
X86856206Y-136457664D01*
X86856202Y-136457671D01*
X86805908Y-136592517D01*
X86801543Y-136633121D01*
X86799501Y-136652123D01*
X86799500Y-136652135D01*
X86799500Y-136663035D01*
X86779815Y-136730074D01*
X86727011Y-136775829D01*
X86657853Y-136785773D01*
X86594297Y-136756748D01*
X86587819Y-136750716D01*
X86438908Y-136601805D01*
X86434271Y-136596617D01*
X86431001Y-136592517D01*
X86409879Y-136566030D01*
X86360728Y-136532519D01*
X86355685Y-136528797D01*
X86329553Y-136502664D01*
X86256423Y-136403576D01*
X86173606Y-136342455D01*
X86150794Y-136325619D01*
X86150792Y-136325618D01*
X86026880Y-136282258D01*
X85997461Y-136279500D01*
X85622546Y-136279500D01*
X85593125Y-136282258D01*
X85593115Y-136282260D01*
X85469205Y-136325619D01*
X85469204Y-136325619D01*
X85373633Y-136396154D01*
X85308004Y-136420125D01*
X85239834Y-136404809D01*
X85226367Y-136396154D01*
X85130794Y-136325619D01*
X85006880Y-136282258D01*
X84977461Y-136279500D01*
X84602546Y-136279500D01*
X84573125Y-136282258D01*
X84573115Y-136282260D01*
X84449207Y-136325618D01*
X84343576Y-136403576D01*
X84265618Y-136509207D01*
X84222258Y-136633118D01*
X84222258Y-136633120D01*
X84219500Y-136662538D01*
X84219500Y-137137453D01*
X84222258Y-137166874D01*
X84222260Y-137166884D01*
X84265619Y-137290794D01*
X84269961Y-137299010D01*
X84268704Y-137299673D01*
X84289278Y-137356003D01*
X84273960Y-137424173D01*
X84253217Y-137451685D01*
X84170285Y-137534616D01*
X84170278Y-137534625D01*
X84087968Y-137673804D01*
X84087966Y-137673809D01*
X84042855Y-137829081D01*
X84042854Y-137829087D01*
X84041209Y-137849999D01*
X84041210Y-137850000D01*
X84944843Y-137850000D01*
X85011882Y-137869685D01*
X85032524Y-137886319D01*
X85033681Y-137887476D01*
X85067166Y-137948799D01*
X85070000Y-137975157D01*
X85070000Y-138904504D01*
X85089255Y-138918962D01*
X85090774Y-138918967D01*
X85149444Y-138956909D01*
X85178288Y-139020547D01*
X85179500Y-139037844D01*
X85179500Y-139416460D01*
X85182337Y-139446724D01*
X85182339Y-139446733D01*
X85215791Y-139542331D01*
X85226943Y-139574201D01*
X85264373Y-139624918D01*
X85288344Y-139690545D01*
X85273029Y-139758715D01*
X85223289Y-139807784D01*
X85164603Y-139822550D01*
X84124499Y-139822550D01*
X84057460Y-139802865D01*
X84011705Y-139750061D01*
X84000499Y-139698550D01*
X84000499Y-139655143D01*
X84000499Y-139655136D01*
X84000497Y-139655117D01*
X83997586Y-139630012D01*
X83997585Y-139630010D01*
X83997585Y-139630009D01*
X83952206Y-139527235D01*
X83872765Y-139447794D01*
X83801805Y-139416462D01*
X83769992Y-139402415D01*
X83744868Y-139399500D01*
X83424000Y-139399500D01*
X83356961Y-139379815D01*
X83311206Y-139327011D01*
X83300000Y-139275500D01*
X83300000Y-138975000D01*
X81950000Y-138975000D01*
X81950000Y-139750000D01*
X82275500Y-139750000D01*
X82342539Y-139769685D01*
X82388294Y-139822489D01*
X82399500Y-139874000D01*
X82399501Y-140526000D01*
X82379817Y-140593039D01*
X82327013Y-140638794D01*
X82275501Y-140650000D01*
X81950000Y-140650000D01*
X81950000Y-141425000D01*
X81450000Y-141425000D01*
X81450000Y-140650000D01*
X81324000Y-140650000D01*
X81256961Y-140630315D01*
X81211206Y-140577511D01*
X81200000Y-140526000D01*
X81200000Y-140450000D01*
X79200000Y-140450000D01*
X78000000Y-140450000D01*
X78000000Y-139950000D01*
X79200000Y-139950000D01*
X81200000Y-139950000D01*
X81200000Y-139874000D01*
X81219685Y-139806961D01*
X81272489Y-139761206D01*
X81324000Y-139750000D01*
X81450000Y-139750000D01*
X81450000Y-138975000D01*
X80100000Y-138975000D01*
X80100000Y-139076000D01*
X80080315Y-139143039D01*
X80027511Y-139188794D01*
X79976000Y-139200000D01*
X79652155Y-139200000D01*
X79592627Y-139206401D01*
X79592620Y-139206403D01*
X79457913Y-139256645D01*
X79457906Y-139256649D01*
X79342812Y-139342809D01*
X79342809Y-139342812D01*
X79256649Y-139457906D01*
X79256645Y-139457913D01*
X79206403Y-139592620D01*
X79206401Y-139592627D01*
X79200000Y-139652155D01*
X79200000Y-139950000D01*
X78000000Y-139950000D01*
X78000000Y-138475000D01*
X80100000Y-138475000D01*
X81450000Y-138475000D01*
X81450000Y-137700000D01*
X81950000Y-137700000D01*
X81950000Y-138475000D01*
X83300000Y-138475000D01*
X83300000Y-138350000D01*
X84041210Y-138350000D01*
X84042854Y-138370910D01*
X84087968Y-138526195D01*
X84170278Y-138665374D01*
X84170285Y-138665383D01*
X84284616Y-138779714D01*
X84284625Y-138779721D01*
X84423804Y-138862031D01*
X84570000Y-138904504D01*
X84570000Y-138350000D01*
X84041210Y-138350000D01*
X83300000Y-138350000D01*
X83300000Y-138152172D01*
X83299999Y-138152155D01*
X83293598Y-138092627D01*
X83293596Y-138092620D01*
X83243354Y-137957913D01*
X83243350Y-137957906D01*
X83157190Y-137842812D01*
X83157187Y-137842809D01*
X83042093Y-137756649D01*
X83042086Y-137756645D01*
X82907379Y-137706403D01*
X82907372Y-137706401D01*
X82847844Y-137700000D01*
X81950000Y-137700000D01*
X81450000Y-137700000D01*
X80552155Y-137700000D01*
X80492627Y-137706401D01*
X80492620Y-137706403D01*
X80357913Y-137756645D01*
X80357906Y-137756649D01*
X80242812Y-137842809D01*
X80242809Y-137842812D01*
X80156649Y-137957906D01*
X80156645Y-137957913D01*
X80106403Y-138092620D01*
X80106401Y-138092627D01*
X80100000Y-138152155D01*
X80100000Y-138475000D01*
X78000000Y-138475000D01*
X78000000Y-124504066D01*
X78000531Y-124495964D01*
X78014906Y-124386776D01*
X78023284Y-124355508D01*
X78060740Y-124265081D01*
X78076923Y-124237050D01*
X78136513Y-124159392D01*
X78159392Y-124136513D01*
X78237050Y-124076923D01*
X78265079Y-124060740D01*
X78355509Y-124023283D01*
X78386775Y-124014906D01*
X78495967Y-124000530D01*
X78504067Y-124000000D01*
X89621958Y-124000000D01*
X89688997Y-124019685D01*
G37*
G04 #@! TD.AperFunction*
G04 #@! TA.AperFunction,Conductor*
G36*
X98784621Y-128970185D02*
G01*
X98830376Y-129022989D01*
X98840320Y-129092147D01*
X98833764Y-129117833D01*
X98807343Y-129188673D01*
X98805909Y-129192517D01*
X98799500Y-129252127D01*
X98799500Y-129252134D01*
X98799500Y-129252135D01*
X98799500Y-129747870D01*
X98799501Y-129747876D01*
X98805908Y-129807483D01*
X98856202Y-129942328D01*
X98856203Y-129942330D01*
X98881176Y-129975690D01*
X98905592Y-130041155D01*
X98890740Y-130109428D01*
X98881175Y-130124310D01*
X98862024Y-130149893D01*
X98820702Y-130185211D01*
X98796938Y-130197772D01*
X98743357Y-130223574D01*
X98736338Y-130228359D01*
X98729461Y-130233435D01*
X98687413Y-130275483D01*
X98643803Y-130315947D01*
X98638013Y-130323208D01*
X98637362Y-130322688D01*
X98627967Y-130334928D01*
X97801804Y-131161092D01*
X97796617Y-131165727D01*
X97766033Y-131190117D01*
X97766029Y-131190121D01*
X97732519Y-131239271D01*
X97697206Y-131287118D01*
X97693216Y-131294667D01*
X97689528Y-131302326D01*
X97671992Y-131359177D01*
X97652353Y-131415301D01*
X97650771Y-131423659D01*
X97649500Y-131432100D01*
X97649500Y-131491573D01*
X97647275Y-131551009D01*
X97648316Y-131560243D01*
X97647485Y-131560336D01*
X97649500Y-131575635D01*
X97649500Y-134171217D01*
X97649110Y-134178155D01*
X97647724Y-134190454D01*
X97644729Y-134217034D01*
X97655788Y-134275479D01*
X97664652Y-134334290D01*
X97667162Y-134342427D01*
X97669978Y-134350475D01*
X97697777Y-134403072D01*
X97723576Y-134456644D01*
X97728362Y-134463665D01*
X97733431Y-134470532D01*
X97733434Y-134470538D01*
X97775495Y-134512599D01*
X97804441Y-134543796D01*
X97815947Y-134556196D01*
X97823210Y-134561988D01*
X97822689Y-134562641D01*
X97834930Y-134572034D01*
X98761090Y-135498193D01*
X98765726Y-135503380D01*
X98790121Y-135533970D01*
X98790121Y-135533971D01*
X98839271Y-135567480D01*
X98887118Y-135602793D01*
X98894654Y-135606776D01*
X98902319Y-135610467D01*
X98902327Y-135610472D01*
X98959177Y-135628007D01*
X99015297Y-135647645D01*
X99015299Y-135647645D01*
X99015301Y-135647646D01*
X99015302Y-135647646D01*
X99023698Y-135649234D01*
X99032095Y-135650500D01*
X99032098Y-135650500D01*
X99091559Y-135650500D01*
X99151009Y-135652725D01*
X99151009Y-135652724D01*
X99151010Y-135652725D01*
X99151010Y-135652724D01*
X99160242Y-135651685D01*
X99160335Y-135652513D01*
X99175639Y-135650500D01*
X106876000Y-135650500D01*
X106943039Y-135670185D01*
X106988794Y-135722989D01*
X107000000Y-135774500D01*
X107000000Y-144495934D01*
X106999469Y-144504035D01*
X106985093Y-144613224D01*
X106976715Y-144644491D01*
X106939259Y-144734918D01*
X106923074Y-144762951D01*
X106863491Y-144840601D01*
X106840601Y-144863491D01*
X106762951Y-144923074D01*
X106734918Y-144939259D01*
X106644491Y-144976715D01*
X106613224Y-144985093D01*
X106524783Y-144996737D01*
X106504031Y-144999469D01*
X106495934Y-145000000D01*
X105199500Y-145000000D01*
X105132461Y-144980315D01*
X105086706Y-144927511D01*
X105075500Y-144876001D01*
X105075499Y-144677130D01*
X105075498Y-144677123D01*
X105071990Y-144644491D01*
X105069091Y-144617517D01*
X105067489Y-144613223D01*
X105018797Y-144482671D01*
X105018793Y-144482664D01*
X104932547Y-144367455D01*
X104865003Y-144316891D01*
X104823133Y-144260957D01*
X104818149Y-144191265D01*
X104851635Y-144129943D01*
X104875166Y-144111508D01*
X105009874Y-144030074D01*
X105009878Y-144030071D01*
X105130072Y-143909877D01*
X105218019Y-143764395D01*
X105268590Y-143602106D01*
X105275000Y-143531572D01*
X105275000Y-143525000D01*
X103325001Y-143525000D01*
X103325001Y-143531582D01*
X103331408Y-143602102D01*
X103331409Y-143602107D01*
X103381981Y-143764396D01*
X103469927Y-143909877D01*
X103590122Y-144030072D01*
X103724834Y-144111508D01*
X103772021Y-144163036D01*
X103783860Y-144231895D01*
X103756591Y-144296224D01*
X103734996Y-144316891D01*
X103667452Y-144367455D01*
X103581206Y-144482664D01*
X103581202Y-144482671D01*
X103532510Y-144613224D01*
X103530909Y-144617517D01*
X103524500Y-144677127D01*
X103524500Y-144876001D01*
X103504817Y-144943039D01*
X103452013Y-144988794D01*
X103400501Y-145000000D01*
X98629887Y-145000000D01*
X98562848Y-144980315D01*
X98542206Y-144963681D01*
X96886819Y-143308294D01*
X96853334Y-143246971D01*
X96850500Y-143220613D01*
X96850500Y-143025000D01*
X103325000Y-143025000D01*
X104050000Y-143025000D01*
X104050000Y-142375000D01*
X104550000Y-142375000D01*
X104550000Y-143025000D01*
X105274999Y-143025000D01*
X105274999Y-143018417D01*
X105268591Y-142947897D01*
X105268590Y-142947892D01*
X105218018Y-142785603D01*
X105130072Y-142640122D01*
X105009877Y-142519927D01*
X104864395Y-142431980D01*
X104864396Y-142431980D01*
X104702105Y-142381409D01*
X104702106Y-142381409D01*
X104631572Y-142375000D01*
X104550000Y-142375000D01*
X104050000Y-142375000D01*
X104049999Y-142374999D01*
X103968417Y-142375000D01*
X103897897Y-142381408D01*
X103897892Y-142381409D01*
X103735603Y-142431981D01*
X103590122Y-142519927D01*
X103469927Y-142640122D01*
X103381980Y-142785604D01*
X103331409Y-142947893D01*
X103325000Y-143018427D01*
X103325000Y-143025000D01*
X96850500Y-143025000D01*
X96850500Y-141550000D01*
X98600001Y-141550000D01*
X98600001Y-141556582D01*
X98606408Y-141627102D01*
X98606409Y-141627107D01*
X98656981Y-141789396D01*
X98744927Y-141934877D01*
X98865122Y-142055072D01*
X99010604Y-142143019D01*
X99010603Y-142143019D01*
X99172894Y-142193590D01*
X99172893Y-142193590D01*
X99243427Y-142199999D01*
X99749999Y-142199999D01*
X99750000Y-142199998D01*
X99750000Y-141550000D01*
X100250000Y-141550000D01*
X100250000Y-142199999D01*
X100756581Y-142199999D01*
X100827102Y-142193591D01*
X100827107Y-142193590D01*
X100989396Y-142143018D01*
X101134877Y-142055072D01*
X101255072Y-141934877D01*
X101343019Y-141789395D01*
X101393590Y-141627106D01*
X101400000Y-141556572D01*
X101400000Y-141550000D01*
X100250000Y-141550000D01*
X99750000Y-141550000D01*
X98600001Y-141550000D01*
X96850500Y-141550000D01*
X96850500Y-141050000D01*
X98600000Y-141050000D01*
X101399999Y-141050000D01*
X101399999Y-141043417D01*
X101393591Y-140972897D01*
X101393590Y-140972892D01*
X101343018Y-140810603D01*
X101255072Y-140665122D01*
X101224183Y-140634234D01*
X101190697Y-140572912D01*
X101194793Y-140515625D01*
X101192306Y-140515038D01*
X101194089Y-140507488D01*
X101194088Y-140507488D01*
X101194091Y-140507483D01*
X101200500Y-140447873D01*
X101200499Y-139952128D01*
X101194091Y-139892517D01*
X101194090Y-139892513D01*
X101143797Y-139757670D01*
X101126871Y-139735061D01*
X101118823Y-139724310D01*
X101094406Y-139658849D01*
X101109257Y-139590575D01*
X101118823Y-139575690D01*
X101143796Y-139542331D01*
X101149427Y-139527235D01*
X101157297Y-139506134D01*
X101194091Y-139407483D01*
X101200500Y-139347873D01*
X101200499Y-138852128D01*
X101194091Y-138792517D01*
X101194090Y-138792513D01*
X101143797Y-138657670D01*
X101136786Y-138648305D01*
X101118823Y-138624310D01*
X101094406Y-138558849D01*
X101109257Y-138490575D01*
X101118823Y-138475690D01*
X101143796Y-138442331D01*
X101146818Y-138434230D01*
X101169683Y-138372924D01*
X101194091Y-138307483D01*
X101200500Y-138247873D01*
X101200499Y-137752128D01*
X101194091Y-137692517D01*
X101194090Y-137692513D01*
X101143797Y-137557670D01*
X101126538Y-137534616D01*
X101118823Y-137524310D01*
X101094406Y-137458849D01*
X101109257Y-137390575D01*
X101118823Y-137375690D01*
X101143796Y-137342331D01*
X101194091Y-137207483D01*
X101200500Y-137147873D01*
X101200499Y-136652128D01*
X101194091Y-136592517D01*
X101171713Y-136532519D01*
X101143797Y-136457671D01*
X101143793Y-136457664D01*
X101057547Y-136342455D01*
X101057544Y-136342452D01*
X100942335Y-136256206D01*
X100942328Y-136256202D01*
X100807482Y-136205908D01*
X100807483Y-136205908D01*
X100747883Y-136199501D01*
X100747881Y-136199500D01*
X100747873Y-136199500D01*
X100747864Y-136199500D01*
X99252129Y-136199500D01*
X99252123Y-136199501D01*
X99192516Y-136205908D01*
X99057671Y-136256202D01*
X99057664Y-136256206D01*
X98942455Y-136342452D01*
X98942452Y-136342455D01*
X98856206Y-136457664D01*
X98856202Y-136457671D01*
X98805910Y-136592513D01*
X98805909Y-136592517D01*
X98799500Y-136652127D01*
X98799500Y-136652134D01*
X98799500Y-136652135D01*
X98799500Y-137147870D01*
X98799501Y-137147876D01*
X98805908Y-137207483D01*
X98856202Y-137342328D01*
X98856203Y-137342330D01*
X98881176Y-137375690D01*
X98905592Y-137441155D01*
X98890740Y-137509428D01*
X98881176Y-137524310D01*
X98856203Y-137557669D01*
X98856202Y-137557671D01*
X98805910Y-137692513D01*
X98805909Y-137692517D01*
X98799500Y-137752127D01*
X98799500Y-137752134D01*
X98799500Y-137752135D01*
X98799500Y-138247870D01*
X98799501Y-138247876D01*
X98805908Y-138307483D01*
X98856202Y-138442328D01*
X98856203Y-138442330D01*
X98881176Y-138475690D01*
X98905592Y-138541155D01*
X98890740Y-138609428D01*
X98881176Y-138624310D01*
X98856203Y-138657669D01*
X98856202Y-138657671D01*
X98805910Y-138792513D01*
X98805909Y-138792517D01*
X98799500Y-138852127D01*
X98799500Y-138852134D01*
X98799500Y-138852135D01*
X98799500Y-139347870D01*
X98799501Y-139347876D01*
X98805908Y-139407483D01*
X98856202Y-139542328D01*
X98856203Y-139542330D01*
X98881176Y-139575690D01*
X98905592Y-139641155D01*
X98890740Y-139709428D01*
X98881176Y-139724310D01*
X98856203Y-139757669D01*
X98856202Y-139757671D01*
X98805910Y-139892513D01*
X98805909Y-139892517D01*
X98799500Y-139952127D01*
X98799500Y-139952134D01*
X98799500Y-139952135D01*
X98799500Y-140447870D01*
X98799501Y-140447876D01*
X98805909Y-140507484D01*
X98807692Y-140515029D01*
X98805207Y-140515616D01*
X98809299Y-140572924D01*
X98775820Y-140634230D01*
X98744922Y-140665128D01*
X98656980Y-140810603D01*
X98606409Y-140972893D01*
X98600000Y-141043427D01*
X98600000Y-141050000D01*
X96850500Y-141050000D01*
X96850500Y-131509397D01*
X96851770Y-131472206D01*
X96852762Y-131443174D01*
X96849420Y-131429462D01*
X96842283Y-131400174D01*
X96841096Y-131393931D01*
X96840901Y-131392513D01*
X96835070Y-131350080D01*
X96827921Y-131333622D01*
X96821180Y-131313578D01*
X96816933Y-131296148D01*
X96795299Y-131257671D01*
X96795239Y-131257564D01*
X96792414Y-131251876D01*
X96782831Y-131229815D01*
X96774780Y-131211280D01*
X96763454Y-131197359D01*
X96751556Y-131179877D01*
X96742764Y-131164240D01*
X96711472Y-131132948D01*
X96707215Y-131128231D01*
X96679278Y-131093892D01*
X96664613Y-131083540D01*
X96648441Y-131069917D01*
X94740706Y-129162181D01*
X94707221Y-129100858D01*
X94712205Y-129031166D01*
X94754077Y-128975233D01*
X94819541Y-128950816D01*
X94828387Y-128950500D01*
X98717582Y-128950500D01*
X98784621Y-128970185D01*
G37*
G04 #@! TD.AperFunction*
G04 #@! TA.AperFunction,Conductor*
G36*
X106943039Y-132170185D02*
G01*
X106988794Y-132222989D01*
X107000000Y-132274500D01*
X107000000Y-134625500D01*
X106980315Y-134692539D01*
X106927511Y-134738294D01*
X106876000Y-134749500D01*
X101040103Y-134749500D01*
X100973064Y-134729815D01*
X100927309Y-134677011D01*
X100917365Y-134607853D01*
X100946390Y-134544297D01*
X100965792Y-134526234D01*
X101025240Y-134481730D01*
X101057546Y-134457546D01*
X101143796Y-134342331D01*
X101194091Y-134207483D01*
X101200500Y-134147873D01*
X101200499Y-133652128D01*
X101194091Y-133592517D01*
X101194090Y-133592513D01*
X101143797Y-133457670D01*
X101134554Y-133445323D01*
X101118823Y-133424310D01*
X101094406Y-133358849D01*
X101109257Y-133290575D01*
X101118823Y-133275690D01*
X101143796Y-133242331D01*
X101146818Y-133234230D01*
X101169683Y-133172924D01*
X101194091Y-133107483D01*
X101200500Y-133047873D01*
X101200499Y-132552128D01*
X101194091Y-132492517D01*
X101143797Y-132357671D01*
X101143797Y-132357670D01*
X101143796Y-132357669D01*
X101137166Y-132348813D01*
X101112747Y-132283350D01*
X101127597Y-132215076D01*
X101177001Y-132165670D01*
X101236431Y-132150500D01*
X106876000Y-132150500D01*
X106943039Y-132170185D01*
G37*
G04 #@! TD.AperFunction*
G04 #@! TA.AperFunction,Conductor*
G36*
X101399426Y-129156910D02*
G01*
X101402658Y-129159361D01*
X101402659Y-129159361D01*
X101402660Y-129159362D01*
X101419353Y-129165945D01*
X101438290Y-129175351D01*
X101453618Y-129184672D01*
X101496247Y-129196616D01*
X101502263Y-129198639D01*
X101543436Y-129214876D01*
X101561287Y-129216711D01*
X101582052Y-129220657D01*
X101599335Y-129225500D01*
X101643594Y-129225500D01*
X101649935Y-129225824D01*
X101693972Y-129230352D01*
X101711656Y-129227303D01*
X101732724Y-129225500D01*
X101975737Y-129225500D01*
X102042776Y-129245185D01*
X102068772Y-129269238D01*
X102068928Y-129269083D01*
X102072919Y-129273074D01*
X102074539Y-129274573D01*
X102074922Y-129275078D01*
X102074926Y-129275081D01*
X102190023Y-129362363D01*
X102190024Y-129362363D01*
X102190025Y-129362364D01*
X102324410Y-129415359D01*
X102408856Y-129425500D01*
X102408862Y-129425500D01*
X102991138Y-129425500D01*
X102991144Y-129425500D01*
X103075590Y-129415359D01*
X103209975Y-129362364D01*
X103325078Y-129275078D01*
X103325459Y-129274574D01*
X103325923Y-129274232D01*
X103331072Y-129269083D01*
X103331845Y-129269856D01*
X103381650Y-129233052D01*
X103424263Y-129225500D01*
X106876000Y-129225500D01*
X106943039Y-129245185D01*
X106988794Y-129297989D01*
X107000000Y-129349500D01*
X107000000Y-131125500D01*
X106980315Y-131192539D01*
X106927511Y-131238294D01*
X106876000Y-131249500D01*
X101236431Y-131249500D01*
X101169392Y-131229815D01*
X101123637Y-131177011D01*
X101113693Y-131107853D01*
X101137166Y-131051187D01*
X101143796Y-131042331D01*
X101194091Y-130907483D01*
X101200500Y-130847873D01*
X101200499Y-130352128D01*
X101194091Y-130292517D01*
X101172055Y-130233435D01*
X101143797Y-130157670D01*
X101136663Y-130148141D01*
X101118823Y-130124310D01*
X101094406Y-130058849D01*
X101109257Y-129990575D01*
X101118823Y-129975690D01*
X101143796Y-129942331D01*
X101194091Y-129807483D01*
X101200500Y-129747873D01*
X101200499Y-129255711D01*
X101220183Y-129188673D01*
X101272987Y-129142918D01*
X101342146Y-129132974D01*
X101399426Y-129156910D01*
G37*
G04 #@! TD.AperFunction*
G04 #@! TA.AperFunction,Conductor*
G36*
X91338997Y-124019685D02*
G01*
X91384752Y-124072489D01*
X91394696Y-124141647D01*
X91383862Y-124174194D01*
X91384303Y-124174359D01*
X91381204Y-124182669D01*
X91330909Y-124317517D01*
X91324500Y-124377127D01*
X91324500Y-124377134D01*
X91324500Y-124377135D01*
X91324500Y-125022870D01*
X91324501Y-125022876D01*
X91330908Y-125082483D01*
X91381202Y-125217328D01*
X91381203Y-125217330D01*
X91449767Y-125308919D01*
X91474184Y-125374383D01*
X91474500Y-125383230D01*
X91474500Y-126115602D01*
X91472607Y-126171038D01*
X91472238Y-126181829D01*
X91482715Y-126224819D01*
X91483901Y-126231061D01*
X91489929Y-126274920D01*
X91497079Y-126291379D01*
X91503818Y-126311419D01*
X91508067Y-126328852D01*
X91521197Y-126352205D01*
X91529763Y-126367439D01*
X91532582Y-126373115D01*
X91547044Y-126406408D01*
X91550221Y-126413722D01*
X91561541Y-126427636D01*
X91573439Y-126445117D01*
X91582234Y-126460760D01*
X91582236Y-126460761D01*
X91613532Y-126492057D01*
X91617783Y-126496766D01*
X91645722Y-126531108D01*
X91660381Y-126541455D01*
X91676552Y-126555077D01*
X93859294Y-128737819D01*
X93892779Y-128799142D01*
X93887795Y-128868834D01*
X93845923Y-128924767D01*
X93780459Y-128949184D01*
X93771613Y-128949500D01*
X89728386Y-128949500D01*
X89661347Y-128929815D01*
X89615592Y-128877011D01*
X89605648Y-128807853D01*
X89634673Y-128744297D01*
X89640705Y-128737819D01*
X90757618Y-127620906D01*
X90806044Y-127575680D01*
X90829049Y-127537847D01*
X90832606Y-127532622D01*
X90859361Y-127497342D01*
X90865943Y-127480648D01*
X90875344Y-127461719D01*
X90884672Y-127446382D01*
X90896619Y-127403739D01*
X90898632Y-127397753D01*
X90914876Y-127356564D01*
X90916711Y-127338716D01*
X90920658Y-127317944D01*
X90925500Y-127300665D01*
X90925500Y-127256405D01*
X90925825Y-127250060D01*
X90930352Y-127206028D01*
X90927303Y-127188343D01*
X90925500Y-127167275D01*
X90925500Y-125383230D01*
X90945185Y-125316191D01*
X90950233Y-125308919D01*
X91018796Y-125217331D01*
X91069091Y-125082483D01*
X91075500Y-125022873D01*
X91075499Y-124377128D01*
X91069091Y-124317517D01*
X91018796Y-124182669D01*
X91015697Y-124174359D01*
X91017122Y-124173827D01*
X91004357Y-124115161D01*
X91028771Y-124049695D01*
X91084702Y-124007821D01*
X91128042Y-124000000D01*
X91271958Y-124000000D01*
X91338997Y-124019685D01*
G37*
G04 #@! TD.AperFunction*
G04 #@! TA.AperFunction,Conductor*
G36*
X93971883Y-124019685D02*
G01*
X93989191Y-124033106D01*
X93990119Y-124033967D01*
X93990121Y-124033970D01*
X93990123Y-124033971D01*
X93990126Y-124033974D01*
X94039271Y-124067480D01*
X94087118Y-124102793D01*
X94094654Y-124106776D01*
X94102319Y-124110467D01*
X94102327Y-124110472D01*
X94159177Y-124128007D01*
X94215297Y-124147645D01*
X94215299Y-124147645D01*
X94215301Y-124147646D01*
X94215302Y-124147646D01*
X94223698Y-124149234D01*
X94232095Y-124150500D01*
X94232098Y-124150500D01*
X94291559Y-124150500D01*
X94351009Y-124152725D01*
X94351009Y-124152724D01*
X94351010Y-124152725D01*
X94351010Y-124152724D01*
X94360242Y-124151685D01*
X94360335Y-124152513D01*
X94375639Y-124150500D01*
X106262034Y-124150500D01*
X106329073Y-124170185D01*
X106349715Y-124186819D01*
X106963681Y-124800785D01*
X106997166Y-124862108D01*
X107000000Y-124888466D01*
X107000000Y-128000500D01*
X106980315Y-128067539D01*
X106927511Y-128113294D01*
X106876000Y-128124500D01*
X103500167Y-128124500D01*
X103433128Y-128104815D01*
X103387373Y-128052011D01*
X103377429Y-127982853D01*
X103406454Y-127919297D01*
X103412486Y-127912819D01*
X103522572Y-127802732D01*
X103522575Y-127802728D01*
X103611542Y-127658492D01*
X103611547Y-127658481D01*
X103664855Y-127497606D01*
X103674999Y-127398322D01*
X103675000Y-127398309D01*
X103675000Y-127375000D01*
X101725001Y-127375000D01*
X101725001Y-127398322D01*
X101735144Y-127497607D01*
X101788452Y-127658481D01*
X101788457Y-127658492D01*
X101841093Y-127743827D01*
X101859534Y-127811219D01*
X101838612Y-127877883D01*
X101784970Y-127922652D01*
X101715639Y-127931314D01*
X101674787Y-127917013D01*
X101672343Y-127915639D01*
X101655642Y-127909052D01*
X101636716Y-127899652D01*
X101621380Y-127890327D01*
X101578758Y-127878384D01*
X101572740Y-127876360D01*
X101531565Y-127860124D01*
X101531556Y-127860122D01*
X101513716Y-127858288D01*
X101492951Y-127854342D01*
X101475666Y-127849499D01*
X101475566Y-127849486D01*
X101475481Y-127849447D01*
X101467500Y-127847212D01*
X101467835Y-127846013D01*
X101411832Y-127820854D01*
X101373695Y-127762310D01*
X101373263Y-127692442D01*
X101374069Y-127689749D01*
X101393591Y-127627102D01*
X101400000Y-127556572D01*
X101400000Y-127550000D01*
X98600001Y-127550000D01*
X98600001Y-127556582D01*
X98606408Y-127627102D01*
X98606409Y-127627107D01*
X98625574Y-127688609D01*
X98626726Y-127758469D01*
X98589925Y-127817862D01*
X98526856Y-127847930D01*
X98507189Y-127849500D01*
X94579387Y-127849500D01*
X94512348Y-127829815D01*
X94491706Y-127813181D01*
X93728525Y-127050000D01*
X98600000Y-127050000D01*
X99750000Y-127050000D01*
X99750000Y-126400000D01*
X100250000Y-126400000D01*
X100250000Y-127050000D01*
X101399999Y-127050000D01*
X101399999Y-127043417D01*
X101393591Y-126972897D01*
X101393590Y-126972892D01*
X101363085Y-126875000D01*
X101725000Y-126875000D01*
X102450000Y-126875000D01*
X102450000Y-126175000D01*
X102950000Y-126175000D01*
X102950000Y-126875000D01*
X103674999Y-126875000D01*
X103674999Y-126851692D01*
X103674998Y-126851677D01*
X103664855Y-126752392D01*
X103611547Y-126591518D01*
X103611542Y-126591507D01*
X103522575Y-126447271D01*
X103522572Y-126447267D01*
X103402732Y-126327427D01*
X103402728Y-126327424D01*
X103258492Y-126238457D01*
X103258481Y-126238452D01*
X103097606Y-126185144D01*
X102998322Y-126175000D01*
X102950000Y-126175000D01*
X102450000Y-126175000D01*
X102449999Y-126174999D01*
X102401693Y-126175000D01*
X102401675Y-126175001D01*
X102302392Y-126185144D01*
X102141518Y-126238452D01*
X102141507Y-126238457D01*
X101997271Y-126327424D01*
X101997267Y-126327427D01*
X101877427Y-126447267D01*
X101877424Y-126447271D01*
X101788457Y-126591507D01*
X101788452Y-126591518D01*
X101735144Y-126752393D01*
X101725000Y-126851677D01*
X101725000Y-126875000D01*
X101363085Y-126875000D01*
X101343018Y-126810603D01*
X101255072Y-126665122D01*
X101134877Y-126544927D01*
X100989395Y-126456980D01*
X100989396Y-126456980D01*
X100827105Y-126406409D01*
X100827106Y-126406409D01*
X100756572Y-126400000D01*
X100250000Y-126400000D01*
X99750000Y-126400000D01*
X99243417Y-126400000D01*
X99172897Y-126406408D01*
X99172892Y-126406409D01*
X99010603Y-126456981D01*
X98865122Y-126544927D01*
X98744927Y-126665122D01*
X98656980Y-126810604D01*
X98606409Y-126972893D01*
X98600000Y-127043427D01*
X98600000Y-127050000D01*
X93728525Y-127050000D01*
X92611819Y-125933294D01*
X92578334Y-125871971D01*
X92575500Y-125845613D01*
X92575500Y-125383230D01*
X92595185Y-125316191D01*
X92600233Y-125308919D01*
X92668796Y-125217331D01*
X92719091Y-125082483D01*
X92725500Y-125022873D01*
X92725499Y-124377128D01*
X92719091Y-124317517D01*
X92668796Y-124182669D01*
X92665697Y-124174359D01*
X92667122Y-124173827D01*
X92654357Y-124115161D01*
X92678771Y-124049695D01*
X92734702Y-124007821D01*
X92778042Y-124000000D01*
X93904844Y-124000000D01*
X93971883Y-124019685D01*
G37*
G04 #@! TD.AperFunction*
G04 #@! TA.AperFunction,Conductor*
G36*
X189311971Y-93102381D02*
G01*
X189390618Y-93118024D01*
X189435308Y-93136535D01*
X189491626Y-93174166D01*
X189525833Y-93208373D01*
X189563462Y-93264688D01*
X189581976Y-93309387D01*
X189597617Y-93388019D01*
X189600000Y-93412210D01*
X189600000Y-99653410D01*
X189599833Y-99657954D01*
X189597447Y-99690442D01*
X189594792Y-99708416D01*
X189587685Y-99740199D01*
X189586531Y-99744596D01*
X188012196Y-104957579D01*
X188012196Y-104957580D01*
X188006184Y-104984465D01*
X188002604Y-105000479D01*
X187999385Y-105044315D01*
X187999385Y-106703874D01*
X188000000Y-109699969D01*
X188000000Y-111049679D01*
X187997167Y-111076035D01*
X187978627Y-111161270D01*
X187956733Y-111209215D01*
X187904460Y-111279052D01*
X187886405Y-111298448D01*
X186588702Y-112423123D01*
X186588701Y-112423124D01*
X186519602Y-112510300D01*
X186519602Y-112510301D01*
X186487019Y-112616650D01*
X186487018Y-112616654D01*
X186136462Y-115766812D01*
X186136462Y-115766827D01*
X186142217Y-115867078D01*
X186142217Y-115867081D01*
X186180734Y-115959816D01*
X186180737Y-115959821D01*
X186247701Y-116034650D01*
X186247703Y-116034652D01*
X186335616Y-116083192D01*
X186434621Y-116100000D01*
X187887174Y-116100000D01*
X187911356Y-116102381D01*
X187990003Y-116118024D01*
X188034693Y-116136535D01*
X188091011Y-116174166D01*
X188125218Y-116208373D01*
X188162847Y-116264688D01*
X188181361Y-116309387D01*
X188197002Y-116388019D01*
X188199385Y-116412210D01*
X188199385Y-117287789D01*
X188197002Y-117311980D01*
X188181361Y-117390612D01*
X188162847Y-117435311D01*
X188125221Y-117491623D01*
X188091008Y-117525836D01*
X188034696Y-117563462D01*
X187989997Y-117581976D01*
X187911365Y-117597617D01*
X187887174Y-117600000D01*
X184511596Y-117600000D01*
X184487405Y-117597617D01*
X184408772Y-117581976D01*
X184364074Y-117563462D01*
X184307758Y-117525833D01*
X184273551Y-117491626D01*
X184235920Y-117435308D01*
X184217409Y-117390618D01*
X184201766Y-117311971D01*
X184199385Y-117287789D01*
X184199385Y-116101643D01*
X184199380Y-116099989D01*
X184199367Y-116098347D01*
X184158783Y-112423123D01*
X184100033Y-107102832D01*
X184100015Y-107099824D01*
X184100027Y-107096816D01*
X184118165Y-105083418D01*
X184118754Y-105075444D01*
X184126657Y-105018703D01*
X184135119Y-104987865D01*
X184157280Y-104935037D01*
X184160846Y-104927874D01*
X187169771Y-99752000D01*
X187194349Y-99698073D01*
X187207848Y-99640366D01*
X187697436Y-95920004D01*
X187699358Y-95900475D01*
X187700000Y-95880862D01*
X187700000Y-95442754D01*
X187719685Y-95375715D01*
X187736321Y-95355071D01*
X187753046Y-95338346D01*
X187753050Y-95338342D01*
X187810646Y-95225304D01*
X187810646Y-95225302D01*
X187810647Y-95225301D01*
X187825499Y-95131524D01*
X187825500Y-95131519D01*
X187825499Y-93793482D01*
X187810646Y-93699696D01*
X187753050Y-93586658D01*
X187753046Y-93586654D01*
X187753045Y-93586652D01*
X187736319Y-93569926D01*
X187702834Y-93508603D01*
X187700000Y-93482245D01*
X187700000Y-93412210D01*
X187702381Y-93388029D01*
X187718025Y-93309379D01*
X187736534Y-93264693D01*
X187774168Y-93208370D01*
X187808370Y-93174168D01*
X187864693Y-93136534D01*
X187909379Y-93118025D01*
X187988028Y-93102381D01*
X188012211Y-93100000D01*
X189287789Y-93100000D01*
X189311971Y-93102381D01*
G37*
G04 #@! TD.AperFunction*
G04 #@! TA.AperFunction,Conductor*
G36*
X193211971Y-103702381D02*
G01*
X193290618Y-103718024D01*
X193335308Y-103736535D01*
X193391626Y-103774166D01*
X193425833Y-103808373D01*
X193463462Y-103864688D01*
X193481976Y-103909387D01*
X193497617Y-103988019D01*
X193500000Y-104012210D01*
X193500000Y-107587789D01*
X193497617Y-107611980D01*
X193481976Y-107690612D01*
X193463462Y-107735311D01*
X193425836Y-107791623D01*
X193391623Y-107825836D01*
X193335311Y-107863462D01*
X193290612Y-107881976D01*
X193211980Y-107897617D01*
X193187789Y-107900000D01*
X190212211Y-107900000D01*
X190188020Y-107897617D01*
X190109387Y-107881976D01*
X190064689Y-107863462D01*
X190008373Y-107825833D01*
X189974166Y-107791626D01*
X189936535Y-107735308D01*
X189918024Y-107690618D01*
X189902381Y-107611971D01*
X189900000Y-107587789D01*
X189900000Y-104012210D01*
X189902381Y-103988029D01*
X189918025Y-103909379D01*
X189936534Y-103864693D01*
X189974168Y-103808370D01*
X190008370Y-103774168D01*
X190064693Y-103736534D01*
X190109379Y-103718025D01*
X190188028Y-103702381D01*
X190212211Y-103700000D01*
X193187789Y-103700000D01*
X193211971Y-103702381D01*
G37*
G04 #@! TD.AperFunction*
G04 #@! TA.AperFunction,Conductor*
G36*
X179393351Y-73101508D02*
G01*
X179414277Y-73104801D01*
X179499279Y-73118182D01*
X179535972Y-73130027D01*
X179622896Y-73174005D01*
X179654174Y-73196550D01*
X179723383Y-73265105D01*
X179746224Y-73296170D01*
X179800000Y-73400000D01*
X179862750Y-73521158D01*
X179862756Y-73521166D01*
X179938268Y-73595964D01*
X179959690Y-73617184D01*
X180081441Y-73678783D01*
X180216228Y-73700000D01*
X189295933Y-73700000D01*
X189304031Y-73700530D01*
X189395879Y-73712622D01*
X189413223Y-73714906D01*
X189444491Y-73723284D01*
X189534918Y-73760740D01*
X189562952Y-73776925D01*
X189640602Y-73836509D01*
X189663491Y-73859398D01*
X189723074Y-73937048D01*
X189739259Y-73965081D01*
X189776715Y-74055508D01*
X189785093Y-74086775D01*
X189799469Y-74195964D01*
X189800000Y-74204065D01*
X189800000Y-87346368D01*
X189797617Y-87370559D01*
X189778823Y-87465042D01*
X189760308Y-87509741D01*
X189700000Y-87599999D01*
X189625988Y-87710765D01*
X189625987Y-87710767D01*
X189600000Y-87841416D01*
X189600000Y-89395934D01*
X189599469Y-89404035D01*
X189585093Y-89513224D01*
X189576715Y-89544491D01*
X189539259Y-89634918D01*
X189523074Y-89662951D01*
X189463491Y-89740601D01*
X189440601Y-89763491D01*
X189362951Y-89823074D01*
X189334918Y-89839259D01*
X189244491Y-89876715D01*
X189213224Y-89885093D01*
X189124783Y-89896737D01*
X189104031Y-89899469D01*
X189095934Y-89900000D01*
X188104066Y-89900000D01*
X188095968Y-89899469D01*
X188072457Y-89896374D01*
X187986775Y-89885093D01*
X187955508Y-89876715D01*
X187865081Y-89839259D01*
X187837047Y-89823074D01*
X187781112Y-89780152D01*
X187739911Y-89723726D01*
X187735756Y-89653979D01*
X187749984Y-89622733D01*
X187748619Y-89622038D01*
X187788131Y-89544491D01*
X187810646Y-89500304D01*
X187810646Y-89500302D01*
X187810647Y-89500301D01*
X187825499Y-89406524D01*
X187825500Y-89406519D01*
X187825499Y-88068482D01*
X187810646Y-87974696D01*
X187753050Y-87861658D01*
X187753046Y-87861654D01*
X187753045Y-87861652D01*
X187663344Y-87771951D01*
X187618714Y-87749211D01*
X187571908Y-87707617D01*
X187530638Y-87645853D01*
X187500000Y-87599999D01*
X187437257Y-87508431D01*
X187418852Y-87466775D01*
X187396032Y-87369909D01*
X187392863Y-87347263D01*
X186920736Y-77243742D01*
X186920736Y-77243741D01*
X186893114Y-77101631D01*
X186825938Y-76973392D01*
X186724838Y-76869773D01*
X186724835Y-76869771D01*
X186598292Y-76799461D01*
X186456902Y-76768349D01*
X180215426Y-76322529D01*
X180082173Y-76335057D01*
X179960178Y-76390098D01*
X179862609Y-76481708D01*
X179845929Y-76513223D01*
X179800000Y-76600000D01*
X179781915Y-76634918D01*
X179746224Y-76703829D01*
X179723381Y-76734897D01*
X179654179Y-76803446D01*
X179622894Y-76825995D01*
X179535975Y-76869971D01*
X179499277Y-76881818D01*
X179393352Y-76898492D01*
X179374070Y-76900000D01*
X176604066Y-76900000D01*
X176595968Y-76899469D01*
X176572457Y-76896374D01*
X176486775Y-76885093D01*
X176455508Y-76876715D01*
X176365081Y-76839259D01*
X176337048Y-76823074D01*
X176284973Y-76783115D01*
X176259397Y-76763490D01*
X176236508Y-76740601D01*
X176232131Y-76734897D01*
X176176925Y-76662951D01*
X176160740Y-76634918D01*
X176123284Y-76544491D01*
X176114906Y-76513223D01*
X176100531Y-76404035D01*
X176100000Y-76395933D01*
X176100000Y-73604066D01*
X176100531Y-73595964D01*
X176110379Y-73521166D01*
X176114906Y-73486775D01*
X176123284Y-73455508D01*
X176160740Y-73365081D01*
X176176923Y-73337050D01*
X176236513Y-73259392D01*
X176259392Y-73236513D01*
X176337050Y-73176923D01*
X176365079Y-73160740D01*
X176455509Y-73123283D01*
X176486775Y-73114906D01*
X176595967Y-73100530D01*
X176604067Y-73100000D01*
X179374070Y-73100000D01*
X179393351Y-73101508D01*
G37*
G04 #@! TD.AperFunction*
G04 #@! TA.AperFunction,Conductor*
G36*
X190042539Y-119119685D02*
G01*
X190088294Y-119172489D01*
X190099500Y-119224000D01*
X190099500Y-119623070D01*
X190102289Y-119652814D01*
X190102290Y-119652822D01*
X190139426Y-119758950D01*
X190146109Y-119791656D01*
X190296188Y-122042834D01*
X190296189Y-122042835D01*
X190312697Y-122091552D01*
X190312699Y-122091555D01*
X190351246Y-122125623D01*
X191221750Y-122560875D01*
X191229275Y-122564638D01*
X191257468Y-122584010D01*
X191259063Y-122585468D01*
X191294685Y-122643095D01*
X191295274Y-122645167D01*
X191300000Y-122679073D01*
X191300000Y-126075336D01*
X191290498Y-126122938D01*
X191290390Y-126123202D01*
X191290303Y-126123411D01*
X191246389Y-126177755D01*
X191223411Y-126190302D01*
X191222938Y-126190498D01*
X191175336Y-126200000D01*
X188324664Y-126200000D01*
X188277148Y-126190534D01*
X188276674Y-126190338D01*
X188222297Y-126146466D01*
X188209610Y-126123202D01*
X188209502Y-126122942D01*
X188209415Y-126122732D01*
X188200000Y-126075336D01*
X188200000Y-122679073D01*
X188204709Y-122645225D01*
X188205300Y-122643145D01*
X188240933Y-122585470D01*
X188242534Y-122584008D01*
X188270721Y-122564639D01*
X189148754Y-122125623D01*
X189187301Y-122091555D01*
X189203811Y-122042832D01*
X189362746Y-119658807D01*
X189379224Y-119606102D01*
X189378764Y-119605857D01*
X189380061Y-119603425D01*
X189380080Y-119603364D01*
X189380202Y-119603161D01*
X189384310Y-119594459D01*
X189390032Y-119580617D01*
X189403228Y-119543664D01*
X189407567Y-119529333D01*
X189407567Y-119529332D01*
X189434443Y-119421832D01*
X189434443Y-119421833D01*
X189437866Y-119403418D01*
X189443853Y-119354781D01*
X189443854Y-119354780D01*
X189445000Y-119336095D01*
X189445000Y-119228042D01*
X189450338Y-119192050D01*
X189450893Y-119190218D01*
X189450900Y-119190200D01*
X189450904Y-119190180D01*
X189451564Y-119188008D01*
X189489860Y-119129568D01*
X189553672Y-119101110D01*
X189570226Y-119100000D01*
X189975500Y-119100000D01*
X190042539Y-119119685D01*
G37*
G04 #@! TD.AperFunction*
G04 #@! TA.AperFunction,Conductor*
G36*
X179250000Y-121250000D02*
G01*
X179700000Y-126200000D01*
X179406451Y-126200000D01*
X174852330Y-126200000D01*
X174831401Y-126198221D01*
X174815454Y-126195490D01*
X174762901Y-126186491D01*
X174723429Y-126172564D01*
X174672075Y-126143921D01*
X174639489Y-126117658D01*
X174600586Y-126073556D01*
X174578595Y-126037946D01*
X174552582Y-125973503D01*
X174546399Y-125953438D01*
X174248314Y-124582244D01*
X174253308Y-124512555D01*
X174295187Y-124456628D01*
X174339808Y-124435508D01*
X174432365Y-124412696D01*
X174572240Y-124339283D01*
X174690483Y-124234530D01*
X174780220Y-124104523D01*
X174836237Y-123956818D01*
X174855278Y-123800000D01*
X174836237Y-123643182D01*
X174780220Y-123495477D01*
X174772448Y-123484217D01*
X174750567Y-123417862D01*
X174750500Y-123413780D01*
X174750500Y-123378721D01*
X174770185Y-123311682D01*
X174799573Y-123279918D01*
X174885078Y-123215078D01*
X174972364Y-123099975D01*
X175025359Y-122965590D01*
X175035500Y-122881144D01*
X175035500Y-122348856D01*
X175025359Y-122264410D01*
X174972364Y-122130025D01*
X174913608Y-122052544D01*
X174888786Y-121987234D01*
X174903214Y-121918870D01*
X174947317Y-121872081D01*
X174962731Y-121862573D01*
X175082572Y-121742732D01*
X175082575Y-121742728D01*
X175171542Y-121598492D01*
X175171547Y-121598481D01*
X175224856Y-121437604D01*
X175227166Y-121415000D01*
X174034000Y-121415000D01*
X173966961Y-121395315D01*
X173921206Y-121342511D01*
X173910000Y-121291000D01*
X173910000Y-120455000D01*
X173873681Y-120418681D01*
X173875752Y-120416609D01*
X173846206Y-120382511D01*
X173835000Y-120331000D01*
X173835000Y-119790000D01*
X174535000Y-119790000D01*
X174535000Y-120075000D01*
X174571319Y-120111319D01*
X174569247Y-120113390D01*
X174598794Y-120147489D01*
X174610000Y-120199000D01*
X174610000Y-120715000D01*
X175227165Y-120715000D01*
X175227165Y-120714999D01*
X175224855Y-120692392D01*
X175171547Y-120531518D01*
X175171542Y-120531507D01*
X175082575Y-120387271D01*
X175082572Y-120387267D01*
X174973015Y-120277710D01*
X174939530Y-120216387D01*
X174944514Y-120146695D01*
X174954580Y-120125878D01*
X175028018Y-120004398D01*
X175028019Y-120004396D01*
X175078590Y-119842106D01*
X175083326Y-119790000D01*
X174535000Y-119790000D01*
X173835000Y-119790000D01*
X173835000Y-119214000D01*
X173854685Y-119146961D01*
X173907489Y-119101206D01*
X173959000Y-119090000D01*
X175083325Y-119090000D01*
X175078592Y-119037902D01*
X175078590Y-119037894D01*
X175028019Y-118875604D01*
X174940072Y-118730122D01*
X174931926Y-118721976D01*
X174898441Y-118660653D01*
X174897991Y-118610099D01*
X174900000Y-118600000D01*
X174900000Y-117312210D01*
X174902381Y-117288029D01*
X174918025Y-117209379D01*
X174936534Y-117164693D01*
X174974168Y-117108370D01*
X175008370Y-117074168D01*
X175064693Y-117036534D01*
X175109379Y-117018025D01*
X175188028Y-117002381D01*
X175212211Y-117000000D01*
X179250000Y-117000000D01*
X179250000Y-121250000D01*
G37*
G04 #@! TD.AperFunction*
G04 #@! TA.AperFunction,Conductor*
G36*
X169604031Y-131200530D02*
G01*
X169695879Y-131212622D01*
X169713223Y-131214906D01*
X169744491Y-131223284D01*
X169834918Y-131260740D01*
X169862952Y-131276925D01*
X169940602Y-131336509D01*
X169963491Y-131359398D01*
X170023074Y-131437048D01*
X170039259Y-131465081D01*
X170076715Y-131555508D01*
X170085093Y-131586775D01*
X170099469Y-131695964D01*
X170100000Y-131704065D01*
X170100000Y-133866496D01*
X170099502Y-133874344D01*
X170086012Y-133980179D01*
X170078147Y-134010532D01*
X170038539Y-134109604D01*
X170035164Y-134116705D01*
X169662923Y-134786735D01*
X169615986Y-134904142D01*
X169615985Y-134904146D01*
X169600000Y-135029563D01*
X169600000Y-136892886D01*
X169600001Y-136892902D01*
X169617036Y-137022301D01*
X169617038Y-137022306D01*
X169666984Y-137142888D01*
X169666987Y-137142893D01*
X169746445Y-137246445D01*
X169746451Y-137246452D01*
X170098594Y-137598595D01*
X170098605Y-137598605D01*
X170209767Y-137682368D01*
X170209771Y-137682370D01*
X170339726Y-137732244D01*
X170940923Y-137870982D01*
X172744511Y-138287196D01*
X172800365Y-138296789D01*
X172800360Y-138296789D01*
X172828655Y-138298394D01*
X172856944Y-138300000D01*
X174375104Y-138300000D01*
X174383753Y-138300605D01*
X174500212Y-138317000D01*
X174533429Y-138326541D01*
X174628871Y-138369115D01*
X174658166Y-138387459D01*
X174738133Y-138454719D01*
X174761230Y-138480444D01*
X174819521Y-138567171D01*
X174834616Y-138598268D01*
X174866298Y-138696478D01*
X174870722Y-138710191D01*
X174872802Y-138718612D01*
X175192606Y-140557484D01*
X175197803Y-140597507D01*
X175198262Y-140602824D01*
X175200000Y-140643152D01*
X175200000Y-143895934D01*
X175199469Y-143904035D01*
X175185093Y-144013224D01*
X175176715Y-144044491D01*
X175139259Y-144134918D01*
X175123074Y-144162951D01*
X175063491Y-144240601D01*
X175040601Y-144263491D01*
X174962951Y-144323074D01*
X174934918Y-144339259D01*
X174844491Y-144376715D01*
X174813224Y-144385093D01*
X174724783Y-144396737D01*
X174704031Y-144399469D01*
X174695934Y-144400000D01*
X166204066Y-144400000D01*
X166195968Y-144399469D01*
X166172457Y-144396374D01*
X166086775Y-144385093D01*
X166055508Y-144376715D01*
X165965081Y-144339259D01*
X165937048Y-144323074D01*
X165859398Y-144263491D01*
X165836508Y-144240601D01*
X165776925Y-144162951D01*
X165760740Y-144134918D01*
X165723284Y-144044491D01*
X165714906Y-144013223D01*
X165700531Y-143904035D01*
X165700000Y-143895933D01*
X165700000Y-141329493D01*
X165700470Y-141321872D01*
X165713197Y-141219021D01*
X165720620Y-141189485D01*
X165758044Y-141092815D01*
X165761223Y-141085902D01*
X167104965Y-138581657D01*
X167840580Y-137210737D01*
X167840582Y-137210730D01*
X167840585Y-137210726D01*
X167866847Y-137142888D01*
X167884918Y-137096209D01*
X167900000Y-136974328D01*
X167900000Y-134981139D01*
X167893544Y-134901048D01*
X167874342Y-134823025D01*
X167708728Y-134326185D01*
X167626446Y-134079338D01*
X167625060Y-134074547D01*
X167608842Y-134008647D01*
X167605653Y-133988994D01*
X167600199Y-133921336D01*
X167600000Y-133916365D01*
X167600000Y-131704066D01*
X167600531Y-131695964D01*
X167614906Y-131586776D01*
X167623284Y-131555508D01*
X167660740Y-131465081D01*
X167676923Y-131437050D01*
X167736513Y-131359392D01*
X167759392Y-131336513D01*
X167837050Y-131276923D01*
X167865079Y-131260740D01*
X167955509Y-131223283D01*
X167986775Y-131214906D01*
X168095967Y-131200530D01*
X168104067Y-131200000D01*
X169595933Y-131200000D01*
X169604031Y-131200530D01*
G37*
G04 #@! TD.AperFunction*
G04 #@! TA.AperFunction,Conductor*
G36*
X180711971Y-117002381D02*
G01*
X180790618Y-117018024D01*
X180835308Y-117036535D01*
X180891626Y-117074166D01*
X180925833Y-117108373D01*
X180936275Y-117124000D01*
X180963462Y-117164688D01*
X180981976Y-117209387D01*
X180997617Y-117288019D01*
X181000000Y-117312210D01*
X181000000Y-121166905D01*
X181010885Y-121246981D01*
X181010887Y-121246987D01*
X181042748Y-121321247D01*
X181042751Y-121321252D01*
X181042752Y-121321254D01*
X181662609Y-122354349D01*
X181729610Y-122431961D01*
X181818833Y-122482479D01*
X181919857Y-122500000D01*
X185687789Y-122500000D01*
X185711971Y-122502381D01*
X185790618Y-122518024D01*
X185835308Y-122536535D01*
X185891626Y-122574166D01*
X185925833Y-122608373D01*
X185963462Y-122664688D01*
X185981976Y-122709387D01*
X185997617Y-122788019D01*
X186000000Y-122812210D01*
X186000000Y-125937789D01*
X185997617Y-125961980D01*
X185981976Y-126040612D01*
X185963462Y-126085311D01*
X185925836Y-126141623D01*
X185891623Y-126175835D01*
X185863688Y-126194501D01*
X185835311Y-126213462D01*
X185790612Y-126231976D01*
X185711980Y-126247617D01*
X185687789Y-126250000D01*
X182752459Y-126250000D01*
X182750000Y-126249990D01*
X182749328Y-126249981D01*
X182747647Y-126249960D01*
X182747615Y-126249960D01*
X182747608Y-126249960D01*
X182747529Y-126249959D01*
X181257108Y-126225525D01*
X181195079Y-126224509D01*
X180284750Y-126209585D01*
X179792566Y-126201517D01*
X179702466Y-126200040D01*
X179702383Y-126200038D01*
X179700000Y-126200000D01*
X179250000Y-121250000D01*
X179250000Y-117000000D01*
X179750000Y-117000000D01*
X180687789Y-117000000D01*
X180711971Y-117002381D01*
G37*
G04 #@! TD.AperFunction*
G04 #@! TA.AperFunction,Conductor*
G36*
X171871332Y-122719685D02*
G01*
X171876343Y-122723080D01*
X171878787Y-122724824D01*
X171878789Y-122724826D01*
X171991375Y-122779866D01*
X172064364Y-122790500D01*
X172127031Y-122790500D01*
X172169407Y-122797966D01*
X172880813Y-123056659D01*
X172908669Y-123071000D01*
X172951833Y-123100667D01*
X172992603Y-123147601D01*
X173015939Y-123194483D01*
X173026246Y-123224075D01*
X174095335Y-128277946D01*
X174095921Y-128281125D01*
X174098410Y-128296913D01*
X174099082Y-128303338D01*
X174099916Y-128319307D01*
X174100000Y-128322540D01*
X174100000Y-129988922D01*
X174100306Y-129999994D01*
X174100898Y-130007108D01*
X174101222Y-130011001D01*
X174177777Y-130700000D01*
X174698777Y-135388991D01*
X174699328Y-135395625D01*
X174699551Y-135398300D01*
X174699739Y-135401708D01*
X174700000Y-135411066D01*
X174700000Y-136487789D01*
X174697617Y-136511982D01*
X174689588Y-136552344D01*
X174671072Y-136597043D01*
X174655122Y-136620913D01*
X174620913Y-136655122D01*
X174597043Y-136671072D01*
X174552344Y-136689588D01*
X174535841Y-136692870D01*
X174511978Y-136697617D01*
X174487789Y-136700000D01*
X172832456Y-136700000D01*
X172811098Y-136701722D01*
X172800417Y-136702583D01*
X172769208Y-136710263D01*
X171933157Y-136988948D01*
X171928384Y-136990328D01*
X171909284Y-136995029D01*
X171889621Y-136998220D01*
X171870033Y-136999799D01*
X171865048Y-137000000D01*
X170512211Y-137000000D01*
X170488020Y-136997617D01*
X170472744Y-136994578D01*
X170447656Y-136989588D01*
X170402956Y-136971072D01*
X170379086Y-136955122D01*
X170344877Y-136920913D01*
X170328927Y-136897043D01*
X170310412Y-136852346D01*
X170302381Y-136811971D01*
X170300000Y-136787789D01*
X170300000Y-135002444D01*
X170300015Y-134999986D01*
X170300060Y-134997543D01*
X170306533Y-134732115D01*
X170318195Y-134253985D01*
X170327016Y-134210988D01*
X170365413Y-134114946D01*
X170371451Y-134096538D01*
X170379974Y-134063644D01*
X170384174Y-134047436D01*
X170387835Y-134028422D01*
X170403163Y-133908167D01*
X170404082Y-133898526D01*
X170405193Y-133881011D01*
X170405500Y-133871334D01*
X170405500Y-131699067D01*
X170405173Y-131689072D01*
X170403988Y-131670993D01*
X170403008Y-131661042D01*
X170386674Y-131536982D01*
X170386652Y-131536851D01*
X170385033Y-131513628D01*
X170395003Y-131104878D01*
X170395003Y-131104877D01*
X170381207Y-131026855D01*
X170338198Y-130960313D01*
X170338196Y-130960312D01*
X170338196Y-130960311D01*
X170272726Y-130915694D01*
X170195064Y-130900000D01*
X170195062Y-130900000D01*
X169665874Y-130900000D01*
X169657773Y-130899469D01*
X169638944Y-130896990D01*
X169635998Y-130896699D01*
X169628976Y-130896008D01*
X169610905Y-130894826D01*
X169600926Y-130894500D01*
X169600925Y-130894500D01*
X168099076Y-130894500D01*
X168099074Y-130894500D01*
X168089099Y-130894826D01*
X168071038Y-130896008D01*
X168071023Y-130896009D01*
X168061055Y-130896990D01*
X168042223Y-130899469D01*
X168034125Y-130900000D01*
X165912211Y-130900000D01*
X165888020Y-130897617D01*
X165872349Y-130894500D01*
X165847656Y-130889588D01*
X165802956Y-130871072D01*
X165779086Y-130855122D01*
X165744877Y-130820913D01*
X165728927Y-130797043D01*
X165710412Y-130752346D01*
X165702381Y-130711971D01*
X165700000Y-130687789D01*
X165700000Y-124812210D01*
X165702381Y-124788029D01*
X165710412Y-124747651D01*
X165728927Y-124702956D01*
X165744877Y-124679086D01*
X165779086Y-124644877D01*
X165802956Y-124628927D01*
X165847653Y-124610412D01*
X165888027Y-124602381D01*
X165912211Y-124600000D01*
X168100001Y-124600000D01*
X168100002Y-124599999D01*
X168119395Y-124596142D01*
X168176535Y-124584777D01*
X168176535Y-124584776D01*
X168176537Y-124584776D01*
X168241421Y-124541421D01*
X168284776Y-124476537D01*
X168284776Y-124476535D01*
X168284777Y-124476535D01*
X168299999Y-124400004D01*
X168300000Y-124400001D01*
X168300000Y-124145171D01*
X168302365Y-124121069D01*
X168310337Y-124080837D01*
X168328716Y-124036279D01*
X168344562Y-124012451D01*
X168378543Y-123978271D01*
X168412567Y-123955357D01*
X168433871Y-123943860D01*
X169372727Y-123550146D01*
X169420678Y-123540499D01*
X169532872Y-123540499D01*
X169592483Y-123534091D01*
X169727331Y-123483796D01*
X169842546Y-123397546D01*
X169870803Y-123359798D01*
X169922112Y-123319759D01*
X169971321Y-123299123D01*
X169996202Y-123291643D01*
X170031073Y-123285044D01*
X170035480Y-123284211D01*
X170064883Y-123279779D01*
X170094287Y-123275348D01*
X170094288Y-123275347D01*
X170102447Y-123272830D01*
X170110469Y-123270023D01*
X170110472Y-123270023D01*
X170163072Y-123242222D01*
X170216642Y-123216425D01*
X170216642Y-123216424D01*
X170216644Y-123216424D01*
X170223691Y-123211619D01*
X170230533Y-123206569D01*
X170230533Y-123206568D01*
X170230538Y-123206566D01*
X170241104Y-123195999D01*
X170280823Y-123169332D01*
X171174251Y-122794668D01*
X171204304Y-122786323D01*
X171248625Y-122779866D01*
X171361211Y-122724826D01*
X171361220Y-122724816D01*
X171361912Y-122724324D01*
X171363326Y-122723792D01*
X171370443Y-122720313D01*
X171370774Y-122720991D01*
X171421680Y-122701848D01*
X171437184Y-122700304D01*
X171443315Y-122700000D01*
X171804293Y-122700000D01*
X171871332Y-122719685D01*
G37*
G04 #@! TD.AperFunction*
G04 #@! TA.AperFunction,Conductor*
G36*
X182837034Y-116107428D02*
G01*
X182838377Y-116107915D01*
X182894690Y-116149274D01*
X182903185Y-116161958D01*
X182903905Y-116163191D01*
X182918824Y-116203537D01*
X183092833Y-117160580D01*
X183092834Y-117160582D01*
X183106544Y-117195890D01*
X183132402Y-117223565D01*
X183132403Y-117223566D01*
X184173701Y-117980874D01*
X184173703Y-117980875D01*
X184201594Y-117995098D01*
X184232518Y-118000000D01*
X187872782Y-118000000D01*
X187879939Y-118000414D01*
X187882842Y-118000750D01*
X187884996Y-118001001D01*
X187912922Y-118007587D01*
X187917727Y-118009329D01*
X187924320Y-118012159D01*
X188240917Y-118170459D01*
X188278887Y-118189444D01*
X188298695Y-118196623D01*
X188300632Y-118197325D01*
X188315948Y-118199108D01*
X188323606Y-118200000D01*
X188323607Y-118200000D01*
X188494461Y-118200000D01*
X188499993Y-118199847D01*
X188499996Y-118199847D01*
X188505508Y-118199388D01*
X188658555Y-118182382D01*
X189066686Y-118137034D01*
X189135487Y-118149195D01*
X189186793Y-118196623D01*
X189204313Y-118264261D01*
X189199779Y-118293728D01*
X189169500Y-118401797D01*
X189169500Y-118401798D01*
X189169500Y-119048349D01*
X189162542Y-119089303D01*
X189142290Y-119147177D01*
X189142289Y-119147185D01*
X189139500Y-119176929D01*
X189139500Y-119326732D01*
X189135797Y-119356808D01*
X189113005Y-119447972D01*
X189104844Y-119470826D01*
X189103933Y-119472756D01*
X189075116Y-119511662D01*
X189073531Y-119513100D01*
X189054010Y-119527593D01*
X188829040Y-119662575D01*
X188605768Y-119796539D01*
X188600129Y-119800186D01*
X188600126Y-119800188D01*
X188594745Y-119804204D01*
X188135573Y-120171540D01*
X188118245Y-120183155D01*
X188116521Y-120184111D01*
X188077230Y-120197903D01*
X188075277Y-120198236D01*
X188054440Y-120200000D01*
X187761803Y-120200000D01*
X187761801Y-120200000D01*
X187761796Y-120200001D01*
X187709232Y-120214933D01*
X187709229Y-120214935D01*
X187672361Y-120255278D01*
X186935361Y-121729275D01*
X186915986Y-121757472D01*
X186914532Y-121759063D01*
X186856919Y-121794681D01*
X186855579Y-121795062D01*
X186854846Y-121795270D01*
X186820927Y-121800000D01*
X181826194Y-121800000D01*
X181759155Y-121780315D01*
X181713400Y-121727511D01*
X181702213Y-121673825D01*
X181728455Y-120178087D01*
X181797848Y-116222623D01*
X181807855Y-116175954D01*
X181807885Y-116175882D01*
X181808099Y-116175385D01*
X181852599Y-116121522D01*
X181875290Y-116109397D01*
X181875564Y-116109284D01*
X181875866Y-116109162D01*
X181922644Y-116100000D01*
X182794762Y-116100000D01*
X182837034Y-116107428D01*
G37*
G04 #@! TD.AperFunction*
G04 #@! TA.AperFunction,Conductor*
G36*
X166443039Y-132219685D02*
G01*
X166488794Y-132272489D01*
X166500000Y-132324000D01*
X166500000Y-134100000D01*
X167268679Y-134964764D01*
X167298505Y-135027946D01*
X167300000Y-135047144D01*
X167300000Y-136976000D01*
X167280315Y-137043039D01*
X167227511Y-137088794D01*
X167176000Y-137100000D01*
X165724000Y-137100000D01*
X165656961Y-137080315D01*
X165611206Y-137027511D01*
X165600000Y-136976000D01*
X165600000Y-135000001D01*
X165210687Y-134124045D01*
X165200000Y-134073684D01*
X165200000Y-132324000D01*
X165219685Y-132256961D01*
X165272489Y-132211206D01*
X165324000Y-132200000D01*
X166376000Y-132200000D01*
X166443039Y-132219685D01*
G37*
G04 #@! TD.AperFunction*
M02*
