<?xml version="1.0" standalone="no"?>
<!DOCTYPE svg PUBLIC "-//W3C//DTD SVG 20010904//EN"
 "http://www.w3.org/TR/2001/REC-SVG-20010904/DTD/svg10.dtd">
<svg version="1.0" xmlns="http://www.w3.org/2000/svg"
 width="503.000000pt" height="500.000000pt" viewBox="0 0 503.000000 500.000000"
 preserveAspectRatio="xMidYMid meet">

<g transform="translate(0.000000,500.000000) scale(0.100000,-0.100000)"
fill="#000000" stroke="none">
<path d="M0 3587 l0 -1412 52 -13 c62 -14 68 -20 45 -36 -9 -7 -17 -18 -17
-24 0 -6 -18 -19 -40 -29 l-39 -18 0 -550 c0 -302 2 -545 5 -540 2 6 22 82 44
169 39 158 61 211 83 203 7 -2 13 -20 15 -40 3 -29 9 -40 33 -52 29 -16 38
-38 19 -50 -6 -4 -20 5 -31 19 -27 35 -36 33 -43 -10 -4 -19 -14 -38 -21 -41
-20 -7 -34 -62 -46 -177 -7 -73 -7 -102 2 -112 7 -8 9 -17 5 -21 -3 -3 -6 -1
-6 5 0 26 -18 10 -23 -21 -3 -17 -9 -46 -12 -63 -6 -26 -3 -32 13 -36 11 -3
25 -15 31 -27 10 -19 9 -21 -13 -21 -13 0 -27 7 -30 17 -12 30 -26 -6 -26 -67
0 -47 4 -57 28 -76 27 -22 27 -23 7 -38 -18 -13 -21 -13 -26 2 -4 9 -7 -17 -7
-58 -1 -55 3 -79 15 -92 15 -17 15 -18 0 -18 -13 0 -17 -9 -17 -35 0 -28 4
-35 20 -35 10 0 24 -8 29 -18 5 -10 29 -28 54 -40 57 -29 76 -50 56 -63 -20
-13 -21 -12 -53 31 -22 29 -37 40 -56 40 -14 0 -31 5 -38 12 -9 9 -12 4 -12
-23 0 -31 4 -36 42 -53 23 -10 48 -27 56 -37 7 -11 17 -17 22 -14 4 3 13 -1
19 -8 6 -8 23 -12 41 -9 27 4 30 2 31 -24 0 -25 2 -26 8 -9 10 24 4 43 -22 72
-11 13 -17 26 -13 30 4 4 10 3 14 -2 4 -6 26 -19 49 -30 22 -11 39 -23 37 -27
-3 -5 7 -8 23 -8 20 0 36 -10 55 -34 29 -36 100 -76 137 -76 18 0 20 3 11 19
-14 27 -65 52 -79 38 -15 -15 -41 0 -41 25 0 37 -27 68 -59 68 -21 0 -36 10
-55 35 -19 24 -35 35 -54 36 -18 0 -37 12 -56 35 l-29 35 29 -7 c16 -3 41 -18
56 -32 16 -14 28 -22 28 -16 0 5 5 1 11 -8 5 -10 18 -18 28 -18 10 0 28 -11
41 -25 12 -13 26 -22 30 -20 5 3 10 -2 14 -10 3 -8 13 -15 22 -15 10 0 26 -8
36 -17 11 -10 29 -18 41 -18 14 0 23 -9 28 -25 l7 -25 1 28 c1 17 6 27 17 27
8 0 12 4 9 10 -3 5 -19 10 -36 10 -16 0 -29 3 -29 8 0 18 -53 62 -75 62 -16 0
-33 12 -51 36 -21 27 -33 34 -53 32 -20 -2 -32 5 -54 34 -21 29 -34 38 -57 38
-17 0 -30 3 -30 8 0 4 -12 20 -26 35 -28 30 -26 51 1 23 9 -9 22 -16 29 -16 7
0 21 -9 30 -19 10 -11 38 -29 62 -40 24 -12 44 -25 44 -30 0 -11 56 -41 76
-41 8 0 21 -11 30 -24 8 -14 21 -23 28 -20 8 3 16 -2 19 -10 4 -9 14 -16 23
-16 9 0 27 -10 39 -23 37 -35 53 -47 68 -47 15 0 49 -26 106 -83 l38 -37 222
0 222 0 -6 48 c-4 26 -13 73 -20 104 -7 32 -8 55 -4 52 5 -3 9 -1 9 5 0 5 -6
12 -13 14 -7 3 -5 6 6 6 9 1 17 -5 18 -11 0 -16 59 -64 59 -49 0 7 31 11 84
11 72 0 88 3 120 25 44 30 48 30 71 5 9 -10 34 -24 54 -30 20 -6 46 -16 57
-22 17 -8 32 -5 68 10 25 12 49 28 52 36 8 21 31 9 38 -20 4 -13 13 -24 21
-24 20 0 19 -21 -1 -46 -8 -10 -13 -13 -9 -6 3 6 1 12 -4 12 -6 0 -11 -7 -11
-15 0 -8 -7 -15 -15 -15 -11 0 -14 -7 -9 -25 3 -14 2 -25 -4 -25 -5 0 -12 -10
-15 -23 -5 -18 -1 -15 23 13 16 19 30 38 30 42 0 12 50 -14 50 -26 1 -6 7 3
14 19 14 31 45 66 89 100 14 11 26 25 27 31 0 6 6 17 14 23 12 10 20 7 44 -16
26 -23 37 -27 78 -24 57 3 84 23 84 62 0 42 12 41 39 -2 42 -66 127 -86 209
-49 l44 20 42 -25 c45 -26 76 -30 211 -23 133 7 148 23 149 156 l1 96 34 23
c58 39 66 31 67 -72 3 -170 10 -185 90 -185 34 0 56 5 64 15 16 19 26 19 34
-2 4 -9 -1 -25 -13 -37 -19 -21 -19 -21 6 -63 24 -41 43 -55 43 -32 0 5 5 7
10 4 16 -10 12 -25 -7 -26 -11 0 -13 -3 -5 -6 6 -2 12 -12 12 -20 0 -14 2 -14
19 1 12 11 27 15 44 11 14 -4 33 -3 42 2 14 8 12 15 -13 64 -16 30 -27 60 -25
66 7 19 42 16 70 -7 14 -11 33 -20 42 -20 10 0 23 -6 30 -13 11 -10 13 -8 8
11 -4 18 0 25 19 32 21 8 29 6 49 -18 13 -15 25 -34 25 -43 0 -8 14 -34 31
-57 30 -41 32 -42 91 -42 56 0 59 1 53 21 -4 12 -18 34 -32 50 -33 36 -54 79
-47 91 8 12 34 -10 34 -28 0 -8 5 -14 10 -14 6 0 10 -5 10 -11 0 -6 11 -25 25
-43 14 -18 25 -40 25 -49 0 -20 46 -24 53 -4 4 9 6 9 6 0 1 -7 10 -13 21 -13
18 0 20 4 14 43 -4 23 -14 48 -23 55 -78 61 -85 72 -47 72 45 0 77 19 92 55
17 41 36 44 69 10 31 -30 32 -15 3 28 -13 18 -24 34 -25 36 -1 2 -9 -2 -17 -8
-22 -18 -25 -3 -23 103 2 94 3 98 30 118 27 20 36 63 21 102 -11 28 -77 37
-245 32 -124 -4 -169 -2 -194 9 -19 7 -36 11 -39 7 -3 -3 -6 0 -6 7 0 7 -4 10
-8 7 -5 -3 -9 0 -10 7 -3 34 -24 91 -65 177 -25 53 -50 116 -56 141 -6 25 -17
58 -26 75 -8 16 -15 41 -15 56 0 15 -4 29 -9 32 -5 3 -19 32 -32 63 -12 32
-36 77 -52 101 -75 111 -114 248 -123 427 -7 132 5 220 29 220 16 0 18 -12 22
-88 4 -107 15 -128 15 -31 0 67 7 111 31 201 11 39 14 42 38 36 14 -3 49 -16
76 -29 28 -13 84 -35 125 -49 41 -14 84 -30 95 -35 40 -19 150 -38 161 -29 6
5 15 5 19 1 5 -4 5 -2 2 5 -4 6 -16 9 -27 6 -11 -3 -20 -1 -20 5 0 5 -12 13
-27 16 -38 10 -289 135 -303 151 -18 22 24 28 75 11 25 -9 51 -16 57 -16 18 0
172 -72 206 -96 35 -26 27 3 -10 37 -28 25 -98 64 -186 103 -13 5 -38 10 -56
10 l-33 0 23 45 c16 33 19 48 11 53 -22 14 -36 8 -73 -31 -23 -26 -41 -38 -51
-34 -9 4 -21 -1 -27 -9 -7 -10 -18 -12 -31 -7 -11 4 -14 8 -7 8 16 1 16 57 -1
64 -9 3 -13 19 -11 44 1 21 2 55 3 77 1 33 4 38 21 33 17 -4 20 0 20 34 0 21
-4 39 -10 39 -5 0 -10 11 -10 24 0 22 5 25 58 31 51 6 65 3 127 -25 39 -17 82
-38 97 -46 14 -7 37 -14 51 -14 13 0 49 -11 78 -24 30 -14 77 -31 104 -37 28
-7 61 -22 74 -33 16 -14 25 -17 28 -9 5 14 73 -46 179 -156 53 -56 77 -74 100
-75 17 -2 36 -6 42 -10 7 -4 12 -4 12 1 0 10 -66 63 -78 63 -6 0 -12 7 -16 15
-3 8 -1 15 4 15 11 0 52 -21 60 -31 8 -10 88 -49 99 -49 18 0 -5 44 -30 57
-13 7 -20 13 -16 13 5 0 -8 17 -27 38 -32 33 -34 37 -16 40 11 2 43 -9 72 -24
86 -45 88 -45 88 -33 0 12 -38 66 -72 103 -23 25 -23 43 -1 25 30 -23 48 -42
49 -51 1 -4 2 -13 3 -19 0 -6 8 -9 16 -5 8 3 21 -2 30 -10 20 -20 19 -5 -1 24
-20 29 -12 39 21 24 28 -13 33 -1 10 22 -9 8 -22 13 -30 9 -9 -3 -34 10 -58
30 -31 25 -50 34 -68 30 -24 -4 -79 28 -79 47 0 19 39 15 66 -6 33 -27 54 -31
54 -9 0 8 -7 15 -14 15 -8 0 -27 11 -41 24 -25 23 -33 25 -120 23 -82 -2 -97
-6 -118 -25 -13 -12 -28 -22 -33 -22 -6 0 -20 -14 -33 -31 -18 -24 -25 -28
-37 -18 -7 6 -25 9 -39 7 -14 -3 -25 -1 -25 3 0 9 24 13 68 11 26 -1 29 10 7
28 -13 11 -18 10 -29 -5 -22 -31 -38 -9 -21 31 12 30 12 34 -1 34 -8 0 -12 -4
-9 -10 3 -5 -1 -10 -9 -10 -8 0 -19 6 -23 14 -4 8 -17 14 -27 13 -13 -1 -26
10 -39 35 -11 20 -29 39 -40 42 -16 4 -19 11 -14 40 7 44 -4 49 -108 52 -61 1
-92 7 -124 23 -24 13 -49 20 -56 17 -7 -2 -21 2 -32 9 -14 11 -15 14 -3 15 13
0 13 1 0 10 -8 5 -12 12 -8 15 3 4 0 18 -8 33 -9 17 -10 30 -3 38 6 8 5 14 -6
18 -9 3 -14 10 -10 15 18 30 -252 25 -435 -8 -58 -10 -106 -17 -108 -16 -2 2
11 9 28 16 26 12 30 18 25 40 -5 23 -2 27 32 37 38 11 188 38 253 45 33 4 33
4 -7 5 -27 1 -46 8 -55 20 -7 9 -25 25 -40 35 -28 17 -48 68 -48 120 0 30 14
36 28 11 8 -14 10 -12 16 10 4 15 4 31 0 37 -3 5 0 16 6 24 7 8 10 26 8 40 -4
19 -1 25 13 25 11 0 19 -4 19 -10 0 -5 5 -10 10 -10 16 0 12 47 -5 54 -8 3
-15 17 -15 31 0 33 -26 95 -40 95 -6 0 -8 10 -5 23 4 15 1 28 -9 36 -9 8 -16
23 -16 35 0 29 -46 73 -85 81 -78 17 -108 42 -79 66 17 14 84 5 95 -13 6 -9
11 -10 18 -3 7 7 -1 23 -24 48 -19 21 -35 42 -35 46 0 5 -7 11 -15 15 -14 5
-22 46 -9 46 3 0 15 -12 27 -26 18 -23 21 -24 29 -9 15 26 2 43 -36 51 -21 3
-33 10 -29 17 3 6 1 7 -5 3 -12 -7 -126 29 -149 47 -8 5 -13 6 -13 0 0 -8
-103 -43 -128 -43 -7 0 -15 -6 -18 -13 -2 -7 -14 -13 -25 -14 -30 -3 -50 -23
-44 -43 3 -10 0 -24 -8 -31 -7 -8 -15 -18 -18 -24 -2 -5 -11 -8 -20 -7 -25 4
-52 -43 -39 -68 6 -11 17 -20 25 -20 20 0 19 -29 -1 -37 -8 -3 -25 4 -39 17
-17 16 -31 21 -48 16 -33 -8 -44 -51 -21 -77 31 -34 20 -81 -31 -133 -44 -46
-55 -66 -35 -66 6 0 10 -13 10 -30 0 -16 -4 -30 -10 -30 -5 0 -10 7 -10 16 0
11 -8 15 -30 12 -39 -4 -70 23 -70 61 0 17 5 33 10 36 6 3 10 13 10 21 0 10
-7 13 -23 9 -37 -10 -97 30 -97 63 0 19 -3 23 -9 14 -7 -11 -11 -11 -23 2 -9
8 -18 12 -22 9 -3 -4 -6 5 -6 19 0 30 -23 53 -46 44 -22 -8 -12 -47 42 -169
25 -56 44 -116 45 -140 1 -23 6 -52 10 -64 5 -12 11 -55 15 -95 24 -280 24
-330 -1 -358 -8 -9 -12 -19 -9 -22 6 -7 -23 -37 -52 -54 -10 -6 -21 -25 -25
-43 -6 -27 -5 -30 9 -19 13 11 14 10 10 -2 -2 -8 -13 -15 -24 -15 -10 0 -30
-12 -44 -27 -13 -16 -29 -28 -34 -28 -22 0 -115 -53 -141 -80 -16 -17 -32 -30
-37 -30 -4 0 -17 -9 -28 -20 -11 -11 -31 -20 -44 -20 -13 0 -31 -3 -40 -6 -18
-7 -21 -39 -5 -50 6 -3 18 -22 26 -42 l14 -35 53 7 c35 4 74 18 112 41 66 40
94 44 94 16 0 -11 11 -32 24 -48 24 -29 68 -94 99 -147 37 -62 73 -71 121 -32
30 25 56 25 56 0 0 -8 7 -14 15 -14 8 0 15 -1 16 -2 0 -2 2 -50 5 -108 3 -58
9 -117 14 -132 5 -16 5 -51 1 -80 -5 -29 -7 -100 -5 -158 3 -108 -10 -196 -42
-278 -9 -24 -14 -54 -11 -68 2 -13 0 -27 -4 -30 -5 -3 -9 -20 -9 -37 0 -46
-11 -78 -23 -70 -6 4 -8 -2 -4 -16 3 -14 0 -24 -9 -28 -7 -3 -16 -21 -19 -41
-3 -21 -10 -45 -15 -54 -5 -9 -14 -44 -19 -78 -6 -36 -30 -103 -59 -163 -27
-56 -55 -116 -61 -133 -11 -29 -17 -32 -69 -38 -69 -9 -67 -9 -119 0 -61 10
-108 -3 -147 -39 l-34 -33 -36 33 c-26 24 -45 33 -70 33 -55 0 -95 11 -99 29
-4 13 -5 13 -6 1 0 -9 -15 -21 -31 -27 -52 -19 -63 -64 -61 -236 2 -116 0
-147 -11 -148 -7 0 -4 -5 7 -10 19 -9 19 -9 0 -6 -23 3 -27 19 -50 200 -16
126 -17 214 -1 250 7 14 3 17 -17 17 -27 0 -31 20 -9 42 17 17 15 58 -3 58 -9
0 -18 7 -21 15 -4 8 -10 15 -15 15 -5 0 -9 -7 -9 -15 0 -8 5 -15 10 -15 7 0 7
-6 1 -18 -6 -12 -6 -33 -1 -58 13 -55 13 -57 -15 -50 -21 5 -27 2 -35 -19 -9
-22 -4 -33 30 -76 22 -28 40 -60 40 -70 0 -11 6 -32 14 -47 8 -15 21 -77 30
-137 8 -61 23 -157 31 -214 9 -57 14 -106 11 -109 -3 -2 -12 1 -20 8 -16 12
-82 108 -104 149 -49 94 -66 120 -73 115 -5 -3 -6 2 -3 11 4 8 -1 26 -10 40
-9 13 -16 30 -16 37 0 24 -21 90 -27 84 -10 -9 -34 46 -28 63 3 9 -4 5 -15 -8
l-20 -23 0 34 c0 27 -5 37 -24 46 -17 8 -27 24 -36 61 -7 28 -16 51 -21 51 -5
0 -9 8 -9 18 0 13 -2 14 -9 4 -6 -11 -9 -9 -13 6 -3 11 -2 26 3 33 6 10 9 11
9 2 0 -7 7 -13 15 -13 8 0 15 7 15 15 0 9 -9 15 -24 15 -20 0 -24 6 -30 46 -9
68 -7 113 5 135 5 11 7 29 4 41 -6 17 -13 19 -43 15 -29 -5 -202 21 -265 39
-21 7 -22 30 -2 42 9 4 18 25 22 47 l6 38 -21 -21 c-29 -29 -46 -29 -32 -1 7
11 9 32 5 46 -5 21 -10 24 -33 20 -66 -13 -67 -13 -64 11 1 15 -2 22 -10 20
-14 -5 -68 63 -60 76 2 4 7 4 11 0 14 -20 72 -54 81 -49 16 10 12 21 -16 55
-15 17 -24 33 -21 36 6 6 43 -14 73 -39 31 -27 40 -4 15 37 -12 18 -21 36 -21
40 0 7 36 -12 62 -32 38 -31 43 12 6 52 -20 22 -23 36 -8 36 6 0 10 -4 10 -10
0 -5 8 -10 18 -10 10 0 25 -9 35 -20 10 -12 22 -18 27 -15 6 4 13 -1 16 -9 3
-9 14 -16 24 -16 10 0 23 -7 30 -15 17 -20 30 -19 30 3 0 25 -44 64 -68 60
-12 -2 -29 9 -47 30 -20 24 -34 32 -49 28 -14 -4 -28 4 -47 27 -26 31 -26 31
-34 8 -6 -19 -12 -22 -33 -16 -43 10 -58 30 -44 59 10 23 8 29 -16 51 -15 14
-30 25 -34 25 -5 0 -8 7 -8 15 0 27 24 16 80 -37 30 -28 59 -51 63 -50 4 1 10
-5 13 -13 4 -8 14 -15 24 -15 9 0 25 -9 34 -19 10 -11 24 -17 31 -15 7 3 15
-2 18 -10 4 -9 13 -16 20 -16 8 0 20 -7 27 -15 7 -8 16 -15 21 -15 17 0 9 37
-11 55 -12 11 -19 29 -18 44 1 15 -9 41 -21 58 -20 26 -28 30 -46 23 -18 -7
-25 -4 -35 16 -17 31 -11 37 24 19 16 -8 34 -15 41 -15 7 0 15 -3 17 -7 3 -9
64 -53 73 -53 12 0 3 37 -14 59 -11 14 -28 24 -45 24 -18 0 -33 9 -46 27 -11
16 -20 31 -20 34 0 8 39 -14 67 -38 23 -19 23 -19 23 6 0 14 -10 37 -21 52
-12 15 -18 30 -14 34 3 4 11 -1 16 -11 6 -9 16 -17 23 -17 8 0 19 -7 26 -15 7
-9 19 -14 27 -11 7 3 13 1 13 -5 0 -5 14 -15 30 -20 17 -6 30 -15 30 -20 0 -5
7 -9 15 -9 22 0 18 21 -9 52 -16 18 -30 25 -44 21 -23 -6 -71 50 -71 82 1 11
-2 30 -6 43 -9 27 5 28 35 2 20 -17 20 -20 6 -26 -28 -11 -18 -42 19 -60 20
-9 38 -14 41 -12 7 7 -17 58 -28 58 -4 0 -8 11 -8 25 0 15 -7 40 -16 56 -8 17
-13 33 -10 37 3 3 6 0 6 -6 0 -7 7 -12 16 -12 17 0 44 -23 44 -38 0 -6 -7 -12
-15 -16 -24 -9 -18 -21 25 -49 49 -32 58 -21 24 28 -14 21 -23 43 -20 50 2 7
-7 29 -20 49 -14 20 -23 36 -21 36 10 0 67 -32 72 -41 4 -5 10 -9 16 -9 17 0
9 29 -15 55 -21 22 -28 25 -45 15 -19 -9 -21 -8 -21 15 0 26 24 36 33 13 3 -9
8 -10 15 -3 14 13 -23 75 -45 75 -8 0 -28 -9 -44 -21 -23 -16 -33 -18 -43 -10
-8 7 -30 13 -51 15 -20 1 -40 8 -45 16 -5 9 -16 10 -36 5 -37 -11 -214 -15
-214 -6 0 27 147 49 157 24 3 -8 10 -10 22 -4 9 5 29 7 44 4 16 -3 27 -1 27 5
0 6 20 25 45 42 41 28 60 60 35 60 -5 0 -10 -9 -10 -19 0 -20 -17 -31 -38 -24
-10 4 -9 11 4 31 9 15 23 31 31 35 7 4 18 28 24 52 10 41 39 71 39 40 0 -9 6
-12 17 -8 11 4 12 8 5 11 -13 4 -17 82 -4 82 18 0 27 77 18 157 -9 77 -8 84
17 136 15 30 27 64 27 75 0 12 5 21 12 20 13 -3 15 3 17 57 1 45 21 46 21 0 0
-20 6 -37 15 -42 11 -7 15 -30 16 -96 1 -79 3 -87 21 -87 10 0 18 -6 16 -12
-1 -7 6 -40 16 -72 17 -52 20 -57 27 -37 5 12 13 19 19 16 5 -3 10 3 10 13 0
28 40 51 92 53 l45 3 -5 68 c-2 44 0 68 7 68 6 0 8 6 5 14 -3 8 2 28 11 45 9
18 14 35 11 39 -2 4 -5 41 -6 82 -3 116 -8 135 -40 153 -35 21 -70 22 -70 2 0
-8 -7 -15 -15 -15 -8 0 -15 -4 -15 -10 0 -5 -7 -10 -15 -10 -8 0 -15 5 -15 10
0 6 -22 10 -50 10 l-50 0 -1 43 c-1 23 0 68 1 101 1 43 -1 56 -10 51 -6 -4 -9
-17 -6 -29 3 -13 0 -30 -7 -38 -16 -21 -57 -33 -57 -18 0 7 -10 20 -22 31
l-23 18 22 1 c12 0 23 -6 26 -12 4 -10 7 -10 18 0 11 10 10 12 -5 12 -16 0
-18 6 -13 35 7 41 42 95 62 95 8 0 16 -12 18 -27 3 -20 4 -16 6 14 1 31 7 46
24 58 15 12 18 19 9 22 -16 6 -5 23 14 23 18 0 53 38 54 57 0 7 19 26 43 43
55 39 64 47 74 65 7 11 55 18 218 31 116 9 216 18 223 20 10 3 10 9 2 24 -9
18 -21 20 -95 20 -57 0 -85 4 -88 13 -4 8 -6 8 -6 -2 -1 -11 -4 -10 -14 4 -12
15 -19 16 -43 8 -29 -10 -76 -4 -74 9 8 37 15 48 31 48 11 0 19 -4 19 -9 0
-15 51 -23 66 -10 11 9 14 9 14 -1 0 -9 7 -7 20 5 11 10 20 26 20 35 0 19 -39
72 -40 55 0 -14 -58 -48 -69 -41 -5 3 -11 -1 -15 -9 -7 -19 -26 -20 -26 -2 0
8 11 19 25 25 14 6 25 18 25 26 0 8 8 20 18 26 16 10 16 10 0 20 -22 13 -23
53 -3 70 12 10 21 10 40 2 14 -7 25 -16 25 -22 0 -5 9 -10 20 -10 21 0 27 15
10 25 -13 8 18 55 36 55 8 0 15 5 16 10 5 37 6 36 -55 39 -23 1 -28 5 -25 24
2 18 12 23 53 30 147 24 217 44 197 56 -19 12 25 63 48 56 10 -3 25 1 33 10 9
8 20 15 25 15 13 0 22 25 22 60 0 22 5 29 23 32 14 2 23 11 25 26 2 13 10 26
18 29 8 3 14 13 14 23 0 26 -88 33 -96 8 -8 -27 -33 -21 -39 10 -4 15 -10 34
-15 43 -12 23 21 53 49 44 26 -8 61 26 61 61 0 43 17 64 54 64 19 0 39 6 46
14 6 8 18 12 26 9 9 -3 14 2 14 15 0 14 9 22 29 27 l29 6 -24 26 c-27 30 -27
45 2 53 29 8 24 48 -16 113 l-35 57 -882 0 -883 0 0 -1413z m1760 1188 c0 -9
-9 -15 -21 -15 -18 0 -19 2 -9 15 7 8 16 15 21 15 5 0 9 -7 9 -15z m-576 -671
c22 -8 20 -21 -4 -29 -28 -9 -44 3 -29 21 13 16 12 16 33 8z m-164 -124 c0
-13 -7 -20 -20 -20 -19 0 -27 20 -13 33 13 14 33 6 33 -13z m1616 -225 c3 -13
4 -56 1 -94 -5 -62 -3 -72 13 -84 11 -8 23 -31 28 -53 4 -23 16 -43 27 -49 62
-32 85 -59 91 -107 5 -40 10 -48 27 -48 20 0 21 0 1 -15 -17 -13 -17 -14 -1
-15 9 0 17 -4 17 -10 0 -5 9 -10 19 -10 11 0 22 -4 25 -8 3 -5 -3 -8 -12 -8
-47 0 -72 -5 -72 -13 0 -5 8 -11 17 -13 11 -2 1 -9 -24 -17 -34 -11 -45 -12
-58 -1 -8 7 -12 16 -10 21 9 13 -20 73 -55 112 -35 41 -49 46 -46 20 1 -13 -8
-19 -32 -21 -33 -3 -66 13 -57 28 12 19 -38 16 -63 -4 -58 -47 -81 -57 -102
-46 -22 12 -26 25 -10 35 5 3 7 12 3 21 -6 17 21 50 57 69 26 13 31 21 69 110
17 41 20 64 17 133 -4 70 -2 82 12 82 8 0 23 -7 32 -15 15 -14 19 -13 35 5 24
27 43 25 51 -5z m-219 -52 c-15 -15 -57 -10 -57 7 0 10 39 18 58 12 11 -4 11
-8 -1 -19z m-407 -454 c0 -6 -4 -7 -10 -4 -5 3 -10 11 -10 16 0 6 5 7 10 4 6
-3 10 -11 10 -16z m172 -31 c12 -24 27 -56 33 -73 6 -16 16 -29 23 -27 7 1 12
-7 12 -18 0 -15 -9 -22 -30 -26 -29 -6 -35 -17 -31 -54 4 -28 -43 46 -109 172
l-30 57 23 4 c70 14 86 9 109 -35z m178 32 c0 -5 -4 -10 -9 -10 -6 0 -13 5
-16 10 -3 6 1 10 9 10 9 0 16 -4 16 -10z m-101 -97 c1 -7 -3 -13 -9 -13 -5 0
-10 17 -9 38 1 33 2 34 9 12 4 -14 8 -31 9 -37z m-229 -100 c0 -7 -4 -13 -9
-13 -14 0 -41 42 -35 52 8 12 44 -21 44 -39z m-29 -73 c27 -15 24 -30 -7 -30
-22 0 -25 -2 -14 -15 10 -12 10 -15 -4 -15 -12 0 -16 9 -16 35 0 37 9 42 41
25z m196 -272 c-3 -8 -6 -5 -6 6 -1 11 2 17 5 13 3 -3 4 -12 1 -19z m899 -183
c19 -15 19 -15 -1 -30 -18 -14 -20 -14 -26 2 -7 19 -7 19 -22 -27 -3 -8 -6 1
-6 21 -1 52 17 63 55 34z m-1086 -10 c14 -16 5 -54 -9 -39 -14 15 -23 54 -13
54 5 0 15 -7 22 -15z m980 0 c-11 -13 -8 -15 15 -15 22 0 25 -3 16 -14 -18
-21 -51 -8 -51 20 0 15 6 24 16 24 14 0 14 -3 4 -15z m-1072 -35 c5 -43 24
-70 49 -70 25 0 93 -25 93 -34 0 -3 -19 -26 -43 -50 -36 -38 -45 -43 -61 -34
-15 9 -22 7 -32 -7 -12 -16 -19 -12 -82 53 -91 93 -94 108 -34 133 26 10 54
23 62 29 24 15 45 7 48 -20z m656 -2 c25 -49 18 -76 -12 -46 -11 11 -18 78 -8
78 3 0 12 -14 20 -32z m376 6 c0 -16 -40 -45 -52 -38 -9 6 -11 48 -3 56 10 10
55 -4 55 -18z m-895 6 c-3 -5 -10 -10 -16 -10 -5 0 -9 5 -9 10 0 6 7 10 16 10
8 0 12 -4 9 -10z m-1525 -71 c0 -24 -23 -21 -28 4 -2 10 3 17 12 17 10 0 16
-9 16 -21z m2554 -21 c-5 -13 -7 -34 -7 -48 2 -37 -15 -62 -36 -55 -10 3 -30
0 -44 -6 -24 -11 -25 -13 -20 -88 6 -76 5 -77 -26 -109 -30 -29 -38 -32 -97
-32 -48 0 -66 -4 -70 -15 -5 -12 -27 -15 -115 -15 l-109 0 0 30 c0 24 4 30 21
30 11 0 18 4 14 9 -3 5 3 12 12 14 11 3 8 5 -9 6 -43 2 -33 16 12 17 29 2 40
-2 43 -15 8 -30 6 114 -2 154 l-9 40 -2 -35 c-1 -19 -4 -27 -7 -17 -6 22 -9
21 -44 -4 l-29 -20 0 20 c0 11 12 29 27 38 l27 18 -29 5 c-21 4 -31 12 -33 26
-3 21 2 22 140 30 183 11 206 9 237 -20 14 -13 43 -27 64 -30 36 -7 37 -6 37
24 0 42 16 70 41 70 17 0 19 -4 13 -22z m-574 -163 c0 -69 4 -125 9 -125 5 0
6 -12 2 -27 l-7 -28 -118 -3 -118 -3 -34 31 c-19 16 -34 32 -33 35 14 49 17
99 7 115 -14 21 0 54 45 104 21 25 27 26 135 26 l112 0 0 -125z m-457 15 c-3
-11 -9 -23 -14 -26 -10 -6 -12 29 -2 39 13 13 21 7 16 -13z m492 -67 c0 -24
-6 -48 -13 -55 -10 -10 -12 3 -10 60 1 58 4 68 13 54 7 -9 11 -36 10 -59z m22
-15 c-2 -13 -4 -3 -4 22 0 25 2 35 4 23 2 -13 2 -33 0 -45z m-2197 -208 c0 -5
-4 -10 -10 -10 -5 0 -10 5 -10 10 0 6 5 10 10 10 6 0 10 -4 10 -10z m-83 -89
c-9 -27 -17 -55 -17 -63 0 -18 -56 -72 -63 -61 -9 14 10 144 22 156 8 8 11 7
11 -2 0 -8 10 -2 21 13 33 43 48 18 26 -43z m221 -72 c-16 -10 -33 5 -23 21 5
8 11 8 21 -1 12 -10 12 -14 2 -20z m-138 -199 c0 -5 9 -10 20 -10 11 0 20 -4
20 -10 0 -5 8 -10 17 -10 17 0 53 -27 53 -40 0 -4 -9 -10 -20 -13 -14 -4 -24
2 -32 16 -18 34 -33 45 -63 49 -33 4 -47 28 -16 28 12 0 21 -4 21 -10z m-17
-144 c7 -16 -1 -26 -20 -26 -7 0 -13 9 -13 20 0 23 25 27 33 6z m-38 -324 c-2
-2 -13 2 -25 8 -18 9 -19 14 -9 26 11 13 14 12 25 -8 7 -13 11 -24 9 -26z
m-60 8 c3 -5 1 -10 -4 -10 -6 0 -11 5 -11 10 0 6 2 10 4 10 3 0 8 -4 11 -10z
m2575 -179 c19 -3 42 -10 50 -16 27 -17 51 -65 45 -85 -4 -14 -2 -20 9 -20 35
0 7 -30 -63 -67 -29 -16 -32 -16 -25 1 6 17 -18 27 -37 15 -8 -5 -30 -9 -50
-9 l-36 0 -6 62 c-3 36 -1 71 5 83 19 37 41 56 57 49 9 -4 32 -10 51 -13z
m-449 -41 c14 -8 19 -21 19 -55 0 -25 -4 -45 -10 -45 -5 0 -10 -7 -10 -15 0
-22 -14 -19 -50 11 -20 18 -28 30 -21 37 5 5 7 16 4 24 -6 14 23 53 39 53 5 0
18 -5 29 -10z m-2201 -134 c0 -6 -11 2 -25 18 -32 37 -32 46 0 16 14 -13 25
-28 25 -34z m2086 36 c16 -11 34 -48 34 -72 0 -11 8 -23 18 -27 9 -3 25 -12
34 -20 12 -11 22 -12 35 -5 21 12 68 5 82 -12 13 -16 1 -66 -16 -66 -8 0 -24
5 -36 12 -37 20 -159 39 -173 27 -9 -8 -16 -5 -24 10 -6 12 -7 21 -3 21 4 0 1
6 -8 13 -15 11 -49 68 -49 82 0 3 14 11 30 16 17 6 30 15 30 20 0 11 31 12 46
1z m-2136 -57 c7 -8 18 -15 25 -15 7 0 15 -7 19 -15 3 -8 14 -15 23 -15 10 0
26 -9 36 -20 10 -12 22 -18 27 -15 6 4 13 -1 16 -9 3 -9 14 -16 25 -16 10 0
24 -8 31 -17 15 -20 52 -43 69 -43 6 0 19 -8 28 -18 23 -25 67 -52 86 -52 9 0
18 -6 21 -14 8 -21 36 -29 46 -14 5 9 8 6 8 -9 0 -12 8 -27 19 -32 19 -11 36
-51 21 -51 -5 0 -20 14 -33 30 -28 33 -61 39 -71 14 -7 -19 10 -44 29 -44 15
0 85 -62 85 -75 0 -5 -5 -4 -12 3 -16 16 -58 15 -58 0 0 -7 -7 0 -16 17 -24
47 -45 65 -73 65 -18 0 -35 11 -54 35 -18 23 -36 35 -52 35 -16 0 -33 12 -51
35 -19 25 -34 35 -54 35 -20 0 -35 10 -54 34 -14 19 -22 37 -17 40 5 3 11 -1
15 -9 3 -8 12 -15 19 -15 8 0 21 -7 28 -17 8 -9 33 -24 55 -35 23 -10 47 -25
54 -33 7 -8 29 -23 49 -32 20 -9 46 -25 58 -36 22 -19 43 -16 43 7 0 17 -59
76 -76 76 -7 0 -18 -8 -23 -17 -10 -17 -10 -16 -11 2 0 30 -54 85 -77 79 -13
-4 -28 6 -50 34 -24 30 -37 38 -55 35 -18 -3 -29 5 -47 32 -20 30 -29 36 -51
32 -21 -5 -29 1 -48 29 -12 18 -22 36 -22 38 0 8 58 -24 70 -39z m130 -10 c21
-21 28 -35 19 -35 -7 0 -24 16 -37 35 -12 19 -21 35 -19 35 2 0 18 -16 37 -35z
m2795 -32 c7 -39 -10 -63 -44 -63 -28 0 -90 -20 -104 -34 -23 -24 -51 -26 -74
-6 -23 18 -30 40 -14 40 5 0 7 9 4 20 -9 33 35 73 73 67 17 -3 46 -2 65 3 73
17 86 13 94 -27z m-2615 2 c18 -19 20 -25 8 -25 -9 0 -23 11 -32 25 -9 14 -13
25 -8 25 5 0 19 -11 32 -25z m-100 -4 c0 -5 12 -14 28 -20 30 -12 59 -29 80
-48 7 -7 19 -13 26 -13 7 0 21 -9 31 -20 17 -19 20 -19 28 -5 7 12 1 27 -22
55 -35 44 -32 59 6 24 14 -13 29 -22 33 -19 4 3 13 -2 20 -10 21 -25 33 -17
26 16 -5 25 -3 29 7 20 8 -6 12 -23 9 -40 -2 -16 1 -32 7 -35 6 -4 11 -12 11
-18 0 -6 -8 -4 -18 5 -22 20 -58 22 -65 4 -7 -18 2 -29 38 -47 36 -19 46 -50
16 -50 -11 0 -30 14 -44 31 -15 20 -34 31 -52 32 -18 2 -37 14 -57 39 -25 32
-32 36 -53 28 -19 -7 -25 -6 -30 9 -3 10 -14 26 -25 36 -22 20 -26 35 -10 35
6 0 10 -4 10 -9z m-206 -46 c20 -8 36 -17 36 -19 0 -3 3 -11 6 -20 11 -30 -30
-16 -59 20 -33 39 -32 39 17 19z m-27 -75 c18 -22 16 -30 -8 -27 -19 3 -68 52
-69 69 0 10 62 -24 77 -42z m1271 -6 c46 -30 56 -111 19 -148 -23 -23 -23 -23
-3 -32 26 -12 38 -57 32 -118 -8 -78 -21 -86 -143 -86 l-103 0 0 206 0 207 88
-7 c49 -4 97 -14 110 -22z m281 12 c43 -23 51 -54 51 -201 0 -135 0 -135 -29
-167 -27 -31 -34 -33 -91 -33 -57 0 -64 2 -91 33 l-29 32 0 143 c0 151 5 168
55 195 28 16 101 15 134 -2z m291 -32 c0 -42 -1 -44 -30 -44 l-30 0 0 -160 0
-160 -55 0 -55 0 0 160 0 160 -30 0 c-29 0 -30 2 -30 44 l0 44 115 0 115 -1 0
-43z m240 0 c0 -42 -1 -44 -30 -44 l-30 0 0 -160 0 -160 -55 0 -55 0 0 160 0
160 -30 0 c-28 0 -30 2 -30 38 0 21 2 41 4 43 2 2 54 4 115 5 l111 1 0 -43z
m209 32 c43 -23 51 -54 51 -201 0 -135 0 -135 -29 -167 -27 -31 -34 -33 -91
-33 -57 0 -64 2 -91 33 l-29 32 0 138 c1 147 8 174 51 198 32 18 103 17 138 0z
m232 -21 c4 -17 11 -57 15 -90 l8 -60 10 90 11 90 70 0 70 0 3 -202 2 -203
-50 0 -50 0 -1 108 -1 107 -15 -108 -15 -107 -33 0 c-38 0 -35 -7 -57 145
l-13 90 -3 -117 -3 -118 -44 0 -45 0 0 205 0 204 67 -2 c65 -2 67 -3 74 -32z
m529 -12 c0 -41 -1 -43 -30 -43 l-30 0 0 -160 0 -160 -55 0 -55 0 0 160 0 160
-30 0 c-29 0 -30 2 -30 45 l0 44 115 -2 115 -2 0 -42z m198 -1 l3 -42 -35 0
c-34 0 -36 -2 -36 -35 0 -32 2 -35 30 -35 28 0 30 -2 30 -40 0 -38 -2 -40 -30
-40 -29 0 -30 -2 -30 -45 0 -45 0 -45 35 -45 34 0 35 -1 35 -40 l0 -40 -90 0
-90 0 0 204 0 203 88 -1 87 -2 3 -42z m127 35 c2 -7 7 -30 11 -52 l7 -40 11
50 c11 50 11 50 54 53 49 4 48 7 26 -103 -15 -79 -15 -82 10 -184 14 -57 26
-108 26 -112 0 -5 -22 -9 -49 -9 l-49 0 -11 50 c-6 28 -12 59 -12 68 -2 27
-17 -39 -18 -80 l-1 -38 -55 0 c-30 0 -55 3 -55 8 0 4 8 54 18 112 17 101 18
109 1 185 -10 44 -18 85 -18 90 -1 15 99 17 104 2z m367 -33 c3 -44 3 -44 -29
-44 l-33 0 0 -160 0 -160 -55 0 -55 0 0 160 0 160 -30 0 c-28 0 -30 2 -30 38
0 21 2 41 4 43 2 2 54 5 114 5 l110 2 4 -44z m-3680 -14 c8 0 25 -11 38 -25
l23 -25 -25 0 c-26 0 -78 49 -78 73 0 7 7 4 14 -5 7 -10 20 -18 28 -18z m-66
-50 c14 0 27 -7 30 -15 3 -8 27 -25 52 -37 26 -13 53 -31 60 -40 7 -10 19 -18
26 -18 8 0 19 -7 26 -15 7 -8 16 -13 20 -10 4 2 18 -7 30 -20 13 -14 29 -25
37 -25 7 0 13 -4 13 -10 0 -5 8 -10 18 -10 11 0 27 -9 37 -20 10 -11 24 -20
32 -20 7 0 13 -4 13 -10 0 -5 8 -10 18 -10 10 0 29 -11 42 -25 29 -30 40 -32
40 -4 0 35 -38 79 -69 79 -19 0 -37 11 -59 36 -22 25 -38 34 -54 32 -17 -2
-31 7 -51 34 -21 28 -36 38 -56 38 -19 0 -34 9 -49 30 -25 34 -30 59 -6 36 8
-9 21 -16 27 -16 7 -1 28 -14 47 -30 19 -17 42 -30 51 -30 9 0 24 -9 34 -20
10 -12 24 -19 31 -16 7 3 14 -4 17 -15 3 -11 14 -19 26 -19 11 0 26 -9 33 -20
7 -11 20 -20 29 -20 9 0 19 -6 22 -14 3 -8 16 -16 28 -18 12 -2 29 -13 37 -26
14 -21 14 -23 -6 -29 -30 -7 -30 -53 -2 -60 26 -7 56 -59 38 -65 -7 -3 -25 13
-40 34 -20 26 -36 38 -53 38 -14 0 -25 -6 -25 -12 0 -7 -7 0 -16 17 -24 47
-45 65 -74 65 -20 0 -34 9 -51 35 -18 27 -31 35 -54 35 -23 0 -36 8 -54 35
-17 26 -31 35 -51 35 -20 0 -35 10 -54 35 -20 26 -35 35 -56 35 -20 0 -35 8
-49 29 -12 16 -21 33 -20 38 0 4 3 2 6 -4 2 -7 16 -13 29 -13z m1871 -37 c3
-7 -4 -9 -16 -6 -12 3 -18 9 -15 15 7 11 26 6 31 -9z m1673 -60 c0 -82 -12
-90 -27 -18 -11 53 -5 95 13 95 11 0 14 -17 14 -77z m-3578 29 c23 -20 23 -32
-1 -32 -11 0 -30 14 -42 31 l-22 31 24 -7 c13 -4 32 -14 41 -23z m1908 -43 c0
-20 -21 -49 -35 -49 -19 0 -19 10 1 38 16 23 34 29 34 11z m-1907 -51 c55 -31
73 -58 38 -58 -10 0 -31 16 -45 35 -29 38 -28 42 7 23z m3287 -8 c0 -5 -2 -10
-4 -10 -3 0 -8 5 -11 10 -3 6 -1 10 4 10 6 0 11 -4 11 -10z m314 -166 c9 -3
16 -12 16 -19 0 -7 16 -32 35 -55 19 -23 32 -46 29 -51 -8 -13 -24 -11 -24 4
0 7 -22 36 -50 65 -27 29 -50 55 -50 57 0 7 25 6 44 -1z m-106 -55 c33 -31 39
-53 22 -79 -8 -12 -10 -11 -10 8 0 38 -34 87 -52 76 -4 -3 -8 2 -8 10 0 23 11
20 48 -15z"/>
<path d="M2381 3384 c0 -11 3 -14 6 -6 3 7 2 16 -1 19 -3 4 -6 -2 -5 -13z"/>
<path d="M2687 2228 c5 -90 16 -128 28 -96 3 8 5 52 3 99 -2 68 -6 84 -19 87
-15 3 -16 -8 -12 -90z"/>
<path d="M2226 675 c4 -8 10 -12 15 -9 11 6 2 24 -11 24 -5 0 -7 -7 -4 -15z"/>
<path d="M1290 500 c0 -29 4 -40 13 -37 6 2 12 19 12 37 0 18 -6 35 -12 38 -9
2 -13 -9 -13 -38z"/>
<path d="M1290 335 c0 -41 3 -56 13 -52 7 2 12 22 12 52 0 30 -5 50 -12 53
-10 3 -13 -12 -13 -53z"/>
<path d="M1575 518 c-11 -58 -1 -241 13 -246 9 -3 12 29 12 137 0 83 -4 141
-10 141 -5 0 -12 -15 -15 -32z"/>
<path d="M2316 534 c-8 -20 -8 -228 0 -248 16 -43 24 -3 24 124 0 127 -8 167
-24 124z"/>
<path d="M1830 4992 c0 -4 25 -35 55 -67 31 -33 58 -70 61 -82 8 -29 0 -59
-14 -55 -7 1 -12 -2 -12 -8 0 -5 -10 -10 -22 -10 -22 -1 -22 -1 -3 -12 27 -16
32 -24 30 -58 -1 -16 2 -27 7 -24 11 7 6 -96 -7 -126 -5 -14 -28 -55 -50 -92
-29 -51 -45 -68 -61 -68 -45 0 -47 -94 -1 -95 4 0 7 -3 7 -7 0 -5 0 -15 0 -24
0 -8 -5 -12 -11 -8 -6 3 -15 0 -20 -7 -6 -10 -2 -19 13 -30 l21 -16 -20 -29
c-11 -16 -26 -54 -33 -84 -10 -47 -10 -65 4 -120 22 -84 106 -228 106 -181 0
5 -11 28 -24 52 -35 63 -66 162 -66 210 0 28 9 58 26 87 23 39 28 43 36 27 8
-12 7 -20 -3 -26 -18 -11 7 -58 38 -72 13 -6 23 -16 23 -23 0 -21 33 -33 81
-30 70 5 99 16 92 34 -5 12 -1 14 25 9 28 -6 32 -4 32 16 0 21 -5 22 -74 24
-65 1 -77 4 -100 28 -14 14 -29 42 -32 63 -6 37 -5 38 44 61 43 20 61 23 116
19 37 -3 69 -2 72 3 3 5 -10 9 -28 9 -18 0 -39 4 -47 9 -17 11 69 41 119 41
20 0 41 5 48 12 9 9 12 9 12 0 0 -17 35 -15 50 3 10 12 10 15 -4 15 -12 0 -14
5 -6 24 5 13 6 27 3 30 -12 12 -54 6 -59 -9 -7 -18 -49 -40 -134 -70 -36 -12
-95 -34 -132 -48 -37 -14 -67 -23 -66 -19 1 4 -2 19 -6 33 -6 20 0 41 24 87
l31 60 119 4 c93 3 123 8 138 21 17 16 21 16 58 -4 48 -25 138 -28 182 -5 27
14 33 14 59 1 34 -18 92 -19 115 -1 21 15 41 64 34 83 -7 18 4 16 26 -4 13
-12 21 -14 30 -5 8 8 5 18 -11 38 -26 33 -26 40 -2 47 24 6 31 -10 31 -72 0
-37 6 -54 25 -75 22 -24 30 -26 105 -26 93 0 137 15 168 56 12 16 22 23 22 16
0 -7 4 -11 9 -7 5 3 12 -4 16 -15 4 -11 11 -18 16 -15 13 8 11 3 -7 -34 -14
-27 -14 -37 -4 -56 10 -19 10 -30 0 -55 -7 -17 -18 -29 -24 -27 -6 2 -42 14
-81 27 -105 33 -148 51 -165 70 -25 27 -57 31 -64 7 -3 -12 0 -27 7 -35 10
-13 8 -14 -13 -8 -23 6 -23 6 -8 -7 11 -9 45 -14 92 -15 71 -2 164 -27 151
-41 -4 -3 -21 -11 -38 -18 -39 -14 -13 -16 51 -4 29 6 58 4 97 -7 34 -9 59
-12 65 -6 5 5 -1 10 -16 10 -14 1 -28 5 -31 8 -7 6 38 76 49 76 4 0 3 12 -2
26 -12 32 -13 44 -1 25 14 -22 35 0 51 51 8 24 20 53 28 66 12 18 12 25 2 35
-9 9 -15 8 -24 -7 -6 -10 -19 -28 -29 -40 -14 -18 -18 -19 -26 -6 -24 39 -40
54 -47 47 -5 -4 -4 -11 1 -15 6 -4 16 -15 23 -24 12 -14 10 -16 -9 -11 -13 4
-20 2 -16 -4 3 -5 0 -10 -8 -10 -8 0 -12 4 -9 8 2 4 -4 15 -13 24 -16 17 -15
19 11 41 32 28 28 61 -7 66 -19 3 -21 8 -20 72 1 45 6 72 15 77 10 7 8 12 -10
24 -12 9 -20 20 -17 25 7 12 -21 81 -32 79 -4 -1 -21 3 -38 10 -20 8 -61 11
-125 7 -130 -7 -121 -7 -247 0 -97 5 -114 4 -119 -10 -5 -13 -9 -13 -27 -2
-53 33 -195 26 -222 -10 -13 -18 -14 -18 -37 4 -14 12 -28 22 -34 22 -17 1
-56 39 -49 50 4 7 -45 10 -149 10 -86 0 -156 -4 -156 -8z m369 -126 c17 -17
25 -39 29 -74 4 -44 1 -51 -20 -68 -25 -18 -25 -19 -4 -29 44 -22 46 -160 3
-190 -16 -11 -48 -15 -119 -15 l-98 0 0 203 0 204 93 -4 c81 -3 95 -7 116 -27z
m259 14 c24 -15 32 -27 32 -49 0 -16 3 -36 6 -45 5 -13 -3 -16 -50 -16 -56 0
-56 0 -56 30 0 30 -13 40 -25 19 -14 -22 6 -55 50 -82 68 -43 85 -70 85 -134
0 -65 -11 -88 -50 -108 -36 -19 -81 -19 -125 -1 -40 17 -53 39 -57 97 l-3 44
48 3 47 3 0 -33 c0 -18 4 -39 9 -47 13 -20 31 -4 31 29 0 22 -9 36 -36 57 -93
71 -97 76 -102 136 -4 52 -2 58 26 87 26 26 38 30 84 30 35 0 64 -7 86 -20z
m185 10 c61 0 70 -3 93 -27 24 -26 26 -34 22 -100 -4 -85 -16 -102 -77 -110
l-41 -6 0 -78 0 -79 -55 0 -55 0 0 206 0 206 23 -6 c12 -3 53 -6 90 -6z m273
0 c51 0 68 -4 89 -22 23 -21 27 -32 32 -114 8 -122 -3 -220 -28 -245 -16 -16
-34 -19 -119 -19 l-100 0 0 206 0 207 31 -7 c17 -3 60 -6 95 -6z m274 -404 c0
-8 3 -21 6 -30 4 -11 1 -16 -11 -16 -9 0 -13 5 -10 10 4 7 -2 9 -17 7 -12 -2
-17 -2 -10 0 17 6 15 23 -4 23 -8 0 -12 5 -9 10 10 16 55 12 55 -4z m-1255
-36 c-3 -5 -11 -10 -16 -10 -6 0 -7 5 -4 10 3 6 11 10 16 10 6 0 7 -4 4 -10z
m-84 -99 c7 11 9 10 9 -4 0 -20 -22 -19 -26 1 -2 9 -1 9 3 1 4 -8 8 -7 14 2z
m59 -175 c0 -3 -4 -8 -10 -11 -5 -3 -10 -1 -10 4 0 6 5 11 10 11 6 0 10 -2 10
-4z m25 -76 c0 -22 -29 -18 -33 3 -3 14 1 18 15 15 10 -2 18 -10 18 -18z"/>
<path d="M2100 4781 c0 -30 4 -41 16 -41 11 0 14 9 12 37 -4 52 -28 56 -28 4z"/>
<path d="M2100 4615 c0 -41 3 -56 13 -52 7 2 12 22 12 52 0 30 -5 50 -12 53
-10 3 -13 -12 -13 -53z"/>
<path d="M2640 4770 c0 -37 4 -50 13 -47 7 2 12 21 12 47 0 26 -5 45 -12 48
-9 2 -13 -11 -13 -48z"/>
<path d="M2900 4691 c0 -79 4 -131 10 -131 16 0 21 40 18 149 -2 72 -7 106
-15 109 -10 3 -13 -27 -13 -127z"/>
<path d="M3564 4963 c1 -62 7 -65 107 -57 59 4 109 2 147 -6 32 -6 71 -10 87
-8 l30 5 -32 7 c-38 10 -60 32 -65 66 l-3 25 -136 3 -135 3 0 -38z"/>
<path d="M4485 4950 c0 -43 -5 -54 -35 -85 -19 -19 -40 -33 -48 -30 -9 3 -11
-1 -7 -15 5 -15 3 -18 -9 -14 -9 3 -19 18 -21 33 -13 62 -21 76 -41 72 -10 -2
-59 -5 -109 -8 -93 -5 -126 -16 -81 -27 14 -3 26 -11 26 -16 0 -5 7 -7 15 -4
22 9 65 -4 62 -19 -1 -7 15 -14 43 -17 33 -4 45 -9 45 -22 0 -19 39 -65 75
-89 14 -9 23 -19 20 -22 -3 -3 -31 11 -64 31 l-58 36 -19 -23 c-11 -13 -19
-34 -19 -47 0 -12 -5 -26 -11 -29 -6 -4 -8 -14 -5 -22 3 -8 1 -11 -4 -8 -6 3
-10 3 -11 -2 -4 -45 -11 -69 -26 -87 -11 -11 -25 -33 -33 -49 -12 -24 -12 -29
6 -42 21 -16 44 -20 44 -7 0 16 89 104 99 97 6 -3 14 1 17 9 3 9 10 16 16 16
5 0 6 -4 3 -10 -3 -5 2 -10 11 -10 10 0 14 -3 11 -7 -4 -3 -1 -13 5 -21 12
-14 25 -88 33 -197 9 -111 28 -165 58 -165 10 0 7 21 -13 100 -6 25 -16 79
-21 120 -6 41 -11 84 -13 96 -1 11 -6 25 -10 32 -5 8 1 12 17 12 16 0 34 14
57 45 19 25 37 45 42 45 4 0 8 7 8 15 0 8 4 15 9 15 9 0 15 -18 34 -115 12
-57 13 -60 45 -63 29 -3 32 -1 32 22 0 17 -6 26 -16 26 -29 0 -45 27 -39 64 8
40 -6 71 -32 71 -11 0 -18 7 -18 20 0 13 -7 20 -20 20 -11 0 -38 11 -59 24
-32 20 -36 26 -22 31 10 3 18 10 19 15 1 6 6 9 10 7 5 -1 6 2 2 7 -3 6 2 22
11 37 l18 26 9 -23 c6 -13 9 -28 8 -33 -1 -4 3 -14 9 -21 8 -10 7 -14 -2 -18
-10 -4 -10 -8 2 -16 8 -6 11 -11 5 -11 -5 0 -2 -5 8 -11 9 -6 25 -8 35 -5 12
4 31 -5 53 -25 31 -27 34 -36 35 -85 0 -41 6 -59 23 -78 12 -13 21 -32 19 -42
-2 -14 4 -20 22 -22 18 -2 21 0 11 6 -11 8 -10 12 5 20 14 8 16 13 6 24 -6 8
-14 36 -17 62 -3 27 -15 57 -25 69 -21 22 -27 67 -10 67 5 0 9 4 7 9 -4 15 7
15 40 1 31 -14 64 -60 43 -60 -17 0 -11 -27 8 -34 9 -3 23 -9 31 -12 10 -5 12
-2 8 11 -9 22 0 36 18 29 8 -4 12 -10 9 -15 -3 -5 2 -9 10 -9 22 0 20 -21 -2
-27 -11 -2 -22 -20 -29 -44 -9 -36 -8 -41 11 -54 11 -8 28 -15 38 -15 17 0
107 55 120 74 4 6 8 78 8 160 0 137 -1 148 -17 141 -10 -3 -37 -11 -60 -18
-38 -10 -45 -9 -85 18 -24 15 -73 59 -110 96 -48 50 -73 69 -92 69 -14 0 -26
-3 -26 -7 0 -5 -13 -24 -30 -43 l-30 -35 -35 19 c-32 17 -34 21 -20 36 21 24
19 30 -12 30 -27 0 -28 -2 -28 -50z m135 -46 c0 -8 -4 -12 -10 -9 -5 3 -10 10
-10 16 0 5 5 9 10 9 6 0 10 -7 10 -16z m80 -71 c0 -17 -40 -16 -63 1 -12 10
-15 21 -11 44 l6 30 34 -30 c19 -17 34 -37 34 -45z m166 -68 c22 -22 6 -40
-17 -19 -10 9 -16 21 -13 25 7 12 13 11 30 -6z"/>
<path d="M3465 4960 c-3 -5 -2 -10 4 -10 5 0 13 5 16 10 3 6 2 10 -4 10 -5 0
-13 -4 -16 -10z"/>
<path d="M4160 4790 c0 -5 5 -10 11 -10 5 0 7 5 4 10 -3 6 -8 10 -11 10 -2 0
-4 -4 -4 -10z"/>
<path d="M4241 4684 c0 -11 3 -14 6 -6 3 7 2 16 -1 19 -3 4 -6 -2 -5 -13z"/>
<path d="M4760 4400 c0 -12 28 -20 45 -14 25 10 17 21 -15 22 -16 0 -30 -3
-30 -8z"/>
<path d="M4617 4347 c-9 -24 5 -66 24 -72 11 -4 34 2 54 15 41 25 44 32 13 29
-33 -4 -68 10 -68 27 0 18 -16 18 -23 1z"/>
<path d="M2783 4312 c-15 -2 -20 -8 -16 -19 4 -11 2 -14 -5 -9 -8 5 -12 0 -12
-14 0 -12 -5 -30 -10 -41 -6 -11 -7 -19 -1 -19 5 0 11 7 15 15 3 8 14 15 25
15 13 0 21 8 23 23 2 16 10 22 30 22 15 1 30 4 34 8 4 4 -4 7 -17 7 -14 0 -29
4 -34 8 -6 4 -20 6 -32 4z"/>
<path d="M2258 4293 c-10 -2 -18 -9 -18 -14 0 -6 9 -8 19 -4 14 4 21 -1 29
-25 14 -39 40 -38 55 3 15 40 -21 57 -85 40z"/>
<path d="M2386 4256 c4 -12 19 -43 34 -71 l28 -50 101 0 c102 0 116 -5 123
-40 3 -14 7 -9 13 18 5 26 12 37 21 33 19 -7 18 28 0 43 -8 7 -12 20 -9 30 4
15 -7 22 -63 40 -47 15 -70 18 -75 10 -3 -6 -30 -10 -60 -9 -30 1 -62 1 -71 1
-10 0 -18 4 -18 8 0 4 -7 8 -15 8 -11 0 -13 -6 -9 -21z m202 -23 c-10 -2 -26
-2 -35 0 -10 3 -2 5 17 5 19 0 27 -2 18 -5z"/>
<path d="M2850 4222 c0 -11 7 -22 15 -26 9 -3 15 0 15 8 0 7 -7 19 -15 26 -12
10 -15 9 -15 -8z"/>
<path d="M3263 4203 c14 -16 33 -45 42 -66 22 -53 6 -166 -36 -254 -40 -84
-30 -94 11 -12 61 119 73 215 38 283 -14 28 -59 76 -72 76 -5 0 2 -12 17 -27z"/>
<path d="M2218 4206 c-25 -18 -22 -26 7 -26 18 0 25 5 25 20 0 23 -8 25 -32 6z"/>
<path d="M2160 4195 c0 -8 7 -15 15 -15 8 0 15 7 15 15 0 8 -7 15 -15 15 -8 0
-15 -7 -15 -15z"/>
<path d="M2375 4143 c1 -27 3 -58 4 -70 0 -14 7 -23 17 -23 8 0 12 -4 9 -10
-3 -6 1 -7 9 -4 24 9 24 58 0 85 -8 8 -14 20 -14 25 0 5 -7 17 -14 27 -12 15
-13 11 -11 -30z"/>
<path d="M4825 4170 c-3 -6 1 -13 10 -16 19 -8 30 0 20 15 -8 14 -22 14 -30 1z"/>
<path d="M5022 4145 c0 -16 2 -22 5 -12 2 9 2 23 0 30 -3 6 -5 -1 -5 -18z"/>
<path d="M2182 4113 c-8 -39 -8 -49 3 -56 8 -4 12 -14 9 -22 -4 -8 -1 -15 5
-15 6 0 11 5 11 10 0 19 2 25 11 37 7 7 6 14 -1 18 -6 4 -10 14 -9 23 6 66
-14 69 -29 5z"/>
<path d="M2706 4104 c-9 -23 -7 -36 3 -30 12 8 21 46 11 46 -4 0 -11 -7 -14
-16z"/>
<path d="M3012 4112 c-13 -4 -23 -11 -22 -17 1 -12 50 -27 50 -15 0 5 3 15 6
24 7 17 3 18 -34 8z"/>
<path d="M2880 4095 c0 -9 5 -15 11 -13 6 2 11 8 11 13 0 5 -5 11 -11 13 -6 2
-11 -4 -11 -13z"/>
<path d="M4990 4098 c0 -7 -16 -44 -36 -83 -52 -102 -57 -115 -38 -115 8 0 22
17 30 38 8 20 24 56 34 78 27 58 35 94 21 94 -6 0 -11 -6 -11 -12z"/>
<path d="M4490 4066 c0 -7 11 -21 24 -29 21 -14 26 -14 36 -2 10 12 9 15 -9
15 -12 0 -24 7 -27 15 -8 19 -24 20 -24 1z"/>
<path d="M3150 4055 c-7 -8 -8 -15 -2 -15 5 0 15 7 22 15 7 8 8 15 2 15 -5 0
-15 -7 -22 -15z"/>
<path d="M4683 4005 c7 -14 18 -25 25 -25 16 0 15 6 -5 30 -24 28 -33 25 -20
-5z"/>
<path d="M2080 4020 c-8 -26 -7 -41 2 -32 6 6 8 16 5 24 -3 7 -6 11 -7 8z"/>
<path d="M2010 3987 c0 -7 69 -47 81 -47 22 0 6 17 -28 30 -21 8 -41 16 -45
18 -5 2 -8 1 -8 -1z"/>
<path d="M2263 3973 c-7 -2 -13 -12 -13 -21 1 -15 2 -15 11 1 12 21 35 22 46
2 10 -17 49 -10 57 11 4 11 -5 14 -42 13 -26 0 -53 -3 -59 -6z"/>
<path d="M2110 3931 c0 -10 61 -21 74 -13 5 3 1 9 -10 13 -27 11 -64 11 -64 0z"/>
<path d="M2855 3927 c-4 -10 -5 -21 -1 -24 10 -10 18 4 13 24 -4 17 -4 17 -12
0z"/>
<path d="M2220 3905 c0 -11 7 -15 23 -13 12 2 22 8 22 13 0 6 -10 11 -22 13
-16 2 -23 -2 -23 -13z"/>
<path d="M2940 3901 c0 -22 19 -31 68 -31 l35 0 -23 25 c-29 31 -80 35 -80 6z"/>
<path d="M2078 3863 c-20 -21 -48 -61 -62 -89 -14 -29 -33 -54 -41 -58 -8 -3
-15 -14 -15 -25 0 -14 5 -19 15 -15 13 6 20 -6 16 -28 -2 -17 10 -6 39 34 17
23 30 54 30 70 0 15 4 28 9 28 5 0 14 13 21 29 8 20 21 32 41 36 16 4 29 11
29 16 0 5 7 9 16 9 31 0 7 25 -27 28 -28 2 -40 -3 -71 -35z"/>
<path d="M4880 3866 c-5 -15 -10 -31 -10 -35 0 -11 -76 -125 -94 -140 -9 -7
-16 -21 -16 -30 0 -10 -13 -30 -30 -46 -16 -16 -30 -38 -31 -49 0 -12 -3 -15
-6 -8 -2 6 -13 12 -23 12 -13 0 -17 -5 -13 -20 3 -11 0 -20 -6 -20 -6 0 -11 5
-11 11 0 8 -19 10 -57 6 -56 -5 -57 -5 -16 5 l41 10 -44 24 c-25 13 -51 24
-59 24 -8 0 -18 6 -22 13 -4 6 -20 18 -36 26 -21 11 -30 12 -39 3 -9 -9 -7
-12 8 -12 10 0 34 -13 52 -30 18 -16 39 -31 45 -33 8 -2 2 -18 -15 -43 -31
-45 -35 -80 -16 -161 l13 -53 43 0 c24 0 42 -3 40 -7 -2 -5 -10 -20 -17 -35
-11 -22 -12 -30 -1 -43 26 -32 62 -12 88 48 9 21 18 27 41 27 34 0 53 25 44
58 -4 16 -1 22 10 22 25 0 117 -49 187 -100 81 -59 100 -66 100 -40 0 11 -5
20 -11 20 -13 0 -82 51 -88 65 -12 29 -62 65 -90 65 -36 0 -38 12 -16 74 12
34 12 43 -2 70 -14 28 -14 33 5 70 19 36 58 121 70 151 2 6 -8 -8 -24 -30 -35
-51 -33 -49 -40 -43 -3 3 14 45 37 92 31 64 39 90 31 98 -8 8 -14 4 -22 -16z
m-245 -355 c-16 -15 -97 -18 -102 -3 -3 9 11 12 53 12 36 0 54 -4 49 -9z"/>
<path d="M2181 3822 c-39 -13 -74 -82 -42 -82 17 0 90 49 91 60 0 10 -35 27
-49 22z"/>
<path d="M2935 3788 c8 -34 23 -51 37 -42 4 3 8 -2 8 -10 0 -9 7 -16 15 -16
22 0 19 56 -5 80 -11 11 -29 20 -41 20 -18 0 -20 -4 -14 -32z"/>
<path d="M3081 3788 c-1 -10 -5 -18 -11 -18 -5 0 3 -22 17 -50 27 -53 37 -60
47 -34 3 8 10 12 16 9 20 -12 10 22 -12 41 -13 11 -31 31 -40 44 -14 20 -17
22 -17 8z"/>
<path d="M3070 3656 c0 -2 9 -6 20 -9 11 -3 20 -1 20 4 0 5 -9 9 -20 9 -11 0
-20 -2 -20 -4z"/>
<path d="M2010 3630 c0 -13 11 -13 30 0 12 8 11 10 -7 10 -13 0 -23 -4 -23
-10z"/>
<path d="M2955 3629 c-4 -6 -5 -12 -2 -15 2 -3 7 2 10 11 7 17 1 20 -8 4z"/>
<path d="M3088 3613 c6 -2 18 -2 25 0 6 3 1 5 -13 5 -14 0 -19 -2 -12 -5z"/>
<path d="M2000 3585 c0 -8 7 -15 15 -15 8 0 15 4 15 9 0 5 -7 11 -15 15 -9 3
-15 0 -15 -9z"/>
<path d="M3080 3590 c0 -5 7 -10 15 -10 8 0 15 5 15 10 0 6 -7 10 -15 10 -8 0
-15 -4 -15 -10z"/>
<path d="M3166 3521 c-4 -5 -15 -8 -25 -6 -22 4 -33 -15 -21 -34 4 -7 5 -33 2
-57 -4 -36 0 -48 23 -76 24 -28 27 -39 23 -85 -5 -51 -4 -52 26 -59 16 -3 35
-12 41 -18 18 -18 25 -59 13 -73 -19 -24 1 -27 26 -4 13 12 26 38 29 57 4 21
18 46 36 63 32 30 39 55 21 66 -6 4 -17 2 -24 -5 -11 -8 -15 -8 -19 2 -4 9
-11 7 -25 -9 -11 -13 -30 -23 -41 -23 -19 0 -21 6 -21 65 0 51 -5 72 -21 94
-11 15 -22 45 -25 66 -5 44 -9 51 -18 36z m104 -281 c0 -5 -5 -10 -11 -10 -5
0 -7 5 -4 10 3 6 8 10 11 10 2 0 4 -4 4 -10z"/>
<path d="M3040 3340 c-9 -16 -8 -18 5 -14 8 4 15 12 15 20 0 20 -7 17 -20 -6z"/>
<path d="M2979 3299 c-10 -6 -2 -9 24 -10 20 -1 42 -2 49 -3 6 -1 13 4 15 9 4
12 -70 16 -88 4z"/>
<path d="M3094 3142 c9 -15 -4 -42 -21 -42 -11 0 -14 -7 -10 -27 3 -15 0 -35
-6 -44 -15 -25 -11 -27 58 -31 51 -2 60 0 60 14 0 9 3 19 6 23 3 3 4 17 1 31
-3 19 -9 23 -25 18 -16 -5 -19 -3 -15 13 4 15 -3 25 -25 38 -16 10 -27 13 -23
7z m69 -102 c-5 -19 -23 -26 -36 -14 -11 11 5 34 23 34 13 0 17 -5 13 -20z"/>
<path d="M4880 3097 c0 -13 4 -27 9 -32 5 -6 11 -39 15 -75 11 -130 33 -240
50 -259 13 -15 16 -28 11 -52 -5 -22 -4 -29 4 -25 10 7 17 -46 12 -96 -2 -13
5 -18 23 -18 l26 0 0 258 0 257 -48 26 c-26 15 -59 29 -74 33 -24 6 -28 3 -28
-17z"/>
<path d="M3207 3053 c-4 -3 -7 -19 -7 -35 0 -40 24 -31 28 10 3 30 -6 41 -21
25z"/>
<path d="M1825 2960 c-4 -6 3 -10 14 -10 25 0 27 6 6 13 -8 4 -17 2 -20 -3z"/>
<path d="M1309 2943 c-11 -13 -11 -17 -1 -20 6 -3 12 -11 12 -18 0 -7 6 -15
13 -18 8 -3 7 -10 -7 -26 -25 -28 -15 -36 22 -17 45 23 49 36 19 62 -15 13
-27 27 -27 33 0 18 -18 21 -31 4z"/>
<path d="M3390 2956 c0 -2 7 -7 16 -10 8 -3 12 -2 9 4 -6 10 -25 14 -25 6z"/>
<path d="M3540 2941 c0 -5 9 -11 21 -14 16 -4 18 -3 8 9 -13 16 -29 19 -29 5z"/>
<path d="M1780 2926 c0 -2 7 -6 15 -10 8 -3 15 -1 15 4 0 6 -7 10 -15 10 -8 0
-15 -2 -15 -4z"/>
<path d="M1650 2910 c20 -13 33 -13 25 0 -3 6 -14 10 -23 10 -15 0 -15 -2 -2
-10z"/>
<path d="M3502 2904 c10 -10 20 -15 24 -12 3 4 -5 12 -18 18 -22 12 -22 12 -6
-6z"/>
<path d="M1595 2880 c-3 -5 3 -10 14 -10 12 0 21 5 21 10 0 6 -6 10 -14 10 -8
0 -18 -4 -21 -10z"/>
<path d="M1738 2883 c7 -3 16 -2 19 1 4 3 -2 6 -13 5 -11 0 -14 -3 -6 -6z"/>
<path d="M1675 2850 c-3 -5 3 -10 15 -10 12 0 18 5 15 10 -3 6 -10 10 -15 10
-5 0 -12 -4 -15 -10z"/>
<path d="M3589 2836 c6 -7 9 -20 6 -27 -3 -8 -1 -19 3 -24 11 -16 57 -37 73
-33 10 2 13 -4 11 -22 -3 -21 -2 -22 11 -11 12 9 21 10 36 1 24 -12 26 -8 10
22 -9 17 -13 18 -20 7 -7 -11 -9 -11 -9 3 0 24 -33 41 -49 25 -10 -9 -11 -9
-6 4 3 9 -1 22 -10 29 -12 10 -18 10 -32 -1 -9 -8 -14 -9 -10 -2 9 14 -2 43
-15 43 -7 0 -6 -5 1 -14z"/>
<path d="M1626 2821 c-3 -5 1 -11 9 -15 8 -3 15 -1 15 4 0 13 -18 22 -24 11z"/>
<path d="M1550 2806 c0 -8 5 -18 10 -21 6 -3 10 1 10 9 0 8 -4 18 -10 21 -5 3
-10 -1 -10 -9z"/>
<path d="M1296 2785 c9 -14 19 -25 23 -25 3 0 12 -9 19 -21 10 -16 10 -24 1
-35 -9 -11 -9 -14 0 -14 7 0 20 -7 29 -16 14 -15 14 -17 -1 -26 -27 -14 -11
-27 32 -25 27 1 37 5 34 14 -3 9 4 13 21 13 20 0 26 -5 26 -23 0 -13 -5 -28
-12 -35 -6 -6 -9 -14 -6 -18 10 -9 48 15 45 29 -1 7 4 11 11 10 14 -3 16 13 2
22 -15 10 -12 25 6 25 9 0 18 9 21 20 3 11 9 20 14 20 5 0 9 15 9 34 0 41 -26
52 -61 25 -13 -10 -29 -19 -35 -19 -6 0 -17 -7 -24 -15 -11 -14 -15 -14 -32 2
-19 17 -19 17 -13 -9 6 -23 4 -26 -12 -22 -11 3 -27 21 -37 39 -22 40 -53 75
-67 75 -5 0 -2 -11 7 -25z"/>
<path d="M3825 2760 c3 -5 11 -10 16 -10 6 0 7 5 4 10 -3 6 -11 10 -16 10 -6
0 -7 -4 -4 -10z"/>
<path d="M3620 2734 c0 -8 5 -12 10 -9 6 3 10 10 10 16 0 5 -4 9 -10 9 -5 0
-10 -7 -10 -16z"/>
<path d="M3905 2720 c3 -5 11 -10 16 -10 6 0 7 5 4 10 -3 6 -11 10 -16 10 -6
0 -7 -4 -4 -10z"/>
<path d="M3860 2702 c0 -5 12 -14 27 -21 28 -13 28 -13 9 8 -20 22 -36 27 -36
13z"/>
<path d="M1280 2662 c0 -4 9 -13 20 -20 18 -11 20 -10 20 8 0 13 -7 20 -20 20
-11 0 -20 -3 -20 -8z"/>
<path d="M3972 2649 c5 -14 48 -32 48 -20 0 4 -12 13 -26 20 -20 9 -25 9 -22
0z"/>
<path d="M1240 2632 c0 -10 21 -32 31 -32 4 0 5 9 2 20 -5 19 -33 29 -33 12z"/>
<path d="M3930 2610 c0 -5 6 -10 14 -10 8 0 16 -6 19 -12 2 -7 8 -10 12 -5 5
4 0 14 -11 22 -23 17 -34 19 -34 5z"/>
<path d="M1190 2585 c7 -8 16 -15 21 -15 5 0 6 7 3 15 -4 8 -13 15 -21 15 -13
0 -13 -3 -3 -15z"/>
<path d="M4016 2572 c-3 -5 11 -15 30 -24 37 -17 44 -10 16 15 -20 18 -38 22
-46 9z"/>
<path d="M1141 2561 c-10 -6 -10 -10 -1 -16 13 -8 24 -1 19 14 -3 6 -10 7 -18
2z"/>
<path d="M820 2530 c0 -5 5 -10 10 -10 6 0 10 5 10 10 0 6 -4 10 -10 10 -5 0
-10 -4 -10 -10z"/>
<path d="M1190 2526 c0 -11 75 -46 88 -41 26 10 -13 42 -53 43 -19 1 -35 0
-35 -2z"/>
<path d="M1065 2500 c-4 -7 -1 -16 6 -21 17 -10 26 8 11 23 -6 6 -12 6 -17 -2z"/>
<path d="M1157 2494 c-10 -11 3 -24 24 -24 23 0 25 15 3 24 -19 7 -19 7 -27 0z"/>
<path d="M4170 2490 c0 -5 5 -10 11 -10 5 0 7 5 4 10 -3 6 -8 10 -11 10 -2 0
-4 -4 -4 -10z"/>
<path d="M1012 2458 c3 -7 13 -15 22 -16 12 -3 17 1 14 10 -3 7 -13 15 -22 16
-12 3 -17 -1 -14 -10z"/>
<path d="M1075 2440 c-3 -6 6 -15 20 -20 34 -13 35 -13 35 4 0 22 -43 35 -55
16z"/>
<path d="M3404 2442 c-20 -14 -64 -79 -57 -85 3 -4 1 -7 -7 -7 -10 0 -10 -3 0
-15 12 -14 15 -13 29 8 9 14 30 39 48 57 31 32 35 50 10 50 -7 0 -17 -4 -23
-8z"/>
<path d="M955 2430 c-8 -14 -7 -15 23 -25 20 -6 23 -4 20 11 -4 22 -33 31 -43
14z"/>
<path d="M4190 2430 c-12 -8 -11 -10 6 -10 11 0 25 -5 32 -12 6 -6 14 -9 17
-6 6 6 -22 38 -33 38 -4 0 -14 -5 -22 -10z"/>
<path d="M1262 2413 c-24 -17 -90 -32 -167 -39 -28 -2 -52 -10 -57 -18 -4 -7
-18 -20 -32 -29 -22 -15 -25 -14 -45 4 -18 17 -25 18 -36 9 -21 -18 -18 -29
10 -40 14 -5 25 -14 25 -19 0 -5 9 -8 20 -6 22 4 35 -9 24 -26 -5 -8 -9 -7
-14 1 -5 7 -16 10 -25 6 -12 -4 -15 -13 -11 -31 6 -25 -8 -36 -17 -12 -3 8 -9
9 -21 2 -26 -15 -24 -28 7 -43 26 -13 39 -52 17 -52 -5 0 -10 -7 -10 -15 0 -8
9 -15 19 -15 11 0 23 -4 26 -10 3 -5 10 -10 15 -10 12 0 1 30 -18 53 -14 15
-13 17 6 17 32 0 53 -26 42 -54 -10 -27 3 -46 31 -46 10 0 24 -9 32 -21 15
-20 16 -20 37 -2 11 10 35 44 52 76 17 31 35 57 39 57 14 0 10 -39 -7 -65 -8
-13 -14 -36 -12 -52 l3 -28 23 25 c13 14 36 52 52 85 17 36 53 86 90 123 l62
64 -21 22 -21 23 20 18 c25 22 19 31 -8 14 -18 -11 -23 -9 -47 19 -30 35 -49
39 -83 15z m73 -13 c3 -5 2 -10 -4 -10 -5 0 -13 5 -16 10 -3 6 -2 10 4 10 5 0
13 -4 16 -10z m-270 -100 c3 -6 -4 -10 -17 -10 -18 0 -20 2 -8 10 19 12 18 12
25 0z m15 -74 c0 -3 -4 -8 -10 -11 -5 -3 -10 -1 -10 4 0 6 5 11 10 11 6 0 10
-2 10 -4z m-30 -55 c0 -6 -4 -13 -10 -16 -5 -3 -10 1 -10 9 0 9 5 16 10 16 6
0 10 -4 10 -9z m90 4 c0 -12 -24 -55 -32 -55 -11 0 -10 4 4 35 9 21 28 35 28
20z m-40 -102 c0 -10 -20 -40 -20 -31 0 3 -3 13 -6 22 -4 11 -1 16 10 16 9 0
16 -3 16 -7z"/>
<path d="M1027 2413 c-12 -11 -7 -33 7 -33 7 0 19 6 25 14 9 11 8 15 -5 20
-19 7 -19 7 -27 -1z"/>
<path d="M897 2386 c-4 -9 4 -16 21 -19 32 -6 37 -3 29 18 -8 19 -43 20 -50 1z"/>
<path d="M970 2375 c-13 -16 -6 -35 15 -35 15 0 28 27 19 41 -8 13 -20 11 -34
-6z"/>
<path d="M4290 2380 c0 -5 14 -16 30 -25 32 -17 40 -6 14 19 -17 18 -44 21
-44 6z"/>
<path d="M858 2359 c-24 -13 -23 -25 4 -32 18 -5 19 -8 8 -21 -17 -21 -27 -20
-33 4 -6 25 -22 25 -46 1 -10 -10 -28 -22 -40 -26 -26 -8 -28 -35 -2 -35 28 0
35 -17 12 -31 -21 -14 -18 -39 5 -39 8 0 23 -5 34 -12 28 -18 37 -2 13 25 -11
12 -23 39 -26 60 -5 32 -3 37 14 37 10 0 19 -5 19 -10 0 -6 6 -10 13 -9 13 2
36 -5 74 -24 33 -15 37 -4 10 29 -13 16 -24 40 -25 53 -1 32 -13 42 -34 30z"/>
<path d="M4928 2333 c-9 -2 -19 -14 -22 -27 -3 -13 -29 -44 -57 -71 -41 -38
-51 -55 -54 -86 -5 -45 12 -52 47 -19 27 25 79 40 141 40 l47 0 0 85 0 85 -42
-1 c-24 -1 -50 -3 -60 -6z"/>
<path d="M4390 2322 c0 -8 63 -42 78 -42 4 0 -6 11 -23 25 -30 24 -55 32 -55
17z"/>
<path d="M4350 2285 c0 -8 8 -15 17 -15 9 0 25 -7 35 -17 10 -9 21 -13 26 -9
9 10 -44 56 -64 56 -8 0 -14 -7 -14 -15z"/>
<path d="M3167 2283 c-13 -12 -7 -23 12 -23 26 0 35 16 15 24 -19 7 -19 7 -27
-1z"/>
<path d="M807 2254 c-9 -9 4 -34 18 -34 8 0 20 -7 29 -15 22 -22 30 0 10 30
-15 23 -43 33 -57 19z"/>
<path d="M4310 2253 c0 -5 16 -18 35 -31 39 -25 48 -11 13 19 -24 19 -48 25
-48 12z"/>
<path d="M4456 2245 c-3 -8 11 -21 35 -33 44 -22 60 -13 28 16 -27 26 -56 33
-63 17z"/>
<path d="M676 2235 c-3 -8 -11 -15 -18 -15 -7 0 -26 -14 -42 -31 -24 -25 -27
-32 -15 -40 10 -6 15 -3 17 12 2 11 9 18 15 16 49 -20 48 -21 45 9 -3 27 -1
29 30 26 33 -3 40 6 20 26 -17 17 -45 15 -52 -3z"/>
<path d="M1590 2243 c0 -12 38 -48 44 -42 3 2 -6 15 -20 28 -13 13 -24 19 -24
14z"/>
<path d="M4120 2231 c0 -8 55 -41 68 -41 3 0 -5 11 -18 25 -23 25 -50 33 -50
16z"/>
<path d="M3368 2223 c-29 -7 -20 -23 12 -23 20 0 30 5 30 15 0 15 -9 17 -42 8z"/>
<path d="M4270 2210 c0 -5 6 -10 14 -10 7 0 19 -7 26 -15 7 -8 17 -15 23 -15
6 0 0 11 -13 25 -24 25 -50 33 -50 15z"/>
<path d="M4410 2206 c0 -2 18 -15 40 -30 42 -28 50 -24 24 12 -8 12 -26 22
-40 22 -13 0 -24 -2 -24 -4z"/>
<path d="M706 2185 c-21 -16 -15 -45 10 -45 10 0 26 -7 36 -17 25 -23 24 2 -2
45 -23 37 -19 36 -44 17z"/>
<path d="M4565 2180 c3 -15 -1 -19 -18 -17 -35 3 -26 -21 16 -42 38 -19 59
-13 32 9 -8 7 -15 16 -15 21 0 14 22 10 42 -8 15 -13 18 -14 18 -1 0 15 -51
58 -69 58 -5 0 -8 -9 -6 -20z"/>
<path d="M4235 2180 c-3 -6 2 -13 12 -17 10 -4 21 -11 25 -17 5 -8 8 -7 8 1 0
11 -26 43 -35 43 -2 0 -7 -5 -10 -10z"/>
<path d="M840 2161 c0 -11 71 -54 77 -47 3 3 -3 16 -14 30 -17 24 -63 36 -63
17z"/>
<path d="M4370 2155 c0 -8 8 -15 18 -15 10 0 28 -7 40 -16 29 -20 28 -3 -1 24
-27 25 -57 29 -57 7z"/>
<path d="M644 2135 c-7 -18 3 -35 20 -35 8 0 19 -7 26 -15 15 -18 30 -20 30
-4 0 19 -41 69 -56 69 -8 0 -17 -7 -20 -15z"/>
<path d="M4180 2141 c0 -5 14 -14 32 -20 31 -11 31 -11 13 9 -19 21 -45 27
-45 11z"/>
<path d="M803 2133 c-20 -7 -16 -43 5 -43 10 0 23 -5 29 -11 6 -6 17 -9 24 -7
8 3 2 15 -17 35 -16 17 -35 29 -41 26z"/>
<path d="M4328 2128 c-4 -12 61 -52 71 -43 7 7 -40 55 -55 55 -7 0 -14 -5 -16
-12z"/>
<path d="M4480 2110 c0 -11 7 -20 15 -20 9 0 27 -7 40 -16 20 -13 25 -14 25
-3 0 14 -29 37 -62 51 -14 6 -18 2 -18 -12z"/>
<path d="M4972 2119 c-25 -7 -34 -17 -38 -39 -6 -27 -28 -49 -65 -62 -8 -3
-38 5 -65 18 -60 29 -64 29 -64 3 0 -16 -4 -19 -20 -14 -36 12 -22 -22 19 -45
35 -20 38 -25 34 -56 -4 -29 -2 -34 15 -34 12 0 27 -7 36 -15 22 -22 39 -19
31 6 -6 17 -3 20 17 17 20 -3 24 2 28 37 4 34 9 40 31 43 17 2 37 -6 57 -22
16 -15 33 -26 36 -26 3 0 6 45 6 100 0 108 1 106 -58 89z m-178 -121 c15 -23
16 -51 3 -64 -4 -4 -7 5 -7 20 0 17 -9 35 -22 47 -19 15 -20 18 -6 19 10 0 24
-10 32 -22z"/>
<path d="M4635 2110 c-8 -14 6 -39 19 -34 7 3 19 -2 26 -11 12 -14 40 -21 40
-9 0 29 -72 75 -85 54z"/>
<path d="M4140 2102 c0 -11 51 -35 58 -27 7 7 -29 34 -45 35 -7 0 -13 -4 -13
-8z"/>
<path d="M4295 2089 c-4 -6 -5 -11 -4 -13 61 -40 93 -48 63 -15 -27 30 -51 41
-59 28z"/>
<path d="M730 2076 c0 -14 75 -57 84 -48 3 3 -4 18 -15 33 -22 31 -69 41 -69
15z"/>
<path d="M886 2071 c-7 -10 63 -55 72 -46 8 7 -39 55 -54 55 -7 0 -15 -4 -18
-9z"/>
<path d="M4440 2070 c0 -6 11 -15 24 -20 13 -5 27 -14 31 -20 3 -5 11 -8 16
-4 15 9 -30 54 -53 54 -10 0 -18 -5 -18 -10z"/>
<path d="M4596 2073 c-13 -13 -5 -33 13 -33 10 0 24 -7 31 -15 13 -16 40 -21
40 -7 -1 21 -71 67 -84 55z"/>
<path d="M681 2041 c-9 -16 -5 -22 29 -39 22 -10 42 -17 44 -14 11 10 -35 72
-54 72 -5 0 -14 -9 -19 -19z"/>
<path d="M4250 2045 c-10 -12 -9 -15 6 -15 10 0 28 -10 41 -22 30 -28 30 -11
-1 25 -27 31 -29 32 -46 12z"/>
<path d="M837 2033 c-14 -13 -6 -33 12 -33 11 0 23 -4 26 -10 3 -5 13 -10 21
-10 12 0 11 6 -6 30 -21 29 -39 37 -53 23z"/>
<path d="M3158 2001 c-8 -20 -18 -53 -21 -73 l-6 -38 37 0 c21 0 48 7 60 16
27 19 20 39 -9 24 -26 -15 -70 7 -48 24 36 28 41 44 21 64 -18 18 -19 18 -34
-17z"/>
<path d="M4396 2032 c-2 -4 13 -17 35 -29 42 -23 54 -11 19 20 -21 18 -46 22
-54 9z"/>
<path d="M4553 2033 c-17 -6 -4 -33 15 -33 9 0 26 -10 39 -22 17 -16 23 -18
23 -6 0 25 -55 69 -77 61z"/>
<path d="M985 2019 c-4 -6 -5 -11 -4 -12 2 -1 14 -8 26 -14 37 -21 48 -15 23
12 -26 27 -35 30 -45 14z"/>
<path d="M4210 2005 c0 -8 9 -15 20 -15 11 0 23 -7 26 -15 4 -8 11 -15 17 -15
6 0 -2 14 -18 30 -32 33 -45 38 -45 15z"/>
<path d="M772 1983 c2 -10 12 -19 22 -21 11 -2 26 -11 35 -19 22 -22 26 0 5
31 -19 31 -68 37 -62 9z"/>
<path d="M4350 1993 c0 -5 18 -18 40 -31 44 -25 53 -17 17 16 -22 21 -57 30
-57 15z"/>
<path d="M935 1979 c-8 -12 -9 -11 28 -27 31 -13 36 -3 9 21 -22 20 -28 21
-37 6z"/>
<path d="M4510 1978 c1 -14 69 -52 78 -43 3 3 -5 16 -18 30 -25 26 -60 34 -60
13z"/>
<path d="M4662 1968 c2 -12 11 -22 23 -24 11 -2 27 -12 36 -23 15 -18 29 -19
29 -1 0 4 -14 21 -30 39 -36 37 -63 41 -58 9z"/>
<path d="M738 1962 c-29 -6 -21 -37 15 -52 17 -7 35 -15 40 -18 14 -8 7 15
-15 44 -14 18 -30 28 -40 26z"/>
<path d="M4310 1945 c7 -8 17 -15 23 -15 6 0 19 -7 29 -17 10 -9 21 -13 26 -9
10 11 -45 56 -70 56 -17 0 -18 -2 -8 -15z"/>
<path d="M4466 1953 c-12 -12 -6 -24 17 -33 12 -6 30 -15 39 -22 28 -20 34 1
8 25 -28 26 -55 38 -64 30z"/>
<path d="M4617 1936 c-4 -10 9 -23 39 -40 53 -29 61 -12 13 28 -35 30 -45 32
-52 12z"/>
<path d="M665 1910 c-8 -13 3 -30 19 -30 8 0 19 -7 26 -15 15 -18 30 -20 30
-2 -1 35 -60 72 -75 47z"/>
<path d="M4265 1910 c-3 -6 2 -13 12 -16 10 -3 26 -10 35 -15 30 -15 32 -10 8
16 -25 26 -45 32 -55 15z"/>
<path d="M4925 1900 c5 -16 2 -20 -19 -20 -14 0 -25 -3 -25 -7 3 -21 -3 -31
-22 -36 -15 -4 -20 -11 -16 -21 6 -15 -3 -20 -30 -17 -8 1 -13 -9 -13 -24 0
-20 5 -25 24 -25 13 0 29 -7 36 -15 7 -8 16 -15 21 -15 16 0 9 27 -11 45 -32
29 -7 42 27 15 25 -19 28 -20 31 -5 2 9 -3 24 -12 34 -25 27 -19 33 15 16 25
-14 30 -21 27 -48 -2 -27 -7 -31 -25 -29 -19 3 -23 -2 -23 -23 0 -19 -5 -25
-17 -23 -12 2 -19 -4 -21 -19 -2 -15 -10 -23 -23 -23 -12 0 -19 -7 -19 -20 0
-11 5 -20 12 -20 6 0 26 -11 45 -26 27 -20 33 -22 33 -9 0 9 -9 28 -20 42 -11
15 -18 28 -16 30 6 6 49 -17 58 -31 5 -8 10 -8 18 0 7 7 5 18 -10 36 -11 15
-20 29 -20 32 0 8 33 -5 51 -21 15 -12 29 -9 29 8 0 5 -9 17 -21 28 -14 13
-17 21 -9 26 7 4 17 2 23 -4 6 -6 15 -11 19 -11 12 0 9 35 -4 48 -9 9 -9 12 0
12 7 0 12 11 12 25 0 14 -4 25 -10 25 -5 0 -7 6 -4 14 3 8 -11 26 -34 45 -46
36 -66 40 -57 11z m71 -84 c2 -18 -2 -26 -12 -26 -11 0 -13 6 -9 19 4 13 -2
27 -17 41 l-23 22 29 -14 c19 -10 30 -24 32 -42z"/>
<path d="M4420 1898 c1 -13 70 -51 79 -43 2 3 -6 16 -19 30 -25 26 -60 34 -60
13z"/>
<path d="M4570 1885 c0 -8 6 -15 14 -15 7 0 25 -9 38 -20 36 -27 44 -12 11 22
-29 30 -63 37 -63 13z"/>
<path d="M4727 1884 c-10 -11 5 -34 22 -34 10 0 27 -9 38 -20 16 -15 22 -16
26 -6 11 28 -65 80 -86 60z"/>
<path d="M773 1866 c-29 -14 -29 -24 1 -35 29 -12 37 -32 29 -71 -5 -26 -2
-30 15 -30 12 0 28 -10 36 -21 13 -20 13 -24 -7 -50 -11 -16 -29 -29 -38 -29
-23 0 -34 -19 -20 -33 6 -6 11 -17 11 -25 0 -12 -5 -11 -26 3 -14 9 -32 14
-40 11 -21 -8 -17 -36 4 -36 19 0 50 -27 51 -45 4 -40 61 -82 94 -69 10 3 23
-3 34 -17 10 -12 30 -36 44 -53 14 -17 31 -40 38 -51 10 -17 11 -12 6 30 -3
28 -9 65 -12 83 -3 18 -1 32 5 32 10 0 24 -47 43 -145 9 -48 20 -71 58 -115
71 -84 230 -241 289 -285 28 -21 52 -43 52 -47 0 -4 6 -8 14 -8 8 0 16 -4 18
-9 2 -5 20 -20 42 -35 37 -25 39 -25 67 -9 34 20 40 66 12 82 -12 6 -18 22
-18 48 0 33 -4 40 -30 53 -31 16 -31 15 -27 -10 3 -22 -2 -19 -45 25 -26 28
-59 66 -73 85 -13 19 -39 51 -58 70 -18 19 -54 67 -79 105 -26 39 -68 97 -93
130 -25 33 -63 87 -85 120 -21 33 -44 65 -50 70 -7 6 -18 22 -26 37 -8 14 -30
44 -49 65 -50 55 -92 111 -117 157 -12 23 -22 35 -23 27 0 -9 -4 -10 -12 -4
-8 6 -21 5 -35 -1z"/>
<path d="M4375 1860 c-3 -5 13 -18 37 -30 55 -26 57 -26 23 10 -29 31 -49 37
-60 20z"/>
<path d="M4530 1848 c0 -7 18 -23 40 -35 45 -24 55 -10 17 25 -26 24 -57 29
-57 10z"/>
<path d="M4683 1831 c-3 -11 -13 -21 -24 -24 -28 -8 -23 -27 11 -38 17 -6 30
-15 30 -20 0 -5 7 -9 15 -9 21 0 19 10 -7 37 -27 29 -17 41 19 22 16 -7 31
-15 36 -17 17 -8 5 26 -16 46 -29 27 -57 28 -64 3z"/>
<path d="M713 1823 c-17 -6 -17 -33 0 -33 8 0 22 -9 32 -20 28 -31 44 -7 19
27 -22 29 -32 34 -51 26z"/>
<path d="M4336 1823 c-12 -12 -6 -21 18 -27 14 -3 32 -13 40 -22 22 -21 20 -2
-1 23 -20 22 -48 35 -57 26z"/>
<path d="M4485 1809 c-8 -12 -11 -10 43 -37 49 -25 54 -17 14 21 -30 29 -47
34 -57 16z"/>
<path d="M3140 1801 c0 -5 5 -13 10 -16 6 -3 10 -2 10 4 0 5 -4 13 -10 16 -5
3 -10 2 -10 -4z"/>
<path d="M3242 1800 c-18 -4 -36 -10 -39 -14 -9 -8 48 -6 71 3 29 11 6 19 -32
11z"/>
<path d="M3088 1793 c6 -2 18 -2 25 0 6 3 1 5 -13 5 -14 0 -19 -2 -12 -5z"/>
<path d="M3170 1790 c0 -5 5 -10 11 -10 5 0 7 5 4 10 -3 6 -8 10 -11 10 -2 0
-4 -4 -4 -10z"/>
<path d="M653 1783 c-24 -9 -13 -31 27 -52 46 -24 54 -11 19 33 -21 27 -25 28
-46 19z"/>
<path d="M4440 1761 c0 -11 82 -52 89 -45 9 9 -52 54 -71 54 -10 0 -18 -4 -18
-9z"/>
<path d="M4606 1763 c-14 -14 -4 -31 21 -38 15 -3 31 -11 34 -17 4 -6 12 -9
18 -7 9 3 6 11 -6 25 -22 26 -58 45 -67 37z"/>
<path d="M4760 1735 c0 -18 5 -25 19 -25 10 0 24 -7 31 -15 22 -26 52 -17 32
10 -11 16 -63 55 -73 55 -5 0 -9 -11 -9 -25z"/>
<path d="M740 1710 c0 -13 7 -20 19 -20 10 0 24 -7 31 -15 14 -17 30 -20 30
-5 0 17 -47 60 -65 60 -8 0 -15 -9 -15 -20z"/>
<path d="M4400 1715 c0 -8 8 -15 17 -15 9 0 25 -7 35 -17 28 -25 35 -6 8 22
-26 28 -60 33 -60 10z"/>
<path d="M3052 1705 c0 -11 4 -33 8 -50 7 -27 8 -27 8 -5 0 14 -4 36 -8 50 -6
20 -8 21 -8 5z"/>
<path d="M4557 1713 c-12 -11 -7 -23 9 -23 9 0 29 -9 45 -21 36 -26 41 -4 6
29 -23 22 -48 28 -60 15z"/>
<path d="M4716 1704 c-8 -20 1 -34 21 -34 9 0 27 -10 40 -22 l23 -21 0 21 c0
18 -23 40 -66 65 -7 4 -15 0 -18 -9z"/>
<path d="M527 1694 c-9 -9 4 -34 18 -34 6 0 20 -9 30 -20 18 -20 35 -18 35 4
0 32 -63 70 -83 50z"/>
<path d="M684 1675 c-8 -20 4 -35 26 -35 10 0 22 -4 25 -10 9 -14 25 -12 25 3
0 17 -42 57 -58 57 -7 0 -15 -7 -18 -15z"/>
<path d="M3326 1675 c-3 -9 -6 -28 -6 -41 0 -15 -6 -24 -16 -24 -14 0 -15 -7
-10 -40 5 -33 3 -40 -10 -40 -14 0 -15 -7 -10 -40 6 -40 43 -122 58 -128 4 -2
8 -12 8 -22 0 -10 5 -22 10 -25 6 -4 9 -1 8 7 -2 8 6 13 20 12 15 0 22 5 22
18 0 10 7 21 16 25 12 4 14 14 10 35 -7 35 18 50 38 23 10 -14 21 -16 49 -11
20 4 39 11 42 16 7 12 -22 134 -34 138 -5 2 -7 12 -4 22 4 16 0 20 -21 20 -35
0 -66 -17 -66 -35 0 -25 -17 -17 -29 13 -16 40 -45 85 -58 89 -6 2 -13 -3 -17
-12z m51 -257 c-3 -8 -6 -5 -6 6 -1 11 2 17 5 13 3 -3 4 -12 1 -19z"/>
<path d="M4510 1665 c0 -8 11 -17 25 -21 13 -3 29 -12 36 -20 6 -8 16 -11 21
-8 14 9 -42 64 -64 64 -10 0 -18 -7 -18 -15z"/>
<path d="M4670 1655 c0 -16 78 -60 88 -50 9 9 -54 65 -73 65 -8 0 -15 -7 -15
-15z"/>
<path d="M5008 1653 c-16 -4 -22 -15 -19 -35 0 -5 -8 -8 -19 -8 -11 0 -23 -7
-26 -15 -7 -18 14 -47 27 -39 16 10 44 -29 45 -63 1 -28 -2 -33 -22 -33 -33 0
-30 -25 5 -43 l29 -15 1 80 c1 62 -3 83 -16 96 -15 16 -15 17 0 20 12 3 17 12
15 33 -1 16 -2 28 -3 28 0 -1 -8 -3 -17 -6z"/>
<path d="M632 1642 c-17 -12 -4 -42 19 -42 10 0 22 -7 27 -16 9 -15 32 -12 32
4 0 10 -49 62 -58 62 -4 0 -13 -4 -20 -8z"/>
<path d="M4420 1640 c0 -5 5 -10 11 -10 5 0 7 5 4 10 -3 6 -8 10 -11 10 -2 0
-4 -4 -4 -10z"/>
<path d="M4470 1625 c0 -9 8 -18 18 -22 9 -3 25 -13 35 -21 32 -28 32 -1 -1
29 -36 32 -52 37 -52 14z"/>
<path d="M4625 1620 c-8 -13 3 -30 19 -30 7 0 25 -9 39 -20 40 -32 41 -6 2 29
-38 33 -50 37 -60 21z"/>
<path d="M4784 1609 c-7 -12 14 -39 32 -39 7 0 22 -9 33 -21 20 -21 36 -13 25
14 -11 29 -79 63 -90 46z"/>
<path d="M577 1603 c-12 -11 -7 -43 6 -43 7 0 23 -9 35 -21 20 -18 23 -18 28
-4 4 10 -4 27 -22 46 -29 30 -36 34 -47 22z"/>
<path d="M4587 1583 c-11 -10 -8 -33 4 -33 6 0 24 -9 41 -21 31 -22 49 -18 33
7 -14 21 -70 55 -78 47z"/>
<path d="M4460 1565 c0 -12 28 -35 44 -35 11 0 -5 26 -24 38 -17 10 -20 10
-20 -3z"/>
<path d="M4763 1572 c-29 -4 -32 -42 -4 -42 10 0 30 -9 45 -21 23 -18 26 -19
26 -3 0 9 -8 24 -18 33 -11 9 -21 21 -23 26 -2 6 -14 9 -26 7z"/>
<path d="M507 1553 c-13 -12 -7 -21 29 -42 41 -24 54 -26 54 -8 0 31 -64 70
-83 50z"/>
<path d="M4900 1541 c0 -12 9 -21 24 -25 14 -3 32 -13 41 -22 12 -13 19 -14
28 -5 8 8 3 19 -18 41 -33 34 -75 41 -75 11z"/>
<path d="M683 1543 c-21 -8 -16 -43 6 -43 10 0 24 -7 31 -15 15 -18 30 -19 30
-2 0 10 -46 69 -53 66 -1 0 -8 -3 -14 -6z"/>
<path d="M4540 1525 c0 -9 12 -20 28 -26 15 -5 32 -17 39 -25 7 -10 13 -12 18
-4 8 12 -50 70 -71 70 -8 0 -14 -7 -14 -15z"/>
<path d="M1138 1523 c-10 -2 -18 -9 -18 -14 0 -13 13 -11 36 6 19 14 14 17
-18 8z"/>
<path d="M4694 1518 c-7 -12 21 -38 42 -38 6 0 17 -7 24 -15 7 -8 16 -15 21
-15 17 0 9 24 -18 52 -28 29 -57 36 -69 16z"/>
<path d="M4857 1513 c-8 -14 8 -38 28 -41 11 -2 27 -10 36 -18 20 -18 29 -18
29 0 0 8 -14 26 -31 40 -30 26 -54 33 -62 19z"/>
<path d="M607 1493 c-4 -3 -7 -10 -7 -14 0 -8 82 -50 88 -44 2 2 -4 17 -14 34
-17 29 -51 41 -67 24z"/>
<path d="M4490 1480 c0 -6 8 -13 18 -17 9 -3 29 -15 45 -25 35 -25 36 -4 1 28
-25 24 -64 32 -64 14z"/>
<path d="M4650 1465 c0 -8 6 -15 14 -15 8 0 28 -11 44 -25 43 -36 56 -11 13
27 -34 30 -71 37 -71 13z"/>
<path d="M4816 1472 c-15 -15 -2 -33 39 -53 55 -27 68 -19 31 20 -28 29 -60
44 -70 33z"/>
<path d="M545 1450 c-8 -13 3 -30 19 -30 7 0 21 -9 31 -20 37 -41 49 -11 14
34 -21 26 -53 34 -64 16z"/>
<path d="M711 1436 c-8 -10 -7 -17 3 -26 17 -13 36 -6 36 15 0 19 -27 26 -39
11z"/>
<path d="M4610 1420 c0 -13 7 -20 19 -20 10 0 24 -7 31 -15 14 -16 40 -20 40
-6 0 13 -59 61 -76 61 -8 0 -14 -9 -14 -20z"/>
<path d="M4770 1410 c0 -13 9 -22 25 -26 13 -3 29 -12 36 -20 6 -8 15 -14 20
-14 17 0 9 24 -18 52 -32 33 -63 37 -63 8z"/>
<path d="M4930 1395 c0 -15 -5 -25 -12 -24 -28 3 -38 -2 -38 -21 0 -12 7 -20
16 -20 9 0 32 -9 50 -21 29 -17 34 -18 34 -5 0 9 -9 25 -21 37 -28 28 -15 38
22 16 55 -31 65 -17 23 32 -33 40 -74 43 -74 6z"/>
<path d="M650 1381 c0 -10 8 -21 18 -24 9 -2 25 -8 35 -12 23 -10 23 17 -1 38
-25 23 -52 22 -52 -2z"/>
<path d="M4560 1376 c0 -8 12 -17 26 -20 15 -4 34 -14 42 -23 26 -26 27 5 1
33 -24 26 -69 33 -69 10z"/>
<path d="M4724 1375 c-8 -19 3 -35 25 -35 10 0 26 -9 36 -20 13 -15 22 -17 29
-10 8 8 0 21 -26 46 -41 37 -56 42 -64 19z"/>
<path d="M430 1350 c0 -11 7 -20 15 -20 8 0 24 -9 35 -20 11 -11 22 -20 25
-20 11 0 4 37 -11 58 -20 29 -64 30 -64 2z"/>
<path d="M597 1353 c-15 -14 -5 -30 28 -46 20 -9 38 -17 40 -17 12 0 3 19 -20
44 -24 26 -36 31 -48 19z"/>
<path d="M4544 1339 c-7 -13 34 -59 53 -59 21 0 15 15 -17 43 -18 16 -32 22
-36 16z"/>
<path d="M4680 1325 c0 -8 16 -22 35 -31 19 -9 35 -20 35 -25 0 -5 5 -9 10 -9
18 0 10 23 -17 52 -29 30 -63 37 -63 13z"/>
<path d="M4845 1320 c-8 -25 1 -40 24 -40 10 0 24 -7 31 -15 14 -16 40 -20 40
-6 0 8 -76 81 -84 81 -3 0 -7 -9 -11 -20z"/>
<path d="M370 1310 c0 -19 64 -59 76 -47 7 6 -15 49 -30 59 -21 15 -46 8 -46
-12z"/>
<path d="M5013 1313 c-7 -2 -13 -13 -13 -24 0 -12 -7 -19 -20 -19 -33 0 -25
-36 11 -49 18 -6 34 -11 35 -11 9 0 3 39 -6 45 -5 3 -10 11 -10 16 0 6 5 7 10
4 6 -4 10 5 10 19 0 14 -1 26 -2 25 -2 0 -9 -3 -15 -6z"/>
<path d="M530 1296 c0 -11 9 -16 26 -16 31 0 28 23 -4 28 -15 2 -22 -2 -22
-12z"/>
<path d="M310 1275 c-17 -20 3 -45 31 -38 26 7 33 21 19 38 -16 19 -34 19 -50
0z"/>
<path d="M4630 1283 c0 -17 16 -30 43 -37 15 -3 27 -11 27 -16 0 -6 7 -10 15
-10 22 0 19 10 -12 42 -24 25 -73 39 -73 21z"/>
<path d="M4800 1260 c0 -12 7 -20 16 -20 9 0 28 -9 42 -21 23 -18 27 -19 30
-5 4 19 -46 65 -70 66 -11 0 -18 -7 -18 -20z"/>
<path d="M4597 1243 c-14 -13 -6 -33 12 -33 11 0 26 -7 35 -15 16 -17 36 -20
36 -6 0 8 -63 61 -73 61 -2 0 -7 -3 -10 -7z"/>
<path d="M4757 1233 c-4 -3 -7 -10 -7 -14 0 -10 92 -61 98 -54 8 7 -59 75 -73
75 -7 0 -15 -3 -18 -7z"/>
<path d="M4922 1221 c-16 -10 -4 -41 15 -41 8 0 28 -9 43 -20 19 -14 31 -17
35 -10 14 23 -69 86 -93 71z"/>
<path d="M4710 1181 c0 -10 42 -23 49 -15 7 6 -20 24 -36 24 -7 0 -13 -4 -13
-9z"/>
<path d="M4875 1170 c-11 -17 5 -30 37 -30 30 0 31 0 13 20 -20 22 -40 26 -50
10z"/>
<path d="M5015 1110 c3 -5 8 -10 11 -10 2 0 4 5 4 10 0 6 -5 10 -11 10 -5 0
-7 -4 -4 -10z"/>
<path d="M4900 1084 c-11 -12 -10 -18 3 -31 8 -9 23 -13 31 -10 21 8 21 43 0
51 -21 8 -20 8 -34 -10z"/>
<path d="M4850 1016 c0 -7 10 -25 21 -40 12 -16 18 -31 13 -36 -5 -4 -58 -15
-119 -24 -183 -28 -162 -11 -169 -129 -4 -56 -9 -118 -11 -137 -2 -19 -7 -53
-9 -75 -9 -74 -18 -100 -40 -117 -13 -11 -16 -18 -7 -18 17 0 9 -63 -14 -106
-8 -16 -15 -37 -15 -47 0 -10 -3 -16 -7 -14 -5 3 -9 -6 -10 -20 0 -14 -5 -28
-11 -32 -11 -7 -52 -90 -52 -106 0 -7 -9 -20 -20 -30 -11 -10 -20 -28 -21 -39
0 -20 -1 -20 -9 2 -11 27 -26 28 -40 3 -13 -25 -13 -34 0 -26 6 3 10 -1 10 -9
0 -14 18 -16 120 -16 104 0 119 2 113 16 -5 14 -2 14 31 0 26 -11 70 -15 148
-15 l111 0 -29 30 c-19 20 -23 29 -13 29 9 0 28 -13 44 -30 27 -28 34 -30 98
-30 l70 0 -19 22 c-17 19 -17 21 -1 15 15 -6 17 1 17 65 0 61 -2 69 -15 58
-12 -10 -15 -10 -15 2 0 7 -9 21 -20 31 -35 29 -22 41 15 13 l35 -27 0 40 c0
22 -5 42 -12 44 -10 4 -10 6 0 6 7 1 12 15 12 36 0 31 -3 35 -25 35 -14 0 -25
-4 -25 -10 0 -5 -4 -10 -10 -10 -5 0 -7 6 -4 14 3 8 -3 19 -15 26 -24 13 -28
30 -6 30 8 0 15 -4 15 -10 0 -14 37 -31 54 -24 24 9 19 24 -16 56 -22 19 -27
28 -15 28 9 0 23 -10 31 -22 15 -21 16 -17 16 61 0 73 -2 82 -17 79 -10 -2
-19 -13 -21 -26 -2 -12 -7 -22 -11 -22 -5 0 -6 12 -3 26 3 16 -1 29 -9 35 -7
4 -10 11 -6 15 3 4 13 1 22 -6 8 -7 22 -10 30 -6 13 4 15 35 15 196 l0 190
-29 0 c-25 0 -28 3 -23 26 4 24 3 25 -32 19 -26 -5 -43 -3 -61 9 -30 20 -35
20 -35 2z m67 -389 c3 -4 -6 -7 -20 -7 -22 0 -27 -5 -27 -24 0 -18 -6 -25 -22
-28 -15 -2 -24 -11 -26 -25 -2 -13 -13 -24 -28 -27 -14 -4 -24 -14 -24 -24 0
-9 -10 -22 -22 -27 -13 -6 -23 -19 -23 -30 0 -15 -6 -19 -21 -17 -13 2 -24 -4
-28 -14 -7 -18 10 -44 29 -44 7 0 24 -9 38 -20 14 -11 30 -20 36 -20 20 0 11
34 -16 62 -35 36 -8 39 35 3 16 -13 32 -22 36 -18 12 12 6 40 -14 58 -42 38
-18 48 26 10 46 -40 55 3 11 53 -25 27 -9 29 26 2 14 -11 30 -20 36 -20 18 0
13 30 -10 58 -26 34 -7 43 26 12 19 -18 22 -27 14 -42 -5 -10 -7 -22 -4 -27 3
-5 -5 -11 -17 -13 -14 -2 -24 -12 -28 -28 -4 -16 -14 -26 -28 -28 -16 -2 -22
-10 -22 -28 0 -19 -5 -24 -25 -24 -20 0 -25 -5 -25 -24 0 -18 -6 -26 -22 -28
-17 -2 -22 -9 -21 -25 2 -16 -4 -23 -19 -25 -14 -2 -24 -12 -28 -28 -4 -15
-15 -27 -30 -30 -18 -5 -24 -12 -23 -28 2 -17 -2 -22 -22 -22 -20 0 -25 -5
-25 -24 0 -14 -5 -28 -11 -31 -15 -10 -17 -4 -11 37 3 32 8 38 28 38 28 0 33
30 9 50 -16 13 -20 40 -6 40 4 0 20 -9 34 -20 32 -25 37 -25 37 3 0 12 -9 28
-20 35 -11 7 -20 17 -20 22 0 17 36 11 55 -10 10 -11 22 -17 26 -14 32 19 -31
94 -80 94 -17 0 -31 5 -31 10 0 6 9 10 20 10 24 0 26 26 5 57 -19 26 -5 38 21
18 10 -8 25 -15 32 -15 24 0 11 29 -28 63 -31 26 -40 41 -40 65 0 25 4 32 19
32 11 0 26 3 35 6 10 4 16 1 16 -9 0 -8 12 -20 28 -26 15 -6 38 -18 51 -28
l24 -17 -5 36 c-4 34 -3 35 20 27 32 -12 32 -12 32 19 0 24 4 27 30 26 17 0
33 -4 37 -7z m-2 -304 c10 -9 27 -18 39 -19 32 -4 33 -5 6 -13 -15 -4 -26 -15
-28 -28 -2 -14 -12 -23 -25 -25 -16 -2 -23 -11 -25 -30 -2 -19 -9 -28 -21 -28
-9 0 -22 -5 -29 -12 -9 -9 -12 -9 -12 3 0 9 -9 24 -20 34 -43 39 -17 48 28 10
17 -14 33 -25 36 -25 15 0 4 49 -14 65 -11 10 -20 22 -20 27 0 15 27 8 45 -12
10 -11 24 -20 32 -20 20 0 16 34 -7 55 -11 10 -20 22 -20 27 0 13 17 9 35 -9z
m-131 -164 c14 -11 30 -18 35 -14 5 3 12 1 16 -5 3 -5 3 -10 -2 -11 -4 0 -18
-2 -30 -5 -14 -2 -33 7 -55 26 -29 27 -30 30 -12 30 12 0 33 -9 48 -21z m170
-11 c24 -22 24 -24 9 -43 -13 -16 -15 -17 -10 -3 4 12 -2 23 -18 34 -25 16
-33 34 -16 34 6 0 21 -10 35 -22z m-228 -39 c10 -11 26 -18 35 -16 10 3 20 -1
23 -8 3 -9 -4 -15 -22 -17 -19 -2 -27 -9 -27 -23 0 -14 -9 -22 -29 -26 -28 -7
-39 0 -75 44 -12 15 -11 17 7 14 12 -2 32 -13 45 -25 30 -28 37 -28 37 3 0 16
-11 36 -27 50 -26 23 -27 24 -7 25 11 0 29 -9 40 -21z m179 -15 c15 -14 34
-23 41 -20 8 3 14 2 14 -3 0 -5 -12 -11 -27 -14 -16 -3 -28 -4 -28 -4 0 1 -13
17 -29 35 -37 40 -13 45 29 6z m5 -74 c0 -5 -5 -10 -11 -10 -5 0 -7 5 -4 10 3
6 8 10 11 10 2 0 4 -4 4 -10z"/>
<path d="M4648 574 c-19 -18 14 -48 94 -82 19 -8 5 35 -19 60 -24 25 -61 36
-75 22z"/>
<path d="M1041 974 c0 -11 3 -14 6 -6 3 7 2 16 -1 19 -3 4 -6 -2 -5 -13z"/>
<path d="M1215 700 c3 -5 11 -10 16 -10 6 0 7 5 4 10 -3 6 -11 10 -16 10 -6 0
-7 -4 -4 -10z"/>
<path d="M1090 654 c0 -17 22 -14 28 4 2 7 -3 12 -12 12 -9 0 -16 -7 -16 -16z"/>
<path d="M4010 293 c-25 -9 -60 -46 -60 -63 0 -12 8 -15 33 -12 20 2 49 -6 80
-21 27 -14 47 -20 47 -13 0 6 3 21 6 32 4 15 -2 30 -21 48 -14 14 -30 26 -35
26 -4 0 -14 2 -22 4 -7 3 -20 2 -28 -1z"/>
<path d="M0 118 c1 -52 5 -68 25 -90 23 -27 27 -28 124 -27 101 0 115 5 86 29
-12 10 -22 10 -39 2 -28 -12 -36 -7 -36 22 0 17 -2 18 -10 6 -8 -12 -10 -11
-10 6 0 12 -6 26 -13 33 -11 8 -13 5 -9 -19 3 -18 0 -30 -7 -30 -6 0 -11 12
-11 27 0 29 -15 22 -23 -12 -3 -11 -5 -4 -6 18 -1 26 -6 37 -16 37 -8 0 -14 3
-13 8 3 10 -25 52 -34 52 -5 0 -8 -28 -8 -62z m57 -55 c-3 -10 -5 -2 -5 17 0
19 2 27 5 18 2 -10 2 -26 0 -35z"/>
<path d="M1713 136 c-13 -6 -23 -17 -23 -24 0 -7 -16 -34 -35 -59 -19 -25 -33
-48 -31 -51 10 -10 62 38 81 75 11 21 25 42 32 46 14 9 18 28 6 26 -5 -1 -18
-6 -30 -13z"/>
<path d="M4086 110 c-31 -28 -41 -31 -71 -26 -20 4 -35 13 -35 21 0 15 -34 30
-49 21 -9 -6 -3 -36 13 -76 3 -8 26 -23 51 -33 40 -17 46 -17 60 -4 8 9 15 20
15 26 0 6 8 11 18 11 11 0 25 14 36 36 24 52 7 63 -38 24z m-66 -70 c0 -5 -4
-10 -9 -10 -6 0 -13 5 -16 10 -3 6 1 10 9 10 9 0 16 -4 16 -10z"/>
<path d="M2009 113 c0 -11 -3 -13 -6 -5 -2 6 -9 12 -15 12 -6 0 -6 -6 2 -15
18 -21 40 -19 40 5 0 25 -20 27 -21 3z"/>
<path d="M325 90 c3 -5 8 -10 11 -10 2 0 4 5 4 10 0 6 -5 10 -11 10 -5 0 -7
-4 -4 -10z"/>
<path d="M520 86 c0 -8 5 -18 10 -21 6 -3 10 3 10 14 0 12 -4 21 -10 21 -5 0
-10 -6 -10 -14z"/>
<path d="M1970 86 c0 -9 5 -16 10 -16 6 0 10 4 10 9 0 6 -4 13 -10 16 -5 3
-10 -1 -10 -9z"/>
<path d="M243 65 c1 -21 8 -31 22 -34 11 -2 24 -9 28 -17 5 -10 27 -14 69 -14
51 0 59 2 49 14 -7 8 -23 13 -36 11 -14 -1 -30 4 -37 12 -6 8 -17 12 -25 9 -9
-4 -13 3 -14 22 l-1 27 -8 -25 c-8 -24 -8 -24 -9 -2 -1 12 -5 22 -11 22 -5 0
-10 -10 -11 -22 -1 -22 -1 -22 -9 2 -9 24 -9 24 -7 -5z"/>
<path d="M552 70 c-10 -25 0 -50 19 -50 12 0 11 41 -1 60 -7 12 -11 10 -18
-10z"/>
<path d="M2580 75 c0 -9 5 -15 11 -13 6 2 11 8 11 13 0 5 -5 11 -11 13 -6 2
-11 -4 -11 -13z"/>
<path d="M415 70 c3 -5 8 -10 11 -10 2 0 4 5 4 10 0 6 -5 10 -11 10 -5 0 -7
-4 -4 -10z"/>
<path d="M460 70 c0 -5 5 -10 11 -10 5 0 7 5 4 10 -3 6 -8 10 -11 10 -2 0 -4
-4 -4 -10z"/>
<path d="M1566 36 l-35 -36 28 0 c24 0 31 6 40 32 6 17 9 33 7 35 -2 3 -20
-12 -40 -31z"/>
<path d="M594 45 c-12 -30 4 -45 46 -45 43 0 44 5 12 43 -18 21 -51 22 -58 2z"/>
<path d="M1930 45 c-10 -12 -10 -15 0 -15 10 0 10 -3 0 -15 -10 -12 -10 -15 4
-15 9 0 16 8 16 20 0 11 5 20 11 20 5 0 7 5 4 10 -9 14 -21 12 -35 -5z"/>
<path d="M1501 23 c-13 -13 -20 -23 -14 -23 11 0 49 38 42 43 -2 2 -15 -7 -28
-20z"/>
<path d="M1334 24 c3 -9 6 -18 6 -20 0 -2 7 -4 15 -4 13 0 14 4 5 20 -13 24
-35 27 -26 4z"/>
<path d="M3885 20 c-18 -20 -17 -20 28 -20 48 0 56 7 35 28 -18 18 -43 15 -63
-8z"/>
</g>
</svg>
