G04 #@! TF.GenerationSoftware,KiCad,Pcbnew,8.0.2*
G04 #@! TF.CreationDate,2025-02-02T01:14:39-07:00*
G04 #@! TF.ProjectId,drs,6472732e-6b69-4636-9164-5f7063625858,v1*
G04 #@! TF.SameCoordinates,Original*
G04 #@! TF.FileFunction,Soldermask,Bot*
G04 #@! TF.FilePolarity,Negative*
%FSLAX46Y46*%
G04 Gerber Fmt 4.6, Leading zero omitted, Abs format (unit mm)*
G04 Created by KiCad (PCBNEW 8.0.2) date 2025-02-02 01:14:39*
%MOMM*%
%LPD*%
G01*
G04 APERTURE LIST*
G04 Aperture macros list*
%AMRoundRect*
0 Rectangle with rounded corners*
0 $1 Rounding radius*
0 $2 $3 $4 $5 $6 $7 $8 $9 X,Y pos of 4 corners*
0 Add a 4 corners polygon primitive as box body*
4,1,4,$2,$3,$4,$5,$6,$7,$8,$9,$2,$3,0*
0 Add four circle primitives for the rounded corners*
1,1,$1+$1,$2,$3*
1,1,$1+$1,$4,$5*
1,1,$1+$1,$6,$7*
1,1,$1+$1,$8,$9*
0 Add four rect primitives between the rounded corners*
20,1,$1+$1,$2,$3,$4,$5,0*
20,1,$1+$1,$4,$5,$6,$7,0*
20,1,$1+$1,$6,$7,$8,$9,0*
20,1,$1+$1,$8,$9,$2,$3,0*%
G04 Aperture macros list end*
%ADD10C,1.200000*%
%ADD11RoundRect,0.250000X0.750000X-0.600000X0.750000X0.600000X-0.750000X0.600000X-0.750000X-0.600000X0*%
%ADD12O,2.000000X1.700000*%
%ADD13R,1.700000X1.700000*%
%ADD14O,1.700000X1.700000*%
%ADD15RoundRect,0.250000X-0.600000X-0.750000X0.600000X-0.750000X0.600000X0.750000X-0.600000X0.750000X0*%
%ADD16O,1.700000X2.000000*%
%ADD17C,3.200000*%
%ADD18O,1.727200X1.727200*%
%ADD19R,1.727200X1.727200*%
%ADD20RoundRect,0.250000X0.725000X-0.600000X0.725000X0.600000X-0.725000X0.600000X-0.725000X-0.600000X0*%
%ADD21O,1.950000X1.700000*%
%ADD22RoundRect,0.250000X0.600000X0.750000X-0.600000X0.750000X-0.600000X-0.750000X0.600000X-0.750000X0*%
G04 APERTURE END LIST*
D10*
X162275000Y-86750000D03*
D11*
X160275000Y-85150000D03*
D12*
X160275000Y-82650000D03*
D13*
X136500000Y-93100000D03*
D14*
X136500000Y-90560000D03*
D13*
X124900000Y-84975000D03*
D14*
X124900000Y-82435000D03*
D10*
X148300000Y-80200000D03*
D15*
X149900000Y-78200000D03*
D16*
X152400000Y-78200000D03*
D17*
X128870000Y-119800000D03*
X130140000Y-71540000D03*
X180940000Y-86780000D03*
X180940000Y-114720000D03*
D18*
X150460000Y-119800000D03*
X153000000Y-119800000D03*
X181067000Y-91860000D03*
X165700000Y-119800000D03*
X168240000Y-119800000D03*
X170780000Y-119800000D03*
X173320000Y-119800000D03*
X175860000Y-119800000D03*
X178400000Y-119800000D03*
X138776000Y-71540000D03*
X142840000Y-119800000D03*
X178400000Y-71540000D03*
X175860000Y-71540000D03*
X173320000Y-71540000D03*
X170780000Y-71540000D03*
X168240000Y-71540000D03*
X165700000Y-71540000D03*
X163160000Y-71540000D03*
X160620000Y-71540000D03*
X156556000Y-71540000D03*
X154016000Y-71540000D03*
X151476000Y-71540000D03*
X148936000Y-71540000D03*
X146396000Y-71540000D03*
X143856000Y-71540000D03*
D19*
X141316000Y-71540000D03*
X155540000Y-119800000D03*
X158080000Y-119800000D03*
X181067000Y-96940000D03*
D18*
X145380000Y-119800000D03*
X178527000Y-91860000D03*
X181067000Y-94400000D03*
X147920000Y-119800000D03*
X178527000Y-96940000D03*
X178527000Y-94400000D03*
X133696000Y-71540000D03*
X136236000Y-71540000D03*
X160620000Y-119800000D03*
D10*
X126875000Y-97300000D03*
D20*
X124875000Y-95700000D03*
D21*
X124875000Y-93200000D03*
X124875000Y-90700000D03*
D10*
X162100000Y-112000000D03*
D22*
X160500000Y-114000000D03*
D16*
X158000000Y-114000000D03*
M02*
