G04 #@! TF.GenerationSoftware,KiCad,Pcbnew,7.0.8*
G04 #@! TF.CreationDate,2024-01-22T06:11:39-07:00*
G04 #@! TF.ProjectId,telemetry,74656c65-6d65-4747-9279-2e6b69636164,v1*
G04 #@! TF.SameCoordinates,Original*
G04 #@! TF.FileFunction,Copper,L1,Top*
G04 #@! TF.FilePolarity,Positive*
%FSLAX46Y46*%
G04 Gerber Fmt 4.6, Leading zero omitted, Abs format (unit mm)*
G04 Created by KiCad (PCBNEW 7.0.8) date 2024-01-22 06:11:39*
%MOMM*%
%LPD*%
G01*
G04 APERTURE LIST*
G04 Aperture macros list*
%AMRoundRect*
0 Rectangle with rounded corners*
0 $1 Rounding radius*
0 $2 $3 $4 $5 $6 $7 $8 $9 X,Y pos of 4 corners*
0 Add a 4 corners polygon primitive as box body*
4,1,4,$2,$3,$4,$5,$6,$7,$8,$9,$2,$3,0*
0 Add four circle primitives for the rounded corners*
1,1,$1+$1,$2,$3*
1,1,$1+$1,$4,$5*
1,1,$1+$1,$6,$7*
1,1,$1+$1,$8,$9*
0 Add four rect primitives between the rounded corners*
20,1,$1+$1,$2,$3,$4,$5,0*
20,1,$1+$1,$4,$5,$6,$7,0*
20,1,$1+$1,$6,$7,$8,$9,0*
20,1,$1+$1,$8,$9,$2,$3,0*%
G04 Aperture macros list end*
G04 #@! TA.AperFunction,SMDPad,CuDef*
%ADD10RoundRect,0.225000X0.250000X-0.225000X0.250000X0.225000X-0.250000X0.225000X-0.250000X-0.225000X0*%
G04 #@! TD*
G04 #@! TA.AperFunction,SMDPad,CuDef*
%ADD11RoundRect,0.250000X-0.625000X0.375000X-0.625000X-0.375000X0.625000X-0.375000X0.625000X0.375000X0*%
G04 #@! TD*
G04 #@! TA.AperFunction,SMDPad,CuDef*
%ADD12RoundRect,0.250000X0.450000X-0.262500X0.450000X0.262500X-0.450000X0.262500X-0.450000X-0.262500X0*%
G04 #@! TD*
G04 #@! TA.AperFunction,ComponentPad*
%ADD13RoundRect,0.250000X-0.725000X0.600000X-0.725000X-0.600000X0.725000X-0.600000X0.725000X0.600000X0*%
G04 #@! TD*
G04 #@! TA.AperFunction,ComponentPad*
%ADD14O,1.950000X1.700000*%
G04 #@! TD*
G04 #@! TA.AperFunction,SMDPad,CuDef*
%ADD15RoundRect,0.150000X-0.825000X-0.150000X0.825000X-0.150000X0.825000X0.150000X-0.825000X0.150000X0*%
G04 #@! TD*
G04 #@! TA.AperFunction,SMDPad,CuDef*
%ADD16R,0.700000X0.450000*%
G04 #@! TD*
G04 #@! TA.AperFunction,ComponentPad*
%ADD17R,1.700000X1.700000*%
G04 #@! TD*
G04 #@! TA.AperFunction,ComponentPad*
%ADD18O,1.700000X1.700000*%
G04 #@! TD*
G04 #@! TA.AperFunction,SMDPad,CuDef*
%ADD19RoundRect,0.250000X-0.450000X0.262500X-0.450000X-0.262500X0.450000X-0.262500X0.450000X0.262500X0*%
G04 #@! TD*
G04 #@! TA.AperFunction,SMDPad,CuDef*
%ADD20RoundRect,0.200000X-0.275000X0.200000X-0.275000X-0.200000X0.275000X-0.200000X0.275000X0.200000X0*%
G04 #@! TD*
G04 #@! TA.AperFunction,ComponentPad*
%ADD21O,1.600000X1.900000*%
G04 #@! TD*
G04 #@! TA.AperFunction,ComponentPad*
%ADD22R,1.600000X1.600000*%
G04 #@! TD*
G04 #@! TA.AperFunction,ComponentPad*
%ADD23C,1.600000*%
G04 #@! TD*
G04 #@! TA.AperFunction,ComponentPad*
%ADD24R,1.300000X1.300000*%
G04 #@! TD*
G04 #@! TA.AperFunction,ViaPad*
%ADD25C,0.700000*%
G04 #@! TD*
G04 #@! TA.AperFunction,Conductor*
%ADD26C,0.500000*%
G04 #@! TD*
G04 #@! TA.AperFunction,Conductor*
%ADD27C,0.300000*%
G04 #@! TD*
G04 APERTURE END LIST*
D10*
X112510000Y-75275000D03*
X112510000Y-73725000D03*
D11*
X164000000Y-68277500D03*
X164000000Y-71077500D03*
D12*
X164000000Y-75600000D03*
X164000000Y-73775000D03*
D13*
X158500000Y-67500000D03*
D14*
X158500000Y-70000000D03*
X158500000Y-72500000D03*
X158500000Y-75000000D03*
D15*
X115525000Y-72595000D03*
X115525000Y-73865000D03*
X115525000Y-75135000D03*
X115525000Y-76405000D03*
X120475000Y-76405000D03*
X120475000Y-75135000D03*
X120475000Y-73865000D03*
X120475000Y-72595000D03*
D12*
X167700000Y-75612500D03*
X167700000Y-73787500D03*
D13*
X138500000Y-67500000D03*
D14*
X138500000Y-70000000D03*
X138500000Y-72500000D03*
X138500000Y-75000000D03*
D16*
X131500000Y-74010000D03*
X131500000Y-72710000D03*
X129500000Y-73360000D03*
D10*
X110000000Y-75275000D03*
X110000000Y-73725000D03*
D17*
X125500000Y-70360000D03*
D18*
X125500000Y-72900000D03*
D19*
X120600000Y-68187500D03*
X120600000Y-70012500D03*
D11*
X167700000Y-68300000D03*
X167700000Y-71100000D03*
D20*
X125500000Y-76360000D03*
X125500000Y-78010000D03*
D21*
X135247500Y-105570000D03*
X132707500Y-105570000D03*
X130167500Y-105570000D03*
X127627500Y-105570000D03*
X125087500Y-105570000D03*
X122547500Y-105570000D03*
X120007500Y-105570000D03*
X117467500Y-105570000D03*
X117467500Y-128430000D03*
X120007500Y-128430000D03*
X122547500Y-128430000D03*
X125087500Y-128430000D03*
X127627500Y-128430000D03*
X130167500Y-128430000D03*
X132707500Y-128430000D03*
X135247500Y-128430000D03*
D22*
X109125000Y-98580000D03*
D23*
X111665000Y-98580000D03*
X114205000Y-98580000D03*
X116745000Y-98580000D03*
X119285000Y-98580000D03*
X121825000Y-98580000D03*
X124365000Y-98580000D03*
X126905000Y-98580000D03*
X129445000Y-98580000D03*
X131985000Y-98580000D03*
X134525000Y-98580000D03*
X137065000Y-98580000D03*
X139605000Y-98580000D03*
X142145000Y-98580000D03*
X144685000Y-98580000D03*
X147225000Y-98580000D03*
X149765000Y-98580000D03*
X152305000Y-98580000D03*
X154845000Y-98580000D03*
X157385000Y-98580000D03*
X159925000Y-98580000D03*
X162465000Y-98580000D03*
X165005000Y-98580000D03*
X167545000Y-98580000D03*
X167545000Y-83340000D03*
X165005000Y-83340000D03*
X162465000Y-83340000D03*
X159925000Y-83340000D03*
X157385000Y-83340000D03*
X154845000Y-83340000D03*
X152305000Y-83340000D03*
X149765000Y-83340000D03*
X147225000Y-83340000D03*
X144685000Y-83340000D03*
X142145000Y-83340000D03*
X139605000Y-83340000D03*
X137065000Y-83340000D03*
X134525000Y-83340000D03*
X131985000Y-83340000D03*
X129445000Y-83340000D03*
X126905000Y-83340000D03*
X124365000Y-83340000D03*
X121825000Y-83340000D03*
X119285000Y-83340000D03*
X116745000Y-83340000D03*
X114205000Y-83340000D03*
X111665000Y-83340000D03*
X109125000Y-83340000D03*
X111665000Y-85880000D03*
X154845000Y-96040000D03*
X154845000Y-93500000D03*
X154845000Y-90960000D03*
X154845000Y-88420000D03*
X154845000Y-85880000D03*
D22*
X115424200Y-95529200D03*
D23*
X117964200Y-95529200D03*
X120504200Y-95529200D03*
X123044200Y-95529200D03*
X125584200Y-95529200D03*
D24*
X122095000Y-85778400D03*
D23*
X122095000Y-87778400D03*
X122095000Y-89778400D03*
X124095000Y-89778400D03*
X124095000Y-87778400D03*
X124095000Y-85778400D03*
X109855000Y-89690000D03*
X109855000Y-92230000D03*
D25*
X118700000Y-68400000D03*
X128100000Y-73800000D03*
X117400000Y-74000000D03*
X170100000Y-68300000D03*
D26*
X110100000Y-79600000D02*
X108400000Y-77900000D01*
X114205000Y-83340000D02*
X114205000Y-81505000D01*
X114205000Y-81505000D02*
X112300000Y-79600000D01*
X108400000Y-77900000D02*
X108400000Y-75800000D01*
X110000000Y-75275000D02*
X112510000Y-75275000D01*
X108400000Y-75800000D02*
X108925000Y-75275000D01*
X113765000Y-75135000D02*
X115525000Y-75135000D01*
X108925000Y-75275000D02*
X110000000Y-75275000D01*
X112510000Y-75275000D02*
X113625000Y-75275000D01*
X113625000Y-75275000D02*
X113765000Y-75135000D01*
X112300000Y-79600000D02*
X110100000Y-79600000D01*
X164000000Y-68277500D02*
X167677500Y-68277500D01*
X110000000Y-73725000D02*
X112510000Y-73725000D01*
X167700000Y-68300000D02*
X170100000Y-68300000D01*
X112510000Y-73725000D02*
X113525000Y-73725000D01*
X113665000Y-73865000D02*
X115525000Y-73865000D01*
X113525000Y-73725000D02*
X113665000Y-73865000D01*
X167677500Y-68277500D02*
X167700000Y-68300000D01*
X115525000Y-73865000D02*
X117265000Y-73865000D01*
X120600000Y-68187500D02*
X118912500Y-68187500D01*
X117265000Y-73865000D02*
X117400000Y-74000000D01*
D27*
X128540000Y-73360000D02*
X128100000Y-73800000D01*
X129500000Y-73360000D02*
X128540000Y-73360000D01*
D26*
X118912500Y-68187500D02*
X118700000Y-68400000D01*
D27*
X121635000Y-73865000D02*
X125140000Y-70360000D01*
X133090000Y-72710000D02*
X131500000Y-72710000D01*
X128360000Y-70360000D02*
X125500000Y-70360000D01*
X120475000Y-73865000D02*
X121635000Y-73865000D01*
X131500000Y-72710000D02*
X130710000Y-72710000D01*
X125140000Y-70360000D02*
X125500000Y-70360000D01*
X133300000Y-72500000D02*
X133090000Y-72710000D01*
X138500000Y-72500000D02*
X133300000Y-72500000D01*
X130710000Y-72710000D02*
X128360000Y-70360000D01*
X138500000Y-72500000D02*
X158500000Y-72500000D01*
X124610000Y-78010000D02*
X125500000Y-78010000D01*
X131500000Y-74010000D02*
X133010000Y-74010000D01*
X134000000Y-75000000D02*
X138500000Y-75000000D01*
X125500000Y-78010000D02*
X126290000Y-78010000D01*
X126290000Y-78010000D02*
X130290000Y-74010000D01*
X133010000Y-74010000D02*
X134000000Y-75000000D01*
X158500000Y-75000000D02*
X138500000Y-75000000D01*
X120475000Y-75135000D02*
X121735000Y-75135000D01*
X130290000Y-74010000D02*
X131500000Y-74010000D01*
X121735000Y-75135000D02*
X124610000Y-78010000D01*
D26*
X161700000Y-74400000D02*
X161700000Y-69600000D01*
X131900000Y-66300000D02*
X133100000Y-67500000D01*
X138500000Y-67500000D02*
X158500000Y-67500000D01*
X106200000Y-74700000D02*
X114600000Y-66300000D01*
X133100000Y-67500000D02*
X138500000Y-67500000D01*
X114600000Y-66300000D02*
X131900000Y-66300000D01*
X164000000Y-75600000D02*
X162900000Y-75600000D01*
X109125000Y-83340000D02*
X106200000Y-80415000D01*
X161700000Y-69600000D02*
X159600000Y-67500000D01*
X162900000Y-75600000D02*
X161700000Y-74400000D01*
X106200000Y-80415000D02*
X106200000Y-74700000D01*
X159600000Y-67500000D02*
X158500000Y-67500000D01*
D27*
X125500000Y-72900000D02*
X125500000Y-76360000D01*
X120475000Y-72595000D02*
X120475000Y-70137500D01*
X120475000Y-70137500D02*
X120600000Y-70012500D01*
X116745000Y-81545000D02*
X116745000Y-83340000D01*
X114095000Y-76405000D02*
X113400000Y-77100000D01*
X113400000Y-78200000D02*
X116745000Y-81545000D01*
X115525000Y-76405000D02*
X114095000Y-76405000D01*
X113400000Y-77100000D02*
X113400000Y-78200000D01*
X118100000Y-73500000D02*
X118100000Y-80000000D01*
X117195000Y-72595000D02*
X118100000Y-73500000D01*
X115525000Y-72595000D02*
X117195000Y-72595000D01*
X119285000Y-81185000D02*
X119285000Y-83340000D01*
X118100000Y-80000000D02*
X119285000Y-81185000D01*
D26*
X164000000Y-71077500D02*
X164000000Y-73775000D01*
X167700000Y-71100000D02*
X167700000Y-73787500D01*
X167700000Y-78400000D02*
X167700000Y-75612500D01*
X139605000Y-80995000D02*
X140800000Y-79800000D01*
X139605000Y-83340000D02*
X139605000Y-80995000D01*
X166300000Y-79800000D02*
X167700000Y-78400000D01*
X140800000Y-79800000D02*
X166300000Y-79800000D01*
D27*
X137400000Y-101800000D02*
X139605000Y-99595000D01*
X139605000Y-99595000D02*
X139605000Y-98580000D01*
X122547500Y-105570000D02*
X122547500Y-104152500D01*
X122547500Y-104152500D02*
X124900000Y-101800000D01*
X124900000Y-101800000D02*
X137400000Y-101800000D01*
X142145000Y-100055000D02*
X142145000Y-98580000D01*
X125087500Y-105570000D02*
X125087500Y-104312500D01*
X139300000Y-102900000D02*
X142145000Y-100055000D01*
X125087500Y-104312500D02*
X126500000Y-102900000D01*
X126500000Y-102900000D02*
X139300000Y-102900000D01*
X111400000Y-95700000D02*
X107600000Y-95700000D01*
X114200000Y-92900000D02*
X111400000Y-95700000D01*
X106500000Y-107700000D02*
X108900000Y-110100000D01*
X107600000Y-95700000D02*
X106500000Y-96800000D01*
X127627500Y-107772500D02*
X127627500Y-105570000D01*
X136500000Y-92900000D02*
X114200000Y-92900000D01*
X106500000Y-96800000D02*
X106500000Y-107700000D01*
X142145000Y-87255000D02*
X136500000Y-92900000D01*
X125300000Y-110100000D02*
X127627500Y-107772500D01*
X142145000Y-83340000D02*
X142145000Y-87255000D01*
X108900000Y-110100000D02*
X125300000Y-110100000D01*
M02*
