G04 #@! TF.GenerationSoftware,KiCad,Pcbnew,9.0.0*
G04 #@! TF.CreationDate,2025-04-03T01:17:14-07:00*
G04 #@! TF.ProjectId,SDM25_IMU_STM32,53444d32-355f-4494-9d55-5f53544d3332,rev?*
G04 #@! TF.SameCoordinates,Original*
G04 #@! TF.FileFunction,Copper,L1,Top*
G04 #@! TF.FilePolarity,Positive*
%FSLAX46Y46*%
G04 Gerber Fmt 4.6, Leading zero omitted, Abs format (unit mm)*
G04 Created by KiCad (PCBNEW 9.0.0) date 2025-04-03 01:17:14*
%MOMM*%
%LPD*%
G01*
G04 APERTURE LIST*
G04 Aperture macros list*
%AMRoundRect*
0 Rectangle with rounded corners*
0 $1 Rounding radius*
0 $2 $3 $4 $5 $6 $7 $8 $9 X,Y pos of 4 corners*
0 Add a 4 corners polygon primitive as box body*
4,1,4,$2,$3,$4,$5,$6,$7,$8,$9,$2,$3,0*
0 Add four circle primitives for the rounded corners*
1,1,$1+$1,$2,$3*
1,1,$1+$1,$4,$5*
1,1,$1+$1,$6,$7*
1,1,$1+$1,$8,$9*
0 Add four rect primitives between the rounded corners*
20,1,$1+$1,$2,$3,$4,$5,0*
20,1,$1+$1,$4,$5,$6,$7,0*
20,1,$1+$1,$6,$7,$8,$9,0*
20,1,$1+$1,$8,$9,$2,$3,0*%
G04 Aperture macros list end*
G04 #@! TA.AperFunction,SMDPad,CuDef*
%ADD10RoundRect,0.140000X0.140000X0.170000X-0.140000X0.170000X-0.140000X-0.170000X0.140000X-0.170000X0*%
G04 #@! TD*
G04 #@! TA.AperFunction,SMDPad,CuDef*
%ADD11RoundRect,0.245000X-0.380000X0.245000X-0.380000X-0.245000X0.380000X-0.245000X0.380000X0.245000X0*%
G04 #@! TD*
G04 #@! TA.AperFunction,SMDPad,CuDef*
%ADD12R,0.400000X1.350000*%
G04 #@! TD*
G04 #@! TA.AperFunction,ComponentPad*
%ADD13O,1.200000X1.900000*%
G04 #@! TD*
G04 #@! TA.AperFunction,SMDPad,CuDef*
%ADD14R,1.200000X1.900000*%
G04 #@! TD*
G04 #@! TA.AperFunction,ComponentPad*
%ADD15C,1.450000*%
G04 #@! TD*
G04 #@! TA.AperFunction,SMDPad,CuDef*
%ADD16R,1.500000X1.900000*%
G04 #@! TD*
G04 #@! TA.AperFunction,SMDPad,CuDef*
%ADD17RoundRect,0.225000X0.225000X0.250000X-0.225000X0.250000X-0.225000X-0.250000X0.225000X-0.250000X0*%
G04 #@! TD*
G04 #@! TA.AperFunction,SMDPad,CuDef*
%ADD18RoundRect,0.200000X0.200000X0.275000X-0.200000X0.275000X-0.200000X-0.275000X0.200000X-0.275000X0*%
G04 #@! TD*
G04 #@! TA.AperFunction,SMDPad,CuDef*
%ADD19RoundRect,0.140000X-0.140000X-0.170000X0.140000X-0.170000X0.140000X0.170000X-0.140000X0.170000X0*%
G04 #@! TD*
G04 #@! TA.AperFunction,SMDPad,CuDef*
%ADD20RoundRect,0.225000X0.250000X-0.225000X0.250000X0.225000X-0.250000X0.225000X-0.250000X-0.225000X0*%
G04 #@! TD*
G04 #@! TA.AperFunction,SMDPad,CuDef*
%ADD21RoundRect,0.250000X0.475000X-0.250000X0.475000X0.250000X-0.475000X0.250000X-0.475000X-0.250000X0*%
G04 #@! TD*
G04 #@! TA.AperFunction,SMDPad,CuDef*
%ADD22RoundRect,0.140000X0.170000X-0.140000X0.170000X0.140000X-0.170000X0.140000X-0.170000X-0.140000X0*%
G04 #@! TD*
G04 #@! TA.AperFunction,SMDPad,CuDef*
%ADD23RoundRect,0.250000X-0.262500X-0.450000X0.262500X-0.450000X0.262500X0.450000X-0.262500X0.450000X0*%
G04 #@! TD*
G04 #@! TA.AperFunction,SMDPad,CuDef*
%ADD24RoundRect,0.218750X0.218750X0.256250X-0.218750X0.256250X-0.218750X-0.256250X0.218750X-0.256250X0*%
G04 #@! TD*
G04 #@! TA.AperFunction,SMDPad,CuDef*
%ADD25RoundRect,0.250000X-0.250000X-0.475000X0.250000X-0.475000X0.250000X0.475000X-0.250000X0.475000X0*%
G04 #@! TD*
G04 #@! TA.AperFunction,SMDPad,CuDef*
%ADD26RoundRect,0.075000X-0.075000X0.700000X-0.075000X-0.700000X0.075000X-0.700000X0.075000X0.700000X0*%
G04 #@! TD*
G04 #@! TA.AperFunction,SMDPad,CuDef*
%ADD27RoundRect,0.075000X-0.700000X0.075000X-0.700000X-0.075000X0.700000X-0.075000X0.700000X0.075000X0*%
G04 #@! TD*
G04 #@! TA.AperFunction,ComponentPad*
%ADD28R,1.700000X1.700000*%
G04 #@! TD*
G04 #@! TA.AperFunction,ComponentPad*
%ADD29O,1.700000X1.700000*%
G04 #@! TD*
G04 #@! TA.AperFunction,SMDPad,CuDef*
%ADD30RoundRect,0.150000X-0.150000X0.825000X-0.150000X-0.825000X0.150000X-0.825000X0.150000X0.825000X0*%
G04 #@! TD*
G04 #@! TA.AperFunction,SMDPad,CuDef*
%ADD31RoundRect,0.150000X0.150000X-0.512500X0.150000X0.512500X-0.150000X0.512500X-0.150000X-0.512500X0*%
G04 #@! TD*
G04 #@! TA.AperFunction,ComponentPad*
%ADD32RoundRect,0.250000X0.600000X0.725000X-0.600000X0.725000X-0.600000X-0.725000X0.600000X-0.725000X0*%
G04 #@! TD*
G04 #@! TA.AperFunction,ComponentPad*
%ADD33O,1.700000X1.950000*%
G04 #@! TD*
G04 #@! TA.AperFunction,SMDPad,CuDef*
%ADD34R,1.000000X1.150000*%
G04 #@! TD*
G04 #@! TA.AperFunction,SMDPad,CuDef*
%ADD35R,0.300000X0.480000*%
G04 #@! TD*
G04 #@! TA.AperFunction,SMDPad,CuDef*
%ADD36R,0.480000X0.300000*%
G04 #@! TD*
G04 #@! TA.AperFunction,SMDPad,CuDef*
%ADD37RoundRect,0.200000X-0.200000X-0.275000X0.200000X-0.275000X0.200000X0.275000X-0.200000X0.275000X0*%
G04 #@! TD*
G04 #@! TA.AperFunction,SMDPad,CuDef*
%ADD38RoundRect,0.250000X0.262500X0.450000X-0.262500X0.450000X-0.262500X-0.450000X0.262500X-0.450000X0*%
G04 #@! TD*
G04 #@! TA.AperFunction,ConnectorPad*
%ADD39C,0.787400*%
G04 #@! TD*
G04 #@! TA.AperFunction,SMDPad,CuDef*
%ADD40R,1.500000X2.000000*%
G04 #@! TD*
G04 #@! TA.AperFunction,SMDPad,CuDef*
%ADD41R,3.800000X2.000000*%
G04 #@! TD*
G04 #@! TA.AperFunction,SMDPad,CuDef*
%ADD42RoundRect,0.243750X-0.243750X-0.456250X0.243750X-0.456250X0.243750X0.456250X-0.243750X0.456250X0*%
G04 #@! TD*
G04 #@! TA.AperFunction,SMDPad,CuDef*
%ADD43RoundRect,0.112500X-0.362500X-0.112500X0.362500X-0.112500X0.362500X0.112500X-0.362500X0.112500X0*%
G04 #@! TD*
G04 #@! TA.AperFunction,ViaPad*
%ADD44C,0.600000*%
G04 #@! TD*
G04 #@! TA.AperFunction,ViaPad*
%ADD45C,0.700000*%
G04 #@! TD*
G04 #@! TA.AperFunction,Conductor*
%ADD46C,0.400000*%
G04 #@! TD*
G04 #@! TA.AperFunction,Conductor*
%ADD47C,0.500000*%
G04 #@! TD*
G04 #@! TA.AperFunction,Conductor*
%ADD48C,0.600000*%
G04 #@! TD*
G04 #@! TA.AperFunction,Conductor*
%ADD49C,0.300000*%
G04 #@! TD*
G04 #@! TA.AperFunction,Conductor*
%ADD50C,0.200000*%
G04 #@! TD*
G04 #@! TA.AperFunction,Conductor*
%ADD51C,0.440000*%
G04 #@! TD*
G04 APERTURE END LIST*
D10*
X96680000Y-91025000D03*
X95720000Y-91025000D03*
D11*
X89000000Y-94390000D03*
X89000000Y-97610000D03*
D12*
X103300000Y-123537500D03*
X103950000Y-123537500D03*
X104600000Y-123537500D03*
X105250000Y-123537500D03*
X105900000Y-123537500D03*
D13*
X101100000Y-126237500D03*
D14*
X101700000Y-126237500D03*
D15*
X102100000Y-123537500D03*
D16*
X103600000Y-126237500D03*
X105600000Y-126237500D03*
D15*
X107100000Y-123537500D03*
D14*
X107500000Y-126237500D03*
D13*
X108100000Y-126237500D03*
D17*
X106675000Y-104600000D03*
X105125000Y-104600000D03*
D18*
X90425000Y-112000000D03*
X88775000Y-112000000D03*
D19*
X102220000Y-93700000D03*
X103180000Y-93700000D03*
D20*
X90100000Y-108025000D03*
X90100000Y-106475000D03*
D21*
X110200000Y-112125000D03*
X110200000Y-110225000D03*
D22*
X101350000Y-90230000D03*
X101350000Y-89270000D03*
D23*
X94187500Y-82950000D03*
X96012500Y-82950000D03*
D24*
X90660000Y-89575000D03*
X89085000Y-89575000D03*
D18*
X95925000Y-87600000D03*
X94275000Y-87600000D03*
D19*
X111420000Y-107250000D03*
X112380000Y-107250000D03*
D25*
X105150000Y-117175000D03*
D23*
X95012500Y-117875000D03*
X96837500Y-117875000D03*
D10*
X103780000Y-85900000D03*
X102820000Y-85900000D03*
D26*
X100750000Y-94325000D03*
X100250000Y-94325000D03*
X99750000Y-94325000D03*
X99250000Y-94325000D03*
X98750000Y-94325000D03*
X98250000Y-94325000D03*
X97750000Y-94325000D03*
X97250000Y-94325000D03*
X96750000Y-94325000D03*
X96250000Y-94325000D03*
X95750000Y-94325000D03*
X95250000Y-94325000D03*
X94750000Y-94325000D03*
X94250000Y-94325000D03*
X93750000Y-94325000D03*
X93250000Y-94325000D03*
D27*
X91325000Y-96250000D03*
X91325000Y-96750000D03*
X91325000Y-97250000D03*
X91325000Y-97750000D03*
X91325000Y-98250000D03*
X91325000Y-98750000D03*
X91325000Y-99250000D03*
X91325000Y-99750000D03*
X91325000Y-100250000D03*
X91325000Y-100750000D03*
X91325000Y-101250000D03*
X91325000Y-101750000D03*
X91325000Y-102250000D03*
X91325000Y-102750000D03*
X91325000Y-103250000D03*
X91325000Y-103750000D03*
D26*
X93750000Y-105675000D03*
X94250000Y-105675000D03*
X94750000Y-105675000D03*
X95250000Y-105675000D03*
X95750000Y-105675000D03*
X96250000Y-105675000D03*
X96750000Y-105675000D03*
X97250000Y-105675000D03*
X97750000Y-105675000D03*
X98250000Y-105675000D03*
X98750000Y-105675000D03*
X99250000Y-105675000D03*
X99750000Y-105675000D03*
X100250000Y-105675000D03*
X100750000Y-105675000D03*
D27*
X102675000Y-103750000D03*
X102675000Y-103250000D03*
X102675000Y-102750000D03*
X102675000Y-102250000D03*
X102675000Y-101750000D03*
X102675000Y-101250000D03*
X102675000Y-100750000D03*
X102675000Y-100250000D03*
X102675000Y-99750000D03*
X102675000Y-99250000D03*
X102675000Y-98750000D03*
X102675000Y-98250000D03*
X102675000Y-97750000D03*
X102675000Y-97250000D03*
X102675000Y-96750000D03*
X102675000Y-96250000D03*
D26*
X93250000Y-105675000D03*
D28*
X111375000Y-102000000D03*
D29*
X108835000Y-102000000D03*
D11*
X85500000Y-94390000D03*
X85500000Y-97610000D03*
D30*
X95765000Y-109675000D03*
X94495000Y-109675000D03*
X93225000Y-109675000D03*
X91955000Y-109675000D03*
X91955000Y-114625000D03*
X93225000Y-114625000D03*
X94495000Y-114625000D03*
X95765000Y-114625000D03*
D17*
X90597500Y-92175000D03*
X89047500Y-92175000D03*
D31*
X98050000Y-111637500D03*
X99000000Y-111637500D03*
X99950000Y-111637500D03*
X99950000Y-109362500D03*
X99000000Y-109362500D03*
X98050000Y-109362500D03*
D32*
X96200000Y-123850000D03*
D33*
X93700000Y-123850000D03*
X91200000Y-123850000D03*
X88700000Y-123850000D03*
D34*
X99725000Y-90575000D03*
X99725000Y-88825000D03*
X98325000Y-88825000D03*
X98325000Y-90575000D03*
D35*
X99250000Y-86562500D03*
X99750000Y-86562500D03*
X100250000Y-86562500D03*
X100750000Y-86562500D03*
D36*
X101000000Y-85900000D03*
X101000000Y-85400000D03*
X101000000Y-84900000D03*
D35*
X100750000Y-84237500D03*
X100250000Y-84237500D03*
X99750000Y-84237500D03*
X99250000Y-84237500D03*
D36*
X99000000Y-84900000D03*
X99000000Y-85400000D03*
X99000000Y-85900000D03*
D37*
X86950000Y-100625000D03*
X88600000Y-100625000D03*
D38*
X113012500Y-121800000D03*
X111187500Y-121800000D03*
D19*
X90070000Y-105200000D03*
X91030000Y-105200000D03*
D39*
X108890000Y-98569000D03*
X108890000Y-97299000D03*
X110160000Y-98569000D03*
X110160000Y-97299000D03*
X111430000Y-98569000D03*
X111430000Y-97299000D03*
D19*
X95720000Y-92500000D03*
X96680000Y-92500000D03*
X102820000Y-84250000D03*
X103780000Y-84250000D03*
D25*
X103250000Y-117175000D03*
D28*
X86225000Y-110175000D03*
D29*
X86225000Y-107635000D03*
D18*
X95925000Y-85400000D03*
X94275000Y-85400000D03*
D40*
X102900000Y-114325000D03*
X105200000Y-114325000D03*
D41*
X105200000Y-108025000D03*
D40*
X107500000Y-114325000D03*
D38*
X110712500Y-105100000D03*
X108887500Y-105100000D03*
D22*
X94422500Y-90955000D03*
X94422500Y-89995000D03*
D42*
X111062500Y-124700000D03*
X112937500Y-124700000D03*
D37*
X86950000Y-104900000D03*
X88600000Y-104900000D03*
D20*
X92372500Y-91150000D03*
X92372500Y-89600000D03*
D25*
X103250000Y-117175000D03*
X105150000Y-117175000D03*
D43*
X86957192Y-102100000D03*
X86957192Y-102750000D03*
X86957192Y-103400000D03*
X89157192Y-103400000D03*
X89157192Y-102100000D03*
D44*
X107500000Y-116100000D03*
X97200000Y-115400000D03*
X108300003Y-116100000D03*
X104200000Y-99450000D03*
X101900000Y-85100000D03*
X95000000Y-102000000D03*
X91000000Y-85000000D03*
X84250000Y-102750000D03*
X97000000Y-98000000D03*
X91700000Y-93100000D03*
X91000000Y-83500000D03*
X100550000Y-120150000D03*
X91000000Y-84250000D03*
X96000000Y-103000000D03*
X85000000Y-102750000D03*
D45*
X103800000Y-106600000D03*
X105968170Y-112575000D03*
D44*
X95150000Y-119550000D03*
X85000000Y-101950000D03*
X95000000Y-103000000D03*
X104950000Y-85050000D03*
X100000000Y-91950000D03*
X105900000Y-120100000D03*
X101500000Y-92650000D03*
X112750000Y-89650000D03*
X112000000Y-89650000D03*
D45*
X104868170Y-112575000D03*
D44*
X84250000Y-102000000D03*
X111250000Y-89650000D03*
X99850000Y-120150000D03*
X97000000Y-99000000D03*
X91750000Y-85000000D03*
X95700000Y-89420000D03*
X104600000Y-96800000D03*
X95000000Y-99000000D03*
X89800938Y-104263080D03*
D45*
X106600000Y-106600000D03*
X109868170Y-108975000D03*
D44*
X92400000Y-93100000D03*
X91750000Y-83450000D03*
X95150000Y-88850000D03*
X94450000Y-119550000D03*
X97000000Y-102000000D03*
X100750000Y-92650000D03*
X110700000Y-103800000D03*
X97000000Y-103000000D03*
X101500000Y-91950000D03*
X100750000Y-91950000D03*
D45*
X110700000Y-108975000D03*
D44*
X104900000Y-85900000D03*
X104950000Y-84250000D03*
X96000000Y-99000000D03*
X111250000Y-88950000D03*
X85000000Y-103500000D03*
X96000000Y-98000000D03*
X105900000Y-120850000D03*
X91750000Y-84250000D03*
X112560000Y-100240000D03*
X96000000Y-102000000D03*
X84250000Y-103500000D03*
X95000000Y-98000000D03*
X112750000Y-88950000D03*
X96800000Y-111500000D03*
X106900000Y-103100000D03*
X112000000Y-88950000D03*
X100000000Y-92650000D03*
X104600000Y-98590000D03*
X100350000Y-97100000D03*
X97000000Y-87300000D03*
X89000000Y-99000000D03*
X92100000Y-112000000D03*
X99000000Y-108394239D03*
X102150000Y-117525000D03*
X98450000Y-119100000D03*
X98450000Y-114500000D03*
X102150000Y-116825000D03*
X92050000Y-116700000D03*
X85500000Y-99000000D03*
X101150000Y-97750000D03*
X97000000Y-86300000D03*
X96390000Y-95660000D03*
X110930000Y-99740000D03*
D46*
X98050000Y-112750000D02*
X98050000Y-111637500D01*
X99300000Y-114000000D02*
X98050000Y-112750000D01*
X99300000Y-117250058D02*
X99300000Y-114000000D01*
X103950000Y-121900058D02*
X99300000Y-117250058D01*
X103950000Y-123537500D02*
X103950000Y-121900058D01*
D47*
X98450000Y-114500000D02*
X98450000Y-119100000D01*
X93225000Y-111225000D02*
X93225000Y-109675000D01*
X94600000Y-112600000D02*
X93225000Y-111225000D01*
X95733738Y-112600000D02*
X94600000Y-112600000D01*
X97200000Y-114066262D02*
X95733738Y-112600000D01*
X97200000Y-115400000D02*
X97200000Y-114066262D01*
D48*
X112380000Y-103005000D02*
X112380000Y-107250000D01*
D49*
X103350000Y-96250000D02*
X102675000Y-96250000D01*
X103700000Y-95600000D02*
X103700000Y-95900000D01*
D46*
X103700000Y-95600000D02*
X103180000Y-95080000D01*
D49*
X88475000Y-105025000D02*
X88600000Y-104900000D01*
X90200000Y-103750000D02*
X91325000Y-103750000D01*
X92600000Y-95600000D02*
X90596880Y-95600000D01*
X91130592Y-111000000D02*
X88475000Y-108344408D01*
X89157192Y-103400000D02*
X89850000Y-103400000D01*
X90210940Y-99014060D02*
X88600000Y-100625000D01*
X100750000Y-95000000D02*
X100750000Y-94325000D01*
X91325000Y-97250000D02*
X90446880Y-97250000D01*
D47*
X91060000Y-87600000D02*
X89085000Y-89575000D01*
D48*
X103700000Y-95600000D02*
X104100000Y-95200000D01*
D49*
X101350000Y-95600000D02*
X100750000Y-95000000D01*
X102820000Y-85900000D02*
X102820000Y-86209999D01*
X100750000Y-105675000D02*
X100825000Y-105600000D01*
X91030000Y-105200000D02*
X91030000Y-104045000D01*
X101000000Y-85900000D02*
X102820000Y-85900000D01*
D47*
X94275000Y-85400000D02*
X94275000Y-87600000D01*
D46*
X103180000Y-95080000D02*
X103180000Y-93700000D01*
D48*
X113745300Y-101639700D02*
X112380000Y-103005000D01*
X113745300Y-96445300D02*
X113745300Y-101639700D01*
X104100000Y-95200000D02*
X112500000Y-95200000D01*
X111375000Y-101475000D02*
X111375000Y-102000000D01*
D47*
X94187500Y-82950000D02*
X94187500Y-85312500D01*
D48*
X108890000Y-98990000D02*
X111375000Y-101475000D01*
D49*
X90446880Y-97250000D02*
X90200000Y-97496880D01*
D48*
X92472500Y-95600000D02*
X89047500Y-92175000D01*
D46*
X107500000Y-121137500D02*
X107500000Y-116100000D01*
X102820000Y-86209999D02*
X103180000Y-86569999D01*
X103180000Y-86569999D02*
X103180000Y-93700000D01*
D49*
X90596880Y-95600000D02*
X90200000Y-95996880D01*
X90200000Y-97496880D02*
X90200000Y-99003120D01*
X108300000Y-106350000D02*
X111480000Y-106350000D01*
X100825000Y-105600000D02*
X107550000Y-105600000D01*
D47*
X89085000Y-89575000D02*
X89085000Y-92137500D01*
X94187500Y-85312500D02*
X94275000Y-85400000D01*
X94275000Y-87600000D02*
X91060000Y-87600000D01*
D49*
X93225000Y-110825000D02*
X93050000Y-111000000D01*
D48*
X112500000Y-95200000D02*
X113745300Y-96445300D01*
X98272359Y-95600000D02*
X97412359Y-96460000D01*
X110775000Y-112125000D02*
X112380000Y-110520000D01*
X96040000Y-96460000D02*
X95180000Y-95600000D01*
D50*
X103700000Y-95600000D02*
X101350000Y-95600000D01*
D48*
X97412359Y-96460000D02*
X96040000Y-96460000D01*
X103700000Y-95600000D02*
X98272359Y-95600000D01*
D49*
X89157192Y-103400000D02*
X88950000Y-103400000D01*
X90200000Y-95996880D02*
X90200000Y-97003120D01*
X93225000Y-109675000D02*
X93225000Y-110825000D01*
D48*
X110200000Y-112125000D02*
X110775000Y-112125000D01*
D49*
X90200000Y-99003120D02*
X90210940Y-99014060D01*
X88475000Y-108344408D02*
X88475000Y-105025000D01*
X111480000Y-106350000D02*
X112380000Y-107250000D01*
D48*
X92600000Y-95600000D02*
X92472500Y-95600000D01*
D47*
X89085000Y-92137500D02*
X89047500Y-92175000D01*
D48*
X112380000Y-110520000D02*
X112380000Y-107250000D01*
D47*
X107500000Y-116100000D02*
X107500000Y-114325000D01*
D49*
X89850000Y-103400000D02*
X90200000Y-103750000D01*
X91030000Y-104045000D02*
X91325000Y-103750000D01*
D46*
X111062500Y-124700000D02*
X107500000Y-121137500D01*
D49*
X103700000Y-95900000D02*
X103350000Y-96250000D01*
D48*
X95180000Y-95600000D02*
X92600000Y-95600000D01*
X111375000Y-102000000D02*
X112380000Y-103005000D01*
D49*
X107550000Y-105600000D02*
X108300000Y-106350000D01*
X100750000Y-84237500D02*
X102807500Y-84237500D01*
X90200000Y-97003120D02*
X90446880Y-97250000D01*
X88600000Y-103750000D02*
X88600000Y-104900000D01*
D51*
X102807500Y-84237500D02*
X102820000Y-84250000D01*
D49*
X93050000Y-111000000D02*
X91130592Y-111000000D01*
X88950000Y-103400000D02*
X88600000Y-103750000D01*
D51*
X102820000Y-84250000D02*
X102820000Y-85900000D01*
D48*
X108890000Y-98569000D02*
X108890000Y-98990000D01*
D49*
X99000000Y-84900000D02*
X97962500Y-84900000D01*
X97962500Y-84900000D02*
X96012500Y-82950000D01*
X109800000Y-121800000D02*
X108300003Y-120300003D01*
X102675000Y-99250000D02*
X104000000Y-99250000D01*
X104000000Y-99250000D02*
X104200000Y-99450000D01*
X111187500Y-121800000D02*
X109800000Y-121800000D01*
X108300003Y-120300003D02*
X108300003Y-116100000D01*
D46*
X112937500Y-124700000D02*
X112937500Y-121875000D01*
X112937500Y-121875000D02*
X113012500Y-121800000D01*
D47*
X95765000Y-117122500D02*
X95012500Y-117875000D01*
X95765000Y-114625000D02*
X95765000Y-117122500D01*
D49*
X112560000Y-100240000D02*
X111430000Y-99110000D01*
D47*
X94495000Y-110995000D02*
X94495000Y-109675000D01*
D49*
X103807500Y-84237500D02*
X103820000Y-84250000D01*
D47*
X98801000Y-110901000D02*
X99000000Y-111100000D01*
X96800000Y-111500000D02*
X96800000Y-111370900D01*
D46*
X95720000Y-92500000D02*
X95720000Y-91025000D01*
X105900000Y-120850000D02*
X105900000Y-123537500D01*
D47*
X96800000Y-111370900D02*
X97694900Y-110476000D01*
X98801000Y-110871900D02*
X98801000Y-110901000D01*
D46*
X90050000Y-106075000D02*
X90050000Y-105220000D01*
D47*
X98424000Y-110524000D02*
X98453100Y-110524000D01*
D49*
X88407192Y-102100000D02*
X89157192Y-102100000D01*
X111430000Y-99110000D02*
X111430000Y-98569000D01*
X102675000Y-96750000D02*
X104550000Y-96750000D01*
D47*
X96800000Y-111500000D02*
X95000000Y-111500000D01*
X98376000Y-110476000D02*
X98424000Y-110524000D01*
D46*
X90050000Y-105220000D02*
X90070000Y-105200000D01*
D49*
X99725000Y-89000000D02*
X98325000Y-90400000D01*
X101000000Y-84900000D02*
X101000000Y-85100000D01*
D46*
X95720000Y-91025000D02*
X94492500Y-91025000D01*
D49*
X99725000Y-88825000D02*
X99400000Y-88825000D01*
X87757192Y-102750000D02*
X88407192Y-102100000D01*
X104550000Y-96750000D02*
X104600000Y-96800000D01*
D46*
X95700000Y-89420000D02*
X95720000Y-89440000D01*
X95700000Y-89420000D02*
X95700000Y-89400000D01*
D47*
X99000000Y-111100000D02*
X99000000Y-111637500D01*
D49*
X95250000Y-92970000D02*
X95720000Y-92500000D01*
D50*
X99725000Y-88825000D02*
X99725000Y-89000000D01*
D49*
X101000000Y-85100000D02*
X101900000Y-85100000D01*
X86957192Y-102750000D02*
X85750000Y-102750000D01*
D50*
X110712500Y-103812500D02*
X110700000Y-103800000D01*
D49*
X91325000Y-96750000D02*
X92700000Y-96750000D01*
D47*
X97694900Y-110476000D02*
X98376000Y-110476000D01*
D49*
X95250000Y-94325000D02*
X95250000Y-92970000D01*
X101000000Y-84900000D02*
X101000000Y-85400000D01*
D46*
X94492500Y-91025000D02*
X94422500Y-90955000D01*
X95700000Y-89400000D02*
X95150000Y-88850000D01*
D49*
X86957192Y-102750000D02*
X87757192Y-102750000D01*
X90070000Y-105200000D02*
X90070000Y-104532142D01*
X90070000Y-104532142D02*
X89800938Y-104263080D01*
D46*
X95720000Y-89440000D02*
X95720000Y-91025000D01*
D47*
X95000000Y-111500000D02*
X94495000Y-110995000D01*
X98453100Y-110524000D02*
X98801000Y-110871900D01*
D49*
X108835000Y-105047500D02*
X108887500Y-105100000D01*
X104260000Y-98250000D02*
X102675000Y-98250000D01*
X108835000Y-102000000D02*
X108835000Y-105047500D01*
X104600000Y-98590000D02*
X104260000Y-98250000D01*
X101569239Y-97250000D02*
X102675000Y-97250000D01*
X96700000Y-87600000D02*
X97000000Y-87300000D01*
X101419239Y-97100000D02*
X101569239Y-97250000D01*
X95925000Y-87600000D02*
X96700000Y-87600000D01*
X97000000Y-87300000D02*
X98400000Y-85900000D01*
X98400000Y-85900000D02*
X99000000Y-85900000D01*
X100350000Y-97100000D02*
X101419239Y-97100000D01*
X86957192Y-103400000D02*
X87912500Y-103400000D01*
X86950000Y-103407192D02*
X86957192Y-103400000D01*
X87912500Y-103400000D02*
X88562500Y-102750000D01*
X86950000Y-104900000D02*
X86950000Y-103407192D01*
X88562500Y-102750000D02*
X91325000Y-102750000D01*
X86950000Y-102092808D02*
X86957192Y-102100000D01*
X88200000Y-101500000D02*
X89696880Y-101500000D01*
X87600000Y-102100000D02*
X88200000Y-101500000D01*
X90446880Y-102250000D02*
X91325000Y-102250000D01*
X86950000Y-100625000D02*
X86950000Y-102092808D01*
X89696880Y-101500000D02*
X90446880Y-102250000D01*
X86957192Y-102100000D02*
X87600000Y-102100000D01*
D47*
X86225000Y-110175000D02*
X86950000Y-110175000D01*
X86950000Y-110175000D02*
X88775000Y-112000000D01*
X90175000Y-120550000D02*
X88700000Y-122025000D01*
X94495000Y-113745000D02*
X93775000Y-113025000D01*
X94495000Y-114625000D02*
X94495000Y-113745000D01*
X92100000Y-112000000D02*
X90425000Y-112000000D01*
X91625000Y-113025000D02*
X91000000Y-113650000D01*
X91000000Y-113650000D02*
X91000000Y-117400000D01*
X90175000Y-118225000D02*
X90175000Y-120550000D01*
X93775000Y-113025000D02*
X91625000Y-113025000D01*
X91625000Y-113025000D02*
X92100000Y-112550000D01*
X91000000Y-117400000D02*
X90175000Y-118225000D01*
X89000000Y-97610000D02*
X89000000Y-99000000D01*
X92100000Y-112550000D02*
X92100000Y-112000000D01*
X88700000Y-122025000D02*
X88700000Y-123850000D01*
D49*
X99250000Y-107725000D02*
X99250000Y-105675000D01*
X99950000Y-108425000D02*
X99250000Y-107725000D01*
X99950000Y-109362500D02*
X99950000Y-108425000D01*
D47*
X98450000Y-119100000D02*
X93700000Y-123850000D01*
D49*
X99000000Y-109362500D02*
X99000000Y-108394239D01*
D46*
X95935000Y-121615000D02*
X102815000Y-121615000D01*
X102815000Y-121615000D02*
X103300000Y-122100000D01*
X93700000Y-123850000D02*
X95935000Y-121615000D01*
X103300000Y-122100000D02*
X103300000Y-123537500D01*
X104600000Y-123537500D02*
X104600000Y-121500000D01*
X99950000Y-116850000D02*
X99950000Y-111637500D01*
X104600000Y-121500000D02*
X99950000Y-116850000D01*
D49*
X98050000Y-108425000D02*
X98750000Y-107725000D01*
X98050000Y-109362500D02*
X98050000Y-108425000D01*
X98750000Y-107725000D02*
X98750000Y-105675000D01*
X91955000Y-108945000D02*
X91955000Y-109675000D01*
X93750000Y-104796880D02*
X93503120Y-104550000D01*
X92996880Y-104550000D02*
X92700000Y-104846880D01*
X92700000Y-108200000D02*
X91955000Y-108945000D01*
X93503120Y-104550000D02*
X92996880Y-104550000D01*
X92700000Y-104846880D02*
X92700000Y-108200000D01*
X93750000Y-105675000D02*
X93750000Y-104796880D01*
X95765000Y-109115000D02*
X95765000Y-109675000D01*
X95309406Y-108659406D02*
X95765000Y-109115000D01*
X94187668Y-108159922D02*
X94300805Y-108273059D01*
X94435155Y-107092191D02*
X94520007Y-107177043D01*
X93317928Y-107360893D02*
X93402780Y-107445745D01*
X94923058Y-108273059D02*
X95036196Y-108386196D01*
X93325000Y-107014411D02*
X93317928Y-107021482D01*
X93749263Y-107438673D02*
X93918968Y-107268968D01*
X94343232Y-107693232D02*
X94187668Y-107848795D01*
X93918968Y-107268968D02*
X94095743Y-107092190D01*
X93250000Y-106600000D02*
X93325000Y-106675000D01*
X95036196Y-108386196D02*
X95309406Y-108659406D01*
X93250000Y-105675000D02*
X93250000Y-106600000D01*
X94520007Y-107516455D02*
X94343231Y-107693232D01*
X93742192Y-107445745D02*
X93749263Y-107438673D01*
X94343231Y-107693232D02*
X94343232Y-107693232D01*
X93325000Y-106675000D02*
G75*
G02*
X93324995Y-107014405I-169700J-169700D01*
G01*
X93317928Y-107021482D02*
G75*
G03*
X93317915Y-107360906I169672J-169718D01*
G01*
X94611932Y-108273059D02*
G75*
G02*
X94923058Y-108273059I155563J-155564D01*
G01*
X94300805Y-108273059D02*
G75*
G03*
X94611932Y-108273060I155564J155565D01*
G01*
X94095743Y-107092190D02*
G75*
G02*
X94435106Y-107092239I169657J-169710D01*
G01*
X94520007Y-107177043D02*
G75*
G02*
X94519958Y-107516406I-169707J-169657D01*
G01*
X93402780Y-107445745D02*
G75*
G03*
X93742192Y-107445745I169706J169704D01*
G01*
X94187668Y-107848795D02*
G75*
G03*
X94187626Y-108159964I155532J-155605D01*
G01*
D47*
X92050000Y-120807489D02*
X92050000Y-120959489D01*
X91200000Y-122375000D02*
X91200000Y-122475000D01*
X91444000Y-120503489D02*
X91746000Y-120503489D01*
X92960000Y-117767489D02*
X92960000Y-117919489D01*
X92050000Y-121525000D02*
X91200000Y-122375000D01*
X85500000Y-97610000D02*
X85500000Y-99000000D01*
X92354000Y-118223489D02*
X92050000Y-118223489D01*
X93225000Y-115525000D02*
X92050000Y-116700000D01*
X92050000Y-119743489D02*
X91746000Y-119743489D01*
X92050000Y-118983489D02*
X92656000Y-118983489D01*
X91140000Y-118527489D02*
X91140000Y-118679489D01*
X91444000Y-118983489D02*
X92050000Y-118983489D01*
X92960000Y-119287489D02*
X92960000Y-119439489D01*
X92050000Y-116700000D02*
X92050000Y-117159489D01*
X93225000Y-114625000D02*
X93225000Y-115525000D01*
X91140000Y-120047489D02*
X91140000Y-120199489D01*
X92050000Y-118223489D02*
X91444000Y-118223489D01*
X91746000Y-119743489D02*
X91444000Y-119743489D01*
X92050000Y-120959489D02*
X92050000Y-121525000D01*
X92656000Y-119743489D02*
X92050000Y-119743489D01*
X92354000Y-117463489D02*
X92656000Y-117463489D01*
X92656000Y-118223489D02*
X92354000Y-118223489D01*
X91200000Y-122475000D02*
X91200000Y-123850000D01*
X92050000Y-117159489D02*
G75*
G03*
X92354000Y-117463500I304000J-11D01*
G01*
X91140000Y-118679489D02*
G75*
G03*
X91444000Y-118983500I304000J-11D01*
G01*
X91746000Y-120503489D02*
G75*
G02*
X92050011Y-120807489I0J-304011D01*
G01*
X92656000Y-117463489D02*
G75*
G02*
X92960011Y-117767489I0J-304011D01*
G01*
X91444000Y-119743489D02*
G75*
G03*
X91139989Y-120047489I0J-304011D01*
G01*
X91444000Y-118223489D02*
G75*
G03*
X91139989Y-118527489I0J-304011D01*
G01*
X92960000Y-119439489D02*
G75*
G02*
X92656000Y-119743500I-304000J-11D01*
G01*
X91140000Y-120199489D02*
G75*
G03*
X91444000Y-120503500I304000J-11D01*
G01*
X92656000Y-118983489D02*
G75*
G02*
X92960011Y-119287489I0J-304011D01*
G01*
X92960000Y-117919489D02*
G75*
G02*
X92656000Y-118223500I-304000J-11D01*
G01*
D49*
X106724700Y-101375300D02*
X106724700Y-97563155D01*
X101300000Y-104050000D02*
X101750000Y-104500000D01*
X107437855Y-96850000D02*
X108441000Y-96850000D01*
X101750000Y-104500000D02*
X103600000Y-104500000D01*
X100242894Y-104050000D02*
X101300000Y-104050000D01*
X99750000Y-104542894D02*
X100242894Y-104050000D01*
X99750000Y-105675000D02*
X99750000Y-104542894D01*
X106724700Y-97563155D02*
X107437855Y-96850000D01*
X108441000Y-96850000D02*
X108890000Y-97299000D01*
X103600000Y-104500000D02*
X106724700Y-101375300D01*
X93762500Y-91762500D02*
X93762500Y-89865000D01*
D47*
X90660000Y-89575000D02*
X92347500Y-89575000D01*
D49*
X93762500Y-89865000D02*
X94027500Y-89600000D01*
D47*
X94027500Y-89600000D02*
X94422500Y-89995000D01*
D49*
X94750000Y-94325000D02*
X94750000Y-92750000D01*
D47*
X92372500Y-89600000D02*
X94027500Y-89600000D01*
X92347500Y-89575000D02*
X92372500Y-89600000D01*
D49*
X94750000Y-92750000D02*
X93762500Y-91762500D01*
X111430000Y-97299000D02*
X109981000Y-95850000D01*
X105724700Y-98925300D02*
X103900000Y-100750000D01*
X106942893Y-95850000D02*
X105724700Y-97068193D01*
X109981000Y-95850000D02*
X106942893Y-95850000D01*
X105724700Y-97068193D02*
X105724700Y-98925300D01*
X103900000Y-100750000D02*
X102675000Y-100750000D01*
X101092894Y-104550000D02*
X101542894Y-105000000D01*
X100450000Y-104550000D02*
X101092894Y-104550000D01*
X100250000Y-105675000D02*
X100250000Y-104750000D01*
X104207106Y-104600000D02*
X105125000Y-104600000D01*
X101542894Y-105000000D02*
X103807106Y-105000000D01*
X103807106Y-105000000D02*
X104207106Y-104600000D01*
X100250000Y-104750000D02*
X100450000Y-104550000D01*
X97000000Y-86300000D02*
X97000000Y-86250000D01*
X97000000Y-86250000D02*
X96150000Y-85400000D01*
X96150000Y-85400000D02*
X95925000Y-85400000D01*
X95925000Y-85400000D02*
X96100000Y-85400000D01*
X101150000Y-97750000D02*
X102675000Y-97750000D01*
X95925000Y-85400000D02*
X99000000Y-85400000D01*
X98750000Y-94325000D02*
X98750000Y-92025000D01*
X99725000Y-90575000D02*
X100050000Y-90250000D01*
X99725000Y-91050000D02*
X99725000Y-90575000D01*
X98750000Y-92025000D02*
X99725000Y-91050000D01*
X101330000Y-90250000D02*
X101350000Y-90230000D01*
X100050000Y-90250000D02*
X101330000Y-90250000D01*
X97075000Y-91025000D02*
X96680000Y-91025000D01*
X97375000Y-91325000D02*
X97075000Y-91025000D01*
X98250000Y-92200000D02*
X98250000Y-94325000D01*
X98325000Y-88825000D02*
X97375000Y-89775000D01*
X97375000Y-89775000D02*
X97375000Y-91325000D01*
X97375000Y-91325000D02*
X98250000Y-92200000D01*
X92203120Y-103250000D02*
X92450000Y-103496880D01*
X91750000Y-104703120D02*
X91750000Y-106375000D01*
X92450000Y-104003120D02*
X91750000Y-104703120D01*
X92450000Y-103496880D02*
X92450000Y-104003120D01*
X91750000Y-106375000D02*
X90100000Y-108025000D01*
X91325000Y-103250000D02*
X90517590Y-103250000D01*
X91325000Y-103250000D02*
X92203120Y-103250000D01*
X106224700Y-101168194D02*
X103642894Y-103750000D01*
X107150000Y-96350000D02*
X106224700Y-97275300D01*
X106224700Y-97275300D02*
X106224700Y-101168194D01*
X103642894Y-103750000D02*
X102675000Y-103750000D01*
X109211000Y-96350000D02*
X107150000Y-96350000D01*
X110160000Y-97299000D02*
X109211000Y-96350000D01*
X96390000Y-95660000D02*
X97293120Y-95660000D01*
X97750000Y-94325000D02*
X97750000Y-93290001D01*
X110160000Y-98569000D02*
X110160000Y-98970000D01*
X96959999Y-92500000D02*
X96680000Y-92500000D01*
X97750000Y-95203120D02*
X97750000Y-94325000D01*
X97293120Y-95660000D02*
X97750000Y-95203120D01*
X110160000Y-98970000D02*
X110930000Y-99740000D01*
X97750000Y-93290001D02*
X96959999Y-92500000D01*
G04 #@! TA.AperFunction,Conductor*
G36*
X107379074Y-106070185D02*
G01*
X107399716Y-106086819D01*
X108023386Y-106710489D01*
X108126113Y-106769799D01*
X108150321Y-106776284D01*
X108150324Y-106776286D01*
X108150325Y-106776286D01*
X108180447Y-106784357D01*
X108240691Y-106800500D01*
X108571111Y-106800500D01*
X111200000Y-108575000D01*
X111200000Y-110850764D01*
X111175765Y-110875000D01*
X109300000Y-110875000D01*
X106100000Y-113075000D01*
X106100000Y-115575000D01*
X106000000Y-118050000D01*
X104300000Y-118050000D01*
X104300000Y-113075000D01*
X103200000Y-109075000D01*
X103200000Y-106050500D01*
X107312035Y-106050500D01*
X107379074Y-106070185D01*
G37*
G04 #@! TD.AperFunction*
G04 #@! TA.AperFunction,Conductor*
G36*
X111043039Y-111494685D02*
G01*
X111088794Y-111547489D01*
X111100000Y-111599000D01*
X111100000Y-112624952D01*
X111080315Y-112691991D01*
X111065261Y-112711025D01*
X108436572Y-115437073D01*
X108375867Y-115471667D01*
X108347311Y-115475000D01*
X106724000Y-115475000D01*
X106656961Y-115455315D01*
X106611206Y-115402511D01*
X106600000Y-115351000D01*
X106600000Y-113243457D01*
X106619685Y-113176418D01*
X106657928Y-113138526D01*
X109269717Y-111494066D01*
X109335786Y-111475000D01*
X110976000Y-111475000D01*
X111043039Y-111494685D01*
G37*
G04 #@! TD.AperFunction*
G04 #@! TA.AperFunction,Conductor*
G36*
X103743039Y-113194685D02*
G01*
X103788794Y-113247489D01*
X103800000Y-113299000D01*
X103800000Y-115474995D01*
X103800001Y-115475015D01*
X103899124Y-116267994D01*
X103900075Y-116282049D01*
X103916830Y-117849675D01*
X103897863Y-117916921D01*
X103845551Y-117963237D01*
X103792837Y-117975000D01*
X101924000Y-117975000D01*
X101856961Y-117955315D01*
X101811206Y-117902511D01*
X101800000Y-117851000D01*
X101800000Y-116241248D01*
X101804187Y-116209298D01*
X102000000Y-115475001D01*
X102000000Y-113299000D01*
X102019685Y-113231961D01*
X102072489Y-113186206D01*
X102124000Y-113175000D01*
X103676000Y-113175000D01*
X103743039Y-113194685D01*
G37*
G04 #@! TD.AperFunction*
G04 #@! TA.AperFunction,Conductor*
G36*
X111903032Y-81500648D02*
G01*
X112236929Y-81517052D01*
X112249037Y-81518245D01*
X112352146Y-81533539D01*
X112576699Y-81566849D01*
X112588617Y-81569219D01*
X112909951Y-81649709D01*
X112921588Y-81653240D01*
X112992806Y-81678722D01*
X113233467Y-81764832D01*
X113244688Y-81769479D01*
X113544163Y-81911120D01*
X113554871Y-81916844D01*
X113838988Y-82087137D01*
X113849106Y-82093897D01*
X114115170Y-82291224D01*
X114124576Y-82298944D01*
X114370013Y-82521395D01*
X114378604Y-82529986D01*
X114565755Y-82736475D01*
X114601055Y-82775423D01*
X114608775Y-82784829D01*
X114806102Y-83050893D01*
X114812862Y-83061011D01*
X114978149Y-83336777D01*
X114983148Y-83345116D01*
X114988883Y-83355844D01*
X115090044Y-83569732D01*
X115130514Y-83655297D01*
X115135170Y-83666540D01*
X115246759Y-83978411D01*
X115250292Y-83990055D01*
X115330777Y-84311369D01*
X115333151Y-84323305D01*
X115381754Y-84650962D01*
X115382947Y-84663071D01*
X115399351Y-84996966D01*
X115399500Y-85003051D01*
X115399500Y-123696948D01*
X115399351Y-123703033D01*
X115382947Y-124036928D01*
X115381754Y-124049037D01*
X115333151Y-124376694D01*
X115330777Y-124388630D01*
X115250292Y-124709944D01*
X115246759Y-124721588D01*
X115135170Y-125033459D01*
X115130514Y-125044702D01*
X114988885Y-125344151D01*
X114983148Y-125354883D01*
X114812862Y-125638988D01*
X114806102Y-125649106D01*
X114608775Y-125915170D01*
X114601055Y-125924576D01*
X114378611Y-126170006D01*
X114370006Y-126178611D01*
X114124576Y-126401055D01*
X114115170Y-126408775D01*
X113849106Y-126606102D01*
X113838988Y-126612862D01*
X113554883Y-126783148D01*
X113544151Y-126788885D01*
X113244702Y-126930514D01*
X113233459Y-126935170D01*
X112921588Y-127046759D01*
X112909944Y-127050292D01*
X112588630Y-127130777D01*
X112576694Y-127133151D01*
X112249037Y-127181754D01*
X112236928Y-127182947D01*
X111921989Y-127198419D01*
X111903031Y-127199351D01*
X111896949Y-127199500D01*
X109225640Y-127199500D01*
X109158601Y-127179815D01*
X109112846Y-127127011D01*
X109102902Y-127057853D01*
X109115155Y-127019206D01*
X109119870Y-127009950D01*
X109119873Y-127009945D01*
X109173402Y-126845201D01*
X109200500Y-126674111D01*
X109200500Y-125800889D01*
X109173402Y-125629799D01*
X109119873Y-125465055D01*
X109041232Y-125310712D01*
X108939414Y-125170572D01*
X108816928Y-125048086D01*
X108676788Y-124946268D01*
X108522445Y-124867627D01*
X108357701Y-124814098D01*
X108357699Y-124814097D01*
X108357698Y-124814097D01*
X108226271Y-124793281D01*
X108186611Y-124787000D01*
X108013389Y-124787000D01*
X108013388Y-124787000D01*
X107846787Y-124787000D01*
X107779748Y-124767315D01*
X107733993Y-124714511D01*
X107724049Y-124645353D01*
X107753074Y-124581797D01*
X107773902Y-124562682D01*
X107898359Y-124472259D01*
X108034759Y-124335859D01*
X108148141Y-124179802D01*
X108235715Y-124007929D01*
X108295324Y-123824472D01*
X108325500Y-123633949D01*
X108325500Y-123441051D01*
X108295324Y-123250528D01*
X108295321Y-123250519D01*
X108294643Y-123247695D01*
X108294698Y-123246579D01*
X108294562Y-123245716D01*
X108294743Y-123245687D01*
X108298125Y-123177912D01*
X108338781Y-123121090D01*
X108403704Y-123095268D01*
X108472281Y-123108646D01*
X108502894Y-123131052D01*
X110038181Y-124666338D01*
X110071666Y-124727661D01*
X110074500Y-124754019D01*
X110074500Y-125205855D01*
X110084913Y-125307776D01*
X110139637Y-125472922D01*
X110139642Y-125472933D01*
X110230971Y-125620999D01*
X110230974Y-125621003D01*
X110353996Y-125744025D01*
X110354000Y-125744028D01*
X110502066Y-125835357D01*
X110502069Y-125835358D01*
X110502075Y-125835362D01*
X110667225Y-125890087D01*
X110769152Y-125900500D01*
X110769157Y-125900500D01*
X111355843Y-125900500D01*
X111355848Y-125900500D01*
X111457775Y-125890087D01*
X111622925Y-125835362D01*
X111771003Y-125744026D01*
X111894026Y-125621003D01*
X111894458Y-125620301D01*
X111894881Y-125619921D01*
X111898507Y-125615336D01*
X111899290Y-125615955D01*
X111946402Y-125573575D01*
X112015364Y-125562349D01*
X112079448Y-125590188D01*
X112101342Y-125615455D01*
X112101493Y-125615336D01*
X112104143Y-125618687D01*
X112105540Y-125620299D01*
X112105972Y-125620999D01*
X112105975Y-125621004D01*
X112228996Y-125744025D01*
X112229000Y-125744028D01*
X112377066Y-125835357D01*
X112377069Y-125835358D01*
X112377075Y-125835362D01*
X112542225Y-125890087D01*
X112644152Y-125900500D01*
X112644157Y-125900500D01*
X113230843Y-125900500D01*
X113230848Y-125900500D01*
X113332775Y-125890087D01*
X113497925Y-125835362D01*
X113646003Y-125744026D01*
X113769026Y-125621003D01*
X113860362Y-125472925D01*
X113915087Y-125307775D01*
X113925500Y-125205848D01*
X113925500Y-124194152D01*
X113915087Y-124092225D01*
X113860362Y-123927075D01*
X113860358Y-123927069D01*
X113860357Y-123927066D01*
X113769028Y-123779000D01*
X113769027Y-123778999D01*
X113769026Y-123778997D01*
X113674318Y-123684289D01*
X113640834Y-123622965D01*
X113638000Y-123596608D01*
X113638000Y-122977087D01*
X113657685Y-122910048D01*
X113696902Y-122871548D01*
X113743656Y-122842712D01*
X113867712Y-122718656D01*
X113959814Y-122569334D01*
X114014999Y-122402797D01*
X114025500Y-122300009D01*
X114025499Y-121299992D01*
X114024941Y-121294533D01*
X114014999Y-121197203D01*
X114014998Y-121197200D01*
X113992495Y-121129291D01*
X113959814Y-121030666D01*
X113867712Y-120881344D01*
X113743656Y-120757288D01*
X113594334Y-120665186D01*
X113427797Y-120610001D01*
X113427795Y-120610000D01*
X113325010Y-120599500D01*
X112699998Y-120599500D01*
X112699980Y-120599501D01*
X112597203Y-120610000D01*
X112597200Y-120610001D01*
X112430668Y-120665185D01*
X112430663Y-120665187D01*
X112281342Y-120757289D01*
X112187681Y-120850951D01*
X112126358Y-120884436D01*
X112056666Y-120879452D01*
X112012319Y-120850951D01*
X111918657Y-120757289D01*
X111918656Y-120757288D01*
X111769334Y-120665186D01*
X111602797Y-120610001D01*
X111602795Y-120610000D01*
X111500010Y-120599500D01*
X110874998Y-120599500D01*
X110874980Y-120599501D01*
X110772203Y-120610000D01*
X110772200Y-120610001D01*
X110605668Y-120665185D01*
X110605663Y-120665187D01*
X110456342Y-120757289D01*
X110332289Y-120881342D01*
X110240187Y-121030663D01*
X110240186Y-121030666D01*
X110231346Y-121057340D01*
X110191575Y-121114783D01*
X110127059Y-121141606D01*
X110058283Y-121129291D01*
X110025961Y-121106015D01*
X108986822Y-120066876D01*
X108953337Y-120005553D01*
X108950503Y-119979195D01*
X108950503Y-116604935D01*
X108970188Y-116537896D01*
X108971369Y-116536090D01*
X109009397Y-116479179D01*
X109051012Y-116378711D01*
X110149500Y-116378711D01*
X110149500Y-116621288D01*
X110174889Y-116814144D01*
X110181162Y-116861789D01*
X110201251Y-116936763D01*
X110243947Y-117096104D01*
X110336736Y-117320116D01*
X110336776Y-117320212D01*
X110458064Y-117530289D01*
X110458066Y-117530292D01*
X110458067Y-117530293D01*
X110605733Y-117722736D01*
X110605739Y-117722743D01*
X110777256Y-117894260D01*
X110777262Y-117894265D01*
X110969711Y-118041936D01*
X111179788Y-118163224D01*
X111403900Y-118256054D01*
X111638211Y-118318838D01*
X111811937Y-118341709D01*
X111878711Y-118350500D01*
X111878712Y-118350500D01*
X112121289Y-118350500D01*
X112169388Y-118344167D01*
X112361789Y-118318838D01*
X112596100Y-118256054D01*
X112820212Y-118163224D01*
X113030289Y-118041936D01*
X113222738Y-117894265D01*
X113394265Y-117722738D01*
X113541936Y-117530289D01*
X113663224Y-117320212D01*
X113756054Y-117096100D01*
X113818838Y-116861789D01*
X113850500Y-116621288D01*
X113850500Y-116378712D01*
X113818838Y-116138211D01*
X113756054Y-115903900D01*
X113663224Y-115679788D01*
X113541936Y-115469711D01*
X113394265Y-115277262D01*
X113394260Y-115277256D01*
X113222743Y-115105739D01*
X113222736Y-115105733D01*
X113030293Y-114958067D01*
X113030292Y-114958066D01*
X113030289Y-114958064D01*
X112820212Y-114836776D01*
X112820205Y-114836773D01*
X112596104Y-114743947D01*
X112361785Y-114681161D01*
X112121289Y-114649500D01*
X112121288Y-114649500D01*
X111878712Y-114649500D01*
X111878711Y-114649500D01*
X111638214Y-114681161D01*
X111403895Y-114743947D01*
X111179794Y-114836773D01*
X111179785Y-114836777D01*
X110969706Y-114958067D01*
X110777263Y-115105733D01*
X110777256Y-115105739D01*
X110605739Y-115277256D01*
X110605733Y-115277263D01*
X110458067Y-115469706D01*
X110336777Y-115679785D01*
X110336773Y-115679794D01*
X110243947Y-115903895D01*
X110181161Y-116138214D01*
X110149500Y-116378711D01*
X109051012Y-116378711D01*
X109069740Y-116333497D01*
X109100503Y-116178842D01*
X109100503Y-116021158D01*
X109100503Y-116021155D01*
X109100502Y-116021153D01*
X109089945Y-115968081D01*
X109069740Y-115866503D01*
X109049896Y-115818595D01*
X109009400Y-115720827D01*
X109009395Y-115720818D01*
X109005871Y-115715544D01*
X108984992Y-115648867D01*
X109003475Y-115581487D01*
X109019703Y-115560587D01*
X111429142Y-113061911D01*
X111461744Y-113024604D01*
X111476798Y-113005570D01*
X111505567Y-112965288D01*
X111565338Y-112834411D01*
X111585023Y-112767372D01*
X111585024Y-112767368D01*
X111605500Y-112624952D01*
X111605500Y-112477940D01*
X111625185Y-112410901D01*
X111641819Y-112390259D01*
X113001786Y-111030292D01*
X113001789Y-111030289D01*
X113089394Y-110899179D01*
X113149738Y-110753497D01*
X113180500Y-110598842D01*
X113180500Y-110441157D01*
X113180500Y-107171158D01*
X113180500Y-103387940D01*
X113200185Y-103320901D01*
X113216819Y-103300259D01*
X114367086Y-102149992D01*
X114367089Y-102149989D01*
X114454694Y-102018879D01*
X114515038Y-101873197D01*
X114545800Y-101718542D01*
X114545800Y-101560857D01*
X114545800Y-96366458D01*
X114545056Y-96362720D01*
X114515037Y-96211803D01*
X114509941Y-96199500D01*
X114457539Y-96072989D01*
X114454697Y-96066127D01*
X114454690Y-96066114D01*
X114367090Y-95935012D01*
X114364886Y-95932808D01*
X114255589Y-95823511D01*
X113655445Y-95223367D01*
X113010292Y-94578213D01*
X113010288Y-94578210D01*
X112879185Y-94490609D01*
X112879172Y-94490602D01*
X112733501Y-94430264D01*
X112733489Y-94430261D01*
X112578845Y-94399500D01*
X112578842Y-94399500D01*
X104178842Y-94399500D01*
X104021157Y-94399500D01*
X104021156Y-94399500D01*
X104016648Y-94399944D01*
X104001805Y-94397128D01*
X103986853Y-94399278D01*
X103968175Y-94390748D01*
X103948002Y-94386921D01*
X103937038Y-94376528D01*
X103923297Y-94370253D01*
X103912196Y-94352980D01*
X103897294Y-94338854D01*
X103893087Y-94323245D01*
X103885523Y-94311475D01*
X103880500Y-94276540D01*
X103880500Y-94214416D01*
X103897769Y-94151294D01*
X103912492Y-94126398D01*
X103912494Y-94126395D01*
X103957643Y-93970993D01*
X103960500Y-93934690D01*
X103960500Y-93465310D01*
X103957643Y-93429007D01*
X103912494Y-93273605D01*
X103897766Y-93248702D01*
X103880500Y-93185583D01*
X103880500Y-86832819D01*
X103900185Y-86765780D01*
X103952989Y-86720025D01*
X103994776Y-86709201D01*
X104020910Y-86707145D01*
X104176196Y-86662030D01*
X104315374Y-86579721D01*
X104315383Y-86579714D01*
X104429714Y-86465383D01*
X104429721Y-86465374D01*
X104512031Y-86326195D01*
X104512033Y-86326190D01*
X104557144Y-86170918D01*
X104557145Y-86170912D01*
X104558790Y-86150000D01*
X103904000Y-86150000D01*
X103836961Y-86130315D01*
X103791206Y-86077511D01*
X103780000Y-86026000D01*
X103780000Y-85900000D01*
X103724500Y-85900000D01*
X103657461Y-85880315D01*
X103611706Y-85827511D01*
X103600500Y-85776000D01*
X103600500Y-85665317D01*
X103600499Y-85665302D01*
X103599295Y-85650000D01*
X104030000Y-85650000D01*
X104558790Y-85650000D01*
X104557145Y-85629089D01*
X104512031Y-85473804D01*
X104429721Y-85334625D01*
X104429714Y-85334616D01*
X104315383Y-85220285D01*
X104315375Y-85220279D01*
X104250195Y-85181732D01*
X104202512Y-85130663D01*
X104190008Y-85061922D01*
X104216653Y-84997332D01*
X104250195Y-84968268D01*
X104315375Y-84929720D01*
X104315383Y-84929714D01*
X104366386Y-84878711D01*
X110149500Y-84878711D01*
X110149500Y-85121288D01*
X110179299Y-85347644D01*
X110181162Y-85361789D01*
X110196046Y-85417335D01*
X110243947Y-85596104D01*
X110334787Y-85815410D01*
X110336776Y-85820212D01*
X110458064Y-86030289D01*
X110458066Y-86030292D01*
X110458067Y-86030293D01*
X110605733Y-86222736D01*
X110605739Y-86222743D01*
X110777256Y-86394260D01*
X110777263Y-86394266D01*
X110839492Y-86442016D01*
X110969711Y-86541936D01*
X111179788Y-86663224D01*
X111403900Y-86756054D01*
X111638211Y-86818838D01*
X111818586Y-86842584D01*
X111878711Y-86850500D01*
X111878712Y-86850500D01*
X112121289Y-86850500D01*
X112169388Y-86844167D01*
X112361789Y-86818838D01*
X112596100Y-86756054D01*
X112820212Y-86663224D01*
X113030289Y-86541936D01*
X113222738Y-86394265D01*
X113394265Y-86222738D01*
X113541936Y-86030289D01*
X113663224Y-85820212D01*
X113756054Y-85596100D01*
X113818838Y-85361789D01*
X113850500Y-85121288D01*
X113850500Y-84878712D01*
X113849164Y-84868567D01*
X113833489Y-84749500D01*
X113818838Y-84638211D01*
X113756054Y-84403900D01*
X113663224Y-84179788D01*
X113541936Y-83969711D01*
X113429978Y-83823804D01*
X113394266Y-83777263D01*
X113394260Y-83777256D01*
X113222743Y-83605739D01*
X113222736Y-83605733D01*
X113030293Y-83458067D01*
X113030292Y-83458066D01*
X113030289Y-83458064D01*
X112820212Y-83336776D01*
X112820205Y-83336773D01*
X112596104Y-83243947D01*
X112361785Y-83181161D01*
X112121289Y-83149500D01*
X112121288Y-83149500D01*
X111878712Y-83149500D01*
X111878711Y-83149500D01*
X111638214Y-83181161D01*
X111403895Y-83243947D01*
X111179794Y-83336773D01*
X111179785Y-83336777D01*
X111001865Y-83439500D01*
X110983665Y-83450008D01*
X110969706Y-83458067D01*
X110777263Y-83605733D01*
X110777256Y-83605739D01*
X110605739Y-83777256D01*
X110605733Y-83777263D01*
X110458067Y-83969706D01*
X110336777Y-84179785D01*
X110336773Y-84179794D01*
X110243947Y-84403895D01*
X110181161Y-84638214D01*
X110149500Y-84878711D01*
X104366386Y-84878711D01*
X104429714Y-84815383D01*
X104429720Y-84815375D01*
X104431995Y-84811530D01*
X104431995Y-84811529D01*
X104512031Y-84676195D01*
X104512033Y-84676190D01*
X104557144Y-84520918D01*
X104557145Y-84520912D01*
X104558790Y-84500000D01*
X104030000Y-84500000D01*
X104030000Y-85650000D01*
X103599295Y-85650000D01*
X103597643Y-85629008D01*
X103597642Y-85629002D01*
X103552495Y-85473609D01*
X103552494Y-85473605D01*
X103552491Y-85473600D01*
X103550699Y-85469457D01*
X103540500Y-85420209D01*
X103540500Y-84729791D01*
X103550699Y-84680543D01*
X103552489Y-84676402D01*
X103552494Y-84676395D01*
X103597643Y-84520993D01*
X103600500Y-84484690D01*
X103600500Y-84015310D01*
X103597643Y-83979007D01*
X103594942Y-83969711D01*
X103552495Y-83823608D01*
X103552492Y-83823600D01*
X103547266Y-83814763D01*
X103530000Y-83751645D01*
X103530000Y-83445494D01*
X104030000Y-83445494D01*
X104030000Y-84000000D01*
X104558790Y-84000000D01*
X104557145Y-83979089D01*
X104512031Y-83823804D01*
X104429721Y-83684625D01*
X104429714Y-83684616D01*
X104315383Y-83570285D01*
X104315374Y-83570278D01*
X104176193Y-83487967D01*
X104176190Y-83487965D01*
X104030001Y-83445493D01*
X104030000Y-83445494D01*
X103530000Y-83445494D01*
X103529998Y-83445493D01*
X103383809Y-83487965D01*
X103383806Y-83487967D01*
X103363608Y-83499912D01*
X103295884Y-83517092D01*
X103237370Y-83499910D01*
X103216397Y-83487507D01*
X103216390Y-83487504D01*
X103060997Y-83442357D01*
X103060991Y-83442356D01*
X103024697Y-83439500D01*
X103024690Y-83439500D01*
X102615310Y-83439500D01*
X102615302Y-83439500D01*
X102579008Y-83442356D01*
X102579002Y-83442357D01*
X102423609Y-83487504D01*
X102423606Y-83487505D01*
X102284568Y-83569732D01*
X102221447Y-83587000D01*
X101228081Y-83587000D01*
X101161042Y-83567315D01*
X101153771Y-83562267D01*
X101142335Y-83553706D01*
X101142328Y-83553702D01*
X101007486Y-83503410D01*
X101007485Y-83503409D01*
X101007483Y-83503409D01*
X100947873Y-83497000D01*
X100947863Y-83497000D01*
X100552130Y-83497000D01*
X100552119Y-83497001D01*
X100513253Y-83501179D01*
X100486748Y-83501179D01*
X100447874Y-83497000D01*
X100052130Y-83497000D01*
X100052119Y-83497001D01*
X100013253Y-83501179D01*
X99986748Y-83501179D01*
X99947874Y-83497000D01*
X99552130Y-83497000D01*
X99552119Y-83497001D01*
X99513253Y-83501179D01*
X99486748Y-83501179D01*
X99447874Y-83497000D01*
X99052129Y-83497000D01*
X99052123Y-83497001D01*
X98992516Y-83503408D01*
X98857671Y-83553702D01*
X98857664Y-83553706D01*
X98742455Y-83639952D01*
X98742452Y-83639955D01*
X98656206Y-83755164D01*
X98656202Y-83755171D01*
X98613170Y-83870548D01*
X98605909Y-83890017D01*
X98599500Y-83949627D01*
X98599500Y-84084814D01*
X98599501Y-84125499D01*
X98596950Y-84134185D01*
X98598239Y-84143147D01*
X98587261Y-84167184D01*
X98579817Y-84192539D01*
X98572974Y-84198467D01*
X98569214Y-84206703D01*
X98546982Y-84220989D01*
X98527013Y-84238294D01*
X98516497Y-84240581D01*
X98510436Y-84244477D01*
X98475501Y-84249500D01*
X98283308Y-84249500D01*
X98216269Y-84229815D01*
X98195627Y-84213181D01*
X97061818Y-83079372D01*
X97028333Y-83018049D01*
X97025499Y-82991691D01*
X97025499Y-82449998D01*
X97025498Y-82449981D01*
X97014999Y-82347203D01*
X97014998Y-82347200D01*
X96959814Y-82180666D01*
X96867712Y-82031344D01*
X96743656Y-81907288D01*
X96594334Y-81815186D01*
X96427797Y-81760001D01*
X96427795Y-81760000D01*
X96325010Y-81749500D01*
X95699998Y-81749500D01*
X95699980Y-81749501D01*
X95597203Y-81760000D01*
X95597200Y-81760001D01*
X95430668Y-81815185D01*
X95430663Y-81815187D01*
X95281342Y-81907289D01*
X95187681Y-82000951D01*
X95126358Y-82034436D01*
X95056666Y-82029452D01*
X95012319Y-82000951D01*
X94918657Y-81907289D01*
X94918656Y-81907288D01*
X94769334Y-81815186D01*
X94602797Y-81760001D01*
X94602795Y-81760000D01*
X94500010Y-81749500D01*
X93874998Y-81749500D01*
X93874980Y-81749501D01*
X93772203Y-81760000D01*
X93772200Y-81760001D01*
X93605668Y-81815185D01*
X93605663Y-81815187D01*
X93456342Y-81907289D01*
X93332289Y-82031342D01*
X93240187Y-82180663D01*
X93240186Y-82180666D01*
X93185001Y-82347203D01*
X93185001Y-82347204D01*
X93185000Y-82347204D01*
X93174500Y-82449983D01*
X93174500Y-83450001D01*
X93174501Y-83450019D01*
X93185000Y-83552796D01*
X93185001Y-83552799D01*
X93240185Y-83719331D01*
X93240186Y-83719334D01*
X93304502Y-83823608D01*
X93332289Y-83868657D01*
X93400681Y-83937049D01*
X93434166Y-83998372D01*
X93437000Y-84024730D01*
X93437000Y-84798943D01*
X93431386Y-84835828D01*
X93400762Y-84934108D01*
X93380913Y-84997807D01*
X93374500Y-85068386D01*
X93374500Y-85731613D01*
X93380913Y-85802192D01*
X93380913Y-85802194D01*
X93380914Y-85802196D01*
X93431522Y-85964606D01*
X93506617Y-86088829D01*
X93524500Y-86152976D01*
X93524500Y-86725500D01*
X93504815Y-86792539D01*
X93452011Y-86838294D01*
X93400500Y-86849500D01*
X90986080Y-86849500D01*
X90841092Y-86878340D01*
X90841082Y-86878343D01*
X90704511Y-86934912D01*
X90704504Y-86934916D01*
X90688992Y-86945281D01*
X90681183Y-86950499D01*
X90681182Y-86950499D01*
X90581585Y-87017046D01*
X90581578Y-87017052D01*
X89035451Y-88563181D01*
X88974128Y-88596666D01*
X88947770Y-88599500D01*
X88818318Y-88599500D01*
X88719816Y-88609563D01*
X88719815Y-88609564D01*
X88640719Y-88635773D01*
X88560215Y-88662450D01*
X88560204Y-88662455D01*
X88417112Y-88750716D01*
X88417108Y-88750719D01*
X88298219Y-88869608D01*
X88298216Y-88869612D01*
X88209955Y-89012704D01*
X88209950Y-89012715D01*
X88208513Y-89017052D01*
X88157064Y-89172315D01*
X88157064Y-89172316D01*
X88157063Y-89172316D01*
X88147000Y-89270818D01*
X88147000Y-89879181D01*
X88157063Y-89977683D01*
X88209950Y-90137284D01*
X88209955Y-90137295D01*
X88298216Y-90280387D01*
X88302697Y-90286054D01*
X88301717Y-90286828D01*
X88331666Y-90341676D01*
X88334500Y-90368034D01*
X88334500Y-91335626D01*
X88314815Y-91402665D01*
X88298181Y-91423307D01*
X88249532Y-91471955D01*
X88249529Y-91471959D01*
X88160501Y-91616294D01*
X88160496Y-91616305D01*
X88107151Y-91777290D01*
X88097000Y-91876647D01*
X88097000Y-92473337D01*
X88097001Y-92473355D01*
X88107150Y-92572707D01*
X88107151Y-92572710D01*
X88160496Y-92733694D01*
X88160501Y-92733705D01*
X88249529Y-92878040D01*
X88249532Y-92878044D01*
X88369455Y-92997967D01*
X88369459Y-92997970D01*
X88513794Y-93086998D01*
X88513797Y-93086999D01*
X88513803Y-93087003D01*
X88674792Y-93140349D01*
X88774155Y-93150500D01*
X88839558Y-93150499D01*
X88868999Y-93159143D01*
X88898986Y-93165667D01*
X88903999Y-93169420D01*
X88906597Y-93170183D01*
X88927240Y-93186818D01*
X88928741Y-93188319D01*
X88962226Y-93249642D01*
X88957242Y-93319334D01*
X88915370Y-93375267D01*
X88849906Y-93399684D01*
X88841060Y-93400000D01*
X88570346Y-93400000D01*
X88468325Y-93410423D01*
X88303008Y-93465203D01*
X88302997Y-93465208D01*
X88154782Y-93556629D01*
X88154778Y-93556632D01*
X88031632Y-93679778D01*
X88031629Y-93679782D01*
X87940208Y-93827997D01*
X87940203Y-93828008D01*
X87885423Y-93993325D01*
X87875000Y-94095346D01*
X87875000Y-94140000D01*
X88876000Y-94140000D01*
X88943039Y-94159685D01*
X88988794Y-94212489D01*
X89000000Y-94264000D01*
X89000000Y-94390000D01*
X89126000Y-94390000D01*
X89193039Y-94409685D01*
X89238794Y-94462489D01*
X89250000Y-94514000D01*
X89250000Y-95380000D01*
X89429641Y-95380000D01*
X89429653Y-95379999D01*
X89531674Y-95369576D01*
X89596896Y-95347964D01*
X89666724Y-95345562D01*
X89726766Y-95381294D01*
X89757959Y-95443814D01*
X89750398Y-95513274D01*
X89723583Y-95553350D01*
X89694724Y-95582209D01*
X89634526Y-95672303D01*
X89623535Y-95688751D01*
X89574499Y-95807135D01*
X89574497Y-95807141D01*
X89549500Y-95932808D01*
X89549500Y-96495500D01*
X89529815Y-96562539D01*
X89477011Y-96608294D01*
X89425500Y-96619500D01*
X88570316Y-96619500D01*
X88468219Y-96629931D01*
X88302795Y-96684747D01*
X88302784Y-96684752D01*
X88154470Y-96776234D01*
X88154466Y-96776237D01*
X88031237Y-96899466D01*
X88031234Y-96899470D01*
X87939752Y-97047784D01*
X87939747Y-97047795D01*
X87884931Y-97213219D01*
X87874500Y-97315316D01*
X87874500Y-97904683D01*
X87884931Y-98006780D01*
X87939747Y-98172204D01*
X87939752Y-98172215D01*
X88031234Y-98320529D01*
X88031237Y-98320533D01*
X88154467Y-98443763D01*
X88190597Y-98466048D01*
X88197419Y-98473633D01*
X88206703Y-98477873D01*
X88220390Y-98499171D01*
X88237321Y-98517994D01*
X88239965Y-98529630D01*
X88244477Y-98536651D01*
X88249500Y-98571586D01*
X88249500Y-98695396D01*
X88240062Y-98742844D01*
X88230263Y-98766503D01*
X88230262Y-98766506D01*
X88230260Y-98766511D01*
X88199500Y-98921153D01*
X88199500Y-99078846D01*
X88230261Y-99233489D01*
X88230264Y-99233501D01*
X88290602Y-99379172D01*
X88290609Y-99379185D01*
X88348630Y-99466019D01*
X88369508Y-99532697D01*
X88351023Y-99600077D01*
X88299045Y-99646767D01*
X88278914Y-99653469D01*
X88279068Y-99653963D01*
X88272807Y-99655913D01*
X88272804Y-99655914D01*
X88159581Y-99691195D01*
X88110393Y-99706522D01*
X87964811Y-99794530D01*
X87964810Y-99794531D01*
X87862681Y-99896661D01*
X87801358Y-99930146D01*
X87731666Y-99925162D01*
X87687319Y-99896661D01*
X87585188Y-99794530D01*
X87544177Y-99769738D01*
X87439606Y-99706522D01*
X87277196Y-99655914D01*
X87277194Y-99655913D01*
X87277192Y-99655913D01*
X87227778Y-99651423D01*
X87206616Y-99649500D01*
X86693384Y-99649500D01*
X86674145Y-99651248D01*
X86622807Y-99655913D01*
X86460393Y-99706522D01*
X86314811Y-99794530D01*
X86194530Y-99914811D01*
X86106522Y-100060393D01*
X86055913Y-100222807D01*
X86049500Y-100293386D01*
X86049500Y-100956613D01*
X86055913Y-101027192D01*
X86055913Y-101027194D01*
X86055914Y-101027196D01*
X86106522Y-101189606D01*
X86194528Y-101335185D01*
X86194530Y-101335187D01*
X86199625Y-101340282D01*
X86233113Y-101401603D01*
X86228132Y-101471295D01*
X86199630Y-101515648D01*
X86106478Y-101608800D01*
X86106474Y-101608805D01*
X86035757Y-101728383D01*
X86027637Y-101742113D01*
X86013734Y-101789969D01*
X85984426Y-101890847D01*
X85984426Y-101890849D01*
X85981692Y-101925589D01*
X85981692Y-102274393D01*
X85981693Y-102274415D01*
X85984426Y-102309152D01*
X85999988Y-102362720D01*
X86027637Y-102457887D01*
X86106477Y-102591198D01*
X86106479Y-102591200D01*
X86106481Y-102591203D01*
X86177597Y-102662319D01*
X86180750Y-102668093D01*
X86186170Y-102671826D01*
X86197288Y-102698381D01*
X86211082Y-102723642D01*
X86210612Y-102730204D01*
X86213154Y-102736274D01*
X86208151Y-102764620D01*
X86206098Y-102793334D01*
X86201871Y-102800205D01*
X86201011Y-102805081D01*
X86186117Y-102825817D01*
X86180993Y-102834149D01*
X86179329Y-102835949D01*
X86106477Y-102908802D01*
X86096621Y-102925467D01*
X86087676Y-102935149D01*
X86068551Y-102946594D01*
X86052261Y-102961805D01*
X86037153Y-102965386D01*
X86027724Y-102971030D01*
X86015050Y-102970625D01*
X85996599Y-102975000D01*
X85989552Y-102975000D01*
X85989550Y-102975001D01*
X86008291Y-103039506D01*
X86008292Y-103108693D01*
X85984428Y-103190837D01*
X85984426Y-103190849D01*
X85981692Y-103225589D01*
X85981692Y-103574393D01*
X85981693Y-103574415D01*
X85984426Y-103609152D01*
X85984426Y-103609155D01*
X85984427Y-103609156D01*
X86027637Y-103757887D01*
X86044655Y-103786663D01*
X86106474Y-103891194D01*
X86106481Y-103891203D01*
X86212129Y-103996851D01*
X86245614Y-104058174D01*
X86240630Y-104127866D01*
X86212129Y-104172213D01*
X86194531Y-104189810D01*
X86194530Y-104189811D01*
X86106522Y-104335393D01*
X86055913Y-104497807D01*
X86049500Y-104568386D01*
X86049500Y-105231613D01*
X86055913Y-105302192D01*
X86055913Y-105302194D01*
X86055914Y-105302196D01*
X86106522Y-105464606D01*
X86188376Y-105600009D01*
X86194530Y-105610188D01*
X86314811Y-105730469D01*
X86314813Y-105730470D01*
X86314815Y-105730472D01*
X86460394Y-105818478D01*
X86622804Y-105869086D01*
X86693384Y-105875500D01*
X86693387Y-105875500D01*
X87206613Y-105875500D01*
X87206616Y-105875500D01*
X87277196Y-105869086D01*
X87439606Y-105818478D01*
X87585185Y-105730472D01*
X87585189Y-105730468D01*
X87612819Y-105702839D01*
X87674142Y-105669354D01*
X87743834Y-105674338D01*
X87799767Y-105716210D01*
X87824184Y-105781674D01*
X87824500Y-105790520D01*
X87824500Y-108408477D01*
X87824500Y-108408479D01*
X87824499Y-108408479D01*
X87844322Y-108508127D01*
X87845647Y-108514786D01*
X87849499Y-108534151D01*
X87893235Y-108639741D01*
X87898535Y-108652535D01*
X87969723Y-108759077D01*
X87969726Y-108759081D01*
X87969727Y-108759082D01*
X90062364Y-110851717D01*
X90095849Y-110913040D01*
X90090865Y-110982732D01*
X90048993Y-111038665D01*
X90011574Y-111057783D01*
X89935396Y-111081521D01*
X89789811Y-111169530D01*
X89789810Y-111169531D01*
X89687681Y-111271661D01*
X89626358Y-111305146D01*
X89556666Y-111300162D01*
X89512319Y-111271661D01*
X89410188Y-111169530D01*
X89373908Y-111147598D01*
X89264606Y-111081522D01*
X89102196Y-111030914D01*
X89102194Y-111030913D01*
X89102192Y-111030913D01*
X89052778Y-111026423D01*
X89031616Y-111024500D01*
X89031613Y-111024500D01*
X88912230Y-111024500D01*
X88845191Y-111004815D01*
X88824549Y-110988181D01*
X87611818Y-109775450D01*
X87578333Y-109714127D01*
X87575499Y-109687769D01*
X87575499Y-109277129D01*
X87575498Y-109277123D01*
X87575497Y-109277116D01*
X87569091Y-109217517D01*
X87518796Y-109082669D01*
X87518795Y-109082668D01*
X87518793Y-109082664D01*
X87432547Y-108967455D01*
X87432544Y-108967452D01*
X87317335Y-108881206D01*
X87317328Y-108881202D01*
X87185917Y-108832189D01*
X87129983Y-108790318D01*
X87105566Y-108724853D01*
X87120418Y-108656580D01*
X87141563Y-108628332D01*
X87255104Y-108514792D01*
X87259947Y-108508127D01*
X87380048Y-108342820D01*
X87380047Y-108342820D01*
X87380051Y-108342816D01*
X87476557Y-108153412D01*
X87542246Y-107951243D01*
X87575500Y-107741287D01*
X87575500Y-107528713D01*
X87542246Y-107318757D01*
X87476557Y-107116588D01*
X87380051Y-106927184D01*
X87380049Y-106927181D01*
X87380048Y-106927179D01*
X87255109Y-106755213D01*
X87104786Y-106604890D01*
X86932820Y-106479951D01*
X86743414Y-106383444D01*
X86743413Y-106383443D01*
X86743412Y-106383443D01*
X86541243Y-106317754D01*
X86541241Y-106317753D01*
X86541240Y-106317753D01*
X86345928Y-106286819D01*
X86331287Y-106284500D01*
X86118713Y-106284500D01*
X86104072Y-106286819D01*
X85908760Y-106317753D01*
X85706585Y-106383444D01*
X85517179Y-106479951D01*
X85345213Y-106604890D01*
X85194890Y-106755213D01*
X85069951Y-106927179D01*
X84973444Y-107116585D01*
X84907753Y-107318760D01*
X84890048Y-107430549D01*
X84874500Y-107528713D01*
X84874500Y-107741287D01*
X84881380Y-107784724D01*
X84904884Y-107933126D01*
X84907754Y-107951243D01*
X84961571Y-108116875D01*
X84973444Y-108153414D01*
X85069951Y-108342820D01*
X85194890Y-108514786D01*
X85308430Y-108628326D01*
X85341915Y-108689649D01*
X85336931Y-108759341D01*
X85295059Y-108815274D01*
X85264083Y-108832189D01*
X85132669Y-108881203D01*
X85132664Y-108881206D01*
X85017455Y-108967452D01*
X85017452Y-108967455D01*
X84931206Y-109082664D01*
X84931202Y-109082671D01*
X84880908Y-109217517D01*
X84874501Y-109277116D01*
X84874501Y-109277123D01*
X84874500Y-109277135D01*
X84874500Y-111072870D01*
X84874501Y-111072876D01*
X84880908Y-111132483D01*
X84931202Y-111267328D01*
X84931206Y-111267335D01*
X85017452Y-111382544D01*
X85017455Y-111382547D01*
X85132664Y-111468793D01*
X85132671Y-111468797D01*
X85267517Y-111519091D01*
X85267516Y-111519091D01*
X85274444Y-111519835D01*
X85327127Y-111525500D01*
X87122872Y-111525499D01*
X87168862Y-111520555D01*
X87237620Y-111532961D01*
X87269796Y-111556164D01*
X87838181Y-112124549D01*
X87871666Y-112185872D01*
X87874500Y-112212230D01*
X87874500Y-112331613D01*
X87880913Y-112402192D01*
X87880913Y-112402194D01*
X87880914Y-112402196D01*
X87931522Y-112564606D01*
X88001916Y-112681052D01*
X88019530Y-112710188D01*
X88139811Y-112830469D01*
X88139813Y-112830470D01*
X88139815Y-112830472D01*
X88285394Y-112918478D01*
X88447804Y-112969086D01*
X88518384Y-112975500D01*
X88518387Y-112975500D01*
X89031613Y-112975500D01*
X89031616Y-112975500D01*
X89102196Y-112969086D01*
X89264606Y-112918478D01*
X89410185Y-112830472D01*
X89461220Y-112779437D01*
X89512319Y-112728339D01*
X89573642Y-112694854D01*
X89643334Y-112699838D01*
X89687681Y-112728339D01*
X89789811Y-112830469D01*
X89789813Y-112830470D01*
X89789815Y-112830472D01*
X89935394Y-112918478D01*
X90097804Y-112969086D01*
X90168384Y-112975500D01*
X90316080Y-112975500D01*
X90383119Y-112995185D01*
X90428874Y-113047989D01*
X90438818Y-113117147D01*
X90419182Y-113168391D01*
X90369024Y-113243456D01*
X90369025Y-113243457D01*
X90334913Y-113294508D01*
X90278343Y-113431082D01*
X90278340Y-113431092D01*
X90249500Y-113576079D01*
X90249500Y-117037770D01*
X90229815Y-117104809D01*
X90213181Y-117125451D01*
X89592050Y-117746581D01*
X89592049Y-117746582D01*
X89592048Y-117746584D01*
X89543673Y-117818984D01*
X89526794Y-117844244D01*
X89509916Y-117869504D01*
X89509912Y-117869511D01*
X89453343Y-118006082D01*
X89453340Y-118006092D01*
X89424500Y-118151079D01*
X89424500Y-120187770D01*
X89404815Y-120254809D01*
X89388181Y-120275451D01*
X88117048Y-121546583D01*
X88095706Y-121578525D01*
X88074505Y-121610256D01*
X88054710Y-121639880D01*
X88034916Y-121669504D01*
X88034912Y-121669511D01*
X87978343Y-121806082D01*
X87978340Y-121806092D01*
X87949500Y-121951079D01*
X87949500Y-122537779D01*
X87929815Y-122604818D01*
X87898385Y-122638097D01*
X87820211Y-122694893D01*
X87820205Y-122694898D01*
X87669890Y-122845213D01*
X87544951Y-123017179D01*
X87448444Y-123206585D01*
X87382753Y-123408760D01*
X87366732Y-123509913D01*
X87349500Y-123618713D01*
X87349500Y-124081287D01*
X87352464Y-124100000D01*
X87377864Y-124260373D01*
X87382754Y-124291243D01*
X87435907Y-124454831D01*
X87448444Y-124493414D01*
X87544951Y-124682820D01*
X87669890Y-124854786D01*
X87820213Y-125005109D01*
X87992179Y-125130048D01*
X87992181Y-125130049D01*
X87992184Y-125130051D01*
X88181588Y-125226557D01*
X88383757Y-125292246D01*
X88593713Y-125325500D01*
X88593714Y-125325500D01*
X88806286Y-125325500D01*
X88806287Y-125325500D01*
X89016243Y-125292246D01*
X89218412Y-125226557D01*
X89407816Y-125130051D01*
X89429789Y-125114086D01*
X89579786Y-125005109D01*
X89579788Y-125005106D01*
X89579792Y-125005104D01*
X89730104Y-124854792D01*
X89849683Y-124690204D01*
X89905011Y-124647540D01*
X89974624Y-124641561D01*
X90036420Y-124674166D01*
X90050313Y-124690199D01*
X90153661Y-124832446D01*
X90169896Y-124854792D01*
X90320213Y-125005109D01*
X90492179Y-125130048D01*
X90492181Y-125130049D01*
X90492184Y-125130051D01*
X90681588Y-125226557D01*
X90883757Y-125292246D01*
X91093713Y-125325500D01*
X91093714Y-125325500D01*
X91306286Y-125325500D01*
X91306287Y-125325500D01*
X91516243Y-125292246D01*
X91718412Y-125226557D01*
X91907816Y-125130051D01*
X91929789Y-125114086D01*
X92079786Y-125005109D01*
X92079788Y-125005106D01*
X92079792Y-125005104D01*
X92230104Y-124854792D01*
X92349683Y-124690204D01*
X92405011Y-124647540D01*
X92474624Y-124641561D01*
X92536420Y-124674166D01*
X92550313Y-124690199D01*
X92653661Y-124832446D01*
X92669896Y-124854792D01*
X92820213Y-125005109D01*
X92992179Y-125130048D01*
X92992181Y-125130049D01*
X92992184Y-125130051D01*
X93181588Y-125226557D01*
X93383757Y-125292246D01*
X93593713Y-125325500D01*
X93593714Y-125325500D01*
X93806286Y-125325500D01*
X93806287Y-125325500D01*
X94016243Y-125292246D01*
X94218412Y-125226557D01*
X94407816Y-125130051D01*
X94525290Y-125044702D01*
X94579784Y-125005110D01*
X94579784Y-125005109D01*
X94579792Y-125005104D01*
X94718967Y-124865928D01*
X94780286Y-124832446D01*
X94849978Y-124837430D01*
X94905912Y-124879301D01*
X94912184Y-124888515D01*
X95007684Y-125043345D01*
X95131654Y-125167315D01*
X95280875Y-125259356D01*
X95280880Y-125259358D01*
X95447302Y-125314505D01*
X95447309Y-125314506D01*
X95550019Y-125324999D01*
X95949999Y-125324999D01*
X95950000Y-125324998D01*
X95950000Y-124254145D01*
X96016657Y-124292630D01*
X96137465Y-124325000D01*
X96262535Y-124325000D01*
X96383343Y-124292630D01*
X96450000Y-124254145D01*
X96450000Y-125324999D01*
X96849972Y-125324999D01*
X96849986Y-125324998D01*
X96952697Y-125314505D01*
X97119119Y-125259358D01*
X97119124Y-125259356D01*
X97268345Y-125167315D01*
X97392315Y-125043345D01*
X97484356Y-124894124D01*
X97484358Y-124894119D01*
X97539505Y-124727697D01*
X97539506Y-124727690D01*
X97549999Y-124624986D01*
X97550000Y-124624973D01*
X97550000Y-124100000D01*
X96604146Y-124100000D01*
X96642630Y-124033343D01*
X96675000Y-123912535D01*
X96675000Y-123787465D01*
X96642630Y-123666657D01*
X96604146Y-123600000D01*
X97549999Y-123600000D01*
X97549999Y-123075028D01*
X97549998Y-123075013D01*
X97539505Y-122972302D01*
X97484358Y-122805880D01*
X97484356Y-122805875D01*
X97392315Y-122656654D01*
X97263237Y-122527576D01*
X97265446Y-122525366D01*
X97233148Y-122479797D01*
X97229978Y-122409999D01*
X97265047Y-122349568D01*
X97327221Y-122317689D01*
X97350418Y-122315500D01*
X101315362Y-122315500D01*
X101382401Y-122335185D01*
X101428156Y-122387989D01*
X101438100Y-122457147D01*
X101409075Y-122520703D01*
X101388247Y-122539818D01*
X101301644Y-122602738D01*
X101301638Y-122602743D01*
X101165243Y-122739138D01*
X101165243Y-122739139D01*
X101165241Y-122739141D01*
X101122210Y-122798368D01*
X101051859Y-122895197D01*
X100964286Y-123067068D01*
X100904675Y-123250530D01*
X100879615Y-123408757D01*
X100874500Y-123441051D01*
X100874500Y-123633949D01*
X100881495Y-123678114D01*
X100904675Y-123824469D01*
X100904676Y-123824472D01*
X100964285Y-124007929D01*
X101051859Y-124179802D01*
X101165241Y-124335859D01*
X101301641Y-124472259D01*
X101426098Y-124562682D01*
X101468763Y-124618012D01*
X101474742Y-124687625D01*
X101442136Y-124749420D01*
X101381297Y-124783778D01*
X101353212Y-124787000D01*
X101186616Y-124787000D01*
X101186611Y-124787000D01*
X101013389Y-124787000D01*
X100973728Y-124793281D01*
X100842302Y-124814097D01*
X100677552Y-124867628D01*
X100523211Y-124946268D01*
X100443256Y-125004359D01*
X100383072Y-125048086D01*
X100383070Y-125048088D01*
X100383069Y-125048088D01*
X100260588Y-125170569D01*
X100260588Y-125170570D01*
X100260586Y-125170572D01*
X100219912Y-125226555D01*
X100158768Y-125310711D01*
X100080128Y-125465052D01*
X100026597Y-125629802D01*
X99999500Y-125800889D01*
X99999500Y-126674110D01*
X100026597Y-126845197D01*
X100080129Y-127009950D01*
X100084845Y-127019206D01*
X100097741Y-127087875D01*
X100071464Y-127152615D01*
X100014358Y-127192872D01*
X99974360Y-127199500D01*
X87003051Y-127199500D01*
X86996968Y-127199351D01*
X86976900Y-127198365D01*
X86663071Y-127182947D01*
X86650962Y-127181754D01*
X86323305Y-127133151D01*
X86311369Y-127130777D01*
X85990055Y-127050292D01*
X85978411Y-127046759D01*
X85666540Y-126935170D01*
X85655301Y-126930515D01*
X85355844Y-126788883D01*
X85345121Y-126783150D01*
X85061011Y-126612862D01*
X85050893Y-126606102D01*
X84784829Y-126408775D01*
X84775423Y-126401055D01*
X84736475Y-126365755D01*
X84529986Y-126178604D01*
X84521395Y-126170013D01*
X84298944Y-125924576D01*
X84291224Y-125915170D01*
X84232034Y-125835362D01*
X84093895Y-125649103D01*
X84087137Y-125638988D01*
X84081631Y-125629802D01*
X83916844Y-125354871D01*
X83911120Y-125344163D01*
X83769479Y-125044688D01*
X83764829Y-125033459D01*
X83754685Y-125005109D01*
X83692902Y-124832438D01*
X83653240Y-124721588D01*
X83649707Y-124709944D01*
X83647882Y-124702657D01*
X83569219Y-124388617D01*
X83566848Y-124376694D01*
X83554378Y-124292630D01*
X83518245Y-124049037D01*
X83517052Y-124036927D01*
X83515627Y-124007929D01*
X83500649Y-123703032D01*
X83500500Y-123696948D01*
X83500500Y-116378711D01*
X85149500Y-116378711D01*
X85149500Y-116621288D01*
X85174889Y-116814144D01*
X85181162Y-116861789D01*
X85201251Y-116936763D01*
X85243947Y-117096104D01*
X85336736Y-117320116D01*
X85336776Y-117320212D01*
X85458064Y-117530289D01*
X85458066Y-117530292D01*
X85458067Y-117530293D01*
X85605733Y-117722736D01*
X85605739Y-117722743D01*
X85777256Y-117894260D01*
X85777262Y-117894265D01*
X85969711Y-118041936D01*
X86179788Y-118163224D01*
X86403900Y-118256054D01*
X86638211Y-118318838D01*
X86811937Y-118341709D01*
X86878711Y-118350500D01*
X86878712Y-118350500D01*
X87121289Y-118350500D01*
X87169388Y-118344167D01*
X87361789Y-118318838D01*
X87596100Y-118256054D01*
X87820212Y-118163224D01*
X88030289Y-118041936D01*
X88222738Y-117894265D01*
X88394265Y-117722738D01*
X88541936Y-117530289D01*
X88663224Y-117320212D01*
X88756054Y-117096100D01*
X88818838Y-116861789D01*
X88850500Y-116621288D01*
X88850500Y-116378712D01*
X88818838Y-116138211D01*
X88756054Y-115903900D01*
X88663224Y-115679788D01*
X88541936Y-115469711D01*
X88394265Y-115277262D01*
X88394260Y-115277256D01*
X88222743Y-115105739D01*
X88222736Y-115105733D01*
X88030293Y-114958067D01*
X88030292Y-114958066D01*
X88030289Y-114958064D01*
X87820212Y-114836776D01*
X87820205Y-114836773D01*
X87596104Y-114743947D01*
X87361785Y-114681161D01*
X87121289Y-114649500D01*
X87121288Y-114649500D01*
X86878712Y-114649500D01*
X86878711Y-114649500D01*
X86638214Y-114681161D01*
X86403895Y-114743947D01*
X86179794Y-114836773D01*
X86179785Y-114836777D01*
X85969706Y-114958067D01*
X85777263Y-115105733D01*
X85777256Y-115105739D01*
X85605739Y-115277256D01*
X85605733Y-115277263D01*
X85458067Y-115469706D01*
X85336777Y-115679785D01*
X85336773Y-115679794D01*
X85243947Y-115903895D01*
X85181161Y-116138214D01*
X85149500Y-116378711D01*
X83500500Y-116378711D01*
X83500500Y-97315316D01*
X84374500Y-97315316D01*
X84374500Y-97904683D01*
X84384931Y-98006780D01*
X84439747Y-98172204D01*
X84439752Y-98172215D01*
X84531234Y-98320529D01*
X84531237Y-98320533D01*
X84654467Y-98443763D01*
X84690597Y-98466048D01*
X84697419Y-98473633D01*
X84706703Y-98477873D01*
X84720390Y-98499171D01*
X84737321Y-98517994D01*
X84739965Y-98529630D01*
X84744477Y-98536651D01*
X84749500Y-98571586D01*
X84749500Y-98695396D01*
X84740062Y-98742844D01*
X84730263Y-98766503D01*
X84730262Y-98766506D01*
X84730260Y-98766511D01*
X84699500Y-98921153D01*
X84699500Y-99078846D01*
X84730261Y-99233489D01*
X84730264Y-99233501D01*
X84790602Y-99379172D01*
X84790609Y-99379185D01*
X84878210Y-99510288D01*
X84878213Y-99510292D01*
X84989707Y-99621786D01*
X84989711Y-99621789D01*
X85120814Y-99709390D01*
X85120827Y-99709397D01*
X85195401Y-99740286D01*
X85266503Y-99769737D01*
X85391135Y-99794528D01*
X85421153Y-99800499D01*
X85421156Y-99800500D01*
X85421158Y-99800500D01*
X85578844Y-99800500D01*
X85578845Y-99800499D01*
X85733497Y-99769737D01*
X85879179Y-99709394D01*
X86010289Y-99621789D01*
X86121789Y-99510289D01*
X86209394Y-99379179D01*
X86216212Y-99362720D01*
X86239759Y-99305871D01*
X86269737Y-99233497D01*
X86300500Y-99078842D01*
X86300500Y-98921158D01*
X86300500Y-98921155D01*
X86300499Y-98921153D01*
X86269739Y-98766511D01*
X86269738Y-98766508D01*
X86269737Y-98766503D01*
X86259937Y-98742844D01*
X86258311Y-98734670D01*
X86255523Y-98730331D01*
X86250500Y-98695396D01*
X86250500Y-98571586D01*
X86270185Y-98504547D01*
X86309402Y-98466048D01*
X86345533Y-98443763D01*
X86468763Y-98320533D01*
X86560252Y-98172207D01*
X86615069Y-98006779D01*
X86625500Y-97904676D01*
X86625500Y-97315324D01*
X86615069Y-97213221D01*
X86560252Y-97047793D01*
X86560248Y-97047787D01*
X86560247Y-97047784D01*
X86468765Y-96899470D01*
X86468762Y-96899466D01*
X86345533Y-96776237D01*
X86345529Y-96776234D01*
X86197215Y-96684752D01*
X86197209Y-96684749D01*
X86197207Y-96684748D01*
X86154650Y-96670646D01*
X86031780Y-96629931D01*
X85929683Y-96619500D01*
X85929676Y-96619500D01*
X85070324Y-96619500D01*
X85070316Y-96619500D01*
X84968219Y-96629931D01*
X84802795Y-96684747D01*
X84802784Y-96684752D01*
X84654470Y-96776234D01*
X84654466Y-96776237D01*
X84531237Y-96899466D01*
X84531234Y-96899470D01*
X84439752Y-97047784D01*
X84439747Y-97047795D01*
X84384931Y-97213219D01*
X84374500Y-97315316D01*
X83500500Y-97315316D01*
X83500500Y-94684653D01*
X84375000Y-94684653D01*
X84385423Y-94786674D01*
X84440203Y-94951991D01*
X84440208Y-94952002D01*
X84531629Y-95100217D01*
X84531632Y-95100221D01*
X84654778Y-95223367D01*
X84654782Y-95223370D01*
X84802997Y-95314791D01*
X84803008Y-95314796D01*
X84968326Y-95369576D01*
X84968323Y-95369576D01*
X85070346Y-95379999D01*
X85070359Y-95380000D01*
X85250000Y-95380000D01*
X85750000Y-95380000D01*
X85929641Y-95380000D01*
X85929653Y-95379999D01*
X86031674Y-95369576D01*
X86196991Y-95314796D01*
X86197002Y-95314791D01*
X86345217Y-95223370D01*
X86345221Y-95223367D01*
X86468367Y-95100221D01*
X86468370Y-95100217D01*
X86559791Y-94952002D01*
X86559796Y-94951991D01*
X86614576Y-94786674D01*
X86624999Y-94684653D01*
X87875000Y-94684653D01*
X87885423Y-94786674D01*
X87940203Y-94951991D01*
X87940208Y-94952002D01*
X88031629Y-95100217D01*
X88031632Y-95100221D01*
X88154778Y-95223367D01*
X88154782Y-95223370D01*
X88302997Y-95314791D01*
X88303008Y-95314796D01*
X88468326Y-95369576D01*
X88468323Y-95369576D01*
X88570346Y-95379999D01*
X88570359Y-95380000D01*
X88750000Y-95380000D01*
X88750000Y-94640000D01*
X87875000Y-94640000D01*
X87875000Y-94684653D01*
X86624999Y-94684653D01*
X86625000Y-94684640D01*
X86625000Y-94640000D01*
X85750000Y-94640000D01*
X85750000Y-95380000D01*
X85250000Y-95380000D01*
X85250000Y-94640000D01*
X84375000Y-94640000D01*
X84375000Y-94684653D01*
X83500500Y-94684653D01*
X83500500Y-94095346D01*
X84375000Y-94095346D01*
X84375000Y-94140000D01*
X85250000Y-94140000D01*
X85750000Y-94140000D01*
X86625000Y-94140000D01*
X86625000Y-94095359D01*
X86624999Y-94095346D01*
X86614576Y-93993325D01*
X86559796Y-93828008D01*
X86559791Y-93827997D01*
X86468370Y-93679782D01*
X86468367Y-93679778D01*
X86345221Y-93556632D01*
X86345217Y-93556629D01*
X86197002Y-93465208D01*
X86196991Y-93465203D01*
X86031673Y-93410423D01*
X86031676Y-93410423D01*
X85929653Y-93400000D01*
X85750000Y-93400000D01*
X85750000Y-94140000D01*
X85250000Y-94140000D01*
X85250000Y-93400000D01*
X85070346Y-93400000D01*
X84968325Y-93410423D01*
X84803008Y-93465203D01*
X84802997Y-93465208D01*
X84654782Y-93556629D01*
X84654778Y-93556632D01*
X84531632Y-93679778D01*
X84531629Y-93679782D01*
X84440208Y-93827997D01*
X84440203Y-93828008D01*
X84385423Y-93993325D01*
X84375000Y-94095346D01*
X83500500Y-94095346D01*
X83500500Y-85003051D01*
X83500649Y-84996966D01*
X83506459Y-84878711D01*
X85149500Y-84878711D01*
X85149500Y-85121288D01*
X85179299Y-85347644D01*
X85181162Y-85361789D01*
X85196046Y-85417335D01*
X85243947Y-85596104D01*
X85334787Y-85815410D01*
X85336776Y-85820212D01*
X85458064Y-86030289D01*
X85458066Y-86030292D01*
X85458067Y-86030293D01*
X85605733Y-86222736D01*
X85605739Y-86222743D01*
X85777256Y-86394260D01*
X85777263Y-86394266D01*
X85839492Y-86442016D01*
X85969711Y-86541936D01*
X86179788Y-86663224D01*
X86403900Y-86756054D01*
X86638211Y-86818838D01*
X86818586Y-86842584D01*
X86878711Y-86850500D01*
X86878712Y-86850500D01*
X87121289Y-86850500D01*
X87169388Y-86844167D01*
X87361789Y-86818838D01*
X87596100Y-86756054D01*
X87820212Y-86663224D01*
X88030289Y-86541936D01*
X88222738Y-86394265D01*
X88394265Y-86222738D01*
X88541936Y-86030289D01*
X88663224Y-85820212D01*
X88756054Y-85596100D01*
X88818838Y-85361789D01*
X88850500Y-85121288D01*
X88850500Y-84878712D01*
X88849164Y-84868567D01*
X88833489Y-84749500D01*
X88818838Y-84638211D01*
X88756054Y-84403900D01*
X88663224Y-84179788D01*
X88541936Y-83969711D01*
X88429978Y-83823804D01*
X88394266Y-83777263D01*
X88394260Y-83777256D01*
X88222743Y-83605739D01*
X88222736Y-83605733D01*
X88030293Y-83458067D01*
X88030292Y-83458066D01*
X88030289Y-83458064D01*
X87820212Y-83336776D01*
X87820205Y-83336773D01*
X87596104Y-83243947D01*
X87361785Y-83181161D01*
X87121289Y-83149500D01*
X87121288Y-83149500D01*
X86878712Y-83149500D01*
X86878711Y-83149500D01*
X86638214Y-83181161D01*
X86403895Y-83243947D01*
X86179794Y-83336773D01*
X86179785Y-83336777D01*
X86001865Y-83439500D01*
X85983665Y-83450008D01*
X85969706Y-83458067D01*
X85777263Y-83605733D01*
X85777256Y-83605739D01*
X85605739Y-83777256D01*
X85605733Y-83777263D01*
X85458067Y-83969706D01*
X85336777Y-84179785D01*
X85336773Y-84179794D01*
X85243947Y-84403895D01*
X85181161Y-84638214D01*
X85149500Y-84878711D01*
X83506459Y-84878711D01*
X83506957Y-84868568D01*
X83506957Y-84868567D01*
X83513774Y-84729791D01*
X83517052Y-84663068D01*
X83518245Y-84650962D01*
X83520136Y-84638211D01*
X83566849Y-84323296D01*
X83569218Y-84311385D01*
X83649710Y-83990043D01*
X83653240Y-83978411D01*
X83764835Y-83666525D01*
X83769476Y-83655318D01*
X83911124Y-83355828D01*
X83916840Y-83345136D01*
X84087145Y-83060998D01*
X84093888Y-83050905D01*
X84291232Y-82784818D01*
X84298935Y-82775433D01*
X84521405Y-82529975D01*
X84529975Y-82521405D01*
X84775433Y-82298935D01*
X84784818Y-82291232D01*
X85050905Y-82093888D01*
X85060998Y-82087145D01*
X85345136Y-81916840D01*
X85355828Y-81911124D01*
X85655318Y-81769476D01*
X85666525Y-81764835D01*
X85978412Y-81653239D01*
X85990043Y-81649710D01*
X86311385Y-81569218D01*
X86323296Y-81566849D01*
X86650962Y-81518244D01*
X86663068Y-81517052D01*
X86996967Y-81500648D01*
X87003051Y-81500500D01*
X87065892Y-81500500D01*
X111834108Y-81500500D01*
X111896949Y-81500500D01*
X111903032Y-81500648D01*
G37*
G04 #@! TD.AperFunction*
G04 #@! TA.AperFunction,Conductor*
G36*
X93963165Y-115979926D02*
G01*
X94084602Y-116051744D01*
X94126224Y-116063836D01*
X94242426Y-116097597D01*
X94242429Y-116097597D01*
X94242431Y-116097598D01*
X94279306Y-116100500D01*
X94279314Y-116100500D01*
X94710686Y-116100500D01*
X94710694Y-116100500D01*
X94747569Y-116097598D01*
X94855905Y-116066123D01*
X94925774Y-116066322D01*
X94984444Y-116104264D01*
X95013288Y-116167902D01*
X95014500Y-116185199D01*
X95014500Y-116550500D01*
X94994815Y-116617539D01*
X94942011Y-116663294D01*
X94890501Y-116674500D01*
X94699999Y-116674500D01*
X94699980Y-116674501D01*
X94597203Y-116685000D01*
X94597200Y-116685001D01*
X94430668Y-116740185D01*
X94430663Y-116740187D01*
X94281342Y-116832289D01*
X94157289Y-116956342D01*
X94065187Y-117105663D01*
X94065186Y-117105666D01*
X94010001Y-117272203D01*
X94010001Y-117272204D01*
X94010000Y-117272204D01*
X93999500Y-117374983D01*
X93999500Y-118375001D01*
X93999501Y-118375019D01*
X94010000Y-118477796D01*
X94010001Y-118477799D01*
X94065185Y-118644331D01*
X94065187Y-118644336D01*
X94087387Y-118680328D01*
X94157288Y-118793656D01*
X94281344Y-118917712D01*
X94430666Y-119009814D01*
X94597203Y-119064999D01*
X94699991Y-119075500D01*
X95325008Y-119075499D01*
X95325016Y-119075498D01*
X95325019Y-119075498D01*
X95381302Y-119069748D01*
X95427797Y-119064999D01*
X95594334Y-119009814D01*
X95743656Y-118917712D01*
X95837675Y-118823692D01*
X95898994Y-118790210D01*
X95968686Y-118795194D01*
X96013034Y-118823695D01*
X96106654Y-118917315D01*
X96255875Y-119009356D01*
X96255880Y-119009358D01*
X96422302Y-119064505D01*
X96422309Y-119064506D01*
X96525019Y-119074999D01*
X96587499Y-119074998D01*
X96587500Y-119074998D01*
X96587500Y-116674999D01*
X96551819Y-116639318D01*
X96518334Y-116577995D01*
X96515500Y-116551637D01*
X96515500Y-116137372D01*
X96535185Y-116070333D01*
X96587989Y-116024578D01*
X96657147Y-116014634D01*
X96708387Y-116034268D01*
X96820821Y-116109394D01*
X96820823Y-116109395D01*
X96820827Y-116109397D01*
X96903438Y-116143615D01*
X96966503Y-116169737D01*
X97121153Y-116200499D01*
X97121156Y-116200500D01*
X97121158Y-116200500D01*
X97278844Y-116200500D01*
X97278845Y-116200499D01*
X97433497Y-116169737D01*
X97528048Y-116130572D01*
X97597517Y-116123104D01*
X97659996Y-116154379D01*
X97695648Y-116214468D01*
X97699500Y-116245134D01*
X97699500Y-116691406D01*
X97679815Y-116758445D01*
X97627011Y-116804200D01*
X97557853Y-116814144D01*
X97510403Y-116796945D01*
X97419124Y-116740643D01*
X97419119Y-116740641D01*
X97252697Y-116685494D01*
X97252690Y-116685493D01*
X97149986Y-116675000D01*
X97087500Y-116675000D01*
X97087500Y-119074999D01*
X97114271Y-119074999D01*
X97181310Y-119094684D01*
X97227065Y-119147488D01*
X97237009Y-119216646D01*
X97207984Y-119280202D01*
X97201952Y-119286680D01*
X94116716Y-122371915D01*
X94055393Y-122405400D01*
X94009637Y-122406707D01*
X93829761Y-122378218D01*
X93806287Y-122374500D01*
X93593713Y-122374500D01*
X93570239Y-122378218D01*
X93383760Y-122407753D01*
X93181585Y-122473444D01*
X92992179Y-122569951D01*
X92820213Y-122694890D01*
X92669894Y-122845209D01*
X92669890Y-122845214D01*
X92550318Y-123009793D01*
X92494989Y-123052459D01*
X92425375Y-123058438D01*
X92363580Y-123025833D01*
X92349682Y-123009793D01*
X92230109Y-122845214D01*
X92230105Y-122845209D01*
X92098312Y-122713416D01*
X92064827Y-122652093D01*
X92069811Y-122582401D01*
X92098312Y-122538054D01*
X92318678Y-122317689D01*
X92632952Y-122003415D01*
X92672655Y-121943994D01*
X92715084Y-121880495D01*
X92745938Y-121806006D01*
X92771659Y-121743912D01*
X92800500Y-121598917D01*
X92800500Y-121451082D01*
X92800500Y-120886357D01*
X92800503Y-120886343D01*
X92800501Y-120858825D01*
X92800512Y-120858788D01*
X92800509Y-120764142D01*
X92800508Y-120715206D01*
X92799466Y-120709297D01*
X92782634Y-120613855D01*
X92790375Y-120544415D01*
X92834430Y-120490185D01*
X92883217Y-120470202D01*
X92909833Y-120465509D01*
X92929968Y-120461959D01*
X92929968Y-120461958D01*
X92929973Y-120461958D01*
X93103363Y-120398848D01*
X93263159Y-120306587D01*
X93404506Y-120187979D01*
X93523109Y-120046628D01*
X93615364Y-119886828D01*
X93678468Y-119713436D01*
X93710503Y-119531721D01*
X93710500Y-119439462D01*
X93710500Y-119427052D01*
X93710500Y-119372917D01*
X93710502Y-119372860D01*
X93710501Y-119366348D01*
X93710503Y-119366343D01*
X93710501Y-119338836D01*
X93710512Y-119338799D01*
X93710510Y-119280202D01*
X93710508Y-119195206D01*
X93707622Y-119178842D01*
X93678463Y-119013503D01*
X93678462Y-119013499D01*
X93615350Y-118840117D01*
X93529935Y-118692181D01*
X93523091Y-118680327D01*
X93519989Y-118675898D01*
X93521766Y-118674652D01*
X93497488Y-118619231D01*
X93508503Y-118550235D01*
X93520567Y-118531462D01*
X93520002Y-118531066D01*
X93523101Y-118526637D01*
X93523109Y-118526628D01*
X93615364Y-118366828D01*
X93678468Y-118193436D01*
X93710503Y-118011721D01*
X93710500Y-117919462D01*
X93710500Y-117907052D01*
X93710500Y-117852917D01*
X93710502Y-117852860D01*
X93710501Y-117846348D01*
X93710503Y-117846343D01*
X93710501Y-117818836D01*
X93710512Y-117818799D01*
X93710509Y-117722743D01*
X93710508Y-117675206D01*
X93684951Y-117530293D01*
X93678463Y-117493503D01*
X93672818Y-117477995D01*
X93615350Y-117320117D01*
X93523091Y-117160328D01*
X93477220Y-117105663D01*
X93404493Y-117018993D01*
X93404486Y-117018985D01*
X93263144Y-116900389D01*
X93179829Y-116852288D01*
X93131613Y-116801721D01*
X93118389Y-116733114D01*
X93144357Y-116668249D01*
X93154137Y-116657229D01*
X93701975Y-116109393D01*
X93812260Y-115999109D01*
X93814329Y-116001178D01*
X93861565Y-115968782D01*
X93931404Y-115966690D01*
X93963165Y-115979926D01*
G37*
G04 #@! TD.AperFunction*
G04 #@! TA.AperFunction,Conductor*
G36*
X106291084Y-115800345D02*
G01*
X106383664Y-115880567D01*
X106383667Y-115880568D01*
X106383668Y-115880569D01*
X106499848Y-115933628D01*
X106514541Y-115940338D01*
X106581580Y-115960023D01*
X106581584Y-115960024D01*
X106593145Y-115961686D01*
X106656701Y-115990710D01*
X106694477Y-116049487D01*
X106699500Y-116084424D01*
X106699500Y-116178846D01*
X106730261Y-116333489D01*
X106730264Y-116333501D01*
X106790061Y-116477864D01*
X106799500Y-116525316D01*
X106799500Y-121068506D01*
X106799500Y-121206494D01*
X106799500Y-121206496D01*
X106799499Y-121206496D01*
X106826418Y-121341822D01*
X106826421Y-121341832D01*
X106879222Y-121469307D01*
X106955887Y-121584045D01*
X107506447Y-122134605D01*
X107539932Y-122195928D01*
X107534948Y-122265620D01*
X107493076Y-122321553D01*
X107427612Y-122345970D01*
X107389815Y-122342859D01*
X107386965Y-122342174D01*
X107218547Y-122315500D01*
X107196449Y-122312000D01*
X107003551Y-122312000D01*
X106981453Y-122315500D01*
X106813030Y-122342175D01*
X106629568Y-122401786D01*
X106513511Y-122460920D01*
X106444841Y-122473816D01*
X106382905Y-122449702D01*
X106342091Y-122419148D01*
X106207376Y-122368902D01*
X106207372Y-122368901D01*
X106147844Y-122362500D01*
X106100000Y-122362500D01*
X106100000Y-122523065D01*
X106093291Y-122545912D01*
X106090933Y-122569609D01*
X106083627Y-122578822D01*
X106080315Y-122590104D01*
X106062319Y-122605696D01*
X106047524Y-122624358D01*
X106036396Y-122628159D01*
X106027511Y-122635859D01*
X106003941Y-122639247D01*
X105981407Y-122646947D01*
X105969991Y-122644129D01*
X105958353Y-122645803D01*
X105936689Y-122635909D01*
X105913573Y-122630204D01*
X105902406Y-122620252D01*
X105894797Y-122616778D01*
X105885917Y-122608277D01*
X105881011Y-122603090D01*
X105807546Y-122504954D01*
X105741203Y-122455289D01*
X105733917Y-122447587D01*
X105722656Y-122425529D01*
X105707818Y-122405707D01*
X105705238Y-122391411D01*
X105702148Y-122385357D01*
X105702858Y-122378218D01*
X105700027Y-122362527D01*
X105700000Y-122362500D01*
X105652166Y-122362500D01*
X105590595Y-122369119D01*
X105570999Y-122369667D01*
X105559241Y-122369064D01*
X105557483Y-122368409D01*
X105497873Y-122362000D01*
X105421320Y-122362000D01*
X105418157Y-122361838D01*
X105388053Y-122351298D01*
X105357461Y-122342315D01*
X105355311Y-122339834D01*
X105352212Y-122338749D01*
X105332582Y-122313603D01*
X105311706Y-122289511D01*
X105310906Y-122285837D01*
X105309218Y-122283674D01*
X105308327Y-122273980D01*
X105300500Y-122238000D01*
X105300500Y-121431006D01*
X105291414Y-121385332D01*
X105291414Y-121385331D01*
X105273580Y-121295672D01*
X105246073Y-121229264D01*
X105220777Y-121168192D01*
X105144112Y-121053454D01*
X105144111Y-121053453D01*
X102782838Y-118692181D01*
X102749353Y-118630858D01*
X102754337Y-118561166D01*
X102796209Y-118505233D01*
X102861673Y-118480816D01*
X102870519Y-118480500D01*
X103792835Y-118480500D01*
X103792837Y-118480500D01*
X103902930Y-118468366D01*
X103955644Y-118456603D01*
X104060442Y-118420787D01*
X104180644Y-118341711D01*
X104232956Y-118295395D01*
X104232959Y-118295393D01*
X104263551Y-118259314D01*
X104264997Y-118257726D01*
X104293062Y-118240627D01*
X104320528Y-118222558D01*
X104322759Y-118222534D01*
X104324665Y-118221373D01*
X104357525Y-118222162D01*
X104390394Y-118221811D01*
X104392739Y-118223008D01*
X104394514Y-118223051D01*
X104399692Y-118226557D01*
X104424940Y-118239445D01*
X104425509Y-118238525D01*
X104580875Y-118334356D01*
X104580880Y-118334358D01*
X104747302Y-118389505D01*
X104747309Y-118389506D01*
X104850019Y-118399999D01*
X104899999Y-118399998D01*
X104900000Y-118399998D01*
X104900000Y-118050000D01*
X105400000Y-118050000D01*
X105400000Y-118399999D01*
X105449972Y-118399999D01*
X105449986Y-118399998D01*
X105552697Y-118389505D01*
X105719119Y-118334358D01*
X105719124Y-118334356D01*
X105868345Y-118242315D01*
X105992315Y-118118345D01*
X106084356Y-117969124D01*
X106084358Y-117969119D01*
X106139505Y-117802697D01*
X106139506Y-117802690D01*
X106149999Y-117699986D01*
X106150000Y-117699973D01*
X106150000Y-117425000D01*
X106025253Y-117425000D01*
X106045455Y-116925000D01*
X106149999Y-116925000D01*
X106149999Y-116650028D01*
X106149998Y-116650013D01*
X106139505Y-116547302D01*
X106084358Y-116380880D01*
X106084356Y-116380875D01*
X106068479Y-116355135D01*
X106090659Y-115806183D01*
X106166550Y-115777878D01*
X106236241Y-115772893D01*
X106291084Y-115800345D01*
G37*
G04 #@! TD.AperFunction*
G04 #@! TA.AperFunction,Conductor*
G36*
X99405703Y-118346864D02*
G01*
X99412181Y-118352896D01*
X101762104Y-120702819D01*
X101795589Y-120764142D01*
X101790605Y-120833834D01*
X101748733Y-120889767D01*
X101683269Y-120914184D01*
X101674423Y-120914500D01*
X97996229Y-120914500D01*
X97929190Y-120894815D01*
X97883435Y-120842011D01*
X97873491Y-120772853D01*
X97902516Y-120709297D01*
X97908548Y-120702819D01*
X98121182Y-120490185D01*
X98765295Y-119846070D01*
X98805519Y-119819193D01*
X98829179Y-119809394D01*
X98960289Y-119721789D01*
X99071789Y-119610289D01*
X99159394Y-119479179D01*
X99219737Y-119333497D01*
X99250500Y-119178842D01*
X99250500Y-119021158D01*
X99250500Y-119021155D01*
X99250499Y-119021153D01*
X99219739Y-118866511D01*
X99219738Y-118866508D01*
X99219737Y-118866503D01*
X99209937Y-118842844D01*
X99200500Y-118795396D01*
X99200500Y-118440577D01*
X99220185Y-118373538D01*
X99272989Y-118327783D01*
X99342147Y-118317839D01*
X99405703Y-118346864D01*
G37*
G04 #@! TD.AperFunction*
G04 #@! TA.AperFunction,Conductor*
G36*
X103200000Y-106530608D02*
G01*
X103192627Y-106531401D01*
X103192620Y-106531403D01*
X103057913Y-106581645D01*
X103057906Y-106581649D01*
X102942812Y-106667809D01*
X102942809Y-106667812D01*
X102856649Y-106782906D01*
X102856645Y-106782913D01*
X102806403Y-106917620D01*
X102806401Y-106917627D01*
X102800000Y-106977155D01*
X102800000Y-107775000D01*
X103200000Y-107775000D01*
X103200000Y-108275000D01*
X102800000Y-108275000D01*
X102800000Y-109072844D01*
X102806401Y-109132372D01*
X102806403Y-109132379D01*
X102856645Y-109267086D01*
X102856649Y-109267093D01*
X102942809Y-109382187D01*
X102942812Y-109382190D01*
X103057906Y-109468350D01*
X103057913Y-109468354D01*
X103192620Y-109518596D01*
X103192627Y-109518598D01*
X103252155Y-109524999D01*
X103252172Y-109525000D01*
X103323750Y-109525000D01*
X104243207Y-112868480D01*
X104233447Y-112872121D01*
X104163756Y-112877105D01*
X104108912Y-112849651D01*
X104016339Y-112769435D01*
X104016331Y-112769430D01*
X103885465Y-112709664D01*
X103885460Y-112709662D01*
X103885459Y-112709662D01*
X103818420Y-112689977D01*
X103818422Y-112689977D01*
X103818417Y-112689976D01*
X103756027Y-112681006D01*
X103676000Y-112669500D01*
X102124000Y-112669500D01*
X102123991Y-112669500D01*
X102123990Y-112669501D01*
X102016549Y-112681052D01*
X102016537Y-112681054D01*
X101965027Y-112692260D01*
X101862502Y-112726383D01*
X101862496Y-112726386D01*
X101741462Y-112804171D01*
X101741451Y-112804179D01*
X101688659Y-112849923D01*
X101594433Y-112958664D01*
X101594430Y-112958668D01*
X101534664Y-113089534D01*
X101514976Y-113156582D01*
X101494500Y-113299001D01*
X101494500Y-115392507D01*
X101490313Y-115424457D01*
X101315757Y-116079037D01*
X101315752Y-116079058D01*
X101302976Y-116143599D01*
X101302974Y-116143607D01*
X101302973Y-116143615D01*
X101298786Y-116175565D01*
X101296248Y-116214468D01*
X101294500Y-116241252D01*
X101294500Y-116904481D01*
X101274815Y-116971520D01*
X101222011Y-117017275D01*
X101152853Y-117027219D01*
X101089297Y-116998194D01*
X101082819Y-116992162D01*
X100686819Y-116596162D01*
X100653334Y-116534839D01*
X100650500Y-116508481D01*
X100650500Y-112530969D01*
X100667768Y-112467848D01*
X100701744Y-112410398D01*
X100747598Y-112252569D01*
X100750500Y-112215694D01*
X100750500Y-111059306D01*
X100747598Y-111022431D01*
X100746334Y-111018082D01*
X100701745Y-110864606D01*
X100701744Y-110864603D01*
X100701744Y-110864602D01*
X100618081Y-110723135D01*
X100618079Y-110723133D01*
X100618076Y-110723129D01*
X100501870Y-110606923D01*
X100501867Y-110606921D01*
X100501865Y-110606919D01*
X100501549Y-110606732D01*
X100501353Y-110606522D01*
X100495702Y-110602139D01*
X100496409Y-110601227D01*
X100453866Y-110555664D01*
X100441362Y-110486923D01*
X100468006Y-110422333D01*
X100495921Y-110398144D01*
X100495702Y-110397861D01*
X100500911Y-110393820D01*
X100501550Y-110393267D01*
X100501865Y-110393081D01*
X100618081Y-110276865D01*
X100701744Y-110135398D01*
X100747598Y-109977569D01*
X100750500Y-109940694D01*
X100750500Y-108784306D01*
X100747598Y-108747431D01*
X100741038Y-108724853D01*
X100701745Y-108589606D01*
X100701744Y-108589603D01*
X100701744Y-108589602D01*
X100641277Y-108487358D01*
X100617768Y-108447605D01*
X100601957Y-108403439D01*
X100600500Y-108394019D01*
X100600500Y-108360931D01*
X100575501Y-108235256D01*
X100526465Y-108116873D01*
X100521147Y-108108914D01*
X100521146Y-108108913D01*
X100455274Y-108010327D01*
X99936819Y-107491872D01*
X99903334Y-107430549D01*
X99900500Y-107404191D01*
X99900500Y-107060722D01*
X99920185Y-106993683D01*
X99972989Y-106947928D01*
X100040685Y-106937783D01*
X100099499Y-106945526D01*
X100137264Y-106950498D01*
X100137280Y-106950500D01*
X100137287Y-106950500D01*
X100362713Y-106950500D01*
X100362720Y-106950500D01*
X100475236Y-106935687D01*
X100475236Y-106935686D01*
X100483295Y-106934626D01*
X100483698Y-106937689D01*
X100516302Y-106937689D01*
X100516705Y-106934626D01*
X100524763Y-106935686D01*
X100524764Y-106935687D01*
X100637280Y-106950500D01*
X100637287Y-106950500D01*
X100862713Y-106950500D01*
X100862720Y-106950500D01*
X100975236Y-106935687D01*
X101115233Y-106877698D01*
X101235451Y-106785451D01*
X101327698Y-106665233D01*
X101385687Y-106525236D01*
X101400500Y-106412720D01*
X101400500Y-106374500D01*
X101420185Y-106307461D01*
X101472989Y-106261706D01*
X101524500Y-106250500D01*
X103200000Y-106250500D01*
X103200000Y-106530608D01*
G37*
G04 #@! TD.AperFunction*
G04 #@! TA.AperFunction,Conductor*
G36*
X97516551Y-106935794D02*
G01*
X97516705Y-106934626D01*
X97524763Y-106935686D01*
X97524764Y-106935687D01*
X97637280Y-106950500D01*
X97637287Y-106950500D01*
X97862713Y-106950500D01*
X97862720Y-106950500D01*
X97959314Y-106937783D01*
X98028350Y-106948548D01*
X98080606Y-106994928D01*
X98099500Y-107060722D01*
X98099500Y-107404191D01*
X98079815Y-107471230D01*
X98063181Y-107491872D01*
X97544727Y-108010325D01*
X97544721Y-108010332D01*
X97478853Y-108108912D01*
X97478853Y-108108914D01*
X97477080Y-108111567D01*
X97473533Y-108116875D01*
X97424499Y-108235255D01*
X97424497Y-108235261D01*
X97399500Y-108360928D01*
X97399500Y-108384484D01*
X97382232Y-108447605D01*
X97298255Y-108589603D01*
X97298254Y-108589606D01*
X97252402Y-108747426D01*
X97252401Y-108747432D01*
X97249500Y-108784298D01*
X97249500Y-109940701D01*
X97252401Y-109977567D01*
X97252402Y-109977573D01*
X97298254Y-110135393D01*
X97298255Y-110135396D01*
X97381917Y-110276862D01*
X97381923Y-110276870D01*
X97498129Y-110393076D01*
X97498140Y-110393085D01*
X97498455Y-110393271D01*
X97498650Y-110393480D01*
X97504298Y-110397861D01*
X97503591Y-110398772D01*
X97546136Y-110444343D01*
X97558637Y-110513085D01*
X97531988Y-110577673D01*
X97504078Y-110601856D01*
X97504298Y-110602139D01*
X97499092Y-110606176D01*
X97498455Y-110606729D01*
X97498140Y-110606914D01*
X97498129Y-110606923D01*
X97381923Y-110723129D01*
X97381917Y-110723137D01*
X97298255Y-110864603D01*
X97298254Y-110864606D01*
X97252402Y-111022426D01*
X97252401Y-111022432D01*
X97249500Y-111059298D01*
X97249500Y-112215701D01*
X97252401Y-112252567D01*
X97252402Y-112252573D01*
X97298254Y-112410393D01*
X97298255Y-112410396D01*
X97298256Y-112410398D01*
X97298553Y-112410901D01*
X97332232Y-112467848D01*
X97349500Y-112530969D01*
X97349500Y-112818994D01*
X97353033Y-112836758D01*
X97346804Y-112906349D01*
X97303940Y-112961526D01*
X97238050Y-112984769D01*
X97170053Y-112968700D01*
X97143734Y-112948628D01*
X96212159Y-112017052D01*
X96212152Y-112017046D01*
X96106807Y-111946658D01*
X96089233Y-111934916D01*
X96089228Y-111934913D01*
X95952655Y-111878343D01*
X95952645Y-111878340D01*
X95807658Y-111849500D01*
X95807656Y-111849500D01*
X94962229Y-111849500D01*
X94895190Y-111829815D01*
X94874548Y-111813181D01*
X94281319Y-111219951D01*
X94247834Y-111158628D01*
X94245000Y-111132270D01*
X94245000Y-109799000D01*
X94264685Y-109731961D01*
X94317489Y-109686206D01*
X94369000Y-109675000D01*
X94621000Y-109675000D01*
X94688039Y-109694685D01*
X94733794Y-109747489D01*
X94745000Y-109799000D01*
X94745000Y-111147295D01*
X94745001Y-111147295D01*
X94747486Y-111147100D01*
X94905198Y-111101281D01*
X95046550Y-111017686D01*
X95052717Y-111012903D01*
X95054630Y-111015369D01*
X95103222Y-110988802D01*
X95172917Y-110993749D01*
X95205762Y-111014853D01*
X95206969Y-111013298D01*
X95213132Y-111018078D01*
X95213135Y-111018081D01*
X95354602Y-111101744D01*
X95396224Y-111113836D01*
X95512426Y-111147597D01*
X95512429Y-111147597D01*
X95512431Y-111147598D01*
X95549306Y-111150500D01*
X95549314Y-111150500D01*
X95980686Y-111150500D01*
X95980694Y-111150500D01*
X96017569Y-111147598D01*
X96017571Y-111147597D01*
X96017573Y-111147597D01*
X96070328Y-111132270D01*
X96175398Y-111101744D01*
X96316865Y-111018081D01*
X96433081Y-110901865D01*
X96516744Y-110760398D01*
X96561388Y-110606733D01*
X96562597Y-110602573D01*
X96562598Y-110602567D01*
X96562654Y-110601856D01*
X96565500Y-110565694D01*
X96565500Y-108784306D01*
X96562598Y-108747431D01*
X96556038Y-108724853D01*
X96516745Y-108589606D01*
X96516744Y-108589603D01*
X96516744Y-108589602D01*
X96433081Y-108448135D01*
X96433079Y-108448133D01*
X96433076Y-108448129D01*
X96316870Y-108331923D01*
X96316862Y-108331917D01*
X96175396Y-108248255D01*
X96175393Y-108248254D01*
X96017573Y-108202402D01*
X96017567Y-108202401D01*
X95980701Y-108199500D01*
X95980694Y-108199500D01*
X95820808Y-108199500D01*
X95791367Y-108190855D01*
X95761381Y-108184332D01*
X95756365Y-108180577D01*
X95753769Y-108179815D01*
X95733127Y-108163181D01*
X95724075Y-108154129D01*
X95446552Y-107876605D01*
X95446529Y-107876584D01*
X95354668Y-107784724D01*
X95354667Y-107784722D01*
X95322407Y-107752461D01*
X95322401Y-107752456D01*
X95263383Y-107713022D01*
X95218577Y-107659410D01*
X95209870Y-107590085D01*
X95210652Y-107585747D01*
X95240754Y-107434532D01*
X95240779Y-107259126D01*
X95208887Y-107098672D01*
X95210222Y-107083769D01*
X95206619Y-107069244D01*
X95213279Y-107049671D01*
X95215125Y-107029083D01*
X95224307Y-107017266D01*
X95229128Y-107003100D01*
X95245310Y-106990236D01*
X95257996Y-106973912D01*
X95273013Y-106968216D01*
X95283823Y-106959624D01*
X95308260Y-106954848D01*
X95318079Y-106951124D01*
X95324273Y-106950500D01*
X95362720Y-106950500D01*
X95475236Y-106935687D01*
X95476497Y-106935164D01*
X95487571Y-106934049D01*
X95507000Y-106937689D01*
X95516302Y-106937689D01*
X95516705Y-106934626D01*
X95524763Y-106935686D01*
X95524764Y-106935687D01*
X95637280Y-106950500D01*
X95637287Y-106950500D01*
X95862713Y-106950500D01*
X95862720Y-106950500D01*
X95975236Y-106935687D01*
X95975236Y-106935686D01*
X95983295Y-106934626D01*
X95983698Y-106937689D01*
X96016302Y-106937689D01*
X96016705Y-106934626D01*
X96024763Y-106935686D01*
X96024764Y-106935687D01*
X96137280Y-106950500D01*
X96137287Y-106950500D01*
X96362713Y-106950500D01*
X96362720Y-106950500D01*
X96475236Y-106935687D01*
X96475236Y-106935686D01*
X96483295Y-106934626D01*
X96483698Y-106937689D01*
X96516302Y-106937689D01*
X96516705Y-106934626D01*
X96524763Y-106935686D01*
X96524764Y-106935687D01*
X96637280Y-106950500D01*
X96637287Y-106950500D01*
X96862713Y-106950500D01*
X96862720Y-106950500D01*
X96975236Y-106935687D01*
X96975236Y-106935686D01*
X96983295Y-106934626D01*
X96983698Y-106937689D01*
X97016302Y-106937689D01*
X97016705Y-106934626D01*
X97024763Y-106935686D01*
X97024764Y-106935687D01*
X97137280Y-106950500D01*
X97137287Y-106950500D01*
X97362713Y-106950500D01*
X97362720Y-106950500D01*
X97475236Y-106935687D01*
X97475236Y-106935686D01*
X97483295Y-106934626D01*
X97483698Y-106937689D01*
X97483903Y-106937689D01*
X97497197Y-106933457D01*
X97516551Y-106935794D01*
G37*
G04 #@! TD.AperFunction*
G04 #@! TA.AperFunction,Conductor*
G36*
X111188635Y-107009145D02*
G01*
X111218618Y-107015668D01*
X111223633Y-107019422D01*
X111226231Y-107020185D01*
X111246868Y-107036814D01*
X111383682Y-107173628D01*
X111417166Y-107234948D01*
X111418637Y-107248637D01*
X111424700Y-107254700D01*
X111438133Y-107258644D01*
X111468120Y-107265168D01*
X111473135Y-107268922D01*
X111475732Y-107269685D01*
X111496374Y-107286319D01*
X111543181Y-107333126D01*
X111576666Y-107394449D01*
X111579500Y-107420807D01*
X111579500Y-109575546D01*
X111559815Y-109642585D01*
X111507011Y-109688340D01*
X111437853Y-109698284D01*
X111374297Y-109669259D01*
X111349962Y-109640643D01*
X111267319Y-109506659D01*
X111267316Y-109506655D01*
X111200000Y-109439339D01*
X111200000Y-108575000D01*
X109607407Y-107500000D01*
X110641210Y-107500000D01*
X110642854Y-107520910D01*
X110687968Y-107676195D01*
X110770278Y-107815374D01*
X110770285Y-107815383D01*
X110884616Y-107929714D01*
X110884625Y-107929721D01*
X111023804Y-108012031D01*
X111170000Y-108054504D01*
X111170000Y-107500000D01*
X110641210Y-107500000D01*
X109607407Y-107500000D01*
X108867407Y-107000500D01*
X111159192Y-107000500D01*
X111188635Y-107009145D01*
G37*
G04 #@! TD.AperFunction*
G04 #@! TA.AperFunction,Conductor*
G36*
X90192539Y-105219685D02*
G01*
X90238294Y-105272489D01*
X90249500Y-105324000D01*
X90249500Y-105434697D01*
X90252356Y-105470991D01*
X90252357Y-105470997D01*
X90297504Y-105626390D01*
X90297505Y-105626393D01*
X90297506Y-105626395D01*
X90332732Y-105685959D01*
X90350000Y-105749079D01*
X90350000Y-106351000D01*
X90330315Y-106418039D01*
X90277511Y-106463794D01*
X90226000Y-106475000D01*
X89974000Y-106475000D01*
X89906961Y-106455315D01*
X89861206Y-106402511D01*
X89850000Y-106351000D01*
X89850000Y-106134746D01*
X89822834Y-106084996D01*
X89820000Y-106058638D01*
X89820000Y-105324000D01*
X89822550Y-105315314D01*
X89821262Y-105306353D01*
X89832240Y-105282312D01*
X89839685Y-105256961D01*
X89846525Y-105251033D01*
X89850287Y-105242797D01*
X89872521Y-105228507D01*
X89892489Y-105211206D01*
X89903003Y-105208918D01*
X89909065Y-105205023D01*
X89944000Y-105200000D01*
X90125500Y-105200000D01*
X90192539Y-105219685D01*
G37*
G04 #@! TD.AperFunction*
G04 #@! TA.AperFunction,Conductor*
G36*
X109959340Y-102888068D02*
G01*
X110015274Y-102929939D01*
X110032189Y-102960917D01*
X110081202Y-103092328D01*
X110081206Y-103092335D01*
X110167452Y-103207544D01*
X110167455Y-103207547D01*
X110282664Y-103293793D01*
X110282671Y-103293797D01*
X110417517Y-103344091D01*
X110417516Y-103344091D01*
X110424444Y-103344835D01*
X110477127Y-103350500D01*
X111455500Y-103350499D01*
X111522539Y-103370183D01*
X111568294Y-103422987D01*
X111579500Y-103474499D01*
X111579500Y-103919490D01*
X111559815Y-103986529D01*
X111507011Y-104032284D01*
X111437853Y-104042228D01*
X111390403Y-104025029D01*
X111294124Y-103965643D01*
X111294119Y-103965641D01*
X111127697Y-103910494D01*
X111127690Y-103910493D01*
X111024986Y-103900000D01*
X110962500Y-103900000D01*
X110962500Y-104976000D01*
X110942815Y-105043039D01*
X110890011Y-105088794D01*
X110838500Y-105100000D01*
X110586500Y-105100000D01*
X110519461Y-105080315D01*
X110473706Y-105027511D01*
X110462500Y-104976000D01*
X110462500Y-103900000D01*
X110462499Y-103899999D01*
X110400028Y-103900000D01*
X110400011Y-103900001D01*
X110297302Y-103910494D01*
X110130880Y-103965641D01*
X110130875Y-103965643D01*
X109981657Y-104057682D01*
X109888034Y-104151305D01*
X109885335Y-104152778D01*
X109883736Y-104155401D01*
X109854870Y-104169412D01*
X109826710Y-104184789D01*
X109823645Y-104184569D01*
X109820881Y-104185912D01*
X109789028Y-104182094D01*
X109757019Y-104179805D01*
X109753638Y-104177852D01*
X109751508Y-104177597D01*
X109741706Y-104170960D01*
X109721376Y-104159219D01*
X109716837Y-104155469D01*
X109618656Y-104057288D01*
X109537125Y-104006999D01*
X109530523Y-104001545D01*
X109515551Y-103979410D01*
X109497678Y-103959539D01*
X109495435Y-103949671D01*
X109491377Y-103943671D01*
X109491065Y-103930441D01*
X109485500Y-103905949D01*
X109485500Y-103259617D01*
X109505185Y-103192578D01*
X109539592Y-103158902D01*
X109538874Y-103157914D01*
X109542811Y-103155053D01*
X109542816Y-103155051D01*
X109714792Y-103030104D01*
X109828329Y-102916566D01*
X109889648Y-102883084D01*
X109959340Y-102888068D01*
G37*
G04 #@! TD.AperFunction*
G04 #@! TA.AperFunction,Conductor*
G36*
X107457090Y-101705022D02*
G01*
X107493810Y-101764465D01*
X107496702Y-101816669D01*
X107484500Y-101893712D01*
X107484500Y-102106286D01*
X107516886Y-102310766D01*
X107517754Y-102316243D01*
X107582889Y-102516708D01*
X107583444Y-102518414D01*
X107679951Y-102707820D01*
X107804890Y-102879786D01*
X107804896Y-102879792D01*
X107955208Y-103030104D01*
X108127184Y-103155051D01*
X108127188Y-103155053D01*
X108131126Y-103157914D01*
X108130146Y-103159262D01*
X108172160Y-103205690D01*
X108184500Y-103259617D01*
X108184500Y-103977770D01*
X108164815Y-104044809D01*
X108148181Y-104065451D01*
X108032289Y-104181342D01*
X107940187Y-104330663D01*
X107940185Y-104330668D01*
X107923106Y-104382211D01*
X107885001Y-104497203D01*
X107885001Y-104497204D01*
X107885000Y-104497204D01*
X107874500Y-104599983D01*
X107874500Y-104850208D01*
X107868568Y-104870409D01*
X107867446Y-104891433D01*
X107858922Y-104903259D01*
X107854815Y-104917247D01*
X107838905Y-104931032D01*
X107826594Y-104948115D01*
X107813026Y-104953456D01*
X107802011Y-104963002D01*
X107781172Y-104965998D01*
X107761581Y-104973712D01*
X107736744Y-104972386D01*
X107732853Y-104972946D01*
X107726338Y-104971831D01*
X107724838Y-104971533D01*
X107662919Y-104939163D01*
X107628330Y-104878455D01*
X107625011Y-104850011D01*
X107625000Y-104850000D01*
X106799000Y-104850000D01*
X106731961Y-104830315D01*
X106686206Y-104777511D01*
X106675000Y-104726000D01*
X106675000Y-104600000D01*
X106549000Y-104600000D01*
X106481961Y-104580315D01*
X106436206Y-104527511D01*
X106425000Y-104476000D01*
X106425000Y-104350000D01*
X106925000Y-104350000D01*
X107624999Y-104350000D01*
X107624999Y-104301692D01*
X107624998Y-104301677D01*
X107614855Y-104202392D01*
X107561547Y-104041518D01*
X107561542Y-104041507D01*
X107472575Y-103897271D01*
X107472572Y-103897267D01*
X107352732Y-103777427D01*
X107352728Y-103777424D01*
X107208492Y-103688457D01*
X107208481Y-103688452D01*
X107047606Y-103635144D01*
X106948322Y-103625000D01*
X106925000Y-103625000D01*
X106925000Y-104350000D01*
X106425000Y-104350000D01*
X106425000Y-103624999D01*
X106401693Y-103625000D01*
X106401674Y-103625001D01*
X106302392Y-103635144D01*
X106141518Y-103688452D01*
X106141507Y-103688457D01*
X105997271Y-103777424D01*
X105997265Y-103777428D01*
X105988031Y-103786663D01*
X105926707Y-103820146D01*
X105857015Y-103815159D01*
X105812672Y-103786660D01*
X105803044Y-103777032D01*
X105803040Y-103777029D01*
X105658705Y-103688001D01*
X105658699Y-103687998D01*
X105658697Y-103687997D01*
X105604100Y-103669905D01*
X105546657Y-103630133D01*
X105519834Y-103565617D01*
X105532149Y-103496841D01*
X105555422Y-103464522D01*
X107229977Y-101789969D01*
X107271127Y-101728381D01*
X107324737Y-101683577D01*
X107394062Y-101674868D01*
X107457090Y-101705022D01*
G37*
G04 #@! TD.AperFunction*
G04 #@! TA.AperFunction,Conductor*
G36*
X94864099Y-96420185D02*
G01*
X94884741Y-96436819D01*
X95529707Y-97081786D01*
X95529711Y-97081789D01*
X95660814Y-97169390D01*
X95660818Y-97169392D01*
X95660821Y-97169394D01*
X95806503Y-97229738D01*
X95961153Y-97260499D01*
X95961157Y-97260500D01*
X95961158Y-97260500D01*
X97491203Y-97260500D01*
X97491204Y-97260499D01*
X97645856Y-97229737D01*
X97791538Y-97169394D01*
X97922648Y-97081789D01*
X98567618Y-96436819D01*
X98628941Y-96403334D01*
X98655299Y-96400500D01*
X99622650Y-96400500D01*
X99689689Y-96420185D01*
X99735444Y-96472989D01*
X99745388Y-96542147D01*
X99725752Y-96593391D01*
X99640609Y-96720814D01*
X99640602Y-96720827D01*
X99580264Y-96866498D01*
X99580261Y-96866510D01*
X99549500Y-97021153D01*
X99549500Y-97178846D01*
X99580261Y-97333489D01*
X99580264Y-97333501D01*
X99640602Y-97479172D01*
X99640609Y-97479185D01*
X99728210Y-97610288D01*
X99728213Y-97610292D01*
X99839707Y-97721786D01*
X99839711Y-97721789D01*
X99970814Y-97809390D01*
X99970827Y-97809397D01*
X100114777Y-97869022D01*
X100116503Y-97869737D01*
X100221048Y-97890532D01*
X100271147Y-97900498D01*
X100271148Y-97900498D01*
X100271158Y-97900500D01*
X100271167Y-97900500D01*
X100275206Y-97900898D01*
X100339995Y-97927054D01*
X100376406Y-97978500D01*
X100377932Y-97977869D01*
X100440602Y-98129172D01*
X100440609Y-98129185D01*
X100528210Y-98260288D01*
X100528213Y-98260292D01*
X100639707Y-98371786D01*
X100639711Y-98371789D01*
X100770814Y-98459390D01*
X100770827Y-98459397D01*
X100912295Y-98517994D01*
X100916503Y-98519737D01*
X101071153Y-98550499D01*
X101071156Y-98550500D01*
X101071158Y-98550500D01*
X101228842Y-98550500D01*
X101251308Y-98546031D01*
X101320898Y-98552257D01*
X101376076Y-98595119D01*
X101399322Y-98661008D01*
X101399500Y-98667648D01*
X101399500Y-98862727D01*
X101410499Y-98946271D01*
X101413658Y-98970263D01*
X101415374Y-98983292D01*
X101412399Y-98983683D01*
X101412399Y-99016316D01*
X101415374Y-99016708D01*
X101399500Y-99137272D01*
X101399500Y-99362727D01*
X101409688Y-99440104D01*
X101413618Y-99469960D01*
X101415374Y-99483292D01*
X101412399Y-99483683D01*
X101412399Y-99516316D01*
X101415374Y-99516708D01*
X101414313Y-99524762D01*
X101414313Y-99524764D01*
X101413269Y-99532697D01*
X101399500Y-99637272D01*
X101399500Y-99862727D01*
X101415374Y-99983292D01*
X101412399Y-99983683D01*
X101412399Y-100016316D01*
X101415374Y-100016708D01*
X101414313Y-100024762D01*
X101414313Y-100024764D01*
X101410938Y-100050393D01*
X101399500Y-100137272D01*
X101399500Y-100362727D01*
X101415374Y-100483292D01*
X101412399Y-100483683D01*
X101412399Y-100516316D01*
X101415374Y-100516708D01*
X101414313Y-100524762D01*
X101414313Y-100524764D01*
X101410938Y-100550393D01*
X101399500Y-100637272D01*
X101399500Y-100862727D01*
X101415374Y-100983292D01*
X101412399Y-100983683D01*
X101412399Y-101016316D01*
X101415374Y-101016708D01*
X101414313Y-101024762D01*
X101414313Y-101024764D01*
X101413993Y-101027196D01*
X101399500Y-101137272D01*
X101399500Y-101362727D01*
X101415374Y-101483292D01*
X101412399Y-101483683D01*
X101412399Y-101516316D01*
X101415374Y-101516708D01*
X101399500Y-101637272D01*
X101399500Y-101862727D01*
X101415374Y-101983292D01*
X101412399Y-101983683D01*
X101412399Y-102016316D01*
X101415374Y-102016708D01*
X101399500Y-102137272D01*
X101399500Y-102362727D01*
X101415374Y-102483292D01*
X101412399Y-102483683D01*
X101412399Y-102516316D01*
X101415374Y-102516708D01*
X101399500Y-102637272D01*
X101399500Y-102862727D01*
X101409035Y-102935149D01*
X101413759Y-102971030D01*
X101415374Y-102983292D01*
X101412399Y-102983683D01*
X101412399Y-103016316D01*
X101415374Y-103016708D01*
X101399500Y-103137272D01*
X101399500Y-103275500D01*
X101379815Y-103342539D01*
X101327011Y-103388294D01*
X101275500Y-103399500D01*
X100178823Y-103399500D01*
X100053155Y-103424497D01*
X100053149Y-103424499D01*
X99934764Y-103473535D01*
X99828225Y-103544722D01*
X99828218Y-103544728D01*
X99244727Y-104128219D01*
X99244721Y-104128226D01*
X99173597Y-104234672D01*
X99173535Y-104234766D01*
X99130852Y-104337812D01*
X99123485Y-104346952D01*
X99120093Y-104358190D01*
X99101964Y-104373658D01*
X99087010Y-104392215D01*
X99074521Y-104397073D01*
X99066942Y-104403541D01*
X99033741Y-104412939D01*
X99033003Y-104413227D01*
X99032710Y-104413266D01*
X99024764Y-104414313D01*
X99024639Y-104414364D01*
X99016711Y-104415443D01*
X98996568Y-104412390D01*
X98983685Y-104412386D01*
X98983292Y-104415374D01*
X98975237Y-104414313D01*
X98975236Y-104414313D01*
X98946271Y-104410499D01*
X98862727Y-104399500D01*
X98862720Y-104399500D01*
X98637280Y-104399500D01*
X98637272Y-104399500D01*
X98550393Y-104410938D01*
X98524764Y-104414313D01*
X98524762Y-104414313D01*
X98516708Y-104415374D01*
X98516316Y-104412399D01*
X98483684Y-104412399D01*
X98483292Y-104415374D01*
X98475237Y-104414313D01*
X98475236Y-104414313D01*
X98446271Y-104410499D01*
X98362727Y-104399500D01*
X98362720Y-104399500D01*
X98137280Y-104399500D01*
X98137272Y-104399500D01*
X98050393Y-104410938D01*
X98024764Y-104414313D01*
X98024762Y-104414313D01*
X98016708Y-104415374D01*
X98016316Y-104412399D01*
X97983684Y-104412399D01*
X97983292Y-104415374D01*
X97975237Y-104414313D01*
X97975236Y-104414313D01*
X97946271Y-104410499D01*
X97862727Y-104399500D01*
X97862720Y-104399500D01*
X97637280Y-104399500D01*
X97637272Y-104399500D01*
X97550393Y-104410938D01*
X97524764Y-104414313D01*
X97524762Y-104414313D01*
X97516708Y-104415374D01*
X97516316Y-104412399D01*
X97483684Y-104412399D01*
X97483292Y-104415374D01*
X97475237Y-104414313D01*
X97475236Y-104414313D01*
X97446271Y-104410499D01*
X97362727Y-104399500D01*
X97362720Y-104399500D01*
X97137280Y-104399500D01*
X97137272Y-104399500D01*
X97050393Y-104410938D01*
X97024764Y-104414313D01*
X97024762Y-104414313D01*
X97016708Y-104415374D01*
X97016316Y-104412399D01*
X96983684Y-104412399D01*
X96983292Y-104415374D01*
X96975237Y-104414313D01*
X96975236Y-104414313D01*
X96946271Y-104410499D01*
X96862727Y-104399500D01*
X96862720Y-104399500D01*
X96637280Y-104399500D01*
X96637272Y-104399500D01*
X96550393Y-104410938D01*
X96524764Y-104414313D01*
X96524762Y-104414313D01*
X96516708Y-104415374D01*
X96516316Y-104412399D01*
X96483684Y-104412399D01*
X96483292Y-104415374D01*
X96475237Y-104414313D01*
X96475236Y-104414313D01*
X96446271Y-104410499D01*
X96362727Y-104399500D01*
X96362720Y-104399500D01*
X96137280Y-104399500D01*
X96137272Y-104399500D01*
X96050393Y-104410938D01*
X96024764Y-104414313D01*
X96024762Y-104414313D01*
X96016708Y-104415374D01*
X96016316Y-104412399D01*
X95983684Y-104412399D01*
X95983292Y-104415374D01*
X95975237Y-104414313D01*
X95975236Y-104414313D01*
X95946271Y-104410499D01*
X95862727Y-104399500D01*
X95862720Y-104399500D01*
X95637280Y-104399500D01*
X95637272Y-104399500D01*
X95550393Y-104410938D01*
X95524764Y-104414313D01*
X95524762Y-104414313D01*
X95516708Y-104415374D01*
X95516316Y-104412399D01*
X95483684Y-104412399D01*
X95483292Y-104415374D01*
X95475237Y-104414313D01*
X95475236Y-104414313D01*
X95446271Y-104410499D01*
X95362727Y-104399500D01*
X95362720Y-104399500D01*
X95137280Y-104399500D01*
X95137272Y-104399500D01*
X95050393Y-104410938D01*
X95024764Y-104414313D01*
X95024762Y-104414313D01*
X95016708Y-104415374D01*
X95016316Y-104412399D01*
X94983684Y-104412399D01*
X94983292Y-104415374D01*
X94975237Y-104414313D01*
X94975236Y-104414313D01*
X94946271Y-104410499D01*
X94862727Y-104399500D01*
X94862720Y-104399500D01*
X94637280Y-104399500D01*
X94637272Y-104399500D01*
X94550393Y-104410938D01*
X94524764Y-104414313D01*
X94524762Y-104414313D01*
X94516708Y-104415374D01*
X94516482Y-104413663D01*
X94488032Y-104415995D01*
X94476626Y-104414888D01*
X94475236Y-104414313D01*
X94362720Y-104399500D01*
X94317932Y-104399500D01*
X94311961Y-104398921D01*
X94284884Y-104388035D01*
X94256890Y-104379815D01*
X94249374Y-104373758D01*
X94247134Y-104372858D01*
X94245633Y-104370743D01*
X94236248Y-104363181D01*
X93917793Y-104044726D01*
X93917789Y-104044723D01*
X93811247Y-103973535D01*
X93792189Y-103965641D01*
X93707209Y-103930441D01*
X93692864Y-103924499D01*
X93692862Y-103924498D01*
X93692861Y-103924498D01*
X93688023Y-103923536D01*
X93688018Y-103923535D01*
X93567191Y-103899500D01*
X93567189Y-103899500D01*
X93224500Y-103899500D01*
X93157461Y-103879815D01*
X93111706Y-103827011D01*
X93100500Y-103775500D01*
X93100500Y-103432808D01*
X93075502Y-103307141D01*
X93075501Y-103307140D01*
X93075501Y-103307136D01*
X93026465Y-103188753D01*
X92992072Y-103137280D01*
X92992067Y-103137272D01*
X92955281Y-103082216D01*
X92955277Y-103082211D01*
X92636819Y-102763752D01*
X92624879Y-102741886D01*
X92609451Y-102722327D01*
X92606844Y-102708858D01*
X92603334Y-102702429D01*
X92601079Y-102688040D01*
X92600500Y-102682069D01*
X92600500Y-102637280D01*
X92585687Y-102524764D01*
X92585109Y-102523370D01*
X92584004Y-102511969D01*
X92587689Y-102492697D01*
X92587689Y-102483698D01*
X92584626Y-102483295D01*
X92587971Y-102457887D01*
X92600500Y-102362720D01*
X92600500Y-102137280D01*
X92585687Y-102024764D01*
X92585686Y-102024763D01*
X92584626Y-102016705D01*
X92587689Y-102016301D01*
X92587689Y-101983698D01*
X92584626Y-101983295D01*
X92592223Y-101925589D01*
X92600500Y-101862720D01*
X92600500Y-101637280D01*
X92585687Y-101524764D01*
X92585686Y-101524763D01*
X92584626Y-101516705D01*
X92587689Y-101516301D01*
X92587689Y-101483698D01*
X92584626Y-101483295D01*
X92588314Y-101455282D01*
X92600500Y-101362720D01*
X92600500Y-101137280D01*
X92585687Y-101024764D01*
X92585686Y-101024763D01*
X92584626Y-101016705D01*
X92587689Y-101016301D01*
X92587689Y-100983698D01*
X92584626Y-100983295D01*
X92590975Y-100935066D01*
X92600500Y-100862720D01*
X92600500Y-100637280D01*
X92585687Y-100524764D01*
X92585686Y-100524763D01*
X92584626Y-100516705D01*
X92587689Y-100516301D01*
X92587689Y-100483698D01*
X92584626Y-100483295D01*
X92586475Y-100469249D01*
X92600500Y-100362720D01*
X92600500Y-100137280D01*
X92585687Y-100024764D01*
X92585686Y-100024763D01*
X92584626Y-100016705D01*
X92587689Y-100016301D01*
X92587689Y-99983698D01*
X92584626Y-99983295D01*
X92592279Y-99925162D01*
X92600500Y-99862720D01*
X92600500Y-99637280D01*
X92585687Y-99524764D01*
X92585686Y-99524763D01*
X92584626Y-99516705D01*
X92587689Y-99516301D01*
X92587689Y-99483698D01*
X92584626Y-99483295D01*
X92585687Y-99475236D01*
X92600500Y-99362720D01*
X92600500Y-99137280D01*
X92585687Y-99024764D01*
X92585686Y-99024763D01*
X92584626Y-99016705D01*
X92587689Y-99016301D01*
X92587689Y-98983698D01*
X92584626Y-98983295D01*
X92592806Y-98921158D01*
X92600500Y-98862720D01*
X92600500Y-98637280D01*
X92585687Y-98524764D01*
X92585686Y-98524763D01*
X92584626Y-98516705D01*
X92587689Y-98516301D01*
X92587689Y-98483698D01*
X92584626Y-98483295D01*
X92587772Y-98459397D01*
X92600500Y-98362720D01*
X92600500Y-98137280D01*
X92585687Y-98024764D01*
X92585686Y-98024763D01*
X92584626Y-98016705D01*
X92587689Y-98016301D01*
X92587689Y-97983698D01*
X92584626Y-97983295D01*
X92585687Y-97975236D01*
X92600500Y-97862720D01*
X92600500Y-97637280D01*
X92585687Y-97524764D01*
X92585686Y-97524763D01*
X92584626Y-97516705D01*
X92587689Y-97516301D01*
X92587689Y-97483698D01*
X92584626Y-97483295D01*
X92587783Y-97459314D01*
X92600500Y-97362720D01*
X92600500Y-97137280D01*
X92585687Y-97024764D01*
X92527698Y-96884767D01*
X92482210Y-96825486D01*
X92457016Y-96760319D01*
X92471054Y-96691874D01*
X92482211Y-96674512D01*
X92502162Y-96648512D01*
X92558590Y-96607310D01*
X92594105Y-96601120D01*
X92595088Y-96599999D01*
X92587279Y-96540686D01*
X92598044Y-96471651D01*
X92644424Y-96419395D01*
X92710218Y-96400500D01*
X94797060Y-96400500D01*
X94864099Y-96420185D01*
G37*
G04 #@! TD.AperFunction*
G04 #@! TA.AperFunction,Conductor*
G36*
X111978668Y-99307211D02*
G01*
X111985470Y-99305871D01*
X112011923Y-99316333D01*
X112039362Y-99323861D01*
X112045202Y-99329496D01*
X112050442Y-99331569D01*
X112057427Y-99341292D01*
X112077298Y-99360466D01*
X112120698Y-99425420D01*
X112224576Y-99529298D01*
X112224580Y-99529301D01*
X112346724Y-99610916D01*
X112346730Y-99610919D01*
X112346731Y-99610920D01*
X112482458Y-99667140D01*
X112603394Y-99691195D01*
X112626540Y-99695799D01*
X112626544Y-99695800D01*
X112626545Y-99695800D01*
X112773456Y-99695800D01*
X112773457Y-99695799D01*
X112780112Y-99694475D01*
X112796609Y-99691195D01*
X112866201Y-99697422D01*
X112921378Y-99740286D01*
X112944622Y-99806175D01*
X112944800Y-99812812D01*
X112944800Y-100960379D01*
X112925115Y-101027418D01*
X112872311Y-101073173D01*
X112803153Y-101083117D01*
X112739597Y-101054092D01*
X112704618Y-101003712D01*
X112668797Y-100907671D01*
X112668793Y-100907664D01*
X112582547Y-100792455D01*
X112582544Y-100792452D01*
X112467335Y-100706206D01*
X112467328Y-100706202D01*
X112332482Y-100655908D01*
X112332483Y-100655908D01*
X112272883Y-100649501D01*
X112272881Y-100649500D01*
X112272873Y-100649500D01*
X112272865Y-100649500D01*
X111732940Y-100649500D01*
X111703499Y-100640855D01*
X111673513Y-100634332D01*
X111668497Y-100630577D01*
X111665901Y-100629815D01*
X111645259Y-100613181D01*
X111504759Y-100472681D01*
X111471274Y-100411358D01*
X111476258Y-100341666D01*
X111504760Y-100297318D01*
X111551786Y-100250292D01*
X111551789Y-100250289D01*
X111639394Y-100119179D01*
X111699737Y-99973497D01*
X111730500Y-99818842D01*
X111730500Y-99661158D01*
X111730500Y-99661155D01*
X111704540Y-99530648D01*
X111706904Y-99504222D01*
X111705532Y-99477722D01*
X111709970Y-99469960D01*
X111710767Y-99461056D01*
X111727042Y-99440104D01*
X111740215Y-99417069D01*
X111749814Y-99410790D01*
X111753630Y-99405879D01*
X111768880Y-99396477D01*
X111916919Y-99319378D01*
X111944832Y-99313877D01*
X111971982Y-99305377D01*
X111978668Y-99307211D01*
G37*
G04 #@! TD.AperFunction*
G04 #@! TA.AperFunction,Conductor*
G36*
X112405979Y-97603462D02*
G01*
X112456768Y-97624499D01*
X112482458Y-97635140D01*
X112603394Y-97659195D01*
X112626540Y-97663799D01*
X112626544Y-97663800D01*
X112626545Y-97663800D01*
X112773456Y-97663800D01*
X112773457Y-97663799D01*
X112780112Y-97662475D01*
X112796609Y-97659195D01*
X112866201Y-97665422D01*
X112921378Y-97708286D01*
X112944622Y-97774175D01*
X112944800Y-97780812D01*
X112944800Y-98087188D01*
X112925115Y-98154227D01*
X112872311Y-98199982D01*
X112803153Y-98209926D01*
X112796609Y-98208805D01*
X112773459Y-98204200D01*
X112773455Y-98204200D01*
X112626545Y-98204200D01*
X112626540Y-98204200D01*
X112482465Y-98232858D01*
X112482460Y-98232859D01*
X112482458Y-98232860D01*
X112482456Y-98232861D01*
X112405515Y-98264730D01*
X112336046Y-98272198D01*
X112273567Y-98240922D01*
X112243503Y-98197620D01*
X112221987Y-98145677D01*
X112215934Y-98136618D01*
X111694457Y-98658095D01*
X111633134Y-98691580D01*
X111563442Y-98686596D01*
X111519095Y-98658095D01*
X111466319Y-98605319D01*
X111451615Y-98578391D01*
X111435023Y-98552573D01*
X111434131Y-98546372D01*
X111432834Y-98543996D01*
X111430000Y-98517638D01*
X111430000Y-98312482D01*
X111449685Y-98245443D01*
X111502489Y-98199688D01*
X111529801Y-98190866D01*
X111690829Y-98158837D01*
X111853563Y-98091430D01*
X112000019Y-97993571D01*
X112124571Y-97869019D01*
X112222430Y-97722563D01*
X112243966Y-97670571D01*
X112287806Y-97616167D01*
X112354100Y-97594102D01*
X112405979Y-97603462D01*
G37*
G04 #@! TD.AperFunction*
G04 #@! TA.AperFunction,Conductor*
G36*
X105640124Y-96020185D02*
G01*
X105685879Y-96072989D01*
X105695823Y-96142147D01*
X105666798Y-96205703D01*
X105660766Y-96212181D01*
X105219427Y-96653518D01*
X105219424Y-96653521D01*
X105169004Y-96728982D01*
X105148235Y-96760065D01*
X105099199Y-96878448D01*
X105099197Y-96878454D01*
X105074200Y-97004121D01*
X105074200Y-97734386D01*
X105066539Y-97760473D01*
X105062327Y-97787334D01*
X105056840Y-97793504D01*
X105054515Y-97801425D01*
X105033970Y-97819226D01*
X105015901Y-97839550D01*
X105007948Y-97841775D01*
X105001711Y-97847180D01*
X104974802Y-97851049D01*
X104948616Y-97858376D01*
X104938421Y-97856280D01*
X104932553Y-97857124D01*
X104913748Y-97852907D01*
X104908152Y-97851185D01*
X104833497Y-97820263D01*
X104760210Y-97805685D01*
X104754159Y-97803824D01*
X104730077Y-97787909D01*
X104704509Y-97774535D01*
X104702982Y-97773036D01*
X104674669Y-97744723D01*
X104568127Y-97673535D01*
X104560971Y-97670571D01*
X104449744Y-97624499D01*
X104449738Y-97624497D01*
X104324071Y-97599500D01*
X104324069Y-97599500D01*
X104060722Y-97599500D01*
X103993683Y-97579815D01*
X103947928Y-97527011D01*
X103937783Y-97459314D01*
X103950499Y-97362727D01*
X103950500Y-97362720D01*
X103950500Y-97137280D01*
X103935687Y-97024764D01*
X103877698Y-96884767D01*
X103844265Y-96841196D01*
X103838603Y-96833817D01*
X103813407Y-96768649D01*
X103827444Y-96700204D01*
X103849290Y-96670654D01*
X103883629Y-96636315D01*
X103940446Y-96605292D01*
X103958521Y-96584680D01*
X103960906Y-96569381D01*
X103985397Y-96534548D01*
X104205277Y-96314669D01*
X104276465Y-96208127D01*
X104294214Y-96165277D01*
X104304159Y-96141265D01*
X104308790Y-96134334D01*
X104309888Y-96129291D01*
X104331035Y-96101041D01*
X104395261Y-96036817D01*
X104456585Y-96003333D01*
X104482941Y-96000500D01*
X105573085Y-96000500D01*
X105640124Y-96020185D01*
G37*
G04 #@! TD.AperFunction*
G04 #@! TA.AperFunction,Conductor*
G36*
X102146368Y-86552736D02*
G01*
X102154204Y-86551467D01*
X102179413Y-86562440D01*
X102205790Y-86570185D01*
X102212619Y-86576893D01*
X102218268Y-86579352D01*
X102241853Y-86605609D01*
X102275885Y-86656541D01*
X102275888Y-86656545D01*
X102443181Y-86823837D01*
X102476666Y-86885160D01*
X102479500Y-86911518D01*
X102479500Y-92826402D01*
X102470000Y-92858755D01*
X102470000Y-93201645D01*
X102452734Y-93264763D01*
X102447507Y-93273600D01*
X102447504Y-93273608D01*
X102402357Y-93429002D01*
X102402356Y-93429008D01*
X102399500Y-93465302D01*
X102399500Y-93934697D01*
X102402356Y-93970991D01*
X102402357Y-93970997D01*
X102447504Y-94126390D01*
X102447504Y-94126392D01*
X102447506Y-94126395D01*
X102452730Y-94135229D01*
X102470000Y-94198352D01*
X102470000Y-94528089D01*
X102471741Y-94530422D01*
X102479500Y-94573596D01*
X102479500Y-94675500D01*
X102459815Y-94742539D01*
X102407011Y-94788294D01*
X102355500Y-94799500D01*
X101524500Y-94799500D01*
X101457461Y-94779815D01*
X101411706Y-94727011D01*
X101400500Y-94675500D01*
X101400500Y-94394960D01*
X101420185Y-94327921D01*
X101472989Y-94282166D01*
X101542147Y-94272222D01*
X101605703Y-94301247D01*
X101612181Y-94307279D01*
X101684616Y-94379714D01*
X101684625Y-94379721D01*
X101823804Y-94462031D01*
X101970000Y-94504504D01*
X101970000Y-92895494D01*
X101969998Y-92895493D01*
X101823809Y-92937965D01*
X101823806Y-92937967D01*
X101684625Y-93020278D01*
X101684616Y-93020285D01*
X101570285Y-93134616D01*
X101570278Y-93134625D01*
X101491253Y-93268250D01*
X101440184Y-93315934D01*
X101371442Y-93328437D01*
X101306853Y-93301791D01*
X101286145Y-93280615D01*
X101280769Y-93273609D01*
X101235451Y-93214549D01*
X101115233Y-93122302D01*
X101115229Y-93122300D01*
X101030002Y-93086998D01*
X100975236Y-93064313D01*
X100959315Y-93062217D01*
X100862727Y-93049500D01*
X100862720Y-93049500D01*
X100637280Y-93049500D01*
X100637272Y-93049500D01*
X100550393Y-93060938D01*
X100524764Y-93064313D01*
X100524762Y-93064313D01*
X100516708Y-93065374D01*
X100516316Y-93062399D01*
X100483684Y-93062399D01*
X100483292Y-93065374D01*
X100475237Y-93064313D01*
X100475236Y-93064313D01*
X100446271Y-93060499D01*
X100362727Y-93049500D01*
X100362720Y-93049500D01*
X100137280Y-93049500D01*
X100137272Y-93049500D01*
X100050393Y-93060938D01*
X100024764Y-93064313D01*
X100024762Y-93064313D01*
X100016708Y-93065374D01*
X100016316Y-93062399D01*
X99983684Y-93062399D01*
X99983292Y-93065374D01*
X99975237Y-93064313D01*
X99975236Y-93064313D01*
X99946271Y-93060499D01*
X99862727Y-93049500D01*
X99862720Y-93049500D01*
X99637280Y-93049500D01*
X99637272Y-93049500D01*
X99554062Y-93060455D01*
X99540685Y-93062216D01*
X99471650Y-93051452D01*
X99419394Y-93005072D01*
X99400500Y-92939278D01*
X99400500Y-92345806D01*
X99420185Y-92278767D01*
X99436815Y-92258129D01*
X100008126Y-91686817D01*
X100069449Y-91653333D01*
X100095807Y-91650499D01*
X100272871Y-91650499D01*
X100272872Y-91650499D01*
X100332483Y-91644091D01*
X100467331Y-91593796D01*
X100582546Y-91507546D01*
X100668796Y-91392331D01*
X100719091Y-91257483D01*
X100725500Y-91197873D01*
X100725500Y-91062729D01*
X100745185Y-90995690D01*
X100797989Y-90949935D01*
X100867147Y-90939991D01*
X100912618Y-90955996D01*
X100923605Y-90962494D01*
X100923608Y-90962494D01*
X100923610Y-90962496D01*
X101079002Y-91007642D01*
X101079005Y-91007642D01*
X101079007Y-91007643D01*
X101115310Y-91010500D01*
X101115318Y-91010500D01*
X101584682Y-91010500D01*
X101584690Y-91010500D01*
X101620993Y-91007643D01*
X101620995Y-91007642D01*
X101620997Y-91007642D01*
X101662135Y-90995690D01*
X101776395Y-90962494D01*
X101915687Y-90880117D01*
X102030117Y-90765687D01*
X102112494Y-90626395D01*
X102152834Y-90487546D01*
X102157642Y-90470997D01*
X102157643Y-90470991D01*
X102160499Y-90434697D01*
X102160500Y-90434690D01*
X102160500Y-90025310D01*
X102157643Y-89989007D01*
X102146928Y-89952127D01*
X102112495Y-89833609D01*
X102112494Y-89833605D01*
X102100089Y-89812630D01*
X102082906Y-89744909D01*
X102100091Y-89686384D01*
X102112032Y-89666194D01*
X102154504Y-89520000D01*
X101848352Y-89520000D01*
X101785233Y-89502732D01*
X101776395Y-89497506D01*
X101776393Y-89497505D01*
X101776389Y-89497503D01*
X101620997Y-89452357D01*
X101620991Y-89452356D01*
X101584697Y-89449500D01*
X101584690Y-89449500D01*
X101474000Y-89449500D01*
X101406961Y-89429815D01*
X101361206Y-89377011D01*
X101350000Y-89325500D01*
X101350000Y-89270000D01*
X101224000Y-89270000D01*
X101156961Y-89250315D01*
X101111206Y-89197511D01*
X101100000Y-89146000D01*
X101100000Y-89020000D01*
X101600000Y-89020000D01*
X102154504Y-89020000D01*
X102112031Y-88873804D01*
X102029721Y-88734625D01*
X102029714Y-88734616D01*
X101915383Y-88620285D01*
X101915374Y-88620278D01*
X101776195Y-88537968D01*
X101776190Y-88537966D01*
X101620918Y-88492855D01*
X101620912Y-88492854D01*
X101600000Y-88491209D01*
X101600000Y-89020000D01*
X101100000Y-89020000D01*
X101100000Y-88491210D01*
X101099999Y-88491209D01*
X101079087Y-88492854D01*
X101079081Y-88492855D01*
X100923809Y-88537966D01*
X100923803Y-88537968D01*
X100912121Y-88544878D01*
X100844397Y-88562061D01*
X100778134Y-88539901D01*
X100734371Y-88485434D01*
X100725000Y-88438146D01*
X100725000Y-88202172D01*
X100724999Y-88202155D01*
X100718598Y-88142627D01*
X100718596Y-88142620D01*
X100668354Y-88007913D01*
X100668350Y-88007906D01*
X100582190Y-87892812D01*
X100582187Y-87892809D01*
X100467093Y-87806649D01*
X100467086Y-87806645D01*
X100332379Y-87756403D01*
X100332372Y-87756401D01*
X100272844Y-87750000D01*
X99975000Y-87750000D01*
X99975000Y-88701000D01*
X99955315Y-88768039D01*
X99902511Y-88813794D01*
X99851000Y-88825000D01*
X99599000Y-88825000D01*
X99531961Y-88805315D01*
X99486206Y-88752511D01*
X99475000Y-88701000D01*
X99475000Y-87750000D01*
X99177155Y-87750000D01*
X99117627Y-87756401D01*
X99117623Y-87756402D01*
X99069046Y-87774520D01*
X98999354Y-87779503D01*
X98982382Y-87774519D01*
X98932485Y-87755909D01*
X98932483Y-87755908D01*
X98872883Y-87749501D01*
X98872881Y-87749500D01*
X98872873Y-87749500D01*
X98872865Y-87749500D01*
X97865844Y-87749500D01*
X97840787Y-87742142D01*
X97814916Y-87738559D01*
X97807798Y-87732455D01*
X97798805Y-87729815D01*
X97781704Y-87710080D01*
X97761876Y-87693077D01*
X97759188Y-87684094D01*
X97753050Y-87677011D01*
X97749333Y-87651160D01*
X97741846Y-87626140D01*
X97744090Y-87614700D01*
X97743106Y-87607853D01*
X97746688Y-87591180D01*
X97748614Y-87584492D01*
X97769737Y-87533497D01*
X97784098Y-87461295D01*
X97785540Y-87456290D01*
X97801589Y-87431031D01*
X97815463Y-87404509D01*
X97816959Y-87402985D01*
X98393916Y-86826028D01*
X98455237Y-86792545D01*
X98524929Y-86797529D01*
X98580862Y-86839401D01*
X98604885Y-86900458D01*
X98605908Y-86909983D01*
X98656202Y-87044828D01*
X98656206Y-87044835D01*
X98742452Y-87160044D01*
X98742455Y-87160047D01*
X98857664Y-87246293D01*
X98857671Y-87246297D01*
X98902618Y-87263061D01*
X98992517Y-87296591D01*
X99052127Y-87303000D01*
X99447872Y-87302999D01*
X99447873Y-87302998D01*
X99447885Y-87302998D01*
X99486744Y-87298820D01*
X99513252Y-87298820D01*
X99552127Y-87303000D01*
X99947872Y-87302999D01*
X99947873Y-87302998D01*
X99947885Y-87302998D01*
X99986744Y-87298820D01*
X100013252Y-87298820D01*
X100052127Y-87303000D01*
X100447872Y-87302999D01*
X100447873Y-87302998D01*
X100447885Y-87302998D01*
X100486744Y-87298820D01*
X100513252Y-87298820D01*
X100552127Y-87303000D01*
X100947872Y-87302999D01*
X101007483Y-87296591D01*
X101142331Y-87246296D01*
X101257546Y-87160046D01*
X101343796Y-87044831D01*
X101394091Y-86909983D01*
X101400500Y-86850373D01*
X101400499Y-86674499D01*
X101420183Y-86607461D01*
X101472987Y-86561706D01*
X101524499Y-86550500D01*
X102138751Y-86550500D01*
X102146368Y-86552736D01*
G37*
G04 #@! TD.AperFunction*
G04 #@! TA.AperFunction,Conductor*
G36*
X91447693Y-90410553D02*
G01*
X91492463Y-90464195D01*
X91501125Y-90533525D01*
X91484274Y-90578706D01*
X91460956Y-90616509D01*
X91460952Y-90616518D01*
X91407644Y-90777393D01*
X91397500Y-90876677D01*
X91397500Y-90900000D01*
X92248500Y-90900000D01*
X92315539Y-90919685D01*
X92361294Y-90972489D01*
X92372500Y-91024000D01*
X92372500Y-91150000D01*
X92498500Y-91150000D01*
X92565539Y-91169685D01*
X92611294Y-91222489D01*
X92622500Y-91274000D01*
X92622500Y-92099999D01*
X92670808Y-92099999D01*
X92670822Y-92099998D01*
X92770107Y-92089855D01*
X92930981Y-92036547D01*
X92930988Y-92036544D01*
X92998953Y-91994622D01*
X93066345Y-91976181D01*
X93133009Y-91997103D01*
X93177779Y-92050744D01*
X93178612Y-92052707D01*
X93186033Y-92070624D01*
X93186034Y-92070626D01*
X93186035Y-92070627D01*
X93205660Y-92099999D01*
X93257226Y-92177173D01*
X93257227Y-92177174D01*
X93917873Y-92837819D01*
X93951358Y-92899142D01*
X93946374Y-92968833D01*
X93904503Y-93024767D01*
X93839038Y-93049184D01*
X93830192Y-93049500D01*
X93637272Y-93049500D01*
X93550393Y-93060938D01*
X93524764Y-93064313D01*
X93524762Y-93064313D01*
X93516708Y-93065374D01*
X93516316Y-93062399D01*
X93483684Y-93062399D01*
X93483292Y-93065374D01*
X93475237Y-93064313D01*
X93475236Y-93064313D01*
X93446271Y-93060499D01*
X93362727Y-93049500D01*
X93362720Y-93049500D01*
X93137280Y-93049500D01*
X93137272Y-93049500D01*
X93024764Y-93064313D01*
X93024763Y-93064313D01*
X92884770Y-93122300D01*
X92884767Y-93122301D01*
X92884767Y-93122302D01*
X92764549Y-93214549D01*
X92719231Y-93273609D01*
X92672300Y-93334770D01*
X92614313Y-93474763D01*
X92614313Y-93474764D01*
X92599500Y-93587272D01*
X92599500Y-94295560D01*
X92579815Y-94362599D01*
X92527011Y-94408354D01*
X92457853Y-94418298D01*
X92394297Y-94389273D01*
X92387819Y-94383241D01*
X91217221Y-93212643D01*
X91183736Y-93151320D01*
X91188720Y-93081628D01*
X91230592Y-93025695D01*
X91239807Y-93019422D01*
X91275233Y-92997571D01*
X91395072Y-92877732D01*
X91395075Y-92877728D01*
X91484042Y-92733492D01*
X91484047Y-92733481D01*
X91537355Y-92572606D01*
X91547499Y-92473322D01*
X91547500Y-92473309D01*
X91547500Y-92425000D01*
X90721500Y-92425000D01*
X90654461Y-92405315D01*
X90608706Y-92352511D01*
X90597500Y-92301000D01*
X90597500Y-92175000D01*
X90471500Y-92175000D01*
X90404461Y-92155315D01*
X90358706Y-92102511D01*
X90347500Y-92051000D01*
X90347500Y-91925000D01*
X90847500Y-91925000D01*
X91598006Y-91925000D01*
X91663104Y-91943462D01*
X91814011Y-92036544D01*
X91814018Y-92036547D01*
X91974893Y-92089855D01*
X92074183Y-92099999D01*
X92122499Y-92099998D01*
X92122500Y-92099998D01*
X92122500Y-91400000D01*
X91369512Y-91400000D01*
X91302473Y-91380315D01*
X91277692Y-91353944D01*
X91130986Y-91263454D01*
X91130981Y-91263452D01*
X90970106Y-91210144D01*
X90870822Y-91200000D01*
X90847500Y-91200000D01*
X90847500Y-91925000D01*
X90347500Y-91925000D01*
X90347500Y-91199999D01*
X90324193Y-91200000D01*
X90324174Y-91200001D01*
X90224892Y-91210144D01*
X90064018Y-91263452D01*
X90064009Y-91263456D01*
X90024596Y-91287767D01*
X89957204Y-91306207D01*
X89890540Y-91285284D01*
X89845771Y-91231642D01*
X89835500Y-91182228D01*
X89835500Y-90524858D01*
X89855185Y-90457819D01*
X89907989Y-90412064D01*
X89977147Y-90402120D01*
X90024597Y-90419320D01*
X90135204Y-90487544D01*
X90135207Y-90487545D01*
X90135213Y-90487549D01*
X90294815Y-90540436D01*
X90393326Y-90550500D01*
X90393331Y-90550500D01*
X90926669Y-90550500D01*
X90926674Y-90550500D01*
X91025185Y-90540436D01*
X91184787Y-90487549D01*
X91313639Y-90408071D01*
X91381030Y-90389631D01*
X91447693Y-90410553D01*
G37*
G04 #@! TD.AperFunction*
G04 #@! TA.AperFunction,Conductor*
G36*
X97184107Y-88081809D02*
G01*
X97186208Y-88081152D01*
X97190782Y-88082407D01*
X97245901Y-88087339D01*
X97301078Y-88130203D01*
X97324322Y-88196093D01*
X97324500Y-88202729D01*
X97324500Y-88854191D01*
X97304815Y-88921230D01*
X97288181Y-88941872D01*
X96869722Y-89360331D01*
X96869718Y-89360336D01*
X96836365Y-89410255D01*
X96836365Y-89410256D01*
X96798534Y-89466874D01*
X96749499Y-89585255D01*
X96749497Y-89585261D01*
X96724500Y-89710928D01*
X96724500Y-90090500D01*
X96704815Y-90157539D01*
X96652011Y-90203294D01*
X96600500Y-90214500D01*
X96475302Y-90214500D01*
X96439008Y-90217356D01*
X96439002Y-90217357D01*
X96283609Y-90262504D01*
X96283604Y-90262506D01*
X96262628Y-90274911D01*
X96194903Y-90292092D01*
X96136389Y-90274911D01*
X96116191Y-90262966D01*
X96116190Y-90262965D01*
X95970001Y-90220493D01*
X95970000Y-90220494D01*
X95970000Y-90526645D01*
X95952734Y-90589763D01*
X95947507Y-90598600D01*
X95947504Y-90598608D01*
X95902357Y-90754002D01*
X95902356Y-90754008D01*
X95899500Y-90790302D01*
X95899500Y-91259697D01*
X95902356Y-91295991D01*
X95902357Y-91295997D01*
X95947503Y-91451389D01*
X95947505Y-91451393D01*
X95947506Y-91451395D01*
X95952732Y-91460233D01*
X95970000Y-91523352D01*
X95970000Y-92001645D01*
X95952734Y-92064763D01*
X95947507Y-92073600D01*
X95947504Y-92073608D01*
X95902357Y-92229002D01*
X95902356Y-92229008D01*
X95899500Y-92265302D01*
X95899500Y-92376000D01*
X95896949Y-92384685D01*
X95898238Y-92393647D01*
X95887259Y-92417687D01*
X95879815Y-92443039D01*
X95872974Y-92448966D01*
X95869213Y-92457203D01*
X95846978Y-92471492D01*
X95827011Y-92488794D01*
X95816496Y-92491081D01*
X95810435Y-92494977D01*
X95775500Y-92500000D01*
X95594000Y-92500000D01*
X95526961Y-92480315D01*
X95481206Y-92427511D01*
X95470000Y-92376000D01*
X95470000Y-91275000D01*
X94931362Y-91275000D01*
X94864323Y-91255315D01*
X94843681Y-91238681D01*
X94810000Y-91205000D01*
X94546500Y-91205000D01*
X94537814Y-91202449D01*
X94528853Y-91203738D01*
X94504812Y-91192759D01*
X94479461Y-91185315D01*
X94473533Y-91178474D01*
X94465297Y-91174713D01*
X94451007Y-91152478D01*
X94433706Y-91132511D01*
X94431418Y-91121996D01*
X94427523Y-91115935D01*
X94422500Y-91081000D01*
X94422500Y-90899500D01*
X94442185Y-90832461D01*
X94494989Y-90786706D01*
X94546500Y-90775500D01*
X94657182Y-90775500D01*
X94657190Y-90775500D01*
X94693493Y-90772643D01*
X94693495Y-90772642D01*
X94693497Y-90772642D01*
X94848889Y-90727496D01*
X94848889Y-90727495D01*
X94848895Y-90727494D01*
X94857733Y-90722267D01*
X94920852Y-90705000D01*
X95241138Y-90705000D01*
X95308177Y-90724685D01*
X95328819Y-90741319D01*
X95362500Y-90775000D01*
X95470000Y-90775000D01*
X95470000Y-90220494D01*
X95469998Y-90220493D01*
X95391595Y-90243272D01*
X95321726Y-90243073D01*
X95263056Y-90205131D01*
X95234212Y-90141493D01*
X95233000Y-90124196D01*
X95233000Y-89790317D01*
X95232999Y-89790302D01*
X95230143Y-89754008D01*
X95230142Y-89754002D01*
X95184995Y-89598609D01*
X95184994Y-89598606D01*
X95184994Y-89598605D01*
X95102617Y-89459313D01*
X95102615Y-89459311D01*
X95102612Y-89459307D01*
X94988192Y-89344887D01*
X94988184Y-89344881D01*
X94862950Y-89270818D01*
X94848895Y-89262506D01*
X94848894Y-89262505D01*
X94848893Y-89262505D01*
X94848892Y-89262504D01*
X94742010Y-89231452D01*
X94688925Y-89200057D01*
X94505921Y-89017052D01*
X94505914Y-89017046D01*
X94432229Y-88967812D01*
X94432229Y-88967813D01*
X94382991Y-88934913D01*
X94246417Y-88878343D01*
X94246407Y-88878340D01*
X94101420Y-88849500D01*
X94101418Y-88849500D01*
X93174374Y-88849500D01*
X93107335Y-88829815D01*
X93086693Y-88813181D01*
X93075544Y-88802032D01*
X93075540Y-88802029D01*
X92931205Y-88713001D01*
X92931199Y-88712998D01*
X92931197Y-88712997D01*
X92882194Y-88696759D01*
X92770209Y-88659651D01*
X92670846Y-88649500D01*
X92074162Y-88649500D01*
X92074144Y-88649501D01*
X91974792Y-88659650D01*
X91974789Y-88659651D01*
X91813805Y-88712996D01*
X91813794Y-88713001D01*
X91663309Y-88805823D01*
X91661631Y-88803103D01*
X91652831Y-88806652D01*
X91632875Y-88819477D01*
X91614458Y-88822124D01*
X91610034Y-88823909D01*
X91597940Y-88824500D01*
X91453034Y-88824500D01*
X91385995Y-88804815D01*
X91365353Y-88788181D01*
X91327891Y-88750719D01*
X91327887Y-88750716D01*
X91240410Y-88696759D01*
X91193685Y-88644811D01*
X91182464Y-88575848D01*
X91210307Y-88511767D01*
X91217811Y-88503555D01*
X91334550Y-88386818D01*
X91395873Y-88353334D01*
X91422230Y-88350500D01*
X93508481Y-88350500D01*
X93575520Y-88370185D01*
X93596163Y-88386820D01*
X93639811Y-88430468D01*
X93639811Y-88430469D01*
X93639813Y-88430470D01*
X93639815Y-88430472D01*
X93785394Y-88518478D01*
X93947804Y-88569086D01*
X94018384Y-88575500D01*
X94018387Y-88575500D01*
X94531613Y-88575500D01*
X94531616Y-88575500D01*
X94602196Y-88569086D01*
X94764606Y-88518478D01*
X94910185Y-88430472D01*
X94953839Y-88386818D01*
X95012319Y-88328339D01*
X95073642Y-88294854D01*
X95143334Y-88299838D01*
X95187681Y-88328339D01*
X95289811Y-88430469D01*
X95289813Y-88430470D01*
X95289815Y-88430472D01*
X95435394Y-88518478D01*
X95597804Y-88569086D01*
X95668384Y-88575500D01*
X95668387Y-88575500D01*
X96181613Y-88575500D01*
X96181616Y-88575500D01*
X96252196Y-88569086D01*
X96414606Y-88518478D01*
X96560185Y-88430472D01*
X96680472Y-88310185D01*
X96681764Y-88308046D01*
X96683118Y-88306806D01*
X96685094Y-88304285D01*
X96685513Y-88304613D01*
X96733285Y-88260859D01*
X96763692Y-88250575D01*
X96764069Y-88250500D01*
X96889744Y-88225501D01*
X97008127Y-88176465D01*
X97011066Y-88174501D01*
X97114669Y-88105277D01*
X97114669Y-88105276D01*
X97119530Y-88102029D01*
X97164228Y-88083515D01*
X97176309Y-88081112D01*
X97184107Y-88081809D01*
G37*
G04 #@! TD.AperFunction*
G04 #@! TA.AperFunction,NonConductor*
G36*
X95143334Y-83870548D02*
G01*
X95187681Y-83899049D01*
X95281344Y-83992712D01*
X95430666Y-84084814D01*
X95597203Y-84139999D01*
X95699991Y-84150500D01*
X96241691Y-84150499D01*
X96308730Y-84170183D01*
X96329372Y-84186818D01*
X96364195Y-84221641D01*
X96397680Y-84282964D01*
X96392696Y-84352656D01*
X96350824Y-84408589D01*
X96285360Y-84433006D01*
X96258745Y-84431341D01*
X96258730Y-84431508D01*
X96252816Y-84430970D01*
X96252327Y-84430940D01*
X96252198Y-84430914D01*
X96223964Y-84428348D01*
X96181616Y-84424500D01*
X95668384Y-84424500D01*
X95649145Y-84426248D01*
X95597807Y-84430913D01*
X95435393Y-84481522D01*
X95289813Y-84569529D01*
X95187680Y-84671662D01*
X95179732Y-84676001D01*
X95174308Y-84683248D01*
X95149551Y-84692481D01*
X95126357Y-84705146D01*
X95117326Y-84704500D01*
X95108843Y-84707664D01*
X95083024Y-84702047D01*
X95056665Y-84700162D01*
X95047609Y-84694342D01*
X95040571Y-84692811D01*
X95012317Y-84671660D01*
X94974318Y-84633660D01*
X94940833Y-84572337D01*
X94938000Y-84545980D01*
X94938000Y-84024730D01*
X94957685Y-83957691D01*
X94974319Y-83937049D01*
X95012319Y-83899049D01*
X95073642Y-83865564D01*
X95143334Y-83870548D01*
G37*
G04 #@! TD.AperFunction*
G04 #@! TA.AperFunction,NonConductor*
G36*
X100052127Y-84978000D02*
G01*
X100136046Y-84977999D01*
X100203083Y-84997683D01*
X100248839Y-85050486D01*
X100259867Y-85095360D01*
X100259999Y-85097822D01*
X100264183Y-85136748D01*
X100264183Y-85163252D01*
X100260000Y-85202164D01*
X100260000Y-85250000D01*
X100261373Y-85250000D01*
X100274296Y-85253794D01*
X100287733Y-85252834D01*
X100307169Y-85263447D01*
X100328412Y-85269685D01*
X100337231Y-85279863D01*
X100349056Y-85286320D01*
X100359669Y-85305758D01*
X100374167Y-85322489D01*
X100376083Y-85335819D01*
X100382540Y-85347644D01*
X100380959Y-85369731D01*
X100384111Y-85391647D01*
X100378406Y-85405418D01*
X100377554Y-85417335D01*
X100360639Y-85448312D01*
X100321711Y-85500312D01*
X100273894Y-85536105D01*
X100260000Y-85550000D01*
X100260000Y-85597832D01*
X100263931Y-85634399D01*
X100264010Y-85660144D01*
X100263948Y-85660754D01*
X100259500Y-85702127D01*
X100259500Y-85704684D01*
X100258912Y-85710492D01*
X100246807Y-85740234D01*
X100236123Y-85770523D01*
X100233720Y-85772389D01*
X100232574Y-85775207D01*
X100206310Y-85793683D01*
X100180948Y-85813388D01*
X100177326Y-85814074D01*
X100175429Y-85815410D01*
X100168829Y-85815686D01*
X100135544Y-85822000D01*
X100052132Y-85822000D01*
X100052118Y-85822001D01*
X100013253Y-85826179D01*
X99986748Y-85826179D01*
X99947875Y-85822000D01*
X99947873Y-85822000D01*
X99864456Y-85822000D01*
X99861857Y-85821237D01*
X99859229Y-85821890D01*
X99828518Y-85811447D01*
X99797417Y-85802315D01*
X99795644Y-85800269D01*
X99793079Y-85799397D01*
X99772882Y-85774000D01*
X99751662Y-85749511D01*
X99750760Y-85746182D01*
X99749590Y-85744711D01*
X99745951Y-85728428D01*
X99741083Y-85710457D01*
X99740499Y-85704673D01*
X99740499Y-85702128D01*
X99736269Y-85662781D01*
X99736236Y-85662454D01*
X99736320Y-85662005D01*
X99736320Y-85636747D01*
X99740500Y-85597873D01*
X99740499Y-85202128D01*
X99740498Y-85202111D01*
X99736320Y-85163253D01*
X99736237Y-85137536D01*
X99736264Y-85137260D01*
X99740500Y-85097873D01*
X99740499Y-85095330D01*
X99741085Y-85089538D01*
X99753188Y-85059776D01*
X99763887Y-85029462D01*
X99766270Y-85027610D01*
X99767407Y-85024816D01*
X99793687Y-85006317D01*
X99819069Y-84986604D01*
X99822659Y-84985923D01*
X99824541Y-84984599D01*
X99831103Y-84984322D01*
X99864457Y-84977999D01*
X99947872Y-84977999D01*
X99947885Y-84977998D01*
X99986744Y-84973820D01*
X100013252Y-84973820D01*
X100052127Y-84978000D01*
G37*
G04 #@! TD.AperFunction*
G04 #@! TA.AperFunction,NonConductor*
G36*
X95230703Y-86171807D02*
G01*
X95237181Y-86177839D01*
X95289811Y-86230469D01*
X95289813Y-86230470D01*
X95289815Y-86230472D01*
X95435394Y-86318478D01*
X95597804Y-86369086D01*
X95668384Y-86375500D01*
X95668387Y-86375500D01*
X96097071Y-86375500D01*
X96127523Y-86384441D01*
X96158422Y-86391741D01*
X96160810Y-86394216D01*
X96164110Y-86395185D01*
X96184890Y-86419166D01*
X96206942Y-86442016D01*
X96208489Y-86446401D01*
X96209865Y-86447989D01*
X96218686Y-86475299D01*
X96218885Y-86476299D01*
X96212664Y-86545891D01*
X96169805Y-86601072D01*
X96103917Y-86624322D01*
X96097270Y-86624500D01*
X95668384Y-86624500D01*
X95649145Y-86626248D01*
X95597807Y-86630913D01*
X95435393Y-86681522D01*
X95289811Y-86769530D01*
X95289810Y-86769531D01*
X95237181Y-86822161D01*
X95175858Y-86855646D01*
X95106166Y-86850662D01*
X95050233Y-86808790D01*
X95025816Y-86743326D01*
X95025500Y-86734480D01*
X95025500Y-86265520D01*
X95045185Y-86198481D01*
X95097989Y-86152726D01*
X95167147Y-86142782D01*
X95230703Y-86171807D01*
G37*
G04 #@! TD.AperFunction*
G04 #@! TA.AperFunction,NonConductor*
G36*
X90330203Y-94590227D02*
G01*
X90336681Y-94596259D01*
X90499816Y-94759394D01*
X90533301Y-94820717D01*
X90528317Y-94890409D01*
X90486445Y-94946342D01*
X90436327Y-94968692D01*
X90407141Y-94974497D01*
X90407135Y-94974499D01*
X90288755Y-95023533D01*
X90264376Y-95039823D01*
X90197698Y-95060699D01*
X90130318Y-95042213D01*
X90083629Y-94990233D01*
X90072454Y-94921263D01*
X90077781Y-94897715D01*
X90114576Y-94786674D01*
X90124999Y-94684653D01*
X90125000Y-94684640D01*
X90125000Y-94683940D01*
X90125043Y-94683793D01*
X90125160Y-94681498D01*
X90125320Y-94681506D01*
X90125321Y-94681505D01*
X90125344Y-94681507D01*
X90125708Y-94681525D01*
X90144685Y-94616901D01*
X90197489Y-94571146D01*
X90266647Y-94561202D01*
X90330203Y-94590227D01*
G37*
G04 #@! TD.AperFunction*
G04 #@! TA.AperFunction,NonConductor*
G36*
X112184099Y-96020185D02*
G01*
X112204741Y-96036819D01*
X112286811Y-96118889D01*
X112320296Y-96180212D01*
X112315312Y-96249904D01*
X112273440Y-96305837D01*
X112268021Y-96309672D01*
X112224580Y-96338698D01*
X112224576Y-96338701D01*
X112120701Y-96442576D01*
X112120696Y-96442582D01*
X112077574Y-96507118D01*
X112023961Y-96551923D01*
X111954636Y-96560629D01*
X111905583Y-96541328D01*
X111853563Y-96506570D01*
X111853560Y-96506568D01*
X111690829Y-96439163D01*
X111690821Y-96439161D01*
X111518075Y-96404800D01*
X111518071Y-96404800D01*
X111507108Y-96404800D01*
X111477667Y-96396155D01*
X111447681Y-96389632D01*
X111442665Y-96385877D01*
X111440069Y-96385115D01*
X111419427Y-96368481D01*
X111263127Y-96212181D01*
X111229642Y-96150858D01*
X111234626Y-96081166D01*
X111276498Y-96025233D01*
X111341962Y-96000816D01*
X111350808Y-96000500D01*
X112117060Y-96000500D01*
X112184099Y-96020185D01*
G37*
G04 #@! TD.AperFunction*
G04 #@! TA.AperFunction,NonConductor*
G36*
X89971621Y-100275837D02*
G01*
X90027554Y-100317709D01*
X90051226Y-100375833D01*
X90065374Y-100483292D01*
X90062399Y-100483683D01*
X90062399Y-100516316D01*
X90065374Y-100516708D01*
X90064313Y-100524762D01*
X90064313Y-100524764D01*
X90060938Y-100550393D01*
X90049500Y-100637272D01*
X90049500Y-100756712D01*
X90029815Y-100823751D01*
X89977011Y-100869506D01*
X89907853Y-100879450D01*
X89889507Y-100875373D01*
X89886625Y-100874498D01*
X89760951Y-100849500D01*
X89760949Y-100849500D01*
X89624500Y-100849500D01*
X89615814Y-100846949D01*
X89606853Y-100848238D01*
X89582812Y-100837259D01*
X89557461Y-100829815D01*
X89551533Y-100822974D01*
X89543297Y-100819213D01*
X89529007Y-100796978D01*
X89511706Y-100777011D01*
X89509418Y-100766496D01*
X89505523Y-100760435D01*
X89500500Y-100725500D01*
X89500500Y-100695806D01*
X89520185Y-100628767D01*
X89536815Y-100608129D01*
X89840606Y-100304337D01*
X89901929Y-100270853D01*
X89971621Y-100275837D01*
G37*
G04 #@! TD.AperFunction*
G04 #@! TA.AperFunction,NonConductor*
G36*
X107898054Y-98642937D02*
G01*
X107912534Y-98641380D01*
X107931378Y-98650811D01*
X107951882Y-98655657D01*
X107961992Y-98666134D01*
X107975015Y-98672653D01*
X107985767Y-98690775D01*
X108000397Y-98705936D01*
X108008657Y-98729351D01*
X108010669Y-98732741D01*
X108012139Y-98739219D01*
X108030161Y-98829823D01*
X108030163Y-98829829D01*
X108080061Y-98950292D01*
X108089500Y-98997745D01*
X108089500Y-99068846D01*
X108120261Y-99223489D01*
X108120264Y-99223501D01*
X108180602Y-99369172D01*
X108180609Y-99369185D01*
X108268210Y-99500288D01*
X108268213Y-99500292D01*
X109237171Y-100469249D01*
X109270656Y-100530572D01*
X109265672Y-100600263D01*
X109223800Y-100656197D01*
X109158336Y-100680614D01*
X109130093Y-100679403D01*
X108941287Y-100649500D01*
X108728713Y-100649500D01*
X108686430Y-100656197D01*
X108518760Y-100682753D01*
X108316585Y-100748444D01*
X108127179Y-100844951D01*
X107955213Y-100969890D01*
X107804890Y-101120213D01*
X107679951Y-101292180D01*
X107609685Y-101430084D01*
X107561710Y-101480880D01*
X107493889Y-101497675D01*
X107427754Y-101475137D01*
X107384303Y-101420422D01*
X107375200Y-101373789D01*
X107375200Y-98796812D01*
X107394885Y-98729773D01*
X107447689Y-98684018D01*
X107516847Y-98674074D01*
X107523391Y-98675195D01*
X107546540Y-98679799D01*
X107546544Y-98679800D01*
X107546545Y-98679800D01*
X107693456Y-98679800D01*
X107693457Y-98679799D01*
X107837542Y-98651140D01*
X107843065Y-98648851D01*
X107864015Y-98646598D01*
X107883885Y-98639589D01*
X107898054Y-98642937D01*
G37*
G04 #@! TD.AperFunction*
G04 #@! TA.AperFunction,NonConductor*
G36*
X105493534Y-100178926D02*
G01*
X105549467Y-100220798D01*
X105573884Y-100286262D01*
X105574200Y-100295108D01*
X105574200Y-100847385D01*
X105554515Y-100914424D01*
X105537881Y-100935066D01*
X104162181Y-102310766D01*
X104146799Y-102319165D01*
X104134469Y-102331619D01*
X104116771Y-102335561D01*
X104100858Y-102344251D01*
X104083378Y-102343000D01*
X104066271Y-102346812D01*
X104049250Y-102340560D01*
X104031166Y-102339267D01*
X104017136Y-102328764D01*
X104000686Y-102322722D01*
X103989747Y-102308260D01*
X103975233Y-102297395D01*
X103969016Y-102280853D01*
X103958536Y-102266998D01*
X103953531Y-102239651D01*
X103950862Y-102232548D01*
X103950500Y-102227818D01*
X103950500Y-102137280D01*
X103935687Y-102024764D01*
X103934792Y-102022605D01*
X103933787Y-102009463D01*
X103937689Y-101991084D01*
X103937689Y-101983698D01*
X103934626Y-101983295D01*
X103942223Y-101925589D01*
X103950500Y-101862720D01*
X103950500Y-101637280D01*
X103935687Y-101524764D01*
X103935686Y-101524763D01*
X103935628Y-101524318D01*
X103946393Y-101455282D01*
X103992773Y-101403026D01*
X104034376Y-101386515D01*
X104053689Y-101382672D01*
X104089744Y-101375501D01*
X104208127Y-101326465D01*
X104314669Y-101255277D01*
X105362519Y-100207427D01*
X105423842Y-100173942D01*
X105493534Y-100178926D01*
G37*
G04 #@! TD.AperFunction*
G04 #@! TA.AperFunction,NonConductor*
G36*
X91968834Y-107178625D02*
G01*
X92024767Y-107220497D01*
X92049184Y-107285961D01*
X92049500Y-107294807D01*
X92049500Y-107879192D01*
X92029815Y-107946231D01*
X92013181Y-107966873D01*
X91816425Y-108163628D01*
X91755102Y-108197113D01*
X91738474Y-108199565D01*
X91702431Y-108202401D01*
X91702426Y-108202402D01*
X91544606Y-108248254D01*
X91544603Y-108248255D01*
X91403137Y-108331917D01*
X91403129Y-108331923D01*
X91281402Y-108453651D01*
X91279134Y-108451383D01*
X91234391Y-108483633D01*
X91164621Y-108487358D01*
X91103913Y-108452772D01*
X91071541Y-108390854D01*
X91069805Y-108354088D01*
X91075500Y-108298345D01*
X91075499Y-108020806D01*
X91095183Y-107953768D01*
X91111813Y-107933131D01*
X91837820Y-107207125D01*
X91899142Y-107173641D01*
X91968834Y-107178625D01*
G37*
G04 #@! TD.AperFunction*
G04 #@! TA.AperFunction,NonConductor*
G36*
X91111263Y-108667584D02*
G01*
X91150120Y-108725653D01*
X91155428Y-108772513D01*
X91154500Y-108784297D01*
X91154500Y-109804600D01*
X91134815Y-109871639D01*
X91082011Y-109917394D01*
X91012853Y-109927338D01*
X90949297Y-109898313D01*
X90942819Y-109892281D01*
X90237718Y-109187180D01*
X90204233Y-109125857D01*
X90209217Y-109056165D01*
X90251089Y-109000232D01*
X90316553Y-108975815D01*
X90325399Y-108975499D01*
X90398338Y-108975499D01*
X90398344Y-108975499D01*
X90398352Y-108975498D01*
X90398355Y-108975498D01*
X90477091Y-108967455D01*
X90497708Y-108965349D01*
X90658697Y-108912003D01*
X90803044Y-108822968D01*
X90922968Y-108703044D01*
X90926271Y-108697688D01*
X90978218Y-108650964D01*
X91047181Y-108639741D01*
X91111263Y-108667584D01*
G37*
G04 #@! TD.AperFunction*
G04 #@! TA.AperFunction,NonConductor*
G36*
X90826370Y-121062511D02*
G01*
X90845037Y-121071307D01*
X90996633Y-121158833D01*
X90996642Y-121158838D01*
X91076320Y-121187839D01*
X91132583Y-121229264D01*
X91157519Y-121294533D01*
X91143209Y-121362921D01*
X91121590Y-121392041D01*
X90617048Y-121896583D01*
X90598780Y-121923923D01*
X90580635Y-121951082D01*
X90580634Y-121951083D01*
X90534919Y-122019499D01*
X90534912Y-122019511D01*
X90478343Y-122156082D01*
X90478340Y-122156092D01*
X90449500Y-122301079D01*
X90449500Y-122537779D01*
X90429815Y-122604818D01*
X90398385Y-122638097D01*
X90320211Y-122694893D01*
X90320205Y-122694898D01*
X90169894Y-122845209D01*
X90169890Y-122845214D01*
X90050318Y-123009793D01*
X89994989Y-123052459D01*
X89925375Y-123058438D01*
X89863580Y-123025833D01*
X89849682Y-123009793D01*
X89730109Y-122845214D01*
X89730105Y-122845209D01*
X89579794Y-122694898D01*
X89579788Y-122694893D01*
X89501615Y-122638097D01*
X89498274Y-122633765D01*
X89493297Y-122631492D01*
X89477164Y-122606389D01*
X89458949Y-122582767D01*
X89457696Y-122576095D01*
X89455523Y-122572714D01*
X89450500Y-122537779D01*
X89450500Y-122387230D01*
X89470185Y-122320191D01*
X89486819Y-122299549D01*
X90042463Y-121743905D01*
X90695357Y-121091010D01*
X90756678Y-121057527D01*
X90826370Y-121062511D01*
G37*
G04 #@! TD.AperFunction*
G04 #@! TA.AperFunction,NonConductor*
G36*
X112116974Y-122718662D02*
G01*
X112143334Y-122720548D01*
X112152387Y-122726366D01*
X112159427Y-122727898D01*
X112187681Y-122749049D01*
X112200681Y-122762049D01*
X112234166Y-122823372D01*
X112237000Y-122849730D01*
X112237000Y-123596608D01*
X112217315Y-123663647D01*
X112200682Y-123684289D01*
X112105971Y-123779000D01*
X112105538Y-123779703D01*
X112105114Y-123780083D01*
X112101493Y-123784664D01*
X112100710Y-123784045D01*
X112053590Y-123826428D01*
X111984628Y-123837649D01*
X111920546Y-123809806D01*
X111898657Y-123784544D01*
X111898507Y-123784664D01*
X111895859Y-123781315D01*
X111894462Y-123779703D01*
X111894028Y-123779000D01*
X111894025Y-123778996D01*
X111771003Y-123655974D01*
X111770999Y-123655971D01*
X111622933Y-123564642D01*
X111622927Y-123564639D01*
X111622925Y-123564638D01*
X111603928Y-123558343D01*
X111457776Y-123509913D01*
X111355855Y-123499500D01*
X111355848Y-123499500D01*
X110904019Y-123499500D01*
X110836980Y-123479815D01*
X110816338Y-123463181D01*
X110500482Y-123147325D01*
X110466997Y-123086002D01*
X110471981Y-123016310D01*
X110513853Y-122960377D01*
X110579317Y-122935960D01*
X110627163Y-122941937D01*
X110772203Y-122989999D01*
X110874991Y-123000500D01*
X111500008Y-123000499D01*
X111500016Y-123000498D01*
X111500019Y-123000498D01*
X111556302Y-122994748D01*
X111602797Y-122989999D01*
X111769334Y-122934814D01*
X111918656Y-122842712D01*
X112012319Y-122749049D01*
X112020264Y-122744710D01*
X112025690Y-122737463D01*
X112050449Y-122728228D01*
X112073642Y-122715564D01*
X112082671Y-122716209D01*
X112091154Y-122713046D01*
X112116974Y-122718662D01*
G37*
G04 #@! TD.AperFunction*
M02*
