G04 #@! TF.GenerationSoftware,KiCad,Pcbnew,9.0.0*
G04 #@! TF.CreationDate,2025-04-03T01:17:14-07:00*
G04 #@! TF.ProjectId,SDM25_IMU_STM32,53444d32-355f-4494-9d55-5f53544d3332,rev?*
G04 #@! TF.SameCoordinates,Original*
G04 #@! TF.FileFunction,Legend,Top*
G04 #@! TF.FilePolarity,Positive*
%FSLAX46Y46*%
G04 Gerber Fmt 4.6, Leading zero omitted, Abs format (unit mm)*
G04 Created by KiCad (PCBNEW 9.0.0) date 2025-04-03 01:17:14*
%MOMM*%
%LPD*%
G01*
G04 APERTURE LIST*
G04 Aperture macros list*
%AMRoundRect*
0 Rectangle with rounded corners*
0 $1 Rounding radius*
0 $2 $3 $4 $5 $6 $7 $8 $9 X,Y pos of 4 corners*
0 Add a 4 corners polygon primitive as box body*
4,1,4,$2,$3,$4,$5,$6,$7,$8,$9,$2,$3,0*
0 Add four circle primitives for the rounded corners*
1,1,$1+$1,$2,$3*
1,1,$1+$1,$4,$5*
1,1,$1+$1,$6,$7*
1,1,$1+$1,$8,$9*
0 Add four rect primitives between the rounded corners*
20,1,$1+$1,$2,$3,$4,$5,0*
20,1,$1+$1,$4,$5,$6,$7,0*
20,1,$1+$1,$6,$7,$8,$9,0*
20,1,$1+$1,$8,$9,$2,$3,0*%
G04 Aperture macros list end*
%ADD10C,0.100000*%
%ADD11C,0.140000*%
%ADD12C,0.125000*%
%ADD13C,0.150000*%
%ADD14C,0.120000*%
%ADD15C,0.000000*%
%ADD16C,0.280494*%
%ADD17RoundRect,0.140000X0.140000X0.170000X-0.140000X0.170000X-0.140000X-0.170000X0.140000X-0.170000X0*%
%ADD18RoundRect,0.245000X-0.380000X0.245000X-0.380000X-0.245000X0.380000X-0.245000X0.380000X0.245000X0*%
%ADD19R,0.400000X1.350000*%
%ADD20O,1.200000X1.900000*%
%ADD21R,1.200000X1.900000*%
%ADD22C,1.450000*%
%ADD23R,1.500000X1.900000*%
%ADD24RoundRect,0.225000X0.225000X0.250000X-0.225000X0.250000X-0.225000X-0.250000X0.225000X-0.250000X0*%
%ADD25RoundRect,0.200000X0.200000X0.275000X-0.200000X0.275000X-0.200000X-0.275000X0.200000X-0.275000X0*%
%ADD26RoundRect,0.140000X-0.140000X-0.170000X0.140000X-0.170000X0.140000X0.170000X-0.140000X0.170000X0*%
%ADD27RoundRect,0.225000X0.250000X-0.225000X0.250000X0.225000X-0.250000X0.225000X-0.250000X-0.225000X0*%
%ADD28RoundRect,0.250000X0.475000X-0.250000X0.475000X0.250000X-0.475000X0.250000X-0.475000X-0.250000X0*%
%ADD29C,3.200000*%
%ADD30RoundRect,0.140000X0.170000X-0.140000X0.170000X0.140000X-0.170000X0.140000X-0.170000X-0.140000X0*%
%ADD31RoundRect,0.250000X-0.262500X-0.450000X0.262500X-0.450000X0.262500X0.450000X-0.262500X0.450000X0*%
%ADD32RoundRect,0.218750X0.218750X0.256250X-0.218750X0.256250X-0.218750X-0.256250X0.218750X-0.256250X0*%
%ADD33RoundRect,0.250000X-0.250000X-0.475000X0.250000X-0.475000X0.250000X0.475000X-0.250000X0.475000X0*%
%ADD34RoundRect,0.075000X-0.075000X0.700000X-0.075000X-0.700000X0.075000X-0.700000X0.075000X0.700000X0*%
%ADD35RoundRect,0.075000X-0.700000X0.075000X-0.700000X-0.075000X0.700000X-0.075000X0.700000X0.075000X0*%
%ADD36R,1.700000X1.700000*%
%ADD37O,1.700000X1.700000*%
%ADD38RoundRect,0.150000X-0.150000X0.825000X-0.150000X-0.825000X0.150000X-0.825000X0.150000X0.825000X0*%
%ADD39RoundRect,0.150000X0.150000X-0.512500X0.150000X0.512500X-0.150000X0.512500X-0.150000X-0.512500X0*%
%ADD40RoundRect,0.250000X0.600000X0.725000X-0.600000X0.725000X-0.600000X-0.725000X0.600000X-0.725000X0*%
%ADD41O,1.700000X1.950000*%
%ADD42R,1.000000X1.150000*%
%ADD43RoundRect,0.102000X0.150000X-0.240000X0.150000X0.240000X-0.150000X0.240000X-0.150000X-0.240000X0*%
%ADD44RoundRect,0.102000X0.240000X-0.150000X0.240000X0.150000X-0.240000X0.150000X-0.240000X-0.150000X0*%
%ADD45RoundRect,0.102000X-0.150000X0.240000X-0.150000X-0.240000X0.150000X-0.240000X0.150000X0.240000X0*%
%ADD46RoundRect,0.102000X-0.240000X0.150000X-0.240000X-0.150000X0.240000X-0.150000X0.240000X0.150000X0*%
%ADD47RoundRect,0.200000X-0.200000X-0.275000X0.200000X-0.275000X0.200000X0.275000X-0.200000X0.275000X0*%
%ADD48RoundRect,0.250000X0.262500X0.450000X-0.262500X0.450000X-0.262500X-0.450000X0.262500X-0.450000X0*%
%ADD49C,0.990600*%
%ADD50C,0.787400*%
%ADD51R,1.500000X2.000000*%
%ADD52R,3.800000X2.000000*%
%ADD53RoundRect,0.243750X-0.243750X-0.456250X0.243750X-0.456250X0.243750X0.456250X-0.243750X0.456250X0*%
%ADD54RoundRect,0.112500X-0.362500X-0.112500X0.362500X-0.112500X0.362500X0.112500X-0.362500X0.112500X0*%
G04 APERTURE END LIST*
D10*
X106243418Y-85066893D02*
G75*
G02*
X107364974Y-85279854I521582J-312907D01*
G01*
X100000000Y-83350000D02*
X100000000Y-83330000D01*
X100000000Y-82930000D02*
X100000000Y-82910000D01*
X100000000Y-82510000D02*
X100000000Y-82490000D01*
X100000000Y-82090000D02*
X100000000Y-82070000D01*
X100000000Y-81670000D02*
X100000000Y-81650000D01*
X104900000Y-89300000D02*
X103900000Y-88300000D01*
X104900000Y-87300000D01*
X104900000Y-89300000D01*
G36*
X104900000Y-89300000D02*
G01*
X103900000Y-88300000D01*
X104900000Y-87300000D01*
X104900000Y-89300000D01*
G37*
X106396229Y-85195457D02*
X106535010Y-85279848D01*
X106243418Y-85066893D02*
X106095010Y-84979848D01*
X106396229Y-85195457D02*
G75*
G02*
X107164982Y-85279855I368771J-184343D01*
G01*
X107165009Y-85279848D02*
X107365010Y-85279848D01*
X109700000Y-88300000D02*
X108700000Y-89300000D01*
X108700000Y-87300000D01*
X109700000Y-88300000D01*
G36*
X109700000Y-88300000D02*
G01*
X108700000Y-89300000D01*
X108700000Y-87300000D01*
X109700000Y-88300000D01*
G37*
X107800000Y-86500000D02*
X105800000Y-86500000D01*
X106800000Y-85500000D01*
X107800000Y-86500000D01*
G36*
X107800000Y-86500000D02*
G01*
X105800000Y-86500000D01*
X106800000Y-85500000D01*
X107800000Y-86500000D01*
G37*
X106535010Y-85279848D02*
X106185010Y-85329848D01*
X92350000Y-106650000D02*
X92100000Y-106350000D01*
X91900000Y-106500000D01*
X91800000Y-106700000D01*
X91750000Y-106800000D01*
X91750000Y-107000000D01*
X91800000Y-107200000D01*
X91850000Y-107300000D01*
X91900000Y-107400000D01*
X92000000Y-107550000D01*
X91900000Y-107550000D01*
X91750000Y-107500000D01*
X91550000Y-107350000D01*
X91400000Y-107150000D01*
X91350000Y-106800000D01*
X91400000Y-106500000D01*
X91550000Y-106250000D01*
X91800000Y-106000000D01*
X91550000Y-105700000D01*
X92550000Y-105700000D01*
X92350000Y-106650000D01*
G36*
X92350000Y-106650000D02*
G01*
X92100000Y-106350000D01*
X91900000Y-106500000D01*
X91800000Y-106700000D01*
X91750000Y-106800000D01*
X91750000Y-107000000D01*
X91800000Y-107200000D01*
X91850000Y-107300000D01*
X91900000Y-107400000D01*
X92000000Y-107550000D01*
X91900000Y-107550000D01*
X91750000Y-107500000D01*
X91550000Y-107350000D01*
X91400000Y-107150000D01*
X91350000Y-106800000D01*
X91400000Y-106500000D01*
X91550000Y-106250000D01*
X91800000Y-106000000D01*
X91550000Y-105700000D01*
X92550000Y-105700000D01*
X92350000Y-106650000D01*
G37*
X106185010Y-85329848D02*
X106095010Y-84979848D01*
G36*
X92530565Y-107869473D02*
G01*
X92522651Y-107932000D01*
X92509755Y-107932000D01*
X92489666Y-107932000D01*
X92486113Y-107932000D01*
X92466031Y-107931391D01*
X92444049Y-107929056D01*
X92424376Y-107924968D01*
X92404340Y-107917986D01*
X92385289Y-107907087D01*
X92370457Y-107893110D01*
X92359863Y-107876092D01*
X92353507Y-107856034D01*
X92351421Y-107835988D01*
X92351388Y-107832935D01*
X92351423Y-107811861D01*
X92351527Y-107791896D01*
X92351681Y-107774707D01*
X92351919Y-107753458D01*
X92352041Y-107732049D01*
X92352072Y-107713158D01*
X92306252Y-107713158D01*
X92306252Y-107650632D01*
X92354221Y-107650632D01*
X92354221Y-107575600D01*
X92435310Y-107575600D01*
X92435310Y-107650632D01*
X92529490Y-107650632D01*
X92529490Y-107713158D01*
X92435310Y-107713158D01*
X92435069Y-107733170D01*
X92435017Y-107736312D01*
X92434758Y-107756358D01*
X92434724Y-107764742D01*
X92434724Y-107784480D01*
X92434724Y-107786040D01*
X92434817Y-107806355D01*
X92434822Y-107812321D01*
X92437185Y-107831875D01*
X92445915Y-107849480D01*
X92451625Y-107855307D01*
X92469938Y-107864479D01*
X92490367Y-107868353D01*
X92510680Y-107869459D01*
X92513468Y-107869473D01*
X92523628Y-107869473D01*
X92530565Y-107869473D01*
G37*
G36*
X92851207Y-107932000D02*
G01*
X92766894Y-107932000D01*
X92767004Y-107911542D01*
X92767172Y-107891549D01*
X92767285Y-107879341D01*
X92767474Y-107858150D01*
X92767621Y-107837980D01*
X92767676Y-107823165D01*
X92767549Y-107803446D01*
X92767383Y-107791706D01*
X92767215Y-107771388D01*
X92767187Y-107761030D01*
X92765178Y-107741007D01*
X92758199Y-107724002D01*
X92741193Y-107714217D01*
X92729769Y-107713158D01*
X92710271Y-107716229D01*
X92698311Y-107720290D01*
X92680212Y-107728325D01*
X92662456Y-107738168D01*
X92663237Y-107932000D01*
X92578925Y-107932000D01*
X92578980Y-107911680D01*
X92579077Y-107891921D01*
X92579203Y-107870554D01*
X92579316Y-107852963D01*
X92579448Y-107830282D01*
X92579554Y-107806791D01*
X92579621Y-107786597D01*
X92579668Y-107765839D01*
X92579697Y-107744518D01*
X92579706Y-107722635D01*
X92579683Y-107700855D01*
X92579624Y-107679991D01*
X92579528Y-107657710D01*
X92579413Y-107637052D01*
X92579323Y-107615454D01*
X92579224Y-107593062D01*
X92579131Y-107573236D01*
X92579031Y-107552826D01*
X92578925Y-107531832D01*
X92663237Y-107531832D01*
X92662358Y-107675349D01*
X92662944Y-107675642D01*
X92680890Y-107667015D01*
X92699668Y-107659405D01*
X92717459Y-107653367D01*
X92736598Y-107648250D01*
X92756953Y-107644941D01*
X92768262Y-107644379D01*
X92788356Y-107646242D01*
X92807800Y-107652680D01*
X92824210Y-107663716D01*
X92828541Y-107667924D01*
X92840339Y-107684182D01*
X92847768Y-107703645D01*
X92850717Y-107723902D01*
X92850914Y-107731232D01*
X92850876Y-107750905D01*
X92850729Y-107771641D01*
X92850523Y-107786528D01*
X92850303Y-107806874D01*
X92850230Y-107823751D01*
X92850285Y-107844103D01*
X92850432Y-107864786D01*
X92850621Y-107883151D01*
X92850866Y-107904130D01*
X92851112Y-107924486D01*
X92851207Y-107932000D01*
G37*
G36*
X93013775Y-107606863D02*
G01*
X92926629Y-107606863D01*
X92926629Y-107544337D01*
X93013775Y-107544337D01*
X93013775Y-107606863D01*
G37*
G36*
X93012407Y-107932000D02*
G01*
X92927997Y-107932000D01*
X92928094Y-107911361D01*
X92928255Y-107890896D01*
X92928387Y-107875824D01*
X92928601Y-107854672D01*
X92928754Y-107834205D01*
X92928845Y-107814421D01*
X92928876Y-107795321D01*
X92928857Y-107775242D01*
X92928800Y-107754571D01*
X92928704Y-107733308D01*
X92928681Y-107728985D01*
X92928587Y-107708725D01*
X92928416Y-107687075D01*
X92928199Y-107666662D01*
X92927997Y-107650632D01*
X93012407Y-107650632D01*
X93012234Y-107672122D01*
X93012046Y-107692298D01*
X93011819Y-107713175D01*
X93011723Y-107721071D01*
X93011517Y-107741248D01*
X93011397Y-107760810D01*
X93011338Y-107781702D01*
X93011332Y-107791413D01*
X93011350Y-107813942D01*
X93011401Y-107834342D01*
X93011505Y-107855450D01*
X93011680Y-107876025D01*
X93011821Y-107886961D01*
X93012155Y-107907005D01*
X93012386Y-107926636D01*
X93012407Y-107932000D01*
G37*
G36*
X93287718Y-107848175D02*
G01*
X93284970Y-107868503D01*
X93276727Y-107886254D01*
X93275212Y-107888427D01*
X93262029Y-107903108D01*
X93245926Y-107914914D01*
X93243558Y-107916270D01*
X93225738Y-107924479D01*
X93206540Y-107930281D01*
X93194124Y-107932879D01*
X93173849Y-107935938D01*
X93153458Y-107937727D01*
X93134822Y-107938252D01*
X93114645Y-107937418D01*
X93098674Y-107935126D01*
X93078939Y-107932076D01*
X93076887Y-107932000D01*
X93070341Y-107869473D01*
X93090347Y-107873022D01*
X93091249Y-107873186D01*
X93111533Y-107875426D01*
X93123098Y-107875726D01*
X93142994Y-107874809D01*
X93143712Y-107874749D01*
X93163484Y-107871373D01*
X93165401Y-107870841D01*
X93183582Y-107862456D01*
X93185331Y-107860583D01*
X93190118Y-107846221D01*
X93184745Y-107833032D01*
X93168466Y-107821613D01*
X93167745Y-107821211D01*
X93149845Y-107811701D01*
X93143614Y-107808803D01*
X93125514Y-107799703D01*
X93117041Y-107794735D01*
X93101327Y-107782708D01*
X93088709Y-107766794D01*
X93081467Y-107748570D01*
X93079427Y-107730841D01*
X93082383Y-107710471D01*
X93091249Y-107692153D01*
X93105057Y-107677009D01*
X93121436Y-107665760D01*
X93127299Y-107662648D01*
X93145980Y-107655155D01*
X93165704Y-107650240D01*
X93173900Y-107648873D01*
X93193597Y-107646409D01*
X93213912Y-107644795D01*
X93224410Y-107644379D01*
X93244540Y-107644252D01*
X93257334Y-107644281D01*
X93275017Y-107644379D01*
X93282149Y-107706905D01*
X93266615Y-107706905D01*
X93246337Y-107706905D01*
X93238185Y-107706905D01*
X93218545Y-107708027D01*
X93215910Y-107708371D01*
X93197152Y-107712572D01*
X93181618Y-107721658D01*
X93176538Y-107733577D01*
X93182986Y-107747645D01*
X93199336Y-107758544D01*
X93199986Y-107758880D01*
X93218084Y-107768314D01*
X93225387Y-107771874D01*
X93243295Y-107781025D01*
X93249420Y-107784575D01*
X93265080Y-107796430D01*
X93277948Y-107811734D01*
X93285848Y-107830814D01*
X93287718Y-107848175D01*
G37*
G36*
X93661507Y-107869473D02*
G01*
X93653593Y-107932000D01*
X93640697Y-107932000D01*
X93620608Y-107932000D01*
X93617055Y-107932000D01*
X93596973Y-107931391D01*
X93574991Y-107929056D01*
X93555318Y-107924968D01*
X93535282Y-107917986D01*
X93516231Y-107907087D01*
X93501400Y-107893110D01*
X93490806Y-107876092D01*
X93484449Y-107856034D01*
X93482363Y-107835988D01*
X93482330Y-107832935D01*
X93482365Y-107811861D01*
X93482469Y-107791896D01*
X93482623Y-107774707D01*
X93482862Y-107753458D01*
X93482983Y-107732049D01*
X93483014Y-107713158D01*
X93437194Y-107713158D01*
X93437194Y-107650632D01*
X93485163Y-107650632D01*
X93485163Y-107575600D01*
X93566252Y-107575600D01*
X93566252Y-107650632D01*
X93660432Y-107650632D01*
X93660432Y-107713158D01*
X93566252Y-107713158D01*
X93566011Y-107733170D01*
X93565959Y-107736312D01*
X93565701Y-107756358D01*
X93565666Y-107764742D01*
X93565666Y-107784480D01*
X93565666Y-107786040D01*
X93565759Y-107806355D01*
X93565764Y-107812321D01*
X93568127Y-107831875D01*
X93576857Y-107849480D01*
X93582568Y-107855307D01*
X93600881Y-107864479D01*
X93621309Y-107868353D01*
X93641623Y-107869459D01*
X93644410Y-107869473D01*
X93654570Y-107869473D01*
X93661507Y-107869473D01*
G37*
G36*
X93797306Y-107606863D02*
G01*
X93710160Y-107606863D01*
X93710160Y-107544337D01*
X93797306Y-107544337D01*
X93797306Y-107606863D01*
G37*
G36*
X93795938Y-107932000D02*
G01*
X93711528Y-107932000D01*
X93711625Y-107911361D01*
X93711786Y-107890896D01*
X93711919Y-107875824D01*
X93712132Y-107854672D01*
X93712285Y-107834205D01*
X93712377Y-107814421D01*
X93712407Y-107795321D01*
X93712388Y-107775242D01*
X93712331Y-107754571D01*
X93712235Y-107733308D01*
X93712212Y-107728985D01*
X93712118Y-107708725D01*
X93711947Y-107687075D01*
X93711730Y-107666662D01*
X93711528Y-107650632D01*
X93795938Y-107650632D01*
X93795765Y-107672122D01*
X93795577Y-107692298D01*
X93795350Y-107713175D01*
X93795254Y-107721071D01*
X93795048Y-107741248D01*
X93794928Y-107760810D01*
X93794870Y-107781702D01*
X93794863Y-107791413D01*
X93794881Y-107813942D01*
X93794932Y-107834342D01*
X93795036Y-107855450D01*
X93795211Y-107876025D01*
X93795352Y-107886961D01*
X93795686Y-107907005D01*
X93795917Y-107926636D01*
X93795938Y-107932000D01*
G37*
G36*
X94323014Y-107932000D02*
G01*
X94238702Y-107932000D01*
X94239068Y-107911598D01*
X94239288Y-107894191D01*
X94239466Y-107873990D01*
X94239558Y-107854097D01*
X94239581Y-107836842D01*
X94239543Y-107816418D01*
X94239483Y-107799327D01*
X94239360Y-107779478D01*
X94239092Y-107760443D01*
X94237009Y-107740525D01*
X94229713Y-107723709D01*
X94211825Y-107713993D01*
X94201967Y-107713158D01*
X94182416Y-107716489D01*
X94173831Y-107719606D01*
X94155720Y-107728605D01*
X94140907Y-107738168D01*
X94140907Y-107742565D01*
X94141004Y-107751553D01*
X94140931Y-107772143D01*
X94140711Y-107792879D01*
X94140565Y-107812565D01*
X94140516Y-107830004D01*
X94140564Y-107851136D01*
X94140707Y-107871182D01*
X94140974Y-107891975D01*
X94141004Y-107893800D01*
X94141321Y-107914149D01*
X94141493Y-107932000D01*
X94057278Y-107932000D01*
X94057480Y-107912360D01*
X94057669Y-107899564D01*
X94057966Y-107878951D01*
X94058110Y-107859277D01*
X94058157Y-107839628D01*
X94058157Y-107837331D01*
X94058088Y-107817338D01*
X94057962Y-107798936D01*
X94057839Y-107779371D01*
X94057571Y-107761030D01*
X94056008Y-107743151D01*
X94051221Y-107727910D01*
X94040669Y-107716870D01*
X94021032Y-107713158D01*
X94001200Y-107716842D01*
X93992505Y-107720290D01*
X93974249Y-107729457D01*
X93959581Y-107738168D01*
X93959416Y-107758044D01*
X93959288Y-107771678D01*
X93959169Y-107792804D01*
X93959099Y-107812693D01*
X93959092Y-107819648D01*
X93959150Y-107840485D01*
X93959303Y-107860971D01*
X93959522Y-107880665D01*
X93959581Y-107885203D01*
X93959890Y-107905473D01*
X93960130Y-107925228D01*
X93960167Y-107932000D01*
X93875952Y-107932000D01*
X93876062Y-107912436D01*
X93876273Y-107892318D01*
X93876343Y-107886473D01*
X93876532Y-107866314D01*
X93876648Y-107844904D01*
X93876709Y-107823476D01*
X93876732Y-107803108D01*
X93876734Y-107795907D01*
X93876706Y-107776179D01*
X93876633Y-107754715D01*
X93876538Y-107734749D01*
X93876452Y-107712928D01*
X93876324Y-107692324D01*
X93876147Y-107670585D01*
X93875952Y-107650632D01*
X93958506Y-107650632D01*
X93958213Y-107675349D01*
X93958799Y-107675642D01*
X93976788Y-107666457D01*
X93995322Y-107658677D01*
X94004131Y-107655321D01*
X94023634Y-107649091D01*
X94043436Y-107645245D01*
X94057278Y-107644379D01*
X94076834Y-107645814D01*
X94096313Y-107651036D01*
X94100949Y-107653074D01*
X94117698Y-107663725D01*
X94128401Y-107675642D01*
X94128988Y-107675642D01*
X94148144Y-107666552D01*
X94167176Y-107659112D01*
X94183796Y-107653660D01*
X94204001Y-107648376D01*
X94224332Y-107645113D01*
X94238408Y-107644379D01*
X94259344Y-107646242D01*
X94279380Y-107652680D01*
X94296019Y-107663716D01*
X94300348Y-107667924D01*
X94312095Y-107684019D01*
X94319491Y-107702996D01*
X94322428Y-107722538D01*
X94322623Y-107729571D01*
X94322577Y-107749961D01*
X94322404Y-107770695D01*
X94322233Y-107781644D01*
X94322013Y-107801842D01*
X94321939Y-107821602D01*
X94321978Y-107842046D01*
X94322112Y-107863474D01*
X94322341Y-107883548D01*
X94322428Y-107889306D01*
X94322785Y-107909506D01*
X94323009Y-107929516D01*
X94323014Y-107932000D01*
G37*
G36*
X94537630Y-107645395D02*
G01*
X94557341Y-107648821D01*
X94570969Y-107652976D01*
X94588924Y-107661301D01*
X94605807Y-107673440D01*
X94611221Y-107678573D01*
X94624524Y-107694835D01*
X94634833Y-107713433D01*
X94640041Y-107727129D01*
X94645214Y-107747909D01*
X94648054Y-107768945D01*
X94649092Y-107789622D01*
X94649127Y-107794442D01*
X94458422Y-107794442D01*
X94461932Y-107814168D01*
X94470341Y-107830199D01*
X94483994Y-107844255D01*
X94501540Y-107854973D01*
X94505903Y-107856968D01*
X94525285Y-107863346D01*
X94541172Y-107866640D01*
X94560638Y-107868765D01*
X94580529Y-107869471D01*
X94581912Y-107869473D01*
X94602062Y-107869473D01*
X94612393Y-107869473D01*
X94631346Y-107869473D01*
X94622944Y-107932000D01*
X94603503Y-107932000D01*
X94583954Y-107932000D01*
X94572337Y-107932000D01*
X94551936Y-107931499D01*
X94529846Y-107929703D01*
X94509063Y-107926599D01*
X94489586Y-107922189D01*
X94487243Y-107921546D01*
X94467186Y-107914768D01*
X94448892Y-107906306D01*
X94430631Y-107894928D01*
X94423935Y-107889794D01*
X94408644Y-107875131D01*
X94396727Y-107859613D01*
X94388471Y-107845440D01*
X94380795Y-107826603D01*
X94376306Y-107806496D01*
X94374989Y-107787115D01*
X94376155Y-107766172D01*
X94377831Y-107756926D01*
X94454417Y-107756926D01*
X94570188Y-107756926D01*
X94566707Y-107737106D01*
X94558480Y-107718150D01*
X94553579Y-107711399D01*
X94537959Y-107699198D01*
X94517659Y-107694466D01*
X94514598Y-107694400D01*
X94495092Y-107697616D01*
X94477761Y-107708201D01*
X94474738Y-107711204D01*
X94463155Y-107728226D01*
X94456149Y-107748185D01*
X94454417Y-107756926D01*
X94377831Y-107756926D01*
X94379653Y-107746869D01*
X94384856Y-107730743D01*
X94394061Y-107712448D01*
X94405541Y-107696233D01*
X94417096Y-107683360D01*
X94432108Y-107670455D01*
X94449593Y-107660023D01*
X94462623Y-107654442D01*
X94481467Y-107648713D01*
X94502260Y-107645175D01*
X94518018Y-107644379D01*
X94537630Y-107645395D01*
G37*
G36*
X94794207Y-107932000D02*
G01*
X94697390Y-107932000D01*
X94697390Y-107831958D01*
X94794207Y-107831958D01*
X94794207Y-107932000D01*
G37*
G36*
X94961465Y-107932000D02*
G01*
X94864647Y-107932000D01*
X94864647Y-107831958D01*
X94961465Y-107831958D01*
X94961465Y-107932000D01*
G37*
G36*
X95131458Y-107932000D02*
G01*
X95034640Y-107932000D01*
X95034640Y-107831958D01*
X95131458Y-107831958D01*
X95131458Y-107932000D01*
G37*
D11*
X107233333Y-89040386D02*
X107766667Y-89040386D01*
X108233334Y-88973720D02*
X108233334Y-89307053D01*
X108000000Y-88607053D02*
X108233334Y-88973720D01*
X108233334Y-88973720D02*
X108466667Y-88607053D01*
X105999999Y-87240386D02*
X106533333Y-87240386D01*
X106266666Y-87507053D02*
X106266666Y-86973720D01*
X106800000Y-86807053D02*
X107266666Y-87507053D01*
X107266666Y-86807053D02*
X106800000Y-87507053D01*
X106183333Y-84507053D02*
X106350000Y-84507053D01*
X106350000Y-84507053D02*
X106350000Y-84373720D01*
X106350000Y-84373720D02*
X106283333Y-84340386D01*
X106283333Y-84340386D02*
X106216666Y-84273720D01*
X106216666Y-84273720D02*
X106183333Y-84173720D01*
X106183333Y-84173720D02*
X106183333Y-84007053D01*
X106183333Y-84007053D02*
X106216666Y-83907053D01*
X106216666Y-83907053D02*
X106283333Y-83840386D01*
X106283333Y-83840386D02*
X106383333Y-83807053D01*
X106383333Y-83807053D02*
X106516666Y-83807053D01*
X106516666Y-83807053D02*
X106616666Y-83840386D01*
X106616666Y-83840386D02*
X106683333Y-83907053D01*
X106683333Y-83907053D02*
X106716666Y-84007053D01*
X106716666Y-84007053D02*
X106716666Y-84173720D01*
X106716666Y-84173720D02*
X106683333Y-84273720D01*
X106683333Y-84273720D02*
X106616666Y-84340386D01*
X106616666Y-84340386D02*
X106550000Y-84373720D01*
X106550000Y-84373720D02*
X106550000Y-84507053D01*
X106550000Y-84507053D02*
X106716666Y-84507053D01*
X107150000Y-84173720D02*
X107150000Y-84507053D01*
X106916666Y-83807053D02*
X107150000Y-84173720D01*
X107150000Y-84173720D02*
X107383333Y-83807053D01*
D12*
X114632309Y-113055859D02*
X114989452Y-113055859D01*
X114989452Y-113055859D02*
X115060880Y-113079668D01*
X115060880Y-113079668D02*
X115108500Y-113127287D01*
X115108500Y-113127287D02*
X115132309Y-113198716D01*
X115132309Y-113198716D02*
X115132309Y-113246335D01*
X115132309Y-112579669D02*
X115132309Y-112817764D01*
X115132309Y-112817764D02*
X114632309Y-112817764D01*
X115084690Y-112127288D02*
X115108500Y-112151097D01*
X115108500Y-112151097D02*
X115132309Y-112222526D01*
X115132309Y-112222526D02*
X115132309Y-112270145D01*
X115132309Y-112270145D02*
X115108500Y-112341573D01*
X115108500Y-112341573D02*
X115060880Y-112389192D01*
X115060880Y-112389192D02*
X115013261Y-112413002D01*
X115013261Y-112413002D02*
X114918023Y-112436811D01*
X114918023Y-112436811D02*
X114846595Y-112436811D01*
X114846595Y-112436811D02*
X114751357Y-112413002D01*
X114751357Y-112413002D02*
X114703738Y-112389192D01*
X114703738Y-112389192D02*
X114656119Y-112341573D01*
X114656119Y-112341573D02*
X114632309Y-112270145D01*
X114632309Y-112270145D02*
X114632309Y-112222526D01*
X114632309Y-112222526D02*
X114656119Y-112151097D01*
X114656119Y-112151097D02*
X114679928Y-112127288D01*
X114632309Y-111770145D02*
X114989452Y-111770145D01*
X114989452Y-111770145D02*
X115060880Y-111793954D01*
X115060880Y-111793954D02*
X115108500Y-111841573D01*
X115108500Y-111841573D02*
X115132309Y-111913002D01*
X115132309Y-111913002D02*
X115132309Y-111960621D01*
X115132309Y-111293955D02*
X115132309Y-111532050D01*
X115132309Y-111532050D02*
X114632309Y-111532050D01*
X115084690Y-110841574D02*
X115108500Y-110865383D01*
X115108500Y-110865383D02*
X115132309Y-110936812D01*
X115132309Y-110936812D02*
X115132309Y-110984431D01*
X115132309Y-110984431D02*
X115108500Y-111055859D01*
X115108500Y-111055859D02*
X115060880Y-111103478D01*
X115060880Y-111103478D02*
X115013261Y-111127288D01*
X115013261Y-111127288D02*
X114918023Y-111151097D01*
X114918023Y-111151097D02*
X114846595Y-111151097D01*
X114846595Y-111151097D02*
X114751357Y-111127288D01*
X114751357Y-111127288D02*
X114703738Y-111103478D01*
X114703738Y-111103478D02*
X114656119Y-111055859D01*
X114656119Y-111055859D02*
X114632309Y-110984431D01*
X114632309Y-110984431D02*
X114632309Y-110936812D01*
X114632309Y-110936812D02*
X114656119Y-110865383D01*
X114656119Y-110865383D02*
X114679928Y-110841574D01*
X114632309Y-110484431D02*
X114989452Y-110484431D01*
X114989452Y-110484431D02*
X115060880Y-110508240D01*
X115060880Y-110508240D02*
X115108500Y-110555859D01*
X115108500Y-110555859D02*
X115132309Y-110627288D01*
X115132309Y-110627288D02*
X115132309Y-110674907D01*
X115132309Y-110008241D02*
X115132309Y-110246336D01*
X115132309Y-110246336D02*
X114632309Y-110246336D01*
X115084690Y-109555860D02*
X115108500Y-109579669D01*
X115108500Y-109579669D02*
X115132309Y-109651098D01*
X115132309Y-109651098D02*
X115132309Y-109698717D01*
X115132309Y-109698717D02*
X115108500Y-109770145D01*
X115108500Y-109770145D02*
X115060880Y-109817764D01*
X115060880Y-109817764D02*
X115013261Y-109841574D01*
X115013261Y-109841574D02*
X114918023Y-109865383D01*
X114918023Y-109865383D02*
X114846595Y-109865383D01*
X114846595Y-109865383D02*
X114751357Y-109841574D01*
X114751357Y-109841574D02*
X114703738Y-109817764D01*
X114703738Y-109817764D02*
X114656119Y-109770145D01*
X114656119Y-109770145D02*
X114632309Y-109698717D01*
X114632309Y-109698717D02*
X114632309Y-109651098D01*
X114632309Y-109651098D02*
X114656119Y-109579669D01*
X114656119Y-109579669D02*
X114679928Y-109555860D01*
X114632309Y-109198717D02*
X114989452Y-109198717D01*
X114989452Y-109198717D02*
X115060880Y-109222526D01*
X115060880Y-109222526D02*
X115108500Y-109270145D01*
X115108500Y-109270145D02*
X115132309Y-109341574D01*
X115132309Y-109341574D02*
X115132309Y-109389193D01*
X115132309Y-108722527D02*
X115132309Y-108960622D01*
X115132309Y-108960622D02*
X114632309Y-108960622D01*
X115084690Y-108270146D02*
X115108500Y-108293955D01*
X115108500Y-108293955D02*
X115132309Y-108365384D01*
X115132309Y-108365384D02*
X115132309Y-108413003D01*
X115132309Y-108413003D02*
X115108500Y-108484431D01*
X115108500Y-108484431D02*
X115060880Y-108532050D01*
X115060880Y-108532050D02*
X115013261Y-108555860D01*
X115013261Y-108555860D02*
X114918023Y-108579669D01*
X114918023Y-108579669D02*
X114846595Y-108579669D01*
X114846595Y-108579669D02*
X114751357Y-108555860D01*
X114751357Y-108555860D02*
X114703738Y-108532050D01*
X114703738Y-108532050D02*
X114656119Y-108484431D01*
X114656119Y-108484431D02*
X114632309Y-108413003D01*
X114632309Y-108413003D02*
X114632309Y-108365384D01*
X114632309Y-108365384D02*
X114656119Y-108293955D01*
X114656119Y-108293955D02*
X114679928Y-108270146D01*
D10*
X104918169Y-94158800D02*
X105032455Y-94196895D01*
X105032455Y-94196895D02*
X105222931Y-94196895D01*
X105222931Y-94196895D02*
X105299122Y-94158800D01*
X105299122Y-94158800D02*
X105337217Y-94120704D01*
X105337217Y-94120704D02*
X105375312Y-94044514D01*
X105375312Y-94044514D02*
X105375312Y-93968323D01*
X105375312Y-93968323D02*
X105337217Y-93892133D01*
X105337217Y-93892133D02*
X105299122Y-93854038D01*
X105299122Y-93854038D02*
X105222931Y-93815942D01*
X105222931Y-93815942D02*
X105070550Y-93777847D01*
X105070550Y-93777847D02*
X104994360Y-93739752D01*
X104994360Y-93739752D02*
X104956265Y-93701657D01*
X104956265Y-93701657D02*
X104918169Y-93625466D01*
X104918169Y-93625466D02*
X104918169Y-93549276D01*
X104918169Y-93549276D02*
X104956265Y-93473085D01*
X104956265Y-93473085D02*
X104994360Y-93434990D01*
X104994360Y-93434990D02*
X105070550Y-93396895D01*
X105070550Y-93396895D02*
X105261027Y-93396895D01*
X105261027Y-93396895D02*
X105375312Y-93434990D01*
X105718170Y-94196895D02*
X105718170Y-93396895D01*
X105718170Y-93396895D02*
X105908646Y-93396895D01*
X105908646Y-93396895D02*
X106022932Y-93434990D01*
X106022932Y-93434990D02*
X106099122Y-93511180D01*
X106099122Y-93511180D02*
X106137217Y-93587371D01*
X106137217Y-93587371D02*
X106175313Y-93739752D01*
X106175313Y-93739752D02*
X106175313Y-93854038D01*
X106175313Y-93854038D02*
X106137217Y-94006419D01*
X106137217Y-94006419D02*
X106099122Y-94082609D01*
X106099122Y-94082609D02*
X106022932Y-94158800D01*
X106022932Y-94158800D02*
X105908646Y-94196895D01*
X105908646Y-94196895D02*
X105718170Y-94196895D01*
X106518170Y-94196895D02*
X106518170Y-93396895D01*
X106518170Y-93396895D02*
X106784836Y-93968323D01*
X106784836Y-93968323D02*
X107051503Y-93396895D01*
X107051503Y-93396895D02*
X107051503Y-94196895D01*
X107394360Y-93473085D02*
X107432456Y-93434990D01*
X107432456Y-93434990D02*
X107508646Y-93396895D01*
X107508646Y-93396895D02*
X107699122Y-93396895D01*
X107699122Y-93396895D02*
X107775313Y-93434990D01*
X107775313Y-93434990D02*
X107813408Y-93473085D01*
X107813408Y-93473085D02*
X107851503Y-93549276D01*
X107851503Y-93549276D02*
X107851503Y-93625466D01*
X107851503Y-93625466D02*
X107813408Y-93739752D01*
X107813408Y-93739752D02*
X107356265Y-94196895D01*
X107356265Y-94196895D02*
X107851503Y-94196895D01*
X108575313Y-93396895D02*
X108194361Y-93396895D01*
X108194361Y-93396895D02*
X108156265Y-93777847D01*
X108156265Y-93777847D02*
X108194361Y-93739752D01*
X108194361Y-93739752D02*
X108270551Y-93701657D01*
X108270551Y-93701657D02*
X108461027Y-93701657D01*
X108461027Y-93701657D02*
X108537218Y-93739752D01*
X108537218Y-93739752D02*
X108575313Y-93777847D01*
X108575313Y-93777847D02*
X108613408Y-93854038D01*
X108613408Y-93854038D02*
X108613408Y-94044514D01*
X108613408Y-94044514D02*
X108575313Y-94120704D01*
X108575313Y-94120704D02*
X108537218Y-94158800D01*
X108537218Y-94158800D02*
X108461027Y-94196895D01*
X108461027Y-94196895D02*
X108270551Y-94196895D01*
X108270551Y-94196895D02*
X108194361Y-94158800D01*
X108194361Y-94158800D02*
X108156265Y-94120704D01*
X109565790Y-94196895D02*
X109565790Y-93396895D01*
X109946742Y-94196895D02*
X109946742Y-93396895D01*
X109946742Y-93396895D02*
X110213408Y-93968323D01*
X110213408Y-93968323D02*
X110480075Y-93396895D01*
X110480075Y-93396895D02*
X110480075Y-94196895D01*
X110861028Y-93396895D02*
X110861028Y-94044514D01*
X110861028Y-94044514D02*
X110899123Y-94120704D01*
X110899123Y-94120704D02*
X110937218Y-94158800D01*
X110937218Y-94158800D02*
X111013409Y-94196895D01*
X111013409Y-94196895D02*
X111165790Y-94196895D01*
X111165790Y-94196895D02*
X111241980Y-94158800D01*
X111241980Y-94158800D02*
X111280075Y-94120704D01*
X111280075Y-94120704D02*
X111318171Y-94044514D01*
X111318171Y-94044514D02*
X111318171Y-93396895D01*
G36*
X92624452Y-107163221D02*
G01*
X92621032Y-107182959D01*
X92618981Y-107196633D01*
X92616294Y-107216563D01*
X92613864Y-107236845D01*
X92613705Y-107238252D01*
X92607941Y-107238252D01*
X92600809Y-107238252D01*
X92579803Y-107237878D01*
X92559526Y-107236754D01*
X92539980Y-107234882D01*
X92517487Y-107231646D01*
X92496046Y-107227332D01*
X92478981Y-107222914D01*
X92459504Y-107216605D01*
X92441154Y-107209184D01*
X92421169Y-107199120D01*
X92402717Y-107187540D01*
X92388122Y-107176410D01*
X92372789Y-107162297D01*
X92359542Y-107146885D01*
X92348382Y-107130176D01*
X92343084Y-107120332D01*
X92335386Y-107101439D01*
X92330207Y-107081032D01*
X92327719Y-107061621D01*
X92327159Y-107046277D01*
X92328404Y-107024953D01*
X92332136Y-107004835D01*
X92338357Y-106985922D01*
X92342889Y-106975935D01*
X92352804Y-106958905D01*
X92364743Y-106943096D01*
X92378708Y-106928509D01*
X92387341Y-106920932D01*
X92404320Y-106907893D01*
X92423028Y-106896304D01*
X92443466Y-106886164D01*
X92462362Y-106878626D01*
X92479078Y-106873158D01*
X92499955Y-106867613D01*
X92521334Y-106863216D01*
X92543214Y-106859965D01*
X92565595Y-106857862D01*
X92588478Y-106856906D01*
X92596217Y-106856842D01*
X92602861Y-106856842D01*
X92609406Y-106856842D01*
X92611749Y-106876942D01*
X92613119Y-106888887D01*
X92615639Y-106908551D01*
X92618803Y-106929073D01*
X92619274Y-106931874D01*
X92613021Y-106931874D01*
X92606671Y-106931874D01*
X92586040Y-106932745D01*
X92566114Y-106934841D01*
X92550202Y-106937150D01*
X92530454Y-106940991D01*
X92510650Y-106946472D01*
X92492854Y-106953270D01*
X92475235Y-106962334D01*
X92458287Y-106974073D01*
X92444105Y-106987567D01*
X92440390Y-106991958D01*
X92429544Y-107009178D01*
X92423200Y-107028060D01*
X92421339Y-107046668D01*
X92423475Y-107067217D01*
X92429882Y-107086011D01*
X92439413Y-107101574D01*
X92453788Y-107116824D01*
X92470122Y-107128944D01*
X92487481Y-107138433D01*
X92491681Y-107140360D01*
X92510059Y-107148003D01*
X92530399Y-107154007D01*
X92550593Y-107158043D01*
X92570676Y-107160876D01*
X92590497Y-107162781D01*
X92607941Y-107163416D01*
X92615757Y-107163416D01*
X92624452Y-107163221D01*
G37*
G36*
X92884305Y-106883725D02*
G01*
X92893217Y-106904436D01*
X92902172Y-106925227D01*
X92911170Y-106946100D01*
X92920211Y-106967052D01*
X92929295Y-106988086D01*
X92938421Y-107009200D01*
X92947591Y-107030395D01*
X92956804Y-107051671D01*
X92966059Y-107073028D01*
X92972254Y-107087310D01*
X92981172Y-107107812D01*
X92989280Y-107126455D01*
X92998830Y-107148418D01*
X93006939Y-107167076D01*
X93015049Y-107185747D01*
X93023341Y-107204876D01*
X93025596Y-107210115D01*
X92936008Y-107238252D01*
X92928711Y-107219018D01*
X92920963Y-107199564D01*
X92913065Y-107180074D01*
X92905190Y-107161261D01*
X92896589Y-107141242D01*
X92892533Y-107131958D01*
X92758590Y-107131958D01*
X92750212Y-107150538D01*
X92741547Y-107170201D01*
X92733685Y-107188550D01*
X92728890Y-107200053D01*
X92721063Y-107219438D01*
X92714123Y-107237712D01*
X92713942Y-107238252D01*
X92629727Y-107210115D01*
X92638509Y-107190444D01*
X92647752Y-107169547D01*
X92657733Y-107146921D01*
X92667208Y-107125410D01*
X92675184Y-107107288D01*
X92683905Y-107087460D01*
X92686978Y-107080471D01*
X92689084Y-107075684D01*
X92771584Y-107075684D01*
X92771877Y-107075684D01*
X92878367Y-107075684D01*
X92878660Y-107075684D01*
X92870468Y-107056097D01*
X92862561Y-107037168D01*
X92854215Y-107017170D01*
X92853356Y-107015112D01*
X92845662Y-106996630D01*
X92837969Y-106978333D01*
X92830275Y-106960222D01*
X92826001Y-106950241D01*
X92824633Y-106950143D01*
X92816200Y-106969610D01*
X92808544Y-106987718D01*
X92800208Y-107007790D01*
X92797278Y-107014916D01*
X92789737Y-107033186D01*
X92782144Y-107051287D01*
X92774144Y-107069883D01*
X92771584Y-107075684D01*
X92689084Y-107075684D01*
X92696298Y-107059287D01*
X92705538Y-107038270D01*
X92714696Y-107017419D01*
X92723775Y-106996734D01*
X92732772Y-106976216D01*
X92741689Y-106955865D01*
X92750525Y-106935680D01*
X92759280Y-106915662D01*
X92767954Y-106895811D01*
X92776548Y-106876126D01*
X92782233Y-106863095D01*
X92875436Y-106863095D01*
X92884305Y-106883725D01*
G37*
G36*
X93418339Y-106863095D02*
G01*
X93418134Y-106884186D01*
X93417949Y-106905314D01*
X93417782Y-106926480D01*
X93417633Y-106947683D01*
X93417557Y-106959815D01*
X93417481Y-106980020D01*
X93417417Y-107000672D01*
X93417374Y-107020797D01*
X93417362Y-107035921D01*
X93417375Y-107059022D01*
X93417417Y-107081209D01*
X93417485Y-107102482D01*
X93417581Y-107122841D01*
X93417728Y-107145439D01*
X93417752Y-107148566D01*
X93417943Y-107168578D01*
X93418119Y-107189184D01*
X93418237Y-107208769D01*
X93418241Y-107211581D01*
X93352491Y-107238252D01*
X93339557Y-107220666D01*
X93326803Y-107203446D01*
X93314229Y-107186592D01*
X93301836Y-107170104D01*
X93289624Y-107153981D01*
X93277591Y-107138224D01*
X93261828Y-107117784D01*
X93246386Y-107097995D01*
X93231264Y-107078855D01*
X93223824Y-107069529D01*
X93209746Y-107051928D01*
X93197116Y-107036153D01*
X93183363Y-107019002D01*
X93169844Y-107002186D01*
X93156884Y-106986154D01*
X93151723Y-106979843D01*
X93150355Y-106980527D01*
X93150379Y-107004061D01*
X93150436Y-107025038D01*
X93150526Y-107047254D01*
X93150650Y-107070711D01*
X93150773Y-107090370D01*
X93150917Y-107110822D01*
X93151039Y-107126682D01*
X93151222Y-107147070D01*
X93151417Y-107169653D01*
X93151600Y-107192496D01*
X93151745Y-107213277D01*
X93151821Y-107232000D01*
X93067020Y-107232000D01*
X93067316Y-107211786D01*
X93067537Y-107190202D01*
X93067704Y-107171232D01*
X93067856Y-107149574D01*
X93067957Y-107129262D01*
X93068030Y-107107335D01*
X93068076Y-107083793D01*
X93068093Y-107062943D01*
X93068094Y-107054288D01*
X93068060Y-107032827D01*
X93067980Y-107012416D01*
X93067870Y-106992119D01*
X93067801Y-106981211D01*
X93067659Y-106961369D01*
X93067489Y-106940910D01*
X93067290Y-106919834D01*
X93067064Y-106898141D01*
X93066922Y-106885468D01*
X93138143Y-106856842D01*
X93152082Y-106873960D01*
X93164415Y-106889232D01*
X93177243Y-106905161D01*
X93192389Y-106923999D01*
X93206175Y-106941164D01*
X93209853Y-106945747D01*
X93224830Y-106964318D01*
X93239962Y-106982957D01*
X93255250Y-107001663D01*
X93270694Y-107020436D01*
X93286293Y-107039277D01*
X93302049Y-107058184D01*
X93317959Y-107077159D01*
X93334026Y-107096200D01*
X93335101Y-107095712D01*
X93335052Y-107074420D01*
X93334929Y-107052033D01*
X93334764Y-107030054D01*
X93334585Y-107009769D01*
X93334367Y-106987696D01*
X93334319Y-106983067D01*
X93334122Y-106960432D01*
X93333958Y-106939237D01*
X93333828Y-106919483D01*
X93333716Y-106897680D01*
X93333652Y-106877951D01*
X93333635Y-106863095D01*
X93418339Y-106863095D01*
G37*
G36*
X93719148Y-106906863D02*
G01*
X93632002Y-106906863D01*
X93632002Y-106844337D01*
X93719148Y-106844337D01*
X93719148Y-106906863D01*
G37*
G36*
X93717780Y-107232000D02*
G01*
X93633370Y-107232000D01*
X93633468Y-107211361D01*
X93633628Y-107190896D01*
X93633761Y-107175824D01*
X93633975Y-107154672D01*
X93634127Y-107134205D01*
X93634219Y-107114421D01*
X93634249Y-107095321D01*
X93634230Y-107075242D01*
X93634173Y-107054571D01*
X93634078Y-107033308D01*
X93634054Y-107028985D01*
X93633960Y-107008725D01*
X93633789Y-106987075D01*
X93633573Y-106966662D01*
X93633370Y-106950632D01*
X93717780Y-106950632D01*
X93717608Y-106972122D01*
X93717420Y-106992298D01*
X93717193Y-107013175D01*
X93717096Y-107021071D01*
X93716890Y-107041248D01*
X93716770Y-107060810D01*
X93716712Y-107081702D01*
X93716706Y-107091413D01*
X93716723Y-107113942D01*
X93716774Y-107134342D01*
X93716878Y-107155450D01*
X93717053Y-107176025D01*
X93717194Y-107186961D01*
X93717528Y-107207005D01*
X93717760Y-107226636D01*
X93717780Y-107232000D01*
G37*
G36*
X93993091Y-107148175D02*
G01*
X93990343Y-107168503D01*
X93982100Y-107186254D01*
X93980586Y-107188427D01*
X93967402Y-107203108D01*
X93951299Y-107214914D01*
X93948932Y-107216270D01*
X93931111Y-107224479D01*
X93911914Y-107230281D01*
X93899497Y-107232879D01*
X93879222Y-107235938D01*
X93858832Y-107237727D01*
X93840195Y-107238252D01*
X93820018Y-107237418D01*
X93804047Y-107235126D01*
X93784312Y-107232076D01*
X93782260Y-107232000D01*
X93775715Y-107169473D01*
X93795720Y-107173022D01*
X93796622Y-107173186D01*
X93816906Y-107175426D01*
X93828471Y-107175726D01*
X93848367Y-107174809D01*
X93849085Y-107174749D01*
X93868857Y-107171373D01*
X93870774Y-107170841D01*
X93888955Y-107162456D01*
X93890704Y-107160583D01*
X93895491Y-107146221D01*
X93890118Y-107133032D01*
X93873839Y-107121613D01*
X93873119Y-107121211D01*
X93855218Y-107111701D01*
X93848988Y-107108803D01*
X93830888Y-107099703D01*
X93822414Y-107094735D01*
X93806700Y-107082708D01*
X93794082Y-107066794D01*
X93786840Y-107048570D01*
X93784801Y-107030841D01*
X93787756Y-107010471D01*
X93796622Y-106992153D01*
X93810431Y-106977009D01*
X93826809Y-106965760D01*
X93832672Y-106962648D01*
X93851353Y-106955155D01*
X93871078Y-106950240D01*
X93879274Y-106948873D01*
X93898970Y-106946409D01*
X93919285Y-106944795D01*
X93929783Y-106944379D01*
X93949914Y-106944252D01*
X93962707Y-106944281D01*
X93980390Y-106944379D01*
X93987522Y-107006905D01*
X93971988Y-107006905D01*
X93951710Y-107006905D01*
X93943558Y-107006905D01*
X93923918Y-107008027D01*
X93921284Y-107008371D01*
X93902526Y-107012572D01*
X93886992Y-107021658D01*
X93881912Y-107033577D01*
X93888360Y-107047645D01*
X93904709Y-107058544D01*
X93905359Y-107058880D01*
X93923457Y-107068314D01*
X93930760Y-107071874D01*
X93948668Y-107081025D01*
X93954794Y-107084575D01*
X93970453Y-107096430D01*
X93983321Y-107111734D01*
X93991221Y-107130814D01*
X93993091Y-107148175D01*
G37*
G36*
X94325193Y-106945476D02*
G01*
X94344884Y-106948766D01*
X94361702Y-106953660D01*
X94380538Y-106962050D01*
X94397917Y-106973297D01*
X94408695Y-106982383D01*
X94422982Y-106997897D01*
X94434545Y-107014749D01*
X94442693Y-107031232D01*
X94449145Y-107050597D01*
X94452919Y-107071347D01*
X94454026Y-107091413D01*
X94452843Y-107110972D01*
X94448809Y-107131825D01*
X94441912Y-107151986D01*
X94432198Y-107170945D01*
X94419713Y-107188197D01*
X94405959Y-107202397D01*
X94390095Y-107214661D01*
X94372693Y-107224342D01*
X94360237Y-107229362D01*
X94340453Y-107234779D01*
X94319351Y-107237696D01*
X94304549Y-107238252D01*
X94284725Y-107237202D01*
X94263993Y-107233659D01*
X94249057Y-107229362D01*
X94230332Y-107221444D01*
X94213282Y-107211025D01*
X94202847Y-107202690D01*
X94188242Y-107187558D01*
X94176131Y-107170371D01*
X94167285Y-107152963D01*
X94160690Y-107134352D01*
X94156538Y-107115036D01*
X94154829Y-107095014D01*
X94154780Y-107090925D01*
X94238604Y-107090925D01*
X94240069Y-107111270D01*
X94244466Y-107129906D01*
X94253059Y-107147475D01*
X94264396Y-107160778D01*
X94281272Y-107171632D01*
X94282568Y-107172111D01*
X94302397Y-107175694D01*
X94304549Y-107175726D01*
X94324227Y-107172666D01*
X94327704Y-107171427D01*
X94344801Y-107160816D01*
X94346852Y-107158824D01*
X94358369Y-107142638D01*
X94364145Y-107129222D01*
X94368871Y-107110075D01*
X94370202Y-107092586D01*
X94368520Y-107072115D01*
X94364242Y-107054191D01*
X94355946Y-107035741D01*
X94345191Y-107022439D01*
X94328715Y-107011676D01*
X94326727Y-107010911D01*
X94307418Y-107006968D01*
X94304549Y-107006905D01*
X94284615Y-107009679D01*
X94280711Y-107011106D01*
X94264312Y-107022160D01*
X94261367Y-107025077D01*
X94249636Y-107041830D01*
X94244466Y-107054484D01*
X94239892Y-107073819D01*
X94238604Y-107090925D01*
X94154780Y-107090925D01*
X94155820Y-107071347D01*
X94159366Y-107051134D01*
X94165429Y-107032307D01*
X94174214Y-107014737D01*
X94185793Y-106998299D01*
X94198743Y-106984337D01*
X94214932Y-106970896D01*
X94233017Y-106960176D01*
X94246127Y-106954540D01*
X94265205Y-106948755D01*
X94285230Y-106945371D01*
X94304256Y-106944379D01*
X94325193Y-106945476D01*
G37*
G36*
X94782875Y-107232000D02*
G01*
X94698562Y-107232000D01*
X94698715Y-107211720D01*
X94698953Y-107190283D01*
X94699175Y-107169074D01*
X94699319Y-107148206D01*
X94699344Y-107137624D01*
X94699309Y-107117387D01*
X94699246Y-107098936D01*
X94699123Y-107079371D01*
X94698855Y-107061030D01*
X94696653Y-107040447D01*
X94690160Y-107024491D01*
X94673188Y-107014265D01*
X94661535Y-107013158D01*
X94641479Y-107016356D01*
X94629295Y-107020583D01*
X94611318Y-107028692D01*
X94594319Y-107038168D01*
X94594190Y-107058797D01*
X94594124Y-107068650D01*
X94594005Y-107088901D01*
X94593935Y-107109262D01*
X94593928Y-107116912D01*
X94593986Y-107138448D01*
X94594119Y-107158128D01*
X94594330Y-107179664D01*
X94594417Y-107187254D01*
X94594653Y-107207344D01*
X94594867Y-107226920D01*
X94594905Y-107232000D01*
X94510593Y-107232000D01*
X94510777Y-107211031D01*
X94510983Y-107193409D01*
X94511172Y-107172940D01*
X94511288Y-107150827D01*
X94511350Y-107128453D01*
X94511373Y-107107027D01*
X94511374Y-107099424D01*
X94511351Y-107079328D01*
X94511282Y-107059047D01*
X94511166Y-107038579D01*
X94511081Y-107027129D01*
X94510964Y-107006187D01*
X94510830Y-106984796D01*
X94510682Y-106962958D01*
X94510593Y-106950632D01*
X94593244Y-106950632D01*
X94593049Y-106975642D01*
X94593342Y-106976131D01*
X94611634Y-106967281D01*
X94630641Y-106959540D01*
X94648541Y-106953465D01*
X94667749Y-106948292D01*
X94688365Y-106944947D01*
X94699930Y-106944379D01*
X94720023Y-106946242D01*
X94739467Y-106952680D01*
X94755877Y-106963716D01*
X94760209Y-106967924D01*
X94772007Y-106984182D01*
X94779435Y-107003645D01*
X94782385Y-107023902D01*
X94782581Y-107031232D01*
X94782543Y-107050905D01*
X94782397Y-107071641D01*
X94782191Y-107086528D01*
X94781971Y-107106874D01*
X94781898Y-107123751D01*
X94781966Y-107144583D01*
X94782129Y-107164442D01*
X94782356Y-107184255D01*
X94782386Y-107186570D01*
X94782644Y-107207001D01*
X94782851Y-107227021D01*
X94782875Y-107232000D01*
G37*
G36*
X95175422Y-107169473D02*
G01*
X95167508Y-107232000D01*
X95154612Y-107232000D01*
X95134523Y-107232000D01*
X95130969Y-107232000D01*
X95110888Y-107231391D01*
X95088906Y-107229056D01*
X95069233Y-107224968D01*
X95049197Y-107217986D01*
X95030146Y-107207087D01*
X95015314Y-107193110D01*
X95004720Y-107176092D01*
X94998364Y-107156034D01*
X94996278Y-107135988D01*
X94996245Y-107132935D01*
X94996280Y-107111861D01*
X94996384Y-107091896D01*
X94996538Y-107074707D01*
X94996776Y-107053458D01*
X94996898Y-107032049D01*
X94996929Y-107013158D01*
X94951109Y-107013158D01*
X94951109Y-106950632D01*
X94999078Y-106950632D01*
X94999078Y-106875600D01*
X95080167Y-106875600D01*
X95080167Y-106950632D01*
X95174347Y-106950632D01*
X95174347Y-107013158D01*
X95080167Y-107013158D01*
X95079926Y-107033170D01*
X95079874Y-107036312D01*
X95079615Y-107056358D01*
X95079581Y-107064742D01*
X95079581Y-107084480D01*
X95079581Y-107086040D01*
X95079674Y-107106355D01*
X95079678Y-107112321D01*
X95082042Y-107131875D01*
X95090772Y-107149480D01*
X95096482Y-107155307D01*
X95114795Y-107164479D01*
X95135224Y-107168353D01*
X95155537Y-107169459D01*
X95158325Y-107169473D01*
X95168485Y-107169473D01*
X95175422Y-107169473D01*
G37*
G36*
X95496064Y-107232000D02*
G01*
X95411751Y-107232000D01*
X95411861Y-107211542D01*
X95412029Y-107191549D01*
X95412142Y-107179341D01*
X95412331Y-107158150D01*
X95412478Y-107137980D01*
X95412533Y-107123165D01*
X95412406Y-107103446D01*
X95412240Y-107091706D01*
X95412072Y-107071388D01*
X95412044Y-107061030D01*
X95410035Y-107041007D01*
X95403056Y-107024002D01*
X95386050Y-107014217D01*
X95374626Y-107013158D01*
X95355128Y-107016229D01*
X95343168Y-107020290D01*
X95325069Y-107028325D01*
X95307313Y-107038168D01*
X95308094Y-107232000D01*
X95223782Y-107232000D01*
X95223837Y-107211680D01*
X95223934Y-107191921D01*
X95224060Y-107170554D01*
X95224173Y-107152963D01*
X95224305Y-107130282D01*
X95224411Y-107106791D01*
X95224477Y-107086597D01*
X95224525Y-107065839D01*
X95224554Y-107044518D01*
X95224563Y-107022635D01*
X95224540Y-107000855D01*
X95224481Y-106979991D01*
X95224384Y-106957710D01*
X95224270Y-106937052D01*
X95224180Y-106915454D01*
X95224081Y-106893062D01*
X95223988Y-106873236D01*
X95223888Y-106852826D01*
X95223782Y-106831832D01*
X95308094Y-106831832D01*
X95307215Y-106975349D01*
X95307801Y-106975642D01*
X95325747Y-106967015D01*
X95344525Y-106959405D01*
X95362316Y-106953367D01*
X95381455Y-106948250D01*
X95401810Y-106944941D01*
X95413119Y-106944379D01*
X95433212Y-106946242D01*
X95452656Y-106952680D01*
X95469067Y-106963716D01*
X95473398Y-106967924D01*
X95485196Y-106984182D01*
X95492624Y-107003645D01*
X95495574Y-107023902D01*
X95495771Y-107031232D01*
X95495732Y-107050905D01*
X95495586Y-107071641D01*
X95495380Y-107086528D01*
X95495160Y-107106874D01*
X95495087Y-107123751D01*
X95495142Y-107144103D01*
X95495289Y-107164786D01*
X95495478Y-107183151D01*
X95495723Y-107204130D01*
X95495969Y-107224486D01*
X95496064Y-107232000D01*
G37*
G36*
X95711559Y-106945395D02*
G01*
X95731270Y-106948821D01*
X95744898Y-106952976D01*
X95762853Y-106961301D01*
X95779736Y-106973440D01*
X95785150Y-106978573D01*
X95798453Y-106994835D01*
X95808762Y-107013433D01*
X95813970Y-107027129D01*
X95819143Y-107047909D01*
X95821982Y-107068945D01*
X95823021Y-107089622D01*
X95823056Y-107094442D01*
X95632351Y-107094442D01*
X95635861Y-107114168D01*
X95644270Y-107130199D01*
X95657923Y-107144255D01*
X95675469Y-107154973D01*
X95679832Y-107156968D01*
X95699214Y-107163346D01*
X95715101Y-107166640D01*
X95734567Y-107168765D01*
X95754458Y-107169471D01*
X95755840Y-107169473D01*
X95775990Y-107169473D01*
X95786322Y-107169473D01*
X95805275Y-107169473D01*
X95796873Y-107232000D01*
X95777431Y-107232000D01*
X95757883Y-107232000D01*
X95746266Y-107232000D01*
X95725865Y-107231499D01*
X95703775Y-107229703D01*
X95682991Y-107226599D01*
X95663515Y-107222189D01*
X95661172Y-107221546D01*
X95641115Y-107214768D01*
X95622820Y-107206306D01*
X95604559Y-107194928D01*
X95597864Y-107189794D01*
X95582573Y-107175131D01*
X95570656Y-107159613D01*
X95562400Y-107145440D01*
X95554724Y-107126603D01*
X95550234Y-107106496D01*
X95548918Y-107087115D01*
X95550084Y-107066172D01*
X95551760Y-107056926D01*
X95628346Y-107056926D01*
X95744117Y-107056926D01*
X95740636Y-107037106D01*
X95732408Y-107018150D01*
X95727508Y-107011399D01*
X95711888Y-106999198D01*
X95691587Y-106994466D01*
X95688527Y-106994400D01*
X95669020Y-106997616D01*
X95651690Y-107008201D01*
X95648667Y-107011204D01*
X95637083Y-107028226D01*
X95630078Y-107048185D01*
X95628346Y-107056926D01*
X95551760Y-107056926D01*
X95553582Y-107046869D01*
X95558785Y-107030743D01*
X95567990Y-107012448D01*
X95579469Y-106996233D01*
X95591025Y-106983360D01*
X95606037Y-106970455D01*
X95623522Y-106960023D01*
X95636552Y-106954442D01*
X95655396Y-106948713D01*
X95676189Y-106945175D01*
X95691946Y-106944379D01*
X95711559Y-106945395D01*
G37*
G36*
X96210425Y-107013158D02*
G01*
X96191249Y-107018786D01*
X96171916Y-107024955D01*
X96159916Y-107028985D01*
X96140760Y-107035785D01*
X96120730Y-107043407D01*
X96100706Y-107051375D01*
X96087131Y-107056926D01*
X96086992Y-107077143D01*
X96086936Y-107082718D01*
X96086860Y-107102710D01*
X96086838Y-107120625D01*
X96086884Y-107142143D01*
X96087007Y-107163148D01*
X96087182Y-107183227D01*
X96087229Y-107187840D01*
X96087487Y-107208105D01*
X96087700Y-107228304D01*
X96087718Y-107232000D01*
X96003405Y-107232000D01*
X96003558Y-107211964D01*
X96003796Y-107190674D01*
X96003985Y-107170282D01*
X96004101Y-107149198D01*
X96004162Y-107128465D01*
X96004186Y-107105600D01*
X96004187Y-107102160D01*
X96004152Y-107082386D01*
X96004060Y-107061564D01*
X96003929Y-107040508D01*
X96003893Y-107035531D01*
X96003790Y-107015130D01*
X96003674Y-106994180D01*
X96003545Y-106972681D01*
X96003405Y-106950632D01*
X96085959Y-106950632D01*
X96085568Y-106988147D01*
X96086154Y-106988538D01*
X96104538Y-106978761D01*
X96123822Y-106969446D01*
X96142135Y-106961378D01*
X96161197Y-106953684D01*
X96179706Y-106947090D01*
X96188932Y-106944379D01*
X96210425Y-107013158D01*
G37*
G36*
X96327662Y-106906863D02*
G01*
X96240516Y-106906863D01*
X96240516Y-106844337D01*
X96327662Y-106844337D01*
X96327662Y-106906863D01*
G37*
G36*
X96326294Y-107232000D02*
G01*
X96241884Y-107232000D01*
X96241981Y-107211361D01*
X96242142Y-107190896D01*
X96242274Y-107175824D01*
X96242488Y-107154672D01*
X96242641Y-107134205D01*
X96242732Y-107114421D01*
X96242763Y-107095321D01*
X96242744Y-107075242D01*
X96242687Y-107054571D01*
X96242591Y-107033308D01*
X96242568Y-107028985D01*
X96242474Y-107008725D01*
X96242303Y-106987075D01*
X96242086Y-106966662D01*
X96241884Y-106950632D01*
X96326294Y-106950632D01*
X96326121Y-106972122D01*
X96325933Y-106992298D01*
X96325706Y-107013175D01*
X96325610Y-107021071D01*
X96325404Y-107041248D01*
X96325284Y-107060810D01*
X96325225Y-107081702D01*
X96325219Y-107091413D01*
X96325236Y-107113942D01*
X96325288Y-107134342D01*
X96325392Y-107155450D01*
X96325567Y-107176025D01*
X96325708Y-107186961D01*
X96326042Y-107207005D01*
X96326273Y-107226636D01*
X96326294Y-107232000D01*
G37*
G36*
X96630691Y-106950511D02*
G01*
X96633942Y-106950534D01*
X96654085Y-106950628D01*
X96658367Y-106950632D01*
X96658256Y-106971243D01*
X96658088Y-106990889D01*
X96657976Y-107002802D01*
X96657848Y-107022940D01*
X96657756Y-107043004D01*
X96657701Y-107062996D01*
X96657683Y-107082914D01*
X96657710Y-107102931D01*
X96657784Y-107122849D01*
X96657878Y-107140262D01*
X96658033Y-107160511D01*
X96658130Y-107181447D01*
X96658170Y-107203070D01*
X96658171Y-107207478D01*
X96657096Y-107228995D01*
X96653872Y-107248510D01*
X96647676Y-107268071D01*
X96640976Y-107281532D01*
X96628722Y-107298469D01*
X96613453Y-107312887D01*
X96597134Y-107323709D01*
X96591151Y-107326863D01*
X96572295Y-107335088D01*
X96552365Y-107341884D01*
X96531360Y-107347252D01*
X96512099Y-107350776D01*
X96509281Y-107351190D01*
X96489693Y-107353674D01*
X96467696Y-107355689D01*
X96446114Y-107356825D01*
X96424947Y-107357082D01*
X96422330Y-107357052D01*
X96413635Y-107294526D01*
X96434091Y-107293875D01*
X96455181Y-107292785D01*
X96474794Y-107291302D01*
X96494270Y-107289103D01*
X96514180Y-107285428D01*
X96521786Y-107283486D01*
X96540255Y-107276791D01*
X96556966Y-107266489D01*
X96560963Y-107262579D01*
X96570691Y-107245624D01*
X96572784Y-107232000D01*
X96567704Y-107232000D01*
X96562330Y-107232000D01*
X96541841Y-107231076D01*
X96522393Y-107228634D01*
X96502163Y-107224665D01*
X96500097Y-107224184D01*
X96480466Y-107218621D01*
X96461340Y-107210938D01*
X96444801Y-107201616D01*
X96428276Y-107189489D01*
X96414118Y-107175703D01*
X96401276Y-107158621D01*
X96400251Y-107156968D01*
X96391698Y-107138877D01*
X96386314Y-107117943D01*
X96384176Y-107096671D01*
X96384127Y-107094051D01*
X96468443Y-107094051D01*
X96470611Y-107114195D01*
X96477704Y-107132843D01*
X96478311Y-107133912D01*
X96490523Y-107149250D01*
X96507424Y-107161267D01*
X96525907Y-107168808D01*
X96536831Y-107171818D01*
X96556920Y-107175081D01*
X96571221Y-107175726D01*
X96574738Y-107175726D01*
X96578060Y-107175726D01*
X96578124Y-107155494D01*
X96578157Y-107146612D01*
X96578284Y-107125543D01*
X96578343Y-107105895D01*
X96578353Y-107094344D01*
X96578318Y-107074089D01*
X96578255Y-107057610D01*
X96578120Y-107037089D01*
X96577917Y-107017433D01*
X96577864Y-107013158D01*
X96574445Y-107013158D01*
X96571025Y-107013158D01*
X96550776Y-107014150D01*
X96540055Y-107015698D01*
X96520367Y-107021365D01*
X96510746Y-107025468D01*
X96493735Y-107036074D01*
X96480084Y-107051788D01*
X96479385Y-107052921D01*
X96471531Y-107071057D01*
X96468486Y-107091211D01*
X96468443Y-107094051D01*
X96384127Y-107094051D01*
X96384033Y-107089069D01*
X96385741Y-107067987D01*
X96390865Y-107048265D01*
X96399404Y-107029903D01*
X96405624Y-107020290D01*
X96419168Y-107004353D01*
X96435509Y-106990394D01*
X96452383Y-106979648D01*
X96466489Y-106972614D01*
X96485490Y-106965227D01*
X96506223Y-106959457D01*
X96526573Y-106955614D01*
X96546839Y-106953111D01*
X96567045Y-106951574D01*
X96589315Y-106950684D01*
X96610495Y-106950436D01*
X96630691Y-106950511D01*
G37*
G36*
X97008025Y-107232000D02*
G01*
X96923712Y-107232000D01*
X96923822Y-107211542D01*
X96923990Y-107191549D01*
X96924103Y-107179341D01*
X96924292Y-107158150D01*
X96924439Y-107137980D01*
X96924494Y-107123165D01*
X96924367Y-107103446D01*
X96924200Y-107091706D01*
X96924033Y-107071388D01*
X96924005Y-107061030D01*
X96921996Y-107041007D01*
X96915017Y-107024002D01*
X96898011Y-107014217D01*
X96886587Y-107013158D01*
X96867088Y-107016229D01*
X96855129Y-107020290D01*
X96837030Y-107028325D01*
X96819274Y-107038168D01*
X96820055Y-107232000D01*
X96735743Y-107232000D01*
X96735798Y-107211680D01*
X96735895Y-107191921D01*
X96736021Y-107170554D01*
X96736133Y-107152963D01*
X96736266Y-107130282D01*
X96736372Y-107106791D01*
X96736438Y-107086597D01*
X96736486Y-107065839D01*
X96736515Y-107044518D01*
X96736524Y-107022635D01*
X96736501Y-107000855D01*
X96736442Y-106979991D01*
X96736345Y-106957710D01*
X96736231Y-106937052D01*
X96736141Y-106915454D01*
X96736042Y-106893062D01*
X96735949Y-106873236D01*
X96735849Y-106852826D01*
X96735743Y-106831832D01*
X96820055Y-106831832D01*
X96819176Y-106975349D01*
X96819762Y-106975642D01*
X96837708Y-106967015D01*
X96856486Y-106959405D01*
X96874277Y-106953367D01*
X96893416Y-106948250D01*
X96913771Y-106944941D01*
X96925080Y-106944379D01*
X96945173Y-106946242D01*
X96964617Y-106952680D01*
X96981027Y-106963716D01*
X96985359Y-106967924D01*
X96997157Y-106984182D01*
X97004585Y-107003645D01*
X97007535Y-107023902D01*
X97007732Y-107031232D01*
X97007693Y-107050905D01*
X97007547Y-107071641D01*
X97007341Y-107086528D01*
X97007121Y-107106874D01*
X97007048Y-107123751D01*
X97007103Y-107144103D01*
X97007250Y-107164786D01*
X97007438Y-107183151D01*
X97007684Y-107204130D01*
X97007930Y-107224486D01*
X97008025Y-107232000D01*
G37*
G36*
X97273956Y-107169473D02*
G01*
X97266043Y-107232000D01*
X97253147Y-107232000D01*
X97233058Y-107232000D01*
X97229504Y-107232000D01*
X97209423Y-107231391D01*
X97187441Y-107229056D01*
X97167767Y-107224968D01*
X97147732Y-107217986D01*
X97128681Y-107207087D01*
X97113849Y-107193110D01*
X97103255Y-107176092D01*
X97096898Y-107156034D01*
X97094813Y-107135988D01*
X97094780Y-107132935D01*
X97094814Y-107111861D01*
X97094918Y-107091896D01*
X97095073Y-107074707D01*
X97095311Y-107053458D01*
X97095433Y-107032049D01*
X97095464Y-107013158D01*
X97049644Y-107013158D01*
X97049644Y-106950632D01*
X97097613Y-106950632D01*
X97097613Y-106875600D01*
X97178702Y-106875600D01*
X97178702Y-106950632D01*
X97272882Y-106950632D01*
X97272882Y-107013158D01*
X97178702Y-107013158D01*
X97178461Y-107033170D01*
X97178408Y-107036312D01*
X97178150Y-107056358D01*
X97178115Y-107064742D01*
X97178115Y-107084480D01*
X97178115Y-107086040D01*
X97178208Y-107106355D01*
X97178213Y-107112321D01*
X97180576Y-107131875D01*
X97189306Y-107149480D01*
X97195017Y-107155307D01*
X97213330Y-107164479D01*
X97233759Y-107168353D01*
X97254072Y-107169459D01*
X97256859Y-107169473D01*
X97267020Y-107169473D01*
X97273956Y-107169473D01*
G37*
G36*
X97516889Y-106950470D02*
G01*
X97537663Y-106951157D01*
X97559138Y-106952504D01*
X97580407Y-106954734D01*
X97582581Y-106955028D01*
X97601841Y-106958493D01*
X97620823Y-106963611D01*
X97639527Y-106970384D01*
X97649797Y-106974861D01*
X97668557Y-106985145D01*
X97684721Y-106997423D01*
X97698288Y-107011695D01*
X97704703Y-107020485D01*
X97714852Y-107039387D01*
X97721243Y-107059701D01*
X97723780Y-107079191D01*
X97723949Y-107085942D01*
X97722740Y-107106446D01*
X97718490Y-107127499D01*
X97711179Y-107146419D01*
X97704605Y-107157847D01*
X97692665Y-107173390D01*
X97678608Y-107187155D01*
X97662434Y-107199143D01*
X97652533Y-107205035D01*
X97634004Y-107213763D01*
X97613882Y-107220735D01*
X97594207Y-107225551D01*
X97574208Y-107228952D01*
X97552980Y-107231238D01*
X97532561Y-107232000D01*
X97533440Y-107357052D01*
X97448932Y-107357052D01*
X97449007Y-107335950D01*
X97449117Y-107315077D01*
X97449231Y-107295214D01*
X97449323Y-107279969D01*
X97449435Y-107259621D01*
X97449529Y-107238635D01*
X97449603Y-107217009D01*
X97449658Y-107194743D01*
X97449695Y-107171839D01*
X97449712Y-107148295D01*
X97449713Y-107138699D01*
X97449690Y-107116866D01*
X97449661Y-107106654D01*
X97529043Y-107106654D01*
X97529078Y-107126353D01*
X97529141Y-107143681D01*
X97529214Y-107163318D01*
X97529239Y-107175726D01*
X97548794Y-107174678D01*
X97566461Y-107172013D01*
X97585685Y-107167002D01*
X97597431Y-107161951D01*
X97614589Y-107150383D01*
X97628111Y-107135157D01*
X97628792Y-107134107D01*
X97636506Y-107115981D01*
X97639444Y-107095111D01*
X97639539Y-107090143D01*
X97636920Y-107069765D01*
X97630258Y-107053800D01*
X97617886Y-107037798D01*
X97605443Y-107028301D01*
X97587540Y-107020162D01*
X97574180Y-107016577D01*
X97554331Y-107013812D01*
X97537739Y-107013158D01*
X97533831Y-107013158D01*
X97529532Y-107013158D01*
X97529338Y-107032799D01*
X97529239Y-107040611D01*
X97529120Y-107060385D01*
X97529063Y-107081440D01*
X97529044Y-107101278D01*
X97529043Y-107106654D01*
X97449661Y-107106654D01*
X97449631Y-107095773D01*
X97449549Y-107076014D01*
X97449438Y-107055039D01*
X97449420Y-107051944D01*
X97449330Y-107030099D01*
X97449231Y-107008077D01*
X97449122Y-106985876D01*
X97449004Y-106963499D01*
X97448932Y-106950632D01*
X97468790Y-106950372D01*
X97473063Y-106950339D01*
X97492865Y-106950242D01*
X97494263Y-106950241D01*
X97516889Y-106950470D01*
G37*
G36*
X97866978Y-106906863D02*
G01*
X97779832Y-106906863D01*
X97779832Y-106844337D01*
X97866978Y-106844337D01*
X97866978Y-106906863D01*
G37*
G36*
X97865610Y-107232000D02*
G01*
X97781200Y-107232000D01*
X97781297Y-107211361D01*
X97781458Y-107190896D01*
X97781591Y-107175824D01*
X97781804Y-107154672D01*
X97781957Y-107134205D01*
X97782049Y-107114421D01*
X97782079Y-107095321D01*
X97782060Y-107075242D01*
X97782003Y-107054571D01*
X97781907Y-107033308D01*
X97781884Y-107028985D01*
X97781790Y-107008725D01*
X97781619Y-106987075D01*
X97781402Y-106966662D01*
X97781200Y-106950632D01*
X97865610Y-106950632D01*
X97865438Y-106972122D01*
X97865249Y-106992298D01*
X97865022Y-107013175D01*
X97864926Y-107021071D01*
X97864720Y-107041248D01*
X97864600Y-107060810D01*
X97864542Y-107081702D01*
X97864535Y-107091413D01*
X97864553Y-107113942D01*
X97864604Y-107134342D01*
X97864708Y-107155450D01*
X97864883Y-107176025D01*
X97865024Y-107186961D01*
X97865358Y-107207005D01*
X97865589Y-107226636D01*
X97865610Y-107232000D01*
G37*
G36*
X98217906Y-107232000D02*
G01*
X98133593Y-107232000D01*
X98133746Y-107211720D01*
X98133984Y-107190283D01*
X98134207Y-107169074D01*
X98134351Y-107148206D01*
X98134375Y-107137624D01*
X98134340Y-107117387D01*
X98134277Y-107098936D01*
X98134154Y-107079371D01*
X98133886Y-107061030D01*
X98131684Y-107040447D01*
X98125191Y-107024491D01*
X98108219Y-107014265D01*
X98096566Y-107013158D01*
X98076511Y-107016356D01*
X98064326Y-107020583D01*
X98046350Y-107028692D01*
X98029351Y-107038168D01*
X98029222Y-107058797D01*
X98029155Y-107068650D01*
X98029036Y-107088901D01*
X98028967Y-107109262D01*
X98028960Y-107116912D01*
X98029017Y-107138448D01*
X98029151Y-107158128D01*
X98029361Y-107179664D01*
X98029448Y-107187254D01*
X98029684Y-107207344D01*
X98029898Y-107226920D01*
X98029937Y-107232000D01*
X97945624Y-107232000D01*
X97945809Y-107211031D01*
X97946015Y-107193409D01*
X97946204Y-107172940D01*
X97946320Y-107150827D01*
X97946381Y-107128453D01*
X97946404Y-107107027D01*
X97946406Y-107099424D01*
X97946382Y-107079328D01*
X97946313Y-107059047D01*
X97946197Y-107038579D01*
X97946113Y-107027129D01*
X97945995Y-107006187D01*
X97945862Y-106984796D01*
X97945713Y-106962958D01*
X97945624Y-106950632D01*
X98028276Y-106950632D01*
X98028080Y-106975642D01*
X98028374Y-106976131D01*
X98046665Y-106967281D01*
X98065672Y-106959540D01*
X98083572Y-106953465D01*
X98102780Y-106948292D01*
X98123396Y-106944947D01*
X98134961Y-106944379D01*
X98155055Y-106946242D01*
X98174499Y-106952680D01*
X98190909Y-106963716D01*
X98195240Y-106967924D01*
X98207038Y-106984182D01*
X98214467Y-107003645D01*
X98217416Y-107023902D01*
X98217613Y-107031232D01*
X98217575Y-107050905D01*
X98217428Y-107071641D01*
X98217222Y-107086528D01*
X98217002Y-107106874D01*
X98216929Y-107123751D01*
X98216998Y-107144583D01*
X98217160Y-107164442D01*
X98217387Y-107184255D01*
X98217418Y-107186570D01*
X98217675Y-107207001D01*
X98217883Y-107227021D01*
X98217906Y-107232000D01*
G37*
G36*
X98488332Y-107148175D02*
G01*
X98485584Y-107168503D01*
X98477341Y-107186254D01*
X98475826Y-107188427D01*
X98462643Y-107203108D01*
X98446540Y-107214914D01*
X98444173Y-107216270D01*
X98426352Y-107224479D01*
X98407155Y-107230281D01*
X98394738Y-107232879D01*
X98374463Y-107235938D01*
X98354073Y-107237727D01*
X98335436Y-107238252D01*
X98315259Y-107237418D01*
X98299288Y-107235126D01*
X98279553Y-107232076D01*
X98277501Y-107232000D01*
X98270956Y-107169473D01*
X98290961Y-107173022D01*
X98291863Y-107173186D01*
X98312147Y-107175426D01*
X98323712Y-107175726D01*
X98343608Y-107174809D01*
X98344326Y-107174749D01*
X98364098Y-107171373D01*
X98366015Y-107170841D01*
X98384196Y-107162456D01*
X98385945Y-107160583D01*
X98390732Y-107146221D01*
X98385359Y-107133032D01*
X98369080Y-107121613D01*
X98368360Y-107121211D01*
X98350459Y-107111701D01*
X98344228Y-107108803D01*
X98326128Y-107099703D01*
X98317655Y-107094735D01*
X98301941Y-107082708D01*
X98289323Y-107066794D01*
X98282081Y-107048570D01*
X98280041Y-107030841D01*
X98282997Y-107010471D01*
X98291863Y-106992153D01*
X98305672Y-106977009D01*
X98322050Y-106965760D01*
X98327913Y-106962648D01*
X98346594Y-106955155D01*
X98366319Y-106950240D01*
X98374515Y-106948873D01*
X98394211Y-106946409D01*
X98414526Y-106944795D01*
X98425024Y-106944379D01*
X98445154Y-106944252D01*
X98457948Y-106944281D01*
X98475631Y-106944379D01*
X98482763Y-107006905D01*
X98467229Y-107006905D01*
X98446951Y-107006905D01*
X98438799Y-107006905D01*
X98419159Y-107008027D01*
X98416524Y-107008371D01*
X98397766Y-107012572D01*
X98382233Y-107021658D01*
X98377152Y-107033577D01*
X98383600Y-107047645D01*
X98399950Y-107058544D01*
X98400600Y-107058880D01*
X98418698Y-107068314D01*
X98426001Y-107071874D01*
X98443909Y-107081025D01*
X98450034Y-107084575D01*
X98465694Y-107096430D01*
X98478562Y-107111734D01*
X98486462Y-107130814D01*
X98488332Y-107148175D01*
G37*
D11*
X105133333Y-88940386D02*
X105666667Y-88940386D01*
X105400000Y-89207053D02*
X105400000Y-88673720D01*
X106133334Y-88873720D02*
X106133334Y-89207053D01*
X105900000Y-88507053D02*
X106133334Y-88873720D01*
X106133334Y-88873720D02*
X106366667Y-88507053D01*
D12*
X95878571Y-90377190D02*
X95854762Y-90401000D01*
X95854762Y-90401000D02*
X95783333Y-90424809D01*
X95783333Y-90424809D02*
X95735714Y-90424809D01*
X95735714Y-90424809D02*
X95664286Y-90401000D01*
X95664286Y-90401000D02*
X95616667Y-90353380D01*
X95616667Y-90353380D02*
X95592857Y-90305761D01*
X95592857Y-90305761D02*
X95569048Y-90210523D01*
X95569048Y-90210523D02*
X95569048Y-90139095D01*
X95569048Y-90139095D02*
X95592857Y-90043857D01*
X95592857Y-90043857D02*
X95616667Y-89996238D01*
X95616667Y-89996238D02*
X95664286Y-89948619D01*
X95664286Y-89948619D02*
X95735714Y-89924809D01*
X95735714Y-89924809D02*
X95783333Y-89924809D01*
X95783333Y-89924809D02*
X95854762Y-89948619D01*
X95854762Y-89948619D02*
X95878571Y-89972428D01*
X96354762Y-90424809D02*
X96069048Y-90424809D01*
X96211905Y-90424809D02*
X96211905Y-89924809D01*
X96211905Y-89924809D02*
X96164286Y-89996238D01*
X96164286Y-89996238D02*
X96116667Y-90043857D01*
X96116667Y-90043857D02*
X96069048Y-90067666D01*
X96664285Y-89924809D02*
X96711904Y-89924809D01*
X96711904Y-89924809D02*
X96759523Y-89948619D01*
X96759523Y-89948619D02*
X96783333Y-89972428D01*
X96783333Y-89972428D02*
X96807142Y-90020047D01*
X96807142Y-90020047D02*
X96830952Y-90115285D01*
X96830952Y-90115285D02*
X96830952Y-90234333D01*
X96830952Y-90234333D02*
X96807142Y-90329571D01*
X96807142Y-90329571D02*
X96783333Y-90377190D01*
X96783333Y-90377190D02*
X96759523Y-90401000D01*
X96759523Y-90401000D02*
X96711904Y-90424809D01*
X96711904Y-90424809D02*
X96664285Y-90424809D01*
X96664285Y-90424809D02*
X96616666Y-90401000D01*
X96616666Y-90401000D02*
X96592857Y-90377190D01*
X96592857Y-90377190D02*
X96569047Y-90329571D01*
X96569047Y-90329571D02*
X96545238Y-90234333D01*
X96545238Y-90234333D02*
X96545238Y-90115285D01*
X96545238Y-90115285D02*
X96569047Y-90020047D01*
X96569047Y-90020047D02*
X96592857Y-89972428D01*
X96592857Y-89972428D02*
X96616666Y-89948619D01*
X96616666Y-89948619D02*
X96664285Y-89924809D01*
D10*
X90190952Y-95126109D02*
X90190952Y-94626109D01*
X90190952Y-94626109D02*
X90310000Y-94626109D01*
X90310000Y-94626109D02*
X90381428Y-94649919D01*
X90381428Y-94649919D02*
X90429047Y-94697538D01*
X90429047Y-94697538D02*
X90452857Y-94745157D01*
X90452857Y-94745157D02*
X90476666Y-94840395D01*
X90476666Y-94840395D02*
X90476666Y-94911823D01*
X90476666Y-94911823D02*
X90452857Y-95007061D01*
X90452857Y-95007061D02*
X90429047Y-95054680D01*
X90429047Y-95054680D02*
X90381428Y-95102300D01*
X90381428Y-95102300D02*
X90310000Y-95126109D01*
X90310000Y-95126109D02*
X90190952Y-95126109D01*
X90643333Y-94626109D02*
X90952857Y-94626109D01*
X90952857Y-94626109D02*
X90786190Y-94816585D01*
X90786190Y-94816585D02*
X90857619Y-94816585D01*
X90857619Y-94816585D02*
X90905238Y-94840395D01*
X90905238Y-94840395D02*
X90929047Y-94864204D01*
X90929047Y-94864204D02*
X90952857Y-94911823D01*
X90952857Y-94911823D02*
X90952857Y-95030871D01*
X90952857Y-95030871D02*
X90929047Y-95078490D01*
X90929047Y-95078490D02*
X90905238Y-95102300D01*
X90905238Y-95102300D02*
X90857619Y-95126109D01*
X90857619Y-95126109D02*
X90714762Y-95126109D01*
X90714762Y-95126109D02*
X90667143Y-95102300D01*
X90667143Y-95102300D02*
X90643333Y-95078490D01*
D13*
X89989999Y-93750419D02*
X89942380Y-93702800D01*
X89942380Y-93702800D02*
X89989999Y-93655180D01*
X89989999Y-93655180D02*
X90037618Y-93702800D01*
X90037618Y-93702800D02*
X89989999Y-93750419D01*
X89989999Y-93750419D02*
X89989999Y-93655180D01*
D12*
X105791666Y-103727190D02*
X105767857Y-103751000D01*
X105767857Y-103751000D02*
X105696428Y-103774809D01*
X105696428Y-103774809D02*
X105648809Y-103774809D01*
X105648809Y-103774809D02*
X105577381Y-103751000D01*
X105577381Y-103751000D02*
X105529762Y-103703380D01*
X105529762Y-103703380D02*
X105505952Y-103655761D01*
X105505952Y-103655761D02*
X105482143Y-103560523D01*
X105482143Y-103560523D02*
X105482143Y-103489095D01*
X105482143Y-103489095D02*
X105505952Y-103393857D01*
X105505952Y-103393857D02*
X105529762Y-103346238D01*
X105529762Y-103346238D02*
X105577381Y-103298619D01*
X105577381Y-103298619D02*
X105648809Y-103274809D01*
X105648809Y-103274809D02*
X105696428Y-103274809D01*
X105696428Y-103274809D02*
X105767857Y-103298619D01*
X105767857Y-103298619D02*
X105791666Y-103322428D01*
X106244047Y-103274809D02*
X106005952Y-103274809D01*
X106005952Y-103274809D02*
X105982143Y-103512904D01*
X105982143Y-103512904D02*
X106005952Y-103489095D01*
X106005952Y-103489095D02*
X106053571Y-103465285D01*
X106053571Y-103465285D02*
X106172619Y-103465285D01*
X106172619Y-103465285D02*
X106220238Y-103489095D01*
X106220238Y-103489095D02*
X106244047Y-103512904D01*
X106244047Y-103512904D02*
X106267857Y-103560523D01*
X106267857Y-103560523D02*
X106267857Y-103679571D01*
X106267857Y-103679571D02*
X106244047Y-103727190D01*
X106244047Y-103727190D02*
X106220238Y-103751000D01*
X106220238Y-103751000D02*
X106172619Y-103774809D01*
X106172619Y-103774809D02*
X106053571Y-103774809D01*
X106053571Y-103774809D02*
X106005952Y-103751000D01*
X106005952Y-103751000D02*
X105982143Y-103727190D01*
X89516666Y-113449809D02*
X89350000Y-113211714D01*
X89230952Y-113449809D02*
X89230952Y-112949809D01*
X89230952Y-112949809D02*
X89421428Y-112949809D01*
X89421428Y-112949809D02*
X89469047Y-112973619D01*
X89469047Y-112973619D02*
X89492857Y-112997428D01*
X89492857Y-112997428D02*
X89516666Y-113045047D01*
X89516666Y-113045047D02*
X89516666Y-113116476D01*
X89516666Y-113116476D02*
X89492857Y-113164095D01*
X89492857Y-113164095D02*
X89469047Y-113187904D01*
X89469047Y-113187904D02*
X89421428Y-113211714D01*
X89421428Y-113211714D02*
X89230952Y-113211714D01*
X89683333Y-112949809D02*
X89992857Y-112949809D01*
X89992857Y-112949809D02*
X89826190Y-113140285D01*
X89826190Y-113140285D02*
X89897619Y-113140285D01*
X89897619Y-113140285D02*
X89945238Y-113164095D01*
X89945238Y-113164095D02*
X89969047Y-113187904D01*
X89969047Y-113187904D02*
X89992857Y-113235523D01*
X89992857Y-113235523D02*
X89992857Y-113354571D01*
X89992857Y-113354571D02*
X89969047Y-113402190D01*
X89969047Y-113402190D02*
X89945238Y-113426000D01*
X89945238Y-113426000D02*
X89897619Y-113449809D01*
X89897619Y-113449809D02*
X89754762Y-113449809D01*
X89754762Y-113449809D02*
X89707143Y-113426000D01*
X89707143Y-113426000D02*
X89683333Y-113402190D01*
X102616666Y-94677190D02*
X102592857Y-94701000D01*
X102592857Y-94701000D02*
X102521428Y-94724809D01*
X102521428Y-94724809D02*
X102473809Y-94724809D01*
X102473809Y-94724809D02*
X102402381Y-94701000D01*
X102402381Y-94701000D02*
X102354762Y-94653380D01*
X102354762Y-94653380D02*
X102330952Y-94605761D01*
X102330952Y-94605761D02*
X102307143Y-94510523D01*
X102307143Y-94510523D02*
X102307143Y-94439095D01*
X102307143Y-94439095D02*
X102330952Y-94343857D01*
X102330952Y-94343857D02*
X102354762Y-94296238D01*
X102354762Y-94296238D02*
X102402381Y-94248619D01*
X102402381Y-94248619D02*
X102473809Y-94224809D01*
X102473809Y-94224809D02*
X102521428Y-94224809D01*
X102521428Y-94224809D02*
X102592857Y-94248619D01*
X102592857Y-94248619D02*
X102616666Y-94272428D01*
X103092857Y-94724809D02*
X102807143Y-94724809D01*
X102950000Y-94724809D02*
X102950000Y-94224809D01*
X102950000Y-94224809D02*
X102902381Y-94296238D01*
X102902381Y-94296238D02*
X102854762Y-94343857D01*
X102854762Y-94343857D02*
X102807143Y-94367666D01*
X89127190Y-107333333D02*
X89151000Y-107357142D01*
X89151000Y-107357142D02*
X89174809Y-107428571D01*
X89174809Y-107428571D02*
X89174809Y-107476190D01*
X89174809Y-107476190D02*
X89151000Y-107547618D01*
X89151000Y-107547618D02*
X89103380Y-107595237D01*
X89103380Y-107595237D02*
X89055761Y-107619047D01*
X89055761Y-107619047D02*
X88960523Y-107642856D01*
X88960523Y-107642856D02*
X88889095Y-107642856D01*
X88889095Y-107642856D02*
X88793857Y-107619047D01*
X88793857Y-107619047D02*
X88746238Y-107595237D01*
X88746238Y-107595237D02*
X88698619Y-107547618D01*
X88698619Y-107547618D02*
X88674809Y-107476190D01*
X88674809Y-107476190D02*
X88674809Y-107428571D01*
X88674809Y-107428571D02*
X88698619Y-107357142D01*
X88698619Y-107357142D02*
X88722428Y-107333333D01*
X88841476Y-106904761D02*
X89174809Y-106904761D01*
X88651000Y-107023809D02*
X89008142Y-107142856D01*
X89008142Y-107142856D02*
X89008142Y-106833333D01*
X111478571Y-111427190D02*
X111454762Y-111451000D01*
X111454762Y-111451000D02*
X111383333Y-111474809D01*
X111383333Y-111474809D02*
X111335714Y-111474809D01*
X111335714Y-111474809D02*
X111264286Y-111451000D01*
X111264286Y-111451000D02*
X111216667Y-111403380D01*
X111216667Y-111403380D02*
X111192857Y-111355761D01*
X111192857Y-111355761D02*
X111169048Y-111260523D01*
X111169048Y-111260523D02*
X111169048Y-111189095D01*
X111169048Y-111189095D02*
X111192857Y-111093857D01*
X111192857Y-111093857D02*
X111216667Y-111046238D01*
X111216667Y-111046238D02*
X111264286Y-110998619D01*
X111264286Y-110998619D02*
X111335714Y-110974809D01*
X111335714Y-110974809D02*
X111383333Y-110974809D01*
X111383333Y-110974809D02*
X111454762Y-110998619D01*
X111454762Y-110998619D02*
X111478571Y-111022428D01*
X111954762Y-111474809D02*
X111669048Y-111474809D01*
X111811905Y-111474809D02*
X111811905Y-110974809D01*
X111811905Y-110974809D02*
X111764286Y-111046238D01*
X111764286Y-111046238D02*
X111716667Y-111093857D01*
X111716667Y-111093857D02*
X111669048Y-111117666D01*
X112121428Y-110974809D02*
X112430952Y-110974809D01*
X112430952Y-110974809D02*
X112264285Y-111165285D01*
X112264285Y-111165285D02*
X112335714Y-111165285D01*
X112335714Y-111165285D02*
X112383333Y-111189095D01*
X112383333Y-111189095D02*
X112407142Y-111212904D01*
X112407142Y-111212904D02*
X112430952Y-111260523D01*
X112430952Y-111260523D02*
X112430952Y-111379571D01*
X112430952Y-111379571D02*
X112407142Y-111427190D01*
X112407142Y-111427190D02*
X112383333Y-111451000D01*
X112383333Y-111451000D02*
X112335714Y-111474809D01*
X112335714Y-111474809D02*
X112192857Y-111474809D01*
X112192857Y-111474809D02*
X112145238Y-111451000D01*
X112145238Y-111451000D02*
X112121428Y-111427190D01*
X101216666Y-88577190D02*
X101192857Y-88601000D01*
X101192857Y-88601000D02*
X101121428Y-88624809D01*
X101121428Y-88624809D02*
X101073809Y-88624809D01*
X101073809Y-88624809D02*
X101002381Y-88601000D01*
X101002381Y-88601000D02*
X100954762Y-88553380D01*
X100954762Y-88553380D02*
X100930952Y-88505761D01*
X100930952Y-88505761D02*
X100907143Y-88410523D01*
X100907143Y-88410523D02*
X100907143Y-88339095D01*
X100907143Y-88339095D02*
X100930952Y-88243857D01*
X100930952Y-88243857D02*
X100954762Y-88196238D01*
X100954762Y-88196238D02*
X101002381Y-88148619D01*
X101002381Y-88148619D02*
X101073809Y-88124809D01*
X101073809Y-88124809D02*
X101121428Y-88124809D01*
X101121428Y-88124809D02*
X101192857Y-88148619D01*
X101192857Y-88148619D02*
X101216666Y-88172428D01*
X101454762Y-88624809D02*
X101550000Y-88624809D01*
X101550000Y-88624809D02*
X101597619Y-88601000D01*
X101597619Y-88601000D02*
X101621428Y-88577190D01*
X101621428Y-88577190D02*
X101669047Y-88505761D01*
X101669047Y-88505761D02*
X101692857Y-88410523D01*
X101692857Y-88410523D02*
X101692857Y-88220047D01*
X101692857Y-88220047D02*
X101669047Y-88172428D01*
X101669047Y-88172428D02*
X101645238Y-88148619D01*
X101645238Y-88148619D02*
X101597619Y-88124809D01*
X101597619Y-88124809D02*
X101502381Y-88124809D01*
X101502381Y-88124809D02*
X101454762Y-88148619D01*
X101454762Y-88148619D02*
X101430952Y-88172428D01*
X101430952Y-88172428D02*
X101407143Y-88220047D01*
X101407143Y-88220047D02*
X101407143Y-88339095D01*
X101407143Y-88339095D02*
X101430952Y-88386714D01*
X101430952Y-88386714D02*
X101454762Y-88410523D01*
X101454762Y-88410523D02*
X101502381Y-88434333D01*
X101502381Y-88434333D02*
X101597619Y-88434333D01*
X101597619Y-88434333D02*
X101645238Y-88410523D01*
X101645238Y-88410523D02*
X101669047Y-88386714D01*
X101669047Y-88386714D02*
X101692857Y-88339095D01*
X92716666Y-83224809D02*
X92550000Y-82986714D01*
X92430952Y-83224809D02*
X92430952Y-82724809D01*
X92430952Y-82724809D02*
X92621428Y-82724809D01*
X92621428Y-82724809D02*
X92669047Y-82748619D01*
X92669047Y-82748619D02*
X92692857Y-82772428D01*
X92692857Y-82772428D02*
X92716666Y-82820047D01*
X92716666Y-82820047D02*
X92716666Y-82891476D01*
X92716666Y-82891476D02*
X92692857Y-82939095D01*
X92692857Y-82939095D02*
X92669047Y-82962904D01*
X92669047Y-82962904D02*
X92621428Y-82986714D01*
X92621428Y-82986714D02*
X92430952Y-82986714D01*
X92954762Y-83224809D02*
X93050000Y-83224809D01*
X93050000Y-83224809D02*
X93097619Y-83201000D01*
X93097619Y-83201000D02*
X93121428Y-83177190D01*
X93121428Y-83177190D02*
X93169047Y-83105761D01*
X93169047Y-83105761D02*
X93192857Y-83010523D01*
X93192857Y-83010523D02*
X93192857Y-82820047D01*
X93192857Y-82820047D02*
X93169047Y-82772428D01*
X93169047Y-82772428D02*
X93145238Y-82748619D01*
X93145238Y-82748619D02*
X93097619Y-82724809D01*
X93097619Y-82724809D02*
X93002381Y-82724809D01*
X93002381Y-82724809D02*
X92954762Y-82748619D01*
X92954762Y-82748619D02*
X92930952Y-82772428D01*
X92930952Y-82772428D02*
X92907143Y-82820047D01*
X92907143Y-82820047D02*
X92907143Y-82939095D01*
X92907143Y-82939095D02*
X92930952Y-82986714D01*
X92930952Y-82986714D02*
X92954762Y-83010523D01*
X92954762Y-83010523D02*
X93002381Y-83034333D01*
X93002381Y-83034333D02*
X93097619Y-83034333D01*
X93097619Y-83034333D02*
X93145238Y-83010523D01*
X93145238Y-83010523D02*
X93169047Y-82986714D01*
X93169047Y-82986714D02*
X93192857Y-82939095D01*
X89483334Y-88362904D02*
X89316667Y-88362904D01*
X89316667Y-88624809D02*
X89316667Y-88124809D01*
X89316667Y-88124809D02*
X89554762Y-88124809D01*
X89911905Y-88362904D02*
X89983333Y-88386714D01*
X89983333Y-88386714D02*
X90007143Y-88410523D01*
X90007143Y-88410523D02*
X90030952Y-88458142D01*
X90030952Y-88458142D02*
X90030952Y-88529571D01*
X90030952Y-88529571D02*
X90007143Y-88577190D01*
X90007143Y-88577190D02*
X89983333Y-88601000D01*
X89983333Y-88601000D02*
X89935714Y-88624809D01*
X89935714Y-88624809D02*
X89745238Y-88624809D01*
X89745238Y-88624809D02*
X89745238Y-88124809D01*
X89745238Y-88124809D02*
X89911905Y-88124809D01*
X89911905Y-88124809D02*
X89959524Y-88148619D01*
X89959524Y-88148619D02*
X89983333Y-88172428D01*
X89983333Y-88172428D02*
X90007143Y-88220047D01*
X90007143Y-88220047D02*
X90007143Y-88267666D01*
X90007143Y-88267666D02*
X89983333Y-88315285D01*
X89983333Y-88315285D02*
X89959524Y-88339095D01*
X89959524Y-88339095D02*
X89911905Y-88362904D01*
X89911905Y-88362904D02*
X89745238Y-88362904D01*
X90507143Y-88624809D02*
X90221429Y-88624809D01*
X90364286Y-88624809D02*
X90364286Y-88124809D01*
X90364286Y-88124809D02*
X90316667Y-88196238D01*
X90316667Y-88196238D02*
X90269048Y-88243857D01*
X90269048Y-88243857D02*
X90221429Y-88267666D01*
X92916666Y-87824809D02*
X92750000Y-87586714D01*
X92630952Y-87824809D02*
X92630952Y-87324809D01*
X92630952Y-87324809D02*
X92821428Y-87324809D01*
X92821428Y-87324809D02*
X92869047Y-87348619D01*
X92869047Y-87348619D02*
X92892857Y-87372428D01*
X92892857Y-87372428D02*
X92916666Y-87420047D01*
X92916666Y-87420047D02*
X92916666Y-87491476D01*
X92916666Y-87491476D02*
X92892857Y-87539095D01*
X92892857Y-87539095D02*
X92869047Y-87562904D01*
X92869047Y-87562904D02*
X92821428Y-87586714D01*
X92821428Y-87586714D02*
X92630952Y-87586714D01*
X93083333Y-87324809D02*
X93416666Y-87324809D01*
X93416666Y-87324809D02*
X93202381Y-87824809D01*
X111816666Y-106627190D02*
X111792857Y-106651000D01*
X111792857Y-106651000D02*
X111721428Y-106674809D01*
X111721428Y-106674809D02*
X111673809Y-106674809D01*
X111673809Y-106674809D02*
X111602381Y-106651000D01*
X111602381Y-106651000D02*
X111554762Y-106603380D01*
X111554762Y-106603380D02*
X111530952Y-106555761D01*
X111530952Y-106555761D02*
X111507143Y-106460523D01*
X111507143Y-106460523D02*
X111507143Y-106389095D01*
X111507143Y-106389095D02*
X111530952Y-106293857D01*
X111530952Y-106293857D02*
X111554762Y-106246238D01*
X111554762Y-106246238D02*
X111602381Y-106198619D01*
X111602381Y-106198619D02*
X111673809Y-106174809D01*
X111673809Y-106174809D02*
X111721428Y-106174809D01*
X111721428Y-106174809D02*
X111792857Y-106198619D01*
X111792857Y-106198619D02*
X111816666Y-106222428D01*
X111983333Y-106174809D02*
X112292857Y-106174809D01*
X112292857Y-106174809D02*
X112126190Y-106365285D01*
X112126190Y-106365285D02*
X112197619Y-106365285D01*
X112197619Y-106365285D02*
X112245238Y-106389095D01*
X112245238Y-106389095D02*
X112269047Y-106412904D01*
X112269047Y-106412904D02*
X112292857Y-106460523D01*
X112292857Y-106460523D02*
X112292857Y-106579571D01*
X112292857Y-106579571D02*
X112269047Y-106627190D01*
X112269047Y-106627190D02*
X112245238Y-106651000D01*
X112245238Y-106651000D02*
X112197619Y-106674809D01*
X112197619Y-106674809D02*
X112054762Y-106674809D01*
X112054762Y-106674809D02*
X112007143Y-106651000D01*
X112007143Y-106651000D02*
X111983333Y-106627190D01*
X95841666Y-119424809D02*
X95675000Y-119186714D01*
X95555952Y-119424809D02*
X95555952Y-118924809D01*
X95555952Y-118924809D02*
X95746428Y-118924809D01*
X95746428Y-118924809D02*
X95794047Y-118948619D01*
X95794047Y-118948619D02*
X95817857Y-118972428D01*
X95817857Y-118972428D02*
X95841666Y-119020047D01*
X95841666Y-119020047D02*
X95841666Y-119091476D01*
X95841666Y-119091476D02*
X95817857Y-119139095D01*
X95817857Y-119139095D02*
X95794047Y-119162904D01*
X95794047Y-119162904D02*
X95746428Y-119186714D01*
X95746428Y-119186714D02*
X95555952Y-119186714D01*
X96270238Y-119091476D02*
X96270238Y-119424809D01*
X96151190Y-118901000D02*
X96032143Y-119258142D01*
X96032143Y-119258142D02*
X96341666Y-119258142D01*
X102978571Y-86927190D02*
X102954762Y-86951000D01*
X102954762Y-86951000D02*
X102883333Y-86974809D01*
X102883333Y-86974809D02*
X102835714Y-86974809D01*
X102835714Y-86974809D02*
X102764286Y-86951000D01*
X102764286Y-86951000D02*
X102716667Y-86903380D01*
X102716667Y-86903380D02*
X102692857Y-86855761D01*
X102692857Y-86855761D02*
X102669048Y-86760523D01*
X102669048Y-86760523D02*
X102669048Y-86689095D01*
X102669048Y-86689095D02*
X102692857Y-86593857D01*
X102692857Y-86593857D02*
X102716667Y-86546238D01*
X102716667Y-86546238D02*
X102764286Y-86498619D01*
X102764286Y-86498619D02*
X102835714Y-86474809D01*
X102835714Y-86474809D02*
X102883333Y-86474809D01*
X102883333Y-86474809D02*
X102954762Y-86498619D01*
X102954762Y-86498619D02*
X102978571Y-86522428D01*
X103454762Y-86974809D02*
X103169048Y-86974809D01*
X103311905Y-86974809D02*
X103311905Y-86474809D01*
X103311905Y-86474809D02*
X103264286Y-86546238D01*
X103264286Y-86546238D02*
X103216667Y-86593857D01*
X103216667Y-86593857D02*
X103169048Y-86617666D01*
X103883333Y-86641476D02*
X103883333Y-86974809D01*
X103764285Y-86451000D02*
X103645238Y-86808142D01*
X103645238Y-86808142D02*
X103954761Y-86808142D01*
X102419047Y-104474809D02*
X102419047Y-104879571D01*
X102419047Y-104879571D02*
X102442857Y-104927190D01*
X102442857Y-104927190D02*
X102466666Y-104951000D01*
X102466666Y-104951000D02*
X102514285Y-104974809D01*
X102514285Y-104974809D02*
X102609523Y-104974809D01*
X102609523Y-104974809D02*
X102657142Y-104951000D01*
X102657142Y-104951000D02*
X102680952Y-104927190D01*
X102680952Y-104927190D02*
X102704761Y-104879571D01*
X102704761Y-104879571D02*
X102704761Y-104474809D01*
X103204762Y-104974809D02*
X102919048Y-104974809D01*
X103061905Y-104974809D02*
X103061905Y-104474809D01*
X103061905Y-104474809D02*
X103014286Y-104546238D01*
X103014286Y-104546238D02*
X102966667Y-104593857D01*
X102966667Y-104593857D02*
X102919048Y-104617666D01*
X113033333Y-101724809D02*
X113033333Y-102081952D01*
X113033333Y-102081952D02*
X113009524Y-102153380D01*
X113009524Y-102153380D02*
X112961905Y-102201000D01*
X112961905Y-102201000D02*
X112890476Y-102224809D01*
X112890476Y-102224809D02*
X112842857Y-102224809D01*
X113271428Y-102224809D02*
X113271428Y-101724809D01*
X113271428Y-101724809D02*
X113461904Y-101724809D01*
X113461904Y-101724809D02*
X113509523Y-101748619D01*
X113509523Y-101748619D02*
X113533333Y-101772428D01*
X113533333Y-101772428D02*
X113557142Y-101820047D01*
X113557142Y-101820047D02*
X113557142Y-101891476D01*
X113557142Y-101891476D02*
X113533333Y-101939095D01*
X113533333Y-101939095D02*
X113509523Y-101962904D01*
X113509523Y-101962904D02*
X113461904Y-101986714D01*
X113461904Y-101986714D02*
X113271428Y-101986714D01*
X114033333Y-102224809D02*
X113747619Y-102224809D01*
X113890476Y-102224809D02*
X113890476Y-101724809D01*
X113890476Y-101724809D02*
X113842857Y-101796238D01*
X113842857Y-101796238D02*
X113795238Y-101843857D01*
X113795238Y-101843857D02*
X113747619Y-101867666D01*
D10*
X86720952Y-95126109D02*
X86720952Y-94626109D01*
X86720952Y-94626109D02*
X86840000Y-94626109D01*
X86840000Y-94626109D02*
X86911428Y-94649919D01*
X86911428Y-94649919D02*
X86959047Y-94697538D01*
X86959047Y-94697538D02*
X86982857Y-94745157D01*
X86982857Y-94745157D02*
X87006666Y-94840395D01*
X87006666Y-94840395D02*
X87006666Y-94911823D01*
X87006666Y-94911823D02*
X86982857Y-95007061D01*
X86982857Y-95007061D02*
X86959047Y-95054680D01*
X86959047Y-95054680D02*
X86911428Y-95102300D01*
X86911428Y-95102300D02*
X86840000Y-95126109D01*
X86840000Y-95126109D02*
X86720952Y-95126109D01*
X87197143Y-94673728D02*
X87220952Y-94649919D01*
X87220952Y-94649919D02*
X87268571Y-94626109D01*
X87268571Y-94626109D02*
X87387619Y-94626109D01*
X87387619Y-94626109D02*
X87435238Y-94649919D01*
X87435238Y-94649919D02*
X87459047Y-94673728D01*
X87459047Y-94673728D02*
X87482857Y-94721347D01*
X87482857Y-94721347D02*
X87482857Y-94768966D01*
X87482857Y-94768966D02*
X87459047Y-94840395D01*
X87459047Y-94840395D02*
X87173333Y-95126109D01*
X87173333Y-95126109D02*
X87482857Y-95126109D01*
D13*
X86474999Y-93700419D02*
X86427380Y-93652800D01*
X86427380Y-93652800D02*
X86474999Y-93605180D01*
X86474999Y-93605180D02*
X86522618Y-93652800D01*
X86522618Y-93652800D02*
X86474999Y-93700419D01*
X86474999Y-93700419D02*
X86474999Y-93605180D01*
D12*
X90319047Y-113624809D02*
X90319047Y-114029571D01*
X90319047Y-114029571D02*
X90342857Y-114077190D01*
X90342857Y-114077190D02*
X90366666Y-114101000D01*
X90366666Y-114101000D02*
X90414285Y-114124809D01*
X90414285Y-114124809D02*
X90509523Y-114124809D01*
X90509523Y-114124809D02*
X90557142Y-114101000D01*
X90557142Y-114101000D02*
X90580952Y-114077190D01*
X90580952Y-114077190D02*
X90604761Y-114029571D01*
X90604761Y-114029571D02*
X90604761Y-113624809D01*
X90819048Y-113672428D02*
X90842857Y-113648619D01*
X90842857Y-113648619D02*
X90890476Y-113624809D01*
X90890476Y-113624809D02*
X91009524Y-113624809D01*
X91009524Y-113624809D02*
X91057143Y-113648619D01*
X91057143Y-113648619D02*
X91080952Y-113672428D01*
X91080952Y-113672428D02*
X91104762Y-113720047D01*
X91104762Y-113720047D02*
X91104762Y-113767666D01*
X91104762Y-113767666D02*
X91080952Y-113839095D01*
X91080952Y-113839095D02*
X90795238Y-114124809D01*
X90795238Y-114124809D02*
X91104762Y-114124809D01*
X89716666Y-91277190D02*
X89692857Y-91301000D01*
X89692857Y-91301000D02*
X89621428Y-91324809D01*
X89621428Y-91324809D02*
X89573809Y-91324809D01*
X89573809Y-91324809D02*
X89502381Y-91301000D01*
X89502381Y-91301000D02*
X89454762Y-91253380D01*
X89454762Y-91253380D02*
X89430952Y-91205761D01*
X89430952Y-91205761D02*
X89407143Y-91110523D01*
X89407143Y-91110523D02*
X89407143Y-91039095D01*
X89407143Y-91039095D02*
X89430952Y-90943857D01*
X89430952Y-90943857D02*
X89454762Y-90896238D01*
X89454762Y-90896238D02*
X89502381Y-90848619D01*
X89502381Y-90848619D02*
X89573809Y-90824809D01*
X89573809Y-90824809D02*
X89621428Y-90824809D01*
X89621428Y-90824809D02*
X89692857Y-90848619D01*
X89692857Y-90848619D02*
X89716666Y-90872428D01*
X90002381Y-91039095D02*
X89954762Y-91015285D01*
X89954762Y-91015285D02*
X89930952Y-90991476D01*
X89930952Y-90991476D02*
X89907143Y-90943857D01*
X89907143Y-90943857D02*
X89907143Y-90920047D01*
X89907143Y-90920047D02*
X89930952Y-90872428D01*
X89930952Y-90872428D02*
X89954762Y-90848619D01*
X89954762Y-90848619D02*
X90002381Y-90824809D01*
X90002381Y-90824809D02*
X90097619Y-90824809D01*
X90097619Y-90824809D02*
X90145238Y-90848619D01*
X90145238Y-90848619D02*
X90169047Y-90872428D01*
X90169047Y-90872428D02*
X90192857Y-90920047D01*
X90192857Y-90920047D02*
X90192857Y-90943857D01*
X90192857Y-90943857D02*
X90169047Y-90991476D01*
X90169047Y-90991476D02*
X90145238Y-91015285D01*
X90145238Y-91015285D02*
X90097619Y-91039095D01*
X90097619Y-91039095D02*
X90002381Y-91039095D01*
X90002381Y-91039095D02*
X89954762Y-91062904D01*
X89954762Y-91062904D02*
X89930952Y-91086714D01*
X89930952Y-91086714D02*
X89907143Y-91134333D01*
X89907143Y-91134333D02*
X89907143Y-91229571D01*
X89907143Y-91229571D02*
X89930952Y-91277190D01*
X89930952Y-91277190D02*
X89954762Y-91301000D01*
X89954762Y-91301000D02*
X90002381Y-91324809D01*
X90002381Y-91324809D02*
X90097619Y-91324809D01*
X90097619Y-91324809D02*
X90145238Y-91301000D01*
X90145238Y-91301000D02*
X90169047Y-91277190D01*
X90169047Y-91277190D02*
X90192857Y-91229571D01*
X90192857Y-91229571D02*
X90192857Y-91134333D01*
X90192857Y-91134333D02*
X90169047Y-91086714D01*
X90169047Y-91086714D02*
X90145238Y-91062904D01*
X90145238Y-91062904D02*
X90097619Y-91039095D01*
X99669047Y-112574809D02*
X99669047Y-112979571D01*
X99669047Y-112979571D02*
X99692857Y-113027190D01*
X99692857Y-113027190D02*
X99716666Y-113051000D01*
X99716666Y-113051000D02*
X99764285Y-113074809D01*
X99764285Y-113074809D02*
X99859523Y-113074809D01*
X99859523Y-113074809D02*
X99907142Y-113051000D01*
X99907142Y-113051000D02*
X99930952Y-113027190D01*
X99930952Y-113027190D02*
X99954761Y-112979571D01*
X99954761Y-112979571D02*
X99954761Y-112574809D01*
X100407143Y-112741476D02*
X100407143Y-113074809D01*
X100288095Y-112551000D02*
X100169048Y-112908142D01*
X100169048Y-112908142D02*
X100478571Y-112908142D01*
X92283333Y-119624809D02*
X92283333Y-119981952D01*
X92283333Y-119981952D02*
X92259524Y-120053380D01*
X92259524Y-120053380D02*
X92211905Y-120101000D01*
X92211905Y-120101000D02*
X92140476Y-120124809D01*
X92140476Y-120124809D02*
X92092857Y-120124809D01*
X92783333Y-120124809D02*
X92497619Y-120124809D01*
X92640476Y-120124809D02*
X92640476Y-119624809D01*
X92640476Y-119624809D02*
X92592857Y-119696238D01*
X92592857Y-119696238D02*
X92545238Y-119743857D01*
X92545238Y-119743857D02*
X92497619Y-119767666D01*
X98761905Y-91786714D02*
X98761905Y-92024809D01*
X98595239Y-91524809D02*
X98761905Y-91786714D01*
X98761905Y-91786714D02*
X98928572Y-91524809D01*
X99357143Y-92024809D02*
X99071429Y-92024809D01*
X99214286Y-92024809D02*
X99214286Y-91524809D01*
X99214286Y-91524809D02*
X99166667Y-91596238D01*
X99166667Y-91596238D02*
X99119048Y-91643857D01*
X99119048Y-91643857D02*
X99071429Y-91667666D01*
D14*
X101134285Y-86542067D02*
X101134285Y-86930638D01*
X101134285Y-86930638D02*
X101157142Y-86976352D01*
X101157142Y-86976352D02*
X101180000Y-86999210D01*
X101180000Y-86999210D02*
X101225714Y-87022067D01*
X101225714Y-87022067D02*
X101317142Y-87022067D01*
X101317142Y-87022067D02*
X101362857Y-86999210D01*
X101362857Y-86999210D02*
X101385714Y-86976352D01*
X101385714Y-86976352D02*
X101408571Y-86930638D01*
X101408571Y-86930638D02*
X101408571Y-86542067D01*
X101842857Y-86542067D02*
X101751428Y-86542067D01*
X101751428Y-86542067D02*
X101705714Y-86564924D01*
X101705714Y-86564924D02*
X101682857Y-86587781D01*
X101682857Y-86587781D02*
X101637142Y-86656352D01*
X101637142Y-86656352D02*
X101614285Y-86747781D01*
X101614285Y-86747781D02*
X101614285Y-86930638D01*
X101614285Y-86930638D02*
X101637142Y-86976352D01*
X101637142Y-86976352D02*
X101659999Y-86999210D01*
X101659999Y-86999210D02*
X101705714Y-87022067D01*
X101705714Y-87022067D02*
X101797142Y-87022067D01*
X101797142Y-87022067D02*
X101842857Y-86999210D01*
X101842857Y-86999210D02*
X101865714Y-86976352D01*
X101865714Y-86976352D02*
X101888571Y-86930638D01*
X101888571Y-86930638D02*
X101888571Y-86816352D01*
X101888571Y-86816352D02*
X101865714Y-86770638D01*
X101865714Y-86770638D02*
X101842857Y-86747781D01*
X101842857Y-86747781D02*
X101797142Y-86724924D01*
X101797142Y-86724924D02*
X101705714Y-86724924D01*
X101705714Y-86724924D02*
X101659999Y-86747781D01*
X101659999Y-86747781D02*
X101637142Y-86770638D01*
X101637142Y-86770638D02*
X101614285Y-86816352D01*
D12*
X85616666Y-100874809D02*
X85450000Y-100636714D01*
X85330952Y-100874809D02*
X85330952Y-100374809D01*
X85330952Y-100374809D02*
X85521428Y-100374809D01*
X85521428Y-100374809D02*
X85569047Y-100398619D01*
X85569047Y-100398619D02*
X85592857Y-100422428D01*
X85592857Y-100422428D02*
X85616666Y-100470047D01*
X85616666Y-100470047D02*
X85616666Y-100541476D01*
X85616666Y-100541476D02*
X85592857Y-100589095D01*
X85592857Y-100589095D02*
X85569047Y-100612904D01*
X85569047Y-100612904D02*
X85521428Y-100636714D01*
X85521428Y-100636714D02*
X85330952Y-100636714D01*
X86069047Y-100374809D02*
X85830952Y-100374809D01*
X85830952Y-100374809D02*
X85807143Y-100612904D01*
X85807143Y-100612904D02*
X85830952Y-100589095D01*
X85830952Y-100589095D02*
X85878571Y-100565285D01*
X85878571Y-100565285D02*
X85997619Y-100565285D01*
X85997619Y-100565285D02*
X86045238Y-100589095D01*
X86045238Y-100589095D02*
X86069047Y-100612904D01*
X86069047Y-100612904D02*
X86092857Y-100660523D01*
X86092857Y-100660523D02*
X86092857Y-100779571D01*
X86092857Y-100779571D02*
X86069047Y-100827190D01*
X86069047Y-100827190D02*
X86045238Y-100851000D01*
X86045238Y-100851000D02*
X85997619Y-100874809D01*
X85997619Y-100874809D02*
X85878571Y-100874809D01*
X85878571Y-100874809D02*
X85830952Y-100851000D01*
X85830952Y-100851000D02*
X85807143Y-100827190D01*
X114216666Y-122024809D02*
X114050000Y-121786714D01*
X113930952Y-122024809D02*
X113930952Y-121524809D01*
X113930952Y-121524809D02*
X114121428Y-121524809D01*
X114121428Y-121524809D02*
X114169047Y-121548619D01*
X114169047Y-121548619D02*
X114192857Y-121572428D01*
X114192857Y-121572428D02*
X114216666Y-121620047D01*
X114216666Y-121620047D02*
X114216666Y-121691476D01*
X114216666Y-121691476D02*
X114192857Y-121739095D01*
X114192857Y-121739095D02*
X114169047Y-121762904D01*
X114169047Y-121762904D02*
X114121428Y-121786714D01*
X114121428Y-121786714D02*
X113930952Y-121786714D01*
X114692857Y-122024809D02*
X114407143Y-122024809D01*
X114550000Y-122024809D02*
X114550000Y-121524809D01*
X114550000Y-121524809D02*
X114502381Y-121596238D01*
X114502381Y-121596238D02*
X114454762Y-121643857D01*
X114454762Y-121643857D02*
X114407143Y-121667666D01*
X90466666Y-104627190D02*
X90442857Y-104651000D01*
X90442857Y-104651000D02*
X90371428Y-104674809D01*
X90371428Y-104674809D02*
X90323809Y-104674809D01*
X90323809Y-104674809D02*
X90252381Y-104651000D01*
X90252381Y-104651000D02*
X90204762Y-104603380D01*
X90204762Y-104603380D02*
X90180952Y-104555761D01*
X90180952Y-104555761D02*
X90157143Y-104460523D01*
X90157143Y-104460523D02*
X90157143Y-104389095D01*
X90157143Y-104389095D02*
X90180952Y-104293857D01*
X90180952Y-104293857D02*
X90204762Y-104246238D01*
X90204762Y-104246238D02*
X90252381Y-104198619D01*
X90252381Y-104198619D02*
X90323809Y-104174809D01*
X90323809Y-104174809D02*
X90371428Y-104174809D01*
X90371428Y-104174809D02*
X90442857Y-104198619D01*
X90442857Y-104198619D02*
X90466666Y-104222428D01*
X90657143Y-104222428D02*
X90680952Y-104198619D01*
X90680952Y-104198619D02*
X90728571Y-104174809D01*
X90728571Y-104174809D02*
X90847619Y-104174809D01*
X90847619Y-104174809D02*
X90895238Y-104198619D01*
X90895238Y-104198619D02*
X90919047Y-104222428D01*
X90919047Y-104222428D02*
X90942857Y-104270047D01*
X90942857Y-104270047D02*
X90942857Y-104317666D01*
X90942857Y-104317666D02*
X90919047Y-104389095D01*
X90919047Y-104389095D02*
X90633333Y-104674809D01*
X90633333Y-104674809D02*
X90942857Y-104674809D01*
X113383333Y-97624809D02*
X113383333Y-97981952D01*
X113383333Y-97981952D02*
X113359524Y-98053380D01*
X113359524Y-98053380D02*
X113311905Y-98101000D01*
X113311905Y-98101000D02*
X113240476Y-98124809D01*
X113240476Y-98124809D02*
X113192857Y-98124809D01*
X113573809Y-97624809D02*
X113883333Y-97624809D01*
X113883333Y-97624809D02*
X113716666Y-97815285D01*
X113716666Y-97815285D02*
X113788095Y-97815285D01*
X113788095Y-97815285D02*
X113835714Y-97839095D01*
X113835714Y-97839095D02*
X113859523Y-97862904D01*
X113859523Y-97862904D02*
X113883333Y-97910523D01*
X113883333Y-97910523D02*
X113883333Y-98029571D01*
X113883333Y-98029571D02*
X113859523Y-98077190D01*
X113859523Y-98077190D02*
X113835714Y-98101000D01*
X113835714Y-98101000D02*
X113788095Y-98124809D01*
X113788095Y-98124809D02*
X113645238Y-98124809D01*
X113645238Y-98124809D02*
X113597619Y-98101000D01*
X113597619Y-98101000D02*
X113573809Y-98077190D01*
X94338571Y-92677190D02*
X94314762Y-92701000D01*
X94314762Y-92701000D02*
X94243333Y-92724809D01*
X94243333Y-92724809D02*
X94195714Y-92724809D01*
X94195714Y-92724809D02*
X94124286Y-92701000D01*
X94124286Y-92701000D02*
X94076667Y-92653380D01*
X94076667Y-92653380D02*
X94052857Y-92605761D01*
X94052857Y-92605761D02*
X94029048Y-92510523D01*
X94029048Y-92510523D02*
X94029048Y-92439095D01*
X94029048Y-92439095D02*
X94052857Y-92343857D01*
X94052857Y-92343857D02*
X94076667Y-92296238D01*
X94076667Y-92296238D02*
X94124286Y-92248619D01*
X94124286Y-92248619D02*
X94195714Y-92224809D01*
X94195714Y-92224809D02*
X94243333Y-92224809D01*
X94243333Y-92224809D02*
X94314762Y-92248619D01*
X94314762Y-92248619D02*
X94338571Y-92272428D01*
X94814762Y-92724809D02*
X94529048Y-92724809D01*
X94671905Y-92724809D02*
X94671905Y-92224809D01*
X94671905Y-92224809D02*
X94624286Y-92296238D01*
X94624286Y-92296238D02*
X94576667Y-92343857D01*
X94576667Y-92343857D02*
X94529048Y-92367666D01*
X95290952Y-92724809D02*
X95005238Y-92724809D01*
X95148095Y-92724809D02*
X95148095Y-92224809D01*
X95148095Y-92224809D02*
X95100476Y-92296238D01*
X95100476Y-92296238D02*
X95052857Y-92343857D01*
X95052857Y-92343857D02*
X95005238Y-92367666D01*
X102978571Y-83627190D02*
X102954762Y-83651000D01*
X102954762Y-83651000D02*
X102883333Y-83674809D01*
X102883333Y-83674809D02*
X102835714Y-83674809D01*
X102835714Y-83674809D02*
X102764286Y-83651000D01*
X102764286Y-83651000D02*
X102716667Y-83603380D01*
X102716667Y-83603380D02*
X102692857Y-83555761D01*
X102692857Y-83555761D02*
X102669048Y-83460523D01*
X102669048Y-83460523D02*
X102669048Y-83389095D01*
X102669048Y-83389095D02*
X102692857Y-83293857D01*
X102692857Y-83293857D02*
X102716667Y-83246238D01*
X102716667Y-83246238D02*
X102764286Y-83198619D01*
X102764286Y-83198619D02*
X102835714Y-83174809D01*
X102835714Y-83174809D02*
X102883333Y-83174809D01*
X102883333Y-83174809D02*
X102954762Y-83198619D01*
X102954762Y-83198619D02*
X102978571Y-83222428D01*
X103454762Y-83674809D02*
X103169048Y-83674809D01*
X103311905Y-83674809D02*
X103311905Y-83174809D01*
X103311905Y-83174809D02*
X103264286Y-83246238D01*
X103264286Y-83246238D02*
X103216667Y-83293857D01*
X103216667Y-83293857D02*
X103169048Y-83317666D01*
X103907142Y-83174809D02*
X103669047Y-83174809D01*
X103669047Y-83174809D02*
X103645238Y-83412904D01*
X103645238Y-83412904D02*
X103669047Y-83389095D01*
X103669047Y-83389095D02*
X103716666Y-83365285D01*
X103716666Y-83365285D02*
X103835714Y-83365285D01*
X103835714Y-83365285D02*
X103883333Y-83389095D01*
X103883333Y-83389095D02*
X103907142Y-83412904D01*
X103907142Y-83412904D02*
X103930952Y-83460523D01*
X103930952Y-83460523D02*
X103930952Y-83579571D01*
X103930952Y-83579571D02*
X103907142Y-83627190D01*
X103907142Y-83627190D02*
X103883333Y-83651000D01*
X103883333Y-83651000D02*
X103835714Y-83674809D01*
X103835714Y-83674809D02*
X103716666Y-83674809D01*
X103716666Y-83674809D02*
X103669047Y-83651000D01*
X103669047Y-83651000D02*
X103645238Y-83627190D01*
X85783333Y-112124809D02*
X85783333Y-112481952D01*
X85783333Y-112481952D02*
X85759524Y-112553380D01*
X85759524Y-112553380D02*
X85711905Y-112601000D01*
X85711905Y-112601000D02*
X85640476Y-112624809D01*
X85640476Y-112624809D02*
X85592857Y-112624809D01*
X86021428Y-112624809D02*
X86021428Y-112124809D01*
X86021428Y-112124809D02*
X86211904Y-112124809D01*
X86211904Y-112124809D02*
X86259523Y-112148619D01*
X86259523Y-112148619D02*
X86283333Y-112172428D01*
X86283333Y-112172428D02*
X86307142Y-112220047D01*
X86307142Y-112220047D02*
X86307142Y-112291476D01*
X86307142Y-112291476D02*
X86283333Y-112339095D01*
X86283333Y-112339095D02*
X86259523Y-112362904D01*
X86259523Y-112362904D02*
X86211904Y-112386714D01*
X86211904Y-112386714D02*
X86021428Y-112386714D01*
X86497619Y-112172428D02*
X86521428Y-112148619D01*
X86521428Y-112148619D02*
X86569047Y-112124809D01*
X86569047Y-112124809D02*
X86688095Y-112124809D01*
X86688095Y-112124809D02*
X86735714Y-112148619D01*
X86735714Y-112148619D02*
X86759523Y-112172428D01*
X86759523Y-112172428D02*
X86783333Y-112220047D01*
X86783333Y-112220047D02*
X86783333Y-112267666D01*
X86783333Y-112267666D02*
X86759523Y-112339095D01*
X86759523Y-112339095D02*
X86473809Y-112624809D01*
X86473809Y-112624809D02*
X86783333Y-112624809D01*
X92916666Y-85624809D02*
X92750000Y-85386714D01*
X92630952Y-85624809D02*
X92630952Y-85124809D01*
X92630952Y-85124809D02*
X92821428Y-85124809D01*
X92821428Y-85124809D02*
X92869047Y-85148619D01*
X92869047Y-85148619D02*
X92892857Y-85172428D01*
X92892857Y-85172428D02*
X92916666Y-85220047D01*
X92916666Y-85220047D02*
X92916666Y-85291476D01*
X92916666Y-85291476D02*
X92892857Y-85339095D01*
X92892857Y-85339095D02*
X92869047Y-85362904D01*
X92869047Y-85362904D02*
X92821428Y-85386714D01*
X92821428Y-85386714D02*
X92630952Y-85386714D01*
X93202381Y-85339095D02*
X93154762Y-85315285D01*
X93154762Y-85315285D02*
X93130952Y-85291476D01*
X93130952Y-85291476D02*
X93107143Y-85243857D01*
X93107143Y-85243857D02*
X93107143Y-85220047D01*
X93107143Y-85220047D02*
X93130952Y-85172428D01*
X93130952Y-85172428D02*
X93154762Y-85148619D01*
X93154762Y-85148619D02*
X93202381Y-85124809D01*
X93202381Y-85124809D02*
X93297619Y-85124809D01*
X93297619Y-85124809D02*
X93345238Y-85148619D01*
X93345238Y-85148619D02*
X93369047Y-85172428D01*
X93369047Y-85172428D02*
X93392857Y-85220047D01*
X93392857Y-85220047D02*
X93392857Y-85243857D01*
X93392857Y-85243857D02*
X93369047Y-85291476D01*
X93369047Y-85291476D02*
X93345238Y-85315285D01*
X93345238Y-85315285D02*
X93297619Y-85339095D01*
X93297619Y-85339095D02*
X93202381Y-85339095D01*
X93202381Y-85339095D02*
X93154762Y-85362904D01*
X93154762Y-85362904D02*
X93130952Y-85386714D01*
X93130952Y-85386714D02*
X93107143Y-85434333D01*
X93107143Y-85434333D02*
X93107143Y-85529571D01*
X93107143Y-85529571D02*
X93130952Y-85577190D01*
X93130952Y-85577190D02*
X93154762Y-85601000D01*
X93154762Y-85601000D02*
X93202381Y-85624809D01*
X93202381Y-85624809D02*
X93297619Y-85624809D01*
X93297619Y-85624809D02*
X93345238Y-85601000D01*
X93345238Y-85601000D02*
X93369047Y-85577190D01*
X93369047Y-85577190D02*
X93392857Y-85529571D01*
X93392857Y-85529571D02*
X93392857Y-85434333D01*
X93392857Y-85434333D02*
X93369047Y-85386714D01*
X93369047Y-85386714D02*
X93345238Y-85362904D01*
X93345238Y-85362904D02*
X93297619Y-85339095D01*
X104819047Y-106099809D02*
X104819047Y-106504571D01*
X104819047Y-106504571D02*
X104842857Y-106552190D01*
X104842857Y-106552190D02*
X104866666Y-106576000D01*
X104866666Y-106576000D02*
X104914285Y-106599809D01*
X104914285Y-106599809D02*
X105009523Y-106599809D01*
X105009523Y-106599809D02*
X105057142Y-106576000D01*
X105057142Y-106576000D02*
X105080952Y-106552190D01*
X105080952Y-106552190D02*
X105104761Y-106504571D01*
X105104761Y-106504571D02*
X105104761Y-106099809D01*
X105295238Y-106099809D02*
X105604762Y-106099809D01*
X105604762Y-106099809D02*
X105438095Y-106290285D01*
X105438095Y-106290285D02*
X105509524Y-106290285D01*
X105509524Y-106290285D02*
X105557143Y-106314095D01*
X105557143Y-106314095D02*
X105580952Y-106337904D01*
X105580952Y-106337904D02*
X105604762Y-106385523D01*
X105604762Y-106385523D02*
X105604762Y-106504571D01*
X105604762Y-106504571D02*
X105580952Y-106552190D01*
X105580952Y-106552190D02*
X105557143Y-106576000D01*
X105557143Y-106576000D02*
X105509524Y-106599809D01*
X105509524Y-106599809D02*
X105366667Y-106599809D01*
X105366667Y-106599809D02*
X105319048Y-106576000D01*
X105319048Y-106576000D02*
X105295238Y-106552190D01*
X109716666Y-106624809D02*
X109550000Y-106386714D01*
X109430952Y-106624809D02*
X109430952Y-106124809D01*
X109430952Y-106124809D02*
X109621428Y-106124809D01*
X109621428Y-106124809D02*
X109669047Y-106148619D01*
X109669047Y-106148619D02*
X109692857Y-106172428D01*
X109692857Y-106172428D02*
X109716666Y-106220047D01*
X109716666Y-106220047D02*
X109716666Y-106291476D01*
X109716666Y-106291476D02*
X109692857Y-106339095D01*
X109692857Y-106339095D02*
X109669047Y-106362904D01*
X109669047Y-106362904D02*
X109621428Y-106386714D01*
X109621428Y-106386714D02*
X109430952Y-106386714D01*
X109907143Y-106172428D02*
X109930952Y-106148619D01*
X109930952Y-106148619D02*
X109978571Y-106124809D01*
X109978571Y-106124809D02*
X110097619Y-106124809D01*
X110097619Y-106124809D02*
X110145238Y-106148619D01*
X110145238Y-106148619D02*
X110169047Y-106172428D01*
X110169047Y-106172428D02*
X110192857Y-106220047D01*
X110192857Y-106220047D02*
X110192857Y-106267666D01*
X110192857Y-106267666D02*
X110169047Y-106339095D01*
X110169047Y-106339095D02*
X109883333Y-106624809D01*
X109883333Y-106624809D02*
X110192857Y-106624809D01*
X94316666Y-89377190D02*
X94292857Y-89401000D01*
X94292857Y-89401000D02*
X94221428Y-89424809D01*
X94221428Y-89424809D02*
X94173809Y-89424809D01*
X94173809Y-89424809D02*
X94102381Y-89401000D01*
X94102381Y-89401000D02*
X94054762Y-89353380D01*
X94054762Y-89353380D02*
X94030952Y-89305761D01*
X94030952Y-89305761D02*
X94007143Y-89210523D01*
X94007143Y-89210523D02*
X94007143Y-89139095D01*
X94007143Y-89139095D02*
X94030952Y-89043857D01*
X94030952Y-89043857D02*
X94054762Y-88996238D01*
X94054762Y-88996238D02*
X94102381Y-88948619D01*
X94102381Y-88948619D02*
X94173809Y-88924809D01*
X94173809Y-88924809D02*
X94221428Y-88924809D01*
X94221428Y-88924809D02*
X94292857Y-88948619D01*
X94292857Y-88948619D02*
X94316666Y-88972428D01*
X94745238Y-88924809D02*
X94650000Y-88924809D01*
X94650000Y-88924809D02*
X94602381Y-88948619D01*
X94602381Y-88948619D02*
X94578571Y-88972428D01*
X94578571Y-88972428D02*
X94530952Y-89043857D01*
X94530952Y-89043857D02*
X94507143Y-89139095D01*
X94507143Y-89139095D02*
X94507143Y-89329571D01*
X94507143Y-89329571D02*
X94530952Y-89377190D01*
X94530952Y-89377190D02*
X94554762Y-89401000D01*
X94554762Y-89401000D02*
X94602381Y-89424809D01*
X94602381Y-89424809D02*
X94697619Y-89424809D01*
X94697619Y-89424809D02*
X94745238Y-89401000D01*
X94745238Y-89401000D02*
X94769047Y-89377190D01*
X94769047Y-89377190D02*
X94792857Y-89329571D01*
X94792857Y-89329571D02*
X94792857Y-89210523D01*
X94792857Y-89210523D02*
X94769047Y-89162904D01*
X94769047Y-89162904D02*
X94745238Y-89139095D01*
X94745238Y-89139095D02*
X94697619Y-89115285D01*
X94697619Y-89115285D02*
X94602381Y-89115285D01*
X94602381Y-89115285D02*
X94554762Y-89139095D01*
X94554762Y-89139095D02*
X94530952Y-89162904D01*
X94530952Y-89162904D02*
X94507143Y-89210523D01*
X113830952Y-124924809D02*
X113830952Y-124424809D01*
X113830952Y-124424809D02*
X113950000Y-124424809D01*
X113950000Y-124424809D02*
X114021428Y-124448619D01*
X114021428Y-124448619D02*
X114069047Y-124496238D01*
X114069047Y-124496238D02*
X114092857Y-124543857D01*
X114092857Y-124543857D02*
X114116666Y-124639095D01*
X114116666Y-124639095D02*
X114116666Y-124710523D01*
X114116666Y-124710523D02*
X114092857Y-124805761D01*
X114092857Y-124805761D02*
X114069047Y-124853380D01*
X114069047Y-124853380D02*
X114021428Y-124901000D01*
X114021428Y-124901000D02*
X113950000Y-124924809D01*
X113950000Y-124924809D02*
X113830952Y-124924809D01*
X114592857Y-124924809D02*
X114307143Y-124924809D01*
X114450000Y-124924809D02*
X114450000Y-124424809D01*
X114450000Y-124424809D02*
X114402381Y-124496238D01*
X114402381Y-124496238D02*
X114354762Y-124543857D01*
X114354762Y-124543857D02*
X114307143Y-124567666D01*
X85616666Y-105124809D02*
X85450000Y-104886714D01*
X85330952Y-105124809D02*
X85330952Y-104624809D01*
X85330952Y-104624809D02*
X85521428Y-104624809D01*
X85521428Y-104624809D02*
X85569047Y-104648619D01*
X85569047Y-104648619D02*
X85592857Y-104672428D01*
X85592857Y-104672428D02*
X85616666Y-104720047D01*
X85616666Y-104720047D02*
X85616666Y-104791476D01*
X85616666Y-104791476D02*
X85592857Y-104839095D01*
X85592857Y-104839095D02*
X85569047Y-104862904D01*
X85569047Y-104862904D02*
X85521428Y-104886714D01*
X85521428Y-104886714D02*
X85330952Y-104886714D01*
X86045238Y-104624809D02*
X85950000Y-104624809D01*
X85950000Y-104624809D02*
X85902381Y-104648619D01*
X85902381Y-104648619D02*
X85878571Y-104672428D01*
X85878571Y-104672428D02*
X85830952Y-104743857D01*
X85830952Y-104743857D02*
X85807143Y-104839095D01*
X85807143Y-104839095D02*
X85807143Y-105029571D01*
X85807143Y-105029571D02*
X85830952Y-105077190D01*
X85830952Y-105077190D02*
X85854762Y-105101000D01*
X85854762Y-105101000D02*
X85902381Y-105124809D01*
X85902381Y-105124809D02*
X85997619Y-105124809D01*
X85997619Y-105124809D02*
X86045238Y-105101000D01*
X86045238Y-105101000D02*
X86069047Y-105077190D01*
X86069047Y-105077190D02*
X86092857Y-105029571D01*
X86092857Y-105029571D02*
X86092857Y-104910523D01*
X86092857Y-104910523D02*
X86069047Y-104862904D01*
X86069047Y-104862904D02*
X86045238Y-104839095D01*
X86045238Y-104839095D02*
X85997619Y-104815285D01*
X85997619Y-104815285D02*
X85902381Y-104815285D01*
X85902381Y-104815285D02*
X85854762Y-104839095D01*
X85854762Y-104839095D02*
X85830952Y-104862904D01*
X85830952Y-104862904D02*
X85807143Y-104910523D01*
X92316666Y-92377190D02*
X92292857Y-92401000D01*
X92292857Y-92401000D02*
X92221428Y-92424809D01*
X92221428Y-92424809D02*
X92173809Y-92424809D01*
X92173809Y-92424809D02*
X92102381Y-92401000D01*
X92102381Y-92401000D02*
X92054762Y-92353380D01*
X92054762Y-92353380D02*
X92030952Y-92305761D01*
X92030952Y-92305761D02*
X92007143Y-92210523D01*
X92007143Y-92210523D02*
X92007143Y-92139095D01*
X92007143Y-92139095D02*
X92030952Y-92043857D01*
X92030952Y-92043857D02*
X92054762Y-91996238D01*
X92054762Y-91996238D02*
X92102381Y-91948619D01*
X92102381Y-91948619D02*
X92173809Y-91924809D01*
X92173809Y-91924809D02*
X92221428Y-91924809D01*
X92221428Y-91924809D02*
X92292857Y-91948619D01*
X92292857Y-91948619D02*
X92316666Y-91972428D01*
X92483333Y-91924809D02*
X92816666Y-91924809D01*
X92816666Y-91924809D02*
X92602381Y-92424809D01*
X106378571Y-117352190D02*
X106354762Y-117376000D01*
X106354762Y-117376000D02*
X106283333Y-117399809D01*
X106283333Y-117399809D02*
X106235714Y-117399809D01*
X106235714Y-117399809D02*
X106164286Y-117376000D01*
X106164286Y-117376000D02*
X106116667Y-117328380D01*
X106116667Y-117328380D02*
X106092857Y-117280761D01*
X106092857Y-117280761D02*
X106069048Y-117185523D01*
X106069048Y-117185523D02*
X106069048Y-117114095D01*
X106069048Y-117114095D02*
X106092857Y-117018857D01*
X106092857Y-117018857D02*
X106116667Y-116971238D01*
X106116667Y-116971238D02*
X106164286Y-116923619D01*
X106164286Y-116923619D02*
X106235714Y-116899809D01*
X106235714Y-116899809D02*
X106283333Y-116899809D01*
X106283333Y-116899809D02*
X106354762Y-116923619D01*
X106354762Y-116923619D02*
X106378571Y-116947428D01*
X106854762Y-117399809D02*
X106569048Y-117399809D01*
X106711905Y-117399809D02*
X106711905Y-116899809D01*
X106711905Y-116899809D02*
X106664286Y-116971238D01*
X106664286Y-116971238D02*
X106616667Y-117018857D01*
X106616667Y-117018857D02*
X106569048Y-117042666D01*
X107045238Y-116947428D02*
X107069047Y-116923619D01*
X107069047Y-116923619D02*
X107116666Y-116899809D01*
X107116666Y-116899809D02*
X107235714Y-116899809D01*
X107235714Y-116899809D02*
X107283333Y-116923619D01*
X107283333Y-116923619D02*
X107307142Y-116947428D01*
X107307142Y-116947428D02*
X107330952Y-116995047D01*
X107330952Y-116995047D02*
X107330952Y-117042666D01*
X107330952Y-117042666D02*
X107307142Y-117114095D01*
X107307142Y-117114095D02*
X107021428Y-117399809D01*
X107021428Y-117399809D02*
X107330952Y-117399809D01*
X89269047Y-101224809D02*
X89269047Y-101629571D01*
X89269047Y-101629571D02*
X89292857Y-101677190D01*
X89292857Y-101677190D02*
X89316666Y-101701000D01*
X89316666Y-101701000D02*
X89364285Y-101724809D01*
X89364285Y-101724809D02*
X89459523Y-101724809D01*
X89459523Y-101724809D02*
X89507142Y-101701000D01*
X89507142Y-101701000D02*
X89530952Y-101677190D01*
X89530952Y-101677190D02*
X89554761Y-101629571D01*
X89554761Y-101629571D02*
X89554761Y-101224809D01*
X90030952Y-101224809D02*
X89792857Y-101224809D01*
X89792857Y-101224809D02*
X89769048Y-101462904D01*
X89769048Y-101462904D02*
X89792857Y-101439095D01*
X89792857Y-101439095D02*
X89840476Y-101415285D01*
X89840476Y-101415285D02*
X89959524Y-101415285D01*
X89959524Y-101415285D02*
X90007143Y-101439095D01*
X90007143Y-101439095D02*
X90030952Y-101462904D01*
X90030952Y-101462904D02*
X90054762Y-101510523D01*
X90054762Y-101510523D02*
X90054762Y-101629571D01*
X90054762Y-101629571D02*
X90030952Y-101677190D01*
X90030952Y-101677190D02*
X90007143Y-101701000D01*
X90007143Y-101701000D02*
X89959524Y-101724809D01*
X89959524Y-101724809D02*
X89840476Y-101724809D01*
X89840476Y-101724809D02*
X89792857Y-101701000D01*
X89792857Y-101701000D02*
X89769048Y-101677190D01*
D14*
X96307836Y-90665000D02*
X96092164Y-90665000D01*
X96307836Y-91385000D02*
X96092164Y-91385000D01*
X88000000Y-94000000D02*
X88000000Y-98000000D01*
X90000000Y-94000000D02*
X90000000Y-98000000D01*
X100700000Y-123237500D02*
X101150000Y-123237500D01*
X100700000Y-125087500D02*
X100700000Y-123237500D01*
X100700000Y-127637500D02*
X100700000Y-127387500D01*
X102900000Y-122687500D02*
X102900000Y-123137500D01*
X102900000Y-122687500D02*
X103350000Y-122687500D01*
X108500000Y-123237500D02*
X108050000Y-123237500D01*
X108500000Y-125087500D02*
X108500000Y-123237500D01*
X108500000Y-127637500D02*
X108500000Y-127387500D01*
X106040580Y-104090000D02*
X105759420Y-104090000D01*
X106040580Y-105110000D02*
X105759420Y-105110000D01*
X89837258Y-111477500D02*
X89362742Y-111477500D01*
X89837258Y-112522500D02*
X89362742Y-112522500D01*
X102592164Y-93340000D02*
X102807836Y-93340000D01*
X102592164Y-94060000D02*
X102807836Y-94060000D01*
X89590000Y-107390580D02*
X89590000Y-107109420D01*
X90610000Y-107390580D02*
X90610000Y-107109420D01*
X109465000Y-111436252D02*
X109465000Y-110913748D01*
X110935000Y-111436252D02*
X110935000Y-110913748D01*
X100990000Y-89857836D02*
X100990000Y-89642164D01*
X101710000Y-89857836D02*
X101710000Y-89642164D01*
X94872936Y-82215000D02*
X95327064Y-82215000D01*
X94872936Y-83685000D02*
X95327064Y-83685000D01*
X90035279Y-89065000D02*
X89709721Y-89065000D01*
X90035279Y-90085000D02*
X89709721Y-90085000D01*
D15*
G36*
X86173305Y-92032061D02*
G01*
X86199697Y-92041021D01*
X86224881Y-92055721D01*
X86239557Y-92067685D01*
X86256853Y-92087206D01*
X86270358Y-92110019D01*
X86279588Y-92134772D01*
X86284060Y-92160113D01*
X86283293Y-92184690D01*
X86282654Y-92188447D01*
X86274090Y-92218055D01*
X86260380Y-92244116D01*
X86243189Y-92264995D01*
X86221367Y-92283388D01*
X86197736Y-92296309D01*
X86170950Y-92304514D01*
X86156570Y-92307277D01*
X86145383Y-92308404D01*
X86134701Y-92307885D01*
X86121839Y-92305706D01*
X86114975Y-92304257D01*
X86088661Y-92295451D01*
X86064762Y-92281391D01*
X86043976Y-92262831D01*
X86026998Y-92240528D01*
X86014528Y-92215235D01*
X86007262Y-92187709D01*
X86007234Y-92187535D01*
X86005798Y-92159071D01*
X86010468Y-92131883D01*
X86021216Y-92106060D01*
X86038011Y-92081690D01*
X86046014Y-92072785D01*
X86068680Y-92053295D01*
X86093393Y-92039460D01*
X86119502Y-92031298D01*
X86146357Y-92028826D01*
X86173305Y-92032061D01*
G37*
G36*
X86827824Y-91613773D02*
G01*
X86853353Y-91622770D01*
X86877205Y-91636597D01*
X86895462Y-91652017D01*
X86914029Y-91673922D01*
X86926746Y-91697018D01*
X86934012Y-91722252D01*
X86936226Y-91749090D01*
X86934008Y-91776212D01*
X86926933Y-91800605D01*
X86914740Y-91823648D01*
X86896604Y-91846219D01*
X86874415Y-91864678D01*
X86849177Y-91878360D01*
X86821896Y-91886601D01*
X86818705Y-91887164D01*
X86806125Y-91889044D01*
X86796571Y-91889729D01*
X86787483Y-91889136D01*
X86776302Y-91887177D01*
X86768274Y-91885474D01*
X86744581Y-91878021D01*
X86723290Y-91866135D01*
X86703004Y-91849002D01*
X86699171Y-91845109D01*
X86681870Y-91824379D01*
X86669859Y-91803245D01*
X86662295Y-91780099D01*
X86660601Y-91771577D01*
X86658713Y-91743048D01*
X86662922Y-91715620D01*
X86673129Y-91689575D01*
X86689232Y-91665196D01*
X86703597Y-91649624D01*
X86724729Y-91632318D01*
X86747160Y-91620280D01*
X86772732Y-91612554D01*
X86776334Y-91611825D01*
X86801768Y-91609996D01*
X86827824Y-91613773D01*
G37*
G36*
X85510630Y-91650088D02*
G01*
X85537299Y-91653083D01*
X85560257Y-91660146D01*
X85581040Y-91671947D01*
X85601184Y-91689156D01*
X85601970Y-91689939D01*
X85620074Y-91711293D01*
X85632430Y-91733786D01*
X85639538Y-91758504D01*
X85641541Y-91775608D01*
X85641406Y-91804080D01*
X85636888Y-91828870D01*
X85627567Y-91851135D01*
X85613019Y-91872028D01*
X85601886Y-91884107D01*
X85580351Y-91902575D01*
X85557985Y-91915437D01*
X85533625Y-91923332D01*
X85528481Y-91924359D01*
X85514587Y-91926557D01*
X85503420Y-91927253D01*
X85492291Y-91926379D01*
X85478512Y-91923865D01*
X85474364Y-91922979D01*
X85448166Y-91914287D01*
X85424574Y-91900607D01*
X85404133Y-91882729D01*
X85387386Y-91861442D01*
X85374876Y-91837536D01*
X85367147Y-91811798D01*
X85364743Y-91785020D01*
X85366481Y-91766298D01*
X85374307Y-91738106D01*
X85387656Y-91712825D01*
X85406585Y-91690348D01*
X85408873Y-91688170D01*
X85428991Y-91671409D01*
X85448470Y-91659872D01*
X85468925Y-91652955D01*
X85491974Y-91650051D01*
X85510630Y-91650088D01*
G37*
G36*
X86720645Y-90866784D02*
G01*
X86731863Y-90867231D01*
X86740440Y-90868434D01*
X86748182Y-90870743D01*
X86756893Y-90874506D01*
X86764734Y-90878290D01*
X86789227Y-90893448D01*
X86809673Y-90912573D01*
X86825744Y-90934874D01*
X86837109Y-90959557D01*
X86843439Y-90985827D01*
X86844402Y-91012892D01*
X86839670Y-91039957D01*
X86836243Y-91050254D01*
X86823473Y-91075556D01*
X86805853Y-91098096D01*
X86784384Y-91116871D01*
X86760068Y-91130875D01*
X86753114Y-91133719D01*
X86735764Y-91138442D01*
X86715543Y-91141247D01*
X86695249Y-91141903D01*
X86677678Y-91140180D01*
X86676853Y-91140013D01*
X86652388Y-91131918D01*
X86628909Y-91118449D01*
X86607878Y-91100463D01*
X86606075Y-91098565D01*
X86589082Y-91077942D01*
X86577410Y-91057573D01*
X86570503Y-91035926D01*
X86567803Y-91011467D01*
X86568011Y-90993918D01*
X86569210Y-90978090D01*
X86571468Y-90965707D01*
X86575431Y-90953977D01*
X86579242Y-90945351D01*
X86592999Y-90922596D01*
X86611426Y-90901971D01*
X86632977Y-90885023D01*
X86647844Y-90876751D01*
X86657529Y-90872415D01*
X86665616Y-90869564D01*
X86673895Y-90867882D01*
X86684155Y-90867056D01*
X86698186Y-90866775D01*
X86704981Y-90866745D01*
X86720645Y-90866784D01*
G37*
G36*
X83816976Y-89639513D02*
G01*
X83818879Y-89649271D01*
X83820225Y-89665046D01*
X83820574Y-89671191D01*
X83824876Y-89712641D01*
X83833507Y-89750551D01*
X83846932Y-89786296D01*
X83865615Y-89821246D01*
X83877382Y-89839302D01*
X83892339Y-89858489D01*
X83910616Y-89878044D01*
X83930496Y-89896342D01*
X83950261Y-89911758D01*
X83961883Y-89919259D01*
X83972668Y-89926126D01*
X83979108Y-89931522D01*
X83980533Y-89934886D01*
X83978039Y-89938737D01*
X83972816Y-89946630D01*
X83965624Y-89957424D01*
X83957223Y-89969975D01*
X83957064Y-89970212D01*
X83932710Y-90010781D01*
X83911215Y-90055121D01*
X83893434Y-90101214D01*
X83880222Y-90147040D01*
X83877949Y-90157188D01*
X83874436Y-90172431D01*
X83871266Y-90181971D01*
X83867916Y-90186294D01*
X83863866Y-90185887D01*
X83858595Y-90181238D01*
X83855734Y-90177949D01*
X83836713Y-90152812D01*
X83817749Y-90123382D01*
X83799880Y-90091539D01*
X83784143Y-90059164D01*
X83771574Y-90028136D01*
X83769037Y-90020773D01*
X83755450Y-89969902D01*
X83747759Y-89917778D01*
X83745910Y-89865067D01*
X83749849Y-89812437D01*
X83759522Y-89760555D01*
X83774877Y-89710087D01*
X83795859Y-89661700D01*
X83798200Y-89657127D01*
X83805129Y-89644578D01*
X83810382Y-89637342D01*
X83814237Y-89635595D01*
X83816976Y-89639513D01*
G37*
G36*
X86255987Y-91007159D02*
G01*
X86268956Y-91011058D01*
X86284372Y-91016848D01*
X86300731Y-91023949D01*
X86316529Y-91031781D01*
X86321276Y-91034378D01*
X86365453Y-91062752D01*
X86405759Y-91095878D01*
X86441886Y-91133369D01*
X86473521Y-91174839D01*
X86500355Y-91219902D01*
X86522076Y-91268171D01*
X86531870Y-91296391D01*
X86540776Y-91330095D01*
X86547660Y-91366841D01*
X86552421Y-91405142D01*
X86554953Y-91443515D01*
X86555153Y-91480475D01*
X86552918Y-91514537D01*
X86548922Y-91540608D01*
X86535568Y-91590147D01*
X86516624Y-91637532D01*
X86492501Y-91682365D01*
X86463610Y-91724245D01*
X86430362Y-91762774D01*
X86393167Y-91797551D01*
X86352435Y-91828177D01*
X86308577Y-91854254D01*
X86262003Y-91875381D01*
X86213124Y-91891159D01*
X86181479Y-91898146D01*
X86162345Y-91900848D01*
X86139584Y-91902847D01*
X86115301Y-91904062D01*
X86091604Y-91904411D01*
X86070597Y-91903812D01*
X86059458Y-91902884D01*
X86004222Y-91893607D01*
X85951777Y-91878934D01*
X85902365Y-91859008D01*
X85856226Y-91833974D01*
X85813602Y-91803974D01*
X85774734Y-91769152D01*
X85739862Y-91729650D01*
X85718341Y-91699869D01*
X85694722Y-91658999D01*
X85675416Y-91614217D01*
X85660777Y-91566450D01*
X85653102Y-91529392D01*
X85651338Y-91514825D01*
X85650105Y-91496496D01*
X85649391Y-91475705D01*
X85649184Y-91453747D01*
X85649470Y-91431922D01*
X85650238Y-91411525D01*
X85651473Y-91393854D01*
X85653165Y-91380208D01*
X85654623Y-91373709D01*
X85656280Y-91369510D01*
X85658918Y-91365247D01*
X85663080Y-91360482D01*
X85669305Y-91354777D01*
X85678136Y-91347691D01*
X85690112Y-91338787D01*
X85705774Y-91327625D01*
X85725665Y-91313767D01*
X85744571Y-91300728D01*
X85795008Y-91267093D01*
X85841785Y-91238121D01*
X85885212Y-91213642D01*
X85925597Y-91193489D01*
X85963249Y-91177494D01*
X85984263Y-91169954D01*
X86006113Y-91162220D01*
X86026728Y-91153839D01*
X86046823Y-91144369D01*
X86067116Y-91133369D01*
X86088325Y-91120395D01*
X86111168Y-91105007D01*
X86136361Y-91086762D01*
X86164623Y-91065219D01*
X86196670Y-91039936D01*
X86201057Y-91036427D01*
X86218515Y-91022868D01*
X86232242Y-91013117D01*
X86241967Y-91007356D01*
X86246970Y-91005730D01*
X86255987Y-91007159D01*
G37*
G36*
X84374556Y-89381604D02*
G01*
X84393680Y-89382122D01*
X84412545Y-89382892D01*
X84430066Y-89383894D01*
X84445162Y-89385107D01*
X84454704Y-89386207D01*
X84516211Y-89397205D01*
X84573856Y-89412520D01*
X84628553Y-89432436D01*
X84679732Y-89456461D01*
X84715002Y-89476001D01*
X84747977Y-89496688D01*
X84779759Y-89519362D01*
X84811453Y-89544860D01*
X84844161Y-89574021D01*
X84878987Y-89607683D01*
X84879409Y-89608104D01*
X84896607Y-89625174D01*
X84909635Y-89637792D01*
X84918646Y-89646022D01*
X84923796Y-89649924D01*
X84925240Y-89649560D01*
X84923134Y-89644992D01*
X84917631Y-89636281D01*
X84908887Y-89623488D01*
X84905325Y-89618394D01*
X84881092Y-89587951D01*
X84850867Y-89557076D01*
X84814871Y-89525980D01*
X84777291Y-89497669D01*
X84764738Y-89488226D01*
X84756271Y-89480697D01*
X84752455Y-89475605D01*
X84752318Y-89474516D01*
X84756060Y-89470923D01*
X84765803Y-89467077D01*
X84776648Y-89464150D01*
X84792952Y-89460440D01*
X84813771Y-89455981D01*
X84837639Y-89451060D01*
X84863090Y-89445966D01*
X84888659Y-89440987D01*
X84912878Y-89436412D01*
X84934281Y-89432529D01*
X84951403Y-89429628D01*
X84954766Y-89429101D01*
X84970898Y-89426628D01*
X84987057Y-89424143D01*
X85000797Y-89422023D01*
X85006335Y-89421166D01*
X85016600Y-89419725D01*
X85031241Y-89417873D01*
X85048417Y-89415832D01*
X85066285Y-89413827D01*
X85068842Y-89413551D01*
X85162352Y-89406053D01*
X85253484Y-89403885D01*
X85342101Y-89407014D01*
X85428065Y-89415411D01*
X85511239Y-89429046D01*
X85591483Y-89447887D01*
X85668660Y-89471906D01*
X85742632Y-89501070D01*
X85813262Y-89535351D01*
X85880410Y-89574717D01*
X85918792Y-89600639D01*
X85958942Y-89632619D01*
X85997840Y-89670437D01*
X86035362Y-89713780D01*
X86071385Y-89762337D01*
X86105783Y-89815797D01*
X86138433Y-89873847D01*
X86169212Y-89936178D01*
X86197995Y-90002477D01*
X86224658Y-90072433D01*
X86249078Y-90145734D01*
X86271130Y-90222070D01*
X86290692Y-90301129D01*
X86307637Y-90382600D01*
X86321844Y-90466170D01*
X86333187Y-90551529D01*
X86341544Y-90638366D01*
X86343689Y-90668267D01*
X86345213Y-90692556D01*
X86346723Y-90718423D01*
X86348113Y-90743950D01*
X86349280Y-90767216D01*
X86350120Y-90786302D01*
X86350164Y-90787437D01*
X86352038Y-90836364D01*
X86335751Y-90856195D01*
X86326056Y-90867338D01*
X86312640Y-90881820D01*
X86296332Y-90898822D01*
X86277962Y-90917527D01*
X86258360Y-90937116D01*
X86238358Y-90956772D01*
X86218783Y-90975675D01*
X86200468Y-90993008D01*
X86184241Y-91007954D01*
X86170934Y-91019693D01*
X86164289Y-91025179D01*
X86139530Y-91044160D01*
X86115647Y-91061117D01*
X86091622Y-91076617D01*
X86066438Y-91091228D01*
X86039077Y-91105516D01*
X86008521Y-91120050D01*
X85973754Y-91135396D01*
X85944590Y-91147660D01*
X85916156Y-91159517D01*
X85891374Y-91170128D01*
X85869402Y-91179973D01*
X85849396Y-91189527D01*
X85830514Y-91199270D01*
X85811914Y-91209679D01*
X85792752Y-91221231D01*
X85772186Y-91234404D01*
X85749373Y-91249675D01*
X85723471Y-91267523D01*
X85693636Y-91288425D01*
X85682980Y-91295935D01*
X85599188Y-91356194D01*
X85519844Y-91415579D01*
X85445112Y-91473945D01*
X85375156Y-91531150D01*
X85310139Y-91587050D01*
X85250226Y-91641500D01*
X85195580Y-91694359D01*
X85146365Y-91745481D01*
X85102745Y-91794725D01*
X85074633Y-91829269D01*
X85044303Y-91869992D01*
X85018882Y-91908463D01*
X84997882Y-91945586D01*
X84980818Y-91982266D01*
X84967202Y-92019407D01*
X84960876Y-92040843D01*
X84950849Y-92071962D01*
X84938312Y-92099367D01*
X84922100Y-92125448D01*
X84914864Y-92135337D01*
X84908801Y-92142667D01*
X84899354Y-92153261D01*
X84887143Y-92166487D01*
X84872788Y-92181713D01*
X84856912Y-92198305D01*
X84840133Y-92215631D01*
X84823074Y-92233057D01*
X84806353Y-92249952D01*
X84790594Y-92265681D01*
X84776415Y-92279613D01*
X84764437Y-92291114D01*
X84755282Y-92299552D01*
X84749570Y-92304294D01*
X84748490Y-92304968D01*
X84740603Y-92307022D01*
X84728677Y-92308195D01*
X84714865Y-92308447D01*
X84701322Y-92307736D01*
X84690342Y-92306057D01*
X84684982Y-92304142D01*
X84676671Y-92300162D01*
X84665008Y-92293891D01*
X84649590Y-92285101D01*
X84630017Y-92273564D01*
X84605886Y-92259053D01*
X84584408Y-92245990D01*
X84571742Y-92238533D01*
X84555206Y-92229196D01*
X84536509Y-92218922D01*
X84517358Y-92208656D01*
X84506945Y-92203195D01*
X84449526Y-92172570D01*
X84396191Y-92142494D01*
X84347144Y-92113115D01*
X84302590Y-92084581D01*
X84262731Y-92057042D01*
X84227772Y-92030643D01*
X84197916Y-92005534D01*
X84173368Y-91981863D01*
X84154330Y-91959777D01*
X84141007Y-91939425D01*
X84139344Y-91936187D01*
X84127960Y-91911008D01*
X84116541Y-91881627D01*
X84104997Y-91847736D01*
X84093237Y-91809029D01*
X84081171Y-91765197D01*
X84068707Y-91715932D01*
X84055755Y-91660928D01*
X84048294Y-91627681D01*
X84043662Y-91606771D01*
X84039307Y-91587208D01*
X84035466Y-91570059D01*
X84032380Y-91556388D01*
X84030286Y-91547260D01*
X84029717Y-91544859D01*
X84026892Y-91528853D01*
X84027481Y-91517148D01*
X84031585Y-91508742D01*
X84033559Y-91506676D01*
X84042909Y-91499919D01*
X84056431Y-91492442D01*
X84072259Y-91485135D01*
X84088527Y-91478893D01*
X84097492Y-91476093D01*
X84108661Y-91473392D01*
X84118587Y-91472283D01*
X84128114Y-91473128D01*
X84138086Y-91476287D01*
X84149347Y-91482120D01*
X84162740Y-91490987D01*
X84179110Y-91503249D01*
X84199301Y-91519267D01*
X84200084Y-91519897D01*
X84226747Y-91540715D01*
X84250021Y-91557403D01*
X84270702Y-91570477D01*
X84289586Y-91580449D01*
X84302299Y-91585914D01*
X84314979Y-91590411D01*
X84326170Y-91593102D01*
X84338428Y-91594419D01*
X84354308Y-91594797D01*
X84354692Y-91594798D01*
X84366396Y-91594706D01*
X84376404Y-91594208D01*
X84386044Y-91593056D01*
X84396643Y-91591004D01*
X84409530Y-91587803D01*
X84426033Y-91583208D01*
X84442203Y-91578515D01*
X84487289Y-91563373D01*
X84535603Y-91543492D01*
X84586689Y-91519180D01*
X84640087Y-91490747D01*
X84695339Y-91458500D01*
X84751986Y-91422749D01*
X84809572Y-91383802D01*
X84867636Y-91341967D01*
X84925721Y-91297553D01*
X84983369Y-91250869D01*
X85040121Y-91202223D01*
X85095519Y-91151924D01*
X85141828Y-91107482D01*
X85169740Y-91079688D01*
X85193578Y-91055284D01*
X85213986Y-91033562D01*
X85231607Y-91013813D01*
X85247087Y-90995328D01*
X85261070Y-90977399D01*
X85265562Y-90971351D01*
X85277342Y-90954308D01*
X85286667Y-90938159D01*
X85293802Y-90921846D01*
X85299014Y-90904314D01*
X85302566Y-90884505D01*
X85304723Y-90861365D01*
X85305751Y-90833836D01*
X85305941Y-90810393D01*
X85305867Y-90788922D01*
X85305576Y-90772360D01*
X85304946Y-90759369D01*
X85303855Y-90748608D01*
X85302179Y-90738737D01*
X85299798Y-90728417D01*
X85297743Y-90720574D01*
X85285933Y-90685591D01*
X85270605Y-90655692D01*
X85251589Y-90630688D01*
X85228719Y-90610386D01*
X85201827Y-90594595D01*
X85179568Y-90585809D01*
X85152547Y-90578551D01*
X85120084Y-90572547D01*
X85082860Y-90567805D01*
X85041558Y-90564330D01*
X84996861Y-90562130D01*
X84949451Y-90561213D01*
X84900011Y-90561583D01*
X84849222Y-90563250D01*
X84797768Y-90566219D01*
X84746331Y-90570498D01*
X84695593Y-90576093D01*
X84662542Y-90580551D01*
X84575668Y-90594391D01*
X84488693Y-90610593D01*
X84402772Y-90628888D01*
X84319061Y-90649007D01*
X84238715Y-90670683D01*
X84162890Y-90693645D01*
X84131227Y-90704097D01*
X84094316Y-90716885D01*
X84056920Y-90730333D01*
X84021095Y-90743685D01*
X83988899Y-90756186D01*
X83984334Y-90758012D01*
X83963660Y-90766366D01*
X83946473Y-90773450D01*
X83930931Y-90780063D01*
X83915194Y-90787002D01*
X83897420Y-90795063D01*
X83876744Y-90804591D01*
X83864753Y-90809891D01*
X83857016Y-90812537D01*
X83852284Y-90812835D01*
X83849464Y-90811255D01*
X83846806Y-90806171D01*
X83843406Y-90796077D01*
X83839551Y-90782128D01*
X83835525Y-90765480D01*
X83831613Y-90747287D01*
X83828101Y-90728707D01*
X83826117Y-90716632D01*
X83824544Y-90702224D01*
X83823331Y-90682639D01*
X83822470Y-90658938D01*
X83821957Y-90632184D01*
X83821783Y-90603440D01*
X83821945Y-90573769D01*
X83822435Y-90544231D01*
X83823247Y-90515891D01*
X83824375Y-90489810D01*
X83825814Y-90467050D01*
X83827557Y-90448675D01*
X83827657Y-90447849D01*
X83837263Y-90377498D01*
X83848096Y-90313054D01*
X83860211Y-90254282D01*
X83873666Y-90200947D01*
X83888516Y-90152815D01*
X83904819Y-90109652D01*
X83914754Y-90087246D01*
X83925937Y-90065001D01*
X83940090Y-90039226D01*
X83956346Y-90011328D01*
X83973839Y-89982711D01*
X83991701Y-89954782D01*
X84009067Y-89928945D01*
X84025070Y-89906607D01*
X84030602Y-89899344D01*
X84057848Y-89865534D01*
X84086299Y-89832489D01*
X84115376Y-89800763D01*
X84144498Y-89770913D01*
X84173087Y-89743494D01*
X84200562Y-89719061D01*
X84226346Y-89698168D01*
X84249858Y-89681373D01*
X84270519Y-89669228D01*
X84270893Y-89669040D01*
X84280653Y-89664510D01*
X84287928Y-89662683D01*
X84295654Y-89663152D01*
X84302800Y-89664603D01*
X84328893Y-89673236D01*
X84356036Y-89687419D01*
X84383676Y-89706656D01*
X84411262Y-89730455D01*
X84438244Y-89758322D01*
X84464070Y-89789763D01*
X84488190Y-89824284D01*
X84497108Y-89838631D01*
X84505265Y-89852647D01*
X84511879Y-89865295D01*
X84517431Y-89877881D01*
X84522401Y-89891707D01*
X84527270Y-89908077D01*
X84532520Y-89928296D01*
X84536999Y-89946779D01*
X84543994Y-89972611D01*
X84551645Y-89993337D01*
X84560489Y-90010101D01*
X84571067Y-90024046D01*
X84575698Y-90028888D01*
X84583369Y-90035933D01*
X84589726Y-90040892D01*
X84593928Y-90043304D01*
X84595138Y-90042710D01*
X84592516Y-90038651D01*
X84591680Y-90037642D01*
X84582727Y-90024610D01*
X84573370Y-90006541D01*
X84564098Y-89984586D01*
X84555404Y-89959894D01*
X84548630Y-89936848D01*
X84541299Y-89910291D01*
X84534552Y-89888112D01*
X84527751Y-89868560D01*
X84520258Y-89849885D01*
X84511433Y-89830334D01*
X84504729Y-89816426D01*
X84474815Y-89761420D01*
X84441476Y-89711488D01*
X84404596Y-89666503D01*
X84932888Y-89666503D01*
X84934451Y-89668065D01*
X84936013Y-89666503D01*
X84934451Y-89664940D01*
X84932888Y-89666503D01*
X84404596Y-89666503D01*
X84404432Y-89666303D01*
X84363402Y-89625535D01*
X84318107Y-89588857D01*
X84298435Y-89575058D01*
X84254413Y-89548595D01*
X84206299Y-89525401D01*
X84155642Y-89506057D01*
X84103994Y-89491147D01*
X84052906Y-89481254D01*
X84046393Y-89480368D01*
X84030425Y-89478015D01*
X84018812Y-89475508D01*
X84011740Y-89472666D01*
X84009398Y-89469311D01*
X84011973Y-89465261D01*
X84019654Y-89460339D01*
X84032628Y-89454363D01*
X84051083Y-89447154D01*
X84075207Y-89438532D01*
X84098410Y-89430600D01*
X84126755Y-89421585D01*
X84156552Y-89413096D01*
X84186682Y-89405381D01*
X84216026Y-89398685D01*
X84243463Y-89393256D01*
X84267876Y-89389340D01*
X84288144Y-89387184D01*
X84297029Y-89386838D01*
X84305863Y-89386046D01*
X84312083Y-89384148D01*
X84312949Y-89383518D01*
X84317124Y-89382467D01*
X84326456Y-89381770D01*
X84339860Y-89381408D01*
X84356255Y-89381359D01*
X84374556Y-89381604D01*
G37*
G36*
X86252128Y-89846742D02*
G01*
X86274325Y-89847836D01*
X86299005Y-89849545D01*
X86325430Y-89851807D01*
X86352857Y-89854563D01*
X86380549Y-89857753D01*
X86407764Y-89861319D01*
X86433763Y-89865199D01*
X86457805Y-89869335D01*
X86465889Y-89870885D01*
X86504863Y-89879204D01*
X86545363Y-89888967D01*
X86586264Y-89899834D01*
X86626439Y-89911469D01*
X86664763Y-89923534D01*
X86700109Y-89935691D01*
X86731352Y-89947601D01*
X86753897Y-89957306D01*
X86761011Y-89960365D01*
X86765372Y-89961830D01*
X86765600Y-89961852D01*
X86770770Y-89963287D01*
X86780640Y-89967330D01*
X86794427Y-89973584D01*
X86811349Y-89981651D01*
X86830622Y-89991135D01*
X86851466Y-90001639D01*
X86873097Y-90012768D01*
X86894732Y-90024123D01*
X86915591Y-90035308D01*
X86934889Y-90045927D01*
X86951845Y-90055583D01*
X86960116Y-90060476D01*
X87017078Y-90096020D01*
X87069688Y-90131578D01*
X87119280Y-90168197D01*
X87167187Y-90206923D01*
X87214744Y-90248805D01*
X87263284Y-90294887D01*
X87280225Y-90311675D01*
X87318660Y-90350906D01*
X87353016Y-90387733D01*
X87384305Y-90423376D01*
X87413541Y-90459053D01*
X87441737Y-90495986D01*
X87469906Y-90535393D01*
X87487831Y-90561647D01*
X87508474Y-90592776D01*
X87526268Y-90620672D01*
X87542175Y-90647001D01*
X87557155Y-90673426D01*
X87572171Y-90701613D01*
X87588184Y-90733225D01*
X87595420Y-90747886D01*
X87612841Y-90783982D01*
X87627986Y-90816790D01*
X87641431Y-90847763D01*
X87653750Y-90878356D01*
X87665519Y-90910024D01*
X87677313Y-90944221D01*
X87689708Y-90982401D01*
X87695564Y-91001042D01*
X87706057Y-91037734D01*
X87716278Y-91079268D01*
X87725941Y-91124235D01*
X87734757Y-91171226D01*
X87742439Y-91218832D01*
X87747389Y-91254922D01*
X87752345Y-91304963D01*
X87755311Y-91359331D01*
X87756342Y-91416696D01*
X87755493Y-91475727D01*
X87752821Y-91535091D01*
X87748382Y-91593459D01*
X87742231Y-91649498D01*
X87734424Y-91701878D01*
X87727036Y-91740195D01*
X87724818Y-91750512D01*
X87721931Y-91764013D01*
X87719015Y-91777700D01*
X87712834Y-91805092D01*
X87705270Y-91835909D01*
X87696955Y-91867658D01*
X87689224Y-91895410D01*
X87659305Y-91989653D01*
X87624842Y-92080540D01*
X87585977Y-92167805D01*
X87542855Y-92251183D01*
X87495619Y-92330411D01*
X87444413Y-92405222D01*
X87389379Y-92475352D01*
X87352100Y-92517782D01*
X87330438Y-92540596D01*
X87306659Y-92564328D01*
X87282240Y-92587574D01*
X87258660Y-92608930D01*
X87237396Y-92626993D01*
X87235352Y-92628646D01*
X87226294Y-92636101D01*
X87221611Y-92640644D01*
X87220711Y-92643157D01*
X87222999Y-92644521D01*
X87224413Y-92644884D01*
X87229745Y-92646125D01*
X87240002Y-92648528D01*
X87254027Y-92651820D01*
X87270661Y-92655729D01*
X87284740Y-92659041D01*
X87304548Y-92663695D01*
X87324514Y-92668374D01*
X87342893Y-92672668D01*
X87357940Y-92676171D01*
X87364437Y-92677676D01*
X87384180Y-92682246D01*
X87409646Y-92688163D01*
X87440474Y-92695342D01*
X87476300Y-92703701D01*
X87516764Y-92713154D01*
X87520706Y-92714075D01*
X87568569Y-92725224D01*
X87613604Y-92735629D01*
X87641815Y-92742100D01*
X87656490Y-92745474D01*
X87672562Y-92749195D01*
X87680882Y-92751133D01*
X87692370Y-92753812D01*
X87707618Y-92757361D01*
X87724296Y-92761239D01*
X87734795Y-92763678D01*
X87750105Y-92767239D01*
X87764475Y-92770594D01*
X87776027Y-92773303D01*
X87781676Y-92774639D01*
X87790507Y-92776699D01*
X87803168Y-92779599D01*
X87817389Y-92782820D01*
X87822306Y-92783925D01*
X87838347Y-92787541D01*
X87857312Y-92791846D01*
X87876034Y-92796121D01*
X87883251Y-92797777D01*
X87900323Y-92801683D01*
X87918461Y-92805802D01*
X87934776Y-92809479D01*
X87941071Y-92810885D01*
X87953559Y-92814095D01*
X87964189Y-92817602D01*
X87971037Y-92820754D01*
X87971871Y-92821357D01*
X87976740Y-92824829D01*
X87978903Y-92825485D01*
X87980138Y-92826266D01*
X87978912Y-92827720D01*
X87974668Y-92827592D01*
X87970553Y-92827533D01*
X87962054Y-92827610D01*
X87951358Y-92827797D01*
X87940668Y-92827739D01*
X87925478Y-92827279D01*
X87907523Y-92826488D01*
X87888535Y-92825434D01*
X87881036Y-92824955D01*
X87863577Y-92823825D01*
X87841478Y-92822442D01*
X87816341Y-92820904D01*
X87789768Y-92819309D01*
X87763360Y-92817753D01*
X87748859Y-92816914D01*
X87722959Y-92815421D01*
X87695683Y-92813836D01*
X87668708Y-92812259D01*
X87643711Y-92810788D01*
X87622368Y-92809521D01*
X87612905Y-92808953D01*
X87593012Y-92807762D01*
X87573144Y-92806588D01*
X87555059Y-92805534D01*
X87540512Y-92804701D01*
X87534771Y-92804382D01*
X87523363Y-92803759D01*
X87507291Y-92802882D01*
X87488132Y-92801838D01*
X87467464Y-92800711D01*
X87450385Y-92799780D01*
X87430024Y-92798648D01*
X87410218Y-92797505D01*
X87392441Y-92796440D01*
X87378165Y-92795540D01*
X87369789Y-92794965D01*
X87357554Y-92794166D01*
X87343158Y-92793403D01*
X87327713Y-92792710D01*
X87312332Y-92792124D01*
X87298124Y-92791682D01*
X87286203Y-92791420D01*
X87277680Y-92791374D01*
X87273666Y-92791582D01*
X87273801Y-92791821D01*
X87278382Y-92792637D01*
X87287996Y-92794081D01*
X87301477Y-92795986D01*
X87317659Y-92798188D01*
X87328495Y-92799623D01*
X87418696Y-92811505D01*
X87470700Y-92818414D01*
X87496042Y-92821778D01*
X87521802Y-92825176D01*
X87546422Y-92828403D01*
X87568343Y-92831255D01*
X87586005Y-92833528D01*
X87589465Y-92833968D01*
X87602705Y-92835672D01*
X87619597Y-92837880D01*
X87637596Y-92840259D01*
X87648847Y-92841761D01*
X87682444Y-92846264D01*
X87710484Y-92850016D01*
X87733605Y-92853102D01*
X87752446Y-92855605D01*
X87767644Y-92857611D01*
X87779837Y-92859203D01*
X87789663Y-92860465D01*
X87797760Y-92861482D01*
X87803554Y-92862192D01*
X87815672Y-92863708D01*
X87833751Y-92866043D01*
X87857558Y-92869167D01*
X87886862Y-92873047D01*
X87921429Y-92877654D01*
X87961027Y-92882958D01*
X87970762Y-92884265D01*
X87984266Y-92886062D01*
X88001288Y-92888305D01*
X88019147Y-92890641D01*
X88028581Y-92891867D01*
X88045992Y-92894135D01*
X88064334Y-92896543D01*
X88080802Y-92898723D01*
X88087964Y-92899680D01*
X88100413Y-92901344D01*
X88115123Y-92903290D01*
X88132911Y-92905627D01*
X88154595Y-92908461D01*
X88180990Y-92911900D01*
X88206728Y-92915247D01*
X88218629Y-92916770D01*
X88234594Y-92918783D01*
X88252484Y-92921017D01*
X88269199Y-92923085D01*
X88284569Y-92925151D01*
X88297706Y-92927245D01*
X88307354Y-92929143D01*
X88312256Y-92930622D01*
X88312526Y-92930814D01*
X88314656Y-92934480D01*
X88312235Y-92937005D01*
X88304846Y-92938475D01*
X88292070Y-92938976D01*
X88274649Y-92938637D01*
X88235412Y-92937246D01*
X88197599Y-92935893D01*
X88161832Y-92934600D01*
X88128732Y-92933391D01*
X88098922Y-92932288D01*
X88073024Y-92931315D01*
X88051660Y-92930494D01*
X88035451Y-92929849D01*
X88027019Y-92929492D01*
X88015959Y-92929024D01*
X87999808Y-92928371D01*
X87979718Y-92927578D01*
X87956844Y-92926690D01*
X87932340Y-92925752D01*
X87907361Y-92924810D01*
X87906691Y-92924785D01*
X87880748Y-92923812D01*
X87850164Y-92922660D01*
X87816546Y-92921391D01*
X87781500Y-92920065D01*
X87746632Y-92918743D01*
X87713548Y-92917485D01*
X87698853Y-92916926D01*
X87666529Y-92915705D01*
X87631075Y-92914387D01*
X87594224Y-92913033D01*
X87557711Y-92911709D01*
X87523269Y-92910476D01*
X87492633Y-92909397D01*
X87481639Y-92909016D01*
X87451369Y-92907944D01*
X87416848Y-92906670D01*
X87380072Y-92905270D01*
X87343033Y-92903821D01*
X87307727Y-92902402D01*
X87276148Y-92901088D01*
X87276002Y-92901081D01*
X87253395Y-92900180D01*
X87230428Y-92899374D01*
X87207695Y-92898672D01*
X87185793Y-92898084D01*
X87165316Y-92897617D01*
X87146860Y-92897282D01*
X87131020Y-92897087D01*
X87118392Y-92897041D01*
X87109571Y-92897153D01*
X87105153Y-92897433D01*
X87105733Y-92897890D01*
X87111906Y-92898531D01*
X87112844Y-92898605D01*
X87120358Y-92899162D01*
X87132653Y-92900044D01*
X87148272Y-92901149D01*
X87165760Y-92902373D01*
X87173789Y-92902931D01*
X87192152Y-92904211D01*
X87209790Y-92905454D01*
X87225080Y-92906544D01*
X87236399Y-92907365D01*
X87239422Y-92907591D01*
X87248723Y-92908269D01*
X87262637Y-92909252D01*
X87279542Y-92910427D01*
X87297813Y-92911681D01*
X87305055Y-92912172D01*
X87326112Y-92913629D01*
X87349036Y-92915266D01*
X87371252Y-92916895D01*
X87390188Y-92918331D01*
X87392566Y-92918516D01*
X87408040Y-92919692D01*
X87428044Y-92921156D01*
X87450871Y-92922786D01*
X87474813Y-92924461D01*
X87498163Y-92926060D01*
X87500391Y-92926210D01*
X87530918Y-92928278D01*
X87556485Y-92930040D01*
X87578374Y-92931588D01*
X87597862Y-92933014D01*
X87616230Y-92934409D01*
X87633220Y-92935743D01*
X87657245Y-92937614D01*
X87682942Y-92939544D01*
X87708568Y-92941408D01*
X87732380Y-92943079D01*
X87752633Y-92944434D01*
X87761361Y-92944981D01*
X87777705Y-92946043D01*
X87797239Y-92947418D01*
X87816925Y-92948887D01*
X87826994Y-92949679D01*
X87843631Y-92950972D01*
X87864179Y-92952499D01*
X87886310Y-92954090D01*
X87907699Y-92955575D01*
X87912942Y-92955929D01*
X87938866Y-92957691D01*
X87969517Y-92959809D01*
X88003385Y-92962179D01*
X88038964Y-92964693D01*
X88074745Y-92967246D01*
X88109221Y-92969730D01*
X88134844Y-92971596D01*
X88153301Y-92972927D01*
X88172486Y-92974275D01*
X88189981Y-92975473D01*
X88202040Y-92976267D01*
X88217064Y-92977283D01*
X88232209Y-92978402D01*
X88244497Y-92979402D01*
X88245796Y-92979518D01*
X88255206Y-92980286D01*
X88269184Y-92981321D01*
X88286055Y-92982504D01*
X88304147Y-92983715D01*
X88309866Y-92984086D01*
X88330784Y-92985487D01*
X88353696Y-92987114D01*
X88375917Y-92988771D01*
X88394760Y-92990263D01*
X88395814Y-92990350D01*
X88410987Y-92991551D01*
X88430770Y-92993024D01*
X88453535Y-92994654D01*
X88477651Y-92996324D01*
X88501492Y-92997917D01*
X88506765Y-92998261D01*
X88528357Y-92999687D01*
X88548776Y-93001085D01*
X88566882Y-93002373D01*
X88581535Y-93003469D01*
X88591593Y-93004290D01*
X88594276Y-93004545D01*
X88606726Y-93005625D01*
X88621168Y-93006580D01*
X88628655Y-93006954D01*
X88643272Y-93008252D01*
X88651753Y-93010661D01*
X88654091Y-93014181D01*
X88653525Y-93015568D01*
X88650296Y-93015841D01*
X88641225Y-93016105D01*
X88626719Y-93016360D01*
X88607187Y-93016605D01*
X88583036Y-93016840D01*
X88554675Y-93017063D01*
X88522511Y-93017274D01*
X88486953Y-93017473D01*
X88448408Y-93017659D01*
X88407285Y-93017830D01*
X88363993Y-93017988D01*
X88318937Y-93018130D01*
X88272528Y-93018256D01*
X88225173Y-93018365D01*
X88177280Y-93018458D01*
X88129257Y-93018532D01*
X88081512Y-93018588D01*
X88034454Y-93018625D01*
X87988489Y-93018642D01*
X87944027Y-93018639D01*
X87901476Y-93018614D01*
X87861243Y-93018568D01*
X87823736Y-93018499D01*
X87789364Y-93018407D01*
X87758534Y-93018291D01*
X87731656Y-93018150D01*
X87709136Y-93017985D01*
X87691382Y-93017794D01*
X87678804Y-93017576D01*
X87671809Y-93017331D01*
X87670454Y-93017165D01*
X87667256Y-93017037D01*
X87658069Y-93016887D01*
X87643152Y-93016715D01*
X87622769Y-93016524D01*
X87597179Y-93016315D01*
X87566643Y-93016090D01*
X87531423Y-93015850D01*
X87491780Y-93015596D01*
X87447975Y-93015330D01*
X87400268Y-93015054D01*
X87348922Y-93014769D01*
X87294197Y-93014477D01*
X87236353Y-93014179D01*
X87175653Y-93013877D01*
X87112357Y-93013572D01*
X87046726Y-93013265D01*
X86979022Y-93012959D01*
X86909505Y-93012655D01*
X86862803Y-93012456D01*
X86788798Y-93012133D01*
X86716415Y-93011795D01*
X86645923Y-93011443D01*
X86577590Y-93011080D01*
X86511687Y-93010707D01*
X86448481Y-93010327D01*
X86388243Y-93009942D01*
X86331240Y-93009554D01*
X86277742Y-93009165D01*
X86228017Y-93008776D01*
X86182336Y-93008391D01*
X86140966Y-93008011D01*
X86104177Y-93007637D01*
X86072238Y-93007273D01*
X86045418Y-93006920D01*
X86023986Y-93006580D01*
X86008210Y-93006255D01*
X85998361Y-93005948D01*
X85997081Y-93005886D01*
X85907084Y-92998908D01*
X85820861Y-92987688D01*
X85737407Y-92972013D01*
X85655716Y-92951666D01*
X85574781Y-92926433D01*
X85505669Y-92900920D01*
X85491942Y-92894961D01*
X87067349Y-92894961D01*
X87070368Y-92895427D01*
X87078327Y-92895619D01*
X87078464Y-92895619D01*
X87086767Y-92895456D01*
X87090419Y-92894998D01*
X87088678Y-92894354D01*
X87079175Y-92893811D01*
X87069926Y-92894323D01*
X87067349Y-92894961D01*
X85491942Y-92894961D01*
X85484891Y-92891900D01*
X87011269Y-92891900D01*
X87012831Y-92893462D01*
X87014394Y-92891900D01*
X87013873Y-92891379D01*
X87021687Y-92891379D01*
X87022116Y-92893237D01*
X87023770Y-92893462D01*
X87026343Y-92892319D01*
X87025854Y-92891379D01*
X87022145Y-92891005D01*
X87021687Y-92891379D01*
X87013873Y-92891379D01*
X87012831Y-92890337D01*
X87011269Y-92891900D01*
X85484891Y-92891900D01*
X85426963Y-92866753D01*
X85350576Y-92827442D01*
X85286222Y-92788892D01*
X87246535Y-92788892D01*
X87250462Y-92789382D01*
X87255049Y-92789473D01*
X87261808Y-92789229D01*
X87263664Y-92788606D01*
X87262081Y-92788119D01*
X87252973Y-92787602D01*
X87248017Y-92788119D01*
X87246535Y-92788892D01*
X85286222Y-92788892D01*
X85276927Y-92783324D01*
X85206436Y-92734733D01*
X85139523Y-92682008D01*
X85076608Y-92625485D01*
X85018110Y-92565499D01*
X84964450Y-92502388D01*
X84916047Y-92436488D01*
X84904372Y-92418935D01*
X84887563Y-92392016D01*
X84872769Y-92366130D01*
X84860308Y-92341963D01*
X84850496Y-92320201D01*
X84843649Y-92301531D01*
X84840084Y-92286639D01*
X84839714Y-92278793D01*
X84840739Y-92272671D01*
X84843340Y-92267438D01*
X84848561Y-92261802D01*
X84857449Y-92254469D01*
X84862567Y-92250543D01*
X84891663Y-92226966D01*
X84918001Y-92202673D01*
X84940932Y-92178380D01*
X84959807Y-92154803D01*
X84973978Y-92132659D01*
X84979532Y-92121351D01*
X84986617Y-92102518D01*
X84993578Y-92079092D01*
X85000615Y-92050375D01*
X85003192Y-92038670D01*
X85013051Y-92005008D01*
X85027915Y-91973309D01*
X85048161Y-91942940D01*
X85074166Y-91913270D01*
X85083303Y-91904262D01*
X85096366Y-91892203D01*
X85110173Y-91880190D01*
X85123782Y-91868962D01*
X85136251Y-91859260D01*
X85146637Y-91851826D01*
X85153998Y-91847401D01*
X85156752Y-91846488D01*
X85159676Y-91847190D01*
X85162584Y-91849915D01*
X85165938Y-91855513D01*
X85170200Y-91864833D01*
X85175833Y-91878726D01*
X85179694Y-91888651D01*
X85208854Y-91956148D01*
X85242631Y-92019484D01*
X85280971Y-92078596D01*
X85323816Y-92133421D01*
X85371110Y-92183897D01*
X85422798Y-92229960D01*
X85478823Y-92271548D01*
X85539130Y-92308597D01*
X85567611Y-92323752D01*
X85583470Y-92331736D01*
X85598404Y-92339116D01*
X85611032Y-92345222D01*
X85619978Y-92349383D01*
X85622035Y-92350276D01*
X85682059Y-92373303D01*
X85743116Y-92392539D01*
X85806782Y-92408428D01*
X85873629Y-92421249D01*
X85920056Y-92427514D01*
X85970796Y-92431745D01*
X86024252Y-92433942D01*
X86078826Y-92434104D01*
X86132921Y-92432232D01*
X86184941Y-92428326D01*
X86233286Y-92422387D01*
X86240861Y-92421201D01*
X86308895Y-92408361D01*
X86377240Y-92391696D01*
X86420571Y-92379273D01*
X86436653Y-92373924D01*
X86456906Y-92366444D01*
X86479878Y-92357434D01*
X86504117Y-92347494D01*
X86528173Y-92337227D01*
X86550594Y-92327234D01*
X86569928Y-92318115D01*
X86578209Y-92313956D01*
X86630835Y-92285088D01*
X86678607Y-92255207D01*
X86722921Y-92223287D01*
X86765175Y-92188305D01*
X86806765Y-92149235D01*
X86817742Y-92138179D01*
X86838578Y-92116532D01*
X86856215Y-92097216D01*
X86871946Y-92078644D01*
X86887065Y-92059233D01*
X86902864Y-92037396D01*
X86918478Y-92014739D01*
X86962730Y-91944634D01*
X87000840Y-91873745D01*
X87032896Y-91801833D01*
X87058982Y-91728657D01*
X87079185Y-91653976D01*
X87093590Y-91577549D01*
X87102195Y-91500322D01*
X87103713Y-91467480D01*
X87103725Y-91431853D01*
X87102317Y-91395652D01*
X87099579Y-91361084D01*
X87095597Y-91330360D01*
X87095407Y-91329207D01*
X87091553Y-91306528D01*
X87087994Y-91286992D01*
X87084373Y-91268957D01*
X87080332Y-91250782D01*
X87075513Y-91230825D01*
X87069559Y-91207446D01*
X87065451Y-91191690D01*
X87044926Y-91121880D01*
X87021033Y-91056669D01*
X86993316Y-90995128D01*
X86961321Y-90936326D01*
X86924593Y-90879333D01*
X86889827Y-90832271D01*
X86879649Y-90820134D01*
X86865775Y-90804849D01*
X86849196Y-90787404D01*
X86830906Y-90768784D01*
X86811896Y-90749975D01*
X86793159Y-90731964D01*
X86775687Y-90715737D01*
X86760473Y-90702280D01*
X86751862Y-90695166D01*
X86731797Y-90679986D01*
X86708055Y-90663139D01*
X86682458Y-90645836D01*
X86656826Y-90629292D01*
X86632979Y-90614717D01*
X86619033Y-90606726D01*
X86568694Y-90580542D01*
X86518757Y-90558063D01*
X86466988Y-90538358D01*
X86414320Y-90521432D01*
X86397055Y-90516348D01*
X86384808Y-90512537D01*
X86376675Y-90509277D01*
X86371748Y-90505849D01*
X86369122Y-90501533D01*
X86367892Y-90495608D01*
X86367151Y-90487353D01*
X86366830Y-90483666D01*
X86355856Y-90392654D01*
X86339775Y-90299370D01*
X86318812Y-90204804D01*
X86293193Y-90109944D01*
X86263145Y-90015776D01*
X86253519Y-89988417D01*
X86248578Y-89974808D01*
X86244161Y-89962890D01*
X86240848Y-89954218D01*
X86239498Y-89950913D01*
X86237380Y-89945936D01*
X86233381Y-89936340D01*
X86227984Y-89923292D01*
X86221671Y-89907958D01*
X86218137Y-89899344D01*
X86210744Y-89880894D01*
X86205771Y-89867396D01*
X86202999Y-89858134D01*
X86202209Y-89852395D01*
X86202980Y-89849690D01*
X86207841Y-89847735D01*
X86218146Y-89846631D01*
X86233155Y-89846320D01*
X86252128Y-89846742D01*
G37*
D14*
X95337258Y-87077500D02*
X94862742Y-87077500D01*
X95337258Y-88122500D02*
X94862742Y-88122500D01*
X111792164Y-106890000D02*
X112007836Y-106890000D01*
X111792164Y-107610000D02*
X112007836Y-107610000D01*
X95697936Y-117140000D02*
X96152064Y-117140000D01*
X95697936Y-118610000D02*
X96152064Y-118610000D01*
X103407836Y-85540000D02*
X103192164Y-85540000D01*
X103407836Y-86260000D02*
X103192164Y-86260000D01*
X91890000Y-94890000D02*
X92840000Y-94890000D01*
X91890000Y-95840000D02*
X91890000Y-94890000D01*
X91890000Y-104160000D02*
X91890000Y-105110000D01*
X91890000Y-105110000D02*
X92840000Y-105110000D01*
X102110000Y-94890000D02*
X101160000Y-94890000D01*
X102110000Y-95840000D02*
X102110000Y-94890000D01*
X102110000Y-104160000D02*
X102110000Y-105110000D01*
X102110000Y-105110000D02*
X101160000Y-105110000D01*
X101630000Y-94615000D02*
X101160000Y-94275000D01*
X101630000Y-93935000D01*
X101630000Y-94615000D01*
G36*
X101630000Y-94615000D02*
G01*
X101160000Y-94275000D01*
X101630000Y-93935000D01*
X101630000Y-94615000D01*
G37*
X107505000Y-100670000D02*
X107505000Y-103330000D01*
X110105000Y-100670000D02*
X107505000Y-100670000D01*
X110105000Y-100670000D02*
X110105000Y-103330000D01*
X110105000Y-103330000D02*
X107505000Y-103330000D01*
X111375000Y-100670000D02*
X112705000Y-100670000D01*
X112705000Y-100670000D02*
X112705000Y-102000000D01*
X84500000Y-94000000D02*
X84500000Y-98000000D01*
X86500000Y-94000000D02*
X86500000Y-98000000D01*
X91300000Y-112150000D02*
X91300000Y-110200000D01*
X91300000Y-112150000D02*
X91300000Y-114100000D01*
X96420000Y-112150000D02*
X96420000Y-110200000D01*
X96420000Y-112150000D02*
X96420000Y-114100000D01*
X96655000Y-109690000D02*
X96325000Y-109450000D01*
X96655000Y-109210000D01*
X96655000Y-109690000D01*
G36*
X96655000Y-109690000D02*
G01*
X96325000Y-109450000D01*
X96655000Y-109210000D01*
X96655000Y-109690000D01*
G37*
X89963080Y-91665000D02*
X89681920Y-91665000D01*
X89963080Y-92685000D02*
X89681920Y-92685000D01*
X97440000Y-110500000D02*
X97440000Y-109700000D01*
X97440000Y-110500000D02*
X97440000Y-111300000D01*
X100560000Y-110500000D02*
X100560000Y-109700000D01*
X100560000Y-110500000D02*
X100560000Y-111300000D01*
X97490000Y-111800000D02*
X97160000Y-112040000D01*
X97160000Y-111560000D01*
X97490000Y-111800000D01*
G36*
X97490000Y-111800000D02*
G01*
X97160000Y-112040000D01*
X97160000Y-111560000D01*
X97490000Y-111800000D01*
G37*
X86140000Y-120340000D02*
X86140000Y-126310000D01*
X86140000Y-126310000D02*
X98760000Y-126310000D01*
X86150000Y-124050000D02*
X86900000Y-124050000D01*
X86150000Y-125550000D02*
X86150000Y-126300000D01*
X86150000Y-126300000D02*
X87950000Y-126300000D01*
X86900000Y-121100000D02*
X92450000Y-121100000D01*
X86900000Y-124050000D02*
X86900000Y-121100000D01*
X87950000Y-125550000D02*
X86150000Y-125550000D01*
X87950000Y-126300000D02*
X87950000Y-125550000D01*
X89450000Y-125550000D02*
X89450000Y-126300000D01*
X89450000Y-126300000D02*
X95450000Y-126300000D01*
X95450000Y-125550000D02*
X89450000Y-125550000D01*
X95450000Y-126300000D02*
X95450000Y-125550000D01*
X96950000Y-125550000D02*
X96950000Y-126300000D01*
X96950000Y-126300000D02*
X98750000Y-126300000D01*
X97800000Y-126600000D02*
X99050000Y-126600000D01*
X98000000Y-121100000D02*
X92450000Y-121100000D01*
X98000000Y-124050000D02*
X98000000Y-121100000D01*
X98750000Y-124050000D02*
X98000000Y-124050000D01*
X98750000Y-125550000D02*
X96950000Y-125550000D01*
X98750000Y-126300000D02*
X98750000Y-125550000D01*
X98760000Y-120340000D02*
X86140000Y-120340000D01*
X98760000Y-126310000D02*
X98760000Y-120340000D01*
X99050000Y-126600000D02*
X99050000Y-125350000D01*
X97625000Y-91350000D02*
X100425000Y-91350000D01*
X100425000Y-91350000D02*
X100425000Y-88050000D01*
D16*
X99440247Y-87400000D02*
G75*
G02*
X99159753Y-87400000I-140247J0D01*
G01*
X99159753Y-87400000D02*
G75*
G02*
X99440247Y-87400000I140247J0D01*
G01*
D14*
X87537742Y-100102500D02*
X88012258Y-100102500D01*
X87537742Y-101147500D02*
X88012258Y-101147500D01*
X112327064Y-121065000D02*
X111872936Y-121065000D01*
X112327064Y-122535000D02*
X111872936Y-122535000D01*
X90442164Y-104840000D02*
X90657836Y-104840000D01*
X90442164Y-105560000D02*
X90657836Y-105560000D01*
X108255000Y-99204000D02*
X108255000Y-98569000D01*
X108890000Y-99204000D02*
X108255000Y-99204000D01*
X96092164Y-92140000D02*
X96307836Y-92140000D01*
X96092164Y-92860000D02*
X96307836Y-92860000D01*
X103192164Y-83890000D02*
X103407836Y-83890000D01*
X103192164Y-84610000D02*
X103407836Y-84610000D01*
X84895000Y-108905000D02*
X84895000Y-106305000D01*
X87555000Y-106305000D02*
X84895000Y-106305000D01*
X87555000Y-108905000D02*
X84895000Y-108905000D01*
X87555000Y-108905000D02*
X87555000Y-106305000D01*
X87555000Y-110175000D02*
X87555000Y-111505000D01*
X87555000Y-111505000D02*
X86225000Y-111505000D01*
X95337258Y-84877500D02*
X94862742Y-84877500D01*
X95337258Y-85922500D02*
X94862742Y-85922500D01*
X101790000Y-109265000D02*
X103050000Y-109265000D01*
X101790000Y-115275000D02*
X101790000Y-109265000D01*
X108610000Y-109265000D02*
X107350000Y-109265000D01*
X108610000Y-113025000D02*
X108610000Y-109265000D01*
X110027064Y-104365000D02*
X109572936Y-104365000D01*
X110027064Y-105835000D02*
X109572936Y-105835000D01*
X94062500Y-90582836D02*
X94062500Y-90367164D01*
X94782500Y-90582836D02*
X94782500Y-90367164D01*
D15*
G36*
X102213165Y-93668777D02*
G01*
X102208352Y-93676111D01*
X102191984Y-93677252D01*
X102174765Y-93673311D01*
X102182235Y-93667503D01*
X102207455Y-93665579D01*
X102213165Y-93668777D01*
G37*
G36*
X112609911Y-90991678D02*
G01*
X112609911Y-91548412D01*
X112480813Y-91548412D01*
X112351715Y-91548412D01*
X112351715Y-90991678D01*
X112351715Y-90434943D01*
X112480813Y-90434943D01*
X112609911Y-90434943D01*
X112609911Y-90991678D01*
G37*
G36*
X113061754Y-90886786D02*
G01*
X113061754Y-91338628D01*
X113505527Y-91338628D01*
X113949301Y-91338628D01*
X113949301Y-91443520D01*
X113949301Y-91548412D01*
X113376430Y-91548412D01*
X112803558Y-91548412D01*
X112803558Y-90991678D01*
X112803558Y-90434943D01*
X112932656Y-90434943D01*
X113061754Y-90434943D01*
X113061754Y-90886786D01*
G37*
G36*
X105735451Y-91951843D02*
G01*
X105735451Y-92016392D01*
X105517599Y-92016392D01*
X105299746Y-92016392D01*
X105299746Y-92387548D01*
X105299746Y-92758704D01*
X105219060Y-92758704D01*
X105138374Y-92758704D01*
X105138374Y-92387548D01*
X105138374Y-92016392D01*
X104912452Y-92016392D01*
X104686531Y-92016392D01*
X104686531Y-91951843D01*
X104686531Y-91887294D01*
X105210991Y-91887294D01*
X105735451Y-91887294D01*
X105735451Y-91951843D01*
G37*
G36*
X113900890Y-91951843D02*
G01*
X113900890Y-92016392D01*
X113683037Y-92016392D01*
X113465184Y-92016392D01*
X113465184Y-92387548D01*
X113465184Y-92758704D01*
X113384498Y-92758704D01*
X113303812Y-92758704D01*
X113303812Y-92387548D01*
X113303812Y-92016392D01*
X113077891Y-92016392D01*
X112851970Y-92016392D01*
X112851970Y-91951843D01*
X112851970Y-91887294D01*
X113376430Y-91887294D01*
X113900890Y-91887294D01*
X113900890Y-91951843D01*
G37*
G36*
X110512071Y-90539835D02*
G01*
X110512071Y-90644727D01*
X110052160Y-90644727D01*
X109592249Y-90644727D01*
X109592249Y-90749619D01*
X109592249Y-90854511D01*
X110027954Y-90854511D01*
X110463660Y-90854511D01*
X110463660Y-90959403D01*
X110463660Y-91064295D01*
X110027954Y-91064295D01*
X109592249Y-91064295D01*
X109592249Y-91201462D01*
X109592249Y-91338628D01*
X110052160Y-91338628D01*
X110512071Y-91338628D01*
X110512071Y-91443520D01*
X110512071Y-91548412D01*
X109923062Y-91548412D01*
X109334053Y-91548412D01*
X109334053Y-90991678D01*
X109334053Y-90434943D01*
X109923062Y-90434943D01*
X110512071Y-90434943D01*
X110512071Y-90539835D01*
G37*
G36*
X106703685Y-90991678D02*
G01*
X106703685Y-91548412D01*
X106638967Y-91548412D01*
X106621231Y-91547003D01*
X106600656Y-91541710D01*
X106574682Y-91530930D01*
X106540751Y-91513061D01*
X106496302Y-91486504D01*
X106438777Y-91449655D01*
X106365618Y-91400913D01*
X106274263Y-91338677D01*
X106162156Y-91261345D01*
X106026736Y-91167316D01*
X105997512Y-91146980D01*
X105420775Y-90745549D01*
X105416464Y-91146980D01*
X105412152Y-91548412D01*
X105299469Y-91548412D01*
X105186785Y-91548412D01*
X105186785Y-90991678D01*
X105186785Y-90434943D01*
X105303780Y-90435786D01*
X105420775Y-90436629D01*
X105945235Y-90812907D01*
X106469695Y-91189184D01*
X106474022Y-90812064D01*
X106478348Y-90434943D01*
X106591016Y-90434943D01*
X106703685Y-90434943D01*
X106703685Y-90991678D01*
G37*
G36*
X110722111Y-90438346D02*
G01*
X110871572Y-90443012D01*
X111142915Y-90859559D01*
X111414258Y-91276107D01*
X111506010Y-91133892D01*
X111544495Y-91074025D01*
X111595601Y-90994212D01*
X111654661Y-90901759D01*
X111717006Y-90803974D01*
X111774697Y-90713310D01*
X111951632Y-90434943D01*
X112095995Y-90434943D01*
X112165433Y-90435795D01*
X112207444Y-90438886D01*
X112226843Y-90445020D01*
X112228447Y-90454999D01*
X112227454Y-90456873D01*
X112215938Y-90474773D01*
X112188553Y-90516545D01*
X112147289Y-90579180D01*
X112094135Y-90659664D01*
X112031080Y-90754989D01*
X111960113Y-90862141D01*
X111883223Y-90978110D01*
X111859672Y-91013607D01*
X111504795Y-91548412D01*
X111407830Y-91548000D01*
X111310864Y-91547588D01*
X110971982Y-91037865D01*
X110894612Y-90921443D01*
X110821850Y-90811869D01*
X110755878Y-90712433D01*
X110698877Y-90626427D01*
X110653029Y-90557143D01*
X110620515Y-90507874D01*
X110603518Y-90481911D01*
X110602876Y-90480910D01*
X110572651Y-90433680D01*
X110722111Y-90438346D01*
G37*
G36*
X102435762Y-92240806D02*
G01*
X102511843Y-92345905D01*
X102571383Y-92427428D01*
X102616697Y-92487990D01*
X102650103Y-92530207D01*
X102673918Y-92556693D01*
X102690459Y-92570064D01*
X102702045Y-92572934D01*
X102710991Y-92567919D01*
X102718168Y-92559516D01*
X102734919Y-92536947D01*
X102767530Y-92492259D01*
X102813035Y-92429549D01*
X102868466Y-92352911D01*
X102930854Y-92266440D01*
X102974377Y-92206004D01*
X103203726Y-91887294D01*
X103275434Y-91887294D01*
X103347141Y-91887294D01*
X103347141Y-92322999D01*
X103347141Y-92758704D01*
X103266819Y-92758704D01*
X103186497Y-92758704D01*
X103182099Y-92467035D01*
X103177700Y-92175365D01*
X102967916Y-92466539D01*
X102758132Y-92757713D01*
X102685515Y-92757713D01*
X102612897Y-92757713D01*
X102403113Y-92466539D01*
X102193329Y-92175365D01*
X102188931Y-92467035D01*
X102184533Y-92758704D01*
X102104210Y-92758704D01*
X102023888Y-92758704D01*
X102023888Y-92322999D01*
X102023888Y-91887294D01*
X102102051Y-91887294D01*
X102180214Y-91887294D01*
X102435762Y-92240806D01*
G37*
G36*
X107641936Y-91887656D02*
G01*
X107752533Y-91889163D01*
X107838717Y-91892446D01*
X107904416Y-91898138D01*
X107953557Y-91906868D01*
X107990070Y-91919270D01*
X108017883Y-91935974D01*
X108040923Y-91957612D01*
X108056503Y-91976269D01*
X108076674Y-92009191D01*
X108087473Y-92049813D01*
X108091324Y-92108799D01*
X108091487Y-92130291D01*
X108089688Y-92193258D01*
X108082334Y-92235306D01*
X108066483Y-92267681D01*
X108049954Y-92289195D01*
X108005859Y-92327384D01*
X107953553Y-92354852D01*
X107948135Y-92356616D01*
X107887848Y-92374678D01*
X107987442Y-92566691D01*
X108087036Y-92758704D01*
X107996472Y-92758352D01*
X107905909Y-92757999D01*
X107807450Y-92568739D01*
X107708992Y-92379479D01*
X107480672Y-92375002D01*
X107252351Y-92370525D01*
X107252351Y-92564615D01*
X107252351Y-92758704D01*
X107171665Y-92758704D01*
X107090978Y-92758704D01*
X107090978Y-92322999D01*
X107090978Y-92242313D01*
X107252351Y-92242313D01*
X107555368Y-92242313D01*
X107666307Y-92241864D01*
X107749519Y-92240293D01*
X107809539Y-92237263D01*
X107850904Y-92232438D01*
X107878150Y-92225482D01*
X107894249Y-92217192D01*
X107920960Y-92180965D01*
X107930515Y-92130223D01*
X107922205Y-92078221D01*
X107903408Y-92045903D01*
X107891448Y-92035628D01*
X107873785Y-92028038D01*
X107845840Y-92022734D01*
X107803039Y-92019316D01*
X107740804Y-92017386D01*
X107654559Y-92016547D01*
X107564526Y-92016392D01*
X107252351Y-92016392D01*
X107252351Y-92129352D01*
X107252351Y-92242313D01*
X107090978Y-92242313D01*
X107090978Y-92129352D01*
X107090978Y-91887294D01*
X107502996Y-91887294D01*
X107641936Y-91887656D01*
G37*
G36*
X112305595Y-91887656D02*
G01*
X112416193Y-91889163D01*
X112502377Y-91892446D01*
X112568075Y-91898138D01*
X112617217Y-91906868D01*
X112653730Y-91919270D01*
X112681542Y-91935974D01*
X112704583Y-91957612D01*
X112720162Y-91976269D01*
X112740333Y-92009191D01*
X112751133Y-92049813D01*
X112754983Y-92108799D01*
X112755146Y-92130291D01*
X112753348Y-92193258D01*
X112745993Y-92235306D01*
X112730142Y-92267681D01*
X112713614Y-92289195D01*
X112669519Y-92327384D01*
X112617212Y-92354852D01*
X112611794Y-92356616D01*
X112551507Y-92374678D01*
X112651102Y-92566691D01*
X112750696Y-92758704D01*
X112660132Y-92758352D01*
X112569568Y-92757999D01*
X112471110Y-92568739D01*
X112372652Y-92379479D01*
X112144331Y-92375002D01*
X111916010Y-92370525D01*
X111916010Y-92564615D01*
X111916010Y-92758704D01*
X111835324Y-92758704D01*
X111754638Y-92758704D01*
X111754638Y-92322999D01*
X111754638Y-92242313D01*
X111916010Y-92242313D01*
X112219027Y-92242313D01*
X112329967Y-92241864D01*
X112413178Y-92240293D01*
X112473198Y-92237263D01*
X112514563Y-92232438D01*
X112541810Y-92225482D01*
X112557909Y-92217192D01*
X112584620Y-92180965D01*
X112594175Y-92130223D01*
X112585865Y-92078221D01*
X112567067Y-92045903D01*
X112555108Y-92035628D01*
X112537444Y-92028038D01*
X112509500Y-92022734D01*
X112466698Y-92019316D01*
X112404463Y-92017386D01*
X112318218Y-92016547D01*
X112228185Y-92016392D01*
X111916010Y-92016392D01*
X111916010Y-92129352D01*
X111916010Y-92242313D01*
X111754638Y-92242313D01*
X111754638Y-92129352D01*
X111754638Y-91887294D01*
X112166656Y-91887294D01*
X112305595Y-91887656D01*
G37*
G36*
X109939476Y-91887672D02*
G01*
X110048150Y-91889205D01*
X110132595Y-91892488D01*
X110196830Y-91898119D01*
X110244874Y-91906694D01*
X110280748Y-91918809D01*
X110308472Y-91935061D01*
X110332065Y-91956048D01*
X110342630Y-91967447D01*
X110357936Y-91989054D01*
X110367567Y-92017203D01*
X110372754Y-92059312D01*
X110374733Y-92122801D01*
X110374905Y-92161627D01*
X110373997Y-92237567D01*
X110370453Y-92288682D01*
X110363039Y-92322391D01*
X110350523Y-92346114D01*
X110342630Y-92355807D01*
X110316680Y-92381453D01*
X110287408Y-92401042D01*
X110250265Y-92415366D01*
X110200707Y-92425220D01*
X110134184Y-92431395D01*
X110046149Y-92434686D01*
X109932057Y-92435887D01*
X109883238Y-92435960D01*
X109559975Y-92435960D01*
X109559975Y-92597332D01*
X109559975Y-92758704D01*
X109479289Y-92758704D01*
X109398602Y-92758704D01*
X109398602Y-92322999D01*
X109398602Y-92306862D01*
X109559975Y-92306862D01*
X109858513Y-92306862D01*
X109964314Y-92306635D01*
X110042659Y-92305642D01*
X110098365Y-92303413D01*
X110136251Y-92299477D01*
X110161134Y-92293364D01*
X110177831Y-92284605D01*
X110189327Y-92274587D01*
X110211706Y-92239540D01*
X110220938Y-92187474D01*
X110221601Y-92161627D01*
X110216534Y-92100611D01*
X110199400Y-92060399D01*
X110189327Y-92048666D01*
X110175817Y-92037253D01*
X110158269Y-92028891D01*
X110131864Y-92023109D01*
X110091785Y-92019439D01*
X110033214Y-92017410D01*
X109951334Y-92016552D01*
X109858513Y-92016392D01*
X109559975Y-92016392D01*
X109559975Y-92161627D01*
X109559975Y-92306862D01*
X109398602Y-92306862D01*
X109398602Y-92161627D01*
X109398602Y-91887294D01*
X109802551Y-91887294D01*
X109939476Y-91887672D01*
G37*
G36*
X103831258Y-90867421D02*
G01*
X103831717Y-91009765D01*
X103833162Y-91122187D01*
X103835692Y-91207025D01*
X103839409Y-91266619D01*
X103844411Y-91303309D01*
X103850623Y-91319263D01*
X103872714Y-91325550D01*
X103921712Y-91330701D01*
X103992269Y-91334714D01*
X104079037Y-91337592D01*
X104176670Y-91339332D01*
X104279818Y-91339936D01*
X104383136Y-91339404D01*
X104481274Y-91337735D01*
X104568885Y-91334929D01*
X104640622Y-91330987D01*
X104691137Y-91325909D01*
X104715082Y-91319693D01*
X104715578Y-91319263D01*
X104721931Y-91302653D01*
X104726900Y-91265420D01*
X104730586Y-91205224D01*
X104733088Y-91119725D01*
X104734507Y-91006585D01*
X104734943Y-90867421D01*
X104734943Y-90434943D01*
X104864729Y-90434943D01*
X104994516Y-90434943D01*
X104989793Y-90909841D01*
X104988328Y-91046605D01*
X104986779Y-91154872D01*
X104984870Y-91238420D01*
X104982324Y-91301026D01*
X104978865Y-91346467D01*
X104974217Y-91378520D01*
X104968105Y-91400964D01*
X104960251Y-91417574D01*
X104951754Y-91430266D01*
X104915264Y-91467233D01*
X104866691Y-91501641D01*
X104854931Y-91508069D01*
X104834748Y-91517330D01*
X104812143Y-91524687D01*
X104783243Y-91530392D01*
X104744175Y-91534698D01*
X104691066Y-91537856D01*
X104620042Y-91540119D01*
X104527231Y-91541739D01*
X104408759Y-91542969D01*
X104307306Y-91543741D01*
X104157798Y-91544434D01*
X104037169Y-91544118D01*
X103942039Y-91542679D01*
X103869023Y-91540001D01*
X103814741Y-91535969D01*
X103775810Y-91530468D01*
X103753296Y-91524885D01*
X103702093Y-91504359D01*
X103659336Y-91480199D01*
X103650212Y-91473076D01*
X103628738Y-91451940D01*
X103611643Y-91428465D01*
X103598433Y-91398898D01*
X103588612Y-91359486D01*
X103581688Y-91306476D01*
X103577165Y-91236114D01*
X103574549Y-91144649D01*
X103573347Y-91028326D01*
X103573062Y-90887304D01*
X103573062Y-90434943D01*
X103702160Y-90434943D01*
X103831258Y-90434943D01*
X103831258Y-90867421D01*
G37*
G36*
X108297236Y-90438106D02*
G01*
X108466028Y-90439518D01*
X108605733Y-90441191D01*
X108719540Y-90443619D01*
X108810636Y-90447297D01*
X108882209Y-90452720D01*
X108937446Y-90460382D01*
X108979534Y-90470779D01*
X109011662Y-90484405D01*
X109037017Y-90501755D01*
X109058786Y-90523323D01*
X109080157Y-90549605D01*
X109088872Y-90560977D01*
X109132338Y-90617919D01*
X109137649Y-90958102D01*
X109139097Y-91088980D01*
X109138389Y-91191978D01*
X109134791Y-91271460D01*
X109127572Y-91331789D01*
X109116002Y-91377328D01*
X109099347Y-91412441D01*
X109076878Y-91441492D01*
X109052725Y-91464619D01*
X109027172Y-91484975D01*
X108999047Y-91501771D01*
X108965135Y-91515345D01*
X108922221Y-91526034D01*
X108867089Y-91534172D01*
X108796524Y-91540098D01*
X108707313Y-91544147D01*
X108596238Y-91546655D01*
X108460087Y-91547961D01*
X108295642Y-91548399D01*
X108252065Y-91548412D01*
X107671919Y-91548412D01*
X107671919Y-91338628D01*
X107930114Y-91338628D01*
X108376652Y-91338628D01*
X108510333Y-91338439D01*
X108615446Y-91337734D01*
X108695696Y-91336304D01*
X108754788Y-91333942D01*
X108796428Y-91330439D01*
X108824319Y-91325589D01*
X108842167Y-91319183D01*
X108852700Y-91311921D01*
X108863414Y-91299363D01*
X108871196Y-91280791D01*
X108876503Y-91251376D01*
X108879795Y-91206289D01*
X108881529Y-91140700D01*
X108882162Y-91049781D01*
X108882211Y-91000836D01*
X108881708Y-90893320D01*
X108879955Y-90813374D01*
X108876582Y-90756305D01*
X108871222Y-90717423D01*
X108863508Y-90692033D01*
X108857090Y-90680592D01*
X108849018Y-90670075D01*
X108838786Y-90661846D01*
X108822669Y-90655624D01*
X108796946Y-90651128D01*
X108757892Y-90648078D01*
X108701785Y-90646193D01*
X108624900Y-90645194D01*
X108523515Y-90644799D01*
X108393906Y-90644727D01*
X108381042Y-90644727D01*
X107930114Y-90644727D01*
X107930114Y-90991678D01*
X107930114Y-91338628D01*
X107671919Y-91338628D01*
X107671919Y-90991678D01*
X107671919Y-90990806D01*
X107671919Y-90433200D01*
X108297236Y-90438106D01*
G37*
G36*
X109204956Y-91951843D02*
G01*
X109204956Y-92016392D01*
X108812095Y-92016392D01*
X108688607Y-92016561D01*
X108593375Y-92017257D01*
X108522383Y-92018762D01*
X108471613Y-92021360D01*
X108437048Y-92025331D01*
X108414672Y-92030960D01*
X108400467Y-92038528D01*
X108392527Y-92045903D01*
X108369420Y-92090997D01*
X108367730Y-92142300D01*
X108386686Y-92186780D01*
X108401685Y-92201055D01*
X108419609Y-92209964D01*
X108447298Y-92216568D01*
X108489159Y-92221179D01*
X108549600Y-92224110D01*
X108633029Y-92225670D01*
X108743856Y-92226172D01*
X108757222Y-92226176D01*
X108882178Y-92226838D01*
X108979383Y-92229405D01*
X109053345Y-92234747D01*
X109108570Y-92243732D01*
X109149567Y-92257232D01*
X109180843Y-92276114D01*
X109206904Y-92301249D01*
X109218383Y-92315151D01*
X109236449Y-92343287D01*
X109247108Y-92376876D01*
X109252150Y-92424985D01*
X109253367Y-92492440D01*
X109252006Y-92562755D01*
X109246727Y-92609932D01*
X109235744Y-92643038D01*
X109218383Y-92669729D01*
X109196778Y-92694847D01*
X109173324Y-92714754D01*
X109144176Y-92730053D01*
X109105486Y-92741343D01*
X109053407Y-92749226D01*
X108984093Y-92754303D01*
X108893697Y-92757174D01*
X108778372Y-92758440D01*
X108648739Y-92758704D01*
X108220585Y-92758704D01*
X108220585Y-92694155D01*
X108220585Y-92629607D01*
X108620425Y-92629607D01*
X108755957Y-92629457D01*
X108862662Y-92628339D01*
X108943987Y-92625251D01*
X109003378Y-92619190D01*
X109044282Y-92609154D01*
X109070146Y-92594139D01*
X109084417Y-92573143D01*
X109090542Y-92545164D01*
X109091968Y-92509199D01*
X109091995Y-92492440D01*
X109091036Y-92449625D01*
X109085639Y-92416795D01*
X109072022Y-92392625D01*
X109046404Y-92375790D01*
X109005004Y-92364965D01*
X108944042Y-92358825D01*
X108859735Y-92356045D01*
X108748304Y-92355299D01*
X108700593Y-92355274D01*
X108575637Y-92354611D01*
X108478432Y-92352044D01*
X108404470Y-92346702D01*
X108349244Y-92337717D01*
X108308247Y-92324218D01*
X108276972Y-92305336D01*
X108250910Y-92280201D01*
X108239431Y-92266298D01*
X108213792Y-92212210D01*
X108202579Y-92141929D01*
X108205793Y-92068134D01*
X108223434Y-92003502D01*
X108239431Y-91976269D01*
X108261468Y-91950755D01*
X108285495Y-91930621D01*
X108315439Y-91915237D01*
X108355229Y-91903971D01*
X108408793Y-91896192D01*
X108480060Y-91891268D01*
X108572958Y-91888568D01*
X108691415Y-91887460D01*
X108792938Y-91887294D01*
X109204956Y-91887294D01*
X109204956Y-91951843D01*
G37*
G36*
X114965947Y-91951843D02*
G01*
X114965947Y-92016392D01*
X114573086Y-92016392D01*
X114449598Y-92016561D01*
X114354366Y-92017257D01*
X114283374Y-92018762D01*
X114232604Y-92021360D01*
X114198039Y-92025331D01*
X114175663Y-92030960D01*
X114161458Y-92038528D01*
X114153518Y-92045903D01*
X114130411Y-92090997D01*
X114128721Y-92142300D01*
X114147677Y-92186780D01*
X114162676Y-92201055D01*
X114180600Y-92209964D01*
X114208289Y-92216568D01*
X114250150Y-92221179D01*
X114310591Y-92224110D01*
X114394020Y-92225670D01*
X114504847Y-92226172D01*
X114518213Y-92226176D01*
X114643169Y-92226838D01*
X114740374Y-92229405D01*
X114814336Y-92234747D01*
X114869562Y-92243732D01*
X114910559Y-92257232D01*
X114941834Y-92276114D01*
X114967895Y-92301249D01*
X114979375Y-92315151D01*
X114997440Y-92343287D01*
X115008099Y-92376876D01*
X115013141Y-92424985D01*
X115014358Y-92492440D01*
X115012997Y-92562755D01*
X115007719Y-92609932D01*
X114996735Y-92643038D01*
X114979375Y-92669729D01*
X114957769Y-92694847D01*
X114934315Y-92714754D01*
X114905167Y-92730053D01*
X114866477Y-92741343D01*
X114814398Y-92749226D01*
X114745084Y-92754303D01*
X114654688Y-92757174D01*
X114539363Y-92758440D01*
X114409731Y-92758704D01*
X113981576Y-92758704D01*
X113981576Y-92694155D01*
X113981576Y-92629607D01*
X114381416Y-92629607D01*
X114516948Y-92629457D01*
X114623654Y-92628339D01*
X114704978Y-92625251D01*
X114764369Y-92619190D01*
X114805273Y-92609154D01*
X114831137Y-92594139D01*
X114845408Y-92573143D01*
X114851533Y-92545164D01*
X114852959Y-92509199D01*
X114852986Y-92492440D01*
X114852027Y-92449625D01*
X114846630Y-92416795D01*
X114833013Y-92392625D01*
X114807395Y-92375790D01*
X114765995Y-92364965D01*
X114705033Y-92358825D01*
X114620727Y-92356045D01*
X114509295Y-92355299D01*
X114461584Y-92355274D01*
X114336628Y-92354611D01*
X114239423Y-92352044D01*
X114165461Y-92346702D01*
X114110235Y-92337717D01*
X114069238Y-92324218D01*
X114037963Y-92305336D01*
X114011902Y-92280201D01*
X114000422Y-92266298D01*
X113979084Y-92230477D01*
X113968343Y-92185454D01*
X113965438Y-92121284D01*
X113968463Y-92056114D01*
X113979378Y-92011369D01*
X114000422Y-91976269D01*
X114022459Y-91950755D01*
X114046486Y-91930621D01*
X114076430Y-91915237D01*
X114116220Y-91903971D01*
X114169784Y-91896192D01*
X114241051Y-91891268D01*
X114333949Y-91888568D01*
X114452406Y-91887460D01*
X114553929Y-91887294D01*
X114965947Y-91887294D01*
X114965947Y-91951843D01*
G37*
G36*
X104065248Y-91887294D02*
G01*
X104212686Y-91887312D01*
X104331049Y-91889055D01*
X104423527Y-91895055D01*
X104493308Y-91907846D01*
X104543582Y-91929959D01*
X104577537Y-91963927D01*
X104598364Y-92012283D01*
X104609252Y-92077560D01*
X104613390Y-92162291D01*
X104613966Y-92269007D01*
X104613914Y-92322999D01*
X104613901Y-92439826D01*
X104611744Y-92533683D01*
X104604263Y-92607076D01*
X104588278Y-92662510D01*
X104560612Y-92702490D01*
X104518085Y-92729520D01*
X104457518Y-92746105D01*
X104375731Y-92754751D01*
X104269546Y-92757961D01*
X104135783Y-92758242D01*
X104061732Y-92758073D01*
X103926607Y-92757302D01*
X103820527Y-92755375D01*
X103740278Y-92752127D01*
X103682647Y-92747392D01*
X103644420Y-92741004D01*
X103628174Y-92735767D01*
X103581978Y-92706805D01*
X103543454Y-92669673D01*
X103531181Y-92652332D01*
X103522171Y-92632770D01*
X103515923Y-92606007D01*
X103511936Y-92567065D01*
X103509706Y-92510965D01*
X103508732Y-92432729D01*
X103508514Y-92327378D01*
X103508513Y-92322999D01*
X103508519Y-92320195D01*
X103669886Y-92320195D01*
X103670383Y-92418634D01*
X103672201Y-92489922D01*
X103675826Y-92539172D01*
X103681748Y-92571496D01*
X103690453Y-92592009D01*
X103696593Y-92600096D01*
X103708100Y-92610031D01*
X103725086Y-92617465D01*
X103751935Y-92622756D01*
X103793032Y-92626258D01*
X103852763Y-92628330D01*
X103935513Y-92629326D01*
X104045667Y-92629604D01*
X104059680Y-92629607D01*
X104172653Y-92629427D01*
X104257837Y-92628625D01*
X104319719Y-92626810D01*
X104362783Y-92623588D01*
X104391516Y-92618566D01*
X104410403Y-92611353D01*
X104423929Y-92601554D01*
X104428336Y-92597332D01*
X104440868Y-92582224D01*
X104449679Y-92562461D01*
X104455414Y-92532564D01*
X104458718Y-92487051D01*
X104460235Y-92420442D01*
X104460610Y-92327257D01*
X104460610Y-92322999D01*
X104461047Y-92227821D01*
X104459877Y-92154602D01*
X104453383Y-92100478D01*
X104437844Y-92062587D01*
X104409542Y-92038062D01*
X104364758Y-92024040D01*
X104299773Y-92017658D01*
X104210867Y-92016050D01*
X104094322Y-92016353D01*
X104062484Y-92016392D01*
X103948088Y-92016694D01*
X103861607Y-92017814D01*
X103798689Y-92020073D01*
X103754979Y-92023790D01*
X103726122Y-92029286D01*
X103707765Y-92036881D01*
X103699397Y-92043099D01*
X103688051Y-92056544D01*
X103680015Y-92076485D01*
X103674734Y-92108120D01*
X103671655Y-92156654D01*
X103670224Y-92227285D01*
X103669886Y-92320195D01*
X103508519Y-92320195D01*
X103508749Y-92206716D01*
X103511569Y-92113207D01*
X103520143Y-92039991D01*
X103537643Y-91984588D01*
X103567238Y-91944516D01*
X103612099Y-91917294D01*
X103675396Y-91900441D01*
X103760300Y-91891475D01*
X103869980Y-91887917D01*
X104007608Y-91887284D01*
X104065248Y-91887294D01*
G37*
G36*
X106372872Y-91887294D02*
G01*
X106520310Y-91887312D01*
X106638673Y-91889055D01*
X106731151Y-91895055D01*
X106800932Y-91907846D01*
X106851205Y-91929959D01*
X106885161Y-91963927D01*
X106905988Y-92012283D01*
X106916876Y-92077560D01*
X106921013Y-92162291D01*
X106921590Y-92269007D01*
X106921538Y-92322999D01*
X106921525Y-92439826D01*
X106919368Y-92533683D01*
X106911886Y-92607076D01*
X106895902Y-92662510D01*
X106868236Y-92702490D01*
X106825709Y-92729520D01*
X106765142Y-92746105D01*
X106683355Y-92754751D01*
X106577170Y-92757961D01*
X106443407Y-92758242D01*
X106369356Y-92758073D01*
X106234230Y-92757302D01*
X106128151Y-92755375D01*
X106047902Y-92752127D01*
X105990271Y-92747392D01*
X105952044Y-92741004D01*
X105935798Y-92735767D01*
X105889602Y-92706805D01*
X105851077Y-92669673D01*
X105838805Y-92652332D01*
X105829795Y-92632770D01*
X105823547Y-92606007D01*
X105819559Y-92567065D01*
X105817330Y-92510965D01*
X105816356Y-92432729D01*
X105816137Y-92327378D01*
X105816137Y-92322999D01*
X105816143Y-92320195D01*
X105977510Y-92320195D01*
X105978007Y-92418634D01*
X105979825Y-92489922D01*
X105983450Y-92539172D01*
X105989372Y-92571496D01*
X105998077Y-92592009D01*
X106004217Y-92600096D01*
X106015724Y-92610031D01*
X106032709Y-92617465D01*
X106059558Y-92622756D01*
X106100656Y-92626258D01*
X106160387Y-92628330D01*
X106243137Y-92629326D01*
X106353291Y-92629604D01*
X106367304Y-92629607D01*
X106480277Y-92629427D01*
X106565461Y-92628625D01*
X106627342Y-92626810D01*
X106670407Y-92623588D01*
X106699140Y-92618566D01*
X106718027Y-92611353D01*
X106731553Y-92601554D01*
X106735959Y-92597332D01*
X106748492Y-92582224D01*
X106757303Y-92562461D01*
X106763038Y-92532564D01*
X106766342Y-92487051D01*
X106767859Y-92420442D01*
X106768234Y-92327257D01*
X106768234Y-92322999D01*
X106768671Y-92227821D01*
X106767501Y-92154602D01*
X106761007Y-92100478D01*
X106745468Y-92062587D01*
X106717166Y-92038062D01*
X106672382Y-92024040D01*
X106607397Y-92017658D01*
X106518491Y-92016050D01*
X106401946Y-92016353D01*
X106370108Y-92016392D01*
X106255712Y-92016694D01*
X106169231Y-92017814D01*
X106106313Y-92020073D01*
X106062603Y-92023790D01*
X106033746Y-92029286D01*
X106015389Y-92036881D01*
X106007020Y-92043099D01*
X105995675Y-92056544D01*
X105987639Y-92076485D01*
X105982358Y-92108120D01*
X105979279Y-92156654D01*
X105977848Y-92227285D01*
X105977510Y-92320195D01*
X105816143Y-92320195D01*
X105816373Y-92206716D01*
X105819193Y-92113207D01*
X105827767Y-92039991D01*
X105845267Y-91984588D01*
X105874862Y-91944516D01*
X105919723Y-91917294D01*
X105983020Y-91900441D01*
X106067924Y-91891475D01*
X106177604Y-91887917D01*
X106315232Y-91887284D01*
X106372872Y-91887294D01*
G37*
G36*
X111052668Y-91887294D02*
G01*
X111200107Y-91887312D01*
X111318470Y-91889055D01*
X111410947Y-91895055D01*
X111480728Y-91907846D01*
X111531002Y-91929959D01*
X111564958Y-91963927D01*
X111585785Y-92012283D01*
X111596673Y-92077560D01*
X111600810Y-92162291D01*
X111601387Y-92269007D01*
X111601334Y-92322999D01*
X111601322Y-92439826D01*
X111599164Y-92533683D01*
X111591683Y-92607076D01*
X111575699Y-92662510D01*
X111548033Y-92702490D01*
X111505506Y-92729520D01*
X111444938Y-92746105D01*
X111363152Y-92754751D01*
X111256966Y-92757961D01*
X111123204Y-92758242D01*
X111049152Y-92758073D01*
X110914027Y-92757302D01*
X110807947Y-92755375D01*
X110727699Y-92752127D01*
X110670068Y-92747392D01*
X110631841Y-92741004D01*
X110615595Y-92735767D01*
X110569399Y-92706805D01*
X110530874Y-92669673D01*
X110518601Y-92652332D01*
X110509592Y-92632770D01*
X110503344Y-92606007D01*
X110499356Y-92567065D01*
X110497126Y-92510965D01*
X110496153Y-92432729D01*
X110495934Y-92327378D01*
X110495934Y-92322999D01*
X110495940Y-92320195D01*
X110657306Y-92320195D01*
X110657804Y-92418634D01*
X110659621Y-92489922D01*
X110663247Y-92539172D01*
X110669168Y-92571496D01*
X110677873Y-92592009D01*
X110684013Y-92600096D01*
X110695521Y-92610031D01*
X110712506Y-92617465D01*
X110739355Y-92622756D01*
X110780453Y-92626258D01*
X110840184Y-92628330D01*
X110922934Y-92629326D01*
X111033088Y-92629604D01*
X111047101Y-92629607D01*
X111160073Y-92629427D01*
X111245258Y-92628625D01*
X111307139Y-92626810D01*
X111350204Y-92623588D01*
X111378936Y-92618566D01*
X111397823Y-92611353D01*
X111411349Y-92601554D01*
X111415756Y-92597332D01*
X111428288Y-92582224D01*
X111437100Y-92562461D01*
X111442835Y-92532564D01*
X111446138Y-92487051D01*
X111447655Y-92420442D01*
X111448030Y-92327257D01*
X111448031Y-92322999D01*
X111448467Y-92227821D01*
X111447298Y-92154602D01*
X111440803Y-92100478D01*
X111425265Y-92062587D01*
X111396963Y-92038062D01*
X111352179Y-92024040D01*
X111287193Y-92017658D01*
X111198287Y-92016050D01*
X111081742Y-92016353D01*
X111049905Y-92016392D01*
X110935508Y-92016694D01*
X110849028Y-92017814D01*
X110786110Y-92020073D01*
X110742400Y-92023790D01*
X110713543Y-92029286D01*
X110695185Y-92036881D01*
X110686817Y-92043099D01*
X110675471Y-92056544D01*
X110667435Y-92076485D01*
X110662155Y-92108120D01*
X110659076Y-92156654D01*
X110657644Y-92227285D01*
X110657306Y-92320195D01*
X110495940Y-92320195D01*
X110496169Y-92206716D01*
X110498989Y-92113207D01*
X110507564Y-92039991D01*
X110525064Y-91984588D01*
X110554659Y-91944516D01*
X110599520Y-91917294D01*
X110662817Y-91900441D01*
X110747721Y-91891475D01*
X110857401Y-91887917D01*
X110995029Y-91887284D01*
X111052668Y-91887294D01*
G37*
G36*
X103347141Y-90539057D02*
G01*
X103347141Y-90644727D01*
X102833977Y-90644727D01*
X102679067Y-90645089D01*
X102554156Y-90646230D01*
X102456976Y-90648233D01*
X102385261Y-90651179D01*
X102336743Y-90655152D01*
X102309154Y-90660234D01*
X102301449Y-90664092D01*
X102288462Y-90693069D01*
X102282866Y-90737819D01*
X102284597Y-90785176D01*
X102293593Y-90821976D01*
X102302255Y-90833387D01*
X102323153Y-90837097D01*
X102371950Y-90840988D01*
X102444273Y-90844859D01*
X102535751Y-90848514D01*
X102642010Y-90851751D01*
X102758677Y-90854373D01*
X102766201Y-90854511D01*
X102898875Y-90857079D01*
X103003371Y-90859620D01*
X103083783Y-90862467D01*
X103144204Y-90865956D01*
X103188729Y-90870420D01*
X103221451Y-90876195D01*
X103246466Y-90883615D01*
X103267866Y-90893013D01*
X103273609Y-90895962D01*
X103325385Y-90926611D01*
X103361455Y-90959331D01*
X103384559Y-91000562D01*
X103397438Y-91056742D01*
X103402831Y-91134311D01*
X103403621Y-91201462D01*
X103401710Y-91296966D01*
X103394151Y-91366766D01*
X103378201Y-91417302D01*
X103351122Y-91455013D01*
X103310173Y-91486338D01*
X103273609Y-91506962D01*
X103255359Y-91515780D01*
X103235334Y-91522942D01*
X103210056Y-91528654D01*
X103176050Y-91533124D01*
X103129838Y-91536559D01*
X103067944Y-91539166D01*
X102986891Y-91541152D01*
X102883202Y-91542725D01*
X102753402Y-91544092D01*
X102633069Y-91545138D01*
X102056163Y-91549933D01*
X102056163Y-91444280D01*
X102056163Y-91338628D01*
X102595033Y-91338628D01*
X102742569Y-91338488D01*
X102861025Y-91337968D01*
X102953596Y-91336920D01*
X103023475Y-91335196D01*
X103073856Y-91332646D01*
X103107935Y-91329122D01*
X103128904Y-91324476D01*
X103139958Y-91318559D01*
X103143699Y-91313102D01*
X103151087Y-91275651D01*
X103153568Y-91222950D01*
X103151613Y-91166308D01*
X103145693Y-91117034D01*
X103136281Y-91086436D01*
X103134130Y-91083660D01*
X103116248Y-91076794D01*
X103076467Y-91071543D01*
X103012443Y-91067791D01*
X102921834Y-91065421D01*
X102802298Y-91064316D01*
X102742802Y-91064202D01*
X102587043Y-91063469D01*
X102459877Y-91060832D01*
X102357642Y-91055506D01*
X102276675Y-91046706D01*
X102213315Y-91033647D01*
X102163899Y-91015544D01*
X102124765Y-90991612D01*
X102092251Y-90961065D01*
X102062695Y-90923119D01*
X102058862Y-90917576D01*
X102039875Y-90885911D01*
X102029183Y-90853626D01*
X102025095Y-90810925D01*
X102025920Y-90748011D01*
X102026587Y-90730619D01*
X102034408Y-90642413D01*
X102052202Y-90578336D01*
X102084015Y-90530790D01*
X102133892Y-90492178D01*
X102161970Y-90476394D01*
X102180486Y-90467459D01*
X102200812Y-90460225D01*
X102226484Y-90454476D01*
X102261039Y-90449995D01*
X102308016Y-90446567D01*
X102370951Y-90443974D01*
X102453381Y-90442001D01*
X102558844Y-90440431D01*
X102690878Y-90439047D01*
X102786372Y-90438199D01*
X103347141Y-90433386D01*
X103347141Y-90539057D01*
G37*
D14*
X110315000Y-123740000D02*
X110315000Y-125660000D01*
X110315000Y-125660000D02*
X113000000Y-125660000D01*
X113000000Y-123740000D02*
X110315000Y-123740000D01*
X87537742Y-104377500D02*
X88012258Y-104377500D01*
X87537742Y-105422500D02*
X88012258Y-105422500D01*
X91862500Y-90515580D02*
X91862500Y-90234420D01*
X92882500Y-90515580D02*
X92882500Y-90234420D01*
X103938748Y-116440000D02*
X104461252Y-116440000D01*
X103938748Y-117910000D02*
X104461252Y-117910000D01*
X87057192Y-101550000D02*
X87457192Y-101550000D01*
X87057192Y-101750000D02*
X87057192Y-101550000D01*
X87057192Y-103750000D02*
X87057192Y-103950000D01*
X87057192Y-103950000D02*
X87457192Y-103950000D01*
X89057192Y-101550000D02*
X88657192Y-101550000D01*
X89057192Y-101750000D02*
X89057192Y-101550000D01*
X89057192Y-103750000D02*
X89057192Y-103950000D01*
X89057192Y-103950000D02*
X88657192Y-103950000D01*
X86939553Y-101290000D02*
G75*
G02*
X86894831Y-101290000I-22361J0D01*
G01*
X86894831Y-101290000D02*
G75*
G02*
X86939553Y-101290000I22361J0D01*
G01*
%LPC*%
D17*
X96680000Y-91025000D03*
X95720000Y-91025000D03*
D18*
X89000000Y-94390000D03*
X89000000Y-97610000D03*
D19*
X103300000Y-123537500D03*
X103950000Y-123537500D03*
X104600000Y-123537500D03*
X105250000Y-123537500D03*
X105900000Y-123537500D03*
D20*
X101100000Y-126237500D03*
D21*
X101700000Y-126237500D03*
D22*
X102100000Y-123537500D03*
D23*
X103600000Y-126237500D03*
X105600000Y-126237500D03*
D22*
X107100000Y-123537500D03*
D21*
X107500000Y-126237500D03*
D20*
X108100000Y-126237500D03*
D24*
X106675000Y-104600000D03*
X105125000Y-104600000D03*
D25*
X90425000Y-112000000D03*
X88775000Y-112000000D03*
D26*
X102220000Y-93700000D03*
X103180000Y-93700000D03*
D27*
X90100000Y-108025000D03*
X90100000Y-106475000D03*
D28*
X110200000Y-112125000D03*
X110200000Y-110225000D03*
D29*
X112000000Y-85000000D03*
D30*
X101350000Y-90230000D03*
X101350000Y-89270000D03*
D31*
X94187500Y-82950000D03*
X96012500Y-82950000D03*
D32*
X90660000Y-89575000D03*
X89085000Y-89575000D03*
D25*
X95925000Y-87600000D03*
X94275000Y-87600000D03*
D26*
X111420000Y-107250000D03*
X112380000Y-107250000D03*
D33*
X105150000Y-117175000D03*
D31*
X95012500Y-117875000D03*
X96837500Y-117875000D03*
D17*
X103780000Y-85900000D03*
X102820000Y-85900000D03*
D34*
X100750000Y-94325000D03*
X100250000Y-94325000D03*
X99750000Y-94325000D03*
X99250000Y-94325000D03*
X98750000Y-94325000D03*
X98250000Y-94325000D03*
X97750000Y-94325000D03*
X97250000Y-94325000D03*
X96750000Y-94325000D03*
X96250000Y-94325000D03*
X95750000Y-94325000D03*
X95250000Y-94325000D03*
X94750000Y-94325000D03*
X94250000Y-94325000D03*
X93750000Y-94325000D03*
X93250000Y-94325000D03*
D35*
X91325000Y-96250000D03*
X91325000Y-96750000D03*
X91325000Y-97250000D03*
X91325000Y-97750000D03*
X91325000Y-98250000D03*
X91325000Y-98750000D03*
X91325000Y-99250000D03*
X91325000Y-99750000D03*
X91325000Y-100250000D03*
X91325000Y-100750000D03*
X91325000Y-101250000D03*
X91325000Y-101750000D03*
X91325000Y-102250000D03*
X91325000Y-102750000D03*
X91325000Y-103250000D03*
X91325000Y-103750000D03*
D34*
X93750000Y-105675000D03*
X94250000Y-105675000D03*
X94750000Y-105675000D03*
X95250000Y-105675000D03*
X95750000Y-105675000D03*
X96250000Y-105675000D03*
X96750000Y-105675000D03*
X97250000Y-105675000D03*
X97750000Y-105675000D03*
X98250000Y-105675000D03*
X98750000Y-105675000D03*
X99250000Y-105675000D03*
X99750000Y-105675000D03*
X100250000Y-105675000D03*
X100750000Y-105675000D03*
D35*
X102675000Y-103750000D03*
X102675000Y-103250000D03*
X102675000Y-102750000D03*
X102675000Y-102250000D03*
X102675000Y-101750000D03*
X102675000Y-101250000D03*
X102675000Y-100750000D03*
X102675000Y-100250000D03*
X102675000Y-99750000D03*
X102675000Y-99250000D03*
X102675000Y-98750000D03*
X102675000Y-98250000D03*
X102675000Y-97750000D03*
X102675000Y-97250000D03*
X102675000Y-96750000D03*
X102675000Y-96250000D03*
D34*
X93250000Y-105675000D03*
D36*
X111375000Y-102000000D03*
D37*
X108835000Y-102000000D03*
D18*
X85500000Y-94390000D03*
X85500000Y-97610000D03*
D38*
X95765000Y-109675000D03*
X94495000Y-109675000D03*
X93225000Y-109675000D03*
X91955000Y-109675000D03*
X91955000Y-114625000D03*
X93225000Y-114625000D03*
X94495000Y-114625000D03*
X95765000Y-114625000D03*
D24*
X90597500Y-92175000D03*
X89047500Y-92175000D03*
D39*
X98050000Y-111637500D03*
X99000000Y-111637500D03*
X99950000Y-111637500D03*
X99950000Y-109362500D03*
X99000000Y-109362500D03*
X98050000Y-109362500D03*
D40*
X96200000Y-123850000D03*
D41*
X93700000Y-123850000D03*
X91200000Y-123850000D03*
X88700000Y-123850000D03*
D42*
X99725000Y-90575000D03*
X99725000Y-88825000D03*
X98325000Y-88825000D03*
X98325000Y-90575000D03*
D43*
X99250000Y-86562500D03*
X99750000Y-86562500D03*
X100250000Y-86562500D03*
X100750000Y-86562500D03*
D44*
X101000000Y-85900000D03*
X101000000Y-85400000D03*
X101000000Y-84900000D03*
D45*
X100750000Y-84237500D03*
X100250000Y-84237500D03*
X99750000Y-84237500D03*
X99250000Y-84237500D03*
D46*
X99000000Y-84900000D03*
X99000000Y-85400000D03*
X99000000Y-85900000D03*
D47*
X86950000Y-100625000D03*
X88600000Y-100625000D03*
D29*
X87000000Y-85000000D03*
D48*
X113012500Y-121800000D03*
X111187500Y-121800000D03*
D26*
X90070000Y-105200000D03*
X91030000Y-105200000D03*
D49*
X107620000Y-97934000D03*
X112700000Y-96918000D03*
X112700000Y-98950000D03*
D50*
X108890000Y-98569000D03*
X108890000Y-97299000D03*
X110160000Y-98569000D03*
X110160000Y-97299000D03*
X111430000Y-98569000D03*
X111430000Y-97299000D03*
D26*
X95720000Y-92500000D03*
X96680000Y-92500000D03*
X102820000Y-84250000D03*
X103780000Y-84250000D03*
D33*
X103250000Y-117175000D03*
D36*
X86225000Y-110175000D03*
D37*
X86225000Y-107635000D03*
D25*
X95925000Y-85400000D03*
X94275000Y-85400000D03*
D51*
X102900000Y-114325000D03*
X105200000Y-114325000D03*
D52*
X105200000Y-108025000D03*
D51*
X107500000Y-114325000D03*
D48*
X110712500Y-105100000D03*
X108887500Y-105100000D03*
D30*
X94422500Y-90955000D03*
X94422500Y-89995000D03*
D53*
X111062500Y-124700000D03*
X112937500Y-124700000D03*
D47*
X86950000Y-104900000D03*
X88600000Y-104900000D03*
D27*
X92372500Y-91150000D03*
X92372500Y-89600000D03*
D33*
X103250000Y-117175000D03*
X105150000Y-117175000D03*
D29*
X87000000Y-116500000D03*
D54*
X86957192Y-102100000D03*
X86957192Y-102750000D03*
X86957192Y-103400000D03*
X89157192Y-103400000D03*
X89157192Y-102100000D03*
D29*
X112000000Y-116500000D03*
%LPD*%
M02*
