G04 #@! TF.GenerationSoftware,KiCad,Pcbnew,7.0.8*
G04 #@! TF.CreationDate,2023-12-02T16:39:51-07:00*
G04 #@! TF.ProjectId,IMUBox,494d5542-6f78-42e6-9b69-6361645f7063,v2*
G04 #@! TF.SameCoordinates,Original*
G04 #@! TF.FileFunction,Soldermask,Top*
G04 #@! TF.FilePolarity,Negative*
%FSLAX46Y46*%
G04 Gerber Fmt 4.6, Leading zero omitted, Abs format (unit mm)*
G04 Created by KiCad (PCBNEW 7.0.8) date 2023-12-02 16:39:51*
%MOMM*%
%LPD*%
G01*
G04 APERTURE LIST*
G04 Aperture macros list*
%AMRoundRect*
0 Rectangle with rounded corners*
0 $1 Rounding radius*
0 $2 $3 $4 $5 $6 $7 $8 $9 X,Y pos of 4 corners*
0 Add a 4 corners polygon primitive as box body*
4,1,4,$2,$3,$4,$5,$6,$7,$8,$9,$2,$3,0*
0 Add four circle primitives for the rounded corners*
1,1,$1+$1,$2,$3*
1,1,$1+$1,$4,$5*
1,1,$1+$1,$6,$7*
1,1,$1+$1,$8,$9*
0 Add four rect primitives between the rounded corners*
20,1,$1+$1,$2,$3,$4,$5,0*
20,1,$1+$1,$4,$5,$6,$7,0*
20,1,$1+$1,$6,$7,$8,$9,0*
20,1,$1+$1,$8,$9,$2,$3,0*%
G04 Aperture macros list end*
%ADD10RoundRect,0.150000X0.825000X0.150000X-0.825000X0.150000X-0.825000X-0.150000X0.825000X-0.150000X0*%
%ADD11RoundRect,0.140000X-0.170000X0.140000X-0.170000X-0.140000X0.170000X-0.140000X0.170000X0.140000X0*%
%ADD12R,1.700000X1.700000*%
%ADD13O,1.700000X1.700000*%
%ADD14RoundRect,0.200000X0.200000X0.275000X-0.200000X0.275000X-0.200000X-0.275000X0.200000X-0.275000X0*%
%ADD15RoundRect,0.250000X-0.450000X0.262500X-0.450000X-0.262500X0.450000X-0.262500X0.450000X0.262500X0*%
%ADD16RoundRect,0.200000X-0.275000X0.200000X-0.275000X-0.200000X0.275000X-0.200000X0.275000X0.200000X0*%
%ADD17RoundRect,0.140000X0.170000X-0.140000X0.170000X0.140000X-0.170000X0.140000X-0.170000X-0.140000X0*%
%ADD18RoundRect,0.250000X0.450000X-0.262500X0.450000X0.262500X-0.450000X0.262500X-0.450000X-0.262500X0*%
%ADD19RoundRect,0.250000X-0.375000X-0.625000X0.375000X-0.625000X0.375000X0.625000X-0.375000X0.625000X0*%
%ADD20RoundRect,0.250000X0.725000X-0.600000X0.725000X0.600000X-0.725000X0.600000X-0.725000X-0.600000X0*%
%ADD21O,1.950000X1.700000*%
%ADD22RoundRect,0.102000X0.150000X-0.240000X0.150000X0.240000X-0.150000X0.240000X-0.150000X-0.240000X0*%
%ADD23RoundRect,0.102000X0.240000X-0.150000X0.240000X0.150000X-0.240000X0.150000X-0.240000X-0.150000X0*%
%ADD24RoundRect,0.102000X-0.150000X0.240000X-0.150000X-0.240000X0.150000X-0.240000X0.150000X0.240000X0*%
%ADD25RoundRect,0.102000X-0.240000X0.150000X-0.240000X-0.150000X0.240000X-0.150000X0.240000X0.150000X0*%
%ADD26RoundRect,0.250000X-0.262500X-0.450000X0.262500X-0.450000X0.262500X0.450000X-0.262500X0.450000X0*%
%ADD27C,1.600000*%
%ADD28C,3.200000*%
%ADD29R,0.700000X0.450000*%
%ADD30RoundRect,0.250000X0.625000X-0.375000X0.625000X0.375000X-0.625000X0.375000X-0.625000X-0.375000X0*%
%ADD31RoundRect,0.135000X0.185000X-0.135000X0.185000X0.135000X-0.185000X0.135000X-0.185000X-0.135000X0*%
G04 APERTURE END LIST*
D10*
X140675000Y-47205000D03*
X140675000Y-45935000D03*
X140675000Y-44665000D03*
X140675000Y-43395000D03*
X135725000Y-43395000D03*
X135725000Y-44665000D03*
X135725000Y-45935000D03*
X135725000Y-47205000D03*
D11*
X155593750Y-44833750D03*
X155593750Y-45793750D03*
D12*
X130200000Y-42560000D03*
D13*
X130200000Y-45100000D03*
D14*
X148518750Y-46893750D03*
X146868750Y-46893750D03*
D15*
X133300000Y-48800000D03*
X133300000Y-50625000D03*
D11*
X143093750Y-44793750D03*
X143093750Y-45753750D03*
D16*
X148800000Y-48875000D03*
X148800000Y-50525000D03*
D17*
X154193750Y-45793750D03*
X154193750Y-44833750D03*
D18*
X121900000Y-66612500D03*
X121900000Y-64787500D03*
D11*
X144793750Y-44793750D03*
X144793750Y-45753750D03*
D19*
X128100000Y-72700000D03*
X130900000Y-72700000D03*
D20*
X117200000Y-52300000D03*
D21*
X117200000Y-49800000D03*
X117200000Y-47300000D03*
X117200000Y-44800000D03*
D22*
X150743750Y-48156250D03*
X151243750Y-48156250D03*
X151743750Y-48156250D03*
X152243750Y-48156250D03*
D23*
X152493750Y-47493750D03*
X152493750Y-46993750D03*
X152493750Y-46493750D03*
D24*
X152243750Y-45831250D03*
X151743750Y-45831250D03*
X151243750Y-45831250D03*
X150743750Y-45831250D03*
D25*
X150493750Y-46493750D03*
X150493750Y-46993750D03*
X150493750Y-47493750D03*
D26*
X147081250Y-44793750D03*
X148906250Y-44793750D03*
D27*
X127000000Y-68580000D03*
X129540000Y-68580000D03*
X132080000Y-68580000D03*
X134620000Y-68580000D03*
X137160000Y-68580000D03*
X139700000Y-68580000D03*
X142240000Y-68580000D03*
X144780000Y-68580000D03*
X147320000Y-68580000D03*
X149860000Y-68580000D03*
X152400000Y-68580000D03*
X154940000Y-68580000D03*
X157480000Y-68580000D03*
X160020000Y-68580000D03*
X160020000Y-66040000D03*
X160020000Y-63500000D03*
X160020000Y-60960000D03*
X160020000Y-58420000D03*
X160020000Y-55880000D03*
X160020000Y-53340000D03*
X157480000Y-53340000D03*
X154940000Y-53340000D03*
X152400000Y-53340000D03*
X149860000Y-53340000D03*
X147320000Y-53340000D03*
X144780000Y-53340000D03*
X142240000Y-53340000D03*
X139700000Y-53340000D03*
X137160000Y-53340000D03*
X134620000Y-53340000D03*
X132080000Y-53340000D03*
X129540000Y-53340000D03*
X127000000Y-53340000D03*
X129540000Y-55880000D03*
X154940000Y-55880000D03*
X152400000Y-55880000D03*
X154940000Y-58420000D03*
X152400000Y-58420000D03*
X154940000Y-60960000D03*
X152400000Y-60960000D03*
X154940000Y-63500000D03*
X152400000Y-63500000D03*
X154940000Y-66040000D03*
X152400000Y-66040000D03*
D26*
X133397500Y-72640000D03*
X135222500Y-72640000D03*
D28*
X159000000Y-38000000D03*
D29*
X123500000Y-45150000D03*
X123500000Y-46450000D03*
X125500000Y-45800000D03*
D30*
X121900000Y-71800000D03*
X121900000Y-69000000D03*
D28*
X159000000Y-75000000D03*
X114000000Y-38000000D03*
D31*
X130100000Y-49345000D03*
X130100000Y-48325000D03*
D28*
X114000000Y-75000000D03*
M02*
