%TF.GenerationSoftware,KiCad,Pcbnew,7.0.8*%
%TF.CreationDate,2023-12-02T16:40:04-07:00*%
%TF.ProjectId,IMUBox,494d5542-6f78-42e6-9b69-6361645f7063,v2*%
%TF.SameCoordinates,Original*%
%TF.FileFunction,Drillmap*%
%TF.FilePolarity,Positive*%
%FSLAX45Y45*%
G04 Gerber Fmt 4.5, Leading zero omitted, Abs format (unit mm)*
G04 Created by KiCad (PCBNEW 7.0.8) date 2023-12-02 16:40:04*
%MOMM*%
%LPD*%
G01*
G04 APERTURE LIST*
%ADD10C,0.100000*%
%ADD11C,0.200000*%
%ADD12C,0.030000*%
%ADD13C,0.095000*%
%ADD14C,0.110000*%
G04 APERTURE END LIST*
D10*
X11400000Y-7900000D02*
X15900000Y-7900000D01*
X15900000Y-7900000D02*
G75*
G03*
X16300000Y-7500000I0J400000D01*
G01*
X16300000Y-7500000D02*
X16300000Y-3800000D01*
X11000000Y-7500000D02*
G75*
G03*
X11400000Y-7900000I400000J0D01*
G01*
X11400000Y-3400000D02*
G75*
G03*
X11000000Y-3800000I0J-400000D01*
G01*
X11000000Y-3800000D02*
X11000000Y-7500000D01*
X16300000Y-3800000D02*
G75*
G03*
X15900000Y-3400000I-400000J0D01*
G01*
X11400000Y-3400000D02*
X15900000Y-3400000D01*
D11*
D12*
X12165000Y-4965000D02*
X12195000Y-4995000D01*
X12195000Y-4965000D02*
X12165000Y-4995000D01*
X12685000Y-4565000D02*
X12715000Y-4595000D01*
X12715000Y-4565000D02*
X12685000Y-4595000D01*
X14405000Y-4695000D02*
X14435000Y-4725000D01*
X14435000Y-4695000D02*
X14405000Y-4725000D01*
X15135000Y-4665000D02*
X15165000Y-4695000D01*
X15165000Y-4665000D02*
X15135000Y-4695000D01*
X15405000Y-4365000D02*
X15435000Y-4395000D01*
X15435000Y-4365000D02*
X15405000Y-4395000D01*
D13*
X11767500Y-4480000D02*
G75*
G03*
X11767500Y-4480000I-47500J0D01*
G01*
X11767500Y-4730000D02*
G75*
G03*
X11767500Y-4730000I-47500J0D01*
G01*
X11767500Y-4980000D02*
G75*
G03*
X11767500Y-4980000I-47500J0D01*
G01*
X11767500Y-5230000D02*
G75*
G03*
X11767500Y-5230000I-47500J0D01*
G01*
D10*
X13020000Y-4206000D02*
X13020000Y-4306000D01*
X12970000Y-4256000D02*
X13070000Y-4256000D01*
X13020000Y-4460000D02*
X13020000Y-4560000D01*
X12970000Y-4510000D02*
X13070000Y-4510000D01*
D14*
X12738891Y-5372891D02*
X12738891Y-5295109D01*
X12661109Y-5295109D01*
X12661109Y-5372891D01*
X12738891Y-5372891D01*
X12738891Y-6896891D02*
X12738891Y-6819109D01*
X12661109Y-6819109D01*
X12661109Y-6896891D01*
X12738891Y-6896891D01*
X12992891Y-5372891D02*
X12992891Y-5295109D01*
X12915109Y-5295109D01*
X12915109Y-5372891D01*
X12992891Y-5372891D01*
X12992891Y-5626891D02*
X12992891Y-5549109D01*
X12915109Y-5549109D01*
X12915109Y-5626891D01*
X12992891Y-5626891D01*
X12992891Y-6896891D02*
X12992891Y-6819109D01*
X12915109Y-6819109D01*
X12915109Y-6896891D01*
X12992891Y-6896891D01*
X13246891Y-5372891D02*
X13246891Y-5295109D01*
X13169109Y-5295109D01*
X13169109Y-5372891D01*
X13246891Y-5372891D01*
X13246891Y-6896891D02*
X13246891Y-6819109D01*
X13169109Y-6819109D01*
X13169109Y-6896891D01*
X13246891Y-6896891D01*
X13500891Y-5372891D02*
X13500891Y-5295109D01*
X13423109Y-5295109D01*
X13423109Y-5372891D01*
X13500891Y-5372891D01*
X13500891Y-6896891D02*
X13500891Y-6819109D01*
X13423109Y-6819109D01*
X13423109Y-6896891D01*
X13500891Y-6896891D01*
X13754891Y-5372891D02*
X13754891Y-5295109D01*
X13677109Y-5295109D01*
X13677109Y-5372891D01*
X13754891Y-5372891D01*
X13754891Y-6896891D02*
X13754891Y-6819109D01*
X13677109Y-6819109D01*
X13677109Y-6896891D01*
X13754891Y-6896891D01*
X14008891Y-5372891D02*
X14008891Y-5295109D01*
X13931109Y-5295109D01*
X13931109Y-5372891D01*
X14008891Y-5372891D01*
X14008891Y-6896891D02*
X14008891Y-6819109D01*
X13931109Y-6819109D01*
X13931109Y-6896891D01*
X14008891Y-6896891D01*
X14262891Y-5372891D02*
X14262891Y-5295109D01*
X14185109Y-5295109D01*
X14185109Y-5372891D01*
X14262891Y-5372891D01*
X14262891Y-6896891D02*
X14262891Y-6819109D01*
X14185109Y-6819109D01*
X14185109Y-6896891D01*
X14262891Y-6896891D01*
X14516891Y-5372891D02*
X14516891Y-5295109D01*
X14439109Y-5295109D01*
X14439109Y-5372891D01*
X14516891Y-5372891D01*
X14516891Y-6896891D02*
X14516891Y-6819109D01*
X14439109Y-6819109D01*
X14439109Y-6896891D01*
X14516891Y-6896891D01*
X14770891Y-5372891D02*
X14770891Y-5295109D01*
X14693109Y-5295109D01*
X14693109Y-5372891D01*
X14770891Y-5372891D01*
X14770891Y-6896891D02*
X14770891Y-6819109D01*
X14693109Y-6819109D01*
X14693109Y-6896891D01*
X14770891Y-6896891D01*
X15024891Y-5372891D02*
X15024891Y-5295109D01*
X14947109Y-5295109D01*
X14947109Y-5372891D01*
X15024891Y-5372891D01*
X15024891Y-6896891D02*
X15024891Y-6819109D01*
X14947109Y-6819109D01*
X14947109Y-6896891D01*
X15024891Y-6896891D01*
X15278891Y-5372891D02*
X15278891Y-5295109D01*
X15201109Y-5295109D01*
X15201109Y-5372891D01*
X15278891Y-5372891D01*
X15278891Y-5626891D02*
X15278891Y-5549109D01*
X15201109Y-5549109D01*
X15201109Y-5626891D01*
X15278891Y-5626891D01*
X15278891Y-5880891D02*
X15278891Y-5803109D01*
X15201109Y-5803109D01*
X15201109Y-5880891D01*
X15278891Y-5880891D01*
X15278891Y-6134891D02*
X15278891Y-6057109D01*
X15201109Y-6057109D01*
X15201109Y-6134891D01*
X15278891Y-6134891D01*
X15278891Y-6388891D02*
X15278891Y-6311109D01*
X15201109Y-6311109D01*
X15201109Y-6388891D01*
X15278891Y-6388891D01*
X15278891Y-6642891D02*
X15278891Y-6565109D01*
X15201109Y-6565109D01*
X15201109Y-6642891D01*
X15278891Y-6642891D01*
X15278891Y-6896891D02*
X15278891Y-6819109D01*
X15201109Y-6819109D01*
X15201109Y-6896891D01*
X15278891Y-6896891D01*
X15532891Y-5372891D02*
X15532891Y-5295109D01*
X15455109Y-5295109D01*
X15455109Y-5372891D01*
X15532891Y-5372891D01*
X15532891Y-5626891D02*
X15532891Y-5549109D01*
X15455109Y-5549109D01*
X15455109Y-5626891D01*
X15532891Y-5626891D01*
X15532891Y-5880891D02*
X15532891Y-5803109D01*
X15455109Y-5803109D01*
X15455109Y-5880891D01*
X15532891Y-5880891D01*
X15532891Y-6134891D02*
X15532891Y-6057109D01*
X15455109Y-6057109D01*
X15455109Y-6134891D01*
X15532891Y-6134891D01*
X15532891Y-6388891D02*
X15532891Y-6311109D01*
X15455109Y-6311109D01*
X15455109Y-6388891D01*
X15532891Y-6388891D01*
X15532891Y-6642891D02*
X15532891Y-6565109D01*
X15455109Y-6565109D01*
X15455109Y-6642891D01*
X15532891Y-6642891D01*
X15532891Y-6896891D02*
X15532891Y-6819109D01*
X15455109Y-6819109D01*
X15455109Y-6896891D01*
X15532891Y-6896891D01*
X15786891Y-5372891D02*
X15786891Y-5295109D01*
X15709109Y-5295109D01*
X15709109Y-5372891D01*
X15786891Y-5372891D01*
X15786891Y-6896891D02*
X15786891Y-6819109D01*
X15709109Y-6819109D01*
X15709109Y-6896891D01*
X15786891Y-6896891D01*
X16040891Y-5372891D02*
X16040891Y-5295109D01*
X15963109Y-5295109D01*
X15963109Y-5372891D01*
X16040891Y-5372891D01*
X16040891Y-5626891D02*
X16040891Y-5549109D01*
X15963109Y-5549109D01*
X15963109Y-5626891D01*
X16040891Y-5626891D01*
X16040891Y-5880891D02*
X16040891Y-5803109D01*
X15963109Y-5803109D01*
X15963109Y-5880891D01*
X16040891Y-5880891D01*
X16040891Y-6134891D02*
X16040891Y-6057109D01*
X15963109Y-6057109D01*
X15963109Y-6134891D01*
X16040891Y-6134891D01*
X16040891Y-6388891D02*
X16040891Y-6311109D01*
X15963109Y-6311109D01*
X15963109Y-6388891D01*
X16040891Y-6388891D01*
X16040891Y-6642891D02*
X16040891Y-6565109D01*
X15963109Y-6565109D01*
X15963109Y-6642891D01*
X16040891Y-6642891D01*
X16040891Y-6896891D02*
X16040891Y-6819109D01*
X15963109Y-6819109D01*
X15963109Y-6896891D01*
X16040891Y-6896891D01*
D11*
X11255777Y-8216484D02*
X11255777Y-8016484D01*
X11255777Y-8016484D02*
X11303396Y-8016484D01*
X11303396Y-8016484D02*
X11331967Y-8026008D01*
X11331967Y-8026008D02*
X11351015Y-8045055D01*
X11351015Y-8045055D02*
X11360539Y-8064103D01*
X11360539Y-8064103D02*
X11370062Y-8102198D01*
X11370062Y-8102198D02*
X11370062Y-8130769D01*
X11370062Y-8130769D02*
X11360539Y-8168865D01*
X11360539Y-8168865D02*
X11351015Y-8187912D01*
X11351015Y-8187912D02*
X11331967Y-8206960D01*
X11331967Y-8206960D02*
X11303396Y-8216484D01*
X11303396Y-8216484D02*
X11255777Y-8216484D01*
X11455777Y-8216484D02*
X11455777Y-8083150D01*
X11455777Y-8121246D02*
X11465301Y-8102198D01*
X11465301Y-8102198D02*
X11474824Y-8092674D01*
X11474824Y-8092674D02*
X11493872Y-8083150D01*
X11493872Y-8083150D02*
X11512920Y-8083150D01*
X11579586Y-8216484D02*
X11579586Y-8083150D01*
X11579586Y-8016484D02*
X11570062Y-8026008D01*
X11570062Y-8026008D02*
X11579586Y-8035531D01*
X11579586Y-8035531D02*
X11589110Y-8026008D01*
X11589110Y-8026008D02*
X11579586Y-8016484D01*
X11579586Y-8016484D02*
X11579586Y-8035531D01*
X11703396Y-8216484D02*
X11684348Y-8206960D01*
X11684348Y-8206960D02*
X11674824Y-8187912D01*
X11674824Y-8187912D02*
X11674824Y-8016484D01*
X11808158Y-8216484D02*
X11789110Y-8206960D01*
X11789110Y-8206960D02*
X11779586Y-8187912D01*
X11779586Y-8187912D02*
X11779586Y-8016484D01*
X12036729Y-8216484D02*
X12036729Y-8016484D01*
X12036729Y-8016484D02*
X12103396Y-8159341D01*
X12103396Y-8159341D02*
X12170062Y-8016484D01*
X12170062Y-8016484D02*
X12170062Y-8216484D01*
X12351015Y-8216484D02*
X12351015Y-8111722D01*
X12351015Y-8111722D02*
X12341491Y-8092674D01*
X12341491Y-8092674D02*
X12322443Y-8083150D01*
X12322443Y-8083150D02*
X12284348Y-8083150D01*
X12284348Y-8083150D02*
X12265301Y-8092674D01*
X12351015Y-8206960D02*
X12331967Y-8216484D01*
X12331967Y-8216484D02*
X12284348Y-8216484D01*
X12284348Y-8216484D02*
X12265301Y-8206960D01*
X12265301Y-8206960D02*
X12255777Y-8187912D01*
X12255777Y-8187912D02*
X12255777Y-8168865D01*
X12255777Y-8168865D02*
X12265301Y-8149817D01*
X12265301Y-8149817D02*
X12284348Y-8140293D01*
X12284348Y-8140293D02*
X12331967Y-8140293D01*
X12331967Y-8140293D02*
X12351015Y-8130769D01*
X12446253Y-8083150D02*
X12446253Y-8283150D01*
X12446253Y-8092674D02*
X12465301Y-8083150D01*
X12465301Y-8083150D02*
X12503396Y-8083150D01*
X12503396Y-8083150D02*
X12522443Y-8092674D01*
X12522443Y-8092674D02*
X12531967Y-8102198D01*
X12531967Y-8102198D02*
X12541491Y-8121246D01*
X12541491Y-8121246D02*
X12541491Y-8178388D01*
X12541491Y-8178388D02*
X12531967Y-8197436D01*
X12531967Y-8197436D02*
X12522443Y-8206960D01*
X12522443Y-8206960D02*
X12503396Y-8216484D01*
X12503396Y-8216484D02*
X12465301Y-8216484D01*
X12465301Y-8216484D02*
X12446253Y-8206960D01*
X12627205Y-8197436D02*
X12636729Y-8206960D01*
X12636729Y-8206960D02*
X12627205Y-8216484D01*
X12627205Y-8216484D02*
X12617682Y-8206960D01*
X12617682Y-8206960D02*
X12627205Y-8197436D01*
X12627205Y-8197436D02*
X12627205Y-8216484D01*
X12627205Y-8092674D02*
X12636729Y-8102198D01*
X12636729Y-8102198D02*
X12627205Y-8111722D01*
X12627205Y-8111722D02*
X12617682Y-8102198D01*
X12617682Y-8102198D02*
X12627205Y-8092674D01*
X12627205Y-8092674D02*
X12627205Y-8111722D01*
D12*
X10965000Y-8530000D02*
X10995000Y-8560000D01*
X10995000Y-8530000D02*
X10965000Y-8560000D01*
D11*
X11293872Y-8436484D02*
X11312920Y-8436484D01*
X11312920Y-8436484D02*
X11331967Y-8446008D01*
X11331967Y-8446008D02*
X11341491Y-8455531D01*
X11341491Y-8455531D02*
X11351015Y-8474579D01*
X11351015Y-8474579D02*
X11360539Y-8512674D01*
X11360539Y-8512674D02*
X11360539Y-8560293D01*
X11360539Y-8560293D02*
X11351015Y-8598389D01*
X11351015Y-8598389D02*
X11341491Y-8617436D01*
X11341491Y-8617436D02*
X11331967Y-8626960D01*
X11331967Y-8626960D02*
X11312920Y-8636484D01*
X11312920Y-8636484D02*
X11293872Y-8636484D01*
X11293872Y-8636484D02*
X11274824Y-8626960D01*
X11274824Y-8626960D02*
X11265301Y-8617436D01*
X11265301Y-8617436D02*
X11255777Y-8598389D01*
X11255777Y-8598389D02*
X11246253Y-8560293D01*
X11246253Y-8560293D02*
X11246253Y-8512674D01*
X11246253Y-8512674D02*
X11255777Y-8474579D01*
X11255777Y-8474579D02*
X11265301Y-8455531D01*
X11265301Y-8455531D02*
X11274824Y-8446008D01*
X11274824Y-8446008D02*
X11293872Y-8436484D01*
X11446253Y-8617436D02*
X11455777Y-8626960D01*
X11455777Y-8626960D02*
X11446253Y-8636484D01*
X11446253Y-8636484D02*
X11436729Y-8626960D01*
X11436729Y-8626960D02*
X11446253Y-8617436D01*
X11446253Y-8617436D02*
X11446253Y-8636484D01*
X11522443Y-8436484D02*
X11646253Y-8436484D01*
X11646253Y-8436484D02*
X11579586Y-8512674D01*
X11579586Y-8512674D02*
X11608158Y-8512674D01*
X11608158Y-8512674D02*
X11627205Y-8522198D01*
X11627205Y-8522198D02*
X11636729Y-8531722D01*
X11636729Y-8531722D02*
X11646253Y-8550770D01*
X11646253Y-8550770D02*
X11646253Y-8598389D01*
X11646253Y-8598389D02*
X11636729Y-8617436D01*
X11636729Y-8617436D02*
X11627205Y-8626960D01*
X11627205Y-8626960D02*
X11608158Y-8636484D01*
X11608158Y-8636484D02*
X11551015Y-8636484D01*
X11551015Y-8636484D02*
X11531967Y-8626960D01*
X11531967Y-8626960D02*
X11522443Y-8617436D01*
X11770062Y-8436484D02*
X11789110Y-8436484D01*
X11789110Y-8436484D02*
X11808158Y-8446008D01*
X11808158Y-8446008D02*
X11817682Y-8455531D01*
X11817682Y-8455531D02*
X11827205Y-8474579D01*
X11827205Y-8474579D02*
X11836729Y-8512674D01*
X11836729Y-8512674D02*
X11836729Y-8560293D01*
X11836729Y-8560293D02*
X11827205Y-8598389D01*
X11827205Y-8598389D02*
X11817682Y-8617436D01*
X11817682Y-8617436D02*
X11808158Y-8626960D01*
X11808158Y-8626960D02*
X11789110Y-8636484D01*
X11789110Y-8636484D02*
X11770062Y-8636484D01*
X11770062Y-8636484D02*
X11751015Y-8626960D01*
X11751015Y-8626960D02*
X11741491Y-8617436D01*
X11741491Y-8617436D02*
X11731967Y-8598389D01*
X11731967Y-8598389D02*
X11722443Y-8560293D01*
X11722443Y-8560293D02*
X11722443Y-8512674D01*
X11722443Y-8512674D02*
X11731967Y-8474579D01*
X11731967Y-8474579D02*
X11741491Y-8455531D01*
X11741491Y-8455531D02*
X11751015Y-8446008D01*
X11751015Y-8446008D02*
X11770062Y-8436484D01*
X11960539Y-8436484D02*
X11979586Y-8436484D01*
X11979586Y-8436484D02*
X11998634Y-8446008D01*
X11998634Y-8446008D02*
X12008158Y-8455531D01*
X12008158Y-8455531D02*
X12017682Y-8474579D01*
X12017682Y-8474579D02*
X12027205Y-8512674D01*
X12027205Y-8512674D02*
X12027205Y-8560293D01*
X12027205Y-8560293D02*
X12017682Y-8598389D01*
X12017682Y-8598389D02*
X12008158Y-8617436D01*
X12008158Y-8617436D02*
X11998634Y-8626960D01*
X11998634Y-8626960D02*
X11979586Y-8636484D01*
X11979586Y-8636484D02*
X11960539Y-8636484D01*
X11960539Y-8636484D02*
X11941491Y-8626960D01*
X11941491Y-8626960D02*
X11931967Y-8617436D01*
X11931967Y-8617436D02*
X11922443Y-8598389D01*
X11922443Y-8598389D02*
X11912920Y-8560293D01*
X11912920Y-8560293D02*
X11912920Y-8512674D01*
X11912920Y-8512674D02*
X11922443Y-8474579D01*
X11922443Y-8474579D02*
X11931967Y-8455531D01*
X11931967Y-8455531D02*
X11941491Y-8446008D01*
X11941491Y-8446008D02*
X11960539Y-8436484D01*
X12112920Y-8636484D02*
X12112920Y-8503150D01*
X12112920Y-8522198D02*
X12122443Y-8512674D01*
X12122443Y-8512674D02*
X12141491Y-8503150D01*
X12141491Y-8503150D02*
X12170063Y-8503150D01*
X12170063Y-8503150D02*
X12189110Y-8512674D01*
X12189110Y-8512674D02*
X12198634Y-8531722D01*
X12198634Y-8531722D02*
X12198634Y-8636484D01*
X12198634Y-8531722D02*
X12208158Y-8512674D01*
X12208158Y-8512674D02*
X12227205Y-8503150D01*
X12227205Y-8503150D02*
X12255777Y-8503150D01*
X12255777Y-8503150D02*
X12274824Y-8512674D01*
X12274824Y-8512674D02*
X12284348Y-8531722D01*
X12284348Y-8531722D02*
X12284348Y-8636484D01*
X12379586Y-8636484D02*
X12379586Y-8503150D01*
X12379586Y-8522198D02*
X12389110Y-8512674D01*
X12389110Y-8512674D02*
X12408158Y-8503150D01*
X12408158Y-8503150D02*
X12436729Y-8503150D01*
X12436729Y-8503150D02*
X12455777Y-8512674D01*
X12455777Y-8512674D02*
X12465301Y-8531722D01*
X12465301Y-8531722D02*
X12465301Y-8636484D01*
X12465301Y-8531722D02*
X12474824Y-8512674D01*
X12474824Y-8512674D02*
X12493872Y-8503150D01*
X12493872Y-8503150D02*
X12522443Y-8503150D01*
X12522443Y-8503150D02*
X12541491Y-8512674D01*
X12541491Y-8512674D02*
X12551015Y-8531722D01*
X12551015Y-8531722D02*
X12551015Y-8636484D01*
X12941491Y-8426960D02*
X12770063Y-8684103D01*
X13198634Y-8436484D02*
X13217682Y-8436484D01*
X13217682Y-8436484D02*
X13236729Y-8446008D01*
X13236729Y-8446008D02*
X13246253Y-8455531D01*
X13246253Y-8455531D02*
X13255777Y-8474579D01*
X13255777Y-8474579D02*
X13265301Y-8512674D01*
X13265301Y-8512674D02*
X13265301Y-8560293D01*
X13265301Y-8560293D02*
X13255777Y-8598389D01*
X13255777Y-8598389D02*
X13246253Y-8617436D01*
X13246253Y-8617436D02*
X13236729Y-8626960D01*
X13236729Y-8626960D02*
X13217682Y-8636484D01*
X13217682Y-8636484D02*
X13198634Y-8636484D01*
X13198634Y-8636484D02*
X13179586Y-8626960D01*
X13179586Y-8626960D02*
X13170063Y-8617436D01*
X13170063Y-8617436D02*
X13160539Y-8598389D01*
X13160539Y-8598389D02*
X13151015Y-8560293D01*
X13151015Y-8560293D02*
X13151015Y-8512674D01*
X13151015Y-8512674D02*
X13160539Y-8474579D01*
X13160539Y-8474579D02*
X13170063Y-8455531D01*
X13170063Y-8455531D02*
X13179586Y-8446008D01*
X13179586Y-8446008D02*
X13198634Y-8436484D01*
X13351015Y-8617436D02*
X13360539Y-8626960D01*
X13360539Y-8626960D02*
X13351015Y-8636484D01*
X13351015Y-8636484D02*
X13341491Y-8626960D01*
X13341491Y-8626960D02*
X13351015Y-8617436D01*
X13351015Y-8617436D02*
X13351015Y-8636484D01*
X13484348Y-8436484D02*
X13503396Y-8436484D01*
X13503396Y-8436484D02*
X13522444Y-8446008D01*
X13522444Y-8446008D02*
X13531967Y-8455531D01*
X13531967Y-8455531D02*
X13541491Y-8474579D01*
X13541491Y-8474579D02*
X13551015Y-8512674D01*
X13551015Y-8512674D02*
X13551015Y-8560293D01*
X13551015Y-8560293D02*
X13541491Y-8598389D01*
X13541491Y-8598389D02*
X13531967Y-8617436D01*
X13531967Y-8617436D02*
X13522444Y-8626960D01*
X13522444Y-8626960D02*
X13503396Y-8636484D01*
X13503396Y-8636484D02*
X13484348Y-8636484D01*
X13484348Y-8636484D02*
X13465301Y-8626960D01*
X13465301Y-8626960D02*
X13455777Y-8617436D01*
X13455777Y-8617436D02*
X13446253Y-8598389D01*
X13446253Y-8598389D02*
X13436729Y-8560293D01*
X13436729Y-8560293D02*
X13436729Y-8512674D01*
X13436729Y-8512674D02*
X13446253Y-8474579D01*
X13446253Y-8474579D02*
X13455777Y-8455531D01*
X13455777Y-8455531D02*
X13465301Y-8446008D01*
X13465301Y-8446008D02*
X13484348Y-8436484D01*
X13741491Y-8636484D02*
X13627206Y-8636484D01*
X13684348Y-8636484D02*
X13684348Y-8436484D01*
X13684348Y-8436484D02*
X13665301Y-8465055D01*
X13665301Y-8465055D02*
X13646253Y-8484103D01*
X13646253Y-8484103D02*
X13627206Y-8493627D01*
X13931967Y-8636484D02*
X13817682Y-8636484D01*
X13874825Y-8636484D02*
X13874825Y-8436484D01*
X13874825Y-8436484D02*
X13855777Y-8465055D01*
X13855777Y-8465055D02*
X13836729Y-8484103D01*
X13836729Y-8484103D02*
X13817682Y-8493627D01*
X14046253Y-8522198D02*
X14027206Y-8512674D01*
X14027206Y-8512674D02*
X14017682Y-8503150D01*
X14017682Y-8503150D02*
X14008158Y-8484103D01*
X14008158Y-8484103D02*
X14008158Y-8474579D01*
X14008158Y-8474579D02*
X14017682Y-8455531D01*
X14017682Y-8455531D02*
X14027206Y-8446008D01*
X14027206Y-8446008D02*
X14046253Y-8436484D01*
X14046253Y-8436484D02*
X14084348Y-8436484D01*
X14084348Y-8436484D02*
X14103396Y-8446008D01*
X14103396Y-8446008D02*
X14112920Y-8455531D01*
X14112920Y-8455531D02*
X14122444Y-8474579D01*
X14122444Y-8474579D02*
X14122444Y-8484103D01*
X14122444Y-8484103D02*
X14112920Y-8503150D01*
X14112920Y-8503150D02*
X14103396Y-8512674D01*
X14103396Y-8512674D02*
X14084348Y-8522198D01*
X14084348Y-8522198D02*
X14046253Y-8522198D01*
X14046253Y-8522198D02*
X14027206Y-8531722D01*
X14027206Y-8531722D02*
X14017682Y-8541246D01*
X14017682Y-8541246D02*
X14008158Y-8560293D01*
X14008158Y-8560293D02*
X14008158Y-8598389D01*
X14008158Y-8598389D02*
X14017682Y-8617436D01*
X14017682Y-8617436D02*
X14027206Y-8626960D01*
X14027206Y-8626960D02*
X14046253Y-8636484D01*
X14046253Y-8636484D02*
X14084348Y-8636484D01*
X14084348Y-8636484D02*
X14103396Y-8626960D01*
X14103396Y-8626960D02*
X14112920Y-8617436D01*
X14112920Y-8617436D02*
X14122444Y-8598389D01*
X14122444Y-8598389D02*
X14122444Y-8560293D01*
X14122444Y-8560293D02*
X14112920Y-8541246D01*
X14112920Y-8541246D02*
X14103396Y-8531722D01*
X14103396Y-8531722D02*
X14084348Y-8522198D01*
X14198634Y-8436484D02*
X14198634Y-8474579D01*
X14274825Y-8436484D02*
X14274825Y-8474579D01*
X14570063Y-8712674D02*
X14560539Y-8703150D01*
X14560539Y-8703150D02*
X14541491Y-8674579D01*
X14541491Y-8674579D02*
X14531968Y-8655531D01*
X14531968Y-8655531D02*
X14522444Y-8626960D01*
X14522444Y-8626960D02*
X14512920Y-8579341D01*
X14512920Y-8579341D02*
X14512920Y-8541246D01*
X14512920Y-8541246D02*
X14522444Y-8493627D01*
X14522444Y-8493627D02*
X14531968Y-8465055D01*
X14531968Y-8465055D02*
X14541491Y-8446008D01*
X14541491Y-8446008D02*
X14560539Y-8417436D01*
X14560539Y-8417436D02*
X14570063Y-8407912D01*
X14741491Y-8436484D02*
X14646253Y-8436484D01*
X14646253Y-8436484D02*
X14636729Y-8531722D01*
X14636729Y-8531722D02*
X14646253Y-8522198D01*
X14646253Y-8522198D02*
X14665301Y-8512674D01*
X14665301Y-8512674D02*
X14712920Y-8512674D01*
X14712920Y-8512674D02*
X14731968Y-8522198D01*
X14731968Y-8522198D02*
X14741491Y-8531722D01*
X14741491Y-8531722D02*
X14751015Y-8550770D01*
X14751015Y-8550770D02*
X14751015Y-8598389D01*
X14751015Y-8598389D02*
X14741491Y-8617436D01*
X14741491Y-8617436D02*
X14731968Y-8626960D01*
X14731968Y-8626960D02*
X14712920Y-8636484D01*
X14712920Y-8636484D02*
X14665301Y-8636484D01*
X14665301Y-8636484D02*
X14646253Y-8626960D01*
X14646253Y-8626960D02*
X14636729Y-8617436D01*
X14989110Y-8636484D02*
X14989110Y-8436484D01*
X15074825Y-8636484D02*
X15074825Y-8531722D01*
X15074825Y-8531722D02*
X15065301Y-8512674D01*
X15065301Y-8512674D02*
X15046253Y-8503150D01*
X15046253Y-8503150D02*
X15017682Y-8503150D01*
X15017682Y-8503150D02*
X14998634Y-8512674D01*
X14998634Y-8512674D02*
X14989110Y-8522198D01*
X15198634Y-8636484D02*
X15179587Y-8626960D01*
X15179587Y-8626960D02*
X15170063Y-8617436D01*
X15170063Y-8617436D02*
X15160539Y-8598389D01*
X15160539Y-8598389D02*
X15160539Y-8541246D01*
X15160539Y-8541246D02*
X15170063Y-8522198D01*
X15170063Y-8522198D02*
X15179587Y-8512674D01*
X15179587Y-8512674D02*
X15198634Y-8503150D01*
X15198634Y-8503150D02*
X15227206Y-8503150D01*
X15227206Y-8503150D02*
X15246253Y-8512674D01*
X15246253Y-8512674D02*
X15255777Y-8522198D01*
X15255777Y-8522198D02*
X15265301Y-8541246D01*
X15265301Y-8541246D02*
X15265301Y-8598389D01*
X15265301Y-8598389D02*
X15255777Y-8617436D01*
X15255777Y-8617436D02*
X15246253Y-8626960D01*
X15246253Y-8626960D02*
X15227206Y-8636484D01*
X15227206Y-8636484D02*
X15198634Y-8636484D01*
X15379587Y-8636484D02*
X15360539Y-8626960D01*
X15360539Y-8626960D02*
X15351015Y-8607912D01*
X15351015Y-8607912D02*
X15351015Y-8436484D01*
X15531968Y-8626960D02*
X15512920Y-8636484D01*
X15512920Y-8636484D02*
X15474825Y-8636484D01*
X15474825Y-8636484D02*
X15455777Y-8626960D01*
X15455777Y-8626960D02*
X15446253Y-8607912D01*
X15446253Y-8607912D02*
X15446253Y-8531722D01*
X15446253Y-8531722D02*
X15455777Y-8512674D01*
X15455777Y-8512674D02*
X15474825Y-8503150D01*
X15474825Y-8503150D02*
X15512920Y-8503150D01*
X15512920Y-8503150D02*
X15531968Y-8512674D01*
X15531968Y-8512674D02*
X15541491Y-8531722D01*
X15541491Y-8531722D02*
X15541491Y-8550770D01*
X15541491Y-8550770D02*
X15446253Y-8569817D01*
X15617682Y-8626960D02*
X15636730Y-8636484D01*
X15636730Y-8636484D02*
X15674825Y-8636484D01*
X15674825Y-8636484D02*
X15693872Y-8626960D01*
X15693872Y-8626960D02*
X15703396Y-8607912D01*
X15703396Y-8607912D02*
X15703396Y-8598389D01*
X15703396Y-8598389D02*
X15693872Y-8579341D01*
X15693872Y-8579341D02*
X15674825Y-8569817D01*
X15674825Y-8569817D02*
X15646253Y-8569817D01*
X15646253Y-8569817D02*
X15627206Y-8560293D01*
X15627206Y-8560293D02*
X15617682Y-8541246D01*
X15617682Y-8541246D02*
X15617682Y-8531722D01*
X15617682Y-8531722D02*
X15627206Y-8512674D01*
X15627206Y-8512674D02*
X15646253Y-8503150D01*
X15646253Y-8503150D02*
X15674825Y-8503150D01*
X15674825Y-8503150D02*
X15693872Y-8512674D01*
X15770063Y-8712674D02*
X15779587Y-8703150D01*
X15779587Y-8703150D02*
X15798634Y-8674579D01*
X15798634Y-8674579D02*
X15808158Y-8655531D01*
X15808158Y-8655531D02*
X15817682Y-8626960D01*
X15817682Y-8626960D02*
X15827206Y-8579341D01*
X15827206Y-8579341D02*
X15827206Y-8541246D01*
X15827206Y-8541246D02*
X15817682Y-8493627D01*
X15817682Y-8493627D02*
X15808158Y-8465055D01*
X15808158Y-8465055D02*
X15798634Y-8446008D01*
X15798634Y-8446008D02*
X15779587Y-8417436D01*
X15779587Y-8417436D02*
X15770063Y-8407912D01*
D13*
X10995000Y-8809000D02*
G75*
G03*
X10995000Y-8809000I-47500J0D01*
G01*
D11*
X11293872Y-8700484D02*
X11312920Y-8700484D01*
X11312920Y-8700484D02*
X11331967Y-8710008D01*
X11331967Y-8710008D02*
X11341491Y-8719531D01*
X11341491Y-8719531D02*
X11351015Y-8738579D01*
X11351015Y-8738579D02*
X11360539Y-8776674D01*
X11360539Y-8776674D02*
X11360539Y-8824293D01*
X11360539Y-8824293D02*
X11351015Y-8862389D01*
X11351015Y-8862389D02*
X11341491Y-8881436D01*
X11341491Y-8881436D02*
X11331967Y-8890960D01*
X11331967Y-8890960D02*
X11312920Y-8900484D01*
X11312920Y-8900484D02*
X11293872Y-8900484D01*
X11293872Y-8900484D02*
X11274824Y-8890960D01*
X11274824Y-8890960D02*
X11265301Y-8881436D01*
X11265301Y-8881436D02*
X11255777Y-8862389D01*
X11255777Y-8862389D02*
X11246253Y-8824293D01*
X11246253Y-8824293D02*
X11246253Y-8776674D01*
X11246253Y-8776674D02*
X11255777Y-8738579D01*
X11255777Y-8738579D02*
X11265301Y-8719531D01*
X11265301Y-8719531D02*
X11274824Y-8710008D01*
X11274824Y-8710008D02*
X11293872Y-8700484D01*
X11446253Y-8881436D02*
X11455777Y-8890960D01*
X11455777Y-8890960D02*
X11446253Y-8900484D01*
X11446253Y-8900484D02*
X11436729Y-8890960D01*
X11436729Y-8890960D02*
X11446253Y-8881436D01*
X11446253Y-8881436D02*
X11446253Y-8900484D01*
X11551015Y-8900484D02*
X11589110Y-8900484D01*
X11589110Y-8900484D02*
X11608158Y-8890960D01*
X11608158Y-8890960D02*
X11617682Y-8881436D01*
X11617682Y-8881436D02*
X11636729Y-8852865D01*
X11636729Y-8852865D02*
X11646253Y-8814770D01*
X11646253Y-8814770D02*
X11646253Y-8738579D01*
X11646253Y-8738579D02*
X11636729Y-8719531D01*
X11636729Y-8719531D02*
X11627205Y-8710008D01*
X11627205Y-8710008D02*
X11608158Y-8700484D01*
X11608158Y-8700484D02*
X11570062Y-8700484D01*
X11570062Y-8700484D02*
X11551015Y-8710008D01*
X11551015Y-8710008D02*
X11541491Y-8719531D01*
X11541491Y-8719531D02*
X11531967Y-8738579D01*
X11531967Y-8738579D02*
X11531967Y-8786198D01*
X11531967Y-8786198D02*
X11541491Y-8805246D01*
X11541491Y-8805246D02*
X11551015Y-8814770D01*
X11551015Y-8814770D02*
X11570062Y-8824293D01*
X11570062Y-8824293D02*
X11608158Y-8824293D01*
X11608158Y-8824293D02*
X11627205Y-8814770D01*
X11627205Y-8814770D02*
X11636729Y-8805246D01*
X11636729Y-8805246D02*
X11646253Y-8786198D01*
X11827205Y-8700484D02*
X11731967Y-8700484D01*
X11731967Y-8700484D02*
X11722443Y-8795722D01*
X11722443Y-8795722D02*
X11731967Y-8786198D01*
X11731967Y-8786198D02*
X11751015Y-8776674D01*
X11751015Y-8776674D02*
X11798634Y-8776674D01*
X11798634Y-8776674D02*
X11817682Y-8786198D01*
X11817682Y-8786198D02*
X11827205Y-8795722D01*
X11827205Y-8795722D02*
X11836729Y-8814770D01*
X11836729Y-8814770D02*
X11836729Y-8862389D01*
X11836729Y-8862389D02*
X11827205Y-8881436D01*
X11827205Y-8881436D02*
X11817682Y-8890960D01*
X11817682Y-8890960D02*
X11798634Y-8900484D01*
X11798634Y-8900484D02*
X11751015Y-8900484D01*
X11751015Y-8900484D02*
X11731967Y-8890960D01*
X11731967Y-8890960D02*
X11722443Y-8881436D01*
X11960539Y-8700484D02*
X11979586Y-8700484D01*
X11979586Y-8700484D02*
X11998634Y-8710008D01*
X11998634Y-8710008D02*
X12008158Y-8719531D01*
X12008158Y-8719531D02*
X12017682Y-8738579D01*
X12017682Y-8738579D02*
X12027205Y-8776674D01*
X12027205Y-8776674D02*
X12027205Y-8824293D01*
X12027205Y-8824293D02*
X12017682Y-8862389D01*
X12017682Y-8862389D02*
X12008158Y-8881436D01*
X12008158Y-8881436D02*
X11998634Y-8890960D01*
X11998634Y-8890960D02*
X11979586Y-8900484D01*
X11979586Y-8900484D02*
X11960539Y-8900484D01*
X11960539Y-8900484D02*
X11941491Y-8890960D01*
X11941491Y-8890960D02*
X11931967Y-8881436D01*
X11931967Y-8881436D02*
X11922443Y-8862389D01*
X11922443Y-8862389D02*
X11912920Y-8824293D01*
X11912920Y-8824293D02*
X11912920Y-8776674D01*
X11912920Y-8776674D02*
X11922443Y-8738579D01*
X11922443Y-8738579D02*
X11931967Y-8719531D01*
X11931967Y-8719531D02*
X11941491Y-8710008D01*
X11941491Y-8710008D02*
X11960539Y-8700484D01*
X12112920Y-8900484D02*
X12112920Y-8767150D01*
X12112920Y-8786198D02*
X12122443Y-8776674D01*
X12122443Y-8776674D02*
X12141491Y-8767150D01*
X12141491Y-8767150D02*
X12170063Y-8767150D01*
X12170063Y-8767150D02*
X12189110Y-8776674D01*
X12189110Y-8776674D02*
X12198634Y-8795722D01*
X12198634Y-8795722D02*
X12198634Y-8900484D01*
X12198634Y-8795722D02*
X12208158Y-8776674D01*
X12208158Y-8776674D02*
X12227205Y-8767150D01*
X12227205Y-8767150D02*
X12255777Y-8767150D01*
X12255777Y-8767150D02*
X12274824Y-8776674D01*
X12274824Y-8776674D02*
X12284348Y-8795722D01*
X12284348Y-8795722D02*
X12284348Y-8900484D01*
X12379586Y-8900484D02*
X12379586Y-8767150D01*
X12379586Y-8786198D02*
X12389110Y-8776674D01*
X12389110Y-8776674D02*
X12408158Y-8767150D01*
X12408158Y-8767150D02*
X12436729Y-8767150D01*
X12436729Y-8767150D02*
X12455777Y-8776674D01*
X12455777Y-8776674D02*
X12465301Y-8795722D01*
X12465301Y-8795722D02*
X12465301Y-8900484D01*
X12465301Y-8795722D02*
X12474824Y-8776674D01*
X12474824Y-8776674D02*
X12493872Y-8767150D01*
X12493872Y-8767150D02*
X12522443Y-8767150D01*
X12522443Y-8767150D02*
X12541491Y-8776674D01*
X12541491Y-8776674D02*
X12551015Y-8795722D01*
X12551015Y-8795722D02*
X12551015Y-8900484D01*
X12941491Y-8690960D02*
X12770063Y-8948103D01*
X13198634Y-8700484D02*
X13217682Y-8700484D01*
X13217682Y-8700484D02*
X13236729Y-8710008D01*
X13236729Y-8710008D02*
X13246253Y-8719531D01*
X13246253Y-8719531D02*
X13255777Y-8738579D01*
X13255777Y-8738579D02*
X13265301Y-8776674D01*
X13265301Y-8776674D02*
X13265301Y-8824293D01*
X13265301Y-8824293D02*
X13255777Y-8862389D01*
X13255777Y-8862389D02*
X13246253Y-8881436D01*
X13246253Y-8881436D02*
X13236729Y-8890960D01*
X13236729Y-8890960D02*
X13217682Y-8900484D01*
X13217682Y-8900484D02*
X13198634Y-8900484D01*
X13198634Y-8900484D02*
X13179586Y-8890960D01*
X13179586Y-8890960D02*
X13170063Y-8881436D01*
X13170063Y-8881436D02*
X13160539Y-8862389D01*
X13160539Y-8862389D02*
X13151015Y-8824293D01*
X13151015Y-8824293D02*
X13151015Y-8776674D01*
X13151015Y-8776674D02*
X13160539Y-8738579D01*
X13160539Y-8738579D02*
X13170063Y-8719531D01*
X13170063Y-8719531D02*
X13179586Y-8710008D01*
X13179586Y-8710008D02*
X13198634Y-8700484D01*
X13351015Y-8881436D02*
X13360539Y-8890960D01*
X13360539Y-8890960D02*
X13351015Y-8900484D01*
X13351015Y-8900484D02*
X13341491Y-8890960D01*
X13341491Y-8890960D02*
X13351015Y-8881436D01*
X13351015Y-8881436D02*
X13351015Y-8900484D01*
X13484348Y-8700484D02*
X13503396Y-8700484D01*
X13503396Y-8700484D02*
X13522444Y-8710008D01*
X13522444Y-8710008D02*
X13531967Y-8719531D01*
X13531967Y-8719531D02*
X13541491Y-8738579D01*
X13541491Y-8738579D02*
X13551015Y-8776674D01*
X13551015Y-8776674D02*
X13551015Y-8824293D01*
X13551015Y-8824293D02*
X13541491Y-8862389D01*
X13541491Y-8862389D02*
X13531967Y-8881436D01*
X13531967Y-8881436D02*
X13522444Y-8890960D01*
X13522444Y-8890960D02*
X13503396Y-8900484D01*
X13503396Y-8900484D02*
X13484348Y-8900484D01*
X13484348Y-8900484D02*
X13465301Y-8890960D01*
X13465301Y-8890960D02*
X13455777Y-8881436D01*
X13455777Y-8881436D02*
X13446253Y-8862389D01*
X13446253Y-8862389D02*
X13436729Y-8824293D01*
X13436729Y-8824293D02*
X13436729Y-8776674D01*
X13436729Y-8776674D02*
X13446253Y-8738579D01*
X13446253Y-8738579D02*
X13455777Y-8719531D01*
X13455777Y-8719531D02*
X13465301Y-8710008D01*
X13465301Y-8710008D02*
X13484348Y-8700484D01*
X13617682Y-8700484D02*
X13741491Y-8700484D01*
X13741491Y-8700484D02*
X13674825Y-8776674D01*
X13674825Y-8776674D02*
X13703396Y-8776674D01*
X13703396Y-8776674D02*
X13722444Y-8786198D01*
X13722444Y-8786198D02*
X13731967Y-8795722D01*
X13731967Y-8795722D02*
X13741491Y-8814770D01*
X13741491Y-8814770D02*
X13741491Y-8862389D01*
X13741491Y-8862389D02*
X13731967Y-8881436D01*
X13731967Y-8881436D02*
X13722444Y-8890960D01*
X13722444Y-8890960D02*
X13703396Y-8900484D01*
X13703396Y-8900484D02*
X13646253Y-8900484D01*
X13646253Y-8900484D02*
X13627206Y-8890960D01*
X13627206Y-8890960D02*
X13617682Y-8881436D01*
X13808158Y-8700484D02*
X13941491Y-8700484D01*
X13941491Y-8700484D02*
X13855777Y-8900484D01*
X14103396Y-8767150D02*
X14103396Y-8900484D01*
X14055777Y-8690960D02*
X14008158Y-8833817D01*
X14008158Y-8833817D02*
X14131967Y-8833817D01*
X14198634Y-8700484D02*
X14198634Y-8738579D01*
X14274825Y-8700484D02*
X14274825Y-8738579D01*
X14570063Y-8976674D02*
X14560539Y-8967150D01*
X14560539Y-8967150D02*
X14541491Y-8938579D01*
X14541491Y-8938579D02*
X14531968Y-8919531D01*
X14531968Y-8919531D02*
X14522444Y-8890960D01*
X14522444Y-8890960D02*
X14512920Y-8843341D01*
X14512920Y-8843341D02*
X14512920Y-8805246D01*
X14512920Y-8805246D02*
X14522444Y-8757627D01*
X14522444Y-8757627D02*
X14531968Y-8729055D01*
X14531968Y-8729055D02*
X14541491Y-8710008D01*
X14541491Y-8710008D02*
X14560539Y-8681436D01*
X14560539Y-8681436D02*
X14570063Y-8671912D01*
X14731968Y-8767150D02*
X14731968Y-8900484D01*
X14684348Y-8690960D02*
X14636729Y-8833817D01*
X14636729Y-8833817D02*
X14760539Y-8833817D01*
X14989110Y-8900484D02*
X14989110Y-8700484D01*
X15074825Y-8900484D02*
X15074825Y-8795722D01*
X15074825Y-8795722D02*
X15065301Y-8776674D01*
X15065301Y-8776674D02*
X15046253Y-8767150D01*
X15046253Y-8767150D02*
X15017682Y-8767150D01*
X15017682Y-8767150D02*
X14998634Y-8776674D01*
X14998634Y-8776674D02*
X14989110Y-8786198D01*
X15198634Y-8900484D02*
X15179587Y-8890960D01*
X15179587Y-8890960D02*
X15170063Y-8881436D01*
X15170063Y-8881436D02*
X15160539Y-8862389D01*
X15160539Y-8862389D02*
X15160539Y-8805246D01*
X15160539Y-8805246D02*
X15170063Y-8786198D01*
X15170063Y-8786198D02*
X15179587Y-8776674D01*
X15179587Y-8776674D02*
X15198634Y-8767150D01*
X15198634Y-8767150D02*
X15227206Y-8767150D01*
X15227206Y-8767150D02*
X15246253Y-8776674D01*
X15246253Y-8776674D02*
X15255777Y-8786198D01*
X15255777Y-8786198D02*
X15265301Y-8805246D01*
X15265301Y-8805246D02*
X15265301Y-8862389D01*
X15265301Y-8862389D02*
X15255777Y-8881436D01*
X15255777Y-8881436D02*
X15246253Y-8890960D01*
X15246253Y-8890960D02*
X15227206Y-8900484D01*
X15227206Y-8900484D02*
X15198634Y-8900484D01*
X15379587Y-8900484D02*
X15360539Y-8890960D01*
X15360539Y-8890960D02*
X15351015Y-8871912D01*
X15351015Y-8871912D02*
X15351015Y-8700484D01*
X15531968Y-8890960D02*
X15512920Y-8900484D01*
X15512920Y-8900484D02*
X15474825Y-8900484D01*
X15474825Y-8900484D02*
X15455777Y-8890960D01*
X15455777Y-8890960D02*
X15446253Y-8871912D01*
X15446253Y-8871912D02*
X15446253Y-8795722D01*
X15446253Y-8795722D02*
X15455777Y-8776674D01*
X15455777Y-8776674D02*
X15474825Y-8767150D01*
X15474825Y-8767150D02*
X15512920Y-8767150D01*
X15512920Y-8767150D02*
X15531968Y-8776674D01*
X15531968Y-8776674D02*
X15541491Y-8795722D01*
X15541491Y-8795722D02*
X15541491Y-8814770D01*
X15541491Y-8814770D02*
X15446253Y-8833817D01*
X15617682Y-8890960D02*
X15636730Y-8900484D01*
X15636730Y-8900484D02*
X15674825Y-8900484D01*
X15674825Y-8900484D02*
X15693872Y-8890960D01*
X15693872Y-8890960D02*
X15703396Y-8871912D01*
X15703396Y-8871912D02*
X15703396Y-8862389D01*
X15703396Y-8862389D02*
X15693872Y-8843341D01*
X15693872Y-8843341D02*
X15674825Y-8833817D01*
X15674825Y-8833817D02*
X15646253Y-8833817D01*
X15646253Y-8833817D02*
X15627206Y-8824293D01*
X15627206Y-8824293D02*
X15617682Y-8805246D01*
X15617682Y-8805246D02*
X15617682Y-8795722D01*
X15617682Y-8795722D02*
X15627206Y-8776674D01*
X15627206Y-8776674D02*
X15646253Y-8767150D01*
X15646253Y-8767150D02*
X15674825Y-8767150D01*
X15674825Y-8767150D02*
X15693872Y-8776674D01*
X15770063Y-8976674D02*
X15779587Y-8967150D01*
X15779587Y-8967150D02*
X15798634Y-8938579D01*
X15798634Y-8938579D02*
X15808158Y-8919531D01*
X15808158Y-8919531D02*
X15817682Y-8890960D01*
X15817682Y-8890960D02*
X15827206Y-8843341D01*
X15827206Y-8843341D02*
X15827206Y-8805246D01*
X15827206Y-8805246D02*
X15817682Y-8757627D01*
X15817682Y-8757627D02*
X15808158Y-8729055D01*
X15808158Y-8729055D02*
X15798634Y-8710008D01*
X15798634Y-8710008D02*
X15779587Y-8681436D01*
X15779587Y-8681436D02*
X15770063Y-8671912D01*
D10*
X10945000Y-9023000D02*
X10945000Y-9123000D01*
X10895000Y-9073000D02*
X10995000Y-9073000D01*
D11*
X11360539Y-9164484D02*
X11246253Y-9164484D01*
X11303396Y-9164484D02*
X11303396Y-8964484D01*
X11303396Y-8964484D02*
X11284348Y-8993055D01*
X11284348Y-8993055D02*
X11265301Y-9012103D01*
X11265301Y-9012103D02*
X11246253Y-9021627D01*
X11446253Y-9145436D02*
X11455777Y-9154960D01*
X11455777Y-9154960D02*
X11446253Y-9164484D01*
X11446253Y-9164484D02*
X11436729Y-9154960D01*
X11436729Y-9154960D02*
X11446253Y-9145436D01*
X11446253Y-9145436D02*
X11446253Y-9164484D01*
X11579586Y-8964484D02*
X11598634Y-8964484D01*
X11598634Y-8964484D02*
X11617682Y-8974008D01*
X11617682Y-8974008D02*
X11627205Y-8983531D01*
X11627205Y-8983531D02*
X11636729Y-9002579D01*
X11636729Y-9002579D02*
X11646253Y-9040674D01*
X11646253Y-9040674D02*
X11646253Y-9088293D01*
X11646253Y-9088293D02*
X11636729Y-9126389D01*
X11636729Y-9126389D02*
X11627205Y-9145436D01*
X11627205Y-9145436D02*
X11617682Y-9154960D01*
X11617682Y-9154960D02*
X11598634Y-9164484D01*
X11598634Y-9164484D02*
X11579586Y-9164484D01*
X11579586Y-9164484D02*
X11560539Y-9154960D01*
X11560539Y-9154960D02*
X11551015Y-9145436D01*
X11551015Y-9145436D02*
X11541491Y-9126389D01*
X11541491Y-9126389D02*
X11531967Y-9088293D01*
X11531967Y-9088293D02*
X11531967Y-9040674D01*
X11531967Y-9040674D02*
X11541491Y-9002579D01*
X11541491Y-9002579D02*
X11551015Y-8983531D01*
X11551015Y-8983531D02*
X11560539Y-8974008D01*
X11560539Y-8974008D02*
X11579586Y-8964484D01*
X11770062Y-8964484D02*
X11789110Y-8964484D01*
X11789110Y-8964484D02*
X11808158Y-8974008D01*
X11808158Y-8974008D02*
X11817682Y-8983531D01*
X11817682Y-8983531D02*
X11827205Y-9002579D01*
X11827205Y-9002579D02*
X11836729Y-9040674D01*
X11836729Y-9040674D02*
X11836729Y-9088293D01*
X11836729Y-9088293D02*
X11827205Y-9126389D01*
X11827205Y-9126389D02*
X11817682Y-9145436D01*
X11817682Y-9145436D02*
X11808158Y-9154960D01*
X11808158Y-9154960D02*
X11789110Y-9164484D01*
X11789110Y-9164484D02*
X11770062Y-9164484D01*
X11770062Y-9164484D02*
X11751015Y-9154960D01*
X11751015Y-9154960D02*
X11741491Y-9145436D01*
X11741491Y-9145436D02*
X11731967Y-9126389D01*
X11731967Y-9126389D02*
X11722443Y-9088293D01*
X11722443Y-9088293D02*
X11722443Y-9040674D01*
X11722443Y-9040674D02*
X11731967Y-9002579D01*
X11731967Y-9002579D02*
X11741491Y-8983531D01*
X11741491Y-8983531D02*
X11751015Y-8974008D01*
X11751015Y-8974008D02*
X11770062Y-8964484D01*
X11960539Y-8964484D02*
X11979586Y-8964484D01*
X11979586Y-8964484D02*
X11998634Y-8974008D01*
X11998634Y-8974008D02*
X12008158Y-8983531D01*
X12008158Y-8983531D02*
X12017682Y-9002579D01*
X12017682Y-9002579D02*
X12027205Y-9040674D01*
X12027205Y-9040674D02*
X12027205Y-9088293D01*
X12027205Y-9088293D02*
X12017682Y-9126389D01*
X12017682Y-9126389D02*
X12008158Y-9145436D01*
X12008158Y-9145436D02*
X11998634Y-9154960D01*
X11998634Y-9154960D02*
X11979586Y-9164484D01*
X11979586Y-9164484D02*
X11960539Y-9164484D01*
X11960539Y-9164484D02*
X11941491Y-9154960D01*
X11941491Y-9154960D02*
X11931967Y-9145436D01*
X11931967Y-9145436D02*
X11922443Y-9126389D01*
X11922443Y-9126389D02*
X11912920Y-9088293D01*
X11912920Y-9088293D02*
X11912920Y-9040674D01*
X11912920Y-9040674D02*
X11922443Y-9002579D01*
X11922443Y-9002579D02*
X11931967Y-8983531D01*
X11931967Y-8983531D02*
X11941491Y-8974008D01*
X11941491Y-8974008D02*
X11960539Y-8964484D01*
X12112920Y-9164484D02*
X12112920Y-9031150D01*
X12112920Y-9050198D02*
X12122443Y-9040674D01*
X12122443Y-9040674D02*
X12141491Y-9031150D01*
X12141491Y-9031150D02*
X12170063Y-9031150D01*
X12170063Y-9031150D02*
X12189110Y-9040674D01*
X12189110Y-9040674D02*
X12198634Y-9059722D01*
X12198634Y-9059722D02*
X12198634Y-9164484D01*
X12198634Y-9059722D02*
X12208158Y-9040674D01*
X12208158Y-9040674D02*
X12227205Y-9031150D01*
X12227205Y-9031150D02*
X12255777Y-9031150D01*
X12255777Y-9031150D02*
X12274824Y-9040674D01*
X12274824Y-9040674D02*
X12284348Y-9059722D01*
X12284348Y-9059722D02*
X12284348Y-9164484D01*
X12379586Y-9164484D02*
X12379586Y-9031150D01*
X12379586Y-9050198D02*
X12389110Y-9040674D01*
X12389110Y-9040674D02*
X12408158Y-9031150D01*
X12408158Y-9031150D02*
X12436729Y-9031150D01*
X12436729Y-9031150D02*
X12455777Y-9040674D01*
X12455777Y-9040674D02*
X12465301Y-9059722D01*
X12465301Y-9059722D02*
X12465301Y-9164484D01*
X12465301Y-9059722D02*
X12474824Y-9040674D01*
X12474824Y-9040674D02*
X12493872Y-9031150D01*
X12493872Y-9031150D02*
X12522443Y-9031150D01*
X12522443Y-9031150D02*
X12541491Y-9040674D01*
X12541491Y-9040674D02*
X12551015Y-9059722D01*
X12551015Y-9059722D02*
X12551015Y-9164484D01*
X12941491Y-8954960D02*
X12770063Y-9212103D01*
X13198634Y-8964484D02*
X13217682Y-8964484D01*
X13217682Y-8964484D02*
X13236729Y-8974008D01*
X13236729Y-8974008D02*
X13246253Y-8983531D01*
X13246253Y-8983531D02*
X13255777Y-9002579D01*
X13255777Y-9002579D02*
X13265301Y-9040674D01*
X13265301Y-9040674D02*
X13265301Y-9088293D01*
X13265301Y-9088293D02*
X13255777Y-9126389D01*
X13255777Y-9126389D02*
X13246253Y-9145436D01*
X13246253Y-9145436D02*
X13236729Y-9154960D01*
X13236729Y-9154960D02*
X13217682Y-9164484D01*
X13217682Y-9164484D02*
X13198634Y-9164484D01*
X13198634Y-9164484D02*
X13179586Y-9154960D01*
X13179586Y-9154960D02*
X13170063Y-9145436D01*
X13170063Y-9145436D02*
X13160539Y-9126389D01*
X13160539Y-9126389D02*
X13151015Y-9088293D01*
X13151015Y-9088293D02*
X13151015Y-9040674D01*
X13151015Y-9040674D02*
X13160539Y-9002579D01*
X13160539Y-9002579D02*
X13170063Y-8983531D01*
X13170063Y-8983531D02*
X13179586Y-8974008D01*
X13179586Y-8974008D02*
X13198634Y-8964484D01*
X13351015Y-9145436D02*
X13360539Y-9154960D01*
X13360539Y-9154960D02*
X13351015Y-9164484D01*
X13351015Y-9164484D02*
X13341491Y-9154960D01*
X13341491Y-9154960D02*
X13351015Y-9145436D01*
X13351015Y-9145436D02*
X13351015Y-9164484D01*
X13484348Y-8964484D02*
X13503396Y-8964484D01*
X13503396Y-8964484D02*
X13522444Y-8974008D01*
X13522444Y-8974008D02*
X13531967Y-8983531D01*
X13531967Y-8983531D02*
X13541491Y-9002579D01*
X13541491Y-9002579D02*
X13551015Y-9040674D01*
X13551015Y-9040674D02*
X13551015Y-9088293D01*
X13551015Y-9088293D02*
X13541491Y-9126389D01*
X13541491Y-9126389D02*
X13531967Y-9145436D01*
X13531967Y-9145436D02*
X13522444Y-9154960D01*
X13522444Y-9154960D02*
X13503396Y-9164484D01*
X13503396Y-9164484D02*
X13484348Y-9164484D01*
X13484348Y-9164484D02*
X13465301Y-9154960D01*
X13465301Y-9154960D02*
X13455777Y-9145436D01*
X13455777Y-9145436D02*
X13446253Y-9126389D01*
X13446253Y-9126389D02*
X13436729Y-9088293D01*
X13436729Y-9088293D02*
X13436729Y-9040674D01*
X13436729Y-9040674D02*
X13446253Y-9002579D01*
X13446253Y-9002579D02*
X13455777Y-8983531D01*
X13455777Y-8983531D02*
X13465301Y-8974008D01*
X13465301Y-8974008D02*
X13484348Y-8964484D01*
X13617682Y-8964484D02*
X13741491Y-8964484D01*
X13741491Y-8964484D02*
X13674825Y-9040674D01*
X13674825Y-9040674D02*
X13703396Y-9040674D01*
X13703396Y-9040674D02*
X13722444Y-9050198D01*
X13722444Y-9050198D02*
X13731967Y-9059722D01*
X13731967Y-9059722D02*
X13741491Y-9078770D01*
X13741491Y-9078770D02*
X13741491Y-9126389D01*
X13741491Y-9126389D02*
X13731967Y-9145436D01*
X13731967Y-9145436D02*
X13722444Y-9154960D01*
X13722444Y-9154960D02*
X13703396Y-9164484D01*
X13703396Y-9164484D02*
X13646253Y-9164484D01*
X13646253Y-9164484D02*
X13627206Y-9154960D01*
X13627206Y-9154960D02*
X13617682Y-9145436D01*
X13836729Y-9164484D02*
X13874825Y-9164484D01*
X13874825Y-9164484D02*
X13893872Y-9154960D01*
X13893872Y-9154960D02*
X13903396Y-9145436D01*
X13903396Y-9145436D02*
X13922444Y-9116865D01*
X13922444Y-9116865D02*
X13931967Y-9078770D01*
X13931967Y-9078770D02*
X13931967Y-9002579D01*
X13931967Y-9002579D02*
X13922444Y-8983531D01*
X13922444Y-8983531D02*
X13912920Y-8974008D01*
X13912920Y-8974008D02*
X13893872Y-8964484D01*
X13893872Y-8964484D02*
X13855777Y-8964484D01*
X13855777Y-8964484D02*
X13836729Y-8974008D01*
X13836729Y-8974008D02*
X13827206Y-8983531D01*
X13827206Y-8983531D02*
X13817682Y-9002579D01*
X13817682Y-9002579D02*
X13817682Y-9050198D01*
X13817682Y-9050198D02*
X13827206Y-9069246D01*
X13827206Y-9069246D02*
X13836729Y-9078770D01*
X13836729Y-9078770D02*
X13855777Y-9088293D01*
X13855777Y-9088293D02*
X13893872Y-9088293D01*
X13893872Y-9088293D02*
X13912920Y-9078770D01*
X13912920Y-9078770D02*
X13922444Y-9069246D01*
X13922444Y-9069246D02*
X13931967Y-9050198D01*
X14103396Y-9031150D02*
X14103396Y-9164484D01*
X14055777Y-8954960D02*
X14008158Y-9097817D01*
X14008158Y-9097817D02*
X14131967Y-9097817D01*
X14198634Y-8964484D02*
X14198634Y-9002579D01*
X14274825Y-8964484D02*
X14274825Y-9002579D01*
X14570063Y-9240674D02*
X14560539Y-9231150D01*
X14560539Y-9231150D02*
X14541491Y-9202579D01*
X14541491Y-9202579D02*
X14531968Y-9183531D01*
X14531968Y-9183531D02*
X14522444Y-9154960D01*
X14522444Y-9154960D02*
X14512920Y-9107341D01*
X14512920Y-9107341D02*
X14512920Y-9069246D01*
X14512920Y-9069246D02*
X14522444Y-9021627D01*
X14522444Y-9021627D02*
X14531968Y-8993055D01*
X14531968Y-8993055D02*
X14541491Y-8974008D01*
X14541491Y-8974008D02*
X14560539Y-8945436D01*
X14560539Y-8945436D02*
X14570063Y-8935912D01*
X14636729Y-8983531D02*
X14646253Y-8974008D01*
X14646253Y-8974008D02*
X14665301Y-8964484D01*
X14665301Y-8964484D02*
X14712920Y-8964484D01*
X14712920Y-8964484D02*
X14731968Y-8974008D01*
X14731968Y-8974008D02*
X14741491Y-8983531D01*
X14741491Y-8983531D02*
X14751015Y-9002579D01*
X14751015Y-9002579D02*
X14751015Y-9021627D01*
X14751015Y-9021627D02*
X14741491Y-9050198D01*
X14741491Y-9050198D02*
X14627206Y-9164484D01*
X14627206Y-9164484D02*
X14751015Y-9164484D01*
X14989110Y-9164484D02*
X14989110Y-8964484D01*
X15074825Y-9164484D02*
X15074825Y-9059722D01*
X15074825Y-9059722D02*
X15065301Y-9040674D01*
X15065301Y-9040674D02*
X15046253Y-9031150D01*
X15046253Y-9031150D02*
X15017682Y-9031150D01*
X15017682Y-9031150D02*
X14998634Y-9040674D01*
X14998634Y-9040674D02*
X14989110Y-9050198D01*
X15198634Y-9164484D02*
X15179587Y-9154960D01*
X15179587Y-9154960D02*
X15170063Y-9145436D01*
X15170063Y-9145436D02*
X15160539Y-9126389D01*
X15160539Y-9126389D02*
X15160539Y-9069246D01*
X15160539Y-9069246D02*
X15170063Y-9050198D01*
X15170063Y-9050198D02*
X15179587Y-9040674D01*
X15179587Y-9040674D02*
X15198634Y-9031150D01*
X15198634Y-9031150D02*
X15227206Y-9031150D01*
X15227206Y-9031150D02*
X15246253Y-9040674D01*
X15246253Y-9040674D02*
X15255777Y-9050198D01*
X15255777Y-9050198D02*
X15265301Y-9069246D01*
X15265301Y-9069246D02*
X15265301Y-9126389D01*
X15265301Y-9126389D02*
X15255777Y-9145436D01*
X15255777Y-9145436D02*
X15246253Y-9154960D01*
X15246253Y-9154960D02*
X15227206Y-9164484D01*
X15227206Y-9164484D02*
X15198634Y-9164484D01*
X15379587Y-9164484D02*
X15360539Y-9154960D01*
X15360539Y-9154960D02*
X15351015Y-9135912D01*
X15351015Y-9135912D02*
X15351015Y-8964484D01*
X15531968Y-9154960D02*
X15512920Y-9164484D01*
X15512920Y-9164484D02*
X15474825Y-9164484D01*
X15474825Y-9164484D02*
X15455777Y-9154960D01*
X15455777Y-9154960D02*
X15446253Y-9135912D01*
X15446253Y-9135912D02*
X15446253Y-9059722D01*
X15446253Y-9059722D02*
X15455777Y-9040674D01*
X15455777Y-9040674D02*
X15474825Y-9031150D01*
X15474825Y-9031150D02*
X15512920Y-9031150D01*
X15512920Y-9031150D02*
X15531968Y-9040674D01*
X15531968Y-9040674D02*
X15541491Y-9059722D01*
X15541491Y-9059722D02*
X15541491Y-9078770D01*
X15541491Y-9078770D02*
X15446253Y-9097817D01*
X15617682Y-9154960D02*
X15636730Y-9164484D01*
X15636730Y-9164484D02*
X15674825Y-9164484D01*
X15674825Y-9164484D02*
X15693872Y-9154960D01*
X15693872Y-9154960D02*
X15703396Y-9135912D01*
X15703396Y-9135912D02*
X15703396Y-9126389D01*
X15703396Y-9126389D02*
X15693872Y-9107341D01*
X15693872Y-9107341D02*
X15674825Y-9097817D01*
X15674825Y-9097817D02*
X15646253Y-9097817D01*
X15646253Y-9097817D02*
X15627206Y-9088293D01*
X15627206Y-9088293D02*
X15617682Y-9069246D01*
X15617682Y-9069246D02*
X15617682Y-9059722D01*
X15617682Y-9059722D02*
X15627206Y-9040674D01*
X15627206Y-9040674D02*
X15646253Y-9031150D01*
X15646253Y-9031150D02*
X15674825Y-9031150D01*
X15674825Y-9031150D02*
X15693872Y-9040674D01*
X15770063Y-9240674D02*
X15779587Y-9231150D01*
X15779587Y-9231150D02*
X15798634Y-9202579D01*
X15798634Y-9202579D02*
X15808158Y-9183531D01*
X15808158Y-9183531D02*
X15817682Y-9154960D01*
X15817682Y-9154960D02*
X15827206Y-9107341D01*
X15827206Y-9107341D02*
X15827206Y-9069246D01*
X15827206Y-9069246D02*
X15817682Y-9021627D01*
X15817682Y-9021627D02*
X15808158Y-8993055D01*
X15808158Y-8993055D02*
X15798634Y-8974008D01*
X15798634Y-8974008D02*
X15779587Y-8945436D01*
X15779587Y-8945436D02*
X15770063Y-8935912D01*
D14*
X10978891Y-9375891D02*
X10978891Y-9298109D01*
X10901109Y-9298109D01*
X10901109Y-9375891D01*
X10978891Y-9375891D01*
D11*
X11360539Y-9428484D02*
X11246253Y-9428484D01*
X11303396Y-9428484D02*
X11303396Y-9228484D01*
X11303396Y-9228484D02*
X11284348Y-9257055D01*
X11284348Y-9257055D02*
X11265301Y-9276103D01*
X11265301Y-9276103D02*
X11246253Y-9285627D01*
X11446253Y-9409436D02*
X11455777Y-9418960D01*
X11455777Y-9418960D02*
X11446253Y-9428484D01*
X11446253Y-9428484D02*
X11436729Y-9418960D01*
X11436729Y-9418960D02*
X11446253Y-9409436D01*
X11446253Y-9409436D02*
X11446253Y-9428484D01*
X11646253Y-9428484D02*
X11531967Y-9428484D01*
X11589110Y-9428484D02*
X11589110Y-9228484D01*
X11589110Y-9228484D02*
X11570062Y-9257055D01*
X11570062Y-9257055D02*
X11551015Y-9276103D01*
X11551015Y-9276103D02*
X11531967Y-9285627D01*
X11770062Y-9228484D02*
X11789110Y-9228484D01*
X11789110Y-9228484D02*
X11808158Y-9238008D01*
X11808158Y-9238008D02*
X11817682Y-9247531D01*
X11817682Y-9247531D02*
X11827205Y-9266579D01*
X11827205Y-9266579D02*
X11836729Y-9304674D01*
X11836729Y-9304674D02*
X11836729Y-9352293D01*
X11836729Y-9352293D02*
X11827205Y-9390389D01*
X11827205Y-9390389D02*
X11817682Y-9409436D01*
X11817682Y-9409436D02*
X11808158Y-9418960D01*
X11808158Y-9418960D02*
X11789110Y-9428484D01*
X11789110Y-9428484D02*
X11770062Y-9428484D01*
X11770062Y-9428484D02*
X11751015Y-9418960D01*
X11751015Y-9418960D02*
X11741491Y-9409436D01*
X11741491Y-9409436D02*
X11731967Y-9390389D01*
X11731967Y-9390389D02*
X11722443Y-9352293D01*
X11722443Y-9352293D02*
X11722443Y-9304674D01*
X11722443Y-9304674D02*
X11731967Y-9266579D01*
X11731967Y-9266579D02*
X11741491Y-9247531D01*
X11741491Y-9247531D02*
X11751015Y-9238008D01*
X11751015Y-9238008D02*
X11770062Y-9228484D01*
X11960539Y-9228484D02*
X11979586Y-9228484D01*
X11979586Y-9228484D02*
X11998634Y-9238008D01*
X11998634Y-9238008D02*
X12008158Y-9247531D01*
X12008158Y-9247531D02*
X12017682Y-9266579D01*
X12017682Y-9266579D02*
X12027205Y-9304674D01*
X12027205Y-9304674D02*
X12027205Y-9352293D01*
X12027205Y-9352293D02*
X12017682Y-9390389D01*
X12017682Y-9390389D02*
X12008158Y-9409436D01*
X12008158Y-9409436D02*
X11998634Y-9418960D01*
X11998634Y-9418960D02*
X11979586Y-9428484D01*
X11979586Y-9428484D02*
X11960539Y-9428484D01*
X11960539Y-9428484D02*
X11941491Y-9418960D01*
X11941491Y-9418960D02*
X11931967Y-9409436D01*
X11931967Y-9409436D02*
X11922443Y-9390389D01*
X11922443Y-9390389D02*
X11912920Y-9352293D01*
X11912920Y-9352293D02*
X11912920Y-9304674D01*
X11912920Y-9304674D02*
X11922443Y-9266579D01*
X11922443Y-9266579D02*
X11931967Y-9247531D01*
X11931967Y-9247531D02*
X11941491Y-9238008D01*
X11941491Y-9238008D02*
X11960539Y-9228484D01*
X12112920Y-9428484D02*
X12112920Y-9295150D01*
X12112920Y-9314198D02*
X12122443Y-9304674D01*
X12122443Y-9304674D02*
X12141491Y-9295150D01*
X12141491Y-9295150D02*
X12170063Y-9295150D01*
X12170063Y-9295150D02*
X12189110Y-9304674D01*
X12189110Y-9304674D02*
X12198634Y-9323722D01*
X12198634Y-9323722D02*
X12198634Y-9428484D01*
X12198634Y-9323722D02*
X12208158Y-9304674D01*
X12208158Y-9304674D02*
X12227205Y-9295150D01*
X12227205Y-9295150D02*
X12255777Y-9295150D01*
X12255777Y-9295150D02*
X12274824Y-9304674D01*
X12274824Y-9304674D02*
X12284348Y-9323722D01*
X12284348Y-9323722D02*
X12284348Y-9428484D01*
X12379586Y-9428484D02*
X12379586Y-9295150D01*
X12379586Y-9314198D02*
X12389110Y-9304674D01*
X12389110Y-9304674D02*
X12408158Y-9295150D01*
X12408158Y-9295150D02*
X12436729Y-9295150D01*
X12436729Y-9295150D02*
X12455777Y-9304674D01*
X12455777Y-9304674D02*
X12465301Y-9323722D01*
X12465301Y-9323722D02*
X12465301Y-9428484D01*
X12465301Y-9323722D02*
X12474824Y-9304674D01*
X12474824Y-9304674D02*
X12493872Y-9295150D01*
X12493872Y-9295150D02*
X12522443Y-9295150D01*
X12522443Y-9295150D02*
X12541491Y-9304674D01*
X12541491Y-9304674D02*
X12551015Y-9323722D01*
X12551015Y-9323722D02*
X12551015Y-9428484D01*
X12941491Y-9218960D02*
X12770063Y-9476103D01*
X13198634Y-9228484D02*
X13217682Y-9228484D01*
X13217682Y-9228484D02*
X13236729Y-9238008D01*
X13236729Y-9238008D02*
X13246253Y-9247531D01*
X13246253Y-9247531D02*
X13255777Y-9266579D01*
X13255777Y-9266579D02*
X13265301Y-9304674D01*
X13265301Y-9304674D02*
X13265301Y-9352293D01*
X13265301Y-9352293D02*
X13255777Y-9390389D01*
X13255777Y-9390389D02*
X13246253Y-9409436D01*
X13246253Y-9409436D02*
X13236729Y-9418960D01*
X13236729Y-9418960D02*
X13217682Y-9428484D01*
X13217682Y-9428484D02*
X13198634Y-9428484D01*
X13198634Y-9428484D02*
X13179586Y-9418960D01*
X13179586Y-9418960D02*
X13170063Y-9409436D01*
X13170063Y-9409436D02*
X13160539Y-9390389D01*
X13160539Y-9390389D02*
X13151015Y-9352293D01*
X13151015Y-9352293D02*
X13151015Y-9304674D01*
X13151015Y-9304674D02*
X13160539Y-9266579D01*
X13160539Y-9266579D02*
X13170063Y-9247531D01*
X13170063Y-9247531D02*
X13179586Y-9238008D01*
X13179586Y-9238008D02*
X13198634Y-9228484D01*
X13351015Y-9409436D02*
X13360539Y-9418960D01*
X13360539Y-9418960D02*
X13351015Y-9428484D01*
X13351015Y-9428484D02*
X13341491Y-9418960D01*
X13341491Y-9418960D02*
X13351015Y-9409436D01*
X13351015Y-9409436D02*
X13351015Y-9428484D01*
X13484348Y-9228484D02*
X13503396Y-9228484D01*
X13503396Y-9228484D02*
X13522444Y-9238008D01*
X13522444Y-9238008D02*
X13531967Y-9247531D01*
X13531967Y-9247531D02*
X13541491Y-9266579D01*
X13541491Y-9266579D02*
X13551015Y-9304674D01*
X13551015Y-9304674D02*
X13551015Y-9352293D01*
X13551015Y-9352293D02*
X13541491Y-9390389D01*
X13541491Y-9390389D02*
X13531967Y-9409436D01*
X13531967Y-9409436D02*
X13522444Y-9418960D01*
X13522444Y-9418960D02*
X13503396Y-9428484D01*
X13503396Y-9428484D02*
X13484348Y-9428484D01*
X13484348Y-9428484D02*
X13465301Y-9418960D01*
X13465301Y-9418960D02*
X13455777Y-9409436D01*
X13455777Y-9409436D02*
X13446253Y-9390389D01*
X13446253Y-9390389D02*
X13436729Y-9352293D01*
X13436729Y-9352293D02*
X13436729Y-9304674D01*
X13436729Y-9304674D02*
X13446253Y-9266579D01*
X13446253Y-9266579D02*
X13455777Y-9247531D01*
X13455777Y-9247531D02*
X13465301Y-9238008D01*
X13465301Y-9238008D02*
X13484348Y-9228484D01*
X13722444Y-9295150D02*
X13722444Y-9428484D01*
X13674825Y-9218960D02*
X13627206Y-9361817D01*
X13627206Y-9361817D02*
X13751015Y-9361817D01*
X13808158Y-9228484D02*
X13931967Y-9228484D01*
X13931967Y-9228484D02*
X13865301Y-9304674D01*
X13865301Y-9304674D02*
X13893872Y-9304674D01*
X13893872Y-9304674D02*
X13912920Y-9314198D01*
X13912920Y-9314198D02*
X13922444Y-9323722D01*
X13922444Y-9323722D02*
X13931967Y-9342770D01*
X13931967Y-9342770D02*
X13931967Y-9390389D01*
X13931967Y-9390389D02*
X13922444Y-9409436D01*
X13922444Y-9409436D02*
X13912920Y-9418960D01*
X13912920Y-9418960D02*
X13893872Y-9428484D01*
X13893872Y-9428484D02*
X13836729Y-9428484D01*
X13836729Y-9428484D02*
X13817682Y-9418960D01*
X13817682Y-9418960D02*
X13808158Y-9409436D01*
X13998634Y-9228484D02*
X14122444Y-9228484D01*
X14122444Y-9228484D02*
X14055777Y-9304674D01*
X14055777Y-9304674D02*
X14084348Y-9304674D01*
X14084348Y-9304674D02*
X14103396Y-9314198D01*
X14103396Y-9314198D02*
X14112920Y-9323722D01*
X14112920Y-9323722D02*
X14122444Y-9342770D01*
X14122444Y-9342770D02*
X14122444Y-9390389D01*
X14122444Y-9390389D02*
X14112920Y-9409436D01*
X14112920Y-9409436D02*
X14103396Y-9418960D01*
X14103396Y-9418960D02*
X14084348Y-9428484D01*
X14084348Y-9428484D02*
X14027206Y-9428484D01*
X14027206Y-9428484D02*
X14008158Y-9418960D01*
X14008158Y-9418960D02*
X13998634Y-9409436D01*
X14198634Y-9228484D02*
X14198634Y-9266579D01*
X14274825Y-9228484D02*
X14274825Y-9266579D01*
X14570063Y-9504674D02*
X14560539Y-9495150D01*
X14560539Y-9495150D02*
X14541491Y-9466579D01*
X14541491Y-9466579D02*
X14531968Y-9447531D01*
X14531968Y-9447531D02*
X14522444Y-9418960D01*
X14522444Y-9418960D02*
X14512920Y-9371341D01*
X14512920Y-9371341D02*
X14512920Y-9333246D01*
X14512920Y-9333246D02*
X14522444Y-9285627D01*
X14522444Y-9285627D02*
X14531968Y-9257055D01*
X14531968Y-9257055D02*
X14541491Y-9238008D01*
X14541491Y-9238008D02*
X14560539Y-9209436D01*
X14560539Y-9209436D02*
X14570063Y-9199912D01*
X14731968Y-9295150D02*
X14731968Y-9428484D01*
X14684348Y-9218960D02*
X14636729Y-9361817D01*
X14636729Y-9361817D02*
X14760539Y-9361817D01*
X14922444Y-9295150D02*
X14922444Y-9428484D01*
X14874825Y-9218960D02*
X14827206Y-9361817D01*
X14827206Y-9361817D02*
X14951015Y-9361817D01*
X15179587Y-9428484D02*
X15179587Y-9228484D01*
X15265301Y-9428484D02*
X15265301Y-9323722D01*
X15265301Y-9323722D02*
X15255777Y-9304674D01*
X15255777Y-9304674D02*
X15236730Y-9295150D01*
X15236730Y-9295150D02*
X15208158Y-9295150D01*
X15208158Y-9295150D02*
X15189110Y-9304674D01*
X15189110Y-9304674D02*
X15179587Y-9314198D01*
X15389110Y-9428484D02*
X15370063Y-9418960D01*
X15370063Y-9418960D02*
X15360539Y-9409436D01*
X15360539Y-9409436D02*
X15351015Y-9390389D01*
X15351015Y-9390389D02*
X15351015Y-9333246D01*
X15351015Y-9333246D02*
X15360539Y-9314198D01*
X15360539Y-9314198D02*
X15370063Y-9304674D01*
X15370063Y-9304674D02*
X15389110Y-9295150D01*
X15389110Y-9295150D02*
X15417682Y-9295150D01*
X15417682Y-9295150D02*
X15436730Y-9304674D01*
X15436730Y-9304674D02*
X15446253Y-9314198D01*
X15446253Y-9314198D02*
X15455777Y-9333246D01*
X15455777Y-9333246D02*
X15455777Y-9390389D01*
X15455777Y-9390389D02*
X15446253Y-9409436D01*
X15446253Y-9409436D02*
X15436730Y-9418960D01*
X15436730Y-9418960D02*
X15417682Y-9428484D01*
X15417682Y-9428484D02*
X15389110Y-9428484D01*
X15570063Y-9428484D02*
X15551015Y-9418960D01*
X15551015Y-9418960D02*
X15541491Y-9399912D01*
X15541491Y-9399912D02*
X15541491Y-9228484D01*
X15722444Y-9418960D02*
X15703396Y-9428484D01*
X15703396Y-9428484D02*
X15665301Y-9428484D01*
X15665301Y-9428484D02*
X15646253Y-9418960D01*
X15646253Y-9418960D02*
X15636730Y-9399912D01*
X15636730Y-9399912D02*
X15636730Y-9323722D01*
X15636730Y-9323722D02*
X15646253Y-9304674D01*
X15646253Y-9304674D02*
X15665301Y-9295150D01*
X15665301Y-9295150D02*
X15703396Y-9295150D01*
X15703396Y-9295150D02*
X15722444Y-9304674D01*
X15722444Y-9304674D02*
X15731968Y-9323722D01*
X15731968Y-9323722D02*
X15731968Y-9342770D01*
X15731968Y-9342770D02*
X15636730Y-9361817D01*
X15808158Y-9418960D02*
X15827206Y-9428484D01*
X15827206Y-9428484D02*
X15865301Y-9428484D01*
X15865301Y-9428484D02*
X15884349Y-9418960D01*
X15884349Y-9418960D02*
X15893872Y-9399912D01*
X15893872Y-9399912D02*
X15893872Y-9390389D01*
X15893872Y-9390389D02*
X15884349Y-9371341D01*
X15884349Y-9371341D02*
X15865301Y-9361817D01*
X15865301Y-9361817D02*
X15836730Y-9361817D01*
X15836730Y-9361817D02*
X15817682Y-9352293D01*
X15817682Y-9352293D02*
X15808158Y-9333246D01*
X15808158Y-9333246D02*
X15808158Y-9323722D01*
X15808158Y-9323722D02*
X15817682Y-9304674D01*
X15817682Y-9304674D02*
X15836730Y-9295150D01*
X15836730Y-9295150D02*
X15865301Y-9295150D01*
X15865301Y-9295150D02*
X15884349Y-9304674D01*
X15960539Y-9504674D02*
X15970063Y-9495150D01*
X15970063Y-9495150D02*
X15989111Y-9466579D01*
X15989111Y-9466579D02*
X15998634Y-9447531D01*
X15998634Y-9447531D02*
X16008158Y-9418960D01*
X16008158Y-9418960D02*
X16017682Y-9371341D01*
X16017682Y-9371341D02*
X16017682Y-9333246D01*
X16017682Y-9333246D02*
X16008158Y-9285627D01*
X16008158Y-9285627D02*
X15998634Y-9257055D01*
X15998634Y-9257055D02*
X15989111Y-9238008D01*
X15989111Y-9238008D02*
X15970063Y-9209436D01*
X15970063Y-9209436D02*
X15960539Y-9199912D01*
M02*
