G04 #@! TF.GenerationSoftware,KiCad,Pcbnew,8.0.2*
G04 #@! TF.CreationDate,2025-02-01T23:04:15-07:00*
G04 #@! TF.ProjectId,steering wheel v4,73746565-7269-46e6-9720-776865656c20,rev?*
G04 #@! TF.SameCoordinates,Original*
G04 #@! TF.FileFunction,Legend,Bot*
G04 #@! TF.FilePolarity,Positive*
%FSLAX46Y46*%
G04 Gerber Fmt 4.6, Leading zero omitted, Abs format (unit mm)*
G04 Created by KiCad (PCBNEW 8.0.2) date 2025-02-01 23:04:15*
%MOMM*%
%LPD*%
G01*
G04 APERTURE LIST*
G04 Aperture macros list*
%AMRoundRect*
0 Rectangle with rounded corners*
0 $1 Rounding radius*
0 $2 $3 $4 $5 $6 $7 $8 $9 X,Y pos of 4 corners*
0 Add a 4 corners polygon primitive as box body*
4,1,4,$2,$3,$4,$5,$6,$7,$8,$9,$2,$3,0*
0 Add four circle primitives for the rounded corners*
1,1,$1+$1,$2,$3*
1,1,$1+$1,$4,$5*
1,1,$1+$1,$6,$7*
1,1,$1+$1,$8,$9*
0 Add four rect primitives between the rounded corners*
20,1,$1+$1,$2,$3,$4,$5,0*
20,1,$1+$1,$4,$5,$6,$7,0*
20,1,$1+$1,$6,$7,$8,$9,0*
20,1,$1+$1,$8,$9,$2,$3,0*%
G04 Aperture macros list end*
%ADD10C,0.100000*%
%ADD11C,0.150000*%
%ADD12C,0.120000*%
%ADD13C,3.200000*%
%ADD14R,1.700000X1.700000*%
%ADD15O,1.700000X1.700000*%
%ADD16O,1.350000X1.700000*%
%ADD17O,1.100000X1.500000*%
%ADD18C,1.100000*%
%ADD19R,0.750000X2.630000*%
%ADD20RoundRect,0.250000X-0.600000X-0.725000X0.600000X-0.725000X0.600000X0.725000X-0.600000X0.725000X0*%
%ADD21O,1.700000X1.950000*%
%ADD22RoundRect,0.250000X-0.750000X0.600000X-0.750000X-0.600000X0.750000X-0.600000X0.750000X0.600000X0*%
%ADD23O,2.000000X1.700000*%
%ADD24RoundRect,0.250000X0.750000X-0.600000X0.750000X0.600000X-0.750000X0.600000X-0.750000X-0.600000X0*%
%ADD25C,0.990600*%
%ADD26C,0.787400*%
G04 APERTURE END LIST*
D10*
X160267544Y-123555808D02*
X160267544Y-124365332D01*
X160267544Y-124365332D02*
X160315163Y-124460570D01*
X160315163Y-124460570D02*
X160362782Y-124508189D01*
X160362782Y-124508189D02*
X160458020Y-124555808D01*
X160458020Y-124555808D02*
X160600877Y-124555808D01*
X160600877Y-124555808D02*
X160696115Y-124508189D01*
X160267544Y-124174856D02*
X160362782Y-124222475D01*
X160362782Y-124222475D02*
X160553258Y-124222475D01*
X160553258Y-124222475D02*
X160648496Y-124174856D01*
X160648496Y-124174856D02*
X160696115Y-124127236D01*
X160696115Y-124127236D02*
X160743734Y-124031998D01*
X160743734Y-124031998D02*
X160743734Y-123746284D01*
X160743734Y-123746284D02*
X160696115Y-123651046D01*
X160696115Y-123651046D02*
X160648496Y-123603427D01*
X160648496Y-123603427D02*
X160553258Y-123555808D01*
X160553258Y-123555808D02*
X160362782Y-123555808D01*
X160362782Y-123555808D02*
X160267544Y-123603427D01*
X159648496Y-124222475D02*
X159743734Y-124174856D01*
X159743734Y-124174856D02*
X159791353Y-124127236D01*
X159791353Y-124127236D02*
X159838972Y-124031998D01*
X159838972Y-124031998D02*
X159838972Y-123746284D01*
X159838972Y-123746284D02*
X159791353Y-123651046D01*
X159791353Y-123651046D02*
X159743734Y-123603427D01*
X159743734Y-123603427D02*
X159648496Y-123555808D01*
X159648496Y-123555808D02*
X159505639Y-123555808D01*
X159505639Y-123555808D02*
X159410401Y-123603427D01*
X159410401Y-123603427D02*
X159362782Y-123651046D01*
X159362782Y-123651046D02*
X159315163Y-123746284D01*
X159315163Y-123746284D02*
X159315163Y-124031998D01*
X159315163Y-124031998D02*
X159362782Y-124127236D01*
X159362782Y-124127236D02*
X159410401Y-124174856D01*
X159410401Y-124174856D02*
X159505639Y-124222475D01*
X159505639Y-124222475D02*
X159648496Y-124222475D01*
X158267543Y-123555808D02*
X157886591Y-123555808D01*
X158124686Y-123222475D02*
X158124686Y-124079617D01*
X158124686Y-124079617D02*
X158077067Y-124174856D01*
X158077067Y-124174856D02*
X157981829Y-124222475D01*
X157981829Y-124222475D02*
X157886591Y-124222475D01*
X157410400Y-124222475D02*
X157505638Y-124174856D01*
X157505638Y-124174856D02*
X157553257Y-124127236D01*
X157553257Y-124127236D02*
X157600876Y-124031998D01*
X157600876Y-124031998D02*
X157600876Y-123746284D01*
X157600876Y-123746284D02*
X157553257Y-123651046D01*
X157553257Y-123651046D02*
X157505638Y-123603427D01*
X157505638Y-123603427D02*
X157410400Y-123555808D01*
X157410400Y-123555808D02*
X157267543Y-123555808D01*
X157267543Y-123555808D02*
X157172305Y-123603427D01*
X157172305Y-123603427D02*
X157124686Y-123651046D01*
X157124686Y-123651046D02*
X157077067Y-123746284D01*
X157077067Y-123746284D02*
X157077067Y-124031998D01*
X157077067Y-124031998D02*
X157124686Y-124127236D01*
X157124686Y-124127236D02*
X157172305Y-124174856D01*
X157172305Y-124174856D02*
X157267543Y-124222475D01*
X157267543Y-124222475D02*
X157410400Y-124222475D01*
X155458019Y-124222475D02*
X155458019Y-123698665D01*
X155458019Y-123698665D02*
X155505638Y-123603427D01*
X155505638Y-123603427D02*
X155600876Y-123555808D01*
X155600876Y-123555808D02*
X155791352Y-123555808D01*
X155791352Y-123555808D02*
X155886590Y-123603427D01*
X155458019Y-124174856D02*
X155553257Y-124222475D01*
X155553257Y-124222475D02*
X155791352Y-124222475D01*
X155791352Y-124222475D02*
X155886590Y-124174856D01*
X155886590Y-124174856D02*
X155934209Y-124079617D01*
X155934209Y-124079617D02*
X155934209Y-123984379D01*
X155934209Y-123984379D02*
X155886590Y-123889141D01*
X155886590Y-123889141D02*
X155791352Y-123841522D01*
X155791352Y-123841522D02*
X155553257Y-123841522D01*
X155553257Y-123841522D02*
X155458019Y-123793903D01*
X154267542Y-124174856D02*
X154172304Y-124222475D01*
X154172304Y-124222475D02*
X153981828Y-124222475D01*
X153981828Y-124222475D02*
X153886590Y-124174856D01*
X153886590Y-124174856D02*
X153838971Y-124079617D01*
X153838971Y-124079617D02*
X153838971Y-124031998D01*
X153838971Y-124031998D02*
X153886590Y-123936760D01*
X153886590Y-123936760D02*
X153981828Y-123889141D01*
X153981828Y-123889141D02*
X154124685Y-123889141D01*
X154124685Y-123889141D02*
X154219923Y-123841522D01*
X154219923Y-123841522D02*
X154267542Y-123746284D01*
X154267542Y-123746284D02*
X154267542Y-123698665D01*
X154267542Y-123698665D02*
X154219923Y-123603427D01*
X154219923Y-123603427D02*
X154124685Y-123555808D01*
X154124685Y-123555808D02*
X153981828Y-123555808D01*
X153981828Y-123555808D02*
X153886590Y-123603427D01*
X153553256Y-123555808D02*
X153172304Y-123555808D01*
X153410399Y-123222475D02*
X153410399Y-124079617D01*
X153410399Y-124079617D02*
X153362780Y-124174856D01*
X153362780Y-124174856D02*
X153267542Y-124222475D01*
X153267542Y-124222475D02*
X153172304Y-124222475D01*
X152458018Y-124174856D02*
X152553256Y-124222475D01*
X152553256Y-124222475D02*
X152743732Y-124222475D01*
X152743732Y-124222475D02*
X152838970Y-124174856D01*
X152838970Y-124174856D02*
X152886589Y-124079617D01*
X152886589Y-124079617D02*
X152886589Y-123698665D01*
X152886589Y-123698665D02*
X152838970Y-123603427D01*
X152838970Y-123603427D02*
X152743732Y-123555808D01*
X152743732Y-123555808D02*
X152553256Y-123555808D01*
X152553256Y-123555808D02*
X152458018Y-123603427D01*
X152458018Y-123603427D02*
X152410399Y-123698665D01*
X152410399Y-123698665D02*
X152410399Y-123793903D01*
X152410399Y-123793903D02*
X152886589Y-123889141D01*
X151553256Y-124222475D02*
X151553256Y-123698665D01*
X151553256Y-123698665D02*
X151600875Y-123603427D01*
X151600875Y-123603427D02*
X151696113Y-123555808D01*
X151696113Y-123555808D02*
X151886589Y-123555808D01*
X151886589Y-123555808D02*
X151981827Y-123603427D01*
X151553256Y-124174856D02*
X151648494Y-124222475D01*
X151648494Y-124222475D02*
X151886589Y-124222475D01*
X151886589Y-124222475D02*
X151981827Y-124174856D01*
X151981827Y-124174856D02*
X152029446Y-124079617D01*
X152029446Y-124079617D02*
X152029446Y-123984379D01*
X152029446Y-123984379D02*
X151981827Y-123889141D01*
X151981827Y-123889141D02*
X151886589Y-123841522D01*
X151886589Y-123841522D02*
X151648494Y-123841522D01*
X151648494Y-123841522D02*
X151553256Y-123793903D01*
X151077065Y-124222475D02*
X151077065Y-123222475D01*
X150981827Y-123841522D02*
X150696113Y-124222475D01*
X150696113Y-123555808D02*
X151077065Y-123936760D01*
X150267541Y-124222475D02*
X150267541Y-123222475D01*
X149838970Y-124222475D02*
X149838970Y-123698665D01*
X149838970Y-123698665D02*
X149886589Y-123603427D01*
X149886589Y-123603427D02*
X149981827Y-123555808D01*
X149981827Y-123555808D02*
X150124684Y-123555808D01*
X150124684Y-123555808D02*
X150219922Y-123603427D01*
X150219922Y-123603427D02*
X150267541Y-123651046D01*
X149219922Y-124222475D02*
X149315160Y-124174856D01*
X149315160Y-124174856D02*
X149362779Y-124127236D01*
X149362779Y-124127236D02*
X149410398Y-124031998D01*
X149410398Y-124031998D02*
X149410398Y-123746284D01*
X149410398Y-123746284D02*
X149362779Y-123651046D01*
X149362779Y-123651046D02*
X149315160Y-123603427D01*
X149315160Y-123603427D02*
X149219922Y-123555808D01*
X149219922Y-123555808D02*
X149077065Y-123555808D01*
X149077065Y-123555808D02*
X148981827Y-123603427D01*
X148981827Y-123603427D02*
X148934208Y-123651046D01*
X148934208Y-123651046D02*
X148886589Y-123746284D01*
X148886589Y-123746284D02*
X148886589Y-124031998D01*
X148886589Y-124031998D02*
X148934208Y-124127236D01*
X148934208Y-124127236D02*
X148981827Y-124174856D01*
X148981827Y-124174856D02*
X149077065Y-124222475D01*
X149077065Y-124222475D02*
X149219922Y-124222475D01*
X148029446Y-123555808D02*
X148029446Y-124222475D01*
X148458017Y-123555808D02*
X148458017Y-124079617D01*
X148458017Y-124079617D02*
X148410398Y-124174856D01*
X148410398Y-124174856D02*
X148315160Y-124222475D01*
X148315160Y-124222475D02*
X148172303Y-124222475D01*
X148172303Y-124222475D02*
X148077065Y-124174856D01*
X148077065Y-124174856D02*
X148029446Y-124127236D01*
X147600874Y-124174856D02*
X147505636Y-124222475D01*
X147505636Y-124222475D02*
X147315160Y-124222475D01*
X147315160Y-124222475D02*
X147219922Y-124174856D01*
X147219922Y-124174856D02*
X147172303Y-124079617D01*
X147172303Y-124079617D02*
X147172303Y-124031998D01*
X147172303Y-124031998D02*
X147219922Y-123936760D01*
X147219922Y-123936760D02*
X147315160Y-123889141D01*
X147315160Y-123889141D02*
X147458017Y-123889141D01*
X147458017Y-123889141D02*
X147553255Y-123841522D01*
X147553255Y-123841522D02*
X147600874Y-123746284D01*
X147600874Y-123746284D02*
X147600874Y-123698665D01*
X147600874Y-123698665D02*
X147553255Y-123603427D01*
X147553255Y-123603427D02*
X147458017Y-123555808D01*
X147458017Y-123555808D02*
X147315160Y-123555808D01*
X147315160Y-123555808D02*
X147219922Y-123603427D01*
X146362779Y-124174856D02*
X146458017Y-124222475D01*
X146458017Y-124222475D02*
X146648493Y-124222475D01*
X146648493Y-124222475D02*
X146743731Y-124174856D01*
X146743731Y-124174856D02*
X146791350Y-124079617D01*
X146791350Y-124079617D02*
X146791350Y-123698665D01*
X146791350Y-123698665D02*
X146743731Y-123603427D01*
X146743731Y-123603427D02*
X146648493Y-123555808D01*
X146648493Y-123555808D02*
X146458017Y-123555808D01*
X146458017Y-123555808D02*
X146362779Y-123603427D01*
X146362779Y-123603427D02*
X146315160Y-123698665D01*
X146315160Y-123698665D02*
X146315160Y-123793903D01*
X146315160Y-123793903D02*
X146791350Y-123889141D01*
X144696112Y-124222475D02*
X144696112Y-123698665D01*
X144696112Y-123698665D02*
X144743731Y-123603427D01*
X144743731Y-123603427D02*
X144838969Y-123555808D01*
X144838969Y-123555808D02*
X145029445Y-123555808D01*
X145029445Y-123555808D02*
X145124683Y-123603427D01*
X144696112Y-124174856D02*
X144791350Y-124222475D01*
X144791350Y-124222475D02*
X145029445Y-124222475D01*
X145029445Y-124222475D02*
X145124683Y-124174856D01*
X145124683Y-124174856D02*
X145172302Y-124079617D01*
X145172302Y-124079617D02*
X145172302Y-123984379D01*
X145172302Y-123984379D02*
X145124683Y-123889141D01*
X145124683Y-123889141D02*
X145029445Y-123841522D01*
X145029445Y-123841522D02*
X144791350Y-123841522D01*
X144791350Y-123841522D02*
X144696112Y-123793903D01*
X144219921Y-123555808D02*
X144219921Y-124222475D01*
X144219921Y-123651046D02*
X144172302Y-123603427D01*
X144172302Y-123603427D02*
X144077064Y-123555808D01*
X144077064Y-123555808D02*
X143934207Y-123555808D01*
X143934207Y-123555808D02*
X143838969Y-123603427D01*
X143838969Y-123603427D02*
X143791350Y-123698665D01*
X143791350Y-123698665D02*
X143791350Y-124222475D01*
X142886588Y-124222475D02*
X142886588Y-123222475D01*
X142886588Y-124174856D02*
X142981826Y-124222475D01*
X142981826Y-124222475D02*
X143172302Y-124222475D01*
X143172302Y-124222475D02*
X143267540Y-124174856D01*
X143267540Y-124174856D02*
X143315159Y-124127236D01*
X143315159Y-124127236D02*
X143362778Y-124031998D01*
X143362778Y-124031998D02*
X143362778Y-123746284D01*
X143362778Y-123746284D02*
X143315159Y-123651046D01*
X143315159Y-123651046D02*
X143267540Y-123603427D01*
X143267540Y-123603427D02*
X143172302Y-123555808D01*
X143172302Y-123555808D02*
X142981826Y-123555808D01*
X142981826Y-123555808D02*
X142886588Y-123603427D01*
X141505635Y-124222475D02*
X141600873Y-124174856D01*
X141600873Y-124174856D02*
X141648492Y-124127236D01*
X141648492Y-124127236D02*
X141696111Y-124031998D01*
X141696111Y-124031998D02*
X141696111Y-123746284D01*
X141696111Y-123746284D02*
X141648492Y-123651046D01*
X141648492Y-123651046D02*
X141600873Y-123603427D01*
X141600873Y-123603427D02*
X141505635Y-123555808D01*
X141505635Y-123555808D02*
X141362778Y-123555808D01*
X141362778Y-123555808D02*
X141267540Y-123603427D01*
X141267540Y-123603427D02*
X141219921Y-123651046D01*
X141219921Y-123651046D02*
X141172302Y-123746284D01*
X141172302Y-123746284D02*
X141172302Y-124031998D01*
X141172302Y-124031998D02*
X141219921Y-124127236D01*
X141219921Y-124127236D02*
X141267540Y-124174856D01*
X141267540Y-124174856D02*
X141362778Y-124222475D01*
X141362778Y-124222475D02*
X141505635Y-124222475D01*
X140743730Y-124222475D02*
X140743730Y-123555808D01*
X140743730Y-123746284D02*
X140696111Y-123651046D01*
X140696111Y-123651046D02*
X140648492Y-123603427D01*
X140648492Y-123603427D02*
X140553254Y-123555808D01*
X140553254Y-123555808D02*
X140458016Y-123555808D01*
X139696111Y-124222475D02*
X139696111Y-123222475D01*
X139696111Y-124174856D02*
X139791349Y-124222475D01*
X139791349Y-124222475D02*
X139981825Y-124222475D01*
X139981825Y-124222475D02*
X140077063Y-124174856D01*
X140077063Y-124174856D02*
X140124682Y-124127236D01*
X140124682Y-124127236D02*
X140172301Y-124031998D01*
X140172301Y-124031998D02*
X140172301Y-123746284D01*
X140172301Y-123746284D02*
X140124682Y-123651046D01*
X140124682Y-123651046D02*
X140077063Y-123603427D01*
X140077063Y-123603427D02*
X139981825Y-123555808D01*
X139981825Y-123555808D02*
X139791349Y-123555808D01*
X139791349Y-123555808D02*
X139696111Y-123603427D01*
X138838968Y-124174856D02*
X138934206Y-124222475D01*
X138934206Y-124222475D02*
X139124682Y-124222475D01*
X139124682Y-124222475D02*
X139219920Y-124174856D01*
X139219920Y-124174856D02*
X139267539Y-124079617D01*
X139267539Y-124079617D02*
X139267539Y-123698665D01*
X139267539Y-123698665D02*
X139219920Y-123603427D01*
X139219920Y-123603427D02*
X139124682Y-123555808D01*
X139124682Y-123555808D02*
X138934206Y-123555808D01*
X138934206Y-123555808D02*
X138838968Y-123603427D01*
X138838968Y-123603427D02*
X138791349Y-123698665D01*
X138791349Y-123698665D02*
X138791349Y-123793903D01*
X138791349Y-123793903D02*
X139267539Y-123889141D01*
X138362777Y-124222475D02*
X138362777Y-123555808D01*
X138362777Y-123746284D02*
X138315158Y-123651046D01*
X138315158Y-123651046D02*
X138267539Y-123603427D01*
X138267539Y-123603427D02*
X138172301Y-123555808D01*
X138172301Y-123555808D02*
X138077063Y-123555808D01*
X160267544Y-125832419D02*
X160267544Y-125308609D01*
X160267544Y-125308609D02*
X160315163Y-125213371D01*
X160315163Y-125213371D02*
X160410401Y-125165752D01*
X160410401Y-125165752D02*
X160600877Y-125165752D01*
X160600877Y-125165752D02*
X160696115Y-125213371D01*
X160267544Y-125784800D02*
X160362782Y-125832419D01*
X160362782Y-125832419D02*
X160600877Y-125832419D01*
X160600877Y-125832419D02*
X160696115Y-125784800D01*
X160696115Y-125784800D02*
X160743734Y-125689561D01*
X160743734Y-125689561D02*
X160743734Y-125594323D01*
X160743734Y-125594323D02*
X160696115Y-125499085D01*
X160696115Y-125499085D02*
X160600877Y-125451466D01*
X160600877Y-125451466D02*
X160362782Y-125451466D01*
X160362782Y-125451466D02*
X160267544Y-125403847D01*
X159172305Y-125165752D02*
X158791353Y-125165752D01*
X159029448Y-125832419D02*
X159029448Y-124975276D01*
X159029448Y-124975276D02*
X158981829Y-124880038D01*
X158981829Y-124880038D02*
X158886591Y-124832419D01*
X158886591Y-124832419D02*
X158791353Y-124832419D01*
X158458019Y-125832419D02*
X158458019Y-125165752D01*
X158458019Y-124832419D02*
X158505638Y-124880038D01*
X158505638Y-124880038D02*
X158458019Y-124927657D01*
X158458019Y-124927657D02*
X158410400Y-124880038D01*
X158410400Y-124880038D02*
X158458019Y-124832419D01*
X158458019Y-124832419D02*
X158458019Y-124927657D01*
X157838972Y-125832419D02*
X157934210Y-125784800D01*
X157934210Y-125784800D02*
X157981829Y-125689561D01*
X157981829Y-125689561D02*
X157981829Y-124832419D01*
X157315162Y-125832419D02*
X157410400Y-125784800D01*
X157410400Y-125784800D02*
X157458019Y-125689561D01*
X157458019Y-125689561D02*
X157458019Y-124832419D01*
X156553257Y-125784800D02*
X156648495Y-125832419D01*
X156648495Y-125832419D02*
X156838971Y-125832419D01*
X156838971Y-125832419D02*
X156934209Y-125784800D01*
X156934209Y-125784800D02*
X156981828Y-125689561D01*
X156981828Y-125689561D02*
X156981828Y-125308609D01*
X156981828Y-125308609D02*
X156934209Y-125213371D01*
X156934209Y-125213371D02*
X156838971Y-125165752D01*
X156838971Y-125165752D02*
X156648495Y-125165752D01*
X156648495Y-125165752D02*
X156553257Y-125213371D01*
X156553257Y-125213371D02*
X156505638Y-125308609D01*
X156505638Y-125308609D02*
X156505638Y-125403847D01*
X156505638Y-125403847D02*
X156981828Y-125499085D01*
X156219923Y-125165752D02*
X155838971Y-125165752D01*
X156077066Y-124832419D02*
X156077066Y-125689561D01*
X156077066Y-125689561D02*
X156029447Y-125784800D01*
X156029447Y-125784800D02*
X155934209Y-125832419D01*
X155934209Y-125832419D02*
X155838971Y-125832419D01*
X154743732Y-125832419D02*
X154743732Y-125165752D01*
X154743732Y-125260990D02*
X154696113Y-125213371D01*
X154696113Y-125213371D02*
X154600875Y-125165752D01*
X154600875Y-125165752D02*
X154458018Y-125165752D01*
X154458018Y-125165752D02*
X154362780Y-125213371D01*
X154362780Y-125213371D02*
X154315161Y-125308609D01*
X154315161Y-125308609D02*
X154315161Y-125832419D01*
X154315161Y-125308609D02*
X154267542Y-125213371D01*
X154267542Y-125213371D02*
X154172304Y-125165752D01*
X154172304Y-125165752D02*
X154029447Y-125165752D01*
X154029447Y-125165752D02*
X153934208Y-125213371D01*
X153934208Y-125213371D02*
X153886589Y-125308609D01*
X153886589Y-125308609D02*
X153886589Y-125832419D01*
X153410399Y-125832419D02*
X153410399Y-125165752D01*
X153410399Y-124832419D02*
X153458018Y-124880038D01*
X153458018Y-124880038D02*
X153410399Y-124927657D01*
X153410399Y-124927657D02*
X153362780Y-124880038D01*
X153362780Y-124880038D02*
X153410399Y-124832419D01*
X153410399Y-124832419D02*
X153410399Y-124927657D01*
X152505638Y-125165752D02*
X152505638Y-125975276D01*
X152505638Y-125975276D02*
X152553257Y-126070514D01*
X152553257Y-126070514D02*
X152600876Y-126118133D01*
X152600876Y-126118133D02*
X152696114Y-126165752D01*
X152696114Y-126165752D02*
X152838971Y-126165752D01*
X152838971Y-126165752D02*
X152934209Y-126118133D01*
X152505638Y-125784800D02*
X152600876Y-125832419D01*
X152600876Y-125832419D02*
X152791352Y-125832419D01*
X152791352Y-125832419D02*
X152886590Y-125784800D01*
X152886590Y-125784800D02*
X152934209Y-125737180D01*
X152934209Y-125737180D02*
X152981828Y-125641942D01*
X152981828Y-125641942D02*
X152981828Y-125356228D01*
X152981828Y-125356228D02*
X152934209Y-125260990D01*
X152934209Y-125260990D02*
X152886590Y-125213371D01*
X152886590Y-125213371D02*
X152791352Y-125165752D01*
X152791352Y-125165752D02*
X152600876Y-125165752D01*
X152600876Y-125165752D02*
X152505638Y-125213371D01*
X152029447Y-125165752D02*
X152029447Y-125832419D01*
X152029447Y-125260990D02*
X151981828Y-125213371D01*
X151981828Y-125213371D02*
X151886590Y-125165752D01*
X151886590Y-125165752D02*
X151743733Y-125165752D01*
X151743733Y-125165752D02*
X151648495Y-125213371D01*
X151648495Y-125213371D02*
X151600876Y-125308609D01*
X151600876Y-125308609D02*
X151600876Y-125832419D01*
X150981828Y-125832419D02*
X151077066Y-125784800D01*
X151077066Y-125784800D02*
X151124685Y-125737180D01*
X151124685Y-125737180D02*
X151172304Y-125641942D01*
X151172304Y-125641942D02*
X151172304Y-125356228D01*
X151172304Y-125356228D02*
X151124685Y-125260990D01*
X151124685Y-125260990D02*
X151077066Y-125213371D01*
X151077066Y-125213371D02*
X150981828Y-125165752D01*
X150981828Y-125165752D02*
X150838971Y-125165752D01*
X150838971Y-125165752D02*
X150743733Y-125213371D01*
X150743733Y-125213371D02*
X150696114Y-125260990D01*
X150696114Y-125260990D02*
X150648495Y-125356228D01*
X150648495Y-125356228D02*
X150648495Y-125641942D01*
X150648495Y-125641942D02*
X150696114Y-125737180D01*
X150696114Y-125737180D02*
X150743733Y-125784800D01*
X150743733Y-125784800D02*
X150838971Y-125832419D01*
X150838971Y-125832419D02*
X150981828Y-125832419D01*
X150219923Y-125165752D02*
X150219923Y-125832419D01*
X150219923Y-125260990D02*
X150172304Y-125213371D01*
X150172304Y-125213371D02*
X150077066Y-125165752D01*
X150077066Y-125165752D02*
X149934209Y-125165752D01*
X149934209Y-125165752D02*
X149838971Y-125213371D01*
X149838971Y-125213371D02*
X149791352Y-125308609D01*
X149791352Y-125308609D02*
X149791352Y-125832419D01*
X148553256Y-125451466D02*
X147791352Y-125451466D01*
X146172304Y-125784800D02*
X146267542Y-125832419D01*
X146267542Y-125832419D02*
X146458018Y-125832419D01*
X146458018Y-125832419D02*
X146553256Y-125784800D01*
X146553256Y-125784800D02*
X146600875Y-125689561D01*
X146600875Y-125689561D02*
X146600875Y-125308609D01*
X146600875Y-125308609D02*
X146553256Y-125213371D01*
X146553256Y-125213371D02*
X146458018Y-125165752D01*
X146458018Y-125165752D02*
X146267542Y-125165752D01*
X146267542Y-125165752D02*
X146172304Y-125213371D01*
X146172304Y-125213371D02*
X146124685Y-125308609D01*
X146124685Y-125308609D02*
X146124685Y-125403847D01*
X146124685Y-125403847D02*
X146600875Y-125499085D01*
X145791351Y-125165752D02*
X145553256Y-125832419D01*
X145553256Y-125832419D02*
X145315161Y-125165752D01*
X144505637Y-125832419D02*
X144505637Y-125308609D01*
X144505637Y-125308609D02*
X144553256Y-125213371D01*
X144553256Y-125213371D02*
X144648494Y-125165752D01*
X144648494Y-125165752D02*
X144838970Y-125165752D01*
X144838970Y-125165752D02*
X144934208Y-125213371D01*
X144505637Y-125784800D02*
X144600875Y-125832419D01*
X144600875Y-125832419D02*
X144838970Y-125832419D01*
X144838970Y-125832419D02*
X144934208Y-125784800D01*
X144934208Y-125784800D02*
X144981827Y-125689561D01*
X144981827Y-125689561D02*
X144981827Y-125594323D01*
X144981827Y-125594323D02*
X144934208Y-125499085D01*
X144934208Y-125499085D02*
X144838970Y-125451466D01*
X144838970Y-125451466D02*
X144600875Y-125451466D01*
X144600875Y-125451466D02*
X144505637Y-125403847D01*
X144029446Y-125165752D02*
X144029446Y-125832419D01*
X144029446Y-125260990D02*
X143981827Y-125213371D01*
X143981827Y-125213371D02*
X143886589Y-125165752D01*
X143886589Y-125165752D02*
X143743732Y-125165752D01*
X143743732Y-125165752D02*
X143648494Y-125213371D01*
X143648494Y-125213371D02*
X143600875Y-125308609D01*
X143600875Y-125308609D02*
X143600875Y-125832419D01*
D11*
X149633333Y-35754819D02*
X149633333Y-36469104D01*
X149633333Y-36469104D02*
X149680952Y-36611961D01*
X149680952Y-36611961D02*
X149776190Y-36707200D01*
X149776190Y-36707200D02*
X149919047Y-36754819D01*
X149919047Y-36754819D02*
X150014285Y-36754819D01*
X148680952Y-35754819D02*
X149157142Y-35754819D01*
X149157142Y-35754819D02*
X149204761Y-36231009D01*
X149204761Y-36231009D02*
X149157142Y-36183390D01*
X149157142Y-36183390D02*
X149061904Y-36135771D01*
X149061904Y-36135771D02*
X148823809Y-36135771D01*
X148823809Y-36135771D02*
X148728571Y-36183390D01*
X148728571Y-36183390D02*
X148680952Y-36231009D01*
X148680952Y-36231009D02*
X148633333Y-36326247D01*
X148633333Y-36326247D02*
X148633333Y-36564342D01*
X148633333Y-36564342D02*
X148680952Y-36659580D01*
X148680952Y-36659580D02*
X148728571Y-36707200D01*
X148728571Y-36707200D02*
X148823809Y-36754819D01*
X148823809Y-36754819D02*
X149061904Y-36754819D01*
X149061904Y-36754819D02*
X149157142Y-36707200D01*
X149157142Y-36707200D02*
X149204761Y-36659580D01*
D12*
X153826122Y-39722913D02*
X153826122Y-40357913D01*
X153826122Y-40357913D02*
X153191122Y-40357913D01*
%LPC*%
D13*
X179921122Y-45487913D03*
X123921122Y-127500000D03*
D14*
X125471122Y-89922913D03*
D15*
X125471122Y-92462913D03*
D13*
X221921122Y-30987913D03*
X123921122Y-45487913D03*
D16*
X174945000Y-150280000D03*
D17*
X175255000Y-147280000D03*
X180095000Y-147280000D03*
D16*
X180405000Y-150280000D03*
D14*
X153700000Y-61900000D03*
D15*
X153700000Y-64440000D03*
D18*
X192721122Y-82837913D03*
X192721122Y-84837913D03*
X192721122Y-86837913D03*
D19*
X213598622Y-32095413D03*
X215728622Y-32095413D03*
D20*
X146721122Y-56937913D03*
D21*
X149221122Y-56937913D03*
X151721122Y-56937913D03*
X154221122Y-56937913D03*
D22*
X108721122Y-34987913D03*
D23*
X108721122Y-37487913D03*
D13*
X88421122Y-147487913D03*
D19*
X90336122Y-32112913D03*
X88206122Y-32112913D03*
D13*
X215421122Y-147487913D03*
X179921122Y-127500000D03*
D18*
X111156122Y-86752913D03*
X111156122Y-84752913D03*
X111156122Y-82752913D03*
D13*
X81921122Y-30987913D03*
D24*
X189921122Y-37487913D03*
D23*
X189921122Y-34987913D03*
D25*
X154461122Y-39087913D03*
X149381122Y-40103913D03*
X149381122Y-38071913D03*
D26*
X153191122Y-39722913D03*
X153191122Y-38452913D03*
X151921122Y-39722913D03*
X151921122Y-38452913D03*
X150651122Y-39722913D03*
X150651122Y-38452913D03*
%LPD*%
M02*
