G04 #@! TF.GenerationSoftware,KiCad,Pcbnew,8.0.2*
G04 #@! TF.CreationDate,2025-02-01T23:04:16-07:00*
G04 #@! TF.ProjectId,steering wheel v4,73746565-7269-46e6-9720-776865656c20,rev?*
G04 #@! TF.SameCoordinates,Original*
G04 #@! TF.FileFunction,Profile,NP*
%FSLAX46Y46*%
G04 Gerber Fmt 4.6, Leading zero omitted, Abs format (unit mm)*
G04 Created by KiCad (PCBNEW 8.0.2) date 2025-02-01 23:04:16*
%MOMM*%
%LPD*%
G01*
G04 APERTURE LIST*
G04 #@! TA.AperFunction,Profile*
%ADD10C,0.050000*%
G04 #@! TD*
G04 APERTURE END LIST*
D10*
X107099539Y-77676727D02*
G75*
G02*
X107237466Y-78019888I-361939J-344773D01*
G01*
X86703567Y-152000000D02*
X151950749Y-152000000D01*
X217283929Y-36659360D02*
G75*
G02*
X217637483Y-36512897I353571J-353540D01*
G01*
X143920000Y-150212213D02*
X143920000Y-139112213D01*
X207530881Y-46619515D02*
X207530881Y-66212395D01*
X220130376Y-143409315D02*
X220130376Y-149875055D01*
X70871122Y-27508192D02*
G75*
G02*
X71129709Y-27070355I499978J-8D01*
G01*
X229951494Y-25586435D02*
G75*
G02*
X230193245Y-25648571I306J-500165D01*
G01*
X200047760Y-133921369D02*
X219837992Y-142954457D01*
X207530881Y-46619515D02*
G75*
G02*
X207677336Y-46265971I499919J15D01*
G01*
X86703567Y-152000000D02*
G75*
G02*
X86425835Y-151915748I33J500000D01*
G01*
X73950004Y-25586435D02*
X118649121Y-25615301D01*
X178116046Y-31056909D02*
G75*
G02*
X177808203Y-31162912I-307846J394009D01*
G01*
X217475673Y-151915763D02*
G75*
G02*
X217197931Y-151999995I-277673J415563D01*
G01*
X220130376Y-149875055D02*
G75*
G02*
X219908133Y-150290841I-499976J-45D01*
G01*
X83771122Y-143409315D02*
G75*
G02*
X84063506Y-142954456I499978J15D01*
G01*
X227650423Y-36512913D02*
X217637483Y-36512913D01*
X196664015Y-78019888D02*
X196606046Y-95238786D01*
X139726800Y-138610000D02*
X143420300Y-138612214D01*
X139726800Y-150710000D02*
X143419700Y-150712213D01*
X219908118Y-150290819D02*
X217475673Y-151915763D01*
X196664015Y-78019888D02*
G75*
G02*
X196801936Y-77676705I500185J-1712D01*
G01*
X232771798Y-27070339D02*
G75*
G02*
X233030359Y-27508192I-241298J-437761D01*
G01*
X207530881Y-66212395D02*
G75*
G02*
X207392933Y-66557238I-499981J-5D01*
G01*
X83993380Y-150290819D02*
X86425825Y-151915763D01*
X160409700Y-150717786D02*
G75*
G02*
X159910014Y-150217787I300J499986D01*
G01*
X160409700Y-150717786D02*
X164103200Y-150720000D01*
X232771798Y-27070339D02*
X230193239Y-25648582D01*
X159910000Y-139117787D02*
G75*
G02*
X160410300Y-138617800I500000J-13D01*
G01*
X104146122Y-133466511D02*
G75*
G02*
X103853739Y-133921371I-500022J11D01*
G01*
X107237483Y-78019888D02*
X107295452Y-95238786D01*
X199755376Y-98986067D02*
X199755376Y-133466511D01*
X126093295Y-31162913D02*
G75*
G02*
X125785452Y-31056909I5J500013D01*
G01*
X229951494Y-25586435D02*
X185252377Y-25615301D01*
X173910749Y-46693917D02*
G75*
G02*
X166910749Y-46693917I-3500000J0D01*
G01*
X166910749Y-46693917D02*
G75*
G02*
X173910749Y-46693917I3500000J0D01*
G01*
X184944857Y-25721305D02*
G75*
G02*
X185252377Y-25615301I307843J-393995D01*
G01*
X73708259Y-25648582D02*
G75*
G02*
X73950004Y-25586445I241341J-437618D01*
G01*
X96508564Y-66557239D02*
X107099539Y-77676727D01*
X196741784Y-95582982D02*
G75*
G02*
X196606056Y-95238786I364216J342482D01*
G01*
X104146122Y-98986067D02*
X104146122Y-133466511D01*
X76251075Y-36512913D02*
X86264015Y-36512913D01*
X227969055Y-36398236D02*
G75*
G02*
X227650423Y-36512925I-318655J385336D01*
G01*
X83771122Y-143409315D02*
X83771122Y-149875055D01*
X96224171Y-46265962D02*
G75*
G02*
X96370643Y-46619515I-353671J-353638D01*
G01*
X71052490Y-32362890D02*
X75932443Y-36398236D01*
X157921122Y-114887913D02*
G75*
G02*
X145921122Y-114887913I-6000000J0D01*
G01*
X145921122Y-114887913D02*
G75*
G02*
X157921122Y-114887913I6000000J0D01*
G01*
X233030376Y-31977568D02*
G75*
G02*
X232848995Y-32362875I-499876J-32D01*
G01*
X86617569Y-36659360D02*
X96224171Y-46265962D01*
X83993380Y-150290819D02*
G75*
G02*
X83771149Y-149875055I277720J415719D01*
G01*
X76251075Y-36512913D02*
G75*
G02*
X75932451Y-36398226I25J500013D01*
G01*
X104281862Y-98643554D02*
X107159714Y-95582982D01*
X132286800Y-147869999D02*
G75*
G02*
X132286800Y-141450001I1400000J3209999D01*
G01*
X71129700Y-27070339D02*
X73708259Y-25648582D01*
X160410300Y-138617787D02*
X164103200Y-138620000D01*
X200047760Y-133921369D02*
G75*
G02*
X199755380Y-133466511I207640J454869D01*
G01*
X232849008Y-32362890D02*
X227969055Y-36398236D01*
X136990749Y-46693917D02*
G75*
G02*
X129990749Y-46693917I-3500000J0D01*
G01*
X129990749Y-46693917D02*
G75*
G02*
X136990749Y-46693917I3500000J0D01*
G01*
X217197931Y-152000000D02*
X151950749Y-152000000D01*
X164103200Y-150720000D02*
X171543200Y-147880000D01*
X70871122Y-31977568D02*
X70871122Y-27508192D01*
X151950749Y-31162913D02*
X177808203Y-31162913D01*
X159910000Y-150217787D02*
X159910000Y-139117787D01*
X135921122Y-76787913D02*
G75*
G02*
X123921122Y-76787913I-6000000J0D01*
G01*
X123921122Y-76787913D02*
G75*
G02*
X135921122Y-76787913I6000000J0D01*
G01*
X96508564Y-66557239D02*
G75*
G02*
X96370616Y-66212395I362036J344839D01*
G01*
X151950749Y-31162913D02*
X126093295Y-31162913D01*
X107295452Y-95238786D02*
G75*
G02*
X107159721Y-95582988I-499952J-1714D01*
G01*
X104146122Y-98986067D02*
G75*
G02*
X104281883Y-98643574I499978J-33D01*
G01*
X207392934Y-66557239D02*
X196801959Y-77676727D01*
X143920000Y-150212213D02*
G75*
G02*
X143419700Y-150712200I-500000J13D01*
G01*
X96370617Y-46619515D02*
X96370617Y-66212395D01*
X118649121Y-25615301D02*
G75*
G02*
X118956642Y-25721304I-321J-499999D01*
G01*
X118956641Y-25721305D02*
X125785452Y-31056909D01*
X233030376Y-31977568D02*
X233030376Y-27508192D01*
X199619636Y-98643554D02*
X196741784Y-95582982D01*
X143420300Y-138612214D02*
G75*
G02*
X143919986Y-139112213I-300J-499986D01*
G01*
X139726800Y-150710000D02*
X132286800Y-147870000D01*
X171543200Y-141460001D02*
G75*
G02*
X171543200Y-147879999I-1400000J-3209999D01*
G01*
X164103200Y-138620000D02*
X171543200Y-141460000D01*
X217283929Y-36659360D02*
X207677327Y-46265962D01*
X139726800Y-138610000D02*
X132286800Y-141450000D01*
X179921122Y-76787913D02*
G75*
G02*
X167921122Y-76787913I-6000000J0D01*
G01*
X167921122Y-76787913D02*
G75*
G02*
X179921122Y-76787913I6000000J0D01*
G01*
X71052490Y-32362890D02*
G75*
G02*
X70871098Y-31977568I318710J385390D01*
G01*
X103853738Y-133921369D02*
X84063506Y-142954457D01*
X184944857Y-25721305D02*
X178116046Y-31056909D01*
X219837992Y-142954457D02*
G75*
G02*
X220130377Y-143409315I-207592J-454843D01*
G01*
X86264015Y-36512913D02*
G75*
G02*
X86617559Y-36659370I-15J-499987D01*
G01*
X199619636Y-98643554D02*
G75*
G02*
X199755406Y-98986067I-364236J-342546D01*
G01*
X197646122Y-149087913D02*
X188946122Y-149087913D01*
X188946122Y-138737913D01*
X197646122Y-138737913D01*
X197646122Y-149087913D01*
X156296122Y-149062913D02*
X147596122Y-149062913D01*
X147596122Y-138712913D01*
X156296122Y-138712913D01*
X156296122Y-149062913D01*
X114946122Y-149137913D02*
X106246122Y-149137913D01*
X106246122Y-138787913D01*
X114946122Y-138787913D01*
X114946122Y-149137913D01*
M02*
