M48
; DRILL file {KiCad 7.0.8} date Sat Dec  2 16:18:22 2023
; FORMAT={-:-/ absolute / metric / decimal}
; #@! TF.CreationDate,2023-12-02T16:18:22-07:00
; #@! TF.GenerationSoftware,Kicad,Pcbnew,7.0.8
; #@! TF.FileFunction,Plated,1,2,PTH
FMAT,2
METRIC
; #@! TA.AperFunction,Plated,PTH,ViaDrill
T1C0.300
; #@! TA.AperFunction,Plated,PTH,ComponentDrill
T2C0.950
; #@! TA.AperFunction,Plated,PTH,ComponentDrill
T3C1.000
; #@! TA.AperFunction,Plated,PTH,ComponentDrill
T4C1.016
%
G90
G05
T1
X133.8Y-94.8
X142.6Y-100.0
X144.2Y-93.1
X147.6Y-75.0
X148.8Y-96.0
X149.1Y-94.8
X152.0Y-94.1
X152.2Y-95.9
X154.3Y-109.1
X154.8Y-75.2
X155.8Y-88.8
X156.0Y-75.9
X157.0Y-96.5
X158.2Y-78.3
X158.2Y-93.4
X158.5Y-92.0
X164.5Y-83.8
T2
X124.875Y-90.7
X124.875Y-93.2
X124.875Y-95.7
T3
X124.9Y-82.435
X124.9Y-84.975
X136.5Y-90.56
X136.5Y-93.1
X149.9Y-78.2
X152.4Y-78.2
X158.0Y-114.0
X160.275Y-82.65
X160.275Y-85.15
X160.5Y-114.0
T4
X133.696Y-71.54
X136.236Y-71.54
X138.776Y-71.54
X141.316Y-71.54
X142.84Y-119.8
X143.856Y-71.54
X145.38Y-119.8
X146.396Y-71.54
X147.92Y-119.8
X148.936Y-71.54
X150.46Y-119.8
X151.476Y-71.54
X153.0Y-119.8
X154.016Y-71.54
X155.54Y-119.8
X156.556Y-71.54
X158.08Y-119.8
X160.62Y-71.54
X160.62Y-119.8
X163.16Y-71.54
X165.7Y-71.54
X165.7Y-119.8
X168.24Y-71.54
X168.24Y-119.8
X170.78Y-71.54
X170.78Y-119.8
X173.32Y-71.54
X173.32Y-119.8
X175.86Y-71.54
X175.86Y-119.8
X178.4Y-71.54
X178.4Y-119.8
X178.527Y-91.86
X178.527Y-94.4
X178.527Y-96.94
X181.067Y-91.86
X181.067Y-94.4
X181.067Y-96.94
T0
M30
