G04 #@! TF.GenerationSoftware,KiCad,Pcbnew,7.0.8*
G04 #@! TF.CreationDate,2023-12-02T16:18:10-07:00*
G04 #@! TF.ProjectId,drs,6472732e-6b69-4636-9164-5f7063625858,v1*
G04 #@! TF.SameCoordinates,Original*
G04 #@! TF.FileFunction,Legend,Bot*
G04 #@! TF.FilePolarity,Positive*
%FSLAX46Y46*%
G04 Gerber Fmt 4.6, Leading zero omitted, Abs format (unit mm)*
G04 Created by KiCad (PCBNEW 7.0.8) date 2023-12-02 16:18:10*
%MOMM*%
%LPD*%
G01*
G04 APERTURE LIST*
G04 Aperture macros list*
%AMRoundRect*
0 Rectangle with rounded corners*
0 $1 Rounding radius*
0 $2 $3 $4 $5 $6 $7 $8 $9 X,Y pos of 4 corners*
0 Add a 4 corners polygon primitive as box body*
4,1,4,$2,$3,$4,$5,$6,$7,$8,$9,$2,$3,0*
0 Add four circle primitives for the rounded corners*
1,1,$1+$1,$2,$3*
1,1,$1+$1,$4,$5*
1,1,$1+$1,$6,$7*
1,1,$1+$1,$8,$9*
0 Add four rect primitives between the rounded corners*
20,1,$1+$1,$2,$3,$4,$5,0*
20,1,$1+$1,$4,$5,$6,$7,0*
20,1,$1+$1,$6,$7,$8,$9,0*
20,1,$1+$1,$8,$9,$2,$3,0*%
G04 Aperture macros list end*
%ADD10C,0.150000*%
%ADD11C,1.200000*%
%ADD12RoundRect,0.250000X0.750000X-0.600000X0.750000X0.600000X-0.750000X0.600000X-0.750000X-0.600000X0*%
%ADD13O,2.000000X1.700000*%
%ADD14R,1.700000X1.700000*%
%ADD15O,1.700000X1.700000*%
%ADD16RoundRect,0.250000X-0.600000X-0.750000X0.600000X-0.750000X0.600000X0.750000X-0.600000X0.750000X0*%
%ADD17O,1.700000X2.000000*%
%ADD18C,3.200000*%
%ADD19O,1.727200X1.727200*%
%ADD20R,1.727200X1.727200*%
%ADD21RoundRect,0.250000X0.725000X-0.600000X0.725000X0.600000X-0.725000X0.600000X-0.725000X-0.600000X0*%
%ADD22O,1.950000X1.700000*%
%ADD23RoundRect,0.250000X0.600000X0.750000X-0.600000X0.750000X-0.600000X-0.750000X0.600000X-0.750000X0*%
G04 APERTURE END LIST*
D10*
G36*
X179469811Y-75867759D02*
G01*
X179468839Y-75856352D01*
X179465923Y-75845792D01*
X179461063Y-75836078D01*
X179454260Y-75827211D01*
X179445512Y-75819191D01*
X179437114Y-75813385D01*
X179430000Y-75809385D01*
X179421198Y-75804785D01*
X179412196Y-75799898D01*
X179402994Y-75794725D01*
X179393592Y-75789266D01*
X179383989Y-75783520D01*
X179374186Y-75777489D01*
X179364183Y-75771171D01*
X179353979Y-75764567D01*
X179343575Y-75757677D01*
X179332970Y-75750500D01*
X179322165Y-75743037D01*
X179311160Y-75735288D01*
X179299954Y-75727253D01*
X179288549Y-75718932D01*
X179276942Y-75710324D01*
X179265136Y-75701430D01*
X179099050Y-75579797D01*
X179105227Y-75571946D01*
X179111850Y-75563322D01*
X179118920Y-75553926D01*
X179126436Y-75543756D01*
X179134399Y-75532814D01*
X179142808Y-75521099D01*
X179148662Y-75512859D01*
X179154715Y-75504276D01*
X179160966Y-75495350D01*
X179167416Y-75486080D01*
X179174064Y-75476467D01*
X179180910Y-75466510D01*
X179187955Y-75456210D01*
X179201063Y-75455293D01*
X179214131Y-75454436D01*
X179227159Y-75453637D01*
X179240146Y-75452898D01*
X179253094Y-75452217D01*
X179266002Y-75451596D01*
X179278869Y-75451034D01*
X179291697Y-75450532D01*
X179304484Y-75450088D01*
X179317232Y-75449703D01*
X179329939Y-75449378D01*
X179342606Y-75449112D01*
X179355234Y-75448905D01*
X179367821Y-75448757D01*
X179380368Y-75448668D01*
X179392875Y-75448639D01*
X179403911Y-75447969D01*
X179414124Y-75445960D01*
X179423512Y-75442611D01*
X179433423Y-75437011D01*
X179441025Y-75430760D01*
X179442212Y-75429588D01*
X179448686Y-75422157D01*
X179454546Y-75412534D01*
X179458584Y-75401881D01*
X179460593Y-75391932D01*
X179461263Y-75381228D01*
X179460443Y-75368831D01*
X179457982Y-75357654D01*
X179453882Y-75347697D01*
X179448142Y-75338958D01*
X179440762Y-75331439D01*
X179431742Y-75325140D01*
X179421081Y-75320059D01*
X179408781Y-75316198D01*
X179394840Y-75313556D01*
X179384636Y-75312472D01*
X179373702Y-75311930D01*
X179367962Y-75311863D01*
X179356750Y-75311931D01*
X179344546Y-75312137D01*
X179331350Y-75312481D01*
X179317163Y-75312962D01*
X179307154Y-75313359D01*
X179296704Y-75313817D01*
X179285813Y-75314336D01*
X179274482Y-75314916D01*
X179262709Y-75315557D01*
X179250496Y-75316259D01*
X179237842Y-75317022D01*
X179224748Y-75317847D01*
X179211212Y-75318732D01*
X179197236Y-75319678D01*
X179183260Y-75320655D01*
X179169724Y-75321568D01*
X179156630Y-75322418D01*
X179143976Y-75323205D01*
X179131763Y-75323929D01*
X179119990Y-75324590D01*
X179108659Y-75325188D01*
X179097768Y-75325724D01*
X179087318Y-75326196D01*
X179077309Y-75326605D01*
X179063122Y-75327101D01*
X179049926Y-75327455D01*
X179037722Y-75327668D01*
X179026510Y-75327739D01*
X179013357Y-75327750D01*
X178999972Y-75327784D01*
X178986353Y-75327842D01*
X178972502Y-75327922D01*
X178958418Y-75328025D01*
X178944101Y-75328151D01*
X178929552Y-75328300D01*
X178914769Y-75328471D01*
X178899754Y-75328666D01*
X178884506Y-75328883D01*
X178869025Y-75329124D01*
X178853312Y-75329387D01*
X178837365Y-75329673D01*
X178821186Y-75329982D01*
X178804774Y-75330315D01*
X178788129Y-75330669D01*
X178771460Y-75331054D01*
X178755034Y-75331414D01*
X178738853Y-75331748D01*
X178722916Y-75332059D01*
X178707224Y-75332344D01*
X178691775Y-75332604D01*
X178676571Y-75332840D01*
X178661612Y-75333051D01*
X178646896Y-75333237D01*
X178632424Y-75333398D01*
X178618197Y-75333535D01*
X178604214Y-75333646D01*
X178590476Y-75333733D01*
X178576981Y-75333795D01*
X178563731Y-75333832D01*
X178550725Y-75333845D01*
X178540769Y-75333767D01*
X178530289Y-75333535D01*
X178519284Y-75333147D01*
X178507754Y-75332604D01*
X178495699Y-75331907D01*
X178485677Y-75331237D01*
X178477941Y-75330669D01*
X178467614Y-75329982D01*
X178457638Y-75329387D01*
X178445662Y-75328772D01*
X178434235Y-75328300D01*
X178423356Y-75327970D01*
X178413026Y-75327784D01*
X178405157Y-75327739D01*
X178393945Y-75328400D01*
X178383575Y-75330383D01*
X178374047Y-75333689D01*
X178365360Y-75338317D01*
X178357515Y-75344268D01*
X178355087Y-75346545D01*
X178348529Y-75354050D01*
X178342594Y-75363717D01*
X178338505Y-75374366D01*
X178336470Y-75384275D01*
X178335792Y-75394905D01*
X178336470Y-75405610D01*
X178338505Y-75415559D01*
X178341897Y-75424753D01*
X178347568Y-75434523D01*
X178353900Y-75442079D01*
X178355087Y-75443265D01*
X178362735Y-75449740D01*
X178371207Y-75454875D01*
X178380503Y-75458670D01*
X178390624Y-75461126D01*
X178401569Y-75462242D01*
X178405401Y-75462316D01*
X178415597Y-75462400D01*
X178426343Y-75462650D01*
X178437637Y-75463068D01*
X178449479Y-75463652D01*
X178459348Y-75464240D01*
X178469568Y-75464934D01*
X178480139Y-75465736D01*
X178490710Y-75466594D01*
X178500930Y-75467339D01*
X178510799Y-75467968D01*
X178522642Y-75468594D01*
X178533935Y-75469042D01*
X178544681Y-75469310D01*
X178554877Y-75469399D01*
X178776650Y-75464515D01*
X178791611Y-75464105D01*
X178806573Y-75463732D01*
X178821538Y-75463395D01*
X178836505Y-75463095D01*
X178851473Y-75462831D01*
X178866443Y-75462603D01*
X178881416Y-75462411D01*
X178896390Y-75462255D01*
X178911366Y-75462136D01*
X178926344Y-75462053D01*
X178941324Y-75462006D01*
X178956306Y-75461996D01*
X178971289Y-75462022D01*
X178986275Y-75462084D01*
X179001263Y-75462182D01*
X179016252Y-75462316D01*
X179005011Y-75473982D01*
X178993637Y-75485592D01*
X178982129Y-75497147D01*
X178970487Y-75508646D01*
X178958712Y-75520090D01*
X178946803Y-75531479D01*
X178934761Y-75542812D01*
X178922585Y-75554091D01*
X178910276Y-75565313D01*
X178897832Y-75576481D01*
X178885256Y-75587593D01*
X178872546Y-75598650D01*
X178859702Y-75609651D01*
X178846725Y-75620597D01*
X178833614Y-75631488D01*
X178820369Y-75642323D01*
X178625464Y-75793510D01*
X178618709Y-75800691D01*
X178612114Y-75809530D01*
X178607168Y-75818609D01*
X178603871Y-75827928D01*
X178602108Y-75839105D01*
X178602016Y-75842358D01*
X178603055Y-75852170D01*
X178606172Y-75861638D01*
X178611367Y-75870763D01*
X178618640Y-75879544D01*
X178626288Y-75886600D01*
X178631570Y-75890718D01*
X178641277Y-75896981D01*
X178652082Y-75902181D01*
X178661516Y-75905578D01*
X178671652Y-75908295D01*
X178682490Y-75910333D01*
X178694031Y-75911692D01*
X178706274Y-75912371D01*
X178712658Y-75912456D01*
X178723329Y-75912143D01*
X178733968Y-75911204D01*
X178744578Y-75909639D01*
X178755157Y-75907449D01*
X178765705Y-75904632D01*
X178776222Y-75901190D01*
X178786710Y-75897122D01*
X178797166Y-75892428D01*
X178809435Y-75881712D01*
X178821816Y-75870690D01*
X178834309Y-75859364D01*
X178846915Y-75847732D01*
X178859634Y-75835794D01*
X178872466Y-75823551D01*
X178885410Y-75811004D01*
X178898466Y-75798150D01*
X178911635Y-75784992D01*
X178924917Y-75771528D01*
X178938311Y-75757759D01*
X178951818Y-75743684D01*
X178958613Y-75736532D01*
X178965437Y-75729304D01*
X178972289Y-75722000D01*
X178979169Y-75714619D01*
X178986077Y-75707162D01*
X178993014Y-75699629D01*
X178999978Y-75692019D01*
X179006971Y-75684333D01*
X179214822Y-75834054D01*
X179223730Y-75840515D01*
X179232441Y-75846772D01*
X179240956Y-75852823D01*
X179249275Y-75858669D01*
X179257397Y-75864310D01*
X179273052Y-75874977D01*
X179287920Y-75884823D01*
X179302002Y-75893848D01*
X179315298Y-75902053D01*
X179327808Y-75909438D01*
X179339531Y-75916002D01*
X179350469Y-75921745D01*
X179360620Y-75926668D01*
X179369985Y-75930771D01*
X179382559Y-75935386D01*
X179393364Y-75938155D01*
X179402400Y-75939078D01*
X179412475Y-75938314D01*
X179422001Y-75936022D01*
X179432419Y-75931415D01*
X179440754Y-75925811D01*
X179448539Y-75918678D01*
X179449783Y-75917341D01*
X179456590Y-75909049D01*
X179461988Y-75900293D01*
X179465978Y-75891074D01*
X179468559Y-75881391D01*
X179469733Y-75871245D01*
X179469811Y-75867759D01*
G37*
G36*
X179122349Y-75991170D02*
G01*
X179133015Y-75991373D01*
X179143504Y-75991712D01*
X179153818Y-75992186D01*
X179163956Y-75992796D01*
X179173918Y-75993541D01*
X179193313Y-75995437D01*
X179212004Y-75997876D01*
X179229991Y-76000857D01*
X179247274Y-76004379D01*
X179263853Y-76008443D01*
X179279728Y-76013050D01*
X179294899Y-76018198D01*
X179309365Y-76023888D01*
X179323128Y-76030120D01*
X179336186Y-76036894D01*
X179348541Y-76044210D01*
X179360191Y-76052067D01*
X179371137Y-76060467D01*
X179382051Y-76069997D01*
X179392260Y-76080209D01*
X179401766Y-76091101D01*
X179410567Y-76102675D01*
X179418664Y-76114930D01*
X179426057Y-76127867D01*
X179432746Y-76141484D01*
X179438731Y-76155783D01*
X179444012Y-76170763D01*
X179448589Y-76186424D01*
X179452461Y-76202766D01*
X179455630Y-76219790D01*
X179458094Y-76237494D01*
X179459854Y-76255880D01*
X179460911Y-76274948D01*
X179461175Y-76284737D01*
X179461263Y-76294696D01*
X179460953Y-76303378D01*
X179459698Y-76314950D01*
X179457998Y-76324782D01*
X179455679Y-76335126D01*
X179452742Y-76345982D01*
X179449188Y-76357349D01*
X179445014Y-76369227D01*
X179441479Y-76378471D01*
X179438932Y-76384822D01*
X179434837Y-76394576D01*
X179430412Y-76404605D01*
X179425655Y-76414909D01*
X179420568Y-76425488D01*
X179415151Y-76436342D01*
X179409403Y-76447470D01*
X179403324Y-76458873D01*
X179396915Y-76470551D01*
X179390175Y-76482503D01*
X179383105Y-76494731D01*
X179391298Y-76499845D01*
X179399849Y-76505722D01*
X179408758Y-76512362D01*
X179418024Y-76519766D01*
X179425695Y-76526238D01*
X179433594Y-76533199D01*
X179441723Y-76540648D01*
X179445982Y-76544869D01*
X179453676Y-76552807D01*
X179460270Y-76560073D01*
X179466968Y-76568212D01*
X179473459Y-76577842D01*
X179476894Y-76588032D01*
X179476612Y-76594287D01*
X179474758Y-76604773D01*
X179471175Y-76614676D01*
X179465863Y-76623994D01*
X179458820Y-76632728D01*
X179453010Y-76638287D01*
X179444074Y-76644486D01*
X179434203Y-76648839D01*
X179423397Y-76651345D01*
X179413391Y-76652023D01*
X179401667Y-76647871D01*
X179394397Y-76644591D01*
X179385181Y-76640521D01*
X179374980Y-76636180D01*
X179365031Y-76632240D01*
X179353881Y-76627806D01*
X179343206Y-76623603D01*
X179333006Y-76619631D01*
X179323281Y-76615891D01*
X179309584Y-76610712D01*
X179296957Y-76606053D01*
X179285398Y-76601914D01*
X179274909Y-76598294D01*
X179265489Y-76595193D01*
X179254591Y-76591867D01*
X179243642Y-76589009D01*
X179237303Y-76587503D01*
X179227266Y-76585438D01*
X179216592Y-76583605D01*
X179205284Y-76582003D01*
X179193340Y-76580634D01*
X179180760Y-76579496D01*
X179167545Y-76578590D01*
X179153695Y-76577916D01*
X179139209Y-76577474D01*
X179129199Y-76577308D01*
X179118907Y-76577245D01*
X179108332Y-76577285D01*
X179096741Y-76577358D01*
X179085415Y-76577457D01*
X179074354Y-76577580D01*
X179063559Y-76577728D01*
X179053029Y-76577900D01*
X179042764Y-76578098D01*
X179032764Y-76578320D01*
X179018262Y-76578700D01*
X179004357Y-76579136D01*
X178991048Y-76579627D01*
X178978336Y-76580175D01*
X178966221Y-76580778D01*
X178954703Y-76581437D01*
X178943733Y-76582196D01*
X178933356Y-76583006D01*
X178923572Y-76583867D01*
X178911448Y-76585096D01*
X178900377Y-76586416D01*
X178890359Y-76587828D01*
X178879318Y-76589722D01*
X178868241Y-76592184D01*
X178863636Y-76596194D01*
X178854837Y-76601701D01*
X178845381Y-76605004D01*
X178835268Y-76606106D01*
X178831865Y-76606014D01*
X178821842Y-76604648D01*
X178812104Y-76601641D01*
X178802648Y-76596994D01*
X178793476Y-76590707D01*
X178784588Y-76582780D01*
X178775983Y-76573213D01*
X178767661Y-76562006D01*
X178762270Y-76553624D01*
X178757006Y-76544512D01*
X178751867Y-76534672D01*
X178746854Y-76524103D01*
X178741967Y-76512805D01*
X178738211Y-76503580D01*
X178733031Y-76489954D01*
X178728397Y-76476581D01*
X178724307Y-76463461D01*
X178720763Y-76450594D01*
X178717764Y-76437981D01*
X178715311Y-76425622D01*
X178713402Y-76413515D01*
X178712039Y-76401662D01*
X178711221Y-76390062D01*
X178711166Y-76387752D01*
X178851632Y-76387752D01*
X178852422Y-76396992D01*
X178854534Y-76407211D01*
X178857250Y-76416817D01*
X178858754Y-76421504D01*
X178862356Y-76431518D01*
X178866160Y-76440981D01*
X178870571Y-76451099D01*
X178874836Y-76460293D01*
X178879307Y-76459361D01*
X178890345Y-76457167D01*
X178901179Y-76455163D01*
X178911811Y-76453351D01*
X178922241Y-76451729D01*
X178932467Y-76450298D01*
X178942491Y-76449057D01*
X178946442Y-76448614D01*
X178958077Y-76447455D01*
X178969385Y-76446553D01*
X178980367Y-76445909D01*
X178991024Y-76445523D01*
X179001353Y-76445394D01*
X179012030Y-76445480D01*
X179023362Y-76445737D01*
X179035348Y-76446167D01*
X179047988Y-76446768D01*
X179061283Y-76447540D01*
X179075233Y-76448485D01*
X179089837Y-76449601D01*
X179105095Y-76450889D01*
X179121008Y-76452349D01*
X179137576Y-76453980D01*
X179154798Y-76455784D01*
X179172674Y-76457759D01*
X179191205Y-76459905D01*
X179210391Y-76462224D01*
X179220229Y-76463447D01*
X179230231Y-76464714D01*
X179240396Y-76466023D01*
X179250725Y-76467376D01*
X179255120Y-76461867D01*
X179261361Y-76453897D01*
X179269028Y-76443818D01*
X179275947Y-76434365D01*
X179282118Y-76425538D01*
X179287541Y-76417337D01*
X179293267Y-76407965D01*
X179298597Y-76398011D01*
X179299949Y-76395121D01*
X179304930Y-76383172D01*
X179308214Y-76373800D01*
X179311112Y-76364076D01*
X179313624Y-76353999D01*
X179315749Y-76343571D01*
X179317488Y-76332790D01*
X179318840Y-76321658D01*
X179319806Y-76310173D01*
X179320386Y-76298336D01*
X179320579Y-76286147D01*
X179320377Y-76276320D01*
X179319321Y-76262167D01*
X179317358Y-76248717D01*
X179314489Y-76235972D01*
X179310715Y-76223930D01*
X179306034Y-76212593D01*
X179300448Y-76201960D01*
X179293956Y-76192031D01*
X179286557Y-76182806D01*
X179278253Y-76174285D01*
X179269043Y-76166468D01*
X179262400Y-76161648D01*
X179251681Y-76154999D01*
X179240055Y-76149051D01*
X179227523Y-76143802D01*
X179214086Y-76139253D01*
X179204624Y-76136610D01*
X179194760Y-76134277D01*
X179184493Y-76132255D01*
X179173824Y-76130545D01*
X179162752Y-76129145D01*
X179151277Y-76128056D01*
X179139400Y-76127279D01*
X179127120Y-76126812D01*
X179114438Y-76126657D01*
X179101558Y-76126958D01*
X179088869Y-76127863D01*
X179076370Y-76129370D01*
X179064063Y-76131481D01*
X179051946Y-76134194D01*
X179040020Y-76137510D01*
X179028285Y-76141430D01*
X179016741Y-76145952D01*
X179005387Y-76151077D01*
X178994224Y-76156806D01*
X178983253Y-76163137D01*
X178972472Y-76170071D01*
X178961881Y-76177608D01*
X178951482Y-76185748D01*
X178941273Y-76194491D01*
X178931256Y-76203838D01*
X178921614Y-76213629D01*
X178912594Y-76223648D01*
X178904196Y-76233894D01*
X178896420Y-76244367D01*
X178889267Y-76255067D01*
X178882735Y-76265994D01*
X178876826Y-76277148D01*
X178871538Y-76288529D01*
X178866873Y-76300137D01*
X178862829Y-76311972D01*
X178859408Y-76324035D01*
X178856609Y-76336324D01*
X178854432Y-76348841D01*
X178852877Y-76361584D01*
X178851943Y-76374555D01*
X178851632Y-76387752D01*
X178711166Y-76387752D01*
X178710949Y-76378715D01*
X178711063Y-76368836D01*
X178711981Y-76349337D01*
X178713817Y-76330183D01*
X178716570Y-76311374D01*
X178720241Y-76292911D01*
X178724831Y-76274793D01*
X178730337Y-76257021D01*
X178736762Y-76239594D01*
X178744105Y-76222512D01*
X178752365Y-76205776D01*
X178761543Y-76189385D01*
X178771639Y-76173339D01*
X178782653Y-76157639D01*
X178794585Y-76142284D01*
X178800895Y-76134736D01*
X178807434Y-76127274D01*
X178814203Y-76119899D01*
X178821202Y-76112610D01*
X178828429Y-76105408D01*
X178835819Y-76098375D01*
X178843302Y-76091566D01*
X178850880Y-76084980D01*
X178858551Y-76078617D01*
X178866317Y-76072478D01*
X178874176Y-76066562D01*
X178890177Y-76055399D01*
X178906554Y-76045129D01*
X178923306Y-76035753D01*
X178940435Y-76027269D01*
X178957939Y-76019678D01*
X178975819Y-76012981D01*
X178994076Y-76007176D01*
X179012708Y-76002265D01*
X179031716Y-75998246D01*
X179041361Y-75996572D01*
X179051100Y-75995121D01*
X179060933Y-75993893D01*
X179070859Y-75992888D01*
X179080880Y-75992107D01*
X179090995Y-75991549D01*
X179101204Y-75991214D01*
X179111507Y-75991102D01*
X179122349Y-75991170D01*
G37*
G36*
X179461263Y-77294626D02*
G01*
X179460726Y-77283997D01*
X179459116Y-77274273D01*
X179455300Y-77262717D01*
X179449575Y-77252772D01*
X179441943Y-77244437D01*
X179432402Y-77237713D01*
X179420953Y-77232599D01*
X179411114Y-77229820D01*
X179400202Y-77227948D01*
X179257808Y-77208653D01*
X179243650Y-77206950D01*
X179229658Y-77205416D01*
X179215835Y-77204048D01*
X179202178Y-77202848D01*
X179188689Y-77201816D01*
X179175368Y-77200950D01*
X179162214Y-77200253D01*
X179149227Y-77199723D01*
X179136408Y-77199360D01*
X179123756Y-77199164D01*
X179115415Y-77199127D01*
X179104790Y-77199280D01*
X179094738Y-77199595D01*
X179082900Y-77200081D01*
X179071670Y-77200618D01*
X179061794Y-77201133D01*
X179053866Y-77201570D01*
X179043336Y-77202142D01*
X179031302Y-77202750D01*
X179020520Y-77203239D01*
X179009234Y-77203669D01*
X178998346Y-77203952D01*
X178992072Y-77204012D01*
X178975066Y-77203797D01*
X178959157Y-77203153D01*
X178944345Y-77202080D01*
X178930630Y-77200577D01*
X178918012Y-77198645D01*
X178906492Y-77196284D01*
X178896068Y-77193493D01*
X178886742Y-77190273D01*
X178874810Y-77184638D01*
X178865347Y-77178037D01*
X178858353Y-77170470D01*
X178852867Y-77158878D01*
X178851632Y-77149057D01*
X178852412Y-77134692D01*
X178854749Y-77120447D01*
X178858646Y-77106322D01*
X178862109Y-77096972D01*
X178866265Y-77087675D01*
X178871113Y-77078432D01*
X178876655Y-77069242D01*
X178882889Y-77060106D01*
X178889815Y-77051023D01*
X178897434Y-77041994D01*
X178905746Y-77033018D01*
X178914751Y-77024096D01*
X178924448Y-77015227D01*
X178934838Y-77006411D01*
X178940293Y-77002023D01*
X178950535Y-76994224D01*
X178961110Y-76986640D01*
X178972020Y-76979271D01*
X178983264Y-76972119D01*
X178994842Y-76965182D01*
X179006753Y-76958460D01*
X179018999Y-76951954D01*
X179031578Y-76945664D01*
X179044492Y-76939590D01*
X179057739Y-76933731D01*
X179071320Y-76928087D01*
X179085235Y-76922660D01*
X179099485Y-76917447D01*
X179114068Y-76912451D01*
X179128985Y-76907670D01*
X179144235Y-76903105D01*
X179154416Y-76902518D01*
X179165542Y-76901674D01*
X179175534Y-76900773D01*
X179186183Y-76899694D01*
X179197488Y-76898436D01*
X179209448Y-76896999D01*
X179219781Y-76895803D01*
X179230018Y-76894809D01*
X179240160Y-76894019D01*
X179250206Y-76893431D01*
X179260157Y-76893045D01*
X179270013Y-76892863D01*
X179273928Y-76892847D01*
X179285194Y-76893106D01*
X179295286Y-76893641D01*
X179306787Y-76894469D01*
X179317446Y-76895381D01*
X179329083Y-76896496D01*
X179334012Y-76896999D01*
X179346035Y-76898195D01*
X179357067Y-76899188D01*
X179367110Y-76899979D01*
X179377855Y-76900660D01*
X179388589Y-76901086D01*
X179393852Y-76901151D01*
X179404714Y-76900481D01*
X179414769Y-76898472D01*
X179424017Y-76895123D01*
X179433786Y-76889523D01*
X179442456Y-76882100D01*
X179448847Y-76874670D01*
X179454632Y-76865046D01*
X179458618Y-76854394D01*
X179460601Y-76844445D01*
X179461263Y-76833740D01*
X179460601Y-76822795D01*
X179458618Y-76812674D01*
X179455312Y-76803377D01*
X179449784Y-76793573D01*
X179442456Y-76784891D01*
X179433679Y-76777754D01*
X179423803Y-76772369D01*
X179414463Y-76769149D01*
X179404317Y-76767217D01*
X179393363Y-76766573D01*
X179382082Y-76766283D01*
X179371958Y-76765685D01*
X179360409Y-76764760D01*
X179349696Y-76763741D01*
X179337993Y-76762494D01*
X179333035Y-76761933D01*
X179323273Y-76760902D01*
X179311951Y-76759807D01*
X179301606Y-76758927D01*
X179290483Y-76758154D01*
X179279287Y-76757643D01*
X179272463Y-76757536D01*
X179259033Y-76757622D01*
X179244662Y-76757880D01*
X179234559Y-76758147D01*
X179224039Y-76758490D01*
X179213100Y-76758910D01*
X179201744Y-76759406D01*
X179189970Y-76759979D01*
X179177778Y-76760627D01*
X179165168Y-76761352D01*
X179152140Y-76762154D01*
X179138694Y-76763032D01*
X179124830Y-76763986D01*
X179110549Y-76765016D01*
X179095850Y-76766123D01*
X179080732Y-76767306D01*
X179065614Y-76768518D01*
X179050912Y-76769653D01*
X179036625Y-76770709D01*
X179022755Y-76771687D01*
X179009301Y-76772587D01*
X178996262Y-76773408D01*
X178983640Y-76774151D01*
X178971434Y-76774816D01*
X178959643Y-76775403D01*
X178948269Y-76775912D01*
X178937310Y-76776342D01*
X178926768Y-76776694D01*
X178916641Y-76776968D01*
X178902231Y-76777232D01*
X178888757Y-76777320D01*
X178878361Y-76777203D01*
X178867868Y-76776917D01*
X178858009Y-76776547D01*
X178847136Y-76776058D01*
X178835249Y-76775450D01*
X178825010Y-76774877D01*
X178814771Y-76774362D01*
X178802884Y-76773815D01*
X178792011Y-76773375D01*
X178782152Y-76773042D01*
X178771659Y-76772784D01*
X178761263Y-76772679D01*
X178750741Y-76773366D01*
X178740975Y-76775427D01*
X178730537Y-76779568D01*
X178721127Y-76785578D01*
X178713879Y-76792219D01*
X178707571Y-76799872D01*
X178701861Y-76809626D01*
X178697927Y-76820268D01*
X178695970Y-76830097D01*
X178695317Y-76840579D01*
X178696113Y-76851940D01*
X178698503Y-76862300D01*
X178702485Y-76871660D01*
X178708060Y-76880020D01*
X178715227Y-76887380D01*
X178723988Y-76893739D01*
X178734341Y-76899098D01*
X178746287Y-76903456D01*
X178759826Y-76906814D01*
X178769737Y-76908497D01*
X178780356Y-76909735D01*
X178785931Y-76910188D01*
X178867264Y-76912142D01*
X178857647Y-76919353D01*
X178848335Y-76926577D01*
X178839329Y-76933813D01*
X178830628Y-76941062D01*
X178822232Y-76948323D01*
X178814141Y-76955596D01*
X178806356Y-76962882D01*
X178798876Y-76970180D01*
X178791701Y-76977491D01*
X178784832Y-76984814D01*
X178778268Y-76992149D01*
X178766056Y-77006857D01*
X178755065Y-77021615D01*
X178745295Y-77036422D01*
X178736747Y-77051279D01*
X178729419Y-77066185D01*
X178723313Y-77081141D01*
X178718428Y-77096147D01*
X178714765Y-77111202D01*
X178712322Y-77126307D01*
X178711101Y-77141462D01*
X178710949Y-77149057D01*
X178711311Y-77162536D01*
X178712399Y-77175493D01*
X178714211Y-77187929D01*
X178716749Y-77199845D01*
X178720012Y-77211239D01*
X178724000Y-77222113D01*
X178728713Y-77232465D01*
X178734152Y-77242297D01*
X178740315Y-77251608D01*
X178747203Y-77260398D01*
X178754817Y-77268667D01*
X178763155Y-77276415D01*
X178772219Y-77283642D01*
X178782008Y-77290348D01*
X178792522Y-77296533D01*
X178803761Y-77302198D01*
X178815869Y-77307503D01*
X178829020Y-77312336D01*
X178838367Y-77315295D01*
X178848178Y-77318045D01*
X178858452Y-77320585D01*
X178869190Y-77322914D01*
X178880392Y-77325034D01*
X178892057Y-77326944D01*
X178904187Y-77328645D01*
X178916779Y-77330135D01*
X178929836Y-77331415D01*
X178943356Y-77332486D01*
X178957340Y-77333346D01*
X178971788Y-77333997D01*
X178986699Y-77334438D01*
X179053133Y-77334438D01*
X179114438Y-77333705D01*
X179124975Y-77333834D01*
X179136070Y-77334220D01*
X179147724Y-77334864D01*
X179159936Y-77335766D01*
X179172705Y-77336925D01*
X179186033Y-77338342D01*
X179199919Y-77340016D01*
X179214364Y-77341948D01*
X179224303Y-77343379D01*
X179234491Y-77344925D01*
X179244926Y-77346585D01*
X179255610Y-77348360D01*
X179266291Y-77350164D01*
X179276718Y-77351851D01*
X179286891Y-77353423D01*
X179296811Y-77354878D01*
X179311214Y-77356842D01*
X179325047Y-77358544D01*
X179338308Y-77359985D01*
X179350998Y-77361163D01*
X179363118Y-77362080D01*
X179374666Y-77362735D01*
X179385643Y-77363127D01*
X179396050Y-77363258D01*
X179406563Y-77362571D01*
X179416303Y-77360511D01*
X179426690Y-77356370D01*
X179436024Y-77350359D01*
X179443189Y-77343719D01*
X179449331Y-77336040D01*
X179454891Y-77326190D01*
X179458280Y-77316986D01*
X179460398Y-77307077D01*
X179461245Y-77296463D01*
X179461263Y-77294626D01*
G37*
G36*
X179728178Y-77444920D02*
G01*
X179739276Y-77446186D01*
X179749622Y-77448973D01*
X179759217Y-77453279D01*
X179768060Y-77459105D01*
X179776153Y-77466451D01*
X179783494Y-77475317D01*
X179790083Y-77485702D01*
X179795921Y-77497608D01*
X179801008Y-77511033D01*
X179803982Y-77520827D01*
X179806622Y-77531297D01*
X179809154Y-77543187D01*
X179811436Y-77555592D01*
X179813470Y-77568512D01*
X179815254Y-77581947D01*
X179816790Y-77595898D01*
X179818077Y-77610363D01*
X179818796Y-77620293D01*
X179819405Y-77630452D01*
X179819903Y-77640840D01*
X179820290Y-77651457D01*
X179820567Y-77662303D01*
X179820733Y-77673378D01*
X179820788Y-77684682D01*
X179820534Y-77703874D01*
X179819773Y-77722494D01*
X179818504Y-77740541D01*
X179816728Y-77758016D01*
X179814443Y-77774918D01*
X179811652Y-77791248D01*
X179808353Y-77807006D01*
X179804546Y-77822191D01*
X179800232Y-77836803D01*
X179795410Y-77850843D01*
X179790080Y-77864311D01*
X179784243Y-77877206D01*
X179777899Y-77889529D01*
X179771046Y-77901280D01*
X179763687Y-77912458D01*
X179755819Y-77923063D01*
X179748870Y-77931406D01*
X179741455Y-77939462D01*
X179733574Y-77947229D01*
X179725228Y-77954708D01*
X179716416Y-77961899D01*
X179707139Y-77968801D01*
X179697396Y-77975416D01*
X179687187Y-77981742D01*
X179676513Y-77987781D01*
X179665373Y-77993531D01*
X179653768Y-77998993D01*
X179641697Y-78004167D01*
X179629160Y-78009053D01*
X179616158Y-78013650D01*
X179602691Y-78017960D01*
X179588757Y-78021981D01*
X179577474Y-78024896D01*
X179565791Y-78027656D01*
X179553707Y-78030262D01*
X179541222Y-78032713D01*
X179528336Y-78035009D01*
X179515049Y-78037151D01*
X179501362Y-78039138D01*
X179487274Y-78040971D01*
X179472786Y-78042649D01*
X179457897Y-78044173D01*
X179442607Y-78045542D01*
X179426916Y-78046757D01*
X179410825Y-78047817D01*
X179394332Y-78048722D01*
X179377440Y-78049473D01*
X179360146Y-78050069D01*
X179125429Y-78065945D01*
X179120822Y-78066332D01*
X179110167Y-78067416D01*
X179097589Y-78068912D01*
X179086893Y-78070305D01*
X179075115Y-78071929D01*
X179062255Y-78073785D01*
X179048313Y-78075873D01*
X179038417Y-78077394D01*
X179028041Y-78079018D01*
X179017183Y-78080745D01*
X179005845Y-78082575D01*
X178994026Y-78084508D01*
X178983747Y-78086253D01*
X178973731Y-78087885D01*
X178959201Y-78090122D01*
X178945263Y-78092107D01*
X178931918Y-78093838D01*
X178919166Y-78095315D01*
X178907005Y-78096540D01*
X178895438Y-78097511D01*
X178884463Y-78098228D01*
X178874080Y-78098693D01*
X178861158Y-78098918D01*
X178851331Y-78098631D01*
X178837750Y-78097123D01*
X178825560Y-78094323D01*
X178814760Y-78090231D01*
X178805352Y-78084846D01*
X178797335Y-78078169D01*
X178790709Y-78070200D01*
X178785474Y-78060939D01*
X178781630Y-78050385D01*
X178779177Y-78038539D01*
X178778115Y-78025401D01*
X178769956Y-78019402D01*
X178762331Y-78012761D01*
X178755240Y-78005480D01*
X178748684Y-77997557D01*
X178742662Y-77988993D01*
X178737174Y-77979788D01*
X178732221Y-77969942D01*
X178727801Y-77959455D01*
X178724790Y-77951167D01*
X178721235Y-77939548D01*
X178718206Y-77927281D01*
X178716281Y-77917654D01*
X178714652Y-77907663D01*
X178713318Y-77897307D01*
X178712282Y-77886586D01*
X178711541Y-77875500D01*
X178711097Y-77864049D01*
X178710949Y-77852233D01*
X178711016Y-77845394D01*
X178851632Y-77845394D01*
X178851670Y-77849325D01*
X178852228Y-77861025D01*
X178853456Y-77872589D01*
X178855353Y-77884015D01*
X178857921Y-77895303D01*
X178861158Y-77906454D01*
X178861748Y-77908300D01*
X178865709Y-77919291D01*
X178869561Y-77928345D01*
X178873914Y-77937304D01*
X178878768Y-77946167D01*
X178884123Y-77954935D01*
X178889979Y-77963607D01*
X178898970Y-77962571D01*
X178916501Y-77960513D01*
X178933426Y-77958471D01*
X178949746Y-77956446D01*
X178965462Y-77954439D01*
X178980572Y-77952449D01*
X178995078Y-77950476D01*
X179008979Y-77948520D01*
X179022275Y-77946581D01*
X179034966Y-77944660D01*
X179047052Y-77942755D01*
X179058534Y-77940868D01*
X179069410Y-77938998D01*
X179079682Y-77937145D01*
X179089348Y-77935310D01*
X179102714Y-77932588D01*
X179106761Y-77932035D01*
X179118914Y-77929776D01*
X179131089Y-77926620D01*
X179143286Y-77922566D01*
X179155504Y-77917615D01*
X179167744Y-77911767D01*
X179180005Y-77905021D01*
X179192287Y-77897378D01*
X179200488Y-77891785D01*
X179208697Y-77885792D01*
X179216917Y-77879401D01*
X179225146Y-77872611D01*
X179233384Y-77865422D01*
X179242050Y-77857224D01*
X179250157Y-77848996D01*
X179257704Y-77840738D01*
X179264693Y-77832449D01*
X179271122Y-77824129D01*
X179276993Y-77815779D01*
X179282304Y-77807399D01*
X179289223Y-77794771D01*
X179294884Y-77782074D01*
X179299286Y-77769308D01*
X179302431Y-77756474D01*
X179304318Y-77743571D01*
X179304947Y-77730600D01*
X179304769Y-77721313D01*
X179303832Y-77707933D01*
X179302093Y-77695215D01*
X179299550Y-77683158D01*
X179296205Y-77671762D01*
X179292057Y-77661027D01*
X179287106Y-77650954D01*
X179281352Y-77641541D01*
X179274796Y-77632790D01*
X179267436Y-77624700D01*
X179259274Y-77617271D01*
X179256360Y-77614942D01*
X179247088Y-77608398D01*
X179237023Y-77602520D01*
X179226163Y-77597307D01*
X179214508Y-77592760D01*
X179202060Y-77588878D01*
X179188817Y-77585661D01*
X179174780Y-77583110D01*
X179164981Y-77581779D01*
X179154828Y-77580744D01*
X179144323Y-77580005D01*
X179133465Y-77579561D01*
X179122254Y-77579413D01*
X179108123Y-77579663D01*
X179094307Y-77580413D01*
X179080806Y-77581663D01*
X179067619Y-77583413D01*
X179054748Y-77585662D01*
X179042191Y-77588412D01*
X179029950Y-77591662D01*
X179018023Y-77595411D01*
X179006411Y-77599661D01*
X178995114Y-77604410D01*
X178984131Y-77609659D01*
X178973464Y-77615409D01*
X178963111Y-77621658D01*
X178953073Y-77628407D01*
X178943350Y-77635656D01*
X178933942Y-77643405D01*
X178923975Y-77652552D01*
X178914651Y-77662162D01*
X178905970Y-77672236D01*
X178897932Y-77682774D01*
X178890537Y-77693775D01*
X178883785Y-77705240D01*
X178877676Y-77717169D01*
X178872210Y-77729562D01*
X178867387Y-77742418D01*
X178863207Y-77755738D01*
X178859671Y-77769521D01*
X178856777Y-77783768D01*
X178854526Y-77798479D01*
X178852919Y-77813654D01*
X178851954Y-77829292D01*
X178851632Y-77845394D01*
X178711016Y-77845394D01*
X178711065Y-77840465D01*
X178711413Y-77828852D01*
X178711994Y-77817395D01*
X178712807Y-77806094D01*
X178713853Y-77794948D01*
X178715130Y-77783957D01*
X178716640Y-77773122D01*
X178718383Y-77762443D01*
X178720357Y-77751919D01*
X178722564Y-77741550D01*
X178725004Y-77731338D01*
X178727675Y-77721280D01*
X178730579Y-77711378D01*
X178733716Y-77701632D01*
X178737084Y-77692041D01*
X178740685Y-77682606D01*
X178744518Y-77673326D01*
X178748584Y-77664202D01*
X178752882Y-77655233D01*
X178757412Y-77646420D01*
X178762174Y-77637762D01*
X178767169Y-77629260D01*
X178772396Y-77620913D01*
X178777856Y-77612722D01*
X178783548Y-77604686D01*
X178789472Y-77596806D01*
X178795628Y-77589081D01*
X178802017Y-77581512D01*
X178808638Y-77574099D01*
X178815491Y-77566841D01*
X178822577Y-77559738D01*
X178829895Y-77552791D01*
X178837202Y-77546239D01*
X178852246Y-77533760D01*
X178867862Y-77522113D01*
X178884051Y-77511297D01*
X178900812Y-77501314D01*
X178909407Y-77496634D01*
X178918146Y-77492162D01*
X178927027Y-77487899D01*
X178936052Y-77483843D01*
X178945219Y-77479995D01*
X178954530Y-77476355D01*
X178963984Y-77472923D01*
X178973581Y-77469700D01*
X178983321Y-77466684D01*
X178993205Y-77463876D01*
X179003231Y-77461276D01*
X179013400Y-77458884D01*
X179023713Y-77456700D01*
X179034169Y-77454724D01*
X179044767Y-77452957D01*
X179055509Y-77451397D01*
X179066394Y-77450045D01*
X179077423Y-77448901D01*
X179088594Y-77447965D01*
X179099908Y-77447237D01*
X179111366Y-77446717D01*
X179122966Y-77446405D01*
X179134710Y-77446301D01*
X179151758Y-77446605D01*
X179168404Y-77447518D01*
X179184647Y-77449040D01*
X179200488Y-77451171D01*
X179215925Y-77453910D01*
X179230961Y-77457258D01*
X179245593Y-77461214D01*
X179259823Y-77465779D01*
X179273651Y-77470953D01*
X179287075Y-77476736D01*
X179300098Y-77483127D01*
X179312717Y-77490127D01*
X179324934Y-77497736D01*
X179336748Y-77505953D01*
X179348160Y-77514780D01*
X179359169Y-77524214D01*
X179369639Y-77534135D01*
X179379434Y-77544418D01*
X179388553Y-77555063D01*
X179396996Y-77566072D01*
X179404764Y-77577442D01*
X179411857Y-77589175D01*
X179418274Y-77601271D01*
X179424016Y-77613729D01*
X179429082Y-77626550D01*
X179433472Y-77639734D01*
X179437187Y-77653280D01*
X179440227Y-77667188D01*
X179442591Y-77681459D01*
X179444280Y-77696093D01*
X179445293Y-77711089D01*
X179445631Y-77726448D01*
X179445478Y-77734633D01*
X179444677Y-77746692D01*
X179443189Y-77758489D01*
X179441013Y-77770025D01*
X179438151Y-77781298D01*
X179434602Y-77792310D01*
X179430366Y-77803060D01*
X179425443Y-77813548D01*
X179419833Y-77823774D01*
X179413536Y-77833738D01*
X179406552Y-77843440D01*
X179404072Y-77846632D01*
X179396172Y-77856041D01*
X179387585Y-77865202D01*
X179378312Y-77874113D01*
X179368351Y-77882776D01*
X179357704Y-77891189D01*
X179346369Y-77899354D01*
X179334348Y-77907269D01*
X179325952Y-77912408D01*
X179317251Y-77917436D01*
X179308244Y-77922353D01*
X179298933Y-77927160D01*
X179289316Y-77931856D01*
X179300248Y-77931703D01*
X179311002Y-77931490D01*
X179321577Y-77931217D01*
X179331974Y-77930883D01*
X179342193Y-77930488D01*
X179352233Y-77930033D01*
X179371778Y-77928940D01*
X179390610Y-77927605D01*
X179408727Y-77926028D01*
X179426132Y-77924209D01*
X179442822Y-77922147D01*
X179458799Y-77919843D01*
X179474062Y-77917297D01*
X179488612Y-77914508D01*
X179502448Y-77911477D01*
X179515570Y-77908203D01*
X179527979Y-77904688D01*
X179539674Y-77900929D01*
X179550655Y-77896929D01*
X179566073Y-77890321D01*
X179580514Y-77883076D01*
X179593978Y-77875193D01*
X179606465Y-77866673D01*
X179617975Y-77857516D01*
X179628508Y-77847722D01*
X179638064Y-77837290D01*
X179646643Y-77826221D01*
X179654245Y-77814514D01*
X179660870Y-77802170D01*
X179666518Y-77789189D01*
X179671189Y-77775571D01*
X179674883Y-77761315D01*
X179677601Y-77746422D01*
X179679341Y-77730892D01*
X179680104Y-77714724D01*
X179680234Y-77706010D01*
X179680228Y-77693122D01*
X179679982Y-77680454D01*
X179679495Y-77668004D01*
X179678768Y-77655773D01*
X179677801Y-77643761D01*
X179676593Y-77631968D01*
X179675145Y-77620393D01*
X179673456Y-77609038D01*
X179671527Y-77597902D01*
X179669357Y-77586985D01*
X179668621Y-77583414D01*
X179666553Y-77573090D01*
X179664122Y-77560225D01*
X179662065Y-77548391D01*
X179660382Y-77537587D01*
X179658804Y-77525531D01*
X179657810Y-77515085D01*
X179657390Y-77504675D01*
X179657978Y-77493981D01*
X179660592Y-77481359D01*
X179665297Y-77470606D01*
X179672094Y-77461724D01*
X179680982Y-77454711D01*
X179691962Y-77449569D01*
X179701569Y-77446939D01*
X179712352Y-77445361D01*
X179724312Y-77444836D01*
X179728178Y-77444920D01*
G37*
G36*
X179024312Y-78803558D02*
G01*
X179036898Y-78803570D01*
X179047310Y-78803594D01*
X179058554Y-78803630D01*
X179070631Y-78803679D01*
X179083541Y-78803742D01*
X179097284Y-78803817D01*
X179111860Y-78803905D01*
X179122040Y-78803971D01*
X179132590Y-78804042D01*
X179143510Y-78804119D01*
X179154801Y-78804202D01*
X179166461Y-78804291D01*
X179178122Y-78804380D01*
X179189413Y-78804463D01*
X179200333Y-78804540D01*
X179210883Y-78804612D01*
X179221063Y-78804678D01*
X179230873Y-78804738D01*
X179244893Y-78804817D01*
X179258081Y-78804884D01*
X179270436Y-78804937D01*
X179281958Y-78804978D01*
X179292647Y-78805006D01*
X179302503Y-78805021D01*
X179308611Y-78805024D01*
X179319120Y-78805239D01*
X179329691Y-78805719D01*
X179340519Y-78806366D01*
X179350971Y-78807087D01*
X179352819Y-78807222D01*
X179363369Y-78808052D01*
X179374332Y-78808803D01*
X179385086Y-78809376D01*
X179394922Y-78809655D01*
X179396782Y-78809665D01*
X179407046Y-78808960D01*
X179416589Y-78806848D01*
X179426811Y-78802604D01*
X179436050Y-78796443D01*
X179443189Y-78789637D01*
X179449331Y-78781900D01*
X179454891Y-78772071D01*
X179458721Y-78761377D01*
X179460627Y-78751522D01*
X179461263Y-78741032D01*
X179460564Y-78728385D01*
X179458469Y-78716944D01*
X179454977Y-78706709D01*
X179450088Y-78697679D01*
X179443803Y-78689856D01*
X179436121Y-78683238D01*
X179427042Y-78677827D01*
X179416566Y-78673621D01*
X179421979Y-78662802D01*
X179427042Y-78651777D01*
X179431756Y-78640545D01*
X179436121Y-78629108D01*
X179440137Y-78617464D01*
X179443803Y-78605615D01*
X179447120Y-78593559D01*
X179450088Y-78581297D01*
X179452707Y-78568830D01*
X179454977Y-78556156D01*
X179456898Y-78543276D01*
X179458469Y-78530190D01*
X179459691Y-78516898D01*
X179460564Y-78503399D01*
X179461088Y-78489695D01*
X179461263Y-78475785D01*
X179461110Y-78464670D01*
X179460652Y-78453795D01*
X179459889Y-78443161D01*
X179458820Y-78432767D01*
X179457446Y-78422614D01*
X179455767Y-78412701D01*
X179453783Y-78403029D01*
X179450233Y-78388971D01*
X179445997Y-78375454D01*
X179441074Y-78362478D01*
X179435464Y-78350043D01*
X179429168Y-78338149D01*
X179422184Y-78326796D01*
X179413776Y-78315033D01*
X179404673Y-78304196D01*
X179394874Y-78294287D01*
X179384380Y-78285306D01*
X179373190Y-78277251D01*
X179361304Y-78270124D01*
X179348723Y-78263925D01*
X179335447Y-78258653D01*
X179321475Y-78254308D01*
X179311774Y-78251926D01*
X179301764Y-78249957D01*
X179296643Y-78249127D01*
X179285537Y-78247489D01*
X179274508Y-78245903D01*
X179263556Y-78244369D01*
X179252679Y-78242888D01*
X179241879Y-78241458D01*
X179231155Y-78240080D01*
X179220508Y-78238754D01*
X179209937Y-78237480D01*
X179199442Y-78236258D01*
X179189023Y-78235088D01*
X179178681Y-78233970D01*
X179168415Y-78232904D01*
X179158226Y-78231890D01*
X179148113Y-78230928D01*
X179138076Y-78230018D01*
X179128115Y-78229160D01*
X179118231Y-78228354D01*
X179108423Y-78227600D01*
X179089036Y-78226249D01*
X179069955Y-78225105D01*
X179051179Y-78224169D01*
X179032708Y-78223441D01*
X179014542Y-78222921D01*
X178996682Y-78222609D01*
X178979127Y-78222505D01*
X178967517Y-78222585D01*
X178955707Y-78222825D01*
X178943696Y-78223226D01*
X178931485Y-78223787D01*
X178919073Y-78224508D01*
X178906461Y-78225390D01*
X178893649Y-78226432D01*
X178880636Y-78227634D01*
X178867423Y-78228996D01*
X178854010Y-78230519D01*
X178840396Y-78232202D01*
X178826582Y-78234045D01*
X178812568Y-78236049D01*
X178798353Y-78238213D01*
X178783938Y-78240537D01*
X178769323Y-78243021D01*
X178758891Y-78245213D01*
X178749485Y-78248216D01*
X178738539Y-78253483D01*
X178729418Y-78260192D01*
X178722122Y-78268343D01*
X178716649Y-78277937D01*
X178713001Y-78288974D01*
X178711177Y-78301453D01*
X178710949Y-78308234D01*
X178711593Y-78318973D01*
X178713525Y-78329025D01*
X178716745Y-78338390D01*
X178721253Y-78347069D01*
X178727049Y-78355060D01*
X178729267Y-78357571D01*
X178736505Y-78364377D01*
X178745884Y-78370538D01*
X178756267Y-78374783D01*
X178765967Y-78376895D01*
X178776406Y-78377599D01*
X178786917Y-78377354D01*
X178799218Y-78376621D01*
X178810346Y-78375682D01*
X178822619Y-78374430D01*
X178832575Y-78373286D01*
X178843176Y-78371966D01*
X178854420Y-78370470D01*
X178866308Y-78368798D01*
X178874591Y-78367585D01*
X178886950Y-78365839D01*
X178898746Y-78364265D01*
X178909979Y-78362862D01*
X178920650Y-78361632D01*
X178930759Y-78360573D01*
X178943362Y-78359428D01*
X178954966Y-78358588D01*
X178965569Y-78358054D01*
X178977418Y-78357815D01*
X178991215Y-78357845D01*
X179004765Y-78357934D01*
X179018067Y-78358081D01*
X179031120Y-78358288D01*
X179043926Y-78358555D01*
X179056483Y-78358880D01*
X179068793Y-78359265D01*
X179080854Y-78359708D01*
X179092668Y-78360211D01*
X179104233Y-78360773D01*
X179115550Y-78361394D01*
X179126619Y-78362074D01*
X179137440Y-78362814D01*
X179148014Y-78363612D01*
X179158338Y-78364470D01*
X179168415Y-78365387D01*
X179178216Y-78366362D01*
X179192458Y-78367932D01*
X179206151Y-78369631D01*
X179219294Y-78371458D01*
X179231888Y-78373414D01*
X179243932Y-78375500D01*
X179255427Y-78377713D01*
X179266372Y-78380056D01*
X179276768Y-78382528D01*
X179286614Y-78385128D01*
X179295910Y-78387857D01*
X179300877Y-78397760D01*
X179305307Y-78407592D01*
X179309199Y-78417354D01*
X179312553Y-78427047D01*
X179314228Y-78432554D01*
X179316703Y-78442136D01*
X179318786Y-78453001D01*
X179320076Y-78463774D01*
X179320573Y-78474456D01*
X179320579Y-78475785D01*
X179320466Y-78487335D01*
X179320128Y-78498965D01*
X179319565Y-78510675D01*
X179318777Y-78522465D01*
X179317764Y-78534336D01*
X179316526Y-78546287D01*
X179315062Y-78558318D01*
X179313374Y-78570429D01*
X179311460Y-78582620D01*
X179309321Y-78594891D01*
X179306956Y-78607243D01*
X179304367Y-78619674D01*
X179301553Y-78632186D01*
X179298513Y-78644778D01*
X179295248Y-78657450D01*
X179291758Y-78670202D01*
X179155226Y-78669713D01*
X179024801Y-78668248D01*
X179006814Y-78668298D01*
X178989126Y-78668450D01*
X178971735Y-78668703D01*
X178954642Y-78669057D01*
X178937846Y-78669512D01*
X178921349Y-78670068D01*
X178905148Y-78670726D01*
X178889246Y-78671484D01*
X178873641Y-78672344D01*
X178858334Y-78673305D01*
X178843324Y-78674366D01*
X178828613Y-78675529D01*
X178814198Y-78676794D01*
X178800082Y-78678159D01*
X178786263Y-78679625D01*
X178772742Y-78681193D01*
X178761699Y-78683065D01*
X178751742Y-78685844D01*
X178740156Y-78690958D01*
X178730500Y-78697682D01*
X178722776Y-78706017D01*
X178716983Y-78715962D01*
X178713121Y-78727518D01*
X178711492Y-78737242D01*
X178710949Y-78747871D01*
X178711601Y-78758610D01*
X178713559Y-78768662D01*
X178716822Y-78778027D01*
X178721390Y-78786706D01*
X178727263Y-78794697D01*
X178729511Y-78797208D01*
X178736707Y-78803972D01*
X178745926Y-78809974D01*
X178756034Y-78813943D01*
X178767030Y-78815878D01*
X178775429Y-78816015D01*
X179024312Y-78803558D01*
G37*
G36*
X178806692Y-79793230D02*
G01*
X178820501Y-79789855D01*
X178834423Y-79786415D01*
X178848456Y-79782909D01*
X178862600Y-79779339D01*
X178876857Y-79775704D01*
X178891225Y-79772004D01*
X178905704Y-79768239D01*
X178920295Y-79764410D01*
X178934998Y-79760515D01*
X178949812Y-79756556D01*
X178964738Y-79752532D01*
X178979776Y-79748442D01*
X178994925Y-79744288D01*
X179010186Y-79740070D01*
X179025559Y-79735786D01*
X179041043Y-79731437D01*
X179056639Y-79727023D01*
X179072346Y-79722545D01*
X179088165Y-79718002D01*
X179104096Y-79713394D01*
X179120138Y-79708721D01*
X179136292Y-79703983D01*
X179152557Y-79699180D01*
X179168934Y-79694312D01*
X179185423Y-79689380D01*
X179202024Y-79684382D01*
X179218736Y-79679320D01*
X179235559Y-79674193D01*
X179252495Y-79669001D01*
X179269541Y-79663744D01*
X179286700Y-79658422D01*
X179303970Y-79653035D01*
X179315724Y-79649194D01*
X179327538Y-79644906D01*
X179339412Y-79640172D01*
X179351346Y-79634992D01*
X179363340Y-79629365D01*
X179375394Y-79623291D01*
X179387508Y-79616771D01*
X179399683Y-79609804D01*
X179411917Y-79602391D01*
X179424212Y-79594531D01*
X179432442Y-79589043D01*
X179440960Y-79582789D01*
X179448318Y-79575992D01*
X179455884Y-79566734D01*
X179461637Y-79556629D01*
X179465577Y-79545677D01*
X179467704Y-79533879D01*
X179468101Y-79523831D01*
X179466221Y-79510105D01*
X179461129Y-79496954D01*
X179455950Y-79488507D01*
X179449344Y-79480315D01*
X179441311Y-79472379D01*
X179431850Y-79464699D01*
X179420963Y-79457274D01*
X179408647Y-79450106D01*
X179394905Y-79443192D01*
X179379735Y-79436535D01*
X179363138Y-79430133D01*
X179345114Y-79423987D01*
X179335566Y-79421010D01*
X179325662Y-79418096D01*
X179315401Y-79415247D01*
X179304783Y-79412462D01*
X179293808Y-79409740D01*
X179282477Y-79407083D01*
X179271210Y-79404512D01*
X179259210Y-79401928D01*
X179246475Y-79399331D01*
X179233006Y-79396721D01*
X179218803Y-79394099D01*
X179208927Y-79392343D01*
X179198724Y-79390582D01*
X179188195Y-79388815D01*
X179177339Y-79387042D01*
X179166157Y-79385264D01*
X179154649Y-79383480D01*
X179142815Y-79381690D01*
X179130654Y-79379895D01*
X179124452Y-79378995D01*
X178973998Y-79356280D01*
X179102958Y-79299860D01*
X179381639Y-79195568D01*
X179391002Y-79191896D01*
X179400817Y-79186895D01*
X179409441Y-79181124D01*
X179416873Y-79174580D01*
X179421451Y-79169434D01*
X179430782Y-79163916D01*
X179438869Y-79157619D01*
X179445711Y-79150544D01*
X179452515Y-79140605D01*
X179457375Y-79129449D01*
X179459863Y-79119649D01*
X179461107Y-79109070D01*
X179461263Y-79103489D01*
X179459828Y-79093718D01*
X179454791Y-79084008D01*
X179446152Y-79074358D01*
X179438392Y-79067959D01*
X179429030Y-79061585D01*
X179418068Y-79055239D01*
X179405505Y-79048919D01*
X179391341Y-79042626D01*
X179375576Y-79036360D01*
X179358210Y-79030120D01*
X179348926Y-79027010D01*
X179339243Y-79023907D01*
X179329159Y-79020811D01*
X179318675Y-79017721D01*
X179307790Y-79014638D01*
X179296506Y-79011561D01*
X179284821Y-79008492D01*
X179272736Y-79005429D01*
X179260251Y-79002372D01*
X179246893Y-78999289D01*
X179232953Y-78996205D01*
X179218431Y-78993121D01*
X179203327Y-78990038D01*
X179187641Y-78986954D01*
X179171373Y-78983871D01*
X179154523Y-78980787D01*
X179137091Y-78977704D01*
X179119077Y-78974620D01*
X179100482Y-78971536D01*
X179081304Y-78968453D01*
X179071497Y-78966911D01*
X179061544Y-78965369D01*
X179051446Y-78963828D01*
X179041202Y-78962286D01*
X179030813Y-78960744D01*
X179020278Y-78959202D01*
X179009598Y-78957660D01*
X178998773Y-78956119D01*
X178987801Y-78954577D01*
X178976685Y-78953035D01*
X178875568Y-78936427D01*
X178864520Y-78934855D01*
X178853815Y-78933438D01*
X178843454Y-78932176D01*
X178833436Y-78931068D01*
X178820614Y-78929832D01*
X178808401Y-78928870D01*
X178796800Y-78928183D01*
X178785809Y-78927771D01*
X178775429Y-78927634D01*
X178765248Y-78928347D01*
X178754260Y-78930980D01*
X178744230Y-78935553D01*
X178735159Y-78942066D01*
X178729267Y-78947906D01*
X178723041Y-78955809D01*
X178718104Y-78964312D01*
X178714455Y-78973417D01*
X178712093Y-78983123D01*
X178711020Y-78993430D01*
X178710949Y-78996999D01*
X178711781Y-79009386D01*
X178714276Y-79020538D01*
X178718436Y-79030452D01*
X178724260Y-79039131D01*
X178731747Y-79046572D01*
X178740899Y-79052778D01*
X178751714Y-79057747D01*
X178764193Y-79061479D01*
X178774440Y-79063681D01*
X178785275Y-79065768D01*
X178796697Y-79067741D01*
X178808707Y-79069600D01*
X178821304Y-79071344D01*
X178831138Y-79072577D01*
X178841303Y-79073745D01*
X178851798Y-79074850D01*
X178862623Y-79075889D01*
X178962030Y-79086147D01*
X179264891Y-79126692D01*
X179251839Y-79131460D01*
X179238663Y-79136239D01*
X179225363Y-79141029D01*
X179211940Y-79145830D01*
X179198394Y-79150643D01*
X179184723Y-79155466D01*
X179170930Y-79160300D01*
X179157012Y-79165145D01*
X179142971Y-79170001D01*
X179128807Y-79174868D01*
X179114519Y-79179746D01*
X179100108Y-79184635D01*
X179085572Y-79189534D01*
X179070914Y-79194445D01*
X179056132Y-79199367D01*
X179041226Y-79204300D01*
X179026197Y-79209244D01*
X179011044Y-79214198D01*
X178995767Y-79219164D01*
X178980367Y-79224141D01*
X178964844Y-79229128D01*
X178949197Y-79234127D01*
X178933426Y-79239137D01*
X178917532Y-79244157D01*
X178901515Y-79249189D01*
X178885373Y-79254231D01*
X178869108Y-79259285D01*
X178852720Y-79264349D01*
X178836208Y-79269425D01*
X178819573Y-79274511D01*
X178802814Y-79279609D01*
X178785931Y-79284717D01*
X178772531Y-79289272D01*
X178760449Y-79294420D01*
X178749685Y-79300160D01*
X178740239Y-79306493D01*
X178732111Y-79313418D01*
X178725301Y-79320935D01*
X178719809Y-79329046D01*
X178714537Y-79340781D01*
X178712120Y-79350273D01*
X178711022Y-79360358D01*
X178710949Y-79363852D01*
X178711685Y-79373711D01*
X178714957Y-79385902D01*
X178720848Y-79397002D01*
X178726984Y-79404611D01*
X178734592Y-79411605D01*
X178743673Y-79417986D01*
X178754227Y-79423752D01*
X178766253Y-79428905D01*
X178779752Y-79433444D01*
X178789570Y-79436129D01*
X178794724Y-79437369D01*
X178804917Y-79439633D01*
X178815775Y-79441967D01*
X178827296Y-79444373D01*
X178839481Y-79446848D01*
X178852331Y-79449395D01*
X178865844Y-79452012D01*
X178880022Y-79454699D01*
X178894863Y-79457458D01*
X178910369Y-79460286D01*
X178926539Y-79463186D01*
X178943372Y-79466156D01*
X178960870Y-79469197D01*
X178979032Y-79472308D01*
X178997858Y-79475490D01*
X179007519Y-79477107D01*
X179017347Y-79478742D01*
X179027341Y-79480395D01*
X179037501Y-79482065D01*
X179048068Y-79483769D01*
X179058487Y-79485461D01*
X179068760Y-79487141D01*
X179078885Y-79488808D01*
X179088864Y-79490465D01*
X179098696Y-79492109D01*
X179108380Y-79493741D01*
X179127309Y-79496969D01*
X179145650Y-79500150D01*
X179163404Y-79503283D01*
X179180569Y-79506369D01*
X179197147Y-79509407D01*
X179213138Y-79512397D01*
X179228540Y-79515339D01*
X179243355Y-79518234D01*
X179257582Y-79521081D01*
X179271222Y-79523880D01*
X179284273Y-79526632D01*
X179296737Y-79529335D01*
X179302749Y-79530669D01*
X179119323Y-79580739D01*
X178751493Y-79669399D01*
X178741990Y-79672567D01*
X178731894Y-79678222D01*
X178723777Y-79685762D01*
X178717640Y-79695186D01*
X178713483Y-79706494D01*
X178711582Y-79716897D01*
X178710949Y-79728506D01*
X178711618Y-79739048D01*
X178713628Y-79749057D01*
X178716976Y-79758534D01*
X178721665Y-79767478D01*
X178727693Y-79775890D01*
X178730000Y-79778576D01*
X178737418Y-79785880D01*
X178745387Y-79791673D01*
X178755378Y-79796522D01*
X178766117Y-79799314D01*
X178775917Y-79800069D01*
X178786306Y-79798139D01*
X178795869Y-79795895D01*
X178806692Y-79793230D01*
G37*
G36*
X179024312Y-80488834D02*
G01*
X179036898Y-80488846D01*
X179047310Y-80488869D01*
X179058554Y-80488906D01*
X179070631Y-80488955D01*
X179083541Y-80489017D01*
X179097284Y-80489092D01*
X179111860Y-80489180D01*
X179122040Y-80489246D01*
X179132590Y-80489318D01*
X179143510Y-80489395D01*
X179154801Y-80489478D01*
X179166461Y-80489567D01*
X179178122Y-80489656D01*
X179189413Y-80489739D01*
X179200333Y-80489816D01*
X179210883Y-80489887D01*
X179221063Y-80489953D01*
X179230873Y-80490013D01*
X179244893Y-80490093D01*
X179258081Y-80490159D01*
X179270436Y-80490213D01*
X179281958Y-80490254D01*
X179292647Y-80490282D01*
X179302503Y-80490297D01*
X179308611Y-80490300D01*
X179319120Y-80490514D01*
X179329691Y-80490995D01*
X179340519Y-80491641D01*
X179350971Y-80492363D01*
X179352819Y-80492498D01*
X179363369Y-80493328D01*
X179374332Y-80494079D01*
X179385086Y-80494652D01*
X179394922Y-80494931D01*
X179396782Y-80494940D01*
X179407046Y-80494236D01*
X179416589Y-80492124D01*
X179426811Y-80487880D01*
X179436050Y-80481719D01*
X179443189Y-80474912D01*
X179449331Y-80467176D01*
X179454891Y-80457347D01*
X179458721Y-80446653D01*
X179460627Y-80436798D01*
X179461263Y-80426308D01*
X179460564Y-80413661D01*
X179458469Y-80402219D01*
X179454977Y-80391984D01*
X179450088Y-80382955D01*
X179443803Y-80375131D01*
X179436121Y-80368514D01*
X179427042Y-80363102D01*
X179416566Y-80358897D01*
X179421979Y-80348078D01*
X179427042Y-80337052D01*
X179431756Y-80325821D01*
X179436121Y-80314384D01*
X179440137Y-80302740D01*
X179443803Y-80290891D01*
X179447120Y-80278835D01*
X179450088Y-80266573D01*
X179452707Y-80254105D01*
X179454977Y-80241431D01*
X179456898Y-80228551D01*
X179458469Y-80215465D01*
X179459691Y-80202173D01*
X179460564Y-80188675D01*
X179461088Y-80174971D01*
X179461263Y-80161060D01*
X179461110Y-80149945D01*
X179460652Y-80139071D01*
X179459889Y-80128437D01*
X179458820Y-80118043D01*
X179457446Y-80107890D01*
X179455767Y-80097977D01*
X179453783Y-80088304D01*
X179450233Y-80074247D01*
X179445997Y-80060730D01*
X179441074Y-80047754D01*
X179435464Y-80035319D01*
X179429168Y-80023425D01*
X179422184Y-80012072D01*
X179413776Y-80000308D01*
X179404673Y-79989472D01*
X179394874Y-79979563D01*
X179384380Y-79970581D01*
X179373190Y-79962527D01*
X179361304Y-79955400D01*
X179348723Y-79949201D01*
X179335447Y-79943928D01*
X179321475Y-79939583D01*
X179311774Y-79937202D01*
X179301764Y-79935233D01*
X179296643Y-79934403D01*
X179285537Y-79932765D01*
X179274508Y-79931179D01*
X179263556Y-79929645D01*
X179252679Y-79928163D01*
X179241879Y-79926733D01*
X179231155Y-79925355D01*
X179220508Y-79924029D01*
X179209937Y-79922756D01*
X179199442Y-79921534D01*
X179189023Y-79920364D01*
X179178681Y-79919246D01*
X179168415Y-79918180D01*
X179158226Y-79917166D01*
X179148113Y-79916204D01*
X179138076Y-79915294D01*
X179128115Y-79914436D01*
X179118231Y-79913630D01*
X179108423Y-79912876D01*
X179089036Y-79911524D01*
X179069955Y-79910380D01*
X179051179Y-79909444D01*
X179032708Y-79908716D01*
X179014542Y-79908196D01*
X178996682Y-79907884D01*
X178979127Y-79907780D01*
X178967517Y-79907861D01*
X178955707Y-79908101D01*
X178943696Y-79908502D01*
X178931485Y-79909063D01*
X178919073Y-79909784D01*
X178906461Y-79910665D01*
X178893649Y-79911707D01*
X178880636Y-79912909D01*
X178867423Y-79914272D01*
X178854010Y-79915795D01*
X178840396Y-79917478D01*
X178826582Y-79919321D01*
X178812568Y-79921324D01*
X178798353Y-79923488D01*
X178783938Y-79925812D01*
X178769323Y-79928297D01*
X178758891Y-79930489D01*
X178749485Y-79933492D01*
X178738539Y-79938758D01*
X178729418Y-79945467D01*
X178722122Y-79953619D01*
X178716649Y-79963213D01*
X178713001Y-79974250D01*
X178711177Y-79986729D01*
X178710949Y-79993510D01*
X178711593Y-80004249D01*
X178713525Y-80014301D01*
X178716745Y-80023666D01*
X178721253Y-80032344D01*
X178727049Y-80040336D01*
X178729267Y-80042847D01*
X178736505Y-80049653D01*
X178745884Y-80055814D01*
X178756267Y-80060058D01*
X178765967Y-80062170D01*
X178776406Y-80062875D01*
X178786917Y-80062630D01*
X178799218Y-80061897D01*
X178810346Y-80060958D01*
X178822619Y-80059706D01*
X178832575Y-80058562D01*
X178843176Y-80057242D01*
X178854420Y-80055746D01*
X178866308Y-80054073D01*
X178874591Y-80052861D01*
X178886950Y-80051115D01*
X178898746Y-80049540D01*
X178909979Y-80048138D01*
X178920650Y-80046907D01*
X178930759Y-80045848D01*
X178943362Y-80044703D01*
X178954966Y-80043864D01*
X178965569Y-80043329D01*
X178977418Y-80043091D01*
X178991215Y-80043120D01*
X179004765Y-80043209D01*
X179018067Y-80043357D01*
X179031120Y-80043564D01*
X179043926Y-80043830D01*
X179056483Y-80044156D01*
X179068793Y-80044540D01*
X179080854Y-80044984D01*
X179092668Y-80045487D01*
X179104233Y-80046049D01*
X179115550Y-80046670D01*
X179126619Y-80047350D01*
X179137440Y-80048089D01*
X179148014Y-80048888D01*
X179158338Y-80049746D01*
X179168415Y-80050662D01*
X179178216Y-80051638D01*
X179192458Y-80053207D01*
X179206151Y-80054906D01*
X179219294Y-80056734D01*
X179231888Y-80058690D01*
X179243932Y-80060775D01*
X179255427Y-80062989D01*
X179266372Y-80065332D01*
X179276768Y-80067803D01*
X179286614Y-80070404D01*
X179295910Y-80073133D01*
X179300877Y-80083035D01*
X179305307Y-80092868D01*
X179309199Y-80102630D01*
X179312553Y-80112322D01*
X179314228Y-80117829D01*
X179316703Y-80127411D01*
X179318786Y-80138276D01*
X179320076Y-80149050D01*
X179320573Y-80159731D01*
X179320579Y-80161060D01*
X179320466Y-80172610D01*
X179320128Y-80184240D01*
X179319565Y-80195951D01*
X179318777Y-80207741D01*
X179317764Y-80219612D01*
X179316526Y-80231562D01*
X179315062Y-80243593D01*
X179313374Y-80255704D01*
X179311460Y-80267895D01*
X179309321Y-80280167D01*
X179306956Y-80292518D01*
X179304367Y-80304950D01*
X179301553Y-80317462D01*
X179298513Y-80330053D01*
X179295248Y-80342725D01*
X179291758Y-80355478D01*
X179155226Y-80354989D01*
X179024801Y-80353524D01*
X179006814Y-80353574D01*
X178989126Y-80353726D01*
X178971735Y-80353979D01*
X178954642Y-80354333D01*
X178937846Y-80354788D01*
X178921349Y-80355344D01*
X178905148Y-80356001D01*
X178889246Y-80356760D01*
X178873641Y-80357619D01*
X178858334Y-80358580D01*
X178843324Y-80359642D01*
X178828613Y-80360805D01*
X178814198Y-80362069D01*
X178800082Y-80363434D01*
X178786263Y-80364901D01*
X178772742Y-80366468D01*
X178761699Y-80368341D01*
X178751742Y-80371120D01*
X178740156Y-80376233D01*
X178730500Y-80382958D01*
X178722776Y-80391292D01*
X178716983Y-80401238D01*
X178713121Y-80412793D01*
X178711492Y-80422517D01*
X178710949Y-80433147D01*
X178711601Y-80443886D01*
X178713559Y-80453938D01*
X178716822Y-80463303D01*
X178721390Y-80471981D01*
X178727263Y-80479973D01*
X178729511Y-80482484D01*
X178736707Y-80489247D01*
X178745926Y-80495250D01*
X178756034Y-80499218D01*
X178767030Y-80501153D01*
X178775429Y-80501290D01*
X179024312Y-80488834D01*
G37*
X177384000Y-90695580D02*
X177431619Y-90743200D01*
X177431619Y-90743200D02*
X177384000Y-90790819D01*
X177384000Y-90790819D02*
X177336381Y-90743200D01*
X177336381Y-90743200D02*
X177384000Y-90695580D01*
X177384000Y-90695580D02*
X177384000Y-90790819D01*
%LPC*%
D11*
X162275000Y-86750000D03*
D12*
X160275000Y-85150000D03*
D13*
X160275000Y-82650000D03*
D14*
X136500000Y-93100000D03*
D15*
X136500000Y-90560000D03*
D14*
X124900000Y-84975000D03*
D15*
X124900000Y-82435000D03*
D11*
X148300000Y-80200000D03*
D16*
X149900000Y-78200000D03*
D17*
X152400000Y-78200000D03*
D18*
X128870000Y-119800000D03*
X130140000Y-71540000D03*
X180940000Y-86780000D03*
X180940000Y-114720000D03*
D19*
X150460000Y-119800000D03*
X153000000Y-119800000D03*
X181067000Y-91860000D03*
X165700000Y-119800000D03*
X168240000Y-119800000D03*
X170780000Y-119800000D03*
X173320000Y-119800000D03*
X175860000Y-119800000D03*
X178400000Y-119800000D03*
X138776000Y-71540000D03*
X142840000Y-119800000D03*
X178400000Y-71540000D03*
X175860000Y-71540000D03*
X173320000Y-71540000D03*
X170780000Y-71540000D03*
X168240000Y-71540000D03*
X165700000Y-71540000D03*
X163160000Y-71540000D03*
X160620000Y-71540000D03*
X156556000Y-71540000D03*
X154016000Y-71540000D03*
X151476000Y-71540000D03*
X148936000Y-71540000D03*
X146396000Y-71540000D03*
X143856000Y-71540000D03*
D20*
X141316000Y-71540000D03*
X155540000Y-119800000D03*
X158080000Y-119800000D03*
X181067000Y-96940000D03*
D19*
X145380000Y-119800000D03*
X178527000Y-91860000D03*
X181067000Y-94400000D03*
X147920000Y-119800000D03*
X178527000Y-96940000D03*
X178527000Y-94400000D03*
X133696000Y-71540000D03*
X136236000Y-71540000D03*
X160620000Y-119800000D03*
D11*
X126875000Y-97300000D03*
D21*
X124875000Y-95700000D03*
D22*
X124875000Y-93200000D03*
X124875000Y-90700000D03*
D11*
X162100000Y-112000000D03*
D23*
X160500000Y-114000000D03*
D17*
X158000000Y-114000000D03*
%LPD*%
M02*
