M48
; DRILL file {KiCad 7.0.8} date Sun Jan 21 00:43:32 2024
; FORMAT={-:-/ absolute / metric / decimal}
; #@! TF.CreationDate,2024-01-21T00:43:32-07:00
; #@! TF.GenerationSoftware,Kicad,Pcbnew,7.0.8
; #@! TF.FileFunction,Plated,1,2,PTH
FMAT,2
METRIC
; #@! TA.AperFunction,Plated,PTH,ViaDrill
T1C0.400
; #@! TA.AperFunction,Plated,PTH,ComponentDrill
T2C0.950
; #@! TA.AperFunction,Plated,PTH,ComponentDrill
T3C1.000
; #@! TA.AperFunction,Plated,PTH,ComponentDrill
T4C1.100
%
G90
G05
T1
X159.2Y-73.8
X161.5Y-85.8
X165.8Y-82.0
X177.4Y-83.8
X187.8Y-108.9
T2
X186.425Y-78.65
X186.425Y-81.15
X186.425Y-83.65
X186.425Y-86.15
T3
X175.3Y-86.0
X175.3Y-88.54
X191.075Y-105.445
X191.075Y-107.985
X191.075Y-110.525
T4
X134.0Y-78.76
X134.0Y-81.3
X134.0Y-83.84
X134.0Y-86.38
X134.0Y-88.92
X134.0Y-91.46
X134.0Y-94.0
X134.0Y-96.54
X134.0Y-99.08
X134.0Y-101.62
X134.0Y-104.16
X134.0Y-106.7
X134.0Y-109.24
X134.0Y-111.78
X136.54Y-104.16
X136.54Y-106.7
X136.54Y-111.78
X139.08Y-104.16
X139.08Y-106.7
X139.08Y-111.78
X141.62Y-104.16
X141.62Y-106.7
X141.62Y-111.78
X144.16Y-104.16
X144.16Y-106.7
X144.16Y-111.78
X146.7Y-81.3
X146.7Y-104.16
X146.7Y-106.7
X146.7Y-111.78
X149.24Y-78.76
X149.24Y-81.3
X149.24Y-83.84
X149.24Y-86.38
X149.24Y-88.92
X149.24Y-91.46
X149.24Y-94.0
X149.24Y-96.54
X149.24Y-99.08
X149.24Y-101.62
X149.24Y-104.16
X149.24Y-106.7
X149.24Y-109.24
X149.24Y-111.78
T0
M30
