%TF.GenerationSoftware,KiCad,Pcbnew,9.0.2*%
%TF.CreationDate,2025-06-15T01:14:31-07:00*%
%TF.ProjectId,SDM26LoggerV3.3,53444d32-364c-46f6-9767-657256332e33,rev?*%
%TF.SameCoordinates,Original*%
%TF.FileFunction,Soldermask,Bot*%
%TF.FilePolarity,Negative*%
%FSLAX46Y46*%
G04 Gerber Fmt 4.6, Leading zero omitted, Abs format (unit mm)*
G04 Created by KiCad (PCBNEW 9.0.2) date 2025-06-15 01:14:31*
%MOMM*%
%LPD*%
G01*
G04 APERTURE LIST*
%ADD10O,1.900000X1.200000*%
%ADD11C,1.450000*%
%ADD12C,1.500000*%
%ADD13C,3.400000*%
%ADD14R,1.416000X1.416000*%
%ADD15C,1.416000*%
%ADD16C,2.844800*%
%ADD17C,2.600000*%
%ADD18O,1.200000X1.900000*%
G04 APERTURE END LIST*
D10*
%TO.C,J2*%
X90962500Y-99900000D03*
D11*
X93662500Y-100900000D03*
X93662500Y-105900000D03*
D10*
X90962500Y-106900000D03*
%TD*%
D12*
%TO.C,J1*%
X104677500Y-115800000D03*
X104677500Y-113300000D03*
X102677500Y-113300000D03*
X102677500Y-115800000D03*
D13*
X99967500Y-108530000D03*
X99967500Y-120570000D03*
%TD*%
D14*
%TO.C,LED3*%
X95000000Y-75100000D03*
D15*
X95000000Y-72560000D03*
%TD*%
D14*
%TO.C,LED4*%
X95000000Y-82100000D03*
D15*
X95000000Y-79560000D03*
%TD*%
D16*
%TO.C,J5*%
X119400005Y-77500115D03*
X160399999Y-77500115D03*
D17*
X153899999Y-82000000D03*
X149900000Y-82000000D03*
X145900000Y-82000000D03*
X141900000Y-82000000D03*
X137900001Y-82000000D03*
X133900001Y-82000000D03*
X129900002Y-82000000D03*
X125900002Y-82000000D03*
X151900001Y-78000000D03*
X147900001Y-78000000D03*
X143900001Y-78000000D03*
X139900002Y-78000000D03*
X135900002Y-78000000D03*
X131900003Y-78000000D03*
X127900003Y-78000000D03*
X153899999Y-74000000D03*
X149900000Y-74000000D03*
X145900000Y-74000000D03*
X141900000Y-74000000D03*
X137900001Y-74000000D03*
X133900001Y-74000000D03*
X129900002Y-74000000D03*
X125900002Y-74000000D03*
%TD*%
D14*
%TO.C,LED2*%
X95000000Y-96100000D03*
D15*
X95000000Y-93560000D03*
%TD*%
D18*
%TO.C,J3*%
X107200000Y-71500000D03*
D11*
X106200000Y-74200000D03*
X101200000Y-74200000D03*
D18*
X100200000Y-71500000D03*
%TD*%
D16*
%TO.C,J6*%
X160599995Y-150499885D03*
X119600001Y-150499885D03*
D17*
X126100001Y-146000000D03*
X130100000Y-146000000D03*
X134100000Y-146000000D03*
X138100000Y-146000000D03*
X142099999Y-146000000D03*
X146099999Y-146000000D03*
X150099998Y-146000000D03*
X154099998Y-146000000D03*
X128099999Y-150000000D03*
X132099999Y-150000000D03*
X136099999Y-150000000D03*
X140099998Y-150000000D03*
X144099998Y-150000000D03*
X148099997Y-150000000D03*
X152099997Y-150000000D03*
X126100001Y-154000000D03*
X130100000Y-154000000D03*
X134100000Y-154000000D03*
X138100000Y-154000000D03*
X142099999Y-154000000D03*
X146099999Y-154000000D03*
X150099998Y-154000000D03*
X154099998Y-154000000D03*
%TD*%
D14*
%TO.C,LED1*%
X95000000Y-89100000D03*
D15*
X95000000Y-86560000D03*
%TD*%
M02*
