%TF.GenerationSoftware,KiCad,Pcbnew,9.0.2*%
%TF.CreationDate,2025-06-15T01:14:31-07:00*%
%TF.ProjectId,SDM26LoggerV3.3,53444d32-364c-46f6-9767-657256332e33,rev?*%
%TF.SameCoordinates,Original*%
%TF.FileFunction,Paste,Top*%
%TF.FilePolarity,Positive*%
%FSLAX46Y46*%
G04 Gerber Fmt 4.6, Leading zero omitted, Abs format (unit mm)*
G04 Created by KiCad (PCBNEW 9.0.2) date 2025-06-15 01:14:31*
%MOMM*%
%LPD*%
G01*
G04 APERTURE LIST*
G04 Aperture macros list*
%AMRoundRect*
0 Rectangle with rounded corners*
0 $1 Rounding radius*
0 $2 $3 $4 $5 $6 $7 $8 $9 X,Y pos of 4 corners*
0 Add a 4 corners polygon primitive as box body*
4,1,4,$2,$3,$4,$5,$6,$7,$8,$9,$2,$3,0*
0 Add four circle primitives for the rounded corners*
1,1,$1+$1,$2,$3*
1,1,$1+$1,$4,$5*
1,1,$1+$1,$6,$7*
1,1,$1+$1,$8,$9*
0 Add four rect primitives between the rounded corners*
20,1,$1+$1,$2,$3,$4,$5,0*
20,1,$1+$1,$4,$5,$6,$7,0*
20,1,$1+$1,$6,$7,$8,$9,0*
20,1,$1+$1,$8,$9,$2,$3,0*%
G04 Aperture macros list end*
%ADD10RoundRect,0.225000X0.225000X0.250000X-0.225000X0.250000X-0.225000X-0.250000X0.225000X-0.250000X0*%
%ADD11RoundRect,0.225000X0.250000X-0.225000X0.250000X0.225000X-0.250000X0.225000X-0.250000X-0.225000X0*%
%ADD12RoundRect,0.075000X0.075000X-0.260000X0.075000X0.260000X-0.075000X0.260000X-0.075000X-0.260000X0*%
%ADD13RoundRect,0.200000X0.200000X0.275000X-0.200000X0.275000X-0.200000X-0.275000X0.200000X-0.275000X0*%
%ADD14RoundRect,0.200000X-0.275000X0.200000X-0.275000X-0.200000X0.275000X-0.200000X0.275000X0.200000X0*%
%ADD15R,2.950000X3.500000*%
%ADD16RoundRect,0.200000X-0.200000X-0.275000X0.200000X-0.275000X0.200000X0.275000X-0.200000X0.275000X0*%
%ADD17R,1.350000X0.400000*%
%ADD18R,1.900000X1.500000*%
%ADD19R,1.100000X0.850000*%
%ADD20R,1.100000X0.750000*%
%ADD21R,1.000000X1.200000*%
%ADD22R,1.350000X1.550000*%
%ADD23R,1.350000X1.900000*%
%ADD24R,1.800000X1.170000*%
%ADD25RoundRect,0.150000X0.150000X-0.512500X0.150000X0.512500X-0.150000X0.512500X-0.150000X-0.512500X0*%
%ADD26R,1.000000X0.300000*%
%ADD27R,0.300000X1.000000*%
%ADD28R,3.350000X3.350000*%
%ADD29R,1.800000X0.800000*%
%ADD30R,0.300000X0.475000*%
%ADD31RoundRect,0.250000X1.500000X0.550000X-1.500000X0.550000X-1.500000X-0.550000X1.500000X-0.550000X0*%
%ADD32RoundRect,0.100000X0.100000X-0.637500X0.100000X0.637500X-0.100000X0.637500X-0.100000X-0.637500X0*%
%ADD33R,1.500000X0.900000*%
%ADD34R,0.900000X1.500000*%
%ADD35R,0.900000X0.900000*%
%ADD36R,0.800000X1.150000*%
%ADD37RoundRect,0.150000X-0.825000X-0.150000X0.825000X-0.150000X0.825000X0.150000X-0.825000X0.150000X0*%
%ADD38RoundRect,0.225000X-0.225000X-0.250000X0.225000X-0.250000X0.225000X0.250000X-0.225000X0.250000X0*%
%ADD39RoundRect,0.225000X-0.250000X0.225000X-0.250000X-0.225000X0.250000X-0.225000X0.250000X0.225000X0*%
%ADD40R,0.950000X1.750000*%
%ADD41R,3.250000X1.750000*%
%ADD42R,0.700000X0.300000*%
%ADD43R,1.750000X2.500000*%
%ADD44RoundRect,0.200000X0.275000X-0.200000X0.275000X0.200000X-0.275000X0.200000X-0.275000X-0.200000X0*%
%ADD45RoundRect,0.050000X0.285000X0.100000X-0.285000X0.100000X-0.285000X-0.100000X0.285000X-0.100000X0*%
%ADD46R,1.750000X0.950000*%
%ADD47R,1.750000X3.250000*%
%ADD48R,0.600000X1.250000*%
%ADD49RoundRect,0.100000X0.400000X-0.400000X0.400000X0.400000X-0.400000X0.400000X-0.400000X-0.400000X0*%
%ADD50RoundRect,0.105000X0.995000X-0.420000X0.995000X0.420000X-0.995000X0.420000X-0.995000X-0.420000X0*%
%ADD51RoundRect,0.050000X0.175000X0.050000X-0.175000X0.050000X-0.175000X-0.050000X0.175000X-0.050000X0*%
%ADD52RoundRect,0.075000X0.075000X1.325000X-0.075000X1.325000X-0.075000X-1.325000X0.075000X-1.325000X0*%
%ADD53RoundRect,0.150000X0.512500X0.150000X-0.512500X0.150000X-0.512500X-0.150000X0.512500X-0.150000X0*%
%ADD54R,0.400000X1.350000*%
%ADD55R,1.500000X1.900000*%
%ADD56RoundRect,0.150000X0.150000X-0.825000X0.150000X0.825000X-0.150000X0.825000X-0.150000X-0.825000X0*%
%ADD57RoundRect,0.147500X-0.172500X0.147500X-0.172500X-0.147500X0.172500X-0.147500X0.172500X0.147500X0*%
%ADD58R,0.500000X1.050000*%
%ADD59R,1.900000X1.100000*%
%ADD60RoundRect,0.250000X-0.550000X1.500000X-0.550000X-1.500000X0.550000X-1.500000X0.550000X1.500000X0*%
%ADD61R,0.800000X1.200000*%
G04 APERTURE END LIST*
D10*
%TO.C,C18*%
X127875000Y-103200000D03*
X126325000Y-103200000D03*
%TD*%
D11*
%TO.C,C2*%
X122100000Y-136575000D03*
X122100000Y-135025000D03*
%TD*%
D12*
%TO.C,U6*%
X146340000Y-132540000D03*
X146840000Y-132540000D03*
X147340000Y-132540000D03*
X147840000Y-132540000D03*
X147840000Y-131060000D03*
X147340000Y-131060000D03*
X146840000Y-131060000D03*
X146340000Y-131060000D03*
%TD*%
D13*
%TO.C,R30*%
X111725000Y-103800000D03*
X110075000Y-103800000D03*
%TD*%
D14*
%TO.C,R4*%
X100500000Y-88075000D03*
X100500000Y-89725000D03*
%TD*%
D15*
%TO.C,L1*%
X117875000Y-120000000D03*
X123325000Y-120000000D03*
%TD*%
D16*
%TO.C,R18*%
X146175000Y-133900000D03*
X147825000Y-133900000D03*
%TD*%
D10*
%TO.C,C37*%
X157275000Y-123100000D03*
X155725000Y-123100000D03*
%TD*%
D13*
%TO.C,R24*%
X148925000Y-111400000D03*
X147275000Y-111400000D03*
%TD*%
D17*
%TO.C,J2*%
X93662500Y-102100000D03*
X93662500Y-102750000D03*
X93662500Y-103400000D03*
X93662500Y-104050000D03*
X93662500Y-104700000D03*
D18*
X90962500Y-102400000D03*
X90962500Y-104400000D03*
%TD*%
D10*
%TO.C,C16*%
X128600000Y-115300000D03*
X127050000Y-115300000D03*
%TD*%
D19*
%TO.C,J4*%
X90570000Y-132100000D03*
X90570000Y-131000000D03*
X90570000Y-129900000D03*
X90570000Y-128800000D03*
X90570000Y-127700000D03*
X90570000Y-126600000D03*
X90570000Y-125500000D03*
D20*
X90570000Y-124450000D03*
D21*
X96720000Y-134735000D03*
X100420000Y-134735000D03*
D22*
X90695000Y-134560000D03*
D23*
X101395000Y-131235000D03*
X101395000Y-125265000D03*
D24*
X90920000Y-123240000D03*
%TD*%
D13*
%TO.C,R14*%
X128725000Y-88900000D03*
X127075000Y-88900000D03*
%TD*%
D25*
%TO.C,U5*%
X103050000Y-79175000D03*
X104000000Y-79175000D03*
X104950000Y-79175000D03*
X104950000Y-76900000D03*
X104000000Y-76900000D03*
X103050000Y-76900000D03*
%TD*%
D14*
%TO.C,R2*%
X104000000Y-89675000D03*
X104000000Y-91325000D03*
%TD*%
D26*
%TO.C,IC2*%
X102100000Y-99510000D03*
X102100000Y-100010000D03*
X102100000Y-100510000D03*
X102100000Y-101010000D03*
X102100000Y-101510000D03*
X102100000Y-102010000D03*
X102100000Y-102510000D03*
D27*
X102950000Y-103360000D03*
X103450000Y-103360000D03*
X103950000Y-103360000D03*
X104450000Y-103360000D03*
X104950000Y-103360000D03*
X105450000Y-103360000D03*
X105950000Y-103360000D03*
D26*
X106800000Y-102510000D03*
X106800000Y-102010000D03*
X106800000Y-101510000D03*
X106800000Y-101010000D03*
X106800000Y-100510000D03*
X106800000Y-100010000D03*
X106800000Y-99510000D03*
D27*
X105950000Y-98660000D03*
X105450000Y-98660000D03*
X104950000Y-98660000D03*
X104450000Y-98660000D03*
X103950000Y-98660000D03*
X103450000Y-98660000D03*
X102950000Y-98660000D03*
D28*
X104450000Y-101010000D03*
%TD*%
D29*
%TO.C,IC7*%
X110500000Y-85500000D03*
X110500000Y-86600000D03*
X110500000Y-87700000D03*
X110500000Y-88800000D03*
X110500000Y-89900000D03*
X110500000Y-91000000D03*
X110500000Y-92100000D03*
X110500000Y-95100000D03*
X110500000Y-96200000D03*
X110500000Y-97300000D03*
X110500000Y-98400000D03*
X110500000Y-99500000D03*
X122500000Y-99500000D03*
X122500000Y-98400000D03*
X122500000Y-97300000D03*
X122500000Y-96200000D03*
X122500000Y-95100000D03*
X122500000Y-92100000D03*
X122500000Y-91000000D03*
X122500000Y-89900000D03*
X122500000Y-88800000D03*
X122500000Y-87700000D03*
X122500000Y-86600000D03*
X122500000Y-85500000D03*
%TD*%
D30*
%TO.C,IC4*%
X119700000Y-126200000D03*
X120200000Y-126200000D03*
X120700000Y-126200000D03*
X121200000Y-126200000D03*
X121200000Y-124524000D03*
X120700000Y-124524000D03*
X120200000Y-124524000D03*
X119700000Y-124524000D03*
%TD*%
D14*
%TO.C,R28*%
X154100000Y-105075000D03*
X154100000Y-106725000D03*
%TD*%
D31*
%TO.C,C5*%
X140900000Y-99800000D03*
X135300000Y-99800000D03*
%TD*%
D32*
%TO.C,U1*%
X124825000Y-142462500D03*
X125475000Y-142462500D03*
X126125000Y-142462500D03*
X126775000Y-142462500D03*
X127425000Y-142462500D03*
X128075000Y-142462500D03*
X128725000Y-142462500D03*
X129375000Y-142462500D03*
X129375000Y-136737500D03*
X128725000Y-136737500D03*
X128075000Y-136737500D03*
X127425000Y-136737500D03*
X126775000Y-136737500D03*
X126125000Y-136737500D03*
X125475000Y-136737500D03*
X124825000Y-136737500D03*
%TD*%
D13*
%TO.C,R13*%
X102925000Y-106400000D03*
X101275000Y-106400000D03*
%TD*%
D11*
%TO.C,C11*%
X119700000Y-133575000D03*
X119700000Y-132025000D03*
%TD*%
D14*
%TO.C,R38*%
X131200000Y-107100000D03*
X131200000Y-108750000D03*
%TD*%
D33*
%TO.C,IC1*%
X109250000Y-155360000D03*
X109250000Y-154090000D03*
X109250000Y-152820000D03*
X109250000Y-151550000D03*
X109250000Y-150280000D03*
X109250000Y-149010000D03*
X109250000Y-147740000D03*
X109250000Y-146470000D03*
X109250000Y-145200000D03*
X109250000Y-143930000D03*
X109250000Y-142660000D03*
X109250000Y-141390000D03*
X109250000Y-140120000D03*
X109250000Y-138850000D03*
D34*
X107485000Y-137600000D03*
X106215000Y-137600000D03*
X104945000Y-137600000D03*
X103675000Y-137600000D03*
X102405000Y-137600000D03*
X101135000Y-137600000D03*
X99865000Y-137600000D03*
X98595000Y-137600000D03*
X97325000Y-137600000D03*
X96055000Y-137600000D03*
X94785000Y-137600000D03*
X93515000Y-137600000D03*
D33*
X91750000Y-138850000D03*
X91750000Y-140120000D03*
X91750000Y-141390000D03*
X91750000Y-142660000D03*
X91750000Y-143930000D03*
X91750000Y-145200000D03*
X91750000Y-146470000D03*
X91750000Y-147740000D03*
X91750000Y-149010000D03*
X91750000Y-150280000D03*
X91750000Y-151550000D03*
X91750000Y-152820000D03*
X91750000Y-154090000D03*
X91750000Y-155360000D03*
D35*
X102000000Y-147640000D03*
X102000000Y-149040000D03*
X103400000Y-149040000D03*
X103400000Y-147640000D03*
X103400000Y-146240000D03*
X102000000Y-146240000D03*
X100600000Y-146240000D03*
X100600000Y-147640000D03*
X100600000Y-149040000D03*
%TD*%
D14*
%TO.C,R37*%
X144500000Y-105075000D03*
X144500000Y-106725000D03*
%TD*%
D16*
%TO.C,R23*%
X147275000Y-118600000D03*
X148925000Y-118600000D03*
%TD*%
D36*
%TO.C,D7*%
X151700000Y-103250000D03*
X151700000Y-106750000D03*
%TD*%
D37*
%TO.C,U8*%
X134425000Y-132095000D03*
X134425000Y-133365000D03*
X134425000Y-134635000D03*
X134425000Y-135905000D03*
X139375000Y-135905000D03*
X139375000Y-134635000D03*
X139375000Y-133365000D03*
X139375000Y-132095000D03*
%TD*%
D11*
%TO.C,C10*%
X121200000Y-133575000D03*
X121200000Y-132025000D03*
%TD*%
D38*
%TO.C,C42*%
X146125000Y-108300000D03*
X147675000Y-108300000D03*
%TD*%
D14*
%TO.C,R15*%
X103000000Y-80775000D03*
X103000000Y-82425000D03*
%TD*%
%TO.C,R1*%
X102500000Y-89650000D03*
X102500000Y-91300000D03*
%TD*%
D39*
%TO.C,C26*%
X143700000Y-129925000D03*
X143700000Y-131475000D03*
%TD*%
D40*
%TO.C,IC3*%
X131700000Y-117150000D03*
X129400000Y-117150000D03*
X127100000Y-117150000D03*
D41*
X129400000Y-123450000D03*
%TD*%
D38*
%TO.C,C20*%
X147625000Y-129700000D03*
X149175000Y-129700000D03*
%TD*%
D14*
%TO.C,R20*%
X149300000Y-132375000D03*
X149300000Y-134025000D03*
%TD*%
D42*
%TO.C,IC8*%
X132400000Y-106600000D03*
X132400000Y-107100000D03*
X132400000Y-107600000D03*
X132400000Y-108100000D03*
X132400000Y-108600000D03*
X135300000Y-108600000D03*
X135300000Y-108100000D03*
X135300000Y-107600000D03*
X135300000Y-107100000D03*
X135300000Y-106600000D03*
D43*
X133850000Y-107600000D03*
%TD*%
D38*
%TO.C,C14*%
X117925000Y-114200000D03*
X119475000Y-114200000D03*
%TD*%
D16*
%TO.C,R9*%
X117875000Y-115700000D03*
X119525000Y-115700000D03*
%TD*%
D11*
%TO.C,C4*%
X126600000Y-109775000D03*
X126600000Y-108225000D03*
%TD*%
D44*
%TO.C,R27*%
X149300000Y-126225000D03*
X149300000Y-124575000D03*
%TD*%
D10*
%TO.C,C7*%
X115275000Y-142300000D03*
X113725000Y-142300000D03*
%TD*%
D13*
%TO.C,R8*%
X98525000Y-99600000D03*
X96875000Y-99600000D03*
%TD*%
D10*
%TO.C,C43*%
X135475000Y-110000000D03*
X133925000Y-110000000D03*
%TD*%
D45*
%TO.C,U3*%
X129440000Y-110750000D03*
X129440000Y-110250000D03*
X129440000Y-109750000D03*
X129440000Y-109250000D03*
X127960000Y-109250000D03*
X127960000Y-109750000D03*
X127960000Y-110250000D03*
X127960000Y-110750000D03*
%TD*%
D36*
%TO.C,D2*%
X146900000Y-128150000D03*
X146900000Y-124650000D03*
%TD*%
D16*
%TO.C,R26*%
X147275000Y-112900000D03*
X148925000Y-112900000D03*
%TD*%
D11*
%TO.C,C31*%
X107820818Y-79075280D03*
X107820818Y-77525280D03*
%TD*%
D39*
%TO.C,C22*%
X132100000Y-133425000D03*
X132100000Y-134975000D03*
%TD*%
D10*
%TO.C,C24*%
X141375000Y-138700000D03*
X139825000Y-138700000D03*
%TD*%
%TO.C,C29*%
X147775000Y-123100000D03*
X146225000Y-123100000D03*
%TD*%
D44*
%TO.C,R31*%
X154100000Y-126250000D03*
X154100000Y-124600000D03*
%TD*%
D38*
%TO.C,C40*%
X118625000Y-82700000D03*
X120175000Y-82700000D03*
%TD*%
D32*
%TO.C,U9*%
X153125000Y-118562500D03*
X153775000Y-118562500D03*
X154425000Y-118562500D03*
X155075000Y-118562500D03*
X155725000Y-118562500D03*
X156375000Y-118562500D03*
X157025000Y-118562500D03*
X157675000Y-118562500D03*
X157675000Y-112837500D03*
X157025000Y-112837500D03*
X156375000Y-112837500D03*
X155725000Y-112837500D03*
X155075000Y-112837500D03*
X154425000Y-112837500D03*
X153775000Y-112837500D03*
X153125000Y-112837500D03*
%TD*%
D38*
%TO.C,C38*%
X150925000Y-108300000D03*
X152475000Y-108300000D03*
%TD*%
D16*
%TO.C,R5*%
X128075000Y-107900000D03*
X129725000Y-107900000D03*
%TD*%
D10*
%TO.C,C41*%
X162075000Y-123000000D03*
X160525000Y-123000000D03*
%TD*%
D16*
%TO.C,R12*%
X104275000Y-104900000D03*
X105925000Y-104900000D03*
%TD*%
D14*
%TO.C,R32*%
X149300000Y-105075000D03*
X149300000Y-106725000D03*
%TD*%
D46*
%TO.C,IC6*%
X109700818Y-77530280D03*
X109700818Y-79830280D03*
X109700818Y-82130280D03*
D47*
X116000818Y-79830280D03*
%TD*%
D44*
%TO.C,R33*%
X106300000Y-85425000D03*
X106300000Y-83775000D03*
%TD*%
D25*
%TO.C,U2*%
X103900000Y-123975000D03*
X104850000Y-123975000D03*
X105800000Y-123975000D03*
X105800000Y-121700000D03*
X104850000Y-121700000D03*
X103900000Y-121700000D03*
%TD*%
D39*
%TO.C,C28*%
X151900000Y-114325000D03*
X151900000Y-115875000D03*
%TD*%
%TO.C,C27*%
X150400000Y-114325000D03*
X150400000Y-115875000D03*
%TD*%
D48*
%TO.C,Q1*%
X107005000Y-92900000D03*
X105095000Y-92900000D03*
X106050000Y-95000000D03*
%TD*%
D44*
%TO.C,R34*%
X100500000Y-83725000D03*
X100500000Y-82075000D03*
%TD*%
%TO.C,R21*%
X144500000Y-126225000D03*
X144500000Y-124575000D03*
%TD*%
D49*
%TO.C,AE1*%
X115000000Y-104075000D03*
D50*
X116500000Y-102600000D03*
D49*
X118000000Y-104075000D03*
D50*
X116500000Y-105550000D03*
%TD*%
D51*
%TO.C,U10*%
X104175000Y-129800000D03*
X104175000Y-129400000D03*
X104175000Y-129000000D03*
X104175000Y-128600000D03*
X104175000Y-128200000D03*
X104175000Y-127800000D03*
X104175000Y-127400000D03*
X104175000Y-127000000D03*
X103025000Y-127000000D03*
X103025000Y-127400000D03*
X103025000Y-127800000D03*
X103025000Y-128200000D03*
X103025000Y-128600000D03*
X103025000Y-129000000D03*
X103025000Y-129400000D03*
X103025000Y-129800000D03*
D52*
X103600000Y-128400000D03*
%TD*%
D53*
%TO.C,U4*%
X98547500Y-104060000D03*
X98547500Y-103110000D03*
X98547500Y-102160000D03*
X96272500Y-102160000D03*
X96272500Y-103110000D03*
X96272500Y-104060000D03*
%TD*%
D36*
%TO.C,D4*%
X151700000Y-128150000D03*
X151700000Y-124650000D03*
%TD*%
D14*
%TO.C,R29*%
X100500000Y-76275000D03*
X100500000Y-77925000D03*
%TD*%
D44*
%TO.C,R16*%
X104950000Y-82400000D03*
X104950000Y-80750000D03*
%TD*%
D16*
%TO.C,R25*%
X147275000Y-114400000D03*
X148925000Y-114400000D03*
%TD*%
D36*
%TO.C,D8*%
X161300000Y-128100000D03*
X161300000Y-124600000D03*
%TD*%
D10*
%TO.C,C33*%
X152475000Y-123100000D03*
X150925000Y-123100000D03*
%TD*%
D54*
%TO.C,J3*%
X105000000Y-74200000D03*
X104350000Y-74200000D03*
X103700000Y-74200000D03*
X103050000Y-74200000D03*
X102400000Y-74200000D03*
D55*
X104700000Y-71500000D03*
X102700000Y-71500000D03*
%TD*%
D36*
%TO.C,D9*%
X146900000Y-103250000D03*
X146900000Y-106750000D03*
%TD*%
%TO.C,D6*%
X156500000Y-128150000D03*
X156500000Y-124650000D03*
%TD*%
%TO.C,D3*%
X161300000Y-103250000D03*
X161300000Y-106750000D03*
%TD*%
D39*
%TO.C,C39*%
X107800000Y-83825000D03*
X107800000Y-85375000D03*
%TD*%
D16*
%TO.C,R10*%
X120875000Y-115700000D03*
X122525000Y-115700000D03*
%TD*%
D11*
%TO.C,C32*%
X107800000Y-82175000D03*
X107800000Y-80625000D03*
%TD*%
D56*
%TO.C,U7*%
X125214500Y-99707500D03*
X126484500Y-99707500D03*
X127754500Y-99707500D03*
X129024500Y-99707500D03*
X129024500Y-94757500D03*
X127754500Y-94757500D03*
X126484500Y-94757500D03*
X125214500Y-94757500D03*
%TD*%
D14*
%TO.C,R22*%
X158900000Y-105075000D03*
X158900000Y-106725000D03*
%TD*%
D10*
%TO.C,C1*%
X113275000Y-154800000D03*
X111725000Y-154800000D03*
%TD*%
D44*
%TO.C,R3*%
X131200000Y-111725000D03*
X131200000Y-110075000D03*
%TD*%
D48*
%TO.C,Q2*%
X103455000Y-92900000D03*
X101545000Y-92900000D03*
X102500000Y-95000000D03*
%TD*%
D14*
%TO.C,R17*%
X125224500Y-91197500D03*
X125224500Y-92847500D03*
%TD*%
D57*
%TO.C,L2*%
X112900000Y-102015000D03*
X112900000Y-102985000D03*
%TD*%
D38*
%TO.C,C35*%
X110125000Y-102300000D03*
X111675000Y-102300000D03*
%TD*%
D10*
%TO.C,C17*%
X102875000Y-104900000D03*
X101325000Y-104900000D03*
%TD*%
D58*
%TO.C,D1*%
X128550000Y-85250000D03*
X127250000Y-85250000D03*
X127900000Y-87350000D03*
%TD*%
D10*
%TO.C,C6*%
X115275000Y-149400000D03*
X113725000Y-149400000D03*
%TD*%
D44*
%TO.C,R36*%
X158900000Y-126250000D03*
X158900000Y-124600000D03*
%TD*%
D39*
%TO.C,C21*%
X130600000Y-133425000D03*
X130600000Y-134975000D03*
%TD*%
D11*
%TO.C,C3*%
X123600000Y-136575000D03*
X123600000Y-135025000D03*
%TD*%
D39*
%TO.C,C13*%
X122500000Y-124325000D03*
X122500000Y-125875000D03*
%TD*%
D44*
%TO.C,R7*%
X118400000Y-125925000D03*
X118400000Y-124275000D03*
%TD*%
D16*
%TO.C,R11*%
X104275000Y-106400000D03*
X105925000Y-106400000D03*
%TD*%
%TO.C,R39*%
X133850000Y-105200000D03*
X135500000Y-105200000D03*
%TD*%
D59*
%TO.C,Y1*%
X114950000Y-147080000D03*
X114950000Y-144580000D03*
%TD*%
D60*
%TO.C,C8*%
X125500000Y-127900000D03*
X125500000Y-133500000D03*
%TD*%
D38*
%TO.C,C9*%
X117925000Y-111200000D03*
X119475000Y-111200000D03*
%TD*%
D10*
%TO.C,C23*%
X141375000Y-137200000D03*
X139825000Y-137200000D03*
%TD*%
D38*
%TO.C,C15*%
X117925000Y-112700000D03*
X119475000Y-112700000D03*
%TD*%
D14*
%TO.C,R35*%
X107800000Y-86775000D03*
X107800000Y-88425000D03*
%TD*%
D10*
%TO.C,C19*%
X127875000Y-101700000D03*
X126325000Y-101700000D03*
%TD*%
D38*
%TO.C,C34*%
X155750000Y-108300000D03*
X157300000Y-108300000D03*
%TD*%
D13*
%TO.C,R6*%
X129725000Y-106400000D03*
X128075000Y-106400000D03*
%TD*%
D38*
%TO.C,C12*%
X130100000Y-115300000D03*
X131650000Y-115300000D03*
%TD*%
D61*
%TO.C,IC5*%
X131630000Y-92775000D03*
X134170000Y-92775000D03*
X134170000Y-86475000D03*
X131630000Y-86475000D03*
%TD*%
D38*
%TO.C,C30*%
X160650000Y-108300000D03*
X162200000Y-108300000D03*
%TD*%
D39*
%TO.C,C25*%
X142200000Y-129925000D03*
X142200000Y-131475000D03*
%TD*%
D44*
%TO.C,R19*%
X145200000Y-131525000D03*
X145200000Y-129875000D03*
%TD*%
D10*
%TO.C,C36*%
X113275000Y-105300000D03*
X111725000Y-105300000D03*
%TD*%
D36*
%TO.C,D5*%
X156500000Y-103250000D03*
X156500000Y-106750000D03*
%TD*%
M02*
