%TF.GenerationSoftware,KiCad,Pcbnew,9.0.2*%
%TF.CreationDate,2025-06-15T01:14:30-07:00*%
%TF.ProjectId,SDM26LoggerV3.3,53444d32-364c-46f6-9767-657256332e33,rev?*%
%TF.SameCoordinates,Original*%
%TF.FileFunction,Copper,L1,Top*%
%TF.FilePolarity,Positive*%
%FSLAX46Y46*%
G04 Gerber Fmt 4.6, Leading zero omitted, Abs format (unit mm)*
G04 Created by KiCad (PCBNEW 9.0.2) date 2025-06-15 01:14:30*
%MOMM*%
%LPD*%
G01*
G04 APERTURE LIST*
G04 Aperture macros list*
%AMRoundRect*
0 Rectangle with rounded corners*
0 $1 Rounding radius*
0 $2 $3 $4 $5 $6 $7 $8 $9 X,Y pos of 4 corners*
0 Add a 4 corners polygon primitive as box body*
4,1,4,$2,$3,$4,$5,$6,$7,$8,$9,$2,$3,0*
0 Add four circle primitives for the rounded corners*
1,1,$1+$1,$2,$3*
1,1,$1+$1,$4,$5*
1,1,$1+$1,$6,$7*
1,1,$1+$1,$8,$9*
0 Add four rect primitives between the rounded corners*
20,1,$1+$1,$2,$3,$4,$5,0*
20,1,$1+$1,$4,$5,$6,$7,0*
20,1,$1+$1,$6,$7,$8,$9,0*
20,1,$1+$1,$8,$9,$2,$3,0*%
G04 Aperture macros list end*
%TA.AperFunction,SMDPad,CuDef*%
%ADD10RoundRect,0.225000X0.225000X0.250000X-0.225000X0.250000X-0.225000X-0.250000X0.225000X-0.250000X0*%
%TD*%
%TA.AperFunction,SMDPad,CuDef*%
%ADD11RoundRect,0.225000X0.250000X-0.225000X0.250000X0.225000X-0.250000X0.225000X-0.250000X-0.225000X0*%
%TD*%
%TA.AperFunction,SMDPad,CuDef*%
%ADD12RoundRect,0.075000X0.075000X-0.260000X0.075000X0.260000X-0.075000X0.260000X-0.075000X-0.260000X0*%
%TD*%
%TA.AperFunction,SMDPad,CuDef*%
%ADD13RoundRect,0.200000X0.200000X0.275000X-0.200000X0.275000X-0.200000X-0.275000X0.200000X-0.275000X0*%
%TD*%
%TA.AperFunction,SMDPad,CuDef*%
%ADD14RoundRect,0.200000X-0.275000X0.200000X-0.275000X-0.200000X0.275000X-0.200000X0.275000X0.200000X0*%
%TD*%
%TA.AperFunction,SMDPad,CuDef*%
%ADD15R,2.950000X3.500000*%
%TD*%
%TA.AperFunction,SMDPad,CuDef*%
%ADD16R,1.500000X1.500000*%
%TD*%
%TA.AperFunction,SMDPad,CuDef*%
%ADD17RoundRect,0.200000X-0.200000X-0.275000X0.200000X-0.275000X0.200000X0.275000X-0.200000X0.275000X0*%
%TD*%
%TA.AperFunction,SMDPad,CuDef*%
%ADD18R,1.350000X0.400000*%
%TD*%
%TA.AperFunction,HeatsinkPad*%
%ADD19O,1.900000X1.200000*%
%TD*%
%TA.AperFunction,SMDPad,CuDef*%
%ADD20R,1.900000X1.200000*%
%TD*%
%TA.AperFunction,HeatsinkPad*%
%ADD21C,1.450000*%
%TD*%
%TA.AperFunction,SMDPad,CuDef*%
%ADD22R,1.900000X1.500000*%
%TD*%
%TA.AperFunction,SMDPad,CuDef*%
%ADD23R,1.100000X0.850000*%
%TD*%
%TA.AperFunction,SMDPad,CuDef*%
%ADD24R,1.100000X0.750000*%
%TD*%
%TA.AperFunction,SMDPad,CuDef*%
%ADD25R,1.000000X1.200000*%
%TD*%
%TA.AperFunction,SMDPad,CuDef*%
%ADD26R,1.350000X1.550000*%
%TD*%
%TA.AperFunction,SMDPad,CuDef*%
%ADD27R,1.350000X1.900000*%
%TD*%
%TA.AperFunction,SMDPad,CuDef*%
%ADD28R,1.800000X1.170000*%
%TD*%
%TA.AperFunction,SMDPad,CuDef*%
%ADD29RoundRect,0.150000X0.150000X-0.512500X0.150000X0.512500X-0.150000X0.512500X-0.150000X-0.512500X0*%
%TD*%
%TA.AperFunction,SMDPad,CuDef*%
%ADD30R,1.000000X0.300000*%
%TD*%
%TA.AperFunction,SMDPad,CuDef*%
%ADD31R,0.300000X1.000000*%
%TD*%
%TA.AperFunction,SMDPad,CuDef*%
%ADD32R,3.350000X3.350000*%
%TD*%
%TA.AperFunction,ComponentPad*%
%ADD33C,1.500000*%
%TD*%
%TA.AperFunction,ComponentPad*%
%ADD34C,3.400000*%
%TD*%
%TA.AperFunction,SMDPad,CuDef*%
%ADD35R,1.800000X0.800000*%
%TD*%
%TA.AperFunction,SMDPad,CuDef*%
%ADD36R,0.300000X0.475000*%
%TD*%
%TA.AperFunction,ComponentPad*%
%ADD37R,1.416000X1.416000*%
%TD*%
%TA.AperFunction,ComponentPad*%
%ADD38C,1.416000*%
%TD*%
%TA.AperFunction,SMDPad,CuDef*%
%ADD39RoundRect,0.250000X1.500000X0.550000X-1.500000X0.550000X-1.500000X-0.550000X1.500000X-0.550000X0*%
%TD*%
%TA.AperFunction,SMDPad,CuDef*%
%ADD40RoundRect,0.100000X0.100000X-0.637500X0.100000X0.637500X-0.100000X0.637500X-0.100000X-0.637500X0*%
%TD*%
%TA.AperFunction,SMDPad,CuDef*%
%ADD41R,1.500000X0.900000*%
%TD*%
%TA.AperFunction,SMDPad,CuDef*%
%ADD42R,0.900000X1.500000*%
%TD*%
%TA.AperFunction,SMDPad,CuDef*%
%ADD43R,0.900000X0.900000*%
%TD*%
%TA.AperFunction,SMDPad,CuDef*%
%ADD44R,0.800000X1.150000*%
%TD*%
%TA.AperFunction,SMDPad,CuDef*%
%ADD45RoundRect,0.150000X-0.825000X-0.150000X0.825000X-0.150000X0.825000X0.150000X-0.825000X0.150000X0*%
%TD*%
%TA.AperFunction,SMDPad,CuDef*%
%ADD46RoundRect,0.225000X-0.225000X-0.250000X0.225000X-0.250000X0.225000X0.250000X-0.225000X0.250000X0*%
%TD*%
%TA.AperFunction,SMDPad,CuDef*%
%ADD47RoundRect,0.225000X-0.250000X0.225000X-0.250000X-0.225000X0.250000X-0.225000X0.250000X0.225000X0*%
%TD*%
%TA.AperFunction,SMDPad,CuDef*%
%ADD48R,0.950000X1.750000*%
%TD*%
%TA.AperFunction,SMDPad,CuDef*%
%ADD49R,3.250000X1.750000*%
%TD*%
%TA.AperFunction,SMDPad,CuDef*%
%ADD50R,0.700000X0.300000*%
%TD*%
%TA.AperFunction,SMDPad,CuDef*%
%ADD51R,1.750000X2.500000*%
%TD*%
%TA.AperFunction,SMDPad,CuDef*%
%ADD52RoundRect,0.200000X0.275000X-0.200000X0.275000X0.200000X-0.275000X0.200000X-0.275000X-0.200000X0*%
%TD*%
%TA.AperFunction,SMDPad,CuDef*%
%ADD53RoundRect,0.050000X0.285000X0.100000X-0.285000X0.100000X-0.285000X-0.100000X0.285000X-0.100000X0*%
%TD*%
%TA.AperFunction,ComponentPad*%
%ADD54C,2.600000*%
%TD*%
%TA.AperFunction,SMDPad,CuDef*%
%ADD55R,1.750000X0.950000*%
%TD*%
%TA.AperFunction,SMDPad,CuDef*%
%ADD56R,1.750000X3.250000*%
%TD*%
%TA.AperFunction,SMDPad,CuDef*%
%ADD57R,0.600000X1.250000*%
%TD*%
%TA.AperFunction,SMDPad,CuDef*%
%ADD58RoundRect,0.100000X0.400000X-0.400000X0.400000X0.400000X-0.400000X0.400000X-0.400000X-0.400000X0*%
%TD*%
%TA.AperFunction,SMDPad,CuDef*%
%ADD59RoundRect,0.105000X0.995000X-0.420000X0.995000X0.420000X-0.995000X0.420000X-0.995000X-0.420000X0*%
%TD*%
%TA.AperFunction,SMDPad,CuDef*%
%ADD60RoundRect,0.050000X0.175000X0.050000X-0.175000X0.050000X-0.175000X-0.050000X0.175000X-0.050000X0*%
%TD*%
%TA.AperFunction,SMDPad,CuDef*%
%ADD61RoundRect,0.075000X0.075000X1.325000X-0.075000X1.325000X-0.075000X-1.325000X0.075000X-1.325000X0*%
%TD*%
%TA.AperFunction,SMDPad,CuDef*%
%ADD62RoundRect,0.150000X0.512500X0.150000X-0.512500X0.150000X-0.512500X-0.150000X0.512500X-0.150000X0*%
%TD*%
%TA.AperFunction,SMDPad,CuDef*%
%ADD63R,0.400000X1.350000*%
%TD*%
%TA.AperFunction,HeatsinkPad*%
%ADD64O,1.200000X1.900000*%
%TD*%
%TA.AperFunction,SMDPad,CuDef*%
%ADD65R,1.200000X1.900000*%
%TD*%
%TA.AperFunction,SMDPad,CuDef*%
%ADD66R,1.500000X1.900000*%
%TD*%
%TA.AperFunction,SMDPad,CuDef*%
%ADD67RoundRect,0.150000X0.150000X-0.825000X0.150000X0.825000X-0.150000X0.825000X-0.150000X-0.825000X0*%
%TD*%
%TA.AperFunction,SMDPad,CuDef*%
%ADD68RoundRect,0.147500X-0.172500X0.147500X-0.172500X-0.147500X0.172500X-0.147500X0.172500X0.147500X0*%
%TD*%
%TA.AperFunction,SMDPad,CuDef*%
%ADD69R,0.500000X1.050000*%
%TD*%
%TA.AperFunction,SMDPad,CuDef*%
%ADD70R,1.900000X1.100000*%
%TD*%
%TA.AperFunction,SMDPad,CuDef*%
%ADD71RoundRect,0.250000X-0.550000X1.500000X-0.550000X-1.500000X0.550000X-1.500000X0.550000X1.500000X0*%
%TD*%
%TA.AperFunction,SMDPad,CuDef*%
%ADD72R,0.800000X1.200000*%
%TD*%
%TA.AperFunction,ViaPad*%
%ADD73C,0.600000*%
%TD*%
%TA.AperFunction,ViaPad*%
%ADD74C,1.500000*%
%TD*%
%TA.AperFunction,Conductor*%
%ADD75C,0.300000*%
%TD*%
%TA.AperFunction,Conductor*%
%ADD76C,0.500000*%
%TD*%
%TA.AperFunction,Conductor*%
%ADD77C,0.200000*%
%TD*%
%TA.AperFunction,Conductor*%
%ADD78C,1.000000*%
%TD*%
%TA.AperFunction,Conductor*%
%ADD79C,0.156500*%
%TD*%
G04 APERTURE END LIST*
D10*
%TO.P,C18,1*%
%TO.N,+3.3V*%
X127875000Y-103200000D03*
%TO.P,C18,2*%
%TO.N,GND*%
X126325000Y-103200000D03*
%TD*%
D11*
%TO.P,C2,1*%
%TO.N,+5V*%
X122100000Y-136575000D03*
%TO.P,C2,2*%
%TO.N,GND*%
X122100000Y-135025000D03*
%TD*%
D12*
%TO.P,U6,1,GND*%
%TO.N,GND*%
X146340000Y-132540000D03*
%TO.P,U6,2,VOUT*%
%TO.N,+5VA*%
X146840000Y-132540000D03*
%TO.P,U6,3,VIN1*%
%TO.N,Net-(U6-MODE)*%
X147340000Y-132540000D03*
%TO.P,U6,4,PR1*%
%TO.N,Net-(U6-PR1)*%
X147840000Y-132540000D03*
%TO.P,U6,5,MODE*%
%TO.N,Net-(U6-MODE)*%
X147840000Y-131060000D03*
%TO.P,U6,6,VIN2*%
%TO.N,+5V*%
X147340000Y-131060000D03*
%TO.P,U6,7,VOUT*%
%TO.N,+5VA*%
X146840000Y-131060000D03*
%TO.P,U6,8,ST*%
%TO.N,Net-(U6-ST)*%
X146340000Y-131060000D03*
%TD*%
D13*
%TO.P,R30,1*%
%TO.N,/BIAS_T*%
X111725000Y-103800000D03*
%TO.P,R30,2*%
%TO.N,/VCC_RF*%
X110075000Y-103800000D03*
%TD*%
D14*
%TO.P,R4,1*%
%TO.N,+5V*%
X100500000Y-88075000D03*
%TO.P,R4,2*%
%TO.N,/PWR_LED*%
X100500000Y-89725000D03*
%TD*%
D15*
%TO.P,L1,1*%
%TO.N,/5V_SMPS_OUT*%
X117875000Y-120000000D03*
%TO.P,L1,2*%
%TO.N,/SMPS_SW*%
X123325000Y-120000000D03*
%TD*%
D16*
%TO.P,TP4,1,1*%
%TO.N,Net-(U6-ST)*%
X160900000Y-131000000D03*
%TD*%
D17*
%TO.P,R18,1*%
%TO.N,Net-(U6-MODE)*%
X146175000Y-133900000D03*
%TO.P,R18,2*%
%TO.N,Net-(U6-PR1)*%
X147825000Y-133900000D03*
%TD*%
D10*
%TO.P,C37,1*%
%TO.N,/AIN2*%
X157275000Y-123100000D03*
%TO.P,C37,2*%
%TO.N,GND*%
X155725000Y-123100000D03*
%TD*%
D13*
%TO.P,R24,1*%
%TO.N,Net-(U9-DIN)*%
X148925000Y-111400000D03*
%TO.P,R24,2*%
%TO.N,/ADC_DIN*%
X147275000Y-111400000D03*
%TD*%
D18*
%TO.P,J2,1,VBUS*%
%TO.N,VBUS*%
X93662500Y-102100000D03*
%TO.P,J2,2,D-*%
%TO.N,/USBM_D-*%
X93662500Y-102750000D03*
%TO.P,J2,3,D+*%
%TO.N,/USBM_D+*%
X93662500Y-103400000D03*
%TO.P,J2,4,ID*%
%TO.N,unconnected-(J2-ID-Pad4)*%
X93662500Y-104050000D03*
%TO.P,J2,5,GND*%
%TO.N,GND*%
X93662500Y-104700000D03*
D19*
%TO.P,J2,6,Shield*%
%TO.N,unconnected-(J2-Shield-Pad6)_4*%
X90962500Y-99900000D03*
D20*
%TO.N,unconnected-(J2-Shield-Pad6)_2*%
X90962500Y-100500000D03*
D21*
%TO.N,unconnected-(J2-Shield-Pad6)*%
X93662500Y-100900000D03*
D22*
%TO.N,unconnected-(J2-Shield-Pad6)_7*%
X90962500Y-102400000D03*
%TO.N,unconnected-(J2-Shield-Pad6)_6*%
X90962500Y-104400000D03*
D21*
%TO.N,unconnected-(J2-Shield-Pad6)_1*%
X93662500Y-105900000D03*
D20*
%TO.N,unconnected-(J2-Shield-Pad6)_5*%
X90962500Y-106300000D03*
D19*
%TO.N,unconnected-(J2-Shield-Pad6)_3*%
X90962500Y-106900000D03*
%TD*%
D10*
%TO.P,C16,1*%
%TO.N,GND*%
X128600000Y-115300000D03*
%TO.P,C16,2*%
%TO.N,+3.3V*%
X127050000Y-115300000D03*
%TD*%
D16*
%TO.P,TP6,1,1*%
%TO.N,/Safeboot*%
X160900000Y-92000000D03*
%TD*%
D23*
%TO.P,J4,1,DAT2*%
%TO.N,Net-(J4-DAT2)*%
X90570000Y-132100000D03*
%TO.P,J4,2,DAT3/CD*%
%TO.N,Net-(J4-DAT3{slash}CD)*%
X90570000Y-131000000D03*
%TO.P,J4,3,CMD*%
%TO.N,Net-(J4-CMD)*%
X90570000Y-129900000D03*
%TO.P,J4,4,VDD*%
%TO.N,+3.3V*%
X90570000Y-128800000D03*
%TO.P,J4,5,CLK*%
%TO.N,Net-(J4-CLK)*%
X90570000Y-127700000D03*
%TO.P,J4,6,VSS*%
%TO.N,GND*%
X90570000Y-126600000D03*
%TO.P,J4,7,DAT0*%
%TO.N,Net-(J4-DAT0)*%
X90570000Y-125500000D03*
D24*
%TO.P,J4,8,DAT1*%
%TO.N,Net-(J4-DAT1)*%
X90570000Y-124450000D03*
D25*
%TO.P,J4,9,DET_B*%
%TO.N,GND*%
X96720000Y-134735000D03*
%TO.P,J4,10,DET_A*%
%TO.N,/SD_CD*%
X100420000Y-134735000D03*
D26*
%TO.P,J4,11,SHIELD*%
%TO.N,GND*%
X90695000Y-134560000D03*
D27*
X101395000Y-131235000D03*
X101395000Y-125265000D03*
D28*
X90920000Y-123240000D03*
%TD*%
D13*
%TO.P,R14,1*%
%TO.N,Net-(IC5-Pad6)*%
X128725000Y-88900000D03*
%TO.P,R14,2*%
%TO.N,/CAN+*%
X127075000Y-88900000D03*
%TD*%
D29*
%TO.P,U5,1,I/O1*%
%TO.N,Net-(R15-Pad1)*%
X103050000Y-79175000D03*
%TO.P,U5,2,GND*%
%TO.N,GND*%
X104000000Y-79175000D03*
%TO.P,U5,3,I/O2*%
%TO.N,Net-(R16-Pad2)*%
X104950000Y-79175000D03*
%TO.P,U5,4,I/O2*%
%TO.N,/USBM2_D-*%
X104950000Y-76900000D03*
%TO.P,U5,5,VBUS*%
%TO.N,/GPS_VUSB*%
X104000000Y-76900000D03*
%TO.P,U5,6,I/O1*%
%TO.N,/USBM2_D+*%
X103050000Y-76900000D03*
%TD*%
D14*
%TO.P,R2,1*%
%TO.N,Net-(Q2-B)*%
X104000000Y-89675000D03*
%TO.P,R2,2*%
%TO.N,Net-(IC2-RTS)*%
X104000000Y-91325000D03*
%TD*%
D30*
%TO.P,IC2,1,DCD*%
%TO.N,unconnected-(IC2-DCD-Pad1)*%
X102100000Y-99510000D03*
%TO.P,IC2,2,RI/CLK*%
%TO.N,unconnected-(IC2-RI{slash}CLK-Pad2)*%
X102100000Y-100010000D03*
%TO.P,IC2,3,GND*%
%TO.N,GND*%
X102100000Y-100510000D03*
%TO.P,IC2,4,D+*%
%TO.N,/PROG_D+*%
X102100000Y-101010000D03*
%TO.P,IC2,5,D-*%
%TO.N,/PROG_D-*%
X102100000Y-101510000D03*
%TO.P,IC2,6,VDD*%
%TO.N,+3.3V*%
X102100000Y-102010000D03*
%TO.P,IC2,7,VREGIN*%
X102100000Y-102510000D03*
D31*
%TO.P,IC2,8,VBUS*%
%TO.N,Net-(IC2-VBUS)*%
X102950000Y-103360000D03*
%TO.P,IC2,9,RSTB*%
%TO.N,/RSTB*%
X103450000Y-103360000D03*
%TO.P,IC2,10,NC*%
%TO.N,unconnected-(IC2-NC-Pad10)*%
X103950000Y-103360000D03*
%TO.P,IC2,11,SUSPENDB*%
%TO.N,unconnected-(IC2-SUSPENDB-Pad11)*%
X104450000Y-103360000D03*
%TO.P,IC2,12,SUSPEND*%
%TO.N,unconnected-(IC2-SUSPEND-Pad12)*%
X104950000Y-103360000D03*
%TO.P,IC2,13,CHREN*%
%TO.N,unconnected-(IC2-CHREN-Pad13)*%
X105450000Y-103360000D03*
%TO.P,IC2,14,CHR1*%
%TO.N,unconnected-(IC2-CHR1-Pad14)*%
X105950000Y-103360000D03*
D30*
%TO.P,IC2,15,CHR0*%
%TO.N,unconnected-(IC2-CHR0-Pad15)*%
X106800000Y-102510000D03*
%TO.P,IC2,16,GPIO.3/WAKEUP*%
%TO.N,unconnected-(IC2-GPIO.3{slash}WAKEUP-Pad16)*%
X106800000Y-102010000D03*
%TO.P,IC2,17,GPIO.2/RS485*%
%TO.N,unconnected-(IC2-GPIO.2{slash}RS485-Pad17)*%
X106800000Y-101510000D03*
%TO.P,IC2,18,GPIO.1/RXT*%
%TO.N,unconnected-(IC2-GPIO.1{slash}RXT-Pad18)*%
X106800000Y-101010000D03*
%TO.P,IC2,19,GPIO.0/TXT*%
%TO.N,unconnected-(IC2-GPIO.0{slash}TXT-Pad19)*%
X106800000Y-100510000D03*
%TO.P,IC2,20,GPIO.6*%
%TO.N,unconnected-(IC2-GPIO.6-Pad20)*%
X106800000Y-100010000D03*
%TO.P,IC2,21,GPIO.5*%
%TO.N,unconnected-(IC2-GPIO.5-Pad21)*%
X106800000Y-99510000D03*
D31*
%TO.P,IC2,22,GPIO.4*%
%TO.N,unconnected-(IC2-GPIO.4-Pad22)*%
X105950000Y-98660000D03*
%TO.P,IC2,23,CTS*%
%TO.N,unconnected-(IC2-CTS-Pad23)*%
X105450000Y-98660000D03*
%TO.P,IC2,24,RTS*%
%TO.N,Net-(IC2-RTS)*%
X104950000Y-98660000D03*
%TO.P,IC2,25,RXD*%
%TO.N,/U0TXD*%
X104450000Y-98660000D03*
%TO.P,IC2,26,TXD*%
%TO.N,/U0RXD*%
X103950000Y-98660000D03*
%TO.P,IC2,27,DSR*%
%TO.N,unconnected-(IC2-DSR-Pad27)*%
X103450000Y-98660000D03*
%TO.P,IC2,28,DTR*%
%TO.N,Net-(IC2-DTR)*%
X102950000Y-98660000D03*
D32*
%TO.P,IC2,29,BGND*%
%TO.N,GND*%
X104450000Y-101010000D03*
%TD*%
D33*
%TO.P,J1,1,VBUS*%
%TO.N,VBUS*%
X104677500Y-115800000D03*
%TO.P,J1,2,D-*%
%TO.N,/USBB_D-*%
X104677500Y-113300000D03*
%TO.P,J1,3,D+*%
%TO.N,/USBB_D+*%
X102677500Y-113300000D03*
%TO.P,J1,4,GND*%
%TO.N,GND*%
X102677500Y-115800000D03*
D34*
%TO.P,J1,5,Shield*%
%TO.N,unconnected-(J1-Shield-Pad5)*%
X99967500Y-108530000D03*
%TO.P,J1,6*%
%TO.N,N/C*%
X99967500Y-120570000D03*
%TD*%
D35*
%TO.P,IC7,1,SAFEBOOT_N*%
%TO.N,/Safeboot*%
X110500000Y-85500000D03*
%TO.P,IC7,2,D_SEL*%
%TO.N,/D_SEL*%
X110500000Y-86600000D03*
%TO.P,IC7,3,TIMEPULSE*%
%TO.N,/PPS_LED*%
X110500000Y-87700000D03*
%TO.P,IC7,4,EXTINT*%
%TO.N,unconnected-(IC7-EXTINT-Pad4)*%
X110500000Y-88800000D03*
%TO.P,IC7,5,USB_DM*%
%TO.N,/GPS_D-*%
X110500000Y-89900000D03*
%TO.P,IC7,6,USB_DP*%
%TO.N,/GPS_D+*%
X110500000Y-91000000D03*
%TO.P,IC7,7,V_USB*%
%TO.N,/GNSS_USB_PWR*%
X110500000Y-92100000D03*
%TO.P,IC7,8,RESET_N*%
%TO.N,Net-(IC7-RESET_N)*%
X110500000Y-95100000D03*
%TO.P,IC7,9,VCC_RF*%
%TO.N,/VCC_RF*%
X110500000Y-96200000D03*
%TO.P,IC7,10,GND_1*%
%TO.N,GND*%
X110500000Y-97300000D03*
%TO.P,IC7,11,RF_IN*%
%TO.N,Net-(IC7-RF_IN)*%
X110500000Y-98400000D03*
%TO.P,IC7,12,GND_2*%
%TO.N,GND*%
X110500000Y-99500000D03*
%TO.P,IC7,13,GND_3*%
X122500000Y-99500000D03*
%TO.P,IC7,14,LNA_EN*%
%TO.N,unconnected-(IC7-LNA_EN-Pad14)*%
X122500000Y-98400000D03*
%TO.P,IC7,15,RTK_STAT*%
%TO.N,/RTK_STAT*%
X122500000Y-97300000D03*
%TO.P,IC7,16,TXD2*%
%TO.N,unconnected-(IC7-TXD2-Pad16)*%
X122500000Y-96200000D03*
%TO.P,IC7,17,RXD2*%
%TO.N,unconnected-(IC7-RXD2-Pad17)*%
X122500000Y-95100000D03*
%TO.P,IC7,18,SDA_/_SPI_CS_N*%
%TO.N,unconnected-(IC7-SDA_{slash}_SPI_CS_N-Pad18)*%
X122500000Y-92100000D03*
%TO.P,IC7,19,SCL_/_SPI_SLK*%
%TO.N,unconnected-(IC7-SCL_{slash}_SPI_SLK-Pad19)*%
X122500000Y-91000000D03*
%TO.P,IC7,20,TXD_/_SPI_SDO*%
%TO.N,/UART2_TX*%
X122500000Y-89900000D03*
%TO.P,IC7,21,RXD_/_SPI_SDI*%
%TO.N,/UART2_RX*%
X122500000Y-88800000D03*
%TO.P,IC7,22,V_BCKP*%
%TO.N,+3.3V*%
X122500000Y-87700000D03*
%TO.P,IC7,23,VCC*%
X122500000Y-86600000D03*
%TO.P,IC7,24,GND_4*%
%TO.N,GND*%
X122500000Y-85500000D03*
%TD*%
D36*
%TO.P,IC4,1,PG/SS*%
%TO.N,/PG*%
X119700000Y-126200000D03*
%TO.P,IC4,2,VIN*%
%TO.N,VCC*%
X120200000Y-126200000D03*
%TO.P,IC4,3,SW*%
%TO.N,/SMPS_SW*%
X120700000Y-126200000D03*
%TO.P,IC4,4,GND*%
%TO.N,GND*%
X121200000Y-126200000D03*
%TO.P,IC4,5,BOOT*%
%TO.N,/BTSB*%
X121200000Y-124524000D03*
%TO.P,IC4,6,EN*%
%TO.N,unconnected-(IC4-EN-Pad6)*%
X120700000Y-124524000D03*
%TO.P,IC4,7,MODE*%
%TO.N,unconnected-(IC4-MODE-Pad7)*%
X120200000Y-124524000D03*
%TO.P,IC4,8,FB*%
%TO.N,/SMPS_FB*%
X119700000Y-124524000D03*
%TD*%
D14*
%TO.P,R28,1*%
%TO.N,/AIN5_EXT*%
X154100000Y-105075000D03*
%TO.P,R28,2*%
%TO.N,/AIN5*%
X154100000Y-106725000D03*
%TD*%
D37*
%TO.P,LED3,1,K*%
%TO.N,Net-(LED3-K)*%
X95000000Y-75100000D03*
D38*
%TO.P,LED3,2,A*%
%TO.N,+5V*%
X95000000Y-72560000D03*
%TD*%
D39*
%TO.P,C5,1*%
%TO.N,+5V*%
X140900000Y-99800000D03*
%TO.P,C5,2*%
%TO.N,GND*%
X135300000Y-99800000D03*
%TD*%
D40*
%TO.P,U1,1,IN+*%
%TO.N,+BATT*%
X124825000Y-142462500D03*
%TO.P,U1,2,IN+*%
X125475000Y-142462500D03*
%TO.P,U1,3,IN+*%
X126125000Y-142462500D03*
%TO.P,U1,4,A1*%
%TO.N,GND*%
X126775000Y-142462500D03*
%TO.P,U1,5,A0*%
X127425000Y-142462500D03*
%TO.P,U1,6,GND*%
X128075000Y-142462500D03*
%TO.P,U1,7,ALERT*%
%TO.N,unconnected-(U1-ALERT-Pad7)*%
X128725000Y-142462500D03*
%TO.P,U1,8,SDA*%
%TO.N,/I2C1_SDA*%
X129375000Y-142462500D03*
%TO.P,U1,9,SCL*%
%TO.N,/I2C1_SCL*%
X129375000Y-136737500D03*
%TO.P,U1,10,VS*%
%TO.N,+5V*%
X128725000Y-136737500D03*
%TO.P,U1,11,GND*%
%TO.N,GND*%
X128075000Y-136737500D03*
%TO.P,U1,12,VBUS*%
%TO.N,+BATT*%
X127425000Y-136737500D03*
%TO.P,U1,13,NC*%
%TO.N,unconnected-(U1-NC-Pad13)*%
X126775000Y-136737500D03*
%TO.P,U1,14,IN-*%
%TO.N,VCC*%
X126125000Y-136737500D03*
%TO.P,U1,15,IN-*%
X125475000Y-136737500D03*
%TO.P,U1,16,IN-*%
X124825000Y-136737500D03*
%TD*%
D13*
%TO.P,R13,1*%
%TO.N,Net-(IC2-VBUS)*%
X102925000Y-106400000D03*
%TO.P,R13,2*%
%TO.N,GND*%
X101275000Y-106400000D03*
%TD*%
D11*
%TO.P,C11,1*%
%TO.N,GND*%
X119700000Y-133575000D03*
%TO.P,C11,2*%
%TO.N,VCC*%
X119700000Y-132025000D03*
%TD*%
D14*
%TO.P,R38,1*%
%TO.N,Net-(IC8-EN{slash}UVLO)*%
X131200000Y-107100000D03*
%TO.P,R38,2*%
%TO.N,/EFUSE IN*%
X131200000Y-108750000D03*
%TD*%
D41*
%TO.P,IC1,1,GND_1*%
%TO.N,GND*%
X109250000Y-155360000D03*
%TO.P,IC1,2,3V3*%
%TO.N,Net-(IC1-3V3)*%
X109250000Y-154090000D03*
%TO.P,IC1,3,EN*%
%TO.N,/CHIP_PU*%
X109250000Y-152820000D03*
%TO.P,IC1,4,IO4*%
%TO.N,/ADC_CS*%
X109250000Y-151550000D03*
%TO.P,IC1,5,IO5*%
%TO.N,/ADC_CLK*%
X109250000Y-150280000D03*
%TO.P,IC1,6,IO6*%
%TO.N,/ADC_DOUT*%
X109250000Y-149010000D03*
%TO.P,IC1,7,IO7*%
%TO.N,/ADC_DIN*%
X109250000Y-147740000D03*
%TO.P,IC1,8,IO15*%
%TO.N,/XTAL_32K_P*%
X109250000Y-146470000D03*
%TO.P,IC1,9,IO16*%
%TO.N,/XTAL_32K_N*%
X109250000Y-145200000D03*
%TO.P,IC1,10,IO17*%
%TO.N,/CAN_TERM*%
X109250000Y-143930000D03*
%TO.P,IC1,11,IO18*%
%TO.N,/CAN_CTX*%
X109250000Y-142660000D03*
%TO.P,IC1,12,IO8*%
%TO.N,/CAN_RTX*%
X109250000Y-141390000D03*
%TO.P,IC1,13,IO19*%
%TO.N,/UART2_TX*%
X109250000Y-140120000D03*
%TO.P,IC1,14,IO20*%
%TO.N,/UART2_RX*%
X109250000Y-138850000D03*
D42*
%TO.P,IC1,15,IO3*%
%TO.N,/UART1_D-*%
X107485000Y-137600000D03*
%TO.P,IC1,16,IO46*%
%TO.N,/UART1_D+*%
X106215000Y-137600000D03*
%TO.P,IC1,17,IO9*%
%TO.N,/SD_DAT1*%
X104945000Y-137600000D03*
%TO.P,IC1,18,IO10*%
%TO.N,/SD_DAT0*%
X103675000Y-137600000D03*
%TO.P,IC1,19,IO11*%
%TO.N,/SD_CLK*%
X102405000Y-137600000D03*
%TO.P,IC1,20,IO12*%
%TO.N,/SD_CMD*%
X101135000Y-137600000D03*
%TO.P,IC1,21,IO13*%
%TO.N,/SD_DAT3*%
X99865000Y-137600000D03*
%TO.P,IC1,22,IO14*%
%TO.N,/SD_DAT2*%
X98595000Y-137600000D03*
%TO.P,IC1,23,IO21*%
%TO.N,unconnected-(IC1-IO21-Pad23)*%
X97325000Y-137600000D03*
%TO.P,IC1,24,IO47*%
%TO.N,/I2C1_SCL*%
X96055000Y-137600000D03*
%TO.P,IC1,25,IO48*%
%TO.N,/I2C1_SDA*%
X94785000Y-137600000D03*
%TO.P,IC1,26,IO45*%
%TO.N,/SD_CD*%
X93515000Y-137600000D03*
D41*
%TO.P,IC1,27,IO0*%
%TO.N,/GPIO0*%
X91750000Y-138850000D03*
%TO.P,IC1,28,IO35*%
%TO.N,/USER_LED*%
X91750000Y-140120000D03*
%TO.P,IC1,29,IO36*%
%TO.N,unconnected-(IC1-IO36-Pad29)*%
X91750000Y-141390000D03*
%TO.P,IC1,30,IO37*%
%TO.N,unconnected-(IC1-IO37-Pad30)*%
X91750000Y-142660000D03*
%TO.P,IC1,31,IO38*%
%TO.N,unconnected-(IC1-IO38-Pad31)*%
X91750000Y-143930000D03*
%TO.P,IC1,32,IO39*%
%TO.N,unconnected-(IC1-IO39-Pad32)*%
X91750000Y-145200000D03*
%TO.P,IC1,33,IO40*%
%TO.N,unconnected-(IC1-IO40-Pad33)*%
X91750000Y-146470000D03*
%TO.P,IC1,34,IO41*%
%TO.N,unconnected-(IC1-IO41-Pad34)*%
X91750000Y-147740000D03*
%TO.P,IC1,35,IO42*%
%TO.N,unconnected-(IC1-IO42-Pad35)*%
X91750000Y-149010000D03*
%TO.P,IC1,36,RXD0*%
%TO.N,/U0RXD*%
X91750000Y-150280000D03*
%TO.P,IC1,37,TXD0*%
%TO.N,/U0TXD*%
X91750000Y-151550000D03*
%TO.P,IC1,38,IO2*%
%TO.N,unconnected-(IC1-IO2-Pad38)*%
X91750000Y-152820000D03*
%TO.P,IC1,39,IO1*%
%TO.N,unconnected-(IC1-IO1-Pad39)*%
X91750000Y-154090000D03*
%TO.P,IC1,40,GND_2*%
%TO.N,GND*%
X91750000Y-155360000D03*
D43*
%TO.P,IC1,41,GND_3*%
X102000000Y-147640000D03*
%TO.P,IC1,42,GND_4*%
X102000000Y-149040000D03*
%TO.P,IC1,43,GND_5*%
X103400000Y-149040000D03*
%TO.P,IC1,44,GND_6*%
X103400000Y-147640000D03*
%TO.P,IC1,45,GND_7*%
X103400000Y-146240000D03*
%TO.P,IC1,46,GND_8*%
X102000000Y-146240000D03*
%TO.P,IC1,47,GND_9*%
X100600000Y-146240000D03*
%TO.P,IC1,48,GND_10*%
X100600000Y-147640000D03*
%TO.P,IC1,49,GND_11*%
X100600000Y-149040000D03*
%TD*%
D14*
%TO.P,R37,1*%
%TO.N,/AIN7_EXT*%
X144500000Y-105075000D03*
%TO.P,R37,2*%
%TO.N,/AIN7*%
X144500000Y-106725000D03*
%TD*%
D17*
%TO.P,R23,1*%
%TO.N,/ADC_CS*%
X147275000Y-118600000D03*
%TO.P,R23,2*%
%TO.N,Net-(U9-~{CS})*%
X148925000Y-118600000D03*
%TD*%
D44*
%TO.P,D7,1,K*%
%TO.N,+5VA*%
X151700000Y-103250000D03*
%TO.P,D7,2,A*%
%TO.N,/AIN6*%
X151700000Y-106750000D03*
%TD*%
D45*
%TO.P,U8,1,TP*%
%TO.N,unconnected-(U8-TP-Pad1)*%
X134425000Y-132095000D03*
%TO.P,U8,2,VIN*%
%TO.N,VCC*%
X134425000Y-133365000D03*
%TO.P,U8,3,NC*%
%TO.N,unconnected-(U8-NC-Pad3)*%
X134425000Y-134635000D03*
%TO.P,U8,4,GND*%
%TO.N,GND*%
X134425000Y-135905000D03*
%TO.P,U8,5,TRIM*%
%TO.N,unconnected-(U8-TRIM-Pad5)*%
X139375000Y-135905000D03*
%TO.P,U8,6,OUT*%
%TO.N,Net-(U6-MODE)*%
X139375000Y-134635000D03*
%TO.P,U8,7,NC*%
%TO.N,unconnected-(U8-NC-Pad7)*%
X139375000Y-133365000D03*
%TO.P,U8,8,TP*%
%TO.N,unconnected-(U8-TP-Pad8)*%
X139375000Y-132095000D03*
%TD*%
D11*
%TO.P,C10,1*%
%TO.N,GND*%
X121200000Y-133575000D03*
%TO.P,C10,2*%
%TO.N,VCC*%
X121200000Y-132025000D03*
%TD*%
D46*
%TO.P,C42,1*%
%TO.N,/AIN7*%
X146125000Y-108300000D03*
%TO.P,C42,2*%
%TO.N,GND*%
X147675000Y-108300000D03*
%TD*%
D14*
%TO.P,R15,1*%
%TO.N,Net-(R15-Pad1)*%
X103000000Y-80775000D03*
%TO.P,R15,2*%
%TO.N,/GPS_D+*%
X103000000Y-82425000D03*
%TD*%
%TO.P,R1,1*%
%TO.N,Net-(Q1-B)*%
X102500000Y-89650000D03*
%TO.P,R1,2*%
%TO.N,Net-(IC2-DTR)*%
X102500000Y-91300000D03*
%TD*%
D47*
%TO.P,C26,1*%
%TO.N,+5VA*%
X143700000Y-129925000D03*
%TO.P,C26,2*%
%TO.N,GND*%
X143700000Y-131475000D03*
%TD*%
D16*
%TO.P,TP2,1,1*%
%TO.N,/5V_SMPS_OUT*%
X160900000Y-135000000D03*
%TD*%
D48*
%TO.P,IC3,1,IN*%
%TO.N,+5V*%
X131700000Y-117150000D03*
%TO.P,IC3,2,GND_1*%
%TO.N,GND*%
X129400000Y-117150000D03*
%TO.P,IC3,3,OUT*%
%TO.N,+3.3V*%
X127100000Y-117150000D03*
D49*
%TO.P,IC3,4,GND_2*%
%TO.N,GND*%
X129400000Y-123450000D03*
%TD*%
D46*
%TO.P,C20,1*%
%TO.N,+5V*%
X147625000Y-129700000D03*
%TO.P,C20,2*%
%TO.N,GND*%
X149175000Y-129700000D03*
%TD*%
D14*
%TO.P,R20,1*%
%TO.N,Net-(U6-PR1)*%
X149300000Y-132375000D03*
%TO.P,R20,2*%
%TO.N,GND*%
X149300000Y-134025000D03*
%TD*%
D50*
%TO.P,IC8,1,DV/DT*%
%TO.N,unconnected-(IC8-DV{slash}DT-Pad1)*%
X132400000Y-106600000D03*
%TO.P,IC8,2,EN/UVLO*%
%TO.N,Net-(IC8-EN{slash}UVLO)*%
X132400000Y-107100000D03*
%TO.P,IC8,3,VIN_1*%
%TO.N,/EFUSE IN*%
X132400000Y-107600000D03*
%TO.P,IC8,4,VIN_2*%
X132400000Y-108100000D03*
%TO.P,IC8,5,VIN_3*%
X132400000Y-108600000D03*
%TO.P,IC8,6,OUT_1*%
%TO.N,+5V*%
X135300000Y-108600000D03*
%TO.P,IC8,7,OUT_2*%
X135300000Y-108100000D03*
%TO.P,IC8,8,OUT_3*%
X135300000Y-107600000D03*
%TO.P,IC8,9,NC*%
%TO.N,unconnected-(IC8-NC-Pad9)*%
X135300000Y-107100000D03*
%TO.P,IC8,10,ILIM*%
%TO.N,Net-(IC8-ILIM)*%
X135300000Y-106600000D03*
D51*
%TO.P,IC8,11,GND*%
%TO.N,GND*%
X133850000Y-107600000D03*
%TD*%
D37*
%TO.P,LED4,1,K*%
%TO.N,Net-(LED4-K)*%
X95000000Y-82100000D03*
D38*
%TO.P,LED4,2,A*%
%TO.N,/PPS_LED*%
X95000000Y-79560000D03*
%TD*%
D46*
%TO.P,C14,1*%
%TO.N,/5V_SMPS_OUT*%
X117925000Y-114200000D03*
%TO.P,C14,2*%
%TO.N,GND*%
X119475000Y-114200000D03*
%TD*%
D17*
%TO.P,R9,1*%
%TO.N,/5V_SMPS_OUT*%
X117875000Y-115700000D03*
%TO.P,R9,2*%
%TO.N,/SMPS_FB*%
X119525000Y-115700000D03*
%TD*%
D11*
%TO.P,C4,1*%
%TO.N,VBUS*%
X126600000Y-109775000D03*
%TO.P,C4,2*%
%TO.N,GND*%
X126600000Y-108225000D03*
%TD*%
D52*
%TO.P,R27,1*%
%TO.N,/AIN1_EXT*%
X149300000Y-126225000D03*
%TO.P,R27,2*%
%TO.N,/AIN1*%
X149300000Y-124575000D03*
%TD*%
D10*
%TO.P,C7,1*%
%TO.N,GND*%
X115275000Y-142300000D03*
%TO.P,C7,2*%
%TO.N,/XTAL_32K_N*%
X113725000Y-142300000D03*
%TD*%
D13*
%TO.P,R8,1*%
%TO.N,/USER_LED*%
X98525000Y-99600000D03*
%TO.P,R8,2*%
%TO.N,/USR_LED_RSTR*%
X96875000Y-99600000D03*
%TD*%
D10*
%TO.P,C43,1*%
%TO.N,+5V*%
X135475000Y-110000000D03*
%TO.P,C43,2*%
%TO.N,GND*%
X133925000Y-110000000D03*
%TD*%
D53*
%TO.P,U3,1,GND*%
%TO.N,GND*%
X129440000Y-110750000D03*
%TO.P,U3,2,VOUT*%
%TO.N,/EFUSE IN*%
X129440000Y-110250000D03*
%TO.P,U3,3,VIN1*%
%TO.N,Net-(U3-MODE)*%
X129440000Y-109750000D03*
%TO.P,U3,4,PR1*%
%TO.N,/PR1*%
X129440000Y-109250000D03*
%TO.P,U3,5,MODE*%
%TO.N,Net-(U3-MODE)*%
X127960000Y-109250000D03*
%TO.P,U3,6,VIN2*%
%TO.N,VBUS*%
X127960000Y-109750000D03*
%TO.P,U3,7,VOUT*%
%TO.N,/EFUSE IN*%
X127960000Y-110250000D03*
%TO.P,U3,8,ST*%
%TO.N,/ST*%
X127960000Y-110750000D03*
%TD*%
D44*
%TO.P,D2,1,K*%
%TO.N,+5VA*%
X146900000Y-128150000D03*
%TO.P,D2,2,A*%
%TO.N,/AIN0*%
X146900000Y-124650000D03*
%TD*%
D17*
%TO.P,R26,1*%
%TO.N,/ADC_DOUT*%
X147275000Y-112900000D03*
%TO.P,R26,2*%
%TO.N,Net-(U9-DOUT)*%
X148925000Y-112900000D03*
%TD*%
D11*
%TO.P,C31,1*%
%TO.N,GND*%
X107820818Y-79075280D03*
%TO.P,C31,2*%
%TO.N,/GPS_VUSB*%
X107820818Y-77525280D03*
%TD*%
D16*
%TO.P,TP1,1,1*%
%TO.N,/ST*%
X160900000Y-100000000D03*
%TD*%
D47*
%TO.P,C22,1*%
%TO.N,VCC*%
X132100000Y-133425000D03*
%TO.P,C22,2*%
%TO.N,GND*%
X132100000Y-134975000D03*
%TD*%
D10*
%TO.P,C24,1*%
%TO.N,Net-(U6-MODE)*%
X141375000Y-138700000D03*
%TO.P,C24,2*%
%TO.N,GND*%
X139825000Y-138700000D03*
%TD*%
%TO.P,C29,1*%
%TO.N,/AIN0*%
X147775000Y-123100000D03*
%TO.P,C29,2*%
%TO.N,GND*%
X146225000Y-123100000D03*
%TD*%
D54*
%TO.P,J5,1,Pin_1*%
%TO.N,/AIN6_EXT*%
X153899999Y-82000000D03*
%TO.P,J5,2,Pin_2*%
%TO.N,/AIN7_EXT*%
X149900000Y-82000000D03*
%TO.P,J5,3,Pin_3*%
%TO.N,GND*%
X145900000Y-82000000D03*
%TO.P,J5,4,Pin_4*%
X141900000Y-82000000D03*
%TO.P,J5,5,Pin_5*%
%TO.N,+5V*%
X137900001Y-82000000D03*
%TO.P,J5,6,Pin_6*%
X133900001Y-82000000D03*
%TO.P,J5,7,Pin_7*%
%TO.N,/CAN-*%
X129900002Y-82000000D03*
%TO.P,J5,8,Pin_8*%
%TO.N,/CAN+*%
X125900002Y-82000000D03*
%TO.P,J5,9,Pin_9*%
%TO.N,unconnected-(J5-Pin_9-Pad9)*%
X151900001Y-78000000D03*
%TO.P,J5,10,Pin_10*%
%TO.N,unconnected-(J5-Pin_10-Pad10)*%
X147900001Y-78000000D03*
%TO.P,J5,11,Pin_11*%
%TO.N,unconnected-(J5-Pin_11-Pad11)*%
X143900001Y-78000000D03*
%TO.P,J5,12,Pin_12*%
%TO.N,+5V*%
X139900002Y-78000000D03*
%TO.P,J5,13,Pin_13*%
X135900002Y-78000000D03*
%TO.P,J5,14,Pin_14*%
X131900003Y-78000000D03*
%TO.P,J5,15,Pin_15*%
%TO.N,unconnected-(J5-Pin_15-Pad15)*%
X127900003Y-78000000D03*
%TO.P,J5,16,Pin_16*%
%TO.N,/AIN4_EXT*%
X153899999Y-74000000D03*
%TO.P,J5,17,Pin_17*%
%TO.N,/AIN5_EXT*%
X149900000Y-74000000D03*
%TO.P,J5,18,Pin_18*%
%TO.N,GND*%
X145900000Y-74000000D03*
%TO.P,J5,19,Pin_19*%
X141900000Y-74000000D03*
%TO.P,J5,20,Pin_20*%
%TO.N,unconnected-(J5-Pin_20-Pad20)*%
X137900001Y-74000000D03*
%TO.P,J5,21,Pin_21*%
%TO.N,unconnected-(J5-Pin_21-Pad21)*%
X133900001Y-74000000D03*
%TO.P,J5,22,Pin_22*%
%TO.N,GND*%
X129900002Y-74000000D03*
%TO.P,J5,23,Pin_23*%
%TO.N,unconnected-(J5-Pin_23-Pad23)*%
X125900002Y-74000000D03*
%TD*%
D52*
%TO.P,R31,1*%
%TO.N,/AIN2_EXT*%
X154100000Y-126250000D03*
%TO.P,R31,2*%
%TO.N,/AIN2*%
X154100000Y-124600000D03*
%TD*%
D46*
%TO.P,C40,1*%
%TO.N,GND*%
X118625000Y-82700000D03*
%TO.P,C40,2*%
%TO.N,+3.3V*%
X120175000Y-82700000D03*
%TD*%
D40*
%TO.P,U9,1,~{CS}*%
%TO.N,Net-(U9-~{CS})*%
X153125000Y-118562500D03*
%TO.P,U9,2,VA*%
%TO.N,+5VA*%
X153775000Y-118562500D03*
%TO.P,U9,3,AGND*%
%TO.N,GND*%
X154425000Y-118562500D03*
%TO.P,U9,4,IN0*%
%TO.N,/AIN0*%
X155075000Y-118562500D03*
%TO.P,U9,5,IN1*%
%TO.N,/AIN1*%
X155725000Y-118562500D03*
%TO.P,U9,6,IN2*%
%TO.N,/AIN2*%
X156375000Y-118562500D03*
%TO.P,U9,7,IN3*%
%TO.N,/AIN3*%
X157025000Y-118562500D03*
%TO.P,U9,8,IN4*%
%TO.N,/AIN4*%
X157675000Y-118562500D03*
%TO.P,U9,9,IN5*%
%TO.N,/AIN5*%
X157675000Y-112837500D03*
%TO.P,U9,10,IN6*%
%TO.N,/AIN6*%
X157025000Y-112837500D03*
%TO.P,U9,11,IN7*%
%TO.N,/AIN7*%
X156375000Y-112837500D03*
%TO.P,U9,12,DGND*%
%TO.N,GND*%
X155725000Y-112837500D03*
%TO.P,U9,13,VDD*%
%TO.N,+3.3V*%
X155075000Y-112837500D03*
%TO.P,U9,14,DIN*%
%TO.N,Net-(U9-DIN)*%
X154425000Y-112837500D03*
%TO.P,U9,15,DOUT*%
%TO.N,Net-(U9-DOUT)*%
X153775000Y-112837500D03*
%TO.P,U9,16,SCLK*%
%TO.N,Net-(U9-SCLK)*%
X153125000Y-112837500D03*
%TD*%
D46*
%TO.P,C38,1*%
%TO.N,/AIN6*%
X150925000Y-108300000D03*
%TO.P,C38,2*%
%TO.N,GND*%
X152475000Y-108300000D03*
%TD*%
D17*
%TO.P,R5,1*%
%TO.N,Net-(U3-MODE)*%
X128075000Y-107900000D03*
%TO.P,R5,2*%
%TO.N,/PR1*%
X129725000Y-107900000D03*
%TD*%
D10*
%TO.P,C41,1*%
%TO.N,/AIN3*%
X162075000Y-123000000D03*
%TO.P,C41,2*%
%TO.N,GND*%
X160525000Y-123000000D03*
%TD*%
D17*
%TO.P,R12,1*%
%TO.N,/RSTB*%
X104275000Y-104900000D03*
%TO.P,R12,2*%
%TO.N,+3.3V*%
X105925000Y-104900000D03*
%TD*%
D14*
%TO.P,R32,1*%
%TO.N,/AIN6_EXT*%
X149300000Y-105075000D03*
%TO.P,R32,2*%
%TO.N,/AIN6*%
X149300000Y-106725000D03*
%TD*%
D55*
%TO.P,IC6,1,IN*%
%TO.N,/GPS_VUSB*%
X109700818Y-77530280D03*
%TO.P,IC6,2,GND_1*%
%TO.N,GND*%
X109700818Y-79830280D03*
%TO.P,IC6,3,OUT*%
%TO.N,/GNSS_USB_PWR*%
X109700818Y-82130280D03*
D56*
%TO.P,IC6,4,GND_2*%
%TO.N,GND*%
X116000818Y-79830280D03*
%TD*%
D52*
%TO.P,R33,1*%
%TO.N,GND*%
X106300000Y-85425000D03*
%TO.P,R33,2*%
%TO.N,/GNSS_USB_PWR*%
X106300000Y-83775000D03*
%TD*%
D29*
%TO.P,U2,1,I/O1*%
%TO.N,/UART1_D+*%
X103900000Y-123975000D03*
%TO.P,U2,2,GND*%
%TO.N,GND*%
X104850000Y-123975000D03*
%TO.P,U2,3,I/O2*%
%TO.N,/UART1_D-*%
X105800000Y-123975000D03*
%TO.P,U2,4,I/O2*%
%TO.N,/USBB_D-*%
X105800000Y-121700000D03*
%TO.P,U2,5,VBUS*%
%TO.N,VBUS*%
X104850000Y-121700000D03*
%TO.P,U2,6,I/O1*%
%TO.N,/USBB_D+*%
X103900000Y-121700000D03*
%TD*%
D47*
%TO.P,C28,1*%
%TO.N,+3.3V*%
X151900000Y-114325000D03*
%TO.P,C28,2*%
%TO.N,GND*%
X151900000Y-115875000D03*
%TD*%
%TO.P,C27,1*%
%TO.N,+3.3V*%
X150400000Y-114325000D03*
%TO.P,C27,2*%
%TO.N,GND*%
X150400000Y-115875000D03*
%TD*%
D57*
%TO.P,Q1,1,C*%
%TO.N,/CHIP_PU*%
X107005000Y-92900000D03*
%TO.P,Q1,2,B*%
%TO.N,Net-(Q1-B)*%
X105095000Y-92900000D03*
%TO.P,Q1,3,E*%
%TO.N,Net-(IC2-RTS)*%
X106050000Y-95000000D03*
%TD*%
D52*
%TO.P,R34,1*%
%TO.N,GND*%
X100500000Y-83725000D03*
%TO.P,R34,2*%
%TO.N,Net-(LED4-K)*%
X100500000Y-82075000D03*
%TD*%
%TO.P,R21,1*%
%TO.N,/AIN0_EXT*%
X144500000Y-126225000D03*
%TO.P,R21,2*%
%TO.N,/AIN0*%
X144500000Y-124575000D03*
%TD*%
D37*
%TO.P,LED2,1,K*%
%TO.N,GND*%
X95000000Y-96100000D03*
D38*
%TO.P,LED2,2,A*%
%TO.N,/USR_LED_RSTR*%
X95000000Y-93560000D03*
%TD*%
D58*
%TO.P,AE1,1,A*%
%TO.N,/RF_IN*%
X115000000Y-104075000D03*
D59*
%TO.P,AE1,2,Shield*%
%TO.N,GND*%
X116500000Y-102600000D03*
D58*
X118000000Y-104075000D03*
D59*
X116500000Y-105550000D03*
%TD*%
D60*
%TO.P,U10,1,WP/CD*%
%TO.N,/SD_CD*%
X104175000Y-129800000D03*
%TO.P,U10,2,RDAT3_GND*%
%TO.N,unconnected-(U10-RDAT3_GND-Pad2)*%
X104175000Y-129400000D03*
%TO.P,U10,3,DAT2_IN*%
%TO.N,/SD_DAT2*%
X104175000Y-129000000D03*
%TO.P,U10,4,DAT3_IN*%
%TO.N,/SD_DAT3*%
X104175000Y-128600000D03*
%TO.P,U10,5,CMD_IN*%
%TO.N,/SD_CMD*%
X104175000Y-128200000D03*
%TO.P,U10,6,CLK_IN*%
%TO.N,/SD_CLK*%
X104175000Y-127800000D03*
%TO.P,U10,7,DAT0_IN*%
%TO.N,/SD_DAT0*%
X104175000Y-127400000D03*
%TO.P,U10,8,DAT1_IN*%
%TO.N,/SD_DAT1*%
X104175000Y-127000000D03*
%TO.P,U10,9,DAT1_EX*%
%TO.N,Net-(J4-DAT1)*%
X103025000Y-127000000D03*
%TO.P,U10,10,DAT0_EX*%
%TO.N,Net-(J4-DAT0)*%
X103025000Y-127400000D03*
%TO.P,U10,11,CLK_EX*%
%TO.N,Net-(J4-CLK)*%
X103025000Y-127800000D03*
%TO.P,U10,12,CMD_EX*%
%TO.N,Net-(J4-CMD)*%
X103025000Y-128200000D03*
%TO.P,U10,13,DAT3_EX*%
%TO.N,Net-(J4-DAT3{slash}CD)*%
X103025000Y-128600000D03*
%TO.P,U10,14,DAT2_EX*%
%TO.N,Net-(J4-DAT2)*%
X103025000Y-129000000D03*
%TO.P,U10,15,VCC*%
%TO.N,+3.3V*%
X103025000Y-129400000D03*
%TO.P,U10,16,RDATA_VCC*%
X103025000Y-129800000D03*
D61*
%TO.P,U10,17,GND*%
%TO.N,GND*%
X103600000Y-128400000D03*
%TD*%
D62*
%TO.P,U4,1,I/O1*%
%TO.N,/PROG_D+*%
X98547500Y-104060000D03*
%TO.P,U4,2,GND*%
%TO.N,GND*%
X98547500Y-103110000D03*
%TO.P,U4,3,I/O2*%
%TO.N,/PROG_D-*%
X98547500Y-102160000D03*
%TO.P,U4,4,I/O2*%
%TO.N,/USBM_D-*%
X96272500Y-102160000D03*
%TO.P,U4,5,VBUS*%
%TO.N,VBUS*%
X96272500Y-103110000D03*
%TO.P,U4,6,I/O1*%
%TO.N,/USBM_D+*%
X96272500Y-104060000D03*
%TD*%
D44*
%TO.P,D4,1,K*%
%TO.N,+5VA*%
X151700000Y-128150000D03*
%TO.P,D4,2,A*%
%TO.N,/AIN1*%
X151700000Y-124650000D03*
%TD*%
D14*
%TO.P,R29,1*%
%TO.N,Net-(LED3-K)*%
X100500000Y-76275000D03*
%TO.P,R29,2*%
%TO.N,/RTK_STAT*%
X100500000Y-77925000D03*
%TD*%
D52*
%TO.P,R16,1*%
%TO.N,/GPS_D-*%
X104950000Y-82400000D03*
%TO.P,R16,2*%
%TO.N,Net-(R16-Pad2)*%
X104950000Y-80750000D03*
%TD*%
D17*
%TO.P,R25,1*%
%TO.N,/ADC_CLK*%
X147275000Y-114400000D03*
%TO.P,R25,2*%
%TO.N,Net-(U9-SCLK)*%
X148925000Y-114400000D03*
%TD*%
D44*
%TO.P,D8,1,K*%
%TO.N,+5VA*%
X161300000Y-128100000D03*
%TO.P,D8,2,A*%
%TO.N,/AIN3*%
X161300000Y-124600000D03*
%TD*%
D10*
%TO.P,C33,1*%
%TO.N,/AIN1*%
X152475000Y-123100000D03*
%TO.P,C33,2*%
%TO.N,GND*%
X150925000Y-123100000D03*
%TD*%
D63*
%TO.P,J3,1,VBUS*%
%TO.N,/GPS_VUSB*%
X105000000Y-74200000D03*
%TO.P,J3,2,D-*%
%TO.N,/USBM2_D-*%
X104350000Y-74200000D03*
%TO.P,J3,3,D+*%
%TO.N,/USBM2_D+*%
X103700000Y-74200000D03*
%TO.P,J3,4,ID*%
%TO.N,unconnected-(J3-ID-Pad4)*%
X103050000Y-74200000D03*
%TO.P,J3,5,GND*%
%TO.N,GND*%
X102400000Y-74200000D03*
D64*
%TO.P,J3,6,Shield*%
%TO.N,unconnected-(J3-Shield-Pad6)_3*%
X107200000Y-71500000D03*
D65*
%TO.N,unconnected-(J3-Shield-Pad6)_6*%
X106600000Y-71500000D03*
D21*
%TO.N,unconnected-(J3-Shield-Pad6)_5*%
X106200000Y-74200000D03*
D66*
%TO.N,unconnected-(J3-Shield-Pad6)*%
X104700000Y-71500000D03*
%TO.N,unconnected-(J3-Shield-Pad6)_1*%
X102700000Y-71500000D03*
D21*
%TO.N,unconnected-(J3-Shield-Pad6)_7*%
X101200000Y-74200000D03*
D65*
%TO.N,unconnected-(J3-Shield-Pad6)_4*%
X100800000Y-71500000D03*
D64*
%TO.N,unconnected-(J3-Shield-Pad6)_2*%
X100200000Y-71500000D03*
%TD*%
D44*
%TO.P,D9,1,K*%
%TO.N,+5VA*%
X146900000Y-103250000D03*
%TO.P,D9,2,A*%
%TO.N,/AIN7*%
X146900000Y-106750000D03*
%TD*%
%TO.P,D6,1,K*%
%TO.N,+5VA*%
X156500000Y-128150000D03*
%TO.P,D6,2,A*%
%TO.N,/AIN2*%
X156500000Y-124650000D03*
%TD*%
%TO.P,D3,1,K*%
%TO.N,+5VA*%
X161300000Y-103250000D03*
%TO.P,D3,2,A*%
%TO.N,/AIN4*%
X161300000Y-106750000D03*
%TD*%
D47*
%TO.P,C39,1*%
%TO.N,/GNSS_USB_PWR*%
X107800000Y-83825000D03*
%TO.P,C39,2*%
%TO.N,GND*%
X107800000Y-85375000D03*
%TD*%
D17*
%TO.P,R10,1*%
%TO.N,/SMPS_FB*%
X120875000Y-115700000D03*
%TO.P,R10,2*%
%TO.N,GND*%
X122525000Y-115700000D03*
%TD*%
D11*
%TO.P,C32,1*%
%TO.N,/GNSS_USB_PWR*%
X107800000Y-82175000D03*
%TO.P,C32,2*%
%TO.N,GND*%
X107800000Y-80625000D03*
%TD*%
D67*
%TO.P,U7,1,D*%
%TO.N,/CAN_RTX*%
X125214500Y-99707500D03*
%TO.P,U7,2,GND*%
%TO.N,GND*%
X126484500Y-99707500D03*
%TO.P,U7,3,VCC*%
%TO.N,+3.3V*%
X127754500Y-99707500D03*
%TO.P,U7,4,R*%
%TO.N,/CAN_CTX*%
X129024500Y-99707500D03*
%TO.P,U7,5,Vref*%
%TO.N,unconnected-(U7-Vref-Pad5)*%
X129024500Y-94757500D03*
%TO.P,U7,6,CANL*%
%TO.N,/CAN-*%
X127754500Y-94757500D03*
%TO.P,U7,7,CANH*%
%TO.N,/CAN+*%
X126484500Y-94757500D03*
%TO.P,U7,8,Rs*%
%TO.N,Net-(U7-Rs)*%
X125214500Y-94757500D03*
%TD*%
D14*
%TO.P,R22,1*%
%TO.N,/AIN4_EXT*%
X158900000Y-105075000D03*
%TO.P,R22,2*%
%TO.N,/AIN4*%
X158900000Y-106725000D03*
%TD*%
D10*
%TO.P,C1,1*%
%TO.N,+3.3V*%
X113275000Y-154800000D03*
%TO.P,C1,2*%
%TO.N,Net-(IC1-3V3)*%
X111725000Y-154800000D03*
%TD*%
D52*
%TO.P,R3,1*%
%TO.N,/ST*%
X131200000Y-111725000D03*
%TO.P,R3,2*%
%TO.N,/EFUSE IN*%
X131200000Y-110075000D03*
%TD*%
D57*
%TO.P,Q2,1,C*%
%TO.N,/GPIO0*%
X103455000Y-92900000D03*
%TO.P,Q2,2,B*%
%TO.N,Net-(Q2-B)*%
X101545000Y-92900000D03*
%TO.P,Q2,3,E*%
%TO.N,Net-(IC2-DTR)*%
X102500000Y-95000000D03*
%TD*%
D14*
%TO.P,R17,1*%
%TO.N,GND*%
X125224500Y-91197500D03*
%TO.P,R17,2*%
%TO.N,Net-(U7-Rs)*%
X125224500Y-92847500D03*
%TD*%
D68*
%TO.P,L2,1*%
%TO.N,/RF_IN*%
X112900000Y-102015000D03*
%TO.P,L2,2*%
%TO.N,/BIAS_T*%
X112900000Y-102985000D03*
%TD*%
D46*
%TO.P,C35,1*%
%TO.N,Net-(IC7-RF_IN)*%
X110125000Y-102300000D03*
%TO.P,C35,2*%
%TO.N,/RF_IN*%
X111675000Y-102300000D03*
%TD*%
D10*
%TO.P,C17,1*%
%TO.N,Net-(IC2-VBUS)*%
X102875000Y-104900000D03*
%TO.P,C17,2*%
%TO.N,GND*%
X101325000Y-104900000D03*
%TD*%
D69*
%TO.P,D1,1*%
%TO.N,/CAN-*%
X128550000Y-85250000D03*
%TO.P,D1,2*%
%TO.N,/CAN+*%
X127250000Y-85250000D03*
%TO.P,D1,3*%
%TO.N,GND*%
X127900000Y-87350000D03*
%TD*%
D16*
%TO.P,TP3,1,1*%
%TO.N,GND*%
X160900000Y-139000000D03*
%TD*%
D10*
%TO.P,C6,1*%
%TO.N,GND*%
X115275000Y-149400000D03*
%TO.P,C6,2*%
%TO.N,/XTAL_32K_P*%
X113725000Y-149400000D03*
%TD*%
D52*
%TO.P,R36,1*%
%TO.N,/AIN3_EXT*%
X158900000Y-126250000D03*
%TO.P,R36,2*%
%TO.N,/AIN3*%
X158900000Y-124600000D03*
%TD*%
D47*
%TO.P,C21,1*%
%TO.N,VCC*%
X130600000Y-133425000D03*
%TO.P,C21,2*%
%TO.N,GND*%
X130600000Y-134975000D03*
%TD*%
D16*
%TO.P,TP5,1,1*%
%TO.N,Net-(IC7-RESET_N)*%
X160900000Y-96000000D03*
%TD*%
D11*
%TO.P,C3,1*%
%TO.N,+5V*%
X123600000Y-136575000D03*
%TO.P,C3,2*%
%TO.N,GND*%
X123600000Y-135025000D03*
%TD*%
D47*
%TO.P,C13,1*%
%TO.N,/BTSB*%
X122500000Y-124325000D03*
%TO.P,C13,2*%
%TO.N,/SMPS_SW*%
X122500000Y-125875000D03*
%TD*%
D52*
%TO.P,R7,1*%
%TO.N,/PG*%
X118400000Y-125925000D03*
%TO.P,R7,2*%
%TO.N,/5V_SMPS_OUT*%
X118400000Y-124275000D03*
%TD*%
D17*
%TO.P,R11,1*%
%TO.N,Net-(IC2-VBUS)*%
X104275000Y-106400000D03*
%TO.P,R11,2*%
%TO.N,VBUS*%
X105925000Y-106400000D03*
%TD*%
%TO.P,R39,1*%
%TO.N,GND*%
X133850000Y-105200000D03*
%TO.P,R39,2*%
%TO.N,Net-(IC8-ILIM)*%
X135500000Y-105200000D03*
%TD*%
D70*
%TO.P,Y1,1,1*%
%TO.N,/XTAL_32K_P*%
X114950000Y-147080000D03*
%TO.P,Y1,2,2*%
%TO.N,/XTAL_32K_N*%
X114950000Y-144580000D03*
%TD*%
D71*
%TO.P,C8,1*%
%TO.N,GND*%
X125500000Y-127900000D03*
%TO.P,C8,2*%
%TO.N,VCC*%
X125500000Y-133500000D03*
%TD*%
D46*
%TO.P,C9,1*%
%TO.N,/5V_SMPS_OUT*%
X117925000Y-111200000D03*
%TO.P,C9,2*%
%TO.N,Net-(U3-MODE)*%
X119475000Y-111200000D03*
%TD*%
D10*
%TO.P,C23,1*%
%TO.N,Net-(U6-MODE)*%
X141375000Y-137200000D03*
%TO.P,C23,2*%
%TO.N,GND*%
X139825000Y-137200000D03*
%TD*%
D46*
%TO.P,C15,1*%
%TO.N,/5V_SMPS_OUT*%
X117925000Y-112700000D03*
%TO.P,C15,2*%
%TO.N,GND*%
X119475000Y-112700000D03*
%TD*%
D54*
%TO.P,J6,1,Pin_1*%
%TO.N,+BATT*%
X126100001Y-146000000D03*
%TO.P,J6,2,Pin_2*%
%TO.N,GND*%
X130100000Y-146000000D03*
%TO.P,J6,3,Pin_3*%
%TO.N,+5V*%
X134100000Y-146000000D03*
%TO.P,J6,4,Pin_4*%
X138100000Y-146000000D03*
%TO.P,J6,5,Pin_5*%
%TO.N,unconnected-(J6-Pin_5-Pad5)*%
X142099999Y-146000000D03*
%TO.P,J6,6,Pin_6*%
%TO.N,unconnected-(J6-Pin_6-Pad6)*%
X146099999Y-146000000D03*
%TO.P,J6,7,Pin_7*%
%TO.N,/AIN0_EXT*%
X150099998Y-146000000D03*
%TO.P,J6,8,Pin_8*%
%TO.N,/AIN1_EXT*%
X154099998Y-146000000D03*
%TO.P,J6,9,Pin_9*%
%TO.N,unconnected-(J6-Pin_9-Pad9)*%
X128099999Y-150000000D03*
%TO.P,J6,10,Pin_10*%
%TO.N,+5V*%
X132099999Y-150000000D03*
%TO.P,J6,11,Pin_11*%
X136099999Y-150000000D03*
%TO.P,J6,12,Pin_12*%
X140099998Y-150000000D03*
%TO.P,J6,13,Pin_13*%
%TO.N,unconnected-(J6-Pin_13-Pad13)*%
X144099998Y-150000000D03*
%TO.P,J6,14,Pin_14*%
%TO.N,unconnected-(J6-Pin_14-Pad14)*%
X148099997Y-150000000D03*
%TO.P,J6,15,Pin_15*%
%TO.N,unconnected-(J6-Pin_15-Pad15)*%
X152099997Y-150000000D03*
%TO.P,J6,16,Pin_16*%
%TO.N,GND*%
X126100001Y-154000000D03*
%TO.P,J6,17,Pin_17*%
X130100000Y-154000000D03*
%TO.P,J6,18,Pin_18*%
X134100000Y-154000000D03*
%TO.P,J6,19,Pin_19*%
X138100000Y-154000000D03*
%TO.P,J6,20,Pin_20*%
X142099999Y-154000000D03*
%TO.P,J6,21,Pin_21*%
X146099999Y-154000000D03*
%TO.P,J6,22,Pin_22*%
%TO.N,/AIN2_EXT*%
X150099998Y-154000000D03*
%TO.P,J6,23,Pin_23*%
%TO.N,/AIN3_EXT*%
X154099998Y-154000000D03*
%TD*%
D14*
%TO.P,R35,1*%
%TO.N,/D_SEL*%
X107800000Y-86775000D03*
%TO.P,R35,2*%
%TO.N,+3.3V*%
X107800000Y-88425000D03*
%TD*%
D10*
%TO.P,C19,1*%
%TO.N,+3.3V*%
X127875000Y-101700000D03*
%TO.P,C19,2*%
%TO.N,GND*%
X126325000Y-101700000D03*
%TD*%
D46*
%TO.P,C34,1*%
%TO.N,/AIN5*%
X155750000Y-108300000D03*
%TO.P,C34,2*%
%TO.N,GND*%
X157300000Y-108300000D03*
%TD*%
D13*
%TO.P,R6,1*%
%TO.N,/PR1*%
X129725000Y-106400000D03*
%TO.P,R6,2*%
%TO.N,GND*%
X128075000Y-106400000D03*
%TD*%
D37*
%TO.P,LED1,1,K*%
%TO.N,GND*%
X95000000Y-89100000D03*
D38*
%TO.P,LED1,2,A*%
%TO.N,/PWR_LED*%
X95000000Y-86560000D03*
%TD*%
D46*
%TO.P,C12,1*%
%TO.N,GND*%
X130100000Y-115300000D03*
%TO.P,C12,2*%
%TO.N,+5V*%
X131650000Y-115300000D03*
%TD*%
D72*
%TO.P,IC5,1*%
%TO.N,/CAN_TERM*%
X131630000Y-92775000D03*
%TO.P,IC5,3*%
%TO.N,GND*%
X134170000Y-92775000D03*
%TO.P,IC5,4*%
%TO.N,/CAN-*%
X134170000Y-86475000D03*
%TO.P,IC5,6*%
%TO.N,Net-(IC5-Pad6)*%
X131630000Y-86475000D03*
%TD*%
D46*
%TO.P,C30,1*%
%TO.N,/AIN4*%
X160650000Y-108300000D03*
%TO.P,C30,2*%
%TO.N,GND*%
X162200000Y-108300000D03*
%TD*%
D47*
%TO.P,C25,1*%
%TO.N,+5VA*%
X142200000Y-129925000D03*
%TO.P,C25,2*%
%TO.N,GND*%
X142200000Y-131475000D03*
%TD*%
D52*
%TO.P,R19,1*%
%TO.N,Net-(U6-ST)*%
X145200000Y-131525000D03*
%TO.P,R19,2*%
%TO.N,+5VA*%
X145200000Y-129875000D03*
%TD*%
D10*
%TO.P,C36,1*%
%TO.N,/BIAS_T*%
X113275000Y-105300000D03*
%TO.P,C36,2*%
%TO.N,GND*%
X111725000Y-105300000D03*
%TD*%
D44*
%TO.P,D5,1,K*%
%TO.N,+5VA*%
X156500000Y-103250000D03*
%TO.P,D5,2,A*%
%TO.N,/AIN5*%
X156500000Y-106750000D03*
%TD*%
D73*
%TO.N,GND*%
X122670000Y-93550000D03*
X154887500Y-115787500D03*
X116370000Y-88480000D03*
X126900000Y-126300000D03*
X108100000Y-98400000D03*
X113200000Y-107900000D03*
X116660000Y-149120000D03*
X100500000Y-84800000D03*
X104003640Y-80300000D03*
X121100000Y-99500000D03*
X97800000Y-134700000D03*
X94800000Y-142600000D03*
X131419706Y-122772696D03*
X111010000Y-143760000D03*
X118600000Y-133600000D03*
X126300000Y-104300000D03*
X118060000Y-95260000D03*
X131419706Y-124172696D03*
D74*
X114200000Y-101500000D03*
D73*
X138800000Y-138700000D03*
X99800000Y-152600000D03*
X133500000Y-111200000D03*
X114500000Y-87030000D03*
X112440000Y-149130000D03*
D74*
X114100000Y-106600000D03*
D73*
X114700000Y-100500000D03*
X116680818Y-77550280D03*
X104800000Y-150100000D03*
D74*
X119100000Y-106500000D03*
D73*
X110500000Y-144370000D03*
X94800000Y-152600000D03*
X117400000Y-147260000D03*
X109200000Y-104800000D03*
X130100000Y-114100000D03*
X99800000Y-145100000D03*
X112870000Y-141180000D03*
X120600000Y-114200000D03*
X114500000Y-102700000D03*
X114670000Y-141100000D03*
X110500000Y-97300000D03*
X111800000Y-107900000D03*
X119540000Y-87060000D03*
X125593237Y-109126002D03*
X132400000Y-105400000D03*
X117360000Y-144540000D03*
X119000000Y-91770000D03*
X97300000Y-153850000D03*
X155387500Y-115287500D03*
X108100000Y-101100000D03*
X99800000Y-155100000D03*
X119900000Y-104700000D03*
X159300000Y-123300000D03*
X132700000Y-99800000D03*
X114590000Y-90730000D03*
X117100000Y-107500000D03*
X113200000Y-100500000D03*
X112600000Y-96800000D03*
X146200000Y-121900000D03*
X99800000Y-103100000D03*
X106580818Y-80650280D03*
X163300000Y-108300000D03*
X126900000Y-129500000D03*
X94800000Y-150100000D03*
X160900000Y-140900000D03*
X95300000Y-132000000D03*
X127019706Y-124172696D03*
X108600000Y-103600000D03*
X150900000Y-121900000D03*
X122500000Y-100700000D03*
X124100000Y-126300000D03*
X158500000Y-108300000D03*
X102300000Y-153850000D03*
X126900000Y-127900000D03*
X115980818Y-77550280D03*
X99800000Y-147600000D03*
X115980818Y-81950280D03*
X110000000Y-101000000D03*
X107300000Y-153850000D03*
X116500000Y-90100000D03*
X118600000Y-81500000D03*
X112350000Y-142590000D03*
X94800000Y-104700000D03*
X102300000Y-141350000D03*
X115770000Y-150630000D03*
X100100000Y-106000000D03*
X105900000Y-125400000D03*
X132800000Y-104900000D03*
X106300000Y-91410000D03*
X97300000Y-148850000D03*
X117380000Y-148170000D03*
X99800000Y-150100000D03*
X154600000Y-123100000D03*
X134200000Y-95200000D03*
X110500000Y-107000000D03*
X149300000Y-135000000D03*
X128075000Y-140100000D03*
X112540000Y-150610000D03*
X115520000Y-141100000D03*
X97300000Y-143850000D03*
X104800000Y-155100000D03*
X124100000Y-129500000D03*
X115600000Y-101200000D03*
X97300000Y-141350000D03*
X127900000Y-86300000D03*
X121530000Y-84040000D03*
X104800000Y-145100000D03*
X113870000Y-150700000D03*
X104800000Y-140100000D03*
X116400000Y-141350000D03*
X99800000Y-140100000D03*
X121200000Y-125400000D03*
X107300000Y-146350000D03*
X104800000Y-147600000D03*
X110500000Y-100300000D03*
X116950000Y-97050000D03*
X117370000Y-145920000D03*
X149200000Y-128500000D03*
X111640000Y-143260000D03*
X133900000Y-111700000D03*
X106300000Y-86600000D03*
X132700000Y-136000000D03*
X145600000Y-132500000D03*
X109900000Y-105900000D03*
X113415380Y-84084620D03*
X124600000Y-84200000D03*
X115280818Y-77550280D03*
X112500000Y-149930000D03*
X94800000Y-155100000D03*
D74*
X119100000Y-101500000D03*
D73*
X107300000Y-148850000D03*
X110670000Y-147350000D03*
X102300000Y-143850000D03*
X116560000Y-142200000D03*
X134300000Y-111200000D03*
X115600000Y-107500000D03*
X116620000Y-84050000D03*
X153600000Y-108300000D03*
X107300000Y-141350000D03*
X116730000Y-91780000D03*
X119900000Y-88380000D03*
X132000000Y-104900000D03*
X117350000Y-143150000D03*
X131419706Y-123472696D03*
X111920000Y-148520000D03*
X94800000Y-147600000D03*
X116330000Y-87040000D03*
X102300000Y-151350000D03*
X104800000Y-142600000D03*
X127019706Y-122772696D03*
X108100000Y-99800000D03*
X112200000Y-95700000D03*
X101890000Y-75597500D03*
X124100000Y-127900000D03*
X106580818Y-79050280D03*
X116490000Y-149920000D03*
X119900000Y-103400000D03*
X94800000Y-145100000D03*
X112600000Y-98100000D03*
X115280818Y-81950280D03*
X97300000Y-151350000D03*
X114500000Y-98370000D03*
X91700000Y-126600000D03*
X112600000Y-99400000D03*
X129400000Y-111500000D03*
X104800000Y-152600000D03*
X100610000Y-99540000D03*
X125224500Y-90107500D03*
X99800000Y-142600000D03*
X114780000Y-150690000D03*
X108100000Y-96700000D03*
X118890000Y-98870000D03*
X127019706Y-123472696D03*
X107300000Y-151350000D03*
X116680818Y-81950280D03*
X148800000Y-108300000D03*
X114530000Y-88540000D03*
X94800000Y-140100000D03*
X108900000Y-94800000D03*
X108100000Y-102300000D03*
X114550000Y-96100000D03*
X108893948Y-95692435D03*
X111320000Y-147950000D03*
X113730000Y-141120000D03*
X97300000Y-146350000D03*
X117300000Y-101200000D03*
X112570000Y-141850000D03*
X107300000Y-143850000D03*
X128600000Y-114100000D03*
%TO.N,+3.3V*%
X102100000Y-103300000D03*
X91800000Y-128800000D03*
X103000000Y-130500000D03*
X127900000Y-104300000D03*
X107100000Y-104900000D03*
X108600000Y-89200000D03*
X154300000Y-114325000D03*
X125900000Y-114100000D03*
X119000000Y-155600000D03*
X120200000Y-81500000D03*
%TO.N,/5V_SMPS_OUT*%
X115800000Y-113800000D03*
X160900000Y-133000000D03*
X137200000Y-129900000D03*
X133100000Y-129900000D03*
%TO.N,Net-(U3-MODE)*%
X128800000Y-107900000D03*
X124400000Y-111200000D03*
%TO.N,VBUS*%
X95262990Y-103106250D03*
X94760380Y-101770380D03*
%TO.N,+5V*%
X148700000Y-131000000D03*
X123600000Y-139700000D03*
X134500000Y-115300000D03*
X128700000Y-135100000D03*
%TO.N,+5VA*%
X146900000Y-127000000D03*
X156500000Y-127000000D03*
X146900000Y-104400000D03*
X144500000Y-128050000D03*
X152300000Y-117400000D03*
X151700000Y-127000000D03*
X161300000Y-127000000D03*
X156500000Y-104400000D03*
X151700000Y-104400000D03*
X161300000Y-104400000D03*
%TO.N,/I2C1_SCL*%
X129400000Y-138100000D03*
X99400000Y-133200000D03*
%TO.N,/CAN_TERM*%
X131630000Y-102170000D03*
X115023884Y-113605971D03*
%TO.N,/USER_LED*%
X92690380Y-108190380D03*
X93400000Y-120900000D03*
X93000000Y-140100000D03*
X98500000Y-98400000D03*
%TO.N,/CAN_CTX*%
X122594238Y-109125001D03*
X113700000Y-112800000D03*
%TO.N,/CAN_RTX*%
X121800000Y-109000000D03*
X112100000Y-112200000D03*
%TO.N,/I2C1_SDA*%
X129400000Y-141200000D03*
X98100000Y-133300000D03*
%TO.N,/ADC_CLK*%
X130500000Y-129500000D03*
X121400000Y-138600000D03*
%TO.N,/ADC_CS*%
X131734313Y-130065687D03*
X122024697Y-139099758D03*
%TO.N,/ADC_DOUT*%
X129900000Y-128900000D03*
X120700000Y-138100000D03*
%TO.N,Net-(U6-MODE)*%
X146200000Y-138700000D03*
X143000000Y-138700000D03*
%TO.N,/ADC_DIN*%
X120059620Y-137540380D03*
X129400000Y-128200000D03*
%TO.N,/Safeboot*%
X111700000Y-85500000D03*
X160900000Y-90200000D03*
%TO.N,/PPS_LED*%
X107000000Y-87700000D03*
%TO.N,/RTK_STAT*%
X120949000Y-92700000D03*
X101700000Y-79100000D03*
%TO.N,/PROG_D+*%
X100620000Y-100680000D03*
X100600000Y-102160000D03*
%TO.N,/UART2_TX*%
X124400000Y-104100000D03*
X111000000Y-111400000D03*
%TO.N,/ST*%
X131200000Y-113300000D03*
X160900000Y-98200000D03*
%TO.N,/UART2_RX*%
X121800000Y-102100000D03*
X109480339Y-110780339D03*
%TO.N,/CHIP_PU*%
X122900000Y-140500000D03*
X107100000Y-94600000D03*
%TO.N,/U0TXD*%
X90400000Y-151200000D03*
X104200000Y-97100000D03*
%TO.N,/GPIO0*%
X103700000Y-95100000D03*
X92300000Y-135800000D03*
%TO.N,/U0RXD*%
X103300000Y-97300000D03*
X91100000Y-137800000D03*
%TO.N,Net-(U6-ST)*%
X144500000Y-132300000D03*
X160900000Y-129300000D03*
%TO.N,/GPS_VUSB*%
X104000000Y-75967500D03*
X105615000Y-75552500D03*
%TO.N,Net-(IC7-RESET_N)*%
X110500000Y-94200000D03*
X160900000Y-94200000D03*
%TD*%
D75*
%TO.N,GND*%
X119475000Y-114200000D02*
X120600000Y-114200000D01*
X145100000Y-133000000D02*
X145600000Y-132500000D01*
X126600000Y-108225000D02*
X126600000Y-107875000D01*
X139825000Y-137200000D02*
X139825000Y-138700000D01*
X154425000Y-116250000D02*
X154425000Y-118562500D01*
X100100000Y-106000000D02*
X100500000Y-106400000D01*
X95300000Y-132000000D02*
X96065000Y-131235000D01*
X158500000Y-108300000D02*
X157300000Y-108300000D01*
X146225000Y-121925000D02*
X146200000Y-121900000D01*
X132700000Y-99800000D02*
X135300000Y-99800000D01*
X128075000Y-143475000D02*
X130100000Y-145500000D01*
X90695000Y-134560000D02*
X92740000Y-134560000D01*
X128075000Y-142462500D02*
X128075000Y-143475000D01*
X110500000Y-99500000D02*
X110500000Y-100300000D01*
X122100000Y-135025000D02*
X123600000Y-135025000D01*
X121100000Y-99500000D02*
X122300000Y-99500000D01*
X90570000Y-126600000D02*
X91700000Y-126600000D01*
X92740000Y-134560000D02*
X95300000Y-132000000D01*
X142200000Y-131475000D02*
X143700000Y-131475000D01*
X126325000Y-99867000D02*
X126484500Y-99707500D01*
X105612501Y-125400000D02*
X104850000Y-124637499D01*
X96720000Y-134735000D02*
X97765000Y-134735000D01*
X146225000Y-123100000D02*
X146225000Y-121925000D01*
X146340000Y-132540000D02*
X145640000Y-132540000D01*
X134425000Y-135905000D02*
X132705000Y-135905000D01*
X133850000Y-105375000D02*
X133675000Y-105200000D01*
D76*
X107820818Y-79075280D02*
X108945818Y-79075280D01*
X107810818Y-80595280D02*
X107810818Y-79085280D01*
D75*
X104850000Y-124637499D02*
X104850000Y-123975000D01*
X154887500Y-115787500D02*
X154425000Y-116250000D01*
D76*
X109700818Y-79830280D02*
X108906098Y-80625000D01*
D75*
X143900000Y-133000000D02*
X145100000Y-133000000D01*
X134100000Y-100000000D02*
X134200000Y-99900000D01*
X129400000Y-111500000D02*
X129440000Y-111460000D01*
X97765000Y-134735000D02*
X97800000Y-134700000D01*
X93662500Y-104700000D02*
X94800000Y-104700000D01*
D77*
X103600000Y-126852226D02*
X102012774Y-125265000D01*
D75*
X132100000Y-135400000D02*
X132700000Y-136000000D01*
X121200000Y-125400000D02*
X121200000Y-126200000D01*
D76*
X108906098Y-80625000D02*
X107800000Y-80625000D01*
D75*
X154050000Y-115875000D02*
X154425000Y-116250000D01*
X122500000Y-100700000D02*
X122500000Y-99500000D01*
X155387500Y-115287500D02*
X154887500Y-115787500D01*
X148800000Y-108300000D02*
X147675000Y-108300000D01*
X127425000Y-142462500D02*
X128075000Y-142462500D01*
X121025000Y-114200000D02*
X122525000Y-115700000D01*
X127900000Y-87350000D02*
X127900000Y-86300000D01*
X100500000Y-106400000D02*
X101275000Y-106400000D01*
X119475000Y-112700000D02*
X119475000Y-114200000D01*
X145640000Y-132540000D02*
X145600000Y-132500000D01*
D77*
X103600000Y-128400000D02*
X103600000Y-130749943D01*
D75*
X96065000Y-131235000D02*
X101395000Y-131235000D01*
X120600000Y-114200000D02*
X121025000Y-114200000D01*
D77*
X99370000Y-123240000D02*
X90920000Y-123240000D01*
D75*
X105900000Y-125400000D02*
X105612501Y-125400000D01*
X129440000Y-111460000D02*
X129440000Y-110750000D01*
X154600000Y-123100000D02*
X155725000Y-123100000D01*
X155751000Y-112863500D02*
X155751000Y-114924000D01*
X126494239Y-108225000D02*
X125593237Y-109126002D01*
X118600000Y-133600000D02*
X119675000Y-133600000D01*
D77*
X103114943Y-131235000D02*
X101395000Y-131235000D01*
D75*
X116525000Y-105550000D02*
X118000000Y-104075000D01*
X150900000Y-121900000D02*
X150900000Y-123075000D01*
X102100000Y-100510000D02*
X103950000Y-100510000D01*
X101890000Y-75597500D02*
X102400000Y-75087500D01*
X155751000Y-114924000D02*
X155387500Y-115287500D01*
D77*
X103600000Y-130749943D02*
X103114943Y-131235000D01*
D75*
X149300000Y-135000000D02*
X149300000Y-134025000D01*
X101450000Y-100510000D02*
X102100000Y-100510000D01*
D76*
X108945818Y-79075280D02*
X109700818Y-79830280D01*
D75*
X126600000Y-107875000D02*
X128075000Y-106400000D01*
D77*
X101395000Y-125265000D02*
X99370000Y-123240000D01*
D75*
X151900000Y-115875000D02*
X154050000Y-115875000D01*
X100610000Y-99670000D02*
X101450000Y-100510000D01*
X149200000Y-128500000D02*
X149200000Y-129675000D01*
X125224500Y-90107500D02*
X125224500Y-91197500D01*
X101275000Y-106400000D02*
X101275000Y-104950000D01*
X134200000Y-95200000D02*
X134200000Y-92805000D01*
X150400000Y-115875000D02*
X151900000Y-115875000D01*
X128075000Y-136737500D02*
X128075000Y-140100000D01*
X110500000Y-100500000D02*
X110000000Y-101000000D01*
D77*
X103600000Y-128400000D02*
X103600000Y-126852226D01*
D75*
X118600000Y-81500000D02*
X118600000Y-82675000D01*
X126775000Y-142462500D02*
X127425000Y-142462500D01*
X159300000Y-123300000D02*
X160225000Y-123300000D01*
X119700000Y-133575000D02*
X121200000Y-133575000D01*
X163300000Y-108300000D02*
X162200000Y-108300000D01*
X133825000Y-107625000D02*
X133850000Y-107600000D01*
D77*
X102012774Y-125265000D02*
X101395000Y-125265000D01*
D75*
X121200000Y-133575000D02*
X121200000Y-134125000D01*
X138800000Y-138700000D02*
X139825000Y-138700000D01*
X126600000Y-108225000D02*
X126494239Y-108225000D01*
X102400000Y-75087500D02*
X102400000Y-74200000D01*
X143700000Y-132800000D02*
X143900000Y-133000000D01*
X104000000Y-80296360D02*
X104000000Y-79175000D01*
X160225000Y-123300000D02*
X160525000Y-123000000D01*
X160900000Y-140900000D02*
X160900000Y-139000000D01*
X121200000Y-134125000D02*
X122100000Y-135025000D01*
X153600000Y-108300000D02*
X152475000Y-108300000D01*
X143700000Y-131475000D02*
X143700000Y-132800000D01*
X128075000Y-140100000D02*
X128075000Y-142462500D01*
X130600000Y-134975000D02*
X132100000Y-134975000D01*
X99800000Y-103100000D02*
X98557500Y-103100000D01*
X116525000Y-102600000D02*
X118000000Y-104075000D01*
X100500000Y-83725000D02*
X100500000Y-84800000D01*
X110500000Y-100300000D02*
X110500000Y-100500000D01*
X132100000Y-134975000D02*
X132100000Y-135400000D01*
%TO.N,+3.3V*%
X107100000Y-104900000D02*
X105925000Y-104900000D01*
X121598000Y-86600000D02*
X122500000Y-86600000D01*
D78*
X125900000Y-114100000D02*
X127050000Y-115250000D01*
D75*
X127875000Y-101700000D02*
X127875000Y-99828000D01*
X102100000Y-103300000D02*
X102100000Y-102510000D01*
D78*
X127100000Y-117150000D02*
X127100000Y-115350000D01*
D75*
X120175000Y-82700000D02*
X120175000Y-85177000D01*
X120200000Y-81500000D02*
X120200000Y-82675000D01*
D76*
X119000000Y-155600000D02*
X118200000Y-154800000D01*
D75*
X102100000Y-102510000D02*
X102100000Y-102010000D01*
X107825000Y-88425000D02*
X108600000Y-89200000D01*
X154300000Y-114325000D02*
X151900000Y-114325000D01*
X150400000Y-114325000D02*
X151900000Y-114325000D01*
D76*
X118200000Y-154800000D02*
X113275000Y-154800000D01*
D75*
X103025000Y-129800000D02*
X103025000Y-129451000D01*
X103000000Y-130500000D02*
X103000000Y-129825000D01*
X127900000Y-104300000D02*
X127900000Y-103225000D01*
X155075000Y-113625000D02*
X154375000Y-114325000D01*
X120175000Y-85177000D02*
X121598000Y-86600000D01*
X154375000Y-114325000D02*
X154300000Y-114325000D01*
X127875000Y-101700000D02*
X127875000Y-103200000D01*
X122500000Y-86600000D02*
X122500000Y-87700000D01*
D78*
X127050000Y-115250000D02*
X127050000Y-115300000D01*
D75*
X155075000Y-112837500D02*
X155075000Y-113625000D01*
X103000000Y-129825000D02*
X103025000Y-129800000D01*
X91800000Y-128800000D02*
X90570000Y-128800000D01*
D79*
%TO.N,/RF_IN*%
X112900000Y-102015000D02*
X111960000Y-102015000D01*
X113800000Y-102800000D02*
X113015000Y-102015000D01*
X113800000Y-103374999D02*
X113800000Y-102800000D01*
X113800000Y-103374999D02*
X114500001Y-104075000D01*
X114500001Y-104075000D02*
X115000000Y-104075000D01*
D75*
%TO.N,VCC*%
X119700000Y-132025000D02*
X119700000Y-129800000D01*
X120200000Y-129300000D02*
X120200000Y-126200000D01*
X124825000Y-136737500D02*
X125475000Y-136737500D01*
X125475000Y-136737500D02*
X126125000Y-136737500D01*
X119700000Y-129800000D02*
X120200000Y-129300000D01*
%TO.N,/BTSB*%
X121200000Y-124524000D02*
X122301000Y-124524000D01*
%TO.N,/SMPS_SW*%
X120700000Y-126600000D02*
X121000000Y-126900000D01*
X123325000Y-125050000D02*
X123325000Y-120000000D01*
X120700000Y-126200000D02*
X120700000Y-126600000D01*
X122000000Y-126900000D02*
X122500000Y-126400000D01*
X122500000Y-126400000D02*
X122500000Y-125875000D01*
X122500000Y-125875000D02*
X123325000Y-125050000D01*
X121000000Y-126900000D02*
X122000000Y-126900000D01*
%TO.N,/5V_SMPS_OUT*%
X133100000Y-129900000D02*
X137200000Y-129900000D01*
X115800000Y-112000000D02*
X116600000Y-111200000D01*
X116600000Y-111200000D02*
X117925000Y-111200000D01*
X115800000Y-113800000D02*
X115800000Y-112000000D01*
X160900000Y-133000000D02*
X160900000Y-135000000D01*
%TO.N,Net-(U3-MODE)*%
X128412486Y-109249000D02*
X127960000Y-109249000D01*
X129440000Y-109750000D02*
X128913486Y-109750000D01*
X127960000Y-108015000D02*
X128075000Y-107900000D01*
X119475000Y-111200000D02*
X124400000Y-111200000D01*
X127960000Y-109250000D02*
X127960000Y-108015000D01*
X128913486Y-109750000D02*
X128412486Y-109249000D01*
X128800000Y-107900000D02*
X128075000Y-107900000D01*
X128815246Y-107900000D02*
X128800000Y-107900000D01*
%TO.N,VBUS*%
X127960000Y-109750000D02*
X126625000Y-109750000D01*
D76*
X104100000Y-111250000D02*
X104100000Y-110400000D01*
X106203100Y-122813500D02*
X105396900Y-122813500D01*
X106203100Y-122813500D02*
X107700000Y-121316600D01*
X95262990Y-103106250D02*
X96268750Y-103106250D01*
X97386000Y-103300000D02*
X97386000Y-110186000D01*
X93662500Y-102100000D02*
X94430760Y-102100000D01*
X106050000Y-111250000D02*
X107700000Y-112900000D01*
X97196000Y-103110000D02*
X97386000Y-103300000D01*
X105396900Y-122813500D02*
X105049000Y-122465600D01*
X104100000Y-110400000D02*
X105925000Y-108575000D01*
X105301001Y-122813500D02*
X104850000Y-122362499D01*
X108348999Y-109876001D02*
X126498999Y-109876001D01*
X104850000Y-122362499D02*
X104850000Y-121700000D01*
X105925000Y-108575000D02*
X105925000Y-106400000D01*
X106050000Y-111250000D02*
X106975000Y-111250000D01*
X104850000Y-116150000D02*
X104850000Y-121700000D01*
X107700000Y-121316600D02*
X107700000Y-112900000D01*
X106975000Y-111250000D02*
X108348999Y-109876001D01*
X104100000Y-111250000D02*
X106050000Y-111250000D01*
X97386000Y-110186000D02*
X98450000Y-111250000D01*
X98450000Y-111250000D02*
X104100000Y-111250000D01*
X96272500Y-103110000D02*
X97196000Y-103110000D01*
X106203100Y-122813500D02*
X105301001Y-122813500D01*
X94430760Y-102100000D02*
X94760380Y-101770380D01*
D75*
%TO.N,+5V*%
X148700000Y-130775000D02*
X148700000Y-131000000D01*
X123600000Y-139700000D02*
X123600000Y-136575000D01*
D78*
X137900001Y-96800001D02*
X137900001Y-82000000D01*
X142100000Y-101000000D02*
X142100000Y-111300000D01*
D75*
X147340000Y-131060000D02*
X147340000Y-129985000D01*
D78*
X131700000Y-115350000D02*
X131700000Y-117050000D01*
X135500000Y-110000000D02*
X135375000Y-110000000D01*
X135500000Y-110000000D02*
X135475000Y-110000000D01*
D75*
X123600000Y-136575000D02*
X122100000Y-136575000D01*
D78*
X139700000Y-100000000D02*
X137300000Y-102400000D01*
D75*
X128725000Y-136737500D02*
X128725000Y-135125000D01*
X94600000Y-84300000D02*
X93300000Y-83000000D01*
X135300000Y-107600000D02*
X135300000Y-108100000D01*
D78*
X137300000Y-108200000D02*
X135500000Y-110000000D01*
D75*
X147625000Y-129700000D02*
X148700000Y-130775000D01*
D78*
X137300000Y-102400000D02*
X137300000Y-108200000D01*
X140900000Y-99800000D02*
X137900001Y-96800001D01*
X131700000Y-117050000D02*
X131650000Y-117100000D01*
D75*
X93300000Y-83000000D02*
X93300000Y-74260000D01*
X128725000Y-135125000D02*
X128700000Y-135100000D01*
D78*
X140900000Y-99800000D02*
X142100000Y-101000000D01*
D75*
X100500000Y-88075000D02*
X96725000Y-84300000D01*
X96725000Y-84300000D02*
X94600000Y-84300000D01*
X135300000Y-108100000D02*
X135300000Y-108600000D01*
X93300000Y-74260000D02*
X95000000Y-72560000D01*
D78*
X142100000Y-111300000D02*
X138100000Y-115300000D01*
X138100000Y-115300000D02*
X134500000Y-115300000D01*
X134500000Y-115300000D02*
X131650000Y-115300000D01*
X131650000Y-115300000D02*
X131700000Y-115350000D01*
D79*
%TO.N,/BIAS_T*%
X112215000Y-102985000D02*
X112900000Y-102985000D01*
X113300000Y-103385000D02*
X113300000Y-105275000D01*
X111725000Y-103475000D02*
X112215000Y-102985000D01*
X112900000Y-102985000D02*
X113300000Y-103385000D01*
D75*
%TO.N,Net-(IC2-VBUS)*%
X102925000Y-106400000D02*
X104275000Y-106400000D01*
X102950000Y-103360000D02*
X102950000Y-104825000D01*
X102925000Y-106400000D02*
X102925000Y-104950000D01*
%TO.N,+5VA*%
X156500000Y-128150000D02*
X156500000Y-127000000D01*
X161300000Y-103250000D02*
X161300000Y-104400000D01*
X153349999Y-117400000D02*
X153775000Y-117825001D01*
X151700000Y-128150000D02*
X151700000Y-127000000D01*
X142200000Y-129350000D02*
X143500000Y-128050000D01*
X146900000Y-103250000D02*
X146900000Y-104400000D01*
X146275000Y-129875000D02*
X145200000Y-129875000D01*
X156500000Y-103250000D02*
X156500000Y-104400000D01*
X146840000Y-131060000D02*
X146840000Y-130440000D01*
X142200000Y-129925000D02*
X142200000Y-129350000D01*
X151700000Y-103250000D02*
X151700000Y-104400000D01*
X143700000Y-129925000D02*
X145150000Y-129925000D01*
X152300000Y-117400000D02*
X153349999Y-117400000D01*
X161300000Y-127000000D02*
X161300000Y-128100000D01*
X143700000Y-129925000D02*
X142200000Y-129925000D01*
X153775000Y-117825001D02*
X153775000Y-118562500D01*
X146900000Y-128150000D02*
X146900000Y-127100000D01*
X143500000Y-128050000D02*
X144500000Y-128050000D01*
X146840000Y-130440000D02*
X146275000Y-129875000D01*
X146840000Y-131060000D02*
X146840000Y-132540000D01*
%TO.N,/CAN-*%
X127754500Y-93645500D02*
X127754500Y-94757500D01*
X128550000Y-85250000D02*
X128550000Y-83350002D01*
X128550000Y-83350002D02*
X129900002Y-82000000D01*
X134170000Y-86475000D02*
X134170000Y-87230000D01*
X128550000Y-85250000D02*
X132945000Y-85250000D01*
X132945000Y-85250000D02*
X134170000Y-86475000D01*
X134170000Y-87230000D02*
X127754500Y-93645500D01*
%TO.N,/CAN+*%
X127483003Y-90445320D02*
X127483003Y-90565320D01*
X127483003Y-91645320D02*
X127483003Y-91765320D01*
X127075000Y-88900000D02*
X127075000Y-85425000D01*
X126484500Y-89490500D02*
X126484500Y-89965320D01*
X127075000Y-85425000D02*
X127250000Y-85250000D01*
X126036442Y-92229349D02*
X126036442Y-92381291D01*
X126226015Y-93205320D02*
X127243003Y-93205320D01*
X126226015Y-93805320D02*
X126244500Y-93805320D01*
X126260471Y-92605320D02*
X127243003Y-92605320D01*
X126724500Y-90205320D02*
X127243003Y-90205320D01*
X126285470Y-91405320D02*
X127243003Y-91405320D01*
X127250000Y-85250000D02*
X127250000Y-83349998D01*
X127250000Y-83349998D02*
X125900002Y-82000000D01*
X126285470Y-90805320D02*
X127243003Y-90805320D01*
X126086441Y-91004349D02*
X126086441Y-91206291D01*
X127075000Y-88900000D02*
X126484500Y-89490500D01*
X126260471Y-92005320D02*
X127243003Y-92005320D01*
X127483003Y-92845320D02*
X127483003Y-92965320D01*
X125986015Y-93445320D02*
X125986015Y-93565320D01*
X126086441Y-91206291D02*
G75*
G03*
X126285470Y-91405359I199059J-9D01*
G01*
X127483003Y-91765320D02*
G75*
G02*
X127243003Y-92005303I-240003J20D01*
G01*
X125986015Y-93565320D02*
G75*
G03*
X126226015Y-93805285I239985J20D01*
G01*
X126484500Y-89965320D02*
G75*
G03*
X126724500Y-90205300I240000J20D01*
G01*
X127483003Y-90565320D02*
G75*
G02*
X127243003Y-90805303I-240003J20D01*
G01*
X126244500Y-93805320D02*
G75*
G02*
X126484480Y-94045320I0J-239980D01*
G01*
X127243003Y-91405320D02*
G75*
G02*
X127482980Y-91645320I-3J-239980D01*
G01*
X127483003Y-92965320D02*
G75*
G02*
X127243003Y-93205303I-240003J20D01*
G01*
X126036442Y-92381291D02*
G75*
G03*
X126260471Y-92605358I224058J-9D01*
G01*
X127243003Y-90205320D02*
G75*
G02*
X127482980Y-90445320I-3J-239980D01*
G01*
X126285470Y-90805320D02*
G75*
G03*
X126086520Y-91004349I30J-198980D01*
G01*
X127243003Y-92605320D02*
G75*
G02*
X127482980Y-92845320I-3J-239980D01*
G01*
X126260471Y-92005320D02*
G75*
G03*
X126036420Y-92229349I29J-224080D01*
G01*
X126226015Y-93205320D02*
G75*
G03*
X125986020Y-93445320I-15J-239980D01*
G01*
%TO.N,/AIN0*%
X148600000Y-123100000D02*
X150600000Y-121100000D01*
X146900000Y-123975000D02*
X147775000Y-123100000D01*
X147775000Y-123100000D02*
X148600000Y-123100000D01*
X144500000Y-124575000D02*
X146825000Y-124575000D01*
X153274999Y-121100000D02*
X155075000Y-119299999D01*
X155075000Y-119299999D02*
X155075000Y-118562500D01*
X146900000Y-124650000D02*
X146900000Y-123975000D01*
X150600000Y-121100000D02*
X153274999Y-121100000D01*
%TO.N,/AIN1*%
X151700000Y-124650000D02*
X151700000Y-123875000D01*
X151700000Y-123875000D02*
X152475000Y-123100000D01*
X155725000Y-119850000D02*
X155725000Y-118562500D01*
X149300000Y-124575000D02*
X151625000Y-124575000D01*
X152475000Y-123100000D02*
X155725000Y-119850000D01*
%TO.N,/AIN2*%
X156500000Y-123875000D02*
X157275000Y-123100000D01*
X156500000Y-124650000D02*
X156500000Y-123875000D01*
X154100000Y-124600000D02*
X156450000Y-124600000D01*
X157275000Y-123100000D02*
X156375000Y-122200000D01*
X156375000Y-122200000D02*
X156375000Y-118562500D01*
%TO.N,/AIN3*%
X158425001Y-120700000D02*
X159775000Y-120700000D01*
X159775000Y-120700000D02*
X162075000Y-123000000D01*
X161300000Y-123775000D02*
X162075000Y-123000000D01*
X161300000Y-124600000D02*
X161300000Y-123775000D01*
X158900000Y-124600000D02*
X161300000Y-124600000D01*
X157025000Y-118562500D02*
X157025000Y-119299999D01*
X157025000Y-119299999D02*
X158425001Y-120700000D01*
%TO.N,/AIN4*%
X161300000Y-106750000D02*
X161300000Y-107650000D01*
X161300000Y-107650000D02*
X160650000Y-108300000D01*
X160701000Y-115536500D02*
X157675000Y-118562500D01*
X160701000Y-108351000D02*
X160701000Y-115536500D01*
X158900000Y-106725000D02*
X161275000Y-106725000D01*
%TO.N,/AIN5*%
X156500000Y-107550000D02*
X155750000Y-108300000D01*
X158700000Y-112700000D02*
X158700000Y-111250000D01*
X157675000Y-112837500D02*
X158562500Y-112837500D01*
X158700000Y-111250000D02*
X155750000Y-108300000D01*
X154100000Y-106725000D02*
X156475000Y-106725000D01*
X156500000Y-106750000D02*
X156500000Y-107550000D01*
X158562500Y-112837500D02*
X158700000Y-112700000D01*
%TO.N,/AIN6*%
X155500000Y-109600000D02*
X152225000Y-109600000D01*
X152225000Y-109600000D02*
X150925000Y-108300000D01*
X157025000Y-112837500D02*
X157025000Y-111125000D01*
X157025000Y-111125000D02*
X155500000Y-109600000D01*
X151700000Y-106750000D02*
X151700000Y-107525000D01*
X149300000Y-106725000D02*
X151675000Y-106725000D01*
X151700000Y-107525000D02*
X150925000Y-108300000D01*
%TO.N,/AIN7*%
X146125000Y-108300000D02*
X148226000Y-110401000D01*
X146900000Y-107525000D02*
X146125000Y-108300000D01*
X144500000Y-106725000D02*
X146875000Y-106725000D01*
X148226000Y-110401000D02*
X154675999Y-110401000D01*
X146900000Y-106750000D02*
X146900000Y-107525000D01*
X156375000Y-112100001D02*
X156375000Y-112837500D01*
X154675999Y-110401000D02*
X156375000Y-112100001D01*
%TO.N,/I2C1_SCL*%
X96055000Y-137600000D02*
X96055000Y-136968000D01*
X129375000Y-138075000D02*
X129400000Y-138100000D01*
X99400000Y-134020654D02*
X99400000Y-133200000D01*
X96524000Y-136499000D02*
X96921654Y-136499000D01*
X96055000Y-136968000D02*
X96524000Y-136499000D01*
X129375000Y-136737500D02*
X129375000Y-138075000D01*
X96921654Y-136499000D02*
X99400000Y-134020654D01*
%TO.N,/CAN_TERM*%
X115000000Y-137870000D02*
X111070000Y-141800000D01*
X115000000Y-113629855D02*
X115000000Y-137870000D01*
X111070000Y-141800000D02*
X111070000Y-142720000D01*
X111070000Y-142720000D02*
X109860000Y-143930000D01*
X115023884Y-113605971D02*
X115000000Y-113629855D01*
X109860000Y-143930000D02*
X109250000Y-143930000D01*
X131630000Y-102170000D02*
X131630000Y-92775000D01*
%TO.N,/USER_LED*%
X98525000Y-98425000D02*
X98500000Y-98400000D01*
X93400000Y-120900000D02*
X93400000Y-108900000D01*
X92980000Y-140120000D02*
X93000000Y-140100000D01*
X93400000Y-108900000D02*
X92690380Y-108190380D01*
X91750000Y-140120000D02*
X92980000Y-140120000D01*
X98525000Y-99600000D02*
X98525000Y-98425000D01*
%TO.N,/CAN_CTX*%
X109860825Y-142660000D02*
X109250000Y-142660000D01*
X113300000Y-113200000D02*
X113300000Y-138508520D01*
X123995653Y-109125001D02*
X129024500Y-104096154D01*
X113700000Y-112800000D02*
X113300000Y-113200000D01*
X110539260Y-141269260D02*
X110539260Y-141981565D01*
X110539260Y-141981565D02*
X109860825Y-142660000D01*
X122594238Y-109125001D02*
X123995653Y-109125001D01*
X113300000Y-138508520D02*
X110539260Y-141269260D01*
X129024500Y-104096154D02*
X129024500Y-99707500D01*
%TO.N,/CAN_RTX*%
X111800000Y-139300000D02*
X109710000Y-141390000D01*
X112100000Y-112200000D02*
X111800000Y-112500000D01*
X111800000Y-112500000D02*
X111800000Y-139300000D01*
X125214500Y-99707500D02*
X125214500Y-105585500D01*
X125214500Y-105585500D02*
X121800000Y-109000000D01*
D77*
%TO.N,/SD_CD*%
X93515000Y-135085000D02*
X96000000Y-132600000D01*
X96000000Y-132600000D02*
X100400000Y-132600000D01*
X104175000Y-130742043D02*
X104175000Y-129800000D01*
X93515000Y-137600000D02*
X93515000Y-135085000D01*
X100420000Y-132620000D02*
X100420000Y-134735000D01*
X100400000Y-132600000D02*
X102317043Y-132600000D01*
X102317043Y-132600000D02*
X104175000Y-130742043D01*
X100400000Y-132600000D02*
X100420000Y-132620000D01*
D75*
%TO.N,/I2C1_SDA*%
X98100000Y-133300000D02*
X96353000Y-133300000D01*
X96353000Y-133300000D02*
X94785000Y-134868000D01*
X94785000Y-134868000D02*
X94785000Y-137600000D01*
X129375000Y-142462500D02*
X129375000Y-141225000D01*
X129375000Y-141225000D02*
X129400000Y-141200000D01*
%TO.N,/UART1_D-*%
X107775008Y-125363532D02*
X107643981Y-125232505D01*
X105800000Y-123975000D02*
X107057505Y-125232505D01*
X108351000Y-126526000D02*
X107775008Y-125950008D01*
X108351000Y-136734000D02*
X108351000Y-126526000D01*
X107485000Y-137600000D02*
X108351000Y-136734000D01*
X107775008Y-125656770D02*
G75*
G03*
X107774959Y-125363581I-146608J146570D01*
G01*
X107643981Y-125232505D02*
G75*
G03*
X107350743Y-125232505I-146619J-146618D01*
G01*
X107350743Y-125232505D02*
G75*
G02*
X107057505Y-125232505I-146619J146618D01*
G01*
X107775008Y-125950008D02*
G75*
G02*
X107775019Y-125656781I146592J146608D01*
G01*
%TO.N,/UART1_D+*%
X103900000Y-124637499D02*
X107337500Y-128074999D01*
X106215000Y-135885000D02*
X107337500Y-134762500D01*
X107337500Y-128074999D02*
X107337500Y-134762500D01*
X103900000Y-123975000D02*
X103900000Y-124637499D01*
X106215000Y-137600000D02*
X106215000Y-135885000D01*
%TO.N,/ADC_CLK*%
X112416589Y-152824285D02*
X110351000Y-150758696D01*
X147275000Y-114400000D02*
X145600000Y-114400000D01*
X121373697Y-140602871D02*
X121924401Y-141153575D01*
X110351000Y-150749000D02*
X110341304Y-150749000D01*
X145600000Y-114400000D02*
X130500000Y-129500000D01*
X110341304Y-150749000D02*
X109872304Y-150280000D01*
X109872304Y-150280000D02*
X109250000Y-150280000D01*
X121373697Y-138830104D02*
X121373697Y-140602871D01*
X109250000Y-150280000D02*
X109882000Y-150280000D01*
X121400000Y-138600000D02*
X121501901Y-138701901D01*
X110351000Y-150758696D02*
X110351000Y-150749000D01*
X121924401Y-151462682D02*
X120562798Y-152824285D01*
X120562798Y-152824285D02*
X112416589Y-152824285D01*
X121501901Y-138701901D02*
X121373697Y-138830104D01*
X121924401Y-141153575D02*
X121924401Y-151462682D01*
%TO.N,/ADC_CS*%
X110433784Y-151550000D02*
X112209069Y-153325285D01*
X120770319Y-153325285D02*
X122425401Y-151670202D01*
X122000000Y-139124455D02*
X122024697Y-139099758D01*
X131734313Y-130065687D02*
X143200000Y-118600000D01*
X122425401Y-140946055D02*
X122000000Y-140520654D01*
X112209069Y-153325285D02*
X120770319Y-153325285D01*
X122425401Y-151670202D02*
X122425401Y-140946055D01*
X122000000Y-140520654D02*
X122000000Y-139124455D01*
X109250000Y-151550000D02*
X110433784Y-151550000D01*
X143200000Y-118600000D02*
X147275000Y-118600000D01*
%TO.N,/ADC_DOUT*%
X121423401Y-141361096D02*
X121423401Y-151255162D01*
X111280000Y-150979175D02*
X111280000Y-149599174D01*
X121423401Y-151255162D02*
X120355278Y-152323285D01*
X147275000Y-112900000D02*
X145900000Y-112900000D01*
X120700000Y-138100000D02*
X120700000Y-140637695D01*
X111280000Y-149599174D02*
X110690826Y-149010000D01*
X112624110Y-152323285D02*
X111280000Y-150979175D01*
X110690826Y-149010000D02*
X109250000Y-149010000D01*
X120700000Y-140637695D02*
X121423401Y-141361096D01*
X120355278Y-152323285D02*
X112624110Y-152323285D01*
X145900000Y-112900000D02*
X129900000Y-128900000D01*
%TO.N,Net-(U6-MODE)*%
X146200000Y-138200000D02*
X146175000Y-138175000D01*
X146200000Y-138700000D02*
X146200000Y-138200000D01*
D77*
X147340000Y-132540000D02*
X147340000Y-132171176D01*
D75*
X141375000Y-137200000D02*
X141375000Y-138700000D01*
X139375000Y-134635000D02*
X140349999Y-134635000D01*
D77*
X147340000Y-132960000D02*
X146400000Y-133900000D01*
D75*
X141375000Y-138700000D02*
X143000000Y-138700000D01*
X140349999Y-134635000D02*
X141375000Y-135660001D01*
X141375000Y-135660001D02*
X141375000Y-137200000D01*
D77*
X147340000Y-132171176D02*
X147840000Y-131671176D01*
X147340000Y-132540000D02*
X147340000Y-132960000D01*
X147840000Y-131671176D02*
X147840000Y-131060000D01*
D75*
X146175000Y-138175000D02*
X146175000Y-133900000D01*
D79*
%TO.N,Net-(IC7-RF_IN)*%
X111751000Y-98749000D02*
X111402000Y-98400000D01*
X111751000Y-98749000D02*
X111751000Y-100549000D01*
X111402000Y-98400000D02*
X110500000Y-98400000D01*
X111751000Y-100549000D02*
X110125000Y-102175000D01*
D75*
%TO.N,/ADC_DIN*%
X110129346Y-147740000D02*
X111849000Y-149459654D01*
X109250000Y-147740000D02*
X110129346Y-147740000D01*
X116140209Y-151381000D02*
X116620209Y-150901000D01*
X116620209Y-150901000D02*
X116629654Y-150901000D01*
X118799000Y-148731654D02*
X118799000Y-138801000D01*
X112390346Y-151381000D02*
X116140209Y-151381000D01*
X111849000Y-150839654D02*
X112390346Y-151381000D01*
X146200000Y-111400000D02*
X129400000Y-128200000D01*
X147275000Y-111400000D02*
X146200000Y-111400000D01*
X118799000Y-138801000D02*
X120059620Y-137540380D01*
X116629654Y-150901000D02*
X118799000Y-148731654D01*
X111849000Y-149459654D02*
X111849000Y-150839654D01*
%TO.N,/GPS_D-*%
X105473461Y-86260968D02*
X105473461Y-86140968D01*
X105233461Y-85900968D02*
X105190000Y-85900968D01*
X104366539Y-86500968D02*
X105233461Y-86500968D01*
X104950000Y-85660968D02*
X104950000Y-82400000D01*
X104710000Y-87100968D02*
X104366539Y-87100968D01*
X110500000Y-89900000D02*
X107429346Y-89900000D01*
X104950000Y-87420654D02*
X104950000Y-87340968D01*
X107429346Y-89900000D02*
X104950000Y-87420654D01*
X104126539Y-86860968D02*
X104126539Y-86740968D01*
X104950000Y-87340968D02*
G75*
G03*
X104710000Y-87101000I-240000J-32D01*
G01*
X105190000Y-85900968D02*
G75*
G02*
X104950032Y-85660968I0J239968D01*
G01*
X105473461Y-86140968D02*
G75*
G03*
X105233461Y-85901039I-239961J-32D01*
G01*
X105233461Y-86500968D02*
G75*
G03*
X105473468Y-86260968I39J239968D01*
G01*
X104366539Y-87100968D02*
G75*
G02*
X104126532Y-86860968I-39J239968D01*
G01*
X104126539Y-86740968D02*
G75*
G02*
X104366539Y-86501039I239961J-32D01*
G01*
%TO.N,Net-(IC2-RTS)*%
X104106000Y-93656000D02*
X105450000Y-95000000D01*
X104950000Y-97400000D02*
X104950000Y-98660000D01*
X106050000Y-96300000D02*
X104950000Y-97400000D01*
X106050000Y-96300000D02*
X106050000Y-95000000D01*
X105450000Y-95000000D02*
X106050000Y-95000000D01*
X104106000Y-91431000D02*
X104106000Y-93656000D01*
%TO.N,/Safeboot*%
X110500000Y-85500000D02*
X111700000Y-85500000D01*
X160900000Y-90200000D02*
X160900000Y-92000000D01*
%TO.N,/D_SEL*%
X107800000Y-86775000D02*
X110325000Y-86775000D01*
%TO.N,/GPS_D+*%
X103000000Y-82425000D02*
X103000000Y-86900000D01*
X107100000Y-91000000D02*
X110500000Y-91000000D01*
X103000000Y-86900000D02*
X107100000Y-91000000D01*
%TO.N,/VCC_RF*%
X109300000Y-96200000D02*
X110500000Y-96200000D01*
X109100000Y-102825000D02*
X109100000Y-96400000D01*
X109100000Y-96400000D02*
X109300000Y-96200000D01*
X110075000Y-103800000D02*
X109100000Y-102825000D01*
%TO.N,/PG*%
X119700000Y-126200000D02*
X118675000Y-126200000D01*
X118675000Y-126200000D02*
X118400000Y-125925000D01*
%TO.N,/SMPS_FB*%
X119525000Y-115700000D02*
X120875000Y-115700000D01*
X119700000Y-115875000D02*
X119700000Y-124524000D01*
%TO.N,/PROG_D-*%
X98547500Y-102160000D02*
X97750000Y-102160000D01*
X97610000Y-101060000D02*
X99660000Y-101060000D01*
X97370000Y-101780000D02*
X97370000Y-101300000D01*
X99660000Y-101060000D02*
X100110000Y-101510000D01*
X97750000Y-102160000D02*
X97370000Y-101780000D01*
X100110000Y-101510000D02*
X102100000Y-101510000D01*
X97370000Y-101300000D02*
X97610000Y-101060000D01*
%TO.N,Net-(IC2-DTR)*%
X102500000Y-91300000D02*
X102500000Y-95000000D01*
X102500000Y-98210000D02*
X102950000Y-98660000D01*
X102500000Y-95000000D02*
X102500000Y-98210000D01*
%TO.N,/PPS_LED*%
X110474000Y-87674000D02*
X107074000Y-87674000D01*
%TO.N,/RTK_STAT*%
X121300000Y-97300000D02*
X120949000Y-96949000D01*
X120949000Y-96949000D02*
X120949000Y-92700000D01*
X122500000Y-97300000D02*
X121300000Y-97300000D01*
X101700000Y-79100000D02*
X100550000Y-77950000D01*
%TO.N,/PROG_D+*%
X99760654Y-104060000D02*
X98547500Y-104060000D01*
X100630000Y-100680000D02*
X100960000Y-101010000D01*
X100600000Y-103220654D02*
X100600000Y-102160000D01*
X99760654Y-104060000D02*
X100600000Y-103220654D01*
X100960000Y-101010000D02*
X102100000Y-101010000D01*
%TO.N,Net-(IC5-Pad6)*%
X130200000Y-88900000D02*
X131630000Y-87470000D01*
X131630000Y-87470000D02*
X131630000Y-86475000D01*
X128725000Y-88900000D02*
X130200000Y-88900000D01*
%TO.N,Net-(LED4-K)*%
X95000000Y-82100000D02*
X100475000Y-82100000D01*
%TO.N,/XTAL_32K_P*%
X114950000Y-148175000D02*
X113725000Y-149400000D01*
X114950000Y-147080000D02*
X114950000Y-148175000D01*
X109250000Y-146470000D02*
X110795000Y-146470000D01*
X110795000Y-146470000D02*
X113725000Y-149400000D01*
D77*
%TO.N,/SD_DAT3*%
X101387100Y-136037000D02*
X100896000Y-136037000D01*
X105102000Y-128902000D02*
X105102000Y-132322100D01*
X104800000Y-128600000D02*
X105102000Y-128902000D01*
X105102000Y-132322100D02*
X101387100Y-136037000D01*
X104175000Y-128600000D02*
X104800000Y-128600000D01*
X100896000Y-136037000D02*
X99865000Y-137068000D01*
D75*
%TO.N,/RSTB*%
X103450000Y-104075000D02*
X104275000Y-104900000D01*
X103450000Y-103360000D02*
X103450000Y-104075000D01*
%TO.N,/USBB_D+*%
X103900000Y-121700000D02*
X103900000Y-120700000D01*
X101399000Y-118199000D02*
X101399000Y-114401000D01*
X101399000Y-114401000D02*
X102500000Y-113300000D01*
X103900000Y-120700000D02*
X101399000Y-118199000D01*
%TO.N,/USBB_D-*%
X105800000Y-114600000D02*
X105800000Y-116516936D01*
X106242843Y-117356936D02*
X106040000Y-117356936D01*
X105800000Y-117596936D02*
X105800000Y-121700000D01*
X106040000Y-116756936D02*
X106242843Y-116756936D01*
X106482843Y-116996936D02*
X106482843Y-117116936D01*
X104500000Y-113300000D02*
X105800000Y-114600000D01*
X105800000Y-116516936D02*
G75*
G03*
X106040000Y-116756900I240000J36D01*
G01*
X106242843Y-116756936D02*
G75*
G02*
X106482764Y-116996936I-43J-239964D01*
G01*
X106040000Y-117356936D02*
G75*
G03*
X105800036Y-117596936I0J-239964D01*
G01*
X106482843Y-117116936D02*
G75*
G02*
X106242843Y-117356943I-240043J36D01*
G01*
%TO.N,/USBM_D-*%
X95290000Y-102160000D02*
X96272500Y-102160000D01*
X93662500Y-102750000D02*
X94700000Y-102750000D01*
X94700000Y-102750000D02*
X95290000Y-102160000D01*
%TO.N,/USBM_D+*%
X93662500Y-103400000D02*
X94637500Y-103400000D01*
X94637500Y-103400000D02*
X95297500Y-104060000D01*
X95297500Y-104060000D02*
X96272500Y-104060000D01*
%TO.N,+BATT*%
X126125000Y-140375000D02*
X127425000Y-139075000D01*
X127425000Y-139075000D02*
X127425000Y-136737500D01*
X126125000Y-142462500D02*
X126125000Y-140375000D01*
%TO.N,/USBM2_D+*%
X103050000Y-75827500D02*
X103050000Y-76900000D01*
X103700000Y-75177500D02*
X103050000Y-75827500D01*
X103700000Y-74200000D02*
X103700000Y-75177500D01*
%TO.N,/USBM2_D-*%
X104950000Y-75617500D02*
X104950000Y-76900000D01*
X104350000Y-75017500D02*
X104950000Y-75617500D01*
X104350000Y-74200000D02*
X104350000Y-75017500D01*
D77*
%TO.N,Net-(J4-DAT2)*%
X95100000Y-129000000D02*
X92000000Y-132100000D01*
X103025000Y-129000000D02*
X95100000Y-129000000D01*
X92000000Y-132100000D02*
X90570000Y-132100000D01*
D75*
%TO.N,/UART2_TX*%
X110600000Y-111800000D02*
X110600000Y-139500000D01*
X111000000Y-111400000D02*
X110600000Y-111800000D01*
X123402000Y-89900000D02*
X124400000Y-90898000D01*
X109980000Y-140120000D02*
X109250000Y-140120000D01*
X124400000Y-90898000D02*
X124400000Y-104100000D01*
X122500000Y-89900000D02*
X123402000Y-89900000D01*
X110600000Y-139500000D02*
X109980000Y-140120000D01*
%TO.N,/PWR_LED*%
X95010000Y-86550000D02*
X97325000Y-86550000D01*
X97325000Y-86550000D02*
X100500000Y-89725000D01*
%TO.N,/USR_LED_RSTR*%
X95000000Y-93560000D02*
X96875000Y-95435000D01*
X96875000Y-95435000D02*
X96875000Y-99600000D01*
D77*
%TO.N,Net-(J4-CLK)*%
X103025000Y-127800000D02*
X90670000Y-127800000D01*
D75*
%TO.N,Net-(Q2-B)*%
X101545000Y-92900000D02*
X101545000Y-89345226D01*
X103224000Y-88899000D02*
X104000000Y-89675000D01*
X101991226Y-88899000D02*
X103224000Y-88899000D01*
X101545000Y-89345226D02*
X101991226Y-88899000D01*
D77*
%TO.N,Net-(J4-DAT0)*%
X100632900Y-127400000D02*
X103025000Y-127400000D01*
X90570000Y-125500000D02*
X98732900Y-125500000D01*
X98732900Y-125500000D02*
X100632900Y-127400000D01*
D75*
%TO.N,/PR1*%
X129725000Y-107900000D02*
X129725000Y-106400000D01*
X129400000Y-108225000D02*
X129400000Y-109210000D01*
X129725000Y-107900000D02*
X129400000Y-108225000D01*
%TO.N,/ST*%
X127960000Y-111560000D02*
X128551000Y-112151000D01*
X128551000Y-112151000D02*
X130774000Y-112151000D01*
X131200000Y-111725000D02*
X131200000Y-113300000D01*
X127960000Y-110750000D02*
X127960000Y-111560000D01*
X160900000Y-98200000D02*
X160900000Y-100000000D01*
X130774000Y-112151000D02*
X131200000Y-111725000D01*
D77*
%TO.N,Net-(J4-DAT1)*%
X98250000Y-124450000D02*
X90570000Y-124450000D01*
X100800000Y-127000000D02*
X98250000Y-124450000D01*
X103025000Y-127000000D02*
X100800000Y-127000000D01*
%TO.N,Net-(J4-CMD)*%
X94250000Y-128200000D02*
X92550000Y-129900000D01*
X103025000Y-128200000D02*
X94250000Y-128200000D01*
X92550000Y-129900000D02*
X90570000Y-129900000D01*
%TO.N,Net-(J4-DAT3{slash}CD)*%
X94450000Y-128600000D02*
X103025000Y-128600000D01*
X90570000Y-131000000D02*
X92050000Y-131000000D01*
X92050000Y-131000000D02*
X94450000Y-128600000D01*
D75*
%TO.N,/UART2_RX*%
X121800000Y-101500000D02*
X121800000Y-102100000D01*
X120299000Y-89801000D02*
X120299000Y-99999000D01*
X121300000Y-88800000D02*
X120299000Y-89801000D01*
X109250000Y-111059678D02*
X109250000Y-138850000D01*
X120299000Y-99999000D02*
X121800000Y-101500000D01*
X109480339Y-110829339D02*
X109250000Y-111059678D01*
X109480339Y-110780339D02*
X109480339Y-110829339D01*
X122500000Y-88800000D02*
X121300000Y-88800000D01*
%TO.N,/CHIP_PU*%
X122926401Y-140526401D02*
X122926401Y-151877723D01*
X122900000Y-140500000D02*
X122926401Y-140526401D01*
X107005000Y-92900000D02*
X107005000Y-94505000D01*
X107005000Y-94505000D02*
X107100000Y-94600000D01*
X122926401Y-151877723D02*
X121104123Y-153700000D01*
X121104123Y-153700000D02*
X120977840Y-153826285D01*
X110995264Y-152820000D02*
X109250000Y-152820000D01*
X112001548Y-153826285D02*
X110995264Y-152820000D01*
X120977840Y-153826285D02*
X112001548Y-153826285D01*
%TO.N,/U0TXD*%
X104450000Y-97350000D02*
X104200000Y-97100000D01*
X90750000Y-151550000D02*
X90400000Y-151200000D01*
X104450000Y-98660000D02*
X104450000Y-97350000D01*
X91750000Y-151550000D02*
X90750000Y-151550000D01*
D77*
%TO.N,/SD_CLK*%
X105904000Y-132654300D02*
X105904000Y-128569800D01*
X102405000Y-136153300D02*
X105904000Y-132654300D01*
X105904000Y-128569800D02*
X105134200Y-127800000D01*
X102405000Y-137600000D02*
X102405000Y-136153300D01*
X105134200Y-127800000D02*
X104175000Y-127800000D01*
D75*
%TO.N,/GPIO0*%
X103455000Y-94855000D02*
X103700000Y-95100000D01*
X92300000Y-135800000D02*
X91750000Y-136350000D01*
X91750000Y-136350000D02*
X91750000Y-138850000D01*
X103455000Y-92900000D02*
X103455000Y-94855000D01*
D77*
%TO.N,/SD_DAT2*%
X104701000Y-132156000D02*
X104701000Y-129203226D01*
X100027000Y-135636000D02*
X101221000Y-135636000D01*
X98595000Y-137068000D02*
X100027000Y-135636000D01*
X104497774Y-129000000D02*
X104175000Y-129000000D01*
X104701000Y-129203226D02*
X104497774Y-129000000D01*
X101221000Y-135636000D02*
X104701000Y-132156000D01*
D75*
%TO.N,/XTAL_32K_N*%
X109250000Y-145200000D02*
X110825000Y-145200000D01*
X114950000Y-143525000D02*
X113725000Y-142300000D01*
X114950000Y-144580000D02*
X114950000Y-143525000D01*
X110825000Y-145200000D02*
X113725000Y-142300000D01*
D77*
%TO.N,/SD_DAT1*%
X106706000Y-128237600D02*
X105468400Y-127000000D01*
X105468400Y-127000000D02*
X104175000Y-127000000D01*
X104945000Y-134747500D02*
X106706000Y-132986500D01*
X104945000Y-137600000D02*
X104945000Y-134747500D01*
X106706000Y-132986500D02*
X106706000Y-128237600D01*
D75*
%TO.N,/U0RXD*%
X90600000Y-149700000D02*
X91180000Y-150280000D01*
X90600000Y-138300000D02*
X90600000Y-149700000D01*
X91100000Y-137800000D02*
X90600000Y-138300000D01*
X103950000Y-97950000D02*
X103300000Y-97300000D01*
X103950000Y-98660000D02*
X103950000Y-97950000D01*
D77*
%TO.N,/SD_DAT0*%
X106305000Y-128403700D02*
X105301300Y-127400000D01*
X106305000Y-132820400D02*
X106305000Y-128403700D01*
X105301300Y-127400000D02*
X104175000Y-127400000D01*
X103675000Y-137600000D02*
X103675000Y-135450400D01*
X103675000Y-135450400D02*
X106305000Y-132820400D01*
D76*
%TO.N,Net-(IC1-3V3)*%
X111015000Y-154090000D02*
X109250000Y-154090000D01*
X111725000Y-154800000D02*
X111015000Y-154090000D01*
D77*
%TO.N,/SD_CMD*%
X104967100Y-128200000D02*
X104175000Y-128200000D01*
X101135000Y-136856200D02*
X105503000Y-132488200D01*
X101135000Y-137600000D02*
X101135000Y-136856200D01*
X105503000Y-132488200D02*
X105503000Y-128735900D01*
X105503000Y-128735900D02*
X104967100Y-128200000D01*
D75*
%TO.N,Net-(LED3-K)*%
X96175000Y-76275000D02*
X95000000Y-75100000D01*
X100500000Y-76275000D02*
X96175000Y-76275000D01*
%TO.N,Net-(Q1-B)*%
X105095000Y-91160226D02*
X104360774Y-90426000D01*
X104360774Y-90426000D02*
X103276000Y-90426000D01*
X103276000Y-90426000D02*
X102500000Y-89650000D01*
X105095000Y-92900000D02*
X105095000Y-91160226D01*
%TO.N,Net-(R15-Pad1)*%
X103050000Y-80725000D02*
X103050000Y-79175000D01*
%TO.N,Net-(R16-Pad2)*%
X104950000Y-79175000D02*
X104950000Y-80750000D01*
%TO.N,Net-(U7-Rs)*%
X125224500Y-92847500D02*
X125224500Y-94747500D01*
%TO.N,Net-(U6-PR1)*%
X149300000Y-132375000D02*
X148005000Y-132375000D01*
X148005000Y-132375000D02*
X147840000Y-132540000D01*
X147841000Y-133884000D02*
X147841000Y-132540000D01*
%TO.N,Net-(U6-ST)*%
X145900000Y-131500000D02*
X146340000Y-131060000D01*
X145200000Y-131500000D02*
X145900000Y-131500000D01*
X160900000Y-129300000D02*
X160900000Y-131000000D01*
X145200000Y-131600000D02*
X144500000Y-132300000D01*
%TO.N,Net-(U9-~{CS})*%
X153125000Y-118562500D02*
X148962500Y-118562500D01*
%TO.N,Net-(U9-DIN)*%
X153761582Y-111248000D02*
X154425000Y-111911418D01*
X154425000Y-111911418D02*
X154425000Y-112837500D01*
X149077000Y-111248000D02*
X153761582Y-111248000D01*
%TO.N,Net-(U9-SCLK)*%
X148925000Y-114400000D02*
X150487500Y-112837500D01*
X150487500Y-112837500D02*
X153125000Y-112837500D01*
%TO.N,Net-(U9-DOUT)*%
X149700000Y-112900000D02*
X148925000Y-112900000D01*
X153775000Y-112837500D02*
X153775000Y-112109418D01*
X153414582Y-111749000D02*
X150851000Y-111749000D01*
X150851000Y-111749000D02*
X149700000Y-112900000D01*
X153775000Y-112109418D02*
X153414582Y-111749000D01*
%TO.N,/AIN3_EXT*%
X158900000Y-149199998D02*
X158900000Y-126250000D01*
X154099998Y-154000000D02*
X158900000Y-149199998D01*
%TO.N,/AIN1_EXT*%
X150949000Y-127874000D02*
X149300000Y-126225000D01*
X154099998Y-146000000D02*
X150949000Y-142849002D01*
X150949000Y-142849002D02*
X150949000Y-127874000D01*
%TO.N,/AIN0_EXT*%
X150099998Y-146000000D02*
X144450000Y-140350002D01*
X144450000Y-136650000D02*
X141050000Y-133250000D01*
X141050000Y-133250000D02*
X141050000Y-127550000D01*
X144450000Y-140350002D02*
X144450000Y-136650000D01*
X142375000Y-126225000D02*
X144500000Y-126225000D01*
X141050000Y-127550000D02*
X142375000Y-126225000D01*
%TO.N,/AIN2_EXT*%
X157200000Y-130525002D02*
X154100000Y-127425002D01*
X150434864Y-154000000D02*
X157200000Y-147234864D01*
X154100000Y-127425002D02*
X154100000Y-126250000D01*
X157200000Y-147234864D02*
X157200000Y-130525002D01*
%TO.N,/AIN5_EXT*%
X155550999Y-103624001D02*
X155550999Y-79250999D01*
X155550999Y-79250999D02*
X150300000Y-74000000D01*
X154100000Y-105075000D02*
X155550999Y-103624001D01*
%TO.N,/AIN7_EXT*%
X144500000Y-105075000D02*
X144500000Y-87400000D01*
X144500000Y-87400000D02*
X149900000Y-82000000D01*
%TO.N,/AIN4_EXT*%
X153899999Y-74000000D02*
X158900000Y-79000001D01*
X158900000Y-79000001D02*
X158900000Y-105075000D01*
%TO.N,/AIN6_EXT*%
X153899999Y-82000000D02*
X149300000Y-86599999D01*
X149300000Y-86599999D02*
X149300000Y-105075000D01*
%TO.N,/GPS_VUSB*%
X104000000Y-76900000D02*
X104000000Y-75967500D01*
D76*
X104451001Y-78013500D02*
X105786500Y-78013500D01*
X104000000Y-77562499D02*
X104451001Y-78013500D01*
X104000000Y-76900000D02*
X104000000Y-77562499D01*
D75*
X105000000Y-74937500D02*
X105000000Y-74200000D01*
D78*
X107820818Y-77525280D02*
X109695818Y-77525280D01*
D76*
X105786500Y-78013500D02*
X106274720Y-77525280D01*
X106274720Y-77525280D02*
X107820818Y-77525280D01*
D75*
X105615000Y-75552500D02*
X105000000Y-74937500D01*
D78*
%TO.N,/GNSS_USB_PWR*%
X107750000Y-83775000D02*
X107800000Y-83825000D01*
X111801000Y-92100000D02*
X110500000Y-92100000D01*
X109700818Y-82130280D02*
X107844720Y-82130280D01*
X107800000Y-82175000D02*
X106825000Y-82175000D01*
X113100000Y-85350000D02*
X113100000Y-90801000D01*
X113100000Y-90801000D02*
X111801000Y-92100000D01*
X107825000Y-83800000D02*
X111550000Y-83800000D01*
X111550000Y-83800000D02*
X113100000Y-85350000D01*
X106825000Y-82175000D02*
X106300000Y-82700000D01*
X107800000Y-83825000D02*
X107825000Y-83800000D01*
X106300000Y-83775000D02*
X107750000Y-83775000D01*
X107800000Y-82175000D02*
X107781597Y-82175000D01*
X106300000Y-82700000D02*
X106300000Y-83775000D01*
D75*
%TO.N,Net-(IC7-RESET_N)*%
X160900000Y-94200000D02*
X160900000Y-96000000D01*
X110500000Y-95100000D02*
X110500000Y-94200000D01*
D77*
%TO.N,Net-(IC8-EN{slash}UVLO)*%
X131200000Y-107100000D02*
X132400000Y-107100000D01*
D75*
%TO.N,/EFUSE IN*%
X132400000Y-108600000D02*
X132400000Y-108100000D01*
X132400000Y-108100000D02*
X132400000Y-107600000D01*
X127960000Y-110250000D02*
X129440000Y-110250000D01*
X129440000Y-110250000D02*
X131025000Y-110250000D01*
X131025000Y-110250000D02*
X131200000Y-110075000D01*
%TO.N,Net-(IC8-ILIM)*%
X135300000Y-106600000D02*
X135300000Y-105400000D01*
X135300000Y-105400000D02*
X135500000Y-105200000D01*
%TD*%
%TA.AperFunction,Conductor*%
%TO.N,+5V*%
G36*
X136743039Y-107419685D02*
G01*
X136788794Y-107472489D01*
X136800000Y-107524000D01*
X136800000Y-110576000D01*
X136780315Y-110643039D01*
X136727511Y-110688794D01*
X136676000Y-110700000D01*
X135177579Y-110700000D01*
X135110540Y-110680315D01*
X135064785Y-110627511D01*
X135053595Y-110577967D01*
X135052634Y-110517457D01*
X135052634Y-110517452D01*
X135040993Y-110445161D01*
X135020115Y-110378483D01*
X134988728Y-110312881D01*
X134943123Y-110244629D01*
X134931665Y-110223191D01*
X134909438Y-110169527D01*
X134900000Y-110122077D01*
X134900000Y-109877918D01*
X134909439Y-109830465D01*
X134931664Y-109776810D01*
X134943119Y-109755378D01*
X134972492Y-109711418D01*
X134974869Y-109707794D01*
X134977131Y-109704281D01*
X135008573Y-109634042D01*
X135027191Y-109566698D01*
X135036397Y-109494561D01*
X135028019Y-108966694D01*
X135016378Y-108894403D01*
X134995500Y-108827725D01*
X134995497Y-108827718D01*
X134995495Y-108827713D01*
X134987642Y-108811298D01*
X134975500Y-108757785D01*
X134975500Y-107624500D01*
X134995185Y-107557461D01*
X135047989Y-107511706D01*
X135099500Y-107500500D01*
X135674676Y-107500500D01*
X135674677Y-107500499D01*
X135747740Y-107485966D01*
X135830601Y-107430601D01*
X135830600Y-107430601D01*
X135840756Y-107423816D01*
X135842634Y-107426626D01*
X135886207Y-107402834D01*
X135912565Y-107400000D01*
X136676000Y-107400000D01*
X136743039Y-107419685D01*
G37*
%TD.AperFunction*%
%TD*%
%TA.AperFunction,Conductor*%
%TO.N,GND*%
G36*
X130418258Y-113562381D02*
G01*
X130464013Y-113615185D01*
X130465780Y-113619244D01*
X130490602Y-113679172D01*
X130490609Y-113679185D01*
X130578210Y-113810288D01*
X130578213Y-113810292D01*
X130689708Y-113921787D01*
X130689711Y-113921789D01*
X130746033Y-113959422D01*
X130790838Y-114013033D01*
X130801141Y-114063123D01*
X130798309Y-114649482D01*
X130779850Y-114713977D01*
X130762997Y-114741300D01*
X130762995Y-114741304D01*
X130709652Y-114902286D01*
X130709650Y-114902296D01*
X130704243Y-114955214D01*
X130695449Y-114990054D01*
X130687949Y-115008161D01*
X130687947Y-115008167D01*
X130649500Y-115201455D01*
X130649500Y-115398544D01*
X130687947Y-115591828D01*
X130687949Y-115591836D01*
X130690061Y-115596936D01*
X130699500Y-115644387D01*
X130699500Y-116755613D01*
X130690062Y-116803063D01*
X130687949Y-116808163D01*
X130687946Y-116808171D01*
X130649500Y-117001455D01*
X130649500Y-117198544D01*
X130687947Y-117391828D01*
X130687949Y-117391836D01*
X130715061Y-117457290D01*
X130724500Y-117504743D01*
X130724500Y-118072870D01*
X130724501Y-118072876D01*
X130730908Y-118132483D01*
X130781202Y-118267328D01*
X130781204Y-118267332D01*
X130796658Y-118287975D01*
X130815938Y-118313730D01*
X130835163Y-118351491D01*
X132085356Y-122404553D01*
X132090864Y-122441679D01*
X132081528Y-124449049D01*
X132061532Y-124515996D01*
X132008515Y-124561505D01*
X131957305Y-124572472D01*
X126675311Y-124562920D01*
X126608307Y-124543114D01*
X126562648Y-124490227D01*
X126551536Y-124438341D01*
X126560863Y-122451733D01*
X126566750Y-122414563D01*
X127819616Y-118495798D01*
X127858779Y-118437941D01*
X127863369Y-118434331D01*
X127932546Y-118382546D01*
X128018796Y-118267331D01*
X128069091Y-118132483D01*
X128075500Y-118072873D01*
X128075499Y-117386435D01*
X128077882Y-117362243D01*
X128100500Y-117248542D01*
X128100500Y-115251456D01*
X128062052Y-115058170D01*
X128062051Y-115058169D01*
X128062051Y-115058165D01*
X128041341Y-115008167D01*
X127986632Y-114876085D01*
X127985592Y-114874139D01*
X127985233Y-114872709D01*
X127984301Y-114870457D01*
X127984635Y-114870318D01*
X127970953Y-114815691D01*
X127970953Y-113666696D01*
X127990638Y-113599657D01*
X128043442Y-113553902D01*
X128094953Y-113542696D01*
X130351219Y-113542696D01*
X130418258Y-113562381D01*
G37*
%TD.AperFunction*%
%TD*%
%TA.AperFunction,Conductor*%
%TO.N,/EFUSE IN*%
G36*
X130724022Y-107706959D02*
G01*
X130840298Y-107747645D01*
X130840300Y-107747646D01*
X130870730Y-107750500D01*
X130870734Y-107750500D01*
X131529270Y-107750500D01*
X131559699Y-107747646D01*
X131597378Y-107734461D01*
X131675978Y-107706959D01*
X131716933Y-107700000D01*
X132000000Y-107700000D01*
X132724500Y-107700000D01*
X132724500Y-108874676D01*
X132741417Y-108959719D01*
X132739428Y-108960114D01*
X132744500Y-108985600D01*
X132744500Y-110876000D01*
X132724815Y-110943039D01*
X132672011Y-110988794D01*
X132620500Y-111000000D01*
X130149500Y-111000000D01*
X130082461Y-110980315D01*
X130036706Y-110927511D01*
X130025500Y-110876000D01*
X130025499Y-110605143D01*
X130025499Y-110605136D01*
X130025497Y-110605117D01*
X130022586Y-110580012D01*
X130022585Y-110580010D01*
X130022585Y-110580009D01*
X129977206Y-110477235D01*
X129897765Y-110397794D01*
X129854030Y-110378483D01*
X129819946Y-110363433D01*
X129766570Y-110318347D01*
X129746043Y-110251560D01*
X129764882Y-110184278D01*
X129817105Y-110137862D01*
X129819851Y-110136607D01*
X129897765Y-110102206D01*
X129977206Y-110022765D01*
X130022585Y-109919991D01*
X130025500Y-109894865D01*
X130025499Y-109605136D01*
X130025497Y-109605117D01*
X130022586Y-109580012D01*
X130022585Y-109580010D01*
X130022585Y-109580009D01*
X130015681Y-109564374D01*
X130009373Y-109550086D01*
X130000301Y-109480808D01*
X130009374Y-109449912D01*
X130022584Y-109419995D01*
X130022584Y-109419994D01*
X130022584Y-109419993D01*
X130022585Y-109419991D01*
X130025500Y-109394865D01*
X130025499Y-109105136D01*
X130025497Y-109105117D01*
X130022586Y-109080012D01*
X130022585Y-109080010D01*
X130022585Y-109080009D01*
X129977206Y-108977235D01*
X129897765Y-108897794D01*
X129897763Y-108897793D01*
X129897759Y-108897790D01*
X129874414Y-108887483D01*
X129860211Y-108875486D01*
X129843297Y-108867762D01*
X129834071Y-108853407D01*
X129821037Y-108842397D01*
X129815574Y-108824624D01*
X129805523Y-108808984D01*
X129800913Y-108776922D01*
X129800510Y-108775611D01*
X129800500Y-108774049D01*
X129800500Y-108749500D01*
X129820185Y-108682461D01*
X129872989Y-108636706D01*
X129924500Y-108625500D01*
X129979270Y-108625500D01*
X130009699Y-108622646D01*
X130009701Y-108622646D01*
X130073790Y-108600219D01*
X130137882Y-108577793D01*
X130247150Y-108497150D01*
X130327793Y-108387882D01*
X130358369Y-108300500D01*
X130372646Y-108259701D01*
X130372646Y-108259699D01*
X130375500Y-108229269D01*
X130375500Y-107824000D01*
X130378050Y-107815314D01*
X130376762Y-107806353D01*
X130387740Y-107782312D01*
X130395185Y-107756961D01*
X130402025Y-107751033D01*
X130405787Y-107742797D01*
X130428021Y-107728507D01*
X130447989Y-107711206D01*
X130458503Y-107708918D01*
X130464565Y-107705023D01*
X130499500Y-107700000D01*
X130683067Y-107700000D01*
X130724022Y-107706959D01*
G37*
%TD.AperFunction*%
%TD*%
%TA.AperFunction,Conductor*%
%TO.N,VCC*%
G36*
X126542356Y-131320061D02*
G01*
X126588455Y-131372564D01*
X126600000Y-131424812D01*
X126600000Y-132800000D01*
X121975192Y-132800000D01*
X121909297Y-132780650D01*
X121909191Y-132780823D01*
X121908562Y-132780435D01*
X121908153Y-132780315D01*
X121906793Y-132779344D01*
X121758705Y-132688001D01*
X121758699Y-132687998D01*
X121758697Y-132687997D01*
X121755308Y-132686874D01*
X121597709Y-132634651D01*
X121498346Y-132624500D01*
X120901662Y-132624500D01*
X120901644Y-132624501D01*
X120802292Y-132634650D01*
X120802289Y-132634651D01*
X120641305Y-132687996D01*
X120641300Y-132687998D01*
X120515097Y-132765842D01*
X120447704Y-132784282D01*
X120384903Y-132765842D01*
X120258699Y-132687998D01*
X120258694Y-132687996D01*
X120097709Y-132634651D01*
X119998346Y-132624500D01*
X119401662Y-132624500D01*
X119401644Y-132624501D01*
X119302292Y-132634650D01*
X119302289Y-132634651D01*
X119141305Y-132687996D01*
X119141298Y-132687999D01*
X119139095Y-132689359D01*
X119137373Y-132689829D01*
X119134755Y-132691051D01*
X119134546Y-132690603D01*
X119071703Y-132707798D01*
X119005039Y-132686874D01*
X118960271Y-132633232D01*
X118950000Y-132583819D01*
X118950000Y-131473191D01*
X118969685Y-131406152D01*
X119022489Y-131360397D01*
X119073186Y-131349194D01*
X126475192Y-131300815D01*
X126542356Y-131320061D01*
G37*
%TD.AperFunction*%
%TD*%
%TA.AperFunction,Conductor*%
%TO.N,+BATT*%
G36*
X126305715Y-140019685D02*
G01*
X126351470Y-140072489D01*
X126362657Y-140121825D01*
X126382090Y-141229503D01*
X126363584Y-141296877D01*
X126333596Y-141330053D01*
X126246720Y-141396715D01*
X126150463Y-141522160D01*
X126089956Y-141668237D01*
X126089955Y-141668239D01*
X126074501Y-141785629D01*
X126074500Y-141785645D01*
X126074500Y-143139363D01*
X126089953Y-143256753D01*
X126089956Y-143256762D01*
X126150464Y-143402841D01*
X126246718Y-143528282D01*
X126246719Y-143528283D01*
X126377372Y-143628536D01*
X126418575Y-143684964D01*
X126425867Y-143724736D01*
X126428859Y-143895274D01*
X126428860Y-143895275D01*
X128067105Y-144470874D01*
X128123828Y-144511668D01*
X128149492Y-144576654D01*
X128150000Y-144587863D01*
X128150000Y-147876000D01*
X128130315Y-147943039D01*
X128077511Y-147988794D01*
X128026000Y-148000000D01*
X124324000Y-148000000D01*
X124256961Y-147980315D01*
X124211206Y-147927511D01*
X124200000Y-147876000D01*
X124200000Y-144531261D01*
X124214822Y-144472473D01*
X124550000Y-143850000D01*
X124550000Y-140124000D01*
X124569685Y-140056961D01*
X124622489Y-140011206D01*
X124674000Y-140000000D01*
X126238676Y-140000000D01*
X126305715Y-140019685D01*
G37*
%TD.AperFunction*%
%TD*%
%TA.AperFunction,Conductor*%
%TO.N,GND*%
G36*
X110693039Y-99519685D02*
G01*
X110738794Y-99572489D01*
X110750000Y-99624000D01*
X110750000Y-100400000D01*
X110782162Y-100400000D01*
X110849201Y-100419685D01*
X110894956Y-100472489D01*
X110904900Y-100541647D01*
X110875875Y-100605203D01*
X110869843Y-100611681D01*
X110193341Y-101288181D01*
X110166413Y-101302884D01*
X110140595Y-101319477D01*
X110134394Y-101320368D01*
X110132018Y-101321666D01*
X110105660Y-101324500D01*
X109874500Y-101324500D01*
X109807461Y-101304815D01*
X109761706Y-101252011D01*
X109750500Y-101200500D01*
X109750500Y-100524000D01*
X109770185Y-100456961D01*
X109822989Y-100411206D01*
X109874500Y-100400000D01*
X110250000Y-100400000D01*
X110250000Y-99624000D01*
X110269685Y-99556961D01*
X110322489Y-99511206D01*
X110374000Y-99500000D01*
X110626000Y-99500000D01*
X110693039Y-99519685D01*
G37*
%TD.AperFunction*%
%TA.AperFunction,Conductor*%
G36*
X114682463Y-81697366D02*
G01*
X114682467Y-81697373D01*
X114768627Y-81812467D01*
X114768630Y-81812470D01*
X114883724Y-81898630D01*
X114883731Y-81898634D01*
X115018438Y-81948876D01*
X115018445Y-81948878D01*
X115077973Y-81955279D01*
X115077990Y-81955280D01*
X115750818Y-81955280D01*
X115750818Y-81690000D01*
X116250818Y-81690000D01*
X116250818Y-81955280D01*
X116923646Y-81955280D01*
X116923662Y-81955279D01*
X116983190Y-81948878D01*
X116983197Y-81948876D01*
X117117904Y-81898634D01*
X117117911Y-81898630D01*
X117233005Y-81812470D01*
X117233008Y-81812467D01*
X117287491Y-81739689D01*
X117343425Y-81697818D01*
X117386757Y-81690000D01*
X117835333Y-81690000D01*
X117902372Y-81709685D01*
X117948127Y-81762489D01*
X117958071Y-81831647D01*
X117929046Y-81895203D01*
X117923014Y-81901681D01*
X117827427Y-81997267D01*
X117827424Y-81997271D01*
X117738457Y-82141507D01*
X117738452Y-82141518D01*
X117685144Y-82302393D01*
X117675000Y-82401677D01*
X117675000Y-82450000D01*
X118501000Y-82450000D01*
X118568039Y-82469685D01*
X118613794Y-82522489D01*
X118625000Y-82574000D01*
X118625000Y-82700000D01*
X118751000Y-82700000D01*
X118818039Y-82719685D01*
X118863794Y-82772489D01*
X118875000Y-82824000D01*
X118875000Y-83674999D01*
X118898308Y-83674999D01*
X118898322Y-83674998D01*
X118997607Y-83664855D01*
X119158481Y-83611547D01*
X119158492Y-83611542D01*
X119302731Y-83522573D01*
X119311959Y-83513345D01*
X119319907Y-83509003D01*
X119325336Y-83501753D01*
X119350090Y-83492519D01*
X119373279Y-83479856D01*
X119382313Y-83480501D01*
X119390800Y-83477336D01*
X119416617Y-83482952D01*
X119442971Y-83484835D01*
X119452028Y-83490655D01*
X119459073Y-83492188D01*
X119487327Y-83513339D01*
X119488181Y-83514193D01*
X119521666Y-83575516D01*
X119524500Y-83601874D01*
X119524500Y-85241070D01*
X119526566Y-85251454D01*
X119538762Y-85312765D01*
X119546518Y-85351756D01*
X119549499Y-85366744D01*
X119597223Y-85481961D01*
X119598535Y-85485127D01*
X119669723Y-85591669D01*
X119669726Y-85591673D01*
X119669727Y-85591674D01*
X121065385Y-86987331D01*
X121075644Y-87006119D01*
X121089861Y-87022127D01*
X121095662Y-87042780D01*
X121098870Y-87048654D01*
X121100217Y-87055867D01*
X121100676Y-87058808D01*
X121105909Y-87107483D01*
X121109994Y-87118438D01*
X121111935Y-87130854D01*
X121108955Y-87153543D01*
X121110585Y-87176371D01*
X121106173Y-87191396D01*
X121105908Y-87192517D01*
X121101781Y-87230910D01*
X121099501Y-87252123D01*
X121099500Y-87252135D01*
X121099500Y-88096099D01*
X121079815Y-88163138D01*
X121027011Y-88208893D01*
X121022956Y-88210659D01*
X120991874Y-88223534D01*
X120885326Y-88294726D01*
X120885325Y-88294727D01*
X119793722Y-89386331D01*
X119793718Y-89386336D01*
X119749761Y-89452126D01*
X119749759Y-89452129D01*
X119722539Y-89492864D01*
X119722533Y-89492875D01*
X119673499Y-89611255D01*
X119673497Y-89611261D01*
X119648500Y-89736928D01*
X119648500Y-100063070D01*
X119659361Y-100117668D01*
X119659361Y-100117670D01*
X119673497Y-100188736D01*
X119673499Y-100188744D01*
X119681422Y-100207873D01*
X119722535Y-100307127D01*
X119793723Y-100413669D01*
X119793726Y-100413673D01*
X119793727Y-100413674D01*
X121035027Y-101654973D01*
X121068512Y-101716296D01*
X121063528Y-101785988D01*
X121061907Y-101790106D01*
X121030264Y-101866498D01*
X121030261Y-101866510D01*
X120999500Y-102021153D01*
X120999500Y-102178846D01*
X121030261Y-102333489D01*
X121030264Y-102333501D01*
X121090602Y-102479172D01*
X121090609Y-102479185D01*
X121178210Y-102610288D01*
X121178213Y-102610292D01*
X121289707Y-102721786D01*
X121289711Y-102721789D01*
X121420814Y-102809390D01*
X121420827Y-102809397D01*
X121518853Y-102850000D01*
X121566503Y-102869737D01*
X121721153Y-102900499D01*
X121721156Y-102900500D01*
X121721158Y-102900500D01*
X121878844Y-102900500D01*
X121878845Y-102900499D01*
X122033497Y-102869737D01*
X122179179Y-102809394D01*
X122310289Y-102721789D01*
X122421789Y-102610289D01*
X122509394Y-102479179D01*
X122569737Y-102333497D01*
X122600500Y-102178842D01*
X122600500Y-102021158D01*
X122600500Y-102021155D01*
X122600499Y-102021153D01*
X122576802Y-101902023D01*
X122569737Y-101866503D01*
X122531112Y-101773253D01*
X122509397Y-101720828D01*
X122509396Y-101720827D01*
X122509394Y-101720821D01*
X122471396Y-101663953D01*
X122450520Y-101597276D01*
X122450500Y-101595064D01*
X122450500Y-101435928D01*
X122425502Y-101310261D01*
X122425501Y-101310260D01*
X122425501Y-101310256D01*
X122387909Y-101219500D01*
X122376466Y-101191874D01*
X122362922Y-101171604D01*
X122305278Y-101085332D01*
X122305272Y-101085325D01*
X121831627Y-100611681D01*
X121798142Y-100550358D01*
X121803126Y-100480667D01*
X121844997Y-100424733D01*
X121910462Y-100400316D01*
X121919308Y-100400000D01*
X122250000Y-100400000D01*
X122250000Y-99624000D01*
X122269685Y-99556961D01*
X122322489Y-99511206D01*
X122374000Y-99500000D01*
X122626000Y-99500000D01*
X122693039Y-99519685D01*
X122738794Y-99572489D01*
X122750000Y-99624000D01*
X122750000Y-100400000D01*
X123447828Y-100400000D01*
X123447844Y-100399999D01*
X123507372Y-100393598D01*
X123507383Y-100393595D01*
X123582166Y-100365703D01*
X123651857Y-100360718D01*
X123713181Y-100394202D01*
X123746666Y-100455525D01*
X123749500Y-100481884D01*
X123749500Y-103595064D01*
X123729815Y-103662103D01*
X123728603Y-103663954D01*
X123690608Y-103720817D01*
X123690602Y-103720828D01*
X123630264Y-103866498D01*
X123630261Y-103866510D01*
X123599500Y-104021153D01*
X123599500Y-104178846D01*
X123630261Y-104333489D01*
X123630264Y-104333501D01*
X123690602Y-104479172D01*
X123690609Y-104479185D01*
X123778210Y-104610288D01*
X123778213Y-104610292D01*
X123889707Y-104721786D01*
X123889711Y-104721789D01*
X124020814Y-104809390D01*
X124020827Y-104809397D01*
X124158430Y-104866393D01*
X124166503Y-104869737D01*
X124321153Y-104900499D01*
X124321156Y-104900500D01*
X124440000Y-104900500D01*
X124448685Y-104903050D01*
X124457647Y-104901762D01*
X124481687Y-104912740D01*
X124507039Y-104920185D01*
X124512966Y-104927025D01*
X124521203Y-104930787D01*
X124535492Y-104953021D01*
X124552794Y-104972989D01*
X124555081Y-104983503D01*
X124558977Y-104989565D01*
X124564000Y-105024500D01*
X124564000Y-105264691D01*
X124544315Y-105331730D01*
X124527681Y-105352372D01*
X123080127Y-106799925D01*
X123018804Y-106833410D01*
X122992916Y-106836243D01*
X120855558Y-106844339D01*
X120855558Y-106844340D01*
X120855557Y-106844340D01*
X109685120Y-106886652D01*
X109685119Y-106886652D01*
X106946717Y-106897024D01*
X106879603Y-106877594D01*
X106833649Y-106824963D01*
X106822756Y-106761804D01*
X106825500Y-106731616D01*
X106825500Y-106068384D01*
X106819086Y-105997804D01*
X106769045Y-105837216D01*
X106767896Y-105767358D01*
X106804697Y-105707966D01*
X106867766Y-105677898D01*
X106911622Y-105678711D01*
X106937604Y-105683880D01*
X107021155Y-105700500D01*
X107021158Y-105700500D01*
X107178844Y-105700500D01*
X107178845Y-105700499D01*
X107333497Y-105669737D01*
X107446166Y-105623067D01*
X107479172Y-105609397D01*
X107479172Y-105609396D01*
X107479179Y-105609394D01*
X107495749Y-105598322D01*
X110775001Y-105598322D01*
X110785144Y-105697607D01*
X110838452Y-105858481D01*
X110838457Y-105858492D01*
X110927424Y-106002728D01*
X110927427Y-106002732D01*
X111047267Y-106122572D01*
X111047271Y-106122575D01*
X111191507Y-106211542D01*
X111191518Y-106211547D01*
X111352393Y-106264855D01*
X111451683Y-106274999D01*
X111475000Y-106274998D01*
X111475000Y-105550000D01*
X110775001Y-105550000D01*
X110775001Y-105598322D01*
X107495749Y-105598322D01*
X107610289Y-105521789D01*
X107610292Y-105521786D01*
X107721122Y-105410957D01*
X107721786Y-105410292D01*
X107721789Y-105410289D01*
X107809394Y-105279179D01*
X107869737Y-105133497D01*
X107900500Y-104978842D01*
X107900500Y-104821158D01*
X107900500Y-104821155D01*
X107900499Y-104821153D01*
X107880734Y-104721789D01*
X107869737Y-104666503D01*
X107854813Y-104630472D01*
X107809397Y-104520827D01*
X107809390Y-104520814D01*
X107721789Y-104389711D01*
X107721786Y-104389707D01*
X107610292Y-104278213D01*
X107610288Y-104278210D01*
X107479185Y-104190609D01*
X107479172Y-104190602D01*
X107333501Y-104130264D01*
X107333489Y-104130261D01*
X107178845Y-104099500D01*
X107178842Y-104099500D01*
X107021158Y-104099500D01*
X107021155Y-104099500D01*
X106866510Y-104130261D01*
X106866498Y-104130264D01*
X106769396Y-104170485D01*
X106749520Y-104172621D01*
X106730790Y-104179608D01*
X106715493Y-104176280D01*
X106699927Y-104177954D01*
X106682050Y-104169005D01*
X106662517Y-104164756D01*
X106640224Y-104148068D01*
X106637448Y-104146678D01*
X106634263Y-104143605D01*
X106613508Y-104122850D01*
X106580023Y-104061527D01*
X106585006Y-103991839D01*
X106594091Y-103967483D01*
X106600500Y-103907873D01*
X106600499Y-103284498D01*
X106620183Y-103217460D01*
X106672987Y-103171705D01*
X106724499Y-103160499D01*
X107347871Y-103160499D01*
X107347872Y-103160499D01*
X107407483Y-103154091D01*
X107542331Y-103103796D01*
X107657546Y-103017546D01*
X107743796Y-102902331D01*
X107794091Y-102767483D01*
X107800500Y-102707873D01*
X107800499Y-102312128D01*
X107800499Y-102312127D01*
X107800498Y-102312111D01*
X107796320Y-102273253D01*
X107796320Y-102246747D01*
X107800500Y-102207873D01*
X107800499Y-101812128D01*
X107800499Y-101812127D01*
X107800498Y-101812111D01*
X107796320Y-101773253D01*
X107796320Y-101746747D01*
X107800500Y-101707873D01*
X107800499Y-101312128D01*
X107800499Y-101312127D01*
X107800498Y-101312111D01*
X107796320Y-101273253D01*
X107796320Y-101246747D01*
X107800500Y-101207873D01*
X107800499Y-100812128D01*
X107800499Y-100812127D01*
X107800498Y-100812111D01*
X107796320Y-100773253D01*
X107796320Y-100746747D01*
X107800500Y-100707873D01*
X107800499Y-100312128D01*
X107800499Y-100312127D01*
X107800498Y-100312111D01*
X107796320Y-100273253D01*
X107796320Y-100246747D01*
X107800500Y-100207873D01*
X107800499Y-99812128D01*
X107800499Y-99812127D01*
X107800498Y-99812111D01*
X107796320Y-99773253D01*
X107796320Y-99746747D01*
X107800500Y-99707873D01*
X107800499Y-99312128D01*
X107794091Y-99252517D01*
X107790838Y-99243796D01*
X107743797Y-99117671D01*
X107743793Y-99117664D01*
X107657547Y-99002455D01*
X107657544Y-99002452D01*
X107542335Y-98916206D01*
X107542328Y-98916202D01*
X107407482Y-98865908D01*
X107407483Y-98865908D01*
X107347883Y-98859501D01*
X107347881Y-98859500D01*
X107347873Y-98859500D01*
X107347865Y-98859500D01*
X106724499Y-98859500D01*
X106657460Y-98839815D01*
X106611705Y-98787011D01*
X106600499Y-98735500D01*
X106600499Y-98112129D01*
X106600498Y-98112123D01*
X106594091Y-98052516D01*
X106543797Y-97917671D01*
X106543793Y-97917664D01*
X106457547Y-97802455D01*
X106457544Y-97802452D01*
X106342335Y-97716206D01*
X106342328Y-97716202D01*
X106207482Y-97665908D01*
X106207483Y-97665908D01*
X106147883Y-97659501D01*
X106147881Y-97659500D01*
X106147873Y-97659500D01*
X106147865Y-97659500D01*
X106054550Y-97659500D01*
X106045895Y-97656958D01*
X106036970Y-97658247D01*
X106012896Y-97647269D01*
X105987511Y-97639815D01*
X105981605Y-97632999D01*
X105973398Y-97629257D01*
X105959078Y-97607002D01*
X105941756Y-97587011D01*
X105939473Y-97576532D01*
X105935592Y-97570500D01*
X105930551Y-97535576D01*
X105930471Y-97390901D01*
X105950119Y-97323854D01*
X105966790Y-97303155D01*
X106112486Y-97157460D01*
X106555277Y-96714669D01*
X106626465Y-96608127D01*
X106675501Y-96489744D01*
X106680608Y-96464069D01*
X106700500Y-96364069D01*
X106700500Y-96335928D01*
X108449500Y-96335928D01*
X108449500Y-102889069D01*
X108456028Y-102921884D01*
X108456028Y-102921887D01*
X108472065Y-103002511D01*
X108474499Y-103014744D01*
X108523535Y-103133127D01*
X108541824Y-103160499D01*
X108594726Y-103239673D01*
X108594727Y-103239674D01*
X109138181Y-103783126D01*
X109171666Y-103844449D01*
X109174500Y-103870807D01*
X109174500Y-104131613D01*
X109180913Y-104202192D01*
X109180913Y-104202194D01*
X109180914Y-104202196D01*
X109231522Y-104364606D01*
X109312043Y-104497804D01*
X109319530Y-104510188D01*
X109439811Y-104630469D01*
X109439813Y-104630470D01*
X109439815Y-104630472D01*
X109585394Y-104718478D01*
X109747804Y-104769086D01*
X109818384Y-104775500D01*
X109818387Y-104775500D01*
X110331613Y-104775500D01*
X110331616Y-104775500D01*
X110402196Y-104769086D01*
X110564606Y-104718478D01*
X110629054Y-104679517D01*
X110696607Y-104661681D01*
X110763080Y-104683198D01*
X110807369Y-104737238D01*
X110815410Y-104806643D01*
X110810909Y-104824637D01*
X110785144Y-104902391D01*
X110775000Y-105001677D01*
X110775000Y-105050000D01*
X111601000Y-105050000D01*
X111668039Y-105069685D01*
X111713794Y-105122489D01*
X111725000Y-105174000D01*
X111725000Y-105300000D01*
X111851000Y-105300000D01*
X111918039Y-105319685D01*
X111963794Y-105372489D01*
X111975000Y-105424000D01*
X111975000Y-106274999D01*
X111998308Y-106274999D01*
X111998322Y-106274998D01*
X112097607Y-106264855D01*
X112258481Y-106211547D01*
X112258492Y-106211542D01*
X112402731Y-106122573D01*
X112411959Y-106113345D01*
X112473279Y-106079856D01*
X112542971Y-106084835D01*
X112587327Y-106113339D01*
X112596955Y-106122967D01*
X112596959Y-106122970D01*
X112741294Y-106211998D01*
X112741297Y-106211999D01*
X112741303Y-106212003D01*
X112902292Y-106265349D01*
X113001655Y-106275500D01*
X113548344Y-106275499D01*
X113548352Y-106275498D01*
X113548355Y-106275498D01*
X113602760Y-106269940D01*
X113647708Y-106265349D01*
X113808697Y-106212003D01*
X113953044Y-106122968D01*
X114066354Y-106009658D01*
X114900001Y-106009658D01*
X114915570Y-106127928D01*
X114915573Y-106127940D01*
X114976531Y-106275108D01*
X115073509Y-106401490D01*
X115199891Y-106498468D01*
X115347059Y-106559426D01*
X115347063Y-106559427D01*
X115465342Y-106574999D01*
X116249999Y-106574999D01*
X116750000Y-106574999D01*
X117534658Y-106574999D01*
X117652928Y-106559429D01*
X117652940Y-106559426D01*
X117800108Y-106498468D01*
X117926490Y-106401490D01*
X118023468Y-106275108D01*
X118084426Y-106127940D01*
X118084427Y-106127936D01*
X118099999Y-106009664D01*
X118100000Y-106009650D01*
X118100000Y-105800000D01*
X116750000Y-105800000D01*
X116750000Y-106574999D01*
X116249999Y-106574999D01*
X116250000Y-106574998D01*
X116250000Y-105800000D01*
X114900001Y-105800000D01*
X114900001Y-106009658D01*
X114066354Y-106009658D01*
X114072968Y-106003044D01*
X114162003Y-105858697D01*
X114215349Y-105697708D01*
X114225500Y-105598345D01*
X114225499Y-105155431D01*
X114245183Y-105088393D01*
X114297987Y-105042638D01*
X114367146Y-105032694D01*
X114396947Y-105040869D01*
X114443238Y-105060044D01*
X114560639Y-105075500D01*
X114776001Y-105075499D01*
X114843039Y-105095183D01*
X114888794Y-105147987D01*
X114900000Y-105199499D01*
X114900000Y-105300000D01*
X116250000Y-105300000D01*
X116250000Y-104525000D01*
X116750000Y-104525000D01*
X116750000Y-105300000D01*
X118099999Y-105300000D01*
X118099999Y-105198999D01*
X118119684Y-105131960D01*
X118172488Y-105086205D01*
X118223999Y-105074999D01*
X118439324Y-105074999D01*
X118556628Y-105059557D01*
X118556633Y-105059555D01*
X118702585Y-104999100D01*
X118827924Y-104902924D01*
X118924100Y-104777586D01*
X118984554Y-104631634D01*
X118984555Y-104631630D01*
X118999999Y-104514330D01*
X119000000Y-104514316D01*
X119000000Y-104325000D01*
X117000001Y-104325000D01*
X117000001Y-104401000D01*
X116980316Y-104468039D01*
X116927512Y-104513794D01*
X116876001Y-104525000D01*
X116750000Y-104525000D01*
X116250000Y-104525000D01*
X116124500Y-104525000D01*
X116057461Y-104505315D01*
X116011706Y-104452511D01*
X116000500Y-104401000D01*
X116000499Y-103748999D01*
X116020183Y-103681960D01*
X116072987Y-103636205D01*
X116124499Y-103624999D01*
X116250000Y-103624999D01*
X116750000Y-103624999D01*
X116876000Y-103624999D01*
X116943039Y-103644684D01*
X116988794Y-103697488D01*
X117000000Y-103748999D01*
X117000000Y-103825000D01*
X118999999Y-103825000D01*
X118999999Y-103635675D01*
X118984557Y-103518371D01*
X118984555Y-103518366D01*
X118924100Y-103372414D01*
X118827924Y-103247075D01*
X118702586Y-103150899D01*
X118556634Y-103090445D01*
X118556630Y-103090444D01*
X118439330Y-103075000D01*
X118224000Y-103075000D01*
X118156961Y-103055315D01*
X118111206Y-103002511D01*
X118100000Y-102951000D01*
X118100000Y-102850000D01*
X116750000Y-102850000D01*
X116750000Y-103624999D01*
X116250000Y-103624999D01*
X116250000Y-102850000D01*
X114900001Y-102850000D01*
X114900001Y-102950500D01*
X114880316Y-103017539D01*
X114827512Y-103063294D01*
X114776002Y-103074500D01*
X114560642Y-103074500D01*
X114518931Y-103079991D01*
X114449896Y-103069223D01*
X114397642Y-103022841D01*
X114378750Y-102957051D01*
X114378750Y-102723808D01*
X114378750Y-102723806D01*
X114339309Y-102576611D01*
X114312607Y-102530361D01*
X114312607Y-102530360D01*
X114263120Y-102444645D01*
X114263114Y-102444637D01*
X113958812Y-102140335D01*
X114900000Y-102140335D01*
X114900000Y-102350000D01*
X116250000Y-102350000D01*
X116750000Y-102350000D01*
X118099999Y-102350000D01*
X118099999Y-102140341D01*
X118084429Y-102022071D01*
X118084426Y-102022059D01*
X118023468Y-101874891D01*
X117926490Y-101748509D01*
X117800108Y-101651531D01*
X117652940Y-101590573D01*
X117652936Y-101590572D01*
X117534664Y-101575000D01*
X116750000Y-101575000D01*
X116750000Y-102350000D01*
X116250000Y-102350000D01*
X116250000Y-101575000D01*
X115465341Y-101575000D01*
X115347071Y-101590570D01*
X115347059Y-101590573D01*
X115199891Y-101651531D01*
X115073509Y-101748509D01*
X114976531Y-101874891D01*
X114915573Y-102022059D01*
X114915572Y-102022063D01*
X114900000Y-102140335D01*
X113958812Y-102140335D01*
X113756819Y-101938342D01*
X113723334Y-101877019D01*
X113720500Y-101850661D01*
X113720500Y-101802067D01*
X113720499Y-101802052D01*
X113717609Y-101765326D01*
X113717608Y-101765320D01*
X113671933Y-101608107D01*
X113671931Y-101608104D01*
X113671931Y-101608103D01*
X113588590Y-101467180D01*
X113588588Y-101467178D01*
X113588585Y-101467174D01*
X113472825Y-101351414D01*
X113472817Y-101351408D01*
X113365905Y-101288181D01*
X113331897Y-101268069D01*
X113331896Y-101268068D01*
X113331895Y-101268068D01*
X113331892Y-101268066D01*
X113174679Y-101222391D01*
X113174673Y-101222390D01*
X113137947Y-101219500D01*
X113137940Y-101219500D01*
X112662060Y-101219500D01*
X112662052Y-101219500D01*
X112625326Y-101222390D01*
X112625320Y-101222391D01*
X112468107Y-101268066D01*
X112468104Y-101268068D01*
X112327185Y-101351406D01*
X112327173Y-101351415D01*
X112324287Y-101354302D01*
X112321470Y-101355839D01*
X112321019Y-101356190D01*
X112320962Y-101356117D01*
X112310659Y-101361742D01*
X112300100Y-101373130D01*
X112280617Y-101378144D01*
X112262962Y-101387784D01*
X112246526Y-101386919D01*
X112232435Y-101390546D01*
X112197786Y-101384354D01*
X112197689Y-101384349D01*
X112197245Y-101384202D01*
X112047708Y-101334651D01*
X112047202Y-101334599D01*
X112040323Y-101332325D01*
X112016881Y-101316119D01*
X111991825Y-101302534D01*
X111988509Y-101296504D01*
X111982851Y-101292593D01*
X111971889Y-101266281D01*
X111958158Y-101241310D01*
X111958628Y-101234448D01*
X111955982Y-101228096D01*
X111960986Y-101200032D01*
X111962935Y-101171604D01*
X111967261Y-101164850D01*
X111968249Y-101159311D01*
X111976530Y-101150380D01*
X111991564Y-101126911D01*
X112214115Y-100904361D01*
X112290309Y-100772389D01*
X112329750Y-100625194D01*
X112329750Y-100472807D01*
X112329750Y-98672806D01*
X112290309Y-98525611D01*
X112214115Y-98393639D01*
X112106361Y-98285885D01*
X111936818Y-98116342D01*
X111924370Y-98093545D01*
X111908647Y-98072868D01*
X111906388Y-98060614D01*
X111903333Y-98055019D01*
X111900885Y-98038438D01*
X111900499Y-98033557D01*
X111900499Y-97952128D01*
X111894091Y-97892517D01*
X111888065Y-97876361D01*
X111886697Y-97859061D01*
X111890449Y-97841164D01*
X111889145Y-97822924D01*
X111893132Y-97809346D01*
X111893598Y-97807375D01*
X111899999Y-97747844D01*
X111900000Y-97747827D01*
X111900000Y-97550000D01*
X111648069Y-97550000D01*
X111604736Y-97542182D01*
X111507482Y-97505908D01*
X111507483Y-97505908D01*
X111447883Y-97499501D01*
X111447881Y-97499500D01*
X111447873Y-97499500D01*
X111447865Y-97499500D01*
X110624000Y-97499500D01*
X110615314Y-97496949D01*
X110606353Y-97498238D01*
X110582312Y-97487259D01*
X110556961Y-97479815D01*
X110551033Y-97472974D01*
X110542797Y-97469213D01*
X110528507Y-97446978D01*
X110511206Y-97427011D01*
X110508918Y-97416496D01*
X110505023Y-97410435D01*
X110500000Y-97375500D01*
X110500000Y-97224499D01*
X110519685Y-97157460D01*
X110572489Y-97111705D01*
X110624000Y-97100499D01*
X111447871Y-97100499D01*
X111447872Y-97100499D01*
X111507483Y-97094091D01*
X111604736Y-97057817D01*
X111648069Y-97050000D01*
X111900000Y-97050000D01*
X111900000Y-96852172D01*
X111899999Y-96852155D01*
X111893598Y-96792627D01*
X111891814Y-96785076D01*
X111893459Y-96784687D01*
X111889143Y-96724361D01*
X111894058Y-96707619D01*
X111894091Y-96707481D01*
X111900500Y-96647873D01*
X111900499Y-95752128D01*
X111894091Y-95692517D01*
X111894090Y-95692515D01*
X111894090Y-95692512D01*
X111892308Y-95684969D01*
X111893773Y-95684622D01*
X111889409Y-95623651D01*
X111893819Y-95608633D01*
X111894089Y-95607488D01*
X111894091Y-95607483D01*
X111900500Y-95547873D01*
X111900499Y-94652128D01*
X111894091Y-94592517D01*
X111843796Y-94457669D01*
X111843795Y-94457668D01*
X111843793Y-94457664D01*
X111757547Y-94342455D01*
X111757544Y-94342452D01*
X111642335Y-94256206D01*
X111642328Y-94256202D01*
X111507482Y-94205908D01*
X111507483Y-94205908D01*
X111447883Y-94199501D01*
X111447881Y-94199500D01*
X111447873Y-94199500D01*
X111447865Y-94199500D01*
X111417848Y-94199500D01*
X111350809Y-94179815D01*
X111305054Y-94127011D01*
X111296231Y-94099692D01*
X111269738Y-93966508D01*
X111269737Y-93966507D01*
X111269737Y-93966503D01*
X111231629Y-93874501D01*
X111209397Y-93820827D01*
X111209390Y-93820814D01*
X111121789Y-93689711D01*
X111121786Y-93689707D01*
X111010292Y-93578213D01*
X111010288Y-93578210D01*
X110879185Y-93490609D01*
X110879172Y-93490602D01*
X110733501Y-93430264D01*
X110733489Y-93430261D01*
X110578845Y-93399500D01*
X110578842Y-93399500D01*
X110421158Y-93399500D01*
X110421155Y-93399500D01*
X110266510Y-93430261D01*
X110266498Y-93430264D01*
X110120827Y-93490602D01*
X110120814Y-93490609D01*
X109989711Y-93578210D01*
X109989707Y-93578213D01*
X109878213Y-93689707D01*
X109878210Y-93689711D01*
X109790609Y-93820814D01*
X109790602Y-93820827D01*
X109730264Y-93966498D01*
X109730261Y-93966508D01*
X109703769Y-94099692D01*
X109671384Y-94161603D01*
X109610668Y-94196177D01*
X109582156Y-94199500D01*
X109552131Y-94199500D01*
X109552123Y-94199501D01*
X109492516Y-94205908D01*
X109357671Y-94256202D01*
X109357664Y-94256206D01*
X109242455Y-94342452D01*
X109242452Y-94342455D01*
X109156206Y-94457664D01*
X109156202Y-94457671D01*
X109105908Y-94592517D01*
X109099501Y-94652116D01*
X109099501Y-94652123D01*
X109099500Y-94652135D01*
X109099500Y-95496099D01*
X109079815Y-95563138D01*
X109027011Y-95608893D01*
X109022956Y-95610659D01*
X108991874Y-95623534D01*
X108885326Y-95694726D01*
X108594726Y-95985326D01*
X108523534Y-96091874D01*
X108474499Y-96210255D01*
X108474497Y-96210261D01*
X108449500Y-96335928D01*
X106700500Y-96335928D01*
X106700500Y-96033230D01*
X106720185Y-95966191D01*
X106725233Y-95958919D01*
X106793796Y-95867331D01*
X106844091Y-95732483D01*
X106850500Y-95672873D01*
X106850499Y-95517647D01*
X106870183Y-95450609D01*
X106922987Y-95404854D01*
X106992145Y-95394910D01*
X106998684Y-95396029D01*
X107010081Y-95398296D01*
X107021157Y-95400500D01*
X107021158Y-95400500D01*
X107178844Y-95400500D01*
X107178845Y-95400499D01*
X107333497Y-95369737D01*
X107479179Y-95309394D01*
X107610289Y-95221789D01*
X107721789Y-95110289D01*
X107809394Y-94979179D01*
X107869737Y-94833497D01*
X107900500Y-94678842D01*
X107900500Y-94521158D01*
X107900500Y-94521155D01*
X107900499Y-94521153D01*
X107869737Y-94366503D01*
X107859775Y-94342452D01*
X107809397Y-94220827D01*
X107809390Y-94220814D01*
X107721789Y-94089711D01*
X107721786Y-94089707D01*
X107691819Y-94059740D01*
X107677115Y-94032812D01*
X107660523Y-94006994D01*
X107659631Y-94000793D01*
X107658334Y-93998417D01*
X107655500Y-93972059D01*
X107655500Y-93933230D01*
X107675185Y-93866191D01*
X107680233Y-93858919D01*
X107695757Y-93838182D01*
X107748796Y-93767331D01*
X107799091Y-93632483D01*
X107805500Y-93572873D01*
X107805499Y-92227128D01*
X107799091Y-92167517D01*
X107748796Y-92032669D01*
X107748795Y-92032668D01*
X107748793Y-92032664D01*
X107662547Y-91917456D01*
X107662548Y-91917456D01*
X107662546Y-91917454D01*
X107604186Y-91873765D01*
X107562316Y-91817833D01*
X107557332Y-91748141D01*
X107590817Y-91686818D01*
X107652141Y-91653334D01*
X107678498Y-91650500D01*
X108975500Y-91650500D01*
X109042539Y-91670185D01*
X109088294Y-91722989D01*
X109099500Y-91774500D01*
X109099500Y-92547870D01*
X109099501Y-92547876D01*
X109105908Y-92607483D01*
X109156202Y-92742328D01*
X109156206Y-92742335D01*
X109242452Y-92857544D01*
X109242455Y-92857547D01*
X109357664Y-92943793D01*
X109357671Y-92943797D01*
X109402618Y-92960561D01*
X109492517Y-92994091D01*
X109552127Y-93000500D01*
X110034899Y-93000499D01*
X110082351Y-93009938D01*
X110200116Y-93058717D01*
X110208165Y-93062051D01*
X110208169Y-93062051D01*
X110208170Y-93062052D01*
X110401456Y-93100500D01*
X110401459Y-93100500D01*
X111899543Y-93100500D01*
X111974194Y-93085650D01*
X112061606Y-93068263D01*
X112092836Y-93062051D01*
X112146165Y-93039961D01*
X112274914Y-92986632D01*
X112438782Y-92877139D01*
X112578139Y-92737782D01*
X112578139Y-92737780D01*
X112588347Y-92727573D01*
X112588348Y-92727570D01*
X113877139Y-91438782D01*
X113896093Y-91410414D01*
X113933240Y-91354822D01*
X113933240Y-91354821D01*
X113976601Y-91289926D01*
X113986632Y-91274914D01*
X114018698Y-91197500D01*
X114039441Y-91147422D01*
X114039441Y-91147421D01*
X114042292Y-91140539D01*
X114062051Y-91092836D01*
X114100500Y-90899541D01*
X114100500Y-90702460D01*
X114100500Y-85251459D01*
X114100500Y-85251456D01*
X114100499Y-85251454D01*
X114062053Y-85058173D01*
X114062051Y-85058166D01*
X114059568Y-85052172D01*
X114059550Y-85052128D01*
X114013882Y-84941874D01*
X113993918Y-84893677D01*
X113986635Y-84876093D01*
X113986634Y-84876092D01*
X113986632Y-84876086D01*
X113964723Y-84843297D01*
X113877139Y-84712217D01*
X113734686Y-84569764D01*
X113734655Y-84569735D01*
X112331479Y-83166559D01*
X112331459Y-83166537D01*
X112187785Y-83022863D01*
X112187781Y-83022860D01*
X112156173Y-83001740D01*
X112151058Y-82998322D01*
X117675001Y-82998322D01*
X117685144Y-83097607D01*
X117738452Y-83258481D01*
X117738457Y-83258492D01*
X117827424Y-83402728D01*
X117827427Y-83402732D01*
X117947267Y-83522572D01*
X117947271Y-83522575D01*
X118091507Y-83611542D01*
X118091518Y-83611547D01*
X118252393Y-83664855D01*
X118351683Y-83674999D01*
X118375000Y-83674998D01*
X118375000Y-82950000D01*
X117675001Y-82950000D01*
X117675001Y-82998322D01*
X112151058Y-82998322D01*
X112023920Y-82913371D01*
X112023907Y-82913364D01*
X111886535Y-82856464D01*
X111886534Y-82856463D01*
X111878278Y-82853044D01*
X111841836Y-82837949D01*
X111715308Y-82812781D01*
X111712121Y-82812147D01*
X111712109Y-82812144D01*
X111648543Y-82799500D01*
X111648541Y-82799500D01*
X111198630Y-82799500D01*
X111131591Y-82779815D01*
X111085836Y-82727011D01*
X111075340Y-82662249D01*
X111076318Y-82653153D01*
X111076317Y-81813999D01*
X111096001Y-81746961D01*
X111148805Y-81701206D01*
X111200317Y-81690000D01*
X111905935Y-81690000D01*
X111905938Y-81690000D01*
X114679716Y-81690000D01*
X114682463Y-81697366D01*
G37*
%TD.AperFunction*%
%TA.AperFunction,Conductor*%
G36*
X125892774Y-96076604D02*
G01*
X125925195Y-96097440D01*
X125926469Y-96095798D01*
X125932632Y-96100578D01*
X125932635Y-96100581D01*
X126074102Y-96184244D01*
X126085626Y-96187592D01*
X126231926Y-96230097D01*
X126231929Y-96230097D01*
X126231931Y-96230098D01*
X126268806Y-96233000D01*
X126268814Y-96233000D01*
X126700186Y-96233000D01*
X126700194Y-96233000D01*
X126737069Y-96230098D01*
X126737071Y-96230097D01*
X126737073Y-96230097D01*
X126778691Y-96218005D01*
X126894898Y-96184244D01*
X126897630Y-96182628D01*
X126900051Y-96182013D01*
X126902054Y-96181147D01*
X126902193Y-96181469D01*
X126965349Y-96165439D01*
X127031614Y-96187592D01*
X127075383Y-96242053D01*
X127084759Y-96289149D01*
X127087880Y-98177866D01*
X127068306Y-98244938D01*
X127015578Y-98290780D01*
X126946436Y-98300838D01*
X126900757Y-98284802D01*
X126894694Y-98281216D01*
X126736994Y-98235400D01*
X126736997Y-98235400D01*
X126734500Y-98235203D01*
X126734500Y-101188500D01*
X126714815Y-101255539D01*
X126662011Y-101301294D01*
X126610500Y-101312500D01*
X126575000Y-101312500D01*
X126575000Y-104174999D01*
X126598308Y-104174999D01*
X126598322Y-104174998D01*
X126697607Y-104164855D01*
X126858481Y-104111547D01*
X126858492Y-104111542D01*
X126908709Y-104080568D01*
X126976101Y-104062127D01*
X127042765Y-104083049D01*
X127087534Y-104136691D01*
X127097806Y-104185901D01*
X127099232Y-105049907D01*
X127079658Y-105116979D01*
X127062913Y-105137793D01*
X125409605Y-106791101D01*
X125382873Y-106805697D01*
X125357309Y-106822264D01*
X125350765Y-106823230D01*
X125348282Y-106824586D01*
X125322393Y-106827419D01*
X125191860Y-106827913D01*
X125124747Y-106808482D01*
X125078792Y-106755852D01*
X125068587Y-106686732D01*
X125097371Y-106623067D01*
X125103682Y-106616263D01*
X125719776Y-106000169D01*
X125790965Y-105893627D01*
X125840001Y-105775244D01*
X125853052Y-105709634D01*
X125865000Y-105649571D01*
X125865000Y-104293241D01*
X125884685Y-104226202D01*
X125937489Y-104180447D01*
X126001604Y-104169883D01*
X126051685Y-104174999D01*
X126075000Y-104174998D01*
X126075000Y-100719000D01*
X126094685Y-100651961D01*
X126147489Y-100606206D01*
X126199000Y-100595000D01*
X126234500Y-100595000D01*
X126234500Y-98235203D01*
X126232003Y-98235400D01*
X126074306Y-98281216D01*
X126074303Y-98281217D01*
X125932949Y-98364813D01*
X125926783Y-98369597D01*
X125924889Y-98367155D01*
X125876080Y-98393739D01*
X125806394Y-98388679D01*
X125773727Y-98367659D01*
X125772531Y-98369202D01*
X125766362Y-98364417D01*
X125641848Y-98290780D01*
X125624898Y-98280756D01*
X125624897Y-98280755D01*
X125624896Y-98280755D01*
X125624893Y-98280754D01*
X125467073Y-98234902D01*
X125467067Y-98234901D01*
X125430201Y-98232000D01*
X125430194Y-98232000D01*
X125174500Y-98232000D01*
X125107461Y-98212315D01*
X125061706Y-98159511D01*
X125050500Y-98108000D01*
X125050500Y-96357000D01*
X125070185Y-96289961D01*
X125122989Y-96244206D01*
X125174500Y-96233000D01*
X125430186Y-96233000D01*
X125430194Y-96233000D01*
X125467069Y-96230098D01*
X125467071Y-96230097D01*
X125467073Y-96230097D01*
X125508691Y-96218005D01*
X125624898Y-96184244D01*
X125766365Y-96100581D01*
X125766370Y-96100575D01*
X125772531Y-96095798D01*
X125774433Y-96098250D01*
X125823079Y-96071655D01*
X125892774Y-96076604D01*
G37*
%TD.AperFunction*%
%TA.AperFunction,Conductor*%
G36*
X123713182Y-92994737D02*
G01*
X123746666Y-93056061D01*
X123749500Y-93082418D01*
X123749500Y-94117581D01*
X123729815Y-94184620D01*
X123677011Y-94230375D01*
X123607853Y-94240319D01*
X123582168Y-94233763D01*
X123507485Y-94205909D01*
X123507483Y-94205908D01*
X123447883Y-94199501D01*
X123447881Y-94199500D01*
X123447873Y-94199500D01*
X123447865Y-94199500D01*
X121723500Y-94199500D01*
X121656461Y-94179815D01*
X121610706Y-94127011D01*
X121599500Y-94075500D01*
X121599500Y-93204934D01*
X121604313Y-93188170D01*
X121604112Y-93171430D01*
X121617425Y-93142501D01*
X121618387Y-93139152D01*
X121619358Y-93137600D01*
X121658394Y-93079179D01*
X121663237Y-93067485D01*
X121668725Y-93058717D01*
X121687425Y-93042115D01*
X121703115Y-93022645D01*
X121713102Y-93019320D01*
X121720976Y-93012331D01*
X121745682Y-93008475D01*
X121769408Y-93000578D01*
X121773838Y-93000499D01*
X123447871Y-93000499D01*
X123447872Y-93000499D01*
X123507483Y-92994091D01*
X123527482Y-92986632D01*
X123582167Y-92966236D01*
X123651859Y-92961252D01*
X123713182Y-92994737D01*
G37*
%TD.AperFunction*%
%TA.AperFunction,Conductor*%
G36*
X106132139Y-90952538D02*
G01*
X106138669Y-90958615D01*
X106685325Y-91505272D01*
X106685326Y-91505273D01*
X106685329Y-91505275D01*
X106685331Y-91505277D01*
X106748371Y-91547398D01*
X106793176Y-91601009D01*
X106801883Y-91670334D01*
X106771729Y-91733362D01*
X106712286Y-91770082D01*
X106679485Y-91774500D01*
X106657132Y-91774500D01*
X106657123Y-91774501D01*
X106597516Y-91780908D01*
X106462671Y-91831202D01*
X106462664Y-91831206D01*
X106347455Y-91917452D01*
X106347452Y-91917455D01*
X106261206Y-92032664D01*
X106261202Y-92032671D01*
X106210908Y-92167517D01*
X106204501Y-92227116D01*
X106204501Y-92227123D01*
X106204500Y-92227135D01*
X106204500Y-93572870D01*
X106204501Y-93572876D01*
X106210908Y-93632483D01*
X106238764Y-93707167D01*
X106243748Y-93776859D01*
X106210263Y-93838182D01*
X106148939Y-93871666D01*
X106122582Y-93874500D01*
X106052473Y-93874500D01*
X105985434Y-93854815D01*
X105939679Y-93802011D01*
X105928473Y-93750572D01*
X105926989Y-91046357D01*
X105946636Y-90979314D01*
X105999415Y-90933530D01*
X106068568Y-90923548D01*
X106132139Y-90952538D01*
G37*
%TD.AperFunction*%
%TA.AperFunction,Conductor*%
G36*
X124050422Y-81709685D02*
G01*
X124096177Y-81762489D01*
X124106322Y-81830185D01*
X124099503Y-81881979D01*
X124099502Y-81881995D01*
X124099502Y-82118004D01*
X124099503Y-82118020D01*
X124130308Y-82352010D01*
X124191396Y-82579993D01*
X124281716Y-82798045D01*
X124281721Y-82798056D01*
X124334578Y-82889606D01*
X124399729Y-83002450D01*
X124399731Y-83002453D01*
X124399732Y-83002454D01*
X124543408Y-83189697D01*
X124543414Y-83189704D01*
X124710297Y-83356587D01*
X124710304Y-83356593D01*
X124820308Y-83441001D01*
X124897552Y-83500273D01*
X125027877Y-83575516D01*
X125101945Y-83618280D01*
X125101950Y-83618282D01*
X125101953Y-83618284D01*
X125320009Y-83708606D01*
X125547988Y-83769693D01*
X125781991Y-83800500D01*
X125781998Y-83800500D01*
X126018006Y-83800500D01*
X126018013Y-83800500D01*
X126252016Y-83769693D01*
X126443409Y-83718409D01*
X126513256Y-83720072D01*
X126571119Y-83759234D01*
X126598623Y-83823462D01*
X126599500Y-83838184D01*
X126599500Y-84383561D01*
X126579815Y-84450600D01*
X126574767Y-84457872D01*
X126556204Y-84482668D01*
X126556202Y-84482671D01*
X126505908Y-84617517D01*
X126499501Y-84677116D01*
X126499500Y-84677135D01*
X126499500Y-85089877D01*
X126490061Y-85137329D01*
X126449500Y-85235251D01*
X126449497Y-85235261D01*
X126424500Y-85360928D01*
X126424500Y-88033480D01*
X126404815Y-88100519D01*
X126388181Y-88121161D01*
X126319531Y-88189810D01*
X126319530Y-88189811D01*
X126231522Y-88335393D01*
X126180913Y-88497807D01*
X126174500Y-88568386D01*
X126174500Y-88829192D01*
X126154815Y-88896231D01*
X126138181Y-88916873D01*
X125979225Y-89075828D01*
X125979224Y-89075829D01*
X125979223Y-89075831D01*
X125934708Y-89142454D01*
X125921371Y-89162413D01*
X125908035Y-89182372D01*
X125908033Y-89182375D01*
X125858999Y-89300755D01*
X125858997Y-89300761D01*
X125834000Y-89426428D01*
X125834000Y-89885260D01*
X125833998Y-89892058D01*
X125833994Y-89892080D01*
X125833995Y-89910907D01*
X125833995Y-89914021D01*
X125833976Y-89914085D01*
X125833986Y-90053073D01*
X125858415Y-90175842D01*
X125856635Y-90195743D01*
X125859836Y-90215463D01*
X125853587Y-90229828D01*
X125852192Y-90245434D01*
X125839936Y-90261212D01*
X125831967Y-90279534D01*
X125811229Y-90298170D01*
X125809332Y-90300614D01*
X125805716Y-90303126D01*
X125797223Y-90308804D01*
X125730551Y-90329699D01*
X125691417Y-90324105D01*
X125626603Y-90303909D01*
X125556072Y-90297500D01*
X125474500Y-90297500D01*
X125474500Y-90718610D01*
X125469170Y-90754576D01*
X125468530Y-90756685D01*
X125435921Y-90920827D01*
X125435921Y-90920828D01*
X125435941Y-91004190D01*
X125435941Y-91073500D01*
X125416256Y-91140539D01*
X125363452Y-91186294D01*
X125311941Y-91197500D01*
X125174500Y-91197500D01*
X125107461Y-91177815D01*
X125061706Y-91125011D01*
X125050500Y-91073500D01*
X125050500Y-90833928D01*
X125025502Y-90708261D01*
X125025501Y-90708260D01*
X125025501Y-90708256D01*
X124983938Y-90607916D01*
X124974500Y-90560464D01*
X124974500Y-90297500D01*
X124974499Y-90297499D01*
X124892917Y-90297500D01*
X124822400Y-90303907D01*
X124822385Y-90303910D01*
X124820343Y-90304547D01*
X124819083Y-90304567D01*
X124815959Y-90305189D01*
X124815845Y-90304620D01*
X124750483Y-90305691D01*
X124695784Y-90273839D01*
X124342390Y-89920445D01*
X123934615Y-89512669D01*
X123924355Y-89493879D01*
X123910140Y-89477874D01*
X123904338Y-89457221D01*
X123901130Y-89451346D01*
X123899783Y-89444134D01*
X123899323Y-89441195D01*
X123894091Y-89392517D01*
X123890003Y-89381559D01*
X123888064Y-89369146D01*
X123891042Y-89346466D01*
X123889409Y-89323651D01*
X123893819Y-89308633D01*
X123894089Y-89307488D01*
X123894091Y-89307483D01*
X123900500Y-89247873D01*
X123900499Y-88352128D01*
X123894091Y-88292517D01*
X123894090Y-88292515D01*
X123894090Y-88292512D01*
X123892308Y-88284969D01*
X123893773Y-88284622D01*
X123889409Y-88223651D01*
X123893819Y-88208633D01*
X123894089Y-88207488D01*
X123894091Y-88207483D01*
X123900500Y-88147873D01*
X123900499Y-87252128D01*
X123894091Y-87192517D01*
X123894090Y-87192515D01*
X123894090Y-87192512D01*
X123892308Y-87184969D01*
X123893773Y-87184622D01*
X123889409Y-87123651D01*
X123893819Y-87108633D01*
X123894089Y-87107488D01*
X123894091Y-87107483D01*
X123900500Y-87047873D01*
X123900499Y-86152128D01*
X123894091Y-86092517D01*
X123894091Y-86092516D01*
X123892307Y-86084966D01*
X123893559Y-86084669D01*
X123889145Y-86022924D01*
X123893132Y-86009346D01*
X123893598Y-86007375D01*
X123899999Y-85947844D01*
X123900000Y-85947827D01*
X123900000Y-85750000D01*
X123648069Y-85750000D01*
X123604736Y-85742182D01*
X123507482Y-85705908D01*
X123507483Y-85705908D01*
X123447883Y-85699501D01*
X123447881Y-85699500D01*
X123447873Y-85699500D01*
X123447865Y-85699500D01*
X122624000Y-85699500D01*
X122556961Y-85679815D01*
X122511206Y-85627011D01*
X122500000Y-85575500D01*
X122500000Y-85500000D01*
X122374000Y-85500000D01*
X122306961Y-85480315D01*
X122261206Y-85427511D01*
X122250000Y-85376000D01*
X122250000Y-85250000D01*
X122750000Y-85250000D01*
X123900000Y-85250000D01*
X123900000Y-85052172D01*
X123899999Y-85052155D01*
X123893598Y-84992627D01*
X123893596Y-84992620D01*
X123843354Y-84857913D01*
X123843350Y-84857906D01*
X123757190Y-84742812D01*
X123757187Y-84742809D01*
X123642093Y-84656649D01*
X123642086Y-84656645D01*
X123507379Y-84606403D01*
X123507372Y-84606401D01*
X123447844Y-84600000D01*
X122750000Y-84600000D01*
X122750000Y-85250000D01*
X122250000Y-85250000D01*
X122250000Y-84600000D01*
X121552155Y-84600000D01*
X121492627Y-84606401D01*
X121492620Y-84606403D01*
X121357913Y-84656645D01*
X121357906Y-84656649D01*
X121242812Y-84742809D01*
X121242809Y-84742812D01*
X121156649Y-84857906D01*
X121156643Y-84857917D01*
X121120630Y-84954470D01*
X121120630Y-84954474D01*
X121096683Y-84986461D01*
X121078758Y-85010408D01*
X121031598Y-85027997D01*
X121013294Y-85034824D01*
X121013293Y-85034823D01*
X121013293Y-85034824D01*
X120945020Y-85019972D01*
X120916767Y-84998821D01*
X120861819Y-84943873D01*
X120828334Y-84882550D01*
X120825500Y-84856192D01*
X120825500Y-83601874D01*
X120845185Y-83534835D01*
X120861819Y-83514193D01*
X120898676Y-83477336D01*
X120972968Y-83403044D01*
X121062003Y-83258697D01*
X121115349Y-83097708D01*
X121125500Y-82998345D01*
X121125499Y-82401656D01*
X121115349Y-82302292D01*
X121062003Y-82141303D01*
X121061999Y-82141297D01*
X121061998Y-82141294D01*
X120972970Y-81996959D01*
X120972967Y-81996955D01*
X120952105Y-81976093D01*
X120942525Y-81958549D01*
X120928902Y-81943917D01*
X120926121Y-81928508D01*
X120918620Y-81914770D01*
X120920045Y-81894832D01*
X120916496Y-81875158D01*
X120923382Y-81848179D01*
X120923604Y-81845078D01*
X120925225Y-81840960D01*
X120956047Y-81766548D01*
X120999887Y-81712144D01*
X121066181Y-81690079D01*
X121070608Y-81690000D01*
X123983383Y-81690000D01*
X124050422Y-81709685D01*
G37*
%TD.AperFunction*%
%TA.AperFunction,Conductor*%
G36*
X109065972Y-84820185D02*
G01*
X109111727Y-84872989D01*
X109121671Y-84942147D01*
X109115115Y-84967832D01*
X109105909Y-84992514D01*
X109105908Y-84992516D01*
X109099501Y-85052116D01*
X109099500Y-85052135D01*
X109099500Y-85947870D01*
X109099501Y-85947872D01*
X109103733Y-85987246D01*
X109100954Y-86002652D01*
X109103182Y-86018147D01*
X109094877Y-86036330D01*
X109091328Y-86056005D01*
X109080660Y-86067462D01*
X109074157Y-86081703D01*
X109057338Y-86092511D01*
X109043717Y-86107142D01*
X109027761Y-86111519D01*
X109015379Y-86119477D01*
X108980444Y-86124500D01*
X108800481Y-86124500D01*
X108733442Y-86104815D01*
X108687687Y-86052011D01*
X108677743Y-85982853D01*
X108694943Y-85935402D01*
X108711544Y-85908487D01*
X108711547Y-85908481D01*
X108764855Y-85747606D01*
X108774999Y-85648322D01*
X108775000Y-85648309D01*
X108775000Y-85625000D01*
X107405000Y-85625000D01*
X107391319Y-85638681D01*
X107329996Y-85672166D01*
X107303638Y-85675000D01*
X106550000Y-85675000D01*
X106550000Y-86324999D01*
X106631581Y-86324999D01*
X106695650Y-86319178D01*
X106764196Y-86332715D01*
X106814541Y-86381163D01*
X106830701Y-86449138D01*
X106830361Y-86453891D01*
X106824500Y-86518386D01*
X106824500Y-86823385D01*
X106804815Y-86890424D01*
X106752011Y-86936179D01*
X106747953Y-86937946D01*
X106620823Y-86990604D01*
X106620814Y-86990609D01*
X106489711Y-87078210D01*
X106489707Y-87078213D01*
X106378213Y-87189707D01*
X106378210Y-87189711D01*
X106290609Y-87320814D01*
X106290602Y-87320827D01*
X106230264Y-87466498D01*
X106230261Y-87466507D01*
X106223347Y-87501269D01*
X106218636Y-87510272D01*
X106217912Y-87520410D01*
X106202714Y-87540711D01*
X106190961Y-87563179D01*
X106182130Y-87568207D01*
X106176040Y-87576343D01*
X106152281Y-87585204D01*
X106130245Y-87597753D01*
X106120096Y-87597208D01*
X106110576Y-87600760D01*
X106085797Y-87595369D01*
X106060476Y-87594012D01*
X106050415Y-87587672D01*
X106042303Y-87585908D01*
X106014049Y-87564757D01*
X105961319Y-87512027D01*
X105927834Y-87450704D01*
X105925002Y-87424433D01*
X105924696Y-86867016D01*
X105944342Y-86799974D01*
X105945565Y-86798106D01*
X106022634Y-86682759D01*
X106089762Y-86520671D01*
X106123972Y-86348601D01*
X106123961Y-86260881D01*
X106123961Y-86257546D01*
X106123961Y-86221348D01*
X106123971Y-86221157D01*
X106123970Y-86214178D01*
X106123971Y-86214175D01*
X106123968Y-86192317D01*
X106124038Y-86192076D01*
X106124031Y-86140881D01*
X106124032Y-86140881D01*
X106124020Y-86053170D01*
X106089773Y-85881123D01*
X106065636Y-85822873D01*
X106059445Y-85807932D01*
X106057815Y-85799745D01*
X106055023Y-85795399D01*
X106050000Y-85760464D01*
X106050000Y-85549000D01*
X106069685Y-85481961D01*
X106122489Y-85436206D01*
X106174000Y-85425000D01*
X106300000Y-85425000D01*
X106300000Y-85299000D01*
X106319685Y-85231961D01*
X106372489Y-85186206D01*
X106424000Y-85175000D01*
X106695000Y-85175000D01*
X106708681Y-85161319D01*
X106770004Y-85127834D01*
X106796362Y-85125000D01*
X108774999Y-85125000D01*
X108774999Y-85101692D01*
X108774998Y-85101677D01*
X108764856Y-85002394D01*
X108751969Y-84963505D01*
X108750989Y-84935039D01*
X108746937Y-84906853D01*
X108749804Y-84900574D01*
X108749567Y-84893677D01*
X108764130Y-84869203D01*
X108775962Y-84843297D01*
X108781768Y-84839565D01*
X108785298Y-84833634D01*
X108810784Y-84820917D01*
X108834740Y-84805523D01*
X108844434Y-84804129D01*
X108847818Y-84802441D01*
X108869675Y-84800500D01*
X108998933Y-84800500D01*
X109065972Y-84820185D01*
G37*
%TD.AperFunction*%
%TD*%
%TA.AperFunction,Conductor*%
%TO.N,VCC*%
G36*
X126600000Y-132805882D02*
G01*
X124401440Y-132820252D01*
X124401440Y-134170252D01*
X126600000Y-134170252D01*
X126600000Y-135398235D01*
X126580315Y-135465274D01*
X126527511Y-135511029D01*
X126523453Y-135512796D01*
X126372160Y-135575463D01*
X126246718Y-135671718D01*
X126150463Y-135797160D01*
X126089956Y-135943237D01*
X126089955Y-135943239D01*
X126074501Y-136060629D01*
X126074500Y-136060645D01*
X126074500Y-137414363D01*
X126089953Y-137531753D01*
X126089956Y-137531762D01*
X126150464Y-137677841D01*
X126246718Y-137803282D01*
X126246719Y-137803283D01*
X126351486Y-137883673D01*
X126392689Y-137940101D01*
X126400000Y-137982049D01*
X126400000Y-139128692D01*
X126391355Y-139158132D01*
X126384832Y-139188119D01*
X126381077Y-139193134D01*
X126380315Y-139195731D01*
X126363681Y-139216373D01*
X126236373Y-139343681D01*
X126175050Y-139377166D01*
X126148692Y-139380000D01*
X124524000Y-139380000D01*
X124456961Y-139360315D01*
X124411206Y-139307511D01*
X124400000Y-139256000D01*
X124400000Y-137325192D01*
X124419349Y-137259297D01*
X124419177Y-137259191D01*
X124419564Y-137258562D01*
X124419685Y-137258153D01*
X124420655Y-137256793D01*
X124422966Y-137253045D01*
X124422968Y-137253044D01*
X124512003Y-137108697D01*
X124565349Y-136947708D01*
X124575500Y-136848345D01*
X124575499Y-136301656D01*
X124565349Y-136202292D01*
X124512003Y-136041303D01*
X124511999Y-136041297D01*
X124511998Y-136041294D01*
X124419177Y-135890809D01*
X124421696Y-135889255D01*
X124417840Y-135879686D01*
X124405023Y-135859742D01*
X124402370Y-135841296D01*
X124400588Y-135836872D01*
X124400000Y-135824807D01*
X124400000Y-135775192D01*
X124419349Y-135709297D01*
X124419177Y-135709191D01*
X124419564Y-135708562D01*
X124419685Y-135708153D01*
X124420655Y-135706793D01*
X124422966Y-135703045D01*
X124422968Y-135703044D01*
X124512003Y-135558697D01*
X124565349Y-135397708D01*
X124575500Y-135298345D01*
X124575499Y-134751656D01*
X124565349Y-134652292D01*
X124512003Y-134491303D01*
X124511999Y-134491297D01*
X124511998Y-134491294D01*
X124419177Y-134340809D01*
X124421696Y-134339255D01*
X124400588Y-134286872D01*
X124400000Y-134274807D01*
X124400000Y-132800000D01*
X126600000Y-132800000D01*
X126600000Y-132805882D01*
G37*
%TD.AperFunction*%
%TD*%
%TA.AperFunction,Conductor*%
%TO.N,VCC*%
G36*
X133227164Y-132780249D02*
G01*
X133270379Y-132805805D01*
X133339602Y-132846744D01*
X133381224Y-132858836D01*
X133497426Y-132892597D01*
X133497429Y-132892597D01*
X133497431Y-132892598D01*
X133534306Y-132895500D01*
X133534314Y-132895500D01*
X135315686Y-132895500D01*
X135315694Y-132895500D01*
X135352569Y-132892598D01*
X135442845Y-132866370D01*
X135512714Y-132866569D01*
X135571384Y-132904510D01*
X135600228Y-132968149D01*
X135601440Y-132985446D01*
X135601440Y-133744553D01*
X135581755Y-133811592D01*
X135528951Y-133857347D01*
X135459793Y-133867291D01*
X135442845Y-133863629D01*
X135352573Y-133837402D01*
X135352567Y-133837401D01*
X135315701Y-133834500D01*
X135315694Y-133834500D01*
X133534306Y-133834500D01*
X133534298Y-133834500D01*
X133497432Y-133837401D01*
X133497426Y-133837402D01*
X133339606Y-133883254D01*
X133339603Y-133883255D01*
X133198137Y-133966917D01*
X133198129Y-133966923D01*
X133081923Y-134083129D01*
X133081918Y-134083135D01*
X133066403Y-134109372D01*
X133058101Y-134117123D01*
X133053383Y-134127455D01*
X133033023Y-134140539D01*
X133015334Y-134157056D01*
X133002639Y-134160065D01*
X132994605Y-134165229D01*
X132959670Y-134170252D01*
X132827218Y-134170252D01*
X132762121Y-134151790D01*
X132693351Y-134109372D01*
X132658701Y-134087999D01*
X132658698Y-134087997D01*
X132658697Y-134087997D01*
X132644006Y-134083129D01*
X132497709Y-134034651D01*
X132398346Y-134024500D01*
X131801662Y-134024500D01*
X131801644Y-134024501D01*
X131702292Y-134034650D01*
X131702289Y-134034651D01*
X131541305Y-134087996D01*
X131541298Y-134087999D01*
X131477332Y-134127455D01*
X131437878Y-134151790D01*
X131421321Y-134156486D01*
X131407717Y-134165229D01*
X131372782Y-134170252D01*
X131327218Y-134170252D01*
X131262121Y-134151790D01*
X131193351Y-134109372D01*
X131158701Y-134087999D01*
X131158698Y-134087997D01*
X131158697Y-134087997D01*
X131144006Y-134083129D01*
X130997709Y-134034651D01*
X130898346Y-134024500D01*
X130301662Y-134024500D01*
X130301644Y-134024501D01*
X130202292Y-134034650D01*
X130202289Y-134034651D01*
X130041305Y-134087996D01*
X130041298Y-134087999D01*
X129977332Y-134127455D01*
X129937878Y-134151790D01*
X129872782Y-134170252D01*
X124401440Y-134170252D01*
X124401440Y-132820252D01*
X133163236Y-132762985D01*
X133227164Y-132780249D01*
G37*
%TD.AperFunction*%
%TD*%
%TA.AperFunction,Conductor*%
%TO.N,GND*%
G36*
X134701937Y-104522032D02*
G01*
X134729979Y-106288788D01*
X134715874Y-106339804D01*
X134718707Y-106340978D01*
X134714033Y-106352261D01*
X134699500Y-106425323D01*
X134699500Y-106774673D01*
X134709671Y-106825810D01*
X134709671Y-106874190D01*
X134699500Y-106925326D01*
X134699500Y-107274673D01*
X134709671Y-107325810D01*
X134709671Y-107374190D01*
X134699500Y-107425326D01*
X134699500Y-107774673D01*
X134709671Y-107825810D01*
X134709671Y-107874190D01*
X134699500Y-107925326D01*
X134699500Y-108274673D01*
X134709671Y-108325810D01*
X134709671Y-108374190D01*
X134699500Y-108425326D01*
X134699500Y-108774678D01*
X134714032Y-108847735D01*
X134714034Y-108847740D01*
X134751673Y-108904071D01*
X134772551Y-108970749D01*
X134772555Y-108970994D01*
X134780929Y-109498616D01*
X134762311Y-109565960D01*
X134760049Y-109569473D01*
X134709917Y-109644503D01*
X134709914Y-109644508D01*
X134653342Y-109781086D01*
X134653340Y-109781092D01*
X134624500Y-109926079D01*
X134624500Y-109926082D01*
X134624500Y-110073918D01*
X134624500Y-110073920D01*
X134624499Y-110073920D01*
X134653340Y-110218907D01*
X134653343Y-110218917D01*
X134709912Y-110355488D01*
X134709919Y-110355501D01*
X134776288Y-110454829D01*
X134797166Y-110521507D01*
X134797170Y-110521752D01*
X134823397Y-112174032D01*
X134804779Y-112241375D01*
X134752708Y-112287963D01*
X134699413Y-112300000D01*
X133124000Y-112300000D01*
X133056961Y-112280315D01*
X133011206Y-112227511D01*
X133000000Y-112176000D01*
X133000000Y-108785841D01*
X133000500Y-108775673D01*
X133000500Y-108424336D01*
X133000000Y-108414158D01*
X133000000Y-108285841D01*
X133000500Y-108275673D01*
X133000500Y-107924336D01*
X133000000Y-107914158D01*
X133000000Y-107785841D01*
X133000500Y-107775673D01*
X133000500Y-107424336D01*
X133000000Y-107414158D01*
X133000000Y-107285841D01*
X133000500Y-107275673D01*
X133000500Y-106924336D01*
X133000000Y-106914158D01*
X133000000Y-106785841D01*
X133000500Y-106775673D01*
X133000500Y-106424336D01*
X133000000Y-106414158D01*
X133000000Y-105900000D01*
X134700000Y-105900000D01*
X134700000Y-104513456D01*
X134701937Y-104522032D01*
G37*
%TD.AperFunction*%
%TD*%
%TA.AperFunction,Conductor*%
%TO.N,GND*%
G36*
X127243039Y-125619685D02*
G01*
X127288794Y-125672489D01*
X127300000Y-125724000D01*
X127300000Y-129976000D01*
X127280315Y-130043039D01*
X127227511Y-130088794D01*
X127176000Y-130100000D01*
X123824000Y-130100000D01*
X123756961Y-130080315D01*
X123711206Y-130027511D01*
X123700000Y-129976000D01*
X123700000Y-125724000D01*
X123719685Y-125656961D01*
X123772489Y-125611206D01*
X123824000Y-125600000D01*
X127176000Y-125600000D01*
X127243039Y-125619685D01*
G37*
%TD.AperFunction*%
%TD*%
%TA.AperFunction,Conductor*%
%TO.N,GND*%
G36*
X116957174Y-77139704D02*
G01*
X117024118Y-77159700D01*
X117069627Y-77212717D01*
X117080594Y-77263927D01*
X117072590Y-81690000D01*
X111905938Y-81690000D01*
X111905937Y-81689999D01*
X111051150Y-81416714D01*
X110993289Y-81377550D01*
X110989655Y-81372929D01*
X110933364Y-81297734D01*
X110869974Y-81250280D01*
X110818153Y-81211486D01*
X110818146Y-81211482D01*
X110683300Y-81161188D01*
X110683301Y-81161188D01*
X110623701Y-81154781D01*
X110623699Y-81154780D01*
X110623691Y-81154780D01*
X110623683Y-81154780D01*
X109937253Y-81154780D01*
X109913062Y-81152397D01*
X109877871Y-81145397D01*
X109799361Y-81129780D01*
X109799359Y-81129780D01*
X107746179Y-81129780D01*
X107746177Y-81129780D01*
X107552885Y-81168228D01*
X107549808Y-81169162D01*
X107513817Y-81174500D01*
X106726455Y-81174500D01*
X106635006Y-81192690D01*
X106634996Y-81192692D01*
X106629812Y-81193724D01*
X106533164Y-81212949D01*
X106480771Y-81234651D01*
X106459455Y-81243480D01*
X106452837Y-81245395D01*
X106443126Y-81245356D01*
X106418375Y-81250280D01*
X106174818Y-81250280D01*
X106107779Y-81230595D01*
X106062024Y-81177791D01*
X106050818Y-81126280D01*
X106050818Y-78799204D01*
X106070503Y-78732165D01*
X106123307Y-78686410D01*
X106127349Y-78684650D01*
X106141995Y-78678584D01*
X106191229Y-78645686D01*
X106264916Y-78596452D01*
X106405336Y-78456031D01*
X106466656Y-78422547D01*
X106493603Y-78419715D01*
X107276562Y-78423497D01*
X107306043Y-78427202D01*
X107310535Y-78428325D01*
X107423110Y-78465629D01*
X107484883Y-78471939D01*
X107493519Y-78474100D01*
X107497554Y-78476468D01*
X107510877Y-78479831D01*
X107528983Y-78487331D01*
X107576314Y-78496745D01*
X107722274Y-78525780D01*
X107722277Y-78525780D01*
X109794360Y-78525780D01*
X109882928Y-78508162D01*
X109907120Y-78505779D01*
X110623689Y-78505779D01*
X110623690Y-78505779D01*
X110683301Y-78499371D01*
X110818149Y-78449076D01*
X110915027Y-78376552D01*
X110952784Y-78357330D01*
X114912677Y-77135875D01*
X114949799Y-77130368D01*
X116957174Y-77139704D01*
G37*
%TD.AperFunction*%
%TD*%
%TA.AperFunction,Conductor*%
%TO.N,/5V_SMPS_OUT*%
G36*
X118488221Y-110646186D02*
G01*
X118533976Y-110698990D01*
X118543920Y-110768148D01*
X118538888Y-110789504D01*
X118534651Y-110802289D01*
X118534651Y-110802290D01*
X118524500Y-110901647D01*
X118524500Y-111498337D01*
X118524501Y-111498355D01*
X118534650Y-111597707D01*
X118534652Y-111597713D01*
X118574338Y-111717479D01*
X118580592Y-111753330D01*
X118589731Y-112112786D01*
X118583477Y-112154941D01*
X118534651Y-112302288D01*
X118524500Y-112401647D01*
X118524500Y-112998337D01*
X118524501Y-112998355D01*
X118534650Y-113097707D01*
X118534651Y-113097710D01*
X118587996Y-113258694D01*
X118587999Y-113258701D01*
X118602620Y-113282404D01*
X118607236Y-113297929D01*
X118615133Y-113309555D01*
X118621042Y-113344351D01*
X118626047Y-113541230D01*
X118608072Y-113608748D01*
X118607627Y-113609475D01*
X118588002Y-113641293D01*
X118587996Y-113641305D01*
X118534651Y-113802290D01*
X118524500Y-113901647D01*
X118524500Y-114498337D01*
X118524501Y-114498355D01*
X118534650Y-114597707D01*
X118534651Y-114597710D01*
X118587998Y-114758700D01*
X118642395Y-114846889D01*
X118660817Y-114908835D01*
X118667184Y-115159252D01*
X118661610Y-115199293D01*
X118630914Y-115297801D01*
X118624500Y-115368386D01*
X118624500Y-116031613D01*
X118630913Y-116102192D01*
X118630913Y-116102194D01*
X118630914Y-116102196D01*
X118663034Y-116205276D01*
X118681524Y-116264611D01*
X118684601Y-116271448D01*
X118682450Y-116272415D01*
X118696725Y-116321237D01*
X118699940Y-116447643D01*
X118700000Y-116450000D01*
X119040382Y-117287864D01*
X119049500Y-117334533D01*
X119049500Y-124809369D01*
X119049501Y-124809378D01*
X119049863Y-124812740D01*
X119037460Y-124881500D01*
X118989852Y-124932639D01*
X118926574Y-124950000D01*
X116524000Y-124950000D01*
X116456961Y-124930315D01*
X116411206Y-124877511D01*
X116400000Y-124826000D01*
X116400000Y-110750501D01*
X116419685Y-110683462D01*
X116472489Y-110637707D01*
X116524000Y-110626501D01*
X118421182Y-110626501D01*
X118488221Y-110646186D01*
G37*
%TD.AperFunction*%
%TD*%
%TA.AperFunction,Conductor*%
%TO.N,/EFUSE IN*%
G36*
X132667539Y-107520185D02*
G01*
X132713294Y-107572989D01*
X132724500Y-107624500D01*
X132724500Y-108874676D01*
X132741417Y-108959719D01*
X132739428Y-108960114D01*
X132744500Y-108985600D01*
X132744500Y-109800000D01*
X132000000Y-109800000D01*
X132000000Y-107624500D01*
X132019685Y-107557461D01*
X132072489Y-107511706D01*
X132124000Y-107500500D01*
X132600500Y-107500500D01*
X132667539Y-107520185D01*
G37*
%TD.AperFunction*%
%TD*%
%TA.AperFunction,Conductor*%
%TO.N,GND*%
G36*
X134644992Y-104419685D02*
G01*
X134690747Y-104472489D01*
X134700000Y-104513456D01*
X134700000Y-105900000D01*
X131724000Y-105900000D01*
X131656961Y-105880315D01*
X131611206Y-105827511D01*
X131600000Y-105776000D01*
X131600000Y-104524000D01*
X131619685Y-104456961D01*
X131672489Y-104411206D01*
X131724000Y-104400000D01*
X134577953Y-104400000D01*
X134644992Y-104419685D01*
G37*
%TD.AperFunction*%
%TD*%
%TA.AperFunction,Conductor*%
%TO.N,GND*%
G36*
X120803261Y-108779350D02*
G01*
X120781772Y-108845833D01*
X120727751Y-108890145D01*
X120679306Y-108900000D01*
X114213611Y-108900000D01*
X114186712Y-108897047D01*
X111524286Y-108305397D01*
X111479676Y-108285654D01*
X109823836Y-107116825D01*
X109786167Y-107074310D01*
X109766155Y-107037146D01*
X109685120Y-106886652D01*
X120855557Y-106844340D01*
X120803261Y-108779350D01*
G37*
%TD.AperFunction*%
%TD*%
%TA.AperFunction,Conductor*%
%TO.N,GND*%
G36*
X106893327Y-138831338D02*
G01*
X106927517Y-138844091D01*
X106987127Y-138850500D01*
X107875500Y-138850499D01*
X107942539Y-138870183D01*
X107988294Y-138922987D01*
X107999500Y-138974499D01*
X107999500Y-139347869D01*
X107999501Y-139347876D01*
X108005908Y-139407481D01*
X108018659Y-139441669D01*
X108023642Y-139511361D01*
X108018659Y-139528331D01*
X108005908Y-139562518D01*
X107999501Y-139622116D01*
X107999500Y-139622135D01*
X107999500Y-140617870D01*
X107999501Y-140617876D01*
X108005908Y-140677481D01*
X108018659Y-140711669D01*
X108023642Y-140781361D01*
X108018659Y-140798331D01*
X108005908Y-140832518D01*
X107999501Y-140892116D01*
X107999500Y-140892135D01*
X107999500Y-141887870D01*
X107999501Y-141887876D01*
X108005908Y-141947481D01*
X108018659Y-141981669D01*
X108023642Y-142051361D01*
X108018659Y-142068331D01*
X108005908Y-142102518D01*
X108003942Y-142120808D01*
X107999501Y-142162123D01*
X107999500Y-142162135D01*
X107999500Y-143157870D01*
X107999501Y-143157876D01*
X108005908Y-143217481D01*
X108018659Y-143251669D01*
X108023642Y-143321361D01*
X108018659Y-143338331D01*
X108005908Y-143372518D01*
X108000753Y-143420470D01*
X107999501Y-143432123D01*
X107999500Y-143432135D01*
X107999500Y-144427870D01*
X107999501Y-144427876D01*
X108005908Y-144487481D01*
X108018659Y-144521669D01*
X108023642Y-144591361D01*
X108018659Y-144608331D01*
X108005908Y-144642518D01*
X107999501Y-144702116D01*
X107999501Y-144702123D01*
X107999500Y-144702135D01*
X107999500Y-145697870D01*
X107999501Y-145697876D01*
X108005908Y-145757481D01*
X108018659Y-145791669D01*
X108023642Y-145861361D01*
X108018659Y-145878331D01*
X108005908Y-145912518D01*
X107999501Y-145972116D01*
X107999501Y-145972123D01*
X107999500Y-145972135D01*
X107999500Y-146967870D01*
X107999501Y-146967876D01*
X108005908Y-147027481D01*
X108018659Y-147061669D01*
X108023642Y-147131361D01*
X108018659Y-147148331D01*
X108005908Y-147182518D01*
X108000296Y-147234723D01*
X107999501Y-147242123D01*
X107999500Y-147242135D01*
X107999500Y-148237870D01*
X107999501Y-148237876D01*
X108005908Y-148297481D01*
X108018659Y-148331669D01*
X108023642Y-148401361D01*
X108018659Y-148418331D01*
X108005908Y-148452518D01*
X108000962Y-148498526D01*
X107999501Y-148512123D01*
X107999500Y-148512135D01*
X107999500Y-149507870D01*
X107999501Y-149507876D01*
X108005908Y-149567481D01*
X108018659Y-149601669D01*
X108023642Y-149671361D01*
X108018659Y-149688331D01*
X108005908Y-149722518D01*
X107999501Y-149782116D01*
X107999501Y-149782123D01*
X107999500Y-149782135D01*
X107999500Y-150777870D01*
X107999501Y-150777876D01*
X108005908Y-150837481D01*
X108018659Y-150871669D01*
X108023642Y-150941361D01*
X108018659Y-150958331D01*
X108005908Y-150992518D01*
X107999501Y-151052116D01*
X107999501Y-151052123D01*
X107999500Y-151052135D01*
X107999500Y-152047870D01*
X107999501Y-152047876D01*
X108005908Y-152107481D01*
X108018659Y-152141669D01*
X108023642Y-152211361D01*
X108018659Y-152228331D01*
X108005908Y-152262518D01*
X107999501Y-152322116D01*
X107999501Y-152322123D01*
X107999500Y-152322135D01*
X107999500Y-153317870D01*
X107999501Y-153317876D01*
X108005908Y-153377481D01*
X108018659Y-153411669D01*
X108023642Y-153481361D01*
X108018659Y-153498331D01*
X108005908Y-153532518D01*
X107999501Y-153592116D01*
X107999501Y-153592123D01*
X107999500Y-153592135D01*
X107999500Y-154587870D01*
X107999501Y-154587876D01*
X108005908Y-154647483D01*
X108018925Y-154682381D01*
X108023909Y-154752072D01*
X108018925Y-154769047D01*
X108006403Y-154802619D01*
X108006401Y-154802627D01*
X108000000Y-154862155D01*
X108000000Y-155110000D01*
X110500000Y-155110000D01*
X110500000Y-154964500D01*
X110502550Y-154955814D01*
X110501262Y-154946853D01*
X110512240Y-154922812D01*
X110519685Y-154897461D01*
X110526525Y-154891533D01*
X110530287Y-154883297D01*
X110552521Y-154869007D01*
X110572489Y-154851706D01*
X110583003Y-154849418D01*
X110589065Y-154845523D01*
X110624000Y-154840500D01*
X110650500Y-154840500D01*
X110717539Y-154860185D01*
X110763294Y-154912989D01*
X110774500Y-154964499D01*
X110774500Y-155098336D01*
X110774501Y-155098355D01*
X110784650Y-155197707D01*
X110784651Y-155197710D01*
X110837996Y-155358694D01*
X110838001Y-155358705D01*
X110927029Y-155503040D01*
X110927032Y-155503044D01*
X111046955Y-155622967D01*
X111046959Y-155622970D01*
X111191294Y-155711998D01*
X111191297Y-155711999D01*
X111191303Y-155712003D01*
X111352292Y-155765349D01*
X111451655Y-155775500D01*
X111998344Y-155775499D01*
X111998352Y-155775498D01*
X111998355Y-155775498D01*
X112052760Y-155769940D01*
X112097708Y-155765349D01*
X112258697Y-155712003D01*
X112403044Y-155622968D01*
X112412319Y-155613693D01*
X112473642Y-155580208D01*
X112543334Y-155585192D01*
X112587681Y-155613693D01*
X112596955Y-155622967D01*
X112596959Y-155622970D01*
X112741294Y-155711998D01*
X112741297Y-155711999D01*
X112741303Y-155712003D01*
X112902292Y-155765349D01*
X113001655Y-155775500D01*
X113548344Y-155775499D01*
X113548352Y-155775498D01*
X113548355Y-155775498D01*
X113602760Y-155769940D01*
X113647708Y-155765349D01*
X113808697Y-155712003D01*
X113953044Y-155622968D01*
X113989193Y-155586819D01*
X114050516Y-155553334D01*
X114076874Y-155550500D01*
X117837770Y-155550500D01*
X117904809Y-155570185D01*
X117925451Y-155586819D01*
X118253927Y-155915295D01*
X118254456Y-155916010D01*
X118254856Y-155916234D01*
X118256791Y-155919164D01*
X118275705Y-155944712D01*
X118278519Y-155949998D01*
X118290606Y-155979179D01*
X118307548Y-156004535D01*
X118310459Y-156010003D01*
X118316319Y-156038393D01*
X118324980Y-156066052D01*
X118325000Y-156068267D01*
X118325000Y-156375500D01*
X118305315Y-156442539D01*
X118252511Y-156488294D01*
X118201000Y-156499500D01*
X110269430Y-156499500D01*
X110202391Y-156479815D01*
X110156636Y-156427011D01*
X110146692Y-156357853D01*
X110175717Y-156294297D01*
X110226097Y-156259318D01*
X110242086Y-156253354D01*
X110242093Y-156253350D01*
X110357187Y-156167190D01*
X110357190Y-156167187D01*
X110443350Y-156052093D01*
X110443354Y-156052086D01*
X110493596Y-155917379D01*
X110493598Y-155917372D01*
X110499999Y-155857844D01*
X110500000Y-155857827D01*
X110500000Y-155610000D01*
X108000000Y-155610000D01*
X108000000Y-155857844D01*
X108006401Y-155917372D01*
X108006403Y-155917379D01*
X108056645Y-156052086D01*
X108056649Y-156052093D01*
X108142809Y-156167187D01*
X108142812Y-156167190D01*
X108257906Y-156253350D01*
X108257913Y-156253354D01*
X108273903Y-156259318D01*
X108329837Y-156301189D01*
X108354254Y-156366653D01*
X108339403Y-156434926D01*
X108289998Y-156484332D01*
X108230570Y-156499500D01*
X92769430Y-156499500D01*
X92702391Y-156479815D01*
X92656636Y-156427011D01*
X92646692Y-156357853D01*
X92675717Y-156294297D01*
X92726097Y-156259318D01*
X92742086Y-156253354D01*
X92742093Y-156253350D01*
X92857187Y-156167190D01*
X92857190Y-156167187D01*
X92943350Y-156052093D01*
X92943354Y-156052086D01*
X92993596Y-155917379D01*
X92993598Y-155917372D01*
X92999999Y-155857844D01*
X93000000Y-155857827D01*
X93000000Y-155610000D01*
X90491372Y-155610000D01*
X90477991Y-155622020D01*
X90463613Y-155624349D01*
X90450830Y-155631330D01*
X90429814Y-155629826D01*
X90409021Y-155633196D01*
X90395667Y-155627383D01*
X90381138Y-155626344D01*
X90364273Y-155613718D01*
X90344957Y-155605311D01*
X90328357Y-155586831D01*
X90325205Y-155584471D01*
X90321372Y-155579054D01*
X90272897Y-155506507D01*
X90264787Y-155492460D01*
X90158855Y-155277652D01*
X90156294Y-155272458D01*
X90150090Y-155257479D01*
X90071243Y-155025202D01*
X90067045Y-155009535D01*
X90043573Y-154891533D01*
X90019190Y-154768953D01*
X90017075Y-154752895D01*
X90000765Y-154504043D01*
X90000500Y-154495933D01*
X90000500Y-152086554D01*
X90020185Y-152019515D01*
X90072989Y-151973760D01*
X90142147Y-151963816D01*
X90150415Y-151965292D01*
X90161481Y-151967656D01*
X90166503Y-151969737D01*
X90234533Y-151983268D01*
X90235302Y-151983433D01*
X90265266Y-151999653D01*
X90295488Y-152015461D01*
X90296736Y-152016688D01*
X90296747Y-152016694D01*
X90296752Y-152016703D01*
X90297069Y-152017015D01*
X90335326Y-152055272D01*
X90335328Y-152055275D01*
X90413465Y-152107484D01*
X90413464Y-152107484D01*
X90441868Y-152126462D01*
X90441870Y-152126463D01*
X90441873Y-152126465D01*
X90441875Y-152126466D01*
X90443097Y-152127119D01*
X90443619Y-152127632D01*
X90446937Y-152129849D01*
X90446516Y-152130478D01*
X90492943Y-152176080D01*
X90508405Y-152244217D01*
X90506482Y-152257185D01*
X90505909Y-152262517D01*
X90499501Y-152322123D01*
X90499500Y-152322135D01*
X90499500Y-153317870D01*
X90499501Y-153317876D01*
X90505908Y-153377481D01*
X90518659Y-153411669D01*
X90523642Y-153481361D01*
X90518659Y-153498331D01*
X90505908Y-153532518D01*
X90499501Y-153592116D01*
X90499501Y-153592123D01*
X90499500Y-153592135D01*
X90499500Y-154587870D01*
X90499501Y-154587876D01*
X90505908Y-154647483D01*
X90518925Y-154682381D01*
X90523909Y-154752072D01*
X90518925Y-154769047D01*
X90506403Y-154802619D01*
X90506401Y-154802627D01*
X90500000Y-154862155D01*
X90500000Y-155110000D01*
X93000000Y-155110000D01*
X93000000Y-154862172D01*
X92999999Y-154862155D01*
X92993597Y-154802622D01*
X92993597Y-154802620D01*
X92981075Y-154769048D01*
X92976089Y-154699356D01*
X92981071Y-154682390D01*
X92994091Y-154647483D01*
X93000500Y-154587873D01*
X93000499Y-153592128D01*
X92994091Y-153532517D01*
X92981340Y-153498332D01*
X92976357Y-153428642D01*
X92981340Y-153411669D01*
X92994091Y-153377483D01*
X93000500Y-153317873D01*
X93000499Y-152322128D01*
X92994091Y-152262517D01*
X92981340Y-152228332D01*
X92976357Y-152158642D01*
X92981340Y-152141669D01*
X92994091Y-152107483D01*
X93000500Y-152047873D01*
X93000499Y-151052128D01*
X92994091Y-150992517D01*
X92981340Y-150958332D01*
X92976357Y-150888642D01*
X92981340Y-150871669D01*
X92994091Y-150837483D01*
X93000500Y-150777873D01*
X93000499Y-149782128D01*
X92994091Y-149722517D01*
X92981340Y-149688332D01*
X92976357Y-149618642D01*
X92981340Y-149601669D01*
X92994091Y-149567483D01*
X92997278Y-149537844D01*
X99650000Y-149537844D01*
X99656401Y-149597372D01*
X99656403Y-149597379D01*
X99706645Y-149732086D01*
X99706649Y-149732093D01*
X99792809Y-149847187D01*
X99792812Y-149847190D01*
X99907906Y-149933350D01*
X99907913Y-149933354D01*
X100042620Y-149983596D01*
X100042627Y-149983598D01*
X100102155Y-149989999D01*
X100102172Y-149990000D01*
X100350000Y-149990000D01*
X100850000Y-149990000D01*
X101097828Y-149990000D01*
X101097844Y-149989999D01*
X101157372Y-149983598D01*
X101157376Y-149983597D01*
X101256666Y-149946564D01*
X101326358Y-149941580D01*
X101343334Y-149946564D01*
X101442623Y-149983597D01*
X101442627Y-149983598D01*
X101502155Y-149989999D01*
X101502172Y-149990000D01*
X101750000Y-149990000D01*
X102250000Y-149990000D01*
X102497828Y-149990000D01*
X102497844Y-149989999D01*
X102557372Y-149983598D01*
X102557376Y-149983597D01*
X102656666Y-149946564D01*
X102726358Y-149941580D01*
X102743334Y-149946564D01*
X102842623Y-149983597D01*
X102842627Y-149983598D01*
X102902155Y-149989999D01*
X102902172Y-149990000D01*
X103150000Y-149990000D01*
X103650000Y-149990000D01*
X103897828Y-149990000D01*
X103897844Y-149989999D01*
X103957372Y-149983598D01*
X103957379Y-149983596D01*
X104092086Y-149933354D01*
X104092093Y-149933350D01*
X104207187Y-149847190D01*
X104207190Y-149847187D01*
X104293350Y-149732093D01*
X104293354Y-149732086D01*
X104343596Y-149597379D01*
X104343598Y-149597372D01*
X104349999Y-149537844D01*
X104350000Y-149537827D01*
X104350000Y-149290000D01*
X103650000Y-149290000D01*
X103650000Y-149990000D01*
X103150000Y-149990000D01*
X103150000Y-149290000D01*
X102250000Y-149290000D01*
X102250000Y-149990000D01*
X101750000Y-149990000D01*
X101750000Y-149290000D01*
X100850000Y-149290000D01*
X100850000Y-149990000D01*
X100350000Y-149990000D01*
X100350000Y-149290000D01*
X99650000Y-149290000D01*
X99650000Y-149537844D01*
X92997278Y-149537844D01*
X93000500Y-149507873D01*
X93000499Y-149002392D01*
X93000499Y-148512129D01*
X93000498Y-148512123D01*
X93000497Y-148512116D01*
X92994091Y-148452517D01*
X92981340Y-148418332D01*
X92976357Y-148348642D01*
X92981340Y-148331669D01*
X92994091Y-148297483D01*
X93000500Y-148237873D01*
X93000500Y-148137844D01*
X99650000Y-148137844D01*
X99656401Y-148197372D01*
X99656403Y-148197383D01*
X99693434Y-148296668D01*
X99698418Y-148366360D01*
X99693434Y-148383332D01*
X99656403Y-148482616D01*
X99656401Y-148482627D01*
X99650000Y-148542155D01*
X99650000Y-148790000D01*
X100350000Y-148790000D01*
X100850000Y-148790000D01*
X101750000Y-148790000D01*
X102250000Y-148790000D01*
X103150000Y-148790000D01*
X103650000Y-148790000D01*
X104350000Y-148790000D01*
X104350000Y-148542172D01*
X104349999Y-148542155D01*
X104343598Y-148482627D01*
X104343597Y-148482623D01*
X104306564Y-148383334D01*
X104301580Y-148313642D01*
X104306564Y-148296666D01*
X104343597Y-148197376D01*
X104343598Y-148197372D01*
X104349999Y-148137844D01*
X104350000Y-148137827D01*
X104350000Y-147890000D01*
X103650000Y-147890000D01*
X103650000Y-148790000D01*
X103150000Y-148790000D01*
X103150000Y-147890000D01*
X102250000Y-147890000D01*
X102250000Y-148790000D01*
X101750000Y-148790000D01*
X101750000Y-147890000D01*
X100850000Y-147890000D01*
X100850000Y-148790000D01*
X100350000Y-148790000D01*
X100350000Y-147890000D01*
X99650000Y-147890000D01*
X99650000Y-148137844D01*
X93000500Y-148137844D01*
X93000499Y-147737483D01*
X93000499Y-147242129D01*
X93000498Y-147242123D01*
X93000497Y-147242116D01*
X92994091Y-147182517D01*
X92981340Y-147148332D01*
X92976357Y-147078642D01*
X92981340Y-147061669D01*
X92994091Y-147027483D01*
X93000500Y-146967873D01*
X93000500Y-146737844D01*
X99650000Y-146737844D01*
X99656401Y-146797372D01*
X99656403Y-146797383D01*
X99693434Y-146896668D01*
X99698418Y-146966360D01*
X99693434Y-146983332D01*
X99656403Y-147082616D01*
X99656401Y-147082627D01*
X99650000Y-147142155D01*
X99650000Y-147390000D01*
X100350000Y-147390000D01*
X100850000Y-147390000D01*
X101750000Y-147390000D01*
X102250000Y-147390000D01*
X103150000Y-147390000D01*
X103650000Y-147390000D01*
X104350000Y-147390000D01*
X104350000Y-147142172D01*
X104349999Y-147142155D01*
X104343598Y-147082627D01*
X104343597Y-147082623D01*
X104306564Y-146983334D01*
X104301580Y-146913642D01*
X104306564Y-146896666D01*
X104343597Y-146797376D01*
X104343598Y-146797372D01*
X104349999Y-146737844D01*
X104350000Y-146737827D01*
X104350000Y-146490000D01*
X103650000Y-146490000D01*
X103650000Y-147390000D01*
X103150000Y-147390000D01*
X103150000Y-146490000D01*
X102250000Y-146490000D01*
X102250000Y-147390000D01*
X101750000Y-147390000D01*
X101750000Y-146490000D01*
X100850000Y-146490000D01*
X100850000Y-147390000D01*
X100350000Y-147390000D01*
X100350000Y-146490000D01*
X99650000Y-146490000D01*
X99650000Y-146737844D01*
X93000500Y-146737844D01*
X93000499Y-145972128D01*
X92994091Y-145912517D01*
X92981340Y-145878332D01*
X92979967Y-145859133D01*
X92973666Y-145840948D01*
X92977093Y-145818939D01*
X92976357Y-145808642D01*
X92977007Y-145805813D01*
X92978750Y-145798611D01*
X92994091Y-145757483D01*
X92995739Y-145742155D01*
X99650000Y-145742155D01*
X99650000Y-145990000D01*
X100350000Y-145990000D01*
X100850000Y-145990000D01*
X101750000Y-145990000D01*
X102250000Y-145990000D01*
X103150000Y-145990000D01*
X103650000Y-145990000D01*
X104350000Y-145990000D01*
X104350000Y-145742172D01*
X104349999Y-145742155D01*
X104343598Y-145682627D01*
X104343596Y-145682620D01*
X104293354Y-145547913D01*
X104293350Y-145547906D01*
X104207190Y-145432812D01*
X104207187Y-145432809D01*
X104092093Y-145346649D01*
X104092086Y-145346645D01*
X103957379Y-145296403D01*
X103957372Y-145296401D01*
X103897844Y-145290000D01*
X103650000Y-145290000D01*
X103650000Y-145990000D01*
X103150000Y-145990000D01*
X103150000Y-145290000D01*
X102902155Y-145290000D01*
X102842627Y-145296401D01*
X102842616Y-145296403D01*
X102743332Y-145333434D01*
X102673640Y-145338418D01*
X102656668Y-145333434D01*
X102557383Y-145296403D01*
X102557372Y-145296401D01*
X102497844Y-145290000D01*
X102250000Y-145290000D01*
X102250000Y-145990000D01*
X101750000Y-145990000D01*
X101750000Y-145290000D01*
X101502155Y-145290000D01*
X101442627Y-145296401D01*
X101442616Y-145296403D01*
X101343332Y-145333434D01*
X101273640Y-145338418D01*
X101256668Y-145333434D01*
X101157383Y-145296403D01*
X101157372Y-145296401D01*
X101097844Y-145290000D01*
X100850000Y-145290000D01*
X100850000Y-145990000D01*
X100350000Y-145990000D01*
X100350000Y-145290000D01*
X100102155Y-145290000D01*
X100042627Y-145296401D01*
X100042620Y-145296403D01*
X99907913Y-145346645D01*
X99907906Y-145346649D01*
X99792812Y-145432809D01*
X99792809Y-145432812D01*
X99706649Y-145547906D01*
X99706645Y-145547913D01*
X99656403Y-145682620D01*
X99656401Y-145682627D01*
X99650000Y-145742155D01*
X92995739Y-145742155D01*
X93000500Y-145697873D01*
X93000499Y-144702128D01*
X92994091Y-144642517D01*
X92981340Y-144608332D01*
X92976357Y-144538642D01*
X92981340Y-144521669D01*
X92994091Y-144487483D01*
X93000500Y-144427873D01*
X93000499Y-143432128D01*
X92994091Y-143372517D01*
X92981340Y-143338332D01*
X92976357Y-143268642D01*
X92981340Y-143251669D01*
X92994091Y-143217483D01*
X93000500Y-143157873D01*
X93000499Y-142162128D01*
X92994091Y-142102517D01*
X92981340Y-142068332D01*
X92976357Y-141998642D01*
X92981340Y-141981669D01*
X92994091Y-141947483D01*
X93000500Y-141887873D01*
X93000499Y-141017846D01*
X93020183Y-140950808D01*
X93072987Y-140905053D01*
X93100307Y-140896230D01*
X93233497Y-140869737D01*
X93379179Y-140809394D01*
X93510289Y-140721789D01*
X93621789Y-140610289D01*
X93709394Y-140479179D01*
X93769737Y-140333497D01*
X93800500Y-140178842D01*
X93800500Y-140021158D01*
X93800500Y-140021155D01*
X93800499Y-140021153D01*
X93769738Y-139866510D01*
X93769737Y-139866503D01*
X93769735Y-139866498D01*
X93709397Y-139720827D01*
X93709390Y-139720814D01*
X93621789Y-139589711D01*
X93621786Y-139589707D01*
X93510292Y-139478213D01*
X93510288Y-139478210D01*
X93379185Y-139390609D01*
X93379172Y-139390602D01*
X93233501Y-139330264D01*
X93233491Y-139330261D01*
X93100307Y-139303769D01*
X93072176Y-139289054D01*
X93043296Y-139275865D01*
X93041439Y-139272975D01*
X93038396Y-139271384D01*
X93022683Y-139243791D01*
X93005522Y-139217087D01*
X93004861Y-139212493D01*
X93003822Y-139210668D01*
X93000499Y-139182158D01*
X93000499Y-138974498D01*
X93020184Y-138907460D01*
X93072988Y-138861705D01*
X93124494Y-138850499D01*
X94012872Y-138850499D01*
X94072483Y-138844091D01*
X94106667Y-138831340D01*
X94176358Y-138826357D01*
X94193327Y-138831338D01*
X94227517Y-138844091D01*
X94287127Y-138850500D01*
X95282872Y-138850499D01*
X95342483Y-138844091D01*
X95376667Y-138831340D01*
X95446358Y-138826357D01*
X95463327Y-138831338D01*
X95497517Y-138844091D01*
X95557127Y-138850500D01*
X96552872Y-138850499D01*
X96612483Y-138844091D01*
X96646667Y-138831340D01*
X96716358Y-138826357D01*
X96733327Y-138831338D01*
X96767517Y-138844091D01*
X96827127Y-138850500D01*
X97822872Y-138850499D01*
X97882483Y-138844091D01*
X97916667Y-138831340D01*
X97986358Y-138826357D01*
X98003327Y-138831338D01*
X98037517Y-138844091D01*
X98097127Y-138850500D01*
X99092872Y-138850499D01*
X99152483Y-138844091D01*
X99186667Y-138831340D01*
X99256358Y-138826357D01*
X99273327Y-138831338D01*
X99307517Y-138844091D01*
X99367127Y-138850500D01*
X100362872Y-138850499D01*
X100422483Y-138844091D01*
X100456667Y-138831340D01*
X100526358Y-138826357D01*
X100543327Y-138831338D01*
X100577517Y-138844091D01*
X100637127Y-138850500D01*
X101632872Y-138850499D01*
X101692483Y-138844091D01*
X101726667Y-138831340D01*
X101796358Y-138826357D01*
X101813327Y-138831338D01*
X101847517Y-138844091D01*
X101907127Y-138850500D01*
X102902872Y-138850499D01*
X102962483Y-138844091D01*
X102996667Y-138831340D01*
X103066358Y-138826357D01*
X103083327Y-138831338D01*
X103117517Y-138844091D01*
X103177127Y-138850500D01*
X104172872Y-138850499D01*
X104232483Y-138844091D01*
X104266667Y-138831340D01*
X104336358Y-138826357D01*
X104353327Y-138831338D01*
X104387517Y-138844091D01*
X104447127Y-138850500D01*
X105442872Y-138850499D01*
X105502483Y-138844091D01*
X105536667Y-138831340D01*
X105606358Y-138826357D01*
X105623327Y-138831338D01*
X105657517Y-138844091D01*
X105717127Y-138850500D01*
X106712872Y-138850499D01*
X106772483Y-138844091D01*
X106806667Y-138831340D01*
X106876358Y-138826357D01*
X106893327Y-138831338D01*
G37*
%TD.AperFunction*%
%TA.AperFunction,Conductor*%
G36*
X118268039Y-136069685D02*
G01*
X118313794Y-136122489D01*
X118325000Y-136174000D01*
X118325000Y-138303851D01*
X118305315Y-138370890D01*
X118296860Y-138382507D01*
X118293729Y-138386321D01*
X118224631Y-138489737D01*
X118224627Y-138489743D01*
X118222535Y-138492873D01*
X118222533Y-138492875D01*
X118173499Y-138611255D01*
X118173497Y-138611261D01*
X118148500Y-138736928D01*
X118148500Y-148410845D01*
X118128815Y-148477884D01*
X118112181Y-148498526D01*
X116242638Y-150368068D01*
X116223851Y-150383487D01*
X116205543Y-150395720D01*
X116205537Y-150395725D01*
X115907082Y-150694181D01*
X115845759Y-150727666D01*
X115819401Y-150730500D01*
X112711154Y-150730500D01*
X112681713Y-150721855D01*
X112651727Y-150715332D01*
X112646711Y-150711577D01*
X112644115Y-150710815D01*
X112623473Y-150694181D01*
X112535819Y-150606527D01*
X112502334Y-150545204D01*
X112499500Y-150518846D01*
X112499500Y-149393808D01*
X112519185Y-149326769D01*
X112571989Y-149281014D01*
X112641147Y-149271070D01*
X112704703Y-149300095D01*
X112711181Y-149306127D01*
X112738181Y-149333127D01*
X112771666Y-149394450D01*
X112774500Y-149420808D01*
X112774500Y-149698336D01*
X112774501Y-149698355D01*
X112784650Y-149797707D01*
X112784651Y-149797710D01*
X112837996Y-149958694D01*
X112838001Y-149958705D01*
X112927029Y-150103040D01*
X112927032Y-150103044D01*
X113046955Y-150222967D01*
X113046959Y-150222970D01*
X113191294Y-150311998D01*
X113191297Y-150311999D01*
X113191303Y-150312003D01*
X113352292Y-150365349D01*
X113451655Y-150375500D01*
X113998344Y-150375499D01*
X113998352Y-150375498D01*
X113998355Y-150375498D01*
X114071090Y-150368068D01*
X114097708Y-150365349D01*
X114258697Y-150312003D01*
X114403044Y-150222968D01*
X114412668Y-150213343D01*
X114473987Y-150179856D01*
X114543679Y-150184835D01*
X114588034Y-150213339D01*
X114597267Y-150222572D01*
X114597271Y-150222575D01*
X114741507Y-150311542D01*
X114741518Y-150311547D01*
X114902393Y-150364855D01*
X115001683Y-150374999D01*
X115525000Y-150374999D01*
X115548308Y-150374999D01*
X115548322Y-150374998D01*
X115647607Y-150364855D01*
X115808481Y-150311547D01*
X115808492Y-150311542D01*
X115952728Y-150222575D01*
X115952732Y-150222572D01*
X116072572Y-150102732D01*
X116072575Y-150102728D01*
X116161542Y-149958492D01*
X116161547Y-149958481D01*
X116214855Y-149797606D01*
X116224999Y-149698322D01*
X116225000Y-149698309D01*
X116225000Y-149650000D01*
X115525000Y-149650000D01*
X115525000Y-150374999D01*
X115001683Y-150374999D01*
X115025000Y-150374998D01*
X115025000Y-149524000D01*
X115044685Y-149456961D01*
X115097489Y-149411206D01*
X115149000Y-149400000D01*
X115275000Y-149400000D01*
X115275000Y-149274000D01*
X115294685Y-149206961D01*
X115347489Y-149161206D01*
X115399000Y-149150000D01*
X116224999Y-149150000D01*
X116224999Y-149101692D01*
X116224998Y-149101677D01*
X116214855Y-149002392D01*
X116161547Y-148841518D01*
X116161542Y-148841507D01*
X116072575Y-148697271D01*
X116072572Y-148697267D01*
X115952732Y-148577427D01*
X115952728Y-148577424D01*
X115808492Y-148488457D01*
X115808483Y-148488453D01*
X115670806Y-148442831D01*
X115669991Y-148442267D01*
X115669004Y-148442218D01*
X115641334Y-148422425D01*
X115613362Y-148403058D01*
X115612982Y-148402144D01*
X115612176Y-148401568D01*
X115599594Y-148369943D01*
X115586539Y-148338542D01*
X115586592Y-148337263D01*
X115586348Y-148336648D01*
X115587804Y-148308471D01*
X115588102Y-148301397D01*
X115600500Y-148239069D01*
X115600500Y-148237803D01*
X115601871Y-148230771D01*
X115615357Y-148204747D01*
X115626327Y-148177571D01*
X115631246Y-148174088D01*
X115634020Y-148168737D01*
X115659433Y-148154137D01*
X115683356Y-148137204D01*
X115691178Y-148135900D01*
X115694604Y-148133932D01*
X115701057Y-148134253D01*
X115723580Y-148130499D01*
X115947871Y-148130499D01*
X115947872Y-148130499D01*
X116007483Y-148124091D01*
X116142331Y-148073796D01*
X116257546Y-147987546D01*
X116343796Y-147872331D01*
X116394091Y-147737483D01*
X116400500Y-147677873D01*
X116400499Y-146482128D01*
X116394091Y-146422517D01*
X116343796Y-146287669D01*
X116343795Y-146287668D01*
X116343793Y-146287664D01*
X116257547Y-146172455D01*
X116257544Y-146172452D01*
X116142335Y-146086206D01*
X116142328Y-146086202D01*
X116007482Y-146035908D01*
X116007483Y-146035908D01*
X115947883Y-146029501D01*
X115947881Y-146029500D01*
X115947873Y-146029500D01*
X115947864Y-146029500D01*
X113952129Y-146029500D01*
X113952123Y-146029501D01*
X113892516Y-146035908D01*
X113757671Y-146086202D01*
X113757664Y-146086206D01*
X113642455Y-146172452D01*
X113642452Y-146172455D01*
X113556206Y-146287664D01*
X113556202Y-146287671D01*
X113505908Y-146422517D01*
X113499501Y-146482116D01*
X113499501Y-146482123D01*
X113499500Y-146482135D01*
X113499500Y-147677870D01*
X113499501Y-147677876D01*
X113505908Y-147737483D01*
X113556202Y-147872328D01*
X113556206Y-147872335D01*
X113642452Y-147987544D01*
X113642455Y-147987547D01*
X113757664Y-148073793D01*
X113757671Y-148073797D01*
X113848986Y-148107855D01*
X113904920Y-148149726D01*
X113929337Y-148215190D01*
X113914486Y-148283463D01*
X113893335Y-148311718D01*
X113816870Y-148388182D01*
X113755550Y-148421666D01*
X113729191Y-148424500D01*
X113720808Y-148424500D01*
X113696863Y-148417469D01*
X113685858Y-148416682D01*
X113680484Y-148412659D01*
X113653769Y-148404815D01*
X113633127Y-148388181D01*
X111209674Y-145964727D01*
X111209670Y-145964724D01*
X111209669Y-145964723D01*
X111184825Y-145948123D01*
X111140022Y-145894511D01*
X111131315Y-145825186D01*
X111161470Y-145762159D01*
X111184822Y-145741923D01*
X111239669Y-145705277D01*
X113633127Y-143311817D01*
X113660054Y-143297114D01*
X113685873Y-143280522D01*
X113692073Y-143279630D01*
X113694450Y-143278333D01*
X113720808Y-143275499D01*
X113729191Y-143275499D01*
X113796230Y-143295184D01*
X113816872Y-143311818D01*
X113864201Y-143359147D01*
X113897686Y-143420470D01*
X113892702Y-143490162D01*
X113850830Y-143546095D01*
X113819854Y-143563010D01*
X113757669Y-143586203D01*
X113757664Y-143586206D01*
X113642455Y-143672452D01*
X113642452Y-143672455D01*
X113556206Y-143787664D01*
X113556202Y-143787671D01*
X113505908Y-143922517D01*
X113499501Y-143982116D01*
X113499501Y-143982123D01*
X113499500Y-143982135D01*
X113499500Y-145177870D01*
X113499501Y-145177876D01*
X113505908Y-145237483D01*
X113556202Y-145372328D01*
X113556206Y-145372335D01*
X113642452Y-145487544D01*
X113642455Y-145487547D01*
X113757664Y-145573793D01*
X113757671Y-145573797D01*
X113892517Y-145624091D01*
X113892516Y-145624091D01*
X113899444Y-145624835D01*
X113952127Y-145630500D01*
X115947872Y-145630499D01*
X116007483Y-145624091D01*
X116142331Y-145573796D01*
X116257546Y-145487546D01*
X116343796Y-145372331D01*
X116394091Y-145237483D01*
X116400500Y-145177873D01*
X116400499Y-143982128D01*
X116394091Y-143922517D01*
X116343796Y-143787669D01*
X116343795Y-143787668D01*
X116343793Y-143787664D01*
X116257547Y-143672455D01*
X116257544Y-143672452D01*
X116142335Y-143586206D01*
X116142328Y-143586202D01*
X116007482Y-143535908D01*
X116007483Y-143535908D01*
X115947883Y-143529501D01*
X115947881Y-143529500D01*
X115947873Y-143529500D01*
X115947865Y-143529500D01*
X115715903Y-143529500D01*
X115685441Y-143520555D01*
X115654543Y-143513254D01*
X115652157Y-143510782D01*
X115648864Y-143509815D01*
X115628078Y-143485826D01*
X115606028Y-143462975D01*
X115604483Y-143458597D01*
X115603109Y-143457011D01*
X115594286Y-143429692D01*
X115588194Y-143399066D01*
X115594421Y-143329474D01*
X115637284Y-143274297D01*
X115670807Y-143257168D01*
X115808481Y-143211547D01*
X115808492Y-143211542D01*
X115952728Y-143122575D01*
X115952732Y-143122572D01*
X116072572Y-143002732D01*
X116072575Y-143002728D01*
X116161542Y-142858492D01*
X116161547Y-142858481D01*
X116214855Y-142697606D01*
X116224999Y-142598322D01*
X116225000Y-142598309D01*
X116225000Y-142550000D01*
X115399000Y-142550000D01*
X115331961Y-142530315D01*
X115286206Y-142477511D01*
X115275000Y-142426000D01*
X115275000Y-142300000D01*
X115149000Y-142300000D01*
X115081961Y-142280315D01*
X115036206Y-142227511D01*
X115025000Y-142176000D01*
X115025000Y-142050000D01*
X115525000Y-142050000D01*
X116224999Y-142050000D01*
X116224999Y-142001692D01*
X116224998Y-142001677D01*
X116214855Y-141902392D01*
X116161547Y-141741518D01*
X116161542Y-141741507D01*
X116072575Y-141597271D01*
X116072572Y-141597267D01*
X115952732Y-141477427D01*
X115952728Y-141477424D01*
X115808492Y-141388457D01*
X115808481Y-141388452D01*
X115647606Y-141335144D01*
X115548322Y-141325000D01*
X115525000Y-141325000D01*
X115525000Y-142050000D01*
X115025000Y-142050000D01*
X115025000Y-141324999D01*
X115001693Y-141325000D01*
X115001674Y-141325001D01*
X114902392Y-141335144D01*
X114741518Y-141388452D01*
X114741507Y-141388457D01*
X114597271Y-141477424D01*
X114597265Y-141477428D01*
X114588031Y-141486663D01*
X114526707Y-141520146D01*
X114457015Y-141515159D01*
X114412672Y-141486660D01*
X114403044Y-141477032D01*
X114403040Y-141477029D01*
X114258705Y-141388001D01*
X114258699Y-141387998D01*
X114258697Y-141387997D01*
X114258694Y-141387996D01*
X114097709Y-141334651D01*
X113998346Y-141324500D01*
X113451662Y-141324500D01*
X113451644Y-141324501D01*
X113352292Y-141334650D01*
X113352289Y-141334651D01*
X113191305Y-141387996D01*
X113191294Y-141388001D01*
X113046959Y-141477029D01*
X113046955Y-141477032D01*
X112927032Y-141596955D01*
X112927029Y-141596959D01*
X112838001Y-141741294D01*
X112837996Y-141741305D01*
X112784651Y-141902290D01*
X112774500Y-142001647D01*
X112774500Y-142279191D01*
X112754815Y-142346230D01*
X112738181Y-142366872D01*
X110712180Y-144392873D01*
X110692743Y-144403485D01*
X110676010Y-144417986D01*
X110662678Y-144419902D01*
X110650857Y-144426358D01*
X110628770Y-144424778D01*
X110606852Y-144427930D01*
X110594600Y-144422334D01*
X110581165Y-144421374D01*
X110563438Y-144408103D01*
X110543296Y-144398905D01*
X110536013Y-144387573D01*
X110525232Y-144379502D01*
X110517494Y-144358756D01*
X110505522Y-144340127D01*
X110502370Y-144318208D01*
X110500815Y-144314038D01*
X110500499Y-144305192D01*
X110500499Y-144260807D01*
X110520184Y-144193768D01*
X110536813Y-144173131D01*
X111575276Y-143134670D01*
X111646465Y-143028127D01*
X111695501Y-142909744D01*
X111697539Y-142899499D01*
X111720500Y-142784069D01*
X111720500Y-142120808D01*
X111740185Y-142053769D01*
X111756819Y-142033127D01*
X115505271Y-138284675D01*
X115505276Y-138284670D01*
X115576465Y-138178127D01*
X115625501Y-138059744D01*
X115636740Y-138003243D01*
X115650500Y-137934069D01*
X115650500Y-136174000D01*
X115670185Y-136106961D01*
X115722989Y-136061206D01*
X115774500Y-136050000D01*
X118201000Y-136050000D01*
X118268039Y-136069685D01*
G37*
%TD.AperFunction*%
%TD*%
M02*
