<?xml version="1.0" standalone="no"?>
<!DOCTYPE svg PUBLIC "-//W3C//DTD SVG 20010904//EN"
 "http://www.w3.org/TR/2001/REC-SVG-20010904/DTD/svg10.dtd">
<svg version="1.0" xmlns="http://www.w3.org/2000/svg"
 width="300.000000pt" height="310.000000pt" viewBox="0 0 300.000000 310.000000"
 preserveAspectRatio="xMidYMid meet">
<metadata>
Created by potrace 1.10, written by Peter Selinger 2001-2011
</metadata>
<g transform="translate(0.000000,310.000000) scale(0.050000,-0.050000)"
fill="#000000" stroke="none">
<path d="M1421 6146 c2 -57 35 -156 38 -111 0 14 11 25 22 25 12 0 16 -8 10
-19 -6 -10 -2 -24 9 -31 11 -7 15 -22 8 -33 -6 -11 5 -32 25 -48 20 -15 28
-28 17 -29 -11 0 -6 -9 10 -20 20 -13 22 -19 5 -20 -14 0 -25 -10 -25 -21 0
-12 9 -16 20 -9 11 7 20 3 20 -9 0 -11 8 -21 18 -21 45 0 18 215 -30 241 -27
14 -48 33 -48 42 0 25 28 21 57 -8 17 -17 16 -4 -4 45 -40 97 -154 116 -152
26z"/>
<path d="M1810 6167 c21 -21 29 -50 21 -81 -11 -42 -8 -45 16 -22 16 14 25 30
21 34 -4 5 2 20 14 34 30 37 5 68 -55 68 -46 0 -47 -2 -17 -33z"/>
<path d="M3132 6168 c-24 -62 -15 -95 18 -68 33 28 39 72 12 89 -10 6 -23 -3
-30 -21z"/>
<path d="M3287 6140 c1 -33 7 -60 13 -60 57 2 81 120 24 120 -31 0 -39 -13
-37 -60z"/>
<path d="M3467 6075 c6 -69 11 -136 12 -150 0 -14 19 -25 41 -25 36 0 40 13
40 150 0 148 -1 150 -51 150 -51 0 -51 -2 -42 -125z"/>
<path d="M3766 5998 c19 -325 32 -312 185 177 5 18 -22 25 -95 25 l-102 0 12
-202z"/>
<path d="M3977 6170 c-2 -16 -4 -41 -5 -55 -1 -13 21 -24 48 -25 45 0 49 -7
43 -70 -8 -83 -34 -120 -84 -120 -20 0 -44 11 -52 25 -10 16 -28 -16 -49 -85
-26 -87 -42 -109 -71 -105 -35 6 -35 5 -2 -15 19 -12 35 -31 35 -41 0 -35 -70
-19 -96 22 -14 22 -48 49 -76 60 -28 10 -45 27 -39 37 9 16 -30 36 -134 69
-19 7 -35 2 -35 -10 0 -15 -8 -15 -27 1 -16 12 -42 17 -58 11 -17 -6 -81 21
-144 61 -108 70 -118 72 -242 59 -73 -7 -129 -5 -129 5 0 22 -196 15 -288 -11
-37 -10 -90 -14 -117 -9 -28 6 -57 -1 -66 -15 -10 -17 -7 -20 11 -9 17 11 21
8 12 -7 -8 -13 -23 -19 -33 -12 -10 6 -59 -3 -109 -20 -50 -17 -117 -31 -149
-31 -96 0 -235 -139 -209 -209 15 -37 80 -42 95 -6 5 14 11 3 13 -25 2 -27 7
-71 12 -96 5 -28 0 -41 -12 -34 -11 7 -20 1 -20 -14 1 -35 30 -80 51 -77 9 1
20 -22 24 -52 l7 -54 -41 48 c-23 27 -37 36 -32 19 5 -16 14 -79 20 -138 l11
-108 -38 49 c-21 27 -42 71 -47 98 -7 35 -10 27 -12 -27 -2 -42 5 -71 15 -65
10 6 23 -3 29 -19 7 -18 0 -30 -18 -30 -16 0 -29 -10 -29 -21 0 -12 10 -15 23
-7 17 10 20 -11 10 -82 -7 -52 -13 -146 -14 -208 0 -141 -36 -95 -53 69 -7 60
-19 109 -28 109 -9 0 -11 16 -4 35 7 19 5 29 -3 21 -9 -8 -20 -45 -24 -81 -4
-37 -25 -102 -47 -145 -22 -43 -40 -90 -40 -104 0 -14 -9 -26 -20 -26 -25 0
-25 41 -1 79 12 19 11 35 -2 43 -22 13 17 156 48 179 28 21 56 244 34 271 -29
34 -159 31 -159 -4 0 -15 13 -28 29 -28 19 0 25 -12 18 -32 -8 -19 -18 -23
-25 -10 -8 11 -15 -38 -17 -110 -3 -80 3 -125 15 -118 11 7 20 43 20 81 0 38
10 69 21 69 13 0 16 17 9 40 -7 23 -4 40 9 40 26 0 28 -73 3 -89 -10 -6 -14
-47 -9 -91 5 -44 0 -80 -10 -80 -20 0 -81 -172 -125 -355 -14 -58 -42 -123
-62 -145 -20 -21 -36 -48 -36 -60 0 -12 -7 -18 -15 -13 -8 5 -16 -12 -18 -39
-4 -65 25 -61 42 6 10 40 18 47 31 26 12 -19 19 -11 25 32 7 44 10 38 12 -28
2 -61 -4 -82 -20 -72 -16 10 -20 4 -11 -18 8 -22 -1 -41 -26 -54 -25 -13 -34
-32 -26 -54 9 -22 5 -28 -11 -18 -15 9 -23 0 -23 -27 0 -22 -9 -41 -20 -41
-11 0 -20 -27 -20 -60 0 -33 -8 -60 -18 -60 -29 0 -43 87 -16 104 19 12 18 15
-1 16 -14 0 -26 25 -26 55 l-2 55 -19 -49 c-11 -26 -15 -62 -9 -80 7 -20 1
-17 -19 8 -29 38 -30 38 -30 -4 0 -24 11 -50 25 -59 36 -23 71 -104 85 -200
10 -61 21 -81 41 -73 19 7 25 27 17 58 -24 94 41 101 77 9 7 -19 12 -10 13 21
1 28 -6 60 -15 70 -10 10 -23 51 -29 89 -6 39 -7 59 -1 46 5 -13 23 -19 38
-13 19 8 29 -2 29 -30 0 -22 10 -47 23 -55 16 -10 20 -1 12 27 -7 30 -3 39 17
31 16 -5 28 -32 28 -58 0 -32 9 -43 28 -36 15 6 23 26 18 46 -22 84 47 85 103
0 64 -97 94 -90 33 8 -51 84 -54 116 -7 101 29 -9 30 -7 6 10 -36 25 -15 53
28 36 17 -6 31 -28 31 -49 0 -43 141 -51 155 -8 5 13 18 18 30 11 13 -8 15 -4
5 13 -9 14 -18 47 -21 73 l-5 46 67 -51 c36 -28 71 -62 76 -74 6 -14 10 -11
11 7 1 17 -9 44 -23 59 -14 16 -7 14 15 -4 39 -32 131 -4 97 31 -7 7 -26 -3
-42 -22 -15 -19 -23 -24 -16 -11 31 62 -104 196 -198 196 -70 0 -88 237 -41
540 19 121 136 430 162 430 37 0 68 -62 50 -97 -11 -21 -14 -44 -7 -51 8 -8
-1 -8 -19 -2 -22 9 -37 -1 -46 -31 -11 -35 -18 -38 -32 -17 -12 20 -17 11 -18
-29 0 -43 8 -54 30 -46 19 8 31 -1 31 -23 2 -28 5 -27 19 6 9 22 18 29 19 16
3 -63 58 7 81 104 26 107 23 131 -34 370 -6 28 -24 57 -38 66 -15 8 -22 27
-16 43 6 15 1 33 -11 40 -13 8 -22 -11 -23 -53 -2 -42 -6 -52 -13 -27 -11 46
-66 135 -94 155 -14 9 -12 23 4 39 20 20 37 13 85 -33 33 -32 60 -50 60 -41 0
19 201 -163 228 -206 11 -18 10 -24 -3 -16 -35 22 -44 -40 -12 -85 16 -23 22
-42 13 -42 -9 0 -15 -97 -13 -215 2 -184 0 -196 -12 -85 -8 72 -17 108 -20 80
l-5 -50 -14 50 c-17 59 -50 -17 -74 -175 -13 -85 -35 -108 -56 -60 -7 17 -10
15 -9 -5 6 -97 -3 -114 -59 -110 -66 4 -119 -39 -78 -64 13 -9 37 -43 52 -76
15 -34 31 -49 36 -35 5 14 18 20 28 14 10 -6 18 4 18 23 0 19 6 29 13 21 8 -7
28 7 45 32 38 54 82 67 82 24 0 -17 9 -26 21 -19 11 7 18 24 15 37 -2 12 6 42
19 66 27 48 65 409 53 498 -7 50 -6 53 12 19 15 -30 17 -10 9 75 -13 122 2
203 32 184 27 -16 23 16 -10 94 l-29 67 -1 -67 c-1 -58 -5 -64 -31 -43 -24 20
-33 16 -49 -23 l-18 -47 -2 45 c0 25 9 45 22 45 16 0 19 37 10 125 -9 96 -7
116 10 87 21 -35 24 -33 47 22 27 63 98 78 129 28 10 -17 42 -21 103 -12 281
42 477 26 478 -37 1 -48 72 -109 140 -121 39 -6 57 -6 40 1 -70 30 -160 115
-160 150 0 46 53 21 150 -74 35 -34 73 -58 85 -54 12 4 50 -7 84 -25 61 -31
62 -31 38 8 -14 22 -30 36 -37 32 -6 -4 -13 17 -15 46 -2 47 0 49 14 14 10
-22 36 -56 60 -76 23 -19 38 -42 33 -51 -5 -9 17 -31 49 -50 33 -20 59 -26 59
-14 0 11 16 21 35 21 29 -1 30 -4 6 -19 -45 -29 -11 -46 58 -31 35 8 82 40
106 73 25 33 74 74 111 91 124 59 224 306 144 356 -11 7 -20 30 -20 51 0 50
-158 59 -163 9z m-1849 -322 c50 -19 37 -43 -28 -52 -74 -11 -90 2 -45 36 42
32 35 31 73 16z m129 -112 c39 -62 40 -96 2 -96 -19 0 -79 104 -79 139 0 41
37 20 77 -43z m-438 -1113 c-27 -9 -24 -183 3 -183 13 0 17 -15 10 -33 -7 -18
-5 -61 6 -95 53 -174 49 -204 -28 -201 -89 3 -105 19 -49 49 29 16 39 17 30 2
-7 -12 0 -22 17 -22 33 0 26 153 -9 220 -21 39 -49 -65 -31 -113 11 -27 8 -29
-18 -7 -32 27 -42 100 -12 100 30 0 41 86 22 170 -15 62 -11 99 16 165 l34 85
14 -65 c7 -36 5 -68 -5 -72z m-115 -102 c1 -34 -10 -85 -25 -113 -21 -40 -22
-59 -3 -89 18 -29 18 -50 -1 -93 -23 -53 -25 -50 -32 64 -5 87 -12 109 -24 80
-14 -34 -16 -30 -16 20 1 79 31 179 37 120 2 -27 10 -19 23 27 23 79 39 73 41
-16z m-66 -461 c1 -21 -11 -15 -39 17 -21 26 -39 71 -38 100 1 61 77 -55 77
-117z"/>
<path d="M4729 6105 c-20 -147 -25 -180 -70 -415 -23 -121 -51 -281 -63 -355
-22 -140 -50 -168 -100 -99 -25 35 -132 103 -201 130 -75 28 -33 -67 77 -170
166 -158 174 -180 183 -516 4 -159 13 -303 19 -320 28 -74 -2 -242 -41 -234
-29 5 -20 -101 17 -207 15 -42 34 -142 41 -223 8 -80 21 -155 29 -166 14 -18
27 -81 81 -390 57 -325 65 -740 14 -740 -26 0 -74 -62 -74 -97 -1 -16 11 -23
29 -16 26 10 27 5 8 -30 -15 -30 -16 -38 0 -28 12 7 23 6 24 -3 5 -57 18 -94
39 -106 17 -11 18 -19 0 -29 -29 -18 10 -71 52 -71 22 0 27 -34 25 -158 -1
-87 4 -168 11 -181 8 -12 3 -36 -10 -52 -64 -77 55 -869 152 -1010 27 -39 49
-86 49 -105 0 -19 7 -34 16 -34 18 0 17 94 -3 113 -7 8 -13 35 -13 62 0 26
-19 92 -42 146 -24 54 -38 116 -33 137 6 22 -6 110 -26 196 -55 240 -97 472
-80 453 8 -9 35 -116 60 -237 25 -121 54 -238 64 -260 15 -33 16 -32 8 12 -7
37 -2 51 21 51 22 0 29 -14 23 -46 -5 -25 1 -50 13 -55 14 -6 13 -9 -3 -10
-34 -3 -31 -52 5 -82 17 -14 30 -46 30 -72 0 -27 8 -48 19 -48 10 0 22 -16 27
-35 5 -19 10 1 12 46 1 45 -6 90 -16 100 -9 10 -27 77 -40 149 -12 71 -31 133
-42 137 -11 3 -20 44 -20 90 -1 112 -19 173 -52 173 -16 0 -28 16 -28 35 1 30
3 31 20 5 16 -24 19 -22 20 14 0 30 -9 41 -27 34 -23 -8 -73 115 -73 181 0 22
37 10 45 -14 5 -14 5 2 -1 35 -5 33 -19 66 -31 74 -39 25 6 44 93 40 56 -3 75
1 56 14 -19 12 -23 35 -13 73 12 51 10 53 -20 28 -24 -20 -18 5 21 81 31 61
71 155 90 210 l35 100 25 -90 c14 -49 33 -121 41 -160 45 -202 100 -389 119
-408 13 -13 21 -14 19 -2 -8 42 2 72 19 61 10 -6 25 16 32 49 14 66 39 78 58
28 8 -20 -15 -70 -57 -130 -68 -95 -73 -131 -26 -192 26 -34 95 11 95 62 0 21
15 55 33 75 30 33 30 43 -2 131 -19 53 -39 119 -45 146 -86 393 -153 538 -271
592 -83 38 -157 107 -86 81 22 -8 33 -8 25 0 -14 14 -174 27 -174 14 0 -3 40
-29 89 -57 52 -31 85 -63 79 -78 -6 -14 13 -41 41 -60 29 -18 51 -52 51 -76 0
-39 -3 -40 -25 -12 -31 39 -152 79 -211 70 -54 -8 -82 -34 -37 -34 20 0 33
-16 33 -40 0 -48 31 -52 56 -7 29 51 47 -2 23 -66 -17 -44 -25 -50 -40 -26
-14 22 -18 16 -19 -25 0 -29 -8 -58 -17 -64 -9 -6 -17 -45 -18 -86 0 -42 -8
-93 -16 -114 -11 -27 -9 -34 7 -24 16 9 19 3 11 -19 -9 -23 -17 -25 -27 -9 -8
13 -22 20 -31 17 -33 -13 -79 264 -47 285 23 14 21 17 -7 18 -19 0 -36 2 -36
5 -37 128 -14 341 43 397 57 56 61 68 48 145 -8 45 -18 133 -23 193 -4 61 -11
139 -14 174 -4 36 -3 69 2 75 21 20 12 327 -13 442 -22 105 -21 136 6 229 39
132 41 192 4 206 -19 8 -31 -12 -40 -68 -14 -86 -52 -107 -52 -28 0 28 23 134
50 235 28 102 131 514 230 915 99 402 198 793 220 870 47 166 46 150 14 150
-15 0 -47 -83 -82 -215 -31 -118 -88 -323 -126 -455 -125 -428 -221 -835 -293
-1240 -19 -109 -39 -153 -55 -127 -25 39 -22 157 3 157 48 0 -21 584 -81 686
-78 132 -52 210 86 262 123 46 153 74 154 147 0 32 -10 43 -37 39 -40 -6 -103
-60 -103 -88 0 -51 -77 -83 -88 -36 -13 52 20 252 45 269 8 6 51 33 94 59 300
183 336 215 248 218 -32 1 -59 -8 -59 -20 0 -11 -18 -16 -40 -10 -22 6 -45 1
-52 -9 -7 -11 -34 -15 -60 -8 -34 8 -48 3 -48 -16 0 -16 -13 -39 -30 -53 -25
-21 -30 -18 -30 17 0 74 48 232 76 250 20 12 21 23 3 44 -13 16 -19 51 -14 79
6 33 0 50 -17 50 -15 0 -31 -37 -39 -95z m-46 -2065 c27 0 20 -49 -13 -91 -29
-37 -29 -37 -13 10 11 32 8 66 -10 100 -15 28 -26 65 -25 81 1 17 11 1 23 -35
11 -36 28 -65 38 -65z m560 -1608 c-1 -6 12 -43 28 -82 16 -38 21 -70 12 -70
-10 0 -23 20 -29 45 -6 25 -17 68 -25 95 -8 28 -8 44 0 37 8 -8 14 -19 14 -25z"/>
<path d="M4864 6169 c-51 -58 -14 -68 66 -19 l80 49 -60 0 c-33 0 -72 -14 -86
-30z"/>
<path d="M5107 5243 l-240 -957 124 -428 125 -428 117 7 c150 8 147 -20 37
308 -85 255 -151 421 -122 305 26 -99 30 -156 11 -137 -11 11 -24 42 -29 68
-29 151 -33 161 -74 155 -37 -5 -111 143 -85 169 4 3 12 36 18 72 25 138 127
530 321 1233 172 625 166 590 95 590 l-59 0 -239 -957z m51 -1488 c37 -99 47
-145 26 -125 -21 21 -67 170 -52 170 5 0 17 -20 26 -45z"/>
<path d="M5515 6155 c-6 -25 -34 -130 -62 -235 -28 -104 -57 -221 -63 -259 -7
-38 -24 -97 -39 -130 -45 -100 -68 -186 -62 -225 3 -20 -2 -41 -11 -46 -8 -6
-20 -35 -25 -64 -5 -29 -19 -69 -29 -89 -11 -20 -21 -46 -22 -57 -2 -11 -12
-51 -22 -90 -28 -100 -26 -102 40 -44 33 29 60 62 60 73 0 12 15 48 32 81 18
33 34 78 35 100 2 31 18 40 73 42 271 9 580 35 580 50 0 9 -55 12 -123 5
l-123 -13 10 53 c7 36 2 53 -17 53 -15 0 -27 -21 -27 -47 0 -51 -80 -73 -263
-73 -74 0 -77 2 -77 69 0 88 0 88 222 101 103 6 238 18 298 26 l110 14 -110
10 c-60 5 -150 4 -200 -4 -133 -21 -300 -31 -298 -17 8 56 96 169 137 175 27
4 53 11 58 16 9 10 -89 18 -125 11 -10 -2 -6 12 10 31 26 32 24 33 -16 11 -64
-34 -77 -28 -37 16 19 21 47 33 63 28 16 -7 28 1 28 17 0 80 48 100 250 108
108 3 206 16 218 28 22 22 -337 8 -374 -14 -19 -11 -74 31 -74 56 0 10 13 18
28 18 38 0 54 50 25 80 -16 18 -16 22 0 13 32 -18 50 69 21 105 -16 20 -17 25
-1 16 13 -8 28 0 34 16 9 23 -4 30 -55 30 -54 0 -69 -9 -77 -45z"/>
<path d="M5896 6130 c-5 -6 -61 -12 -123 -15 -62 -2 -113 -11 -113 -20 0 -9
47 -13 105 -7 58 5 135 10 171 11 39 0 61 9 54 21 -13 21 -76 27 -94 10z"/>
<path d="M4392 6059 c-44 -50 -52 -73 -41 -123 9 -42 5 -66 -14 -78 -21 -13
-22 -25 -3 -55 13 -21 18 -44 11 -51 -43 -43 -80 -232 -46 -232 10 0 6 -25
-10 -55 -27 -51 -26 -55 13 -62 58 -9 59 -7 67 183 4 94 14 183 23 197 37 60
62 248 30 228 -12 -7 -22 -4 -22 8 0 11 8 21 18 21 9 0 22 18 28 40 13 52 10
51 -54 -21z"/>
<path d="M5029 6079 c-7 -12 -8 -27 -2 -33 7 -6 3 -28 -8 -49 -17 -30 -13 -37
19 -37 31 0 39 13 38 61 -2 65 -25 93 -47 58z"/>
<path d="M1413 5956 c-18 -67 -16 -80 10 -64 16 10 20 4 11 -19 -15 -39 -1
-43 34 -8 27 28 13 118 -21 129 -12 4 -27 -13 -34 -38z"/>
<path d="M3620 5940 c0 -33 12 -40 60 -36 46 3 60 14 58 45 0 23 -6 30 -11 16
-12 -30 -67 -34 -67 -5 0 11 -9 20 -20 20 -11 0 -20 -18 -20 -40z"/>
<path d="M2486 5827 c-11 -29 31 -187 50 -187 5 0 22 16 36 35 33 43 38 1 7
-58 -16 -29 -15 -48 3 -70 18 -21 19 -34 4 -44 -26 -15 -40 -85 -23 -113 30
-52 40 -137 12 -114 -22 18 -28 8 -32 -51 -3 -40 -13 -83 -23 -96 -12 -14 -10
-31 4 -45 14 -14 15 -24 4 -24 -11 0 -16 -31 -12 -70 5 -38 16 -65 25 -60 9 6
22 2 29 -10 7 -11 4 -20 -7 -20 -10 0 -23 -43 -28 -95 -6 -52 -16 -117 -24
-145 -10 -39 -4 -34 29 20 30 50 40 57 33 25 -6 -28 -1 -40 12 -32 14 8 16 -5
8 -39 -7 -28 -4 -57 7 -64 11 -7 20 6 20 29 0 22 7 41 16 41 29 0 7 -187 -35
-308 -22 -65 -41 -140 -41 -166 0 -27 -9 -43 -20 -36 -12 7 -14 -2 -6 -23 14
-36 63 45 65 108 1 38 37 30 47 -10 5 -19 10 4 12 51 2 84 42 105 42 23 0 -22
10 -39 22 -39 13 0 18 -18 12 -40 -6 -22 -3 -40 6 -40 9 0 23 27 30 60 7 34
22 55 34 48 13 -9 15 10 4 54 -29 119 16 357 48 259 11 -33 126 612 118 659
-3 17 4 40 15 52 29 32 113 -77 112 -146 -1 -98 -11 -166 -23 -166 -13 0 -53
-264 -70 -470 -6 -78 -26 -162 -44 -190 -18 -27 -34 -54 -34 -60 -1 -5 -12
-29 -25 -53 -66 -118 -46 -306 26 -246 23 19 29 17 29 -10 0 -18 9 -28 20 -21
12 8 13 26 3 46 -24 46 -13 101 47 227 28 59 46 92 41 73 -5 -19 -1 -40 10
-47 10 -6 19 -31 20 -55 1 -86 57 49 61 146 1 50 7 74 12 55 8 -33 49 -52 44
-20 -11 64 5 171 21 146 10 -16 14 -53 8 -82 -7 -32 3 -78 22 -111 32 -56 33
-53 22 112 -11 160 -8 177 48 290 77 157 121 261 121 288 0 12 18 22 41 22 36
0 38 -5 17 -45 l-24 -45 45 40 c49 44 92 112 67 108 -48 -8 -91 7 -128 44
l-41 41 6 -56 c4 -37 -2 -55 -18 -52 -14 3 -25 -6 -25 -18 0 -13 -13 -38 -29
-56 -16 -18 -34 -66 -39 -106 -12 -95 -31 -128 -54 -92 -14 21 -17 19 -18 -8
0 -19 -7 -35 -16 -35 -22 0 -20 87 2 103 32 21 33 135 1 123 -15 -6 -27 -32
-27 -58 0 -26 -9 -48 -20 -48 -29 0 -24 81 8 142 28 56 17 193 -26 304 -34 89
-27 161 9 84 35 -76 35 -48 0 80 l-27 100 -42 -97 c-23 -53 -42 -105 -42 -116
0 -70 -92 3 -130 103 -75 196 -100 151 -97 -170 1 -161 -4 -259 -13 -230 -21
65 -24 34 -25 -230 -1 -126 -5 -169 -9 -100 l-9 120 -38 -109 c-22 -60 -39
-128 -39 -151 0 -23 -14 -60 -31 -81 -30 -38 -31 -38 -11 3 21 44 47 288 30
288 -5 0 -18 -20 -29 -45 -15 -34 -16 -25 -5 35 8 44 15 143 14 220 0 77 3
124 7 105 18 -81 62 25 82 197 25 207 9 333 -35 281 -15 -18 -39 -33 -53 -33
-14 0 -31 -11 -37 -25 -6 -14 -10 -7 -8 15 3 49 -23 152 -47 182 -10 13 -12
37 -6 53 12 31 -18 60 -67 68 -15 2 -32 -10 -38 -26z m153 -722 c-6 -104 -2
-129 19 -116 22 13 -13 -130 -37 -155 -19 -20 -26 227 -9 297 18 73 32 60 27
-26z m515 -502 c-15 -31 -24 -85 -19 -120 6 -36 1 -63 -11 -63 -28 0 -16 164
18 245 20 47 29 55 34 30 4 -19 -6 -61 -22 -92z m-413 -166 l-21 -67 10 68 c6
37 11 91 13 120 l3 52 8 -53 c5 -29 -1 -83 -13 -120z"/>
<path d="M1547 5775 c7 -19 2 -35 -10 -35 -12 0 -17 -11 -12 -25 9 -23 -25
-32 -151 -36 -20 -1 -41 -14 -47 -30 -6 -16 -18 -24 -27 -19 -9 6 -12 -8 -6
-30 6 -22 20 -34 31 -27 10 7 27 0 37 -15 23 -38 22 -58 -3 -58 -12 0 -16 9
-9 20 7 11 3 20 -9 20 -11 0 -21 -8 -21 -18 0 -36 24 -82 43 -82 11 0 14 9 7
20 -11 18 15 29 55 22 18 -2 19 24 3 66 -7 18 -19 27 -28 22 -9 -6 -6 11 6 37
18 38 30 44 55 28 61 -38 144 -2 116 50 -21 41 -20 42 10 18 21 -18 33 -20 33
-5 0 12 0 29 0 37 0 8 -9 15 -21 15 -11 0 -30 14 -42 30 -17 25 -19 24 -10 -5z"/>
<path d="M1770 5700 c-20 -22 -49 -40 -65 -40 -17 0 -66 -36 -110 -80 -44 -44
-73 -80 -64 -80 8 0 2 -16 -14 -35 -37 -44 -84 -145 -88 -189 -2 -19 -19 -58
-38 -88 -23 -34 -31 -73 -24 -110 7 -32 2 -62 -11 -70 -13 -8 -17 -5 -9 8 14
22 -17 50 -62 57 -14 2 -31 -6 -38 -18 -8 -13 -4 -15 13 -5 17 11 21 8 12 -7
-8 -13 -23 -19 -32 -13 -10 6 -18 -5 -17 -25 0 -102 -22 -215 -43 -222 -17 -5
-22 18 -17 83 4 49 0 86 -8 81 -29 -18 -15 15 26 58 44 48 78 150 63 192 -7
21 -13 21 -25 1 -8 -13 -10 -37 -5 -52 6 -16 -7 -48 -29 -72 -33 -36 -77 -131
-69 -149 1 -2 -10 -39 -25 -81 -19 -54 -21 -87 -6 -113 14 -25 14 -32 0 -24
-24 15 -45 -30 -45 -97 0 -26 -9 -53 -20 -60 -10 -6 -16 -41 -11 -76 4 -35 2
-91 -5 -124 l-12 -60 -14 50 -14 50 -2 -50 c-2 -27 -10 -62 -19 -77 -30 -46
137 -470 171 -435 5 5 -1 27 -13 49 -16 32 -15 45 8 57 26 15 26 24 2 71 -18
34 -21 55 -7 55 12 0 15 18 7 45 -19 62 -20 78 -4 140 11 43 7 52 -17 42 -44
-17 -37 18 15 74 51 54 119 196 106 218 -5 8 0 49 12 91 13 47 26 67 35 52 10
-15 27 7 48 59 29 74 29 88 3 128 -30 46 -30 117 -1 145 9 9 11 -12 3 -47 -8
-38 -5 -69 8 -76 11 -7 21 -3 21 10 0 14 18 40 41 60 45 39 69 121 40 138 -10
6 -2 45 17 87 19 41 41 69 48 61 8 -8 14 2 14 21 0 19 9 29 20 22 11 -7 20 6
20 29 0 22 9 41 20 41 11 0 20 14 20 30 0 17 8 30 18 30 9 0 32 32 51 70 41
88 65 90 55 5 -6 -56 7 -79 97 -170 57 -58 95 -105 84 -105 -22 0 -55 -137
-38 -154 17 -16 73 109 73 162 0 29 -21 66 -53 91 -60 47 -38 56 27 11 37 -26
43 -26 54 2 19 48 14 108 -8 108 -11 0 -20 -13 -20 -29 0 -56 -37 -50 -77 13
-44 71 -42 96 7 56 26 -21 30 -16 30 43 1 53 5 61 22 37 19 -27 20 -27 10 0
-7 17 -18 46 -25 66 -11 33 -20 29 -82 -30 -48 -45 -63 -53 -49 -24 12 23 36
53 53 67 34 28 41 61 14 61 -9 0 -33 -18 -53 -40z"/>
<path d="M5725 5661 c-203 -32 -60 -56 170 -28 58 7 105 18 105 25 0 17 -173
19 -275 3z"/>
<path d="M642 5602 c-22 -14 -19 -22 15 -41 25 -13 43 -14 43 -3 0 11 16 23
35 28 19 5 15 7 -9 4 -25 -2 -47 3 -50 12 -3 9 -18 9 -34 0z"/>
<path d="M1954 5580 c8 -31 3 -38 -22 -28 -22 8 -32 1 -32 -22 0 -23 10 -30
32 -22 17 7 35 12 40 12 4 0 8 23 8 50 0 28 -8 50 -18 50 -10 0 -14 -18 -8
-40z"/>
<path d="M3227 5515 c7 -25 22 -117 34 -205 39 -281 42 -296 57 -278 8 10 26
57 40 104 14 52 32 80 46 72 11 -8 17 -6 13 4 -5 10 -25 54 -45 98 -83 188
-117 250 -136 250 -12 0 -15 -20 -9 -45z"/>
<path d="M2240 5499 c0 -36 5 -40 29 -20 23 19 29 13 36 -33 l7 -56 17 56 c18
63 18 64 -44 83 -37 11 -45 6 -45 -30z"/>
<path d="M1349 5379 c-20 -22 -47 -36 -61 -31 -29 11 -91 -54 -136 -143 -44
-86 -26 -83 28 5 39 63 84 95 78 55 -10 -64 7 -68 62 -15 33 32 60 69 60 84 0
14 9 26 20 26 11 0 20 14 20 30 0 42 -27 37 -71 -11z"/>
<path d="M1550 5287 c-31 -80 -39 -89 -52 -56 -21 53 -23 44 -27 -149 -4 -143
-11 -172 -47 -200 -43 -33 -58 -87 -65 -242 -3 -82 -5 -85 -18 -30 -12 47 -18
53 -29 27 -8 -19 -5 -53 8 -77 19 -36 18 -42 -14 -36 -28 5 -36 -7 -35 -49 0
-30 -7 -55 -15 -55 -9 0 -16 15 -16 33 0 19 -5 29 -10 23 -11 -11 -22 -94 -42
-326 -6 -77 -14 -163 -16 -191 -3 -28 -11 -62 -19 -75 -9 -13 -6 -40 5 -59 19
-32 21 -31 21 7 1 23 7 47 14 55 8 7 12 74 11 148 -3 133 -2 134 24 65 26 -69
26 -67 40 110 18 218 26 250 65 250 25 0 28 -16 17 -80 -9 -53 -6 -80 8 -80
13 0 22 -38 22 -89 0 -49 8 -94 18 -100 27 -17 46 123 23 167 -40 74 -20 402
24 402 10 0 14 -13 8 -29 -6 -15 2 -39 18 -52 24 -20 29 -11 29 59 0 46 17
117 37 158 56 112 91 357 50 350 -12 -3 -27 13 -33 35 -6 21 -2 39 8 39 10 0
19 16 20 35 1 23 7 18 18 -15 16 -49 16 -49 18 10 3 111 -29 119 -68 17z m-68
-473 c-12 -12 -22 -44 -22 -72 0 -35 -6 -44 -21 -29 -15 15 -11 53 15 129 32
96 37 102 43 51 3 -32 -4 -68 -15 -79z"/>
<path d="M1076 5280 c-25 -31 -55 -54 -66 -53 -11 2 -29 -17 -40 -42 -11 -25
-29 -45 -42 -45 -12 0 -50 -14 -85 -32 -35 -17 -75 -27 -88 -23 -22 8 -115
-71 -115 -97 0 -6 54 -4 120 4 84 9 129 6 150 -12 36 -30 125 55 180 174 19
42 57 100 84 129 l49 52 -51 0 c-31 0 -68 -22 -96 -55z"/>
<path d="M5 5238 c3 -40 16 -71 30 -71 16 0 20 17 12 51 -20 85 -48 98 -42 20z"/>
<path d="M320 5130 c0 -32 -2 -32 -136 -39 -100 -5 -174 -60 -124 -91 40 -26
86 -25 70 0 -7 11 8 21 34 22 161 9 298 38 298 63 -1 28 -41 86 -41 60 -1 -17
-15 -19 -51 -5 -39 15 -50 13 -50 -10z"/>
<path d="M4792 5077 c-27 -31 -40 -36 -52 -18 -10 16 -19 18 -28 5 -7 -11 -1
-25 13 -30 20 -7 20 -17 0 -51 -30 -50 -2 -58 65 -17 29 17 64 154 40 154 -1
0 -18 -19 -38 -43z"/>
<path d="M5790 5087 c-22 -3 -128 -11 -235 -18 -231 -15 -265 -42 -40 -32 341
16 456 27 475 46 18 17 -62 19 -200 4z"/>
<path d="M3677 5036 c26 -29 41 -63 34 -74 -20 -33 -27 -242 -8 -254 9 -6 12
-70 7 -144 -15 -192 -53 -404 -72 -393 -9 6 -26 -8 -38 -30 -15 -28 -42 -41
-86 -41 -51 -1 -159 -39 -111 -40 7 0 6 -31 -3 -70 -9 -40 -8 -65 2 -59 10 6
18 23 18 38 0 15 27 36 60 48 33 12 60 26 60 31 0 6 -16 5 -35 -2 -20 -7 -28
-5 -18 6 9 10 51 19 94 19 l77 1 -59 -35 c-65 -40 -82 -71 -20 -38 51 28 64 4
64 -111 0 -82 3 -87 28 -55 26 35 28 34 29 -13 0 -40 5 -44 20 -20 16 25 19
23 20 -12 0 -42 58 -60 62 -20 1 12 4 49 7 82 3 33 6 75 8 93 4 40 156 119
198 102 21 -8 27 -4 17 12 -8 12 -5 23 7 23 11 0 21 -14 21 -31 0 -17 10 -25
21 -18 33 20 78 -55 65 -109 -8 -33 -5 -44 11 -34 13 8 23 3 24 -12 0 -14 13
-3 29 24 30 53 29 57 11 -121 0 -6 -19 -31 -42 -55 -22 -24 -32 -44 -21 -44
11 0 33 19 49 42 17 23 39 37 50 30 11 -7 40 24 65 68 52 92 67 98 88 35 8
-25 17 -52 20 -60 3 -8 6 -33 8 -55 1 -24 16 -39 37 -38 21 1 25 5 10 11 -14
6 -25 24 -25 40 0 17 10 23 23 15 16 -10 20 -3 10 20 -7 20 -13 47 -13 62 0
15 -13 41 -30 57 -35 35 -44 137 -20 222 l16 59 -55 -44 c-31 -24 -62 -39 -71
-34 -20 12 -5 133 20 158 25 25 26 152 2 152 -10 0 -23 -11 -29 -25 -5 -14
-11 -1 -11 29 -1 29 9 60 21 68 16 10 20 4 11 -19 -7 -18 -4 -33 8 -33 75 0
-46 258 -187 396 -121 119 -147 114 -152 -26 -1 -44 -12 -111 -23 -150 -25
-87 -25 -106 -1 -91 10 7 22 -18 27 -54 5 -43 9 -28 11 45 6 201 27 320 56
320 25 0 36 -26 29 -66 -2 -10 6 -11 18 -4 11 7 20 0 20 -16 0 -15 19 -45 42
-66 95 -86 130 -460 49 -519 -17 -13 -31 -34 -31 -46 0 -13 -10 -23 -21 -23
-12 0 -20 16 -18 35 9 90 1 107 -40 81 -21 -13 -33 -33 -26 -43 6 -12 -3 -14
-22 -7 -22 8 -33 2 -33 -18 0 -21 12 -27 38 -19 23 8 42 1 49 -18 16 -41 -54
-41 -94 -1 -17 17 -42 31 -57 31 -14 1 -8 10 14 19 32 14 33 17 6 19 -18 0
-54 -26 -80 -58 l-46 -60 4 265 c2 145 9 301 15 347 7 58 1 90 -19 107 -37 31
-27 98 20 133 21 15 30 27 20 27 -9 0 -33 -14 -52 -32 -35 -31 -129 -22 -109
10 5 9 -19 42 -55 74 -59 54 -60 54 -17 4z"/>
<path d="M5580 4940 c0 -29 -13 -40 -49 -40 -27 0 -54 -9 -61 -20 -14 -23 112
-24 190 -2 l50 14 -57 15 c-38 10 -53 24 -45 44 6 16 2 29 -9 29 -10 0 -19
-18 -19 -40z"/>
<path d="M780 4920 c-168 -17 -541 -39 -685 -39 -53 -1 -95 -10 -95 -22 0 -24
218 -359 268 -411 25 -26 30 -34 174 -258 57 -88 114 -169 127 -180 14 -11 31
-46 39 -77 11 -47 19 -52 43 -32 22 18 24 31 7 52 -18 21 -16 27 10 27 37 0
37 0 42 127 2 53 12 103 23 110 11 7 20 45 21 83 2 75 40 192 57 175 6 -5 2
-48 -9 -95 -14 -62 -13 -79 3 -63 12 12 24 85 27 161 3 77 15 158 27 180 12
22 20 47 18 56 -2 9 7 41 20 72 26 65 51 155 40 151 -4 -1 -74 -9 -157 -17z
m-300 -100 c-16 -11 -21 -20 -9 -20 12 0 32 11 46 25 20 20 29 19 44 -5 10
-17 19 -20 19 -7 0 13 16 20 35 17 19 -4 60 -8 90 -8 39 -2 55 -12 55 -37 -1
-30 -3 -31 -20 -5 -16 25 -19 24 -20 -6 0 -21 -9 -31 -22 -23 -15 10 -15 1 1
-29 12 -23 16 -42 8 -42 -8 0 1 -12 21 -26 33 -24 31 -28 -17 -53 -28 -15 -51
-40 -51 -54 0 -15 -10 -27 -22 -27 -14 0 -17 -27 -8 -77 23 -140 -90 -121
-121 21 -14 66 -56 123 -75 103 -6 -6 -25 17 -43 51 -18 35 -23 62 -12 62 28
0 27 74 0 91 -13 8 -19 -1 -15 -22 3 -19 -5 -37 -19 -40 -16 -4 -17 -2 -3 5
14 7 15 16 3 23 -11 7 -14 29 -7 49 13 34 17 34 72 -9 49 -39 56 -40 44 -10
-16 42 -2 73 32 73 14 0 12 -8 -6 -20z m159 -760 c-1 -25 -99 154 -98 180 0
17 22 -15 49 -70 27 -55 49 -104 49 -110z"/>
<path d="M5831 4925 c-55 -4 -89 -14 -77 -21 31 -20 246 -4 246 18 0 10 -16
16 -35 14 -19 -2 -80 -7 -134 -11z"/>
<path d="M985 4881 c-14 -22 -25 -65 -24 -96 l1 -55 30 56 c39 72 33 159 -7
95z"/>
<path d="M3563 4865 c-55 -104 -140 -438 -105 -416 15 9 24 41 54 191 4 17 24
82 45 145 38 116 40 145 6 80z"/>
<path d="M5213 4870 c-7 -16 -24 -30 -40 -30 -31 0 -81 -201 -70 -281 4 -31
-2 -47 -18 -44 -30 6 -34 -29 -4 -39 12 -4 -2 -34 -30 -66 -64 -75 -65 -110
-3 -110 38 0 50 13 58 65 23 136 49 235 70 260 11 14 21 34 22 45 6 60 30 165
45 195 11 21 11 35 0 35 -10 0 -24 -13 -30 -30z"/>
<path d="M5858 4771 c-4 -4 -102 -13 -218 -19 -115 -7 -228 -16 -250 -21 -22
-4 -67 -9 -100 -10 -35 -1 -50 -8 -36 -17 36 -22 746 27 746 53 0 14 -129 28
-142 14z"/>
<path d="M29 4670 c18 -33 61 -91 94 -130 49 -56 47 -49 -14 40 -90 131 -128
173 -80 90z"/>
<path d="M3564 4650 c-13 -44 -23 -102 -22 -130 1 -33 11 -16 30 50 15 55 25
114 21 130 -3 17 -16 -6 -29 -50z"/>
<path d="M2284 4545 c-25 -52 -32 -79 -16 -59 28 36 29 36 38 0 5 -20 10 -6
12 30 1 37 10 61 20 55 10 -6 14 7 8 29 -14 52 -11 55 -62 -55z"/>
<path d="M2429 4625 c-15 -10 -13 -30 4 -65 18 -34 27 -39 27 -17 0 19 5 48
12 65 13 34 -8 41 -43 17z"/>
<path d="M5220 4621 c0 -10 -5 -32 -12 -49 -9 -23 0 -32 30 -32 23 0 42 10 42
21 0 12 -11 15 -25 6 -19 -11 -19 -8 1 17 21 26 20 33 -5 43 -17 6 -31 4 -31
-6z"/>
<path d="M5780 4598 c-107 -11 -106 -12 44 -15 87 -2 159 6 166 17 13 21 4 21
-210 -2z"/>
<path d="M5370 4580 l-80 -14 96 -3 c89 -3 94 -6 74 -43 -12 -22 -13 -40 -3
-40 10 0 23 18 29 40 6 22 25 40 42 40 18 0 32 9 32 20 0 22 -67 22 -190 0z"/>
<path d="M0 4530 c0 -27 8 -50 17 -50 28 0 107 -77 97 -94 -13 -23 60 -93 73
-70 11 17 -155 264 -177 264 -6 0 -10 -22 -10 -50z"/>
<path d="M920 4438 c-22 -81 -18 -183 4 -118 29 82 49 200 34 200 -9 0 -26
-37 -38 -82z"/>
<path d="M2420 4408 c0 -47 -13 -98 -28 -113 -29 -29 -22 -126 10 -146 19 -12
32 39 44 181 5 55 15 114 22 132 9 21 3 31 -17 31 -23 0 -31 -21 -31 -85z"/>
<path d="M5800 4459 c-104 -6 -181 -14 -170 -17 29 -9 359 0 368 10 17 17 -13
18 -198 7z"/>
<path d="M192 4440 c9 -16 45 -71 80 -122 35 -50 68 -109 74 -130 8 -33 10
-34 12 -3 1 20 -20 69 -47 110 -55 85 -143 191 -119 145z"/>
<path d="M5365 4444 c-47 -4 -85 -13 -85 -21 0 -16 214 -16 230 1 18 17 -51
27 -145 20z"/>
<path d="M2262 4280 l43 -90 -48 42 c-78 69 -110 81 -65 24 90 -114 223 -203
160 -106 -18 27 -34 71 -36 99 -3 27 -8 45 -13 41 -4 -5 -25 12 -46 36 -35 39
-34 35 5 -46z"/>
<path d="M5958 4332 c-4 -4 -178 -13 -386 -20 -208 -6 -383 -16 -388 -22 -31
-30 50 -33 380 -11 470 31 450 28 424 45 -12 8 -26 12 -30 8z"/>
<path d="M3422 4200 c-15 -27 -56 -79 -90 -114 -63 -65 -96 -171 -39 -123 15
12 42 53 60 90 17 36 39 62 49 56 9 -6 52 7 95 29 43 22 83 35 89 29 6 -6 21
9 34 34 20 36 19 41 -3 27 -41 -26 -77 -27 -77 -3 0 12 -7 15 -15 7 -8 -9 -15
-25 -15 -37 0 -44 -47 -36 -54 9 l-7 46 -27 -50z"/>
<path d="M5490 4177 c-33 -7 64 -13 215 -13 151 0 280 8 286 18 13 21 -404 16
-501 -5z"/>
<path d="M280 4140 c0 -40 -5 -44 -20 -20 -13 20 -19 22 -20 5 0 -14 -7 -24
-15 -23 -38 6 -65 -4 -65 -24 0 -15 9 -16 25 -4 14 10 36 17 50 15 14 -2 32
-5 41 -6 8 -2 15 -20 15 -42 0 -21 -8 -33 -19 -26 -11 7 -13 -3 -5 -23 7 -20
13 -39 13 -44 0 -4 10 -8 21 -8 12 0 16 9 9 20 -7 11 2 20 19 20 17 0 31 9 31
20 0 11 -10 20 -22 20 -13 0 -18 19 -11 47 7 27 0 63 -17 85 -28 36 -29 36
-30 -12z"/>
<path d="M5275 4166 c-20 -5 -31 -16 -26 -24 12 -21 131 -2 131 20 0 19 -44
20 -105 4z"/>
<path d="M786 4060 c-6 -22 -19 -40 -29 -40 -27 0 -56 -88 -33 -102 10 -7 22
-29 25 -50 3 -21 16 -36 27 -34 13 3 15 -15 5 -50 -9 -30 -24 -52 -35 -50 -10
2 -16 -34 -12 -80 4 -46 9 -118 12 -160 4 -42 -1 -81 -10 -87 -9 -5 -16 -3
-14 7 9 50 -3 76 -21 47 -10 -16 -14 -36 -8 -45 5 -9 0 -16 -11 -16 -14 0 -15
-17 -2 -51 19 -48 -3 -119 -46 -151 -25 -18 41 -63 69 -46 13 8 0 -17 -30 -57
-58 -75 -99 -253 -70 -299 9 -14 16 -44 15 -66 -2 -32 -5 -30 -16 10 -9 34
-19 42 -29 24 -9 -13 -25 -19 -36 -12 -11 6 -25 -7 -31 -30 -14 -55 -38 -54
-53 2 -7 29 2 60 25 85 20 23 42 59 49 81 11 34 8 32 -24 -8 -52 -66 -74 -20
-27 57 21 33 42 56 47 51 6 -5 7 15 2 45 -4 30 11 108 34 173 44 128 53 202
21 182 -25 -15 -24 -1 1 100 34 134 34 210 -1 210 -26 1 -26 3 -1 19 20 12 37
7 56 -15 25 -30 26 -27 15 24 -11 52 -9 56 19 33 38 -32 40 -4 2 45 -26 35
-28 35 -39 0 -7 -21 -30 -37 -53 -37 -39 0 -39 1 5 37 38 31 39 35 8 25 -29
-9 -33 -6 -17 14 11 14 14 42 6 64 -10 26 -19 31 -29 15 -26 -43 -69 -25 -82
36 -13 58 -43 94 -62 75 -13 -14 54 -257 84 -302 41 -62 -33 -117 -169 -123
-170 -8 -323 -33 -323 -53 0 -9 23 -17 51 -17 34 0 47 -8 37 -23 -10 -17 -3
-19 24 -9 75 30 128 33 128 7 1 -18 6 -17 19 4 24 38 74 43 101 11 15 -19 16
-30 1 -40 -12 -7 -16 -21 -10 -31 6 -11 0 -19 -13 -19 -14 0 -19 -5 -13 -12 6
-6 30 -1 52 10 39 21 76 2 49 -26 -35 -34 -22 -73 21 -62 40 11 41 10 5 -12
-30 -18 -48 -18 -80 2 -39 23 -38 21 4 -24 58 -64 20 -106 -81 -91 -93 14
-295 -26 -295 -59 0 -14 10 -26 21 -26 12 0 16 9 9 20 -7 11 12 21 44 22 31 0
72 4 91 8 19 3 35 -3 35 -15 0 -12 6 -16 13 -9 16 17 87 -22 87 -48 0 -11 -8
-15 -18 -9 -10 6 -23 -3 -30 -20 -6 -18 -3 -26 8 -19 18 11 28 -14 23 -54 -1
-7 24 -25 56 -39 44 -19 53 -32 37 -51 -26 -32 -80 -34 -110 -4 -23 23 -66 9
-66 -21 0 -9 19 -21 43 -27 27 -8 38 -22 31 -42 -14 -35 139 -203 198 -218 32
-8 31 -10 -7 -12 -26 -1 -45 -15 -45 -32 0 -18 -18 -30 -45 -30 -33 1 -38 5
-18 18 45 28 0 37 -107 22 -55 -8 -90 -16 -79 -17 12 -2 39 -16 60 -32 38 -28
38 -29 -4 -18 -23 6 -48 1 -56 -11 -8 -13 -2 -17 15 -11 16 6 44 -3 61 -21 30
-29 33 -30 33 -1 0 48 31 37 35 -13 2 -25 -8 -52 -21 -62 -19 -13 -18 -19 1
-27 14 -6 25 -23 25 -38 0 -15 16 -37 35 -49 29 -19 26 -21 -20 -11 -40 9 -59
3 -68 -19 -6 -16 -28 -30 -49 -30 -21 0 -38 -12 -38 -27 0 -20 -26 -26 -90
-24 l-89 4 0 -362 0 -361 64 0 c94 0 98 -60 6 -103 -82 -40 -93 -94 -26 -130
122 -64 381 -245 441 -307 83 -85 114 -87 169 -13 51 70 45 562 -8 606 -39 32
-33 137 11 210 41 67 65 535 32 614 -9 22 -7 43 6 50 12 8 27 99 34 203 6 105
15 213 20 240 5 28 15 102 21 167 7 64 39 212 72 330 152 543 162 618 90 695
l-51 56 8 -99 c5 -67 2 -86 -10 -59 -19 43 -29 -5 -21 -100 2 -31 -1 -34 -16
-12 -11 16 -17 90 -14 165 5 130 -20 186 -43 97z m-293 -861 c-45 -89 -85
-152 -89 -141 -8 23 139 302 159 302 7 0 -24 -73 -70 -161z m176 -367 c-16
-84 5 -158 37 -138 13 7 11 -3 -6 -23 -23 -29 -24 -40 -5 -46 14 -5 25 -17 25
-28 0 -11 -8 -14 -18 -8 -10 6 -14 -5 -9 -24 5 -19 -5 -53 -22 -75 -30 -38
-31 -38 -18 18 9 41 6 54 -10 44 -13 -8 -24 -34 -25 -58 -2 -32 -5 -35 -12
-10 -4 18 9 69 30 113 22 44 32 87 24 97 -8 9 -21 57 -28 106 -9 63 -7 81 7
60 18 -26 20 -25 21 5 0 19 5 35 11 35 6 0 5 -31 -2 -68z m-146 -367 c-3 -40
-14 -84 -26 -98 -11 -14 -16 -32 -10 -41 5 -9 -3 -34 -19 -55 -26 -35 -28 -31
-28 55 0 52 9 94 21 94 11 0 19 11 18 25 -5 37 24 118 38 105 6 -6 9 -44 6
-85z m-93 15 c-7 -11 -1 -20 13 -20 18 0 19 -6 3 -22 -16 -16 -33 -15 -64 1
-57 31 -53 61 9 61 29 0 46 -9 39 -20z m0 -359 c7 -33 30 -65 51 -71 54 -17
22 -242 -45 -325 -28 -34 -205 -32 -233 2 -52 62 39 333 111 333 16 0 37 27
49 60 27 76 50 76 67 1z m-272 -421 c28 -1 28 -3 2 -20 -16 -10 -46 -14 -65
-8 -41 12 -42 8 -15 -62 15 -40 13 -63 -8 -93 -27 -39 -28 -39 -27 6 1 26 -6
96 -15 156 l-16 109 56 -44 c30 -24 70 -44 88 -44z m277 -197 c-29 -11 -21
-24 47 -82 133 -114 135 -135 12 -140 -162 -7 -174 -5 -229 31 l-52 34 42 34
c24 19 38 41 31 48 -7 6 -2 12 12 12 13 0 21 -16 18 -35 -6 -33 54 -41 84 -11
15 14 -80 86 -117 88 -48 3 48 27 124 31 40 2 50 -1 28 -10z m-105 -345 c255
-175 321 -249 94 -106 -217 137 -303 198 -313 223 -14 35 38 7 219 -117z"/>
<path d="M5400 4039 l-170 -12 140 -6 c143 -6 194 -3 208 11 17 17 -12 18
-178 7z"/>
<path d="M5611 4042 c-10 -16 369 -6 387 10 5 5 -78 8 -183 8 -106 0 -198 -8
-204 -18z"/>
<path d="M1265 3987 c1 -20 -4 -71 -12 -112 -13 -65 -10 -75 23 -75 56 0 60
12 35 109 -24 95 -50 140 -46 78z"/>
<path d="M205 3976 c-14 -16 -19 -36 -11 -43 7 -7 4 -13 -7 -13 -11 0 -21 -11
-22 -25 -12 -135 -18 -145 -93 -143 -49 2 -72 -6 -72 -25 0 -22 21 -26 95 -16
52 6 140 14 195 18 193 12 184 9 149 37 -17 13 -37 40 -45 59 -13 37 -54 39
-78 5 -22 -31 -53 11 -71 98 -13 64 -20 72 -40 48z m106 -184 c38 7 69 5 69
-5 0 -9 -45 -20 -100 -23 -55 -3 -100 -2 -100 2 0 4 11 39 25 76 l25 68 6 -66
c6 -63 9 -65 75 -52z"/>
<path d="M5485 3924 c-73 -3 -125 -15 -125 -28 0 -13 27 -17 75 -9 41 7 124
13 183 13 60 0 105 4 100 9 -16 15 -105 21 -233 15z"/>
<path d="M5785 3928 c6 -6 54 -11 105 -11 51 0 99 5 105 11 6 7 -41 12 -105
12 -64 0 -111 -5 -105 -12z"/>
<path d="M2780 3909 c0 -7 10 -31 23 -55 38 -73 97 -99 97 -43 0 20 9 26 25
16 17 -10 16 -4 -2 19 -36 44 -65 44 -49 -1 12 -30 9 -31 -19 -9 -18 15 -28
40 -22 55 7 18 -1 29 -21 29 -18 0 -32 -5 -32 -11z"/>
<path d="M5605 3818 c-203 -19 -170 -40 51 -32 112 4 209 13 215 19 19 18
-134 26 -266 13z"/>
<path d="M2470 3800 c-7 -11 -6 -20 3 -20 8 0 -3 -13 -24 -29 -27 -20 -33 -35
-18 -50 12 -11 17 -52 13 -90 l-8 -69 -83 54 c-46 30 -99 69 -119 86 -38 35
-169 59 -254 48 -93 -12 -290 -49 -338 -62 -31 -9 -44 -7 -35 7 7 11 -5 25
-27 31 -22 6 -40 2 -40 -8 0 -28 -135 -154 -180 -168 -37 -12 -100 -112 -100
-160 0 -32 -85 -75 -148 -75 -51 0 -76 -34 -27 -36 14 -1 5 -11 -20 -23 -25
-12 -45 -30 -45 -40 0 -9 17 -9 37 2 20 11 58 14 83 8 37 -10 44 -6 34 20 -7
18 -4 38 7 45 10 6 19 -4 19 -22 0 -21 11 -29 30 -22 17 7 30 3 30 -9 0 -11
34 7 75 39 86 68 136 87 270 101 9 1 4 20 -10 42 -22 36 -18 46 35 88 57 46
104 51 79 10 -7 -11 3 -52 21 -91 l34 -72 103 14 c57 7 130 17 163 21 384 47
429 68 288 141 -57 29 -61 28 -123 -30 -88 -82 -125 -79 -127 9 -1 62 5 70 50
71 80 2 -112 58 -200 59 -84 0 -106 16 -75 53 25 31 197 18 267 -20 22 -12 45
-22 50 -23 35 -6 197 -89 209 -108 7 -12 31 -22 52 -22 52 0 50 -54 -3 -71
-23 -7 -77 -45 -120 -83 -46 -42 -90 -66 -108 -59 -16 7 -30 3 -30 -7 0 -40
-192 -102 -349 -111 -89 -6 -181 -15 -205 -20 -36 -8 -42 -3 -32 24 10 26 5
31 -22 20 -19 -7 -44 -13 -54 -13 -10 0 -18 -20 -18 -45 0 -27 -7 -36 -15 -22
-17 27 -125 12 -125 -17 0 -10 19 -13 43 -5 27 8 37 6 29 -8 -8 -13 19 -18 83
-12 l95 8 -50 -39 c-27 -21 -39 -39 -26 -40 13 0 29 9 36 20 8 12 72 15 166 7
296 -23 326 -20 446 57 61 39 130 77 153 85 42 13 122 94 189 191 28 41 38 45
53 22 19 -28 103 75 103 126 0 27 143 1 246 -44 96 -42 148 -131 96 -163 -32
-20 -52 -155 -27 -186 29 -35 35 -110 17 -210 -16 -90 -52 -135 -52 -66 0 22
-10 41 -22 41 -12 0 -17 -13 -11 -29 12 -31 -28 -131 -52 -131 -8 0 -15 -17
-15 -38 0 -21 -13 -43 -29 -49 -23 -9 -27 -35 -18 -117 6 -58 12 -116 13 -129
2 -39 64 -15 63 25 0 21 9 45 20 53 14 9 12 14 -4 15 -38 0 -17 82 32 121 47
39 56 88 20 111 -30 18 61 67 99 53 20 -8 26 3 21 37 -5 37 1 47 29 42 21 -4
50 4 65 17 21 17 29 17 29 2 0 -13 15 -40 34 -62 18 -22 35 -53 38 -70 6 -40
88 -142 138 -170 63 -36 130 -154 130 -230 0 -75 -158 -267 -199 -241 -12 7
-37 3 -56 -8 -21 -13 -25 -21 -9 -21 15 -1 22 -8 16 -17 -24 -39 62 -61 89
-22 29 40 71 54 48 16 -18 -28 98 32 126 66 12 15 20 52 16 82 -3 30 2 60 12
66 10 6 13 19 7 28 -6 10 -1 60 10 112 13 56 14 99 4 106 -10 7 -37 48 -60 92
-23 44 -79 120 -123 168 -45 49 -81 101 -81 115 0 15 -10 27 -21 27 -12 0 -16
8 -10 18 6 9 -7 22 -28 28 -28 7 -36 22 -28 57 8 37 6 41 -11 17 -22 -30 -33
44 -28 185 1 30 -7 55 -17 55 -11 0 -14 9 -7 20 7 11 3 20 -9 20 -11 0 -21 15
-21 32 0 27 5 28 30 8 25 -21 30 -18 30 13 1 27 5 30 17 11 10 -15 31 -20 53
-11 28 10 33 7 20 -15 -9 -15 -9 -22 -1 -14 9 8 46 -23 81 -70 36 -46 89 -104
118 -129 28 -25 52 -60 52 -78 0 -19 6 -28 13 -21 7 7 34 -9 60 -37 44 -47 56
-75 49 -115 -1 -8 29 -13 68 -11 38 3 70 13 70 22 0 9 23 1 50 -17 28 -18 50
-25 50 -15 0 9 9 4 19 -12 14 -22 24 -23 46 -5 34 28 63 8 37 -24 -12 -14 -7
-49 11 -92 l30 -70 29 68 c16 37 24 73 18 78 -5 6 -10 1 -10 -11 0 -11 -12
-25 -27 -31 -18 -7 -27 5 -28 33 -1 101 -5 112 -38 99 -23 -9 -29 -5 -19 11 8
12 27 23 43 23 16 0 30 16 31 35 1 21 5 25 11 10 12 -29 47 -34 47 -7 0 34
-63 42 -93 12 -16 -17 -54 -30 -83 -30 -42 -1 -47 -5 -24 -20 26 -17 26 -19
-1 -20 -17 0 -42 11 -55 24 -13 13 -24 16 -24 6 0 -11 -14 1 -31 26 -18 25
-39 40 -47 35 -33 -20 -296 229 -270 255 6 5 -10 17 -35 25 -48 15 -117 81
-117 112 0 9 -13 17 -29 17 -16 0 -35 10 -43 23 -8 13 -5 18 7 10 11 -7 25 6
31 29 6 23 21 36 33 29 11 -7 21 -3 21 10 0 13 -13 18 -29 12 -18 -7 -29 3
-30 28 0 22 -2 56 -2 76 -1 20 -14 36 -30 36 -33 0 -60 -59 -31 -69 12 -4 14
-24 4 -50 -9 -24 -15 -63 -13 -86 2 -23 -8 -41 -23 -41 -25 0 -35 29 -30 94 1
17 -15 32 -37 34 -24 1 -35 -6 -26 -19 8 -13 4 -16 -10 -8 -13 8 -23 27 -23
42 0 16 -19 39 -42 51 -24 13 -37 14 -31 3 7 -10 -20 -8 -60 6 -59 20 -82 20
-125 -3 -28 -14 -62 -27 -74 -27 -12 0 -53 -31 -90 -70 -74 -76 -111 -91 -80
-33 23 42 20 224 -3 210 -8 -5 -15 1 -15 13 0 12 -7 18 -17 12 -9 -6 -18 3
-20 19 -1 16 -4 43 -6 59 -4 35 -10 37 -27 10z m-670 -150 c0 -13 -38 -35 -85
-49 -90 -27 -156 -68 -284 -175 -131 -111 -139 -74 -11 53 143 141 380 247
380 171z"/>
<path d="M5560 3698 c-38 -7 34 -13 161 -14 127 -1 244 7 260 17 32 20 -305
17 -421 -3z"/>
<path d="M3579 3677 c-74 -20 -229 -137 -182 -137 15 0 78 31 140 68 62 37
131 72 153 78 40 9 40 9 0 10 -22 0 -72 -9 -111 -19z"/>
<path d="M5660 3600 c-192 -12 -180 -18 65 -30 106 -5 135 -1 135 22 0 15 -2
26 -5 24 -3 -2 -90 -9 -195 -16z"/>
<path d="M3660 3567 c-270 -60 -356 -100 -309 -145 14 -14 512 -102 577 -102
6 0 17 36 24 80 15 93 42 100 109 29 51 -54 34 -88 -46 -89 -67 0 -34 -30 35
-31 38 -1 90 -11 115 -23 25 -11 69 -32 99 -46 91 -43 129 -12 73 59 -26 32
-63 65 -82 71 -19 7 -35 26 -35 41 0 16 -9 29 -20 29 -12 0 -57 24 -102 54
-45 29 -97 56 -115 59 -18 3 -73 13 -123 22 -58 11 -129 8 -200 -8z m-57 -152
c-14 -14 -39 -9 -77 16 -31 21 -65 35 -76 32 -11 -4 -13 1 -3 10 52 53 163 59
170 10 3 -26 -3 -57 -14 -68z"/>
<path d="M4090 3568 c33 -18 78 -48 100 -67 66 -58 106 -76 72 -34 -41 50
-124 106 -182 121 -43 12 -42 9 10 -20z"/>
<path d="M5930 3525 c-33 -4 -69 -18 -80 -29 -14 -15 -12 -18 4 -8 48 26 138
-10 97 -40 -19 -14 -48 -20 -63 -14 -15 5 -28 0 -28 -12 0 -12 32 -22 70 -22
67 0 70 3 70 70 0 39 -2 69 -5 67 -3 -2 -32 -7 -65 -12z"/>
<path d="M5540 3497 c0 -19 61 -39 82 -26 10 6 18 2 18 -10 0 -11 65 -53 145
-93 80 -40 162 -87 182 -105 35 -31 37 -30 30 16 -5 37 -26 56 -77 72 -166 52
-253 129 -145 129 17 0 25 7 17 15 -19 18 -252 21 -252 2z"/>
<path d="M5520 3420 c0 -11 8 -20 17 -20 10 0 52 -23 94 -52 43 -29 98 -55
124 -58 25 -2 91 -42 146 -88 87 -74 99 -79 99 -43 0 48 -55 85 -294 201 -178
87 -186 90 -186 60z"/>
<path d="M5147 3387 c-17 -7 -14 -40 13 -123 58 -180 284 -946 450 -1524 84
-291 188 -642 230 -780 43 -137 96 -308 117 -380 l39 -130 2 230 c2 252 17
188 -237 990 -55 176 -164 536 -242 800 -77 264 -163 551 -191 637 -27 87 -45
162 -39 168 12 13 -1 51 182 -525 141 -447 391 -1230 488 -1530 l42 -130 -11
200 c-6 110 -14 232 -17 270 -8 87 -96 368 -117 377 -9 3 -16 27 -16 53 0 26
-17 86 -37 134 -21 48 -44 119 -52 157 -7 38 -22 87 -32 109 -31 68 -319 955
-319 983 0 27 -197 37 -253 14z"/>
<path d="M5530 3320 c-38 -16 -38 -17 5 -21 25 -2 54 -6 65 -9 11 -3 26 -6 32
-7 7 -2 2 -16 -12 -33 -23 -28 -1 -38 80 -34 6 0 22 -12 36 -28 22 -24 14 -28
-46 -28 -44 0 -67 -8 -60 -20 7 -11 44 -17 81 -13 49 5 69 -1 69 -20 0 -15
-13 -27 -29 -27 -16 0 -35 -11 -43 -23 -10 -16 -4 -20 19 -11 21 8 39 2 45
-15 14 -35 60 -20 77 24 14 35 -143 211 -172 193 -9 -6 -17 -1 -17 9 0 23 -57
84 -76 82 -8 -1 -32 -10 -54 -19z"/>
<path d="M5828 3182 c66 -67 73 -83 53 -120 -18 -34 -17 -42 8 -42 18 0 25 12
18 30 -15 39 21 39 53 0 14 -17 30 -26 36 -20 12 11 -208 230 -231 230 -7 0
21 -35 63 -78z"/>
<path d="M3585 3193 c17 -18 42 -33 53 -33 11 0 70 -22 131 -49 81 -35 124
-44 165 -32 l56 16 -75 15 c-42 8 -80 23 -87 33 -6 10 -18 13 -27 7 -9 -5 -47
3 -84 18 -135 55 -169 62 -132 25z"/>
<path d="M959 3086 c-2 -63 -5 -69 -21 -36 -16 34 -17 32 -11 -15 4 -30 1 -55
-7 -55 -8 0 -10 -23 -5 -50 8 -43 14 -47 41 -25 27 22 29 19 16 -25 -8 -27
-18 -97 -21 -156 -4 -58 -17 -117 -29 -132 -18 -21 -15 -30 9 -40 46 -17 49
-16 49 25 0 39 78 49 105 13 8 -11 15 -5 15 15 0 19 -13 35 -30 35 -23 0 -25
11 -9 52 16 44 15 51 -11 41 -83 -32 -109 51 -37 122 31 32 37 73 7 55 -11 -7
-16 0 -11 14 29 84 28 166 0 127 -28 -37 -29 -37 -25 14 3 29 9 51 15 49 6 -2
14 5 17 16 3 11 -8 23 -25 26 -24 5 -31 -11 -32 -70z"/>
<path d="M4235 3134 c-41 -12 -75 -28 -75 -38 0 -9 -20 -16 -45 -17 -40 0 -41
-2 -10 -21 26 -15 44 -12 67 11 36 36 60 39 78 11 7 -11 37 -19 66 -18 54 3
54 3 -6 16 -56 13 -57 14 -15 26 25 7 45 22 45 34 0 25 -2 25 -105 -4z"/>
<path d="M2193 2924 c3 -41 0 -58 -5 -39 -6 19 -20 35 -31 35 -11 0 -14 -17
-8 -38 7 -21 3 -44 -8 -51 -12 -8 -21 2 -21 21 0 53 -21 20 -29 -45 -4 -40
-16 -55 -39 -51 -21 4 -32 -9 -33 -40 l-2 -46 -18 45 c-22 56 -46 60 -29 5 7
-22 4 -40 -6 -40 -11 0 -18 -16 -17 -35 2 -21 -11 -35 -32 -35 -19 0 -49 -21
-66 -45 -17 -25 -22 -45 -11 -45 11 0 29 16 40 35 13 22 21 25 21 9 1 -15 11
-20 23 -13 16 10 16 3 0 -27 -12 -23 -40 -47 -63 -54 -30 -10 -38 -24 -29 -57
10 -34 8 -37 -8 -13 -12 17 -22 66 -22 110 -1 79 -1 80 -35 36 -19 -24 -62
-54 -95 -67 -34 -14 -49 -28 -34 -33 14 -6 39 1 55 15 23 19 29 18 30 -4 0
-18 10 -14 30 12 29 38 29 38 29 0 0 -23 -27 -54 -63 -75 -47 -27 -57 -42 -41
-58 17 -17 33 -14 62 12 45 41 38 -16 -13 -98 -26 -44 -74 -7 -56 44 5 12 -4
33 -19 46 -21 18 -28 13 -34 -24 -4 -25 -17 -44 -30 -42 -12 3 -27 -7 -33 -22
-7 -19 2 -24 28 -17 22 5 39 18 39 29 0 10 10 12 22 5 13 -8 17 -39 10 -72 -7
-36 -4 -54 8 -47 11 7 14 -1 8 -19 -17 -44 -25 -39 -42 28 -13 48 -22 56 -46
39 -21 -15 -23 -24 -7 -31 15 -6 18 -28 8 -63 -17 -62 -15 -165 5 -197 14 -23
-1 -47 -29 -47 -10 0 -16 7 -15 15 8 46 -5 86 -23 74 -11 -7 -15 -29 -9 -49 6
-20 2 -42 -9 -49 -12 -8 -16 -1 -9 18 8 20 1 31 -18 31 -38 0 -57 -50 -42
-109 6 -26 2 -53 -10 -60 -14 -8 -17 0 -10 23 10 30 8 31 -9 6 -12 -16 -17
-52 -12 -80 l10 -50 -21 48 c-21 47 -22 47 -58 10 -41 -42 -23 -108 29 -108
16 0 29 -10 29 -21 0 -12 -8 -16 -18 -10 -38 23 -40 -118 -1 -146 45 -32 30
-82 -20 -69 -40 10 -83 -37 -45 -49 13 -5 24 -17 24 -28 0 -11 -9 -14 -20 -7
-11 7 -20 -7 -20 -30 0 -23 9 -37 20 -30 11 7 20 3 20 -9 0 -11 -13 -21 -28
-21 -24 0 -29 -35 -11 -80 2 -5 3 -17 1 -26 -1 -8 11 -20 28 -27 19 -7 30 -38
30 -84 1 -94 33 -49 51 71 15 94 61 100 81 9 23 -103 31 -123 50 -123 11 0 17
15 14 34 -4 25 8 35 43 35 44 1 52 14 72 114 25 125 41 154 236 424 75 105
134 193 130 197 -4 3 16 37 43 75 28 38 68 105 90 150 25 50 66 94 108 115
108 54 114 68 50 123 -84 72 -85 265 -2 391 52 79 54 88 25 120 -39 44 -40
130 -2 188 20 30 23 54 10 74 -10 17 -19 24 -19 16 0 -8 -30 -2 -66 14 l-66
27 5 -73z m-4 -369 c-16 -51 -48 -98 -83 -120 -18 -12 -17 -35 5 -98 16 -44
24 -89 18 -98 -6 -10 0 -34 13 -55 21 -33 11 -51 -79 -139 -57 -56 -103 -111
-103 -124 0 -13 -9 -18 -20 -11 -27 16 -17 -35 10 -55 12 -9 10 -15 -5 -15
-14 0 -25 -10 -25 -22 0 -12 -19 -48 -41 -80 -23 -32 -34 -58 -25 -59 9 0 0
-9 -19 -21 -19 -11 -53 -55 -75 -98 -30 -58 -49 -76 -75 -67 -23 7 -27 5 -11
-7 35 -25 7 -57 -81 -94 -119 -49 -170 -43 -158 18 5 27 18 44 29 38 11 -7 4
17 -14 53 -31 59 -31 67 -3 83 18 9 26 31 20 48 -7 17 6 47 31 71 30 27 40 53
31 81 -8 26 -6 36 7 28 12 -7 27 -42 35 -77 8 -36 19 -54 24 -40 4 14 19 19
32 12 13 -8 7 4 -12 26 -43 49 -43 61 -4 101 17 17 26 45 20 61 -6 16 4 44 24
62 19 18 38 45 41 60 10 50 97 163 114 148 9 -8 11 0 5 18 -7 18 1 50 16 70
23 29 27 30 18 4 -7 -18 -2 -39 11 -47 13 -8 21 -2 19 13 -13 92 73 237 141
237 13 0 19 14 13 30 -15 39 -4 38 37 -3 30 -30 32 -28 26 25 -5 47 1 57 31
52 22 -4 32 2 24 15 -7 11 1 21 19 21 25 0 29 -11 19 -45z m-682 -1262 c-2
-25 5 -28 35 -12 30 16 35 14 25 -10 -6 -17 -19 -26 -28 -21 -9 6 -22 2 -29
-10 -7 -11 -26 -20 -43 -20 -26 0 -26 4 2 32 27 27 28 38 7 63 -22 26 -21 30
4 21 17 -6 29 -25 27 -43z"/>
<path d="M1785 1906 c-32 -12 -34 -112 -1 -101 13 4 33 22 44 41 24 37 -3 75
-43 60z"/>
<path d="M4374 2985 c-12 -20 18 -98 43 -113 34 -21 43 19 17 75 -24 53 -44
66 -60 38z"/>
<path d="M1192 2964 c-8 -13 -9 -32 -3 -42 6 -10 -8 -13 -31 -7 -36 9 -40 5
-23 -27 11 -21 16 -48 11 -61 -4 -13 1 -29 13 -36 12 -8 21 -4 21 8 0 11 19
21 42 21 28 0 39 -9 31 -28 -16 -42 43 -56 66 -16 19 32 20 32 20 -1 1 -19 8
-33 16 -31 8 3 35 -6 59 -20 40 -22 43 -20 34 26 -13 74 6 61 49 -33 20 -45
43 -73 49 -63 15 24 -6 106 -27 106 -9 0 -16 27 -15 60 2 49 7 56 30 36 24
-19 26 -13 14 36 -19 80 -24 82 -61 30 l-31 -45 -48 45 -47 44 -19 -48 c-15
-38 -20 -40 -21 -11 -1 25 -11 33 -31 26 -16 -7 -30 -2 -30 9 0 11 -8 15 -18
9 -10 -6 -22 0 -27 13 -6 19 -11 19 -23 0z"/>
<path d="M4470 2959 c-8 -11 -3 -33 9 -48 12 -15 20 -34 17 -44 -6 -18 9 -27
44 -27 12 0 7 21 -10 47 -16 25 -25 51 -19 58 7 6 3 17 -8 23 -11 7 -26 3 -33
-9z"/>
<path d="M5770 2960 c-28 -12 -31 -18 -10 -21 17 -1 8 -10 -20 -19 -45 -14
-46 -16 -7 -18 50 -2 82 -102 33 -102 -35 0 -13 -23 95 -99 l69 -49 -55 65
c-64 77 -84 142 -67 213 7 28 10 49 7 49 -3 -1 -23 -10 -45 -19z"/>
<path d="M5853 2966 c-43 -43 -10 -161 67 -236 l80 -78 0 143 c0 78 -9 148
-20 155 -33 21 -113 31 -127 16z"/>
<path d="M4124 2900 c-29 -48 -31 -80 -4 -80 11 0 20 13 20 28 0 16 11 33 25
38 17 6 19 16 4 31 -14 16 -27 11 -45 -17z"/>
<path d="M1621 2850 c-1 -89 20 -150 51 -150 16 0 28 10 28 21 0 12 -8 16 -19
10 -10 -7 -18 14 -17 45 1 31 -8 74 -20 96 -21 34 -23 32 -23 -22z"/>
<path d="M1562 2835 c-19 -29 -20 -46 -6 -50 12 -4 17 -19 12 -33 -5 -14 3
-25 19 -25 22 0 27 17 18 71 -13 90 -11 88 -43 37z"/>
<path d="M2726 2846 c-7 -19 -3 -37 10 -41 13 -5 24 -26 24 -47 0 -21 14 -38
30 -38 17 0 30 18 30 40 0 22 -9 40 -20 40 -11 0 -19 7 -18 15 11 66 -33 91
-56 31z"/>
<path d="M2714 2709 c-6 -22 -10 -70 -9 -109 0 -38 5 -54 9 -35 5 20 19 30 33
22 12 -7 17 -6 9 2 -8 9 -6 32 4 51 12 23 10 46 -8 71 -26 35 -27 35 -38 -2z"/>
<path d="M5740 2704 c0 -8 27 -43 60 -78 68 -73 76 -96 25 -77 -27 10 -30 8
-11 -11 27 -27 148 -2 160 33 3 11 -48 49 -114 84 -66 35 -120 57 -120 49z"/>
<path d="M1269 2599 c-7 -12 -27 -16 -44 -10 -24 10 -26 6 -7 -16 18 -22 16
-31 -7 -40 -17 -7 -31 -1 -31 13 -1 15 -8 13 -20 -6 -16 -24 -23 -25 -36 -5
-13 20 -26 16 -54 -15 -35 -39 -35 -40 2 -40 30 -1 32 -4 10 -18 -16 -10 -40
-14 -53 -9 -27 11 -55 -23 -63 -78 -6 -38 27 -45 74 -15 25 16 25 19 2 20 -16
0 -22 7 -14 15 9 8 39 15 68 15 39 0 61 15 80 55 14 30 35 56 45 58 10 1 30 3
44 5 14 2 32 -11 40 -28 9 -17 11 -9 4 20 -7 28 -13 61 -14 75 -2 31 -9 32
-26 4z"/>
<path d="M1462 2576 c-1 -19 -22 -54 -47 -78 -25 -24 -34 -38 -20 -30 17 10
25 -1 26 -32 1 -34 9 -26 31 34 16 43 25 93 21 110 -7 24 -9 23 -11 -4z"/>
<path d="M2512 2494 c-8 -41 -22 -70 -32 -64 -31 19 -63 -69 -66 -180 -1 -59
-9 -103 -18 -97 -25 15 -19 -13 9 -39 14 -13 70 -25 125 -26 75 -1 121 -15
185 -58 84 -56 115 -130 55 -130 -16 0 -30 -17 -30 -39 0 -21 -8 -44 -18 -50
-9 -6 -21 -31 -26 -56 -11 -58 239 -79 285 -24 32 39 9 62 -31 29 -36 -30 -41
1 -5 37 20 21 16 33 -20 63 -59 48 -57 77 5 65 38 -7 50 -1 50 25 0 27 13 33
60 26 35 -5 60 0 60 12 0 14 6 13 16 -2 10 -15 25 -17 44 -6 25 16 24 23 -10
49 -22 16 -31 30 -20 31 45 2 -44 39 -95 40 -37 0 -55 -10 -55 -31 0 -18 9
-25 23 -17 13 8 19 3 13 -13 -13 -40 -56 -47 -56 -9 0 22 -15 31 -45 29 -25
-3 -81 11 -125 31 -44 19 -113 35 -154 35 -73 0 -73 1 -42 48 18 28 50 47 78
47 68 0 60 27 -37 128 -47 49 -83 98 -80 107 3 10 -2 40 -11 66 -17 44 -19 43
-32 -27z m364 -727 c-9 -51 -56 -57 -56 -9 0 25 13 42 31 42 19 0 29 -14 25
-33z"/>
<path d="M1238 2415 c-19 -65 -14 -77 22 -45 34 31 37 30 50 -9 13 -43 70 -58
70 -18 0 13 5 18 12 12 6 -6 1 -30 -11 -53 -30 -56 1 -53 56 4 53 57 43 71
-48 61 -52 -6 -69 0 -69 23 0 23 -75 47 -82 25z"/>
<path d="M3148 2381 c-97 -40 -214 -198 -129 -175 22 5 55 -2 75 -17 36 -27
119 -19 155 14 10 9 35 17 55 17 46 0 48 74 5 136 -32 45 -88 54 -161 25z"/>
<path d="M5920 2354 c-17 -13 -30 -44 -28 -69 1 -25 -4 -45 -12 -45 -22 0 -36
-115 -17 -144 12 -20 23 -16 46 14 106 140 114 327 11 244z"/>
<path d="M1216 2285 c-7 -25 0 -53 16 -67 17 -14 28 -15 28 -3 0 11 18 25 40
31 22 6 40 21 40 35 0 18 -7 18 -30 -1 -22 -19 -30 -19 -30 -1 0 13 -8 18 -18
12 -10 -6 -22 0 -27 13 -4 14 -13 5 -19 -19z"/>
<path d="M1473 2245 c3 -14 -3 -26 -14 -27 -10 -2 -30 -4 -44 -6 -14 -2 -30 4
-36 13 -13 17 -99 -49 -99 -75 0 -9 -13 -26 -29 -38 -26 -19 -26 -27 0 -61 16
-21 29 -28 29 -15 0 12 14 18 30 11 22 -8 27 -2 18 21 -7 17 -20 27 -30 21
-10 -6 -13 2 -7 17 7 17 33 26 65 22 30 -3 70 9 91 28 43 39 88 116 57 96 -11
-7 -24 -5 -29 3 -5 8 -6 4 -2 -10z"/>
<path d="M1132 2066 c-18 -51 -25 -99 -17 -105 8 -6 18 -47 22 -91 3 -44 14
-87 22 -96 9 -9 13 9 10 40 -22 198 -10 274 50 320 27 22 26 25 -12 25 -34 1
-50 -19 -75 -93z"/>
<path d="M3892 2127 c-9 -22 -19 -28 -28 -14 -8 11 -30 21 -49 21 -33 -1 -33
-3 -2 -37 20 -23 42 -30 55 -20 12 10 33 21 46 25 15 5 18 18 8 35 -13 21 -19
19 -30 -10z"/>
<path d="M5944 2060 l-45 -80 50 0 c46 0 51 8 51 80 0 98 0 98 -56 0z"/>
<path d="M1358 1990 c-1 -22 -1 -48 1 -58 2 -10 -10 -8 -26 6 -16 13 -34 17
-39 8 -19 -32 -38 -156 -21 -136 10 11 43 48 74 83 46 51 53 70 36 100 -21 35
-22 35 -25 -3z"/>
<path d="M3453 2007 c-7 -8 -13 -27 -13 -44 0 -24 5 -26 24 -7 13 13 33 24 44
24 12 0 11 -9 -2 -22 -13 -13 -18 -35 -12 -50 8 -22 15 -21 40 3 27 28 27 35
-5 70 -37 41 -54 47 -76 26z"/>
<path d="M4084 1961 c-2 -32 6 -65 19 -73 14 -8 18 -6 10 8 -8 11 -5 26 5 33
20 12 6 91 -16 91 -7 0 -16 -26 -18 -59z"/>
<path d="M1200 1977 c0 -19 -5 -48 -12 -65 -8 -21 -1 -32 21 -32 19 0 27 9 20
21 -7 12 4 35 24 52 20 16 25 24 10 16 -15 -8 -35 -2 -45 13 -14 23 -17 21
-18 -5z"/>
<path d="M3150 1947 c-13 -13 -36 -22 -52 -20 -15 2 -28 -6 -28 -17 0 -11 9
-17 20 -13 11 3 14 0 6 -8 -26 -26 26 -92 96 -121 37 -16 68 -40 68 -54 0 -26
-224 -88 -277 -77 -14 3 -31 -13 -37 -36 -12 -47 -46 -56 -46 -11 0 36 -79 41
-82 5 -1 -14 -4 -45 -6 -70 -7 -56 2 -56 45 -4 l34 42 56 -44 55 -44 45 43
c50 46 93 55 93 19 0 -13 21 -4 46 20 26 23 57 43 70 43 13 0 24 8 24 18 0 10
18 13 41 8 22 -6 39 -3 37 6 -7 42 4 51 32 28 25 -21 30 -17 30 28 0 31 -10
50 -25 47 -14 -3 -23 6 -20 20 3 14 -8 25 -25 25 -16 0 -28 7 -25 15 10 31
-51 144 -71 131 -12 -7 -16 -1 -10 16 14 37 -59 40 -94 5z"/>
<path d="M2309 1895 c-7 -19 -20 -31 -28 -25 -8 5 -11 -15 -5 -45 l10 -53 18
49 c15 39 21 43 37 19 16 -26 18 -26 18 0 0 56 -35 94 -50 55z"/>
<path d="M894 1853 c-8 -20 -23 -30 -34 -23 -11 7 -20 -6 -20 -28 0 -22 11
-46 25 -54 14 -8 18 -7 10 2 -8 9 -1 33 17 52 18 20 28 47 24 61 -6 16 -13 13
-22 -10z"/>
<path d="M2611 1862 c-17 -28 10 -82 41 -82 17 0 28 21 28 50 0 49 -45 70 -69
32z"/>
<path d="M4950 1805 c31 -112 54 -217 64 -290 11 -81 31 -92 79 -44 22 21 28
52 20 105 -41 267 -48 284 -128 284 -44 0 -48 -6 -35 -55z"/>
<path d="M963 1765 c1 -82 -26 -232 -47 -259 -12 -15 -11 -37 2 -60 19 -34 21
-34 22 4 0 22 9 53 18 68 12 18 17 0 16 -54 -1 -45 -8 -78 -16 -73 -8 5 -19
-5 -26 -22 -6 -18 -3 -26 8 -19 11 7 20 -2 20 -19 0 -17 11 -31 25 -31 14 0 3
-12 -23 -25 -27 -14 -53 -38 -58 -55 -7 -24 -4 -25 17 -5 19 17 33 18 53 2 20
-17 29 -8 39 41 7 35 20 68 30 74 10 6 11 21 3 34 -9 13 -17 65 -18 116 -2 51
-14 111 -26 134 -16 29 -16 45 -1 55 12 7 17 25 11 40 -6 15 -1 33 10 40 13 8
12 22 -3 41 -37 43 -58 33 -56 -27z"/>
<path d="M3490 1700 c-7 -11 -21 -15 -32 -9 -29 18 -12 -38 20 -63 20 -16 22
-26 5 -36 -13 -8 -23 -4 -23 8 0 12 -9 17 -20 10 -13 -8 -8 -24 11 -44 17 -17
36 -25 43 -18 7 6 6 12 -1 12 -20 0 51 73 80 82 14 5 3 23 -24 43 -29 22 -51
27 -59 15z"/>
<path d="M3820 1650 c-24 -74 -54 -90 -73 -40 -6 16 -19 25 -29 19 -9 -6 10
-48 43 -93 33 -46 57 -93 53 -104 -4 -12 24 -50 61 -86 38 -35 63 -73 56 -84
-6 -10 -3 -25 8 -31 10 -7 14 -25 8 -42 -6 -16 0 -29 13 -29 15 0 20 -16 14
-39 -5 -22 2 -49 16 -61 37 -31 54 -141 27 -173 -18 -22 -16 -25 10 -15 22 8
33 2 33 -20 0 -28 4 -28 36 3 31 31 32 44 10 110 -15 42 -30 123 -34 180 -10
138 -10 135 -27 133 -48 -8 -74 3 -48 20 21 13 18 25 -18 58 -25 23 -39 55
-33 72 8 21 1 27 -27 22 -21 -4 -37 -1 -35 6 4 23 -29 93 -52 108 -13 9 -8 27
14 51 38 42 44 77 16 94 -11 6 -29 -20 -42 -59z"/>
<path d="M5160 1697 c0 -13 6 -18 13 -10 8 7 35 -1 60 -17 39 -26 47 -26 47
-3 0 16 -20 34 -45 40 -64 18 -75 16 -75 -10z"/>
<path d="M5468 1582 c-87 -100 -94 -137 -50 -263 74 -210 73 -239 -8 -334 -70
-82 -150 -113 -150 -59 0 14 32 57 72 95 99 96 121 139 63 124 -25 -6 -52 -24
-62 -39 -12 -22 -23 -23 -44 -5 -15 12 -37 17 -48 10 -13 -8 -21 12 -22 53 l0
66 -40 -47 c-50 -61 -53 -162 -4 -165 21 -1 25 -5 10 -11 -36 -15 -31 -82 8
-103 26 -15 30 -36 21 -96 -9 -53 -7 -68 6 -48 25 38 25 -3 0 -80 l-16 -50 -2
48 c-1 27 -7 43 -14 37 -20 -21 14 -136 36 -122 15 8 18 -24 12 -99 -5 -62 -3
-108 5 -103 18 11 38 -62 39 -135 0 -29 10 -60 23 -68 24 -14 22 1 -20 238
-10 59 -10 100 2 107 12 7 15 78 8 175 -13 176 1 155 55 -81 38 -171 42 -255
9 -235 -16 10 -18 -2 -6 -44 9 -32 16 -83 16 -113 -2 -76 23 -70 29 7 3 35 -6
77 -21 94 -22 27 -20 28 19 7 43 -23 44 -21 36 83 -11 156 18 173 50 29 l28
-125 16 90 c9 50 12 110 6 135 -7 30 3 56 30 79 22 19 40 49 40 65 1 25 4 26
18 4 14 -23 19 -23 28 0 6 15 12 -12 12 -59 1 -48 -6 -82 -15 -76 -43 27 -89
-40 -67 -100 18 -49 21 -51 22 -14 2 48 45 86 57 51 4 -13 19 -18 34 -13 17 7
26 -7 26 -40 0 -28 -8 -46 -17 -40 -10 5 -18 -31 -18 -81 0 -64 8 -91 28 -91
33 0 58 -82 32 -108 -11 -11 -6 -40 12 -75 39 -75 54 -72 38 8 l-12 65 40 -50
c23 -27 41 -54 42 -60 0 -5 23 -11 52 -13 47 -3 51 2 40 55 -7 32 -18 86 -25
121 -10 48 -7 59 12 48 28 -18 31 -30 -60 269 -194 640 -277 924 -300 1026
-32 143 -34 144 -111 56z m74 -647 c5 -77 14 -129 28 -162 14 -32 10 -36 -30
-23 -46 15 -46 14 -35 -138 7 -91 5 -148 -7 -141 -10 6 -18 42 -18 80 0 38 -9
69 -20 69 -11 0 -20 13 -20 29 0 16 -8 34 -18 40 -10 6 -13 -9 -7 -34 7 -31 4
-39 -11 -25 -31 30 -38 161 -8 155 14 -3 24 17 24 48 0 30 6 48 13 40 8 -7 12
-44 11 -83 -2 -38 5 -70 14 -70 23 0 44 139 29 195 -9 33 -3 45 21 45 17 0 33
-11 34 -25z m290 -627 c-10 -25 -19 -29 -35 -13 -12 12 -16 38 -9 57 10 25 19
29 35 13 12 -12 16 -38 9 -57z m28 -108 c0 -22 11 -41 25 -42 19 -1 19 -4 -1
-12 -14 -5 -43 10 -65 35 -48 56 -48 59 1 59 27 0 40 -13 40 -40z"/>
<path d="M2631 1575 c-32 -24 -82 -47 -110 -51 -27 -4 -55 -14 -61 -22 -5 -9
-46 -27 -90 -40 -142 -44 -298 -128 -397 -216 -99 -87 -168 -113 -145 -55 22
58 -23 10 -48 -51 -19 -45 -19 -67 -2 -87 30 -37 -36 -185 -105 -235 -10 -7
-19 -40 -22 -72 -2 -33 -24 -79 -48 -103 -24 -24 -43 -52 -43 -63 0 -11 -16
-21 -35 -22 -21 -1 -25 -5 -10 -11 19 -8 17 -18 -6 -41 -37 -37 -93 -20 -76
23 8 21 2 28 -16 21 -18 -7 -28 6 -30 40 -5 90 -28 153 -53 145 -26 -9 -35
-135 -10 -135 28 0 17 -76 -15 -109 -19 -18 -22 -31 -9 -31 12 0 16 -10 9 -21
-7 -12 -24 -18 -37 -13 -13 6 -25 -8 -27 -31 -2 -22 -22 -61 -45 -85 -28 -30
-35 -51 -22 -59 12 -7 22 1 22 18 0 17 9 31 20 31 12 0 16 -23 9 -55 -9 -42
-7 -48 9 -25 18 25 21 23 22 -14 0 -24 8 -49 19 -55 32 -20 44 26 19 73 -18
34 -18 46 0 52 18 6 17 16 -2 40 -14 17 3 10 39 -16 62 -45 83 -80 49 -80 -9
0 -27 11 -40 24 -13 13 -24 18 -24 11 0 -6 14 -26 31 -43 18 -19 25 -42 16
-57 -26 -41 -25 -73 3 -62 14 5 24 25 23 43 -2 21 12 34 37 34 28 1 38 12 33
38 -4 26 3 34 24 26 32 -12 90 60 104 129 4 23 38 78 75 124 72 88 154 234
155 277 0 14 27 80 60 145 32 66 59 131 59 144 0 39 121 129 260 194 l130 61
379 2 378 1 60 -55 61 -55 -54 10 c-39 7 -54 1 -54 -21 0 -16 7 -31 15 -32
115 -13 160 -8 192 20 21 17 43 28 50 22 7 -5 16 6 19 26 5 22 -3 35 -19 33
-54 -7 -73 2 -83 41 -12 46 16 54 40 12 9 -16 43 -32 76 -35 35 -4 60 -19 60
-35 0 -41 110 -75 131 -41 13 22 22 22 47 0 45 -37 39 -66 -10 -50 -31 10 -59
-4 -108 -51 -37 -36 -76 -58 -88 -51 -12 7 -22 4 -22 -7 0 -11 -17 -16 -39
-12 -29 5 -36 -1 -26 -26 11 -31 8 -31 -28 1 -28 24 -46 28 -61 13 -11 -11
-51 -20 -88 -18 -38 1 -99 2 -137 2 -38 0 -82 10 -97 23 -16 13 -32 15 -41 4
-17 -24 -383 -28 -383 -4 0 9 -9 12 -20 5 -11 -7 -20 11 -20 41 0 52 -83 60
-120 12 -11 -15 -20 -16 -158 -20 -132 -4 -175 -123 -45 -123 29 0 82 -8 117
-18 45 -13 67 -12 73 5 6 13 11 5 12 -17 1 -31 6 -34 19 -12 14 22 112 29 495
32 540 4 573 9 733 105 124 74 168 74 182 1 4 -25 17 -91 28 -146 13 -63 14
-112 2 -135 -13 -24 -12 -35 4 -35 12 0 18 -17 13 -37 -12 -44 91 -209 117
-187 9 8 4 -2 -11 -22 -21 -27 -22 -41 -4 -59 13 -13 23 -44 23 -69 0 -28 12
-46 31 -46 17 0 26 -8 20 -19 -6 -10 -2 -24 9 -31 13 -8 19 21 17 79 -2 50
-10 91 -18 91 -46 0 -31 63 22 94 l60 35 -65 22 c-74 25 -156 153 -106 165 20
5 14 28 -22 90 -26 46 -48 111 -48 145 0 115 -92 263 -172 278 -69 13 -200 75
-287 136 -47 33 -121 25 -121 -12 0 -14 -8 -12 -18 4 -12 19 -74 30 -205 34
-260 10 -267 12 -268 84 -3 110 -56 141 -138 80z"/>
<path d="M3593 1546 c-7 -7 -1 -26 12 -43 20 -24 20 -28 0 -16 -44 27 -25 -15
39 -87 48 -54 55 -57 29 -16 -18 30 -33 77 -33 104 0 51 -24 81 -47 58z"/>
<path d="M5196 1461 c-100 -78 -185 -306 -94 -250 10 6 18 1 18 -12 0 -18 8
-18 30 1 17 14 30 40 30 57 -1 29 -3 29 -22 3 -16 -23 -17 -18 -7 20 8 28 36
80 63 116 62 83 52 120 -18 65z"/>
<path d="M1240 1435 c0 -11 -13 -14 -30 -8 -21 8 -30 -1 -28 -33 0 -24 6 -32
12 -18 8 21 18 20 46 -6 33 -30 36 -28 44 26 5 38 -1 57 -18 57 -14 0 -26 -8
-26 -18z"/>
<path d="M5292 1335 c-57 -75 -57 -145 0 -145 29 0 38 15 40 61 1 33 13 80 26
105 36 68 -9 53 -66 -21z"/>
<path d="M4670 1220 c-7 -12 -17 -45 -23 -75 -5 -29 -20 -67 -33 -82 -25 -30
-22 -122 6 -150 19 -21 -59 -116 -83 -101 -9 6 -17 -6 -17 -27 0 -20 -7 -46
-15 -56 -8 -11 15 10 51 46 64 62 121 89 93 43 -9 -13 0 -19 22 -15 39 8 96
178 81 242 -5 19 -2 35 5 35 8 0 11 36 6 80 -7 79 -60 113 -93 60z"/>
<path d="M2570 1142 c4 -29 8 -59 9 -67 3 -32 37 -13 47 27 14 54 0 91 -35 91
-18 0 -25 -18 -21 -51z"/>
<path d="M2955 1167 c54 -22 -9 -81 -77 -71 -38 6 -59 2 -52 -10 12 -19 140
-17 173 3 29 18 -1 91 -36 89 -21 -1 -24 -5 -8 -11z"/>
<path d="M0 1063 c0 -52 16 -69 125 -132 229 -133 302 -182 310 -206 11 -32
-27 -17 -195 79 -72 40 -155 83 -185 94 l-55 21 2 -191 c1 -191 46 -249 62
-82 9 91 71 99 81 10 l9 -66 3 63 c3 57 69 108 100 76 6 -5 -1 -9 -14 -9 -85
0 6 -177 112 -219 36 -14 65 -38 65 -53 0 -33 -4 -34 -64 -9 -25 10 -71 24
-102 30 -31 7 -52 19 -47 27 18 30 -17 83 -44 66 -40 -25 -10 -145 34 -139 48
6 266 -105 256 -131 -4 -12 -20 -19 -36 -15 -15 4 -58 10 -97 13 -38 4 -78 7
-87 8 -10 1 -7 15 6 30 29 35 11 48 -114 79 -73 18 -96 34 -106 73 -8 28 -14
-66 -15 -207 -1 -219 3 -255 28 -245 17 7 25 3 18 -8 -25 -41 144 -21 200 23
l55 44 -14 -44 c-13 -42 15 -62 37 -26 6 10 48 15 93 12 73 -6 82 -2 73 31 -5
21 2 54 17 75 45 65 61 194 22 179 -39 -15 -40 -11 -10 55 35 77 92 67 84 -14
-7 -63 0 -55 37 43 32 86 60 19 29 -69 -15 -44 -33 -124 -41 -179 -15 -112
-12 -110 108 58 28 39 62 75 76 81 29 12 -24 -70 -131 -204 l-68 -85 182 0
c99 0 181 4 181 9 0 5 -35 88 -78 185 -44 97 -84 201 -91 232 -7 31 -20 51
-30 45 -10 -6 -14 27 -11 74 5 59 3 70 -7 35 -9 -31 -20 -41 -29 -27 -8 13 -8
40 -1 60 9 25 -8 17 -55 -26 -78 -73 -97 -78 -213 -57 -98 17 -129 47 -67 64
23 6 42 27 42 47 0 20 10 43 23 51 16 10 20 -2 13 -39 -11 -54 38 -81 52 -28
3 14 15 54 27 89 24 75 -7 118 -71 97 -23 -7 -59 5 -92 31 -59 46 -332 243
-369 266 -15 10 -23 -5 -23 -45z m209 -841 c27 -44 -27 -117 -93 -127 -80 -13
-97 1 -74 60 24 63 141 109 167 67z"/>
<path d="M821 1030 c-19 -88 -9 -145 24 -139 19 4 35 -2 35 -12 0 -11 -13 -19
-30 -19 -34 0 -35 -15 -17 -147 8 -64 23 -95 48 -103 20 -7 40 -32 45 -56 l9
-44 2 45 c2 25 15 45 30 45 36 0 41 138 6 152 -15 5 -26 22 -26 38 0 16 7 24
15 19 8 -5 20 -1 27 9 6 11 -7 25 -29 32 -23 7 -40 24 -38 37 7 54 -4 73 -41
73 -24 0 -41 17 -47 45 -5 25 -10 36 -13 25z"/>
<path d="M1399 910 c-15 -126 -14 -128 31 -82 24 23 24 33 0 65 -16 20 -30 28
-31 17z"/>
<path d="M1172 809 c-18 -49 -15 -84 6 -52 9 14 24 26 34 25 26 -3 22 43 -5
52 -12 4 -28 -7 -35 -25z"/>
<path d="M2354 815 c-18 -14 -52 -61 -75 -105 -23 -44 -37 -64 -31 -45 19 63
-20 37 -64 -43 -24 -43 -58 -83 -74 -89 -17 -7 -30 -26 -30 -45 0 -19 -11 -28
-27 -22 -15 6 -39 -7 -54 -28 -15 -21 -36 -38 -45 -38 -41 0 -196 -173 -214
-239 -25 -89 -25 -101 0 -101 11 0 18 7 15 16 -3 9 60 87 140 174 80 86 145
146 145 133 0 -12 14 -23 31 -23 28 0 28 -4 1 -44 -18 -25 -26 -63 -19 -90 7
-28 2 -46 -11 -46 -13 0 -29 -15 -36 -33 -7 -18 -39 -59 -72 -90 l-60 -57 101
0 c94 0 100 3 90 43 -9 33 -4 41 19 32 17 -6 45 6 64 28 36 42 27 77 -19 77
-18 0 -23 12 -15 34 8 21 16 25 21 10 5 -13 21 -24 37 -24 15 0 28 -17 28 -39
0 -30 13 -38 59 -37 33 1 55 9 50 18 -5 8 -1 21 11 28 11 7 20 34 20 61 0 55
35 66 54 17 11 -29 14 -29 31 2 16 29 23 30 39 7 15 -21 17 -20 9 7 -6 18 7
56 29 85 44 55 34 101 -17 82 -18 -7 -38 -2 -46 11 -10 15 -19 9 -28 -18 -7
-23 -28 -47 -47 -53 -19 -6 -59 -34 -89 -62 -30 -28 -55 -41 -55 -29 0 12 -7
18 -16 13 -8 -6 -15 7 -15 28 0 22 7 39 15 39 9 0 16 12 16 27 0 31 207 233
239 233 35 0 51 -9 46 -25 -3 -8 5 -15 16 -15 12 0 16 17 10 37 -7 22 1 48 19
63 16 14 30 37 30 52 0 19 -13 15 -42 -14 -23 -23 -47 -35 -55 -28 -7 7 3 22
22 32 19 11 35 34 35 51 0 26 -5 27 -30 7 -16 -14 -30 -18 -30 -10 0 8 -13 4
-28 -9 -38 -31 -64 10 -31 50 31 38 -18 41 -67 4z m-214 -350 c-1 -51 -32 -92
-58 -76 -15 9 -11 28 13 62 42 58 45 59 45 14z"/>
<path d="M4709 745 c-22 -98 -73 -251 -162 -481 -100 -259 -101 -264 -47 -264
32 0 62 46 140 212 61 130 109 209 125 204 25 -8 154 -247 193 -358 15 -44 33
-58 71 -58 97 0 64 115 -165 575 -119 239 -136 258 -155 170z"/>
<path d="M5045 760 c6 -27 23 -117 38 -200 23 -131 28 -142 41 -90 11 46 13
37 8 -35 -4 -52 1 -89 10 -84 10 6 12 -16 5 -50 -7 -36 -2 -73 13 -91 14 -17
19 -51 12 -80 -7 -29 -4 -50 8 -50 11 0 20 -18 20 -40 0 -29 13 -40 50 -40 52
0 53 31 8 180 -14 47 -15 46 -16 -15 -1 -36 -11 -65 -22 -65 -12 0 -18 48 -16
115 4 105 -68 496 -96 523 -7 7 -8 -37 -1 -98 l11 -110 -26 126 c-15 69 -34
132 -42 140 -9 8 -11 -8 -5 -36z"/>
<path d="M3150 760 c-7 -11 -39 -20 -71 -20 -39 0 -59 -10 -59 -29 0 -19 13
-26 35 -19 33 11 33 10 0 -11 -19 -13 -35 -43 -35 -67 0 -24 7 -35 15 -24 8
11 26 20 40 20 14 0 26 9 28 20 2 11 15 29 30 40 15 11 31 40 36 65 9 48 1 58
-19 25z"/>
<path d="M1260 722 c0 -10 -20 -14 -45 -10 -25 5 -34 3 -20 -3 14 -7 25 -25
25 -40 0 -43 51 -13 55 32 1 21 -1 39 -6 39 -5 0 -9 -8 -9 -18z"/>
<path d="M2812 630 c-10 -40 -20 -50 -31 -32 -12 20 -20 20 -31 3 -26 -42 11
-51 71 -17 50 29 59 29 59 5 0 -16 9 -29 20 -29 11 0 20 14 20 30 0 27 -11 33
-54 29 -8 -1 -20 14 -27 34 -10 29 -15 24 -27 -23z"/>
<path d="M3355 628 c-6 -5 -3 -43 6 -83 9 -41 14 -77 10 -81 -4 -3 33 -46 81
-95 49 -49 88 -100 88 -112 0 -13 5 -19 11 -12 7 6 -7 52 -30 102 -22 50 -41
98 -41 107 -1 27 -114 185 -125 174z"/>
<path d="M2524 476 c3 -23 17 -47 31 -51 37 -12 31 69 -6 83 -24 9 -30 1 -25
-32z"/>
<path d="M1038 489 c-2 -10 -2 -26 0 -34 4 -25 -54 -17 -65 10 -5 14 -11 4
-11 -21 -1 -31 6 -41 21 -32 17 10 20 3 10 -24 -12 -36 -12 -36 15 -2 26 34
29 33 48 -20 17 -49 21 -52 35 -19 9 23 5 43 -10 53 -20 12 -20 17 2 25 21 8
20 18 -8 47 -19 20 -36 28 -37 17z"/>
<path d="M2970 460 c-7 -11 -2 -20 10 -20 13 0 38 -15 56 -33 25 -25 34 -26
41 -6 15 45 -82 99 -107 59z"/>
<path d="M3107 393 c7 -20 13 -49 13 -65 0 -15 14 -28 30 -28 40 0 38 14 -13
77 -27 33 -38 39 -30 16z"/>
<path d="M2904 325 c4 -40 -2 -54 -24 -50 -20 3 -31 -14 -33 -50 -1 -30 -5
-64 -10 -75 -4 -11 2 -22 13 -25 11 -2 26 19 34 47 7 29 29 63 48 77 24 18 30
40 21 78 -18 70 -56 68 -49 -2z"/>
<path d="M3220 311 c0 -17 13 -31 28 -31 34 0 29 -69 -5 -72 -13 -2 -31 -4
-41 -5 -10 -2 -25 -39 -32 -83 -7 -44 -22 -80 -32 -80 -10 0 -18 -11 -17 -25
1 -39 79 65 79 106 0 76 64 64 89 -17 13 -43 16 -44 40 -12 29 39 18 108 -16
108 -13 0 -9 9 7 20 20 13 22 19 5 20 -14 0 -25 13 -25 29 0 16 -18 39 -40 51
-32 17 -40 15 -40 -9z"/>
<path d="M3012 191 c-7 -26 -27 -63 -45 -81 -26 -26 -28 -37 -7 -56 20 -19 23
-18 11 6 -8 17 4 9 26 -16 36 -40 41 -41 42 -10 1 20 5 74 8 121 7 92 -15 115
-35 36z"/>
<path d="M5421 180 c-1 -16 -7 -62 -13 -100 -11 -65 -8 -71 40 -75 59 -5 78
97 25 129 -15 9 -32 30 -38 46 -11 27 -12 27 -14 0z"/>
<path d="M551 104 c-8 -48 -10 -92 -4 -97 14 -15 39 124 28 157 -5 14 -16 -13
-24 -60z"/>
<path d="M3846 127 c6 -6 3 -37 -7 -69 -16 -58 -15 -59 51 -55 45 3 62 12 51
26 -9 12 -20 38 -24 59 -4 21 -24 41 -44 44 -20 3 -32 0 -27 -5z"/>
<path d="M5582 96 c11 -20 15 -45 9 -55 -7 -10 -3 -24 9 -31 12 -7 20 15 20
55 0 46 -9 68 -29 68 -22 0 -24 -9 -9 -37z"/>
<path d="M3547 58 c0 -44 9 -58 38 -58 28 0 36 9 27 32 -7 17 -12 39 -12 47 0
9 -12 21 -27 27 -18 7 -26 -8 -26 -48z"/>
<path d="M5643 65 c-2 -46 6 -65 27 -65 17 0 30 14 30 31 0 17 -8 26 -19 20
-10 -6 -22 9 -27 34 -6 33 -9 28 -11 -20z"/>
<path d="M1462 64 c-11 -19 -26 -31 -35 -28 -9 4 -19 -3 -23 -14 -5 -14 34
-22 104 -22 115 0 127 8 90 60 -16 23 -24 24 -31 5 -6 -14 -25 -25 -44 -25
-26 1 -27 4 -6 18 21 13 20 19 -5 28 -18 7 -39 -2 -50 -22z"/>
</g>
</svg>
