<?xml version="1.0" standalone="no"?>
<!DOCTYPE svg PUBLIC "-//W3C//DTD SVG 20010904//EN"
 "http://www.w3.org/TR/2001/REC-SVG-20010904/DTD/svg10.dtd">
<svg version="1.0" xmlns="http://www.w3.org/2000/svg"
 width="300.000000pt" height="310.000000pt" viewBox="0 0 300.000000 310.000000"
 preserveAspectRatio="xMidYMid meet">
<metadata>
Created by potrace 1.10, written by Peter Selinger 2001-2011
</metadata>
<g transform="translate(0.000000,310.000000) scale(0.100000,-0.100000)"
fill="#000000" stroke="none">
<path d="M0 1850 l0 -1249 68 -41 c37 -23 76 -46 87 -53 11 -7 22 -15 25 -18
3 -4 27 -21 54 -38 l50 -31 32 31 32 31 -5 126 c-4 84 -10 134 -19 147 -19 27
-17 64 5 101 16 26 20 54 21 160 2 71 -1 137 -5 148 -5 11 -3 21 4 25 8 6 11
32 8 86 -3 51 0 96 9 126 8 26 12 62 10 80 -2 19 1 40 5 49 8 13 43 139 104
373 17 63 19 66 36 51 16 -14 18 -14 27 2 6 11 16 15 26 11 10 -4 14 -11 11
-17 -3 -6 1 -7 9 -4 10 4 14 15 12 29 -2 12 0 28 5 36 9 15 10 14 14 -38 1
-18 5 -39 9 -48 9 -24 26 -18 26 10 0 41 19 28 31 -20 11 -45 36 -58 32 -16
-4 29 13 26 21 -4 4 -14 11 -25 16 -25 22 0 7 -32 -37 -80 -58 -63 -77 -90
-69 -97 3 -4 23 11 43 33 62 64 143 112 143 85 0 -6 -6 -11 -13 -11 -7 0 -38
-22 -68 -49 -31 -27 -71 -58 -89 -68 -19 -11 -36 -25 -38 -32 -3 -8 0 -11 7
-7 6 4 11 3 11 -3 0 -5 18 -1 40 10 34 17 73 26 118 28 10 1 10 6 2 22 -7 11
-9 23 -7 26 7 6 37 -52 37 -72 0 -8 5 -15 10 -15 15 0 12 -30 -2 -31 -7 0 -5
-4 6 -8 15 -6 10 -10 -28 -25 -25 -10 -48 -22 -51 -27 -4 -5 1 -6 9 -3 10 4
16 1 16 -8 0 -10 26 -17 93 -26 103 -14 132 -9 195 33 23 15 56 35 74 44 18 9
48 36 66 61 19 25 44 50 56 57 11 6 21 15 21 20 1 4 6 18 13 31 7 12 10 22 6
22 -4 0 1 9 11 20 22 24 35 26 35 5 0 -8 -7 -15 -15 -15 -8 0 -15 -4 -15 -10
0 -5 6 -10 13 -10 10 0 104 -45 116 -56 6 -6 2 -174 -5 -185 -3 -5 -1 -9 5 -9
9 0 4 -27 -16 -80 -4 -8 -5 -19 -4 -23 0 -4 -12 -35 -28 -68 -17 -32 -28 -66
-25 -74 4 -8 1 -15 -5 -15 -25 0 -32 -51 -16 -113 8 -33 14 -62 11 -64 -2 -2
-13 15 -25 39 -12 24 -37 61 -57 82 l-35 40 -32 -19 c-41 -24 -64 -53 -72 -87
-9 -39 -23 -44 -36 -11 -14 37 -6 93 21 145 18 34 19 45 10 68 -6 15 -12 40
-12 56 -1 24 -5 29 -29 31 -16 1 -31 -2 -34 -7 -4 -6 -15 -10 -27 -10 -13 0
-18 -5 -15 -14 4 -9 -4 -16 -24 -20 -17 -3 -29 -12 -29 -21 0 -8 -4 -15 -10
-15 -5 0 -10 -6 -10 -14 0 -12 -33 -29 -51 -27 -4 0 -6 -7 -5 -17 0 -9 -5 -16
-12 -14 -17 3 -39 -19 -43 -43 -2 -11 -19 -29 -36 -41 -18 -12 -29 -25 -25
-29 4 -5 -1 -5 -10 -2 -12 4 -15 2 -11 -9 3 -8 -1 -14 -10 -14 -17 0 -81 -59
-73 -68 3 -3 15 3 26 13 22 20 26 9 6 -17 -7 -10 -16 -15 -19 -11 -4 3 -7 -1
-7 -10 0 -9 -4 -17 -10 -17 -5 0 -10 -7 -10 -15 0 -8 -9 -19 -19 -25 -28 -14
-37 -76 -44 -280 -1 -41 -5 -79 -8 -85 -3 -5 -12 -37 -19 -70 -7 -33 -17 -65
-22 -71 -4 -6 -3 -25 3 -42 10 -28 7 -36 -19 -76 -17 -24 -33 -54 -37 -65 -3
-12 -10 -19 -15 -16 -5 3 -14 -10 -20 -29 -8 -26 -8 -40 0 -57 7 -11 10 -30 7
-40 -3 -10 -1 -17 4 -13 10 6 12 -26 3 -50 -10 -26 -20 -19 -40 29 -10 25 -21
45 -25 45 -4 0 -12 22 -19 50 -7 27 -16 50 -22 50 -5 0 -6 5 -3 10 4 6 3 10
-2 9 -4 -1 -16 1 -25 5 -9 4 -25 3 -35 -2 -13 -7 -24 -6 -37 3 -14 11 -17 24
-14 67 3 51 2 53 -23 54 -15 1 -58 27 -108 65 -45 36 -95 73 -111 83 l-30 17
0 -36 c0 -20 5 -46 11 -57 8 -15 8 -19 0 -14 -8 5 -11 -60 -11 -228 l0 -236
141 1 c134 1 141 2 149 22 l9 22 0 -22 1 -23 1350 0 1350 0 0 1550 0 1550
-1500 0 -1500 0 0 -1250z m917 643 c-4 -3 -7 0 -7 7 0 7 3 10 7 7 3 -4 3 -10
0 -14z m-70 -30 c-8 -15 -25 -72 -37 -125 -13 -54 -31 -106 -41 -117 -11 -11
-19 -25 -19 -31 0 -6 -5 -8 -12 -4 -7 4 -8 3 -4 -4 4 -6 2 -21 -5 -33 -17 -34
-29 -5 -28 71 1 60 16 140 18 98 1 -10 8 -18 16 -18 11 0 15 11 15 38 0 20 8
49 18 64 18 28 85 95 90 92 2 -1 -3 -15 -11 -31z m35 -25 c-7 -7 -12 -8 -12
-2 0 14 12 26 19 19 2 -3 -1 -11 -7 -17z m-1 -55 c-12 -20 -14 -14 -5 12 4 9
9 14 11 11 3 -2 0 -13 -6 -23z m-231 -30 c-11 -17 -11 -17 -6 0 3 10 6 24 7
30 0 9 2 9 5 0 3 -7 0 -20 -6 -30z m180 -40 c-11 -17 -11 -17 -6 0 3 10 7 26
7 35 1 15 2 15 6 0 2 -10 -1 -25 -7 -35z m-183 0 c-4 -3 -7 0 -7 7 0 7 3 10 7
7 3 -4 3 -10 0 -14z m192 -82 c-9 -24 -14 -29 -20 -19 -5 7 -8 22 -8 33 0 20
0 20 9 0 7 -17 9 -16 9 10 1 19 4 26 11 19 7 -7 7 -21 -1 -43z m-389 -5 c0 -3
-4 -8 -10 -11 -5 -3 -10 -1 -10 4 0 6 5 11 10 11 6 0 10 -2 10 -4z m222 -36
c-3 -25 0 -40 7 -40 6 0 11 -18 10 -42 0 -31 -3 -37 -8 -24 -7 19 -8 19 -14
-3 -3 -13 -10 -20 -16 -17 -5 3 -12 -2 -15 -11 -3 -10 -3 0 -1 22 3 22 5 59 5
83 0 30 4 41 12 36 7 -5 8 -3 3 6 -6 10 -1 17 20 30 0 0 -1 -18 -3 -40z m115
-22 c-2 -13 -4 -5 -4 17 -1 22 1 32 4 23 2 -10 2 -28 0 -40z m-350 15 c-4 -3
-7 0 -7 7 0 7 3 10 7 7 3 -4 3 -10 0 -14z m330 -10 c-4 -3 -7 0 -7 7 0 7 3 10
7 7 3 -4 3 -10 0 -14z m-323 -19 c3 -8 2 -12 -4 -9 -6 3 -10 10 -10 16 0 14 7
11 14 -7z m313 -11 c-4 -3 -7 0 -7 7 0 7 3 10 7 7 3 -4 3 -10 0 -14z m-314
-43 c4 0 5 5 2 10 -3 6 -1 10 4 10 6 0 11 -9 11 -20 0 -11 4 -20 8 -20 10 0
36 -79 29 -87 -3 -2 -16 7 -30 21 -22 22 -26 23 -30 8 -4 -15 -11 31 -8 51 1
4 -7 7 -16 5 -20 -3 -30 30 -18 60 5 14 9 13 23 -11 9 -15 20 -27 25 -27z
m302 20 c-3 -5 -11 -10 -16 -10 -6 0 -7 5 -4 10 3 6 11 10 16 10 6 0 7 -4 4
-10z m-155 -99 c0 -5 -7 -11 -14 -14 -10 -4 -13 -1 -9 9 6 15 23 19 23 5z m77
-38 c-4 -3 -10 -3 -14 0 -3 4 0 7 7 7 7 0 10 -3 7 -7z m173 -104 c0 -11 -28
-19 -44 -13 -11 4 -14 20 -7 41 2 6 51 -21 51 -28z m-3 -36 c-4 -3 -10 -3 -14
0 -3 4 0 7 7 7 7 0 10 -3 7 -7z m498 -23 c3 -5 1 -10 -4 -10 -6 0 -11 5 -11
10 0 6 2 10 4 10 3 0 8 -4 11 -10z m-988 -17 c-4 -3 -7 0 -7 7 0 7 3 10 7 7 3
-4 3 -10 0 -14z m9 -39 c-3 -14 -12 -37 -21 -50 -18 -27 -19 -38 -4 -28 15 9
1 -36 -17 -54 -14 -13 -18 -31 -15 -63 1 -8 -9 -24 -21 -35 -13 -11 -18 -12
-10 -3 6 9 9 19 6 22 -4 3 0 23 9 44 8 21 18 63 21 93 8 64 24 100 43 100 9 0
12 -9 9 -26z m1531 -61 c-4 -3 -7 0 -7 7 0 7 3 10 7 7 3 -4 3 -10 0 -14z
m-1599 -268 c-11 -49 -21 -60 -18 -20 3 45 1 57 -9 50 -5 -3 -13 0 -17 6 -4 8
-3 9 4 5 7 -4 17 4 24 20 l13 27 5 -24 c4 -13 2 -42 -2 -64z m52 -135 c0 -5
-4 -10 -10 -10 -5 0 -10 5 -10 10 0 6 5 10 10 10 6 0 10 -4 10 -10z m567 -77
c-4 -3 -7 0 -7 7 0 7 3 10 7 7 3 -4 3 -10 0 -14z m-140 -110 c-4 -3 -10 -3
-14 0 -3 4 0 7 7 7 7 0 10 -3 7 -7z m2040 -10 c-4 -3 -7 0 -7 7 0 7 3 10 7 7
3 -4 3 -10 0 -14z m-2587 -58 c0 -7 10 -15 21 -18 20 -5 21 -10 15 -53 -3 -26
-14 -64 -24 -83 -16 -33 -21 -36 -65 -39 -63 -4 -79 9 -71 57 15 89 24 108 54
121 16 7 32 21 36 32 4 15 9 17 20 7 8 -6 14 -17 14 -24z m1020 -1 c14 -1 34
-2 46 -3 31 -2 53 -23 60 -57 5 -27 3 -33 -15 -39 -23 -7 -29 -43 -9 -63 6 -6
13 -22 15 -34 2 -12 1 -19 -3 -15 -3 3 -38 -16 -78 -42 -39 -27 -107 -67 -152
-89 -44 -22 -95 -52 -111 -66 -30 -25 -63 -34 -63 -18 0 4 -9 8 -20 8 -11 0
-20 -6 -20 -13 0 -15 -16 -17 -25 -3 -3 6 28 62 71 125 76 115 84 127 137 224
18 34 37 55 55 61 15 6 38 16 52 24 14 8 27 12 30 8 3 -4 16 -8 30 -8z m1587
-11 c-4 -3 -7 0 -7 7 0 7 3 10 7 7 3 -4 3 -10 0 -14z m127 -13 c-10 -16 -20
-28 -22 -26 -4 5 28 56 35 56 2 0 -4 -13 -13 -30z m-117 -17 c-4 -3 -7 0 -7 7
0 7 3 10 7 7 3 -4 3 -10 0 -14z m-1410 -130 c-4 -3 -7 0 -7 7 0 7 3 10 7 7 3
-4 3 -10 0 -14z m121 -10 c2 -16 -4 -22 -29 -27 -43 -8 -47 -1 -19 29 27 29
44 28 48 -2z m-105 -30 c-7 -2 -19 -2 -25 0 -7 3 -2 5 12 5 14 0 19 -2 13 -5z
m1153 -85 c-11 -15 -16 -18 -16 -7 0 16 21 42 28 34 2 -2 -3 -14 -12 -27z m94
11 c0 -24 -23 -21 -28 4 -2 10 3 17 12 17 10 0 16 -9 16 -21z m170 -136 c66
-237 87 -323 80 -323 -7 0 -140 406 -140 428 0 6 6 12 14 12 9 0 25 -40 46
-117z m-2800 83 c0 -8 -4 -18 -10 -21 -6 -3 -10 -4 -10 -1 0 2 -3 11 -6 20 -4
11 -1 16 10 16 9 0 16 -6 16 -14z m2504 2 c-24 -40 -48 -66 -56 -61 -6 3 5 20
23 39 34 35 45 43 33 22z m-1340 -78 c-4 -8 -9 -25 -12 -38 -6 -29 -34 -40
-121 -50 -70 -7 -77 -14 -57 -60 7 -17 16 -22 33 -19 13 2 23 1 23 -2 0 -4 14
-12 32 -19 28 -10 32 -27 7 -27 -5 0 -15 -10 -22 -21 -43 -75 -64 -104 -74
-104 -7 0 -13 -5 -13 -11 0 -5 5 -7 10 -4 6 3 10 1 10 -5 0 -6 -6 -10 -12 -9
-30 4 -48 -2 -45 -13 1 -7 -4 -12 -12 -10 -9 2 -11 -3 -7 -13 4 -10 -2 -19
-17 -24 -22 -9 -53 -40 -81 -83 -10 -16 -25 -24 -43 -23 -24 0 -28 4 -25 25 7
54 24 100 45 127 30 37 67 101 67 117 0 7 15 43 34 82 18 38 37 78 40 90 6 19
51 50 69 46 4 -1 7 2 7 8 0 5 21 21 48 34 54 29 127 32 116 6z m-364 -40 c0
-5 -5 -10 -11 -10 -5 0 -7 5 -4 10 3 6 8 10 11 10 2 0 4 -4 4 -10z m1841 -99
c-32 -40 -54 -51 -65 -32 -9 14 75 94 87 82 6 -6 -2 -24 -22 -50z m69 -31 c0
-5 -4 -10 -10 -10 -5 0 -10 5 -10 10 0 6 5 10 10 10 6 0 10 -4 10 -10z m27
-167 c-4 -3 -7 0 -7 7 0 7 3 10 7 7 3 -4 3 -10 0 -14z m157 -18 c3 -8 1 -15
-4 -15 -6 0 -10 7 -10 15 0 8 2 15 4 15 2 0 6 -7 10 -15z m-2854 -176 c0 -27
-22 -49 -50 -49 -17 0 -30 4 -30 8 0 15 25 40 45 45 33 8 35 7 35 -4z m170
-43 c0 -3 -4 -8 -10 -11 -5 -3 -10 -1 -10 4 0 6 5 11 10 11 6 0 10 -2 10 -4z"/>
<path d="M796 2425 c-9 -26 -7 -32 5 -12 6 10 9 21 6 23 -2 3 -7 -2 -11 -11z"/>
<path d="M737 2249 c4 -13 8 -18 11 -10 2 7 -1 18 -6 23 -8 8 -9 4 -5 -13z"/>
<path d="M280 1570 c0 -7 3 -10 7 -7 3 4 3 10 0 14 -4 3 -7 0 -7 -7z"/>
<path d="M833 113 c4 -3 10 -3 14 0 3 4 0 7 -7 7 -7 0 -10 -3 -7 -7z"/>
<path d="M810 1200 c0 -7 3 -10 7 -7 3 4 3 10 0 14 -4 3 -7 0 -7 -7z"/>
</g>
</svg>
