<?xml version="1.0" standalone="no"?>
<!DOCTYPE svg PUBLIC "-//W3C//DTD SVG 20010904//EN"
 "http://www.w3.org/TR/2001/REC-SVG-20010904/DTD/svg10.dtd">
<svg version="1.0" xmlns="http://www.w3.org/2000/svg"
 width="300.000000pt" height="310.000000pt" viewBox="0 0 300.000000 310.000000"
 preserveAspectRatio="xMidYMid meet">
<metadata>
Created by potrace 1.10, written by Peter Selinger 2001-2011
</metadata>
<g transform="translate(0.000000,310.000000) scale(0.050000,-0.050000)"
fill="#000000" stroke="none">
<path d="M1 5756 c1 -245 8 -454 17 -465 9 -12 22 -48 30 -81 12 -55 10 -57
-17 -23 -28 36 -29 36 -26 -5 2 -26 17 -42 40 -42 21 0 32 -9 26 -19 -7 -11
-23 -15 -37 -10 -17 7 -25 -26 -29 -113 l-4 -122 324 14 c179 8 391 21 471 28
163 16 162 16 101 -132 -13 -31 -22 -63 -20 -72 2 -9 -6 -34 -18 -56 -12 -22
-24 -103 -27 -180 -3 -76 -15 -149 -27 -161 -16 -16 -17 1 -3 63 11 47 15 90
9 95 -17 17 -55 -100 -57 -175 -1 -38 -10 -76 -21 -83 -11 -7 -21 -57 -23
-110 -5 -127 -5 -127 -42 -127 -26 0 -28 -6 -10 -27 17 -21 15 -34 -7 -52 -24
-20 -32 -15 -43 32 -8 31 -25 66 -39 77 -13 11 -70 92 -127 180 -144 224 -149
232 -174 258 -22 23 -83 111 -194 281 -54 83 -65 92 -70 54 -4 -27 28 -92 86
-173 50 -72 88 -130 82 -130 -5 0 -46 51 -91 113 -72 101 -81 108 -81 61 0
-31 39 -105 100 -186 55 -73 94 -141 88 -152 -14 -22 -87 47 -74 70 10 17 -69
94 -97 94 -28 0 -21 -548 7 -576 19 -19 19 -24 0 -24 -13 0 -24 -10 -24 -21 0
-12 9 -16 20 -9 11 7 20 3 20 -9 0 -11 -7 -21 -17 -21 -38 0 -13 -62 29 -72
84 -21 100 1 113 147 1 14 10 25 20 25 9 0 12 8 6 18 -6 9 2 28 17 40 22 18
29 7 39 -57 13 -79 46 -121 70 -89 24 33 64 29 77 -7 8 -19 28 -46 45 -59 27
-22 27 -25 1 -27 -16 -1 -84 -6 -150 -10 -268 -18 -290 -25 -290 -93 l0 -61
95 14 c52 7 150 17 218 20 146 8 221 60 179 124 -30 45 -97 288 -84 302 19 19
49 -17 62 -75 13 -61 56 -79 82 -36 10 16 19 11 29 -15 8 -22 5 -50 -6 -64
-16 -20 -12 -23 17 -14 31 10 30 6 -8 -25 -44 -36 -44 -37 -5 -37 23 0 46 16
53 37 11 35 13 35 39 0 38 -49 36 -77 -2 -45 -28 23 -30 19 -19 -33 11 -51 10
-54 -15 -24 -19 22 -36 27 -56 15 -25 -16 -25 -18 1 -19 35 0 35 -76 1 -210
-25 -101 -26 -115 -1 -100 32 20 23 -54 -21 -182 -23 -65 -38 -143 -34 -173 5
-30 4 -50 -2 -45 -5 5 -26 -18 -47 -51 -47 -77 -25 -123 27 -57 32 40 35 42
24 8 -7 -22 -29 -58 -49 -81 -23 -25 -32 -56 -25 -85 15 -56 39 -57 53 -2 6
23 20 36 31 30 11 -7 27 -1 36 12 10 18 20 10 29 -24 11 -40 14 -42 16 -10 1
22 -6 52 -15 66 -29 46 12 224 70 299 30 40 43 65 30 57 -28 -17 -94 28 -69
46 43 32 65 103 46 151 -12 33 -12 51 0 51 11 0 19 7 18 15 -8 50 3 74 21 46
10 -16 13 -38 7 -48 -7 -11 -3 -14 7 -7 11 6 17 46 13 88 -3 42 -8 114 -12
160 -4 46 2 82 12 80 11 -2 26 20 35 50 10 35 8 53 -5 50 -11 -2 -24 13 -27
34 -3 21 -15 43 -25 50 -23 14 6 102 33 102 10 0 23 18 29 40 23 89 48 33 43
-97 -3 -75 3 -149 14 -165 15 -22 18 -19 16 12 -8 95 2 143 21 100 12 -27 15
-8 10 59 l-8 99 51 -56 c72 -77 62 -152 -90 -695 -33 -118 -65 -266 -72 -330
-6 -65 -16 -139 -21 -167 -5 -27 -14 -135 -20 -240 -7 -104 -22 -195 -34 -203
-13 -7 -15 -28 -6 -50 33 -79 9 -547 -32 -614 -44 -73 -50 -178 -11 -210 53
-44 59 -536 8 -606 -55 -74 -86 -72 -169 13 -60 62 -319 243 -441 307 -42 23
-45 20 -45 -33 0 -49 24 -74 165 -175 91 -64 191 -138 222 -164 37 -29 71 -42
96 -34 65 21 96 -22 72 -97 -12 -35 -24 -75 -27 -89 -14 -53 -63 -26 -52 28 7
37 3 49 -13 39 -13 -8 -23 -31 -23 -51 0 -20 -19 -41 -42 -47 -62 -17 -31 -47
67 -64 116 -21 135 -16 213 57 47 43 64 51 55 26 -7 -20 -7 -47 1 -60 9 -14
20 -4 29 27 10 35 12 24 7 -35 -3 -47 1 -80 11 -74 10 6 23 -14 30 -45 7 -31
49 -139 94 -241 l82 -185 97 0 c53 0 96 9 96 21 0 14 12 14 39 0 27 -15 54
-14 91 3 42 19 56 18 69 -2 12 -19 18 -18 28 8 7 18 21 28 31 21 10 -6 23 3
29 19 7 17 25 24 44 17 26 -10 27 -16 6 -29 -21 -13 -19 -17 8 -18 19 0 35 9
35 20 0 34 37 22 49 -16 32 -103 391 -14 391 97 0 11 14 26 31 32 21 8 28 27
21 56 -6 24 3 63 20 87 27 40 27 44 -1 44 -17 0 -31 11 -31 23 0 13 -65 -47
-145 -133 -80 -87 -143 -165 -140 -174 3 -9 -4 -16 -15 -16 -25 0 -25 12 0
101 18 66 173 239 214 239 9 0 30 17 45 38 15 21 39 34 54 28 16 -6 27 3 27
22 0 19 13 38 30 45 16 6 50 46 74 89 44 80 83 106 64 43 -6 -19 8 1 31 45 45
86 91 130 137 130 23 0 24 -6 5 -29 -33 -40 -7 -81 31 -50 15 13 28 17 28 9 0
-8 13 -4 30 10 25 20 30 19 30 -7 0 -17 -16 -40 -35 -51 -19 -10 -29 -25 -22
-32 8 -7 32 5 55 28 29 29 42 33 42 14 0 -15 -14 -38 -30 -52 -18 -15 -26 -41
-19 -63 6 -20 2 -37 -10 -37 -11 0 -19 7 -16 15 5 16 -11 25 -46 25 -32 0
-239 -202 -239 -233 0 -15 -7 -27 -16 -27 -8 0 -15 -17 -15 -39 0 -21 7 -34
15 -28 9 5 16 -1 16 -13 0 -12 25 1 55 29 30 28 70 56 89 62 19 6 40 30 47 53
9 27 18 33 28 18 8 -13 28 -18 46 -11 51 19 61 -27 17 -82 -22 -29 -35 -67
-29 -85 8 -27 6 -28 -9 -7 -16 23 -23 22 -39 -7 -17 -31 -20 -31 -31 -2 -19
49 -54 38 -54 -17 0 -27 -9 -54 -20 -61 -12 -7 -16 -20 -11 -28 5 -9 -17 -17
-50 -18 -46 -1 -59 7 -59 37 0 22 -13 39 -28 39 -16 0 -32 11 -37 24 -5 15
-13 11 -21 -10 -8 -22 -3 -34 15 -34 16 0 34 -9 40 -19 18 -28 -50 -99 -82
-87 -33 13 -37 -46 -4 -66 16 -10 20 -4 11 19 -12 30 -8 31 31 9 54 -31 196
-38 228 -13 15 12 28 11 36 -2 18 -29 137 -27 167 3 13 13 24 15 24 5 0 -11
95 -20 220 -22 222 -2 248 6 186 56 -29 23 -31 23 -17 -3 13 -24 11 -25 -9 -6
-21 19 -19 30 7 56 18 18 38 55 45 81 7 27 19 49 27 49 13 0 15 -126 2 -170
-12 -42 0 -70 30 -70 48 0 85 46 100 127 7 40 21 74 31 76 10 1 28 3 41 5 34
3 39 72 5 72 -15 0 -28 14 -28 31 0 24 8 26 40 9 22 -12 40 -35 40 -51 0 -16
11 -29 25 -29 17 -1 15 -7 -5 -20 -16 -11 -20 -20 -7 -20 35 0 44 -69 15 -109
-24 -33 -27 -32 -39 15 -15 63 -67 87 -81 39 -5 -19 -23 -60 -38 -90 -31 -61
-28 -63 65 -36 40 11 65 11 65 0 0 -11 53 -19 118 -19 122 0 155 23 129 90 -8
21 -2 27 19 19 17 -7 36 -34 43 -60 10 -44 23 -49 110 -49 106 0 119 9 125 86
6 65 60 57 78 -11 8 -29 10 -57 5 -62 -5 -5 110 -10 257 -11 l266 -3 95 256
c101 271 144 401 164 490 19 88 36 68 155 -170 162 -326 215 -456 216 -530 0
-37 11 -45 60 -45 47 0 60 9 60 40 0 22 -9 40 -20 40 -12 0 -15 21 -8 50 7 29
2 63 -12 80 -15 18 -20 55 -13 91 7 34 5 56 -5 50 -9 -5 -14 32 -10 84 5 72 3
81 -8 35 -13 -52 -18 -41 -41 90 -15 83 -32 173 -38 200 -6 28 -4 44 5 36 8
-8 27 -71 42 -140 l26 -126 -11 110 c-7 61 -6 105 1 98 28 -27 100 -418 96
-523 -2 -67 4 -115 16 -115 11 0 21 29 22 65 l2 65 16 -60 c9 -33 21 -85 28
-115 25 -108 105 -75 123 50 8 58 19 92 25 75 5 -16 22 -37 37 -46 15 -9 27
-43 27 -75 0 -49 8 -59 48 -59 48 0 61 57 26 114 -7 10 1 19 17 19 19 0 30
-23 32 -71 l2 -72 15 70 c10 49 16 56 17 24 2 -26 12 -41 23 -34 11 7 20 -2
20 -19 0 -18 17 -31 41 -31 38 0 38 3 11 57 -18 35 -23 64 -12 75 26 26 1 108
-32 108 -20 0 -28 27 -28 91 0 50 8 86 18 81 9 -6 17 12 17 40 0 33 -9 47 -26
40 -15 -5 -30 0 -34 13 -12 35 -55 -3 -57 -51 -1 -37 -4 -35 -22 14 -22 60 24
127 67 100 9 -6 17 28 17 76 -1 56 -7 77 -18 59 -14 -23 -19 -23 -28 0 -8 21
-11 20 -12 -4 -1 -16 -20 -46 -42 -65 -27 -23 -37 -49 -30 -79 6 -25 3 -85 -6
-135 l-16 -90 -28 125 c-32 144 -61 127 -50 -29 8 -104 7 -106 -36 -83 -39 21
-41 20 -19 -7 15 -17 24 -59 21 -94 -6 -77 -31 -83 -29 -7 0 30 -7 81 -16 113
-12 42 -10 54 6 44 33 -20 29 64 -9 235 -54 236 -68 257 -55 81 7 -97 4 -168
-8 -175 -12 -7 -12 -48 -2 -107 42 -237 44 -252 20 -238 -13 8 -23 39 -23 68
-1 73 -21 146 -39 135 -8 -5 -10 41 -5 103 6 75 3 107 -12 99 -22 -14 -56 101
-36 122 7 6 13 -10 14 -37 l2 -48 16 50 c25 77 25 118 0 80 -13 -20 -15 -5 -6
48 9 60 5 81 -21 96 -39 21 -44 88 -8 103 15 6 11 10 -10 11 -49 3 -46 104 4
165 l40 47 0 -66 c1 -41 9 -61 22 -53 11 7 33 2 48 -10 21 -18 32 -17 44 5 10
15 37 33 62 39 58 15 36 -28 -63 -124 -40 -38 -72 -81 -72 -95 0 -54 80 -23
150 59 81 95 82 124 8 334 -44 127 -37 164 54 265 75 84 74 85 109 -64 22 -98
124 -444 298 -1020 89 -294 88 -286 63 -271 -28 17 -28 -2 1 -127 37 -159 57
-121 57 110 0 202 -75 541 -181 820 -11 29 -97 319 -190 645 -185 639 -410
1403 -469 1587 -43 133 -39 136 132 136 76 0 108 -8 108 -27 0 -28 288 -915
319 -983 10 -22 25 -71 32 -109 8 -38 31 -109 52 -157 20 -48 37 -108 37 -134
0 -26 7 -50 16 -53 29 -13 110 -305 117 -426 14 -209 27 -146 27 126 0 220 -5
263 -30 263 -16 0 -30 9 -30 20 0 11 14 20 30 20 17 0 30 9 30 20 0 11 -23 20
-51 20 l-51 0 51 87 c28 47 51 113 51 144 l0 58 -35 -61 c-74 -129 -83 -140
-101 -113 -19 30 -7 145 16 145 8 0 13 20 12 45 -3 49 55 105 88 85 13 -8 20
42 20 135 0 145 -1 148 -81 226 -131 128 -97 294 46 225 49 -24 48 46 -2 91
-45 41 -71 43 -56 3 7 -18 0 -30 -18 -30 -25 0 -26 8 -8 42 20 37 13 53 -53
120 -111 114 -67 96 54 -22 100 -97 135 -114 112 -54 -17 46 -191 179 -240
185 -25 2 -79 27 -121 55 -41 28 -85 55 -99 60 -13 5 -18 15 -11 22 14 15 230
-82 382 -171 52 -31 95 -49 95 -40 0 30 -68 77 -215 151 -80 40 -145 82 -145
93 0 12 -8 16 -18 10 -21 -13 -82 7 -82 26 0 19 233 16 252 -2 8 -8 0 -15 -17
-15 -61 0 -47 -49 24 -82 148 -70 199 -79 195 -36 -2 29 -18 38 -68 38 -36 0
-66 10 -66 22 0 12 13 17 28 12 15 -6 44 0 63 14 41 30 -49 66 -97 40 -16 -10
-18 -7 -4 8 11 11 46 24 78 27 78 9 88 48 18 73 l-56 21 55 1 c38 2 55 13 55
37 0 32 -23 34 -255 28 -140 -3 -249 0 -242 7 11 10 172 21 432 28 86 3 94 75
10 88 l-55 8 55 3 c117 6 73 101 -46 100 -56 -1 -107 5 -114 11 -6 7 39 12
102 12 109 0 113 2 113 52 l0 53 -200 -10 c-111 -6 -194 -2 -188 8 6 9 95 17
199 17 l189 0 0 55 0 55 -285 -7 c-157 -3 -279 0 -271 7 7 8 88 16 180 19 414
12 376 6 376 61 0 61 -32 62 -495 27 -271 -21 -352 -18 -323 12 9 9 353 26
653 33 l165 4 0 58 0 59 -175 -3 c-241 -5 -255 5 -25 19 l190 11 6 60 6 60
-166 -7 c-204 -8 -201 7 4 24 83 6 152 12 155 12 3 1 5 28 5 61 l0 60 -175
-12 c-96 -7 -259 -18 -361 -26 -102 -7 -196 -7 -210 2 -14 9 0 16 36 17 33 1
78 6 100 10 37 8 300 27 510 37 86 5 90 8 96 70 l7 64 -122 -4 c-66 -3 -127 1
-134 9 -8 7 18 13 57 13 153 0 196 19 196 88 l0 62 -165 -13 c-269 -22 -475
-28 -475 -14 0 7 88 19 195 26 107 7 227 17 265 21 39 5 95 9 125 9 50 1 55 8
55 73 l0 72 -265 -16 c-146 -8 -292 -16 -325 -17 -45 -1 -61 -11 -63 -41 -1
-22 -17 -67 -35 -100 -17 -33 -32 -69 -32 -81 0 -11 -27 -44 -60 -73 -67 -58
-68 -57 -39 49 11 41 19 77 16 80 -2 3 8 26 21 52 14 25 30 70 35 99 5 29 17
58 25 64 9 5 14 26 11 46 -6 39 17 125 62 225 15 33 32 92 39 130 6 38 35 155
63 259 76 279 76 280 41 280 -19 0 -36 -26 -44 -65 -8 -36 -71 -272 -140 -525
-194 -703 -296 -1095 -321 -1233 -6 -36 -14 -69 -18 -72 -26 -26 48 -174 85
-169 41 6 45 -4 74 -155 5 -26 18 -57 29 -68 19 -19 15 38 -11 137 -29 116 37
-50 122 -305 110 -328 113 -300 -37 -308 l-117 -7 -125 428 -124 428 236 942
c256 1021 245 972 218 972 -25 0 -57 -117 -273 -990 -104 -418 -211 -843 -238
-945 -28 -101 -50 -207 -50 -235 0 -79 38 -58 52 28 9 56 21 76 40 68 37 -14
35 -74 -4 -206 -27 -93 -28 -124 -6 -229 25 -115 34 -422 13 -442 -5 -6 -6
-39 -2 -75 3 -35 10 -113 14 -174 5 -60 15 -148 23 -193 13 -77 9 -89 -48
-145 -57 -56 -80 -269 -43 -397 0 -3 17 -5 36 -5 28 -1 30 -4 7 -18 -32 -21
11 -285 46 -281 10 2 24 -8 32 -21 10 -16 18 -14 27 9 8 22 5 28 -11 19 -16
-10 -18 -3 -7 24 8 21 16 72 16 114 1 41 9 80 18 86 9 6 17 35 17 64 1 41 5
47 19 25 15 -24 23 -18 40 26 24 64 6 117 -23 66 -25 -45 -56 -41 -56 7 0 24
-13 40 -33 40 -45 0 -17 26 37 34 59 9 180 -31 211 -70 22 -28 25 -27 25 12 0
24 -22 58 -51 76 -28 19 -47 46 -41 60 6 15 -27 47 -79 78 -49 28 -89 54 -89
57 0 13 160 0 174 -14 8 -8 -3 -8 -25 0 -71 26 3 -43 86 -81 118 -54 185 -199
271 -592 6 -27 26 -93 45 -146 32 -88 32 -98 2 -131 -18 -20 -33 -54 -33 -75
0 -51 -69 -96 -95 -62 -47 61 -42 97 26 192 42 60 65 110 57 130 -19 50 -44
38 -58 -28 -7 -33 -22 -55 -32 -49 -17 11 -27 -19 -19 -61 2 -12 -6 -11 -19 2
-19 19 -74 206 -119 408 -8 39 -27 111 -41 160 l-25 90 -35 -100 c-19 -55 -59
-149 -90 -210 -39 -76 -45 -101 -21 -81 30 25 32 23 20 -28 -10 -38 -6 -61 13
-73 19 -13 0 -17 -56 -14 -87 4 -132 -15 -93 -40 12 -8 26 -41 31 -74 6 -33 6
-49 1 -35 -8 24 -45 36 -45 14 0 -66 50 -189 73 -181 18 7 27 -4 27 -34 -1
-36 -4 -38 -20 -14 -17 26 -19 25 -20 -5 0 -19 12 -35 28 -35 33 0 51 -61 52
-173 0 -46 9 -87 20 -90 11 -4 30 -66 42 -137 13 -72 31 -139 40 -149 10 -10
17 -55 16 -100 -2 -45 -7 -65 -12 -46 -5 19 -17 35 -27 35 -11 0 -19 21 -19
48 0 26 -13 58 -30 72 -36 30 -39 73 -5 87 15 6 16 10 3 11 -13 1 -18 23 -14
49 7 32 0 46 -22 46 -23 0 -28 -14 -21 -51 8 -44 7 -45 -8 -12 -10 22 -39 139
-64 260 -25 121 -52 228 -60 237 -17 19 25 -213 80 -453 20 -86 32 -174 26
-196 -5 -21 9 -83 33 -137 23 -54 42 -120 42 -146 0 -27 6 -54 13 -62 20 -19
21 -113 3 -113 -9 0 -16 15 -16 34 0 19 -22 66 -49 105 -97 141 -216 933 -152
1010 13 16 18 40 10 52 -7 13 -12 94 -11 181 2 124 -3 158 -25 158 -42 0 -81
53 -52 71 18 10 17 18 0 29 -21 12 -34 49 -39 106 -1 9 -12 10 -24 3 -16 -10
-15 -2 0 28 19 35 18 40 -8 30 -18 -7 -30 0 -29 16 0 35 48 97 74 97 51 0 43
415 -14 740 -54 309 -67 372 -81 390 -8 11 -21 86 -29 166 -7 81 -26 181 -41
223 -37 106 -46 212 -17 207 39 -8 69 160 41 234 -6 17 -15 161 -19 320 -9
336 -17 358 -183 516 -110 103 -152 198 -77 170 69 -27 176 -95 201 -130 50
-69 78 -41 100 99 12 74 40 234 63 355 23 121 47 252 52 290 6 39 15 104 21
145 l12 75 -123 0 c-90 0 -125 -8 -134 -30 -6 -16 -24 -30 -39 -30 -15 0 -28
14 -28 30 0 24 -29 30 -140 30 -137 0 -195 -43 -120 -90 80 -50 -20 -297 -144
-356 -37 -17 -86 -58 -111 -91 -24 -33 -71 -65 -106 -73 -69 -15 -103 2 -58
31 24 15 23 18 -6 19 -19 0 -35 -10 -35 -21 0 -12 -26 -6 -59 14 -32 19 -54
41 -49 50 5 9 -10 32 -33 51 -24 20 -50 54 -60 76 -14 35 -16 33 -14 -14 2
-29 9 -50 15 -46 7 4 23 -10 37 -32 24 -39 23 -39 -38 -8 -34 18 -72 29 -84
25 -12 -4 -50 20 -85 54 -97 95 -150 120 -150 74 0 -35 90 -120 160 -150 17
-7 -1 -7 -40 -1 -68 12 -139 73 -140 121 -1 63 -197 79 -478 37 -61 -9 -93 -5
-103 12 -31 50 -102 35 -129 -28 -23 -55 -26 -57 -47 -22 -17 29 -19 9 -10
-87 9 -88 6 -125 -10 -125 -13 0 -22 -20 -22 -45 l2 -45 18 47 c16 39 25 43
49 23 26 -21 30 -15 31 43 l1 67 29 -67 c33 -78 37 -110 10 -94 -30 19 -45
-62 -32 -184 8 -85 6 -105 -9 -75 -18 34 -19 31 -12 -19 12 -89 -26 -450 -53
-498 -13 -24 -21 -54 -19 -66 3 -13 -4 -30 -15 -37 -12 -7 -21 2 -21 19 0 43
-44 30 -82 -24 -17 -25 -37 -39 -45 -32 -7 8 -13 -2 -13 -21 0 -19 -8 -29 -18
-23 -10 6 -23 0 -28 -14 -5 -14 -21 1 -36 35 -15 33 -39 67 -52 76 -41 25 12
68 78 64 56 -4 65 13 59 110 -1 20 2 22 9 5 21 -48 43 -25 56 60 24 158 57
234 74 175 l14 -50 5 50 c3 28 12 -8 20 -80 12 -111 14 -99 12 85 -2 118 4
215 13 215 9 0 3 19 -13 42 -32 45 -23 107 12 85 13 -8 14 -2 3 16 -27 43
-228 225 -228 206 0 -9 -27 9 -60 41 -48 46 -65 53 -85 33 -16 -16 -18 -30 -4
-39 28 -20 83 -109 94 -155 7 -25 11 -15 13 27 1 42 10 61 23 53 12 -7 17 -25
11 -40 -6 -16 1 -35 16 -43 14 -9 32 -38 38 -66 57 -239 60 -263 34 -370 -23
-97 -78 -167 -81 -104 -1 13 -10 6 -19 -16 -14 -33 -17 -34 -19 -6 0 22 -12
31 -31 23 -22 -8 -30 3 -30 46 1 40 6 49 18 29 14 -21 21 -18 32 17 9 30 24
40 46 31 18 -6 27 -6 19 2 -7 7 -4 30 7 51 18 35 -13 97 -50 97 -26 0 -143
-309 -162 -430 -47 -303 -29 -540 41 -540 94 0 229 -134 198 -196 -7 -13 1 -8
16 11 16 19 35 29 42 22 34 -35 -58 -63 -97 -31 -22 18 -29 20 -15 4 14 -15
24 -42 23 -59 -1 -18 -5 -21 -11 -7 -5 12 -40 46 -76 74 l-67 51 5 -46 c3 -26
12 -59 21 -73 10 -17 8 -21 -5 -13 -12 7 -25 2 -30 -11 -14 -43 -155 -35 -155
8 0 21 -14 43 -31 49 -43 17 -64 -11 -28 -36 24 -17 23 -19 -6 -10 -47 15 -44
-17 7 -101 61 -98 31 -105 -33 -8 -56 85 -125 84 -103 0 5 -20 -3 -40 -18 -46
-19 -7 -28 4 -28 36 0 26 -12 53 -28 58 -20 8 -24 -1 -17 -31 8 -28 4 -37 -12
-27 -13 8 -23 33 -23 55 0 28 -10 38 -29 30 -15 -6 -33 0 -38 13 -6 13 -5 -7
1 -46 6 -38 19 -79 29 -89 9 -10 16 -42 15 -70 -1 -31 -6 -40 -13 -21 -36 92
-101 85 -77 -9 8 -31 2 -51 -17 -58 -20 -8 -31 12 -41 73 -14 96 -49 177 -85
200 -14 9 -25 35 -25 59 0 42 1 42 30 4 20 -25 26 -28 19 -8 -6 18 -2 54 9 80
l19 49 2 -55 c0 -30 12 -55 26 -55 19 -1 20 -4 1 -16 -27 -17 -13 -104 16
-104 10 0 18 27 18 60 0 33 9 60 20 60 11 0 20 19 20 41 0 27 8 36 23 27 16
-10 20 -4 11 18 -8 22 1 41 26 54 25 13 34 32 26 54 -9 22 -5 28 11 18 16 -10
22 11 20 72 -2 66 -5 72 -12 28 -6 -43 -13 -51 -25 -32 -13 21 -21 14 -31 -26
-17 -67 -46 -71 -42 -6 2 27 10 44 18 39 8 -5 15 1 15 13 0 12 16 39 36 60 20
22 48 87 62 145 44 183 105 355 125 355 10 0 15 36 10 80 -5 44 -1 85 9 91 25
16 23 89 -3 89 -13 0 -16 -17 -9 -40 7 -23 4 -40 -9 -40 -11 0 -21 -31 -21
-69 0 -38 -9 -74 -20 -81 -12 -7 -18 38 -15 118 2 72 9 121 17 110 7 -13 17
-9 25 10 7 20 1 32 -18 32 -16 0 -29 13 -29 28 0 35 130 38 159 4 22 -27 -6
-250 -34 -271 -31 -23 -70 -166 -48 -179 13 -8 14 -24 2 -43 -24 -38 -24 -79
1 -79 11 0 20 12 20 26 0 14 18 61 40 104 22 43 43 108 47 145 4 36 15 73 24
81 8 8 10 -2 3 -21 -7 -19 -5 -35 4 -35 9 0 21 -49 28 -109 17 -164 53 -210
53 -69 1 62 7 156 14 208 10 71 7 92 -10 82 -13 -8 -23 -5 -23 7 0 11 13 21
29 21 18 0 25 12 18 30 -6 16 -19 25 -29 19 -10 -6 -17 23 -15 65 2 54 5 62
12 27 5 -27 26 -71 47 -98 l38 -49 -11 108 c-6 59 -15 122 -20 138 -5 17 9 8
32 -19 l41 -48 -7 54 c-4 30 -15 53 -24 52 -21 -3 -50 42 -51 77 0 15 9 21 20
14 12 -7 17 6 12 34 -5 25 -10 69 -12 96 -2 28 -8 39 -13 25 -15 -36 -80 -31
-95 6 -26 70 113 209 209 209 32 0 99 14 149 31 50 17 99 26 109 20 10 -7 25
-1 33 12 9 15 5 18 -12 7 -18 -11 -21 -8 -11 9 9 14 38 21 66 15 27 -5 80 -1
117 9 92 26 288 33 288 11 0 -10 56 -12 129 -5 124 13 134 11 242 -59 63 -40
127 -67 144 -61 16 6 42 1 58 -11 19 -16 27 -16 27 -1 0 12 16 17 35 10 104
-33 143 -53 134 -69 -6 -10 11 -27 39 -37 28 -11 62 -38 76 -60 26 -41 96 -57
96 -22 0 10 -16 29 -35 41 -33 20 -33 21 2 15 29 -4 45 18 71 105 21 69 39
101 49 85 43 -70 126 -13 136 95 6 63 2 70 -43 71 -43 0 -49 8 -43 60 10 98
-20 40 -86 -164 -64 -201 -109 -259 -113 -149 -2 34 -5 71 -8 82 -3 11 -6 79
-7 150 -3 136 -34 168 -102 105 -21 -20 -28 -20 -35 0 -31 84 -66 17 -66 -125
0 -137 -4 -150 -40 -150 -24 0 -41 14 -43 35 -1 19 -5 62 -7 95 -3 33 -7 85
-8 115 -2 45 -11 55 -52 55 -45 0 -56 -16 -48 -73 2 -13 -43 -46 -64 -47 -7 0
-13 16 -13 35 1 75 -7 85 -63 85 -46 0 -56 -7 -49 -36 6 -20 -6 -50 -25 -65
-32 -27 -34 -24 -22 36 l13 65 -109 0 c-72 0 -110 -8 -110 -24 0 -19 -5 -19
-24 0 -37 37 -77 30 -61 -11 12 -33 10 -33 -21 -2 -38 38 -365 48 -409 12 -18
-14 -25 -12 -25 8 -1 23 -3 23 -18 0 -12 -19 -21 -21 -31 -5 -7 12 -45 22 -83
22 -42 0 -65 -8 -58 -20 7 -11 3 -20 -9 -20 -11 0 -21 9 -21 20 0 11 -60 20
-139 20 -112 0 -138 -6 -129 -28 6 -15 1 -34 -11 -41 -12 -8 -18 -20 -13 -27
4 -8 -5 -26 -21 -40 -24 -23 -27 -20 -16 22 19 76 -91 160 -117 89 -7 -20 -14
-20 -36 0 -44 42 -192 25 -165 -19 8 -13 17 -13 25 1 8 12 24 -6 37 -41 19
-48 19 -58 1 -40 -28 28 -56 31 -56 7 0 -9 21 -28 48 -42 48 -26 75 -241 30
-241 -10 0 -18 10 -18 21 0 12 -9 16 -20 9 -11 -7 -20 -3 -20 9 0 11 11 21 25
21 17 1 15 7 -5 20 -16 11 -21 20 -10 20 11 1 3 14 -17 29 -20 16 -31 37 -25
48 7 11 3 26 -8 33 -11 7 -15 21 -9 31 6 11 2 19 -10 19 -11 0 -22 -11 -22
-25 -3 -45 -36 53 -38 110 l-1 55 -151 0 c-96 0 -147 -7 -139 -20 8 -13 -4
-14 -36 -2 -26 10 -283 19 -571 20 l-523 1 1 -443z m4445 324 c-6 -22 -19 -40
-28 -40 -10 0 -18 -10 -18 -21 0 -12 10 -15 22 -8 32 20 7 -168 -30 -228 -9
-14 -19 -103 -23 -197 -8 -190 -9 -192 -67 -183 -39 7 -40 11 -13 62 16 30 20
55 10 55 -34 0 3 189 46 232 7 7 2 30 -11 51 -19 30 -18 42 3 55 19 12 23 36
14 78 -11 50 -3 73 41 123 64 72 67 73 54 21z m-2965 -141 c6 -28 0 -60 -13
-74 -35 -35 -49 -31 -34 8 9 23 5 29 -11 19 -26 -16 -28 -3 -10 64 15 57 52
47 68 -17z m2179 21 c0 -29 55 -25 67 5 5 14 11 7 11 -16 2 -31 -12 -42 -58
-45 -48 -4 -60 3 -60 36 0 22 9 40 20 40 11 0 20 -9 20 -20z m-1084 -128 c15
-9 21 -30 15 -47 -6 -16 -4 -40 6 -53 24 -30 50 -133 47 -182 -2 -22 2 -29 8
-15 6 14 23 25 37 25 14 0 38 15 53 33 44 52 60 -74 35 -281 -20 -172 -64
-278 -82 -197 -4 19 -7 -28 -7 -105 1 -77 -6 -176 -14 -220 -11 -60 -10 -69 5
-35 11 25 24 45 29 45 17 0 -9 -244 -30 -288 -20 -41 -19 -41 11 -3 17 21 31
58 31 81 0 23 17 91 39 151 l38 109 9 -120 c4 -69 8 -26 9 100 1 264 4 295 25
230 9 -29 14 69 13 230 -3 321 22 366 97 170 38 -100 130 -173 130 -103 0 11
19 63 42 116 l42 97 27 -100 c35 -128 35 -156 0 -80 -36 77 -43 5 -9 -84 43
-111 54 -248 26 -304 -32 -61 -37 -142 -8 -142 11 0 20 22 20 48 0 26 12 52
27 58 32 12 31 -102 -1 -123 -22 -16 -24 -103 -2 -103 9 0 16 16 16 35 1 27 4
29 18 8 23 -36 42 -3 54 92 5 40 23 88 39 106 16 18 29 43 29 56 0 12 11 21
25 18 16 -3 22 15 18 52 l-6 56 41 -41 c37 -37 80 -52 128 -44 25 4 -18 -64
-67 -108 l-45 -40 24 45 c21 40 19 45 -17 45 -23 0 -41 -10 -41 -22 0 -27 -44
-131 -121 -288 -56 -113 -59 -130 -48 -290 11 -165 10 -168 -22 -112 -19 33
-29 79 -22 111 6 29 2 66 -8 82 -16 25 -32 -82 -21 -146 5 -32 -36 -13 -44 20
-5 19 -11 -5 -12 -55 -4 -97 -60 -232 -61 -146 -1 24 -10 49 -20 55 -11 7 -15
28 -10 47 5 19 -13 -14 -41 -73 -60 -126 -71 -181 -47 -227 10 -20 9 -38 -3
-46 -11 -7 -20 3 -20 21 0 27 -6 29 -29 10 -72 -60 -92 128 -26 246 13 24 24
48 25 53 0 6 16 33 34 60 18 28 38 112 44 190 17 206 57 470 70 470 12 0 22
68 23 166 1 69 -83 178 -112 146 -11 -12 -18 -35 -15 -52 8 -47 -107 -692
-118 -659 -32 98 -77 -140 -48 -259 11 -44 9 -63 -4 -54 -12 7 -27 -14 -34
-48 -7 -33 -21 -60 -30 -60 -9 0 -12 18 -6 40 6 22 1 40 -12 40 -12 0 -22 17
-22 39 0 82 -40 61 -42 -23 -2 -47 -7 -70 -12 -51 -10 40 -46 48 -47 10 -2
-63 -51 -144 -65 -108 -8 21 -6 30 6 23 11 -7 20 9 20 36 0 26 19 101 41 166
42 121 64 308 35 308 -9 0 -16 -19 -16 -41 0 -23 -9 -36 -20 -29 -11 7 -14 36
-7 64 8 34 6 47 -8 39 -13 -8 -18 4 -12 32 7 32 -3 25 -33 -25 -33 -54 -39
-59 -29 -20 8 28 18 93 24 145 5 52 18 95 28 95 11 0 14 9 7 20 -7 12 -20 16
-29 10 -9 -5 -20 22 -25 60 -4 39 1 70 12 70 11 0 10 10 -4 24 -14 14 -16 31
-4 45 10 13 20 56 23 96 4 59 10 69 32 51 28 -23 18 62 -12 114 -17 28 -3 98
23 113 15 10 14 23 -4 44 -18 22 -19 41 -3 70 31 59 26 101 -7 58 -37 -49 -42
-45 -72 44 -38 116 -6 165 76 113z m-977 -82 c12 0 21 -7 21 -15 0 -8 0 -25 0
-37 0 -15 -12 -13 -33 5 -30 24 -31 23 -10 -18 28 -52 -55 -88 -116 -50 -25
16 -37 10 -55 -28 -12 -26 -15 -43 -6 -37 9 5 21 -4 28 -22 16 -42 15 -68 -3
-66 -40 7 -66 -4 -55 -22 7 -11 4 -20 -7 -20 -19 0 -43 46 -43 82 0 10 10 18
21 18 12 0 16 -9 9 -20 -7 -11 -3 -20 9 -20 25 0 26 20 3 58 -10 15 -27 22
-37 15 -11 -7 -25 5 -31 27 -6 22 -3 36 6 30 9 -5 21 3 27 19 6 16 27 29 47
30 126 4 160 13 151 36 -5 14 0 25 12 25 12 0 17 16 10 35 -9 29 -7 30 10 5
12 -16 31 -30 42 -30z m241 -28 c0 -9 -14 -29 -31 -43 -17 -14 -41 -44 -53
-67 -14 -29 1 -21 49 24 62 59 71 63 82 30 7 -20 18 -49 25 -66 10 -27 9 -27
-10 0 -17 24 -21 16 -22 -37 0 -59 -4 -64 -30 -43 -49 40 -51 15 -7 -56 40
-63 77 -69 77 -13 0 16 9 29 20 29 22 0 27 -60 8 -108 -11 -28 -17 -28 -54 -2
-65 45 -87 36 -27 -11 32 -25 53 -62 53 -91 0 -53 -56 -178 -73 -162 -17 17
16 154 38 154 11 0 -27 47 -84 105 -90 91 -103 114 -97 170 10 85 -14 83 -55
-5 -19 -38 -42 -70 -51 -70 -10 0 -18 -13 -18 -30 0 -16 -9 -30 -20 -30 -11 0
-20 -19 -20 -41 0 -23 -9 -36 -20 -29 -11 7 -20 -3 -20 -22 0 -19 -6 -29 -14
-21 -7 8 -29 -20 -48 -61 -19 -42 -27 -81 -17 -87 29 -17 5 -99 -40 -138 -23
-20 -41 -46 -41 -60 0 -13 -10 -17 -21 -10 -13 7 -16 38 -8 76 8 35 6 56 -3
47 -29 -28 -29 -99 1 -145 26 -40 26 -54 -3 -128 -21 -52 -38 -74 -48 -59 -9
15 -22 -5 -35 -52 -12 -42 -17 -83 -12 -91 13 -22 -55 -164 -106 -218 -52 -56
-59 -91 -15 -74 24 10 28 1 17 -42 -16 -62 -15 -78 4 -140 8 -27 5 -45 -7 -45
-14 0 -11 -21 7 -55 24 -47 24 -56 -2 -71 -23 -12 -24 -25 -8 -57 12 -22 18
-44 13 -49 -34 -35 -201 389 -171 435 9 15 17 50 19 77 l2 50 14 -50 14 -50
12 60 c7 33 9 89 5 124 -5 35 1 70 11 76 11 7 20 34 20 60 0 67 21 112 45 97
14 -8 14 -1 0 24 -15 26 -13 59 6 113 15 42 26 79 25 81 -8 18 36 113 69 149
22 24 35 56 29 72 -5 15 -3 39 5 52 12 20 18 20 25 -1 15 -42 -19 -144 -63
-192 -41 -43 -55 -76 -26 -58 8 5 12 -32 8 -81 -5 -65 0 -88 17 -83 21 7 43
120 43 222 -1 20 7 31 17 25 9 -6 24 0 32 13 9 15 5 18 -12 7 -17 -10 -21 -8
-13 5 7 12 24 20 38 18 45 -7 76 -35 62 -57 -8 -13 -4 -16 9 -8 13 8 18 38 11
70 -7 37 1 76 24 110 19 30 36 69 38 88 4 44 51 145 88 189 16 19 22 35 14 35
-9 0 20 36 64 80 44 44 93 80 110 80 16 0 45 18 65 40 38 42 70 52 70 22z
m-1114 -132 c24 3 28 1 9 -4 -19 -5 -35 -17 -35 -28 0 -11 -18 -10 -43 3 -34
19 -37 27 -15 41 16 9 31 9 34 0 3 -9 25 -14 50 -12z m1254 -20 c0 -27 -4 -50
-8 -50 -5 0 -23 -5 -40 -12 -22 -8 -32 -1 -32 22 0 23 10 30 32 22 25 -10 30
-3 22 28 -6 22 -2 40 8 40 10 0 18 -22 18 -50z m1317 -95 c22 -47 56 -121 75
-165 20 -44 40 -88 45 -98 4 -10 -2 -12 -13 -4 -14 8 -32 -20 -46 -72 -14 -47
-32 -94 -40 -104 -15 -18 -18 -3 -57 278 -12 88 -27 180 -34 205 -20 77 27 50
70 -40z m-960 33 c4 -3 0 -31 -8 -62 l-17 -56 -7 56 c-7 46 -13 52 -36 33 -24
-20 -29 -16 -29 20 0 39 57 45 97 9z m-917 -118 c0 -16 -9 -30 -20 -30 -11 0
-20 -12 -20 -26 0 -15 -27 -52 -60 -84 -55 -53 -72 -49 -62 15 6 40 -39 8 -78
-55 -54 -88 -72 -91 -28 -5 45 89 107 154 136 143 14 -5 41 9 61 31 44 48 71
53 71 11z m198 -120 c-2 -59 -2 -59 -18 -10 -11 33 -17 38 -18 15 -1 -19 -10
-35 -20 -35 -10 0 -14 -18 -8 -39 6 -22 21 -38 33 -35 41 7 6 -238 -50 -350
-20 -41 -37 -112 -37 -158 0 -70 -5 -79 -29 -59 -16 13 -24 37 -18 52 6 16 2
29 -8 29 -44 0 -64 -328 -24 -402 23 -44 4 -184 -23 -167 -10 6 -18 51 -18
100 0 51 -9 89 -22 89 -14 0 -17 27 -8 80 11 64 8 80 -17 80 -39 0 -47 -32
-65 -250 -14 -177 -14 -179 -40 -110 -26 69 -27 68 -24 -65 1 -74 -3 -141 -11
-148 -7 -8 -13 -32 -14 -55 0 -38 -2 -39 -21 -7 -11 19 -14 46 -5 59 8 13 16
47 19 75 2 28 10 114 16 191 20 232 31 315 42 326 5 6 10 -4 10 -23 0 -18 7
-33 16 -33 8 0 15 25 15 55 -1 42 7 54 35 49 32 -6 33 0 14 36 -13 24 -16 58
-8 77 11 26 17 20 29 -27 13 -55 15 -52 18 30 7 155 22 209 65 242 36 28 43
57 47 200 4 193 6 202 27 149 13 -33 21 -24 52 56 39 102 71 94 68 -17z m-444
13 c-27 -29 -65 -87 -84 -129 -55 -119 -144 -204 -180 -174 -21 18 -66 21
-150 12 -66 -8 -120 -10 -120 -4 0 26 93 105 115 97 13 -4 53 6 88 23 35 18
73 32 85 32 13 0 31 20 42 45 11 25 29 44 40 42 11 -1 41 22 66 53 28 33 65
55 96 55 l51 0 -49 -52z m-753 -138 c0 26 40 -32 41 -60 0 -25 -137 -54 -298
-63 -26 -1 -41 -11 -34 -22 16 -25 -30 -26 -70 0 -50 31 24 86 124 91 134 7
136 7 136 39 0 23 11 25 50 10 36 -14 50 -12 51 5z m3328 -187 c-20 -32 74
-41 109 -10 19 18 43 32 52 32 10 0 1 -12 -20 -27 -47 -35 -57 -102 -20 -133
20 -17 26 -49 19 -107 -6 -46 -13 -202 -15 -347 l-4 -265 46 60 c26 32 62 58
80 58 27 -2 26 -5 -6 -19 -22 -9 -28 -18 -14 -19 15 0 40 -14 57 -31 40 -40
110 -40 94 1 -7 19 -26 26 -49 18 -26 -8 -38 -2 -38 19 0 20 11 26 33 18 19
-7 28 -5 22 7 -7 10 5 30 26 43 41 26 49 9 40 -81 -2 -19 6 -35 18 -35 11 0
21 10 21 23 0 12 14 33 31 46 81 59 46 433 -49 519 -23 21 -42 51 -42 66 0 16
-9 23 -20 16 -12 -7 -20 -6 -18 4 7 40 -4 66 -29 66 -29 0 -50 -119 -56 -320
-2 -73 -6 -88 -11 -45 -5 36 -17 61 -27 54 -24 -15 -24 4 1 91 11 39 22 106
23 150 5 140 31 145 152 26 141 -138 262 -396 187 -396 -12 0 -15 15 -8 33 9
23 5 29 -11 19 -12 -8 -22 -39 -21 -68 0 -30 6 -43 11 -29 6 14 19 25 29 25
24 0 23 -127 -2 -152 -25 -25 -40 -146 -20 -158 9 -5 40 10 71 34 l55 44 -16
-59 c-24 -85 -15 -187 20 -222 17 -16 30 -42 30 -57 0 -15 6 -42 13 -62 10
-23 6 -30 -10 -20 -13 8 -23 2 -23 -15 0 -16 11 -34 25 -40 15 -6 11 -10 -10
-11 -21 -1 -36 14 -37 38 -2 22 -5 47 -8 55 -3 8 -12 35 -20 60 -21 63 -36 57
-88 -35 -25 -44 -54 -75 -65 -68 -11 7 -33 -7 -50 -30 -16 -23 -38 -42 -49
-42 -11 0 -1 20 21 44 23 24 42 49 42 55 18 178 19 174 -11 121 -16 -27 -29
-38 -29 -24 -1 15 -11 20 -24 12 -16 -10 -19 1 -11 34 13 54 -32 129 -65 109
-11 -7 -21 1 -21 18 0 17 -10 31 -21 31 -12 0 -15 -11 -7 -23 10 -16 4 -20
-17 -12 -42 17 -194 -62 -198 -102 -2 -18 -5 -60 -8 -93 -3 -33 -6 -70 -7 -82
-4 -40 -62 -22 -62 20 -1 35 -4 37 -20 12 -15 -24 -20 -20 -20 20 -1 47 -3 48
-29 13 -25 -32 -28 -27 -28 55 0 115 -13 139 -64 111 -62 -33 -45 -2 20 38
l59 35 -77 -1 c-43 0 -85 -9 -94 -19 -10 -11 -2 -13 18 -6 19 7 35 8 35 2 0
-5 -27 -19 -60 -31 -33 -12 -60 -33 -60 -48 0 -15 -8 -32 -18 -38 -10 -6 -11
19 -2 59 9 39 10 70 3 70 -48 1 60 39 111 40 44 0 71 13 86 41 12 22 29 36 38
30 19 -11 57 201 72 393 5 74 2 138 -7 144 -19 12 -12 221 8 254 7 11 -8 45
-34 74 -43 50 -42 50 17 -4 36 -32 60 -65 55 -74z m1859 -7 c-8 -20 7 -34 45
-44 l57 -15 -50 -14 c-78 -22 -204 -21 -190 2 7 11 34 20 61 20 36 0 49 11 49
40 0 22 9 40 19 40 11 0 15 -13 9 -29z m-4616 -165 l-30 -56 -1 55 c-1 31 10
74 24 96 40 64 46 -23 7 -95z m2565 -1 c-21 -63 -41 -128 -45 -145 -30 -150
-39 -182 -54 -191 -35 -22 50 312 105 416 34 65 32 36 -6 -80z m1686 80 c-15
-30 -39 -135 -45 -195 -1 -11 -11 -31 -22 -45 -21 -25 -47 -124 -70 -260 -8
-52 -20 -65 -58 -65 -62 0 -61 35 3 110 28 32 42 62 30 66 -30 10 -26 45 4 39
16 -3 22 13 18 44 -11 80 39 281 70 281 16 0 33 14 40 30 6 17 20 30 30 30 11
0 11 -14 0 -35z m-1671 -295 c-19 -66 -29 -83 -30 -50 -2 63 43 221 51 180 4
-16 -6 -75 -21 -130z m-1226 30 c6 -22 2 -35 -8 -29 -10 6 -19 -18 -20 -55 -2
-36 -7 -50 -12 -30 -9 36 -10 36 -38 0 -16 -20 -9 7 16 59 51 110 48 107 62
55z m126 8 c-7 -17 -12 -46 -12 -65 0 -22 -9 -17 -27 17 -17 35 -19 55 -4 65
35 24 56 17 43 -17z m2784 -24 c-20 -25 -20 -28 -1 -17 14 9 25 6 25 -6 0 -11
-19 -21 -42 -21 -30 0 -39 9 -30 32 7 17 12 39 12 49 0 10 14 12 31 6 25 -10
26 -17 5 -43z m304 -4 c0 -11 -14 -20 -32 -20 -17 0 -36 -18 -42 -40 -6 -22
-19 -40 -29 -40 -10 0 -9 18 3 40 20 37 15 40 -74 43 l-96 3 80 14 c123 22
190 22 190 0z m-4605 -145 c-32 -133 -40 -151 -49 -112 -11 43 30 197 52 197
9 0 7 -38 -3 -85z m1513 27 c-7 -18 -17 -77 -22 -132 -12 -142 -25 -193 -44
-181 -32 20 -39 117 -10 146 15 15 28 66 28 113 0 64 8 85 31 85 20 0 26 -10
17 -31z m-2157 -167 c27 -41 48 -90 47 -110 -2 -31 -4 -30 -12 3 -6 21 -39 80
-74 130 -35 51 -71 106 -80 122 -24 46 64 -60 119 -145z m5199 129 c-16 -17
-230 -17 -230 -1 0 17 152 31 206 19 19 -4 31 -12 24 -18z m-3207 -134 c5 4
10 -14 13 -41 2 -28 18 -72 36 -99 63 -97 -70 -8 -160 106 -45 57 -13 45 65
-24 l48 -42 -43 90 c-39 81 -40 85 -5 46 21 -24 42 -41 46 -36z m1184 -124
c12 4 23 17 23 29 0 12 7 28 15 37 8 8 15 5 15 -7 0 -24 36 -23 77 3 22 14 23
9 3 -27 -13 -25 -28 -40 -34 -34 -6 6 -46 -7 -89 -29 -43 -22 -86 -35 -95 -29
-10 6 -32 -20 -49 -56 -18 -37 -45 -78 -60 -90 -57 -48 -24 58 39 123 34 35
75 87 90 114 l27 50 7 -46 c4 -26 18 -43 31 -38z m-3160 -99 c-7 -28 -2 -47
11 -47 12 0 22 -9 22 -20 0 -11 -14 -20 -31 -20 -17 0 -26 -9 -19 -20 7 -11 3
-20 -9 -20 -11 0 -21 4 -21 8 0 5 -6 24 -13 44 -8 20 -6 30 5 23 11 -7 19 5
19 26 0 22 -7 40 -15 42 -9 1 -27 4 -41 6 -14 2 -36 -5 -50 -15 -16 -12 -25
-11 -25 4 0 20 27 30 65 24 8 -1 15 9 15 23 1 17 7 15 20 -5 15 -24 20 -20 20
20 1 48 2 48 30 12 17 -22 24 -58 17 -85z m5053 95 c0 -22 -119 -41 -131 -20
-5 8 6 19 26 24 61 16 105 15 105 -4z m198 -130 c-14 -14 -65 -17 -208 -11
l-140 6 170 12 c166 11 195 10 178 -7z m-4267 -123 c25 -97 21 -109 -35 -109
-33 0 -36 10 -23 75 8 41 13 92 12 112 -4 62 22 17 46 -78z m4407 0 c5 -5 -40
-9 -100 -9 -59 0 -142 -6 -183 -13 -48 -8 -75 -4 -75 9 0 32 327 44 358 13z
m-2885 -18 c-6 -15 4 -40 22 -55 28 -22 31 -21 19 9 -16 45 13 45 49 1 18 -23
19 -29 2 -19 -16 10 -25 4 -25 -16 0 -56 -59 -30 -97 43 -30 57 -29 66 9 66
20 0 28 -11 21 -29z m3038 -86 c-6 -6 -103 -15 -215 -19 -221 -8 -254 13 -51
32 132 13 285 5 266 -13z m-3374 -15 c2 -16 5 -43 6 -59 2 -16 11 -25 20 -19
10 6 17 0 17 -12 0 -12 7 -18 15 -13 23 14 26 -168 3 -210 -31 -58 6 -43 80
33 37 39 78 70 90 70 12 0 46 13 74 27 43 23 66 23 125 3 40 -14 67 -16 60 -6
-6 11 7 10 31 -3 23 -12 42 -35 42 -51 0 -15 10 -34 23 -42 14 -8 18 -5 10 8
-9 13 2 20 26 19 22 -2 38 -17 37 -34 -5 -65 5 -94 30 -94 15 0 25 18 23 41
-2 23 4 62 13 86 10 26 8 46 -4 50 -29 10 -2 69 31 69 16 0 29 -16 30 -36 0
-20 2 -54 2 -76 1 -25 12 -35 30 -28 16 6 29 1 29 -12 0 -13 -10 -17 -21 -10
-12 7 -27 -6 -33 -29 -6 -23 -20 -36 -31 -29 -12 8 -15 3 -7 -10 8 -13 27 -23
43 -23 16 0 29 -8 29 -17 0 -31 69 -97 117 -112 25 -8 41 -20 35 -25 -26 -26
237 -275 270 -255 8 5 29 -10 47 -35 17 -25 31 -37 31 -26 0 10 11 7 24 -6 13
-13 38 -24 55 -24 27 1 27 3 1 20 -23 15 -18 19 24 20 29 0 67 13 83 30 30 30
93 22 93 -12 0 -27 -35 -22 -47 7 -6 15 -10 11 -11 -10 -1 -19 -15 -35 -31
-35 -16 0 -35 -11 -43 -23 -10 -16 -4 -20 19 -11 33 13 37 2 38 -99 1 -28 10
-40 28 -33 15 6 27 20 27 31 0 12 5 17 10 11 6 -5 -2 -41 -18 -78 l-29 -68
-30 70 c-18 43 -23 78 -11 92 26 32 -3 52 -37 24 -22 -18 -32 -17 -46 5 -10
16 -19 21 -19 12 0 -10 -22 -3 -50 15 -27 18 -50 26 -50 17 0 -9 -32 -19 -70
-22 -39 -2 -69 3 -68 11 7 40 -5 68 -49 115 -26 28 -53 44 -60 37 -7 -7 -13 2
-13 21 0 18 -24 53 -52 78 -29 25 -82 83 -118 129 -35 47 -72 78 -81 70 -8 -8
-8 -1 1 14 13 22 8 25 -20 15 -22 -9 -43 -4 -53 11 -12 19 -16 16 -17 -11 0
-31 -5 -34 -30 -13 -25 20 -30 19 -30 -8 0 -17 10 -32 21 -32 12 0 16 -9 9
-20 -7 -11 -4 -20 7 -20 10 0 18 -25 17 -55 -5 -141 6 -215 28 -185 17 24 19
20 11 -17 -8 -35 0 -50 28 -57 21 -6 34 -19 28 -28 -6 -10 -2 -18 10 -18 11 0
21 -12 21 -27 0 -14 36 -66 81 -115 44 -48 100 -124 123 -168 23 -44 50 -85
60 -92 10 -7 9 -50 -4 -106 -11 -52 -16 -102 -10 -112 6 -9 3 -22 -7 -28 -10
-6 -15 -36 -12 -66 4 -30 -4 -67 -16 -82 -28 -34 -144 -94 -126 -66 23 38 -19
24 -48 -16 -27 -39 -113 -17 -89 22 6 9 -1 16 -16 17 -16 0 -12 8 9 21 19 11
44 15 56 8 41 -26 199 166 199 241 0 76 -67 194 -130 230 -50 28 -132 130
-138 170 -3 17 -20 48 -38 70 -19 22 -34 49 -34 62 0 15 -8 15 -29 -2 -15 -13
-44 -21 -65 -17 -28 5 -34 -5 -29 -42 5 -34 -1 -45 -21 -37 -38 14 -129 -35
-99 -53 36 -23 27 -72 -20 -111 -49 -39 -70 -121 -32 -121 16 -1 18 -6 4 -15
-11 -8 -20 -32 -20 -53 1 -40 -61 -64 -63 -25 -1 13 -7 71 -13 129 -9 82 -5
108 18 117 16 6 29 28 29 49 0 21 7 38 15 38 24 0 64 100 52 131 -6 16 -1 29
11 29 12 0 22 -19 22 -41 0 -69 36 -24 52 66 18 100 12 175 -17 210 -25 31 -5
166 27 186 52 32 0 121 -96 163 -103 45 -246 71 -246 44 0 -51 -84 -154 -103
-126 -15 23 -25 19 -53 -22 -67 -97 -147 -178 -189 -191 -23 -8 -92 -46 -153
-85 -120 -77 -150 -80 -446 -57 -94 8 -158 5 -166 -7 -7 -11 -23 -20 -36 -20
-13 1 -1 19 26 40 l50 39 -95 -8 c-64 -6 -91 -1 -83 12 8 14 -2 16 -29 8 -24
-8 -43 -5 -43 5 0 29 108 44 125 17 8 -14 15 -5 15 22 0 25 8 45 18 45 10 0
35 6 54 13 27 11 32 6 22 -20 -10 -27 -4 -32 32 -24 24 5 116 14 205 20 157 9
349 71 349 111 0 10 14 14 30 7 18 -7 62 17 108 59 43 38 97 76 120 83 53 17
55 71 3 71 -21 0 -45 10 -52 22 -12 19 -174 102 -209 108 -5 1 -28 11 -50 23
-70 38 -242 51 -267 20 -31 -37 -9 -53 75 -53 88 -1 280 -57 200 -59 -45 -1
-51 -9 -50 -71 2 -88 39 -91 127 -9 62 58 66 59 123 30 141 -73 96 -94 -288
-141 -33 -4 -106 -14 -163 -21 l-103 -14 -34 72 c-18 39 -28 80 -21 91 25 41
-22 36 -79 -10 -53 -42 -57 -52 -35 -88 14 -22 19 -41 10 -42 -134 -14 -184
-33 -270 -101 -41 -32 -75 -50 -75 -39 0 12 -13 16 -30 9 -19 -7 -30 1 -30 22
0 18 -9 28 -19 22 -11 -7 -14 -27 -7 -45 10 -26 3 -30 -34 -20 -25 6 -63 3
-83 -8 -20 -11 -37 -11 -37 -2 0 10 20 28 45 40 25 12 34 22 20 23 -49 2 -24
36 27 36 63 0 148 43 148 75 0 48 63 148 100 160 45 14 180 140 180 168 0 10
18 14 40 8 22 -6 34 -20 27 -31 -9 -14 4 -16 35 -7 48 13 245 50 338 62 85 11
216 -13 254 -48 20 -17 73 -56 119 -86 l83 -54 8 69 c4 38 -1 79 -13 90 -15
15 -9 30 18 50 21 16 32 29 24 29 -9 0 -10 9 -3 20 17 27 23 25 27 -10z m1193
-104 c-22 -6 -91 -41 -153 -78 -138 -84 -191 -88 -98 -9 67 57 170 97 251 97
40 -1 40 -1 0 -10z m2170 -94 c0 -23 -29 -27 -135 -22 -245 12 -257 18 -65 30
105 7 192 14 195 16 3 2 5 -9 5 -24z m-1877 -39 c18 -3 70 -30 115 -59 45 -30
90 -54 102 -54 11 0 20 -13 20 -29 0 -15 16 -34 35 -41 19 -6 56 -39 82 -71
56 -71 18 -102 -73 -59 -30 14 -74 35 -99 46 -25 12 -77 22 -115 23 -69 1
-102 31 -35 31 80 1 97 35 46 89 -67 71 -94 64 -109 -29 -7 -44 -18 -80 -24
-80 -65 0 -563 88 -577 102 -29 28 31 78 121 101 226 58 302 68 388 52 50 -9
105 -19 123 -22z m199 -15 c63 -44 126 -116 78 -89 -16 9 -48 33 -70 52 -22
19 -67 49 -100 67 -52 29 -53 32 -10 20 28 -7 73 -30 102 -50z m1447 -229 c17
-18 31 -41 31 -52 0 -10 8 -15 17 -9 29 18 186 -158 172 -193 -17 -44 -63 -59
-77 -24 -6 17 -24 23 -45 15 -23 -9 -29 -5 -19 11 8 12 27 23 43 23 16 0 29
12 29 27 0 19 -20 25 -69 20 -37 -4 -74 2 -81 13 -7 12 16 20 60 20 60 0 68 4
46 28 -14 16 -30 28 -36 28 -81 -4 -103 6 -80 34 14 17 19 31 12 33 -6 1 -21
4 -32 7 -11 3 -40 7 -65 9 -43 4 -43 5 -5 21 57 24 63 24 99 -11z m-1912 -141
c37 -15 75 -23 84 -18 9 6 21 3 27 -7 7 -10 45 -25 87 -33 l75 -15 -56 -16
c-41 -12 -84 -3 -165 32 -61 27 -120 49 -131 49 -11 0 -36 15 -53 33 -37 37
-3 30 132 -25z m-2701 -38 c-3 -11 -11 -18 -17 -16 -6 2 -12 -20 -15 -49 -4
-51 -3 -51 25 -14 28 39 29 -43 0 -127 -5 -14 0 -21 11 -14 30 18 24 -23 -7
-55 -72 -71 -46 -154 37 -122 26 10 27 3 11 -41 -16 -41 -14 -52 9 -52 17 0
30 -16 30 -35 0 -20 -7 -26 -15 -15 -27 36 -105 26 -105 -13 0 -41 -3 -42 -49
-25 -24 10 -27 19 -9 40 12 15 25 74 29 132 3 59 13 129 21 156 13 44 11 47
-16 25 -27 -22 -33 -18 -41 25 -5 27 -3 50 5 50 8 0 11 25 7 55 -6 47 -5 49
11 15 16 -33 19 -27 21 36 1 59 8 75 32 70 17 -3 28 -15 25 -26z m3324 8 c0
-12 -20 -27 -45 -34 -42 -12 -41 -13 15 -26 60 -13 60 -13 6 -16 -29 -1 -59 7
-66 18 -18 28 -42 25 -78 -11 -23 -23 -41 -26 -67 -11 -31 19 -30 21 10 21 25
1 45 8 45 17 0 10 34 26 75 38 103 29 105 29 105 4z m-2020 -182 c0 8 9 1 19
-16 13 -20 10 -44 -10 -74 -38 -58 -37 -144 2 -188 29 -32 27 -41 -25 -120
-83 -126 -82 -319 2 -391 64 -55 58 -69 -50 -123 -42 -21 -83 -65 -108 -115
-22 -45 -62 -112 -90 -150 -27 -38 -47 -72 -43 -75 4 -4 -55 -92 -130 -197
-195 -270 -211 -299 -236 -424 -20 -100 -28 -113 -72 -114 -35 0 -47 -10 -43
-35 3 -19 -3 -34 -14 -34 -19 0 -27 20 -50 123 -20 91 -66 85 -81 -9 -18 -120
-50 -165 -51 -71 0 46 -11 77 -30 84 -17 7 -29 19 -28 27 2 9 1 21 -1 26 -18
45 -13 80 11 80 15 0 28 10 28 21 0 12 -9 16 -20 9 -11 -7 -20 7 -20 30 0 23
9 37 20 30 11 -7 20 -4 20 7 0 11 -11 23 -24 28 -38 12 5 59 45 49 50 -13 65
37 20 69 -39 28 -37 169 1 146 10 -6 18 -2 18 10 0 11 -13 21 -29 21 -52 0
-70 66 -29 108 36 37 37 37 58 -10 l21 -48 -10 50 c-5 28 0 64 12 80 17 25 19
24 9 -6 -7 -23 -4 -31 10 -23 12 7 16 34 10 60 -15 59 4 109 42 109 19 0 26
-11 18 -31 -7 -19 -3 -26 9 -18 11 7 15 29 9 49 -6 20 -2 42 9 49 18 12 31
-28 23 -74 -1 -8 5 -15 15 -15 28 0 43 24 29 47 -20 32 -22 135 -5 197 10 35
7 57 -8 63 -16 7 -14 16 7 31 24 17 33 9 46 -39 17 -67 25 -72 42 -28 6 18 3
26 -8 19 -12 -7 -15 11 -8 47 7 33 3 64 -10 72 -12 7 -22 5 -22 -5 0 -11 -17
-24 -39 -29 -26 -7 -35 -2 -28 17 6 15 21 25 33 22 13 -2 26 17 30 42 6 37 13
42 34 24 15 -13 24 -34 19 -46 -18 -51 30 -88 56 -44 51 82 58 139 13 98 -29
-26 -45 -29 -62 -12 -16 16 -6 31 41 58 36 21 63 52 63 75 0 38 0 38 -29 0
-20 -26 -30 -30 -30 -12 -1 22 -7 23 -30 4 -16 -14 -41 -21 -55 -15 -15 5 0
19 34 33 33 13 76 43 95 67 34 44 34 43 35 -36 0 -44 10 -93 22 -110 16 -24
18 -21 8 13 -9 33 -1 47 29 57 23 7 51 31 63 54 16 30 16 37 0 27 -12 -7 -22
-2 -23 13 0 16 -8 13 -21 -9 -11 -19 -29 -35 -40 -35 -11 0 -6 20 11 45 17 24
47 45 66 45 21 0 34 14 32 35 -1 19 6 35 17 35 10 0 13 18 6 40 -17 55 7 51
29 -5 l18 -45 2 46 c1 31 12 44 33 40 23 -4 35 11 39 51 8 65 29 98 29 45 0
-19 9 -29 21 -21 11 7 15 30 8 51 -6 21 -3 38 8 38 11 0 25 -16 31 -35 5 -19
8 -2 5 39 l-5 73 66 -27 c36 -16 66 -22 66 -14z m2114 -9 c26 -56 17 -96 -17
-75 -25 15 -55 93 -43 113 16 28 36 15 60 -38z m-3192 4 c10 6 18 2 18 -9 0
-11 14 -16 30 -9 20 7 30 -1 31 -26 1 -29 6 -27 21 11 l19 48 47 -44 48 -45
31 45 c37 52 42 50 61 -30 12 -49 10 -55 -14 -36 -23 20 -28 13 -30 -36 -1
-33 6 -60 15 -60 21 0 42 -82 27 -106 -6 -10 -29 18 -49 63 -43 94 -62 107
-49 33 9 -46 6 -48 -34 -26 -24 14 -51 23 -59 20 -8 -2 -15 12 -16 31 0 33 -1
33 -20 1 -23 -40 -82 -26 -66 16 8 19 -3 28 -31 28 -23 0 -42 -10 -42 -21 0
-12 -9 -16 -21 -8 -12 7 -17 23 -13 36 5 13 0 40 -11 61 -17 32 -13 36 23 27
23 -6 37 -3 31 7 -6 10 -5 29 3 42 12 19 17 19 23 0 5 -13 17 -19 27 -13z
m3269 -6 c-6 -7 3 -33 19 -58 17 -26 22 -47 10 -47 -35 0 -50 9 -44 27 3 10
-5 29 -17 44 -25 31 -7 76 24 57 11 -6 15 -17 8 -23z m1297 -15 c-17 -71 3
-136 67 -213 l55 -65 -69 49 c-108 76 -130 99 -95 99 49 0 17 100 -33 102 -39
2 -38 4 7 18 28 9 37 18 20 19 -25 3 10 28 55 40 3 0 0 -21 -7 -49z m-1643
-44 c-14 -5 -25 -22 -25 -38 0 -15 -9 -28 -20 -28 -27 0 -25 32 4 80 18 28 31
33 45 17 15 -15 13 -25 -4 -31z m-2501 -110 c-1 -31 7 -52 17 -45 11 6 19 2
19 -10 0 -40 -55 -21 -67 24 -23 84 -15 171 11 127 12 -22 21 -65 20 -96z
m-59 22 c9 -54 4 -71 -18 -71 -16 0 -24 11 -19 25 5 14 0 29 -12 33 -14 4 -13
21 6 50 32 51 30 53 43 -37z m1177 57 c2 -14 2 -32 0 -40 -1 -8 7 -15 18 -15
11 0 20 -18 20 -40 0 -22 -13 -40 -30 -40 -16 0 -30 17 -30 38 0 21 -11 42
-24 47 -27 9 -7 75 23 75 12 0 22 -11 23 -25z m-22 -215 c-10 -19 -12 -42 -4
-51 8 -8 3 -9 -9 -2 -14 8 -28 -2 -33 -22 -4 -19 -9 -3 -9 35 -2 117 14 156
47 111 18 -25 20 -48 8 -71z m3214 -69 c-12 -35 -133 -60 -160 -33 -19 19 -16
21 11 11 51 -19 43 4 -25 77 -88 94 -74 100 60 29 66 -35 117 -73 114 -84z
m-4679 24 c1 -14 7 -47 14 -75 7 -29 5 -37 -4 -20 -8 17 -26 30 -40 28 -14 -2
-34 -4 -44 -5 -10 -2 -31 -28 -45 -58 -19 -40 -41 -55 -80 -55 -29 0 -59 -7
-68 -15 -8 -8 -2 -15 14 -15 23 -1 23 -4 -2 -20 -47 -30 -80 -23 -74 15 8 55
36 89 63 78 13 -5 37 -1 53 9 22 14 20 17 -10 18 -37 0 -37 1 -2 40 28 31 41
35 54 15 13 -20 20 -19 36 5 12 19 19 21 20 6 0 -14 14 -20 31 -13 23 9 25 18
7 40 -19 22 -17 26 7 16 17 -6 37 -2 44 10 17 28 24 27 26 -4z m157 -125 c-22
-60 -30 -68 -31 -34 -1 31 -9 42 -26 32 -14 -8 -5 6 20 30 25 24 46 59 47 78
2 27 4 28 11 4 4 -17 -5 -67 -21 -110z m1103 -15 c-3 -9 33 -58 80 -107 97
-101 105 -128 37 -128 -28 0 -60 -19 -78 -47 -31 -47 -31 -48 42 -48 41 0 110
-16 154 -35 44 -20 100 -34 125 -31 30 2 45 -7 45 -29 0 -38 43 -31 56 9 6 16
0 21 -13 13 -14 -8 -23 -1 -23 17 0 21 18 31 55 31 51 -1 140 -38 95 -40 -11
-1 -2 -15 20 -31 34 -26 35 -33 10 -49 -19 -11 -34 -9 -44 6 -10 15 -16 16
-16 2 0 -12 -25 -17 -60 -12 -47 7 -60 1 -60 -26 0 -26 -12 -32 -50 -25 -62
12 -64 -17 -5 -65 36 -30 40 -42 20 -63 -36 -36 -31 -67 5 -37 40 33 63 10 31
-29 -46 -55 -296 -34 -285 24 5 25 17 50 26 56 10 6 18 29 18 50 0 22 14 39
30 39 60 0 29 74 -55 130 -64 43 -110 57 -185 58 -55 1 -111 13 -125 26 -28
26 -34 54 -9 39 9 -6 17 38 18 97 3 111 35 199 66 180 10 -6 24 23 32 64 13
70 15 71 32 27 9 -26 14 -56 11 -66z m-1235 -65 c0 -23 17 -29 69 -23 91 10
101 -4 48 -61 -55 -57 -86 -60 -56 -4 12 23 17 47 11 53 -7 6 -12 1 -12 -12 0
-40 -57 -25 -70 18 -13 39 -16 40 -50 9 -36 -32 -41 -20 -22 45 7 22 82 -2 82
-25z m1989 -34 c43 -62 41 -136 -5 -136 -20 0 -45 -8 -55 -17 -36 -33 -119
-41 -155 -14 -20 15 -53 22 -75 17 -57 -15 -48 22 24 94 108 107 214 130 266
56z m-2047 -65 c10 6 18 1 18 -12 0 -18 8 -18 30 1 23 19 30 19 30 1 0 -14
-18 -29 -40 -35 -22 -6 -40 -20 -40 -31 0 -12 -11 -11 -28 3 -16 14 -23 42
-16 67 6 24 15 33 19 19 5 -13 17 -19 27 -13z m242 -39 c31 20 -14 -57 -57
-96 -21 -19 -61 -31 -91 -28 -32 4 -58 -5 -65 -22 -6 -15 -3 -23 7 -17 10 6
23 -4 30 -21 9 -23 4 -29 -18 -21 -16 7 -30 1 -30 -11 0 -13 -13 -6 -29 15
-26 34 -26 42 0 61 16 12 29 29 29 38 0 26 86 92 99 75 6 -9 22 -15 36 -13 14
2 34 4 44 6 11 1 17 13 14 27 -4 14 -3 18 2 10 5 -8 18 -10 29 -3z m-285 -118
c-60 -46 -72 -122 -50 -320 3 -31 -1 -49 -10 -40 -8 9 -19 52 -22 96 -4 44
-14 85 -22 91 -34 25 47 199 92 198 38 0 39 -3 12 -25z m2695 -32 c-13 -4 -34
-15 -46 -25 -13 -10 -35 -3 -55 20 -31 34 -31 36 2 37 19 0 41 -10 49 -21 9
-14 19 -8 28 14 11 29 17 31 30 10 10 -17 7 -30 -8 -35z m-2567 -209 c-31 -35
-64 -72 -74 -83 -17 -20 2 104 21 136 5 9 23 5 39 -8 16 -14 28 -16 26 -6 -12
62 2 98 24 61 17 -30 10 -49 -36 -100z m2182 88 c32 -35 32 -42 5 -70 -25 -24
-32 -25 -40 -3 -6 15 -1 37 12 50 13 13 14 22 2 22 -11 0 -31 -11 -44 -24 -19
-19 -24 -17 -24 7 0 65 39 73 89 18z m597 -1 c6 -22 2 -45 -8 -51 -10 -7 -13
-22 -5 -33 8 -14 4 -16 -10 -8 -24 15 -25 132 -1 132 7 0 18 -18 24 -40z
m-2863 -11 c15 8 10 0 -10 -16 -20 -17 -31 -40 -24 -52 7 -12 -1 -21 -20 -21
-22 0 -29 11 -21 32 7 17 12 46 12 65 1 26 4 28 18 5 10 -15 30 -21 45 -13z
m1981 -27 c-6 -17 -2 -23 10 -16 20 13 81 -100 71 -131 -3 -8 9 -15 25 -15 17
0 28 -11 25 -25 -3 -14 6 -23 20 -20 15 3 25 -16 25 -47 0 -45 -5 -49 -30 -28
-28 23 -39 14 -32 -28 2 -9 -15 -12 -37 -6 -23 5 -41 2 -41 -8 0 -10 -11 -18
-24 -18 -13 0 -44 -20 -70 -43 -25 -24 -46 -33 -46 -20 0 36 -43 27 -93 -19
l-45 -43 -55 44 -56 44 -34 -42 c-43 -52 -52 -52 -45 4 2 25 5 56 6 70 3 36
82 31 82 -5 0 -45 34 -36 46 11 6 23 23 39 37 36 53 -11 277 51 277 77 0 14
-31 38 -68 54 -70 29 -122 95 -96 121 8 8 5 11 -6 8 -11 -4 -20 2 -20 13 0 11
13 19 28 17 16 -2 39 7 52 20 35 35 108 32 94 -5z m-885 -102 c0 -26 -2 -26
-18 0 -16 24 -22 20 -37 -19 l-18 -49 -10 53 c-6 30 -3 50 5 45 8 -6 21 6 28
25 15 39 50 1 50 -55z m-1467 -38 c-18 -19 -25 -43 -17 -52 8 -9 4 -10 -10 -2
-14 8 -25 32 -25 54 0 22 9 35 20 28 11 -7 26 3 34 23 9 23 16 26 22 10 4 -14
-6 -41 -24 -61z m1788 28 c0 -56 -48 -69 -68 -18 -15 39 1 68 39 68 18 0 29
-20 29 -50z m2375 5 c11 -14 26 -61 33 -105 36 -216 36 -229 5 -259 -48 -48
-68 -37 -79 44 -10 73 -33 178 -64 290 -16 61 62 83 105 30z m-4036 -43 c15
-19 16 -33 3 -41 -11 -7 -16 -25 -10 -40 6 -15 1 -33 -11 -40 -15 -10 -15 -26
1 -55 12 -23 24 -83 26 -134 1 -51 9 -103 18 -116 8 -13 7 -28 -3 -34 -10 -6
-23 -39 -30 -74 -10 -49 -19 -58 -39 -41 -20 16 -34 15 -53 -2 -21 -20 -24
-19 -17 5 5 17 31 41 58 55 26 13 37 25 23 25 -14 0 -25 14 -25 31 0 17 -9 26
-20 19 -11 -7 -14 1 -8 19 7 17 18 27 26 22 8 -5 15 28 16 73 1 54 -4 72 -16
54 -9 -15 -18 -46 -18 -68 -1 -38 -3 -38 -22 -4 -13 23 -14 45 -2 60 21 27 48
177 47 259 -2 60 19 70 56 27z m2554 -150 c-29 -9 -100 -82 -80 -82 7 0 8 -6
1 -12 -7 -7 -26 1 -43 18 -19 20 -24 36 -11 44 11 7 20 2 20 -10 0 -12 10 -16
23 -8 17 10 15 20 -5 36 -32 25 -49 81 -20 63 11 -6 25 -2 32 9 8 12 30 7 59
-15 27 -20 38 -38 24 -43z m307 33 c0 -12 -15 -39 -34 -60 -22 -24 -27 -42
-14 -51 23 -15 56 -85 52 -108 -2 -7 14 -10 35 -6 28 5 35 -1 27 -22 -6 -17 8
-49 33 -72 36 -33 39 -45 18 -58 -26 -17 0 -28 48 -20 17 2 17 5 27 -133 4
-57 19 -138 34 -180 22 -66 21 -79 -10 -110 -32 -31 -36 -31 -36 -3 0 22 -11
28 -33 20 -26 -10 -28 -7 -10 15 27 32 10 142 -27 173 -14 12 -21 39 -16 61 6
23 1 39 -14 39 -13 0 -19 13 -13 29 6 17 2 35 -8 42 -11 6 -14 21 -8 31 7 11
-18 49 -56 84 -37 36 -65 74 -61 86 4 11 -20 58 -53 104 -33 45 -52 87 -43 93
10 6 23 -3 29 -19 19 -50 49 -34 73 40 21 64 60 80 60 25z m1355 32 c25 -6 45
-24 45 -40 0 -23 -8 -23 -47 3 -25 16 -52 24 -60 17 -7 -8 -13 -3 -13 10 0 26
11 28 75 10z m-2500 -119 c18 -18 33 -60 34 -93 1 -72 8 -74 268 -84 131 -4
193 -15 205 -34 10 -16 18 -18 18 -4 0 37 74 45 121 12 87 -61 218 -123 287
-136 80 -15 172 -163 172 -278 0 -34 22 -99 48 -145 36 -62 42 -85 22 -90 -50
-12 32 -140 106 -165 l65 -22 -60 -35 c-53 -31 -68 -94 -22 -94 8 0 16 -41 18
-91 2 -58 -4 -87 -17 -79 -11 7 -15 21 -9 31 6 11 -3 19 -20 19 -19 0 -31 18
-31 46 0 25 -10 56 -23 69 -18 18 -17 32 4 59 15 20 20 30 11 22 -26 -22 -129
143 -117 187 5 20 -1 37 -13 37 -16 0 -17 11 -4 35 12 23 11 72 -2 135 -11 55
-24 121 -28 146 -14 73 -58 73 -182 -1 -160 -96 -193 -101 -733 -105 -383 -3
-481 -10 -495 -32 -13 -22 -18 -19 -19 12 -1 22 -6 30 -12 17 -6 -17 -28 -18
-73 -5 -35 10 -88 18 -117 18 -130 0 -87 119 45 123 138 4 147 5 158 20 37 48
120 40 120 -12 0 -30 9 -48 20 -41 11 7 20 4 20 -5 0 -24 366 -20 383 4 9 11
25 9 41 -4 15 -13 59 -23 97 -23 38 0 99 -1 137 -2 37 -2 77 7 88 18 15 15 33
11 61 -13 36 -32 39 -32 28 -1 -10 25 -3 31 26 26 22 -4 39 1 39 12 0 11 10
14 22 7 12 -7 51 15 88 51 49 47 77 61 108 51 49 -16 55 13 10 50 -25 22 -34
22 -47 0 -21 -34 -131 0 -131 41 0 16 -25 31 -60 35 -33 3 -67 19 -76 35 -24
42 -52 34 -40 -12 10 -39 29 -48 83 -41 16 2 24 -11 19 -33 -3 -20 -12 -31
-19 -26 -7 6 -29 -5 -50 -22 -32 -28 -77 -33 -192 -20 -8 1 -15 16 -15 32 0
22 15 28 54 21 l54 -10 -61 55 -60 55 -378 -1 -379 -2 -130 -61 c-139 -65
-260 -155 -260 -194 0 -13 -27 -78 -59 -144 -33 -65 -60 -131 -60 -145 -1 -43
-83 -189 -155 -277 -37 -46 -71 -101 -75 -124 -14 -69 -72 -141 -104 -129 -21
8 -28 0 -24 -26 5 -26 -5 -37 -33 -38 -25 0 -39 -13 -37 -34 1 -18 -9 -38 -23
-43 -28 -11 -29 21 -3 62 9 15 2 38 -16 57 -17 17 -31 37 -31 43 0 7 11 2 24
-11 13 -13 31 -24 40 -24 34 0 13 35 -49 80 -36 26 -53 33 -39 16 19 -24 20
-34 2 -40 -18 -6 -18 -18 0 -52 25 -47 13 -93 -19 -73 -11 6 -19 31 -19 55 -1
37 -4 39 -22 14 -16 -23 -18 -17 -9 25 7 32 3 55 -9 55 -11 0 -20 -14 -20 -31
0 -17 -10 -25 -22 -18 -13 8 -6 29 22 59 23 24 43 63 45 85 2 23 14 37 27 31
13 -5 30 1 37 13 7 11 3 21 -9 21 -13 0 -10 13 9 31 32 33 43 109 15 109 -25
0 -16 126 10 135 25 8 48 -55 53 -145 2 -34 12 -47 30 -40 18 7 24 0 16 -21
-17 -43 39 -60 76 -23 23 23 25 33 6 41 -15 6 -11 10 10 11 19 1 35 11 35 22
0 11 19 39 43 63 24 24 46 70 48 103 3 32 12 65 22 72 69 50 135 198 105 235
-17 20 -17 42 2 87 25 61 70 109 48 51 -23 -58 46 -32 145 55 99 88 255 172
397 216 44 13 85 31 90 40 6 8 34 18 61 22 28 4 78 27 110 51 71 53 65 52 104
13z m905 -100 c0 -27 15 -74 33 -104 26 -41 19 -38 -29 16 -64 72 -83 114 -39
87 20 -12 20 -8 0 16 -13 17 -19 36 -12 43 23 23 47 -7 47 -58z m1574 -92
c-27 -36 -55 -88 -63 -116 -10 -38 -9 -43 7 -20 19 26 21 26 22 -3 0 -17 -13
-43 -30 -57 -22 -19 -30 -19 -30 -1 0 13 -8 18 -18 12 -91 -56 -6 172 94 250
70 55 80 18 18 -65z m-3930 0 c-8 -54 -11 -56 -44 -26 -28 26 -38 27 -46 6 -6
-14 -12 -6 -12 18 -2 32 7 41 28 33 17 -6 30 -3 30 8 0 10 12 18 26 18 17 0
23 -19 18 -57z m4074 -40 c-13 -25 -25 -72 -26 -105 -2 -46 -11 -61 -40 -61
-57 0 -57 70 0 145 57 74 102 89 66 21z m-595 -196 c5 -44 2 -80 -6 -80 -7 0
-10 -16 -5 -35 15 -64 -42 -234 -81 -242 -22 -4 -31 2 -22 15 28 46 -29 19
-93 -43 -36 -36 -59 -57 -51 -46 8 10 15 36 15 56 0 21 8 33 17 27 24 -15 102
80 83 101 -28 28 -31 120 -6 150 13 15 28 53 33 82 24 128 105 138 116 15z
m-2135 9 c13 -34 -8 -109 -30 -109 -10 0 -19 7 -19 15 -1 8 -5 38 -9 67 -7 53
39 75 58 27z m378 -29 c15 -57 -148 -106 -180 -54 -7 12 14 16 52 10 68 -10
131 49 77 71 -16 6 -13 10 8 11 18 1 37 -16 43 -38z m-2125 -180 c37 0 48 -19
41 -73 -2 -13 15 -30 38 -37 22 -7 35 -21 29 -32 -7 -10 -19 -14 -27 -9 -8 5
-15 -3 -15 -19 0 -16 11 -33 26 -38 35 -14 30 -152 -6 -152 -15 0 -28 -20 -30
-45 l-2 -45 -9 44 c-5 24 -25 49 -45 56 -25 8 -40 39 -48 103 -18 132 -17 147
17 147 17 0 30 8 30 19 0 10 -16 16 -35 12 -28 -5 -34 6 -32 56 6 92 11 109
21 58 6 -28 23 -45 47 -45z m549 -132 c-45 -46 -46 -44 -31 82 1 11 15 3 31
-17 24 -32 24 -42 0 -65z m-200 -25 c0 -12 -8 -22 -18 -21 -10 1 -25 -11 -34
-25 -21 -32 -24 3 -6 52 14 36 58 31 58 -6z m1939 -68 c-5 -25 -21 -54 -36
-65 -15 -11 -28 -29 -30 -40 -2 -11 -14 -20 -28 -20 -14 0 -32 -9 -40 -20 -8
-11 -15 0 -15 24 0 24 16 54 35 67 33 21 33 22 0 11 -22 -7 -35 0 -35 19 0 19
20 29 59 29 32 0 64 9 71 20 20 33 28 23 19 -25z m-1894 -34 c-4 -45 -55 -75
-55 -32 0 15 -11 33 -25 40 -14 6 -5 8 20 3 25 -4 45 0 45 10 0 10 4 18 9 18
5 0 7 -18 6 -39z m1591 -82 c43 4 54 -2 54 -29 0 -16 -9 -30 -20 -30 -11 0
-20 13 -20 29 0 24 -9 24 -59 -5 -60 -34 -97 -25 -71 17 11 17 19 17 31 -3 11
-18 21 -8 31 32 12 47 17 52 27 23 7 -20 19 -35 27 -34z m614 -165 c0 -9 19
-57 41 -107 23 -50 37 -96 30 -102 -6 -7 -11 -1 -11 12 0 12 -39 63 -88 112
-48 49 -85 92 -81 95 4 4 -1 40 -10 81 -9 40 -12 78 -6 83 11 11 124 -147 125
-174z m-900 2 c0 -53 -48 -35 -56 20 -5 33 1 41 25 32 17 -7 31 -30 31 -52z
m-1497 -31 c-22 -8 -22 -13 -2 -25 15 -10 19 -30 10 -53 -14 -33 -18 -30 -35
19 -19 53 -22 54 -48 20 -27 -34 -27 -34 -15 2 10 27 7 34 -10 24 -15 -9 -22
1 -21 32 0 25 6 35 11 21 11 -27 69 -35 65 -10 -7 44 6 50 37 17 28 -29 29
-39 8 -47z m1966 28 c20 -14 33 -38 28 -52 -7 -20 -16 -19 -41 6 -18 18 -43
33 -56 33 -12 0 -17 9 -10 20 17 27 35 25 79 -7z m131 -141 c0 -7 -13 -12 -30
-12 -16 0 -30 13 -30 28 0 16 -6 45 -13 65 -8 23 3 17 30 -16 24 -29 43 -59
43 -65z m-227 15 c9 -38 3 -60 -21 -78 -19 -14 -41 -48 -48 -77 -8 -28 -23
-49 -34 -47 -11 3 -17 14 -13 25 5 11 9 45 10 75 2 36 13 53 33 50 22 -4 28
10 24 50 -7 70 31 72 49 2z"/>
<path d="M2612 5131 c-17 -70 -10 -317 9 -297 24 25 59 168 37 155 -21 -13
-25 12 -19 116 5 86 -9 99 -27 26z"/>
<path d="M3142 4665 c-34 -81 -46 -245 -18 -245 12 0 17 27 11 63 -5 35 4 89
19 120 16 31 26 73 22 92 -5 25 -14 17 -34 -30z"/>
<path d="M2743 4558 c-2 -29 -7 -83 -13 -120 l-10 -68 21 67 c12 37 18 91 13
120 l-8 53 -3 -52z"/>
<path d="M1454 4842 c-26 -76 -30 -114 -15 -129 15 -15 21 -6 21 29 0 28 10
60 22 72 11 11 18 47 15 79 -6 51 -11 45 -43 -51z"/>
<path d="M1643 3635 c-67 -24 -143 -78 -223 -156 -128 -127 -120 -164 11 -53
128 107 194 148 284 175 47 14 85 36 85 49 0 33 -40 29 -157 -15z"/>
<path d="M3537 3511 c-41 -12 -81 -28 -90 -38 -10 -9 -8 -14 3 -10 11 3 45
-11 76 -32 65 -43 101 -23 91 52 -7 46 -11 48 -80 28z"/>
<path d="M2151 2579 c8 -13 -2 -19 -24 -15 -30 5 -36 -5 -31 -52 6 -53 4 -55
-26 -25 -41 41 -52 42 -37 3 6 -16 0 -30 -13 -30 -68 0 -154 -145 -141 -237 2
-15 -6 -21 -19 -13 -13 8 -18 29 -11 47 9 26 5 25 -18 -4 -15 -20 -23 -52 -16
-70 6 -18 4 -26 -5 -18 -17 15 -104 -98 -114 -148 -3 -15 -22 -42 -41 -60 -20
-18 -30 -46 -24 -62 6 -16 -3 -44 -20 -61 -39 -40 -39 -52 4 -101 19 -22 25
-34 12 -26 -13 7 -28 2 -32 -12 -5 -14 -16 4 -24 40 -8 35 -23 70 -35 77 -13
8 -15 -2 -7 -28 9 -28 -1 -54 -31 -81 -25 -24 -38 -54 -31 -71 6 -17 -2 -39
-20 -48 -28 -16 -28 -24 3 -83 18 -36 25 -60 14 -53 -11 6 -24 -11 -29 -38
-12 -61 39 -67 158 -18 88 37 116 69 81 94 -16 12 -12 14 11 7 26 -9 45 9 75
67 22 43 56 87 75 98 19 12 28 21 19 21 -9 1 2 27 25 59 22 32 41 68 41 80 0
12 11 22 25 22 15 0 17 6 5 15 -27 20 -37 71 -10 55 11 -7 20 -2 20 11 0 13
46 68 103 124 90 88 100 106 79 139 -13 21 -19 45 -13 55 6 9 -2 54 -18 98
-22 63 -23 86 -5 98 68 43 115 165 64 165 -18 0 -26 -10 -19 -21z m-323 -733
c-34 -55 -68 -54 -68 1 0 53 37 80 70 50 12 -12 12 -30 -2 -51z"/>
<path d="M1476 1315 c21 -25 20 -36 -7 -63 -28 -28 -28 -32 -2 -32 17 0 36 9
43 20 7 12 20 16 29 10 9 -5 22 4 28 21 10 24 5 26 -25 10 -30 -16 -37 -13
-35 12 2 18 -10 37 -27 43 -25 9 -26 5 -4 -21z"/>
<path d="M2820 1758 c0 -48 47 -42 56 9 4 19 -6 33 -25 33 -18 0 -31 -17 -31
-42z"/>
<path d="M4793 6187 c-21 -22 -15 -104 10 -119 17 -10 15 -20 -5 -36 -30 -23
-78 -182 -78 -255 0 -35 5 -38 30 -17 17 14 30 37 30 53 0 19 14 24 48 16 26
-7 53 -3 60 8 7 10 30 15 52 9 22 -6 40 -1 40 10 0 12 27 21 59 20 88 -3 50
-36 -239 -213 -38 -23 -81 -50 -95 -59 -31 -20 -69 -213 -53 -274 11 -47 88
-15 88 36 0 28 63 82 103 88 27 4 37 -7 37 -39 -1 -73 -31 -101 -154 -147
-138 -52 -164 -130 -86 -262 60 -102 129 -686 81 -686 -25 0 -28 -118 -3 -157
16 -26 36 18 55 127 72 404 167 808 292 1240 94 326 175 625 175 650 0 11 -36
20 -80 20 -51 0 -80 -9 -80 -25 -1 -17 -7 -15 -20 5 -16 26 -33 22 -119 -26
-81 -45 -101 -50 -101 -25 0 17 9 31 20 31 11 0 20 9 20 20 0 22 -66 27 -87 7z
m283 -166 c1 -48 -7 -61 -38 -61 -32 0 -36 7 -19 37 11 21 15 43 8 49 -16 16
12 57 31 45 9 -5 17 -37 18 -70z m-246 -966 c0 -64 -45 -113 -105 -114 -20 -1
-20 7 0 42 20 34 20 44 0 51 -14 5 -20 19 -13 30 9 13 18 11 28 -5 12 -18 25
-13 52 18 20 24 37 43 38 43 0 0 0 -29 0 -65z"/>
<path d="M5647 6170 c-6 -16 -21 -24 -34 -16 -16 9 -15 4 1 -16 29 -36 11
-123 -21 -105 -16 9 -16 5 0 -13 29 -30 13 -80 -25 -80 -15 0 -28 -8 -28 -18
0 -29 53 -63 82 -53 25 8 248 28 343 30 29 1 35 20 35 103 l0 102 -170 -13
c-93 -6 -170 -5 -170 4 0 14 88 24 285 33 38 1 55 13 55 37 0 48 -334 53 -353
5z"/>
<path d="M5978 5871 c-7 -7 -101 -16 -209 -19 -201 -8 -249 -28 -249 -108 0
-16 -12 -24 -28 -17 -16 5 -44 -7 -63 -28 -40 -44 -27 -50 37 -16 40 22 42 21
16 -11 -16 -19 -20 -33 -10 -31 36 7 134 -1 125 -11 -5 -5 -31 -12 -58 -16
-32 -5 -64 -34 -92 -86 -57 -102 -57 -104 8 -97 30 3 118 12 195 20 77 8 187
13 245 10 l105 -4 0 92 0 92 -195 -12 c-146 -9 -186 -6 -160 11 19 12 102 25
185 28 180 8 174 3 166 122 -3 51 -12 88 -18 81z"/>
<path d="M2055 5832 c-45 -34 -29 -47 45 -36 65 9 78 33 28 52 -38 15 -31 16
-73 -16z"/>
<path d="M2180 5779 c0 -35 60 -139 79 -139 38 0 37 34 -2 96 -40 63 -77 84
-77 43z"/>
<path d="M5837 5430 c-6 -5 -103 -15 -216 -21 -243 -12 -241 -11 -241 -100 0
-67 3 -69 77 -69 183 0 263 22 263 73 0 26 12 47 27 47 18 0 24 -16 18 -50
-11 -55 36 -65 173 -37 106 21 94 167 -15 167 -42 0 -81 -4 -86 -10z"/>
<path d="M451 4822 c-6 -10 -5 -35 3 -55 12 -30 5 -29 -44 10 -55 43 -59 43
-72 9 -7 -20 -4 -42 7 -49 12 -7 11 -16 -3 -23 -14 -7 -13 -9 3 -5 14 3 22 21
19 40 -4 21 2 30 15 22 27 -17 28 -91 0 -91 -11 0 -6 -27 12 -62 18 -34 37
-57 43 -51 19 20 61 -37 75 -103 31 -142 144 -161 121 -21 -9 50 -6 77 8 77
12 0 22 12 22 27 0 14 23 39 51 54 48 25 50 29 17 53 -20 14 -29 26 -21 26 8
0 4 19 -8 42 -16 30 -16 39 -1 29 13 -8 22 2 22 23 1 30 4 31 20 6 17 -26 19
-25 20 5 0 25 -16 35 -55 37 -30 0 -71 4 -90 8 -19 3 -35 -4 -35 -17 0 -13 -9
-10 -19 7 -15 24 -24 25 -44 5 -14 -14 -34 -25 -46 -25 -12 0 -7 9 9 20 18 12
20 20 6 20 -13 0 -29 -8 -35 -18z"/>
<path d="M1776 4675 c-27 -66 -31 -103 -16 -165 19 -84 8 -170 -22 -170 -30 0
-20 -73 12 -100 26 -22 29 -20 18 7 -18 48 10 152 31 113 35 -67 42 -220 9
-220 -17 0 -24 10 -17 22 9 15 -1 14 -30 -2 -56 -30 -40 -46 49 -49 77 -3 81
27 28 201 -11 34 -13 77 -6 95 7 18 3 33 -10 33 -27 0 -30 174 -3 183 10 4 12
36 5 72 l-14 65 -34 -85z"/>
<path d="M1663 4537 c-13 -46 -21 -54 -23 -27 -6 59 -36 -41 -37 -120 0 -50 2
-54 16 -20 12 29 19 7 24 -80 7 -114 9 -117 32 -64 19 43 19 64 1 93 -19 30
-18 49 3 89 26 49 34 165 13 186 -5 6 -18 -20 -29 -57z"/>
<path d="M541 4240 c-1 -26 97 -205 98 -180 0 6 -22 55 -49 110 -27 55 -49 87
-49 70z"/>
<path d="M1561 4177 c-1 -29 17 -74 38 -100 52 -62 53 -11 1 83 -37 68 -38 69
-39 17z"/>
<path d="M4622 4140 c-1 -16 10 -53 25 -81 18 -34 21 -68 10 -100 -16 -47 -16
-47 13 -10 33 42 40 91 13 91 -10 0 -27 29 -38 65 -12 36 -22 52 -23 35z"/>
<path d="M205 3842 c-14 -37 -25 -72 -25 -76 0 -4 45 -5 100 -2 55 3 100 14
100 23 0 10 -31 12 -69 5 -66 -13 -69 -11 -75 52 l-6 66 -25 -68z"/>
<path d="M5143 3725 c12 -41 30 -84 41 -95 14 -14 16 -4 6 30 -43 144 -83 199
-47 65z"/>
<path d="M261 3523 c-12 -20 -20 -23 -20 -8 -1 26 -54 23 -129 -7 -27 -10 -34
-8 -24 9 9 15 -2 23 -34 23 -47 0 -48 -4 -51 -172 l-3 -173 95 17 c52 9 134
14 183 12 122 -7 157 27 98 92 -42 45 -43 47 -4 24 32 -20 50 -20 80 -2 36 22
35 23 -5 12 -44 -12 -53 13 -21 64 20 31 -11 48 -47 25 -16 -10 -38 -18 -49
-18 -11 0 -6 8 10 19 17 11 22 20 13 20 -10 0 -7 13 6 28 18 22 17 32 -3 45
-45 28 -75 25 -95 -10z"/>
<path d="M474 3219 c-43 -77 -74 -149 -70 -161 4 -11 44 52 89 141 102 198 86
214 -19 20z"/>
<path d="M5280 3273 c0 -8 22 -84 49 -169 27 -84 113 -370 190 -634 78 -264
187 -624 243 -800 55 -176 130 -414 165 -529 53 -175 64 -197 69 -139 6 73
-30 195 -417 1408 -123 385 -232 732 -243 770 -18 64 -56 128 -56 93z"/>
<path d="M85 3184 c-36 -4 -61 -15 -54 -25 6 -11 2 -19 -9 -19 -14 0 -21 -124
-21 -351 l0 -351 44 11 45 11 -45 -23 c-68 -35 -68 -252 0 -265 76 -14 135 -5
135 22 0 14 17 26 38 26 21 0 43 14 49 30 9 22 28 28 68 19 46 -10 49 -8 20
11 -19 12 -35 34 -35 49 0 15 -11 32 -25 38 -19 8 -20 14 -1 27 13 10 23 37
21 62 -4 50 -35 61 -35 13 0 -29 -3 -28 -33 1 -17 18 -45 27 -61 21 -17 -6
-23 -2 -15 11 8 12 33 17 56 11 42 -11 42 -10 4 18 -21 16 -48 30 -60 32 -11
1 24 9 79 17 107 15 152 6 107 -22 -20 -13 -15 -17 18 -18 27 0 45 12 45 30 0
17 19 31 45 32 38 2 39 4 7 12 -59 15 -212 183 -198 218 7 20 -4 34 -31 42
-24 6 -43 18 -43 27 0 30 43 44 66 21 30 -30 84 -28 110 4 16 19 7 32 -37 51
-32 14 -57 32 -56 39 5 40 -5 65 -23 54 -11 -7 -14 1 -8 19 7 17 20 26 30 20
10 -6 18 -2 18 9 0 26 -71 65 -87 48 -7 -7 -13 -4 -13 7 0 21 -6 22 -115 11z"/>
<path d="M660 2865 c-1 -30 -3 -31 -21 -5 -14 21 -16 3 -7 -60 7 -49 20 -97
28 -106 8 -10 -2 -53 -24 -97 -21 -44 -34 -95 -30 -113 7 -25 10 -22 12 10 1
24 12 50 25 58 16 10 19 -3 10 -44 -13 -56 -12 -56 18 -18 17 22 27 56 22 75
-5 19 -1 30 9 24 10 -6 18 -3 18 8 0 11 -11 23 -25 28 -19 6 -18 17 5 46 17
20 19 30 6 23 -32 -20 -53 54 -37 138 7 37 8 68 2 68 -6 0 -11 -16 -11 -35z"/>
<path d="M490 2516 c-8 -25 -13 -57 -11 -71 1 -14 -7 -25 -18 -25 -12 0 -21
-42 -21 -94 0 -86 2 -90 28 -55 16 21 24 46 19 55 -6 9 -1 27 10 41 23 28 38
165 20 183 -7 6 -19 -9 -27 -34z"/>
<path d="M340 2481 c0 -35 82 -67 106 -43 16 16 15 22 -3 22 -14 0 -20 9 -13
20 7 11 -10 20 -39 20 -28 0 -51 -9 -51 -19z"/>
<path d="M5229 2420 c8 -27 19 -70 25 -95 6 -25 19 -45 29 -45 9 0 4 32 -12
70 -16 39 -29 76 -28 82 0 6 -6 17 -14 25 -8 7 -8 -9 0 -37z"/>
<path d="M363 2120 c-12 -33 -33 -60 -49 -60 -72 0 -163 -271 -111 -333 28
-34 205 -36 233 -2 67 83 99 308 45 325 -21 6 -44 38 -51 71 -17 75 -40 75
-67 -1z"/>
<path d="M30 1665 c14 -73 21 -148 15 -164 -5 -17 5 -11 23 12 25 34 28 56 12
97 -27 70 -26 74 15 62 19 -6 49 -2 65 8 26 17 25 19 -3 20 -19 0 -60 22 -93
50 l-59 49 25 -134z"/>
<path d="M297 1497 c-28 -8 -34 -14 -14 -15 37 -2 132 -74 117 -88 -30 -30
-90 -22 -84 11 3 19 -5 35 -18 35 -14 0 -19 -6 -12 -12 7 -7 -7 -29 -31 -48
l-42 -34 52 -34 c55 -36 67 -38 229 -31 123 5 121 26 -12 140 -68 58 -76 71
-47 82 44 17 -73 12 -138 -6z"/>
<path d="M19 1456 c-12 -52 -16 -136 -8 -136 43 0 131 68 125 96 -5 28 -112
64 -117 40z"/>
<path d="M111 1275 c10 -25 96 -86 313 -223 227 -143 161 -69 -94 106 -181
124 -233 152 -219 117z"/>
<path d="M0 962 c0 -27 36 -56 125 -99 69 -34 165 -84 214 -112 91 -51 142
-50 71 2 -220 161 -410 258 -410 209z"/>
<path d="M5487 915 c15 -56 -6 -195 -29 -195 -9 0 -16 32 -14 70 1 39 -3 76
-11 83 -7 8 -13 -10 -13 -40 0 -31 -10 -51 -24 -48 -30 6 -23 -125 8 -155 15
-14 18 -6 11 25 -6 25 -3 40 7 34 10 -6 18 -24 18 -40 0 -16 9 -29 20 -29 11
0 20 -31 20 -69 0 -38 8 -74 18 -80 12 -7 14 50 7 141 -11 152 -11 153 35 138
40 -13 44 -9 30 23 -14 33 -23 85 -28 162 -1 14 -17 25 -34 25 -24 0 -30 -12
-21 -45z"/>
<path d="M196 726 c-20 -5 -37 -34 -42 -72 l-8 -64 -3 66 c-4 89 -70 83 -80
-6 -3 -33 -18 -73 -32 -90 -50 -60 -8 -128 94 -153 125 -31 143 -44 114 -79
-13 -15 -16 -29 -6 -30 9 -1 49 -4 87 -8 39 -3 82 -9 98 -13 15 -4 31 3 35 15
10 26 -208 137 -256 131 -44 -6 -74 114 -34 139 27 17 62 -36 44 -66 -5 -8 16
-20 47 -27 31 -6 77 -20 102 -30 60 -25 64 -24 64 9 0 15 -29 39 -65 53 -112
44 -186 195 -110 226 30 12 -2 12 -49 -1z"/>
<path d="M2095 451 c-24 -34 -28 -53 -13 -62 26 -16 57 25 58 76 0 45 -3 44
-45 -14z"/>
<path d="M644 398 c-37 -98 -44 -106 -37 -43 8 81 -49 91 -84 14 -30 -66 -29
-70 10 -55 39 15 23 -114 -22 -179 -15 -21 -22 -54 -17 -75 9 -33 0 -37 -73
-31 -45 3 -87 -2 -93 -12 -6 -9 38 -17 97 -17 l108 0 23 95 22 95 -9 -95 c-11
-123 24 -126 116 -10 107 134 160 216 131 204 -14 -6 -48 -42 -76 -81 -120
-168 -123 -170 -108 -58 8 55 26 135 41 179 31 88 3 155 -29 69z"/>
<path d="M4647 227 c-50 -108 -96 -204 -101 -212 -4 -8 91 -15 213 -15 l220 0
-37 95 c-59 148 -149 312 -177 321 -16 4 -61 -68 -118 -189z"/>
<path d="M5788 352 c-7 -19 -3 -45 9 -57 16 -16 25 -12 35 13 7 19 3 45 -9 57
-16 16 -25 12 -35 -13z"/>
<path d="M105 219 c-47 -18 -91 -99 -68 -122 31 -31 146 9 165 57 30 81 -3
103 -97 65z"/>
<path d="M5780 233 c0 -26 83 -95 104 -87 20 8 20 11 1 12 -14 1 -25 20 -25
42 0 27 -13 40 -40 40 -22 0 -40 -3 -40 -7z"/>
<path d="M5788 80 c6 -27 12 -57 12 -65 0 -8 14 -15 30 -15 40 0 37 20 -12 80
l-41 50 11 -50z"/>
<path d="M261 51 c-16 -19 -45 -27 -78 -20 -45 8 -47 7 -13 -9 62 -29 104 -25
118 11 18 45 3 54 -27 18z"/>
</g>
</svg>
