M48
; DRILL file {KiCad 7.0.8} date Sun Jan 21 01:28:33 2024
; FORMAT={-:-/ absolute / metric / decimal}
; #@! TF.CreationDate,2024-01-21T01:28:33-07:00
; #@! TF.GenerationSoftware,Kicad,Pcbnew,7.0.8
; #@! TF.FileFunction,Plated,1,4,PTH
FMAT,2
METRIC
; #@! TA.AperFunction,Plated,PTH,ViaDrill
T1C0.300
; #@! TA.AperFunction,Plated,PTH,ViaDrill
T2C0.400
; #@! TA.AperFunction,Plated,PTH,ViaDrill
T3C0.500
; #@! TA.AperFunction,Plated,PTH,ComponentDrill
T4C0.600
; #@! TA.AperFunction,Plated,PTH,ComponentDrill
T5C0.700
; #@! TA.AperFunction,Plated,PTH,ComponentDrill
T6C0.762
; #@! TA.AperFunction,Plated,PTH,ComponentDrill
T7C0.850
; #@! TA.AperFunction,Plated,PTH,ComponentDrill
T8C0.950
; #@! TA.AperFunction,Plated,PTH,ComponentDrill
T9C1.000
%
G90
G05
T1
X157.9Y-97.3
X162.8Y-96.4
X163.0Y-98.1
X163.0Y-111.9
X163.4Y-102.4
X165.8Y-87.6
X172.4Y-75.5
X172.4Y-76.4
X173.1Y-102.9
X176.2Y-93.0
X178.4Y-75.5
X178.4Y-76.6
X180.1Y-107.1
X180.8Y-85.8
X182.0Y-80.5
X182.0Y-81.6
X182.4Y-78.6
X182.9Y-89.3
X183.6Y-78.6
X184.2Y-94.8
X184.7Y-74.6
X184.7Y-77.4
X185.1Y-93.9
X185.105Y-110.305
X185.8Y-88.5
X187.5Y-101.5
X187.6Y-110.3
X188.1Y-84.1
X188.5Y-86.8
X189.0Y-103.9
X189.5Y-91.8
X191.4Y-107.0
X198.2Y-83.3
X198.9Y-105.1
X198.9Y-106.2
X199.2Y-102.2
T2
X195.3Y-95.7
T3
X167.6Y-99.1
X170.8Y-89.5
X172.0Y-112.3
X173.7Y-86.6
T5
X165.46Y-93.5
X168.0Y-90.96
X168.0Y-96.04
X170.54Y-93.5
T6
X166.7Y-74.63
X166.7Y-77.17
X191.9Y-75.9
X194.44Y-75.9
T7
X182.8Y-111.85
X187.8Y-111.85
T8
X154.4Y-94.9
X154.4Y-97.4
X154.4Y-99.9
X154.4Y-102.4
X154.4Y-104.9
X154.4Y-107.4
X154.4Y-109.9
T9
X166.4Y-103.36
X166.4Y-105.9
X191.635Y-85.4
X194.175Y-85.4
T4
G00X181.8Y-114.9
M15
G01X181.8Y-114.2
M16
G05
G00X188.8Y-114.2
M15
G01X188.8Y-114.9
M16
G05
T0
M30
