G04 #@! TF.GenerationSoftware,KiCad,Pcbnew,7.0.8*
G04 #@! TF.CreationDate,2024-02-01T00:15:37-07:00*
G04 #@! TF.ProjectId,SDM24-Shifter,53444d32-342d-4536-9869-667465722e6b,rev?*
G04 #@! TF.SameCoordinates,Original*
G04 #@! TF.FileFunction,Copper,L1,Top*
G04 #@! TF.FilePolarity,Positive*
%FSLAX46Y46*%
G04 Gerber Fmt 4.6, Leading zero omitted, Abs format (unit mm)*
G04 Created by KiCad (PCBNEW 7.0.8) date 2024-02-01 00:15:37*
%MOMM*%
%LPD*%
G01*
G04 APERTURE LIST*
G04 Aperture macros list*
%AMRoundRect*
0 Rectangle with rounded corners*
0 $1 Rounding radius*
0 $2 $3 $4 $5 $6 $7 $8 $9 X,Y pos of 4 corners*
0 Add a 4 corners polygon primitive as box body*
4,1,4,$2,$3,$4,$5,$6,$7,$8,$9,$2,$3,0*
0 Add four circle primitives for the rounded corners*
1,1,$1+$1,$2,$3*
1,1,$1+$1,$4,$5*
1,1,$1+$1,$6,$7*
1,1,$1+$1,$8,$9*
0 Add four rect primitives between the rounded corners*
20,1,$1+$1,$2,$3,$4,$5,0*
20,1,$1+$1,$4,$5,$6,$7,0*
20,1,$1+$1,$6,$7,$8,$9,0*
20,1,$1+$1,$8,$9,$2,$3,0*%
G04 Aperture macros list end*
G04 #@! TA.AperFunction,ComponentPad*
%ADD10C,1.600000*%
G04 #@! TD*
G04 #@! TA.AperFunction,ComponentPad*
%ADD11O,1.600000X1.600000*%
G04 #@! TD*
G04 #@! TA.AperFunction,ComponentPad*
%ADD12R,1.600000X1.600000*%
G04 #@! TD*
G04 #@! TA.AperFunction,ComponentPad*
%ADD13R,1.700000X1.700000*%
G04 #@! TD*
G04 #@! TA.AperFunction,ComponentPad*
%ADD14O,1.700000X1.700000*%
G04 #@! TD*
G04 #@! TA.AperFunction,ComponentPad*
%ADD15RoundRect,0.250000X0.750000X-0.600000X0.750000X0.600000X-0.750000X0.600000X-0.750000X-0.600000X0*%
G04 #@! TD*
G04 #@! TA.AperFunction,ComponentPad*
%ADD16O,2.000000X1.700000*%
G04 #@! TD*
G04 #@! TA.AperFunction,ComponentPad*
%ADD17RoundRect,0.250000X-0.750000X0.600000X-0.750000X-0.600000X0.750000X-0.600000X0.750000X0.600000X0*%
G04 #@! TD*
G04 #@! TA.AperFunction,Conductor*
%ADD18C,0.300000*%
G04 #@! TD*
G04 #@! TA.AperFunction,Conductor*
%ADD19C,0.500000*%
G04 #@! TD*
G04 APERTURE END LIST*
D10*
X136000000Y-76190000D03*
D11*
X136000000Y-83810000D03*
D12*
X147800000Y-58240000D03*
D11*
X147800000Y-60780000D03*
X147800000Y-63320000D03*
X147800000Y-65860000D03*
X147800000Y-68400000D03*
X147800000Y-70940000D03*
X147800000Y-73480000D03*
X147800000Y-76020000D03*
X147800000Y-78560000D03*
X147800000Y-81100000D03*
X147800000Y-83640000D03*
X147800000Y-86180000D03*
X147800000Y-88720000D03*
X147800000Y-91260000D03*
X147800000Y-93800000D03*
X163040000Y-93800000D03*
X163040000Y-91260000D03*
X163040000Y-88720000D03*
X163040000Y-86180000D03*
X163040000Y-83640000D03*
X163040000Y-81100000D03*
X163040000Y-78560000D03*
X163040000Y-76020000D03*
X163040000Y-73480000D03*
X163040000Y-70940000D03*
X163040000Y-68400000D03*
X163040000Y-65860000D03*
X163040000Y-63320000D03*
X163040000Y-60780000D03*
X163040000Y-58240000D03*
D13*
X142540000Y-50000000D03*
D14*
X140000000Y-50000000D03*
X137460000Y-50000000D03*
X134920000Y-50000000D03*
D10*
X130500000Y-65000000D03*
D11*
X122880000Y-65000000D03*
D10*
X130810000Y-83000000D03*
D11*
X123190000Y-83000000D03*
D15*
X128000000Y-98500000D03*
D16*
X128000000Y-96000000D03*
D10*
X136000000Y-71810000D03*
D11*
X136000000Y-64190000D03*
D17*
X123000000Y-73500000D03*
D16*
X123000000Y-76000000D03*
D17*
X126000000Y-56000000D03*
D16*
X126000000Y-58500000D03*
D18*
X133400000Y-65000000D02*
X135190000Y-65000000D01*
X130500000Y-65000000D02*
X133400000Y-65000000D01*
X136000000Y-64190000D02*
X140390000Y-64190000D01*
X140390000Y-64190000D02*
X144600000Y-68400000D01*
X144600000Y-68400000D02*
X147800000Y-68400000D01*
X135190000Y-65000000D02*
X136000000Y-64190000D01*
X144200000Y-72700000D02*
X145960000Y-70940000D01*
X138490000Y-83810000D02*
X144200000Y-78100000D01*
X130810000Y-83000000D02*
X133700000Y-83000000D01*
X133700000Y-83000000D02*
X135190000Y-83000000D01*
X136000000Y-83810000D02*
X138490000Y-83810000D01*
X145960000Y-70940000D02*
X147800000Y-70940000D01*
X144200000Y-78100000D02*
X144200000Y-72700000D01*
X135190000Y-83000000D02*
X136000000Y-83810000D01*
X131000000Y-98500000D02*
X143320000Y-86180000D01*
X128000000Y-98500000D02*
X131000000Y-98500000D01*
X143320000Y-86180000D02*
X147800000Y-86180000D01*
D19*
X157040000Y-58240000D02*
X148800000Y-50000000D01*
X148800000Y-50000000D02*
X142540000Y-50000000D01*
X163040000Y-58240000D02*
X157040000Y-58240000D01*
X126000000Y-56000000D02*
X131460000Y-56000000D01*
X131460000Y-56000000D02*
X137460000Y-50000000D01*
D18*
X123000000Y-73500000D02*
X122880000Y-73380000D01*
X122880000Y-73380000D02*
X122880000Y-65000000D01*
X123000000Y-76000000D02*
X123000000Y-82810000D01*
X123000000Y-82810000D02*
X123190000Y-83000000D01*
M02*
