M48
; DRILL file {KiCad 9.0.0} date 2025-03-18T23:21:23-0700
; FORMAT={-:-/ absolute / inch / decimal}
; #@! TF.CreationDate,2025-03-18T23:21:23-07:00
; #@! TF.GenerationSoftware,Kicad,Pcbnew,9.0.0
; #@! TF.FileFunction,Plated,1,4,PTH
FMAT,2
INCH
; #@! TA.AperFunction,Plated,PTH,ViaDrill
T1C0.0118
; #@! TA.AperFunction,Plated,PTH,ComponentDrill
T2C0.0260
; #@! TA.AperFunction,Plated,PTH,ComponentDrill
T3C0.0295
; #@! TA.AperFunction,Plated,PTH,ComponentDrill
T4C0.0472
%
G90
G05
T1
X2.3031Y-4.3209
X2.3455Y-4.4281
X2.4803Y-3.9764
X2.4803Y-4.6457
X2.5177Y-4.3699
X2.5197Y-4.498
X2.5418Y-4.2518
X2.5812Y-4.1339
X2.6083Y-4.3561
X2.6378Y-3.9764
X2.6378Y-4.6457
X2.6969Y-4.1339
X2.7165Y-4.4764
X2.7559Y-3.9764
X2.7953Y-4.6457
X2.815Y-4.4882
X2.8346Y-4.685
X2.8622Y-4.1398
X2.9094Y-4.7343
X2.9128Y-4.4782
X3.0315Y-3.9764
X3.0315Y-4.0157
X3.0315Y-4.0551
X3.0315Y-4.0945
X3.0315Y-4.5276
X3.0315Y-4.5669
X3.0709Y-4.6457
X3.0978Y-4.786
X3.2677Y-4.0157
X3.2677Y-4.0945
X3.2717Y-4.2559
X3.376Y-4.1831
X3.378Y-4.4094
X3.378Y-4.4409
X3.378Y-4.5551
X3.4094Y-4.4094
X3.4094Y-4.4409
X3.4094Y-4.5551
X3.4154Y-4.1831
X3.5748Y-4.1496
X3.811Y-4.5
X4.3071Y-4.1516
X4.3091Y-4.1024
X4.8425Y-4.9921
X5.0689Y-4.0965
T2
X2.4197Y-3.7402
X2.5197Y-3.7402
X2.6197Y-3.7402
X2.8315Y-3.7402
X2.9315Y-3.7402
X3.0315Y-3.7402
X3.2465Y-3.7402
X3.3465Y-3.7402
X3.4465Y-3.7402
X3.6614Y-3.7402
X3.7614Y-3.7402
X3.8614Y-3.7402
X4.0732Y-3.7402
X4.1732Y-3.7402
X4.2732Y-3.7402
X4.4669Y-3.7402
X4.5669Y-3.7402
X4.6669Y-3.7402
X4.8606Y-3.7402
X4.9606Y-3.7402
X5.0606Y-3.7402
T3
X4.7728Y-4.4236
X4.8228Y-4.4236
X4.8728Y-4.4236
X5.013Y-4.4236
X5.063Y-4.4236
X5.113Y-4.4236
T4
X1.9154Y-4.0827
X1.9154Y-4.248
X1.9154Y-4.4134
X1.9154Y-4.5787
X2.1654Y-4.0827
X2.1654Y-4.248
X2.1654Y-4.4134
X2.1654Y-4.5787
M30
