%TF.GenerationSoftware,KiCad,Pcbnew,7.0.8*%
%TF.CreationDate,2024-02-01T01:18:02-07:00*%
%TF.ProjectId,loggerpanel,6c6f6767-6572-4706-916e-656c2e6b6963,v1*%
%TF.SameCoordinates,Original*%
%TF.FileFunction,Drillmap*%
%TF.FilePolarity,Positive*%
%FSLAX45Y45*%
G04 Gerber Fmt 4.5, Leading zero omitted, Abs format (unit mm)*
G04 Created by KiCad (PCBNEW 7.0.8) date 2024-02-01 01:18:02*
%MOMM*%
%LPD*%
G01*
G04 APERTURE LIST*
%ADD10C,0.100000*%
%ADD11C,0.200000*%
%ADD12C,0.320000*%
%ADD13C,0.330000*%
G04 APERTURE END LIST*
D10*
X21000000Y-12600000D02*
G75*
G03*
X21400000Y-12200000I0J400000D01*
G01*
X7700000Y-12200000D02*
G75*
G03*
X8100000Y-12600000I400000J0D01*
G01*
X21400000Y-9000000D02*
X21400000Y-12200000D01*
X21000000Y-12600000D02*
X8100000Y-12600000D01*
X21400000Y-9000000D02*
G75*
G03*
X21000000Y-8600000I-400000J0D01*
G01*
X8100000Y-8600000D02*
G75*
G03*
X7700000Y-9000000I0J-400000D01*
G01*
X7700000Y-12200000D02*
X7700000Y-9000000D01*
X8100000Y-8600000D02*
X21000000Y-8600000D01*
D11*
D12*
X7940000Y-8840000D02*
X8260000Y-9160000D01*
X8260000Y-8840000D02*
X7940000Y-9160000D01*
X7940000Y-12040000D02*
X8260000Y-12360000D01*
X8260000Y-12040000D02*
X7940000Y-12360000D01*
X20840000Y-8840000D02*
X21160000Y-9160000D01*
X21160000Y-8840000D02*
X20840000Y-9160000D01*
X20840000Y-12040000D02*
X21160000Y-12360000D01*
X21160000Y-12040000D02*
X20840000Y-12360000D01*
D13*
X9045000Y-11217000D02*
G75*
G03*
X9045000Y-11217000I-165000J0D01*
G01*
X9195000Y-9407000D02*
G75*
G03*
X9195000Y-9407000I-165000J0D01*
G01*
X13935000Y-9407000D02*
G75*
G03*
X13935000Y-9407000I-165000J0D01*
G01*
X14085000Y-11217000D02*
G75*
G03*
X14085000Y-11217000I-165000J0D01*
G01*
X15345000Y-11217000D02*
G75*
G03*
X15345000Y-11217000I-165000J0D01*
G01*
X15495000Y-9407000D02*
G75*
G03*
X15495000Y-9407000I-165000J0D01*
G01*
X20235000Y-9407000D02*
G75*
G03*
X20235000Y-9407000I-165000J0D01*
G01*
X20385000Y-11217000D02*
G75*
G03*
X20385000Y-11217000I-165000J0D01*
G01*
D11*
X7955777Y-12916484D02*
X7955777Y-12716484D01*
X7955777Y-12716484D02*
X8003396Y-12716484D01*
X8003396Y-12716484D02*
X8031967Y-12726008D01*
X8031967Y-12726008D02*
X8051015Y-12745055D01*
X8051015Y-12745055D02*
X8060539Y-12764103D01*
X8060539Y-12764103D02*
X8070062Y-12802198D01*
X8070062Y-12802198D02*
X8070062Y-12830769D01*
X8070062Y-12830769D02*
X8060539Y-12868865D01*
X8060539Y-12868865D02*
X8051015Y-12887912D01*
X8051015Y-12887912D02*
X8031967Y-12906960D01*
X8031967Y-12906960D02*
X8003396Y-12916484D01*
X8003396Y-12916484D02*
X7955777Y-12916484D01*
X8155777Y-12916484D02*
X8155777Y-12783150D01*
X8155777Y-12821246D02*
X8165301Y-12802198D01*
X8165301Y-12802198D02*
X8174824Y-12792674D01*
X8174824Y-12792674D02*
X8193872Y-12783150D01*
X8193872Y-12783150D02*
X8212920Y-12783150D01*
X8279586Y-12916484D02*
X8279586Y-12783150D01*
X8279586Y-12716484D02*
X8270062Y-12726008D01*
X8270062Y-12726008D02*
X8279586Y-12735531D01*
X8279586Y-12735531D02*
X8289110Y-12726008D01*
X8289110Y-12726008D02*
X8279586Y-12716484D01*
X8279586Y-12716484D02*
X8279586Y-12735531D01*
X8403396Y-12916484D02*
X8384348Y-12906960D01*
X8384348Y-12906960D02*
X8374824Y-12887912D01*
X8374824Y-12887912D02*
X8374824Y-12716484D01*
X8508158Y-12916484D02*
X8489110Y-12906960D01*
X8489110Y-12906960D02*
X8479586Y-12887912D01*
X8479586Y-12887912D02*
X8479586Y-12716484D01*
X8736729Y-12916484D02*
X8736729Y-12716484D01*
X8736729Y-12716484D02*
X8803396Y-12859341D01*
X8803396Y-12859341D02*
X8870063Y-12716484D01*
X8870063Y-12716484D02*
X8870063Y-12916484D01*
X9051015Y-12916484D02*
X9051015Y-12811722D01*
X9051015Y-12811722D02*
X9041491Y-12792674D01*
X9041491Y-12792674D02*
X9022444Y-12783150D01*
X9022444Y-12783150D02*
X8984348Y-12783150D01*
X8984348Y-12783150D02*
X8965301Y-12792674D01*
X9051015Y-12906960D02*
X9031967Y-12916484D01*
X9031967Y-12916484D02*
X8984348Y-12916484D01*
X8984348Y-12916484D02*
X8965301Y-12906960D01*
X8965301Y-12906960D02*
X8955777Y-12887912D01*
X8955777Y-12887912D02*
X8955777Y-12868865D01*
X8955777Y-12868865D02*
X8965301Y-12849817D01*
X8965301Y-12849817D02*
X8984348Y-12840293D01*
X8984348Y-12840293D02*
X9031967Y-12840293D01*
X9031967Y-12840293D02*
X9051015Y-12830769D01*
X9146253Y-12783150D02*
X9146253Y-12983150D01*
X9146253Y-12792674D02*
X9165301Y-12783150D01*
X9165301Y-12783150D02*
X9203396Y-12783150D01*
X9203396Y-12783150D02*
X9222444Y-12792674D01*
X9222444Y-12792674D02*
X9231967Y-12802198D01*
X9231967Y-12802198D02*
X9241491Y-12821246D01*
X9241491Y-12821246D02*
X9241491Y-12878388D01*
X9241491Y-12878388D02*
X9231967Y-12897436D01*
X9231967Y-12897436D02*
X9222444Y-12906960D01*
X9222444Y-12906960D02*
X9203396Y-12916484D01*
X9203396Y-12916484D02*
X9165301Y-12916484D01*
X9165301Y-12916484D02*
X9146253Y-12906960D01*
X9327205Y-12897436D02*
X9336729Y-12906960D01*
X9336729Y-12906960D02*
X9327205Y-12916484D01*
X9327205Y-12916484D02*
X9317682Y-12906960D01*
X9317682Y-12906960D02*
X9327205Y-12897436D01*
X9327205Y-12897436D02*
X9327205Y-12916484D01*
X9327205Y-12792674D02*
X9336729Y-12802198D01*
X9336729Y-12802198D02*
X9327205Y-12811722D01*
X9327205Y-12811722D02*
X9317682Y-12802198D01*
X9317682Y-12802198D02*
X9327205Y-12792674D01*
X9327205Y-12792674D02*
X9327205Y-12811722D01*
X7495000Y-13145000D02*
X7695000Y-13345000D01*
X7695000Y-13145000D02*
X7495000Y-13345000D01*
X7936729Y-13136484D02*
X8060539Y-13136484D01*
X8060539Y-13136484D02*
X7993872Y-13212674D01*
X7993872Y-13212674D02*
X8022443Y-13212674D01*
X8022443Y-13212674D02*
X8041491Y-13222198D01*
X8041491Y-13222198D02*
X8051015Y-13231722D01*
X8051015Y-13231722D02*
X8060539Y-13250769D01*
X8060539Y-13250769D02*
X8060539Y-13298388D01*
X8060539Y-13298388D02*
X8051015Y-13317436D01*
X8051015Y-13317436D02*
X8041491Y-13326960D01*
X8041491Y-13326960D02*
X8022443Y-13336484D01*
X8022443Y-13336484D02*
X7965301Y-13336484D01*
X7965301Y-13336484D02*
X7946253Y-13326960D01*
X7946253Y-13326960D02*
X7936729Y-13317436D01*
X8146253Y-13317436D02*
X8155777Y-13326960D01*
X8155777Y-13326960D02*
X8146253Y-13336484D01*
X8146253Y-13336484D02*
X8136729Y-13326960D01*
X8136729Y-13326960D02*
X8146253Y-13317436D01*
X8146253Y-13317436D02*
X8146253Y-13336484D01*
X8231967Y-13155531D02*
X8241491Y-13146008D01*
X8241491Y-13146008D02*
X8260539Y-13136484D01*
X8260539Y-13136484D02*
X8308158Y-13136484D01*
X8308158Y-13136484D02*
X8327205Y-13146008D01*
X8327205Y-13146008D02*
X8336729Y-13155531D01*
X8336729Y-13155531D02*
X8346253Y-13174579D01*
X8346253Y-13174579D02*
X8346253Y-13193627D01*
X8346253Y-13193627D02*
X8336729Y-13222198D01*
X8336729Y-13222198D02*
X8222443Y-13336484D01*
X8222443Y-13336484D02*
X8346253Y-13336484D01*
X8470063Y-13136484D02*
X8489110Y-13136484D01*
X8489110Y-13136484D02*
X8508158Y-13146008D01*
X8508158Y-13146008D02*
X8517682Y-13155531D01*
X8517682Y-13155531D02*
X8527205Y-13174579D01*
X8527205Y-13174579D02*
X8536729Y-13212674D01*
X8536729Y-13212674D02*
X8536729Y-13260293D01*
X8536729Y-13260293D02*
X8527205Y-13298388D01*
X8527205Y-13298388D02*
X8517682Y-13317436D01*
X8517682Y-13317436D02*
X8508158Y-13326960D01*
X8508158Y-13326960D02*
X8489110Y-13336484D01*
X8489110Y-13336484D02*
X8470063Y-13336484D01*
X8470063Y-13336484D02*
X8451015Y-13326960D01*
X8451015Y-13326960D02*
X8441491Y-13317436D01*
X8441491Y-13317436D02*
X8431967Y-13298388D01*
X8431967Y-13298388D02*
X8422444Y-13260293D01*
X8422444Y-13260293D02*
X8422444Y-13212674D01*
X8422444Y-13212674D02*
X8431967Y-13174579D01*
X8431967Y-13174579D02*
X8441491Y-13155531D01*
X8441491Y-13155531D02*
X8451015Y-13146008D01*
X8451015Y-13146008D02*
X8470063Y-13136484D01*
X8660539Y-13136484D02*
X8679586Y-13136484D01*
X8679586Y-13136484D02*
X8698634Y-13146008D01*
X8698634Y-13146008D02*
X8708158Y-13155531D01*
X8708158Y-13155531D02*
X8717682Y-13174579D01*
X8717682Y-13174579D02*
X8727205Y-13212674D01*
X8727205Y-13212674D02*
X8727205Y-13260293D01*
X8727205Y-13260293D02*
X8717682Y-13298388D01*
X8717682Y-13298388D02*
X8708158Y-13317436D01*
X8708158Y-13317436D02*
X8698634Y-13326960D01*
X8698634Y-13326960D02*
X8679586Y-13336484D01*
X8679586Y-13336484D02*
X8660539Y-13336484D01*
X8660539Y-13336484D02*
X8641491Y-13326960D01*
X8641491Y-13326960D02*
X8631967Y-13317436D01*
X8631967Y-13317436D02*
X8622444Y-13298388D01*
X8622444Y-13298388D02*
X8612920Y-13260293D01*
X8612920Y-13260293D02*
X8612920Y-13212674D01*
X8612920Y-13212674D02*
X8622444Y-13174579D01*
X8622444Y-13174579D02*
X8631967Y-13155531D01*
X8631967Y-13155531D02*
X8641491Y-13146008D01*
X8641491Y-13146008D02*
X8660539Y-13136484D01*
X8812920Y-13336484D02*
X8812920Y-13203150D01*
X8812920Y-13222198D02*
X8822444Y-13212674D01*
X8822444Y-13212674D02*
X8841491Y-13203150D01*
X8841491Y-13203150D02*
X8870063Y-13203150D01*
X8870063Y-13203150D02*
X8889110Y-13212674D01*
X8889110Y-13212674D02*
X8898634Y-13231722D01*
X8898634Y-13231722D02*
X8898634Y-13336484D01*
X8898634Y-13231722D02*
X8908158Y-13212674D01*
X8908158Y-13212674D02*
X8927205Y-13203150D01*
X8927205Y-13203150D02*
X8955777Y-13203150D01*
X8955777Y-13203150D02*
X8974825Y-13212674D01*
X8974825Y-13212674D02*
X8984348Y-13231722D01*
X8984348Y-13231722D02*
X8984348Y-13336484D01*
X9079586Y-13336484D02*
X9079586Y-13203150D01*
X9079586Y-13222198D02*
X9089110Y-13212674D01*
X9089110Y-13212674D02*
X9108158Y-13203150D01*
X9108158Y-13203150D02*
X9136729Y-13203150D01*
X9136729Y-13203150D02*
X9155777Y-13212674D01*
X9155777Y-13212674D02*
X9165301Y-13231722D01*
X9165301Y-13231722D02*
X9165301Y-13336484D01*
X9165301Y-13231722D02*
X9174825Y-13212674D01*
X9174825Y-13212674D02*
X9193872Y-13203150D01*
X9193872Y-13203150D02*
X9222444Y-13203150D01*
X9222444Y-13203150D02*
X9241491Y-13212674D01*
X9241491Y-13212674D02*
X9251015Y-13231722D01*
X9251015Y-13231722D02*
X9251015Y-13336484D01*
X9641491Y-13126960D02*
X9470063Y-13384103D01*
X9898634Y-13136484D02*
X9917682Y-13136484D01*
X9917682Y-13136484D02*
X9936729Y-13146008D01*
X9936729Y-13146008D02*
X9946253Y-13155531D01*
X9946253Y-13155531D02*
X9955777Y-13174579D01*
X9955777Y-13174579D02*
X9965301Y-13212674D01*
X9965301Y-13212674D02*
X9965301Y-13260293D01*
X9965301Y-13260293D02*
X9955777Y-13298388D01*
X9955777Y-13298388D02*
X9946253Y-13317436D01*
X9946253Y-13317436D02*
X9936729Y-13326960D01*
X9936729Y-13326960D02*
X9917682Y-13336484D01*
X9917682Y-13336484D02*
X9898634Y-13336484D01*
X9898634Y-13336484D02*
X9879587Y-13326960D01*
X9879587Y-13326960D02*
X9870063Y-13317436D01*
X9870063Y-13317436D02*
X9860539Y-13298388D01*
X9860539Y-13298388D02*
X9851015Y-13260293D01*
X9851015Y-13260293D02*
X9851015Y-13212674D01*
X9851015Y-13212674D02*
X9860539Y-13174579D01*
X9860539Y-13174579D02*
X9870063Y-13155531D01*
X9870063Y-13155531D02*
X9879587Y-13146008D01*
X9879587Y-13146008D02*
X9898634Y-13136484D01*
X10051015Y-13317436D02*
X10060539Y-13326960D01*
X10060539Y-13326960D02*
X10051015Y-13336484D01*
X10051015Y-13336484D02*
X10041491Y-13326960D01*
X10041491Y-13326960D02*
X10051015Y-13317436D01*
X10051015Y-13317436D02*
X10051015Y-13336484D01*
X10251015Y-13336484D02*
X10136729Y-13336484D01*
X10193872Y-13336484D02*
X10193872Y-13136484D01*
X10193872Y-13136484D02*
X10174825Y-13165055D01*
X10174825Y-13165055D02*
X10155777Y-13184103D01*
X10155777Y-13184103D02*
X10136729Y-13193627D01*
X10327206Y-13155531D02*
X10336729Y-13146008D01*
X10336729Y-13146008D02*
X10355777Y-13136484D01*
X10355777Y-13136484D02*
X10403396Y-13136484D01*
X10403396Y-13136484D02*
X10422444Y-13146008D01*
X10422444Y-13146008D02*
X10431968Y-13155531D01*
X10431968Y-13155531D02*
X10441491Y-13174579D01*
X10441491Y-13174579D02*
X10441491Y-13193627D01*
X10441491Y-13193627D02*
X10431968Y-13222198D01*
X10431968Y-13222198D02*
X10317682Y-13336484D01*
X10317682Y-13336484D02*
X10441491Y-13336484D01*
X10612920Y-13136484D02*
X10574825Y-13136484D01*
X10574825Y-13136484D02*
X10555777Y-13146008D01*
X10555777Y-13146008D02*
X10546253Y-13155531D01*
X10546253Y-13155531D02*
X10527206Y-13184103D01*
X10527206Y-13184103D02*
X10517682Y-13222198D01*
X10517682Y-13222198D02*
X10517682Y-13298388D01*
X10517682Y-13298388D02*
X10527206Y-13317436D01*
X10527206Y-13317436D02*
X10536729Y-13326960D01*
X10536729Y-13326960D02*
X10555777Y-13336484D01*
X10555777Y-13336484D02*
X10593872Y-13336484D01*
X10593872Y-13336484D02*
X10612920Y-13326960D01*
X10612920Y-13326960D02*
X10622444Y-13317436D01*
X10622444Y-13317436D02*
X10631968Y-13298388D01*
X10631968Y-13298388D02*
X10631968Y-13250769D01*
X10631968Y-13250769D02*
X10622444Y-13231722D01*
X10622444Y-13231722D02*
X10612920Y-13222198D01*
X10612920Y-13222198D02*
X10593872Y-13212674D01*
X10593872Y-13212674D02*
X10555777Y-13212674D01*
X10555777Y-13212674D02*
X10536729Y-13222198D01*
X10536729Y-13222198D02*
X10527206Y-13231722D01*
X10527206Y-13231722D02*
X10517682Y-13250769D01*
X10755777Y-13136484D02*
X10774825Y-13136484D01*
X10774825Y-13136484D02*
X10793872Y-13146008D01*
X10793872Y-13146008D02*
X10803396Y-13155531D01*
X10803396Y-13155531D02*
X10812920Y-13174579D01*
X10812920Y-13174579D02*
X10822444Y-13212674D01*
X10822444Y-13212674D02*
X10822444Y-13260293D01*
X10822444Y-13260293D02*
X10812920Y-13298388D01*
X10812920Y-13298388D02*
X10803396Y-13317436D01*
X10803396Y-13317436D02*
X10793872Y-13326960D01*
X10793872Y-13326960D02*
X10774825Y-13336484D01*
X10774825Y-13336484D02*
X10755777Y-13336484D01*
X10755777Y-13336484D02*
X10736729Y-13326960D01*
X10736729Y-13326960D02*
X10727206Y-13317436D01*
X10727206Y-13317436D02*
X10717682Y-13298388D01*
X10717682Y-13298388D02*
X10708158Y-13260293D01*
X10708158Y-13260293D02*
X10708158Y-13212674D01*
X10708158Y-13212674D02*
X10717682Y-13174579D01*
X10717682Y-13174579D02*
X10727206Y-13155531D01*
X10727206Y-13155531D02*
X10736729Y-13146008D01*
X10736729Y-13146008D02*
X10755777Y-13136484D01*
X10898634Y-13136484D02*
X10898634Y-13174579D01*
X10974825Y-13136484D02*
X10974825Y-13174579D01*
X11270063Y-13412674D02*
X11260539Y-13403150D01*
X11260539Y-13403150D02*
X11241491Y-13374579D01*
X11241491Y-13374579D02*
X11231968Y-13355531D01*
X11231968Y-13355531D02*
X11222444Y-13326960D01*
X11222444Y-13326960D02*
X11212920Y-13279341D01*
X11212920Y-13279341D02*
X11212920Y-13241246D01*
X11212920Y-13241246D02*
X11222444Y-13193627D01*
X11222444Y-13193627D02*
X11231968Y-13165055D01*
X11231968Y-13165055D02*
X11241491Y-13146008D01*
X11241491Y-13146008D02*
X11260539Y-13117436D01*
X11260539Y-13117436D02*
X11270063Y-13107912D01*
X11431968Y-13203150D02*
X11431968Y-13336484D01*
X11384348Y-13126960D02*
X11336729Y-13269817D01*
X11336729Y-13269817D02*
X11460539Y-13269817D01*
X11689110Y-13336484D02*
X11689110Y-13136484D01*
X11774825Y-13336484D02*
X11774825Y-13231722D01*
X11774825Y-13231722D02*
X11765301Y-13212674D01*
X11765301Y-13212674D02*
X11746253Y-13203150D01*
X11746253Y-13203150D02*
X11717682Y-13203150D01*
X11717682Y-13203150D02*
X11698634Y-13212674D01*
X11698634Y-13212674D02*
X11689110Y-13222198D01*
X11898634Y-13336484D02*
X11879587Y-13326960D01*
X11879587Y-13326960D02*
X11870063Y-13317436D01*
X11870063Y-13317436D02*
X11860539Y-13298388D01*
X11860539Y-13298388D02*
X11860539Y-13241246D01*
X11860539Y-13241246D02*
X11870063Y-13222198D01*
X11870063Y-13222198D02*
X11879587Y-13212674D01*
X11879587Y-13212674D02*
X11898634Y-13203150D01*
X11898634Y-13203150D02*
X11927206Y-13203150D01*
X11927206Y-13203150D02*
X11946253Y-13212674D01*
X11946253Y-13212674D02*
X11955777Y-13222198D01*
X11955777Y-13222198D02*
X11965301Y-13241246D01*
X11965301Y-13241246D02*
X11965301Y-13298388D01*
X11965301Y-13298388D02*
X11955777Y-13317436D01*
X11955777Y-13317436D02*
X11946253Y-13326960D01*
X11946253Y-13326960D02*
X11927206Y-13336484D01*
X11927206Y-13336484D02*
X11898634Y-13336484D01*
X12079587Y-13336484D02*
X12060539Y-13326960D01*
X12060539Y-13326960D02*
X12051015Y-13307912D01*
X12051015Y-13307912D02*
X12051015Y-13136484D01*
X12231968Y-13326960D02*
X12212920Y-13336484D01*
X12212920Y-13336484D02*
X12174825Y-13336484D01*
X12174825Y-13336484D02*
X12155777Y-13326960D01*
X12155777Y-13326960D02*
X12146253Y-13307912D01*
X12146253Y-13307912D02*
X12146253Y-13231722D01*
X12146253Y-13231722D02*
X12155777Y-13212674D01*
X12155777Y-13212674D02*
X12174825Y-13203150D01*
X12174825Y-13203150D02*
X12212920Y-13203150D01*
X12212920Y-13203150D02*
X12231968Y-13212674D01*
X12231968Y-13212674D02*
X12241491Y-13231722D01*
X12241491Y-13231722D02*
X12241491Y-13250769D01*
X12241491Y-13250769D02*
X12146253Y-13269817D01*
X12317682Y-13326960D02*
X12336730Y-13336484D01*
X12336730Y-13336484D02*
X12374825Y-13336484D01*
X12374825Y-13336484D02*
X12393872Y-13326960D01*
X12393872Y-13326960D02*
X12403396Y-13307912D01*
X12403396Y-13307912D02*
X12403396Y-13298388D01*
X12403396Y-13298388D02*
X12393872Y-13279341D01*
X12393872Y-13279341D02*
X12374825Y-13269817D01*
X12374825Y-13269817D02*
X12346253Y-13269817D01*
X12346253Y-13269817D02*
X12327206Y-13260293D01*
X12327206Y-13260293D02*
X12317682Y-13241246D01*
X12317682Y-13241246D02*
X12317682Y-13231722D01*
X12317682Y-13231722D02*
X12327206Y-13212674D01*
X12327206Y-13212674D02*
X12346253Y-13203150D01*
X12346253Y-13203150D02*
X12374825Y-13203150D01*
X12374825Y-13203150D02*
X12393872Y-13212674D01*
X12470063Y-13412674D02*
X12479587Y-13403150D01*
X12479587Y-13403150D02*
X12498634Y-13374579D01*
X12498634Y-13374579D02*
X12508158Y-13355531D01*
X12508158Y-13355531D02*
X12517682Y-13326960D01*
X12517682Y-13326960D02*
X12527206Y-13279341D01*
X12527206Y-13279341D02*
X12527206Y-13241246D01*
X12527206Y-13241246D02*
X12517682Y-13193627D01*
X12517682Y-13193627D02*
X12508158Y-13165055D01*
X12508158Y-13165055D02*
X12498634Y-13146008D01*
X12498634Y-13146008D02*
X12479587Y-13117436D01*
X12479587Y-13117436D02*
X12470063Y-13107912D01*
X12831968Y-13412674D02*
X12822444Y-13403150D01*
X12822444Y-13403150D02*
X12803396Y-13374579D01*
X12803396Y-13374579D02*
X12793872Y-13355531D01*
X12793872Y-13355531D02*
X12784349Y-13326960D01*
X12784349Y-13326960D02*
X12774825Y-13279341D01*
X12774825Y-13279341D02*
X12774825Y-13241246D01*
X12774825Y-13241246D02*
X12784349Y-13193627D01*
X12784349Y-13193627D02*
X12793872Y-13165055D01*
X12793872Y-13165055D02*
X12803396Y-13146008D01*
X12803396Y-13146008D02*
X12822444Y-13117436D01*
X12822444Y-13117436D02*
X12831968Y-13107912D01*
X12908158Y-13203150D02*
X12908158Y-13336484D01*
X12908158Y-13222198D02*
X12917682Y-13212674D01*
X12917682Y-13212674D02*
X12936730Y-13203150D01*
X12936730Y-13203150D02*
X12965301Y-13203150D01*
X12965301Y-13203150D02*
X12984349Y-13212674D01*
X12984349Y-13212674D02*
X12993872Y-13231722D01*
X12993872Y-13231722D02*
X12993872Y-13336484D01*
X13117682Y-13336484D02*
X13098634Y-13326960D01*
X13098634Y-13326960D02*
X13089111Y-13317436D01*
X13089111Y-13317436D02*
X13079587Y-13298388D01*
X13079587Y-13298388D02*
X13079587Y-13241246D01*
X13079587Y-13241246D02*
X13089111Y-13222198D01*
X13089111Y-13222198D02*
X13098634Y-13212674D01*
X13098634Y-13212674D02*
X13117682Y-13203150D01*
X13117682Y-13203150D02*
X13146253Y-13203150D01*
X13146253Y-13203150D02*
X13165301Y-13212674D01*
X13165301Y-13212674D02*
X13174825Y-13222198D01*
X13174825Y-13222198D02*
X13184349Y-13241246D01*
X13184349Y-13241246D02*
X13184349Y-13298388D01*
X13184349Y-13298388D02*
X13174825Y-13317436D01*
X13174825Y-13317436D02*
X13165301Y-13326960D01*
X13165301Y-13326960D02*
X13146253Y-13336484D01*
X13146253Y-13336484D02*
X13117682Y-13336484D01*
X13241492Y-13203150D02*
X13317682Y-13203150D01*
X13270063Y-13136484D02*
X13270063Y-13307912D01*
X13270063Y-13307912D02*
X13279587Y-13326960D01*
X13279587Y-13326960D02*
X13298634Y-13336484D01*
X13298634Y-13336484D02*
X13317682Y-13336484D01*
X13536730Y-13203150D02*
X13536730Y-13403150D01*
X13536730Y-13212674D02*
X13555777Y-13203150D01*
X13555777Y-13203150D02*
X13593873Y-13203150D01*
X13593873Y-13203150D02*
X13612920Y-13212674D01*
X13612920Y-13212674D02*
X13622444Y-13222198D01*
X13622444Y-13222198D02*
X13631968Y-13241246D01*
X13631968Y-13241246D02*
X13631968Y-13298388D01*
X13631968Y-13298388D02*
X13622444Y-13317436D01*
X13622444Y-13317436D02*
X13612920Y-13326960D01*
X13612920Y-13326960D02*
X13593873Y-13336484D01*
X13593873Y-13336484D02*
X13555777Y-13336484D01*
X13555777Y-13336484D02*
X13536730Y-13326960D01*
X13746253Y-13336484D02*
X13727206Y-13326960D01*
X13727206Y-13326960D02*
X13717682Y-13307912D01*
X13717682Y-13307912D02*
X13717682Y-13136484D01*
X13908158Y-13336484D02*
X13908158Y-13231722D01*
X13908158Y-13231722D02*
X13898634Y-13212674D01*
X13898634Y-13212674D02*
X13879587Y-13203150D01*
X13879587Y-13203150D02*
X13841492Y-13203150D01*
X13841492Y-13203150D02*
X13822444Y-13212674D01*
X13908158Y-13326960D02*
X13889111Y-13336484D01*
X13889111Y-13336484D02*
X13841492Y-13336484D01*
X13841492Y-13336484D02*
X13822444Y-13326960D01*
X13822444Y-13326960D02*
X13812920Y-13307912D01*
X13812920Y-13307912D02*
X13812920Y-13288865D01*
X13812920Y-13288865D02*
X13822444Y-13269817D01*
X13822444Y-13269817D02*
X13841492Y-13260293D01*
X13841492Y-13260293D02*
X13889111Y-13260293D01*
X13889111Y-13260293D02*
X13908158Y-13250769D01*
X13974825Y-13203150D02*
X14051015Y-13203150D01*
X14003396Y-13136484D02*
X14003396Y-13307912D01*
X14003396Y-13307912D02*
X14012920Y-13326960D01*
X14012920Y-13326960D02*
X14031968Y-13336484D01*
X14031968Y-13336484D02*
X14051015Y-13336484D01*
X14193873Y-13326960D02*
X14174825Y-13336484D01*
X14174825Y-13336484D02*
X14136730Y-13336484D01*
X14136730Y-13336484D02*
X14117682Y-13326960D01*
X14117682Y-13326960D02*
X14108158Y-13307912D01*
X14108158Y-13307912D02*
X14108158Y-13231722D01*
X14108158Y-13231722D02*
X14117682Y-13212674D01*
X14117682Y-13212674D02*
X14136730Y-13203150D01*
X14136730Y-13203150D02*
X14174825Y-13203150D01*
X14174825Y-13203150D02*
X14193873Y-13212674D01*
X14193873Y-13212674D02*
X14203396Y-13231722D01*
X14203396Y-13231722D02*
X14203396Y-13250769D01*
X14203396Y-13250769D02*
X14108158Y-13269817D01*
X14374825Y-13336484D02*
X14374825Y-13136484D01*
X14374825Y-13326960D02*
X14355777Y-13336484D01*
X14355777Y-13336484D02*
X14317682Y-13336484D01*
X14317682Y-13336484D02*
X14298634Y-13326960D01*
X14298634Y-13326960D02*
X14289111Y-13317436D01*
X14289111Y-13317436D02*
X14279587Y-13298388D01*
X14279587Y-13298388D02*
X14279587Y-13241246D01*
X14279587Y-13241246D02*
X14289111Y-13222198D01*
X14289111Y-13222198D02*
X14298634Y-13212674D01*
X14298634Y-13212674D02*
X14317682Y-13203150D01*
X14317682Y-13203150D02*
X14355777Y-13203150D01*
X14355777Y-13203150D02*
X14374825Y-13212674D01*
X14451015Y-13412674D02*
X14460539Y-13403150D01*
X14460539Y-13403150D02*
X14479587Y-13374579D01*
X14479587Y-13374579D02*
X14489111Y-13355531D01*
X14489111Y-13355531D02*
X14498634Y-13326960D01*
X14498634Y-13326960D02*
X14508158Y-13279341D01*
X14508158Y-13279341D02*
X14508158Y-13241246D01*
X14508158Y-13241246D02*
X14498634Y-13193627D01*
X14498634Y-13193627D02*
X14489111Y-13165055D01*
X14489111Y-13165055D02*
X14479587Y-13146008D01*
X14479587Y-13146008D02*
X14460539Y-13117436D01*
X14460539Y-13117436D02*
X14451015Y-13107912D01*
X7695000Y-13565000D02*
G75*
G03*
X7695000Y-13565000I-100000J0D01*
G01*
X7936729Y-13456484D02*
X8060539Y-13456484D01*
X8060539Y-13456484D02*
X7993872Y-13532674D01*
X7993872Y-13532674D02*
X8022443Y-13532674D01*
X8022443Y-13532674D02*
X8041491Y-13542198D01*
X8041491Y-13542198D02*
X8051015Y-13551722D01*
X8051015Y-13551722D02*
X8060539Y-13570769D01*
X8060539Y-13570769D02*
X8060539Y-13618388D01*
X8060539Y-13618388D02*
X8051015Y-13637436D01*
X8051015Y-13637436D02*
X8041491Y-13646960D01*
X8041491Y-13646960D02*
X8022443Y-13656484D01*
X8022443Y-13656484D02*
X7965301Y-13656484D01*
X7965301Y-13656484D02*
X7946253Y-13646960D01*
X7946253Y-13646960D02*
X7936729Y-13637436D01*
X8146253Y-13637436D02*
X8155777Y-13646960D01*
X8155777Y-13646960D02*
X8146253Y-13656484D01*
X8146253Y-13656484D02*
X8136729Y-13646960D01*
X8136729Y-13646960D02*
X8146253Y-13637436D01*
X8146253Y-13637436D02*
X8146253Y-13656484D01*
X8222443Y-13456484D02*
X8346253Y-13456484D01*
X8346253Y-13456484D02*
X8279586Y-13532674D01*
X8279586Y-13532674D02*
X8308158Y-13532674D01*
X8308158Y-13532674D02*
X8327205Y-13542198D01*
X8327205Y-13542198D02*
X8336729Y-13551722D01*
X8336729Y-13551722D02*
X8346253Y-13570769D01*
X8346253Y-13570769D02*
X8346253Y-13618388D01*
X8346253Y-13618388D02*
X8336729Y-13637436D01*
X8336729Y-13637436D02*
X8327205Y-13646960D01*
X8327205Y-13646960D02*
X8308158Y-13656484D01*
X8308158Y-13656484D02*
X8251015Y-13656484D01*
X8251015Y-13656484D02*
X8231967Y-13646960D01*
X8231967Y-13646960D02*
X8222443Y-13637436D01*
X8470063Y-13456484D02*
X8489110Y-13456484D01*
X8489110Y-13456484D02*
X8508158Y-13466008D01*
X8508158Y-13466008D02*
X8517682Y-13475531D01*
X8517682Y-13475531D02*
X8527205Y-13494579D01*
X8527205Y-13494579D02*
X8536729Y-13532674D01*
X8536729Y-13532674D02*
X8536729Y-13580293D01*
X8536729Y-13580293D02*
X8527205Y-13618388D01*
X8527205Y-13618388D02*
X8517682Y-13637436D01*
X8517682Y-13637436D02*
X8508158Y-13646960D01*
X8508158Y-13646960D02*
X8489110Y-13656484D01*
X8489110Y-13656484D02*
X8470063Y-13656484D01*
X8470063Y-13656484D02*
X8451015Y-13646960D01*
X8451015Y-13646960D02*
X8441491Y-13637436D01*
X8441491Y-13637436D02*
X8431967Y-13618388D01*
X8431967Y-13618388D02*
X8422444Y-13580293D01*
X8422444Y-13580293D02*
X8422444Y-13532674D01*
X8422444Y-13532674D02*
X8431967Y-13494579D01*
X8431967Y-13494579D02*
X8441491Y-13475531D01*
X8441491Y-13475531D02*
X8451015Y-13466008D01*
X8451015Y-13466008D02*
X8470063Y-13456484D01*
X8660539Y-13456484D02*
X8679586Y-13456484D01*
X8679586Y-13456484D02*
X8698634Y-13466008D01*
X8698634Y-13466008D02*
X8708158Y-13475531D01*
X8708158Y-13475531D02*
X8717682Y-13494579D01*
X8717682Y-13494579D02*
X8727205Y-13532674D01*
X8727205Y-13532674D02*
X8727205Y-13580293D01*
X8727205Y-13580293D02*
X8717682Y-13618388D01*
X8717682Y-13618388D02*
X8708158Y-13637436D01*
X8708158Y-13637436D02*
X8698634Y-13646960D01*
X8698634Y-13646960D02*
X8679586Y-13656484D01*
X8679586Y-13656484D02*
X8660539Y-13656484D01*
X8660539Y-13656484D02*
X8641491Y-13646960D01*
X8641491Y-13646960D02*
X8631967Y-13637436D01*
X8631967Y-13637436D02*
X8622444Y-13618388D01*
X8622444Y-13618388D02*
X8612920Y-13580293D01*
X8612920Y-13580293D02*
X8612920Y-13532674D01*
X8612920Y-13532674D02*
X8622444Y-13494579D01*
X8622444Y-13494579D02*
X8631967Y-13475531D01*
X8631967Y-13475531D02*
X8641491Y-13466008D01*
X8641491Y-13466008D02*
X8660539Y-13456484D01*
X8812920Y-13656484D02*
X8812920Y-13523150D01*
X8812920Y-13542198D02*
X8822444Y-13532674D01*
X8822444Y-13532674D02*
X8841491Y-13523150D01*
X8841491Y-13523150D02*
X8870063Y-13523150D01*
X8870063Y-13523150D02*
X8889110Y-13532674D01*
X8889110Y-13532674D02*
X8898634Y-13551722D01*
X8898634Y-13551722D02*
X8898634Y-13656484D01*
X8898634Y-13551722D02*
X8908158Y-13532674D01*
X8908158Y-13532674D02*
X8927205Y-13523150D01*
X8927205Y-13523150D02*
X8955777Y-13523150D01*
X8955777Y-13523150D02*
X8974825Y-13532674D01*
X8974825Y-13532674D02*
X8984348Y-13551722D01*
X8984348Y-13551722D02*
X8984348Y-13656484D01*
X9079586Y-13656484D02*
X9079586Y-13523150D01*
X9079586Y-13542198D02*
X9089110Y-13532674D01*
X9089110Y-13532674D02*
X9108158Y-13523150D01*
X9108158Y-13523150D02*
X9136729Y-13523150D01*
X9136729Y-13523150D02*
X9155777Y-13532674D01*
X9155777Y-13532674D02*
X9165301Y-13551722D01*
X9165301Y-13551722D02*
X9165301Y-13656484D01*
X9165301Y-13551722D02*
X9174825Y-13532674D01*
X9174825Y-13532674D02*
X9193872Y-13523150D01*
X9193872Y-13523150D02*
X9222444Y-13523150D01*
X9222444Y-13523150D02*
X9241491Y-13532674D01*
X9241491Y-13532674D02*
X9251015Y-13551722D01*
X9251015Y-13551722D02*
X9251015Y-13656484D01*
X9641491Y-13446960D02*
X9470063Y-13704103D01*
X9898634Y-13456484D02*
X9917682Y-13456484D01*
X9917682Y-13456484D02*
X9936729Y-13466008D01*
X9936729Y-13466008D02*
X9946253Y-13475531D01*
X9946253Y-13475531D02*
X9955777Y-13494579D01*
X9955777Y-13494579D02*
X9965301Y-13532674D01*
X9965301Y-13532674D02*
X9965301Y-13580293D01*
X9965301Y-13580293D02*
X9955777Y-13618388D01*
X9955777Y-13618388D02*
X9946253Y-13637436D01*
X9946253Y-13637436D02*
X9936729Y-13646960D01*
X9936729Y-13646960D02*
X9917682Y-13656484D01*
X9917682Y-13656484D02*
X9898634Y-13656484D01*
X9898634Y-13656484D02*
X9879587Y-13646960D01*
X9879587Y-13646960D02*
X9870063Y-13637436D01*
X9870063Y-13637436D02*
X9860539Y-13618388D01*
X9860539Y-13618388D02*
X9851015Y-13580293D01*
X9851015Y-13580293D02*
X9851015Y-13532674D01*
X9851015Y-13532674D02*
X9860539Y-13494579D01*
X9860539Y-13494579D02*
X9870063Y-13475531D01*
X9870063Y-13475531D02*
X9879587Y-13466008D01*
X9879587Y-13466008D02*
X9898634Y-13456484D01*
X10051015Y-13637436D02*
X10060539Y-13646960D01*
X10060539Y-13646960D02*
X10051015Y-13656484D01*
X10051015Y-13656484D02*
X10041491Y-13646960D01*
X10041491Y-13646960D02*
X10051015Y-13637436D01*
X10051015Y-13637436D02*
X10051015Y-13656484D01*
X10251015Y-13656484D02*
X10136729Y-13656484D01*
X10193872Y-13656484D02*
X10193872Y-13456484D01*
X10193872Y-13456484D02*
X10174825Y-13485055D01*
X10174825Y-13485055D02*
X10155777Y-13504103D01*
X10155777Y-13504103D02*
X10136729Y-13513627D01*
X10327206Y-13475531D02*
X10336729Y-13466008D01*
X10336729Y-13466008D02*
X10355777Y-13456484D01*
X10355777Y-13456484D02*
X10403396Y-13456484D01*
X10403396Y-13456484D02*
X10422444Y-13466008D01*
X10422444Y-13466008D02*
X10431968Y-13475531D01*
X10431968Y-13475531D02*
X10441491Y-13494579D01*
X10441491Y-13494579D02*
X10441491Y-13513627D01*
X10441491Y-13513627D02*
X10431968Y-13542198D01*
X10431968Y-13542198D02*
X10317682Y-13656484D01*
X10317682Y-13656484D02*
X10441491Y-13656484D01*
X10536729Y-13656484D02*
X10574825Y-13656484D01*
X10574825Y-13656484D02*
X10593872Y-13646960D01*
X10593872Y-13646960D02*
X10603396Y-13637436D01*
X10603396Y-13637436D02*
X10622444Y-13608865D01*
X10622444Y-13608865D02*
X10631968Y-13570769D01*
X10631968Y-13570769D02*
X10631968Y-13494579D01*
X10631968Y-13494579D02*
X10622444Y-13475531D01*
X10622444Y-13475531D02*
X10612920Y-13466008D01*
X10612920Y-13466008D02*
X10593872Y-13456484D01*
X10593872Y-13456484D02*
X10555777Y-13456484D01*
X10555777Y-13456484D02*
X10536729Y-13466008D01*
X10536729Y-13466008D02*
X10527206Y-13475531D01*
X10527206Y-13475531D02*
X10517682Y-13494579D01*
X10517682Y-13494579D02*
X10517682Y-13542198D01*
X10517682Y-13542198D02*
X10527206Y-13561246D01*
X10527206Y-13561246D02*
X10536729Y-13570769D01*
X10536729Y-13570769D02*
X10555777Y-13580293D01*
X10555777Y-13580293D02*
X10593872Y-13580293D01*
X10593872Y-13580293D02*
X10612920Y-13570769D01*
X10612920Y-13570769D02*
X10622444Y-13561246D01*
X10622444Y-13561246D02*
X10631968Y-13542198D01*
X10727206Y-13656484D02*
X10765301Y-13656484D01*
X10765301Y-13656484D02*
X10784349Y-13646960D01*
X10784349Y-13646960D02*
X10793872Y-13637436D01*
X10793872Y-13637436D02*
X10812920Y-13608865D01*
X10812920Y-13608865D02*
X10822444Y-13570769D01*
X10822444Y-13570769D02*
X10822444Y-13494579D01*
X10822444Y-13494579D02*
X10812920Y-13475531D01*
X10812920Y-13475531D02*
X10803396Y-13466008D01*
X10803396Y-13466008D02*
X10784349Y-13456484D01*
X10784349Y-13456484D02*
X10746253Y-13456484D01*
X10746253Y-13456484D02*
X10727206Y-13466008D01*
X10727206Y-13466008D02*
X10717682Y-13475531D01*
X10717682Y-13475531D02*
X10708158Y-13494579D01*
X10708158Y-13494579D02*
X10708158Y-13542198D01*
X10708158Y-13542198D02*
X10717682Y-13561246D01*
X10717682Y-13561246D02*
X10727206Y-13570769D01*
X10727206Y-13570769D02*
X10746253Y-13580293D01*
X10746253Y-13580293D02*
X10784349Y-13580293D01*
X10784349Y-13580293D02*
X10803396Y-13570769D01*
X10803396Y-13570769D02*
X10812920Y-13561246D01*
X10812920Y-13561246D02*
X10822444Y-13542198D01*
X10898634Y-13456484D02*
X10898634Y-13494579D01*
X10974825Y-13456484D02*
X10974825Y-13494579D01*
X11270063Y-13732674D02*
X11260539Y-13723150D01*
X11260539Y-13723150D02*
X11241491Y-13694579D01*
X11241491Y-13694579D02*
X11231968Y-13675531D01*
X11231968Y-13675531D02*
X11222444Y-13646960D01*
X11222444Y-13646960D02*
X11212920Y-13599341D01*
X11212920Y-13599341D02*
X11212920Y-13561246D01*
X11212920Y-13561246D02*
X11222444Y-13513627D01*
X11222444Y-13513627D02*
X11231968Y-13485055D01*
X11231968Y-13485055D02*
X11241491Y-13466008D01*
X11241491Y-13466008D02*
X11260539Y-13437436D01*
X11260539Y-13437436D02*
X11270063Y-13427912D01*
X11374825Y-13542198D02*
X11355777Y-13532674D01*
X11355777Y-13532674D02*
X11346253Y-13523150D01*
X11346253Y-13523150D02*
X11336729Y-13504103D01*
X11336729Y-13504103D02*
X11336729Y-13494579D01*
X11336729Y-13494579D02*
X11346253Y-13475531D01*
X11346253Y-13475531D02*
X11355777Y-13466008D01*
X11355777Y-13466008D02*
X11374825Y-13456484D01*
X11374825Y-13456484D02*
X11412920Y-13456484D01*
X11412920Y-13456484D02*
X11431968Y-13466008D01*
X11431968Y-13466008D02*
X11441491Y-13475531D01*
X11441491Y-13475531D02*
X11451015Y-13494579D01*
X11451015Y-13494579D02*
X11451015Y-13504103D01*
X11451015Y-13504103D02*
X11441491Y-13523150D01*
X11441491Y-13523150D02*
X11431968Y-13532674D01*
X11431968Y-13532674D02*
X11412920Y-13542198D01*
X11412920Y-13542198D02*
X11374825Y-13542198D01*
X11374825Y-13542198D02*
X11355777Y-13551722D01*
X11355777Y-13551722D02*
X11346253Y-13561246D01*
X11346253Y-13561246D02*
X11336729Y-13580293D01*
X11336729Y-13580293D02*
X11336729Y-13618388D01*
X11336729Y-13618388D02*
X11346253Y-13637436D01*
X11346253Y-13637436D02*
X11355777Y-13646960D01*
X11355777Y-13646960D02*
X11374825Y-13656484D01*
X11374825Y-13656484D02*
X11412920Y-13656484D01*
X11412920Y-13656484D02*
X11431968Y-13646960D01*
X11431968Y-13646960D02*
X11441491Y-13637436D01*
X11441491Y-13637436D02*
X11451015Y-13618388D01*
X11451015Y-13618388D02*
X11451015Y-13580293D01*
X11451015Y-13580293D02*
X11441491Y-13561246D01*
X11441491Y-13561246D02*
X11431968Y-13551722D01*
X11431968Y-13551722D02*
X11412920Y-13542198D01*
X11689110Y-13656484D02*
X11689110Y-13456484D01*
X11774825Y-13656484D02*
X11774825Y-13551722D01*
X11774825Y-13551722D02*
X11765301Y-13532674D01*
X11765301Y-13532674D02*
X11746253Y-13523150D01*
X11746253Y-13523150D02*
X11717682Y-13523150D01*
X11717682Y-13523150D02*
X11698634Y-13532674D01*
X11698634Y-13532674D02*
X11689110Y-13542198D01*
X11898634Y-13656484D02*
X11879587Y-13646960D01*
X11879587Y-13646960D02*
X11870063Y-13637436D01*
X11870063Y-13637436D02*
X11860539Y-13618388D01*
X11860539Y-13618388D02*
X11860539Y-13561246D01*
X11860539Y-13561246D02*
X11870063Y-13542198D01*
X11870063Y-13542198D02*
X11879587Y-13532674D01*
X11879587Y-13532674D02*
X11898634Y-13523150D01*
X11898634Y-13523150D02*
X11927206Y-13523150D01*
X11927206Y-13523150D02*
X11946253Y-13532674D01*
X11946253Y-13532674D02*
X11955777Y-13542198D01*
X11955777Y-13542198D02*
X11965301Y-13561246D01*
X11965301Y-13561246D02*
X11965301Y-13618388D01*
X11965301Y-13618388D02*
X11955777Y-13637436D01*
X11955777Y-13637436D02*
X11946253Y-13646960D01*
X11946253Y-13646960D02*
X11927206Y-13656484D01*
X11927206Y-13656484D02*
X11898634Y-13656484D01*
X12079587Y-13656484D02*
X12060539Y-13646960D01*
X12060539Y-13646960D02*
X12051015Y-13627912D01*
X12051015Y-13627912D02*
X12051015Y-13456484D01*
X12231968Y-13646960D02*
X12212920Y-13656484D01*
X12212920Y-13656484D02*
X12174825Y-13656484D01*
X12174825Y-13656484D02*
X12155777Y-13646960D01*
X12155777Y-13646960D02*
X12146253Y-13627912D01*
X12146253Y-13627912D02*
X12146253Y-13551722D01*
X12146253Y-13551722D02*
X12155777Y-13532674D01*
X12155777Y-13532674D02*
X12174825Y-13523150D01*
X12174825Y-13523150D02*
X12212920Y-13523150D01*
X12212920Y-13523150D02*
X12231968Y-13532674D01*
X12231968Y-13532674D02*
X12241491Y-13551722D01*
X12241491Y-13551722D02*
X12241491Y-13570769D01*
X12241491Y-13570769D02*
X12146253Y-13589817D01*
X12317682Y-13646960D02*
X12336730Y-13656484D01*
X12336730Y-13656484D02*
X12374825Y-13656484D01*
X12374825Y-13656484D02*
X12393872Y-13646960D01*
X12393872Y-13646960D02*
X12403396Y-13627912D01*
X12403396Y-13627912D02*
X12403396Y-13618388D01*
X12403396Y-13618388D02*
X12393872Y-13599341D01*
X12393872Y-13599341D02*
X12374825Y-13589817D01*
X12374825Y-13589817D02*
X12346253Y-13589817D01*
X12346253Y-13589817D02*
X12327206Y-13580293D01*
X12327206Y-13580293D02*
X12317682Y-13561246D01*
X12317682Y-13561246D02*
X12317682Y-13551722D01*
X12317682Y-13551722D02*
X12327206Y-13532674D01*
X12327206Y-13532674D02*
X12346253Y-13523150D01*
X12346253Y-13523150D02*
X12374825Y-13523150D01*
X12374825Y-13523150D02*
X12393872Y-13532674D01*
X12470063Y-13732674D02*
X12479587Y-13723150D01*
X12479587Y-13723150D02*
X12498634Y-13694579D01*
X12498634Y-13694579D02*
X12508158Y-13675531D01*
X12508158Y-13675531D02*
X12517682Y-13646960D01*
X12517682Y-13646960D02*
X12527206Y-13599341D01*
X12527206Y-13599341D02*
X12527206Y-13561246D01*
X12527206Y-13561246D02*
X12517682Y-13513627D01*
X12517682Y-13513627D02*
X12508158Y-13485055D01*
X12508158Y-13485055D02*
X12498634Y-13466008D01*
X12498634Y-13466008D02*
X12479587Y-13437436D01*
X12479587Y-13437436D02*
X12470063Y-13427912D01*
X12831968Y-13732674D02*
X12822444Y-13723150D01*
X12822444Y-13723150D02*
X12803396Y-13694579D01*
X12803396Y-13694579D02*
X12793872Y-13675531D01*
X12793872Y-13675531D02*
X12784349Y-13646960D01*
X12784349Y-13646960D02*
X12774825Y-13599341D01*
X12774825Y-13599341D02*
X12774825Y-13561246D01*
X12774825Y-13561246D02*
X12784349Y-13513627D01*
X12784349Y-13513627D02*
X12793872Y-13485055D01*
X12793872Y-13485055D02*
X12803396Y-13466008D01*
X12803396Y-13466008D02*
X12822444Y-13437436D01*
X12822444Y-13437436D02*
X12831968Y-13427912D01*
X12908158Y-13523150D02*
X12908158Y-13656484D01*
X12908158Y-13542198D02*
X12917682Y-13532674D01*
X12917682Y-13532674D02*
X12936730Y-13523150D01*
X12936730Y-13523150D02*
X12965301Y-13523150D01*
X12965301Y-13523150D02*
X12984349Y-13532674D01*
X12984349Y-13532674D02*
X12993872Y-13551722D01*
X12993872Y-13551722D02*
X12993872Y-13656484D01*
X13117682Y-13656484D02*
X13098634Y-13646960D01*
X13098634Y-13646960D02*
X13089111Y-13637436D01*
X13089111Y-13637436D02*
X13079587Y-13618388D01*
X13079587Y-13618388D02*
X13079587Y-13561246D01*
X13079587Y-13561246D02*
X13089111Y-13542198D01*
X13089111Y-13542198D02*
X13098634Y-13532674D01*
X13098634Y-13532674D02*
X13117682Y-13523150D01*
X13117682Y-13523150D02*
X13146253Y-13523150D01*
X13146253Y-13523150D02*
X13165301Y-13532674D01*
X13165301Y-13532674D02*
X13174825Y-13542198D01*
X13174825Y-13542198D02*
X13184349Y-13561246D01*
X13184349Y-13561246D02*
X13184349Y-13618388D01*
X13184349Y-13618388D02*
X13174825Y-13637436D01*
X13174825Y-13637436D02*
X13165301Y-13646960D01*
X13165301Y-13646960D02*
X13146253Y-13656484D01*
X13146253Y-13656484D02*
X13117682Y-13656484D01*
X13241492Y-13523150D02*
X13317682Y-13523150D01*
X13270063Y-13456484D02*
X13270063Y-13627912D01*
X13270063Y-13627912D02*
X13279587Y-13646960D01*
X13279587Y-13646960D02*
X13298634Y-13656484D01*
X13298634Y-13656484D02*
X13317682Y-13656484D01*
X13536730Y-13523150D02*
X13536730Y-13723150D01*
X13536730Y-13532674D02*
X13555777Y-13523150D01*
X13555777Y-13523150D02*
X13593873Y-13523150D01*
X13593873Y-13523150D02*
X13612920Y-13532674D01*
X13612920Y-13532674D02*
X13622444Y-13542198D01*
X13622444Y-13542198D02*
X13631968Y-13561246D01*
X13631968Y-13561246D02*
X13631968Y-13618388D01*
X13631968Y-13618388D02*
X13622444Y-13637436D01*
X13622444Y-13637436D02*
X13612920Y-13646960D01*
X13612920Y-13646960D02*
X13593873Y-13656484D01*
X13593873Y-13656484D02*
X13555777Y-13656484D01*
X13555777Y-13656484D02*
X13536730Y-13646960D01*
X13746253Y-13656484D02*
X13727206Y-13646960D01*
X13727206Y-13646960D02*
X13717682Y-13627912D01*
X13717682Y-13627912D02*
X13717682Y-13456484D01*
X13908158Y-13656484D02*
X13908158Y-13551722D01*
X13908158Y-13551722D02*
X13898634Y-13532674D01*
X13898634Y-13532674D02*
X13879587Y-13523150D01*
X13879587Y-13523150D02*
X13841492Y-13523150D01*
X13841492Y-13523150D02*
X13822444Y-13532674D01*
X13908158Y-13646960D02*
X13889111Y-13656484D01*
X13889111Y-13656484D02*
X13841492Y-13656484D01*
X13841492Y-13656484D02*
X13822444Y-13646960D01*
X13822444Y-13646960D02*
X13812920Y-13627912D01*
X13812920Y-13627912D02*
X13812920Y-13608865D01*
X13812920Y-13608865D02*
X13822444Y-13589817D01*
X13822444Y-13589817D02*
X13841492Y-13580293D01*
X13841492Y-13580293D02*
X13889111Y-13580293D01*
X13889111Y-13580293D02*
X13908158Y-13570769D01*
X13974825Y-13523150D02*
X14051015Y-13523150D01*
X14003396Y-13456484D02*
X14003396Y-13627912D01*
X14003396Y-13627912D02*
X14012920Y-13646960D01*
X14012920Y-13646960D02*
X14031968Y-13656484D01*
X14031968Y-13656484D02*
X14051015Y-13656484D01*
X14193873Y-13646960D02*
X14174825Y-13656484D01*
X14174825Y-13656484D02*
X14136730Y-13656484D01*
X14136730Y-13656484D02*
X14117682Y-13646960D01*
X14117682Y-13646960D02*
X14108158Y-13627912D01*
X14108158Y-13627912D02*
X14108158Y-13551722D01*
X14108158Y-13551722D02*
X14117682Y-13532674D01*
X14117682Y-13532674D02*
X14136730Y-13523150D01*
X14136730Y-13523150D02*
X14174825Y-13523150D01*
X14174825Y-13523150D02*
X14193873Y-13532674D01*
X14193873Y-13532674D02*
X14203396Y-13551722D01*
X14203396Y-13551722D02*
X14203396Y-13570769D01*
X14203396Y-13570769D02*
X14108158Y-13589817D01*
X14374825Y-13656484D02*
X14374825Y-13456484D01*
X14374825Y-13646960D02*
X14355777Y-13656484D01*
X14355777Y-13656484D02*
X14317682Y-13656484D01*
X14317682Y-13656484D02*
X14298634Y-13646960D01*
X14298634Y-13646960D02*
X14289111Y-13637436D01*
X14289111Y-13637436D02*
X14279587Y-13618388D01*
X14279587Y-13618388D02*
X14279587Y-13561246D01*
X14279587Y-13561246D02*
X14289111Y-13542198D01*
X14289111Y-13542198D02*
X14298634Y-13532674D01*
X14298634Y-13532674D02*
X14317682Y-13523150D01*
X14317682Y-13523150D02*
X14355777Y-13523150D01*
X14355777Y-13523150D02*
X14374825Y-13532674D01*
X14451015Y-13732674D02*
X14460539Y-13723150D01*
X14460539Y-13723150D02*
X14479587Y-13694579D01*
X14479587Y-13694579D02*
X14489111Y-13675531D01*
X14489111Y-13675531D02*
X14498634Y-13646960D01*
X14498634Y-13646960D02*
X14508158Y-13599341D01*
X14508158Y-13599341D02*
X14508158Y-13561246D01*
X14508158Y-13561246D02*
X14498634Y-13513627D01*
X14498634Y-13513627D02*
X14489111Y-13485055D01*
X14489111Y-13485055D02*
X14479587Y-13466008D01*
X14479587Y-13466008D02*
X14460539Y-13437436D01*
X14460539Y-13437436D02*
X14451015Y-13427912D01*
M02*
