G04 #@! TF.GenerationSoftware,KiCad,Pcbnew,7.0.8*
G04 #@! TF.CreationDate,2024-02-01T01:17:55-07:00*
G04 #@! TF.ProjectId,loggerpanel,6c6f6767-6572-4706-916e-656c2e6b6963,v1*
G04 #@! TF.SameCoordinates,Original*
G04 #@! TF.FileFunction,Legend,Bot*
G04 #@! TF.FilePolarity,Positive*
%FSLAX46Y46*%
G04 Gerber Fmt 4.6, Leading zero omitted, Abs format (unit mm)*
G04 Created by KiCad (PCBNEW 7.0.8) date 2024-02-01 01:17:55*
%MOMM*%
%LPD*%
G01*
G04 APERTURE LIST*
%ADD10C,0.150000*%
%ADD11C,3.200000*%
%ADD12C,3.300000*%
G04 APERTURE END LIST*
D10*
G36*
X126109734Y-122613447D02*
G01*
X126139135Y-122612989D01*
X126175628Y-122611128D01*
X126211835Y-122607837D01*
X126247756Y-122603114D01*
X126283391Y-122596960D01*
X126318739Y-122589376D01*
X126339811Y-122584138D01*
X126374007Y-122573784D01*
X126406987Y-122561498D01*
X126438751Y-122547279D01*
X126469298Y-122531129D01*
X126498629Y-122513047D01*
X126526743Y-122493033D01*
X126537648Y-122484487D01*
X126563844Y-122461789D01*
X126588395Y-122437661D01*
X126611300Y-122412101D01*
X126632559Y-122385110D01*
X126652172Y-122356688D01*
X126670140Y-122326835D01*
X126676866Y-122314494D01*
X126692583Y-122282784D01*
X126706762Y-122250394D01*
X126719402Y-122217325D01*
X126730504Y-122183576D01*
X126740068Y-122149147D01*
X126748093Y-122114038D01*
X126750872Y-122099804D01*
X126756886Y-122063765D01*
X126761648Y-122027547D01*
X126765158Y-121991151D01*
X126767415Y-121954575D01*
X126768320Y-121925186D01*
X126768423Y-121895682D01*
X126767725Y-121866064D01*
X126766374Y-121836320D01*
X126764519Y-121806438D01*
X126762160Y-121776419D01*
X126759298Y-121746263D01*
X126755932Y-121715969D01*
X126752062Y-121685538D01*
X126747689Y-121654969D01*
X126742812Y-121624263D01*
X126514933Y-120243803D01*
X126509094Y-120208136D01*
X126502110Y-120172576D01*
X126493982Y-120137124D01*
X126484708Y-120101779D01*
X126476465Y-120073581D01*
X126467489Y-120045451D01*
X126457780Y-120017390D01*
X126447213Y-119989420D01*
X126435661Y-119961931D01*
X126423125Y-119934923D01*
X126409603Y-119908396D01*
X126395098Y-119882350D01*
X126379607Y-119856785D01*
X126363132Y-119831700D01*
X126345673Y-119807096D01*
X126327297Y-119782859D01*
X126308075Y-119759240D01*
X126288005Y-119736239D01*
X126267088Y-119713857D01*
X126245323Y-119692092D01*
X126222712Y-119670946D01*
X126199253Y-119650419D01*
X126174947Y-119630509D01*
X126150046Y-119611401D01*
X126124801Y-119593277D01*
X126099213Y-119576138D01*
X126073281Y-119559984D01*
X126047006Y-119544814D01*
X126020387Y-119530629D01*
X125993425Y-119517428D01*
X125966120Y-119505212D01*
X125938551Y-119493958D01*
X125910799Y-119483643D01*
X125882863Y-119474266D01*
X125854745Y-119465828D01*
X125819339Y-119456601D01*
X125783647Y-119448841D01*
X125747669Y-119442548D01*
X125740439Y-119441465D01*
X125711359Y-119437515D01*
X125675138Y-119433318D01*
X125639059Y-119429945D01*
X125603124Y-119427394D01*
X125567332Y-119425665D01*
X125531683Y-119424760D01*
X125510362Y-119424612D01*
X125474713Y-119424988D01*
X125439208Y-119426115D01*
X125403845Y-119427993D01*
X125368625Y-119430623D01*
X125333549Y-119434004D01*
X125298615Y-119438136D01*
X125284682Y-119440000D01*
X125249863Y-119445169D01*
X125215473Y-119451520D01*
X125181513Y-119459051D01*
X125147982Y-119467763D01*
X125114881Y-119477656D01*
X125082208Y-119488729D01*
X125069260Y-119493489D01*
X125037439Y-119506093D01*
X125006549Y-119520093D01*
X124976588Y-119535488D01*
X124947558Y-119552279D01*
X124919458Y-119570465D01*
X124892289Y-119590046D01*
X124881681Y-119598269D01*
X124855907Y-119619786D01*
X124831707Y-119642662D01*
X124809081Y-119666898D01*
X124788029Y-119692493D01*
X124768552Y-119719448D01*
X124750649Y-119747763D01*
X124743928Y-119759469D01*
X124728318Y-119789261D01*
X124714462Y-119820019D01*
X124702358Y-119851744D01*
X124692008Y-119884434D01*
X124683410Y-119918090D01*
X124676566Y-119952712D01*
X124674319Y-119966831D01*
X124669876Y-120002377D01*
X124667078Y-120038029D01*
X124665926Y-120073789D01*
X124666419Y-120109656D01*
X124668559Y-120145631D01*
X124672344Y-120181713D01*
X124674319Y-120196175D01*
X124678715Y-120196175D01*
X125028960Y-120196175D01*
X125024563Y-120183719D01*
X125020495Y-120152739D01*
X125018825Y-120122081D01*
X125019551Y-120091745D01*
X125022674Y-120061731D01*
X125028195Y-120032039D01*
X125036112Y-120002669D01*
X125039951Y-119991011D01*
X125050781Y-119962525D01*
X125063578Y-119935685D01*
X125081533Y-119905648D01*
X125102321Y-119877982D01*
X125125943Y-119852686D01*
X125143265Y-119837138D01*
X125171146Y-119815998D01*
X125200933Y-119797640D01*
X125227212Y-119784466D01*
X125254815Y-119773225D01*
X125283741Y-119763916D01*
X125313991Y-119756538D01*
X125344957Y-119750417D01*
X125376030Y-119745333D01*
X125407210Y-119741286D01*
X125438498Y-119738277D01*
X125469893Y-119736306D01*
X125501395Y-119735372D01*
X125514026Y-119735289D01*
X125547260Y-119735815D01*
X125580284Y-119737393D01*
X125613097Y-119740022D01*
X125645700Y-119743704D01*
X125664235Y-119746280D01*
X125696718Y-119751925D01*
X125729411Y-119759884D01*
X125757601Y-119768548D01*
X125785946Y-119778912D01*
X125814445Y-119790976D01*
X125842334Y-119804312D01*
X125869399Y-119819038D01*
X125895640Y-119835155D01*
X125921057Y-119852663D01*
X125945649Y-119871562D01*
X125953663Y-119878171D01*
X125976650Y-119898496D01*
X125998348Y-119919902D01*
X126018759Y-119942391D01*
X126037881Y-119965961D01*
X126055716Y-119990614D01*
X126061374Y-119999071D01*
X126077217Y-120024857D01*
X126091771Y-120051107D01*
X126105037Y-120077820D01*
X126117016Y-120104996D01*
X126127706Y-120132637D01*
X126130983Y-120141953D01*
X126141287Y-120174436D01*
X126150398Y-120207129D01*
X126158317Y-120240032D01*
X126165044Y-120273146D01*
X126168353Y-120292163D01*
X126396231Y-121673356D01*
X126400791Y-121705024D01*
X126404577Y-121736279D01*
X126407591Y-121767122D01*
X126409832Y-121797554D01*
X126411301Y-121827573D01*
X126411618Y-121837487D01*
X126411208Y-121871613D01*
X126408693Y-121905388D01*
X126404075Y-121938812D01*
X126397353Y-121971886D01*
X126392568Y-121990628D01*
X126382289Y-122022409D01*
X126370048Y-122052998D01*
X126355842Y-122082395D01*
X126339674Y-122110600D01*
X126329553Y-122126182D01*
X126309873Y-122152128D01*
X126288019Y-122176111D01*
X126263992Y-122198130D01*
X126237790Y-122218186D01*
X126221842Y-122228764D01*
X126192605Y-122245274D01*
X126162597Y-122259539D01*
X126131817Y-122271560D01*
X126100266Y-122281338D01*
X126081891Y-122285917D01*
X126049022Y-122292484D01*
X126015172Y-122297438D01*
X125985377Y-122300400D01*
X125954860Y-122302177D01*
X125923621Y-122302770D01*
X125893919Y-122302174D01*
X125863795Y-122300386D01*
X125833251Y-122297405D01*
X125802286Y-122293233D01*
X125784403Y-122290314D01*
X125753092Y-122283842D01*
X125721992Y-122275968D01*
X125691102Y-122266692D01*
X125660423Y-122256013D01*
X125642986Y-122249281D01*
X125612953Y-122236082D01*
X125583761Y-122220850D01*
X125555411Y-122203585D01*
X125527902Y-122184285D01*
X125512561Y-122172344D01*
X125490098Y-122153497D01*
X125465454Y-122130401D01*
X125442493Y-122106112D01*
X125421216Y-122080632D01*
X125407048Y-122061702D01*
X125388440Y-122034173D01*
X125371725Y-122006084D01*
X125356904Y-121977433D01*
X125343976Y-121948221D01*
X125337438Y-121931277D01*
X125327025Y-121900968D01*
X125318224Y-121870308D01*
X125311037Y-121839298D01*
X125305462Y-121807938D01*
X125303000Y-121789860D01*
X125201884Y-121183161D01*
X125742637Y-121183161D01*
X125691346Y-120872484D01*
X124796685Y-120872484D01*
X125075122Y-122590000D01*
X125387997Y-122590000D01*
X125311793Y-122114459D01*
X125325967Y-122142955D01*
X125341010Y-122170925D01*
X125356924Y-122198368D01*
X125373709Y-122225284D01*
X125391363Y-122251674D01*
X125409887Y-122277537D01*
X125429281Y-122302873D01*
X125449546Y-122327683D01*
X125470463Y-122351725D01*
X125492182Y-122374760D01*
X125514702Y-122396788D01*
X125538023Y-122417808D01*
X125562146Y-122437821D01*
X125587070Y-122456826D01*
X125612796Y-122474824D01*
X125639323Y-122491814D01*
X125666308Y-122507705D01*
X125693773Y-122522405D01*
X125721720Y-122535915D01*
X125750148Y-122548234D01*
X125779056Y-122559362D01*
X125808446Y-122569300D01*
X125838316Y-122578047D01*
X125868667Y-122585603D01*
X125899201Y-122592129D01*
X125929620Y-122597785D01*
X125959926Y-122602570D01*
X125990116Y-122606486D01*
X126020193Y-122609531D01*
X126050154Y-122611707D01*
X126080002Y-122613012D01*
X126109734Y-122613447D01*
G37*
G36*
X123157643Y-120362672D02*
G01*
X123193292Y-120363695D01*
X123229084Y-120365649D01*
X123265019Y-120368533D01*
X123301097Y-120372346D01*
X123337318Y-120377091D01*
X123366399Y-120381556D01*
X123395319Y-120386776D01*
X123424193Y-120392913D01*
X123453021Y-120399965D01*
X123481803Y-120407934D01*
X123510540Y-120416818D01*
X123539231Y-120426618D01*
X123567876Y-120437335D01*
X123596475Y-120448967D01*
X123624651Y-120461343D01*
X123652392Y-120474658D01*
X123679697Y-120488912D01*
X123706568Y-120504105D01*
X123733003Y-120520236D01*
X123759004Y-120537306D01*
X123784569Y-120555315D01*
X123809699Y-120574263D01*
X123834005Y-120594047D01*
X123857464Y-120614563D01*
X123880076Y-120635812D01*
X123901840Y-120657794D01*
X123922757Y-120680509D01*
X123942827Y-120703956D01*
X123962050Y-120728136D01*
X123980425Y-120753049D01*
X123997713Y-120778523D01*
X124014039Y-120804386D01*
X124029404Y-120830638D01*
X124043806Y-120857280D01*
X124057247Y-120884310D01*
X124069726Y-120911731D01*
X124081244Y-120939540D01*
X124091800Y-120967739D01*
X124094300Y-120974792D01*
X124103929Y-121003019D01*
X124112962Y-121031269D01*
X124121400Y-121059542D01*
X124129242Y-121087838D01*
X124138208Y-121123240D01*
X124146244Y-121158678D01*
X124153349Y-121194152D01*
X124220760Y-121614005D01*
X124226576Y-121647470D01*
X124231568Y-121680821D01*
X124235735Y-121714057D01*
X124239078Y-121747178D01*
X124241597Y-121780186D01*
X124243292Y-121813078D01*
X124244162Y-121845856D01*
X124244207Y-121878520D01*
X124243097Y-121910955D01*
X124240864Y-121943046D01*
X124237510Y-121974794D01*
X124233033Y-122006198D01*
X124227435Y-122037259D01*
X124220714Y-122067976D01*
X124212872Y-122098350D01*
X124203907Y-122128381D01*
X124193798Y-122157884D01*
X124182521Y-122186678D01*
X124170076Y-122214762D01*
X124156463Y-122242137D01*
X124141683Y-122268801D01*
X124125734Y-122294756D01*
X124108618Y-122320000D01*
X124090334Y-122344535D01*
X124070791Y-122368189D01*
X124050263Y-122390789D01*
X124028751Y-122412336D01*
X124006254Y-122432829D01*
X123982772Y-122452269D01*
X123958306Y-122470656D01*
X123932855Y-122487990D01*
X123906420Y-122504270D01*
X123879194Y-122519394D01*
X123851373Y-122533259D01*
X123822957Y-122545864D01*
X123793946Y-122557210D01*
X123764339Y-122567296D01*
X123734137Y-122576123D01*
X123703339Y-122583691D01*
X123671946Y-122590000D01*
X123640130Y-122595495D01*
X123608062Y-122600258D01*
X123575741Y-122604288D01*
X123543169Y-122607585D01*
X123510345Y-122610150D01*
X123477270Y-122611981D01*
X123443942Y-122613080D01*
X123410362Y-122613447D01*
X123374552Y-122612982D01*
X123338564Y-122611586D01*
X123302396Y-122609261D01*
X123266049Y-122606005D01*
X123236843Y-122602731D01*
X123207523Y-122598861D01*
X123178087Y-122594396D01*
X123148664Y-122589187D01*
X123119378Y-122583084D01*
X123090229Y-122576089D01*
X123061217Y-122568201D01*
X123032343Y-122559420D01*
X123003606Y-122549745D01*
X122975007Y-122539178D01*
X122946545Y-122527718D01*
X122918209Y-122515170D01*
X122890354Y-122501706D01*
X122862980Y-122487326D01*
X122836086Y-122472030D01*
X122809674Y-122455819D01*
X122783742Y-122438691D01*
X122758291Y-122420648D01*
X122733321Y-122401688D01*
X122708843Y-122381905D01*
X122685236Y-122361388D01*
X122662498Y-122340139D01*
X122640631Y-122318157D01*
X122619634Y-122295443D01*
X122599507Y-122271995D01*
X122580250Y-122247815D01*
X122561863Y-122222903D01*
X122544415Y-122197440D01*
X122527974Y-122171612D01*
X122512541Y-122145416D01*
X122498115Y-122118855D01*
X122484697Y-122091927D01*
X122472287Y-122064633D01*
X122460884Y-122036973D01*
X122450488Y-122008946D01*
X122447992Y-122001847D01*
X122438467Y-121973454D01*
X122429674Y-121945061D01*
X122421614Y-121916668D01*
X122414287Y-121888275D01*
X122406158Y-121852783D01*
X122399174Y-121817291D01*
X122393335Y-121781800D01*
X122321528Y-121361946D01*
X122316582Y-121328481D01*
X122312369Y-121295131D01*
X122308888Y-121261895D01*
X122306140Y-121228773D01*
X122304125Y-121195766D01*
X122302843Y-121162873D01*
X122302294Y-121130095D01*
X122302351Y-121119908D01*
X122652644Y-121119908D01*
X122652721Y-121149455D01*
X122653036Y-121159364D01*
X122654461Y-121189297D01*
X122656608Y-121219540D01*
X122659476Y-121250091D01*
X122663065Y-121280951D01*
X122667376Y-121312121D01*
X122739183Y-121730509D01*
X122744318Y-121758562D01*
X122751481Y-121791355D01*
X122759906Y-121824218D01*
X122768132Y-121852442D01*
X122777285Y-121880718D01*
X122780562Y-121890126D01*
X122791253Y-121918042D01*
X122803231Y-121945493D01*
X122816497Y-121972481D01*
X122831052Y-121999005D01*
X122846894Y-122025066D01*
X122852475Y-122033618D01*
X122870250Y-122058588D01*
X122889570Y-122082528D01*
X122910435Y-122105437D01*
X122932847Y-122127316D01*
X122956803Y-122148164D01*
X122964989Y-122154870D01*
X122989959Y-122174130D01*
X123015548Y-122192102D01*
X123041754Y-122208786D01*
X123068579Y-122224182D01*
X123096022Y-122238290D01*
X123105298Y-122242606D01*
X123133437Y-122254593D01*
X123162039Y-122265137D01*
X123191105Y-122274239D01*
X123220634Y-122281899D01*
X123250628Y-122288115D01*
X123260611Y-122289890D01*
X123290561Y-122294527D01*
X123320512Y-122298133D01*
X123350462Y-122300709D01*
X123380412Y-122302255D01*
X123410362Y-122302770D01*
X123420340Y-122302704D01*
X123450204Y-122301717D01*
X123479966Y-122299544D01*
X123509624Y-122296187D01*
X123539179Y-122291644D01*
X123568632Y-122285917D01*
X123587992Y-122281315D01*
X123620715Y-122271387D01*
X123651965Y-122259075D01*
X123681743Y-122244379D01*
X123710048Y-122227299D01*
X123725481Y-122216503D01*
X123750947Y-122195901D01*
X123774448Y-122173126D01*
X123795987Y-122148176D01*
X123815561Y-122121053D01*
X123825819Y-122104761D01*
X123842008Y-122075424D01*
X123855953Y-122045036D01*
X123867654Y-122013595D01*
X123877110Y-121981102D01*
X123883284Y-121952672D01*
X123888729Y-121919177D01*
X123892280Y-121885332D01*
X123893817Y-121856043D01*
X123893963Y-121826496D01*
X123893631Y-121816587D01*
X123891948Y-121786654D01*
X123889235Y-121756412D01*
X123885491Y-121725861D01*
X123880717Y-121695000D01*
X123874912Y-121663831D01*
X123806769Y-121245443D01*
X123801659Y-121217390D01*
X123794592Y-121184597D01*
X123786332Y-121151734D01*
X123778304Y-121123509D01*
X123769399Y-121095233D01*
X123766114Y-121085825D01*
X123755294Y-121057910D01*
X123743033Y-121030458D01*
X123729328Y-121003470D01*
X123714181Y-120976946D01*
X123697592Y-120950886D01*
X123691667Y-120942333D01*
X123673137Y-120917363D01*
X123653474Y-120893424D01*
X123632677Y-120870515D01*
X123610746Y-120848636D01*
X123587683Y-120827787D01*
X123579668Y-120821084D01*
X123555076Y-120801867D01*
X123529660Y-120783990D01*
X123503419Y-120767452D01*
X123476354Y-120752253D01*
X123448464Y-120738394D01*
X123438933Y-120733990D01*
X123410271Y-120721771D01*
X123381505Y-120711046D01*
X123352637Y-120701815D01*
X123323666Y-120694079D01*
X123294591Y-120687836D01*
X123284785Y-120686062D01*
X123255299Y-120681425D01*
X123225709Y-120677818D01*
X123196016Y-120675242D01*
X123166221Y-120673697D01*
X123136322Y-120673182D01*
X123126250Y-120673247D01*
X123096068Y-120674235D01*
X123065937Y-120676407D01*
X123035858Y-120679765D01*
X123005830Y-120684307D01*
X122975854Y-120690034D01*
X122951150Y-120695909D01*
X122922779Y-120704564D01*
X122891439Y-120716876D01*
X122861992Y-120731572D01*
X122834438Y-120748653D01*
X122819360Y-120759449D01*
X122794460Y-120780051D01*
X122771455Y-120802826D01*
X122750342Y-120827775D01*
X122731123Y-120854898D01*
X122720865Y-120871190D01*
X122704676Y-120900527D01*
X122690731Y-120930916D01*
X122679031Y-120962357D01*
X122669574Y-120994849D01*
X122663177Y-121023280D01*
X122657602Y-121056774D01*
X122654061Y-121090619D01*
X122652644Y-121119908D01*
X122302351Y-121119908D01*
X122302477Y-121097431D01*
X122303553Y-121064997D01*
X122305683Y-121032906D01*
X122308865Y-121001158D01*
X122313101Y-120969754D01*
X122318391Y-120938693D01*
X122324733Y-120907975D01*
X122332129Y-120877601D01*
X122340579Y-120847571D01*
X122350219Y-120818067D01*
X122361187Y-120789273D01*
X122373483Y-120761189D01*
X122387107Y-120733815D01*
X122402059Y-120707150D01*
X122418340Y-120681196D01*
X122435948Y-120655951D01*
X122454884Y-120631416D01*
X122474771Y-120607763D01*
X122495597Y-120585163D01*
X122517361Y-120563616D01*
X122540064Y-120543122D01*
X122563706Y-120523682D01*
X122588287Y-120505295D01*
X122613806Y-120487962D01*
X122640265Y-120471681D01*
X122667490Y-120456557D01*
X122695311Y-120442693D01*
X122723727Y-120430087D01*
X122752739Y-120418742D01*
X122782345Y-120408655D01*
X122812547Y-120399828D01*
X122843345Y-120392260D01*
X122874738Y-120385952D01*
X122906394Y-120380457D01*
X122938348Y-120375694D01*
X122970599Y-120371664D01*
X123003148Y-120368367D01*
X123035995Y-120365802D01*
X123069140Y-120363970D01*
X123102582Y-120362871D01*
X123136322Y-120362505D01*
X123157643Y-120362672D01*
G37*
G36*
X120639987Y-120362672D02*
G01*
X120675636Y-120363695D01*
X120711428Y-120365649D01*
X120747364Y-120368533D01*
X120783442Y-120372346D01*
X120819663Y-120377091D01*
X120848743Y-120381556D01*
X120877663Y-120386776D01*
X120906537Y-120392913D01*
X120935366Y-120399965D01*
X120964148Y-120407934D01*
X120992885Y-120416818D01*
X121021576Y-120426618D01*
X121050221Y-120437335D01*
X121078820Y-120448967D01*
X121106996Y-120461343D01*
X121134737Y-120474658D01*
X121162042Y-120488912D01*
X121188913Y-120504105D01*
X121215348Y-120520236D01*
X121241349Y-120537306D01*
X121266914Y-120555315D01*
X121292044Y-120574263D01*
X121316350Y-120594047D01*
X121339809Y-120614563D01*
X121362420Y-120635812D01*
X121384185Y-120657794D01*
X121405102Y-120680509D01*
X121425172Y-120703956D01*
X121444394Y-120728136D01*
X121462770Y-120753049D01*
X121480058Y-120778523D01*
X121496384Y-120804386D01*
X121511748Y-120830638D01*
X121526151Y-120857280D01*
X121539592Y-120884310D01*
X121552071Y-120911731D01*
X121563589Y-120939540D01*
X121574145Y-120967739D01*
X121576645Y-120974792D01*
X121586273Y-121003019D01*
X121595306Y-121031269D01*
X121603744Y-121059542D01*
X121611587Y-121087838D01*
X121620553Y-121123240D01*
X121628588Y-121158678D01*
X121635694Y-121194152D01*
X121703105Y-121614005D01*
X121708921Y-121647470D01*
X121713913Y-121680821D01*
X121718080Y-121714057D01*
X121721423Y-121747178D01*
X121723942Y-121780186D01*
X121725636Y-121813078D01*
X121726506Y-121845856D01*
X121726552Y-121878520D01*
X121725442Y-121910955D01*
X121723209Y-121943046D01*
X121719855Y-121974794D01*
X121715378Y-122006198D01*
X121709780Y-122037259D01*
X121703059Y-122067976D01*
X121695217Y-122098350D01*
X121686252Y-122128381D01*
X121676143Y-122157884D01*
X121664866Y-122186678D01*
X121652421Y-122214762D01*
X121638808Y-122242137D01*
X121624027Y-122268801D01*
X121608079Y-122294756D01*
X121590963Y-122320000D01*
X121572679Y-122344535D01*
X121553136Y-122368189D01*
X121532608Y-122390789D01*
X121511096Y-122412336D01*
X121488599Y-122432829D01*
X121465117Y-122452269D01*
X121440651Y-122470656D01*
X121415200Y-122487990D01*
X121388764Y-122504270D01*
X121361539Y-122519394D01*
X121333718Y-122533259D01*
X121305302Y-122545864D01*
X121276290Y-122557210D01*
X121246684Y-122567296D01*
X121216482Y-122576123D01*
X121185684Y-122583691D01*
X121154291Y-122590000D01*
X121122475Y-122595495D01*
X121090406Y-122600258D01*
X121058086Y-122604288D01*
X121025514Y-122607585D01*
X120992690Y-122610150D01*
X120959614Y-122611981D01*
X120926287Y-122613080D01*
X120892707Y-122613447D01*
X120856897Y-122612982D01*
X120820908Y-122611586D01*
X120784741Y-122609261D01*
X120748394Y-122606005D01*
X120719188Y-122602731D01*
X120689867Y-122598861D01*
X120660432Y-122594396D01*
X120631009Y-122589187D01*
X120601722Y-122583084D01*
X120572573Y-122576089D01*
X120543562Y-122568201D01*
X120514688Y-122559420D01*
X120485951Y-122549745D01*
X120457352Y-122539178D01*
X120428890Y-122527718D01*
X120400554Y-122515170D01*
X120372699Y-122501706D01*
X120345325Y-122487326D01*
X120318431Y-122472030D01*
X120292019Y-122455819D01*
X120266087Y-122438691D01*
X120240636Y-122420648D01*
X120215666Y-122401688D01*
X120191188Y-122381905D01*
X120167581Y-122361388D01*
X120144843Y-122340139D01*
X120122976Y-122318157D01*
X120101979Y-122295443D01*
X120081851Y-122271995D01*
X120062594Y-122247815D01*
X120044207Y-122222903D01*
X120026759Y-122197440D01*
X120010319Y-122171612D01*
X119994886Y-122145416D01*
X119980460Y-122118855D01*
X119967042Y-122091927D01*
X119954631Y-122064633D01*
X119943228Y-122036973D01*
X119932833Y-122008946D01*
X119930337Y-122001847D01*
X119920811Y-121973454D01*
X119912019Y-121945061D01*
X119903959Y-121916668D01*
X119896631Y-121888275D01*
X119888503Y-121852783D01*
X119881519Y-121817291D01*
X119875680Y-121781800D01*
X119803872Y-121361946D01*
X119798927Y-121328481D01*
X119794713Y-121295131D01*
X119791233Y-121261895D01*
X119788485Y-121228773D01*
X119786470Y-121195766D01*
X119785188Y-121162873D01*
X119784638Y-121130095D01*
X119784695Y-121119908D01*
X120134989Y-121119908D01*
X120135066Y-121149455D01*
X120135381Y-121159364D01*
X120136806Y-121189297D01*
X120138953Y-121219540D01*
X120141821Y-121250091D01*
X120145410Y-121280951D01*
X120149720Y-121312121D01*
X120221528Y-121730509D01*
X120226663Y-121758562D01*
X120233825Y-121791355D01*
X120242250Y-121824218D01*
X120250476Y-121852442D01*
X120259630Y-121880718D01*
X120262907Y-121890126D01*
X120273597Y-121918042D01*
X120285576Y-121945493D01*
X120298842Y-121972481D01*
X120313396Y-121999005D01*
X120329239Y-122025066D01*
X120334820Y-122033618D01*
X120352595Y-122058588D01*
X120371915Y-122082528D01*
X120392780Y-122105437D01*
X120415191Y-122127316D01*
X120439148Y-122148164D01*
X120447334Y-122154870D01*
X120472304Y-122174130D01*
X120497892Y-122192102D01*
X120524099Y-122208786D01*
X120550924Y-122224182D01*
X120578367Y-122238290D01*
X120587643Y-122242606D01*
X120615782Y-122254593D01*
X120644384Y-122265137D01*
X120673450Y-122274239D01*
X120702979Y-122281899D01*
X120732972Y-122288115D01*
X120742956Y-122289890D01*
X120772906Y-122294527D01*
X120802856Y-122298133D01*
X120832807Y-122300709D01*
X120862757Y-122302255D01*
X120892707Y-122302770D01*
X120902685Y-122302704D01*
X120932549Y-122301717D01*
X120962311Y-122299544D01*
X120991969Y-122296187D01*
X121021524Y-122291644D01*
X121050976Y-122285917D01*
X121070337Y-122281315D01*
X121103060Y-122271387D01*
X121134310Y-122259075D01*
X121164088Y-122244379D01*
X121192393Y-122227299D01*
X121207826Y-122216503D01*
X121233291Y-122195901D01*
X121256793Y-122173126D01*
X121278331Y-122148176D01*
X121297906Y-122121053D01*
X121308164Y-122104761D01*
X121324353Y-122075424D01*
X121338298Y-122045036D01*
X121349998Y-122013595D01*
X121359455Y-121981102D01*
X121365629Y-121952672D01*
X121371074Y-121919177D01*
X121374625Y-121885332D01*
X121376162Y-121856043D01*
X121376308Y-121826496D01*
X121375976Y-121816587D01*
X121374293Y-121786654D01*
X121371580Y-121756412D01*
X121367836Y-121725861D01*
X121363062Y-121695000D01*
X121357257Y-121663831D01*
X121289113Y-121245443D01*
X121284004Y-121217390D01*
X121276937Y-121184597D01*
X121268677Y-121151734D01*
X121260648Y-121123509D01*
X121251744Y-121095233D01*
X121248458Y-121085825D01*
X121237639Y-121057910D01*
X121225377Y-121030458D01*
X121211673Y-121003470D01*
X121196526Y-120976946D01*
X121179937Y-120950886D01*
X121174012Y-120942333D01*
X121155482Y-120917363D01*
X121135818Y-120893424D01*
X121115022Y-120870515D01*
X121093091Y-120848636D01*
X121070027Y-120827787D01*
X121062013Y-120821084D01*
X121037421Y-120801867D01*
X121012004Y-120783990D01*
X120985764Y-120767452D01*
X120958698Y-120752253D01*
X120930809Y-120738394D01*
X120921278Y-120733990D01*
X120892616Y-120721771D01*
X120863850Y-120711046D01*
X120834982Y-120701815D01*
X120806010Y-120694079D01*
X120776936Y-120687836D01*
X120767130Y-120686062D01*
X120737643Y-120681425D01*
X120708054Y-120677818D01*
X120678361Y-120675242D01*
X120648565Y-120673697D01*
X120618667Y-120673182D01*
X120608594Y-120673247D01*
X120578412Y-120674235D01*
X120548282Y-120676407D01*
X120518203Y-120679765D01*
X120488175Y-120684307D01*
X120458199Y-120690034D01*
X120433495Y-120695909D01*
X120405124Y-120704564D01*
X120373784Y-120716876D01*
X120344336Y-120731572D01*
X120316782Y-120748653D01*
X120301704Y-120759449D01*
X120276805Y-120780051D01*
X120253799Y-120802826D01*
X120232687Y-120827775D01*
X120213468Y-120854898D01*
X120203210Y-120871190D01*
X120187021Y-120900527D01*
X120173076Y-120930916D01*
X120161375Y-120962357D01*
X120151919Y-120994849D01*
X120145521Y-121023280D01*
X120139947Y-121056774D01*
X120136405Y-121090619D01*
X120134989Y-121119908D01*
X119784695Y-121119908D01*
X119784822Y-121097431D01*
X119785898Y-121064997D01*
X119788027Y-121032906D01*
X119791210Y-121001158D01*
X119795446Y-120969754D01*
X119800735Y-120938693D01*
X119807078Y-120907975D01*
X119814474Y-120877601D01*
X119822923Y-120847571D01*
X119832563Y-120818067D01*
X119843531Y-120789273D01*
X119855828Y-120761189D01*
X119869452Y-120733815D01*
X119884404Y-120707150D01*
X119900684Y-120681196D01*
X119918293Y-120655951D01*
X119937229Y-120631416D01*
X119957116Y-120607763D01*
X119977941Y-120585163D01*
X119999706Y-120563616D01*
X120022409Y-120543122D01*
X120046051Y-120523682D01*
X120070631Y-120505295D01*
X120096151Y-120487962D01*
X120122609Y-120471681D01*
X120149835Y-120456557D01*
X120177656Y-120442693D01*
X120206072Y-120430087D01*
X120235083Y-120418742D01*
X120264690Y-120408655D01*
X120294892Y-120399828D01*
X120325690Y-120392260D01*
X120357083Y-120385952D01*
X120388739Y-120380457D01*
X120420693Y-120375694D01*
X120452944Y-120371664D01*
X120485493Y-120368367D01*
X120518340Y-120365802D01*
X120551485Y-120363970D01*
X120584927Y-120362871D01*
X120618667Y-120362505D01*
X120639987Y-120362672D01*
G37*
G36*
X117590300Y-120864424D02*
G01*
X117592990Y-120850728D01*
X117600818Y-120816864D01*
X117610221Y-120783537D01*
X117621197Y-120750747D01*
X117633748Y-120718493D01*
X117647873Y-120686776D01*
X117663572Y-120655596D01*
X117670293Y-120643263D01*
X117688196Y-120613506D01*
X117707674Y-120585289D01*
X117728725Y-120558609D01*
X117751351Y-120533468D01*
X117775551Y-120509865D01*
X117801325Y-120487801D01*
X117811950Y-120479438D01*
X117839313Y-120459882D01*
X117867821Y-120442258D01*
X117897473Y-120426566D01*
X117928271Y-120412805D01*
X117960213Y-120400977D01*
X117993300Y-120391081D01*
X118013586Y-120385974D01*
X118047797Y-120378579D01*
X118082509Y-120372579D01*
X118117721Y-120367974D01*
X118153434Y-120364765D01*
X118189649Y-120362951D01*
X118218981Y-120362505D01*
X118232187Y-120362596D01*
X118265353Y-120363627D01*
X118298734Y-120365802D01*
X118332329Y-120369122D01*
X118366139Y-120373587D01*
X118400164Y-120379197D01*
X118434403Y-120385952D01*
X118448021Y-120388917D01*
X118481817Y-120397432D01*
X118515255Y-120407522D01*
X118548335Y-120419185D01*
X118581057Y-120432423D01*
X118613422Y-120447235D01*
X118645429Y-120463621D01*
X118657994Y-120470508D01*
X118688756Y-120488676D01*
X118718587Y-120508203D01*
X118747488Y-120529090D01*
X118775459Y-120551337D01*
X118802500Y-120574943D01*
X118828611Y-120599909D01*
X118838780Y-120610224D01*
X118863428Y-120636514D01*
X118886966Y-120663519D01*
X118909395Y-120691239D01*
X118930715Y-120719676D01*
X118950926Y-120748827D01*
X118970027Y-120778695D01*
X118977355Y-120790739D01*
X118994871Y-120821250D01*
X119011243Y-120852334D01*
X119026470Y-120883990D01*
X119040553Y-120916219D01*
X119053490Y-120949020D01*
X119065282Y-120982393D01*
X119069696Y-120995757D01*
X119080078Y-121029091D01*
X119089531Y-121062318D01*
X119098053Y-121095437D01*
X119105645Y-121128449D01*
X119112307Y-121161354D01*
X119118039Y-121194152D01*
X119185450Y-121614005D01*
X119190533Y-121644390D01*
X119195158Y-121674730D01*
X119199326Y-121705024D01*
X119203035Y-121735272D01*
X119206287Y-121765474D01*
X119209080Y-121795630D01*
X119211416Y-121825741D01*
X119213293Y-121855806D01*
X119214369Y-121885573D01*
X119214667Y-121915157D01*
X119214186Y-121944557D01*
X119212490Y-121981051D01*
X119209578Y-122017258D01*
X119205449Y-122053179D01*
X119200104Y-122088813D01*
X119197608Y-122102872D01*
X119190367Y-122137620D01*
X119181694Y-122171795D01*
X119171591Y-122205397D01*
X119160056Y-122238427D01*
X119147090Y-122270885D01*
X119132693Y-122302770D01*
X119126516Y-122315215D01*
X119109923Y-122345426D01*
X119091683Y-122374348D01*
X119071798Y-122401983D01*
X119050267Y-122428330D01*
X119027090Y-122453389D01*
X119002267Y-122477159D01*
X118991806Y-122486155D01*
X118964676Y-122507218D01*
X118936150Y-122526241D01*
X118906229Y-122543224D01*
X118874913Y-122558169D01*
X118842201Y-122571074D01*
X118808094Y-122581939D01*
X118786984Y-122587570D01*
X118751400Y-122595724D01*
X118722571Y-122601139D01*
X118693422Y-122605570D01*
X118663953Y-122609016D01*
X118634163Y-122611478D01*
X118604052Y-122612955D01*
X118573621Y-122613447D01*
X118560415Y-122613364D01*
X118527249Y-122612430D01*
X118493868Y-122610459D01*
X118460273Y-122607450D01*
X118426463Y-122603403D01*
X118392438Y-122598319D01*
X118358199Y-122592198D01*
X118344495Y-122589510D01*
X118310535Y-122581714D01*
X118277004Y-122572380D01*
X118243902Y-122561507D01*
X118211230Y-122549096D01*
X118178987Y-122535146D01*
X118147173Y-122519658D01*
X118134600Y-122512960D01*
X118103741Y-122495314D01*
X118073706Y-122476381D01*
X118044493Y-122456159D01*
X118016104Y-122434650D01*
X117988537Y-122411852D01*
X117961793Y-122387766D01*
X117951254Y-122377717D01*
X117925659Y-122352018D01*
X117901137Y-122325496D01*
X117877688Y-122298151D01*
X117855313Y-122269983D01*
X117834011Y-122240992D01*
X117813782Y-122211179D01*
X117814643Y-122222155D01*
X117815476Y-122254914D01*
X117813682Y-122287414D01*
X117809259Y-122319657D01*
X117802210Y-122351642D01*
X117792533Y-122383370D01*
X117788729Y-122393691D01*
X117775634Y-122423212D01*
X117760015Y-122450569D01*
X117741871Y-122475763D01*
X117721203Y-122498792D01*
X117698011Y-122519658D01*
X117689687Y-122526037D01*
X117663756Y-122543700D01*
X117636381Y-122559148D01*
X117607564Y-122572380D01*
X117577305Y-122583396D01*
X117545603Y-122592198D01*
X117534770Y-122594771D01*
X117501960Y-122601494D01*
X117468687Y-122606723D01*
X117434950Y-122610459D01*
X117400749Y-122612700D01*
X117366085Y-122613447D01*
X117243719Y-122613447D01*
X117240055Y-122302770D01*
X117311130Y-122302770D01*
X117317561Y-122302699D01*
X117346893Y-122300495D01*
X117377076Y-122294710D01*
X117405469Y-122282254D01*
X117427634Y-122262470D01*
X117443021Y-122236824D01*
X117451081Y-122206782D01*
X117451510Y-122202747D01*
X117452906Y-122172114D01*
X117451081Y-122140837D01*
X117289649Y-121152068D01*
X117655358Y-121152068D01*
X117655512Y-121183161D01*
X117655844Y-121193602D01*
X117657527Y-121224926D01*
X117660241Y-121256250D01*
X117663985Y-121287575D01*
X117668759Y-121318899D01*
X117674563Y-121350223D01*
X117741974Y-121767878D01*
X117745295Y-121785681D01*
X117752097Y-121817002D01*
X117760161Y-121848533D01*
X117769487Y-121880274D01*
X117780076Y-121912226D01*
X117790191Y-121939394D01*
X117803946Y-121970309D01*
X117819804Y-122000382D01*
X117835071Y-122025489D01*
X117851884Y-122049979D01*
X117857723Y-122057984D01*
X117876064Y-122081349D01*
X117895641Y-122103734D01*
X117916455Y-122125140D01*
X117938506Y-122145568D01*
X117961793Y-122165017D01*
X117981646Y-122180087D01*
X118005895Y-122196848D01*
X118034771Y-122214579D01*
X118064278Y-122230347D01*
X118094417Y-122244152D01*
X118120829Y-122254627D01*
X118152425Y-122265547D01*
X118184863Y-122275064D01*
X118213336Y-122282105D01*
X118242428Y-122288115D01*
X118261754Y-122291550D01*
X118295133Y-122296459D01*
X118327951Y-122299965D01*
X118360208Y-122302069D01*
X118391905Y-122302770D01*
X118401874Y-122302698D01*
X118431609Y-122301625D01*
X118461087Y-122299264D01*
X118490308Y-122295614D01*
X118519271Y-122290677D01*
X118547976Y-122284452D01*
X118566798Y-122279334D01*
X118598634Y-122268670D01*
X118629068Y-122255832D01*
X118658100Y-122240821D01*
X118685729Y-122223635D01*
X118700612Y-122212839D01*
X118725116Y-122192237D01*
X118747656Y-122169462D01*
X118768232Y-122144513D01*
X118786845Y-122117390D01*
X118796382Y-122100938D01*
X118811364Y-122071430D01*
X118824172Y-122041011D01*
X118834805Y-122009681D01*
X118843265Y-121977438D01*
X118848031Y-121953764D01*
X118853020Y-121920320D01*
X118856045Y-121886525D01*
X118857107Y-121852379D01*
X118856454Y-121822833D01*
X118855873Y-121812852D01*
X118853753Y-121782945D01*
X118851065Y-121753089D01*
X118847811Y-121723285D01*
X118843990Y-121693532D01*
X118839602Y-121663831D01*
X118771458Y-121245443D01*
X118768184Y-121226781D01*
X118761682Y-121194233D01*
X118754199Y-121161826D01*
X118745734Y-121129558D01*
X118736287Y-121097431D01*
X118728513Y-121074695D01*
X118716126Y-121043404D01*
X118701985Y-121012745D01*
X118686092Y-120982717D01*
X118671074Y-120957480D01*
X118665682Y-120949186D01*
X118648543Y-120924782D01*
X118629961Y-120901100D01*
X118609937Y-120878140D01*
X118588470Y-120855900D01*
X118565561Y-120834382D01*
X118557561Y-120827412D01*
X118533184Y-120807500D01*
X118508240Y-120789082D01*
X118482729Y-120772157D01*
X118456651Y-120756727D01*
X118430006Y-120742791D01*
X118402950Y-120729997D01*
X118375636Y-120718542D01*
X118348064Y-120708427D01*
X118315571Y-120698319D01*
X118282728Y-120690034D01*
X118263677Y-120686085D01*
X118230338Y-120680440D01*
X118196999Y-120676407D01*
X118163660Y-120673988D01*
X118130321Y-120673182D01*
X118119813Y-120673265D01*
X118088601Y-120674510D01*
X118057852Y-120677249D01*
X118027567Y-120681482D01*
X117997745Y-120687209D01*
X117968387Y-120694431D01*
X117939528Y-120703026D01*
X117911750Y-120713424D01*
X117885054Y-120725626D01*
X117855276Y-120742140D01*
X117826971Y-120761109D01*
X117807676Y-120775896D01*
X117782767Y-120798581D01*
X117760312Y-120823581D01*
X117740311Y-120850894D01*
X117725122Y-120876147D01*
X117720442Y-120884791D01*
X117707399Y-120911135D01*
X117695850Y-120938097D01*
X117685795Y-120965678D01*
X117677234Y-120993876D01*
X117670167Y-121022693D01*
X117668135Y-121032336D01*
X117662931Y-121061574D01*
X117659067Y-121091275D01*
X117656543Y-121121440D01*
X117655358Y-121152068D01*
X117289649Y-121152068D01*
X117011444Y-119448060D01*
X117366085Y-119448060D01*
X117590300Y-120864424D01*
G37*
G36*
X114382414Y-122590000D02*
G01*
X113871702Y-119448060D01*
X113407152Y-119448060D01*
X113149965Y-121172903D01*
X112335170Y-119448060D01*
X111870621Y-119448060D01*
X112381332Y-122590000D01*
X112735973Y-122590000D01*
X112634856Y-121962784D01*
X112629858Y-121932145D01*
X112624847Y-121901501D01*
X112619823Y-121870853D01*
X112614787Y-121840201D01*
X112609737Y-121809544D01*
X112604674Y-121778883D01*
X112599599Y-121748218D01*
X112594511Y-121717549D01*
X112589409Y-121686875D01*
X112584295Y-121656197D01*
X112579168Y-121625515D01*
X112574029Y-121594828D01*
X112568876Y-121564137D01*
X112563710Y-121533442D01*
X112558532Y-121502743D01*
X112553340Y-121472039D01*
X112548136Y-121441331D01*
X112542919Y-121410619D01*
X112537689Y-121379902D01*
X112532446Y-121349181D01*
X112527190Y-121318456D01*
X112521922Y-121287726D01*
X112516640Y-121256992D01*
X112511346Y-121226254D01*
X112506039Y-121195512D01*
X112500718Y-121164765D01*
X112495385Y-121134014D01*
X112490040Y-121103259D01*
X112484681Y-121072499D01*
X112479309Y-121041736D01*
X112473924Y-121010967D01*
X112468527Y-120980195D01*
X112463080Y-120949377D01*
X112457639Y-120918563D01*
X112452204Y-120887753D01*
X112446774Y-120856948D01*
X112441350Y-120826147D01*
X112435932Y-120795350D01*
X112430520Y-120764557D01*
X112425113Y-120733769D01*
X112419712Y-120702985D01*
X112414317Y-120672206D01*
X112408927Y-120641430D01*
X112403543Y-120610659D01*
X112398165Y-120579893D01*
X112392793Y-120549130D01*
X112387426Y-120518372D01*
X112382065Y-120487618D01*
X112376710Y-120456869D01*
X112371360Y-120426123D01*
X112366017Y-120395382D01*
X112360679Y-120364646D01*
X112355346Y-120333913D01*
X112350020Y-120303185D01*
X112344699Y-120272461D01*
X112339384Y-120241742D01*
X112334074Y-120211027D01*
X112328771Y-120180316D01*
X112323473Y-120149609D01*
X112318180Y-120118907D01*
X112312894Y-120088209D01*
X112307613Y-120057515D01*
X112302338Y-120026826D01*
X112297069Y-119996140D01*
X113082554Y-121646245D01*
X113377843Y-121646245D01*
X113622575Y-119996140D01*
X113627335Y-120026826D01*
X113632091Y-120057515D01*
X113636843Y-120088209D01*
X113641591Y-120118907D01*
X113646335Y-120149609D01*
X113651074Y-120180316D01*
X113655808Y-120211027D01*
X113660539Y-120241742D01*
X113665265Y-120272461D01*
X113669987Y-120303185D01*
X113674705Y-120333913D01*
X113679418Y-120364646D01*
X113684127Y-120395382D01*
X113688832Y-120426123D01*
X113693533Y-120456869D01*
X113698229Y-120487618D01*
X113702921Y-120518372D01*
X113707608Y-120549130D01*
X113712292Y-120579893D01*
X113716971Y-120610659D01*
X113721645Y-120641430D01*
X113726316Y-120672206D01*
X113730982Y-120702985D01*
X113735644Y-120733769D01*
X113740301Y-120764557D01*
X113744954Y-120795350D01*
X113749603Y-120826147D01*
X113754248Y-120856948D01*
X113758889Y-120887753D01*
X113763525Y-120918563D01*
X113768156Y-120949377D01*
X113772784Y-120980195D01*
X113777371Y-121010967D01*
X113781972Y-121041736D01*
X113786587Y-121072499D01*
X113791217Y-121103259D01*
X113795861Y-121134014D01*
X113800519Y-121164765D01*
X113805191Y-121195512D01*
X113809878Y-121226254D01*
X113814579Y-121256992D01*
X113819295Y-121287726D01*
X113824025Y-121318456D01*
X113828769Y-121349181D01*
X113833527Y-121379902D01*
X113838300Y-121410619D01*
X113843087Y-121441331D01*
X113847889Y-121472039D01*
X113852704Y-121502743D01*
X113857534Y-121533442D01*
X113862379Y-121564137D01*
X113867237Y-121594828D01*
X113872110Y-121625515D01*
X113876997Y-121656197D01*
X113881899Y-121686875D01*
X113886815Y-121717549D01*
X113891745Y-121748218D01*
X113896689Y-121778883D01*
X113901648Y-121809544D01*
X113906621Y-121840201D01*
X113911609Y-121870853D01*
X113916610Y-121901501D01*
X113921627Y-121932145D01*
X113926657Y-121962784D01*
X114027773Y-122590000D01*
X114382414Y-122590000D01*
G37*
G36*
X110569366Y-120362672D02*
G01*
X110605015Y-120363695D01*
X110640807Y-120365649D01*
X110676742Y-120368533D01*
X110712821Y-120372346D01*
X110749042Y-120377091D01*
X110778122Y-120381556D01*
X110807042Y-120386776D01*
X110835916Y-120392913D01*
X110864745Y-120399965D01*
X110893527Y-120407934D01*
X110922264Y-120416818D01*
X110950955Y-120426618D01*
X110979600Y-120437335D01*
X111008199Y-120448967D01*
X111036375Y-120461343D01*
X111064115Y-120474658D01*
X111091421Y-120488912D01*
X111118292Y-120504105D01*
X111144727Y-120520236D01*
X111170727Y-120537306D01*
X111196293Y-120555315D01*
X111221423Y-120574263D01*
X111245729Y-120594047D01*
X111269188Y-120614563D01*
X111291799Y-120635812D01*
X111313564Y-120657794D01*
X111334481Y-120680509D01*
X111354551Y-120703956D01*
X111373773Y-120728136D01*
X111392149Y-120753049D01*
X111409437Y-120778523D01*
X111425763Y-120804386D01*
X111441127Y-120830638D01*
X111455530Y-120857280D01*
X111468971Y-120884310D01*
X111481450Y-120911731D01*
X111492968Y-120939540D01*
X111503524Y-120967739D01*
X111506024Y-120974792D01*
X111515652Y-121003019D01*
X111524685Y-121031269D01*
X111533123Y-121059542D01*
X111540966Y-121087838D01*
X111549932Y-121123240D01*
X111557967Y-121158678D01*
X111565073Y-121194152D01*
X111632484Y-121614005D01*
X111638300Y-121647470D01*
X111643292Y-121680821D01*
X111647459Y-121714057D01*
X111650802Y-121747178D01*
X111653321Y-121780186D01*
X111655015Y-121813078D01*
X111655885Y-121845856D01*
X111655931Y-121878520D01*
X111654821Y-121910955D01*
X111652588Y-121943046D01*
X111649234Y-121974794D01*
X111644757Y-122006198D01*
X111639158Y-122037259D01*
X111632438Y-122067976D01*
X111624596Y-122098350D01*
X111615631Y-122128381D01*
X111605522Y-122157884D01*
X111594245Y-122186678D01*
X111581800Y-122214762D01*
X111568187Y-122242137D01*
X111553406Y-122268801D01*
X111537458Y-122294756D01*
X111520342Y-122320000D01*
X111502058Y-122344535D01*
X111482515Y-122368189D01*
X111461987Y-122390789D01*
X111440475Y-122412336D01*
X111417978Y-122432829D01*
X111394496Y-122452269D01*
X111370030Y-122470656D01*
X111344579Y-122487990D01*
X111318143Y-122504270D01*
X111290918Y-122519394D01*
X111263097Y-122533259D01*
X111234681Y-122545864D01*
X111205669Y-122557210D01*
X111176063Y-122567296D01*
X111145860Y-122576123D01*
X111115063Y-122583691D01*
X111083670Y-122590000D01*
X111051854Y-122595495D01*
X111019785Y-122600258D01*
X110987465Y-122604288D01*
X110954893Y-122607585D01*
X110922069Y-122610150D01*
X110888993Y-122611981D01*
X110855666Y-122613080D01*
X110822086Y-122613447D01*
X110786276Y-122612982D01*
X110750287Y-122611586D01*
X110714119Y-122609261D01*
X110677773Y-122606005D01*
X110648567Y-122602731D01*
X110619246Y-122598861D01*
X110589811Y-122594396D01*
X110560387Y-122589187D01*
X110531101Y-122583084D01*
X110501952Y-122576089D01*
X110472941Y-122568201D01*
X110444067Y-122559420D01*
X110415330Y-122549745D01*
X110386731Y-122539178D01*
X110358269Y-122527718D01*
X110329933Y-122515170D01*
X110302078Y-122501706D01*
X110274703Y-122487326D01*
X110247810Y-122472030D01*
X110221397Y-122455819D01*
X110195466Y-122438691D01*
X110170015Y-122420648D01*
X110145045Y-122401688D01*
X110120567Y-122381905D01*
X110096960Y-122361388D01*
X110074222Y-122340139D01*
X110052355Y-122318157D01*
X110031357Y-122295443D01*
X110011230Y-122271995D01*
X109991973Y-122247815D01*
X109973586Y-122222903D01*
X109956138Y-122197440D01*
X109939698Y-122171612D01*
X109924265Y-122145416D01*
X109909839Y-122118855D01*
X109896421Y-122091927D01*
X109884010Y-122064633D01*
X109872607Y-122036973D01*
X109862212Y-122008946D01*
X109859716Y-122001847D01*
X109850190Y-121973454D01*
X109841398Y-121945061D01*
X109833338Y-121916668D01*
X109826010Y-121888275D01*
X109817882Y-121852783D01*
X109810898Y-121817291D01*
X109805059Y-121781800D01*
X109733251Y-121361946D01*
X109728306Y-121328481D01*
X109724092Y-121295131D01*
X109720612Y-121261895D01*
X109717864Y-121228773D01*
X109715849Y-121195766D01*
X109714567Y-121162873D01*
X109714017Y-121130095D01*
X109714074Y-121119908D01*
X110064367Y-121119908D01*
X110064445Y-121149455D01*
X110064760Y-121159364D01*
X110066185Y-121189297D01*
X110068332Y-121219540D01*
X110071200Y-121250091D01*
X110074789Y-121280951D01*
X110079099Y-121312121D01*
X110150907Y-121730509D01*
X110156042Y-121758562D01*
X110163204Y-121791355D01*
X110171629Y-121824218D01*
X110179855Y-121852442D01*
X110189009Y-121880718D01*
X110192286Y-121890126D01*
X110202976Y-121918042D01*
X110214955Y-121945493D01*
X110228221Y-121972481D01*
X110242775Y-121999005D01*
X110258618Y-122025066D01*
X110264199Y-122033618D01*
X110281974Y-122058588D01*
X110301293Y-122082528D01*
X110322159Y-122105437D01*
X110344570Y-122127316D01*
X110368527Y-122148164D01*
X110376713Y-122154870D01*
X110401683Y-122174130D01*
X110427271Y-122192102D01*
X110453478Y-122208786D01*
X110480303Y-122224182D01*
X110507745Y-122238290D01*
X110517022Y-122242606D01*
X110545160Y-122254593D01*
X110573763Y-122265137D01*
X110602828Y-122274239D01*
X110632358Y-122281899D01*
X110662351Y-122288115D01*
X110672335Y-122289890D01*
X110702285Y-122294527D01*
X110732235Y-122298133D01*
X110762185Y-122300709D01*
X110792136Y-122302255D01*
X110822086Y-122302770D01*
X110832064Y-122302704D01*
X110861928Y-122301717D01*
X110891690Y-122299544D01*
X110921348Y-122296187D01*
X110950903Y-122291644D01*
X110980355Y-122285917D01*
X110999715Y-122281315D01*
X111032439Y-122271387D01*
X111063689Y-122259075D01*
X111093467Y-122244379D01*
X111121772Y-122227299D01*
X111137205Y-122216503D01*
X111162670Y-122195901D01*
X111186172Y-122173126D01*
X111207710Y-122148176D01*
X111227285Y-122121053D01*
X111237543Y-122104761D01*
X111253732Y-122075424D01*
X111267677Y-122045036D01*
X111279377Y-122013595D01*
X111288834Y-121981102D01*
X111295008Y-121952672D01*
X111300453Y-121919177D01*
X111304004Y-121885332D01*
X111305541Y-121856043D01*
X111305687Y-121826496D01*
X111305355Y-121816587D01*
X111303672Y-121786654D01*
X111300958Y-121756412D01*
X111297215Y-121725861D01*
X111292441Y-121695000D01*
X111286636Y-121663831D01*
X111218492Y-121245443D01*
X111213383Y-121217390D01*
X111206316Y-121184597D01*
X111198056Y-121151734D01*
X111190027Y-121123509D01*
X111181123Y-121095233D01*
X111177837Y-121085825D01*
X111167018Y-121057910D01*
X111154756Y-121030458D01*
X111141052Y-121003470D01*
X111125905Y-120976946D01*
X111109316Y-120950886D01*
X111103391Y-120942333D01*
X111084861Y-120917363D01*
X111065197Y-120893424D01*
X111044400Y-120870515D01*
X111022470Y-120848636D01*
X110999406Y-120827787D01*
X110991392Y-120821084D01*
X110966800Y-120801867D01*
X110941383Y-120783990D01*
X110915143Y-120767452D01*
X110888077Y-120752253D01*
X110860188Y-120738394D01*
X110850657Y-120733990D01*
X110821994Y-120721771D01*
X110793229Y-120711046D01*
X110764361Y-120701815D01*
X110735389Y-120694079D01*
X110706315Y-120687836D01*
X110696509Y-120686062D01*
X110667022Y-120681425D01*
X110637433Y-120677818D01*
X110607740Y-120675242D01*
X110577944Y-120673697D01*
X110548046Y-120673182D01*
X110537973Y-120673247D01*
X110507791Y-120674235D01*
X110477661Y-120676407D01*
X110447582Y-120679765D01*
X110417554Y-120684307D01*
X110387578Y-120690034D01*
X110362873Y-120695909D01*
X110334503Y-120704564D01*
X110303163Y-120716876D01*
X110273715Y-120731572D01*
X110246161Y-120748653D01*
X110231083Y-120759449D01*
X110206184Y-120780051D01*
X110183178Y-120802826D01*
X110162066Y-120827775D01*
X110142847Y-120854898D01*
X110132588Y-120871190D01*
X110116400Y-120900527D01*
X110102455Y-120930916D01*
X110090754Y-120962357D01*
X110081297Y-120994849D01*
X110074900Y-121023280D01*
X110069326Y-121056774D01*
X110065784Y-121090619D01*
X110064367Y-121119908D01*
X109714074Y-121119908D01*
X109714200Y-121097431D01*
X109715277Y-121064997D01*
X109717406Y-121032906D01*
X109720589Y-121001158D01*
X109724825Y-120969754D01*
X109730114Y-120938693D01*
X109736457Y-120907975D01*
X109743853Y-120877601D01*
X109752302Y-120847571D01*
X109761942Y-120818067D01*
X109772910Y-120789273D01*
X109785206Y-120761189D01*
X109798831Y-120733815D01*
X109813783Y-120707150D01*
X109830063Y-120681196D01*
X109847672Y-120655951D01*
X109866608Y-120631416D01*
X109886495Y-120607763D01*
X109907320Y-120585163D01*
X109929085Y-120563616D01*
X109951788Y-120543122D01*
X109975430Y-120523682D01*
X110000010Y-120505295D01*
X110025530Y-120487962D01*
X110051988Y-120471681D01*
X110079214Y-120456557D01*
X110107035Y-120442693D01*
X110135451Y-120430087D01*
X110164462Y-120418742D01*
X110194069Y-120408655D01*
X110224271Y-120399828D01*
X110255069Y-120392260D01*
X110286461Y-120385952D01*
X110318118Y-120380457D01*
X110350071Y-120375694D01*
X110382323Y-120371664D01*
X110414872Y-120368367D01*
X110447719Y-120365802D01*
X110480864Y-120363970D01*
X110514306Y-120362871D01*
X110548046Y-120362505D01*
X110569366Y-120362672D01*
G37*
G36*
X108949965Y-122590000D02*
G01*
X108587264Y-120385952D01*
X108232623Y-120385952D01*
X108304431Y-120813866D01*
X108286792Y-120783891D01*
X108268224Y-120754417D01*
X108248725Y-120725444D01*
X108228296Y-120696972D01*
X108206936Y-120669001D01*
X108184647Y-120641531D01*
X108175471Y-120630683D01*
X108151843Y-120604236D01*
X108127213Y-120578934D01*
X108101582Y-120554777D01*
X108074949Y-120531765D01*
X108047315Y-120509898D01*
X108018678Y-120489175D01*
X108006943Y-120481207D01*
X107976925Y-120462180D01*
X107946407Y-120444942D01*
X107915388Y-120429494D01*
X107883867Y-120415834D01*
X107851846Y-120403963D01*
X107819324Y-120393880D01*
X107806175Y-120390348D01*
X107773203Y-120382327D01*
X107740230Y-120375665D01*
X107707257Y-120370363D01*
X107674284Y-120366420D01*
X107641311Y-120363837D01*
X107608339Y-120362613D01*
X107595150Y-120362505D01*
X107562134Y-120363252D01*
X107529582Y-120365493D01*
X107497493Y-120369228D01*
X107465869Y-120374457D01*
X107434708Y-120381181D01*
X107424424Y-120383754D01*
X107394396Y-120392504D01*
X107365863Y-120403366D01*
X107338823Y-120416340D01*
X107313278Y-120431427D01*
X107289227Y-120448626D01*
X107281542Y-120454829D01*
X107259208Y-120474612D01*
X107238368Y-120496045D01*
X107219022Y-120519125D01*
X107201171Y-120543855D01*
X107184813Y-120570233D01*
X107179692Y-120579392D01*
X107165559Y-120607505D01*
X107153383Y-120636339D01*
X107143165Y-120665894D01*
X107134904Y-120696171D01*
X107128602Y-120727169D01*
X107126936Y-120737662D01*
X107122935Y-120769338D01*
X107120273Y-120801169D01*
X107118950Y-120833154D01*
X107118968Y-120865294D01*
X107120324Y-120897588D01*
X107121074Y-120908387D01*
X107123504Y-120940639D01*
X107126398Y-120973097D01*
X107129755Y-121005760D01*
X107133576Y-121038630D01*
X107137861Y-121071706D01*
X107139392Y-121082777D01*
X107494033Y-121082777D01*
X107488925Y-121051041D01*
X107484682Y-121019304D01*
X107481577Y-120990453D01*
X107479593Y-120958300D01*
X107479688Y-120926319D01*
X107481577Y-120897397D01*
X107485811Y-120865763D01*
X107492470Y-120835341D01*
X107500628Y-120808736D01*
X107512261Y-120780818D01*
X107528507Y-120753323D01*
X107543126Y-120734731D01*
X107565623Y-120713024D01*
X107592448Y-120696263D01*
X107612735Y-120687836D01*
X107641968Y-120679493D01*
X107672241Y-120674613D01*
X107700662Y-120673182D01*
X107732287Y-120673774D01*
X107763963Y-120675552D01*
X107795691Y-120678514D01*
X107827470Y-120682661D01*
X107859301Y-120687994D01*
X107869923Y-120690034D01*
X107901393Y-120697410D01*
X107932605Y-120706899D01*
X107963560Y-120718499D01*
X107994258Y-120732212D01*
X108024697Y-120748037D01*
X108034787Y-120753782D01*
X108064093Y-120771840D01*
X108092111Y-120791391D01*
X108118841Y-120812437D01*
X108144284Y-120834977D01*
X108168438Y-120859011D01*
X108176203Y-120867355D01*
X108198520Y-120893020D01*
X108219858Y-120919459D01*
X108240217Y-120946670D01*
X108259597Y-120974654D01*
X108277998Y-121003410D01*
X108283914Y-121013168D01*
X108300427Y-121042551D01*
X108315342Y-121072450D01*
X108328659Y-121102864D01*
X108340380Y-121133793D01*
X108350504Y-121165237D01*
X108353524Y-121175833D01*
X108361681Y-121207432D01*
X108369117Y-121239031D01*
X108375832Y-121270630D01*
X108381825Y-121302229D01*
X108387097Y-121333828D01*
X108388695Y-121344361D01*
X108595324Y-122590000D01*
X108949965Y-122590000D01*
G37*
G36*
X106723935Y-122590000D02*
G01*
X106360502Y-120385952D01*
X106005861Y-120385952D01*
X106065212Y-120768436D01*
X106047377Y-120739045D01*
X106028218Y-120710405D01*
X106007735Y-120682516D01*
X105985929Y-120655379D01*
X105962798Y-120628993D01*
X105938344Y-120603358D01*
X105928192Y-120593314D01*
X105902189Y-120569000D01*
X105875470Y-120545973D01*
X105848036Y-120524235D01*
X105819886Y-120503784D01*
X105791020Y-120484621D01*
X105761439Y-120466747D01*
X105749406Y-120459958D01*
X105718756Y-120443818D01*
X105687711Y-120429289D01*
X105656273Y-120416370D01*
X105624442Y-120405060D01*
X105592217Y-120395361D01*
X105559598Y-120387272D01*
X105546441Y-120384487D01*
X105513468Y-120378154D01*
X105480495Y-120372895D01*
X105447522Y-120368709D01*
X105414549Y-120365596D01*
X105381577Y-120363557D01*
X105348604Y-120362591D01*
X105335415Y-120362505D01*
X105305819Y-120362997D01*
X105276384Y-120364474D01*
X105247109Y-120366935D01*
X105217995Y-120370382D01*
X105181827Y-120376074D01*
X105145910Y-120383304D01*
X105117356Y-120390197D01*
X105103140Y-120394012D01*
X105075101Y-120402553D01*
X105041567Y-120415097D01*
X105009714Y-120429715D01*
X104979543Y-120446409D01*
X104951053Y-120465178D01*
X104924245Y-120486022D01*
X104908967Y-120499525D01*
X104884620Y-120523367D01*
X104861955Y-120548641D01*
X104840971Y-120575345D01*
X104821669Y-120603481D01*
X104804048Y-120633048D01*
X104788109Y-120664045D01*
X104782205Y-120676845D01*
X104768441Y-120709399D01*
X104756001Y-120742490D01*
X104744885Y-120776118D01*
X104735093Y-120810282D01*
X104726624Y-120844983D01*
X104719479Y-120880220D01*
X104716992Y-120894466D01*
X104711665Y-120930065D01*
X104707589Y-120965878D01*
X104704767Y-121001906D01*
X104703196Y-121038149D01*
X104702877Y-121074607D01*
X104703524Y-121103927D01*
X104704535Y-121126008D01*
X104706241Y-121155569D01*
X104708428Y-121185267D01*
X104711096Y-121215103D01*
X104714244Y-121245076D01*
X104717873Y-121275187D01*
X104721984Y-121305435D01*
X104726575Y-121335820D01*
X104731646Y-121366343D01*
X104933879Y-122590000D01*
X105288520Y-122590000D01*
X105077494Y-121309190D01*
X105073184Y-121278991D01*
X105069595Y-121248843D01*
X105066727Y-121218747D01*
X105064580Y-121188702D01*
X105063155Y-121158709D01*
X105062840Y-121148722D01*
X105062634Y-121118729D01*
X105063664Y-121089200D01*
X105066429Y-121055335D01*
X105070877Y-121022101D01*
X105076029Y-120994117D01*
X105083562Y-120961875D01*
X105093340Y-120930544D01*
X105105361Y-120900125D01*
X105119626Y-120870618D01*
X105128785Y-120854166D01*
X105146186Y-120826331D01*
X105165691Y-120800530D01*
X105187299Y-120776763D01*
X105211011Y-120755030D01*
X105225505Y-120743524D01*
X105252278Y-120725196D01*
X105280663Y-120709323D01*
X105310662Y-120695904D01*
X105342273Y-120684940D01*
X105361060Y-120679776D01*
X105394289Y-120672353D01*
X105427939Y-120666753D01*
X105457116Y-120663404D01*
X105486603Y-120661395D01*
X105516399Y-120660725D01*
X105547920Y-120661462D01*
X105579651Y-120663670D01*
X105611593Y-120667352D01*
X105643745Y-120672506D01*
X105662212Y-120676113D01*
X105694379Y-120683330D01*
X105726125Y-120692161D01*
X105757451Y-120702605D01*
X105788355Y-120714661D01*
X105805826Y-120722274D01*
X105835895Y-120737111D01*
X105865192Y-120754051D01*
X105889690Y-120770245D01*
X105913621Y-120787985D01*
X105936985Y-120807271D01*
X105959147Y-120827441D01*
X105980021Y-120848384D01*
X106002747Y-120873794D01*
X106023719Y-120900256D01*
X106040300Y-120923775D01*
X106057695Y-120952050D01*
X106073338Y-120981096D01*
X106087228Y-121010914D01*
X106099364Y-121041504D01*
X106105512Y-121059330D01*
X106115245Y-121090780D01*
X106123925Y-121122301D01*
X106131554Y-121153892D01*
X106138130Y-121185554D01*
X106141416Y-121203677D01*
X106369295Y-122590000D01*
X106723935Y-122590000D01*
G37*
G36*
X102817759Y-122613447D02*
G01*
X102850625Y-122612982D01*
X102883276Y-122611586D01*
X102915712Y-122609261D01*
X102947933Y-122606005D01*
X102979940Y-122601819D01*
X103011732Y-122596703D01*
X103024389Y-122594396D01*
X103055630Y-122587673D01*
X103086156Y-122579412D01*
X103115966Y-122569613D01*
X103145060Y-122558275D01*
X103173439Y-122545398D01*
X103201102Y-122530983D01*
X103211967Y-122524787D01*
X103238379Y-122508272D01*
X103263573Y-122490326D01*
X103287551Y-122470948D01*
X103310313Y-122450140D01*
X103331859Y-122427900D01*
X103352188Y-122404230D01*
X103359979Y-122394361D01*
X103378179Y-122368991D01*
X103394769Y-122342798D01*
X103409749Y-122315782D01*
X103423119Y-122287944D01*
X103434879Y-122259282D01*
X103445029Y-122229798D01*
X103448639Y-122217773D01*
X103456449Y-122187140D01*
X103462936Y-122156150D01*
X103468098Y-122124801D01*
X103471937Y-122093095D01*
X103474452Y-122061031D01*
X103475644Y-122028609D01*
X103475750Y-122015540D01*
X103475338Y-121982568D01*
X103474104Y-121949595D01*
X103472047Y-121916622D01*
X103469167Y-121883649D01*
X103465464Y-121850676D01*
X103460938Y-121817704D01*
X103458897Y-121804515D01*
X103273517Y-120696629D01*
X103927843Y-120696629D01*
X103927843Y-120385952D01*
X102872714Y-120385952D01*
X103117445Y-121855073D01*
X103121524Y-121886620D01*
X103124418Y-121918065D01*
X103126127Y-121949406D01*
X103126650Y-121980644D01*
X103125989Y-122011779D01*
X103125505Y-122022135D01*
X103122698Y-122052343D01*
X103117571Y-122081417D01*
X103108661Y-122113905D01*
X103096594Y-122144850D01*
X103083740Y-122170146D01*
X103065352Y-122197169D01*
X103043529Y-122221177D01*
X103018269Y-122242169D01*
X102989573Y-122260146D01*
X102971632Y-122269064D01*
X102943520Y-122280519D01*
X102914686Y-122289604D01*
X102885130Y-122296318D01*
X102854854Y-122300663D01*
X102823856Y-122302638D01*
X102813363Y-122302770D01*
X102781772Y-122301578D01*
X102749830Y-122298001D01*
X102717538Y-122292041D01*
X102684895Y-122283696D01*
X102666085Y-122277857D01*
X102638178Y-122267235D01*
X102611611Y-122254604D01*
X102582309Y-122237329D01*
X102554830Y-122217318D01*
X102532728Y-122197990D01*
X102511965Y-122176892D01*
X102492542Y-122154816D01*
X102471575Y-122127823D01*
X102452431Y-122099498D01*
X102437473Y-122074159D01*
X102423649Y-122047978D01*
X102410752Y-122021643D01*
X102396877Y-121990723D01*
X102384265Y-121959592D01*
X102374459Y-121932742D01*
X102053524Y-122017006D01*
X102063576Y-122047288D01*
X102074681Y-122077318D01*
X102086840Y-122107097D01*
X102100052Y-122136624D01*
X102114317Y-122165899D01*
X102129636Y-122194921D01*
X102146008Y-122223692D01*
X102163433Y-122252212D01*
X102181877Y-122280181D01*
X102201306Y-122307304D01*
X102221719Y-122333579D01*
X102243117Y-122359007D01*
X102265500Y-122383588D01*
X102288867Y-122407321D01*
X102313219Y-122430207D01*
X102338555Y-122452247D01*
X102364750Y-122472935D01*
X102391678Y-122492134D01*
X102419338Y-122509846D01*
X102447732Y-122526069D01*
X102476857Y-122540804D01*
X102506716Y-122554050D01*
X102537308Y-122565808D01*
X102568632Y-122576078D01*
X102600254Y-122584836D01*
X102631738Y-122592427D01*
X102663085Y-122598849D01*
X102694295Y-122604105D01*
X102725367Y-122608192D01*
X102756302Y-122611111D01*
X102787099Y-122612863D01*
X102817759Y-122613447D01*
G37*
G36*
X102906420Y-120010795D02*
G01*
X102937561Y-120009513D01*
X102967969Y-120005666D01*
X102997644Y-119999255D01*
X103026587Y-119990279D01*
X103053698Y-119978326D01*
X103080695Y-119960829D01*
X103103982Y-119939042D01*
X103117445Y-119922135D01*
X103134608Y-119894417D01*
X103148177Y-119864845D01*
X103158153Y-119833417D01*
X103162142Y-119815157D01*
X103166080Y-119784977D01*
X103167637Y-119754523D01*
X103166813Y-119723794D01*
X103163607Y-119692791D01*
X103155398Y-119662016D01*
X103144072Y-119633806D01*
X103132100Y-119610725D01*
X103114595Y-119583830D01*
X103094319Y-119560571D01*
X103073482Y-119542581D01*
X103047846Y-119525934D01*
X103020305Y-119513269D01*
X102993614Y-119505212D01*
X102962626Y-119499372D01*
X102931118Y-119495956D01*
X102902023Y-119494954D01*
X102870882Y-119496374D01*
X102840474Y-119500633D01*
X102810799Y-119507731D01*
X102781856Y-119517669D01*
X102754745Y-119530583D01*
X102727748Y-119548834D01*
X102704461Y-119571026D01*
X102690997Y-119588011D01*
X102673719Y-119615432D01*
X102659802Y-119644940D01*
X102650254Y-119672921D01*
X102644836Y-119694989D01*
X102640164Y-119725122D01*
X102638607Y-119755439D01*
X102640164Y-119785939D01*
X102644836Y-119816622D01*
X102652195Y-119845249D01*
X102663191Y-119873703D01*
X102676343Y-119899420D01*
X102693935Y-119925985D01*
X102714470Y-119949260D01*
X102735694Y-119967564D01*
X102761417Y-119983621D01*
X102789217Y-119995522D01*
X102816294Y-120002735D01*
X102846779Y-120007324D01*
X102877783Y-120010008D01*
X102906420Y-120010795D01*
G37*
G36*
X101688625Y-122590000D02*
G01*
X101325191Y-120385952D01*
X100970551Y-120385952D01*
X101029902Y-120768436D01*
X101012067Y-120739045D01*
X100992908Y-120710405D01*
X100972425Y-120682516D01*
X100950618Y-120655379D01*
X100927488Y-120628993D01*
X100903034Y-120603358D01*
X100892882Y-120593314D01*
X100866878Y-120569000D01*
X100840159Y-120545973D01*
X100812725Y-120524235D01*
X100784575Y-120503784D01*
X100755710Y-120484621D01*
X100726129Y-120466747D01*
X100714096Y-120459958D01*
X100683445Y-120443818D01*
X100652401Y-120429289D01*
X100620963Y-120416370D01*
X100589131Y-120405060D01*
X100556906Y-120395361D01*
X100524288Y-120387272D01*
X100511130Y-120384487D01*
X100478157Y-120378154D01*
X100445184Y-120372895D01*
X100412212Y-120368709D01*
X100379239Y-120365596D01*
X100346266Y-120363557D01*
X100313293Y-120362591D01*
X100300104Y-120362505D01*
X100270509Y-120362997D01*
X100241074Y-120364474D01*
X100211799Y-120366935D01*
X100182684Y-120370382D01*
X100146517Y-120376074D01*
X100110599Y-120383304D01*
X100082046Y-120390197D01*
X100067829Y-120394012D01*
X100039791Y-120402553D01*
X100006256Y-120415097D01*
X99974403Y-120429715D01*
X99944232Y-120446409D01*
X99915742Y-120465178D01*
X99888934Y-120486022D01*
X99873656Y-120499525D01*
X99849309Y-120523367D01*
X99826644Y-120548641D01*
X99805661Y-120575345D01*
X99786358Y-120603481D01*
X99768738Y-120633048D01*
X99752799Y-120664045D01*
X99746894Y-120676845D01*
X99733130Y-120709399D01*
X99720690Y-120742490D01*
X99709574Y-120776118D01*
X99699782Y-120810282D01*
X99691313Y-120844983D01*
X99684169Y-120880220D01*
X99681681Y-120894466D01*
X99676354Y-120930065D01*
X99672279Y-120965878D01*
X99669456Y-121001906D01*
X99667885Y-121038149D01*
X99667567Y-121074607D01*
X99668214Y-121103927D01*
X99669225Y-121126008D01*
X99670931Y-121155569D01*
X99673118Y-121185267D01*
X99675785Y-121215103D01*
X99678934Y-121245076D01*
X99682563Y-121275187D01*
X99686673Y-121305435D01*
X99691264Y-121335820D01*
X99696336Y-121366343D01*
X99898569Y-122590000D01*
X100253210Y-122590000D01*
X100042184Y-121309190D01*
X100037873Y-121278991D01*
X100034284Y-121248843D01*
X100031416Y-121218747D01*
X100029269Y-121188702D01*
X100027844Y-121158709D01*
X100027529Y-121148722D01*
X100027323Y-121118729D01*
X100028353Y-121089200D01*
X100031118Y-121055335D01*
X100035566Y-121022101D01*
X100040718Y-120994117D01*
X100048252Y-120961875D01*
X100058029Y-120930544D01*
X100070050Y-120900125D01*
X100084316Y-120870618D01*
X100093475Y-120854166D01*
X100110876Y-120826331D01*
X100130380Y-120800530D01*
X100151989Y-120776763D01*
X100175701Y-120755030D01*
X100190195Y-120743524D01*
X100216967Y-120725196D01*
X100245353Y-120709323D01*
X100275351Y-120695904D01*
X100306962Y-120684940D01*
X100325750Y-120679776D01*
X100358979Y-120672353D01*
X100392628Y-120666753D01*
X100421806Y-120663404D01*
X100451292Y-120661395D01*
X100481088Y-120660725D01*
X100512609Y-120661462D01*
X100544340Y-120663670D01*
X100576282Y-120667352D01*
X100608434Y-120672506D01*
X100626901Y-120676113D01*
X100659068Y-120683330D01*
X100690814Y-120692161D01*
X100722140Y-120702605D01*
X100753045Y-120714661D01*
X100770516Y-120722274D01*
X100800584Y-120737111D01*
X100829881Y-120754051D01*
X100854379Y-120770245D01*
X100878310Y-120787985D01*
X100901674Y-120807271D01*
X100923836Y-120827441D01*
X100944711Y-120848384D01*
X100967436Y-120873794D01*
X100988408Y-120900256D01*
X101004989Y-120923775D01*
X101022385Y-120952050D01*
X101038028Y-120981096D01*
X101051917Y-121010914D01*
X101064054Y-121041504D01*
X101070202Y-121059330D01*
X101079934Y-121090780D01*
X101088615Y-121122301D01*
X101096243Y-121153892D01*
X101102820Y-121185554D01*
X101106106Y-121203677D01*
X101333984Y-122590000D01*
X101688625Y-122590000D01*
G37*
G36*
X98090945Y-120362596D02*
G01*
X98124111Y-120363627D01*
X98157491Y-120365802D01*
X98191087Y-120369122D01*
X98224897Y-120373587D01*
X98258921Y-120379197D01*
X98293161Y-120385952D01*
X98306779Y-120388917D01*
X98340575Y-120397432D01*
X98374013Y-120407522D01*
X98407093Y-120419185D01*
X98439815Y-120432423D01*
X98472180Y-120447235D01*
X98504187Y-120463621D01*
X98516752Y-120470508D01*
X98547513Y-120488676D01*
X98577345Y-120508203D01*
X98606246Y-120529090D01*
X98634217Y-120551337D01*
X98661258Y-120574943D01*
X98687369Y-120599909D01*
X98697538Y-120610224D01*
X98722185Y-120636514D01*
X98745724Y-120663519D01*
X98768153Y-120691239D01*
X98789473Y-120719676D01*
X98809684Y-120748827D01*
X98828785Y-120778695D01*
X98836113Y-120790739D01*
X98853629Y-120821250D01*
X98870001Y-120852334D01*
X98885228Y-120883990D01*
X98899310Y-120916219D01*
X98912248Y-120949020D01*
X98924040Y-120982393D01*
X98928454Y-120995757D01*
X98938836Y-121029091D01*
X98948289Y-121062318D01*
X98956811Y-121095437D01*
X98964403Y-121128449D01*
X98971065Y-121161354D01*
X98976796Y-121194152D01*
X99044207Y-121614005D01*
X99049291Y-121644390D01*
X99053916Y-121674730D01*
X99058084Y-121705024D01*
X99061793Y-121735272D01*
X99065044Y-121765474D01*
X99067838Y-121795630D01*
X99070174Y-121825741D01*
X99072051Y-121855806D01*
X99073127Y-121885573D01*
X99073425Y-121915157D01*
X99072944Y-121944557D01*
X99071248Y-121981051D01*
X99068336Y-122017258D01*
X99064207Y-122053179D01*
X99058862Y-122088813D01*
X99056366Y-122102872D01*
X99049125Y-122137620D01*
X99040452Y-122171795D01*
X99030349Y-122205397D01*
X99018814Y-122238427D01*
X99005848Y-122270885D01*
X98991451Y-122302770D01*
X98985274Y-122315215D01*
X98968681Y-122345426D01*
X98950441Y-122374348D01*
X98930556Y-122401983D01*
X98909025Y-122428330D01*
X98885848Y-122453389D01*
X98861025Y-122477159D01*
X98850564Y-122486155D01*
X98823434Y-122507218D01*
X98794908Y-122526241D01*
X98764987Y-122543224D01*
X98733671Y-122558169D01*
X98700959Y-122571074D01*
X98666852Y-122581939D01*
X98645742Y-122587570D01*
X98610157Y-122595724D01*
X98581329Y-122601139D01*
X98552180Y-122605570D01*
X98522711Y-122609016D01*
X98492921Y-122611478D01*
X98462810Y-122612955D01*
X98432379Y-122613447D01*
X98419173Y-122613364D01*
X98386007Y-122612430D01*
X98352626Y-122610459D01*
X98319031Y-122607450D01*
X98285221Y-122603403D01*
X98251196Y-122598319D01*
X98216957Y-122592198D01*
X98203253Y-122589510D01*
X98169292Y-122581714D01*
X98135761Y-122572380D01*
X98102660Y-122561507D01*
X98069988Y-122549096D01*
X98037745Y-122535146D01*
X98005931Y-122519658D01*
X97993357Y-122513049D01*
X97962499Y-122495600D01*
X97932464Y-122476827D01*
X97903251Y-122456731D01*
X97874861Y-122435311D01*
X97847295Y-122412567D01*
X97820551Y-122388499D01*
X97810029Y-122378470D01*
X97784627Y-122352996D01*
X97760513Y-122326950D01*
X97737687Y-122300331D01*
X97716148Y-122273140D01*
X97695898Y-122245377D01*
X97676936Y-122217041D01*
X97744347Y-122650816D01*
X97745947Y-122660527D01*
X97751262Y-122689696D01*
X97757350Y-122718917D01*
X97764211Y-122748189D01*
X97771844Y-122777512D01*
X97780251Y-122806887D01*
X97783184Y-122816650D01*
X97793119Y-122845493D01*
X97804754Y-122873666D01*
X97818089Y-122901169D01*
X97833125Y-122928002D01*
X97849860Y-122954166D01*
X97855690Y-122962824D01*
X97873903Y-122988283D01*
X97893197Y-123012970D01*
X97913573Y-123036884D01*
X97935031Y-123060025D01*
X97957571Y-123082393D01*
X97965225Y-123089634D01*
X97988804Y-123110328D01*
X98013310Y-123129477D01*
X98038744Y-123147079D01*
X98065105Y-123163136D01*
X98092393Y-123177648D01*
X98097021Y-123179915D01*
X98124876Y-123192554D01*
X98152885Y-123203545D01*
X98181050Y-123212887D01*
X98209368Y-123220581D01*
X98242602Y-123227473D01*
X98261482Y-123230565D01*
X98294575Y-123234982D01*
X98327739Y-123238138D01*
X98360973Y-123240031D01*
X98394277Y-123240662D01*
X98405884Y-123240611D01*
X98440393Y-123239838D01*
X98474439Y-123238138D01*
X98508022Y-123235510D01*
X98541141Y-123231956D01*
X98573796Y-123227473D01*
X98584546Y-123225702D01*
X98616111Y-123218910D01*
X98646645Y-123209902D01*
X98676149Y-123198679D01*
X98704622Y-123185241D01*
X98732065Y-123169588D01*
X98740927Y-123163863D01*
X98766137Y-123145041D01*
X98789287Y-123123746D01*
X98810375Y-123099979D01*
X98829404Y-123073738D01*
X98846371Y-123045024D01*
X98851377Y-123034986D01*
X98863819Y-123004220D01*
X98872397Y-122972475D01*
X98877111Y-122939751D01*
X98877961Y-122906049D01*
X98874947Y-122871367D01*
X99225924Y-122871367D01*
X99227341Y-122884903D01*
X99229656Y-122918566D01*
X99230217Y-122951979D01*
X99229026Y-122985141D01*
X99226082Y-123018053D01*
X99221384Y-123050715D01*
X99214933Y-123083126D01*
X99211873Y-123096046D01*
X99203097Y-123127595D01*
X99192711Y-123158070D01*
X99180715Y-123187472D01*
X99167108Y-123215801D01*
X99151892Y-123243057D01*
X99135066Y-123269239D01*
X99127816Y-123279486D01*
X99108764Y-123304201D01*
X99088389Y-123327628D01*
X99066689Y-123349767D01*
X99043666Y-123370619D01*
X99019320Y-123390182D01*
X98993649Y-123408457D01*
X98983059Y-123415415D01*
X98956083Y-123431984D01*
X98928391Y-123447372D01*
X98899983Y-123461579D01*
X98870860Y-123474606D01*
X98841021Y-123486452D01*
X98810467Y-123497117D01*
X98797996Y-123501064D01*
X98766694Y-123510206D01*
X98735214Y-123518309D01*
X98703554Y-123525375D01*
X98671715Y-123531404D01*
X98639698Y-123536395D01*
X98607501Y-123540348D01*
X98594561Y-123541679D01*
X98561985Y-123544631D01*
X98529088Y-123547046D01*
X98495868Y-123548924D01*
X98462327Y-123550266D01*
X98428463Y-123551071D01*
X98394277Y-123551339D01*
X98379992Y-123551265D01*
X98344304Y-123550428D01*
X98308651Y-123548660D01*
X98273034Y-123545963D01*
X98237453Y-123542335D01*
X98201908Y-123537777D01*
X98166399Y-123532288D01*
X98152122Y-123529790D01*
X98116530Y-123522516D01*
X98081082Y-123513776D01*
X98052826Y-123505727D01*
X98024661Y-123496740D01*
X97996589Y-123486813D01*
X97968608Y-123475948D01*
X97940718Y-123464145D01*
X97912966Y-123451368D01*
X97885764Y-123437583D01*
X97859111Y-123422791D01*
X97833007Y-123406992D01*
X97807453Y-123390185D01*
X97782449Y-123372370D01*
X97757994Y-123353548D01*
X97734089Y-123333719D01*
X97710676Y-123313225D01*
X97688064Y-123292045D01*
X97666254Y-123270178D01*
X97645245Y-123247623D01*
X97625038Y-123224382D01*
X97605632Y-123200454D01*
X97587028Y-123175839D01*
X97569225Y-123150537D01*
X97552281Y-123124903D01*
X97536252Y-123098925D01*
X97521140Y-123072604D01*
X97506943Y-123045940D01*
X97493662Y-123018932D01*
X97481297Y-122991581D01*
X97469849Y-122963886D01*
X97459316Y-122935847D01*
X97451927Y-122914671D01*
X97442596Y-122886375D01*
X97433860Y-122858010D01*
X97425720Y-122829577D01*
X97418175Y-122801075D01*
X97411226Y-122772504D01*
X97404872Y-122743865D01*
X97397766Y-122707969D01*
X97143756Y-121153992D01*
X97514116Y-121153992D01*
X97514270Y-121185359D01*
X97514602Y-121195800D01*
X97516285Y-121227124D01*
X97518999Y-121258449D01*
X97522742Y-121289773D01*
X97527517Y-121321097D01*
X97533321Y-121352421D01*
X97600732Y-121771542D01*
X97604052Y-121789516D01*
X97610854Y-121821082D01*
X97618919Y-121852789D01*
X97628245Y-121884635D01*
X97638834Y-121916622D01*
X97648949Y-121943816D01*
X97662704Y-121974826D01*
X97678562Y-122005065D01*
X97693829Y-122030369D01*
X97710642Y-122055108D01*
X97716480Y-122063113D01*
X97734822Y-122086478D01*
X97754399Y-122108863D01*
X97775213Y-122130270D01*
X97797264Y-122150697D01*
X97820551Y-122170146D01*
X97840404Y-122185427D01*
X97864653Y-122202394D01*
X97893529Y-122220301D01*
X97923036Y-122236174D01*
X97953175Y-122250013D01*
X97979587Y-122260489D01*
X98011183Y-122271409D01*
X98043621Y-122280925D01*
X98072094Y-122287967D01*
X98101186Y-122293977D01*
X98120512Y-122297412D01*
X98153891Y-122302321D01*
X98186709Y-122305827D01*
X98218966Y-122307930D01*
X98250662Y-122308632D01*
X98260632Y-122308557D01*
X98290367Y-122307441D01*
X98319845Y-122304985D01*
X98349066Y-122301190D01*
X98378028Y-122296055D01*
X98406734Y-122289581D01*
X98425556Y-122284463D01*
X98457392Y-122273799D01*
X98487826Y-122260961D01*
X98516858Y-122245950D01*
X98544487Y-122228764D01*
X98559370Y-122217968D01*
X98583874Y-122197366D01*
X98606414Y-122174591D01*
X98626990Y-122149642D01*
X98645603Y-122122519D01*
X98655140Y-122106055D01*
X98670122Y-122076473D01*
X98682929Y-122045908D01*
X98693563Y-122014363D01*
X98702023Y-121981835D01*
X98707622Y-121953379D01*
X98712330Y-121919789D01*
X98715075Y-121885779D01*
X98715865Y-121856292D01*
X98715212Y-121826496D01*
X98714631Y-121816513D01*
X98712510Y-121786563D01*
X98709823Y-121756612D01*
X98706568Y-121726662D01*
X98702747Y-121696712D01*
X98698360Y-121666762D01*
X98630216Y-121247641D01*
X98626941Y-121228807D01*
X98620440Y-121196014D01*
X98612957Y-121163431D01*
X98604492Y-121131059D01*
X98595045Y-121098897D01*
X98587270Y-121076160D01*
X98574883Y-121044870D01*
X98560743Y-121014210D01*
X98544850Y-120984182D01*
X98529832Y-120958946D01*
X98524440Y-120950562D01*
X98507301Y-120925927D01*
X98488719Y-120902065D01*
X98468695Y-120878975D01*
X98447228Y-120856659D01*
X98424319Y-120835115D01*
X98416319Y-120828056D01*
X98391942Y-120807912D01*
X98366997Y-120789313D01*
X98341486Y-120772260D01*
X98315409Y-120756753D01*
X98288764Y-120742791D01*
X98261708Y-120729997D01*
X98234394Y-120718542D01*
X98206822Y-120708427D01*
X98174329Y-120698319D01*
X98141486Y-120690034D01*
X98122435Y-120686085D01*
X98089096Y-120680440D01*
X98055757Y-120676407D01*
X98022418Y-120673988D01*
X97989078Y-120673182D01*
X97978571Y-120673265D01*
X97947359Y-120674510D01*
X97916610Y-120677249D01*
X97886325Y-120681482D01*
X97856503Y-120687209D01*
X97827145Y-120694431D01*
X97798286Y-120703026D01*
X97770508Y-120713424D01*
X97743812Y-120725626D01*
X97714034Y-120742140D01*
X97685729Y-120761109D01*
X97666434Y-120776107D01*
X97641525Y-120799028D01*
X97619070Y-120824192D01*
X97599069Y-120851601D01*
X97583879Y-120876880D01*
X97579200Y-120885524D01*
X97566157Y-120911868D01*
X97554608Y-120938830D01*
X97544553Y-120966410D01*
X97535992Y-120994609D01*
X97528925Y-121023426D01*
X97526893Y-121033160D01*
X97521689Y-121062673D01*
X97517825Y-121092649D01*
X97515301Y-121123088D01*
X97514116Y-121153992D01*
X97143756Y-121153992D01*
X97018213Y-120385952D01*
X97372854Y-120385952D01*
X97449057Y-120865889D01*
X97451748Y-120852105D01*
X97459576Y-120818044D01*
X97468978Y-120784556D01*
X97479955Y-120751641D01*
X97492506Y-120719298D01*
X97506631Y-120687527D01*
X97522330Y-120656329D01*
X97529051Y-120643996D01*
X97546954Y-120614239D01*
X97566431Y-120586021D01*
X97587483Y-120559342D01*
X97610109Y-120534201D01*
X97634309Y-120510598D01*
X97660083Y-120488534D01*
X97670708Y-120480082D01*
X97698071Y-120460329D01*
X97726578Y-120442544D01*
X97756231Y-120426727D01*
X97787028Y-120412877D01*
X97818971Y-120400995D01*
X97852058Y-120391081D01*
X97872344Y-120385974D01*
X97906555Y-120378579D01*
X97941266Y-120372579D01*
X97976479Y-120367974D01*
X98012192Y-120364765D01*
X98048406Y-120362951D01*
X98077739Y-120362505D01*
X98090945Y-120362596D01*
G37*
G36*
X147939593Y-109258895D02*
G01*
X147867966Y-109290489D01*
X147595698Y-109390820D01*
X147321042Y-109472285D01*
X147255019Y-109489120D01*
X147066660Y-109532824D01*
X146883610Y-109568250D01*
X146700749Y-109596108D01*
X146512956Y-109617108D01*
X146315110Y-109631961D01*
X146102092Y-109641377D01*
X146065201Y-109642234D01*
X146008154Y-109643138D01*
X145932321Y-109644070D01*
X145838734Y-109645025D01*
X145728426Y-109645997D01*
X145602427Y-109646981D01*
X145461770Y-109647971D01*
X145307488Y-109648960D01*
X145140611Y-109649943D01*
X144962172Y-109650914D01*
X144773202Y-109651868D01*
X144574734Y-109652798D01*
X144367800Y-109653698D01*
X144153431Y-109654563D01*
X143932659Y-109655387D01*
X143706517Y-109656164D01*
X143476036Y-109656889D01*
X143242248Y-109657554D01*
X143193289Y-109657688D01*
X142964552Y-109658355D01*
X142741410Y-109659074D01*
X142524760Y-109659839D01*
X142315499Y-109660645D01*
X142114523Y-109661487D01*
X141922728Y-109662360D01*
X141741012Y-109663257D01*
X141570270Y-109664174D01*
X141411399Y-109665104D01*
X141265296Y-109666043D01*
X141132858Y-109666985D01*
X141014980Y-109667924D01*
X140912560Y-109668856D01*
X140826494Y-109669775D01*
X140757678Y-109670674D01*
X140707009Y-109671550D01*
X140675384Y-109672396D01*
X140663700Y-109673207D01*
X140663150Y-109673377D01*
X140647977Y-109674447D01*
X140613688Y-109675449D01*
X140561662Y-109676382D01*
X140493276Y-109677247D01*
X140409908Y-109678043D01*
X140312935Y-109678769D01*
X140203735Y-109679424D01*
X140083686Y-109680010D01*
X139954166Y-109680524D01*
X139816551Y-109680967D01*
X139672220Y-109681338D01*
X139522550Y-109681637D01*
X139368920Y-109681864D01*
X139212705Y-109682017D01*
X139055285Y-109682097D01*
X138898037Y-109682103D01*
X138742339Y-109682034D01*
X138589567Y-109681891D01*
X138441101Y-109681673D01*
X138298317Y-109681379D01*
X138162593Y-109681009D01*
X138035307Y-109680562D01*
X137917836Y-109680039D01*
X137811558Y-109679438D01*
X137717851Y-109678760D01*
X137638093Y-109678003D01*
X137573660Y-109677168D01*
X137525931Y-109676254D01*
X137496284Y-109675261D01*
X137486095Y-109674187D01*
X137494272Y-109670655D01*
X137522771Y-109665865D01*
X137571305Y-109660248D01*
X137639462Y-109653840D01*
X137726826Y-109646682D01*
X137832986Y-109638811D01*
X137957526Y-109630267D01*
X137966172Y-109629693D01*
X138097557Y-109620882D01*
X138208203Y-109613288D01*
X138298170Y-109606908D01*
X138367517Y-109601737D01*
X138416303Y-109597770D01*
X138444586Y-109595004D01*
X138466054Y-109592969D01*
X138504705Y-109590046D01*
X138553291Y-109586827D01*
X138606070Y-109583711D01*
X138634347Y-109582056D01*
X138697402Y-109577989D01*
X138770421Y-109572926D01*
X138846472Y-109567353D01*
X138918622Y-109561757D01*
X138952940Y-109559037D01*
X139032372Y-109552928D01*
X139114855Y-109546794D01*
X139192450Y-109541220D01*
X139257219Y-109536792D01*
X139346317Y-109530911D01*
X139478000Y-109522091D01*
X139592231Y-109514257D01*
X139691095Y-109507262D01*
X139776678Y-109500960D01*
X139851066Y-109495206D01*
X139855382Y-109494863D01*
X139908727Y-109490755D01*
X139976602Y-109485690D01*
X140053316Y-109480085D01*
X140133178Y-109474357D01*
X140210500Y-109468921D01*
X140246638Y-109466410D01*
X140367098Y-109458032D01*
X140471097Y-109450780D01*
X140562035Y-109444414D01*
X140643310Y-109438696D01*
X140718324Y-109433385D01*
X140790474Y-109428242D01*
X140863162Y-109423026D01*
X140939787Y-109417499D01*
X140994462Y-109413581D01*
X141080147Y-109407542D01*
X141168095Y-109401442D01*
X141250626Y-109395814D01*
X141320057Y-109391188D01*
X141345157Y-109389518D01*
X141415752Y-109384581D01*
X141486678Y-109379322D01*
X141550893Y-109374274D01*
X141601353Y-109369967D01*
X141621771Y-109368173D01*
X141678754Y-109363557D01*
X141746638Y-109358444D01*
X141818609Y-109353339D01*
X141887859Y-109348748D01*
X141915485Y-109346969D01*
X141989292Y-109342034D01*
X142064601Y-109336777D01*
X142133979Y-109331723D01*
X142189992Y-109327399D01*
X142194316Y-109327051D01*
X142255133Y-109322366D01*
X142327348Y-109317095D01*
X142402290Y-109311859D01*
X142471288Y-109307276D01*
X142483536Y-109306491D01*
X142609025Y-109298405D01*
X142715407Y-109291462D01*
X142804233Y-109285539D01*
X142877054Y-109280515D01*
X142935422Y-109276268D01*
X142980887Y-109272676D01*
X143015002Y-109269616D01*
X143039317Y-109266967D01*
X143055384Y-109264606D01*
X143064754Y-109262412D01*
X143065506Y-109262029D01*
X143082606Y-109262029D01*
X143091181Y-109265841D01*
X143096697Y-109265089D01*
X143098127Y-109258895D01*
X143096600Y-109257649D01*
X143084236Y-109258895D01*
X143082606Y-109262029D01*
X143065506Y-109262029D01*
X143068978Y-109260262D01*
X143069226Y-109259673D01*
X143058622Y-109257200D01*
X143029001Y-109255864D01*
X142981872Y-109255646D01*
X142918740Y-109256528D01*
X142841113Y-109258489D01*
X142750497Y-109261512D01*
X142648400Y-109265577D01*
X142642905Y-109265811D01*
X142541837Y-109270023D01*
X142425373Y-109274729D01*
X142298630Y-109279732D01*
X142166728Y-109284837D01*
X142034786Y-109289846D01*
X141907923Y-109294565D01*
X141791258Y-109298795D01*
X141689910Y-109302341D01*
X141642421Y-109303986D01*
X141558961Y-109306947D01*
X141457614Y-109310608D01*
X141340095Y-109314905D01*
X141208118Y-109319773D01*
X141063398Y-109325152D01*
X140907651Y-109330975D01*
X140742591Y-109337182D01*
X140569934Y-109343707D01*
X140517100Y-109345701D01*
X140402406Y-109349984D01*
X140280259Y-109354494D01*
X140156312Y-109359026D01*
X140036222Y-109363373D01*
X139925643Y-109367329D01*
X139830230Y-109370687D01*
X139744908Y-109373731D01*
X139639701Y-109377617D01*
X139523273Y-109382026D01*
X139400539Y-109386767D01*
X139276413Y-109391651D01*
X139155810Y-109396488D01*
X139043642Y-109401087D01*
X138990813Y-109403215D01*
X138897101Y-109406655D01*
X138809833Y-109409438D01*
X138731404Y-109411512D01*
X138664209Y-109412827D01*
X138610643Y-109413329D01*
X138573101Y-109412967D01*
X138553978Y-109411690D01*
X138542796Y-109409362D01*
X138526987Y-109404793D01*
X138527933Y-109402387D01*
X138543591Y-109400800D01*
X138579652Y-109396635D01*
X138630395Y-109390484D01*
X138692450Y-109382771D01*
X138762443Y-109373918D01*
X138837004Y-109364350D01*
X138912761Y-109354492D01*
X138986341Y-109344765D01*
X139013193Y-109341186D01*
X139066054Y-109334151D01*
X139118008Y-109327256D01*
X139171451Y-109320188D01*
X139228779Y-109312632D01*
X139292389Y-109304272D01*
X139364678Y-109294794D01*
X139448043Y-109283883D01*
X139544879Y-109271225D01*
X139657585Y-109256504D01*
X139710500Y-109249596D01*
X143173598Y-109249596D01*
X143179132Y-109251957D01*
X143200574Y-109252795D01*
X143211937Y-109252525D01*
X143224459Y-109250799D01*
X143218685Y-109248054D01*
X143202030Y-109246324D01*
X143177011Y-109248264D01*
X143173598Y-109249596D01*
X139710500Y-109249596D01*
X139788556Y-109239406D01*
X139846948Y-109231771D01*
X139928466Y-109221070D01*
X140006832Y-109210738D01*
X140077670Y-109201355D01*
X140136600Y-109193499D01*
X140179245Y-109187749D01*
X140201349Y-109184768D01*
X140248625Y-109178477D01*
X140311920Y-109170113D01*
X140388504Y-109160038D01*
X140475645Y-109148608D01*
X140570611Y-109136182D01*
X140670670Y-109123120D01*
X140773093Y-109109779D01*
X140851569Y-109099557D01*
X140949200Y-109086805D01*
X141040951Y-109074782D01*
X141124357Y-109063814D01*
X141196956Y-109054226D01*
X141256284Y-109046341D01*
X141299875Y-109040486D01*
X141325266Y-109036985D01*
X141335711Y-109035497D01*
X141375747Y-109029915D01*
X141425259Y-109023185D01*
X141486485Y-109015011D01*
X141561665Y-109005095D01*
X141653036Y-108993139D01*
X141762838Y-108978846D01*
X141800451Y-108973952D01*
X141870575Y-108964805D01*
X141941487Y-108955529D01*
X142002461Y-108947528D01*
X142035984Y-108943189D01*
X142092159Y-108936174D01*
X142143666Y-108930024D01*
X142182513Y-108925706D01*
X142213862Y-108921497D01*
X142240958Y-108915696D01*
X142253452Y-108910078D01*
X142254412Y-108906060D01*
X142249718Y-108903286D01*
X142236755Y-108901954D01*
X142213020Y-108902079D01*
X142176011Y-108903678D01*
X142123225Y-108906765D01*
X142052161Y-108911357D01*
X141995313Y-108915030D01*
X141924434Y-108919454D01*
X141839787Y-108924604D01*
X141740201Y-108930550D01*
X141624501Y-108937360D01*
X141491514Y-108945104D01*
X141340069Y-108953852D01*
X141168991Y-108963674D01*
X141157084Y-108964356D01*
X141062192Y-108969801D01*
X140985057Y-108974253D01*
X140922942Y-108977875D01*
X140873109Y-108980833D01*
X140832820Y-108983290D01*
X140799337Y-108985411D01*
X140769922Y-108987360D01*
X140741837Y-108989301D01*
X140710960Y-108991331D01*
X140662002Y-108994337D01*
X140601580Y-108997908D01*
X140534545Y-109001758D01*
X140465750Y-109005600D01*
X140415559Y-109008395D01*
X140332239Y-109013150D01*
X140247008Y-109018133D01*
X140167440Y-109022897D01*
X140101107Y-109026998D01*
X140031743Y-109031311D01*
X139922551Y-109037651D01*
X139833312Y-109042117D01*
X139763507Y-109044676D01*
X139712618Y-109045295D01*
X139680127Y-109043943D01*
X139665518Y-109040586D01*
X139668271Y-109035192D01*
X139687870Y-109027727D01*
X139723797Y-109018160D01*
X139775533Y-109006457D01*
X139806227Y-108999859D01*
X139844848Y-108991535D01*
X139878559Y-108984212D01*
X139910511Y-108977175D01*
X139943854Y-108969714D01*
X139981742Y-108961117D01*
X140027324Y-108950672D01*
X140083753Y-108937666D01*
X140154180Y-108921387D01*
X140241755Y-108901125D01*
X140316898Y-108883743D01*
X140390204Y-108866798D01*
X140456534Y-108851478D01*
X140512555Y-108838551D01*
X140554939Y-108828787D01*
X140580353Y-108822954D01*
X140644758Y-108808238D01*
X140775539Y-108778234D01*
X140891709Y-108751389D01*
X140997230Y-108726786D01*
X141096062Y-108703508D01*
X141101909Y-108702127D01*
X141135694Y-108694195D01*
X141179816Y-108683885D01*
X141226292Y-108673065D01*
X141318922Y-108651548D01*
X141409231Y-108630582D01*
X141491397Y-108611517D01*
X141562381Y-108595058D01*
X141619146Y-108581911D01*
X141658654Y-108572779D01*
X141666050Y-108571066D01*
X141703922Y-108562194D01*
X141754735Y-108550190D01*
X141812751Y-108536414D01*
X141872231Y-108522222D01*
X141885864Y-108518962D01*
X141947530Y-108504233D01*
X142007844Y-108489853D01*
X142060502Y-108477324D01*
X142099200Y-108468148D01*
X142106381Y-108466416D01*
X142140774Y-108457000D01*
X142164270Y-108448676D01*
X142172128Y-108443075D01*
X142169661Y-108439985D01*
X142154432Y-108425409D01*
X142128694Y-108402631D01*
X142096226Y-108375038D01*
X142004504Y-108295887D01*
X141802908Y-108102748D01*
X141612134Y-107892664D01*
X141432713Y-107666541D01*
X141265172Y-107425282D01*
X141110041Y-107169792D01*
X140967848Y-106900975D01*
X140839121Y-106619736D01*
X140724389Y-106326979D01*
X140624180Y-106023608D01*
X140539024Y-105710529D01*
X140525518Y-105654052D01*
X140459685Y-105335610D01*
X140413013Y-105022382D01*
X140385425Y-104712023D01*
X140376843Y-104402189D01*
X140387189Y-104090535D01*
X140416386Y-103774716D01*
X140464357Y-103452387D01*
X140473939Y-103400391D01*
X140517506Y-103203448D01*
X140573826Y-102996701D01*
X140641539Y-102784206D01*
X140719287Y-102570022D01*
X140805712Y-102358204D01*
X140899457Y-102152810D01*
X141031092Y-101898248D01*
X141195273Y-101621207D01*
X141375491Y-101354984D01*
X141570835Y-101100275D01*
X141780395Y-100857778D01*
X142003261Y-100628190D01*
X142238520Y-100412207D01*
X142485264Y-100210527D01*
X142742580Y-100023846D01*
X143009558Y-99852862D01*
X143285288Y-99698272D01*
X143568858Y-99560773D01*
X143859358Y-99441061D01*
X144155877Y-99339834D01*
X144457505Y-99257789D01*
X144763330Y-99195623D01*
X144822966Y-99186194D01*
X144902047Y-99175232D01*
X144986083Y-99164977D01*
X145072513Y-99155625D01*
X145158773Y-99147368D01*
X145242302Y-99140402D01*
X145320537Y-99134921D01*
X145390916Y-99131118D01*
X145450876Y-99129188D01*
X145497856Y-99129324D01*
X145529293Y-99131722D01*
X145542624Y-99136575D01*
X145541181Y-99144955D01*
X145532922Y-99169965D01*
X145518679Y-99208167D01*
X145499678Y-99256295D01*
X145477144Y-99311083D01*
X145461204Y-99349393D01*
X145436802Y-99408999D01*
X145414777Y-99463899D01*
X145397053Y-99509269D01*
X145385560Y-99540287D01*
X145383069Y-99547424D01*
X145367824Y-99590632D01*
X145349572Y-99641808D01*
X145331734Y-99691354D01*
X145300818Y-99780715D01*
X145262612Y-99900586D01*
X145223952Y-100030935D01*
X145186175Y-100166780D01*
X145150616Y-100303139D01*
X145118610Y-100435029D01*
X145091494Y-100557468D01*
X145070602Y-100665472D01*
X145067408Y-100683781D01*
X145048485Y-100794662D01*
X145032920Y-100891175D01*
X145019971Y-100978567D01*
X145008894Y-101062085D01*
X144998945Y-101146974D01*
X144989381Y-101238483D01*
X144982116Y-101311411D01*
X144940443Y-101324589D01*
X144913747Y-101333067D01*
X144762746Y-101382627D01*
X144628837Y-101429688D01*
X144509112Y-101475403D01*
X144400661Y-101520926D01*
X144300575Y-101567411D01*
X144205947Y-101616012D01*
X144111220Y-101668993D01*
X143894224Y-101806331D01*
X143692319Y-101957675D01*
X143505811Y-102122716D01*
X143335004Y-102301147D01*
X143180203Y-102492660D01*
X143041715Y-102696946D01*
X142919842Y-102913699D01*
X142910104Y-102932931D01*
X142858103Y-103039973D01*
X142812173Y-103143295D01*
X142770865Y-103246963D01*
X142732729Y-103355042D01*
X142696314Y-103471596D01*
X142660172Y-103600691D01*
X142622852Y-103746391D01*
X142575275Y-103973136D01*
X142543537Y-104216141D01*
X142532319Y-104457300D01*
X142541589Y-104697345D01*
X142571315Y-104937006D01*
X142575879Y-104963655D01*
X142628325Y-105205426D01*
X142700126Y-105447122D01*
X142790113Y-105686165D01*
X142897121Y-105919983D01*
X143019983Y-106145998D01*
X143157532Y-106361636D01*
X143308601Y-106564321D01*
X143313556Y-106570428D01*
X143370885Y-106636816D01*
X143440268Y-106711107D01*
X143517531Y-106789269D01*
X143598498Y-106867270D01*
X143678995Y-106941078D01*
X143754847Y-107006662D01*
X143821879Y-107059990D01*
X143868100Y-107093984D01*
X144086332Y-107238754D01*
X144315892Y-107366070D01*
X144556683Y-107475893D01*
X144808607Y-107568188D01*
X145071568Y-107642918D01*
X145345469Y-107700046D01*
X145630210Y-107739536D01*
X145657396Y-107742195D01*
X145761476Y-107749425D01*
X145878967Y-107753848D01*
X146004281Y-107755495D01*
X146131826Y-107754395D01*
X146256014Y-107750580D01*
X146371254Y-107744080D01*
X146471958Y-107734926D01*
X146681299Y-107705617D01*
X146940092Y-107653401D01*
X147186682Y-107585064D01*
X147420758Y-107500819D01*
X147642005Y-107400881D01*
X147850111Y-107285466D01*
X148044762Y-107154786D01*
X148225646Y-107009058D01*
X148392450Y-106848495D01*
X148544860Y-106673313D01*
X148682564Y-106483725D01*
X148805248Y-106279946D01*
X148912600Y-106062191D01*
X148929908Y-106022372D01*
X148953075Y-105966997D01*
X148973602Y-105915747D01*
X148988469Y-105876031D01*
X148989714Y-105872516D01*
X149003808Y-105837318D01*
X149017127Y-105811109D01*
X149026938Y-105799333D01*
X149031443Y-105799311D01*
X149051851Y-105808351D01*
X149083538Y-105828510D01*
X149123661Y-105857665D01*
X149169372Y-105893692D01*
X149217827Y-105934467D01*
X149266181Y-105977868D01*
X149334480Y-106045850D01*
X149393852Y-106116972D01*
X149442253Y-106191447D01*
X149482119Y-106273635D01*
X149515888Y-106367899D01*
X149545998Y-106478602D01*
X149548987Y-106490869D01*
X149573053Y-106581494D01*
X149597352Y-106656390D01*
X149623715Y-106720041D01*
X149653970Y-106776933D01*
X149689945Y-106831549D01*
X149712595Y-106860842D01*
X149759489Y-106914198D01*
X149816199Y-106972561D01*
X149878320Y-107031640D01*
X149941445Y-107087140D01*
X150001169Y-107134769D01*
X150038305Y-107163060D01*
X150062112Y-107183497D01*
X150075214Y-107199561D01*
X150080762Y-107215132D01*
X150081911Y-107234087D01*
X150076929Y-107269798D01*
X150060488Y-107322995D01*
X150033706Y-107388178D01*
X149997759Y-107462917D01*
X149953823Y-107544782D01*
X149903074Y-107631342D01*
X149846687Y-107720167D01*
X149827650Y-107748678D01*
X149690881Y-107936711D01*
X149536668Y-108122563D01*
X149367914Y-108303099D01*
X149187524Y-108475187D01*
X148998400Y-108635692D01*
X148878620Y-108727688D01*
X148643171Y-108889890D01*
X148394428Y-109038664D01*
X148135117Y-109172650D01*
X147957947Y-109250799D01*
X147939593Y-109258895D01*
G37*
G36*
X137456924Y-109670074D02*
G01*
X137459317Y-109672619D01*
X137460981Y-109680475D01*
X137444421Y-109682576D01*
X137439407Y-109682500D01*
X137426791Y-109679404D01*
X137431919Y-109670074D01*
X137442746Y-109662936D01*
X137456924Y-109670074D01*
G37*
G36*
X137402748Y-109677367D02*
G01*
X137397539Y-109682576D01*
X137392330Y-109677367D01*
X137397539Y-109672158D01*
X137402748Y-109677367D01*
G37*
G36*
X151684149Y-97576602D02*
G01*
X151745945Y-97577781D01*
X151793565Y-97579960D01*
X151824791Y-97583020D01*
X151837408Y-97586842D01*
X151842021Y-97590143D01*
X151863050Y-97595248D01*
X151893586Y-97597260D01*
X151928047Y-97598983D01*
X151988046Y-97606076D01*
X152061021Y-97617869D01*
X152143037Y-97633511D01*
X152230160Y-97652149D01*
X152318459Y-97672933D01*
X152403998Y-97695009D01*
X152482845Y-97717527D01*
X152551066Y-97739635D01*
X152551356Y-97739736D01*
X152587903Y-97752848D01*
X152632727Y-97769343D01*
X152681854Y-97787708D01*
X152731309Y-97806429D01*
X152777115Y-97823992D01*
X152815299Y-97838883D01*
X152841885Y-97849588D01*
X152852897Y-97854593D01*
X152853932Y-97860031D01*
X152842086Y-97868487D01*
X152820045Y-97875441D01*
X152793983Y-97878397D01*
X152784689Y-97878777D01*
X152746197Y-97883379D01*
X152693858Y-97892395D01*
X152632253Y-97904819D01*
X152565964Y-97919642D01*
X152499573Y-97935856D01*
X152437661Y-97952454D01*
X152384810Y-97968426D01*
X152217626Y-98030675D01*
X152036942Y-98117306D01*
X151869076Y-98220100D01*
X151713537Y-98339441D01*
X151569831Y-98475713D01*
X151437466Y-98629299D01*
X151315950Y-98800583D01*
X151282234Y-98854735D01*
X151211482Y-98983651D01*
X151149556Y-99120781D01*
X151094709Y-99270231D01*
X151045190Y-99436104D01*
X151043769Y-99441280D01*
X151022793Y-99507084D01*
X150995617Y-99578485D01*
X150965028Y-99649024D01*
X150933811Y-99712242D01*
X150904754Y-99761678D01*
X150897816Y-99772599D01*
X150890294Y-99790246D01*
X150897221Y-99793231D01*
X150918370Y-99781582D01*
X150953515Y-99755331D01*
X150955241Y-99753947D01*
X150989520Y-99722517D01*
X151019220Y-99686072D01*
X151045504Y-99641997D01*
X151069537Y-99587679D01*
X151092482Y-99520504D01*
X151115503Y-99437858D01*
X151139765Y-99337129D01*
X151151586Y-99291961D01*
X151166974Y-99243153D01*
X151181956Y-99203898D01*
X151190025Y-99186902D01*
X151215839Y-99139553D01*
X151250062Y-99082832D01*
X151289617Y-99021572D01*
X151331426Y-98960606D01*
X151372412Y-98904766D01*
X151391131Y-98881030D01*
X151460330Y-98802978D01*
X151536840Y-98729286D01*
X151617149Y-98662711D01*
X151697745Y-98606008D01*
X151775117Y-98561935D01*
X151845751Y-98533247D01*
X151862407Y-98528237D01*
X151894645Y-98519659D01*
X151917279Y-98517161D01*
X151937675Y-98520502D01*
X151963200Y-98529446D01*
X151973371Y-98533585D01*
X152029831Y-98563431D01*
X152096391Y-98608084D01*
X152171253Y-98665854D01*
X152252623Y-98735049D01*
X152338704Y-98813978D01*
X152427699Y-98900951D01*
X152517812Y-98994276D01*
X152607248Y-99092262D01*
X152694209Y-99193219D01*
X152776899Y-99295455D01*
X152784358Y-99305081D01*
X152842370Y-99384532D01*
X152904686Y-99476848D01*
X152968393Y-99577197D01*
X153030576Y-99680744D01*
X153088322Y-99782655D01*
X153138715Y-99878096D01*
X153178843Y-99962232D01*
X153236498Y-100106546D01*
X153290803Y-100273718D01*
X153339558Y-100459045D01*
X153382886Y-100663039D01*
X153420908Y-100886215D01*
X153453744Y-101129090D01*
X153458005Y-101169923D01*
X153463873Y-101248626D01*
X153468357Y-101338892D01*
X153471458Y-101437126D01*
X153473172Y-101539733D01*
X153473498Y-101643118D01*
X153472434Y-101743687D01*
X153469978Y-101837845D01*
X153466128Y-101921997D01*
X153460882Y-101992550D01*
X153454238Y-102045907D01*
X153449760Y-102071418D01*
X153438733Y-102128205D01*
X153426502Y-102184948D01*
X153414056Y-102237557D01*
X153402391Y-102281942D01*
X153392498Y-102314011D01*
X153385369Y-102329676D01*
X153381026Y-102329855D01*
X153360506Y-102323918D01*
X153326467Y-102311131D01*
X153282298Y-102292804D01*
X153231391Y-102270246D01*
X153164975Y-102240598D01*
X153036088Y-102185940D01*
X152896366Y-102129823D01*
X152750026Y-102073774D01*
X152601284Y-102019321D01*
X152454355Y-101967993D01*
X152313457Y-101921318D01*
X152182804Y-101880823D01*
X152066612Y-101848038D01*
X152047958Y-101843012D01*
X152012079Y-101833143D01*
X151972846Y-101822192D01*
X151970280Y-101821470D01*
X151756614Y-101764793D01*
X151529588Y-101710721D01*
X151295622Y-101660561D01*
X151061132Y-101615614D01*
X150832539Y-101577186D01*
X150616258Y-101546580D01*
X150604611Y-101545115D01*
X150452861Y-101527207D01*
X150314455Y-101513457D01*
X150182888Y-101503447D01*
X150051652Y-101496758D01*
X149914242Y-101492969D01*
X149764151Y-101491661D01*
X149745693Y-101491647D01*
X149625341Y-101492214D01*
X149521443Y-101494174D01*
X149430179Y-101497850D01*
X149347728Y-101503560D01*
X149270270Y-101511624D01*
X149193986Y-101522361D01*
X149115054Y-101536093D01*
X149029655Y-101553137D01*
X149025426Y-101554034D01*
X148915925Y-101586918D01*
X148819881Y-101635688D01*
X148737044Y-101700540D01*
X148667164Y-101781668D01*
X148609990Y-101879266D01*
X148587462Y-101928271D01*
X148564675Y-101986110D01*
X148547943Y-102042546D01*
X148536457Y-102102008D01*
X148529408Y-102168924D01*
X148525989Y-102247722D01*
X148525391Y-102342830D01*
X148525715Y-102381306D01*
X148528279Y-102478530D01*
X148534146Y-102559973D01*
X148544431Y-102629323D01*
X148560248Y-102690265D01*
X148582715Y-102746486D01*
X148612946Y-102801674D01*
X148652058Y-102859516D01*
X148701165Y-102923697D01*
X148760082Y-102995598D01*
X148878130Y-103129278D01*
X149012083Y-103269523D01*
X149160156Y-103414655D01*
X149320562Y-103562995D01*
X149491515Y-103712866D01*
X149671229Y-103862588D01*
X149857916Y-104010484D01*
X149909646Y-104050155D01*
X150145456Y-104223642D01*
X150375419Y-104380647D01*
X150598832Y-104520742D01*
X150814990Y-104643503D01*
X151023188Y-104748503D01*
X151222723Y-104835317D01*
X151305346Y-104867252D01*
X151402864Y-104901596D01*
X151488032Y-104926936D01*
X151564104Y-104944099D01*
X151634331Y-104953913D01*
X151701969Y-104957204D01*
X151742337Y-104956467D01*
X151796395Y-104951564D01*
X151847989Y-104941017D01*
X151899638Y-104923593D01*
X151953861Y-104898055D01*
X152013176Y-104863169D01*
X152080103Y-104817700D01*
X152157159Y-104760414D01*
X152246864Y-104690076D01*
X152309259Y-104641746D01*
X152370293Y-104598599D01*
X152420034Y-104568932D01*
X152460069Y-104551815D01*
X152491989Y-104546317D01*
X152510857Y-104548610D01*
X152548961Y-104558321D01*
X152595671Y-104573699D01*
X152645161Y-104592622D01*
X152691605Y-104612971D01*
X152729175Y-104632625D01*
X152760804Y-104653481D01*
X152781065Y-104673504D01*
X152788650Y-104693504D01*
X152788652Y-104703000D01*
X152784595Y-104735843D01*
X152775358Y-104787792D01*
X152761072Y-104858180D01*
X152741869Y-104946341D01*
X152717881Y-105051608D01*
X152715377Y-105062520D01*
X152707318Y-105098239D01*
X152697136Y-105143882D01*
X152686439Y-105192256D01*
X152682237Y-105211232D01*
X152647063Y-105361634D01*
X152609717Y-105507576D01*
X152571015Y-105646357D01*
X152531775Y-105775278D01*
X152492813Y-105891640D01*
X152454946Y-105992744D01*
X152418992Y-106075890D01*
X152407505Y-106099044D01*
X152386478Y-106135079D01*
X152360929Y-106169848D01*
X152327073Y-106208272D01*
X152281129Y-106255274D01*
X152277678Y-106258693D01*
X152180184Y-106347490D01*
X152063179Y-106440609D01*
X151926536Y-106538134D01*
X151770128Y-106640147D01*
X151593829Y-106746732D01*
X151397512Y-106857970D01*
X151181050Y-106973945D01*
X151171664Y-106978869D01*
X151106817Y-107013700D01*
X151037319Y-107052184D01*
X150970922Y-107089978D01*
X150915381Y-107122739D01*
X150846571Y-107164253D01*
X150768928Y-107210468D01*
X150706251Y-107246866D01*
X150657066Y-107274262D01*
X150619900Y-107293472D01*
X150593279Y-107305310D01*
X150575727Y-107310593D01*
X150575251Y-107310671D01*
X150549279Y-107312801D01*
X150510867Y-107313595D01*
X150468149Y-107312881D01*
X150390770Y-107310079D01*
X150139237Y-107055987D01*
X150081417Y-106997309D01*
X150001937Y-106915217D01*
X149935325Y-106843881D01*
X149880125Y-106781195D01*
X149834881Y-106725053D01*
X149798136Y-106673350D01*
X149768435Y-106623979D01*
X149744322Y-106574835D01*
X149724339Y-106523812D01*
X149707031Y-106468803D01*
X149690941Y-106407704D01*
X149675914Y-106353906D01*
X149630479Y-106232668D01*
X149566816Y-106102318D01*
X149485092Y-105963216D01*
X149391597Y-105825534D01*
X149271457Y-105669386D01*
X149132327Y-105506738D01*
X148974527Y-105337886D01*
X148798374Y-105163126D01*
X148604189Y-104982752D01*
X148392288Y-104797060D01*
X148162993Y-104606346D01*
X147916620Y-104410905D01*
X147653489Y-104211032D01*
X147373919Y-104007023D01*
X147373024Y-104006382D01*
X147256395Y-103923234D01*
X147153915Y-103851161D01*
X147063093Y-103788735D01*
X146981436Y-103734526D01*
X146906452Y-103687106D01*
X146835648Y-103645047D01*
X146766533Y-103606919D01*
X146696613Y-103571294D01*
X146623396Y-103536743D01*
X146544390Y-103501837D01*
X146457103Y-103465148D01*
X146359042Y-103425246D01*
X146253575Y-103381007D01*
X146090376Y-103303995D01*
X145940795Y-103221383D01*
X145800340Y-103130610D01*
X145664520Y-103029113D01*
X145643140Y-103011531D01*
X145592095Y-102966930D01*
X145531860Y-102911712D01*
X145465663Y-102849033D01*
X145396733Y-102782050D01*
X145328300Y-102713921D01*
X145263592Y-102647801D01*
X145205840Y-102586847D01*
X145158271Y-102534216D01*
X145070672Y-102433887D01*
X145070672Y-102256870D01*
X145072157Y-102141487D01*
X145080367Y-101945820D01*
X145095331Y-101738386D01*
X145116564Y-101523874D01*
X145143578Y-101306975D01*
X145175888Y-101092380D01*
X145213006Y-100884780D01*
X145218122Y-100858464D01*
X145230856Y-100793283D01*
X145241037Y-100742109D01*
X145249703Y-100700132D01*
X145257891Y-100662541D01*
X145266640Y-100624526D01*
X145276987Y-100581275D01*
X145289969Y-100527978D01*
X145300143Y-100486848D01*
X145381390Y-100189300D01*
X145472259Y-99906943D01*
X145572454Y-99640465D01*
X145681678Y-99390550D01*
X145799634Y-99157883D01*
X145926027Y-98943149D01*
X146060560Y-98747035D01*
X146081715Y-98719345D01*
X146149659Y-98638067D01*
X146227679Y-98553715D01*
X146311513Y-98470414D01*
X146396900Y-98392290D01*
X146479580Y-98323467D01*
X146555291Y-98268071D01*
X146567644Y-98259853D01*
X146777496Y-98131038D01*
X146993609Y-98018850D01*
X147218684Y-97922123D01*
X147455421Y-97839689D01*
X147706522Y-97770380D01*
X147779859Y-97753422D01*
X148007652Y-97711098D01*
X148248351Y-97680774D01*
X148498799Y-97662551D01*
X148755839Y-97656529D01*
X149016315Y-97662806D01*
X149277070Y-97681484D01*
X149534946Y-97712660D01*
X149599458Y-97722187D01*
X149690685Y-97735971D01*
X149763311Y-97747408D01*
X149818626Y-97756703D01*
X149857916Y-97764061D01*
X149875518Y-97767635D01*
X149917122Y-97776051D01*
X149967515Y-97786218D01*
X150019401Y-97796662D01*
X150052120Y-97803266D01*
X150099840Y-97812990D01*
X150139638Y-97821204D01*
X150165258Y-97826625D01*
X150166169Y-97826824D01*
X150195401Y-97833228D01*
X150236086Y-97842156D01*
X150279713Y-97851740D01*
X150287821Y-97853551D01*
X150335915Y-97866133D01*
X150364021Y-97877666D01*
X150372840Y-97888547D01*
X150363073Y-97899177D01*
X150332946Y-97918198D01*
X150286261Y-97951692D01*
X150231753Y-97993827D01*
X150173320Y-98041413D01*
X150114864Y-98091261D01*
X150060285Y-98140182D01*
X150013482Y-98184989D01*
X150009078Y-98189429D01*
X149965851Y-98235589D01*
X149921285Y-98287232D01*
X149877574Y-98341373D01*
X149836913Y-98395029D01*
X149801497Y-98445213D01*
X149773522Y-98488942D01*
X149755181Y-98523229D01*
X149748671Y-98545092D01*
X149749335Y-98546794D01*
X149758951Y-98542456D01*
X149777606Y-98525446D01*
X149802219Y-98498450D01*
X149826862Y-98470473D01*
X149878827Y-98414870D01*
X149939655Y-98352918D01*
X150005546Y-98288255D01*
X150072702Y-98224523D01*
X150137324Y-98165363D01*
X150195611Y-98114416D01*
X150243765Y-98075321D01*
X150261432Y-98061910D01*
X150422259Y-97948364D01*
X150580676Y-97852692D01*
X150740223Y-97773107D01*
X150904440Y-97707825D01*
X151076866Y-97655059D01*
X151109429Y-97646783D01*
X151176929Y-97631440D01*
X151245461Y-97617884D01*
X151309743Y-97607048D01*
X151364495Y-97599862D01*
X151404435Y-97597260D01*
X151412357Y-97597070D01*
X151438267Y-97593502D01*
X151451928Y-97586842D01*
X151456478Y-97584640D01*
X151479667Y-97581225D01*
X151520239Y-97578637D01*
X151575979Y-97576997D01*
X151644668Y-97576423D01*
X151684149Y-97576602D01*
G37*
G36*
X145855709Y-106422746D02*
G01*
X145932664Y-106448396D01*
X146002777Y-106490877D01*
X146069683Y-106551609D01*
X146120306Y-106615630D01*
X146163000Y-106698643D01*
X146187156Y-106787476D01*
X146192376Y-106879427D01*
X146178265Y-106971793D01*
X146144427Y-107061872D01*
X146123662Y-107099132D01*
X146065600Y-107173512D01*
X145993171Y-107233463D01*
X145907666Y-107278039D01*
X145810377Y-107306296D01*
X145793158Y-107309519D01*
X145758612Y-107314541D01*
X145729029Y-107315149D01*
X145696016Y-107311131D01*
X145651180Y-107302274D01*
X145617534Y-107293870D01*
X145527641Y-107257486D01*
X145448471Y-107203964D01*
X145381990Y-107134840D01*
X145330166Y-107051649D01*
X145320453Y-107031505D01*
X145308279Y-107003340D01*
X145300719Y-106977922D01*
X145296697Y-106949356D01*
X145295133Y-106911746D01*
X145294948Y-106859196D01*
X145295073Y-106831403D01*
X145296063Y-106786505D01*
X145298925Y-106753699D01*
X145304726Y-106727092D01*
X145314533Y-106700792D01*
X145329414Y-106668906D01*
X145347014Y-106636104D01*
X145402159Y-106560440D01*
X145469984Y-106497255D01*
X145546636Y-106450429D01*
X145586640Y-106433237D01*
X145622349Y-106422503D01*
X145662128Y-106416361D01*
X145714351Y-106412937D01*
X145768280Y-106412509D01*
X145855709Y-106422746D01*
G37*
G36*
X147951482Y-105145835D02*
G01*
X148041970Y-105169757D01*
X148123423Y-105210955D01*
X148194012Y-105267877D01*
X148251908Y-105338971D01*
X148295282Y-105422684D01*
X148322306Y-105517466D01*
X148328439Y-105571624D01*
X148322915Y-105660279D01*
X148299436Y-105745662D01*
X148259785Y-105825137D01*
X148205744Y-105896068D01*
X148139094Y-105955817D01*
X148061617Y-106001749D01*
X147975094Y-106031228D01*
X147910965Y-106040854D01*
X147818447Y-106038208D01*
X147729509Y-106016863D01*
X147646640Y-105978081D01*
X147572333Y-105923125D01*
X147509078Y-105853260D01*
X147459368Y-105769748D01*
X147456310Y-105763165D01*
X147444563Y-105735358D01*
X147437041Y-105709697D01*
X147432840Y-105680438D01*
X147431057Y-105641838D01*
X147430788Y-105588154D01*
X147430812Y-105581427D01*
X147431555Y-105529234D01*
X147433891Y-105491451D01*
X147438740Y-105462285D01*
X147447024Y-105435943D01*
X147459665Y-105406630D01*
X147480953Y-105365447D01*
X147537542Y-105286727D01*
X147606917Y-105223946D01*
X147687679Y-105177996D01*
X147778424Y-105149771D01*
X147877752Y-105140164D01*
X147951482Y-105145835D01*
G37*
G36*
X145407265Y-102995987D02*
G01*
X145432220Y-103009640D01*
X145470132Y-103035169D01*
X145519252Y-103071367D01*
X145577831Y-103117024D01*
X145647701Y-103172000D01*
X145752554Y-103251705D01*
X145850088Y-103322388D01*
X145938737Y-103382991D01*
X146016935Y-103432458D01*
X146083118Y-103469731D01*
X146135719Y-103493752D01*
X146136217Y-103493940D01*
X146166181Y-103505434D01*
X146190648Y-103515155D01*
X146201352Y-103519173D01*
X146230232Y-103529269D01*
X146270090Y-103542758D01*
X146315668Y-103557846D01*
X146337702Y-103565339D01*
X146442911Y-103607552D01*
X146561383Y-103664640D01*
X146692439Y-103736218D01*
X146835404Y-103821902D01*
X146989599Y-103921308D01*
X147154348Y-104034050D01*
X147180515Y-104052443D01*
X147238675Y-104093649D01*
X147282737Y-104125977D01*
X147314863Y-104151649D01*
X147337211Y-104172886D01*
X147351943Y-104191909D01*
X147361218Y-104210939D01*
X147367196Y-104232199D01*
X147372038Y-104257909D01*
X147372822Y-104262640D01*
X147378271Y-104312960D01*
X147381634Y-104377767D01*
X147382953Y-104451481D01*
X147382269Y-104528522D01*
X147379622Y-104603310D01*
X147375054Y-104670264D01*
X147368605Y-104723805D01*
X147346015Y-104838113D01*
X147298531Y-105000861D01*
X147234411Y-105152030D01*
X147152834Y-105293183D01*
X147052980Y-105425882D01*
X146934029Y-105551690D01*
X146852992Y-105624171D01*
X146732591Y-105714702D01*
X146604925Y-105790617D01*
X146467767Y-105852882D01*
X146318889Y-105902464D01*
X146156066Y-105940331D01*
X145977071Y-105967451D01*
X145939101Y-105970357D01*
X145865537Y-105970555D01*
X145781352Y-105965719D01*
X145692318Y-105956372D01*
X145604201Y-105943037D01*
X145522772Y-105926238D01*
X145477014Y-105914367D01*
X145318785Y-105859992D01*
X145167905Y-105787611D01*
X145025825Y-105698749D01*
X144893994Y-105594934D01*
X144773861Y-105477690D01*
X144666875Y-105348543D01*
X144574485Y-105209020D01*
X144498142Y-105060647D01*
X144439294Y-104904950D01*
X144399390Y-104743454D01*
X144391415Y-104685192D01*
X144385638Y-104603899D01*
X144383519Y-104513057D01*
X144385061Y-104418536D01*
X144390267Y-104326206D01*
X144399140Y-104241938D01*
X144416640Y-104137387D01*
X144457009Y-103973402D01*
X144511311Y-103817164D01*
X144577957Y-103673724D01*
X144633014Y-103580733D01*
X144723935Y-103456194D01*
X144829033Y-103339217D01*
X144944934Y-103233117D01*
X145068264Y-103141211D01*
X145195646Y-103066814D01*
X145216237Y-103056735D01*
X145272202Y-103031907D01*
X145324714Y-103012004D01*
X145368865Y-102998777D01*
X145399745Y-102993979D01*
X145407265Y-102995987D01*
G37*
G36*
X143600139Y-105010471D02*
G01*
X143646642Y-105019590D01*
X143676156Y-105026770D01*
X143752891Y-105053488D01*
X143818693Y-105091084D01*
X143880278Y-105143108D01*
X143916435Y-105182802D01*
X143967246Y-105260727D01*
X143999979Y-105345048D01*
X144014590Y-105433142D01*
X144011036Y-105522383D01*
X143989270Y-105610149D01*
X143949250Y-105693815D01*
X143890929Y-105770758D01*
X143835085Y-105821886D01*
X143761663Y-105869118D01*
X143685029Y-105899406D01*
X143642222Y-105906549D01*
X143586830Y-105909667D01*
X143527276Y-105908809D01*
X143471712Y-105904092D01*
X143428293Y-105895637D01*
X143365366Y-105870503D01*
X143290480Y-105822792D01*
X143224554Y-105760674D01*
X143171169Y-105687658D01*
X143133907Y-105607251D01*
X143118507Y-105546660D01*
X143111964Y-105454911D01*
X143123627Y-105362927D01*
X143152804Y-105275108D01*
X143198799Y-105195856D01*
X143247176Y-105139220D01*
X143318521Y-105081477D01*
X143401415Y-105040232D01*
X143497653Y-105014394D01*
X143527602Y-105009659D01*
X143563722Y-105007275D01*
X143600139Y-105010471D01*
G37*
G36*
X143978666Y-102536899D02*
G01*
X144052680Y-102561490D01*
X144126459Y-102602850D01*
X144148887Y-102618481D01*
X144200534Y-102663177D01*
X144242744Y-102716029D01*
X144280921Y-102783356D01*
X144285670Y-102793099D01*
X144300176Y-102827008D01*
X144309312Y-102859532D01*
X144314729Y-102898078D01*
X144318078Y-102950050D01*
X144318339Y-102955771D01*
X144319618Y-103007367D01*
X144317552Y-103046568D01*
X144311333Y-103080962D01*
X144300151Y-103118135D01*
X144296317Y-103128989D01*
X144255087Y-103213478D01*
X144198611Y-103287276D01*
X144129567Y-103347970D01*
X144050634Y-103393149D01*
X143964488Y-103420403D01*
X143925499Y-103426321D01*
X143831413Y-103426592D01*
X143740461Y-103407979D01*
X143655414Y-103371853D01*
X143579040Y-103319587D01*
X143514111Y-103252555D01*
X143463397Y-103172127D01*
X143453075Y-103150757D01*
X143442119Y-103124718D01*
X143435275Y-103100029D01*
X143431579Y-103071144D01*
X143430068Y-103032515D01*
X143429778Y-102978598D01*
X143429879Y-102942273D01*
X143430874Y-102898443D01*
X143433741Y-102866224D01*
X143439442Y-102839969D01*
X143448943Y-102814029D01*
X143463207Y-102782758D01*
X143482083Y-102747350D01*
X143536965Y-102673083D01*
X143605102Y-102610849D01*
X143682376Y-102564743D01*
X143709741Y-102552980D01*
X143749682Y-102539842D01*
X143792245Y-102532190D01*
X143846513Y-102527991D01*
X143897977Y-102527357D01*
X143978666Y-102536899D01*
G37*
G36*
X153510876Y-98421482D02*
G01*
X153521882Y-98436296D01*
X153538249Y-98464992D01*
X153558054Y-98503598D01*
X153579374Y-98548143D01*
X153600288Y-98594656D01*
X153618873Y-98639163D01*
X153633207Y-98677693D01*
X153638050Y-98692192D01*
X153681837Y-98846477D01*
X153711983Y-99005078D01*
X153719449Y-99064695D01*
X153726734Y-99233195D01*
X153714604Y-99403067D01*
X153683722Y-99571904D01*
X153634750Y-99737304D01*
X153568351Y-99896862D01*
X153485187Y-100048172D01*
X153385921Y-100188831D01*
X153363121Y-100216173D01*
X153344604Y-100235971D01*
X153334712Y-100243528D01*
X153333056Y-100242168D01*
X153326362Y-100226371D01*
X153317580Y-100196602D01*
X153308167Y-100157576D01*
X153273307Y-100023513D01*
X153210262Y-99846115D01*
X153130456Y-99676663D01*
X153035617Y-99519202D01*
X153010550Y-99481640D01*
X152988362Y-99447147D01*
X152973332Y-99422317D01*
X152967801Y-99410890D01*
X152967801Y-99410881D01*
X152976031Y-99401603D01*
X152997550Y-99385277D01*
X153027707Y-99365431D01*
X153071041Y-99336759D01*
X153176334Y-99250486D01*
X153269215Y-99149662D01*
X153348306Y-99036781D01*
X153412224Y-98914333D01*
X153459589Y-98784812D01*
X153489021Y-98650709D01*
X153499138Y-98514517D01*
X153499385Y-98493188D01*
X153501222Y-98455793D01*
X153504460Y-98429955D01*
X153508631Y-98420312D01*
X153510876Y-98421482D01*
G37*
G36*
X181534215Y-119290018D02*
G01*
X181590798Y-119321303D01*
X181812730Y-119483478D01*
X181992892Y-119683762D01*
X182126075Y-119915332D01*
X182207068Y-120171364D01*
X182222812Y-120309746D01*
X182200623Y-120525452D01*
X182123815Y-120733986D01*
X181995708Y-120930651D01*
X181819621Y-121110752D01*
X181598876Y-121269590D01*
X181336792Y-121402470D01*
X181319105Y-121409664D01*
X181202550Y-121451183D01*
X181048994Y-121499353D01*
X180876354Y-121548765D01*
X180702545Y-121594008D01*
X180633142Y-121611153D01*
X180489843Y-121647270D01*
X180373341Y-121677618D01*
X180294161Y-121699421D01*
X180262828Y-121709907D01*
X180264224Y-121711743D01*
X180303313Y-121725889D01*
X180387510Y-121750229D01*
X180506590Y-121781910D01*
X180650332Y-121818078D01*
X180688072Y-121827413D01*
X180990161Y-121909132D01*
X181241901Y-121992359D01*
X181451934Y-122081217D01*
X181628901Y-122179826D01*
X181781442Y-122292308D01*
X181918200Y-122422785D01*
X181994328Y-122512226D01*
X182120260Y-122721192D01*
X182188100Y-122944952D01*
X182197499Y-123181988D01*
X182148112Y-123430776D01*
X182106448Y-123546328D01*
X181981920Y-123773893D01*
X181814938Y-123959826D01*
X181607411Y-124102659D01*
X181361252Y-124200923D01*
X181078369Y-124253149D01*
X181042152Y-124255880D01*
X180925864Y-124261016D01*
X180761452Y-124265365D01*
X180556984Y-124268924D01*
X180320524Y-124271688D01*
X180060140Y-124273653D01*
X179783896Y-124274815D01*
X179499858Y-124275170D01*
X179216094Y-124274714D01*
X178940668Y-124273443D01*
X178681646Y-124271352D01*
X178447095Y-124268439D01*
X178245080Y-124264698D01*
X178083667Y-124260125D01*
X177970922Y-124254717D01*
X177965647Y-124254356D01*
X177765599Y-124235197D01*
X177611514Y-124205803D01*
X177489847Y-124161247D01*
X177387052Y-124096603D01*
X177289583Y-124006945D01*
X177284925Y-124002042D01*
X177164317Y-123836957D01*
X177094214Y-123647800D01*
X177071532Y-123426359D01*
X177072655Y-123373143D01*
X177106225Y-123155654D01*
X177188096Y-122972689D01*
X177320471Y-122820538D01*
X177505556Y-122695486D01*
X177655674Y-122615721D01*
X178646454Y-122606130D01*
X179637234Y-122596540D01*
X179185105Y-122423894D01*
X179183925Y-122423443D01*
X178962318Y-122337278D01*
X178790121Y-122266003D01*
X178659862Y-122205398D01*
X178564071Y-122151239D01*
X178495274Y-122099305D01*
X178446001Y-122045374D01*
X178408779Y-121985224D01*
X178373051Y-121897295D01*
X178345845Y-121730642D01*
X178361615Y-121563275D01*
X178419934Y-121416948D01*
X178424319Y-121409963D01*
X178471217Y-121349325D01*
X178534644Y-121296161D01*
X178627896Y-121241125D01*
X178764267Y-121174868D01*
X178799776Y-121158673D01*
X178969465Y-121084946D01*
X179153202Y-121009605D01*
X179317006Y-120946675D01*
X179597250Y-120844326D01*
X178626462Y-120829202D01*
X178539175Y-120827835D01*
X178272431Y-120823250D01*
X178056697Y-120818038D01*
X177884965Y-120811048D01*
X177750223Y-120801129D01*
X177645460Y-120787129D01*
X177563668Y-120767896D01*
X177497833Y-120742280D01*
X177440948Y-120709129D01*
X177386000Y-120667292D01*
X177325979Y-120615617D01*
X177297621Y-120589428D01*
X177171832Y-120426347D01*
X177096197Y-120230730D01*
X177071166Y-120003664D01*
X177071558Y-119976204D01*
X177104345Y-119749736D01*
X177188684Y-119552689D01*
X177322959Y-119387836D01*
X177505556Y-119257948D01*
X177519908Y-119250287D01*
X177545413Y-119238129D01*
X177574693Y-119227827D01*
X177612438Y-119219227D01*
X177663338Y-119212174D01*
X177732081Y-119206517D01*
X177823358Y-119202100D01*
X177941856Y-119198771D01*
X178092267Y-119196375D01*
X178279278Y-119194760D01*
X178507579Y-119193771D01*
X178781859Y-119193254D01*
X179106809Y-119193057D01*
X179487116Y-119193026D01*
X181348582Y-119193026D01*
X181534215Y-119290018D01*
G37*
G36*
X186988880Y-119182298D02*
G01*
X187170307Y-119226718D01*
X187381191Y-119327004D01*
X187556237Y-119471200D01*
X187694010Y-119655858D01*
X187793071Y-119877528D01*
X187851983Y-120132761D01*
X187869309Y-120418108D01*
X187843612Y-120730120D01*
X187773456Y-121065347D01*
X187672027Y-121374376D01*
X187514921Y-121699549D01*
X187316923Y-121981517D01*
X187077178Y-122221463D01*
X186794834Y-122420567D01*
X186719331Y-122466867D01*
X186583724Y-122557775D01*
X186461942Y-122648303D01*
X186373495Y-122724385D01*
X186287232Y-122820749D01*
X186216263Y-122943187D01*
X186178672Y-123085947D01*
X186167544Y-123267257D01*
X186167212Y-123299575D01*
X186138966Y-123560065D01*
X186065422Y-123781673D01*
X185946863Y-123963949D01*
X185783571Y-124106443D01*
X185575830Y-124208705D01*
X185519403Y-124224131D01*
X185402997Y-124242718D01*
X185281679Y-124250398D01*
X185222796Y-124248752D01*
X185018797Y-124207952D01*
X184832925Y-124111335D01*
X184661895Y-123957346D01*
X184648655Y-123942397D01*
X184556156Y-123817121D01*
X184496875Y-123684588D01*
X184465285Y-123527985D01*
X184455861Y-123330499D01*
X184454735Y-123261123D01*
X184438884Y-123095743D01*
X184399225Y-122956664D01*
X184329291Y-122834369D01*
X184222613Y-122719340D01*
X184072724Y-122602058D01*
X183873155Y-122473006D01*
X183850175Y-122458888D01*
X183593324Y-122281634D01*
X183384436Y-122094640D01*
X183212373Y-121886494D01*
X183065998Y-121645781D01*
X183043858Y-121603006D01*
X182915766Y-121313965D01*
X182829088Y-121025453D01*
X182779574Y-120719706D01*
X182762975Y-120378960D01*
X182765980Y-120181467D01*
X182782277Y-119987664D01*
X182816187Y-119830675D01*
X182871697Y-119698292D01*
X182952791Y-119578305D01*
X183063456Y-119458506D01*
X183071995Y-119450229D01*
X183235558Y-119317245D01*
X183406190Y-119232049D01*
X183598454Y-119189408D01*
X183826911Y-119184088D01*
X183846217Y-119185010D01*
X183978585Y-119194964D01*
X184078275Y-119213531D01*
X184169698Y-119247107D01*
X184277266Y-119302089D01*
X184366831Y-119357058D01*
X184543887Y-119506322D01*
X184683574Y-119683520D01*
X184774567Y-119875588D01*
X184777217Y-119884059D01*
X184796704Y-119966485D01*
X184812355Y-120076688D01*
X184824883Y-120222734D01*
X184835002Y-120412688D01*
X184843424Y-120654617D01*
X184844191Y-120681051D01*
X184850644Y-120885551D01*
X184857093Y-121039703D01*
X184864533Y-121152219D01*
X184873963Y-121231811D01*
X184886379Y-121287193D01*
X184902777Y-121327076D01*
X184924156Y-121360172D01*
X184942702Y-121384008D01*
X185067449Y-121498857D01*
X185206184Y-121563175D01*
X185348957Y-121577420D01*
X185485819Y-121542052D01*
X185606820Y-121457528D01*
X185702010Y-121324308D01*
X185718291Y-121288415D01*
X185735186Y-121236154D01*
X185748029Y-121169296D01*
X185757730Y-121078754D01*
X185765197Y-120955436D01*
X185771340Y-120790252D01*
X185777069Y-120574113D01*
X185780678Y-120426724D01*
X185785838Y-120250549D01*
X185791775Y-120118240D01*
X185799672Y-120020116D01*
X185810711Y-119946493D01*
X185826072Y-119887690D01*
X185846938Y-119834024D01*
X185874490Y-119775813D01*
X185946621Y-119649753D01*
X186104026Y-119460870D01*
X186294654Y-119315582D01*
X186510805Y-119217990D01*
X186744780Y-119172195D01*
X186988880Y-119182298D01*
G37*
G36*
X175691103Y-119187983D02*
G01*
X175930031Y-119235975D01*
X176133538Y-119332440D01*
X176301586Y-119477357D01*
X176434139Y-119670701D01*
X176514776Y-119823522D01*
X176523925Y-121624941D01*
X176525237Y-121896800D01*
X176526573Y-122237803D01*
X176527184Y-122527089D01*
X176526970Y-122769556D01*
X176525832Y-122970105D01*
X176523671Y-123133634D01*
X176520388Y-123265045D01*
X176515883Y-123369236D01*
X176510057Y-123451107D01*
X176502810Y-123515559D01*
X176494044Y-123567489D01*
X176483659Y-123611800D01*
X176454045Y-123702146D01*
X176349741Y-123891074D01*
X176202194Y-124044180D01*
X176018964Y-124154710D01*
X175807608Y-124215908D01*
X175791427Y-124218283D01*
X175547074Y-124226100D01*
X175317261Y-124182364D01*
X175110074Y-124090585D01*
X174933598Y-123954269D01*
X174795919Y-123776927D01*
X174793202Y-123772298D01*
X174767123Y-123725933D01*
X174747159Y-123681558D01*
X174732199Y-123630314D01*
X174721130Y-123563343D01*
X174712841Y-123471784D01*
X174706221Y-123346779D01*
X174700157Y-123179468D01*
X174693539Y-122960993D01*
X174691898Y-122904615D01*
X174685908Y-122688685D01*
X174680498Y-122478485D01*
X174675993Y-122287586D01*
X174672717Y-122129562D01*
X174670994Y-122017984D01*
X174668322Y-121750508D01*
X174471019Y-122002973D01*
X174447825Y-122032853D01*
X174360420Y-122147376D01*
X174249092Y-122295245D01*
X174122287Y-122465155D01*
X173988454Y-122645804D01*
X173856040Y-122825886D01*
X173822577Y-122871500D01*
X173682001Y-123061482D01*
X173537096Y-123255045D01*
X173397736Y-123439127D01*
X173273796Y-123600665D01*
X173175151Y-123726596D01*
X173136005Y-123775489D01*
X173032294Y-123900985D01*
X172949665Y-123991424D01*
X172877254Y-124057009D01*
X172804197Y-124107944D01*
X172719633Y-124154432D01*
X172591061Y-124212563D01*
X172477976Y-124243399D01*
X172357292Y-124252009D01*
X172148436Y-124232984D01*
X171924764Y-124162957D01*
X171732924Y-124045260D01*
X171577740Y-123883938D01*
X171464034Y-123683035D01*
X171396631Y-123446594D01*
X171392948Y-123419763D01*
X171385123Y-123318615D01*
X171378967Y-123165929D01*
X171374462Y-122960290D01*
X171371589Y-122700282D01*
X171370331Y-122384492D01*
X171370669Y-122011505D01*
X171372585Y-121579905D01*
X171374029Y-121341679D01*
X171376279Y-121015563D01*
X171378679Y-120741240D01*
X171381407Y-120513678D01*
X171384640Y-120327844D01*
X171388556Y-120178706D01*
X171393332Y-120061230D01*
X171399146Y-119970384D01*
X171406175Y-119901135D01*
X171414597Y-119848451D01*
X171424589Y-119807299D01*
X171436329Y-119772646D01*
X171471756Y-119695404D01*
X171582563Y-119531415D01*
X171726912Y-119384655D01*
X171887432Y-119274314D01*
X171928127Y-119253596D01*
X172004394Y-119221949D01*
X172083512Y-119203687D01*
X172184526Y-119195294D01*
X172326478Y-119193253D01*
X172336888Y-119193258D01*
X172480674Y-119196092D01*
X172582894Y-119206002D01*
X172660837Y-119225755D01*
X172731797Y-119258118D01*
X172889405Y-119369779D01*
X173034974Y-119526092D01*
X173143140Y-119703428D01*
X173144704Y-119706837D01*
X173164040Y-119751774D01*
X173179467Y-119797633D01*
X173191572Y-119851803D01*
X173200940Y-119921675D01*
X173208155Y-120014639D01*
X173213802Y-120138085D01*
X173218466Y-120299403D01*
X173222733Y-120505984D01*
X173227187Y-120765216D01*
X173242199Y-121676886D01*
X173440964Y-121425736D01*
X173479231Y-121376829D01*
X173565256Y-121265145D01*
X173677425Y-121118134D01*
X173809784Y-120943652D01*
X173956380Y-120749553D01*
X174111259Y-120543692D01*
X174268469Y-120333924D01*
X174384262Y-120179998D01*
X174531796Y-119986458D01*
X174669053Y-119809213D01*
X174790963Y-119654670D01*
X174892457Y-119529239D01*
X174968467Y-119439330D01*
X175013923Y-119391352D01*
X175135070Y-119297460D01*
X175282379Y-119222282D01*
X175444685Y-119186701D01*
X175641354Y-119184327D01*
X175691103Y-119187983D01*
G37*
G36*
X168424201Y-119183343D02*
G01*
X168626154Y-119227625D01*
X168803149Y-119321761D01*
X168966464Y-119470825D01*
X169031660Y-119550763D01*
X169130284Y-119724494D01*
X169186302Y-119922822D01*
X169204019Y-120158194D01*
X169204037Y-120168293D01*
X169210473Y-120317354D01*
X169232763Y-120441753D01*
X169277109Y-120550280D01*
X169349716Y-120651727D01*
X169456788Y-120754884D01*
X169604527Y-120868542D01*
X169799139Y-121001493D01*
X170018644Y-121161598D01*
X170242644Y-121370926D01*
X170428119Y-121606906D01*
X170583133Y-121880091D01*
X170715750Y-122201035D01*
X170761081Y-122338050D01*
X170839931Y-122664399D01*
X170873165Y-122972238D01*
X170861857Y-123257577D01*
X170807084Y-123516432D01*
X170709918Y-123744815D01*
X170571436Y-123938739D01*
X170392713Y-124094218D01*
X170174822Y-124207265D01*
X170122804Y-124222851D01*
X169982212Y-124241247D01*
X169789480Y-124242556D01*
X169656246Y-124235761D01*
X169544359Y-124220993D01*
X169450962Y-124194214D01*
X169354137Y-124150804D01*
X169259602Y-124097611D01*
X169063434Y-123941761D01*
X168911327Y-123749292D01*
X168808751Y-123526466D01*
X168806283Y-123517195D01*
X168795509Y-123444619D01*
X168784506Y-123325272D01*
X168774018Y-123169850D01*
X168764794Y-122989051D01*
X168757580Y-122793571D01*
X168753535Y-122661074D01*
X168747289Y-122481314D01*
X168740764Y-122347374D01*
X168732846Y-122250351D01*
X168722422Y-122181340D01*
X168708376Y-122131437D01*
X168689596Y-122091737D01*
X168664966Y-122053336D01*
X168571843Y-121945827D01*
X168448313Y-121873173D01*
X168298209Y-121850118D01*
X168287885Y-121850216D01*
X168127603Y-121879545D01*
X167994980Y-121957329D01*
X167899670Y-122078046D01*
X167881948Y-122115698D01*
X167864895Y-122167049D01*
X167851826Y-122233120D01*
X167841778Y-122322975D01*
X167833786Y-122445678D01*
X167826886Y-122610294D01*
X167820114Y-122825886D01*
X167813637Y-123017302D01*
X167801752Y-123237465D01*
X167784405Y-123413085D01*
X167759289Y-123553159D01*
X167724096Y-123666685D01*
X167676519Y-123762662D01*
X167614251Y-123850087D01*
X167534985Y-123937958D01*
X167520339Y-123952708D01*
X167340253Y-124092982D01*
X167136109Y-124189216D01*
X166917615Y-124241851D01*
X166694479Y-124251323D01*
X166476410Y-124218071D01*
X166273115Y-124142534D01*
X166094302Y-124025150D01*
X165949681Y-123866358D01*
X165888010Y-123771058D01*
X165815996Y-123626925D01*
X165770810Y-123475206D01*
X165747983Y-123298920D01*
X165743045Y-123081087D01*
X165764308Y-122731263D01*
X165835051Y-122342108D01*
X165954579Y-121984937D01*
X166122258Y-121662111D01*
X166198337Y-121545815D01*
X166313303Y-121393672D01*
X166436921Y-121264287D01*
X166584690Y-121142150D01*
X166772104Y-121011754D01*
X166953509Y-120887092D01*
X167132002Y-120747649D01*
X167254004Y-120628300D01*
X167319480Y-120529078D01*
X167329638Y-120493187D01*
X167345708Y-120400972D01*
X167361093Y-120276580D01*
X167373518Y-120136549D01*
X167385870Y-120005352D01*
X167421715Y-119810094D01*
X167480209Y-119652173D01*
X167567083Y-119518062D01*
X167688070Y-119394237D01*
X167733010Y-119356867D01*
X167900854Y-119254417D01*
X168090843Y-119196408D01*
X168316164Y-119178307D01*
X168424201Y-119183343D01*
G37*
%LPC*%
D11*
X210000000Y-90000000D03*
X81000000Y-90000000D03*
D12*
X88800000Y-112170000D03*
X90300000Y-94070000D03*
X137700000Y-94070000D03*
X139200000Y-112170000D03*
X151800000Y-112170000D03*
X153300000Y-94070000D03*
X200700000Y-94070000D03*
X202200000Y-112170000D03*
D11*
X210000000Y-122000000D03*
X81000000Y-122000000D03*
%LPD*%
M02*
