G04 #@! TF.GenerationSoftware,KiCad,Pcbnew,7.0.8*
G04 #@! TF.CreationDate,2023-12-02T16:25:09-07:00*
G04 #@! TF.ProjectId,loadcelladapter,6c6f6164-6365-46c6-9c61-646170746572,v1*
G04 #@! TF.SameCoordinates,Original*
G04 #@! TF.FileFunction,Legend,Top*
G04 #@! TF.FilePolarity,Positive*
%FSLAX46Y46*%
G04 Gerber Fmt 4.6, Leading zero omitted, Abs format (unit mm)*
G04 Created by KiCad (PCBNEW 7.0.8) date 2023-12-02 16:25:09*
%MOMM*%
%LPD*%
G01*
G04 APERTURE LIST*
G04 Aperture macros list*
%AMRoundRect*
0 Rectangle with rounded corners*
0 $1 Rounding radius*
0 $2 $3 $4 $5 $6 $7 $8 $9 X,Y pos of 4 corners*
0 Add a 4 corners polygon primitive as box body*
4,1,4,$2,$3,$4,$5,$6,$7,$8,$9,$2,$3,0*
0 Add four circle primitives for the rounded corners*
1,1,$1+$1,$2,$3*
1,1,$1+$1,$4,$5*
1,1,$1+$1,$6,$7*
1,1,$1+$1,$8,$9*
0 Add four rect primitives between the rounded corners*
20,1,$1+$1,$2,$3,$4,$5,0*
20,1,$1+$1,$4,$5,$6,$7,0*
20,1,$1+$1,$6,$7,$8,$9,0*
20,1,$1+$1,$8,$9,$2,$3,0*%
G04 Aperture macros list end*
%ADD10C,0.150000*%
%ADD11C,0.120000*%
%ADD12C,0.152400*%
%ADD13C,0.508000*%
%ADD14C,2.500000*%
%ADD15C,1.200000*%
%ADD16RoundRect,0.250000X-0.725000X0.600000X-0.725000X-0.600000X0.725000X-0.600000X0.725000X0.600000X0*%
%ADD17O,1.950000X1.700000*%
%ADD18C,1.100000*%
G04 APERTURE END LIST*
D10*
X145269819Y-110163220D02*
X144269819Y-110163220D01*
X144269819Y-110163220D02*
X144984104Y-109829887D01*
X144984104Y-109829887D02*
X144269819Y-109496554D01*
X144269819Y-109496554D02*
X145269819Y-109496554D01*
X144365057Y-109067982D02*
X144317438Y-109020363D01*
X144317438Y-109020363D02*
X144269819Y-108925125D01*
X144269819Y-108925125D02*
X144269819Y-108687030D01*
X144269819Y-108687030D02*
X144317438Y-108591792D01*
X144317438Y-108591792D02*
X144365057Y-108544173D01*
X144365057Y-108544173D02*
X144460295Y-108496554D01*
X144460295Y-108496554D02*
X144555533Y-108496554D01*
X144555533Y-108496554D02*
X144698390Y-108544173D01*
X144698390Y-108544173D02*
X145269819Y-109115601D01*
X145269819Y-109115601D02*
X145269819Y-108496554D01*
X145174580Y-108067982D02*
X145222200Y-108020363D01*
X145222200Y-108020363D02*
X145269819Y-108067982D01*
X145269819Y-108067982D02*
X145222200Y-108115601D01*
X145222200Y-108115601D02*
X145174580Y-108067982D01*
X145174580Y-108067982D02*
X145269819Y-108067982D01*
X144269819Y-107115602D02*
X144269819Y-107591792D01*
X144269819Y-107591792D02*
X144746009Y-107639411D01*
X144746009Y-107639411D02*
X144698390Y-107591792D01*
X144698390Y-107591792D02*
X144650771Y-107496554D01*
X144650771Y-107496554D02*
X144650771Y-107258459D01*
X144650771Y-107258459D02*
X144698390Y-107163221D01*
X144698390Y-107163221D02*
X144746009Y-107115602D01*
X144746009Y-107115602D02*
X144841247Y-107067983D01*
X144841247Y-107067983D02*
X145079342Y-107067983D01*
X145079342Y-107067983D02*
X145174580Y-107115602D01*
X145174580Y-107115602D02*
X145222200Y-107163221D01*
X145222200Y-107163221D02*
X145269819Y-107258459D01*
X145269819Y-107258459D02*
X145269819Y-107496554D01*
X145269819Y-107496554D02*
X145222200Y-107591792D01*
X145222200Y-107591792D02*
X145174580Y-107639411D01*
X144159819Y-123906077D02*
X144159819Y-123334649D01*
X145159819Y-123620363D02*
X144159819Y-123620363D01*
X144636009Y-123001315D02*
X144636009Y-122667982D01*
X145159819Y-122525125D02*
X145159819Y-123001315D01*
X145159819Y-123001315D02*
X144159819Y-123001315D01*
X144159819Y-123001315D02*
X144159819Y-122525125D01*
X145159819Y-120858458D02*
X145159819Y-121334648D01*
X145159819Y-121334648D02*
X144159819Y-121334648D01*
X145159819Y-120382267D02*
X145112200Y-120477505D01*
X145112200Y-120477505D02*
X145064580Y-120525124D01*
X145064580Y-120525124D02*
X144969342Y-120572743D01*
X144969342Y-120572743D02*
X144683628Y-120572743D01*
X144683628Y-120572743D02*
X144588390Y-120525124D01*
X144588390Y-120525124D02*
X144540771Y-120477505D01*
X144540771Y-120477505D02*
X144493152Y-120382267D01*
X144493152Y-120382267D02*
X144493152Y-120239410D01*
X144493152Y-120239410D02*
X144540771Y-120144172D01*
X144540771Y-120144172D02*
X144588390Y-120096553D01*
X144588390Y-120096553D02*
X144683628Y-120048934D01*
X144683628Y-120048934D02*
X144969342Y-120048934D01*
X144969342Y-120048934D02*
X145064580Y-120096553D01*
X145064580Y-120096553D02*
X145112200Y-120144172D01*
X145112200Y-120144172D02*
X145159819Y-120239410D01*
X145159819Y-120239410D02*
X145159819Y-120382267D01*
X145159819Y-119191791D02*
X144636009Y-119191791D01*
X144636009Y-119191791D02*
X144540771Y-119239410D01*
X144540771Y-119239410D02*
X144493152Y-119334648D01*
X144493152Y-119334648D02*
X144493152Y-119525124D01*
X144493152Y-119525124D02*
X144540771Y-119620362D01*
X145112200Y-119191791D02*
X145159819Y-119287029D01*
X145159819Y-119287029D02*
X145159819Y-119525124D01*
X145159819Y-119525124D02*
X145112200Y-119620362D01*
X145112200Y-119620362D02*
X145016961Y-119667981D01*
X145016961Y-119667981D02*
X144921723Y-119667981D01*
X144921723Y-119667981D02*
X144826485Y-119620362D01*
X144826485Y-119620362D02*
X144778866Y-119525124D01*
X144778866Y-119525124D02*
X144778866Y-119287029D01*
X144778866Y-119287029D02*
X144731247Y-119191791D01*
X145159819Y-118287029D02*
X144159819Y-118287029D01*
X145112200Y-118287029D02*
X145159819Y-118382267D01*
X145159819Y-118382267D02*
X145159819Y-118572743D01*
X145159819Y-118572743D02*
X145112200Y-118667981D01*
X145112200Y-118667981D02*
X145064580Y-118715600D01*
X145064580Y-118715600D02*
X144969342Y-118763219D01*
X144969342Y-118763219D02*
X144683628Y-118763219D01*
X144683628Y-118763219D02*
X144588390Y-118715600D01*
X144588390Y-118715600D02*
X144540771Y-118667981D01*
X144540771Y-118667981D02*
X144493152Y-118572743D01*
X144493152Y-118572743D02*
X144493152Y-118382267D01*
X144493152Y-118382267D02*
X144540771Y-118287029D01*
X145064580Y-116477505D02*
X145112200Y-116525124D01*
X145112200Y-116525124D02*
X145159819Y-116667981D01*
X145159819Y-116667981D02*
X145159819Y-116763219D01*
X145159819Y-116763219D02*
X145112200Y-116906076D01*
X145112200Y-116906076D02*
X145016961Y-117001314D01*
X145016961Y-117001314D02*
X144921723Y-117048933D01*
X144921723Y-117048933D02*
X144731247Y-117096552D01*
X144731247Y-117096552D02*
X144588390Y-117096552D01*
X144588390Y-117096552D02*
X144397914Y-117048933D01*
X144397914Y-117048933D02*
X144302676Y-117001314D01*
X144302676Y-117001314D02*
X144207438Y-116906076D01*
X144207438Y-116906076D02*
X144159819Y-116763219D01*
X144159819Y-116763219D02*
X144159819Y-116667981D01*
X144159819Y-116667981D02*
X144207438Y-116525124D01*
X144207438Y-116525124D02*
X144255057Y-116477505D01*
X145112200Y-115667981D02*
X145159819Y-115763219D01*
X145159819Y-115763219D02*
X145159819Y-115953695D01*
X145159819Y-115953695D02*
X145112200Y-116048933D01*
X145112200Y-116048933D02*
X145016961Y-116096552D01*
X145016961Y-116096552D02*
X144636009Y-116096552D01*
X144636009Y-116096552D02*
X144540771Y-116048933D01*
X144540771Y-116048933D02*
X144493152Y-115953695D01*
X144493152Y-115953695D02*
X144493152Y-115763219D01*
X144493152Y-115763219D02*
X144540771Y-115667981D01*
X144540771Y-115667981D02*
X144636009Y-115620362D01*
X144636009Y-115620362D02*
X144731247Y-115620362D01*
X144731247Y-115620362D02*
X144826485Y-116096552D01*
X145159819Y-115048933D02*
X145112200Y-115144171D01*
X145112200Y-115144171D02*
X145016961Y-115191790D01*
X145016961Y-115191790D02*
X144159819Y-115191790D01*
X145159819Y-114525123D02*
X145112200Y-114620361D01*
X145112200Y-114620361D02*
X145016961Y-114667980D01*
X145016961Y-114667980D02*
X144159819Y-114667980D01*
X146674580Y-123191792D02*
X146722200Y-123239411D01*
X146722200Y-123239411D02*
X146769819Y-123382268D01*
X146769819Y-123382268D02*
X146769819Y-123477506D01*
X146769819Y-123477506D02*
X146722200Y-123620363D01*
X146722200Y-123620363D02*
X146626961Y-123715601D01*
X146626961Y-123715601D02*
X146531723Y-123763220D01*
X146531723Y-123763220D02*
X146341247Y-123810839D01*
X146341247Y-123810839D02*
X146198390Y-123810839D01*
X146198390Y-123810839D02*
X146007914Y-123763220D01*
X146007914Y-123763220D02*
X145912676Y-123715601D01*
X145912676Y-123715601D02*
X145817438Y-123620363D01*
X145817438Y-123620363D02*
X145769819Y-123477506D01*
X145769819Y-123477506D02*
X145769819Y-123382268D01*
X145769819Y-123382268D02*
X145817438Y-123239411D01*
X145817438Y-123239411D02*
X145865057Y-123191792D01*
X146769819Y-122334649D02*
X146246009Y-122334649D01*
X146246009Y-122334649D02*
X146150771Y-122382268D01*
X146150771Y-122382268D02*
X146103152Y-122477506D01*
X146103152Y-122477506D02*
X146103152Y-122667982D01*
X146103152Y-122667982D02*
X146150771Y-122763220D01*
X146722200Y-122334649D02*
X146769819Y-122429887D01*
X146769819Y-122429887D02*
X146769819Y-122667982D01*
X146769819Y-122667982D02*
X146722200Y-122763220D01*
X146722200Y-122763220D02*
X146626961Y-122810839D01*
X146626961Y-122810839D02*
X146531723Y-122810839D01*
X146531723Y-122810839D02*
X146436485Y-122763220D01*
X146436485Y-122763220D02*
X146388866Y-122667982D01*
X146388866Y-122667982D02*
X146388866Y-122429887D01*
X146388866Y-122429887D02*
X146341247Y-122334649D01*
X146769819Y-121858458D02*
X145769819Y-121858458D01*
X146150771Y-121858458D02*
X146103152Y-121763220D01*
X146103152Y-121763220D02*
X146103152Y-121572744D01*
X146103152Y-121572744D02*
X146150771Y-121477506D01*
X146150771Y-121477506D02*
X146198390Y-121429887D01*
X146198390Y-121429887D02*
X146293628Y-121382268D01*
X146293628Y-121382268D02*
X146579342Y-121382268D01*
X146579342Y-121382268D02*
X146674580Y-121429887D01*
X146674580Y-121429887D02*
X146722200Y-121477506D01*
X146722200Y-121477506D02*
X146769819Y-121572744D01*
X146769819Y-121572744D02*
X146769819Y-121763220D01*
X146769819Y-121763220D02*
X146722200Y-121858458D01*
X146769819Y-120810839D02*
X146722200Y-120906077D01*
X146722200Y-120906077D02*
X146626961Y-120953696D01*
X146626961Y-120953696D02*
X145769819Y-120953696D01*
X146722200Y-120048934D02*
X146769819Y-120144172D01*
X146769819Y-120144172D02*
X146769819Y-120334648D01*
X146769819Y-120334648D02*
X146722200Y-120429886D01*
X146722200Y-120429886D02*
X146626961Y-120477505D01*
X146626961Y-120477505D02*
X146246009Y-120477505D01*
X146246009Y-120477505D02*
X146150771Y-120429886D01*
X146150771Y-120429886D02*
X146103152Y-120334648D01*
X146103152Y-120334648D02*
X146103152Y-120144172D01*
X146103152Y-120144172D02*
X146150771Y-120048934D01*
X146150771Y-120048934D02*
X146246009Y-120001315D01*
X146246009Y-120001315D02*
X146341247Y-120001315D01*
X146341247Y-120001315D02*
X146436485Y-120477505D01*
X146484104Y-118858457D02*
X146484104Y-118382267D01*
X146769819Y-118953695D02*
X145769819Y-118620362D01*
X145769819Y-118620362D02*
X146769819Y-118287029D01*
X146769819Y-117525124D02*
X145769819Y-117525124D01*
X146722200Y-117525124D02*
X146769819Y-117620362D01*
X146769819Y-117620362D02*
X146769819Y-117810838D01*
X146769819Y-117810838D02*
X146722200Y-117906076D01*
X146722200Y-117906076D02*
X146674580Y-117953695D01*
X146674580Y-117953695D02*
X146579342Y-118001314D01*
X146579342Y-118001314D02*
X146293628Y-118001314D01*
X146293628Y-118001314D02*
X146198390Y-117953695D01*
X146198390Y-117953695D02*
X146150771Y-117906076D01*
X146150771Y-117906076D02*
X146103152Y-117810838D01*
X146103152Y-117810838D02*
X146103152Y-117620362D01*
X146103152Y-117620362D02*
X146150771Y-117525124D01*
X146769819Y-116620362D02*
X146246009Y-116620362D01*
X146246009Y-116620362D02*
X146150771Y-116667981D01*
X146150771Y-116667981D02*
X146103152Y-116763219D01*
X146103152Y-116763219D02*
X146103152Y-116953695D01*
X146103152Y-116953695D02*
X146150771Y-117048933D01*
X146722200Y-116620362D02*
X146769819Y-116715600D01*
X146769819Y-116715600D02*
X146769819Y-116953695D01*
X146769819Y-116953695D02*
X146722200Y-117048933D01*
X146722200Y-117048933D02*
X146626961Y-117096552D01*
X146626961Y-117096552D02*
X146531723Y-117096552D01*
X146531723Y-117096552D02*
X146436485Y-117048933D01*
X146436485Y-117048933D02*
X146388866Y-116953695D01*
X146388866Y-116953695D02*
X146388866Y-116715600D01*
X146388866Y-116715600D02*
X146341247Y-116620362D01*
X146103152Y-116144171D02*
X147103152Y-116144171D01*
X146150771Y-116144171D02*
X146103152Y-116048933D01*
X146103152Y-116048933D02*
X146103152Y-115858457D01*
X146103152Y-115858457D02*
X146150771Y-115763219D01*
X146150771Y-115763219D02*
X146198390Y-115715600D01*
X146198390Y-115715600D02*
X146293628Y-115667981D01*
X146293628Y-115667981D02*
X146579342Y-115667981D01*
X146579342Y-115667981D02*
X146674580Y-115715600D01*
X146674580Y-115715600D02*
X146722200Y-115763219D01*
X146722200Y-115763219D02*
X146769819Y-115858457D01*
X146769819Y-115858457D02*
X146769819Y-116048933D01*
X146769819Y-116048933D02*
X146722200Y-116144171D01*
X146103152Y-115382266D02*
X146103152Y-115001314D01*
X145769819Y-115239409D02*
X146626961Y-115239409D01*
X146626961Y-115239409D02*
X146722200Y-115191790D01*
X146722200Y-115191790D02*
X146769819Y-115096552D01*
X146769819Y-115096552D02*
X146769819Y-115001314D01*
X146722200Y-114287028D02*
X146769819Y-114382266D01*
X146769819Y-114382266D02*
X146769819Y-114572742D01*
X146769819Y-114572742D02*
X146722200Y-114667980D01*
X146722200Y-114667980D02*
X146626961Y-114715599D01*
X146626961Y-114715599D02*
X146246009Y-114715599D01*
X146246009Y-114715599D02*
X146150771Y-114667980D01*
X146150771Y-114667980D02*
X146103152Y-114572742D01*
X146103152Y-114572742D02*
X146103152Y-114382266D01*
X146103152Y-114382266D02*
X146150771Y-114287028D01*
X146150771Y-114287028D02*
X146246009Y-114239409D01*
X146246009Y-114239409D02*
X146341247Y-114239409D01*
X146341247Y-114239409D02*
X146436485Y-114715599D01*
X146769819Y-113810837D02*
X146103152Y-113810837D01*
X146293628Y-113810837D02*
X146198390Y-113763218D01*
X146198390Y-113763218D02*
X146150771Y-113715599D01*
X146150771Y-113715599D02*
X146103152Y-113620361D01*
X146103152Y-113620361D02*
X146103152Y-113525123D01*
X149222200Y-128010839D02*
X149269819Y-127915601D01*
X149269819Y-127915601D02*
X149269819Y-127725125D01*
X149269819Y-127725125D02*
X149222200Y-127629887D01*
X149222200Y-127629887D02*
X149126961Y-127582268D01*
X149126961Y-127582268D02*
X149079342Y-127582268D01*
X149079342Y-127582268D02*
X148984104Y-127629887D01*
X148984104Y-127629887D02*
X148936485Y-127725125D01*
X148936485Y-127725125D02*
X148936485Y-127867982D01*
X148936485Y-127867982D02*
X148888866Y-127963220D01*
X148888866Y-127963220D02*
X148793628Y-128010839D01*
X148793628Y-128010839D02*
X148746009Y-128010839D01*
X148746009Y-128010839D02*
X148650771Y-127963220D01*
X148650771Y-127963220D02*
X148603152Y-127867982D01*
X148603152Y-127867982D02*
X148603152Y-127725125D01*
X148603152Y-127725125D02*
X148650771Y-127629887D01*
X148603152Y-127248934D02*
X149269819Y-127010839D01*
X148603152Y-126772744D02*
X149269819Y-127010839D01*
X149269819Y-127010839D02*
X149507914Y-127106077D01*
X149507914Y-127106077D02*
X149555533Y-127153696D01*
X149555533Y-127153696D02*
X149603152Y-127248934D01*
X149222200Y-126439410D02*
X149269819Y-126344172D01*
X149269819Y-126344172D02*
X149269819Y-126153696D01*
X149269819Y-126153696D02*
X149222200Y-126058458D01*
X149222200Y-126058458D02*
X149126961Y-126010839D01*
X149126961Y-126010839D02*
X149079342Y-126010839D01*
X149079342Y-126010839D02*
X148984104Y-126058458D01*
X148984104Y-126058458D02*
X148936485Y-126153696D01*
X148936485Y-126153696D02*
X148936485Y-126296553D01*
X148936485Y-126296553D02*
X148888866Y-126391791D01*
X148888866Y-126391791D02*
X148793628Y-126439410D01*
X148793628Y-126439410D02*
X148746009Y-126439410D01*
X148746009Y-126439410D02*
X148650771Y-126391791D01*
X148650771Y-126391791D02*
X148603152Y-126296553D01*
X148603152Y-126296553D02*
X148603152Y-126153696D01*
X148603152Y-126153696D02*
X148650771Y-126058458D01*
X148603152Y-125725124D02*
X148603152Y-125344172D01*
X148269819Y-125582267D02*
X149126961Y-125582267D01*
X149126961Y-125582267D02*
X149222200Y-125534648D01*
X149222200Y-125534648D02*
X149269819Y-125439410D01*
X149269819Y-125439410D02*
X149269819Y-125344172D01*
X149222200Y-124629886D02*
X149269819Y-124725124D01*
X149269819Y-124725124D02*
X149269819Y-124915600D01*
X149269819Y-124915600D02*
X149222200Y-125010838D01*
X149222200Y-125010838D02*
X149126961Y-125058457D01*
X149126961Y-125058457D02*
X148746009Y-125058457D01*
X148746009Y-125058457D02*
X148650771Y-125010838D01*
X148650771Y-125010838D02*
X148603152Y-124915600D01*
X148603152Y-124915600D02*
X148603152Y-124725124D01*
X148603152Y-124725124D02*
X148650771Y-124629886D01*
X148650771Y-124629886D02*
X148746009Y-124582267D01*
X148746009Y-124582267D02*
X148841247Y-124582267D01*
X148841247Y-124582267D02*
X148936485Y-125058457D01*
X149269819Y-124153695D02*
X148603152Y-124153695D01*
X148698390Y-124153695D02*
X148650771Y-124106076D01*
X148650771Y-124106076D02*
X148603152Y-124010838D01*
X148603152Y-124010838D02*
X148603152Y-123867981D01*
X148603152Y-123867981D02*
X148650771Y-123772743D01*
X148650771Y-123772743D02*
X148746009Y-123725124D01*
X148746009Y-123725124D02*
X149269819Y-123725124D01*
X148746009Y-123725124D02*
X148650771Y-123677505D01*
X148650771Y-123677505D02*
X148603152Y-123582267D01*
X148603152Y-123582267D02*
X148603152Y-123439410D01*
X148603152Y-123439410D02*
X148650771Y-123344171D01*
X148650771Y-123344171D02*
X148746009Y-123296552D01*
X148746009Y-123296552D02*
X149269819Y-123296552D01*
X149222200Y-122867981D02*
X149269819Y-122772743D01*
X149269819Y-122772743D02*
X149269819Y-122582267D01*
X149269819Y-122582267D02*
X149222200Y-122487029D01*
X149222200Y-122487029D02*
X149126961Y-122439410D01*
X149126961Y-122439410D02*
X149079342Y-122439410D01*
X149079342Y-122439410D02*
X148984104Y-122487029D01*
X148984104Y-122487029D02*
X148936485Y-122582267D01*
X148936485Y-122582267D02*
X148936485Y-122725124D01*
X148936485Y-122725124D02*
X148888866Y-122820362D01*
X148888866Y-122820362D02*
X148793628Y-122867981D01*
X148793628Y-122867981D02*
X148746009Y-122867981D01*
X148746009Y-122867981D02*
X148650771Y-122820362D01*
X148650771Y-122820362D02*
X148603152Y-122725124D01*
X148603152Y-122725124D02*
X148603152Y-122582267D01*
X148603152Y-122582267D02*
X148650771Y-122487029D01*
X149222200Y-121296552D02*
X149269819Y-121201314D01*
X149269819Y-121201314D02*
X149269819Y-121010838D01*
X149269819Y-121010838D02*
X149222200Y-120915600D01*
X149222200Y-120915600D02*
X149126961Y-120867981D01*
X149126961Y-120867981D02*
X149079342Y-120867981D01*
X149079342Y-120867981D02*
X148984104Y-120915600D01*
X148984104Y-120915600D02*
X148936485Y-121010838D01*
X148936485Y-121010838D02*
X148936485Y-121153695D01*
X148936485Y-121153695D02*
X148888866Y-121248933D01*
X148888866Y-121248933D02*
X148793628Y-121296552D01*
X148793628Y-121296552D02*
X148746009Y-121296552D01*
X148746009Y-121296552D02*
X148650771Y-121248933D01*
X148650771Y-121248933D02*
X148603152Y-121153695D01*
X148603152Y-121153695D02*
X148603152Y-121010838D01*
X148603152Y-121010838D02*
X148650771Y-120915600D01*
X148603152Y-120582266D02*
X148603152Y-120201314D01*
X148269819Y-120439409D02*
X149126961Y-120439409D01*
X149126961Y-120439409D02*
X149222200Y-120391790D01*
X149222200Y-120391790D02*
X149269819Y-120296552D01*
X149269819Y-120296552D02*
X149269819Y-120201314D01*
X149269819Y-119439409D02*
X148746009Y-119439409D01*
X148746009Y-119439409D02*
X148650771Y-119487028D01*
X148650771Y-119487028D02*
X148603152Y-119582266D01*
X148603152Y-119582266D02*
X148603152Y-119772742D01*
X148603152Y-119772742D02*
X148650771Y-119867980D01*
X149222200Y-119439409D02*
X149269819Y-119534647D01*
X149269819Y-119534647D02*
X149269819Y-119772742D01*
X149269819Y-119772742D02*
X149222200Y-119867980D01*
X149222200Y-119867980D02*
X149126961Y-119915599D01*
X149126961Y-119915599D02*
X149031723Y-119915599D01*
X149031723Y-119915599D02*
X148936485Y-119867980D01*
X148936485Y-119867980D02*
X148888866Y-119772742D01*
X148888866Y-119772742D02*
X148888866Y-119534647D01*
X148888866Y-119534647D02*
X148841247Y-119439409D01*
X149269819Y-118963218D02*
X148603152Y-118963218D01*
X148793628Y-118963218D02*
X148698390Y-118915599D01*
X148698390Y-118915599D02*
X148650771Y-118867980D01*
X148650771Y-118867980D02*
X148603152Y-118772742D01*
X148603152Y-118772742D02*
X148603152Y-118677504D01*
X148603152Y-118487027D02*
X148603152Y-118106075D01*
X148269819Y-118344170D02*
X149126961Y-118344170D01*
X149126961Y-118344170D02*
X149222200Y-118296551D01*
X149222200Y-118296551D02*
X149269819Y-118201313D01*
X149269819Y-118201313D02*
X149269819Y-118106075D01*
X149222200Y-117820360D02*
X149269819Y-117725122D01*
X149269819Y-117725122D02*
X149269819Y-117534646D01*
X149269819Y-117534646D02*
X149222200Y-117439408D01*
X149222200Y-117439408D02*
X149126961Y-117391789D01*
X149126961Y-117391789D02*
X149079342Y-117391789D01*
X149079342Y-117391789D02*
X148984104Y-117439408D01*
X148984104Y-117439408D02*
X148936485Y-117534646D01*
X148936485Y-117534646D02*
X148936485Y-117677503D01*
X148936485Y-117677503D02*
X148888866Y-117772741D01*
X148888866Y-117772741D02*
X148793628Y-117820360D01*
X148793628Y-117820360D02*
X148746009Y-117820360D01*
X148746009Y-117820360D02*
X148650771Y-117772741D01*
X148650771Y-117772741D02*
X148603152Y-117677503D01*
X148603152Y-117677503D02*
X148603152Y-117534646D01*
X148603152Y-117534646D02*
X148650771Y-117439408D01*
X148603152Y-116296550D02*
X149269819Y-116106074D01*
X149269819Y-116106074D02*
X148793628Y-115915598D01*
X148793628Y-115915598D02*
X149269819Y-115725122D01*
X149269819Y-115725122D02*
X148603152Y-115534646D01*
X149269819Y-115153693D02*
X148603152Y-115153693D01*
X148269819Y-115153693D02*
X148317438Y-115201312D01*
X148317438Y-115201312D02*
X148365057Y-115153693D01*
X148365057Y-115153693D02*
X148317438Y-115106074D01*
X148317438Y-115106074D02*
X148269819Y-115153693D01*
X148269819Y-115153693D02*
X148365057Y-115153693D01*
X148603152Y-114820360D02*
X148603152Y-114439408D01*
X148269819Y-114677503D02*
X149126961Y-114677503D01*
X149126961Y-114677503D02*
X149222200Y-114629884D01*
X149222200Y-114629884D02*
X149269819Y-114534646D01*
X149269819Y-114534646D02*
X149269819Y-114439408D01*
X149269819Y-114106074D02*
X148269819Y-114106074D01*
X149269819Y-113677503D02*
X148746009Y-113677503D01*
X148746009Y-113677503D02*
X148650771Y-113725122D01*
X148650771Y-113725122D02*
X148603152Y-113820360D01*
X148603152Y-113820360D02*
X148603152Y-113963217D01*
X148603152Y-113963217D02*
X148650771Y-114058455D01*
X148650771Y-114058455D02*
X148698390Y-114106074D01*
X149269819Y-112010836D02*
X148746009Y-112010836D01*
X148746009Y-112010836D02*
X148650771Y-112058455D01*
X148650771Y-112058455D02*
X148603152Y-112153693D01*
X148603152Y-112153693D02*
X148603152Y-112344169D01*
X148603152Y-112344169D02*
X148650771Y-112439407D01*
X149222200Y-112010836D02*
X149269819Y-112106074D01*
X149269819Y-112106074D02*
X149269819Y-112344169D01*
X149269819Y-112344169D02*
X149222200Y-112439407D01*
X149222200Y-112439407D02*
X149126961Y-112487026D01*
X149126961Y-112487026D02*
X149031723Y-112487026D01*
X149031723Y-112487026D02*
X148936485Y-112439407D01*
X148936485Y-112439407D02*
X148888866Y-112344169D01*
X148888866Y-112344169D02*
X148888866Y-112106074D01*
X148888866Y-112106074D02*
X148841247Y-112010836D01*
X148603152Y-111534645D02*
X149269819Y-111534645D01*
X148698390Y-111534645D02*
X148650771Y-111487026D01*
X148650771Y-111487026D02*
X148603152Y-111391788D01*
X148603152Y-111391788D02*
X148603152Y-111248931D01*
X148603152Y-111248931D02*
X148650771Y-111153693D01*
X148650771Y-111153693D02*
X148746009Y-111106074D01*
X148746009Y-111106074D02*
X149269819Y-111106074D01*
X149222200Y-109915597D02*
X149269819Y-109820359D01*
X149269819Y-109820359D02*
X149269819Y-109629883D01*
X149269819Y-109629883D02*
X149222200Y-109534645D01*
X149222200Y-109534645D02*
X149126961Y-109487026D01*
X149126961Y-109487026D02*
X149079342Y-109487026D01*
X149079342Y-109487026D02*
X148984104Y-109534645D01*
X148984104Y-109534645D02*
X148936485Y-109629883D01*
X148936485Y-109629883D02*
X148936485Y-109772740D01*
X148936485Y-109772740D02*
X148888866Y-109867978D01*
X148888866Y-109867978D02*
X148793628Y-109915597D01*
X148793628Y-109915597D02*
X148746009Y-109915597D01*
X148746009Y-109915597D02*
X148650771Y-109867978D01*
X148650771Y-109867978D02*
X148603152Y-109772740D01*
X148603152Y-109772740D02*
X148603152Y-109629883D01*
X148603152Y-109629883D02*
X148650771Y-109534645D01*
X151354819Y-126933333D02*
X152069104Y-126933333D01*
X152069104Y-126933333D02*
X152211961Y-126980952D01*
X152211961Y-126980952D02*
X152307200Y-127076190D01*
X152307200Y-127076190D02*
X152354819Y-127219047D01*
X152354819Y-127219047D02*
X152354819Y-127314285D01*
X151450057Y-126504761D02*
X151402438Y-126457142D01*
X151402438Y-126457142D02*
X151354819Y-126361904D01*
X151354819Y-126361904D02*
X151354819Y-126123809D01*
X151354819Y-126123809D02*
X151402438Y-126028571D01*
X151402438Y-126028571D02*
X151450057Y-125980952D01*
X151450057Y-125980952D02*
X151545295Y-125933333D01*
X151545295Y-125933333D02*
X151640533Y-125933333D01*
X151640533Y-125933333D02*
X151783390Y-125980952D01*
X151783390Y-125980952D02*
X152354819Y-126552380D01*
X152354819Y-126552380D02*
X152354819Y-125933333D01*
X139954819Y-124833333D02*
X140669104Y-124833333D01*
X140669104Y-124833333D02*
X140811961Y-124880952D01*
X140811961Y-124880952D02*
X140907200Y-124976190D01*
X140907200Y-124976190D02*
X140954819Y-125119047D01*
X140954819Y-125119047D02*
X140954819Y-125214285D01*
X140954819Y-123833333D02*
X140954819Y-124404761D01*
X140954819Y-124119047D02*
X139954819Y-124119047D01*
X139954819Y-124119047D02*
X140097676Y-124214285D01*
X140097676Y-124214285D02*
X140192914Y-124309523D01*
X140192914Y-124309523D02*
X140240533Y-124404761D01*
D11*
X157250000Y-112150000D02*
X156000000Y-112150000D01*
X156960000Y-112440000D02*
X150990000Y-112440000D01*
X150990000Y-112440000D02*
X150990000Y-125060000D01*
X156950000Y-112450000D02*
X156200000Y-112450000D01*
X156200000Y-112450000D02*
X156200000Y-114250000D01*
X154700000Y-112450000D02*
X154700000Y-113200000D01*
X154700000Y-113200000D02*
X153360000Y-113200000D01*
X157250000Y-113400000D02*
X157250000Y-112150000D01*
X156950000Y-114250000D02*
X156950000Y-112450000D01*
X156200000Y-114250000D02*
X156950000Y-114250000D01*
X156950000Y-115750000D02*
X156200000Y-115750000D01*
X156200000Y-115750000D02*
X156200000Y-121750000D01*
X151750000Y-118750000D02*
X151750000Y-114260000D01*
X156950000Y-121750000D02*
X156950000Y-115750000D01*
X156200000Y-121750000D02*
X156950000Y-121750000D01*
X156950000Y-123250000D02*
X156200000Y-123250000D01*
X156200000Y-123250000D02*
X156200000Y-125050000D01*
X154700000Y-124300000D02*
X151750000Y-124300000D01*
X151750000Y-124300000D02*
X151750000Y-118750000D01*
X156950000Y-125050000D02*
X156950000Y-123250000D01*
X156200000Y-125050000D02*
X156950000Y-125050000D01*
X154700000Y-125050000D02*
X154700000Y-124300000D01*
X156960000Y-125060000D02*
X156960000Y-112440000D01*
X150990000Y-125060000D02*
X156960000Y-125060000D01*
D12*
X139168100Y-123035400D02*
X142622101Y-123035400D01*
X142622101Y-123035400D02*
X142622101Y-116031401D01*
X139168100Y-116031401D02*
X139168100Y-123035400D01*
X142622101Y-116031401D02*
X139168100Y-116031401D01*
D13*
X140876100Y-115396401D02*
G75*
G03*
X140876100Y-115396401I-381000J0D01*
G01*
%LPC*%
D14*
X141000000Y-109000000D03*
X155000000Y-109000000D03*
D15*
X152500000Y-113400000D03*
D16*
X154500000Y-115000000D03*
D17*
X154500000Y-117500000D03*
X154500000Y-120000000D03*
X154500000Y-122500000D03*
D18*
X140495100Y-117658400D03*
X140495100Y-118908400D03*
X140495100Y-120158400D03*
X140495100Y-121408400D03*
D14*
X141000000Y-129000000D03*
X155000000Y-129000000D03*
%LPD*%
M02*
