G04 #@! TF.GenerationSoftware,KiCad,Pcbnew,7.0.8*
G04 #@! TF.CreationDate,2023-12-02T16:25:09-07:00*
G04 #@! TF.ProjectId,loadcelladapter,6c6f6164-6365-46c6-9c61-646170746572,v1*
G04 #@! TF.SameCoordinates,Original*
G04 #@! TF.FileFunction,Legend,Bot*
G04 #@! TF.FilePolarity,Positive*
%FSLAX46Y46*%
G04 Gerber Fmt 4.6, Leading zero omitted, Abs format (unit mm)*
G04 Created by KiCad (PCBNEW 7.0.8) date 2023-12-02 16:25:09*
%MOMM*%
%LPD*%
G01*
G04 APERTURE LIST*
G04 Aperture macros list*
%AMRoundRect*
0 Rectangle with rounded corners*
0 $1 Rounding radius*
0 $2 $3 $4 $5 $6 $7 $8 $9 X,Y pos of 4 corners*
0 Add a 4 corners polygon primitive as box body*
4,1,4,$2,$3,$4,$5,$6,$7,$8,$9,$2,$3,0*
0 Add four circle primitives for the rounded corners*
1,1,$1+$1,$2,$3*
1,1,$1+$1,$4,$5*
1,1,$1+$1,$6,$7*
1,1,$1+$1,$8,$9*
0 Add four rect primitives between the rounded corners*
20,1,$1+$1,$2,$3,$4,$5,0*
20,1,$1+$1,$4,$5,$6,$7,0*
20,1,$1+$1,$6,$7,$8,$9,0*
20,1,$1+$1,$8,$9,$2,$3,0*%
G04 Aperture macros list end*
%ADD10C,0.150000*%
%ADD11C,0.508000*%
%ADD12C,2.500000*%
%ADD13C,1.200000*%
%ADD14RoundRect,0.250000X-0.725000X0.600000X-0.725000X-0.600000X0.725000X-0.600000X0.725000X0.600000X0*%
%ADD15O,1.950000X1.700000*%
%ADD16C,1.100000*%
G04 APERTURE END LIST*
D10*
X157130180Y-123377506D02*
X156415895Y-123377506D01*
X156415895Y-123377506D02*
X156273038Y-123425125D01*
X156273038Y-123425125D02*
X156177800Y-123520363D01*
X156177800Y-123520363D02*
X156130180Y-123663220D01*
X156130180Y-123663220D02*
X156130180Y-123758458D01*
X156130180Y-122425125D02*
X156130180Y-122901315D01*
X156130180Y-122901315D02*
X157130180Y-122901315D01*
X156225419Y-121520363D02*
X156177800Y-121567982D01*
X156177800Y-121567982D02*
X156130180Y-121710839D01*
X156130180Y-121710839D02*
X156130180Y-121806077D01*
X156130180Y-121806077D02*
X156177800Y-121948934D01*
X156177800Y-121948934D02*
X156273038Y-122044172D01*
X156273038Y-122044172D02*
X156368276Y-122091791D01*
X156368276Y-122091791D02*
X156558752Y-122139410D01*
X156558752Y-122139410D02*
X156701609Y-122139410D01*
X156701609Y-122139410D02*
X156892085Y-122091791D01*
X156892085Y-122091791D02*
X156987323Y-122044172D01*
X156987323Y-122044172D02*
X157082561Y-121948934D01*
X157082561Y-121948934D02*
X157130180Y-121806077D01*
X157130180Y-121806077D02*
X157130180Y-121710839D01*
X157130180Y-121710839D02*
X157082561Y-121567982D01*
X157082561Y-121567982D02*
X157034942Y-121520363D01*
X157130180Y-120806077D02*
X156415895Y-120806077D01*
X156415895Y-120806077D02*
X156273038Y-120853696D01*
X156273038Y-120853696D02*
X156177800Y-120948934D01*
X156177800Y-120948934D02*
X156130180Y-121091791D01*
X156130180Y-121091791D02*
X156130180Y-121187029D01*
X156130180Y-119853696D02*
X156130180Y-120329886D01*
X156130180Y-120329886D02*
X157130180Y-120329886D01*
X156225419Y-118948934D02*
X156177800Y-118996553D01*
X156177800Y-118996553D02*
X156130180Y-119139410D01*
X156130180Y-119139410D02*
X156130180Y-119234648D01*
X156130180Y-119234648D02*
X156177800Y-119377505D01*
X156177800Y-119377505D02*
X156273038Y-119472743D01*
X156273038Y-119472743D02*
X156368276Y-119520362D01*
X156368276Y-119520362D02*
X156558752Y-119567981D01*
X156558752Y-119567981D02*
X156701609Y-119567981D01*
X156701609Y-119567981D02*
X156892085Y-119520362D01*
X156892085Y-119520362D02*
X156987323Y-119472743D01*
X156987323Y-119472743D02*
X157082561Y-119377505D01*
X157082561Y-119377505D02*
X157130180Y-119234648D01*
X157130180Y-119234648D02*
X157130180Y-119139410D01*
X157130180Y-119139410D02*
X157082561Y-118996553D01*
X157082561Y-118996553D02*
X157034942Y-118948934D01*
X157130180Y-118234648D02*
X156415895Y-118234648D01*
X156415895Y-118234648D02*
X156273038Y-118282267D01*
X156273038Y-118282267D02*
X156177800Y-118377505D01*
X156177800Y-118377505D02*
X156130180Y-118520362D01*
X156130180Y-118520362D02*
X156130180Y-118615600D01*
X156130180Y-117282267D02*
X156130180Y-117758457D01*
X156130180Y-117758457D02*
X157130180Y-117758457D01*
X156225419Y-116377505D02*
X156177800Y-116425124D01*
X156177800Y-116425124D02*
X156130180Y-116567981D01*
X156130180Y-116567981D02*
X156130180Y-116663219D01*
X156130180Y-116663219D02*
X156177800Y-116806076D01*
X156177800Y-116806076D02*
X156273038Y-116901314D01*
X156273038Y-116901314D02*
X156368276Y-116948933D01*
X156368276Y-116948933D02*
X156558752Y-116996552D01*
X156558752Y-116996552D02*
X156701609Y-116996552D01*
X156701609Y-116996552D02*
X156892085Y-116948933D01*
X156892085Y-116948933D02*
X156987323Y-116901314D01*
X156987323Y-116901314D02*
X157082561Y-116806076D01*
X157082561Y-116806076D02*
X157130180Y-116663219D01*
X157130180Y-116663219D02*
X157130180Y-116567981D01*
X157130180Y-116567981D02*
X157082561Y-116425124D01*
X157082561Y-116425124D02*
X157034942Y-116377505D01*
X157130180Y-115663219D02*
X156415895Y-115663219D01*
X156415895Y-115663219D02*
X156273038Y-115710838D01*
X156273038Y-115710838D02*
X156177800Y-115806076D01*
X156177800Y-115806076D02*
X156130180Y-115948933D01*
X156130180Y-115948933D02*
X156130180Y-116044171D01*
X156130180Y-114710838D02*
X156130180Y-115187028D01*
X156130180Y-115187028D02*
X157130180Y-115187028D01*
X156225419Y-113806076D02*
X156177800Y-113853695D01*
X156177800Y-113853695D02*
X156130180Y-113996552D01*
X156130180Y-113996552D02*
X156130180Y-114091790D01*
X156130180Y-114091790D02*
X156177800Y-114234647D01*
X156177800Y-114234647D02*
X156273038Y-114329885D01*
X156273038Y-114329885D02*
X156368276Y-114377504D01*
X156368276Y-114377504D02*
X156558752Y-114425123D01*
X156558752Y-114425123D02*
X156701609Y-114425123D01*
X156701609Y-114425123D02*
X156892085Y-114377504D01*
X156892085Y-114377504D02*
X156987323Y-114329885D01*
X156987323Y-114329885D02*
X157082561Y-114234647D01*
X157082561Y-114234647D02*
X157130180Y-114091790D01*
X157130180Y-114091790D02*
X157130180Y-113996552D01*
X157130180Y-113996552D02*
X157082561Y-113853695D01*
X157082561Y-113853695D02*
X157034942Y-113806076D01*
D11*
X140876100Y-115396401D02*
G75*
G03*
X140876100Y-115396401I-381000J0D01*
G01*
%LPC*%
D12*
X141000000Y-109000000D03*
X155000000Y-109000000D03*
D13*
X152500000Y-113400000D03*
D14*
X154500000Y-115000000D03*
D15*
X154500000Y-117500000D03*
X154500000Y-120000000D03*
X154500000Y-122500000D03*
D16*
X140495100Y-117658400D03*
X140495100Y-118908400D03*
X140495100Y-120158400D03*
X140495100Y-121408400D03*
D12*
X141000000Y-129000000D03*
X155000000Y-129000000D03*
%LPD*%
M02*
