G04 #@! TF.GenerationSoftware,KiCad,Pcbnew,7.0.8*
G04 #@! TF.CreationDate,2024-01-22T10:42:46-07:00*
G04 #@! TF.ProjectId,sdm24wheel,73646d32-3477-4686-9565-6c2e6b696361,v1.1*
G04 #@! TF.SameCoordinates,Original*
G04 #@! TF.FileFunction,Soldermask,Top*
G04 #@! TF.FilePolarity,Negative*
%FSLAX46Y46*%
G04 Gerber Fmt 4.6, Leading zero omitted, Abs format (unit mm)*
G04 Created by KiCad (PCBNEW 7.0.8) date 2024-01-22 10:42:46*
%MOMM*%
%LPD*%
G01*
G04 APERTURE LIST*
G04 Aperture macros list*
%AMRoundRect*
0 Rectangle with rounded corners*
0 $1 Rounding radius*
0 $2 $3 $4 $5 $6 $7 $8 $9 X,Y pos of 4 corners*
0 Add a 4 corners polygon primitive as box body*
4,1,4,$2,$3,$4,$5,$6,$7,$8,$9,$2,$3,0*
0 Add four circle primitives for the rounded corners*
1,1,$1+$1,$2,$3*
1,1,$1+$1,$4,$5*
1,1,$1+$1,$6,$7*
1,1,$1+$1,$8,$9*
0 Add four rect primitives between the rounded corners*
20,1,$1+$1,$2,$3,$4,$5,0*
20,1,$1+$1,$4,$5,$6,$7,0*
20,1,$1+$1,$6,$7,$8,$9,0*
20,1,$1+$1,$8,$9,$2,$3,0*%
G04 Aperture macros list end*
%ADD10RoundRect,0.140000X-0.140000X-0.170000X0.140000X-0.170000X0.140000X0.170000X-0.140000X0.170000X0*%
%ADD11C,0.990600*%
%ADD12C,0.787400*%
%ADD13RoundRect,0.150000X0.150000X-0.512500X0.150000X0.512500X-0.150000X0.512500X-0.150000X-0.512500X0*%
%ADD14RoundRect,0.140000X-0.170000X0.140000X-0.170000X-0.140000X0.170000X-0.140000X0.170000X0.140000X0*%
%ADD15RoundRect,0.112500X0.112500X-0.187500X0.112500X0.187500X-0.112500X0.187500X-0.112500X-0.187500X0*%
%ADD16RoundRect,0.225000X-0.250000X0.225000X-0.250000X-0.225000X0.250000X-0.225000X0.250000X0.225000X0*%
%ADD17RoundRect,0.075000X-0.075000X0.700000X-0.075000X-0.700000X0.075000X-0.700000X0.075000X0.700000X0*%
%ADD18RoundRect,0.075000X-0.700000X0.075000X-0.700000X-0.075000X0.700000X-0.075000X0.700000X0.075000X0*%
%ADD19RoundRect,0.225000X-0.225000X-0.250000X0.225000X-0.250000X0.225000X0.250000X-0.225000X0.250000X0*%
%ADD20C,1.524000*%
%ADD21R,2.000000X1.500000*%
%ADD22R,2.000000X3.800000*%
%ADD23RoundRect,0.250000X-0.250000X-0.475000X0.250000X-0.475000X0.250000X0.475000X-0.250000X0.475000X0*%
%ADD24RoundRect,0.140000X0.140000X0.170000X-0.140000X0.170000X-0.140000X-0.170000X0.140000X-0.170000X0*%
%ADD25RoundRect,0.200000X-0.275000X0.200000X-0.275000X-0.200000X0.275000X-0.200000X0.275000X0.200000X0*%
%ADD26RoundRect,0.250000X-0.475000X0.250000X-0.475000X-0.250000X0.475000X-0.250000X0.475000X0.250000X0*%
%ADD27RoundRect,0.218750X0.256250X-0.218750X0.256250X0.218750X-0.256250X0.218750X-0.256250X-0.218750X0*%
%ADD28RoundRect,0.250000X-0.450000X0.262500X-0.450000X-0.262500X0.450000X-0.262500X0.450000X0.262500X0*%
%ADD29RoundRect,0.243750X0.456250X-0.243750X0.456250X0.243750X-0.456250X0.243750X-0.456250X-0.243750X0*%
%ADD30C,3.200000*%
%ADD31RoundRect,0.245000X-0.380000X0.245000X-0.380000X-0.245000X0.380000X-0.245000X0.380000X0.245000X0*%
%ADD32R,0.400000X1.350000*%
%ADD33O,1.200000X1.900000*%
%ADD34R,1.200000X1.900000*%
%ADD35C,1.450000*%
%ADD36R,1.500000X1.900000*%
%ADD37RoundRect,0.200000X0.275000X-0.200000X0.275000X0.200000X-0.275000X0.200000X-0.275000X-0.200000X0*%
%ADD38RoundRect,0.245000X0.380000X-0.245000X0.380000X0.245000X-0.380000X0.245000X-0.380000X-0.245000X0*%
%ADD39RoundRect,0.112500X-0.362500X-0.112500X0.362500X-0.112500X0.362500X0.112500X-0.362500X0.112500X0*%
%ADD40R,1.700000X1.700000*%
%ADD41O,1.700000X1.700000*%
%ADD42RoundRect,0.250000X-0.262500X-0.450000X0.262500X-0.450000X0.262500X0.450000X-0.262500X0.450000X0*%
%ADD43RoundRect,0.150000X0.825000X0.150000X-0.825000X0.150000X-0.825000X-0.150000X0.825000X-0.150000X0*%
%ADD44RoundRect,0.250000X0.450000X-0.262500X0.450000X0.262500X-0.450000X0.262500X-0.450000X-0.262500X0*%
%ADD45RoundRect,0.250000X0.725000X-0.600000X0.725000X0.600000X-0.725000X0.600000X-0.725000X-0.600000X0*%
%ADD46O,1.950000X1.700000*%
%ADD47R,1.000000X1.200000*%
%ADD48RoundRect,0.140000X0.170000X-0.140000X0.170000X0.140000X-0.170000X0.140000X-0.170000X-0.140000X0*%
%ADD49O,1.600000X1.200000*%
%ADD50O,1.200000X1.200000*%
G04 APERTURE END LIST*
D10*
X188020000Y-90600000D03*
X188980000Y-90600000D03*
D11*
X196235000Y-106410000D03*
X195219000Y-101330000D03*
X197251000Y-101330000D03*
D12*
X196870000Y-105140000D03*
X195600000Y-105140000D03*
X196870000Y-103870000D03*
X195600000Y-103870000D03*
X196870000Y-102600000D03*
X195600000Y-102600000D03*
D13*
X184150000Y-109200000D03*
X185100000Y-109200000D03*
X186050000Y-109200000D03*
X186050000Y-106925000D03*
X185100000Y-106925000D03*
X184150000Y-106925000D03*
D14*
X176600000Y-102220000D03*
X176600000Y-103180000D03*
D15*
X164125000Y-87550000D03*
X164125000Y-85450000D03*
D14*
X178900000Y-106420000D03*
X178900000Y-107380000D03*
D16*
X174600000Y-101625000D03*
X174600000Y-103175000D03*
D17*
X187950000Y-92425000D03*
X187450000Y-92425000D03*
X186950000Y-92425000D03*
X186450000Y-92425000D03*
X185950000Y-92425000D03*
X185450000Y-92425000D03*
X184950000Y-92425000D03*
X184450000Y-92425000D03*
X183950000Y-92425000D03*
X183450000Y-92425000D03*
X182950000Y-92425000D03*
X182450000Y-92425000D03*
X181950000Y-92425000D03*
X181450000Y-92425000D03*
X180950000Y-92425000D03*
X180450000Y-92425000D03*
D18*
X178525000Y-94350000D03*
X178525000Y-94850000D03*
X178525000Y-95350000D03*
X178525000Y-95850000D03*
X178525000Y-96350000D03*
X178525000Y-96850000D03*
X178525000Y-97350000D03*
X178525000Y-97850000D03*
X178525000Y-98350000D03*
X178525000Y-98850000D03*
X178525000Y-99350000D03*
X178525000Y-99850000D03*
X178525000Y-100350000D03*
X178525000Y-100850000D03*
X178525000Y-101350000D03*
X178525000Y-101850000D03*
D17*
X180450000Y-103775000D03*
X180950000Y-103775000D03*
X181450000Y-103775000D03*
X181950000Y-103775000D03*
X182450000Y-103775000D03*
X182950000Y-103775000D03*
X183450000Y-103775000D03*
X183950000Y-103775000D03*
X184450000Y-103775000D03*
X184950000Y-103775000D03*
X185450000Y-103775000D03*
X185950000Y-103775000D03*
X186450000Y-103775000D03*
X186950000Y-103775000D03*
X187450000Y-103775000D03*
X187950000Y-103775000D03*
D18*
X189875000Y-101850000D03*
X189875000Y-101350000D03*
X189875000Y-100850000D03*
X189875000Y-100350000D03*
X189875000Y-99850000D03*
X189875000Y-99350000D03*
X189875000Y-98850000D03*
X189875000Y-98350000D03*
X189875000Y-97850000D03*
X189875000Y-97350000D03*
X189875000Y-96850000D03*
X189875000Y-96350000D03*
X189875000Y-95850000D03*
X189875000Y-95350000D03*
X189875000Y-94850000D03*
X189875000Y-94350000D03*
D19*
X188425000Y-106400000D03*
X189975000Y-106400000D03*
D20*
X194440000Y-75900000D03*
X191900000Y-75900000D03*
D21*
X176650000Y-73700000D03*
X176650000Y-76000000D03*
D22*
X182950000Y-76000000D03*
D21*
X176650000Y-78300000D03*
D23*
X178850000Y-81000000D03*
X180750000Y-81000000D03*
D14*
X191900000Y-94100000D03*
X191900000Y-95060000D03*
D24*
X184480000Y-90500000D03*
X183520000Y-90500000D03*
D19*
X178025000Y-87800000D03*
X179575000Y-87800000D03*
D14*
X177400000Y-106420000D03*
X177400000Y-107380000D03*
D25*
X172800000Y-95175000D03*
X172800000Y-96825000D03*
D26*
X173800000Y-74050000D03*
X173800000Y-75950000D03*
D27*
X176166000Y-87637500D03*
X176166000Y-86062500D03*
D28*
X197400000Y-94887500D03*
X197400000Y-96712500D03*
D20*
X166700000Y-77170000D03*
X166700000Y-74630000D03*
D29*
X197400000Y-92837500D03*
X197400000Y-90962500D03*
D30*
X196000000Y-112000000D03*
D31*
X161625000Y-102640000D03*
X161625000Y-105860000D03*
D32*
X184000000Y-111850000D03*
X184650000Y-111850000D03*
X185300000Y-111850000D03*
X185950000Y-111850000D03*
X186600000Y-111850000D03*
D33*
X181800000Y-114550000D03*
D34*
X182400000Y-114550000D03*
D35*
X182800000Y-111850000D03*
D36*
X184300000Y-114550000D03*
X186300000Y-114550000D03*
D35*
X187800000Y-111850000D03*
D34*
X188200000Y-114550000D03*
D33*
X188800000Y-114550000D03*
D37*
X172000000Y-100225000D03*
X172000000Y-98575000D03*
D26*
X193800000Y-93650000D03*
X193800000Y-95550000D03*
D38*
X161625000Y-110860000D03*
X161625000Y-107640000D03*
D28*
X197100000Y-79987500D03*
X197100000Y-81812500D03*
D39*
X159300000Y-96650000D03*
X159300000Y-97300000D03*
X159300000Y-97950000D03*
X161500000Y-97950000D03*
X161500000Y-96650000D03*
D40*
X194175000Y-85400000D03*
D41*
X191635000Y-85400000D03*
D28*
X170100000Y-110687500D03*
X170100000Y-112512500D03*
D10*
X189020000Y-104900000D03*
X189980000Y-104900000D03*
X186720000Y-87500000D03*
X187680000Y-87500000D03*
X181520000Y-90500000D03*
X182480000Y-90500000D03*
D42*
X191887500Y-88700000D03*
X193712500Y-88700000D03*
D30*
X155000000Y-75000000D03*
D37*
X166400000Y-110185000D03*
X166400000Y-108535000D03*
D43*
X175075000Y-108805000D03*
X175075000Y-107535000D03*
X175075000Y-106265000D03*
X175075000Y-104995000D03*
X170125000Y-104995000D03*
X170125000Y-106265000D03*
X170125000Y-107535000D03*
X170125000Y-108805000D03*
D44*
X168920000Y-85512500D03*
X168920000Y-83687500D03*
D45*
X154400000Y-109900000D03*
D46*
X154400000Y-107400000D03*
X154400000Y-104900000D03*
X154400000Y-102400000D03*
X154400000Y-99900000D03*
X154400000Y-97400000D03*
X154400000Y-94900000D03*
D47*
X186750000Y-85750000D03*
X186750000Y-84050000D03*
X185450000Y-84050000D03*
X185450000Y-85750000D03*
D10*
X184520000Y-87500000D03*
X185480000Y-87500000D03*
D48*
X176600000Y-95580000D03*
X176600000Y-94620000D03*
D19*
X178025000Y-86000000D03*
X179575000Y-86000000D03*
D40*
X166400000Y-103360000D03*
D41*
X166400000Y-105900000D03*
D10*
X165320000Y-91000000D03*
X166280000Y-91000000D03*
D49*
X170540000Y-93500000D03*
D50*
X168000000Y-96040000D03*
X165460000Y-93500000D03*
X168000000Y-90960000D03*
M02*
