G04 #@! TF.GenerationSoftware,KiCad,Pcbnew,7.0.8*
G04 #@! TF.CreationDate,2023-12-02T16:30:47-07:00*
G04 #@! TF.ProjectId,cansplitter,63616e73-706c-4697-9474-65722e6b6963,rev?*
G04 #@! TF.SameCoordinates,Original*
G04 #@! TF.FileFunction,Copper,L1,Top*
G04 #@! TF.FilePolarity,Positive*
%FSLAX46Y46*%
G04 Gerber Fmt 4.6, Leading zero omitted, Abs format (unit mm)*
G04 Created by KiCad (PCBNEW 7.0.8) date 2023-12-02 16:30:47*
%MOMM*%
%LPD*%
G01*
G04 APERTURE LIST*
G04 Aperture macros list*
%AMRoundRect*
0 Rectangle with rounded corners*
0 $1 Rounding radius*
0 $2 $3 $4 $5 $6 $7 $8 $9 X,Y pos of 4 corners*
0 Add a 4 corners polygon primitive as box body*
4,1,4,$2,$3,$4,$5,$6,$7,$8,$9,$2,$3,0*
0 Add four circle primitives for the rounded corners*
1,1,$1+$1,$2,$3*
1,1,$1+$1,$4,$5*
1,1,$1+$1,$6,$7*
1,1,$1+$1,$8,$9*
0 Add four rect primitives between the rounded corners*
20,1,$1+$1,$2,$3,$4,$5,0*
20,1,$1+$1,$4,$5,$6,$7,0*
20,1,$1+$1,$6,$7,$8,$9,0*
20,1,$1+$1,$8,$9,$2,$3,0*%
G04 Aperture macros list end*
G04 #@! TA.AperFunction,SMDPad,CuDef*
%ADD10RoundRect,0.250000X0.375000X0.625000X-0.375000X0.625000X-0.375000X-0.625000X0.375000X-0.625000X0*%
G04 #@! TD*
G04 #@! TA.AperFunction,SMDPad,CuDef*
%ADD11RoundRect,0.250000X0.312500X0.625000X-0.312500X0.625000X-0.312500X-0.625000X0.312500X-0.625000X0*%
G04 #@! TD*
G04 #@! TA.AperFunction,ComponentPad*
%ADD12C,2.400000*%
G04 #@! TD*
G04 #@! TA.AperFunction,ViaPad*
%ADD13C,1.000000*%
G04 #@! TD*
G04 #@! TA.AperFunction,Conductor*
%ADD14C,0.500000*%
G04 #@! TD*
G04 #@! TA.AperFunction,Conductor*
%ADD15C,0.300000*%
G04 #@! TD*
G04 APERTURE END LIST*
D10*
X149800000Y-93400000D03*
X147000000Y-93400000D03*
D11*
X149902500Y-90060000D03*
X146977500Y-90060000D03*
D12*
X142000000Y-86300000D03*
X142000000Y-82100000D03*
X142000000Y-77900000D03*
X142000000Y-73700000D03*
X135650000Y-73700000D03*
X135650000Y-77900000D03*
X135650000Y-82100000D03*
X135650000Y-86300000D03*
X154000000Y-69500000D03*
X154000000Y-73700000D03*
X154000000Y-77900000D03*
X154000000Y-82100000D03*
X154000000Y-86300000D03*
X154000000Y-90500000D03*
X160350000Y-90500000D03*
X160350000Y-86300000D03*
X160350000Y-82100000D03*
X160350000Y-77900000D03*
X160350000Y-73700000D03*
X160350000Y-69500000D03*
D13*
X150600000Y-95700000D03*
D14*
X149800000Y-94900000D02*
X150600000Y-95700000D01*
X149800000Y-93400000D02*
X149800000Y-94900000D01*
X146977500Y-93377500D02*
X147000000Y-93400000D01*
X146977500Y-90060000D02*
X146977500Y-93377500D01*
X142000000Y-77000000D02*
X142000000Y-77900000D01*
X147200000Y-72700000D02*
X153000000Y-72700000D01*
X154000000Y-73700000D02*
X152000000Y-75700000D01*
X142000000Y-77900000D02*
X147200000Y-72700000D01*
X142000000Y-82100000D02*
X142000000Y-77900000D01*
X148100000Y-86700000D02*
X149902500Y-88502500D01*
X152000000Y-75700000D02*
X152000000Y-80100000D01*
X152000000Y-80100000D02*
X154000000Y-82100000D01*
X149902500Y-88502500D02*
X149902500Y-90060000D01*
X152000000Y-88500000D02*
X152000000Y-84100000D01*
X154000000Y-90500000D02*
X152000000Y-88500000D01*
X142000000Y-82100000D02*
X146600000Y-86700000D01*
X146600000Y-86700000D02*
X148100000Y-86700000D01*
X152000000Y-84100000D02*
X154000000Y-82100000D01*
X153000000Y-72700000D02*
X154000000Y-73700000D01*
D15*
X139900000Y-84200000D02*
X142000000Y-86300000D01*
X148290000Y-69500000D02*
X148290000Y-70200000D01*
X147090000Y-69800000D02*
X147090000Y-70200000D01*
X156100000Y-75800000D02*
X154000000Y-77900000D01*
X148290000Y-68800000D02*
X148290000Y-69500000D01*
X150690000Y-69500000D02*
X150690000Y-70200000D01*
X149490000Y-68800000D02*
X149490000Y-69500000D01*
X149490000Y-69500000D02*
X149490000Y-70200000D01*
X156100000Y-71600000D02*
X156100000Y-75800000D01*
X147690000Y-69800000D02*
X147690000Y-68800000D01*
X156300000Y-84000000D02*
X154000000Y-86300000D01*
X147690000Y-70200000D02*
X147690000Y-69800000D01*
X148890000Y-69500000D02*
X148890000Y-68800000D01*
X148890000Y-70200000D02*
X148890000Y-69500000D01*
X156300000Y-80200000D02*
X156300000Y-84000000D01*
X151290000Y-70200000D02*
X151290000Y-69800000D01*
X150690000Y-68800000D02*
X150690000Y-69500000D01*
X139900000Y-75800000D02*
X139900000Y-84200000D01*
X151590000Y-69500000D02*
X152044046Y-69500000D01*
X146200000Y-69500000D02*
X146790000Y-69500000D01*
X142000000Y-73700000D02*
X139900000Y-75800000D01*
X142000000Y-73700000D02*
X146200000Y-69500000D01*
X150090000Y-70200000D02*
X150090000Y-69500000D01*
X152044046Y-69500000D02*
X154000000Y-69500000D01*
X154000000Y-69500000D02*
X156100000Y-71600000D01*
X150090000Y-69500000D02*
X150090000Y-68800000D01*
X154000000Y-77900000D02*
X156300000Y-80200000D01*
X150990000Y-70500000D02*
G75*
G03*
X151290000Y-70200000I0J300000D01*
G01*
X149490000Y-70200000D02*
G75*
G03*
X149790000Y-70500000I300000J0D01*
G01*
X150690000Y-68800000D02*
G75*
G03*
X150390000Y-68500000I-300000J0D01*
G01*
X147990000Y-68500000D02*
G75*
G03*
X147690000Y-68800000I0J-300000D01*
G01*
X147390000Y-70500000D02*
G75*
G03*
X147690000Y-70200000I0J300000D01*
G01*
X147090000Y-69800000D02*
G75*
G03*
X146790000Y-69500000I-300000J0D01*
G01*
X147090000Y-70200000D02*
G75*
G03*
X147390000Y-70500000I300000J0D01*
G01*
X149790000Y-70500000D02*
G75*
G03*
X150090000Y-70200000I0J300000D01*
G01*
X149490000Y-68800000D02*
G75*
G03*
X149190000Y-68500000I-300000J0D01*
G01*
X150390000Y-68500000D02*
G75*
G03*
X150090000Y-68800000I0J-300000D01*
G01*
X150690000Y-70200000D02*
G75*
G03*
X150990000Y-70500000I300000J0D01*
G01*
X148290000Y-70200000D02*
G75*
G03*
X148590000Y-70500000I300000J0D01*
G01*
X148290000Y-68800000D02*
G75*
G03*
X147990000Y-68500000I-300000J0D01*
G01*
X151590000Y-69500000D02*
G75*
G03*
X151290000Y-69800000I0J-300000D01*
G01*
X149190000Y-68500000D02*
G75*
G03*
X148890000Y-68800000I0J-300000D01*
G01*
X148590000Y-70500000D02*
G75*
G03*
X148890000Y-70200000I0J300000D01*
G01*
X158200000Y-75750000D02*
X158200000Y-71650000D01*
X160350000Y-69500000D02*
X158450000Y-67600000D01*
X135650000Y-86300000D02*
X137800000Y-84150000D01*
X158450000Y-67600000D02*
X146300000Y-67600000D01*
X146300000Y-67600000D02*
X143300000Y-70600000D01*
X158000000Y-80250000D02*
X160350000Y-77900000D01*
X158200000Y-71650000D02*
X160350000Y-69500000D01*
X137800000Y-75850000D02*
X135650000Y-73700000D01*
X160350000Y-86300000D02*
X158000000Y-83950000D01*
X137800000Y-84150000D02*
X137800000Y-75850000D01*
X158000000Y-83950000D02*
X158000000Y-80250000D01*
X138750000Y-70600000D02*
X135650000Y-73700000D01*
X160350000Y-77900000D02*
X158200000Y-75750000D01*
X143300000Y-70600000D02*
X138750000Y-70600000D01*
M02*
