G04 #@! TF.GenerationSoftware,KiCad,Pcbnew,7.0.8*
G04 #@! TF.CreationDate,2024-01-19T21:48:40-07:00*
G04 #@! TF.ProjectId,wheelspeed,77686565-6c73-4706-9565-642e6b696361,v1*
G04 #@! TF.SameCoordinates,Original*
G04 #@! TF.FileFunction,Legend,Bot*
G04 #@! TF.FilePolarity,Positive*
%FSLAX46Y46*%
G04 Gerber Fmt 4.6, Leading zero omitted, Abs format (unit mm)*
G04 Created by KiCad (PCBNEW 7.0.8) date 2024-01-19 21:48:40*
%MOMM*%
%LPD*%
G01*
G04 APERTURE LIST*
G04 Aperture macros list*
%AMRoundRect*
0 Rectangle with rounded corners*
0 $1 Rounding radius*
0 $2 $3 $4 $5 $6 $7 $8 $9 X,Y pos of 4 corners*
0 Add a 4 corners polygon primitive as box body*
4,1,4,$2,$3,$4,$5,$6,$7,$8,$9,$2,$3,0*
0 Add four circle primitives for the rounded corners*
1,1,$1+$1,$2,$3*
1,1,$1+$1,$4,$5*
1,1,$1+$1,$6,$7*
1,1,$1+$1,$8,$9*
0 Add four rect primitives between the rounded corners*
20,1,$1+$1,$2,$3,$4,$5,0*
20,1,$1+$1,$4,$5,$6,$7,0*
20,1,$1+$1,$6,$7,$8,$9,0*
20,1,$1+$1,$8,$9,$2,$3,0*%
G04 Aperture macros list end*
%ADD10C,0.150000*%
%ADD11C,0.120000*%
%ADD12C,4.500000*%
%ADD13RoundRect,0.300000X0.450000X0.575000X-0.450000X0.575000X-0.450000X-0.575000X0.450000X-0.575000X0*%
%ADD14C,1.200000*%
%ADD15RoundRect,0.250000X0.725000X-0.600000X0.725000X0.600000X-0.725000X0.600000X-0.725000X-0.600000X0*%
%ADD16O,1.950000X1.700000*%
%ADD17RoundRect,0.250000X0.262500X0.450000X-0.262500X0.450000X-0.262500X-0.450000X0.262500X-0.450000X0*%
G04 APERTURE END LIST*
D10*
X148900000Y-96400000D02*
X148900000Y-97900000D01*
X149400000Y-95900000D02*
X148900000Y-96400000D01*
X149400000Y-93500000D02*
X149400000Y-95900000D01*
X148900000Y-97900000D02*
X149285000Y-98365000D01*
X144919047Y-88359819D02*
X144680952Y-89359819D01*
X144680952Y-89359819D02*
X144490476Y-88645533D01*
X144490476Y-88645533D02*
X144300000Y-89359819D01*
X144300000Y-89359819D02*
X144061905Y-88359819D01*
X143680952Y-89359819D02*
X143680952Y-88359819D01*
X143252381Y-89359819D02*
X143252381Y-88836009D01*
X143252381Y-88836009D02*
X143300000Y-88740771D01*
X143300000Y-88740771D02*
X143395238Y-88693152D01*
X143395238Y-88693152D02*
X143538095Y-88693152D01*
X143538095Y-88693152D02*
X143633333Y-88740771D01*
X143633333Y-88740771D02*
X143680952Y-88788390D01*
X142395238Y-89312200D02*
X142490476Y-89359819D01*
X142490476Y-89359819D02*
X142680952Y-89359819D01*
X142680952Y-89359819D02*
X142776190Y-89312200D01*
X142776190Y-89312200D02*
X142823809Y-89216961D01*
X142823809Y-89216961D02*
X142823809Y-88836009D01*
X142823809Y-88836009D02*
X142776190Y-88740771D01*
X142776190Y-88740771D02*
X142680952Y-88693152D01*
X142680952Y-88693152D02*
X142490476Y-88693152D01*
X142490476Y-88693152D02*
X142395238Y-88740771D01*
X142395238Y-88740771D02*
X142347619Y-88836009D01*
X142347619Y-88836009D02*
X142347619Y-88931247D01*
X142347619Y-88931247D02*
X142823809Y-89026485D01*
X141538095Y-89312200D02*
X141633333Y-89359819D01*
X141633333Y-89359819D02*
X141823809Y-89359819D01*
X141823809Y-89359819D02*
X141919047Y-89312200D01*
X141919047Y-89312200D02*
X141966666Y-89216961D01*
X141966666Y-89216961D02*
X141966666Y-88836009D01*
X141966666Y-88836009D02*
X141919047Y-88740771D01*
X141919047Y-88740771D02*
X141823809Y-88693152D01*
X141823809Y-88693152D02*
X141633333Y-88693152D01*
X141633333Y-88693152D02*
X141538095Y-88740771D01*
X141538095Y-88740771D02*
X141490476Y-88836009D01*
X141490476Y-88836009D02*
X141490476Y-88931247D01*
X141490476Y-88931247D02*
X141966666Y-89026485D01*
X140919047Y-89359819D02*
X141014285Y-89312200D01*
X141014285Y-89312200D02*
X141061904Y-89216961D01*
X141061904Y-89216961D02*
X141061904Y-88359819D01*
X139823808Y-89312200D02*
X139680951Y-89359819D01*
X139680951Y-89359819D02*
X139442856Y-89359819D01*
X139442856Y-89359819D02*
X139347618Y-89312200D01*
X139347618Y-89312200D02*
X139299999Y-89264580D01*
X139299999Y-89264580D02*
X139252380Y-89169342D01*
X139252380Y-89169342D02*
X139252380Y-89074104D01*
X139252380Y-89074104D02*
X139299999Y-88978866D01*
X139299999Y-88978866D02*
X139347618Y-88931247D01*
X139347618Y-88931247D02*
X139442856Y-88883628D01*
X139442856Y-88883628D02*
X139633332Y-88836009D01*
X139633332Y-88836009D02*
X139728570Y-88788390D01*
X139728570Y-88788390D02*
X139776189Y-88740771D01*
X139776189Y-88740771D02*
X139823808Y-88645533D01*
X139823808Y-88645533D02*
X139823808Y-88550295D01*
X139823808Y-88550295D02*
X139776189Y-88455057D01*
X139776189Y-88455057D02*
X139728570Y-88407438D01*
X139728570Y-88407438D02*
X139633332Y-88359819D01*
X139633332Y-88359819D02*
X139395237Y-88359819D01*
X139395237Y-88359819D02*
X139252380Y-88407438D01*
X138823808Y-88693152D02*
X138823808Y-89693152D01*
X138823808Y-88740771D02*
X138728570Y-88693152D01*
X138728570Y-88693152D02*
X138538094Y-88693152D01*
X138538094Y-88693152D02*
X138442856Y-88740771D01*
X138442856Y-88740771D02*
X138395237Y-88788390D01*
X138395237Y-88788390D02*
X138347618Y-88883628D01*
X138347618Y-88883628D02*
X138347618Y-89169342D01*
X138347618Y-89169342D02*
X138395237Y-89264580D01*
X138395237Y-89264580D02*
X138442856Y-89312200D01*
X138442856Y-89312200D02*
X138538094Y-89359819D01*
X138538094Y-89359819D02*
X138728570Y-89359819D01*
X138728570Y-89359819D02*
X138823808Y-89312200D01*
X137538094Y-89312200D02*
X137633332Y-89359819D01*
X137633332Y-89359819D02*
X137823808Y-89359819D01*
X137823808Y-89359819D02*
X137919046Y-89312200D01*
X137919046Y-89312200D02*
X137966665Y-89216961D01*
X137966665Y-89216961D02*
X137966665Y-88836009D01*
X137966665Y-88836009D02*
X137919046Y-88740771D01*
X137919046Y-88740771D02*
X137823808Y-88693152D01*
X137823808Y-88693152D02*
X137633332Y-88693152D01*
X137633332Y-88693152D02*
X137538094Y-88740771D01*
X137538094Y-88740771D02*
X137490475Y-88836009D01*
X137490475Y-88836009D02*
X137490475Y-88931247D01*
X137490475Y-88931247D02*
X137966665Y-89026485D01*
X136680951Y-89312200D02*
X136776189Y-89359819D01*
X136776189Y-89359819D02*
X136966665Y-89359819D01*
X136966665Y-89359819D02*
X137061903Y-89312200D01*
X137061903Y-89312200D02*
X137109522Y-89216961D01*
X137109522Y-89216961D02*
X137109522Y-88836009D01*
X137109522Y-88836009D02*
X137061903Y-88740771D01*
X137061903Y-88740771D02*
X136966665Y-88693152D01*
X136966665Y-88693152D02*
X136776189Y-88693152D01*
X136776189Y-88693152D02*
X136680951Y-88740771D01*
X136680951Y-88740771D02*
X136633332Y-88836009D01*
X136633332Y-88836009D02*
X136633332Y-88931247D01*
X136633332Y-88931247D02*
X137109522Y-89026485D01*
X135776189Y-89359819D02*
X135776189Y-88359819D01*
X135776189Y-89312200D02*
X135871427Y-89359819D01*
X135871427Y-89359819D02*
X136061903Y-89359819D01*
X136061903Y-89359819D02*
X136157141Y-89312200D01*
X136157141Y-89312200D02*
X136204760Y-89264580D01*
X136204760Y-89264580D02*
X136252379Y-89169342D01*
X136252379Y-89169342D02*
X136252379Y-88883628D01*
X136252379Y-88883628D02*
X136204760Y-88788390D01*
X136204760Y-88788390D02*
X136157141Y-88740771D01*
X136157141Y-88740771D02*
X136061903Y-88693152D01*
X136061903Y-88693152D02*
X135871427Y-88693152D01*
X135871427Y-88693152D02*
X135776189Y-88740771D01*
X143133333Y-90446009D02*
X142990476Y-90493628D01*
X142990476Y-90493628D02*
X142942857Y-90541247D01*
X142942857Y-90541247D02*
X142895238Y-90636485D01*
X142895238Y-90636485D02*
X142895238Y-90779342D01*
X142895238Y-90779342D02*
X142942857Y-90874580D01*
X142942857Y-90874580D02*
X142990476Y-90922200D01*
X142990476Y-90922200D02*
X143085714Y-90969819D01*
X143085714Y-90969819D02*
X143466666Y-90969819D01*
X143466666Y-90969819D02*
X143466666Y-89969819D01*
X143466666Y-89969819D02*
X143133333Y-89969819D01*
X143133333Y-89969819D02*
X143038095Y-90017438D01*
X143038095Y-90017438D02*
X142990476Y-90065057D01*
X142990476Y-90065057D02*
X142942857Y-90160295D01*
X142942857Y-90160295D02*
X142942857Y-90255533D01*
X142942857Y-90255533D02*
X142990476Y-90350771D01*
X142990476Y-90350771D02*
X143038095Y-90398390D01*
X143038095Y-90398390D02*
X143133333Y-90446009D01*
X143133333Y-90446009D02*
X143466666Y-90446009D01*
X142323809Y-90969819D02*
X142419047Y-90922200D01*
X142419047Y-90922200D02*
X142466666Y-90874580D01*
X142466666Y-90874580D02*
X142514285Y-90779342D01*
X142514285Y-90779342D02*
X142514285Y-90493628D01*
X142514285Y-90493628D02*
X142466666Y-90398390D01*
X142466666Y-90398390D02*
X142419047Y-90350771D01*
X142419047Y-90350771D02*
X142323809Y-90303152D01*
X142323809Y-90303152D02*
X142180952Y-90303152D01*
X142180952Y-90303152D02*
X142085714Y-90350771D01*
X142085714Y-90350771D02*
X142038095Y-90398390D01*
X142038095Y-90398390D02*
X141990476Y-90493628D01*
X141990476Y-90493628D02*
X141990476Y-90779342D01*
X141990476Y-90779342D02*
X142038095Y-90874580D01*
X142038095Y-90874580D02*
X142085714Y-90922200D01*
X142085714Y-90922200D02*
X142180952Y-90969819D01*
X142180952Y-90969819D02*
X142323809Y-90969819D01*
X141133333Y-90969819D02*
X141133333Y-90446009D01*
X141133333Y-90446009D02*
X141180952Y-90350771D01*
X141180952Y-90350771D02*
X141276190Y-90303152D01*
X141276190Y-90303152D02*
X141466666Y-90303152D01*
X141466666Y-90303152D02*
X141561904Y-90350771D01*
X141133333Y-90922200D02*
X141228571Y-90969819D01*
X141228571Y-90969819D02*
X141466666Y-90969819D01*
X141466666Y-90969819D02*
X141561904Y-90922200D01*
X141561904Y-90922200D02*
X141609523Y-90826961D01*
X141609523Y-90826961D02*
X141609523Y-90731723D01*
X141609523Y-90731723D02*
X141561904Y-90636485D01*
X141561904Y-90636485D02*
X141466666Y-90588866D01*
X141466666Y-90588866D02*
X141228571Y-90588866D01*
X141228571Y-90588866D02*
X141133333Y-90541247D01*
X140657142Y-90969819D02*
X140657142Y-90303152D01*
X140657142Y-90493628D02*
X140609523Y-90398390D01*
X140609523Y-90398390D02*
X140561904Y-90350771D01*
X140561904Y-90350771D02*
X140466666Y-90303152D01*
X140466666Y-90303152D02*
X140371428Y-90303152D01*
X139609523Y-90969819D02*
X139609523Y-89969819D01*
X139609523Y-90922200D02*
X139704761Y-90969819D01*
X139704761Y-90969819D02*
X139895237Y-90969819D01*
X139895237Y-90969819D02*
X139990475Y-90922200D01*
X139990475Y-90922200D02*
X140038094Y-90874580D01*
X140038094Y-90874580D02*
X140085713Y-90779342D01*
X140085713Y-90779342D02*
X140085713Y-90493628D01*
X140085713Y-90493628D02*
X140038094Y-90398390D01*
X140038094Y-90398390D02*
X139990475Y-90350771D01*
X139990475Y-90350771D02*
X139895237Y-90303152D01*
X139895237Y-90303152D02*
X139704761Y-90303152D01*
X139704761Y-90303152D02*
X139609523Y-90350771D01*
X138466665Y-90303152D02*
X138228570Y-90969819D01*
X138228570Y-90969819D02*
X137990475Y-90303152D01*
X137085713Y-90969819D02*
X137657141Y-90969819D01*
X137371427Y-90969819D02*
X137371427Y-89969819D01*
X137371427Y-89969819D02*
X137466665Y-90112676D01*
X137466665Y-90112676D02*
X137561903Y-90207914D01*
X137561903Y-90207914D02*
X137657141Y-90255533D01*
X136563220Y-94839819D02*
X136563220Y-93839819D01*
X136563220Y-93839819D02*
X136325125Y-93839819D01*
X136325125Y-93839819D02*
X136182268Y-93887438D01*
X136182268Y-93887438D02*
X136087030Y-93982676D01*
X136087030Y-93982676D02*
X136039411Y-94077914D01*
X136039411Y-94077914D02*
X135991792Y-94268390D01*
X135991792Y-94268390D02*
X135991792Y-94411247D01*
X135991792Y-94411247D02*
X136039411Y-94601723D01*
X136039411Y-94601723D02*
X136087030Y-94696961D01*
X136087030Y-94696961D02*
X136182268Y-94792200D01*
X136182268Y-94792200D02*
X136325125Y-94839819D01*
X136325125Y-94839819D02*
X136563220Y-94839819D01*
X135563220Y-94839819D02*
X135563220Y-93839819D01*
X134515602Y-94839819D02*
X134848935Y-94363628D01*
X135087030Y-94839819D02*
X135087030Y-93839819D01*
X135087030Y-93839819D02*
X134706078Y-93839819D01*
X134706078Y-93839819D02*
X134610840Y-93887438D01*
X134610840Y-93887438D02*
X134563221Y-93935057D01*
X134563221Y-93935057D02*
X134515602Y-94030295D01*
X134515602Y-94030295D02*
X134515602Y-94173152D01*
X134515602Y-94173152D02*
X134563221Y-94268390D01*
X134563221Y-94268390D02*
X134610840Y-94316009D01*
X134610840Y-94316009D02*
X134706078Y-94363628D01*
X134706078Y-94363628D02*
X135087030Y-94363628D01*
X136610839Y-96402200D02*
X136467982Y-96449819D01*
X136467982Y-96449819D02*
X136229887Y-96449819D01*
X136229887Y-96449819D02*
X136134649Y-96402200D01*
X136134649Y-96402200D02*
X136087030Y-96354580D01*
X136087030Y-96354580D02*
X136039411Y-96259342D01*
X136039411Y-96259342D02*
X136039411Y-96164104D01*
X136039411Y-96164104D02*
X136087030Y-96068866D01*
X136087030Y-96068866D02*
X136134649Y-96021247D01*
X136134649Y-96021247D02*
X136229887Y-95973628D01*
X136229887Y-95973628D02*
X136420363Y-95926009D01*
X136420363Y-95926009D02*
X136515601Y-95878390D01*
X136515601Y-95878390D02*
X136563220Y-95830771D01*
X136563220Y-95830771D02*
X136610839Y-95735533D01*
X136610839Y-95735533D02*
X136610839Y-95640295D01*
X136610839Y-95640295D02*
X136563220Y-95545057D01*
X136563220Y-95545057D02*
X136515601Y-95497438D01*
X136515601Y-95497438D02*
X136420363Y-95449819D01*
X136420363Y-95449819D02*
X136182268Y-95449819D01*
X136182268Y-95449819D02*
X136039411Y-95497438D01*
X135610839Y-96449819D02*
X135610839Y-95449819D01*
X135610839Y-95449819D02*
X135229887Y-95449819D01*
X135229887Y-95449819D02*
X135134649Y-95497438D01*
X135134649Y-95497438D02*
X135087030Y-95545057D01*
X135087030Y-95545057D02*
X135039411Y-95640295D01*
X135039411Y-95640295D02*
X135039411Y-95783152D01*
X135039411Y-95783152D02*
X135087030Y-95878390D01*
X135087030Y-95878390D02*
X135134649Y-95926009D01*
X135134649Y-95926009D02*
X135229887Y-95973628D01*
X135229887Y-95973628D02*
X135610839Y-95973628D01*
X134610839Y-95926009D02*
X134277506Y-95926009D01*
X134134649Y-96449819D02*
X134610839Y-96449819D01*
X134610839Y-96449819D02*
X134610839Y-95449819D01*
X134610839Y-95449819D02*
X134134649Y-95449819D01*
X133706077Y-95926009D02*
X133372744Y-95926009D01*
X133229887Y-96449819D02*
X133706077Y-96449819D01*
X133706077Y-96449819D02*
X133706077Y-95449819D01*
X133706077Y-95449819D02*
X133229887Y-95449819D01*
X132801315Y-96449819D02*
X132801315Y-95449819D01*
X132801315Y-95449819D02*
X132563220Y-95449819D01*
X132563220Y-95449819D02*
X132420363Y-95497438D01*
X132420363Y-95497438D02*
X132325125Y-95592676D01*
X132325125Y-95592676D02*
X132277506Y-95687914D01*
X132277506Y-95687914D02*
X132229887Y-95878390D01*
X132229887Y-95878390D02*
X132229887Y-96021247D01*
X132229887Y-96021247D02*
X132277506Y-96211723D01*
X132277506Y-96211723D02*
X132325125Y-96306961D01*
X132325125Y-96306961D02*
X132420363Y-96402200D01*
X132420363Y-96402200D02*
X132563220Y-96449819D01*
X132563220Y-96449819D02*
X132801315Y-96449819D01*
X136039411Y-97107438D02*
X136134649Y-97059819D01*
X136134649Y-97059819D02*
X136277506Y-97059819D01*
X136277506Y-97059819D02*
X136420363Y-97107438D01*
X136420363Y-97107438D02*
X136515601Y-97202676D01*
X136515601Y-97202676D02*
X136563220Y-97297914D01*
X136563220Y-97297914D02*
X136610839Y-97488390D01*
X136610839Y-97488390D02*
X136610839Y-97631247D01*
X136610839Y-97631247D02*
X136563220Y-97821723D01*
X136563220Y-97821723D02*
X136515601Y-97916961D01*
X136515601Y-97916961D02*
X136420363Y-98012200D01*
X136420363Y-98012200D02*
X136277506Y-98059819D01*
X136277506Y-98059819D02*
X136182268Y-98059819D01*
X136182268Y-98059819D02*
X136039411Y-98012200D01*
X136039411Y-98012200D02*
X135991792Y-97964580D01*
X135991792Y-97964580D02*
X135991792Y-97631247D01*
X135991792Y-97631247D02*
X136182268Y-97631247D01*
X135563220Y-98059819D02*
X135563220Y-97059819D01*
X135563220Y-97059819D02*
X134991792Y-98059819D01*
X134991792Y-98059819D02*
X134991792Y-97059819D01*
X134515601Y-98059819D02*
X134515601Y-97059819D01*
X134515601Y-97059819D02*
X134277506Y-97059819D01*
X134277506Y-97059819D02*
X134134649Y-97107438D01*
X134134649Y-97107438D02*
X134039411Y-97202676D01*
X134039411Y-97202676D02*
X133991792Y-97297914D01*
X133991792Y-97297914D02*
X133944173Y-97488390D01*
X133944173Y-97488390D02*
X133944173Y-97631247D01*
X133944173Y-97631247D02*
X133991792Y-97821723D01*
X133991792Y-97821723D02*
X134039411Y-97916961D01*
X134039411Y-97916961D02*
X134134649Y-98012200D01*
X134134649Y-98012200D02*
X134277506Y-98059819D01*
X134277506Y-98059819D02*
X134515601Y-98059819D01*
X136706077Y-98669819D02*
X136372744Y-99669819D01*
X136372744Y-99669819D02*
X136039411Y-98669819D01*
X135134649Y-99574580D02*
X135182268Y-99622200D01*
X135182268Y-99622200D02*
X135325125Y-99669819D01*
X135325125Y-99669819D02*
X135420363Y-99669819D01*
X135420363Y-99669819D02*
X135563220Y-99622200D01*
X135563220Y-99622200D02*
X135658458Y-99526961D01*
X135658458Y-99526961D02*
X135706077Y-99431723D01*
X135706077Y-99431723D02*
X135753696Y-99241247D01*
X135753696Y-99241247D02*
X135753696Y-99098390D01*
X135753696Y-99098390D02*
X135706077Y-98907914D01*
X135706077Y-98907914D02*
X135658458Y-98812676D01*
X135658458Y-98812676D02*
X135563220Y-98717438D01*
X135563220Y-98717438D02*
X135420363Y-98669819D01*
X135420363Y-98669819D02*
X135325125Y-98669819D01*
X135325125Y-98669819D02*
X135182268Y-98717438D01*
X135182268Y-98717438D02*
X135134649Y-98765057D01*
X134134649Y-99574580D02*
X134182268Y-99622200D01*
X134182268Y-99622200D02*
X134325125Y-99669819D01*
X134325125Y-99669819D02*
X134420363Y-99669819D01*
X134420363Y-99669819D02*
X134563220Y-99622200D01*
X134563220Y-99622200D02*
X134658458Y-99526961D01*
X134658458Y-99526961D02*
X134706077Y-99431723D01*
X134706077Y-99431723D02*
X134753696Y-99241247D01*
X134753696Y-99241247D02*
X134753696Y-99098390D01*
X134753696Y-99098390D02*
X134706077Y-98907914D01*
X134706077Y-98907914D02*
X134658458Y-98812676D01*
X134658458Y-98812676D02*
X134563220Y-98717438D01*
X134563220Y-98717438D02*
X134420363Y-98669819D01*
X134420363Y-98669819D02*
X134325125Y-98669819D01*
X134325125Y-98669819D02*
X134182268Y-98717438D01*
X134182268Y-98717438D02*
X134134649Y-98765057D01*
X136369819Y-102436779D02*
X135369819Y-102436779D01*
X135369819Y-102436779D02*
X136084104Y-102770112D01*
X136084104Y-102770112D02*
X135369819Y-103103445D01*
X135369819Y-103103445D02*
X136369819Y-103103445D01*
X135465057Y-103532017D02*
X135417438Y-103579636D01*
X135417438Y-103579636D02*
X135369819Y-103674874D01*
X135369819Y-103674874D02*
X135369819Y-103912969D01*
X135369819Y-103912969D02*
X135417438Y-104008207D01*
X135417438Y-104008207D02*
X135465057Y-104055826D01*
X135465057Y-104055826D02*
X135560295Y-104103445D01*
X135560295Y-104103445D02*
X135655533Y-104103445D01*
X135655533Y-104103445D02*
X135798390Y-104055826D01*
X135798390Y-104055826D02*
X136369819Y-103484398D01*
X136369819Y-103484398D02*
X136369819Y-104103445D01*
X136274580Y-104532017D02*
X136322200Y-104579636D01*
X136322200Y-104579636D02*
X136369819Y-104532017D01*
X136369819Y-104532017D02*
X136322200Y-104484398D01*
X136322200Y-104484398D02*
X136274580Y-104532017D01*
X136274580Y-104532017D02*
X136369819Y-104532017D01*
X135369819Y-105484397D02*
X135369819Y-105008207D01*
X135369819Y-105008207D02*
X135846009Y-104960588D01*
X135846009Y-104960588D02*
X135798390Y-105008207D01*
X135798390Y-105008207D02*
X135750771Y-105103445D01*
X135750771Y-105103445D02*
X135750771Y-105341540D01*
X135750771Y-105341540D02*
X135798390Y-105436778D01*
X135798390Y-105436778D02*
X135846009Y-105484397D01*
X135846009Y-105484397D02*
X135941247Y-105532016D01*
X135941247Y-105532016D02*
X136179342Y-105532016D01*
X136179342Y-105532016D02*
X136274580Y-105484397D01*
X136274580Y-105484397D02*
X136322200Y-105436778D01*
X136322200Y-105436778D02*
X136369819Y-105341540D01*
X136369819Y-105341540D02*
X136369819Y-105103445D01*
X136369819Y-105103445D02*
X136322200Y-105008207D01*
X136322200Y-105008207D02*
X136274580Y-104960588D01*
X148938094Y-95854819D02*
X148938094Y-94854819D01*
X148938094Y-94854819D02*
X148699999Y-94854819D01*
X148699999Y-94854819D02*
X148557142Y-94902438D01*
X148557142Y-94902438D02*
X148461904Y-94997676D01*
X148461904Y-94997676D02*
X148414285Y-95092914D01*
X148414285Y-95092914D02*
X148366666Y-95283390D01*
X148366666Y-95283390D02*
X148366666Y-95426247D01*
X148366666Y-95426247D02*
X148414285Y-95616723D01*
X148414285Y-95616723D02*
X148461904Y-95711961D01*
X148461904Y-95711961D02*
X148557142Y-95807200D01*
X148557142Y-95807200D02*
X148699999Y-95854819D01*
X148699999Y-95854819D02*
X148938094Y-95854819D01*
X147414285Y-95854819D02*
X147985713Y-95854819D01*
X147699999Y-95854819D02*
X147699999Y-94854819D01*
X147699999Y-94854819D02*
X147795237Y-94997676D01*
X147795237Y-94997676D02*
X147890475Y-95092914D01*
X147890475Y-95092914D02*
X147985713Y-95140533D01*
X145627083Y-92754819D02*
X145627083Y-93469104D01*
X145627083Y-93469104D02*
X145674702Y-93611961D01*
X145674702Y-93611961D02*
X145769940Y-93707200D01*
X145769940Y-93707200D02*
X145912797Y-93754819D01*
X145912797Y-93754819D02*
X146008035Y-93754819D01*
X144627083Y-93754819D02*
X145198511Y-93754819D01*
X144912797Y-93754819D02*
X144912797Y-92754819D01*
X144912797Y-92754819D02*
X145008035Y-92897676D01*
X145008035Y-92897676D02*
X145103273Y-92992914D01*
X145103273Y-92992914D02*
X145198511Y-93040533D01*
X148366666Y-94454819D02*
X148699999Y-93978628D01*
X148938094Y-94454819D02*
X148938094Y-93454819D01*
X148938094Y-93454819D02*
X148557142Y-93454819D01*
X148557142Y-93454819D02*
X148461904Y-93502438D01*
X148461904Y-93502438D02*
X148414285Y-93550057D01*
X148414285Y-93550057D02*
X148366666Y-93645295D01*
X148366666Y-93645295D02*
X148366666Y-93788152D01*
X148366666Y-93788152D02*
X148414285Y-93883390D01*
X148414285Y-93883390D02*
X148461904Y-93931009D01*
X148461904Y-93931009D02*
X148557142Y-93978628D01*
X148557142Y-93978628D02*
X148938094Y-93978628D01*
X148033332Y-93454819D02*
X147414285Y-93454819D01*
X147414285Y-93454819D02*
X147747618Y-93835771D01*
X147747618Y-93835771D02*
X147604761Y-93835771D01*
X147604761Y-93835771D02*
X147509523Y-93883390D01*
X147509523Y-93883390D02*
X147461904Y-93931009D01*
X147461904Y-93931009D02*
X147414285Y-94026247D01*
X147414285Y-94026247D02*
X147414285Y-94264342D01*
X147414285Y-94264342D02*
X147461904Y-94359580D01*
X147461904Y-94359580D02*
X147509523Y-94407200D01*
X147509523Y-94407200D02*
X147604761Y-94454819D01*
X147604761Y-94454819D02*
X147890475Y-94454819D01*
X147890475Y-94454819D02*
X147985713Y-94407200D01*
X147985713Y-94407200D02*
X148033332Y-94359580D01*
D11*
X149285000Y-100635000D02*
X145400000Y-100635000D01*
X149285000Y-98365000D02*
X149285000Y-100635000D01*
X145400000Y-98365000D02*
X149285000Y-98365000D01*
X144293750Y-105012500D02*
X143043750Y-105012500D01*
X138033750Y-104722500D02*
X138033750Y-92102500D01*
X144003750Y-104722500D02*
X138033750Y-104722500D01*
X141743750Y-104712500D02*
X141743750Y-103962500D01*
X143243750Y-104712500D02*
X143243750Y-102912500D01*
X143993750Y-104712500D02*
X143243750Y-104712500D01*
X141743750Y-103962500D02*
X140403750Y-103962500D01*
X144293750Y-103762500D02*
X144293750Y-105012500D01*
X143243750Y-102912500D02*
X143993750Y-102912500D01*
X143993750Y-102912500D02*
X143993750Y-104712500D01*
X143243750Y-101412500D02*
X143243750Y-95412500D01*
X143993750Y-101412500D02*
X143243750Y-101412500D01*
X138793750Y-98412500D02*
X138793750Y-102902500D01*
X143243750Y-95412500D02*
X143993750Y-95412500D01*
X143993750Y-95412500D02*
X143993750Y-101412500D01*
X143243750Y-93912500D02*
X143243750Y-92112500D01*
X143993750Y-93912500D02*
X143243750Y-93912500D01*
X138793750Y-92862500D02*
X138793750Y-98412500D01*
X141743750Y-92862500D02*
X138793750Y-92862500D01*
X141743750Y-92112500D02*
X141743750Y-92862500D01*
X143243750Y-92112500D02*
X143993750Y-92112500D01*
X143993750Y-92112500D02*
X143993750Y-93912500D01*
X138033750Y-92102500D02*
X144003750Y-92102500D01*
X144003750Y-92102500D02*
X144003750Y-104722500D01*
X146927064Y-97835000D02*
X146472936Y-97835000D01*
X146927064Y-96365000D02*
X146472936Y-96365000D01*
%LPC*%
D12*
X147500000Y-90412500D03*
X132500000Y-103412500D03*
X132500000Y-90412500D03*
X147500000Y-103412500D03*
D13*
X148400000Y-99500000D03*
X145600000Y-99500000D03*
D14*
X139543750Y-103762500D03*
D15*
X141543750Y-102162500D03*
D16*
X141543750Y-99662500D03*
X141543750Y-97162500D03*
X141543750Y-94662500D03*
D17*
X147612500Y-97100000D03*
X145787500Y-97100000D03*
%LPD*%
M02*
