G04 #@! TF.GenerationSoftware,KiCad,Pcbnew,7.0.8*
G04 #@! TF.CreationDate,2023-12-02T16:20:36-07:00*
G04 #@! TF.ProjectId,wheelspeed,77686565-6c73-4706-9565-642e6b696361,v1*
G04 #@! TF.SameCoordinates,Original*
G04 #@! TF.FileFunction,Copper,L1,Top*
G04 #@! TF.FilePolarity,Positive*
%FSLAX46Y46*%
G04 Gerber Fmt 4.6, Leading zero omitted, Abs format (unit mm)*
G04 Created by KiCad (PCBNEW 7.0.8) date 2023-12-02 16:20:36*
%MOMM*%
%LPD*%
G01*
G04 APERTURE LIST*
G04 Aperture macros list*
%AMRoundRect*
0 Rectangle with rounded corners*
0 $1 Rounding radius*
0 $2 $3 $4 $5 $6 $7 $8 $9 X,Y pos of 4 corners*
0 Add a 4 corners polygon primitive as box body*
4,1,4,$2,$3,$4,$5,$6,$7,$8,$9,$2,$3,0*
0 Add four circle primitives for the rounded corners*
1,1,$1+$1,$2,$3*
1,1,$1+$1,$4,$5*
1,1,$1+$1,$6,$7*
1,1,$1+$1,$8,$9*
0 Add four rect primitives between the rounded corners*
20,1,$1+$1,$2,$3,$4,$5,0*
20,1,$1+$1,$4,$5,$6,$7,0*
20,1,$1+$1,$6,$7,$8,$9,0*
20,1,$1+$1,$8,$9,$2,$3,0*%
G04 Aperture macros list end*
G04 #@! TA.AperFunction,SMDPad,CuDef*
%ADD10RoundRect,0.250000X-0.450000X0.262500X-0.450000X-0.262500X0.450000X-0.262500X0.450000X0.262500X0*%
G04 #@! TD*
G04 #@! TA.AperFunction,ComponentPad*
%ADD11C,4.500000*%
G04 #@! TD*
G04 #@! TA.AperFunction,SMDPad,CuDef*
%ADD12RoundRect,0.250000X0.450000X-0.262500X0.450000X0.262500X-0.450000X0.262500X-0.450000X-0.262500X0*%
G04 #@! TD*
G04 #@! TA.AperFunction,SMDPad,CuDef*
%ADD13RoundRect,0.275000X0.300000X0.275000X-0.300000X0.275000X-0.300000X-0.275000X0.300000X-0.275000X0*%
G04 #@! TD*
G04 #@! TA.AperFunction,SMDPad,CuDef*
%ADD14RoundRect,0.150000X-0.512500X-0.150000X0.512500X-0.150000X0.512500X0.150000X-0.512500X0.150000X0*%
G04 #@! TD*
G04 #@! TA.AperFunction,ComponentPad*
%ADD15RoundRect,0.250000X0.725000X-0.600000X0.725000X0.600000X-0.725000X0.600000X-0.725000X-0.600000X0*%
G04 #@! TD*
G04 #@! TA.AperFunction,ComponentPad*
%ADD16O,1.950000X1.700000*%
G04 #@! TD*
G04 #@! TA.AperFunction,ViaPad*
%ADD17C,0.800000*%
G04 #@! TD*
G04 #@! TA.AperFunction,Conductor*
%ADD18C,0.500000*%
G04 #@! TD*
G04 #@! TA.AperFunction,Conductor*
%ADD19C,0.300000*%
G04 #@! TD*
G04 APERTURE END LIST*
D10*
X136293750Y-93200000D03*
X136293750Y-95025000D03*
D11*
X147500000Y-90412500D03*
X132500000Y-103412500D03*
X132500000Y-90412500D03*
D12*
X136293750Y-98925000D03*
X136293750Y-97100000D03*
D11*
X147500000Y-103412500D03*
D13*
X133000000Y-93800000D03*
X131200000Y-93800000D03*
D14*
X131093750Y-95450000D03*
X131093750Y-96400000D03*
X131093750Y-97350000D03*
X133693750Y-97350000D03*
X133693750Y-95450000D03*
D15*
X141543750Y-102162500D03*
D16*
X141543750Y-99662500D03*
X141543750Y-97162500D03*
X141543750Y-94662500D03*
D17*
X130900000Y-98700000D03*
D18*
X141543750Y-102162500D02*
X140743750Y-102162500D01*
X143393750Y-101206250D02*
X144100000Y-100500000D01*
X131256250Y-95418750D02*
X132875000Y-93800000D01*
X139806250Y-93200000D02*
X136293750Y-93200000D01*
X141543750Y-102162500D02*
X142443750Y-102162500D01*
X142443750Y-102162500D02*
X143393750Y-101212500D01*
X142593750Y-92912500D02*
X140093750Y-92912500D01*
X132875000Y-93800000D02*
X132906250Y-93800000D01*
X143393750Y-101212500D02*
X143393750Y-101206250D01*
X144100000Y-94418750D02*
X142593750Y-92912500D01*
X131256250Y-95450000D02*
X131256250Y-95418750D01*
X144100000Y-100500000D02*
X144100000Y-94418750D01*
X140743750Y-102162500D02*
X137506250Y-98925000D01*
X133506250Y-93200000D02*
X136293750Y-93200000D01*
X137506250Y-98925000D02*
X136293750Y-98925000D01*
X132906250Y-93800000D02*
X133506250Y-93200000D01*
X140093750Y-92912500D02*
X139806250Y-93200000D01*
X131200000Y-91712500D02*
X132500000Y-90412500D01*
X131200000Y-93800000D02*
X131200000Y-91712500D01*
D19*
X141543750Y-97162500D02*
X136356250Y-97162500D01*
X136356250Y-97162500D02*
X136293750Y-97100000D01*
X135200000Y-97100000D02*
X134950000Y-97350000D01*
X136293750Y-97100000D02*
X135200000Y-97100000D01*
X134950000Y-97350000D02*
X133531250Y-97350000D01*
X138281250Y-95025000D02*
X138643750Y-94662500D01*
X136293750Y-95025000D02*
X134675000Y-95025000D01*
X134675000Y-95025000D02*
X134250000Y-95450000D01*
X138643750Y-94662500D02*
X141543750Y-94662500D01*
X134250000Y-95450000D02*
X133531250Y-95450000D01*
X136293750Y-95025000D02*
X138281250Y-95025000D01*
G04 #@! TA.AperFunction,Conductor*
G36*
X146397957Y-87682685D02*
G01*
X146443712Y-87735489D01*
X146453656Y-87804647D01*
X146424631Y-87868203D01*
X146381809Y-87900076D01*
X146219680Y-87973044D01*
X146219678Y-87973045D01*
X145934968Y-88145157D01*
X145934960Y-88145162D01*
X145739416Y-88298361D01*
X145739416Y-88298362D01*
X146738627Y-89297573D01*
X146628922Y-89374390D01*
X146461890Y-89541422D01*
X146385073Y-89651126D01*
X145385862Y-88651916D01*
X145385861Y-88651916D01*
X145232662Y-88847460D01*
X145232657Y-88847468D01*
X145060545Y-89132178D01*
X145060543Y-89132180D01*
X144924005Y-89435556D01*
X144923999Y-89435571D01*
X144825032Y-89753170D01*
X144765060Y-90080423D01*
X144744974Y-90412500D01*
X144765060Y-90744576D01*
X144825032Y-91071829D01*
X144923999Y-91389428D01*
X144924005Y-91389443D01*
X145060543Y-91692819D01*
X145060545Y-91692821D01*
X145232656Y-91977530D01*
X145385862Y-92173082D01*
X146385073Y-91173872D01*
X146461890Y-91283578D01*
X146628922Y-91450610D01*
X146738626Y-91527425D01*
X145739416Y-92526636D01*
X145739416Y-92526637D01*
X145934969Y-92679843D01*
X146219678Y-92851954D01*
X146219680Y-92851956D01*
X146523056Y-92988494D01*
X146523071Y-92988500D01*
X146840670Y-93087467D01*
X147167923Y-93147439D01*
X147500000Y-93167525D01*
X147832076Y-93147439D01*
X148159329Y-93087467D01*
X148476928Y-92988500D01*
X148476943Y-92988494D01*
X148780319Y-92851956D01*
X148780321Y-92851954D01*
X149065031Y-92679842D01*
X149065039Y-92679836D01*
X149260582Y-92526637D01*
X149260582Y-92526636D01*
X148261373Y-91527426D01*
X148371078Y-91450610D01*
X148538110Y-91283578D01*
X148614926Y-91173873D01*
X149614136Y-92173082D01*
X149614137Y-92173082D01*
X149767336Y-91977539D01*
X149767343Y-91977529D01*
X149769382Y-91974157D01*
X149820909Y-91926969D01*
X149889768Y-91915129D01*
X149954097Y-91942396D01*
X149993472Y-92000114D01*
X149999500Y-92038305D01*
X149999500Y-101786693D01*
X149979815Y-101853732D01*
X149927011Y-101899487D01*
X149857853Y-101909431D01*
X149794297Y-101880406D01*
X149769383Y-101850843D01*
X149767343Y-101847469D01*
X149614136Y-101651916D01*
X148614925Y-102651126D01*
X148538110Y-102541422D01*
X148371078Y-102374390D01*
X148261372Y-102297573D01*
X149260582Y-101298362D01*
X149260582Y-101298361D01*
X149065030Y-101145156D01*
X148780321Y-100973045D01*
X148780319Y-100973043D01*
X148476943Y-100836505D01*
X148476928Y-100836499D01*
X148159329Y-100737532D01*
X147832076Y-100677560D01*
X147500000Y-100657474D01*
X147167923Y-100677560D01*
X146840670Y-100737532D01*
X146523071Y-100836499D01*
X146523056Y-100836505D01*
X146219680Y-100973043D01*
X146219678Y-100973045D01*
X145934968Y-101145157D01*
X145934960Y-101145162D01*
X145739416Y-101298361D01*
X145739416Y-101298362D01*
X146738627Y-102297573D01*
X146628922Y-102374390D01*
X146461890Y-102541422D01*
X146385073Y-102651126D01*
X145385862Y-101651916D01*
X145385861Y-101651916D01*
X145232662Y-101847460D01*
X145232657Y-101847468D01*
X145060545Y-102132178D01*
X145060543Y-102132180D01*
X144924005Y-102435556D01*
X144923999Y-102435571D01*
X144825032Y-102753170D01*
X144765060Y-103080423D01*
X144744974Y-103412500D01*
X144765060Y-103744576D01*
X144825032Y-104071829D01*
X144923999Y-104389428D01*
X144924005Y-104389443D01*
X145060543Y-104692819D01*
X145060545Y-104692821D01*
X145232656Y-104977530D01*
X145385862Y-105173082D01*
X146385073Y-104173872D01*
X146461890Y-104283578D01*
X146628922Y-104450610D01*
X146738626Y-104527425D01*
X145739416Y-105526636D01*
X145739416Y-105526637D01*
X145934969Y-105679843D01*
X146219678Y-105851954D01*
X146219680Y-105851955D01*
X146381809Y-105924924D01*
X146434864Y-105970389D01*
X146454916Y-106037319D01*
X146435600Y-106104466D01*
X146383048Y-106150510D01*
X146330918Y-106162000D01*
X133669082Y-106162000D01*
X133602043Y-106142315D01*
X133556288Y-106089511D01*
X133546344Y-106020353D01*
X133575369Y-105956797D01*
X133618191Y-105924924D01*
X133780319Y-105851955D01*
X133780321Y-105851954D01*
X134065031Y-105679842D01*
X134065039Y-105679836D01*
X134260582Y-105526637D01*
X134260582Y-105526636D01*
X133261372Y-104527426D01*
X133371078Y-104450610D01*
X133538110Y-104283578D01*
X133614926Y-104173873D01*
X134614136Y-105173082D01*
X134614137Y-105173082D01*
X134767336Y-104977539D01*
X134767342Y-104977531D01*
X134939454Y-104692821D01*
X134939456Y-104692819D01*
X135075994Y-104389443D01*
X135076000Y-104389428D01*
X135174967Y-104071829D01*
X135234939Y-103744576D01*
X135255025Y-103412500D01*
X135234939Y-103080423D01*
X135174967Y-102753170D01*
X135076000Y-102435571D01*
X135075994Y-102435556D01*
X134939456Y-102132180D01*
X134939454Y-102132178D01*
X134767343Y-101847469D01*
X134614136Y-101651916D01*
X133614925Y-102651126D01*
X133538110Y-102541422D01*
X133371078Y-102374390D01*
X133261372Y-102297573D01*
X134260582Y-101298362D01*
X134260582Y-101298361D01*
X134065030Y-101145156D01*
X133780321Y-100973045D01*
X133780319Y-100973043D01*
X133476943Y-100836505D01*
X133476928Y-100836499D01*
X133159329Y-100737532D01*
X132832076Y-100677560D01*
X132500000Y-100657474D01*
X132167923Y-100677560D01*
X131840670Y-100737532D01*
X131523071Y-100836499D01*
X131523056Y-100836505D01*
X131219680Y-100973043D01*
X131219678Y-100973045D01*
X130934968Y-101145157D01*
X130934960Y-101145162D01*
X130739416Y-101298361D01*
X130739416Y-101298362D01*
X131738627Y-102297573D01*
X131628922Y-102374390D01*
X131461890Y-102541422D01*
X131385073Y-102651126D01*
X130385862Y-101651916D01*
X130385861Y-101651916D01*
X130232662Y-101847460D01*
X130232656Y-101847468D01*
X130230617Y-101850843D01*
X130179089Y-101898031D01*
X130110229Y-101909869D01*
X130045901Y-101882600D01*
X130006527Y-101824881D01*
X130000500Y-101786693D01*
X130000500Y-98129103D01*
X130020185Y-98062064D01*
X130072989Y-98016309D01*
X130142147Y-98006365D01*
X130187621Y-98022371D01*
X130321053Y-98101282D01*
X130321056Y-98101283D01*
X130478754Y-98147099D01*
X130478760Y-98147100D01*
X130515606Y-98150000D01*
X130843750Y-98150000D01*
X130843750Y-97600000D01*
X131343750Y-97600000D01*
X131343750Y-98150000D01*
X131671894Y-98150000D01*
X131708739Y-98147100D01*
X131708745Y-98147099D01*
X131866443Y-98101283D01*
X131866446Y-98101282D01*
X132007802Y-98017685D01*
X132007811Y-98017678D01*
X132123928Y-97901561D01*
X132123935Y-97901552D01*
X132207531Y-97760198D01*
X132253350Y-97602486D01*
X132253545Y-97600001D01*
X132253545Y-97600000D01*
X131343750Y-97600000D01*
X130843750Y-97600000D01*
X130843750Y-96650000D01*
X131343750Y-96650000D01*
X131343750Y-97100000D01*
X132253545Y-97100000D01*
X132253545Y-97099998D01*
X132253350Y-97097513D01*
X132207532Y-96939804D01*
X132206540Y-96938127D01*
X132206161Y-96936635D01*
X132204435Y-96932646D01*
X132205078Y-96932367D01*
X132189354Y-96870404D01*
X132204874Y-96817544D01*
X132204435Y-96817354D01*
X132205976Y-96813792D01*
X132206540Y-96811873D01*
X132207532Y-96810195D01*
X132253350Y-96652486D01*
X132253545Y-96650001D01*
X132253545Y-96650000D01*
X131343750Y-96650000D01*
X130843750Y-96650000D01*
X130843750Y-96374500D01*
X130863435Y-96307461D01*
X130916239Y-96261706D01*
X130967750Y-96250500D01*
X131671946Y-96250500D01*
X131690381Y-96249049D01*
X131708819Y-96247598D01*
X131708821Y-96247597D01*
X131708823Y-96247597D01*
X131750441Y-96235505D01*
X131866648Y-96201744D01*
X131924944Y-96167268D01*
X131988065Y-96150000D01*
X132253545Y-96150000D01*
X132253545Y-96149998D01*
X132253350Y-96147511D01*
X132253349Y-96147505D01*
X132207533Y-95989806D01*
X132207531Y-95989801D01*
X132206828Y-95988612D01*
X132206560Y-95987558D01*
X132204434Y-95982644D01*
X132205226Y-95982300D01*
X132189645Y-95920888D01*
X132205259Y-95867714D01*
X132204896Y-95867557D01*
X132206170Y-95864612D01*
X132206829Y-95862369D01*
X132207689Y-95860913D01*
X132207994Y-95860398D01*
X132253848Y-95702569D01*
X132256051Y-95674582D01*
X132256750Y-95665696D01*
X132256750Y-95530978D01*
X132276435Y-95463939D01*
X132293065Y-95443301D01*
X132319070Y-95417296D01*
X132380392Y-95383812D01*
X132450084Y-95388796D01*
X132506017Y-95430668D01*
X132530434Y-95496132D01*
X132530750Y-95504978D01*
X132530750Y-95665696D01*
X132533651Y-95702567D01*
X132533652Y-95702573D01*
X132579504Y-95860393D01*
X132579505Y-95860396D01*
X132579506Y-95860398D01*
X132583740Y-95867557D01*
X132663167Y-96001862D01*
X132663173Y-96001870D01*
X132779379Y-96118076D01*
X132779383Y-96118079D01*
X132779385Y-96118081D01*
X132920852Y-96201744D01*
X132962474Y-96213836D01*
X133078676Y-96247597D01*
X133078679Y-96247597D01*
X133078681Y-96247598D01*
X133090972Y-96248565D01*
X133115554Y-96250500D01*
X133115556Y-96250500D01*
X134271946Y-96250500D01*
X134290381Y-96249049D01*
X134308819Y-96247598D01*
X134308821Y-96247597D01*
X134308823Y-96247597D01*
X134350441Y-96235505D01*
X134466648Y-96201744D01*
X134608115Y-96118081D01*
X134724331Y-96001865D01*
X134807994Y-95860398D01*
X134818950Y-95822685D01*
X134850346Y-95769599D01*
X134908128Y-95711818D01*
X134969451Y-95678334D01*
X134995808Y-95675500D01*
X135132082Y-95675500D01*
X135199121Y-95695185D01*
X135237620Y-95734403D01*
X135251035Y-95756152D01*
X135251038Y-95756156D01*
X135375094Y-95880212D01*
X135499525Y-95956961D01*
X135546249Y-96008909D01*
X135557472Y-96077872D01*
X135529628Y-96141954D01*
X135499525Y-96168039D01*
X135375092Y-96244789D01*
X135251038Y-96368843D01*
X135251036Y-96368846D01*
X135236515Y-96392387D01*
X135184566Y-96439109D01*
X135134877Y-96451225D01*
X135097434Y-96452402D01*
X135097424Y-96452404D01*
X135077048Y-96458323D01*
X135058008Y-96462266D01*
X135036947Y-96464927D01*
X135036939Y-96464929D01*
X134991775Y-96482811D01*
X134986247Y-96484703D01*
X134939602Y-96498255D01*
X134921332Y-96509060D01*
X134903863Y-96517618D01*
X134884128Y-96525432D01*
X134884126Y-96525433D01*
X134852585Y-96548348D01*
X134847007Y-96552402D01*
X134844839Y-96553977D01*
X134839956Y-96557184D01*
X134798132Y-96581919D01*
X134783126Y-96596926D01*
X134768336Y-96609558D01*
X134751167Y-96622032D01*
X134751164Y-96622035D01*
X134738407Y-96637455D01*
X134680505Y-96676560D01*
X134610654Y-96678153D01*
X134579747Y-96665142D01*
X134466648Y-96598256D01*
X134466647Y-96598255D01*
X134466646Y-96598255D01*
X134466643Y-96598254D01*
X134308823Y-96552402D01*
X134308817Y-96552401D01*
X134271946Y-96549500D01*
X134271944Y-96549500D01*
X133115556Y-96549500D01*
X133115554Y-96549500D01*
X133078682Y-96552401D01*
X133078676Y-96552402D01*
X132920856Y-96598254D01*
X132920853Y-96598255D01*
X132779387Y-96681917D01*
X132779379Y-96681923D01*
X132663173Y-96798129D01*
X132663167Y-96798137D01*
X132579505Y-96939603D01*
X132579504Y-96939606D01*
X132533652Y-97097426D01*
X132533651Y-97097432D01*
X132530750Y-97134304D01*
X132530750Y-97565696D01*
X132533651Y-97602567D01*
X132533652Y-97602573D01*
X132579504Y-97760393D01*
X132579505Y-97760396D01*
X132663167Y-97901862D01*
X132663173Y-97901870D01*
X132779379Y-98018076D01*
X132779383Y-98018079D01*
X132779385Y-98018081D01*
X132920852Y-98101744D01*
X132962474Y-98113836D01*
X133078676Y-98147597D01*
X133078679Y-98147597D01*
X133078681Y-98147598D01*
X133090972Y-98148565D01*
X133115554Y-98150500D01*
X133115556Y-98150500D01*
X134271946Y-98150500D01*
X134290381Y-98149049D01*
X134308819Y-98147598D01*
X134308821Y-98147597D01*
X134308823Y-98147597D01*
X134353868Y-98134510D01*
X134466648Y-98101744D01*
X134572983Y-98038858D01*
X134608645Y-98017768D01*
X134671766Y-98000500D01*
X134864495Y-98000500D01*
X134880505Y-98002267D01*
X134880528Y-98002026D01*
X134888289Y-98002758D01*
X134888296Y-98002760D01*
X134960203Y-98000500D01*
X134990925Y-98000500D01*
X134998190Y-97999581D01*
X135004016Y-97999122D01*
X135052569Y-97997597D01*
X135072956Y-97991673D01*
X135091996Y-97987731D01*
X135113058Y-97985071D01*
X135130359Y-97978220D01*
X135199933Y-97971842D01*
X135261915Y-98004092D01*
X135296621Y-98064733D01*
X135293033Y-98134510D01*
X135263691Y-98181191D01*
X135251038Y-98193844D01*
X135158937Y-98343163D01*
X135158935Y-98343168D01*
X135150298Y-98369234D01*
X135103751Y-98509703D01*
X135103751Y-98509704D01*
X135103750Y-98509704D01*
X135093250Y-98612483D01*
X135093250Y-99237501D01*
X135093251Y-99237519D01*
X135103750Y-99340296D01*
X135103751Y-99340299D01*
X135144460Y-99463149D01*
X135158936Y-99506834D01*
X135251038Y-99656156D01*
X135375094Y-99780212D01*
X135524416Y-99872314D01*
X135690953Y-99927499D01*
X135793741Y-99938000D01*
X136793758Y-99937999D01*
X136793766Y-99937998D01*
X136793769Y-99937998D01*
X136850052Y-99932248D01*
X136896547Y-99927499D01*
X137063084Y-99872314D01*
X137183194Y-99798229D01*
X137250586Y-99779790D01*
X137317249Y-99800713D01*
X137335971Y-99816088D01*
X140031931Y-102512048D01*
X140065416Y-102573371D01*
X140068250Y-102599728D01*
X140068250Y-102812500D01*
X140068251Y-102812519D01*
X140073530Y-102864190D01*
X140060760Y-102932883D01*
X140012879Y-102983767D01*
X139945089Y-103000687D01*
X139898105Y-102989330D01*
X139891028Y-102986056D01*
X139816917Y-102951768D01*
X139816913Y-102951766D01*
X139636247Y-102912000D01*
X139497637Y-102912000D01*
X139497633Y-102912000D01*
X139359838Y-102926986D01*
X139184526Y-102986057D01*
X139184524Y-102986058D01*
X139026012Y-103081431D01*
X139026011Y-103081432D01*
X138891709Y-103208649D01*
X138787888Y-103361776D01*
X138719419Y-103533622D01*
X138689490Y-103716185D01*
X138699505Y-103900906D01*
X138699505Y-103900911D01*
X138748994Y-104079156D01*
X138748997Y-104079162D01*
X138835648Y-104242602D01*
X138898290Y-104316350D01*
X138955413Y-104383600D01*
X139102686Y-104495554D01*
X139270583Y-104573232D01*
X139270584Y-104573232D01*
X139270586Y-104573233D01*
X139325398Y-104585297D01*
X139451253Y-104613000D01*
X139451256Y-104613000D01*
X139589857Y-104613000D01*
X139589863Y-104613000D01*
X139727660Y-104598014D01*
X139902971Y-104538944D01*
X140061486Y-104443570D01*
X140195791Y-104316349D01*
X140299608Y-104163230D01*
X140368081Y-103991375D01*
X140398010Y-103808817D01*
X140387995Y-103624093D01*
X140384844Y-103612744D01*
X140385876Y-103542882D01*
X140424514Y-103484668D01*
X140488491Y-103456585D01*
X140543323Y-103461863D01*
X140665953Y-103502499D01*
X140768741Y-103513000D01*
X142318758Y-103512999D01*
X142421547Y-103502499D01*
X142588084Y-103447314D01*
X142737406Y-103355212D01*
X142861462Y-103231156D01*
X142953564Y-103081834D01*
X143008749Y-102915297D01*
X143019250Y-102812509D01*
X143019249Y-102699728D01*
X143038933Y-102632690D01*
X143055563Y-102612053D01*
X143879392Y-101788224D01*
X143893021Y-101776447D01*
X143912280Y-101762110D01*
X143945851Y-101722101D01*
X143949511Y-101718106D01*
X143955338Y-101712280D01*
X143955338Y-101712279D01*
X143955341Y-101712277D01*
X143975690Y-101686540D01*
X143977814Y-101684008D01*
X143981489Y-101679877D01*
X144585641Y-101075724D01*
X144599260Y-101063954D01*
X144618530Y-101049610D01*
X144652123Y-101009574D01*
X144655757Y-101005608D01*
X144661590Y-100999777D01*
X144681927Y-100974055D01*
X144731302Y-100915214D01*
X144731304Y-100915209D01*
X144735272Y-100909179D01*
X144735323Y-100909212D01*
X144739369Y-100902860D01*
X144739317Y-100902828D01*
X144743109Y-100896679D01*
X144743111Y-100896677D01*
X144775569Y-100827069D01*
X144810040Y-100758433D01*
X144810043Y-100758417D01*
X144812510Y-100751644D01*
X144812568Y-100751665D01*
X144815043Y-100744546D01*
X144814985Y-100744527D01*
X144817256Y-100737672D01*
X144817276Y-100737578D01*
X144832784Y-100662467D01*
X144850500Y-100587721D01*
X144850500Y-100587720D01*
X144851339Y-100580548D01*
X144851397Y-100580554D01*
X144852164Y-100573056D01*
X144852104Y-100573051D01*
X144852733Y-100565860D01*
X144850500Y-100489103D01*
X144850500Y-94482455D01*
X144851809Y-94464485D01*
X144853867Y-94450432D01*
X144855289Y-94440727D01*
X144855140Y-94439028D01*
X144852409Y-94407808D01*
X144850735Y-94388683D01*
X144850500Y-94383282D01*
X144850500Y-94375046D01*
X144850500Y-94375041D01*
X144846691Y-94342455D01*
X144839998Y-94265953D01*
X144839995Y-94265944D01*
X144838538Y-94258885D01*
X144838598Y-94258872D01*
X144836966Y-94251514D01*
X144836908Y-94251528D01*
X144835241Y-94244497D01*
X144835241Y-94244495D01*
X144808969Y-94172313D01*
X144808132Y-94169788D01*
X144784815Y-94099418D01*
X144781762Y-94092871D01*
X144781815Y-94092845D01*
X144778531Y-94086061D01*
X144778479Y-94086088D01*
X144775236Y-94079632D01*
X144773194Y-94076528D01*
X144733034Y-94015466D01*
X144705104Y-93970185D01*
X144692714Y-93950097D01*
X144688234Y-93944431D01*
X144688280Y-93944393D01*
X144683519Y-93938549D01*
X144683474Y-93938588D01*
X144678834Y-93933058D01*
X144622982Y-93880363D01*
X143169479Y-92426861D01*
X143157699Y-92413230D01*
X143150232Y-92403201D01*
X143143362Y-92393972D01*
X143123149Y-92377011D01*
X143103337Y-92360386D01*
X143099362Y-92356744D01*
X143096440Y-92353822D01*
X143093530Y-92350911D01*
X143067790Y-92330559D01*
X143008959Y-92281194D01*
X143002930Y-92277229D01*
X143002962Y-92277180D01*
X142996603Y-92273128D01*
X142996572Y-92273179D01*
X142990430Y-92269391D01*
X142990428Y-92269390D01*
X142990427Y-92269389D01*
X142951224Y-92251108D01*
X142920808Y-92236924D01*
X142886644Y-92219767D01*
X142852183Y-92202460D01*
X142852181Y-92202459D01*
X142852180Y-92202459D01*
X142845395Y-92199989D01*
X142845415Y-92199933D01*
X142838299Y-92197459D01*
X142838281Y-92197515D01*
X142831421Y-92195242D01*
X142803591Y-92189496D01*
X142756184Y-92179707D01*
X142707222Y-92168103D01*
X142681469Y-92161999D01*
X142674297Y-92161161D01*
X142674303Y-92161101D01*
X142666805Y-92160335D01*
X142666800Y-92160395D01*
X142659610Y-92159765D01*
X142582833Y-92162000D01*
X140157455Y-92162000D01*
X140139485Y-92160691D01*
X140115722Y-92157210D01*
X140070640Y-92161155D01*
X140063683Y-92161764D01*
X140058282Y-92162000D01*
X140050038Y-92162000D01*
X140017457Y-92165808D01*
X139940949Y-92172501D01*
X139933883Y-92173961D01*
X139933871Y-92173904D01*
X139926504Y-92175538D01*
X139926518Y-92175594D01*
X139919501Y-92177256D01*
X139847323Y-92203526D01*
X139774412Y-92227687D01*
X139767869Y-92230738D01*
X139767844Y-92230686D01*
X139761064Y-92233968D01*
X139761090Y-92234020D01*
X139754631Y-92237264D01*
X139690459Y-92279470D01*
X139625095Y-92319788D01*
X139619427Y-92324270D01*
X139619391Y-92324224D01*
X139613548Y-92328984D01*
X139613585Y-92329028D01*
X139608055Y-92333667D01*
X139555349Y-92389533D01*
X139531700Y-92413181D01*
X139470377Y-92446666D01*
X139444019Y-92449500D01*
X137368480Y-92449500D01*
X137301441Y-92429815D01*
X137280799Y-92413181D01*
X137212407Y-92344789D01*
X137212406Y-92344788D01*
X137063084Y-92252686D01*
X136896547Y-92197501D01*
X136896545Y-92197500D01*
X136793760Y-92187000D01*
X135793748Y-92187000D01*
X135793730Y-92187001D01*
X135690953Y-92197500D01*
X135690950Y-92197501D01*
X135524418Y-92252685D01*
X135524413Y-92252687D01*
X135375092Y-92344789D01*
X135306701Y-92413181D01*
X135245378Y-92446666D01*
X135219020Y-92449500D01*
X134651450Y-92449500D01*
X134584411Y-92429815D01*
X134538656Y-92377011D01*
X134528712Y-92307853D01*
X134557737Y-92244297D01*
X134560006Y-92241859D01*
X134562162Y-92239426D01*
X134767337Y-91977540D01*
X134767342Y-91977531D01*
X134939454Y-91692821D01*
X134939456Y-91692819D01*
X135075994Y-91389443D01*
X135076000Y-91389428D01*
X135174967Y-91071829D01*
X135234939Y-90744576D01*
X135255025Y-90412500D01*
X135234939Y-90080423D01*
X135174967Y-89753170D01*
X135076000Y-89435571D01*
X135075994Y-89435556D01*
X134939456Y-89132180D01*
X134939454Y-89132178D01*
X134767343Y-88847469D01*
X134614136Y-88651916D01*
X133614925Y-89651126D01*
X133538110Y-89541422D01*
X133371078Y-89374390D01*
X133261372Y-89297573D01*
X134260582Y-88298362D01*
X134260582Y-88298361D01*
X134065030Y-88145156D01*
X133780321Y-87973045D01*
X133780319Y-87973044D01*
X133618191Y-87900076D01*
X133565136Y-87854611D01*
X133545084Y-87787681D01*
X133564400Y-87720534D01*
X133616952Y-87674490D01*
X133669082Y-87663000D01*
X146330918Y-87663000D01*
X146397957Y-87682685D01*
G37*
G04 #@! TD.AperFunction*
G04 #@! TA.AperFunction,Conductor*
G36*
X143233195Y-94613312D02*
G01*
X143313181Y-94693298D01*
X143346666Y-94754621D01*
X143349500Y-94780979D01*
X143349500Y-100137769D01*
X143329815Y-100204808D01*
X143313181Y-100225450D01*
X143012588Y-100526042D01*
X142951265Y-100559527D01*
X142881573Y-100554543D01*
X142825640Y-100512671D01*
X142801223Y-100447207D01*
X142816075Y-100378934D01*
X142823334Y-100367235D01*
X142842348Y-100340081D01*
X142842349Y-100340079D01*
X142942179Y-100125992D01*
X142942182Y-100125986D01*
X142999386Y-99912500D01*
X141947719Y-99912500D01*
X141980269Y-99861851D01*
X142018750Y-99730795D01*
X142018750Y-99594205D01*
X141980269Y-99463149D01*
X141947719Y-99412500D01*
X142999386Y-99412500D01*
X142999385Y-99412499D01*
X142942182Y-99199013D01*
X142942179Y-99199007D01*
X142842350Y-98984922D01*
X142842349Y-98984920D01*
X142706863Y-98791426D01*
X142706858Y-98791420D01*
X142539829Y-98624391D01*
X142539823Y-98624386D01*
X142382717Y-98514380D01*
X142339092Y-98459803D01*
X142331898Y-98390305D01*
X142363421Y-98327950D01*
X142382710Y-98311235D01*
X142540151Y-98200995D01*
X142707245Y-98033901D01*
X142842785Y-97840330D01*
X142942653Y-97626163D01*
X143003813Y-97397908D01*
X143024409Y-97162500D01*
X143003813Y-96927092D01*
X142942653Y-96698837D01*
X142842785Y-96484671D01*
X142842784Y-96484669D01*
X142707244Y-96291097D01*
X142540153Y-96124006D01*
X142430360Y-96047129D01*
X142383151Y-96014073D01*
X142339528Y-95959499D01*
X142332334Y-95890000D01*
X142363856Y-95827645D01*
X142383148Y-95810928D01*
X142540151Y-95700995D01*
X142707245Y-95533901D01*
X142842785Y-95340330D01*
X142942653Y-95126163D01*
X143003813Y-94897908D01*
X143021986Y-94690183D01*
X143047438Y-94625117D01*
X143104029Y-94584138D01*
X143173791Y-94580260D01*
X143233195Y-94613312D01*
G37*
G04 #@! TD.AperFunction*
G04 #@! TA.AperFunction,Conductor*
G36*
X140228068Y-97832685D02*
G01*
X140262604Y-97865877D01*
X140380256Y-98033903D01*
X140547347Y-98200994D01*
X140704781Y-98311230D01*
X140748406Y-98365807D01*
X140755600Y-98435305D01*
X140724077Y-98497660D01*
X140704782Y-98514380D01*
X140547672Y-98624390D01*
X140547670Y-98624391D01*
X140380644Y-98791417D01*
X140245149Y-98984921D01*
X140145320Y-99199007D01*
X140145317Y-99199013D01*
X140088114Y-99412499D01*
X140088114Y-99412500D01*
X141139781Y-99412500D01*
X141107231Y-99463149D01*
X141068750Y-99594205D01*
X141068750Y-99730795D01*
X141107231Y-99861851D01*
X141139781Y-99912500D01*
X140088114Y-99912500D01*
X140145317Y-100125986D01*
X140145321Y-100125997D01*
X140177264Y-100194499D01*
X140187756Y-100263576D01*
X140159236Y-100327360D01*
X140100759Y-100365599D01*
X140030891Y-100366153D01*
X139977201Y-100334584D01*
X139236822Y-99594205D01*
X138081979Y-98439361D01*
X138070199Y-98425730D01*
X138062732Y-98415701D01*
X138055862Y-98406472D01*
X138036595Y-98390305D01*
X138015837Y-98372886D01*
X138011862Y-98369244D01*
X138008425Y-98365807D01*
X138006030Y-98363411D01*
X137980290Y-98343059D01*
X137921459Y-98293694D01*
X137915430Y-98289729D01*
X137915462Y-98289680D01*
X137909103Y-98285628D01*
X137909072Y-98285679D01*
X137902930Y-98281891D01*
X137902928Y-98281890D01*
X137902927Y-98281889D01*
X137863724Y-98263608D01*
X137833308Y-98249424D01*
X137799144Y-98232267D01*
X137764683Y-98214960D01*
X137764681Y-98214959D01*
X137764680Y-98214959D01*
X137757895Y-98212489D01*
X137757915Y-98212433D01*
X137750799Y-98209959D01*
X137750781Y-98210015D01*
X137743921Y-98207742D01*
X137711238Y-98200994D01*
X137668684Y-98192207D01*
X137619722Y-98180603D01*
X137593969Y-98174499D01*
X137586797Y-98173661D01*
X137586803Y-98173601D01*
X137579305Y-98172835D01*
X137579300Y-98172895D01*
X137572110Y-98172265D01*
X137495333Y-98174500D01*
X137368480Y-98174500D01*
X137301441Y-98154815D01*
X137280799Y-98138181D01*
X137242799Y-98100181D01*
X137209314Y-98038858D01*
X137214298Y-97969166D01*
X137242797Y-97924820D01*
X137318300Y-97849318D01*
X137379624Y-97815834D01*
X137405981Y-97813000D01*
X140161029Y-97813000D01*
X140228068Y-97832685D01*
G37*
G04 #@! TD.AperFunction*
G04 #@! TA.AperFunction,Conductor*
G36*
X131461890Y-91283578D02*
G01*
X131628922Y-91450610D01*
X131738626Y-91527425D01*
X130739416Y-92526636D01*
X130739416Y-92526637D01*
X130766992Y-92548241D01*
X130807625Y-92605081D01*
X130811077Y-92674865D01*
X130776253Y-92735438D01*
X130731474Y-92762894D01*
X130561611Y-92822331D01*
X130413737Y-92915246D01*
X130290246Y-93038737D01*
X130229494Y-93135425D01*
X130177159Y-93181716D01*
X130108106Y-93192364D01*
X130044257Y-93163989D01*
X130005885Y-93105600D01*
X130000500Y-93069453D01*
X130000500Y-92038306D01*
X130020185Y-91971267D01*
X130072989Y-91925512D01*
X130142147Y-91915568D01*
X130205703Y-91944593D01*
X130230621Y-91974163D01*
X130232656Y-91977530D01*
X130385862Y-92173082D01*
X131385073Y-91173872D01*
X131461890Y-91283578D01*
G37*
G04 #@! TD.AperFunction*
M02*
