G04 #@! TF.GenerationSoftware,KiCad,Pcbnew,7.0.8*
G04 #@! TF.CreationDate,2023-12-02T16:20:36-07:00*
G04 #@! TF.ProjectId,wheelspeed,77686565-6c73-4706-9565-642e6b696361,v1*
G04 #@! TF.SameCoordinates,Original*
G04 #@! TF.FileFunction,Legend,Top*
G04 #@! TF.FilePolarity,Positive*
%FSLAX46Y46*%
G04 Gerber Fmt 4.6, Leading zero omitted, Abs format (unit mm)*
G04 Created by KiCad (PCBNEW 7.0.8) date 2023-12-02 16:20:36*
%MOMM*%
%LPD*%
G01*
G04 APERTURE LIST*
G04 Aperture macros list*
%AMRoundRect*
0 Rectangle with rounded corners*
0 $1 Rounding radius*
0 $2 $3 $4 $5 $6 $7 $8 $9 X,Y pos of 4 corners*
0 Add a 4 corners polygon primitive as box body*
4,1,4,$2,$3,$4,$5,$6,$7,$8,$9,$2,$3,0*
0 Add four circle primitives for the rounded corners*
1,1,$1+$1,$2,$3*
1,1,$1+$1,$4,$5*
1,1,$1+$1,$6,$7*
1,1,$1+$1,$8,$9*
0 Add four rect primitives between the rounded corners*
20,1,$1+$1,$2,$3,$4,$5,0*
20,1,$1+$1,$4,$5,$6,$7,0*
20,1,$1+$1,$6,$7,$8,$9,0*
20,1,$1+$1,$8,$9,$2,$3,0*%
G04 Aperture macros list end*
%ADD10C,0.150000*%
%ADD11C,0.120000*%
%ADD12RoundRect,0.250000X-0.450000X0.262500X-0.450000X-0.262500X0.450000X-0.262500X0.450000X0.262500X0*%
%ADD13C,4.500000*%
%ADD14RoundRect,0.250000X0.450000X-0.262500X0.450000X0.262500X-0.450000X0.262500X-0.450000X-0.262500X0*%
%ADD15RoundRect,0.275000X0.300000X0.275000X-0.300000X0.275000X-0.300000X-0.275000X0.300000X-0.275000X0*%
%ADD16RoundRect,0.150000X-0.512500X-0.150000X0.512500X-0.150000X0.512500X0.150000X-0.512500X0.150000X0*%
%ADD17C,1.200000*%
%ADD18RoundRect,0.250000X0.725000X-0.600000X0.725000X0.600000X-0.725000X0.600000X-0.725000X-0.600000X0*%
%ADD19O,1.950000X1.700000*%
G04 APERTURE END LIST*
D10*
X135522493Y-104769819D02*
X135522493Y-105484104D01*
X135522493Y-105484104D02*
X135474874Y-105626961D01*
X135474874Y-105626961D02*
X135379636Y-105722200D01*
X135379636Y-105722200D02*
X135236779Y-105769819D01*
X135236779Y-105769819D02*
X135141541Y-105769819D01*
X136474874Y-105769819D02*
X135998684Y-105769819D01*
X135998684Y-105769819D02*
X135998684Y-104769819D01*
X137379636Y-105674580D02*
X137332017Y-105722200D01*
X137332017Y-105722200D02*
X137189160Y-105769819D01*
X137189160Y-105769819D02*
X137093922Y-105769819D01*
X137093922Y-105769819D02*
X136951065Y-105722200D01*
X136951065Y-105722200D02*
X136855827Y-105626961D01*
X136855827Y-105626961D02*
X136808208Y-105531723D01*
X136808208Y-105531723D02*
X136760589Y-105341247D01*
X136760589Y-105341247D02*
X136760589Y-105198390D01*
X136760589Y-105198390D02*
X136808208Y-105007914D01*
X136808208Y-105007914D02*
X136855827Y-104912676D01*
X136855827Y-104912676D02*
X136951065Y-104817438D01*
X136951065Y-104817438D02*
X137093922Y-104769819D01*
X137093922Y-104769819D02*
X137189160Y-104769819D01*
X137189160Y-104769819D02*
X137332017Y-104817438D01*
X137332017Y-104817438D02*
X137379636Y-104865057D01*
X138093922Y-104769819D02*
X138093922Y-105484104D01*
X138093922Y-105484104D02*
X138046303Y-105626961D01*
X138046303Y-105626961D02*
X137951065Y-105722200D01*
X137951065Y-105722200D02*
X137808208Y-105769819D01*
X137808208Y-105769819D02*
X137712970Y-105769819D01*
X139046303Y-105769819D02*
X138570113Y-105769819D01*
X138570113Y-105769819D02*
X138570113Y-104769819D01*
X139951065Y-105674580D02*
X139903446Y-105722200D01*
X139903446Y-105722200D02*
X139760589Y-105769819D01*
X139760589Y-105769819D02*
X139665351Y-105769819D01*
X139665351Y-105769819D02*
X139522494Y-105722200D01*
X139522494Y-105722200D02*
X139427256Y-105626961D01*
X139427256Y-105626961D02*
X139379637Y-105531723D01*
X139379637Y-105531723D02*
X139332018Y-105341247D01*
X139332018Y-105341247D02*
X139332018Y-105198390D01*
X139332018Y-105198390D02*
X139379637Y-105007914D01*
X139379637Y-105007914D02*
X139427256Y-104912676D01*
X139427256Y-104912676D02*
X139522494Y-104817438D01*
X139522494Y-104817438D02*
X139665351Y-104769819D01*
X139665351Y-104769819D02*
X139760589Y-104769819D01*
X139760589Y-104769819D02*
X139903446Y-104817438D01*
X139903446Y-104817438D02*
X139951065Y-104865057D01*
X140665351Y-104769819D02*
X140665351Y-105484104D01*
X140665351Y-105484104D02*
X140617732Y-105626961D01*
X140617732Y-105626961D02*
X140522494Y-105722200D01*
X140522494Y-105722200D02*
X140379637Y-105769819D01*
X140379637Y-105769819D02*
X140284399Y-105769819D01*
X141617732Y-105769819D02*
X141141542Y-105769819D01*
X141141542Y-105769819D02*
X141141542Y-104769819D01*
X142522494Y-105674580D02*
X142474875Y-105722200D01*
X142474875Y-105722200D02*
X142332018Y-105769819D01*
X142332018Y-105769819D02*
X142236780Y-105769819D01*
X142236780Y-105769819D02*
X142093923Y-105722200D01*
X142093923Y-105722200D02*
X141998685Y-105626961D01*
X141998685Y-105626961D02*
X141951066Y-105531723D01*
X141951066Y-105531723D02*
X141903447Y-105341247D01*
X141903447Y-105341247D02*
X141903447Y-105198390D01*
X141903447Y-105198390D02*
X141951066Y-105007914D01*
X141951066Y-105007914D02*
X141998685Y-104912676D01*
X141998685Y-104912676D02*
X142093923Y-104817438D01*
X142093923Y-104817438D02*
X142236780Y-104769819D01*
X142236780Y-104769819D02*
X142332018Y-104769819D01*
X142332018Y-104769819D02*
X142474875Y-104817438D01*
X142474875Y-104817438D02*
X142522494Y-104865057D01*
X143236780Y-104769819D02*
X143236780Y-105484104D01*
X143236780Y-105484104D02*
X143189161Y-105626961D01*
X143189161Y-105626961D02*
X143093923Y-105722200D01*
X143093923Y-105722200D02*
X142951066Y-105769819D01*
X142951066Y-105769819D02*
X142855828Y-105769819D01*
X144189161Y-105769819D02*
X143712971Y-105769819D01*
X143712971Y-105769819D02*
X143712971Y-104769819D01*
X145093923Y-105674580D02*
X145046304Y-105722200D01*
X145046304Y-105722200D02*
X144903447Y-105769819D01*
X144903447Y-105769819D02*
X144808209Y-105769819D01*
X144808209Y-105769819D02*
X144665352Y-105722200D01*
X144665352Y-105722200D02*
X144570114Y-105626961D01*
X144570114Y-105626961D02*
X144522495Y-105531723D01*
X144522495Y-105531723D02*
X144474876Y-105341247D01*
X144474876Y-105341247D02*
X144474876Y-105198390D01*
X144474876Y-105198390D02*
X144522495Y-105007914D01*
X144522495Y-105007914D02*
X144570114Y-104912676D01*
X144570114Y-104912676D02*
X144665352Y-104817438D01*
X144665352Y-104817438D02*
X144808209Y-104769819D01*
X144808209Y-104769819D02*
X144903447Y-104769819D01*
X144903447Y-104769819D02*
X145046304Y-104817438D01*
X145046304Y-104817438D02*
X145093923Y-104865057D01*
X147922200Y-95910839D02*
X147969819Y-95767982D01*
X147969819Y-95767982D02*
X147969819Y-95529887D01*
X147969819Y-95529887D02*
X147922200Y-95434649D01*
X147922200Y-95434649D02*
X147874580Y-95387030D01*
X147874580Y-95387030D02*
X147779342Y-95339411D01*
X147779342Y-95339411D02*
X147684104Y-95339411D01*
X147684104Y-95339411D02*
X147588866Y-95387030D01*
X147588866Y-95387030D02*
X147541247Y-95434649D01*
X147541247Y-95434649D02*
X147493628Y-95529887D01*
X147493628Y-95529887D02*
X147446009Y-95720363D01*
X147446009Y-95720363D02*
X147398390Y-95815601D01*
X147398390Y-95815601D02*
X147350771Y-95863220D01*
X147350771Y-95863220D02*
X147255533Y-95910839D01*
X147255533Y-95910839D02*
X147160295Y-95910839D01*
X147160295Y-95910839D02*
X147065057Y-95863220D01*
X147065057Y-95863220D02*
X147017438Y-95815601D01*
X147017438Y-95815601D02*
X146969819Y-95720363D01*
X146969819Y-95720363D02*
X146969819Y-95482268D01*
X146969819Y-95482268D02*
X147017438Y-95339411D01*
X147969819Y-94910839D02*
X146969819Y-94910839D01*
X146969819Y-94910839D02*
X146969819Y-94672744D01*
X146969819Y-94672744D02*
X147017438Y-94529887D01*
X147017438Y-94529887D02*
X147112676Y-94434649D01*
X147112676Y-94434649D02*
X147207914Y-94387030D01*
X147207914Y-94387030D02*
X147398390Y-94339411D01*
X147398390Y-94339411D02*
X147541247Y-94339411D01*
X147541247Y-94339411D02*
X147731723Y-94387030D01*
X147731723Y-94387030D02*
X147826961Y-94434649D01*
X147826961Y-94434649D02*
X147922200Y-94529887D01*
X147922200Y-94529887D02*
X147969819Y-94672744D01*
X147969819Y-94672744D02*
X147969819Y-94910839D01*
X147969819Y-93910839D02*
X146969819Y-93910839D01*
X146969819Y-93910839D02*
X147684104Y-93577506D01*
X147684104Y-93577506D02*
X146969819Y-93244173D01*
X146969819Y-93244173D02*
X147969819Y-93244173D01*
X136748569Y-91179166D02*
X136272378Y-91512499D01*
X136748569Y-91750594D02*
X135748569Y-91750594D01*
X135748569Y-91750594D02*
X135748569Y-91369642D01*
X135748569Y-91369642D02*
X135796188Y-91274404D01*
X135796188Y-91274404D02*
X135843807Y-91226785D01*
X135843807Y-91226785D02*
X135939045Y-91179166D01*
X135939045Y-91179166D02*
X136081902Y-91179166D01*
X136081902Y-91179166D02*
X136177140Y-91226785D01*
X136177140Y-91226785D02*
X136224759Y-91274404D01*
X136224759Y-91274404D02*
X136272378Y-91369642D01*
X136272378Y-91369642D02*
X136272378Y-91750594D01*
X135843807Y-90798213D02*
X135796188Y-90750594D01*
X135796188Y-90750594D02*
X135748569Y-90655356D01*
X135748569Y-90655356D02*
X135748569Y-90417261D01*
X135748569Y-90417261D02*
X135796188Y-90322023D01*
X135796188Y-90322023D02*
X135843807Y-90274404D01*
X135843807Y-90274404D02*
X135939045Y-90226785D01*
X135939045Y-90226785D02*
X136034283Y-90226785D01*
X136034283Y-90226785D02*
X136177140Y-90274404D01*
X136177140Y-90274404D02*
X136748569Y-90845832D01*
X136748569Y-90845832D02*
X136748569Y-90226785D01*
X136748569Y-100979166D02*
X136272378Y-101312499D01*
X136748569Y-101550594D02*
X135748569Y-101550594D01*
X135748569Y-101550594D02*
X135748569Y-101169642D01*
X135748569Y-101169642D02*
X135796188Y-101074404D01*
X135796188Y-101074404D02*
X135843807Y-101026785D01*
X135843807Y-101026785D02*
X135939045Y-100979166D01*
X135939045Y-100979166D02*
X136081902Y-100979166D01*
X136081902Y-100979166D02*
X136177140Y-101026785D01*
X136177140Y-101026785D02*
X136224759Y-101074404D01*
X136224759Y-101074404D02*
X136272378Y-101169642D01*
X136272378Y-101169642D02*
X136272378Y-101550594D01*
X136748569Y-100026785D02*
X136748569Y-100598213D01*
X136748569Y-100312499D02*
X135748569Y-100312499D01*
X135748569Y-100312499D02*
X135891426Y-100407737D01*
X135891426Y-100407737D02*
X135986664Y-100502975D01*
X135986664Y-100502975D02*
X136034283Y-100598213D01*
X134759580Y-93966666D02*
X134807200Y-94014285D01*
X134807200Y-94014285D02*
X134854819Y-94157142D01*
X134854819Y-94157142D02*
X134854819Y-94252380D01*
X134854819Y-94252380D02*
X134807200Y-94395237D01*
X134807200Y-94395237D02*
X134711961Y-94490475D01*
X134711961Y-94490475D02*
X134616723Y-94538094D01*
X134616723Y-94538094D02*
X134426247Y-94585713D01*
X134426247Y-94585713D02*
X134283390Y-94585713D01*
X134283390Y-94585713D02*
X134092914Y-94538094D01*
X134092914Y-94538094D02*
X133997676Y-94490475D01*
X133997676Y-94490475D02*
X133902438Y-94395237D01*
X133902438Y-94395237D02*
X133854819Y-94252380D01*
X133854819Y-94252380D02*
X133854819Y-94157142D01*
X133854819Y-94157142D02*
X133902438Y-94014285D01*
X133902438Y-94014285D02*
X133950057Y-93966666D01*
X134854819Y-93014285D02*
X134854819Y-93585713D01*
X134854819Y-93299999D02*
X133854819Y-93299999D01*
X133854819Y-93299999D02*
X133997676Y-93395237D01*
X133997676Y-93395237D02*
X134092914Y-93490475D01*
X134092914Y-93490475D02*
X134140533Y-93585713D01*
X131638095Y-98254819D02*
X131638095Y-99064342D01*
X131638095Y-99064342D02*
X131685714Y-99159580D01*
X131685714Y-99159580D02*
X131733333Y-99207200D01*
X131733333Y-99207200D02*
X131828571Y-99254819D01*
X131828571Y-99254819D02*
X132019047Y-99254819D01*
X132019047Y-99254819D02*
X132114285Y-99207200D01*
X132114285Y-99207200D02*
X132161904Y-99159580D01*
X132161904Y-99159580D02*
X132209523Y-99064342D01*
X132209523Y-99064342D02*
X132209523Y-98254819D01*
X133209523Y-99254819D02*
X132638095Y-99254819D01*
X132923809Y-99254819D02*
X132923809Y-98254819D01*
X132923809Y-98254819D02*
X132828571Y-98397676D01*
X132828571Y-98397676D02*
X132733333Y-98492914D01*
X132733333Y-98492914D02*
X132638095Y-98540533D01*
D11*
X137028750Y-93885436D02*
X137028750Y-94339564D01*
X135558750Y-93885436D02*
X135558750Y-94339564D01*
X135558750Y-98239564D02*
X135558750Y-97785436D01*
X137028750Y-98239564D02*
X137028750Y-97785436D01*
X132240580Y-94310000D02*
X131959420Y-94310000D01*
X132240580Y-93290000D02*
X131959420Y-93290000D01*
X132393750Y-94840000D02*
X130593750Y-94840000D01*
X132393750Y-94840000D02*
X133193750Y-94840000D01*
X132393750Y-97960000D02*
X131593750Y-97960000D01*
X132393750Y-97960000D02*
X133193750Y-97960000D01*
G36*
X148343323Y-97776157D02*
G01*
X148367333Y-97783106D01*
X148389368Y-97795329D01*
X148410376Y-97813088D01*
X148428497Y-97835173D01*
X148441067Y-97860010D01*
X148447988Y-97887295D01*
X148449163Y-97916727D01*
X148447916Y-97929679D01*
X148442963Y-97949146D01*
X148433789Y-97969632D01*
X148421550Y-97988970D01*
X148408091Y-98004347D01*
X148385847Y-98021228D01*
X148360673Y-98032954D01*
X148333481Y-98039302D01*
X148305184Y-98040048D01*
X148279902Y-98035842D01*
X148254105Y-98026168D01*
X148231896Y-98011979D01*
X148213491Y-97994025D01*
X148199105Y-97973055D01*
X148188953Y-97949817D01*
X148183251Y-97925059D01*
X148182214Y-97899531D01*
X148186058Y-97873982D01*
X148194998Y-97849159D01*
X148209249Y-97825812D01*
X148216845Y-97816653D01*
X148237171Y-97797946D01*
X148259576Y-97784798D01*
X148284734Y-97776919D01*
X148313317Y-97774020D01*
X148316164Y-97773993D01*
X148343323Y-97776157D01*
G37*
G36*
X147165582Y-97213928D02*
G01*
X147192973Y-97219837D01*
X147218046Y-97230937D01*
X147240146Y-97246773D01*
X147258622Y-97266891D01*
X147272819Y-97290840D01*
X147281063Y-97313978D01*
X147283813Y-97332033D01*
X147283970Y-97352801D01*
X147281659Y-97373371D01*
X147277867Y-97388467D01*
X147269823Y-97407992D01*
X147259716Y-97424309D01*
X147245936Y-97439865D01*
X147240870Y-97444726D01*
X147218530Y-97461548D01*
X147193905Y-97473030D01*
X147167871Y-97479187D01*
X147141303Y-97480034D01*
X147115079Y-97475587D01*
X147090074Y-97465861D01*
X147067165Y-97450873D01*
X147056806Y-97441446D01*
X147038753Y-97419896D01*
X147026473Y-97397215D01*
X147019516Y-97372302D01*
X147017430Y-97344988D01*
X147020428Y-97317218D01*
X147028894Y-97291370D01*
X147042227Y-97268107D01*
X147059828Y-97248089D01*
X147081097Y-97231978D01*
X147105434Y-97220437D01*
X147132239Y-97214125D01*
X147136527Y-97213662D01*
X147165582Y-97213928D01*
G37*
G36*
X147918106Y-97121606D02*
G01*
X147944202Y-97128725D01*
X147966451Y-97139588D01*
X147986574Y-97155106D01*
X147992485Y-97160837D01*
X148005685Y-97175755D01*
X148014972Y-97190268D01*
X148019668Y-97200558D01*
X148026395Y-97223271D01*
X148029666Y-97247847D01*
X148029250Y-97271722D01*
X148027217Y-97284287D01*
X148018225Y-97310686D01*
X148004580Y-97333655D01*
X147987022Y-97352922D01*
X147966293Y-97368218D01*
X147943132Y-97379272D01*
X147918281Y-97385812D01*
X147892479Y-97387569D01*
X147866467Y-97384272D01*
X147840987Y-97375650D01*
X147816777Y-97361432D01*
X147816565Y-97361276D01*
X147795899Y-97342814D01*
X147780581Y-97321618D01*
X147770424Y-97297295D01*
X147765239Y-97269449D01*
X147764437Y-97251471D01*
X147764578Y-97236696D01*
X147765310Y-97226026D01*
X147767080Y-97217317D01*
X147770333Y-97208424D01*
X147775518Y-97197202D01*
X147775922Y-97196363D01*
X147790492Y-97172721D01*
X147809173Y-97152841D01*
X147831097Y-97137179D01*
X147855396Y-97126192D01*
X147881203Y-97120336D01*
X147907648Y-97120067D01*
X147918106Y-97121606D01*
G37*
G36*
X147950989Y-98417315D02*
G01*
X147962831Y-98417721D01*
X147971619Y-98418729D01*
X147978949Y-98420610D01*
X147986419Y-98423634D01*
X147994156Y-98427346D01*
X148017886Y-98442388D01*
X148037591Y-98461806D01*
X148052743Y-98484796D01*
X148062814Y-98510555D01*
X148067276Y-98538280D01*
X148067295Y-98538664D01*
X148067550Y-98552684D01*
X148067063Y-98566105D01*
X148065940Y-98576279D01*
X148065757Y-98577206D01*
X148058125Y-98600031D01*
X148045688Y-98622085D01*
X148029577Y-98641911D01*
X148010925Y-98658051D01*
X147996107Y-98666787D01*
X147967984Y-98676987D01*
X147939847Y-98681250D01*
X147912325Y-98679683D01*
X147886041Y-98672392D01*
X147861624Y-98659481D01*
X147839700Y-98641056D01*
X147838961Y-98640287D01*
X147821447Y-98617780D01*
X147809392Y-98593315D01*
X147802655Y-98567661D01*
X147801096Y-98541588D01*
X147804573Y-98515866D01*
X147812948Y-98491266D01*
X147826078Y-98468556D01*
X147843824Y-98448506D01*
X147866045Y-98431887D01*
X147878171Y-98425397D01*
X147885994Y-98421935D01*
X147893184Y-98419614D01*
X147901293Y-98418211D01*
X147911872Y-98417500D01*
X147926473Y-98417256D01*
X147934494Y-98417239D01*
X147950989Y-98417315D01*
G37*
G36*
X146089012Y-100081691D02*
G01*
X146100414Y-100088604D01*
X146110330Y-100095193D01*
X146135221Y-100111014D01*
X146162987Y-100126684D01*
X146191465Y-100141080D01*
X146218493Y-100153079D01*
X146231094Y-100157939D01*
X146245078Y-100162654D01*
X146261161Y-100167548D01*
X146277890Y-100172237D01*
X146293811Y-100176340D01*
X146307471Y-100179473D01*
X146317415Y-100181254D01*
X146320692Y-100181519D01*
X146326938Y-100182341D01*
X146328412Y-100185046D01*
X146324933Y-100189986D01*
X146316317Y-100197516D01*
X146309877Y-100202474D01*
X146268443Y-100230911D01*
X146226703Y-100254007D01*
X146183548Y-100272198D01*
X146137870Y-100285922D01*
X146088558Y-100295612D01*
X146064694Y-100298796D01*
X146046436Y-100300784D01*
X146032037Y-100301899D01*
X146019293Y-100302138D01*
X146006000Y-100301501D01*
X145989955Y-100299986D01*
X145978964Y-100298756D01*
X145938112Y-100292774D01*
X145899752Y-100284617D01*
X145865436Y-100274634D01*
X145855384Y-100271044D01*
X145841772Y-100265624D01*
X145827636Y-100259503D01*
X145814268Y-100253300D01*
X145802958Y-100247633D01*
X145794998Y-100243121D01*
X145791768Y-100240562D01*
X145793687Y-100239143D01*
X145800384Y-100238139D01*
X145809971Y-100237776D01*
X145849511Y-100234778D01*
X145889294Y-100226057D01*
X145928335Y-100212017D01*
X145965653Y-100193062D01*
X146000264Y-100169600D01*
X146023269Y-100149846D01*
X146033967Y-100138872D01*
X146045390Y-100125817D01*
X146056540Y-100111974D01*
X146066418Y-100098640D01*
X146074026Y-100087109D01*
X146078364Y-100078675D01*
X146078536Y-100078186D01*
X146081559Y-100078133D01*
X146089012Y-100081691D01*
G37*
G36*
X147665065Y-97504355D02*
G01*
X147693297Y-97509178D01*
X147742005Y-97522846D01*
X147788593Y-97542110D01*
X147832648Y-97566551D01*
X147873757Y-97595753D01*
X147911508Y-97629296D01*
X147945487Y-97666764D01*
X147975283Y-97707739D01*
X148000482Y-97751803D01*
X148020672Y-97798539D01*
X148035439Y-97847529D01*
X148037756Y-97857795D01*
X148040974Y-97877439D01*
X148043398Y-97901378D01*
X148044949Y-97927701D01*
X148045550Y-97954494D01*
X148045120Y-97979844D01*
X148043661Y-98001089D01*
X148036491Y-98045102D01*
X148024363Y-98090120D01*
X148007908Y-98134348D01*
X147987756Y-98175993D01*
X147973840Y-98199483D01*
X147943259Y-98241505D01*
X147908315Y-98279155D01*
X147869323Y-98312207D01*
X147826598Y-98340435D01*
X147780455Y-98363612D01*
X147731209Y-98381513D01*
X147713474Y-98386444D01*
X147702481Y-98389195D01*
X147692944Y-98391296D01*
X147683763Y-98392836D01*
X147673835Y-98393904D01*
X147662060Y-98394589D01*
X147647335Y-98394981D01*
X147628559Y-98395168D01*
X147604700Y-98395240D01*
X147578603Y-98395203D01*
X147557978Y-98394915D01*
X147542048Y-98394248D01*
X147530036Y-98393073D01*
X147521165Y-98391265D01*
X147514658Y-98388696D01*
X147509738Y-98385237D01*
X147505627Y-98380763D01*
X147504106Y-98378758D01*
X147480842Y-98346404D01*
X147457721Y-98313097D01*
X147435295Y-98279698D01*
X147414113Y-98247069D01*
X147394728Y-98216069D01*
X147377690Y-98187559D01*
X147363549Y-98162399D01*
X147354739Y-98145359D01*
X147346532Y-98127686D01*
X147338014Y-98107812D01*
X147330409Y-98088663D01*
X147326587Y-98078135D01*
X147318206Y-98054592D01*
X147309935Y-98033383D01*
X147301300Y-98013718D01*
X147291824Y-97994803D01*
X147281035Y-97975849D01*
X147268456Y-97956063D01*
X147253614Y-97934654D01*
X147236033Y-97910830D01*
X147215239Y-97883800D01*
X147193490Y-97856210D01*
X147155785Y-97808746D01*
X147159862Y-97792641D01*
X147164356Y-97779162D01*
X147171690Y-97762044D01*
X147181123Y-97742769D01*
X147191914Y-97722822D01*
X147203321Y-97703686D01*
X147207728Y-97696838D01*
X147218865Y-97681797D01*
X147233782Y-97664302D01*
X147251230Y-97645609D01*
X147269958Y-97626975D01*
X147288718Y-97609658D01*
X147306260Y-97594913D01*
X147317165Y-97586782D01*
X147352895Y-97564591D01*
X147392576Y-97544642D01*
X147399987Y-97541375D01*
X147440918Y-97526221D01*
X147484945Y-97514463D01*
X147530720Y-97506250D01*
X147576897Y-97501729D01*
X147622128Y-97501048D01*
X147665065Y-97504355D01*
G37*
G36*
X147039617Y-97754155D02*
G01*
X147087652Y-97800092D01*
X147131189Y-97846031D01*
X147169750Y-97891440D01*
X147202859Y-97935781D01*
X147208295Y-97943743D01*
X147223550Y-97967966D01*
X147238822Y-97995406D01*
X147254483Y-98026804D01*
X147270904Y-98062901D01*
X147285994Y-98098450D01*
X147299866Y-98131718D01*
X147312135Y-98160251D01*
X147323409Y-98185158D01*
X147334295Y-98207545D01*
X147345398Y-98228519D01*
X147357327Y-98249186D01*
X147370689Y-98270654D01*
X147386090Y-98294029D01*
X147404138Y-98320418D01*
X147420927Y-98344498D01*
X147481837Y-98429985D01*
X147540793Y-98509835D01*
X147597985Y-98584284D01*
X147653602Y-98653567D01*
X147707835Y-98717919D01*
X147760872Y-98777576D01*
X147812902Y-98832773D01*
X147818726Y-98838740D01*
X147867570Y-98887177D01*
X147913982Y-98930216D01*
X147958276Y-98968073D01*
X148000768Y-99000966D01*
X148041772Y-99029111D01*
X148081604Y-99052723D01*
X148120580Y-99072021D01*
X148159013Y-99087219D01*
X148196609Y-99098384D01*
X148211640Y-99102634D01*
X148225969Y-99107911D01*
X148240152Y-99114622D01*
X148254745Y-99123175D01*
X148270304Y-99133981D01*
X148287385Y-99147446D01*
X148306544Y-99163980D01*
X148328337Y-99183992D01*
X148353320Y-99207890D01*
X148376518Y-99230615D01*
X148448554Y-99301723D01*
X148449023Y-99332044D01*
X148449017Y-99347411D01*
X148448278Y-99358267D01*
X148446567Y-99366331D01*
X148443645Y-99373321D01*
X148443166Y-99374236D01*
X148439583Y-99380611D01*
X148433383Y-99391270D01*
X148425193Y-99405155D01*
X148415636Y-99421205D01*
X148405339Y-99438362D01*
X148404810Y-99439240D01*
X148393156Y-99458855D01*
X148381020Y-99479765D01*
X148369404Y-99500217D01*
X148359305Y-99518455D01*
X148353197Y-99529876D01*
X148321322Y-99589753D01*
X148291177Y-99643942D01*
X148262592Y-99692710D01*
X148235396Y-99736323D01*
X148209415Y-99775047D01*
X148184480Y-99809149D01*
X148160418Y-99838896D01*
X148139299Y-99862236D01*
X148128010Y-99873522D01*
X148116360Y-99884397D01*
X148106206Y-99893155D01*
X148102506Y-99896035D01*
X148089716Y-99903850D01*
X148071269Y-99912749D01*
X148047629Y-99922550D01*
X148019260Y-99933069D01*
X147986627Y-99944125D01*
X147954743Y-99954156D01*
X147940363Y-99958269D01*
X147920933Y-99963432D01*
X147897518Y-99969394D01*
X147871182Y-99975901D01*
X147842989Y-99982699D01*
X147814003Y-99989537D01*
X147785287Y-99996160D01*
X147757907Y-100002316D01*
X147732926Y-100007752D01*
X147711408Y-100012214D01*
X147706740Y-100013139D01*
X147694651Y-100015736D01*
X147682487Y-100018680D01*
X147680697Y-100019153D01*
X147671387Y-100020920D01*
X147664753Y-100019794D01*
X147660739Y-100017580D01*
X147653744Y-100010454D01*
X147646332Y-99998686D01*
X147639168Y-99983792D01*
X147632918Y-99967287D01*
X147628248Y-99950686D01*
X147626155Y-99938862D01*
X147625640Y-99930665D01*
X147626435Y-99922812D01*
X147628956Y-99914536D01*
X147633618Y-99905071D01*
X147640838Y-99893651D01*
X147651032Y-99879510D01*
X147664615Y-99861882D01*
X147675251Y-99848452D01*
X147698020Y-99818583D01*
X147716110Y-99791880D01*
X147729852Y-99767770D01*
X147739576Y-99745679D01*
X147745099Y-99727338D01*
X147748261Y-99712035D01*
X147749650Y-99699422D01*
X147749270Y-99687051D01*
X147747125Y-99672468D01*
X147745213Y-99662705D01*
X147733672Y-99617059D01*
X147717177Y-99568132D01*
X147695883Y-99516246D01*
X147669941Y-99461725D01*
X147639506Y-99404891D01*
X147604730Y-99346067D01*
X147566878Y-99287235D01*
X147500081Y-99191657D01*
X147430610Y-99100948D01*
X147357550Y-99013974D01*
X147279982Y-98929606D01*
X147261119Y-98910156D01*
X147225606Y-98874640D01*
X147192722Y-98843271D01*
X147162644Y-98816198D01*
X147135549Y-98793567D01*
X147111615Y-98775528D01*
X147091019Y-98762227D01*
X147073937Y-98753812D01*
X147073385Y-98753600D01*
X147062132Y-98750336D01*
X147046191Y-98747049D01*
X147027123Y-98743949D01*
X147006486Y-98741248D01*
X146985838Y-98739155D01*
X146966740Y-98737882D01*
X146954860Y-98737591D01*
X146940373Y-98738136D01*
X146922769Y-98739589D01*
X146905068Y-98741680D01*
X146898780Y-98742612D01*
X146859606Y-98751115D01*
X146825343Y-98763440D01*
X146795882Y-98779682D01*
X146771118Y-98799937D01*
X146750941Y-98824300D01*
X146735243Y-98852869D01*
X146723918Y-98885738D01*
X146720410Y-98900992D01*
X146711235Y-98957650D01*
X146705285Y-99019206D01*
X146702511Y-99085235D01*
X146702864Y-99155310D01*
X146706296Y-99229005D01*
X146712758Y-99305894D01*
X146722200Y-99385549D01*
X146734574Y-99467546D01*
X146749832Y-99551458D01*
X146767924Y-99636858D01*
X146788802Y-99723320D01*
X146812416Y-99810418D01*
X146832168Y-99876794D01*
X146843213Y-99911573D01*
X146854720Y-99945818D01*
X146867234Y-99981053D01*
X146881295Y-100018802D01*
X146897447Y-100060589D01*
X146898502Y-100063278D01*
X146905484Y-100080976D01*
X146911287Y-100095408D01*
X146916591Y-100108153D01*
X146922077Y-100120791D01*
X146928426Y-100134903D01*
X146936318Y-100152067D01*
X146942560Y-100165529D01*
X146948231Y-100177964D01*
X146952746Y-100188297D01*
X146955545Y-100195219D01*
X146956183Y-100197342D01*
X146953227Y-100199928D01*
X146944938Y-100203116D01*
X146932183Y-100206713D01*
X146915826Y-100210524D01*
X146896734Y-100214354D01*
X146875775Y-100218009D01*
X146853813Y-100221294D01*
X146843669Y-100222620D01*
X146831904Y-100223668D01*
X146815477Y-100224550D01*
X146795522Y-100225260D01*
X146773170Y-100225787D01*
X146749554Y-100226125D01*
X146725808Y-100226264D01*
X146703063Y-100226196D01*
X146682451Y-100225913D01*
X146665107Y-100225406D01*
X146652161Y-100224667D01*
X146646770Y-100224078D01*
X146637907Y-100222932D01*
X146625630Y-100221589D01*
X146613953Y-100220465D01*
X146579644Y-100216785D01*
X146541231Y-100211600D01*
X146500590Y-100205229D01*
X146459596Y-100197990D01*
X146420125Y-100190202D01*
X146384052Y-100182184D01*
X146373299Y-100179564D01*
X146315655Y-100162814D01*
X146259701Y-100141676D01*
X146204384Y-100115684D01*
X146148649Y-100084373D01*
X146126900Y-100070829D01*
X146092278Y-100048142D01*
X146061293Y-100026501D01*
X146032634Y-100004843D01*
X146004991Y-99982104D01*
X145977052Y-99957223D01*
X145947508Y-99929137D01*
X145926369Y-99908203D01*
X145898341Y-99879443D01*
X145874934Y-99853978D01*
X145855767Y-99831352D01*
X145840462Y-99811109D01*
X145828637Y-99792792D01*
X145825287Y-99786818D01*
X145819675Y-99775724D01*
X145816815Y-99767531D01*
X145816131Y-99759850D01*
X145816851Y-99751778D01*
X145822169Y-99730923D01*
X145832668Y-99708231D01*
X145847779Y-99684315D01*
X145866930Y-99659787D01*
X145889555Y-99635262D01*
X145915081Y-99611353D01*
X145942941Y-99588673D01*
X145972565Y-99567836D01*
X146003383Y-99549454D01*
X146006066Y-99548011D01*
X146015578Y-99543268D01*
X146025659Y-99539047D01*
X146037440Y-99534990D01*
X146052051Y-99530737D01*
X146070625Y-99525931D01*
X146092014Y-99520752D01*
X146117984Y-99513757D01*
X146138956Y-99506064D01*
X146156180Y-99497032D01*
X146170909Y-99486024D01*
X146182497Y-99474529D01*
X146192336Y-99462898D01*
X146198308Y-99454139D01*
X146200153Y-99448710D01*
X146198059Y-99447053D01*
X146194672Y-99448677D01*
X146187978Y-99452827D01*
X146183213Y-99456014D01*
X146162278Y-99468684D01*
X146138036Y-99480079D01*
X146109634Y-99490533D01*
X146076221Y-99500381D01*
X146059197Y-99504735D01*
X146027090Y-99514483D01*
X145992238Y-99528368D01*
X145955874Y-99545708D01*
X145919231Y-99565816D01*
X145883541Y-99588009D01*
X145850035Y-99611601D01*
X145819947Y-99635908D01*
X145814623Y-99640637D01*
X145771509Y-99683714D01*
X145733411Y-99730486D01*
X145700412Y-99780805D01*
X145672594Y-99834527D01*
X145650041Y-99891507D01*
X145632834Y-99951599D01*
X145629792Y-99965141D01*
X145626422Y-99981610D01*
X145623370Y-99997823D01*
X145621012Y-100011696D01*
X145619877Y-100019745D01*
X145618397Y-100029066D01*
X145616666Y-100034967D01*
X145615368Y-100036173D01*
X145613025Y-100032488D01*
X145609103Y-100023857D01*
X145603981Y-100011269D01*
X145598038Y-99995715D01*
X145591652Y-99978185D01*
X145585203Y-99959667D01*
X145579480Y-99942427D01*
X145572099Y-99918134D01*
X145564660Y-99891078D01*
X145557685Y-99863341D01*
X145551693Y-99837009D01*
X145547206Y-99814165D01*
X145546694Y-99811161D01*
X145544308Y-99796897D01*
X145541826Y-99782173D01*
X145540156Y-99772353D01*
X145538513Y-99759272D01*
X145537463Y-99744223D01*
X145537258Y-99735815D01*
X145536795Y-99725288D01*
X145535589Y-99717447D01*
X145534133Y-99714274D01*
X145532761Y-99710448D01*
X145531790Y-99701972D01*
X145531218Y-99690431D01*
X145531045Y-99677414D01*
X145531273Y-99664506D01*
X145531901Y-99653296D01*
X145532928Y-99645371D01*
X145534133Y-99642390D01*
X145535846Y-99638439D01*
X145537004Y-99630256D01*
X145537313Y-99622672D01*
X145538341Y-99604692D01*
X145541136Y-99582382D01*
X145545400Y-99557312D01*
X145550837Y-99531054D01*
X145557149Y-99505179D01*
X145563985Y-99481433D01*
X145585994Y-99421450D01*
X145613529Y-99363727D01*
X145646806Y-99307859D01*
X145683722Y-99256405D01*
X145698217Y-99238821D01*
X145716293Y-99218504D01*
X145736730Y-99196720D01*
X145758303Y-99174733D01*
X145779790Y-99153810D01*
X145799970Y-99135216D01*
X145805536Y-99130324D01*
X145816357Y-99120648D01*
X145824836Y-99112502D01*
X145830185Y-99106687D01*
X145831617Y-99104004D01*
X145831507Y-99103936D01*
X145826814Y-99104869D01*
X145818014Y-99108827D01*
X145806120Y-99115250D01*
X145792144Y-99123576D01*
X145777099Y-99133244D01*
X145770099Y-99137986D01*
X145736297Y-99164369D01*
X145702701Y-99196708D01*
X145669593Y-99234711D01*
X145643712Y-99268906D01*
X145635288Y-99280718D01*
X145629808Y-99288303D01*
X145626557Y-99292503D01*
X145624817Y-99294157D01*
X145623873Y-99294106D01*
X145623007Y-99293189D01*
X145623001Y-99293183D01*
X145620861Y-99288554D01*
X145617873Y-99278502D01*
X145614184Y-99263773D01*
X145609940Y-99245117D01*
X145605287Y-99223280D01*
X145600371Y-99199010D01*
X145595339Y-99173055D01*
X145590337Y-99146163D01*
X145585510Y-99119082D01*
X145581005Y-99092558D01*
X145576968Y-99067341D01*
X145573546Y-99044177D01*
X145571823Y-99031377D01*
X145567162Y-98989734D01*
X145563411Y-98945067D01*
X145560598Y-98898590D01*
X145558749Y-98851514D01*
X145557894Y-98805051D01*
X145558060Y-98760413D01*
X145559274Y-98718811D01*
X145561564Y-98681459D01*
X145563357Y-98662582D01*
X145573486Y-98586760D01*
X145586779Y-98515602D01*
X145603504Y-98448231D01*
X145623930Y-98383772D01*
X145648325Y-98321348D01*
X145676958Y-98260083D01*
X145699634Y-98217473D01*
X145725459Y-98174065D01*
X145752499Y-98134548D01*
X145781437Y-98098258D01*
X145812959Y-98064533D01*
X145847749Y-98032709D01*
X145886492Y-98002123D01*
X145929872Y-97972111D01*
X145978574Y-97942010D01*
X145992002Y-97934197D01*
X146042061Y-97907340D01*
X146097397Y-97881186D01*
X146157049Y-97856067D01*
X146220055Y-97832314D01*
X146285452Y-97810260D01*
X146352279Y-97790235D01*
X146419573Y-97772572D01*
X146486372Y-97757602D01*
X146526442Y-97749938D01*
X146539054Y-97747693D01*
X146554603Y-97744928D01*
X146569871Y-97742214D01*
X146570879Y-97742034D01*
X146610269Y-97735590D01*
X146653607Y-97729479D01*
X146699600Y-97723824D01*
X146746957Y-97718745D01*
X146794385Y-97714365D01*
X146840592Y-97710805D01*
X146884284Y-97708185D01*
X146924170Y-97706628D01*
X146952106Y-97706229D01*
X146987097Y-97706214D01*
X147039617Y-97754155D01*
G37*
G36*
X149157564Y-95470875D02*
G01*
X149159034Y-95476084D01*
X149159758Y-95479378D01*
X149160301Y-95485050D01*
X149160785Y-95496122D01*
X149161209Y-95511984D01*
X149161575Y-95532026D01*
X149161882Y-95555636D01*
X149162131Y-95582206D01*
X149162322Y-95611124D01*
X149162455Y-95641781D01*
X149162531Y-95673565D01*
X149162549Y-95705868D01*
X149162510Y-95738078D01*
X149162414Y-95769586D01*
X149162262Y-95799781D01*
X149162053Y-95828053D01*
X149161788Y-95853791D01*
X149161467Y-95876386D01*
X149161091Y-95895227D01*
X149160659Y-95909704D01*
X149160173Y-95919206D01*
X149159631Y-95923124D01*
X149159579Y-95923182D01*
X149159120Y-95926598D01*
X149158696Y-95936236D01*
X149158309Y-95952069D01*
X149157957Y-95974069D01*
X149157642Y-96002207D01*
X149157363Y-96036457D01*
X149157121Y-96076789D01*
X149156916Y-96123177D01*
X149156747Y-96175591D01*
X149156616Y-96234005D01*
X149156522Y-96298390D01*
X149156465Y-96368717D01*
X149156446Y-96442962D01*
X149156422Y-96533023D01*
X149156355Y-96622854D01*
X149156246Y-96712216D01*
X149156097Y-96800873D01*
X149155908Y-96888588D01*
X149155683Y-96975123D01*
X149155422Y-97060243D01*
X149155126Y-97143710D01*
X149154799Y-97225287D01*
X149154440Y-97304736D01*
X149154052Y-97381822D01*
X149153636Y-97456307D01*
X149153193Y-97527954D01*
X149152726Y-97596527D01*
X149152236Y-97661787D01*
X149151724Y-97723499D01*
X149151193Y-97781425D01*
X149150642Y-97835328D01*
X149150075Y-97884972D01*
X149149493Y-97930119D01*
X149148897Y-97970533D01*
X149148289Y-98005976D01*
X149147670Y-98036211D01*
X149147042Y-98061002D01*
X149146407Y-98080111D01*
X149145766Y-98093302D01*
X149145506Y-98096887D01*
X149135220Y-98191185D01*
X149120539Y-98281387D01*
X149101335Y-98367972D01*
X149077476Y-98451414D01*
X149048834Y-98532191D01*
X149015277Y-98610778D01*
X148992314Y-98657894D01*
X148950238Y-98734187D01*
X148903777Y-98807022D01*
X148853232Y-98876063D01*
X148798907Y-98940971D01*
X148741104Y-99001409D01*
X148680124Y-99057038D01*
X148616272Y-99107521D01*
X148549848Y-99152520D01*
X148548990Y-99153054D01*
X148527525Y-99165812D01*
X148505901Y-99177585D01*
X148484948Y-99188014D01*
X148465495Y-99196740D01*
X148448371Y-99203403D01*
X148434405Y-99207644D01*
X148424427Y-99209104D01*
X148420884Y-99208570D01*
X148417118Y-99205431D01*
X148410787Y-99198470D01*
X148402988Y-99188928D01*
X148399178Y-99183972D01*
X148383172Y-99163895D01*
X148365499Y-99143677D01*
X148347427Y-99124653D01*
X148330223Y-99108156D01*
X148315158Y-99095519D01*
X148314863Y-99095298D01*
X148297932Y-99083505D01*
X148280728Y-99073670D01*
X148261870Y-99065196D01*
X148239980Y-99057488D01*
X148213678Y-99049948D01*
X148204387Y-99047546D01*
X148178426Y-99040677D01*
X148157409Y-99034363D01*
X148140118Y-99028115D01*
X148125335Y-99021442D01*
X148111841Y-99013854D01*
X148098615Y-99005002D01*
X148088011Y-98996632D01*
X148075822Y-98985703D01*
X148062694Y-98972946D01*
X148049273Y-98959091D01*
X148036204Y-98944867D01*
X148024133Y-98931004D01*
X148013706Y-98918233D01*
X148005568Y-98907284D01*
X148000366Y-98898887D01*
X147998745Y-98893771D01*
X147999323Y-98892754D01*
X148003204Y-98890971D01*
X148011393Y-98887551D01*
X148022374Y-98883121D01*
X148026719Y-98881401D01*
X148043690Y-98874676D01*
X148057283Y-98869149D01*
X148069055Y-98864118D01*
X148080560Y-98858878D01*
X148093354Y-98852728D01*
X148108994Y-98844964D01*
X148123514Y-98837666D01*
X148184985Y-98803285D01*
X148242492Y-98764136D01*
X148295940Y-98720361D01*
X148345235Y-98672101D01*
X148390283Y-98619496D01*
X148430990Y-98562686D01*
X148467263Y-98501814D01*
X148499006Y-98437020D01*
X148526126Y-98368444D01*
X148548529Y-98296227D01*
X148566121Y-98220511D01*
X148576403Y-98159395D01*
X148584877Y-98078427D01*
X148587679Y-97996262D01*
X148584882Y-97913706D01*
X148576559Y-97831567D01*
X148562782Y-97750651D01*
X148543624Y-97671765D01*
X148527785Y-97620362D01*
X148499830Y-97545708D01*
X148467591Y-97475524D01*
X148430952Y-97409617D01*
X148389794Y-97347796D01*
X148344000Y-97289871D01*
X148293453Y-97235649D01*
X148288645Y-97230923D01*
X148259372Y-97203291D01*
X148230919Y-97178529D01*
X148201926Y-97155613D01*
X148171035Y-97133515D01*
X148136885Y-97111209D01*
X148101636Y-97089750D01*
X148029741Y-97050355D01*
X147957496Y-97017183D01*
X147884822Y-96990211D01*
X147811642Y-96969416D01*
X147737876Y-96954778D01*
X147663446Y-96946273D01*
X147588939Y-96943873D01*
X147568935Y-96944161D01*
X147549863Y-96944668D01*
X147533085Y-96945343D01*
X147519962Y-96946130D01*
X147512367Y-96946896D01*
X147500538Y-96948622D01*
X147485655Y-96950733D01*
X147470862Y-96952786D01*
X147470308Y-96952862D01*
X147429209Y-96959665D01*
X147384579Y-96969165D01*
X147338261Y-96980862D01*
X147292096Y-96994255D01*
X147247928Y-97008846D01*
X147207776Y-97024061D01*
X147137834Y-97055846D01*
X147071998Y-97092319D01*
X147010238Y-97133508D01*
X146952522Y-97179443D01*
X146898822Y-97230151D01*
X146849106Y-97285661D01*
X146803344Y-97346000D01*
X146761506Y-97411198D01*
X146728977Y-97470515D01*
X146716164Y-97497239D01*
X146702887Y-97527743D01*
X146689806Y-97560294D01*
X146677583Y-97593160D01*
X146666879Y-97624609D01*
X146658356Y-97652909D01*
X146656145Y-97661223D01*
X146652072Y-97677177D01*
X146615823Y-97680988D01*
X146599359Y-97682806D01*
X146583267Y-97684733D01*
X146569674Y-97686506D01*
X146562384Y-97687580D01*
X146551711Y-97689270D01*
X146537186Y-97691522D01*
X146521139Y-97693976D01*
X146512378Y-97695301D01*
X146436088Y-97708731D01*
X146356948Y-97726351D01*
X146276348Y-97747762D01*
X146195683Y-97772564D01*
X146116342Y-97800358D01*
X146039720Y-97830745D01*
X146038198Y-97831388D01*
X146024296Y-97837223D01*
X146012596Y-97842051D01*
X146004232Y-97845410D01*
X146000339Y-97846837D01*
X146000223Y-97846857D01*
X145999730Y-97843911D01*
X145999568Y-97835770D01*
X145999695Y-97823480D01*
X146000070Y-97808086D01*
X146000652Y-97790631D01*
X146001400Y-97772162D01*
X146002271Y-97753723D01*
X146003226Y-97736359D01*
X146004221Y-97721116D01*
X146005217Y-97709037D01*
X146005915Y-97702859D01*
X146008039Y-97687403D01*
X146010456Y-97669733D01*
X146012509Y-97654645D01*
X146015342Y-97634906D01*
X146018566Y-97614305D01*
X146021886Y-97594578D01*
X146025011Y-97577460D01*
X146027648Y-97564686D01*
X146027804Y-97564009D01*
X146029968Y-97554590D01*
X146032862Y-97541798D01*
X146035868Y-97528365D01*
X146035934Y-97528067D01*
X146041000Y-97506882D01*
X146047408Y-97482553D01*
X146054788Y-97456287D01*
X146062768Y-97429292D01*
X146070977Y-97402777D01*
X146079046Y-97377948D01*
X146086602Y-97356015D01*
X146093276Y-97338184D01*
X146096858Y-97329605D01*
X146099293Y-97323781D01*
X146103213Y-97314037D01*
X146107851Y-97302283D01*
X146108777Y-97299914D01*
X146113902Y-97287439D01*
X146120799Y-97271621D01*
X146129015Y-97253408D01*
X146138098Y-97233746D01*
X146147596Y-97213583D01*
X146157054Y-97193866D01*
X146166022Y-97175543D01*
X146174046Y-97159561D01*
X146180674Y-97146867D01*
X146185454Y-97138408D01*
X146187137Y-97135896D01*
X146189837Y-97131669D01*
X146194489Y-97123690D01*
X146199936Y-97113954D01*
X146218803Y-97081453D01*
X146241348Y-97045736D01*
X146266764Y-97007940D01*
X146294243Y-96969202D01*
X146322978Y-96930661D01*
X146352163Y-96893454D01*
X146380989Y-96858719D01*
X146381112Y-96858576D01*
X146392572Y-96845770D01*
X146407805Y-96829589D01*
X146425959Y-96810868D01*
X146446187Y-96790441D01*
X146467639Y-96769141D01*
X146489464Y-96747803D01*
X146510814Y-96727262D01*
X146530840Y-96708350D01*
X146548691Y-96691904D01*
X146563519Y-96678756D01*
X146568635Y-96674422D01*
X146637004Y-96620494D01*
X146707830Y-96570122D01*
X146780282Y-96523808D01*
X146853532Y-96482057D01*
X146926749Y-96445372D01*
X146993687Y-96416402D01*
X147006256Y-96411362D01*
X147017183Y-96406931D01*
X147024745Y-96403809D01*
X147026504Y-96403057D01*
X147046161Y-96395097D01*
X147070766Y-96386242D01*
X147099144Y-96376848D01*
X147130118Y-96367273D01*
X147162514Y-96357875D01*
X147195155Y-96349011D01*
X147226867Y-96341039D01*
X147242155Y-96337465D01*
X147261231Y-96333174D01*
X147277325Y-96329683D01*
X147291913Y-96326721D01*
X147306472Y-96324014D01*
X147322481Y-96321293D01*
X147341415Y-96318283D01*
X147364752Y-96314715D01*
X147370296Y-96313877D01*
X147407145Y-96309237D01*
X147448511Y-96305634D01*
X147493143Y-96303073D01*
X147539794Y-96301558D01*
X147587214Y-96301095D01*
X147634156Y-96301686D01*
X147679368Y-96303339D01*
X147721604Y-96306056D01*
X147759614Y-96309842D01*
X147778159Y-96312366D01*
X147818593Y-96318642D01*
X147853997Y-96324453D01*
X147885551Y-96330042D01*
X147914436Y-96335651D01*
X147941832Y-96341523D01*
X147968919Y-96347899D01*
X147996877Y-96355023D01*
X148026888Y-96363136D01*
X148031315Y-96364363D01*
X148059925Y-96372688D01*
X148090803Y-96382329D01*
X148122607Y-96392817D01*
X148153996Y-96403688D01*
X148183629Y-96414474D01*
X148210164Y-96424707D01*
X148232261Y-96433923D01*
X148236028Y-96435602D01*
X148243803Y-96439006D01*
X148254851Y-96443712D01*
X148265719Y-96448259D01*
X148293250Y-96460419D01*
X148324528Y-96475511D01*
X148358224Y-96492811D01*
X148393013Y-96511598D01*
X148427568Y-96531151D01*
X148460564Y-96550746D01*
X148490673Y-96569661D01*
X148500123Y-96575880D01*
X148542727Y-96605619D01*
X148584993Y-96637639D01*
X148626066Y-96671179D01*
X148665094Y-96705482D01*
X148701222Y-96739787D01*
X148733597Y-96773337D01*
X148761366Y-96805371D01*
X148768906Y-96814877D01*
X148776992Y-96824669D01*
X148784095Y-96832100D01*
X148789118Y-96836072D01*
X148790416Y-96836436D01*
X148791835Y-96835522D01*
X148793466Y-96832872D01*
X148795430Y-96828024D01*
X148797852Y-96820513D01*
X148800855Y-96809878D01*
X148804560Y-96795654D01*
X148809092Y-96777379D01*
X148814573Y-96754589D01*
X148821127Y-96726820D01*
X148828877Y-96693611D01*
X148832510Y-96677963D01*
X148841799Y-96637918D01*
X148850324Y-96601197D01*
X148857953Y-96568362D01*
X148864556Y-96539973D01*
X148870003Y-96516591D01*
X148873920Y-96499816D01*
X148877437Y-96484781D01*
X148880741Y-96470647D01*
X148883375Y-96459371D01*
X148884513Y-96454498D01*
X148890527Y-96428701D01*
X148895334Y-96408058D01*
X148899152Y-96391637D01*
X148902195Y-96378507D01*
X148904682Y-96367733D01*
X148906827Y-96358385D01*
X148907718Y-96354485D01*
X148910464Y-96342538D01*
X148914137Y-96326670D01*
X148918236Y-96309045D01*
X148921858Y-96293540D01*
X148925758Y-96276832D01*
X148930312Y-96257245D01*
X148935242Y-96235986D01*
X148940268Y-96214260D01*
X148945111Y-96193276D01*
X148949493Y-96174240D01*
X148953136Y-96158358D01*
X148955760Y-96146838D01*
X148956507Y-96143522D01*
X148958491Y-96134257D01*
X148960986Y-96122094D01*
X148962632Y-96113831D01*
X148965373Y-96102157D01*
X148968014Y-96094539D01*
X148970162Y-96091418D01*
X148971423Y-96093236D01*
X148971403Y-96100433D01*
X148971003Y-96104455D01*
X148969991Y-96114819D01*
X148968875Y-96128934D01*
X148967846Y-96144307D01*
X148967528Y-96149773D01*
X148965531Y-96185587D01*
X148963244Y-96226227D01*
X148960747Y-96270282D01*
X148958119Y-96316337D01*
X148955442Y-96362981D01*
X148954851Y-96373238D01*
X148953360Y-96399121D01*
X148951782Y-96426567D01*
X148950217Y-96453828D01*
X148948765Y-96479159D01*
X148947527Y-96500813D01*
X148947049Y-96509192D01*
X148945319Y-96539436D01*
X148943377Y-96573185D01*
X148941303Y-96609084D01*
X148939173Y-96645780D01*
X148937068Y-96681919D01*
X148935067Y-96716146D01*
X148933247Y-96747107D01*
X148931688Y-96773449D01*
X148931418Y-96777975D01*
X148929614Y-96809495D01*
X148928229Y-96836404D01*
X148927269Y-96858456D01*
X148926742Y-96875404D01*
X148926654Y-96887002D01*
X148927010Y-96893001D01*
X148927819Y-96893157D01*
X148928493Y-96890489D01*
X148930826Y-96877679D01*
X148933724Y-96859623D01*
X148937050Y-96837285D01*
X148940667Y-96811629D01*
X148944436Y-96783620D01*
X148948221Y-96754222D01*
X148950125Y-96738908D01*
X148951408Y-96728749D01*
X148953339Y-96713835D01*
X148955729Y-96695605D01*
X148958389Y-96675497D01*
X148960980Y-96656085D01*
X148963729Y-96635525D01*
X148966395Y-96615484D01*
X148968788Y-96597400D01*
X148970717Y-96582714D01*
X148971942Y-96573262D01*
X148973760Y-96559169D01*
X148976169Y-96540762D01*
X148979233Y-96517569D01*
X148983013Y-96489115D01*
X148987421Y-96456060D01*
X148991196Y-96427774D01*
X148994248Y-96404868D01*
X148996684Y-96386525D01*
X148998611Y-96371931D01*
X149000136Y-96360270D01*
X149001368Y-96350727D01*
X149002411Y-96342485D01*
X149003375Y-96334729D01*
X149003444Y-96334170D01*
X149005188Y-96320401D01*
X149007427Y-96303268D01*
X149009790Y-96285599D01*
X149010837Y-96277913D01*
X149012978Y-96262021D01*
X149015021Y-96246350D01*
X149016663Y-96233236D01*
X149017292Y-96227907D01*
X149018945Y-96214477D01*
X149020985Y-96199396D01*
X149022064Y-96191965D01*
X149023920Y-96179151D01*
X149026084Y-96163497D01*
X149028091Y-96148369D01*
X149028112Y-96148210D01*
X149032529Y-96114168D01*
X149037375Y-96077223D01*
X149042775Y-96036412D01*
X149048858Y-95990775D01*
X149051629Y-95970063D01*
X149053285Y-95957552D01*
X149055566Y-95940087D01*
X149058313Y-95918918D01*
X149061363Y-95895293D01*
X149064555Y-95870458D01*
X149067407Y-95848173D01*
X149070340Y-95825406D01*
X149073069Y-95804623D01*
X149075483Y-95786645D01*
X149077468Y-95772290D01*
X149078914Y-95762378D01*
X149079709Y-95757728D01*
X149079765Y-95757537D01*
X149080492Y-95757216D01*
X149080933Y-95761030D01*
X149081082Y-95769274D01*
X149080931Y-95782240D01*
X149080475Y-95800224D01*
X149079709Y-95823520D01*
X149078625Y-95852421D01*
X149077218Y-95887222D01*
X149076957Y-95893491D01*
X149075663Y-95924822D01*
X149074258Y-95959435D01*
X149072818Y-95995470D01*
X149071416Y-96031067D01*
X149070125Y-96064365D01*
X149069019Y-96093502D01*
X149068902Y-96096641D01*
X149067948Y-96122052D01*
X149067000Y-96146865D01*
X149066102Y-96169995D01*
X149065295Y-96190356D01*
X149064623Y-96206863D01*
X149064129Y-96218432D01*
X149064053Y-96220094D01*
X149063665Y-96229208D01*
X149063088Y-96243762D01*
X149062351Y-96262949D01*
X149061485Y-96285960D01*
X149060521Y-96311990D01*
X149059487Y-96340231D01*
X149058416Y-96369875D01*
X149057792Y-96387302D01*
X149056718Y-96417241D01*
X149055671Y-96446117D01*
X149054680Y-96473146D01*
X149053774Y-96497540D01*
X149052982Y-96518514D01*
X149052334Y-96535283D01*
X149051860Y-96547059D01*
X149051671Y-96551385D01*
X149051269Y-96560849D01*
X149050691Y-96575542D01*
X149049976Y-96594444D01*
X149049162Y-96616535D01*
X149048286Y-96640797D01*
X149047387Y-96666211D01*
X149047086Y-96674837D01*
X149046062Y-96703780D01*
X149044931Y-96734938D01*
X149043756Y-96766605D01*
X149042602Y-96797073D01*
X149041532Y-96824636D01*
X149040646Y-96846733D01*
X149039657Y-96871375D01*
X149038534Y-96900283D01*
X149037352Y-96931478D01*
X149036185Y-96962977D01*
X149035107Y-96992802D01*
X149034583Y-97007691D01*
X149033670Y-97033604D01*
X149032711Y-97060302D01*
X149031760Y-97086309D01*
X149030872Y-97110153D01*
X149030100Y-97130357D01*
X149029620Y-97142491D01*
X149028971Y-97163235D01*
X149028960Y-97178114D01*
X149029596Y-97187483D01*
X149030892Y-97191697D01*
X149031134Y-97191901D01*
X149033103Y-97190702D01*
X149034227Y-97183916D01*
X149034563Y-97172086D01*
X149035023Y-97156790D01*
X149036215Y-97139603D01*
X149037507Y-97127364D01*
X149038672Y-97116632D01*
X149040051Y-97101211D01*
X149041521Y-97082653D01*
X149042955Y-97062512D01*
X149043967Y-97046758D01*
X149045492Y-97022499D01*
X149047311Y-96994832D01*
X149049235Y-96966581D01*
X149051072Y-96940568D01*
X149051762Y-96931119D01*
X149053470Y-96907844D01*
X149055334Y-96882099D01*
X149057176Y-96856371D01*
X149058817Y-96833150D01*
X149059504Y-96823293D01*
X149060935Y-96802803D01*
X149062656Y-96778402D01*
X149064503Y-96752415D01*
X149066311Y-96727165D01*
X149067380Y-96712342D01*
X149069072Y-96688803D01*
X149070904Y-96663026D01*
X149072712Y-96637336D01*
X149074332Y-96614055D01*
X149075202Y-96601391D01*
X149077638Y-96566246D01*
X149080479Y-96526229D01*
X149083628Y-96482696D01*
X149086986Y-96437007D01*
X149090455Y-96390517D01*
X149092468Y-96363862D01*
X149094218Y-96340191D01*
X149096050Y-96314391D01*
X149097808Y-96288708D01*
X149099339Y-96265392D01*
X149100212Y-96251348D01*
X149101528Y-96230539D01*
X149103039Y-96208372D01*
X149104580Y-96187174D01*
X149105987Y-96169275D01*
X149106315Y-96165400D01*
X149107729Y-96148246D01*
X149109351Y-96127373D01*
X149110992Y-96105298D01*
X149112459Y-96084540D01*
X149112592Y-96082577D01*
X149113868Y-96063978D01*
X149115455Y-96041166D01*
X149117212Y-96016160D01*
X149118996Y-95990982D01*
X149120493Y-95970063D01*
X149122175Y-95946591D01*
X149123951Y-95921645D01*
X149125683Y-95897198D01*
X149127229Y-95875224D01*
X149128353Y-95859112D01*
X149129643Y-95840653D01*
X149131242Y-95818052D01*
X149133001Y-95793402D01*
X149134769Y-95768794D01*
X149136038Y-95751286D01*
X149137755Y-95727436D01*
X149139610Y-95701288D01*
X149141439Y-95675148D01*
X149143082Y-95651320D01*
X149144037Y-95637210D01*
X149145097Y-95621901D01*
X149146447Y-95603148D01*
X149148000Y-95582108D01*
X149149666Y-95559943D01*
X149151357Y-95537810D01*
X149152984Y-95516870D01*
X149154459Y-95498283D01*
X149155691Y-95483207D01*
X149156593Y-95472802D01*
X149156813Y-95470489D01*
X149157564Y-95470875D01*
G37*
%LPC*%
D12*
X136293750Y-93200000D03*
X136293750Y-95025000D03*
D13*
X147500000Y-90412500D03*
X132500000Y-103412500D03*
X132500000Y-90412500D03*
D14*
X136293750Y-98925000D03*
X136293750Y-97100000D03*
D13*
X147500000Y-103412500D03*
D15*
X133000000Y-93800000D03*
X131200000Y-93800000D03*
D16*
X131093750Y-95450000D03*
X131093750Y-96400000D03*
X131093750Y-97350000D03*
X133693750Y-97350000D03*
X133693750Y-95450000D03*
D17*
X139543750Y-103762500D03*
D18*
X141543750Y-102162500D03*
D19*
X141543750Y-99662500D03*
X141543750Y-97162500D03*
X141543750Y-94662500D03*
%LPD*%
M02*
