M48
; DRILL file {KiCad 7.0.8} date Sun Jan 21 01:23:18 2024
; FORMAT={-:-/ absolute / metric / decimal}
; #@! TF.CreationDate,2024-01-21T01:23:18-07:00
; #@! TF.GenerationSoftware,Kicad,Pcbnew,7.0.8
; #@! TF.FileFunction,Plated,1,2,PTH
FMAT,2
METRIC
; #@! TA.AperFunction,Plated,PTH,ViaDrill
T1C0.400
; #@! TA.AperFunction,Plated,PTH,ComponentDrill
T2C0.950
; #@! TA.AperFunction,Plated,PTH,ComponentDrill
T3C1.000
; #@! TA.AperFunction,Plated,PTH,ComponentDrill
T4C1.100
%
G90
G05
T1
X124.324Y-76.075
X128.9Y-76.4
X130.5Y-84.6
X131.2Y-96.8
X136.8Y-81.1
X138.1Y-92.7
X140.6Y-102.5
X141.2Y-59.4
X141.2Y-84.2
X141.2Y-93.424
X142.8Y-98.1
X147.6Y-75.2
X160.7Y-63.6
X168.0Y-78.6
T2
X110.954Y-90.246
X110.954Y-92.746
X110.954Y-95.246
X110.954Y-97.746
X169.925Y-92.1
X169.925Y-94.6
X169.925Y-97.1
X170.3Y-57.6
X170.3Y-60.1
X170.3Y-62.6
X170.3Y-65.1
T3
X116.704Y-67.046
X119.244Y-67.046
X121.784Y-67.046
X124.324Y-67.046
X126.864Y-67.046
X129.404Y-67.046
X157.4Y-63.625
X157.4Y-66.165
T4
X128.994Y-72.466
X128.994Y-87.706
X131.534Y-72.466
X131.534Y-75.006
X131.534Y-87.706
X134.074Y-72.466
X134.074Y-87.706
X136.614Y-72.466
X136.614Y-87.706
X139.154Y-72.466
X139.154Y-87.706
X141.694Y-72.466
X141.694Y-87.706
X144.234Y-72.466
X144.234Y-87.706
X146.774Y-72.466
X146.774Y-87.706
X149.314Y-72.466
X149.314Y-87.706
X151.854Y-72.466
X151.854Y-87.706
X154.394Y-72.466
X154.394Y-75.006
X154.394Y-77.546
X154.394Y-80.086
X154.394Y-82.626
X154.394Y-85.166
X154.394Y-87.706
X156.934Y-72.466
X156.934Y-75.006
X156.934Y-77.546
X156.934Y-80.086
X156.934Y-82.626
X156.934Y-85.166
X156.934Y-87.706
X159.474Y-72.466
X159.474Y-87.706
X162.014Y-72.466
X162.014Y-75.006
X162.014Y-77.546
X162.014Y-80.086
X162.014Y-82.626
X162.014Y-85.166
X162.014Y-87.706
T0
M30
