%TF.GenerationSoftware,KiCad,Pcbnew,8.0.2*%
%TF.CreationDate,2025-02-01T15:31:28-07:00*%
%TF.ProjectId,sdm25wheel,73646d32-3577-4686-9565-6c2e6b696361,v1.1*%
%TF.SameCoordinates,Original*%
%TF.FileFunction,Drillmap*%
%TF.FilePolarity,Positive*%
%FSLAX45Y45*%
G04 Gerber Fmt 4.5, Leading zero omitted, Abs format (unit mm)*
G04 Created by KiCad (PCBNEW 8.0.2) date 2025-02-01 15:31:28*
%MOMM*%
%LPD*%
G01*
G04 APERTURE LIST*
%ADD10C,0.100000*%
%ADD11C,0.200000*%
%ADD12C,0.320000*%
G04 APERTURE END LIST*
D10*
X15400000Y-7500000D02*
X19700000Y-7500000D01*
X20000000Y-11300000D02*
G75*
G02*
X19700000Y-11600000I-300000J0D01*
G01*
X15100000Y-7800000D02*
G75*
G02*
X15400000Y-7500000I300000J0D01*
G01*
X19700000Y-7500000D02*
G75*
G02*
X20000000Y-7800000I0J-300000D01*
G01*
X20000000Y-7800000D02*
X20000000Y-11300000D01*
X15400000Y-11600000D02*
X19700000Y-11600000D01*
X15400000Y-11600000D02*
G75*
G02*
X15100000Y-11300000I0J300000D01*
G01*
X15100000Y-7800000D02*
X15100000Y-11300000D01*
D11*
D10*
X19472370Y-10083470D02*
X19571430Y-10182530D01*
X19571430Y-10083470D02*
X19472370Y-10182530D01*
X19573970Y-10591470D02*
X19673030Y-10690530D01*
X19673030Y-10591470D02*
X19573970Y-10690530D01*
X19675570Y-10083470D02*
X19774630Y-10182530D01*
X19774630Y-10083470D02*
X19675570Y-10182530D01*
D12*
X15660000Y-7900000D02*
G75*
G02*
X15340000Y-7900000I-160000J0D01*
G01*
X15340000Y-7900000D02*
G75*
G02*
X15660000Y-7900000I160000J0D01*
G01*
X19760000Y-11200000D02*
G75*
G02*
X19440000Y-11200000I-160000J0D01*
G01*
X19440000Y-11200000D02*
G75*
G02*
X19760000Y-11200000I160000J0D01*
G01*
D11*
X15355777Y-11916484D02*
X15355777Y-11716484D01*
X15355777Y-11716484D02*
X15403396Y-11716484D01*
X15403396Y-11716484D02*
X15431967Y-11726008D01*
X15431967Y-11726008D02*
X15451015Y-11745055D01*
X15451015Y-11745055D02*
X15460539Y-11764103D01*
X15460539Y-11764103D02*
X15470062Y-11802198D01*
X15470062Y-11802198D02*
X15470062Y-11830769D01*
X15470062Y-11830769D02*
X15460539Y-11868865D01*
X15460539Y-11868865D02*
X15451015Y-11887912D01*
X15451015Y-11887912D02*
X15431967Y-11906960D01*
X15431967Y-11906960D02*
X15403396Y-11916484D01*
X15403396Y-11916484D02*
X15355777Y-11916484D01*
X15555777Y-11916484D02*
X15555777Y-11783150D01*
X15555777Y-11821246D02*
X15565301Y-11802198D01*
X15565301Y-11802198D02*
X15574824Y-11792674D01*
X15574824Y-11792674D02*
X15593872Y-11783150D01*
X15593872Y-11783150D02*
X15612920Y-11783150D01*
X15679586Y-11916484D02*
X15679586Y-11783150D01*
X15679586Y-11716484D02*
X15670062Y-11726008D01*
X15670062Y-11726008D02*
X15679586Y-11735531D01*
X15679586Y-11735531D02*
X15689110Y-11726008D01*
X15689110Y-11726008D02*
X15679586Y-11716484D01*
X15679586Y-11716484D02*
X15679586Y-11735531D01*
X15803396Y-11916484D02*
X15784348Y-11906960D01*
X15784348Y-11906960D02*
X15774824Y-11887912D01*
X15774824Y-11887912D02*
X15774824Y-11716484D01*
X15908158Y-11916484D02*
X15889110Y-11906960D01*
X15889110Y-11906960D02*
X15879586Y-11887912D01*
X15879586Y-11887912D02*
X15879586Y-11716484D01*
X16136729Y-11916484D02*
X16136729Y-11716484D01*
X16136729Y-11716484D02*
X16203396Y-11859341D01*
X16203396Y-11859341D02*
X16270062Y-11716484D01*
X16270062Y-11716484D02*
X16270062Y-11916484D01*
X16451015Y-11916484D02*
X16451015Y-11811722D01*
X16451015Y-11811722D02*
X16441491Y-11792674D01*
X16441491Y-11792674D02*
X16422443Y-11783150D01*
X16422443Y-11783150D02*
X16384348Y-11783150D01*
X16384348Y-11783150D02*
X16365301Y-11792674D01*
X16451015Y-11906960D02*
X16431967Y-11916484D01*
X16431967Y-11916484D02*
X16384348Y-11916484D01*
X16384348Y-11916484D02*
X16365301Y-11906960D01*
X16365301Y-11906960D02*
X16355777Y-11887912D01*
X16355777Y-11887912D02*
X16355777Y-11868865D01*
X16355777Y-11868865D02*
X16365301Y-11849817D01*
X16365301Y-11849817D02*
X16384348Y-11840293D01*
X16384348Y-11840293D02*
X16431967Y-11840293D01*
X16431967Y-11840293D02*
X16451015Y-11830769D01*
X16546253Y-11783150D02*
X16546253Y-11983150D01*
X16546253Y-11792674D02*
X16565301Y-11783150D01*
X16565301Y-11783150D02*
X16603396Y-11783150D01*
X16603396Y-11783150D02*
X16622443Y-11792674D01*
X16622443Y-11792674D02*
X16631967Y-11802198D01*
X16631967Y-11802198D02*
X16641491Y-11821246D01*
X16641491Y-11821246D02*
X16641491Y-11878388D01*
X16641491Y-11878388D02*
X16631967Y-11897436D01*
X16631967Y-11897436D02*
X16622443Y-11906960D01*
X16622443Y-11906960D02*
X16603396Y-11916484D01*
X16603396Y-11916484D02*
X16565301Y-11916484D01*
X16565301Y-11916484D02*
X16546253Y-11906960D01*
X16727205Y-11897436D02*
X16736729Y-11906960D01*
X16736729Y-11906960D02*
X16727205Y-11916484D01*
X16727205Y-11916484D02*
X16717682Y-11906960D01*
X16717682Y-11906960D02*
X16727205Y-11897436D01*
X16727205Y-11897436D02*
X16727205Y-11916484D01*
X16727205Y-11792674D02*
X16736729Y-11802198D01*
X16736729Y-11802198D02*
X16727205Y-11811722D01*
X16727205Y-11811722D02*
X16717682Y-11802198D01*
X16717682Y-11802198D02*
X16727205Y-11792674D01*
X16727205Y-11792674D02*
X16727205Y-11811722D01*
D10*
X14995940Y-12195470D02*
X15095000Y-12294530D01*
X15095000Y-12195470D02*
X14995940Y-12294530D01*
D11*
X15393872Y-12136484D02*
X15412920Y-12136484D01*
X15412920Y-12136484D02*
X15431967Y-12146008D01*
X15431967Y-12146008D02*
X15441491Y-12155531D01*
X15441491Y-12155531D02*
X15451015Y-12174579D01*
X15451015Y-12174579D02*
X15460539Y-12212674D01*
X15460539Y-12212674D02*
X15460539Y-12260293D01*
X15460539Y-12260293D02*
X15451015Y-12298388D01*
X15451015Y-12298388D02*
X15441491Y-12317436D01*
X15441491Y-12317436D02*
X15431967Y-12326960D01*
X15431967Y-12326960D02*
X15412920Y-12336484D01*
X15412920Y-12336484D02*
X15393872Y-12336484D01*
X15393872Y-12336484D02*
X15374824Y-12326960D01*
X15374824Y-12326960D02*
X15365301Y-12317436D01*
X15365301Y-12317436D02*
X15355777Y-12298388D01*
X15355777Y-12298388D02*
X15346253Y-12260293D01*
X15346253Y-12260293D02*
X15346253Y-12212674D01*
X15346253Y-12212674D02*
X15355777Y-12174579D01*
X15355777Y-12174579D02*
X15365301Y-12155531D01*
X15365301Y-12155531D02*
X15374824Y-12146008D01*
X15374824Y-12146008D02*
X15393872Y-12136484D01*
X15546253Y-12317436D02*
X15555777Y-12326960D01*
X15555777Y-12326960D02*
X15546253Y-12336484D01*
X15546253Y-12336484D02*
X15536729Y-12326960D01*
X15536729Y-12326960D02*
X15546253Y-12317436D01*
X15546253Y-12317436D02*
X15546253Y-12336484D01*
X15651015Y-12336484D02*
X15689110Y-12336484D01*
X15689110Y-12336484D02*
X15708158Y-12326960D01*
X15708158Y-12326960D02*
X15717682Y-12317436D01*
X15717682Y-12317436D02*
X15736729Y-12288865D01*
X15736729Y-12288865D02*
X15746253Y-12250769D01*
X15746253Y-12250769D02*
X15746253Y-12174579D01*
X15746253Y-12174579D02*
X15736729Y-12155531D01*
X15736729Y-12155531D02*
X15727205Y-12146008D01*
X15727205Y-12146008D02*
X15708158Y-12136484D01*
X15708158Y-12136484D02*
X15670062Y-12136484D01*
X15670062Y-12136484D02*
X15651015Y-12146008D01*
X15651015Y-12146008D02*
X15641491Y-12155531D01*
X15641491Y-12155531D02*
X15631967Y-12174579D01*
X15631967Y-12174579D02*
X15631967Y-12222198D01*
X15631967Y-12222198D02*
X15641491Y-12241246D01*
X15641491Y-12241246D02*
X15651015Y-12250769D01*
X15651015Y-12250769D02*
X15670062Y-12260293D01*
X15670062Y-12260293D02*
X15708158Y-12260293D01*
X15708158Y-12260293D02*
X15727205Y-12250769D01*
X15727205Y-12250769D02*
X15736729Y-12241246D01*
X15736729Y-12241246D02*
X15746253Y-12222198D01*
X15841491Y-12336484D02*
X15879586Y-12336484D01*
X15879586Y-12336484D02*
X15898634Y-12326960D01*
X15898634Y-12326960D02*
X15908158Y-12317436D01*
X15908158Y-12317436D02*
X15927205Y-12288865D01*
X15927205Y-12288865D02*
X15936729Y-12250769D01*
X15936729Y-12250769D02*
X15936729Y-12174579D01*
X15936729Y-12174579D02*
X15927205Y-12155531D01*
X15927205Y-12155531D02*
X15917682Y-12146008D01*
X15917682Y-12146008D02*
X15898634Y-12136484D01*
X15898634Y-12136484D02*
X15860539Y-12136484D01*
X15860539Y-12136484D02*
X15841491Y-12146008D01*
X15841491Y-12146008D02*
X15831967Y-12155531D01*
X15831967Y-12155531D02*
X15822443Y-12174579D01*
X15822443Y-12174579D02*
X15822443Y-12222198D01*
X15822443Y-12222198D02*
X15831967Y-12241246D01*
X15831967Y-12241246D02*
X15841491Y-12250769D01*
X15841491Y-12250769D02*
X15860539Y-12260293D01*
X15860539Y-12260293D02*
X15898634Y-12260293D01*
X15898634Y-12260293D02*
X15917682Y-12250769D01*
X15917682Y-12250769D02*
X15927205Y-12241246D01*
X15927205Y-12241246D02*
X15936729Y-12222198D01*
X16127205Y-12336484D02*
X16012920Y-12336484D01*
X16070062Y-12336484D02*
X16070062Y-12136484D01*
X16070062Y-12136484D02*
X16051015Y-12165055D01*
X16051015Y-12165055D02*
X16031967Y-12184103D01*
X16031967Y-12184103D02*
X16012920Y-12193627D01*
X16212920Y-12336484D02*
X16212920Y-12203150D01*
X16212920Y-12222198D02*
X16222443Y-12212674D01*
X16222443Y-12212674D02*
X16241491Y-12203150D01*
X16241491Y-12203150D02*
X16270063Y-12203150D01*
X16270063Y-12203150D02*
X16289110Y-12212674D01*
X16289110Y-12212674D02*
X16298634Y-12231722D01*
X16298634Y-12231722D02*
X16298634Y-12336484D01*
X16298634Y-12231722D02*
X16308158Y-12212674D01*
X16308158Y-12212674D02*
X16327205Y-12203150D01*
X16327205Y-12203150D02*
X16355777Y-12203150D01*
X16355777Y-12203150D02*
X16374824Y-12212674D01*
X16374824Y-12212674D02*
X16384348Y-12231722D01*
X16384348Y-12231722D02*
X16384348Y-12336484D01*
X16479586Y-12336484D02*
X16479586Y-12203150D01*
X16479586Y-12222198D02*
X16489110Y-12212674D01*
X16489110Y-12212674D02*
X16508158Y-12203150D01*
X16508158Y-12203150D02*
X16536729Y-12203150D01*
X16536729Y-12203150D02*
X16555777Y-12212674D01*
X16555777Y-12212674D02*
X16565301Y-12231722D01*
X16565301Y-12231722D02*
X16565301Y-12336484D01*
X16565301Y-12231722D02*
X16574824Y-12212674D01*
X16574824Y-12212674D02*
X16593872Y-12203150D01*
X16593872Y-12203150D02*
X16622443Y-12203150D01*
X16622443Y-12203150D02*
X16641491Y-12212674D01*
X16641491Y-12212674D02*
X16651015Y-12231722D01*
X16651015Y-12231722D02*
X16651015Y-12336484D01*
X17041491Y-12126960D02*
X16870063Y-12384103D01*
X17298634Y-12136484D02*
X17317682Y-12136484D01*
X17317682Y-12136484D02*
X17336729Y-12146008D01*
X17336729Y-12146008D02*
X17346253Y-12155531D01*
X17346253Y-12155531D02*
X17355777Y-12174579D01*
X17355777Y-12174579D02*
X17365301Y-12212674D01*
X17365301Y-12212674D02*
X17365301Y-12260293D01*
X17365301Y-12260293D02*
X17355777Y-12298388D01*
X17355777Y-12298388D02*
X17346253Y-12317436D01*
X17346253Y-12317436D02*
X17336729Y-12326960D01*
X17336729Y-12326960D02*
X17317682Y-12336484D01*
X17317682Y-12336484D02*
X17298634Y-12336484D01*
X17298634Y-12336484D02*
X17279587Y-12326960D01*
X17279587Y-12326960D02*
X17270063Y-12317436D01*
X17270063Y-12317436D02*
X17260539Y-12298388D01*
X17260539Y-12298388D02*
X17251015Y-12260293D01*
X17251015Y-12260293D02*
X17251015Y-12212674D01*
X17251015Y-12212674D02*
X17260539Y-12174579D01*
X17260539Y-12174579D02*
X17270063Y-12155531D01*
X17270063Y-12155531D02*
X17279587Y-12146008D01*
X17279587Y-12146008D02*
X17298634Y-12136484D01*
X17451015Y-12317436D02*
X17460539Y-12326960D01*
X17460539Y-12326960D02*
X17451015Y-12336484D01*
X17451015Y-12336484D02*
X17441491Y-12326960D01*
X17441491Y-12326960D02*
X17451015Y-12317436D01*
X17451015Y-12317436D02*
X17451015Y-12336484D01*
X17584348Y-12136484D02*
X17603396Y-12136484D01*
X17603396Y-12136484D02*
X17622444Y-12146008D01*
X17622444Y-12146008D02*
X17631968Y-12155531D01*
X17631968Y-12155531D02*
X17641491Y-12174579D01*
X17641491Y-12174579D02*
X17651015Y-12212674D01*
X17651015Y-12212674D02*
X17651015Y-12260293D01*
X17651015Y-12260293D02*
X17641491Y-12298388D01*
X17641491Y-12298388D02*
X17631968Y-12317436D01*
X17631968Y-12317436D02*
X17622444Y-12326960D01*
X17622444Y-12326960D02*
X17603396Y-12336484D01*
X17603396Y-12336484D02*
X17584348Y-12336484D01*
X17584348Y-12336484D02*
X17565301Y-12326960D01*
X17565301Y-12326960D02*
X17555777Y-12317436D01*
X17555777Y-12317436D02*
X17546253Y-12298388D01*
X17546253Y-12298388D02*
X17536729Y-12260293D01*
X17536729Y-12260293D02*
X17536729Y-12212674D01*
X17536729Y-12212674D02*
X17546253Y-12174579D01*
X17546253Y-12174579D02*
X17555777Y-12155531D01*
X17555777Y-12155531D02*
X17565301Y-12146008D01*
X17565301Y-12146008D02*
X17584348Y-12136484D01*
X17717682Y-12136484D02*
X17841491Y-12136484D01*
X17841491Y-12136484D02*
X17774825Y-12212674D01*
X17774825Y-12212674D02*
X17803396Y-12212674D01*
X17803396Y-12212674D02*
X17822444Y-12222198D01*
X17822444Y-12222198D02*
X17831968Y-12231722D01*
X17831968Y-12231722D02*
X17841491Y-12250769D01*
X17841491Y-12250769D02*
X17841491Y-12298388D01*
X17841491Y-12298388D02*
X17831968Y-12317436D01*
X17831968Y-12317436D02*
X17822444Y-12326960D01*
X17822444Y-12326960D02*
X17803396Y-12336484D01*
X17803396Y-12336484D02*
X17746253Y-12336484D01*
X17746253Y-12336484D02*
X17727206Y-12326960D01*
X17727206Y-12326960D02*
X17717682Y-12317436D01*
X17936729Y-12336484D02*
X17974825Y-12336484D01*
X17974825Y-12336484D02*
X17993872Y-12326960D01*
X17993872Y-12326960D02*
X18003396Y-12317436D01*
X18003396Y-12317436D02*
X18022444Y-12288865D01*
X18022444Y-12288865D02*
X18031968Y-12250769D01*
X18031968Y-12250769D02*
X18031968Y-12174579D01*
X18031968Y-12174579D02*
X18022444Y-12155531D01*
X18022444Y-12155531D02*
X18012920Y-12146008D01*
X18012920Y-12146008D02*
X17993872Y-12136484D01*
X17993872Y-12136484D02*
X17955777Y-12136484D01*
X17955777Y-12136484D02*
X17936729Y-12146008D01*
X17936729Y-12146008D02*
X17927206Y-12155531D01*
X17927206Y-12155531D02*
X17917682Y-12174579D01*
X17917682Y-12174579D02*
X17917682Y-12222198D01*
X17917682Y-12222198D02*
X17927206Y-12241246D01*
X17927206Y-12241246D02*
X17936729Y-12250769D01*
X17936729Y-12250769D02*
X17955777Y-12260293D01*
X17955777Y-12260293D02*
X17993872Y-12260293D01*
X17993872Y-12260293D02*
X18012920Y-12250769D01*
X18012920Y-12250769D02*
X18022444Y-12241246D01*
X18022444Y-12241246D02*
X18031968Y-12222198D01*
X18155777Y-12136484D02*
X18174825Y-12136484D01*
X18174825Y-12136484D02*
X18193872Y-12146008D01*
X18193872Y-12146008D02*
X18203396Y-12155531D01*
X18203396Y-12155531D02*
X18212920Y-12174579D01*
X18212920Y-12174579D02*
X18222444Y-12212674D01*
X18222444Y-12212674D02*
X18222444Y-12260293D01*
X18222444Y-12260293D02*
X18212920Y-12298388D01*
X18212920Y-12298388D02*
X18203396Y-12317436D01*
X18203396Y-12317436D02*
X18193872Y-12326960D01*
X18193872Y-12326960D02*
X18174825Y-12336484D01*
X18174825Y-12336484D02*
X18155777Y-12336484D01*
X18155777Y-12336484D02*
X18136729Y-12326960D01*
X18136729Y-12326960D02*
X18127206Y-12317436D01*
X18127206Y-12317436D02*
X18117682Y-12298388D01*
X18117682Y-12298388D02*
X18108158Y-12260293D01*
X18108158Y-12260293D02*
X18108158Y-12212674D01*
X18108158Y-12212674D02*
X18117682Y-12174579D01*
X18117682Y-12174579D02*
X18127206Y-12155531D01*
X18127206Y-12155531D02*
X18136729Y-12146008D01*
X18136729Y-12146008D02*
X18155777Y-12136484D01*
X18298634Y-12136484D02*
X18298634Y-12174579D01*
X18374825Y-12136484D02*
X18374825Y-12174579D01*
X18670063Y-12412674D02*
X18660539Y-12403150D01*
X18660539Y-12403150D02*
X18641491Y-12374579D01*
X18641491Y-12374579D02*
X18631968Y-12355531D01*
X18631968Y-12355531D02*
X18622444Y-12326960D01*
X18622444Y-12326960D02*
X18612920Y-12279341D01*
X18612920Y-12279341D02*
X18612920Y-12241246D01*
X18612920Y-12241246D02*
X18622444Y-12193627D01*
X18622444Y-12193627D02*
X18631968Y-12165055D01*
X18631968Y-12165055D02*
X18641491Y-12146008D01*
X18641491Y-12146008D02*
X18660539Y-12117436D01*
X18660539Y-12117436D02*
X18670063Y-12107912D01*
X18727206Y-12136484D02*
X18851015Y-12136484D01*
X18851015Y-12136484D02*
X18784349Y-12212674D01*
X18784349Y-12212674D02*
X18812920Y-12212674D01*
X18812920Y-12212674D02*
X18831968Y-12222198D01*
X18831968Y-12222198D02*
X18841491Y-12231722D01*
X18841491Y-12231722D02*
X18851015Y-12250769D01*
X18851015Y-12250769D02*
X18851015Y-12298388D01*
X18851015Y-12298388D02*
X18841491Y-12317436D01*
X18841491Y-12317436D02*
X18831968Y-12326960D01*
X18831968Y-12326960D02*
X18812920Y-12336484D01*
X18812920Y-12336484D02*
X18755777Y-12336484D01*
X18755777Y-12336484D02*
X18736730Y-12326960D01*
X18736730Y-12326960D02*
X18727206Y-12317436D01*
X19089111Y-12336484D02*
X19089111Y-12136484D01*
X19174825Y-12336484D02*
X19174825Y-12231722D01*
X19174825Y-12231722D02*
X19165301Y-12212674D01*
X19165301Y-12212674D02*
X19146253Y-12203150D01*
X19146253Y-12203150D02*
X19117682Y-12203150D01*
X19117682Y-12203150D02*
X19098634Y-12212674D01*
X19098634Y-12212674D02*
X19089111Y-12222198D01*
X19298634Y-12336484D02*
X19279587Y-12326960D01*
X19279587Y-12326960D02*
X19270063Y-12317436D01*
X19270063Y-12317436D02*
X19260539Y-12298388D01*
X19260539Y-12298388D02*
X19260539Y-12241246D01*
X19260539Y-12241246D02*
X19270063Y-12222198D01*
X19270063Y-12222198D02*
X19279587Y-12212674D01*
X19279587Y-12212674D02*
X19298634Y-12203150D01*
X19298634Y-12203150D02*
X19327206Y-12203150D01*
X19327206Y-12203150D02*
X19346253Y-12212674D01*
X19346253Y-12212674D02*
X19355777Y-12222198D01*
X19355777Y-12222198D02*
X19365301Y-12241246D01*
X19365301Y-12241246D02*
X19365301Y-12298388D01*
X19365301Y-12298388D02*
X19355777Y-12317436D01*
X19355777Y-12317436D02*
X19346253Y-12326960D01*
X19346253Y-12326960D02*
X19327206Y-12336484D01*
X19327206Y-12336484D02*
X19298634Y-12336484D01*
X19479587Y-12336484D02*
X19460539Y-12326960D01*
X19460539Y-12326960D02*
X19451015Y-12307912D01*
X19451015Y-12307912D02*
X19451015Y-12136484D01*
X19631968Y-12326960D02*
X19612920Y-12336484D01*
X19612920Y-12336484D02*
X19574825Y-12336484D01*
X19574825Y-12336484D02*
X19555777Y-12326960D01*
X19555777Y-12326960D02*
X19546253Y-12307912D01*
X19546253Y-12307912D02*
X19546253Y-12231722D01*
X19546253Y-12231722D02*
X19555777Y-12212674D01*
X19555777Y-12212674D02*
X19574825Y-12203150D01*
X19574825Y-12203150D02*
X19612920Y-12203150D01*
X19612920Y-12203150D02*
X19631968Y-12212674D01*
X19631968Y-12212674D02*
X19641492Y-12231722D01*
X19641492Y-12231722D02*
X19641492Y-12250769D01*
X19641492Y-12250769D02*
X19546253Y-12269817D01*
X19717682Y-12326960D02*
X19736730Y-12336484D01*
X19736730Y-12336484D02*
X19774825Y-12336484D01*
X19774825Y-12336484D02*
X19793873Y-12326960D01*
X19793873Y-12326960D02*
X19803396Y-12307912D01*
X19803396Y-12307912D02*
X19803396Y-12298388D01*
X19803396Y-12298388D02*
X19793873Y-12279341D01*
X19793873Y-12279341D02*
X19774825Y-12269817D01*
X19774825Y-12269817D02*
X19746253Y-12269817D01*
X19746253Y-12269817D02*
X19727206Y-12260293D01*
X19727206Y-12260293D02*
X19717682Y-12241246D01*
X19717682Y-12241246D02*
X19717682Y-12231722D01*
X19717682Y-12231722D02*
X19727206Y-12212674D01*
X19727206Y-12212674D02*
X19746253Y-12203150D01*
X19746253Y-12203150D02*
X19774825Y-12203150D01*
X19774825Y-12203150D02*
X19793873Y-12212674D01*
X19870063Y-12412674D02*
X19879587Y-12403150D01*
X19879587Y-12403150D02*
X19898634Y-12374579D01*
X19898634Y-12374579D02*
X19908158Y-12355531D01*
X19908158Y-12355531D02*
X19917682Y-12326960D01*
X19917682Y-12326960D02*
X19927206Y-12279341D01*
X19927206Y-12279341D02*
X19927206Y-12241246D01*
X19927206Y-12241246D02*
X19917682Y-12193627D01*
X19917682Y-12193627D02*
X19908158Y-12165055D01*
X19908158Y-12165055D02*
X19898634Y-12146008D01*
X19898634Y-12146008D02*
X19879587Y-12117436D01*
X19879587Y-12117436D02*
X19870063Y-12107912D01*
X20231968Y-12412674D02*
X20222444Y-12403150D01*
X20222444Y-12403150D02*
X20203396Y-12374579D01*
X20203396Y-12374579D02*
X20193873Y-12355531D01*
X20193873Y-12355531D02*
X20184349Y-12326960D01*
X20184349Y-12326960D02*
X20174825Y-12279341D01*
X20174825Y-12279341D02*
X20174825Y-12241246D01*
X20174825Y-12241246D02*
X20184349Y-12193627D01*
X20184349Y-12193627D02*
X20193873Y-12165055D01*
X20193873Y-12165055D02*
X20203396Y-12146008D01*
X20203396Y-12146008D02*
X20222444Y-12117436D01*
X20222444Y-12117436D02*
X20231968Y-12107912D01*
X20308158Y-12203150D02*
X20308158Y-12336484D01*
X20308158Y-12222198D02*
X20317682Y-12212674D01*
X20317682Y-12212674D02*
X20336730Y-12203150D01*
X20336730Y-12203150D02*
X20365301Y-12203150D01*
X20365301Y-12203150D02*
X20384349Y-12212674D01*
X20384349Y-12212674D02*
X20393873Y-12231722D01*
X20393873Y-12231722D02*
X20393873Y-12336484D01*
X20517682Y-12336484D02*
X20498634Y-12326960D01*
X20498634Y-12326960D02*
X20489111Y-12317436D01*
X20489111Y-12317436D02*
X20479587Y-12298388D01*
X20479587Y-12298388D02*
X20479587Y-12241246D01*
X20479587Y-12241246D02*
X20489111Y-12222198D01*
X20489111Y-12222198D02*
X20498634Y-12212674D01*
X20498634Y-12212674D02*
X20517682Y-12203150D01*
X20517682Y-12203150D02*
X20546254Y-12203150D01*
X20546254Y-12203150D02*
X20565301Y-12212674D01*
X20565301Y-12212674D02*
X20574825Y-12222198D01*
X20574825Y-12222198D02*
X20584349Y-12241246D01*
X20584349Y-12241246D02*
X20584349Y-12298388D01*
X20584349Y-12298388D02*
X20574825Y-12317436D01*
X20574825Y-12317436D02*
X20565301Y-12326960D01*
X20565301Y-12326960D02*
X20546254Y-12336484D01*
X20546254Y-12336484D02*
X20517682Y-12336484D01*
X20641492Y-12203150D02*
X20717682Y-12203150D01*
X20670063Y-12136484D02*
X20670063Y-12307912D01*
X20670063Y-12307912D02*
X20679587Y-12326960D01*
X20679587Y-12326960D02*
X20698634Y-12336484D01*
X20698634Y-12336484D02*
X20717682Y-12336484D01*
X20936730Y-12203150D02*
X20936730Y-12403150D01*
X20936730Y-12212674D02*
X20955777Y-12203150D01*
X20955777Y-12203150D02*
X20993873Y-12203150D01*
X20993873Y-12203150D02*
X21012920Y-12212674D01*
X21012920Y-12212674D02*
X21022444Y-12222198D01*
X21022444Y-12222198D02*
X21031968Y-12241246D01*
X21031968Y-12241246D02*
X21031968Y-12298388D01*
X21031968Y-12298388D02*
X21022444Y-12317436D01*
X21022444Y-12317436D02*
X21012920Y-12326960D01*
X21012920Y-12326960D02*
X20993873Y-12336484D01*
X20993873Y-12336484D02*
X20955777Y-12336484D01*
X20955777Y-12336484D02*
X20936730Y-12326960D01*
X21146254Y-12336484D02*
X21127206Y-12326960D01*
X21127206Y-12326960D02*
X21117682Y-12307912D01*
X21117682Y-12307912D02*
X21117682Y-12136484D01*
X21308158Y-12336484D02*
X21308158Y-12231722D01*
X21308158Y-12231722D02*
X21298635Y-12212674D01*
X21298635Y-12212674D02*
X21279587Y-12203150D01*
X21279587Y-12203150D02*
X21241492Y-12203150D01*
X21241492Y-12203150D02*
X21222444Y-12212674D01*
X21308158Y-12326960D02*
X21289111Y-12336484D01*
X21289111Y-12336484D02*
X21241492Y-12336484D01*
X21241492Y-12336484D02*
X21222444Y-12326960D01*
X21222444Y-12326960D02*
X21212920Y-12307912D01*
X21212920Y-12307912D02*
X21212920Y-12288865D01*
X21212920Y-12288865D02*
X21222444Y-12269817D01*
X21222444Y-12269817D02*
X21241492Y-12260293D01*
X21241492Y-12260293D02*
X21289111Y-12260293D01*
X21289111Y-12260293D02*
X21308158Y-12250769D01*
X21374825Y-12203150D02*
X21451015Y-12203150D01*
X21403396Y-12136484D02*
X21403396Y-12307912D01*
X21403396Y-12307912D02*
X21412920Y-12326960D01*
X21412920Y-12326960D02*
X21431968Y-12336484D01*
X21431968Y-12336484D02*
X21451015Y-12336484D01*
X21593873Y-12326960D02*
X21574825Y-12336484D01*
X21574825Y-12336484D02*
X21536730Y-12336484D01*
X21536730Y-12336484D02*
X21517682Y-12326960D01*
X21517682Y-12326960D02*
X21508158Y-12307912D01*
X21508158Y-12307912D02*
X21508158Y-12231722D01*
X21508158Y-12231722D02*
X21517682Y-12212674D01*
X21517682Y-12212674D02*
X21536730Y-12203150D01*
X21536730Y-12203150D02*
X21574825Y-12203150D01*
X21574825Y-12203150D02*
X21593873Y-12212674D01*
X21593873Y-12212674D02*
X21603396Y-12231722D01*
X21603396Y-12231722D02*
X21603396Y-12250769D01*
X21603396Y-12250769D02*
X21508158Y-12269817D01*
X21774825Y-12336484D02*
X21774825Y-12136484D01*
X21774825Y-12326960D02*
X21755777Y-12336484D01*
X21755777Y-12336484D02*
X21717682Y-12336484D01*
X21717682Y-12336484D02*
X21698635Y-12326960D01*
X21698635Y-12326960D02*
X21689111Y-12317436D01*
X21689111Y-12317436D02*
X21679587Y-12298388D01*
X21679587Y-12298388D02*
X21679587Y-12241246D01*
X21679587Y-12241246D02*
X21689111Y-12222198D01*
X21689111Y-12222198D02*
X21698635Y-12212674D01*
X21698635Y-12212674D02*
X21717682Y-12203150D01*
X21717682Y-12203150D02*
X21755777Y-12203150D01*
X21755777Y-12203150D02*
X21774825Y-12212674D01*
X21851016Y-12412674D02*
X21860539Y-12403150D01*
X21860539Y-12403150D02*
X21879587Y-12374579D01*
X21879587Y-12374579D02*
X21889111Y-12355531D01*
X21889111Y-12355531D02*
X21898635Y-12326960D01*
X21898635Y-12326960D02*
X21908158Y-12279341D01*
X21908158Y-12279341D02*
X21908158Y-12241246D01*
X21908158Y-12241246D02*
X21898635Y-12193627D01*
X21898635Y-12193627D02*
X21889111Y-12165055D01*
X21889111Y-12165055D02*
X21879587Y-12146008D01*
X21879587Y-12146008D02*
X21860539Y-12117436D01*
X21860539Y-12117436D02*
X21851016Y-12107912D01*
X15095000Y-12509000D02*
G75*
G02*
X14895000Y-12509000I-100000J0D01*
G01*
X14895000Y-12509000D02*
G75*
G02*
X15095000Y-12509000I100000J0D01*
G01*
X15336729Y-12400484D02*
X15460539Y-12400484D01*
X15460539Y-12400484D02*
X15393872Y-12476674D01*
X15393872Y-12476674D02*
X15422443Y-12476674D01*
X15422443Y-12476674D02*
X15441491Y-12486198D01*
X15441491Y-12486198D02*
X15451015Y-12495722D01*
X15451015Y-12495722D02*
X15460539Y-12514769D01*
X15460539Y-12514769D02*
X15460539Y-12562388D01*
X15460539Y-12562388D02*
X15451015Y-12581436D01*
X15451015Y-12581436D02*
X15441491Y-12590960D01*
X15441491Y-12590960D02*
X15422443Y-12600484D01*
X15422443Y-12600484D02*
X15365301Y-12600484D01*
X15365301Y-12600484D02*
X15346253Y-12590960D01*
X15346253Y-12590960D02*
X15336729Y-12581436D01*
X15546253Y-12581436D02*
X15555777Y-12590960D01*
X15555777Y-12590960D02*
X15546253Y-12600484D01*
X15546253Y-12600484D02*
X15536729Y-12590960D01*
X15536729Y-12590960D02*
X15546253Y-12581436D01*
X15546253Y-12581436D02*
X15546253Y-12600484D01*
X15631967Y-12419531D02*
X15641491Y-12410008D01*
X15641491Y-12410008D02*
X15660539Y-12400484D01*
X15660539Y-12400484D02*
X15708158Y-12400484D01*
X15708158Y-12400484D02*
X15727205Y-12410008D01*
X15727205Y-12410008D02*
X15736729Y-12419531D01*
X15736729Y-12419531D02*
X15746253Y-12438579D01*
X15746253Y-12438579D02*
X15746253Y-12457627D01*
X15746253Y-12457627D02*
X15736729Y-12486198D01*
X15736729Y-12486198D02*
X15622443Y-12600484D01*
X15622443Y-12600484D02*
X15746253Y-12600484D01*
X15870062Y-12400484D02*
X15889110Y-12400484D01*
X15889110Y-12400484D02*
X15908158Y-12410008D01*
X15908158Y-12410008D02*
X15917682Y-12419531D01*
X15917682Y-12419531D02*
X15927205Y-12438579D01*
X15927205Y-12438579D02*
X15936729Y-12476674D01*
X15936729Y-12476674D02*
X15936729Y-12524293D01*
X15936729Y-12524293D02*
X15927205Y-12562388D01*
X15927205Y-12562388D02*
X15917682Y-12581436D01*
X15917682Y-12581436D02*
X15908158Y-12590960D01*
X15908158Y-12590960D02*
X15889110Y-12600484D01*
X15889110Y-12600484D02*
X15870062Y-12600484D01*
X15870062Y-12600484D02*
X15851015Y-12590960D01*
X15851015Y-12590960D02*
X15841491Y-12581436D01*
X15841491Y-12581436D02*
X15831967Y-12562388D01*
X15831967Y-12562388D02*
X15822443Y-12524293D01*
X15822443Y-12524293D02*
X15822443Y-12476674D01*
X15822443Y-12476674D02*
X15831967Y-12438579D01*
X15831967Y-12438579D02*
X15841491Y-12419531D01*
X15841491Y-12419531D02*
X15851015Y-12410008D01*
X15851015Y-12410008D02*
X15870062Y-12400484D01*
X16060539Y-12400484D02*
X16079586Y-12400484D01*
X16079586Y-12400484D02*
X16098634Y-12410008D01*
X16098634Y-12410008D02*
X16108158Y-12419531D01*
X16108158Y-12419531D02*
X16117682Y-12438579D01*
X16117682Y-12438579D02*
X16127205Y-12476674D01*
X16127205Y-12476674D02*
X16127205Y-12524293D01*
X16127205Y-12524293D02*
X16117682Y-12562388D01*
X16117682Y-12562388D02*
X16108158Y-12581436D01*
X16108158Y-12581436D02*
X16098634Y-12590960D01*
X16098634Y-12590960D02*
X16079586Y-12600484D01*
X16079586Y-12600484D02*
X16060539Y-12600484D01*
X16060539Y-12600484D02*
X16041491Y-12590960D01*
X16041491Y-12590960D02*
X16031967Y-12581436D01*
X16031967Y-12581436D02*
X16022443Y-12562388D01*
X16022443Y-12562388D02*
X16012920Y-12524293D01*
X16012920Y-12524293D02*
X16012920Y-12476674D01*
X16012920Y-12476674D02*
X16022443Y-12438579D01*
X16022443Y-12438579D02*
X16031967Y-12419531D01*
X16031967Y-12419531D02*
X16041491Y-12410008D01*
X16041491Y-12410008D02*
X16060539Y-12400484D01*
X16212920Y-12600484D02*
X16212920Y-12467150D01*
X16212920Y-12486198D02*
X16222443Y-12476674D01*
X16222443Y-12476674D02*
X16241491Y-12467150D01*
X16241491Y-12467150D02*
X16270063Y-12467150D01*
X16270063Y-12467150D02*
X16289110Y-12476674D01*
X16289110Y-12476674D02*
X16298634Y-12495722D01*
X16298634Y-12495722D02*
X16298634Y-12600484D01*
X16298634Y-12495722D02*
X16308158Y-12476674D01*
X16308158Y-12476674D02*
X16327205Y-12467150D01*
X16327205Y-12467150D02*
X16355777Y-12467150D01*
X16355777Y-12467150D02*
X16374824Y-12476674D01*
X16374824Y-12476674D02*
X16384348Y-12495722D01*
X16384348Y-12495722D02*
X16384348Y-12600484D01*
X16479586Y-12600484D02*
X16479586Y-12467150D01*
X16479586Y-12486198D02*
X16489110Y-12476674D01*
X16489110Y-12476674D02*
X16508158Y-12467150D01*
X16508158Y-12467150D02*
X16536729Y-12467150D01*
X16536729Y-12467150D02*
X16555777Y-12476674D01*
X16555777Y-12476674D02*
X16565301Y-12495722D01*
X16565301Y-12495722D02*
X16565301Y-12600484D01*
X16565301Y-12495722D02*
X16574824Y-12476674D01*
X16574824Y-12476674D02*
X16593872Y-12467150D01*
X16593872Y-12467150D02*
X16622443Y-12467150D01*
X16622443Y-12467150D02*
X16641491Y-12476674D01*
X16641491Y-12476674D02*
X16651015Y-12495722D01*
X16651015Y-12495722D02*
X16651015Y-12600484D01*
X17041491Y-12390960D02*
X16870063Y-12648103D01*
X17298634Y-12400484D02*
X17317682Y-12400484D01*
X17317682Y-12400484D02*
X17336729Y-12410008D01*
X17336729Y-12410008D02*
X17346253Y-12419531D01*
X17346253Y-12419531D02*
X17355777Y-12438579D01*
X17355777Y-12438579D02*
X17365301Y-12476674D01*
X17365301Y-12476674D02*
X17365301Y-12524293D01*
X17365301Y-12524293D02*
X17355777Y-12562388D01*
X17355777Y-12562388D02*
X17346253Y-12581436D01*
X17346253Y-12581436D02*
X17336729Y-12590960D01*
X17336729Y-12590960D02*
X17317682Y-12600484D01*
X17317682Y-12600484D02*
X17298634Y-12600484D01*
X17298634Y-12600484D02*
X17279587Y-12590960D01*
X17279587Y-12590960D02*
X17270063Y-12581436D01*
X17270063Y-12581436D02*
X17260539Y-12562388D01*
X17260539Y-12562388D02*
X17251015Y-12524293D01*
X17251015Y-12524293D02*
X17251015Y-12476674D01*
X17251015Y-12476674D02*
X17260539Y-12438579D01*
X17260539Y-12438579D02*
X17270063Y-12419531D01*
X17270063Y-12419531D02*
X17279587Y-12410008D01*
X17279587Y-12410008D02*
X17298634Y-12400484D01*
X17451015Y-12581436D02*
X17460539Y-12590960D01*
X17460539Y-12590960D02*
X17451015Y-12600484D01*
X17451015Y-12600484D02*
X17441491Y-12590960D01*
X17441491Y-12590960D02*
X17451015Y-12581436D01*
X17451015Y-12581436D02*
X17451015Y-12600484D01*
X17651015Y-12600484D02*
X17536729Y-12600484D01*
X17593872Y-12600484D02*
X17593872Y-12400484D01*
X17593872Y-12400484D02*
X17574825Y-12429055D01*
X17574825Y-12429055D02*
X17555777Y-12448103D01*
X17555777Y-12448103D02*
X17536729Y-12457627D01*
X17727206Y-12419531D02*
X17736729Y-12410008D01*
X17736729Y-12410008D02*
X17755777Y-12400484D01*
X17755777Y-12400484D02*
X17803396Y-12400484D01*
X17803396Y-12400484D02*
X17822444Y-12410008D01*
X17822444Y-12410008D02*
X17831968Y-12419531D01*
X17831968Y-12419531D02*
X17841491Y-12438579D01*
X17841491Y-12438579D02*
X17841491Y-12457627D01*
X17841491Y-12457627D02*
X17831968Y-12486198D01*
X17831968Y-12486198D02*
X17717682Y-12600484D01*
X17717682Y-12600484D02*
X17841491Y-12600484D01*
X18012920Y-12400484D02*
X17974825Y-12400484D01*
X17974825Y-12400484D02*
X17955777Y-12410008D01*
X17955777Y-12410008D02*
X17946253Y-12419531D01*
X17946253Y-12419531D02*
X17927206Y-12448103D01*
X17927206Y-12448103D02*
X17917682Y-12486198D01*
X17917682Y-12486198D02*
X17917682Y-12562388D01*
X17917682Y-12562388D02*
X17927206Y-12581436D01*
X17927206Y-12581436D02*
X17936729Y-12590960D01*
X17936729Y-12590960D02*
X17955777Y-12600484D01*
X17955777Y-12600484D02*
X17993872Y-12600484D01*
X17993872Y-12600484D02*
X18012920Y-12590960D01*
X18012920Y-12590960D02*
X18022444Y-12581436D01*
X18022444Y-12581436D02*
X18031968Y-12562388D01*
X18031968Y-12562388D02*
X18031968Y-12514769D01*
X18031968Y-12514769D02*
X18022444Y-12495722D01*
X18022444Y-12495722D02*
X18012920Y-12486198D01*
X18012920Y-12486198D02*
X17993872Y-12476674D01*
X17993872Y-12476674D02*
X17955777Y-12476674D01*
X17955777Y-12476674D02*
X17936729Y-12486198D01*
X17936729Y-12486198D02*
X17927206Y-12495722D01*
X17927206Y-12495722D02*
X17917682Y-12514769D01*
X18155777Y-12400484D02*
X18174825Y-12400484D01*
X18174825Y-12400484D02*
X18193872Y-12410008D01*
X18193872Y-12410008D02*
X18203396Y-12419531D01*
X18203396Y-12419531D02*
X18212920Y-12438579D01*
X18212920Y-12438579D02*
X18222444Y-12476674D01*
X18222444Y-12476674D02*
X18222444Y-12524293D01*
X18222444Y-12524293D02*
X18212920Y-12562388D01*
X18212920Y-12562388D02*
X18203396Y-12581436D01*
X18203396Y-12581436D02*
X18193872Y-12590960D01*
X18193872Y-12590960D02*
X18174825Y-12600484D01*
X18174825Y-12600484D02*
X18155777Y-12600484D01*
X18155777Y-12600484D02*
X18136729Y-12590960D01*
X18136729Y-12590960D02*
X18127206Y-12581436D01*
X18127206Y-12581436D02*
X18117682Y-12562388D01*
X18117682Y-12562388D02*
X18108158Y-12524293D01*
X18108158Y-12524293D02*
X18108158Y-12476674D01*
X18108158Y-12476674D02*
X18117682Y-12438579D01*
X18117682Y-12438579D02*
X18127206Y-12419531D01*
X18127206Y-12419531D02*
X18136729Y-12410008D01*
X18136729Y-12410008D02*
X18155777Y-12400484D01*
X18298634Y-12400484D02*
X18298634Y-12438579D01*
X18374825Y-12400484D02*
X18374825Y-12438579D01*
X18670063Y-12676674D02*
X18660539Y-12667150D01*
X18660539Y-12667150D02*
X18641491Y-12638579D01*
X18641491Y-12638579D02*
X18631968Y-12619531D01*
X18631968Y-12619531D02*
X18622444Y-12590960D01*
X18622444Y-12590960D02*
X18612920Y-12543341D01*
X18612920Y-12543341D02*
X18612920Y-12505246D01*
X18612920Y-12505246D02*
X18622444Y-12457627D01*
X18622444Y-12457627D02*
X18631968Y-12429055D01*
X18631968Y-12429055D02*
X18641491Y-12410008D01*
X18641491Y-12410008D02*
X18660539Y-12381436D01*
X18660539Y-12381436D02*
X18670063Y-12371912D01*
X18736730Y-12419531D02*
X18746253Y-12410008D01*
X18746253Y-12410008D02*
X18765301Y-12400484D01*
X18765301Y-12400484D02*
X18812920Y-12400484D01*
X18812920Y-12400484D02*
X18831968Y-12410008D01*
X18831968Y-12410008D02*
X18841491Y-12419531D01*
X18841491Y-12419531D02*
X18851015Y-12438579D01*
X18851015Y-12438579D02*
X18851015Y-12457627D01*
X18851015Y-12457627D02*
X18841491Y-12486198D01*
X18841491Y-12486198D02*
X18727206Y-12600484D01*
X18727206Y-12600484D02*
X18851015Y-12600484D01*
X19089111Y-12600484D02*
X19089111Y-12400484D01*
X19174825Y-12600484D02*
X19174825Y-12495722D01*
X19174825Y-12495722D02*
X19165301Y-12476674D01*
X19165301Y-12476674D02*
X19146253Y-12467150D01*
X19146253Y-12467150D02*
X19117682Y-12467150D01*
X19117682Y-12467150D02*
X19098634Y-12476674D01*
X19098634Y-12476674D02*
X19089111Y-12486198D01*
X19298634Y-12600484D02*
X19279587Y-12590960D01*
X19279587Y-12590960D02*
X19270063Y-12581436D01*
X19270063Y-12581436D02*
X19260539Y-12562388D01*
X19260539Y-12562388D02*
X19260539Y-12505246D01*
X19260539Y-12505246D02*
X19270063Y-12486198D01*
X19270063Y-12486198D02*
X19279587Y-12476674D01*
X19279587Y-12476674D02*
X19298634Y-12467150D01*
X19298634Y-12467150D02*
X19327206Y-12467150D01*
X19327206Y-12467150D02*
X19346253Y-12476674D01*
X19346253Y-12476674D02*
X19355777Y-12486198D01*
X19355777Y-12486198D02*
X19365301Y-12505246D01*
X19365301Y-12505246D02*
X19365301Y-12562388D01*
X19365301Y-12562388D02*
X19355777Y-12581436D01*
X19355777Y-12581436D02*
X19346253Y-12590960D01*
X19346253Y-12590960D02*
X19327206Y-12600484D01*
X19327206Y-12600484D02*
X19298634Y-12600484D01*
X19479587Y-12600484D02*
X19460539Y-12590960D01*
X19460539Y-12590960D02*
X19451015Y-12571912D01*
X19451015Y-12571912D02*
X19451015Y-12400484D01*
X19631968Y-12590960D02*
X19612920Y-12600484D01*
X19612920Y-12600484D02*
X19574825Y-12600484D01*
X19574825Y-12600484D02*
X19555777Y-12590960D01*
X19555777Y-12590960D02*
X19546253Y-12571912D01*
X19546253Y-12571912D02*
X19546253Y-12495722D01*
X19546253Y-12495722D02*
X19555777Y-12476674D01*
X19555777Y-12476674D02*
X19574825Y-12467150D01*
X19574825Y-12467150D02*
X19612920Y-12467150D01*
X19612920Y-12467150D02*
X19631968Y-12476674D01*
X19631968Y-12476674D02*
X19641492Y-12495722D01*
X19641492Y-12495722D02*
X19641492Y-12514769D01*
X19641492Y-12514769D02*
X19546253Y-12533817D01*
X19717682Y-12590960D02*
X19736730Y-12600484D01*
X19736730Y-12600484D02*
X19774825Y-12600484D01*
X19774825Y-12600484D02*
X19793873Y-12590960D01*
X19793873Y-12590960D02*
X19803396Y-12571912D01*
X19803396Y-12571912D02*
X19803396Y-12562388D01*
X19803396Y-12562388D02*
X19793873Y-12543341D01*
X19793873Y-12543341D02*
X19774825Y-12533817D01*
X19774825Y-12533817D02*
X19746253Y-12533817D01*
X19746253Y-12533817D02*
X19727206Y-12524293D01*
X19727206Y-12524293D02*
X19717682Y-12505246D01*
X19717682Y-12505246D02*
X19717682Y-12495722D01*
X19717682Y-12495722D02*
X19727206Y-12476674D01*
X19727206Y-12476674D02*
X19746253Y-12467150D01*
X19746253Y-12467150D02*
X19774825Y-12467150D01*
X19774825Y-12467150D02*
X19793873Y-12476674D01*
X19870063Y-12676674D02*
X19879587Y-12667150D01*
X19879587Y-12667150D02*
X19898634Y-12638579D01*
X19898634Y-12638579D02*
X19908158Y-12619531D01*
X19908158Y-12619531D02*
X19917682Y-12590960D01*
X19917682Y-12590960D02*
X19927206Y-12543341D01*
X19927206Y-12543341D02*
X19927206Y-12505246D01*
X19927206Y-12505246D02*
X19917682Y-12457627D01*
X19917682Y-12457627D02*
X19908158Y-12429055D01*
X19908158Y-12429055D02*
X19898634Y-12410008D01*
X19898634Y-12410008D02*
X19879587Y-12381436D01*
X19879587Y-12381436D02*
X19870063Y-12371912D01*
X20231968Y-12676674D02*
X20222444Y-12667150D01*
X20222444Y-12667150D02*
X20203396Y-12638579D01*
X20203396Y-12638579D02*
X20193873Y-12619531D01*
X20193873Y-12619531D02*
X20184349Y-12590960D01*
X20184349Y-12590960D02*
X20174825Y-12543341D01*
X20174825Y-12543341D02*
X20174825Y-12505246D01*
X20174825Y-12505246D02*
X20184349Y-12457627D01*
X20184349Y-12457627D02*
X20193873Y-12429055D01*
X20193873Y-12429055D02*
X20203396Y-12410008D01*
X20203396Y-12410008D02*
X20222444Y-12381436D01*
X20222444Y-12381436D02*
X20231968Y-12371912D01*
X20308158Y-12467150D02*
X20308158Y-12600484D01*
X20308158Y-12486198D02*
X20317682Y-12476674D01*
X20317682Y-12476674D02*
X20336730Y-12467150D01*
X20336730Y-12467150D02*
X20365301Y-12467150D01*
X20365301Y-12467150D02*
X20384349Y-12476674D01*
X20384349Y-12476674D02*
X20393873Y-12495722D01*
X20393873Y-12495722D02*
X20393873Y-12600484D01*
X20517682Y-12600484D02*
X20498634Y-12590960D01*
X20498634Y-12590960D02*
X20489111Y-12581436D01*
X20489111Y-12581436D02*
X20479587Y-12562388D01*
X20479587Y-12562388D02*
X20479587Y-12505246D01*
X20479587Y-12505246D02*
X20489111Y-12486198D01*
X20489111Y-12486198D02*
X20498634Y-12476674D01*
X20498634Y-12476674D02*
X20517682Y-12467150D01*
X20517682Y-12467150D02*
X20546254Y-12467150D01*
X20546254Y-12467150D02*
X20565301Y-12476674D01*
X20565301Y-12476674D02*
X20574825Y-12486198D01*
X20574825Y-12486198D02*
X20584349Y-12505246D01*
X20584349Y-12505246D02*
X20584349Y-12562388D01*
X20584349Y-12562388D02*
X20574825Y-12581436D01*
X20574825Y-12581436D02*
X20565301Y-12590960D01*
X20565301Y-12590960D02*
X20546254Y-12600484D01*
X20546254Y-12600484D02*
X20517682Y-12600484D01*
X20641492Y-12467150D02*
X20717682Y-12467150D01*
X20670063Y-12400484D02*
X20670063Y-12571912D01*
X20670063Y-12571912D02*
X20679587Y-12590960D01*
X20679587Y-12590960D02*
X20698634Y-12600484D01*
X20698634Y-12600484D02*
X20717682Y-12600484D01*
X20936730Y-12467150D02*
X20936730Y-12667150D01*
X20936730Y-12476674D02*
X20955777Y-12467150D01*
X20955777Y-12467150D02*
X20993873Y-12467150D01*
X20993873Y-12467150D02*
X21012920Y-12476674D01*
X21012920Y-12476674D02*
X21022444Y-12486198D01*
X21022444Y-12486198D02*
X21031968Y-12505246D01*
X21031968Y-12505246D02*
X21031968Y-12562388D01*
X21031968Y-12562388D02*
X21022444Y-12581436D01*
X21022444Y-12581436D02*
X21012920Y-12590960D01*
X21012920Y-12590960D02*
X20993873Y-12600484D01*
X20993873Y-12600484D02*
X20955777Y-12600484D01*
X20955777Y-12600484D02*
X20936730Y-12590960D01*
X21146254Y-12600484D02*
X21127206Y-12590960D01*
X21127206Y-12590960D02*
X21117682Y-12571912D01*
X21117682Y-12571912D02*
X21117682Y-12400484D01*
X21308158Y-12600484D02*
X21308158Y-12495722D01*
X21308158Y-12495722D02*
X21298635Y-12476674D01*
X21298635Y-12476674D02*
X21279587Y-12467150D01*
X21279587Y-12467150D02*
X21241492Y-12467150D01*
X21241492Y-12467150D02*
X21222444Y-12476674D01*
X21308158Y-12590960D02*
X21289111Y-12600484D01*
X21289111Y-12600484D02*
X21241492Y-12600484D01*
X21241492Y-12600484D02*
X21222444Y-12590960D01*
X21222444Y-12590960D02*
X21212920Y-12571912D01*
X21212920Y-12571912D02*
X21212920Y-12552865D01*
X21212920Y-12552865D02*
X21222444Y-12533817D01*
X21222444Y-12533817D02*
X21241492Y-12524293D01*
X21241492Y-12524293D02*
X21289111Y-12524293D01*
X21289111Y-12524293D02*
X21308158Y-12514769D01*
X21374825Y-12467150D02*
X21451015Y-12467150D01*
X21403396Y-12400484D02*
X21403396Y-12571912D01*
X21403396Y-12571912D02*
X21412920Y-12590960D01*
X21412920Y-12590960D02*
X21431968Y-12600484D01*
X21431968Y-12600484D02*
X21451015Y-12600484D01*
X21593873Y-12590960D02*
X21574825Y-12600484D01*
X21574825Y-12600484D02*
X21536730Y-12600484D01*
X21536730Y-12600484D02*
X21517682Y-12590960D01*
X21517682Y-12590960D02*
X21508158Y-12571912D01*
X21508158Y-12571912D02*
X21508158Y-12495722D01*
X21508158Y-12495722D02*
X21517682Y-12476674D01*
X21517682Y-12476674D02*
X21536730Y-12467150D01*
X21536730Y-12467150D02*
X21574825Y-12467150D01*
X21574825Y-12467150D02*
X21593873Y-12476674D01*
X21593873Y-12476674D02*
X21603396Y-12495722D01*
X21603396Y-12495722D02*
X21603396Y-12514769D01*
X21603396Y-12514769D02*
X21508158Y-12533817D01*
X21774825Y-12600484D02*
X21774825Y-12400484D01*
X21774825Y-12590960D02*
X21755777Y-12600484D01*
X21755777Y-12600484D02*
X21717682Y-12600484D01*
X21717682Y-12600484D02*
X21698635Y-12590960D01*
X21698635Y-12590960D02*
X21689111Y-12581436D01*
X21689111Y-12581436D02*
X21679587Y-12562388D01*
X21679587Y-12562388D02*
X21679587Y-12505246D01*
X21679587Y-12505246D02*
X21689111Y-12486198D01*
X21689111Y-12486198D02*
X21698635Y-12476674D01*
X21698635Y-12476674D02*
X21717682Y-12467150D01*
X21717682Y-12467150D02*
X21755777Y-12467150D01*
X21755777Y-12467150D02*
X21774825Y-12476674D01*
X21851016Y-12676674D02*
X21860539Y-12667150D01*
X21860539Y-12667150D02*
X21879587Y-12638579D01*
X21879587Y-12638579D02*
X21889111Y-12619531D01*
X21889111Y-12619531D02*
X21898635Y-12590960D01*
X21898635Y-12590960D02*
X21908158Y-12543341D01*
X21908158Y-12543341D02*
X21908158Y-12505246D01*
X21908158Y-12505246D02*
X21898635Y-12457627D01*
X21898635Y-12457627D02*
X21889111Y-12429055D01*
X21889111Y-12429055D02*
X21879587Y-12410008D01*
X21879587Y-12410008D02*
X21860539Y-12381436D01*
X21860539Y-12381436D02*
X21851016Y-12371912D01*
M02*
