M48
; DRILL file {KiCad 8.0.2} date 2025-01-25T00:30:20-0700
; FORMAT={-:-/ absolute / metric / decimal}
; #@! TF.CreationDate,2025-01-25T00:30:20-07:00
; #@! TF.GenerationSoftware,Kicad,Pcbnew,8.0.2
; #@! TF.FileFunction,Plated,1,4,PTH
FMAT,2
METRIC
; #@! TA.AperFunction,Plated,PTH,ViaDrill
T1C0.300
; #@! TA.AperFunction,Plated,PTH,ViaDrill
T2C0.400
; #@! TA.AperFunction,Plated,PTH,ViaDrill
T3C0.500
; #@! TA.AperFunction,Plated,PTH,ComponentDrill
T4C0.600
; #@! TA.AperFunction,Plated,PTH,ComponentDrill
T5C0.762
; #@! TA.AperFunction,Plated,PTH,ComponentDrill
T6C0.850
; #@! TA.AperFunction,Plated,PTH,ComponentDrill
T7C0.950
; #@! TA.AperFunction,Plated,PTH,ComponentDrill
T8C1.000
%
G90
G05
T1
X157.9Y-97.3
X162.8Y-96.4
X163.0Y-98.1
X163.0Y-111.9
X163.4Y-102.4
X167.92Y-87.6
X171.8Y-78.568
X171.8Y-79.468
X173.1Y-102.9
X176.2Y-93.0
X177.8Y-78.568
X177.8Y-79.668
X180.1Y-107.1
X180.8Y-85.8
X181.4Y-83.568
X181.4Y-84.768
X181.8Y-81.668
X182.9Y-89.3
X183.0Y-81.668
X184.1Y-77.668
X184.1Y-80.468
X184.2Y-94.8
X185.1Y-93.9
X185.1Y-110.0
X185.8Y-88.5
X187.5Y-101.5
X187.6Y-110.3
X188.1Y-84.1
X188.5Y-86.8
X189.0Y-103.9
X189.5Y-91.8
X191.4Y-107.0
X198.5Y-91.0
X198.9Y-105.1
X199.2Y-102.2
T2
X158.0Y-88.25
X158.5Y-84.5
X162.5Y-81.5
X162.5Y-83.5
X166.387Y-89.891
X168.5Y-96.5
X169.5Y-98.5
X172.0Y-86.5
X195.3Y-95.7
T3
X167.6Y-99.5
X170.8Y-89.5
X172.0Y-112.3
X173.7Y-86.6
T5
X165.43Y-80.27
X167.97Y-80.27
X191.9Y-79.5
X194.44Y-79.5
T6
X182.7Y-111.5
X187.7Y-111.5
T7
X155.5Y-97.5
X155.5Y-100.0
X155.5Y-102.5
X155.5Y-105.0
X155.5Y-107.5
X155.5Y-110.0
X162.5Y-93.5
X165.0Y-93.5
X167.5Y-93.5
X170.0Y-93.5
T8
X166.4Y-103.36
X166.4Y-105.9
X191.635Y-85.4
X194.175Y-85.4
T4
X181.7Y-114.55G85X181.7Y-113.85
G05
X188.7Y-113.85G85X188.7Y-114.55
G05
M30
