G04 #@! TF.GenerationSoftware,KiCad,Pcbnew,8.0.2*
G04 #@! TF.CreationDate,2025-01-25T00:30:06-07:00*
G04 #@! TF.ProjectId,sdm25wheel,73646d32-3577-4686-9565-6c2e6b696361,v1.1*
G04 #@! TF.SameCoordinates,Original*
G04 #@! TF.FileFunction,Copper,L3,Inr*
G04 #@! TF.FilePolarity,Positive*
%FSLAX46Y46*%
G04 Gerber Fmt 4.6, Leading zero omitted, Abs format (unit mm)*
G04 Created by KiCad (PCBNEW 8.0.2) date 2025-01-25 00:30:06*
%MOMM*%
%LPD*%
G01*
G04 APERTURE LIST*
G04 Aperture macros list*
%AMRoundRect*
0 Rectangle with rounded corners*
0 $1 Rounding radius*
0 $2 $3 $4 $5 $6 $7 $8 $9 X,Y pos of 4 corners*
0 Add a 4 corners polygon primitive as box body*
4,1,4,$2,$3,$4,$5,$6,$7,$8,$9,$2,$3,0*
0 Add four circle primitives for the rounded corners*
1,1,$1+$1,$2,$3*
1,1,$1+$1,$4,$5*
1,1,$1+$1,$6,$7*
1,1,$1+$1,$8,$9*
0 Add four rect primitives between the rounded corners*
20,1,$1+$1,$2,$3,$4,$5,0*
20,1,$1+$1,$4,$5,$6,$7,0*
20,1,$1+$1,$6,$7,$8,$9,0*
20,1,$1+$1,$8,$9,$2,$3,0*%
G04 Aperture macros list end*
G04 #@! TA.AperFunction,ComponentPad*
%ADD10RoundRect,0.250000X0.725000X-0.600000X0.725000X0.600000X-0.725000X0.600000X-0.725000X-0.600000X0*%
G04 #@! TD*
G04 #@! TA.AperFunction,ComponentPad*
%ADD11O,1.950000X1.700000*%
G04 #@! TD*
G04 #@! TA.AperFunction,ComponentPad*
%ADD12C,1.524000*%
G04 #@! TD*
G04 #@! TA.AperFunction,ComponentPad*
%ADD13O,1.200000X1.900000*%
G04 #@! TD*
G04 #@! TA.AperFunction,ComponentPad*
%ADD14C,1.450000*%
G04 #@! TD*
G04 #@! TA.AperFunction,ComponentPad*
%ADD15RoundRect,0.250000X0.600000X0.725000X-0.600000X0.725000X-0.600000X-0.725000X0.600000X-0.725000X0*%
G04 #@! TD*
G04 #@! TA.AperFunction,ComponentPad*
%ADD16O,1.700000X1.950000*%
G04 #@! TD*
G04 #@! TA.AperFunction,ComponentPad*
%ADD17R,1.700000X1.700000*%
G04 #@! TD*
G04 #@! TA.AperFunction,ComponentPad*
%ADD18O,1.700000X1.700000*%
G04 #@! TD*
G04 #@! TA.AperFunction,ViaPad*
%ADD19C,1.000000*%
G04 #@! TD*
G04 #@! TA.AperFunction,ViaPad*
%ADD20C,0.700000*%
G04 #@! TD*
G04 #@! TA.AperFunction,ViaPad*
%ADD21C,0.800000*%
G04 #@! TD*
G04 APERTURE END LIST*
D10*
X155500000Y-110000000D03*
D11*
X155500000Y-107500000D03*
X155500000Y-105000000D03*
X155500000Y-102500000D03*
X155500000Y-100000000D03*
X155500000Y-97500000D03*
D12*
X194440000Y-79500000D03*
X191900000Y-79500000D03*
X167970000Y-80270000D03*
X165430000Y-80270000D03*
D13*
X181700000Y-114200000D03*
D14*
X182700000Y-111500000D03*
X187700000Y-111500000D03*
D13*
X188700000Y-114200000D03*
D15*
X170000000Y-93500000D03*
D16*
X167500000Y-93500000D03*
X165000000Y-93500000D03*
X162500000Y-93500000D03*
D17*
X194175000Y-85400000D03*
D18*
X191635000Y-85400000D03*
D17*
X166400000Y-103360000D03*
D18*
X166400000Y-105900000D03*
D19*
X170800000Y-89500000D03*
X167600000Y-99500000D03*
X173700000Y-86600000D03*
D20*
X163000000Y-98100000D03*
X187500000Y-101500000D03*
X189000000Y-103900000D03*
X199200000Y-102200000D03*
X187600000Y-110300000D03*
D21*
X158500000Y-84500000D03*
D20*
X177800000Y-79668170D03*
D19*
X172000000Y-112300000D03*
D20*
X173100000Y-102900000D03*
X182900000Y-89300000D03*
X181800000Y-81668170D03*
D21*
X158000000Y-88250000D03*
D20*
X184100000Y-77668170D03*
X163000000Y-111900000D03*
X184200000Y-94800000D03*
D21*
X195300000Y-95700000D03*
D20*
X162800000Y-96400000D03*
X167920000Y-87600000D03*
X189500000Y-91800000D03*
X180800000Y-85800000D03*
X180100000Y-107100000D03*
X176200000Y-93000000D03*
X157900000Y-97300000D03*
X181400000Y-83568170D03*
X188500000Y-86800000D03*
X171800000Y-78568170D03*
X163400000Y-102400000D03*
X184100000Y-80468170D03*
X198500000Y-91000000D03*
X183000000Y-81668170D03*
X191400000Y-107000000D03*
X171800000Y-79468170D03*
X185800000Y-88500000D03*
X181400000Y-84768170D03*
X188100000Y-84100000D03*
X177800000Y-78568170D03*
X185100000Y-110000000D03*
X185100000Y-93900000D03*
X198900000Y-105100000D03*
D21*
X168500000Y-96500000D03*
X162500000Y-83500000D03*
X162500000Y-81500000D03*
X172000000Y-86500000D03*
X166386820Y-89891347D03*
G04 #@! TA.AperFunction,Conductor*
G36*
X197000855Y-75000011D02*
G01*
X197162269Y-75002274D01*
X197174390Y-75003041D01*
X197478553Y-75037312D01*
X197495992Y-75039277D01*
X197509700Y-75041606D01*
X197824366Y-75113426D01*
X197837725Y-75117273D01*
X198142392Y-75223881D01*
X198155228Y-75229199D01*
X198446025Y-75369239D01*
X198458195Y-75375965D01*
X198731486Y-75547685D01*
X198742827Y-75555732D01*
X198995173Y-75756971D01*
X199005541Y-75766237D01*
X199233762Y-75994458D01*
X199243028Y-76004826D01*
X199444267Y-76257172D01*
X199452314Y-76268513D01*
X199624034Y-76541804D01*
X199630760Y-76553974D01*
X199770798Y-76844766D01*
X199776120Y-76857613D01*
X199882724Y-77162270D01*
X199886573Y-77175633D01*
X199958393Y-77490299D01*
X199960722Y-77504007D01*
X199996957Y-77825597D01*
X199997725Y-77837743D01*
X199999988Y-77999144D01*
X200000000Y-78000882D01*
X200000000Y-112999117D01*
X199999988Y-113000855D01*
X199997725Y-113162256D01*
X199996957Y-113174402D01*
X199960722Y-113495992D01*
X199958393Y-113509700D01*
X199886573Y-113824366D01*
X199882724Y-113837729D01*
X199776120Y-114142386D01*
X199770798Y-114155233D01*
X199630760Y-114446025D01*
X199624034Y-114458195D01*
X199452314Y-114731486D01*
X199444267Y-114742827D01*
X199243028Y-114995173D01*
X199233762Y-115005541D01*
X199005541Y-115233762D01*
X198995173Y-115243028D01*
X198742827Y-115444267D01*
X198731486Y-115452314D01*
X198458195Y-115624034D01*
X198446025Y-115630760D01*
X198155233Y-115770798D01*
X198142386Y-115776120D01*
X197837729Y-115882724D01*
X197824366Y-115886573D01*
X197509700Y-115958393D01*
X197495992Y-115960722D01*
X197174402Y-115996957D01*
X197162256Y-115997725D01*
X197000856Y-115999988D01*
X196999118Y-116000000D01*
X154000882Y-116000000D01*
X153999144Y-115999988D01*
X153837743Y-115997725D01*
X153825597Y-115996957D01*
X153504007Y-115960722D01*
X153490299Y-115958393D01*
X153175633Y-115886573D01*
X153162270Y-115882724D01*
X152857613Y-115776120D01*
X152844766Y-115770798D01*
X152553974Y-115630760D01*
X152541804Y-115624034D01*
X152268513Y-115452314D01*
X152257172Y-115444267D01*
X152004826Y-115243028D01*
X151994458Y-115233762D01*
X151766237Y-115005541D01*
X151756971Y-114995173D01*
X151742112Y-114976540D01*
X151555730Y-114742824D01*
X151547685Y-114731486D01*
X151489379Y-114638693D01*
X151375964Y-114458193D01*
X151369239Y-114446025D01*
X151229201Y-114155233D01*
X151223879Y-114142386D01*
X151117275Y-113837729D01*
X151113426Y-113824366D01*
X151099033Y-113761304D01*
X180799500Y-113761304D01*
X180799500Y-114638695D01*
X180834103Y-114812658D01*
X180834106Y-114812667D01*
X180901983Y-114976540D01*
X180901990Y-114976553D01*
X181000535Y-115124034D01*
X181000538Y-115124038D01*
X181125961Y-115249461D01*
X181125965Y-115249464D01*
X181273446Y-115348009D01*
X181273459Y-115348016D01*
X181396363Y-115398923D01*
X181437334Y-115415894D01*
X181437336Y-115415894D01*
X181437341Y-115415896D01*
X181611304Y-115450499D01*
X181611307Y-115450500D01*
X181611309Y-115450500D01*
X181788693Y-115450500D01*
X181788694Y-115450499D01*
X181846682Y-115438964D01*
X181962658Y-115415896D01*
X181962661Y-115415894D01*
X181962666Y-115415894D01*
X182126547Y-115348013D01*
X182274035Y-115249464D01*
X182399464Y-115124035D01*
X182498013Y-114976547D01*
X182565894Y-114812666D01*
X182600500Y-114638691D01*
X182600500Y-113761309D01*
X182600500Y-113761306D01*
X182600499Y-113761304D01*
X187799500Y-113761304D01*
X187799500Y-114638695D01*
X187834103Y-114812658D01*
X187834106Y-114812667D01*
X187901983Y-114976540D01*
X187901990Y-114976553D01*
X188000535Y-115124034D01*
X188000538Y-115124038D01*
X188125961Y-115249461D01*
X188125965Y-115249464D01*
X188273446Y-115348009D01*
X188273459Y-115348016D01*
X188396363Y-115398923D01*
X188437334Y-115415894D01*
X188437336Y-115415894D01*
X188437341Y-115415896D01*
X188611304Y-115450499D01*
X188611307Y-115450500D01*
X188611309Y-115450500D01*
X188788693Y-115450500D01*
X188788694Y-115450499D01*
X188846682Y-115438964D01*
X188962658Y-115415896D01*
X188962661Y-115415894D01*
X188962666Y-115415894D01*
X189126547Y-115348013D01*
X189274035Y-115249464D01*
X189399464Y-115124035D01*
X189498013Y-114976547D01*
X189565894Y-114812666D01*
X189600500Y-114638691D01*
X189600500Y-113761309D01*
X189600500Y-113761306D01*
X189600499Y-113761304D01*
X189565896Y-113587341D01*
X189565893Y-113587332D01*
X189498016Y-113423459D01*
X189498009Y-113423446D01*
X189399464Y-113275965D01*
X189399461Y-113275961D01*
X189274038Y-113150538D01*
X189274034Y-113150535D01*
X189126553Y-113051990D01*
X189126540Y-113051983D01*
X188962667Y-112984106D01*
X188962658Y-112984103D01*
X188788694Y-112949500D01*
X188788691Y-112949500D01*
X188611309Y-112949500D01*
X188611306Y-112949500D01*
X188437341Y-112984103D01*
X188437332Y-112984106D01*
X188273459Y-113051983D01*
X188273446Y-113051990D01*
X188125965Y-113150535D01*
X188125961Y-113150538D01*
X188000538Y-113275961D01*
X188000535Y-113275965D01*
X187901990Y-113423446D01*
X187901983Y-113423459D01*
X187834106Y-113587332D01*
X187834103Y-113587341D01*
X187799500Y-113761304D01*
X182600499Y-113761304D01*
X182565896Y-113587341D01*
X182565893Y-113587332D01*
X182498016Y-113423459D01*
X182498009Y-113423446D01*
X182399464Y-113275965D01*
X182399461Y-113275961D01*
X182274038Y-113150538D01*
X182274034Y-113150535D01*
X182126553Y-113051990D01*
X182126540Y-113051983D01*
X181962667Y-112984106D01*
X181962658Y-112984103D01*
X181788694Y-112949500D01*
X181788691Y-112949500D01*
X181611309Y-112949500D01*
X181611306Y-112949500D01*
X181437341Y-112984103D01*
X181437332Y-112984106D01*
X181273459Y-113051983D01*
X181273446Y-113051990D01*
X181125965Y-113150535D01*
X181125961Y-113150538D01*
X181000538Y-113275961D01*
X181000535Y-113275965D01*
X180901990Y-113423446D01*
X180901983Y-113423459D01*
X180834106Y-113587332D01*
X180834103Y-113587341D01*
X180799500Y-113761304D01*
X151099033Y-113761304D01*
X151041606Y-113509700D01*
X151039277Y-113495992D01*
X151027815Y-113394266D01*
X151003041Y-113174390D01*
X151002274Y-113162269D01*
X151000012Y-113000855D01*
X151000000Y-112999117D01*
X151000000Y-111500000D01*
X181669538Y-111500000D01*
X181689337Y-111701031D01*
X181747978Y-111894345D01*
X181843198Y-112072488D01*
X181843203Y-112072495D01*
X181971352Y-112228647D01*
X182080016Y-112317824D01*
X182127506Y-112356798D01*
X182127509Y-112356799D01*
X182127511Y-112356801D01*
X182305654Y-112452021D01*
X182305656Y-112452021D01*
X182305659Y-112452023D01*
X182498967Y-112510662D01*
X182700000Y-112530462D01*
X182901033Y-112510662D01*
X183094341Y-112452023D01*
X183272494Y-112356798D01*
X183428647Y-112228647D01*
X183556798Y-112072494D01*
X183652023Y-111894341D01*
X183710662Y-111701033D01*
X183730462Y-111500000D01*
X186669538Y-111500000D01*
X186689337Y-111701031D01*
X186747978Y-111894345D01*
X186843198Y-112072488D01*
X186843203Y-112072495D01*
X186971352Y-112228647D01*
X187080016Y-112317824D01*
X187127506Y-112356798D01*
X187127509Y-112356799D01*
X187127511Y-112356801D01*
X187305654Y-112452021D01*
X187305656Y-112452021D01*
X187305659Y-112452023D01*
X187498967Y-112510662D01*
X187700000Y-112530462D01*
X187901033Y-112510662D01*
X188094341Y-112452023D01*
X188272494Y-112356798D01*
X188428647Y-112228647D01*
X188556798Y-112072494D01*
X188652023Y-111894341D01*
X188656764Y-111878711D01*
X194149500Y-111878711D01*
X194149500Y-112121288D01*
X194181161Y-112361785D01*
X194243947Y-112596104D01*
X194336773Y-112820205D01*
X194336776Y-112820212D01*
X194458064Y-113030289D01*
X194458066Y-113030292D01*
X194458067Y-113030293D01*
X194605733Y-113222736D01*
X194605739Y-113222743D01*
X194777256Y-113394260D01*
X194777263Y-113394266D01*
X194815308Y-113423459D01*
X194969711Y-113541936D01*
X195179788Y-113663224D01*
X195403900Y-113756054D01*
X195638211Y-113818838D01*
X195818586Y-113842584D01*
X195878711Y-113850500D01*
X195878712Y-113850500D01*
X196121289Y-113850500D01*
X196169388Y-113844167D01*
X196361789Y-113818838D01*
X196596100Y-113756054D01*
X196820212Y-113663224D01*
X197030289Y-113541936D01*
X197222738Y-113394265D01*
X197394265Y-113222738D01*
X197541936Y-113030289D01*
X197663224Y-112820212D01*
X197756054Y-112596100D01*
X197818838Y-112361789D01*
X197850500Y-112121288D01*
X197850500Y-111878712D01*
X197818838Y-111638211D01*
X197756054Y-111403900D01*
X197663224Y-111179788D01*
X197541936Y-110969711D01*
X197394265Y-110777262D01*
X197394260Y-110777256D01*
X197222743Y-110605739D01*
X197222736Y-110605733D01*
X197030293Y-110458067D01*
X197030292Y-110458066D01*
X197030289Y-110458064D01*
X196820212Y-110336776D01*
X196820205Y-110336773D01*
X196596104Y-110243947D01*
X196361785Y-110181161D01*
X196121289Y-110149500D01*
X196121288Y-110149500D01*
X195878712Y-110149500D01*
X195878711Y-110149500D01*
X195638214Y-110181161D01*
X195403895Y-110243947D01*
X195179794Y-110336773D01*
X195179785Y-110336777D01*
X194969706Y-110458067D01*
X194777263Y-110605733D01*
X194777256Y-110605739D01*
X194605739Y-110777256D01*
X194605733Y-110777263D01*
X194458067Y-110969706D01*
X194336777Y-111179785D01*
X194336773Y-111179794D01*
X194243947Y-111403895D01*
X194181161Y-111638214D01*
X194149500Y-111878711D01*
X188656764Y-111878711D01*
X188710662Y-111701033D01*
X188730462Y-111500000D01*
X188710662Y-111298967D01*
X188652023Y-111105659D01*
X188652021Y-111105656D01*
X188652021Y-111105654D01*
X188556801Y-110927511D01*
X188556799Y-110927509D01*
X188556798Y-110927506D01*
X188511526Y-110872342D01*
X188428647Y-110771352D01*
X188272495Y-110643203D01*
X188272488Y-110643198D01*
X188094345Y-110547978D01*
X187901031Y-110489337D01*
X187700000Y-110469538D01*
X187498968Y-110489337D01*
X187305654Y-110547978D01*
X187127511Y-110643198D01*
X187127504Y-110643203D01*
X186971352Y-110771352D01*
X186843203Y-110927504D01*
X186843198Y-110927511D01*
X186747978Y-111105654D01*
X186689337Y-111298968D01*
X186669538Y-111500000D01*
X183730462Y-111500000D01*
X183710662Y-111298967D01*
X183652023Y-111105659D01*
X183652021Y-111105656D01*
X183652021Y-111105654D01*
X183556801Y-110927511D01*
X183556799Y-110927509D01*
X183556798Y-110927506D01*
X183511526Y-110872342D01*
X183428647Y-110771352D01*
X183272495Y-110643203D01*
X183272488Y-110643198D01*
X183094345Y-110547978D01*
X182901031Y-110489337D01*
X182700000Y-110469538D01*
X182498968Y-110489337D01*
X182305654Y-110547978D01*
X182127511Y-110643198D01*
X182127504Y-110643203D01*
X181971352Y-110771352D01*
X181843203Y-110927504D01*
X181843198Y-110927511D01*
X181747978Y-111105654D01*
X181689337Y-111298968D01*
X181669538Y-111500000D01*
X151000000Y-111500000D01*
X151000000Y-107393753D01*
X154025000Y-107393753D01*
X154025000Y-107606246D01*
X154058242Y-107816127D01*
X154058242Y-107816130D01*
X154123904Y-108018217D01*
X154220377Y-108207554D01*
X154312330Y-108334115D01*
X154312331Y-108334116D01*
X155037449Y-107608997D01*
X155057370Y-107683343D01*
X155119905Y-107791657D01*
X155208343Y-107880095D01*
X155316657Y-107942630D01*
X155391002Y-107962550D01*
X154688302Y-108665249D01*
X154695413Y-108710150D01*
X154706773Y-108756012D01*
X154684238Y-108822148D01*
X154629525Y-108865601D01*
X154628378Y-108866060D01*
X154502658Y-108915638D01*
X154382077Y-109007077D01*
X154290639Y-109127656D01*
X154235122Y-109268438D01*
X154229188Y-109317853D01*
X154224500Y-109356898D01*
X154224500Y-110643102D01*
X154230126Y-110689954D01*
X154235122Y-110731561D01*
X154290639Y-110872343D01*
X154382077Y-110992922D01*
X154502656Y-111084360D01*
X154502657Y-111084360D01*
X154502658Y-111084361D01*
X154643436Y-111139877D01*
X154731898Y-111150500D01*
X154731903Y-111150500D01*
X156268097Y-111150500D01*
X156268102Y-111150500D01*
X156356564Y-111139877D01*
X156497342Y-111084361D01*
X156617922Y-110992922D01*
X156709361Y-110872342D01*
X156764877Y-110731564D01*
X156775500Y-110643102D01*
X156775500Y-109356898D01*
X156764877Y-109268436D01*
X156709361Y-109127658D01*
X156709360Y-109127657D01*
X156709360Y-109127656D01*
X156617922Y-109007077D01*
X156497341Y-108915638D01*
X156497339Y-108915637D01*
X156371621Y-108866060D01*
X156316477Y-108823155D01*
X156293284Y-108757247D01*
X156304853Y-108708456D01*
X156311696Y-108665249D01*
X155608998Y-107962550D01*
X155683343Y-107942630D01*
X155791657Y-107880095D01*
X155880095Y-107791657D01*
X155942630Y-107683343D01*
X155962550Y-107608998D01*
X156687668Y-108334116D01*
X156687668Y-108334115D01*
X156779622Y-108207552D01*
X156779626Y-108207546D01*
X156876095Y-108018217D01*
X156941757Y-107816130D01*
X156941757Y-107816127D01*
X156975000Y-107606246D01*
X156975000Y-107393753D01*
X156941757Y-107183872D01*
X156941757Y-107183869D01*
X156876095Y-106981782D01*
X156779622Y-106792445D01*
X156687668Y-106665883D01*
X156687668Y-106665882D01*
X155962550Y-107391001D01*
X155942630Y-107316657D01*
X155880095Y-107208343D01*
X155791657Y-107119905D01*
X155683343Y-107057370D01*
X155608997Y-107037449D01*
X156311695Y-106334749D01*
X156142488Y-106248533D01*
X156091692Y-106200558D01*
X156074897Y-106132737D01*
X156097434Y-106066602D01*
X156142489Y-106027563D01*
X156227994Y-105983996D01*
X156343605Y-105900000D01*
X165244571Y-105900000D01*
X165264244Y-106112310D01*
X165303003Y-106248533D01*
X165322596Y-106317392D01*
X165322596Y-106317394D01*
X165417632Y-106508253D01*
X165536669Y-106665882D01*
X165546128Y-106678407D01*
X165703698Y-106822052D01*
X165884981Y-106934298D01*
X166083802Y-107011321D01*
X166293390Y-107050500D01*
X166293392Y-107050500D01*
X166506608Y-107050500D01*
X166506610Y-107050500D01*
X166716198Y-107011321D01*
X166915019Y-106934298D01*
X167096302Y-106822052D01*
X167253872Y-106678407D01*
X167382366Y-106508255D01*
X167467869Y-106336540D01*
X195489200Y-106336540D01*
X195489200Y-106483459D01*
X195517858Y-106627534D01*
X195517861Y-106627544D01*
X195574078Y-106763266D01*
X195574083Y-106763275D01*
X195655698Y-106885419D01*
X195655701Y-106885423D01*
X195759576Y-106989298D01*
X195759580Y-106989301D01*
X195881724Y-107070916D01*
X195881730Y-107070919D01*
X195881731Y-107070920D01*
X196017458Y-107127140D01*
X196161540Y-107155799D01*
X196161544Y-107155800D01*
X196161545Y-107155800D01*
X196308456Y-107155800D01*
X196308457Y-107155799D01*
X196452542Y-107127140D01*
X196588269Y-107070920D01*
X196710420Y-106989301D01*
X196814301Y-106885420D01*
X196895920Y-106763269D01*
X196952140Y-106627542D01*
X196980800Y-106483455D01*
X196980800Y-106336545D01*
X196952140Y-106192458D01*
X196895920Y-106056731D01*
X196895919Y-106056730D01*
X196895916Y-106056724D01*
X196814301Y-105934580D01*
X196814298Y-105934576D01*
X196710423Y-105830701D01*
X196710419Y-105830698D01*
X196588275Y-105749083D01*
X196588266Y-105749078D01*
X196452544Y-105692861D01*
X196452545Y-105692861D01*
X196452542Y-105692860D01*
X196452538Y-105692859D01*
X196452534Y-105692858D01*
X196308459Y-105664200D01*
X196308455Y-105664200D01*
X196161545Y-105664200D01*
X196161540Y-105664200D01*
X196017465Y-105692858D01*
X196017455Y-105692861D01*
X195881733Y-105749078D01*
X195881724Y-105749083D01*
X195759580Y-105830698D01*
X195759576Y-105830701D01*
X195655701Y-105934576D01*
X195655698Y-105934580D01*
X195574083Y-106056724D01*
X195574078Y-106056733D01*
X195517861Y-106192455D01*
X195517858Y-106192465D01*
X195489200Y-106336540D01*
X167467869Y-106336540D01*
X167477405Y-106317389D01*
X167535756Y-106112310D01*
X167555429Y-105900000D01*
X167535756Y-105687690D01*
X167477405Y-105482611D01*
X167477403Y-105482606D01*
X167477403Y-105482605D01*
X167382367Y-105291746D01*
X167253872Y-105121593D01*
X167230184Y-105099999D01*
X198244722Y-105099999D01*
X198244722Y-105100000D01*
X198263762Y-105256818D01*
X198277009Y-105291746D01*
X198319780Y-105404523D01*
X198409517Y-105534530D01*
X198527760Y-105639283D01*
X198527762Y-105639284D01*
X198667634Y-105712696D01*
X198821014Y-105750500D01*
X198821015Y-105750500D01*
X198978985Y-105750500D01*
X199132365Y-105712696D01*
X199170159Y-105692860D01*
X199272240Y-105639283D01*
X199390483Y-105534530D01*
X199480220Y-105404523D01*
X199536237Y-105256818D01*
X199555278Y-105100000D01*
X199536237Y-104943182D01*
X199523443Y-104909448D01*
X199506852Y-104865701D01*
X199480220Y-104795477D01*
X199390483Y-104665470D01*
X199272240Y-104560717D01*
X199272238Y-104560716D01*
X199272237Y-104560715D01*
X199132365Y-104487303D01*
X198978986Y-104449500D01*
X198978985Y-104449500D01*
X198821015Y-104449500D01*
X198821014Y-104449500D01*
X198667634Y-104487303D01*
X198527762Y-104560715D01*
X198409516Y-104665471D01*
X198319781Y-104795475D01*
X198319780Y-104795476D01*
X198263762Y-104943181D01*
X198244722Y-105099999D01*
X167230184Y-105099999D01*
X167219815Y-105090546D01*
X167120492Y-105000000D01*
X180000000Y-105000000D01*
X188500000Y-105000000D01*
X188500000Y-104577350D01*
X188519685Y-104510311D01*
X188572489Y-104464556D01*
X188641647Y-104454612D01*
X188681622Y-104467552D01*
X188767635Y-104512696D01*
X188838584Y-104530183D01*
X188921014Y-104550500D01*
X188921015Y-104550500D01*
X189078985Y-104550500D01*
X189232365Y-104512696D01*
X189242105Y-104507584D01*
X189372240Y-104439283D01*
X189490483Y-104334530D01*
X189580220Y-104204523D01*
X189636237Y-104056818D01*
X189655278Y-103900000D01*
X189636237Y-103743182D01*
X189580220Y-103595477D01*
X189490483Y-103465470D01*
X189372240Y-103360717D01*
X189372238Y-103360716D01*
X189372237Y-103360715D01*
X189232365Y-103287303D01*
X189078986Y-103249500D01*
X189078985Y-103249500D01*
X188921015Y-103249500D01*
X188921014Y-103249500D01*
X188767634Y-103287303D01*
X188681626Y-103332445D01*
X188613118Y-103346171D01*
X188548065Y-103320679D01*
X188507120Y-103264063D01*
X188500000Y-103222649D01*
X188500000Y-102500000D01*
X189000000Y-102500000D01*
X191000000Y-102500000D01*
X191000000Y-101256540D01*
X194473200Y-101256540D01*
X194473200Y-101403459D01*
X194501858Y-101547534D01*
X194501861Y-101547544D01*
X194558078Y-101683266D01*
X194558083Y-101683275D01*
X194639698Y-101805419D01*
X194639701Y-101805423D01*
X194743576Y-101909298D01*
X194743580Y-101909301D01*
X194865724Y-101990916D01*
X194865730Y-101990919D01*
X194865731Y-101990920D01*
X195001458Y-102047140D01*
X195145540Y-102075799D01*
X195145544Y-102075800D01*
X195145545Y-102075800D01*
X195292456Y-102075800D01*
X195292457Y-102075799D01*
X195436542Y-102047140D01*
X195572269Y-101990920D01*
X195694420Y-101909301D01*
X195798301Y-101805420D01*
X195879920Y-101683269D01*
X195936140Y-101547542D01*
X195964800Y-101403455D01*
X195964800Y-101256545D01*
X195964799Y-101256540D01*
X196505200Y-101256540D01*
X196505200Y-101403459D01*
X196533858Y-101547534D01*
X196533861Y-101547544D01*
X196590078Y-101683266D01*
X196590083Y-101683275D01*
X196671698Y-101805419D01*
X196671701Y-101805423D01*
X196775576Y-101909298D01*
X196775580Y-101909301D01*
X196897724Y-101990916D01*
X196897730Y-101990919D01*
X196897731Y-101990920D01*
X197033458Y-102047140D01*
X197177540Y-102075799D01*
X197177544Y-102075800D01*
X197177545Y-102075800D01*
X197324456Y-102075800D01*
X197324457Y-102075799D01*
X197468542Y-102047140D01*
X197604269Y-101990920D01*
X197726420Y-101909301D01*
X197830301Y-101805420D01*
X197911920Y-101683269D01*
X197968140Y-101547542D01*
X197996800Y-101403455D01*
X197996800Y-101256545D01*
X197968140Y-101112458D01*
X197911920Y-100976731D01*
X197911919Y-100976730D01*
X197911916Y-100976724D01*
X197830301Y-100854580D01*
X197830298Y-100854576D01*
X197726423Y-100750701D01*
X197726419Y-100750698D01*
X197604275Y-100669083D01*
X197604266Y-100669078D01*
X197468544Y-100612861D01*
X197468545Y-100612861D01*
X197468542Y-100612860D01*
X197468538Y-100612859D01*
X197468534Y-100612858D01*
X197324459Y-100584200D01*
X197324455Y-100584200D01*
X197177545Y-100584200D01*
X197177540Y-100584200D01*
X197033465Y-100612858D01*
X197033455Y-100612861D01*
X196897733Y-100669078D01*
X196897724Y-100669083D01*
X196775580Y-100750698D01*
X196775576Y-100750701D01*
X196671701Y-100854576D01*
X196671698Y-100854580D01*
X196590083Y-100976724D01*
X196590078Y-100976733D01*
X196533861Y-101112455D01*
X196533858Y-101112465D01*
X196505200Y-101256540D01*
X195964799Y-101256540D01*
X195936140Y-101112458D01*
X195879920Y-100976731D01*
X195879919Y-100976730D01*
X195879916Y-100976724D01*
X195798301Y-100854580D01*
X195798298Y-100854576D01*
X195694423Y-100750701D01*
X195694419Y-100750698D01*
X195572275Y-100669083D01*
X195572266Y-100669078D01*
X195436544Y-100612861D01*
X195436545Y-100612861D01*
X195436542Y-100612860D01*
X195436538Y-100612859D01*
X195436534Y-100612858D01*
X195292459Y-100584200D01*
X195292455Y-100584200D01*
X195145545Y-100584200D01*
X195145540Y-100584200D01*
X195001465Y-100612858D01*
X195001455Y-100612861D01*
X194865733Y-100669078D01*
X194865724Y-100669083D01*
X194743580Y-100750698D01*
X194743576Y-100750701D01*
X194639701Y-100854576D01*
X194639698Y-100854580D01*
X194558083Y-100976724D01*
X194558078Y-100976733D01*
X194501861Y-101112455D01*
X194501858Y-101112465D01*
X194473200Y-101256540D01*
X191000000Y-101256540D01*
X191000000Y-94000000D01*
X189000000Y-94000000D01*
X189000000Y-102500000D01*
X188500000Y-102500000D01*
X180000000Y-102500000D01*
X180000000Y-105000000D01*
X167120492Y-105000000D01*
X167096302Y-104977948D01*
X166915019Y-104865702D01*
X166915017Y-104865701D01*
X166815608Y-104827190D01*
X166716198Y-104788679D01*
X166543456Y-104756387D01*
X166481176Y-104724719D01*
X166445903Y-104664407D01*
X166448837Y-104594599D01*
X166489046Y-104537459D01*
X166553764Y-104511128D01*
X166566233Y-104510499D01*
X167294864Y-104510499D01*
X167294879Y-104510497D01*
X167294882Y-104510497D01*
X167319987Y-104507586D01*
X167319988Y-104507585D01*
X167319991Y-104507585D01*
X167422765Y-104462206D01*
X167502206Y-104382765D01*
X167547585Y-104279991D01*
X167550500Y-104254865D01*
X167550499Y-102500000D01*
X177500000Y-102500000D01*
X179500000Y-102500000D01*
X179500000Y-101499999D01*
X186844722Y-101499999D01*
X186844722Y-101500000D01*
X186863762Y-101656818D01*
X186919780Y-101804523D01*
X187009517Y-101934530D01*
X187127760Y-102039283D01*
X187127762Y-102039284D01*
X187267634Y-102112696D01*
X187421014Y-102150500D01*
X187421015Y-102150500D01*
X187578985Y-102150500D01*
X187732365Y-102112696D01*
X187872240Y-102039283D01*
X187990483Y-101934530D01*
X188080220Y-101804523D01*
X188136237Y-101656818D01*
X188155278Y-101500000D01*
X188147239Y-101433788D01*
X188136237Y-101343181D01*
X188103380Y-101256545D01*
X188080220Y-101195477D01*
X187990483Y-101065470D01*
X187872240Y-100960717D01*
X187872238Y-100960716D01*
X187872237Y-100960715D01*
X187732365Y-100887303D01*
X187578986Y-100849500D01*
X187578985Y-100849500D01*
X187421015Y-100849500D01*
X187421014Y-100849500D01*
X187267634Y-100887303D01*
X187127762Y-100960715D01*
X187009516Y-101065471D01*
X186919781Y-101195475D01*
X186919780Y-101195476D01*
X186863762Y-101343181D01*
X186844722Y-101499999D01*
X179500000Y-101499999D01*
X179500000Y-94000000D01*
X177500000Y-94000000D01*
X177500000Y-102500000D01*
X167550499Y-102500000D01*
X167550499Y-102465136D01*
X167550497Y-102465117D01*
X167547586Y-102440012D01*
X167547585Y-102440010D01*
X167547585Y-102440009D01*
X167502206Y-102337235D01*
X167422765Y-102257794D01*
X167361156Y-102230591D01*
X167319992Y-102212415D01*
X167294865Y-102209500D01*
X165505143Y-102209500D01*
X165505117Y-102209502D01*
X165480012Y-102212413D01*
X165480008Y-102212415D01*
X165377235Y-102257793D01*
X165297794Y-102337234D01*
X165252415Y-102440006D01*
X165252415Y-102440008D01*
X165249500Y-102465131D01*
X165249500Y-104254856D01*
X165249502Y-104254882D01*
X165252413Y-104279987D01*
X165252415Y-104279991D01*
X165297793Y-104382764D01*
X165297794Y-104382765D01*
X165377235Y-104462206D01*
X165480009Y-104507585D01*
X165505135Y-104510500D01*
X166233758Y-104510499D01*
X166300795Y-104530183D01*
X166346550Y-104582987D01*
X166356494Y-104652146D01*
X166327469Y-104715702D01*
X166268691Y-104753476D01*
X166256542Y-104756388D01*
X166200116Y-104766935D01*
X166083802Y-104788679D01*
X166083800Y-104788679D01*
X166083798Y-104788680D01*
X165884982Y-104865701D01*
X165884980Y-104865702D01*
X165703699Y-104977947D01*
X165546127Y-105121593D01*
X165417632Y-105291746D01*
X165322596Y-105482605D01*
X165322596Y-105482607D01*
X165264244Y-105687689D01*
X165246651Y-105877558D01*
X165244571Y-105900000D01*
X156343605Y-105900000D01*
X156374501Y-105877553D01*
X156502553Y-105749501D01*
X156608996Y-105602994D01*
X156691211Y-105441639D01*
X156747171Y-105269409D01*
X156774003Y-105100000D01*
X156775500Y-105090551D01*
X156775500Y-104909448D01*
X156757448Y-104795476D01*
X156747171Y-104730591D01*
X156702985Y-104594599D01*
X156691212Y-104558363D01*
X156691211Y-104558360D01*
X156644942Y-104467554D01*
X156608996Y-104397006D01*
X156563605Y-104334530D01*
X156502558Y-104250505D01*
X156502554Y-104250500D01*
X156374499Y-104122445D01*
X156374494Y-104122441D01*
X156227997Y-104016006D01*
X156227996Y-104016005D01*
X156227994Y-104016004D01*
X156176300Y-103989664D01*
X156066639Y-103933788D01*
X156066636Y-103933787D01*
X155894410Y-103877829D01*
X155860594Y-103872473D01*
X155797459Y-103842544D01*
X155760528Y-103783232D01*
X155761526Y-103713370D01*
X155800136Y-103655137D01*
X155860594Y-103627527D01*
X155868388Y-103626292D01*
X155894409Y-103622171D01*
X156066639Y-103566211D01*
X156227994Y-103483996D01*
X156374501Y-103377553D01*
X156502553Y-103249501D01*
X156608996Y-103102994D01*
X156691211Y-102941639D01*
X156747171Y-102769409D01*
X156761765Y-102677259D01*
X156775500Y-102590551D01*
X156775500Y-102409448D01*
X156759019Y-102305397D01*
X156747171Y-102230591D01*
X156691211Y-102058361D01*
X156691211Y-102058360D01*
X156656846Y-101990916D01*
X156608996Y-101897006D01*
X156595396Y-101878287D01*
X156502558Y-101750505D01*
X156502554Y-101750500D01*
X156374499Y-101622445D01*
X156374494Y-101622441D01*
X156227997Y-101516006D01*
X156227996Y-101516005D01*
X156227994Y-101516004D01*
X156176300Y-101489664D01*
X156066639Y-101433788D01*
X156066636Y-101433787D01*
X155894410Y-101377829D01*
X155860594Y-101372473D01*
X155797459Y-101342544D01*
X155760528Y-101283232D01*
X155761526Y-101213370D01*
X155800136Y-101155137D01*
X155860594Y-101127527D01*
X155868388Y-101126292D01*
X155894409Y-101122171D01*
X156066639Y-101066211D01*
X156227994Y-100983996D01*
X156374501Y-100877553D01*
X156502553Y-100749501D01*
X156608996Y-100602994D01*
X156691211Y-100441639D01*
X156747171Y-100269409D01*
X156761765Y-100177259D01*
X156775500Y-100090551D01*
X156775500Y-99909448D01*
X156759019Y-99805397D01*
X156747171Y-99730591D01*
X156691211Y-99558361D01*
X156691211Y-99558360D01*
X156661472Y-99499996D01*
X166794435Y-99499996D01*
X166794435Y-99500003D01*
X166814630Y-99679249D01*
X166814631Y-99679254D01*
X166874211Y-99849523D01*
X166970184Y-100002262D01*
X167097738Y-100129816D01*
X167250478Y-100225789D01*
X167375137Y-100269409D01*
X167420745Y-100285368D01*
X167420750Y-100285369D01*
X167599996Y-100305565D01*
X167600000Y-100305565D01*
X167600004Y-100305565D01*
X167779249Y-100285369D01*
X167779252Y-100285368D01*
X167779255Y-100285368D01*
X167949522Y-100225789D01*
X168102262Y-100129816D01*
X168229816Y-100002262D01*
X168325789Y-99849522D01*
X168385368Y-99679255D01*
X168398989Y-99558363D01*
X168405565Y-99500003D01*
X168405565Y-99499996D01*
X168385369Y-99320750D01*
X168385368Y-99320745D01*
X168325788Y-99150476D01*
X168286582Y-99088080D01*
X168229816Y-98997738D01*
X168102262Y-98870184D01*
X168061964Y-98844863D01*
X167949523Y-98774211D01*
X167779254Y-98714631D01*
X167779249Y-98714630D01*
X167600004Y-98694435D01*
X167599996Y-98694435D01*
X167420750Y-98714630D01*
X167420745Y-98714631D01*
X167250476Y-98774211D01*
X167097737Y-98870184D01*
X166970184Y-98997737D01*
X166874211Y-99150476D01*
X166814631Y-99320745D01*
X166814630Y-99320750D01*
X166794435Y-99499996D01*
X156661472Y-99499996D01*
X156608996Y-99397006D01*
X156553593Y-99320750D01*
X156502558Y-99250505D01*
X156502554Y-99250500D01*
X156374499Y-99122445D01*
X156374494Y-99122441D01*
X156227997Y-99016006D01*
X156227996Y-99016005D01*
X156227994Y-99016004D01*
X156176300Y-98989664D01*
X156066639Y-98933788D01*
X156066636Y-98933787D01*
X155894410Y-98877829D01*
X155860594Y-98872473D01*
X155797459Y-98842544D01*
X155760528Y-98783232D01*
X155761526Y-98713370D01*
X155800136Y-98655137D01*
X155860594Y-98627527D01*
X155868388Y-98626292D01*
X155894409Y-98622171D01*
X156066639Y-98566211D01*
X156227994Y-98483996D01*
X156374501Y-98377553D01*
X156502553Y-98249501D01*
X156608996Y-98102994D01*
X156610522Y-98099999D01*
X162344722Y-98099999D01*
X162344722Y-98100000D01*
X162363762Y-98256818D01*
X162419780Y-98404523D01*
X162509517Y-98534530D01*
X162627760Y-98639283D01*
X162639860Y-98645633D01*
X162767634Y-98712696D01*
X162921014Y-98750500D01*
X162921015Y-98750500D01*
X163078985Y-98750500D01*
X163232365Y-98712696D01*
X163267158Y-98694435D01*
X163372240Y-98639283D01*
X163490483Y-98534530D01*
X163514317Y-98500000D01*
X168994353Y-98500000D01*
X169014834Y-98642456D01*
X169048772Y-98716768D01*
X169074623Y-98773373D01*
X169168872Y-98882143D01*
X169289947Y-98959953D01*
X169289950Y-98959954D01*
X169289949Y-98959954D01*
X169397107Y-98991417D01*
X169418632Y-98997738D01*
X169428036Y-99000499D01*
X169428038Y-99000500D01*
X169428039Y-99000500D01*
X169571962Y-99000500D01*
X169571962Y-99000499D01*
X169710053Y-98959953D01*
X169831128Y-98882143D01*
X169925377Y-98773373D01*
X169985165Y-98642457D01*
X170005647Y-98500000D01*
X169985165Y-98357543D01*
X169925377Y-98226627D01*
X169831128Y-98117857D01*
X169710053Y-98040047D01*
X169710051Y-98040046D01*
X169710049Y-98040045D01*
X169710050Y-98040045D01*
X169571963Y-97999500D01*
X169571961Y-97999500D01*
X169428039Y-97999500D01*
X169428036Y-97999500D01*
X169289949Y-98040045D01*
X169168873Y-98117856D01*
X169074623Y-98226626D01*
X169074622Y-98226628D01*
X169014834Y-98357543D01*
X168994353Y-98500000D01*
X163514317Y-98500000D01*
X163580220Y-98404523D01*
X163636237Y-98256818D01*
X163655278Y-98100000D01*
X163647999Y-98040047D01*
X163636237Y-97943181D01*
X163614992Y-97887164D01*
X163580220Y-97795477D01*
X163490483Y-97665470D01*
X163372240Y-97560717D01*
X163372238Y-97560716D01*
X163372237Y-97560715D01*
X163232365Y-97487303D01*
X163078986Y-97449500D01*
X163078985Y-97449500D01*
X162921015Y-97449500D01*
X162921014Y-97449500D01*
X162767634Y-97487303D01*
X162627762Y-97560715D01*
X162509516Y-97665471D01*
X162419781Y-97795475D01*
X162419780Y-97795476D01*
X162363762Y-97943181D01*
X162344722Y-98099999D01*
X156610522Y-98099999D01*
X156691211Y-97941639D01*
X156747171Y-97769409D01*
X156763633Y-97665470D01*
X156775500Y-97590551D01*
X156775500Y-97409448D01*
X156759019Y-97305397D01*
X156747171Y-97230591D01*
X156698481Y-97080736D01*
X156691212Y-97058363D01*
X156691211Y-97058360D01*
X156645132Y-96967927D01*
X156608996Y-96897006D01*
X156595396Y-96878287D01*
X156502558Y-96750505D01*
X156502554Y-96750500D01*
X156374499Y-96622445D01*
X156374494Y-96622441D01*
X156227997Y-96516006D01*
X156227996Y-96516005D01*
X156227994Y-96516004D01*
X156196585Y-96500000D01*
X167794355Y-96500000D01*
X167814859Y-96668869D01*
X167814860Y-96668874D01*
X167875182Y-96827931D01*
X167922859Y-96897002D01*
X167971817Y-96967929D01*
X168073893Y-97058360D01*
X168099150Y-97080736D01*
X168249773Y-97159789D01*
X168249775Y-97159790D01*
X168414944Y-97200500D01*
X168585056Y-97200500D01*
X168750225Y-97159790D01*
X168829692Y-97118081D01*
X168900849Y-97080736D01*
X168900850Y-97080734D01*
X168900852Y-97080734D01*
X169028183Y-96967929D01*
X169124818Y-96827930D01*
X169185140Y-96668872D01*
X169205645Y-96500000D01*
X169185140Y-96331128D01*
X169124818Y-96172070D01*
X169028183Y-96032071D01*
X168900852Y-95919266D01*
X168900849Y-95919263D01*
X168750226Y-95840210D01*
X168585056Y-95799500D01*
X168414944Y-95799500D01*
X168249773Y-95840210D01*
X168099150Y-95919263D01*
X167971816Y-96032072D01*
X167875182Y-96172068D01*
X167814860Y-96331125D01*
X167814859Y-96331130D01*
X167794355Y-96500000D01*
X156196585Y-96500000D01*
X156176300Y-96489664D01*
X156066639Y-96433788D01*
X156066636Y-96433787D01*
X155894410Y-96377829D01*
X155715551Y-96349500D01*
X155715546Y-96349500D01*
X155284454Y-96349500D01*
X155284449Y-96349500D01*
X155105589Y-96377829D01*
X154933363Y-96433787D01*
X154933360Y-96433788D01*
X154772002Y-96516006D01*
X154625505Y-96622441D01*
X154625500Y-96622445D01*
X154497445Y-96750500D01*
X154497441Y-96750505D01*
X154391006Y-96897002D01*
X154308788Y-97058360D01*
X154308787Y-97058363D01*
X154252829Y-97230589D01*
X154224500Y-97409448D01*
X154224500Y-97590551D01*
X154252829Y-97769410D01*
X154308787Y-97941636D01*
X154308788Y-97941639D01*
X154358930Y-98040045D01*
X154389478Y-98100000D01*
X154391006Y-98102997D01*
X154497441Y-98249494D01*
X154497445Y-98249499D01*
X154625500Y-98377554D01*
X154625505Y-98377558D01*
X154753287Y-98470396D01*
X154772006Y-98483996D01*
X154871180Y-98534528D01*
X154933360Y-98566211D01*
X154933363Y-98566212D01*
X155019476Y-98594191D01*
X155105591Y-98622171D01*
X155130291Y-98626083D01*
X155139406Y-98627527D01*
X155202540Y-98657457D01*
X155239471Y-98716768D01*
X155238473Y-98786631D01*
X155199863Y-98844863D01*
X155139406Y-98872473D01*
X155105589Y-98877829D01*
X154933363Y-98933787D01*
X154933360Y-98933788D01*
X154772002Y-99016006D01*
X154625505Y-99122441D01*
X154625500Y-99122445D01*
X154497445Y-99250500D01*
X154497441Y-99250505D01*
X154391006Y-99397002D01*
X154308788Y-99558360D01*
X154308787Y-99558363D01*
X154252829Y-99730589D01*
X154224500Y-99909448D01*
X154224500Y-100090551D01*
X154252829Y-100269410D01*
X154308787Y-100441636D01*
X154308788Y-100441639D01*
X154391006Y-100602997D01*
X154497441Y-100749494D01*
X154497445Y-100749499D01*
X154625500Y-100877554D01*
X154625505Y-100877558D01*
X154739962Y-100960715D01*
X154772006Y-100983996D01*
X154877484Y-101037740D01*
X154933360Y-101066211D01*
X154933363Y-101066212D01*
X155019476Y-101094191D01*
X155105591Y-101122171D01*
X155130291Y-101126083D01*
X155139406Y-101127527D01*
X155202540Y-101157457D01*
X155239471Y-101216768D01*
X155238473Y-101286631D01*
X155199863Y-101344863D01*
X155139406Y-101372473D01*
X155105589Y-101377829D01*
X154933363Y-101433787D01*
X154933360Y-101433788D01*
X154772002Y-101516006D01*
X154625505Y-101622441D01*
X154625500Y-101622445D01*
X154497445Y-101750500D01*
X154497441Y-101750505D01*
X154391006Y-101897002D01*
X154308788Y-102058360D01*
X154308787Y-102058363D01*
X154252829Y-102230589D01*
X154224500Y-102409448D01*
X154224500Y-102590551D01*
X154252829Y-102769410D01*
X154308787Y-102941636D01*
X154308788Y-102941639D01*
X154391006Y-103102997D01*
X154497441Y-103249494D01*
X154497445Y-103249499D01*
X154625500Y-103377554D01*
X154625505Y-103377558D01*
X154746507Y-103465470D01*
X154772006Y-103483996D01*
X154877484Y-103537740D01*
X154933360Y-103566211D01*
X154933363Y-103566212D01*
X155019476Y-103594191D01*
X155105591Y-103622171D01*
X155130291Y-103626083D01*
X155139406Y-103627527D01*
X155202540Y-103657457D01*
X155239471Y-103716768D01*
X155238473Y-103786631D01*
X155199863Y-103844863D01*
X155139406Y-103872473D01*
X155105589Y-103877829D01*
X154933363Y-103933787D01*
X154933360Y-103933788D01*
X154772002Y-104016006D01*
X154625505Y-104122441D01*
X154625500Y-104122445D01*
X154497445Y-104250500D01*
X154497441Y-104250505D01*
X154391006Y-104397002D01*
X154308788Y-104558360D01*
X154308787Y-104558363D01*
X154252829Y-104730589D01*
X154224500Y-104909448D01*
X154224500Y-105090551D01*
X154252829Y-105269410D01*
X154308787Y-105441636D01*
X154308788Y-105441639D01*
X154391006Y-105602997D01*
X154497441Y-105749494D01*
X154497445Y-105749499D01*
X154625500Y-105877554D01*
X154625505Y-105877558D01*
X154703985Y-105934576D01*
X154772006Y-105983996D01*
X154857511Y-106027563D01*
X154908307Y-106075538D01*
X154925102Y-106143359D01*
X154902565Y-106209494D01*
X154857511Y-106248533D01*
X154688303Y-106334749D01*
X155391003Y-107037449D01*
X155316657Y-107057370D01*
X155208343Y-107119905D01*
X155119905Y-107208343D01*
X155057370Y-107316657D01*
X155037449Y-107391001D01*
X154312330Y-106665882D01*
X154312329Y-106665883D01*
X154220379Y-106792442D01*
X154123904Y-106981782D01*
X154058242Y-107183869D01*
X154058242Y-107183872D01*
X154025000Y-107393753D01*
X151000000Y-107393753D01*
X151000000Y-93250000D01*
X161152970Y-93250000D01*
X162095854Y-93250000D01*
X162057370Y-93316657D01*
X162025000Y-93437465D01*
X162025000Y-93562535D01*
X162057370Y-93683343D01*
X162095854Y-93750000D01*
X161152970Y-93750000D01*
X161183242Y-93941127D01*
X161183242Y-93941130D01*
X161248904Y-94143217D01*
X161345379Y-94332557D01*
X161470272Y-94504459D01*
X161470276Y-94504464D01*
X161620535Y-94654723D01*
X161620540Y-94654727D01*
X161792442Y-94779620D01*
X161981782Y-94876095D01*
X162183871Y-94941757D01*
X162250000Y-94952231D01*
X162250000Y-93904145D01*
X162316657Y-93942630D01*
X162437465Y-93975000D01*
X162562535Y-93975000D01*
X162683343Y-93942630D01*
X162750000Y-93904145D01*
X162750000Y-94952230D01*
X162816126Y-94941757D01*
X162816129Y-94941757D01*
X163018217Y-94876095D01*
X163207557Y-94779620D01*
X163379459Y-94654727D01*
X163379464Y-94654723D01*
X163529723Y-94504464D01*
X163529727Y-94504459D01*
X163654620Y-94332558D01*
X163751466Y-94142488D01*
X163799440Y-94091692D01*
X163867261Y-94074897D01*
X163933396Y-94097434D01*
X163972435Y-94142488D01*
X164016002Y-94227992D01*
X164016003Y-94227993D01*
X164122441Y-94374494D01*
X164122445Y-94374499D01*
X164250500Y-94502554D01*
X164250505Y-94502558D01*
X164378287Y-94595396D01*
X164397006Y-94608996D01*
X164486750Y-94654723D01*
X164558360Y-94691211D01*
X164558363Y-94691212D01*
X164644476Y-94719191D01*
X164730591Y-94747171D01*
X164813429Y-94760291D01*
X164909449Y-94775500D01*
X164909454Y-94775500D01*
X165090551Y-94775500D01*
X165177259Y-94761765D01*
X165269409Y-94747171D01*
X165441639Y-94691211D01*
X165602994Y-94608996D01*
X165749501Y-94502553D01*
X165877553Y-94374501D01*
X165983996Y-94227994D01*
X166066211Y-94066639D01*
X166122171Y-93894409D01*
X166127527Y-93860594D01*
X166157456Y-93797459D01*
X166216768Y-93760528D01*
X166286630Y-93761526D01*
X166344863Y-93800136D01*
X166372473Y-93860594D01*
X166377829Y-93894410D01*
X166433787Y-94066636D01*
X166433788Y-94066639D01*
X166489664Y-94176300D01*
X166516003Y-94227993D01*
X166516006Y-94227997D01*
X166622441Y-94374494D01*
X166622445Y-94374499D01*
X166750500Y-94502554D01*
X166750505Y-94502558D01*
X166878287Y-94595396D01*
X166897006Y-94608996D01*
X166986750Y-94654723D01*
X167058360Y-94691211D01*
X167058363Y-94691212D01*
X167144476Y-94719191D01*
X167230591Y-94747171D01*
X167313429Y-94760291D01*
X167409449Y-94775500D01*
X167409454Y-94775500D01*
X167590551Y-94775500D01*
X167677259Y-94761765D01*
X167769409Y-94747171D01*
X167941639Y-94691211D01*
X168102994Y-94608996D01*
X168249501Y-94502553D01*
X168377553Y-94374501D01*
X168483996Y-94227994D01*
X168566211Y-94066639D01*
X168595986Y-93975000D01*
X168607569Y-93939351D01*
X168647006Y-93881676D01*
X168711364Y-93854477D01*
X168780211Y-93866391D01*
X168831687Y-93913635D01*
X168849500Y-93977669D01*
X168849500Y-94268102D01*
X168855126Y-94314954D01*
X168860122Y-94356561D01*
X168860122Y-94356563D01*
X168860123Y-94356564D01*
X168877722Y-94401192D01*
X168915639Y-94497343D01*
X169007077Y-94617922D01*
X169127656Y-94709360D01*
X169127657Y-94709360D01*
X169127658Y-94709361D01*
X169268436Y-94764877D01*
X169356898Y-94775500D01*
X169356903Y-94775500D01*
X170643097Y-94775500D01*
X170643102Y-94775500D01*
X170731564Y-94764877D01*
X170872342Y-94709361D01*
X170992922Y-94617922D01*
X171084361Y-94497342D01*
X171139877Y-94356564D01*
X171150500Y-94268102D01*
X171150500Y-93500000D01*
X180000000Y-93500000D01*
X184376345Y-93500000D01*
X184443384Y-93519685D01*
X184489139Y-93572489D01*
X184499083Y-93641647D01*
X184492288Y-93667966D01*
X184486457Y-93683343D01*
X184463762Y-93743182D01*
X184444722Y-93899999D01*
X184444722Y-93900000D01*
X184463762Y-94056818D01*
X184519780Y-94204523D01*
X184609517Y-94334530D01*
X184727760Y-94439283D01*
X184727762Y-94439284D01*
X184867634Y-94512696D01*
X185021014Y-94550500D01*
X185021015Y-94550500D01*
X185178985Y-94550500D01*
X185332365Y-94512696D01*
X185472240Y-94439283D01*
X185590483Y-94334530D01*
X185680220Y-94204523D01*
X185736237Y-94056818D01*
X185755278Y-93900000D01*
X185736237Y-93743182D01*
X185707712Y-93667969D01*
X185702346Y-93598308D01*
X185735493Y-93536802D01*
X185796631Y-93502981D01*
X185823655Y-93500000D01*
X188500000Y-93500000D01*
X188500000Y-91500000D01*
X180000000Y-91500000D01*
X180000000Y-93500000D01*
X171150500Y-93500000D01*
X171150500Y-92731898D01*
X171139877Y-92643436D01*
X171084361Y-92502658D01*
X171084360Y-92502657D01*
X171084360Y-92502656D01*
X170992922Y-92382077D01*
X170872343Y-92290639D01*
X170731561Y-92235122D01*
X170685926Y-92229642D01*
X170643102Y-92224500D01*
X169356898Y-92224500D01*
X169317853Y-92229188D01*
X169268438Y-92235122D01*
X169127656Y-92290639D01*
X169007077Y-92382077D01*
X168915639Y-92502656D01*
X168860122Y-92643438D01*
X168857240Y-92667442D01*
X168849500Y-92731898D01*
X168849500Y-92731903D01*
X168849500Y-93022330D01*
X168829815Y-93089369D01*
X168777011Y-93135124D01*
X168707853Y-93145068D01*
X168644297Y-93116043D01*
X168607569Y-93060648D01*
X168566212Y-92933363D01*
X168566211Y-92933360D01*
X168527192Y-92856782D01*
X168483996Y-92772006D01*
X168454856Y-92731898D01*
X168377558Y-92625505D01*
X168377554Y-92625500D01*
X168249499Y-92497445D01*
X168249494Y-92497441D01*
X168102997Y-92391006D01*
X168102996Y-92391005D01*
X168102994Y-92391004D01*
X168051300Y-92364664D01*
X167941639Y-92308788D01*
X167941636Y-92308787D01*
X167769410Y-92252829D01*
X167590551Y-92224500D01*
X167590546Y-92224500D01*
X167409454Y-92224500D01*
X167409449Y-92224500D01*
X167230589Y-92252829D01*
X167058363Y-92308787D01*
X167058360Y-92308788D01*
X166897002Y-92391006D01*
X166750505Y-92497441D01*
X166750500Y-92497445D01*
X166622445Y-92625500D01*
X166622441Y-92625505D01*
X166516006Y-92772002D01*
X166433788Y-92933360D01*
X166433787Y-92933363D01*
X166377829Y-93105589D01*
X166372473Y-93139406D01*
X166342543Y-93202540D01*
X166283232Y-93239471D01*
X166213369Y-93238473D01*
X166155137Y-93199863D01*
X166127527Y-93139406D01*
X166123826Y-93116043D01*
X166122171Y-93105591D01*
X166066211Y-92933361D01*
X166066211Y-92933360D01*
X166027192Y-92856782D01*
X165983996Y-92772006D01*
X165954856Y-92731898D01*
X165877558Y-92625505D01*
X165877554Y-92625500D01*
X165749499Y-92497445D01*
X165749494Y-92497441D01*
X165602997Y-92391006D01*
X165602996Y-92391005D01*
X165602994Y-92391004D01*
X165551300Y-92364664D01*
X165441639Y-92308788D01*
X165441636Y-92308787D01*
X165269410Y-92252829D01*
X165090551Y-92224500D01*
X165090546Y-92224500D01*
X164909454Y-92224500D01*
X164909449Y-92224500D01*
X164730589Y-92252829D01*
X164558363Y-92308787D01*
X164558360Y-92308788D01*
X164397002Y-92391006D01*
X164250505Y-92497441D01*
X164250500Y-92497445D01*
X164122445Y-92625500D01*
X164122441Y-92625505D01*
X164016004Y-92772004D01*
X163972435Y-92857512D01*
X163924460Y-92908307D01*
X163856639Y-92925102D01*
X163790504Y-92902564D01*
X163751466Y-92857511D01*
X163654620Y-92667442D01*
X163529727Y-92495540D01*
X163529723Y-92495535D01*
X163379464Y-92345276D01*
X163379459Y-92345272D01*
X163207557Y-92220379D01*
X163018215Y-92123903D01*
X162816124Y-92058241D01*
X162750000Y-92047768D01*
X162750000Y-93095854D01*
X162683343Y-93057370D01*
X162562535Y-93025000D01*
X162437465Y-93025000D01*
X162316657Y-93057370D01*
X162250000Y-93095854D01*
X162250000Y-92047768D01*
X162249999Y-92047768D01*
X162183875Y-92058241D01*
X161981784Y-92123903D01*
X161792442Y-92220379D01*
X161620540Y-92345272D01*
X161620535Y-92345276D01*
X161470276Y-92495535D01*
X161470272Y-92495540D01*
X161345379Y-92667442D01*
X161248904Y-92856782D01*
X161183242Y-93058869D01*
X161183242Y-93058872D01*
X161152970Y-93250000D01*
X151000000Y-93250000D01*
X151000000Y-89891347D01*
X165681175Y-89891347D01*
X165701679Y-90060216D01*
X165701680Y-90060221D01*
X165762002Y-90219278D01*
X165807622Y-90285369D01*
X165858637Y-90359276D01*
X165964325Y-90452907D01*
X165985970Y-90472083D01*
X166136593Y-90551136D01*
X166136595Y-90551137D01*
X166301764Y-90591847D01*
X166471876Y-90591847D01*
X166637045Y-90551137D01*
X166716512Y-90509428D01*
X166787669Y-90472083D01*
X166787670Y-90472081D01*
X166787672Y-90472081D01*
X166915003Y-90359276D01*
X167011638Y-90219277D01*
X167071960Y-90060219D01*
X167092465Y-89891347D01*
X167071960Y-89722475D01*
X167011638Y-89563417D01*
X166967861Y-89499996D01*
X169994435Y-89499996D01*
X169994435Y-89500003D01*
X170014630Y-89679249D01*
X170014631Y-89679254D01*
X170074211Y-89849523D01*
X170100491Y-89891347D01*
X170170184Y-90002262D01*
X170297738Y-90129816D01*
X170388080Y-90186582D01*
X170440115Y-90219278D01*
X170450478Y-90225789D01*
X170620745Y-90285368D01*
X170620750Y-90285369D01*
X170799996Y-90305565D01*
X170800000Y-90305565D01*
X170800004Y-90305565D01*
X170979249Y-90285369D01*
X170979252Y-90285368D01*
X170979255Y-90285368D01*
X171149522Y-90225789D01*
X171302262Y-90129816D01*
X171429816Y-90002262D01*
X171525789Y-89849522D01*
X171585368Y-89679255D01*
X171605565Y-89500000D01*
X171596936Y-89423419D01*
X171585369Y-89320750D01*
X171585368Y-89320745D01*
X171554160Y-89231557D01*
X171525789Y-89150478D01*
X171429816Y-88997738D01*
X171302262Y-88870184D01*
X171149523Y-88774211D01*
X170979254Y-88714631D01*
X170979249Y-88714630D01*
X170800004Y-88694435D01*
X170799996Y-88694435D01*
X170620750Y-88714630D01*
X170620745Y-88714631D01*
X170450476Y-88774211D01*
X170297737Y-88870184D01*
X170170184Y-88997737D01*
X170074211Y-89150476D01*
X170014631Y-89320745D01*
X170014630Y-89320750D01*
X169994435Y-89499996D01*
X166967861Y-89499996D01*
X166915003Y-89423418D01*
X166820136Y-89339373D01*
X166787669Y-89310610D01*
X166637046Y-89231557D01*
X166471876Y-89190847D01*
X166301764Y-89190847D01*
X166136593Y-89231557D01*
X165985970Y-89310610D01*
X165858636Y-89423419D01*
X165762002Y-89563415D01*
X165701680Y-89722472D01*
X165701679Y-89722477D01*
X165681175Y-89891347D01*
X151000000Y-89891347D01*
X151000000Y-86500000D01*
X171294355Y-86500000D01*
X171314859Y-86668869D01*
X171314860Y-86668874D01*
X171375182Y-86827931D01*
X171437475Y-86918177D01*
X171471817Y-86967929D01*
X171577505Y-87061560D01*
X171599150Y-87080736D01*
X171749773Y-87159789D01*
X171749775Y-87159790D01*
X171914944Y-87200500D01*
X172085056Y-87200500D01*
X172250225Y-87159790D01*
X172329692Y-87118081D01*
X172400849Y-87080736D01*
X172400850Y-87080734D01*
X172400852Y-87080734D01*
X172528183Y-86967929D01*
X172624818Y-86827930D01*
X172670709Y-86706922D01*
X172712886Y-86651220D01*
X172778484Y-86627162D01*
X172846674Y-86642388D01*
X172895808Y-86692064D01*
X172909871Y-86737008D01*
X172914631Y-86779251D01*
X172914631Y-86779254D01*
X172974211Y-86949523D01*
X173056657Y-87080734D01*
X173070184Y-87102262D01*
X173197738Y-87229816D01*
X173350478Y-87325789D01*
X173520745Y-87385368D01*
X173520750Y-87385369D01*
X173699996Y-87405565D01*
X173700000Y-87405565D01*
X173700004Y-87405565D01*
X173879249Y-87385369D01*
X173879252Y-87385368D01*
X173879255Y-87385368D01*
X174049522Y-87325789D01*
X174202262Y-87229816D01*
X174329816Y-87102262D01*
X174425789Y-86949522D01*
X174485368Y-86779255D01*
X174485368Y-86779252D01*
X174485369Y-86779249D01*
X174505565Y-86600003D01*
X174505565Y-86599996D01*
X174485369Y-86420750D01*
X174485368Y-86420745D01*
X174454010Y-86331130D01*
X174425789Y-86250478D01*
X174329816Y-86097738D01*
X174202262Y-85970184D01*
X174121222Y-85919263D01*
X174049523Y-85874211D01*
X173879254Y-85814631D01*
X173879249Y-85814630D01*
X173700004Y-85794435D01*
X173699996Y-85794435D01*
X173520750Y-85814630D01*
X173520745Y-85814631D01*
X173350476Y-85874211D01*
X173197737Y-85970184D01*
X173070184Y-86097737D01*
X172974209Y-86250480D01*
X172928268Y-86381771D01*
X172887546Y-86438547D01*
X172822594Y-86464294D01*
X172754032Y-86450838D01*
X172703629Y-86402450D01*
X172688131Y-86355762D01*
X172685140Y-86331131D01*
X172685139Y-86331125D01*
X172624817Y-86172068D01*
X172573509Y-86097737D01*
X172528183Y-86032071D01*
X172400852Y-85919266D01*
X172400849Y-85919263D01*
X172250226Y-85840210D01*
X172085056Y-85799500D01*
X171914944Y-85799500D01*
X171749773Y-85840210D01*
X171599150Y-85919263D01*
X171471816Y-86032072D01*
X171375182Y-86172068D01*
X171314860Y-86331125D01*
X171314859Y-86331130D01*
X171294355Y-86500000D01*
X151000000Y-86500000D01*
X151000000Y-85399999D01*
X190479571Y-85399999D01*
X190479571Y-85400000D01*
X190499244Y-85612310D01*
X190557596Y-85817392D01*
X190557596Y-85817394D01*
X190652632Y-86008253D01*
X190720208Y-86097737D01*
X190781128Y-86178407D01*
X190938698Y-86322052D01*
X191119981Y-86434298D01*
X191318802Y-86511321D01*
X191528390Y-86550500D01*
X191528392Y-86550500D01*
X191741608Y-86550500D01*
X191741610Y-86550500D01*
X191951198Y-86511321D01*
X192150019Y-86434298D01*
X192331302Y-86322052D01*
X192488872Y-86178407D01*
X192617366Y-86008255D01*
X192661677Y-85919266D01*
X192712403Y-85817394D01*
X192712403Y-85817393D01*
X192712405Y-85817389D01*
X192770756Y-85612310D01*
X192777029Y-85544605D01*
X192802814Y-85479669D01*
X192859614Y-85438981D01*
X192929395Y-85435461D01*
X192990002Y-85470225D01*
X193022193Y-85532238D01*
X193024500Y-85556047D01*
X193024500Y-86294856D01*
X193024502Y-86294882D01*
X193027413Y-86319987D01*
X193027415Y-86319991D01*
X193072793Y-86422764D01*
X193072794Y-86422765D01*
X193152235Y-86502206D01*
X193255009Y-86547585D01*
X193280135Y-86550500D01*
X195069864Y-86550499D01*
X195069879Y-86550497D01*
X195069882Y-86550497D01*
X195094987Y-86547586D01*
X195094988Y-86547585D01*
X195094991Y-86547585D01*
X195197765Y-86502206D01*
X195277206Y-86422765D01*
X195322585Y-86319991D01*
X195325500Y-86294865D01*
X195325499Y-84505136D01*
X195325497Y-84505117D01*
X195322586Y-84480012D01*
X195322585Y-84480010D01*
X195322585Y-84480009D01*
X195277206Y-84377235D01*
X195197765Y-84297794D01*
X195177124Y-84288680D01*
X195094992Y-84252415D01*
X195069865Y-84249500D01*
X193280143Y-84249500D01*
X193280117Y-84249502D01*
X193255012Y-84252413D01*
X193255008Y-84252415D01*
X193152235Y-84297793D01*
X193072794Y-84377234D01*
X193027415Y-84480006D01*
X193027415Y-84480008D01*
X193024500Y-84505131D01*
X193024500Y-85243951D01*
X193004815Y-85310990D01*
X192952011Y-85356745D01*
X192882853Y-85366689D01*
X192819297Y-85337664D01*
X192781523Y-85278886D01*
X192777029Y-85255391D01*
X192770756Y-85187689D01*
X192756273Y-85136789D01*
X192712405Y-84982611D01*
X192712403Y-84982606D01*
X192712403Y-84982605D01*
X192617367Y-84791746D01*
X192488872Y-84621593D01*
X192361133Y-84505143D01*
X192331302Y-84477948D01*
X192150019Y-84365702D01*
X192150017Y-84365701D01*
X192050608Y-84327190D01*
X191951198Y-84288679D01*
X191741610Y-84249500D01*
X191528390Y-84249500D01*
X191318802Y-84288679D01*
X191318799Y-84288679D01*
X191318799Y-84288680D01*
X191119982Y-84365701D01*
X191119980Y-84365702D01*
X190938699Y-84477947D01*
X190781127Y-84621593D01*
X190652632Y-84791746D01*
X190557596Y-84982605D01*
X190557596Y-84982607D01*
X190499244Y-85187689D01*
X190479571Y-85399999D01*
X151000000Y-85399999D01*
X151000000Y-83500000D01*
X161794355Y-83500000D01*
X161814859Y-83668869D01*
X161814860Y-83668874D01*
X161875182Y-83827931D01*
X161937475Y-83918177D01*
X161971817Y-83967929D01*
X162077505Y-84061560D01*
X162099150Y-84080736D01*
X162249773Y-84159789D01*
X162249775Y-84159790D01*
X162414944Y-84200500D01*
X162585056Y-84200500D01*
X162750225Y-84159790D01*
X162829692Y-84118081D01*
X162900849Y-84080736D01*
X162900850Y-84080734D01*
X162900852Y-84080734D01*
X163028183Y-83967929D01*
X163124818Y-83827930D01*
X163185140Y-83668872D01*
X163205645Y-83500000D01*
X163185140Y-83331128D01*
X163124818Y-83172070D01*
X163028183Y-83032071D01*
X162900852Y-82919266D01*
X162900849Y-82919263D01*
X162750226Y-82840210D01*
X162585056Y-82799500D01*
X162414944Y-82799500D01*
X162249773Y-82840210D01*
X162099150Y-82919263D01*
X161971816Y-83032072D01*
X161875182Y-83172068D01*
X161814860Y-83331125D01*
X161814859Y-83331130D01*
X161794355Y-83500000D01*
X151000000Y-83500000D01*
X151000000Y-81500000D01*
X161794355Y-81500000D01*
X161814859Y-81668869D01*
X161814860Y-81668874D01*
X161875182Y-81827931D01*
X161937475Y-81918177D01*
X161971817Y-81967929D01*
X162077505Y-82061560D01*
X162099150Y-82080736D01*
X162249773Y-82159789D01*
X162249775Y-82159790D01*
X162414944Y-82200500D01*
X162585056Y-82200500D01*
X162750225Y-82159790D01*
X162829692Y-82118081D01*
X162900849Y-82080736D01*
X162900850Y-82080734D01*
X162900852Y-82080734D01*
X163028183Y-81967929D01*
X163124818Y-81827930D01*
X163185140Y-81668872D01*
X163205645Y-81500000D01*
X163185140Y-81331128D01*
X163124818Y-81172070D01*
X163028183Y-81032071D01*
X162900852Y-80919266D01*
X162900849Y-80919263D01*
X162750226Y-80840210D01*
X162585056Y-80799500D01*
X162414944Y-80799500D01*
X162249773Y-80840210D01*
X162099150Y-80919263D01*
X161971816Y-81032072D01*
X161875182Y-81172068D01*
X161814860Y-81331125D01*
X161814859Y-81331130D01*
X161794355Y-81500000D01*
X151000000Y-81500000D01*
X151000000Y-78878711D01*
X153149500Y-78878711D01*
X153149500Y-79121288D01*
X153181161Y-79361785D01*
X153243947Y-79596104D01*
X153336773Y-79820205D01*
X153336776Y-79820212D01*
X153458064Y-80030289D01*
X153458066Y-80030292D01*
X153458067Y-80030293D01*
X153605733Y-80222736D01*
X153605739Y-80222743D01*
X153777256Y-80394260D01*
X153777262Y-80394265D01*
X153969711Y-80541936D01*
X154179788Y-80663224D01*
X154403900Y-80756054D01*
X154638211Y-80818838D01*
X154818586Y-80842584D01*
X154878711Y-80850500D01*
X154878712Y-80850500D01*
X155121289Y-80850500D01*
X155169388Y-80844167D01*
X155361789Y-80818838D01*
X155596100Y-80756054D01*
X155820212Y-80663224D01*
X156030289Y-80541936D01*
X156222738Y-80394265D01*
X156347003Y-80270000D01*
X164362359Y-80270000D01*
X164382872Y-80478284D01*
X164386419Y-80489976D01*
X164443628Y-80678569D01*
X164535527Y-80850500D01*
X164542291Y-80863153D01*
X164675063Y-81024936D01*
X164836846Y-81157708D01*
X164836850Y-81157711D01*
X165021431Y-81256372D01*
X165221714Y-81317127D01*
X165430000Y-81337641D01*
X165638286Y-81317127D01*
X165838569Y-81256372D01*
X166023150Y-81157711D01*
X166184936Y-81024936D01*
X166317711Y-80863150D01*
X166416372Y-80678569D01*
X166477127Y-80478286D01*
X166477127Y-80478276D01*
X166477335Y-80477239D01*
X166477595Y-80476741D01*
X166478895Y-80472457D01*
X166479707Y-80472703D01*
X166509719Y-80415328D01*
X166570434Y-80380752D01*
X166640203Y-80384490D01*
X166696876Y-80425355D01*
X166720290Y-80484862D01*
X166721486Y-80484652D01*
X166722426Y-80489986D01*
X166779575Y-80703270D01*
X166779580Y-80703284D01*
X166872898Y-80903405D01*
X166872901Y-80903411D01*
X166918258Y-80968187D01*
X166918259Y-80968188D01*
X167589000Y-80297447D01*
X167589000Y-80320160D01*
X167614964Y-80417061D01*
X167665124Y-80503940D01*
X167736060Y-80574876D01*
X167822939Y-80625036D01*
X167919840Y-80651000D01*
X167942553Y-80651000D01*
X167271810Y-81321740D01*
X167336590Y-81367099D01*
X167336592Y-81367100D01*
X167536715Y-81460419D01*
X167536729Y-81460424D01*
X167750013Y-81517573D01*
X167750023Y-81517575D01*
X167969999Y-81536821D01*
X167970001Y-81536821D01*
X168189976Y-81517575D01*
X168189986Y-81517573D01*
X168403270Y-81460424D01*
X168403284Y-81460419D01*
X168603407Y-81367100D01*
X168603417Y-81367094D01*
X168668188Y-81321741D01*
X167997448Y-80651000D01*
X168020160Y-80651000D01*
X168117061Y-80625036D01*
X168203940Y-80574876D01*
X168274876Y-80503940D01*
X168325036Y-80417061D01*
X168351000Y-80320160D01*
X168351000Y-80297447D01*
X169021741Y-80968188D01*
X169067094Y-80903417D01*
X169067100Y-80903407D01*
X169160419Y-80703284D01*
X169160424Y-80703270D01*
X169217573Y-80489986D01*
X169217575Y-80489976D01*
X169236821Y-80270000D01*
X169236821Y-80269999D01*
X169217575Y-80050023D01*
X169217573Y-80050013D01*
X169160424Y-79836729D01*
X169160420Y-79836720D01*
X169067096Y-79636586D01*
X169021741Y-79571811D01*
X169021740Y-79571810D01*
X168351000Y-80242551D01*
X168351000Y-80219840D01*
X168325036Y-80122939D01*
X168274876Y-80036060D01*
X168203940Y-79965124D01*
X168117061Y-79914964D01*
X168020160Y-79889000D01*
X167997448Y-79889000D01*
X168386447Y-79500000D01*
X190832359Y-79500000D01*
X190852872Y-79708284D01*
X190852873Y-79708286D01*
X190913628Y-79908569D01*
X190992083Y-80055348D01*
X191012291Y-80093153D01*
X191145063Y-80254936D01*
X191163419Y-80270000D01*
X191306850Y-80387711D01*
X191491431Y-80486372D01*
X191691714Y-80547127D01*
X191900000Y-80567641D01*
X192108286Y-80547127D01*
X192308569Y-80486372D01*
X192493150Y-80387711D01*
X192654936Y-80254936D01*
X192787711Y-80093150D01*
X192886372Y-79908569D01*
X192947127Y-79708286D01*
X192967641Y-79500000D01*
X193372359Y-79500000D01*
X193392872Y-79708284D01*
X193392873Y-79708286D01*
X193453628Y-79908569D01*
X193532083Y-80055348D01*
X193552291Y-80093153D01*
X193685063Y-80254936D01*
X193703419Y-80270000D01*
X193846850Y-80387711D01*
X194031431Y-80486372D01*
X194231714Y-80547127D01*
X194440000Y-80567641D01*
X194648286Y-80547127D01*
X194848569Y-80486372D01*
X195033150Y-80387711D01*
X195194936Y-80254936D01*
X195327711Y-80093150D01*
X195426372Y-79908569D01*
X195487127Y-79708286D01*
X195507641Y-79500000D01*
X195487127Y-79291714D01*
X195426372Y-79091431D01*
X195327711Y-78906850D01*
X195304618Y-78878711D01*
X195194936Y-78745063D01*
X195033153Y-78612291D01*
X195033151Y-78612290D01*
X195033150Y-78612289D01*
X194848569Y-78513628D01*
X194748427Y-78483250D01*
X194648284Y-78452872D01*
X194440000Y-78432359D01*
X194231715Y-78452872D01*
X194031428Y-78513629D01*
X193846846Y-78612291D01*
X193685063Y-78745063D01*
X193552291Y-78906846D01*
X193453629Y-79091428D01*
X193392872Y-79291715D01*
X193372359Y-79500000D01*
X192967641Y-79500000D01*
X192947127Y-79291714D01*
X192886372Y-79091431D01*
X192787711Y-78906850D01*
X192764618Y-78878711D01*
X192654936Y-78745063D01*
X192493153Y-78612291D01*
X192493151Y-78612290D01*
X192493150Y-78612289D01*
X192308569Y-78513628D01*
X192208427Y-78483250D01*
X192108284Y-78452872D01*
X191900000Y-78432359D01*
X191691715Y-78452872D01*
X191491428Y-78513629D01*
X191306846Y-78612291D01*
X191145063Y-78745063D01*
X191012291Y-78906846D01*
X190913629Y-79091428D01*
X190852872Y-79291715D01*
X190832359Y-79500000D01*
X168386447Y-79500000D01*
X168668188Y-79218259D01*
X168668187Y-79218258D01*
X168603411Y-79172901D01*
X168603405Y-79172898D01*
X168403284Y-79079580D01*
X168403270Y-79079575D01*
X168189986Y-79022426D01*
X168189976Y-79022424D01*
X167970001Y-79003179D01*
X167969999Y-79003179D01*
X167750023Y-79022424D01*
X167750013Y-79022426D01*
X167536729Y-79079575D01*
X167536720Y-79079579D01*
X167336590Y-79172901D01*
X167271811Y-79218258D01*
X167942553Y-79889000D01*
X167919840Y-79889000D01*
X167822939Y-79914964D01*
X167736060Y-79965124D01*
X167665124Y-80036060D01*
X167614964Y-80122939D01*
X167589000Y-80219840D01*
X167589000Y-80242553D01*
X166918258Y-79571811D01*
X166872901Y-79636590D01*
X166779579Y-79836720D01*
X166779575Y-79836729D01*
X166722426Y-80050013D01*
X166721486Y-80055348D01*
X166720233Y-80055127D01*
X166697026Y-80114450D01*
X166640434Y-80155427D01*
X166570672Y-80159303D01*
X166509889Y-80124847D01*
X166479650Y-80067313D01*
X166478895Y-80067543D01*
X166477698Y-80063600D01*
X166477383Y-80062999D01*
X166477336Y-80062763D01*
X166477128Y-80061719D01*
X166477127Y-80061715D01*
X166477127Y-80061714D01*
X166416372Y-79861431D01*
X166317711Y-79676850D01*
X166317708Y-79676846D01*
X166184936Y-79515063D01*
X166023153Y-79382291D01*
X166023151Y-79382290D01*
X166023150Y-79382289D01*
X165838569Y-79283628D01*
X165738427Y-79253250D01*
X165638284Y-79222872D01*
X165430000Y-79202359D01*
X165221715Y-79222872D01*
X165021428Y-79283629D01*
X164836846Y-79382291D01*
X164675063Y-79515063D01*
X164542291Y-79676846D01*
X164443629Y-79861428D01*
X164382872Y-80061715D01*
X164362359Y-80270000D01*
X156347003Y-80270000D01*
X156394265Y-80222738D01*
X156541936Y-80030289D01*
X156663224Y-79820212D01*
X156756054Y-79596100D01*
X156818838Y-79361789D01*
X156850500Y-79121288D01*
X156850500Y-78878712D01*
X156818838Y-78638211D01*
X156756054Y-78403900D01*
X156663224Y-78179788D01*
X156541936Y-77969711D01*
X156394265Y-77777262D01*
X156394260Y-77777256D01*
X156222743Y-77605739D01*
X156222736Y-77605733D01*
X156030293Y-77458067D01*
X156030292Y-77458066D01*
X156030289Y-77458064D01*
X155820212Y-77336776D01*
X155820205Y-77336773D01*
X155596104Y-77243947D01*
X155361785Y-77181161D01*
X155121289Y-77149500D01*
X155121288Y-77149500D01*
X154878712Y-77149500D01*
X154878711Y-77149500D01*
X154638214Y-77181161D01*
X154403895Y-77243947D01*
X154179794Y-77336773D01*
X154179785Y-77336777D01*
X153969706Y-77458067D01*
X153777263Y-77605733D01*
X153777256Y-77605739D01*
X153605739Y-77777256D01*
X153605733Y-77777263D01*
X153458067Y-77969706D01*
X153336777Y-78179785D01*
X153336773Y-78179794D01*
X153243947Y-78403895D01*
X153181161Y-78638214D01*
X153149500Y-78878711D01*
X151000000Y-78878711D01*
X151000000Y-78000882D01*
X151000012Y-77999144D01*
X151000425Y-77969706D01*
X151002274Y-77837729D01*
X151003041Y-77825610D01*
X151039277Y-77504005D01*
X151041606Y-77490299D01*
X151097834Y-77243947D01*
X151113427Y-77175627D01*
X151117272Y-77162279D01*
X151223883Y-76857601D01*
X151229196Y-76844777D01*
X151369243Y-76553965D01*
X151375959Y-76541813D01*
X151547693Y-76268501D01*
X151555723Y-76257183D01*
X151756979Y-76004816D01*
X151766228Y-75994467D01*
X151994467Y-75766228D01*
X152004816Y-75756979D01*
X152257183Y-75555723D01*
X152268501Y-75547693D01*
X152541813Y-75375959D01*
X152553965Y-75369243D01*
X152844777Y-75229196D01*
X152857601Y-75223883D01*
X153162279Y-75117272D01*
X153175627Y-75113427D01*
X153393293Y-75063746D01*
X153490299Y-75041606D01*
X153504005Y-75039277D01*
X153825610Y-75003041D01*
X153837729Y-75002274D01*
X153999144Y-75000011D01*
X154000882Y-75000000D01*
X196999118Y-75000000D01*
X197000855Y-75000011D01*
G37*
G04 #@! TD.AperFunction*
M02*
