G04 #@! TF.GenerationSoftware,KiCad,Pcbnew,9.0.0*
G04 #@! TF.CreationDate,2025-04-03T01:17:14-07:00*
G04 #@! TF.ProjectId,SDM25_IMU_STM32,53444d32-355f-4494-9d55-5f53544d3332,rev?*
G04 #@! TF.SameCoordinates,Original*
G04 #@! TF.FileFunction,Copper,L4,Bot*
G04 #@! TF.FilePolarity,Positive*
%FSLAX46Y46*%
G04 Gerber Fmt 4.6, Leading zero omitted, Abs format (unit mm)*
G04 Created by KiCad (PCBNEW 9.0.0) date 2025-04-03 01:17:14*
%MOMM*%
%LPD*%
G01*
G04 APERTURE LIST*
G04 Aperture macros list*
%AMRoundRect*
0 Rectangle with rounded corners*
0 $1 Rounding radius*
0 $2 $3 $4 $5 $6 $7 $8 $9 X,Y pos of 4 corners*
0 Add a 4 corners polygon primitive as box body*
4,1,4,$2,$3,$4,$5,$6,$7,$8,$9,$2,$3,0*
0 Add four circle primitives for the rounded corners*
1,1,$1+$1,$2,$3*
1,1,$1+$1,$4,$5*
1,1,$1+$1,$6,$7*
1,1,$1+$1,$8,$9*
0 Add four rect primitives between the rounded corners*
20,1,$1+$1,$2,$3,$4,$5,0*
20,1,$1+$1,$4,$5,$6,$7,0*
20,1,$1+$1,$6,$7,$8,$9,0*
20,1,$1+$1,$8,$9,$2,$3,0*%
G04 Aperture macros list end*
G04 #@! TA.AperFunction,ComponentPad*
%ADD10O,1.200000X1.900000*%
G04 #@! TD*
G04 #@! TA.AperFunction,ComponentPad*
%ADD11C,1.450000*%
G04 #@! TD*
G04 #@! TA.AperFunction,ComponentPad*
%ADD12R,1.700000X1.700000*%
G04 #@! TD*
G04 #@! TA.AperFunction,ComponentPad*
%ADD13O,1.700000X1.700000*%
G04 #@! TD*
G04 #@! TA.AperFunction,ComponentPad*
%ADD14RoundRect,0.250000X0.600000X0.725000X-0.600000X0.725000X-0.600000X-0.725000X0.600000X-0.725000X0*%
G04 #@! TD*
G04 #@! TA.AperFunction,ComponentPad*
%ADD15O,1.700000X1.950000*%
G04 #@! TD*
G04 #@! TA.AperFunction,ViaPad*
%ADD16C,0.600000*%
G04 #@! TD*
G04 #@! TA.AperFunction,ViaPad*
%ADD17C,0.700000*%
G04 #@! TD*
G04 #@! TA.AperFunction,Conductor*
%ADD18C,0.500000*%
G04 #@! TD*
G04 #@! TA.AperFunction,Conductor*
%ADD19C,0.300000*%
G04 #@! TD*
G04 #@! TA.AperFunction,Conductor*
%ADD20C,0.750000*%
G04 #@! TD*
G04 APERTURE END LIST*
D10*
X101100000Y-126237500D03*
D11*
X102100000Y-123537500D03*
X107100000Y-123537500D03*
D10*
X108100000Y-126237500D03*
D12*
X111375000Y-102000000D03*
D13*
X108835000Y-102000000D03*
D14*
X96200000Y-123850000D03*
D15*
X93700000Y-123850000D03*
X91200000Y-123850000D03*
X88700000Y-123850000D03*
D12*
X86225000Y-110175000D03*
D13*
X86225000Y-107635000D03*
D16*
X107500000Y-116100000D03*
X97200000Y-115400000D03*
X108300003Y-116100000D03*
X104200000Y-99450000D03*
X101900000Y-85100000D03*
X95000000Y-102000000D03*
X91000000Y-85000000D03*
X84250000Y-102750000D03*
X97000000Y-98000000D03*
X91700000Y-93100000D03*
X91000000Y-83500000D03*
X100550000Y-120150000D03*
X91000000Y-84250000D03*
X96000000Y-103000000D03*
X85000000Y-102750000D03*
D17*
X103800000Y-106600000D03*
X105968170Y-112575000D03*
D16*
X95150000Y-119550000D03*
X85000000Y-101950000D03*
X95000000Y-103000000D03*
X104950000Y-85050000D03*
X100000000Y-91950000D03*
X105900000Y-120100000D03*
X101500000Y-92650000D03*
X112750000Y-89650000D03*
X112000000Y-89650000D03*
D17*
X104868170Y-112575000D03*
D16*
X84250000Y-102000000D03*
X111250000Y-89650000D03*
X99850000Y-120150000D03*
X97000000Y-99000000D03*
X91750000Y-85000000D03*
X95700000Y-89420000D03*
X104600000Y-96800000D03*
X95000000Y-99000000D03*
X89800938Y-104263080D03*
D17*
X106600000Y-106600000D03*
X109868170Y-108975000D03*
D16*
X92400000Y-93100000D03*
X91750000Y-83450000D03*
X95150000Y-88850000D03*
X94450000Y-119550000D03*
X97000000Y-102000000D03*
X100750000Y-92650000D03*
X110700000Y-103800000D03*
X97000000Y-103000000D03*
X101500000Y-91950000D03*
X100750000Y-91950000D03*
D17*
X110700000Y-108975000D03*
D16*
X104900000Y-85900000D03*
X104950000Y-84250000D03*
X96000000Y-99000000D03*
X111250000Y-88950000D03*
X85000000Y-103500000D03*
X96000000Y-98000000D03*
X105900000Y-120850000D03*
X91750000Y-84250000D03*
X112560000Y-100240000D03*
X96000000Y-102000000D03*
X84250000Y-103500000D03*
X95000000Y-98000000D03*
X112750000Y-88950000D03*
X96800000Y-111500000D03*
X106900000Y-103100000D03*
X112000000Y-88950000D03*
X100000000Y-92650000D03*
X104600000Y-98590000D03*
X100350000Y-97100000D03*
X97000000Y-87300000D03*
X89000000Y-99000000D03*
X92100000Y-112000000D03*
X99000000Y-108394239D03*
X102150000Y-117525000D03*
X98450000Y-119100000D03*
X98450000Y-114500000D03*
X102150000Y-116825000D03*
X92050000Y-116700000D03*
X85500000Y-99000000D03*
X101150000Y-97750000D03*
X97000000Y-86300000D03*
X96390000Y-95660000D03*
X110930000Y-99740000D03*
D18*
X99000000Y-113950000D02*
X99000000Y-108394239D01*
X98450000Y-114500000D02*
X99000000Y-113950000D01*
X97200000Y-115400000D02*
X105700000Y-115400000D01*
X105700000Y-115400000D02*
X106400000Y-116100000D01*
X106400000Y-116100000D02*
X107500000Y-116100000D01*
D19*
X108300003Y-110900003D02*
X105300000Y-107900000D01*
X105300000Y-100550000D02*
X104200000Y-99450000D01*
X108300003Y-116100000D02*
X108300003Y-110900003D01*
X105300000Y-107900000D02*
X105300000Y-100550000D01*
X108010000Y-102000000D02*
X108835000Y-102000000D01*
X104600000Y-98590000D02*
X108010000Y-102000000D01*
X97710000Y-90130000D02*
X97710000Y-90250000D01*
X97470000Y-91690000D02*
X97240000Y-91690000D01*
X97240000Y-92290000D02*
X97470000Y-92290000D01*
X97240000Y-91090000D02*
X97470000Y-91090000D01*
X97000000Y-93750000D02*
X97350000Y-94100000D01*
X97470000Y-90490000D02*
X97240000Y-90490000D01*
X97240000Y-89890000D02*
X97470000Y-89890000D01*
X97470000Y-89290000D02*
X97240000Y-89290000D01*
X97710000Y-88930000D02*
X97710000Y-89050000D01*
X97240000Y-88690000D02*
X97470000Y-88690000D01*
X97710000Y-91330000D02*
X97710000Y-91450000D01*
X97470000Y-92890000D02*
X97240000Y-92890000D01*
X97000000Y-89530000D02*
X97000000Y-89650000D01*
X97710000Y-92530000D02*
X97710000Y-92650000D01*
X97000000Y-90730000D02*
X97000000Y-90850000D01*
X97000000Y-93130000D02*
X97000000Y-93250000D01*
X97350000Y-94100000D02*
X100350000Y-97100000D01*
X97000000Y-87300000D02*
X97000000Y-88450000D01*
X97000000Y-91930000D02*
X97000000Y-92050000D01*
X97000000Y-93250000D02*
X97000000Y-93750000D01*
X97470000Y-91090000D02*
G75*
G02*
X97710000Y-91330000I0J-240000D01*
G01*
X97000000Y-88450000D02*
G75*
G03*
X97240000Y-88690000I240000J0D01*
G01*
X97710000Y-92650000D02*
G75*
G02*
X97470000Y-92890000I-240000J0D01*
G01*
X97000000Y-90850000D02*
G75*
G03*
X97240000Y-91090000I240000J0D01*
G01*
X97000000Y-89650000D02*
G75*
G03*
X97240000Y-89890000I240000J0D01*
G01*
X97710000Y-91450000D02*
G75*
G02*
X97470000Y-91690000I-240000J0D01*
G01*
X97710000Y-89050000D02*
G75*
G02*
X97470000Y-89290000I-240000J0D01*
G01*
X97240000Y-89290000D02*
G75*
G03*
X97000000Y-89530000I0J-240000D01*
G01*
X97470000Y-92290000D02*
G75*
G02*
X97710000Y-92530000I0J-240000D01*
G01*
X97710000Y-90250000D02*
G75*
G02*
X97470000Y-90490000I-240000J0D01*
G01*
X97000000Y-92050000D02*
G75*
G03*
X97240000Y-92290000I240000J0D01*
G01*
X97240000Y-90490000D02*
G75*
G03*
X97000000Y-90730000I0J-240000D01*
G01*
X97470000Y-88690000D02*
G75*
G02*
X97710000Y-88930000I0J-240000D01*
G01*
X97240000Y-92890000D02*
G75*
G03*
X97000000Y-93130000I0J-240000D01*
G01*
X97470000Y-89890000D02*
G75*
G02*
X97710000Y-90130000I0J-240000D01*
G01*
X97240000Y-91690000D02*
G75*
G03*
X97000000Y-91930000I0J-240000D01*
G01*
D18*
X92100000Y-112000000D02*
X89000000Y-108900000D01*
X89000000Y-108900000D02*
X89000000Y-99000000D01*
D20*
X100025000Y-117525000D02*
X98450000Y-119100000D01*
D18*
X101450000Y-117525000D02*
X102150000Y-116825000D01*
D20*
X102150000Y-117525000D02*
X100025000Y-117525000D01*
D18*
X100025000Y-117525000D02*
X101450000Y-117525000D01*
D20*
X102150000Y-116825000D02*
X102150000Y-117525000D01*
D18*
X86225000Y-107635000D02*
X86225000Y-99725000D01*
X91200000Y-112610000D02*
X86225000Y-107635000D01*
X86225000Y-99725000D02*
X85500000Y-99000000D01*
X91200000Y-115850000D02*
X92050000Y-116700000D01*
X91200000Y-115850000D02*
X91200000Y-112610000D01*
D19*
X96350000Y-94019239D02*
X100080761Y-97750000D01*
X96350000Y-86950000D02*
X96350000Y-94019239D01*
X100080761Y-97750000D02*
X101150000Y-97750000D01*
X97000000Y-86300000D02*
X96350000Y-86950000D01*
X107050000Y-99740000D02*
X104880000Y-97570000D01*
X102750000Y-97570000D02*
X101470000Y-98850000D01*
X101470000Y-98850000D02*
X99580000Y-98850000D01*
X99580000Y-98850000D02*
X96390000Y-95660000D01*
X110930000Y-99740000D02*
X107050000Y-99740000D01*
X104880000Y-97570000D02*
X102750000Y-97570000D01*
G04 #@! TA.AperFunction,Conductor*
G36*
X111903032Y-81500648D02*
G01*
X112236929Y-81517052D01*
X112249037Y-81518245D01*
X112352146Y-81533539D01*
X112576699Y-81566849D01*
X112588617Y-81569219D01*
X112909951Y-81649709D01*
X112921588Y-81653240D01*
X112992806Y-81678722D01*
X113233467Y-81764832D01*
X113244688Y-81769479D01*
X113544163Y-81911120D01*
X113554871Y-81916844D01*
X113838988Y-82087137D01*
X113849106Y-82093897D01*
X114115170Y-82291224D01*
X114124576Y-82298944D01*
X114370013Y-82521395D01*
X114378604Y-82529986D01*
X114565755Y-82736475D01*
X114601055Y-82775423D01*
X114608775Y-82784829D01*
X114806102Y-83050893D01*
X114812862Y-83061011D01*
X114978149Y-83336777D01*
X114983148Y-83345116D01*
X114988883Y-83355844D01*
X115037229Y-83458064D01*
X115130514Y-83655297D01*
X115135170Y-83666540D01*
X115246759Y-83978411D01*
X115250292Y-83990055D01*
X115330777Y-84311369D01*
X115333151Y-84323305D01*
X115381754Y-84650962D01*
X115382947Y-84663071D01*
X115399351Y-84996966D01*
X115399500Y-85003051D01*
X115399500Y-123696948D01*
X115399351Y-123703033D01*
X115382947Y-124036928D01*
X115381754Y-124049037D01*
X115333151Y-124376694D01*
X115330777Y-124388630D01*
X115250292Y-124709944D01*
X115246759Y-124721588D01*
X115135170Y-125033459D01*
X115130514Y-125044702D01*
X114988885Y-125344151D01*
X114983148Y-125354883D01*
X114812862Y-125638988D01*
X114806102Y-125649106D01*
X114608775Y-125915170D01*
X114601055Y-125924576D01*
X114378611Y-126170006D01*
X114370006Y-126178611D01*
X114124576Y-126401055D01*
X114115170Y-126408775D01*
X113849106Y-126606102D01*
X113838988Y-126612862D01*
X113554883Y-126783148D01*
X113544151Y-126788885D01*
X113244702Y-126930514D01*
X113233459Y-126935170D01*
X112921588Y-127046759D01*
X112909944Y-127050292D01*
X112588630Y-127130777D01*
X112576694Y-127133151D01*
X112249037Y-127181754D01*
X112236928Y-127182947D01*
X111921989Y-127198419D01*
X111903031Y-127199351D01*
X111896949Y-127199500D01*
X109225640Y-127199500D01*
X109158601Y-127179815D01*
X109112846Y-127127011D01*
X109102902Y-127057853D01*
X109115155Y-127019206D01*
X109119870Y-127009950D01*
X109119873Y-127009945D01*
X109173402Y-126845201D01*
X109200500Y-126674111D01*
X109200500Y-125800889D01*
X109173402Y-125629799D01*
X109119873Y-125465055D01*
X109041232Y-125310712D01*
X108939414Y-125170572D01*
X108816928Y-125048086D01*
X108676788Y-124946268D01*
X108522445Y-124867627D01*
X108357701Y-124814098D01*
X108357699Y-124814097D01*
X108357698Y-124814097D01*
X108226271Y-124793281D01*
X108186611Y-124787000D01*
X108013389Y-124787000D01*
X107981192Y-124792099D01*
X107842301Y-124814097D01*
X107842299Y-124814097D01*
X107827207Y-124819001D01*
X107757366Y-124820993D01*
X107697535Y-124784909D01*
X107666710Y-124722207D01*
X107674678Y-124652793D01*
X107718909Y-124598706D01*
X107732591Y-124590588D01*
X107742302Y-124585641D01*
X107898359Y-124472259D01*
X108034759Y-124335859D01*
X108148141Y-124179802D01*
X108235715Y-124007929D01*
X108295324Y-123824472D01*
X108325500Y-123633949D01*
X108325500Y-123441051D01*
X108295324Y-123250528D01*
X108235715Y-123067071D01*
X108148141Y-122895198D01*
X108034759Y-122739141D01*
X107898359Y-122602741D01*
X107742302Y-122489359D01*
X107570429Y-122401785D01*
X107386972Y-122342176D01*
X107386970Y-122342175D01*
X107386969Y-122342175D01*
X107240614Y-122318995D01*
X107196449Y-122312000D01*
X107003551Y-122312000D01*
X106967697Y-122317678D01*
X106813030Y-122342175D01*
X106629568Y-122401786D01*
X106457697Y-122489359D01*
X106398066Y-122532684D01*
X106301641Y-122602741D01*
X106301639Y-122602743D01*
X106301638Y-122602743D01*
X106165243Y-122739138D01*
X106165243Y-122739139D01*
X106165241Y-122739141D01*
X106116756Y-122805875D01*
X106051859Y-122895197D01*
X105964286Y-123067068D01*
X105904675Y-123250530D01*
X105879615Y-123408757D01*
X105874500Y-123441051D01*
X105874500Y-123633949D01*
X105881495Y-123678114D01*
X105904675Y-123824469D01*
X105904676Y-123824472D01*
X105964285Y-124007929D01*
X106051859Y-124179802D01*
X106165241Y-124335859D01*
X106301641Y-124472259D01*
X106457698Y-124585641D01*
X106629571Y-124673215D01*
X106813028Y-124732824D01*
X107003551Y-124763000D01*
X107003552Y-124763000D01*
X107196448Y-124763000D01*
X107196449Y-124763000D01*
X107386972Y-124732824D01*
X107422020Y-124721435D01*
X107491858Y-124719440D01*
X107551691Y-124755520D01*
X107582520Y-124818221D01*
X107574556Y-124887635D01*
X107530328Y-124941725D01*
X107525132Y-124945090D01*
X107523223Y-124946259D01*
X107442223Y-125005110D01*
X107383072Y-125048086D01*
X107383070Y-125048088D01*
X107383069Y-125048088D01*
X107260588Y-125170569D01*
X107260588Y-125170570D01*
X107260586Y-125170572D01*
X107219912Y-125226555D01*
X107158768Y-125310711D01*
X107080128Y-125465052D01*
X107026597Y-125629802D01*
X106999500Y-125800889D01*
X106999500Y-126674110D01*
X107026597Y-126845197D01*
X107080129Y-127009950D01*
X107084845Y-127019206D01*
X107097741Y-127087875D01*
X107071464Y-127152615D01*
X107014358Y-127192872D01*
X106974360Y-127199500D01*
X102225640Y-127199500D01*
X102158601Y-127179815D01*
X102112846Y-127127011D01*
X102102902Y-127057853D01*
X102115155Y-127019206D01*
X102119870Y-127009950D01*
X102119873Y-127009945D01*
X102173402Y-126845201D01*
X102200500Y-126674111D01*
X102200500Y-125800889D01*
X102173402Y-125629799D01*
X102119873Y-125465055D01*
X102041232Y-125310712D01*
X101939414Y-125170572D01*
X101816928Y-125048086D01*
X101746858Y-124997177D01*
X101676786Y-124946266D01*
X101674874Y-124945095D01*
X101674299Y-124944460D01*
X101672846Y-124943404D01*
X101673067Y-124943098D01*
X101627998Y-124893284D01*
X101616575Y-124824354D01*
X101644231Y-124760191D01*
X101702187Y-124721166D01*
X101772040Y-124719669D01*
X101777952Y-124721427D01*
X101813028Y-124732824D01*
X102003551Y-124763000D01*
X102003552Y-124763000D01*
X102196448Y-124763000D01*
X102196449Y-124763000D01*
X102386972Y-124732824D01*
X102570429Y-124673215D01*
X102742302Y-124585641D01*
X102898359Y-124472259D01*
X103034759Y-124335859D01*
X103148141Y-124179802D01*
X103235715Y-124007929D01*
X103295324Y-123824472D01*
X103325500Y-123633949D01*
X103325500Y-123441051D01*
X103295324Y-123250528D01*
X103235715Y-123067071D01*
X103148141Y-122895198D01*
X103034759Y-122739141D01*
X102898359Y-122602741D01*
X102742302Y-122489359D01*
X102570429Y-122401785D01*
X102386972Y-122342176D01*
X102386970Y-122342175D01*
X102386969Y-122342175D01*
X102240614Y-122318995D01*
X102196449Y-122312000D01*
X102003551Y-122312000D01*
X101967697Y-122317678D01*
X101813030Y-122342175D01*
X101629568Y-122401786D01*
X101457697Y-122489359D01*
X101398066Y-122532684D01*
X101301641Y-122602741D01*
X101301639Y-122602743D01*
X101301638Y-122602743D01*
X101165243Y-122739138D01*
X101165243Y-122739139D01*
X101165241Y-122739141D01*
X101116756Y-122805875D01*
X101051859Y-122895197D01*
X100964286Y-123067068D01*
X100904675Y-123250530D01*
X100879615Y-123408757D01*
X100874500Y-123441051D01*
X100874500Y-123633949D01*
X100881495Y-123678114D01*
X100904675Y-123824469D01*
X100904676Y-123824472D01*
X100964285Y-124007929D01*
X101051859Y-124179802D01*
X101165241Y-124335859D01*
X101301641Y-124472259D01*
X101457698Y-124585641D01*
X101467394Y-124590581D01*
X101518192Y-124638553D01*
X101534990Y-124706373D01*
X101512456Y-124772509D01*
X101457742Y-124815963D01*
X101388222Y-124822938D01*
X101372790Y-124819000D01*
X101357703Y-124814098D01*
X101357698Y-124814097D01*
X101226271Y-124793281D01*
X101186611Y-124787000D01*
X101013389Y-124787000D01*
X100973728Y-124793281D01*
X100842302Y-124814097D01*
X100677552Y-124867628D01*
X100523211Y-124946268D01*
X100443256Y-125004359D01*
X100383072Y-125048086D01*
X100383070Y-125048088D01*
X100383069Y-125048088D01*
X100260588Y-125170569D01*
X100260588Y-125170570D01*
X100260586Y-125170572D01*
X100219912Y-125226555D01*
X100158768Y-125310711D01*
X100080128Y-125465052D01*
X100026597Y-125629802D01*
X99999500Y-125800889D01*
X99999500Y-126674110D01*
X100026597Y-126845197D01*
X100080129Y-127009950D01*
X100084845Y-127019206D01*
X100097741Y-127087875D01*
X100071464Y-127152615D01*
X100014358Y-127192872D01*
X99974360Y-127199500D01*
X87003051Y-127199500D01*
X86996968Y-127199351D01*
X86976900Y-127198365D01*
X86663071Y-127182947D01*
X86650962Y-127181754D01*
X86323305Y-127133151D01*
X86311369Y-127130777D01*
X85990055Y-127050292D01*
X85978411Y-127046759D01*
X85666540Y-126935170D01*
X85655301Y-126930515D01*
X85355844Y-126788883D01*
X85345121Y-126783150D01*
X85061011Y-126612862D01*
X85050893Y-126606102D01*
X84784829Y-126408775D01*
X84775423Y-126401055D01*
X84736475Y-126365755D01*
X84529986Y-126178604D01*
X84521395Y-126170013D01*
X84298944Y-125924576D01*
X84291224Y-125915170D01*
X84093897Y-125649106D01*
X84087137Y-125638988D01*
X84081631Y-125629802D01*
X83916844Y-125354871D01*
X83911120Y-125344163D01*
X83769479Y-125044688D01*
X83764829Y-125033459D01*
X83754685Y-125005109D01*
X83687008Y-124815963D01*
X83653240Y-124721588D01*
X83649707Y-124709944D01*
X83640507Y-124673215D01*
X83569219Y-124388617D01*
X83566848Y-124376694D01*
X83554378Y-124292630D01*
X83518245Y-124049037D01*
X83517052Y-124036927D01*
X83515627Y-124007929D01*
X83500649Y-123703032D01*
X83500500Y-123696948D01*
X83500500Y-123618713D01*
X87349500Y-123618713D01*
X87349500Y-124081287D01*
X87382754Y-124291243D01*
X87412476Y-124382719D01*
X87448444Y-124493414D01*
X87544951Y-124682820D01*
X87669890Y-124854786D01*
X87820213Y-125005109D01*
X87992179Y-125130048D01*
X87992181Y-125130049D01*
X87992184Y-125130051D01*
X88181588Y-125226557D01*
X88383757Y-125292246D01*
X88593713Y-125325500D01*
X88593714Y-125325500D01*
X88806286Y-125325500D01*
X88806287Y-125325500D01*
X89016243Y-125292246D01*
X89218412Y-125226557D01*
X89407816Y-125130051D01*
X89429789Y-125114086D01*
X89579786Y-125005109D01*
X89579788Y-125005106D01*
X89579792Y-125005104D01*
X89730104Y-124854792D01*
X89849683Y-124690204D01*
X89905011Y-124647540D01*
X89974624Y-124641561D01*
X90036420Y-124674166D01*
X90050313Y-124690199D01*
X90145340Y-124820993D01*
X90169896Y-124854792D01*
X90320213Y-125005109D01*
X90492179Y-125130048D01*
X90492181Y-125130049D01*
X90492184Y-125130051D01*
X90681588Y-125226557D01*
X90883757Y-125292246D01*
X91093713Y-125325500D01*
X91093714Y-125325500D01*
X91306286Y-125325500D01*
X91306287Y-125325500D01*
X91516243Y-125292246D01*
X91718412Y-125226557D01*
X91907816Y-125130051D01*
X91929789Y-125114086D01*
X92079786Y-125005109D01*
X92079788Y-125005106D01*
X92079792Y-125005104D01*
X92230104Y-124854792D01*
X92349683Y-124690204D01*
X92405011Y-124647540D01*
X92474624Y-124641561D01*
X92536420Y-124674166D01*
X92550313Y-124690199D01*
X92645340Y-124820993D01*
X92669896Y-124854792D01*
X92820213Y-125005109D01*
X92992179Y-125130048D01*
X92992181Y-125130049D01*
X92992184Y-125130051D01*
X93181588Y-125226557D01*
X93383757Y-125292246D01*
X93593713Y-125325500D01*
X93593714Y-125325500D01*
X93806286Y-125325500D01*
X93806287Y-125325500D01*
X94016243Y-125292246D01*
X94218412Y-125226557D01*
X94407816Y-125130051D01*
X94525290Y-125044702D01*
X94579784Y-125005110D01*
X94579784Y-125005109D01*
X94579792Y-125005104D01*
X94718967Y-124865928D01*
X94780286Y-124832446D01*
X94849978Y-124837430D01*
X94905912Y-124879301D01*
X94912184Y-124888515D01*
X95007684Y-125043345D01*
X95131654Y-125167315D01*
X95280875Y-125259356D01*
X95280880Y-125259358D01*
X95447302Y-125314505D01*
X95447309Y-125314506D01*
X95550019Y-125324999D01*
X95949999Y-125324999D01*
X95950000Y-125324998D01*
X95950000Y-124254145D01*
X96016657Y-124292630D01*
X96137465Y-124325000D01*
X96262535Y-124325000D01*
X96383343Y-124292630D01*
X96450000Y-124254145D01*
X96450000Y-125324999D01*
X96849972Y-125324999D01*
X96849986Y-125324998D01*
X96952697Y-125314505D01*
X97119119Y-125259358D01*
X97119124Y-125259356D01*
X97268345Y-125167315D01*
X97392315Y-125043345D01*
X97484356Y-124894124D01*
X97484358Y-124894119D01*
X97539505Y-124727697D01*
X97539506Y-124727690D01*
X97549999Y-124624986D01*
X97550000Y-124624973D01*
X97550000Y-124100000D01*
X96604146Y-124100000D01*
X96642630Y-124033343D01*
X96675000Y-123912535D01*
X96675000Y-123787465D01*
X96642630Y-123666657D01*
X96604146Y-123600000D01*
X97549999Y-123600000D01*
X97549999Y-123075028D01*
X97549998Y-123075013D01*
X97539505Y-122972302D01*
X97484358Y-122805880D01*
X97484356Y-122805875D01*
X97392315Y-122656654D01*
X97268345Y-122532684D01*
X97119124Y-122440643D01*
X97119119Y-122440641D01*
X96952697Y-122385494D01*
X96952690Y-122385493D01*
X96849986Y-122375000D01*
X96450000Y-122375000D01*
X96450000Y-123445854D01*
X96383343Y-123407370D01*
X96262535Y-123375000D01*
X96137465Y-123375000D01*
X96016657Y-123407370D01*
X95950000Y-123445854D01*
X95950000Y-122375000D01*
X95550028Y-122375000D01*
X95550012Y-122375001D01*
X95447302Y-122385494D01*
X95280880Y-122440641D01*
X95280875Y-122440643D01*
X95131654Y-122532684D01*
X95007683Y-122656655D01*
X95007680Y-122656659D01*
X94912183Y-122811484D01*
X94860235Y-122858209D01*
X94791273Y-122869430D01*
X94727191Y-122841587D01*
X94718964Y-122834068D01*
X94579786Y-122694890D01*
X94407820Y-122569951D01*
X94218414Y-122473444D01*
X94218413Y-122473443D01*
X94218412Y-122473443D01*
X94016243Y-122407754D01*
X94016241Y-122407753D01*
X94016240Y-122407753D01*
X93854957Y-122382208D01*
X93806287Y-122374500D01*
X93593713Y-122374500D01*
X93545042Y-122382208D01*
X93383760Y-122407753D01*
X93181585Y-122473444D01*
X92992179Y-122569951D01*
X92820213Y-122694890D01*
X92669894Y-122845209D01*
X92669890Y-122845214D01*
X92550318Y-123009793D01*
X92494989Y-123052459D01*
X92425375Y-123058438D01*
X92363580Y-123025833D01*
X92349682Y-123009793D01*
X92230109Y-122845214D01*
X92230105Y-122845209D01*
X92079786Y-122694890D01*
X91907820Y-122569951D01*
X91718414Y-122473444D01*
X91718413Y-122473443D01*
X91718412Y-122473443D01*
X91516243Y-122407754D01*
X91516241Y-122407753D01*
X91516240Y-122407753D01*
X91354957Y-122382208D01*
X91306287Y-122374500D01*
X91093713Y-122374500D01*
X91045042Y-122382208D01*
X90883760Y-122407753D01*
X90681585Y-122473444D01*
X90492179Y-122569951D01*
X90320213Y-122694890D01*
X90169894Y-122845209D01*
X90169890Y-122845214D01*
X90050318Y-123009793D01*
X89994989Y-123052459D01*
X89925375Y-123058438D01*
X89863580Y-123025833D01*
X89849682Y-123009793D01*
X89730109Y-122845214D01*
X89730105Y-122845209D01*
X89579786Y-122694890D01*
X89407820Y-122569951D01*
X89218414Y-122473444D01*
X89218413Y-122473443D01*
X89218412Y-122473443D01*
X89016243Y-122407754D01*
X89016241Y-122407753D01*
X89016240Y-122407753D01*
X88854957Y-122382208D01*
X88806287Y-122374500D01*
X88593713Y-122374500D01*
X88545042Y-122382208D01*
X88383760Y-122407753D01*
X88181585Y-122473444D01*
X87992179Y-122569951D01*
X87820213Y-122694890D01*
X87669890Y-122845213D01*
X87544951Y-123017179D01*
X87448444Y-123206585D01*
X87382753Y-123408760D01*
X87377639Y-123441051D01*
X87349500Y-123618713D01*
X83500500Y-123618713D01*
X83500500Y-116378711D01*
X85149500Y-116378711D01*
X85149500Y-116621288D01*
X85181161Y-116861785D01*
X85243947Y-117096104D01*
X85336773Y-117320205D01*
X85336776Y-117320212D01*
X85458064Y-117530289D01*
X85458066Y-117530292D01*
X85458067Y-117530293D01*
X85605733Y-117722736D01*
X85605739Y-117722743D01*
X85777256Y-117894260D01*
X85777263Y-117894266D01*
X85890321Y-117981018D01*
X85969711Y-118041936D01*
X86179788Y-118163224D01*
X86403900Y-118256054D01*
X86638211Y-118318838D01*
X86818586Y-118342584D01*
X86878711Y-118350500D01*
X86878712Y-118350500D01*
X87121289Y-118350500D01*
X87169388Y-118344167D01*
X87361789Y-118318838D01*
X87596100Y-118256054D01*
X87820212Y-118163224D01*
X88030289Y-118041936D01*
X88222738Y-117894265D01*
X88394265Y-117722738D01*
X88541936Y-117530289D01*
X88663224Y-117320212D01*
X88756054Y-117096100D01*
X88818838Y-116861789D01*
X88850500Y-116621288D01*
X88850500Y-116378712D01*
X88818838Y-116138211D01*
X88756054Y-115903900D01*
X88663224Y-115679788D01*
X88541936Y-115469711D01*
X88394265Y-115277262D01*
X88394260Y-115277256D01*
X88222743Y-115105739D01*
X88222736Y-115105733D01*
X88030293Y-114958067D01*
X88030292Y-114958066D01*
X88030289Y-114958064D01*
X87820212Y-114836776D01*
X87772594Y-114817052D01*
X87596104Y-114743947D01*
X87361785Y-114681161D01*
X87121289Y-114649500D01*
X87121288Y-114649500D01*
X86878712Y-114649500D01*
X86878711Y-114649500D01*
X86638214Y-114681161D01*
X86403895Y-114743947D01*
X86179794Y-114836773D01*
X86179785Y-114836777D01*
X85969706Y-114958067D01*
X85777263Y-115105733D01*
X85777256Y-115105739D01*
X85605739Y-115277256D01*
X85605733Y-115277263D01*
X85458067Y-115469706D01*
X85336777Y-115679785D01*
X85336773Y-115679794D01*
X85243947Y-115903895D01*
X85181161Y-116138214D01*
X85149500Y-116378711D01*
X83500500Y-116378711D01*
X83500500Y-98921153D01*
X84699500Y-98921153D01*
X84699500Y-99078846D01*
X84730261Y-99233489D01*
X84730264Y-99233501D01*
X84790602Y-99379172D01*
X84790609Y-99379185D01*
X84878210Y-99510288D01*
X84878213Y-99510292D01*
X84989710Y-99621789D01*
X85082051Y-99683489D01*
X85120821Y-99709394D01*
X85144475Y-99719191D01*
X85184703Y-99746071D01*
X85438181Y-99999549D01*
X85471666Y-100060872D01*
X85474500Y-100087230D01*
X85474500Y-106447779D01*
X85454815Y-106514818D01*
X85423385Y-106548097D01*
X85345211Y-106604893D01*
X85345205Y-106604898D01*
X85194890Y-106755213D01*
X85069951Y-106927179D01*
X84973444Y-107116585D01*
X84907753Y-107318760D01*
X84874500Y-107528713D01*
X84874500Y-107741286D01*
X84907752Y-107951234D01*
X84907753Y-107951239D01*
X84907754Y-107951243D01*
X84951577Y-108086117D01*
X84973444Y-108153414D01*
X85069951Y-108342820D01*
X85194890Y-108514786D01*
X85308430Y-108628326D01*
X85341915Y-108689649D01*
X85336931Y-108759341D01*
X85295059Y-108815274D01*
X85264083Y-108832189D01*
X85132669Y-108881203D01*
X85132664Y-108881206D01*
X85017455Y-108967452D01*
X85017452Y-108967455D01*
X84931206Y-109082664D01*
X84931202Y-109082671D01*
X84880908Y-109217517D01*
X84874501Y-109277116D01*
X84874500Y-109277135D01*
X84874500Y-111072870D01*
X84874501Y-111072876D01*
X84880908Y-111132483D01*
X84931202Y-111267328D01*
X84931206Y-111267335D01*
X85017452Y-111382544D01*
X85017455Y-111382547D01*
X85132664Y-111468793D01*
X85132671Y-111468797D01*
X85267517Y-111519091D01*
X85267516Y-111519091D01*
X85274444Y-111519835D01*
X85327127Y-111525500D01*
X87122872Y-111525499D01*
X87182483Y-111519091D01*
X87317331Y-111468796D01*
X87432546Y-111382546D01*
X87518796Y-111267331D01*
X87569091Y-111132483D01*
X87575500Y-111072873D01*
X87575499Y-110346228D01*
X87595183Y-110279190D01*
X87647987Y-110233435D01*
X87717146Y-110223491D01*
X87780702Y-110252516D01*
X87787180Y-110258548D01*
X90413181Y-112884548D01*
X90446666Y-112945871D01*
X90449500Y-112972229D01*
X90449500Y-115923918D01*
X90449500Y-115923920D01*
X90449499Y-115923920D01*
X90478340Y-116068907D01*
X90478343Y-116068917D01*
X90534912Y-116205488D01*
X90534918Y-116205499D01*
X90545664Y-116221580D01*
X90545666Y-116221585D01*
X90617046Y-116328414D01*
X90617052Y-116328421D01*
X91303927Y-117015295D01*
X91330806Y-117055521D01*
X91340606Y-117079179D01*
X91340607Y-117079181D01*
X91428207Y-117210284D01*
X91428213Y-117210292D01*
X91539707Y-117321786D01*
X91539711Y-117321789D01*
X91670814Y-117409390D01*
X91670827Y-117409397D01*
X91816498Y-117469735D01*
X91816503Y-117469737D01*
X91971153Y-117500499D01*
X91971156Y-117500500D01*
X91971158Y-117500500D01*
X92128844Y-117500500D01*
X92128845Y-117500499D01*
X92283497Y-117469737D01*
X92429179Y-117409394D01*
X92560289Y-117321789D01*
X92671789Y-117210289D01*
X92759394Y-117079179D01*
X92819737Y-116933497D01*
X92850500Y-116778842D01*
X92850500Y-116621158D01*
X92850500Y-116621155D01*
X92850499Y-116621153D01*
X92840251Y-116569633D01*
X92819737Y-116466503D01*
X92764645Y-116333497D01*
X92759397Y-116320827D01*
X92759390Y-116320814D01*
X92671789Y-116189711D01*
X92671786Y-116189707D01*
X92560292Y-116078213D01*
X92560284Y-116078207D01*
X92429181Y-115990607D01*
X92429179Y-115990606D01*
X92405521Y-115980806D01*
X92365295Y-115953927D01*
X91986819Y-115575451D01*
X91953334Y-115514128D01*
X91950500Y-115487770D01*
X91950500Y-112924500D01*
X91970185Y-112857461D01*
X92022989Y-112811706D01*
X92074500Y-112800500D01*
X92178844Y-112800500D01*
X92178845Y-112800499D01*
X92333497Y-112769737D01*
X92479179Y-112709394D01*
X92610289Y-112621789D01*
X92721789Y-112510289D01*
X92809394Y-112379179D01*
X92869737Y-112233497D01*
X92900500Y-112078842D01*
X92900500Y-111921158D01*
X92900500Y-111921155D01*
X92900499Y-111921153D01*
X92869738Y-111766510D01*
X92869737Y-111766503D01*
X92869735Y-111766498D01*
X92809397Y-111620827D01*
X92809390Y-111620814D01*
X92721789Y-111489711D01*
X92721786Y-111489707D01*
X92610292Y-111378213D01*
X92610288Y-111378210D01*
X92479185Y-111290609D01*
X92479175Y-111290604D01*
X92455523Y-111280807D01*
X92415295Y-111253927D01*
X89786819Y-108625451D01*
X89753334Y-108564128D01*
X89750500Y-108537770D01*
X89750500Y-99304604D01*
X89759939Y-99257151D01*
X89764317Y-99246581D01*
X89769737Y-99233497D01*
X89800500Y-99078842D01*
X89800500Y-98921158D01*
X89800500Y-98921155D01*
X89800499Y-98921153D01*
X89782013Y-98828217D01*
X89769737Y-98766503D01*
X89733824Y-98679800D01*
X89709397Y-98620827D01*
X89709390Y-98620814D01*
X89621789Y-98489711D01*
X89621786Y-98489707D01*
X89510292Y-98378213D01*
X89510288Y-98378210D01*
X89379185Y-98290609D01*
X89379172Y-98290602D01*
X89233501Y-98230264D01*
X89233489Y-98230261D01*
X89078845Y-98199500D01*
X89078842Y-98199500D01*
X88921158Y-98199500D01*
X88921155Y-98199500D01*
X88766510Y-98230261D01*
X88766498Y-98230264D01*
X88620827Y-98290602D01*
X88620814Y-98290609D01*
X88489711Y-98378210D01*
X88489707Y-98378213D01*
X88378213Y-98489707D01*
X88378210Y-98489711D01*
X88290609Y-98620814D01*
X88290602Y-98620827D01*
X88230264Y-98766498D01*
X88230261Y-98766510D01*
X88199500Y-98921153D01*
X88199500Y-99078846D01*
X88230261Y-99233489D01*
X88230263Y-99233497D01*
X88240061Y-99257151D01*
X88249500Y-99304604D01*
X88249500Y-108298770D01*
X88229815Y-108365809D01*
X88177011Y-108411564D01*
X88107853Y-108421508D01*
X88044297Y-108392483D01*
X88037819Y-108386451D01*
X87595175Y-107943807D01*
X87561690Y-107882484D01*
X87560383Y-107836728D01*
X87575500Y-107741285D01*
X87575500Y-107528713D01*
X87542246Y-107318760D01*
X87542246Y-107318757D01*
X87476557Y-107116588D01*
X87380051Y-106927184D01*
X87380049Y-106927181D01*
X87380048Y-106927179D01*
X87255109Y-106755213D01*
X87104794Y-106604898D01*
X87104788Y-106604893D01*
X87026615Y-106548097D01*
X86983949Y-106492767D01*
X86975500Y-106447779D01*
X86975500Y-99651079D01*
X86946659Y-99506092D01*
X86946658Y-99506091D01*
X86946658Y-99506087D01*
X86890084Y-99369505D01*
X86845827Y-99303269D01*
X86845827Y-99303268D01*
X86807950Y-99246581D01*
X86807947Y-99246578D01*
X86246071Y-98684703D01*
X86219191Y-98644475D01*
X86209394Y-98620821D01*
X86192088Y-98594921D01*
X86121789Y-98489710D01*
X86010292Y-98378213D01*
X86010288Y-98378210D01*
X85879185Y-98290609D01*
X85879172Y-98290602D01*
X85733501Y-98230264D01*
X85733489Y-98230261D01*
X85578845Y-98199500D01*
X85578842Y-98199500D01*
X85421158Y-98199500D01*
X85421155Y-98199500D01*
X85266510Y-98230261D01*
X85266498Y-98230264D01*
X85120827Y-98290602D01*
X85120814Y-98290609D01*
X84989711Y-98378210D01*
X84989707Y-98378213D01*
X84878213Y-98489707D01*
X84878210Y-98489711D01*
X84790609Y-98620814D01*
X84790602Y-98620827D01*
X84730264Y-98766498D01*
X84730261Y-98766510D01*
X84699500Y-98921153D01*
X83500500Y-98921153D01*
X83500500Y-95581153D01*
X95589500Y-95581153D01*
X95589500Y-95738846D01*
X95620261Y-95893489D01*
X95620264Y-95893501D01*
X95680602Y-96039172D01*
X95680609Y-96039185D01*
X95768210Y-96170288D01*
X95768213Y-96170292D01*
X95879707Y-96281786D01*
X95879711Y-96281789D01*
X96010814Y-96369390D01*
X96010827Y-96369397D01*
X96098230Y-96405599D01*
X96156503Y-96429737D01*
X96223580Y-96443079D01*
X96285488Y-96475461D01*
X96287068Y-96477014D01*
X99165324Y-99355271D01*
X99165327Y-99355274D01*
X99254220Y-99414670D01*
X99271873Y-99426465D01*
X99390256Y-99475501D01*
X99390260Y-99475501D01*
X99390261Y-99475502D01*
X99515928Y-99500500D01*
X99515931Y-99500500D01*
X101534071Y-99500500D01*
X101618615Y-99483682D01*
X101659744Y-99475501D01*
X101778127Y-99426465D01*
X101795780Y-99414670D01*
X101795781Y-99414670D01*
X101863375Y-99369505D01*
X101884669Y-99355277D01*
X102983127Y-98256819D01*
X103044450Y-98223334D01*
X103070808Y-98220500D01*
X103706221Y-98220500D01*
X103773260Y-98240185D01*
X103819015Y-98292989D01*
X103828959Y-98362147D01*
X103827838Y-98368691D01*
X103799500Y-98511153D01*
X103799500Y-98668843D01*
X103800097Y-98674905D01*
X103797417Y-98675168D01*
X103792159Y-98733216D01*
X103749237Y-98788346D01*
X103745712Y-98790790D01*
X103689713Y-98828208D01*
X103689704Y-98828217D01*
X103578213Y-98939707D01*
X103578210Y-98939711D01*
X103490609Y-99070814D01*
X103490602Y-99070827D01*
X103430264Y-99216498D01*
X103430261Y-99216510D01*
X103399500Y-99371153D01*
X103399500Y-99528846D01*
X103430261Y-99683489D01*
X103430264Y-99683501D01*
X103490602Y-99829172D01*
X103490609Y-99829185D01*
X103578210Y-99960288D01*
X103578213Y-99960292D01*
X103689707Y-100071786D01*
X103689711Y-100071789D01*
X103820814Y-100159390D01*
X103820827Y-100159397D01*
X103908230Y-100195599D01*
X103966503Y-100219737D01*
X104033580Y-100233079D01*
X104095490Y-100265463D01*
X104097069Y-100267015D01*
X104613181Y-100783127D01*
X104646666Y-100844450D01*
X104649500Y-100870808D01*
X104649500Y-107964070D01*
X104673774Y-108086095D01*
X104673776Y-108086117D01*
X104673778Y-108086117D01*
X104674498Y-108089744D01*
X104723533Y-108208125D01*
X104794726Y-108314673D01*
X104794727Y-108314674D01*
X107613184Y-111133130D01*
X107646669Y-111194453D01*
X107649503Y-111220811D01*
X107649503Y-115175500D01*
X107629818Y-115242539D01*
X107577014Y-115288294D01*
X107525503Y-115299500D01*
X107421155Y-115299500D01*
X107266511Y-115330260D01*
X107266506Y-115330262D01*
X107266504Y-115330262D01*
X107266503Y-115330263D01*
X107242844Y-115340062D01*
X107195396Y-115349500D01*
X106762229Y-115349500D01*
X106695190Y-115329815D01*
X106674548Y-115313181D01*
X106178421Y-114817052D01*
X106178414Y-114817046D01*
X106104729Y-114767812D01*
X106104729Y-114767813D01*
X106055491Y-114734913D01*
X105918917Y-114678343D01*
X105918907Y-114678340D01*
X105773920Y-114649500D01*
X105773918Y-114649500D01*
X99661230Y-114649500D01*
X99594191Y-114629815D01*
X99548436Y-114577011D01*
X99538492Y-114507853D01*
X99567517Y-114444297D01*
X99573549Y-114437819D01*
X99582948Y-114428419D01*
X99582951Y-114428416D01*
X99665084Y-114305495D01*
X99721658Y-114168913D01*
X99731224Y-114120821D01*
X99750500Y-114023918D01*
X99750500Y-108698843D01*
X99759939Y-108651390D01*
X99769737Y-108627736D01*
X99800500Y-108473081D01*
X99800500Y-108315397D01*
X99800500Y-108315394D01*
X99800499Y-108315392D01*
X99797193Y-108298770D01*
X99769737Y-108160742D01*
X99738827Y-108086117D01*
X99709397Y-108015066D01*
X99709390Y-108015053D01*
X99621789Y-107883950D01*
X99621786Y-107883946D01*
X99510292Y-107772452D01*
X99510288Y-107772449D01*
X99379185Y-107684848D01*
X99379172Y-107684841D01*
X99233501Y-107624503D01*
X99233489Y-107624500D01*
X99078845Y-107593739D01*
X99078842Y-107593739D01*
X98921158Y-107593739D01*
X98921155Y-107593739D01*
X98766510Y-107624500D01*
X98766498Y-107624503D01*
X98620827Y-107684841D01*
X98620814Y-107684848D01*
X98489711Y-107772449D01*
X98489707Y-107772452D01*
X98378213Y-107883946D01*
X98378210Y-107883950D01*
X98290609Y-108015053D01*
X98290602Y-108015066D01*
X98230264Y-108160737D01*
X98230261Y-108160749D01*
X98199500Y-108315392D01*
X98199500Y-108473085D01*
X98230261Y-108627728D01*
X98230263Y-108627736D01*
X98240061Y-108651390D01*
X98249500Y-108698843D01*
X98249500Y-113587770D01*
X98240855Y-113617207D01*
X98234332Y-113647198D01*
X98230576Y-113652214D01*
X98229815Y-113654809D01*
X98213185Y-113675446D01*
X98134704Y-113753928D01*
X98094478Y-113780806D01*
X98070826Y-113790603D01*
X98070814Y-113790609D01*
X97939711Y-113878210D01*
X97939707Y-113878213D01*
X97828213Y-113989707D01*
X97828210Y-113989711D01*
X97740609Y-114120814D01*
X97740605Y-114120823D01*
X97680264Y-114266498D01*
X97680261Y-114266510D01*
X97649500Y-114421153D01*
X97649500Y-114525500D01*
X97646949Y-114534185D01*
X97648238Y-114543147D01*
X97637259Y-114567187D01*
X97629815Y-114592539D01*
X97622974Y-114598466D01*
X97619213Y-114606703D01*
X97596978Y-114620992D01*
X97577011Y-114638294D01*
X97566496Y-114640581D01*
X97560435Y-114644477D01*
X97525500Y-114649500D01*
X97504604Y-114649500D01*
X97457155Y-114640062D01*
X97433497Y-114630263D01*
X97433493Y-114630262D01*
X97433488Y-114630260D01*
X97278845Y-114599500D01*
X97278842Y-114599500D01*
X97121158Y-114599500D01*
X97121155Y-114599500D01*
X96966510Y-114630261D01*
X96966498Y-114630264D01*
X96820827Y-114690602D01*
X96820814Y-114690609D01*
X96689711Y-114778210D01*
X96689707Y-114778213D01*
X96578213Y-114889707D01*
X96578210Y-114889711D01*
X96490609Y-115020814D01*
X96490602Y-115020827D01*
X96430264Y-115166498D01*
X96430261Y-115166510D01*
X96399500Y-115321153D01*
X96399500Y-115478846D01*
X96430261Y-115633489D01*
X96430264Y-115633501D01*
X96490602Y-115779172D01*
X96490609Y-115779185D01*
X96578210Y-115910288D01*
X96578213Y-115910292D01*
X96689707Y-116021786D01*
X96689711Y-116021789D01*
X96820814Y-116109390D01*
X96820827Y-116109397D01*
X96920060Y-116150500D01*
X96966503Y-116169737D01*
X97121153Y-116200499D01*
X97121156Y-116200500D01*
X97121158Y-116200500D01*
X97278844Y-116200500D01*
X97278845Y-116200499D01*
X97355152Y-116185320D01*
X97433488Y-116169739D01*
X97433489Y-116169738D01*
X97433497Y-116169737D01*
X97457155Y-116159937D01*
X97504604Y-116150500D01*
X101315743Y-116150500D01*
X101382782Y-116170185D01*
X101428537Y-116222989D01*
X101438481Y-116292147D01*
X101418845Y-116343391D01*
X101374145Y-116410288D01*
X101374140Y-116410297D01*
X101306767Y-116572953D01*
X101262926Y-116627356D01*
X101196632Y-116649421D01*
X101192206Y-116649500D01*
X99938768Y-116649500D01*
X99769633Y-116683143D01*
X99769621Y-116683146D01*
X99610301Y-116749138D01*
X99610288Y-116749145D01*
X99466901Y-116844954D01*
X99466897Y-116844957D01*
X97769957Y-118541897D01*
X97769954Y-118541901D01*
X97674145Y-118685288D01*
X97674138Y-118685301D01*
X97608146Y-118844621D01*
X97608143Y-118844633D01*
X97574500Y-119013766D01*
X97574500Y-119186233D01*
X97608143Y-119355366D01*
X97608146Y-119355378D01*
X97674138Y-119514698D01*
X97674145Y-119514711D01*
X97769954Y-119658098D01*
X97769957Y-119658102D01*
X97891897Y-119780042D01*
X97891901Y-119780045D01*
X98035288Y-119875854D01*
X98035301Y-119875861D01*
X98194621Y-119941853D01*
X98194626Y-119941855D01*
X98363766Y-119975499D01*
X98363769Y-119975500D01*
X98363771Y-119975500D01*
X98536231Y-119975500D01*
X98536232Y-119975499D01*
X98705374Y-119941855D01*
X98864705Y-119875858D01*
X99008099Y-119780045D01*
X100351325Y-118436819D01*
X100412648Y-118403334D01*
X100439006Y-118400500D01*
X102236231Y-118400500D01*
X102236232Y-118400499D01*
X102405374Y-118366855D01*
X102564705Y-118300858D01*
X102708099Y-118205045D01*
X102830045Y-118083099D01*
X102925858Y-117939705D01*
X102991855Y-117780374D01*
X103025500Y-117611229D01*
X103025500Y-116738771D01*
X103025500Y-116738768D01*
X103025499Y-116738766D01*
X103022121Y-116721786D01*
X102991855Y-116569626D01*
X102949138Y-116466498D01*
X102925861Y-116410301D01*
X102925854Y-116410288D01*
X102881155Y-116343391D01*
X102860277Y-116276713D01*
X102878762Y-116209333D01*
X102930741Y-116162643D01*
X102984257Y-116150500D01*
X105337770Y-116150500D01*
X105404809Y-116170185D01*
X105425451Y-116186819D01*
X105648921Y-116410288D01*
X105817048Y-116578415D01*
X105817049Y-116578416D01*
X105888054Y-116649421D01*
X105921585Y-116682952D01*
X106044498Y-116765080D01*
X106044511Y-116765087D01*
X106151469Y-116809390D01*
X106181087Y-116821658D01*
X106181091Y-116821658D01*
X106181092Y-116821659D01*
X106326079Y-116850500D01*
X106326082Y-116850500D01*
X107195396Y-116850500D01*
X107242844Y-116859937D01*
X107266503Y-116869737D01*
X107266508Y-116869738D01*
X107266511Y-116869739D01*
X107421153Y-116900499D01*
X107421156Y-116900500D01*
X107421158Y-116900500D01*
X107578844Y-116900500D01*
X107578845Y-116900499D01*
X107733497Y-116869737D01*
X107852550Y-116820423D01*
X107922017Y-116812955D01*
X107947450Y-116820422D01*
X108066506Y-116869737D01*
X108221156Y-116900499D01*
X108221159Y-116900500D01*
X108221161Y-116900500D01*
X108378847Y-116900500D01*
X108378848Y-116900499D01*
X108533500Y-116869737D01*
X108679182Y-116809394D01*
X108810292Y-116721789D01*
X108921792Y-116610289D01*
X109009397Y-116479179D01*
X109051012Y-116378711D01*
X110149500Y-116378711D01*
X110149500Y-116621288D01*
X110181161Y-116861785D01*
X110243947Y-117096104D01*
X110336773Y-117320205D01*
X110336776Y-117320212D01*
X110458064Y-117530289D01*
X110458066Y-117530292D01*
X110458067Y-117530293D01*
X110605733Y-117722736D01*
X110605739Y-117722743D01*
X110777256Y-117894260D01*
X110777263Y-117894266D01*
X110890321Y-117981018D01*
X110969711Y-118041936D01*
X111179788Y-118163224D01*
X111403900Y-118256054D01*
X111638211Y-118318838D01*
X111818586Y-118342584D01*
X111878711Y-118350500D01*
X111878712Y-118350500D01*
X112121289Y-118350500D01*
X112169388Y-118344167D01*
X112361789Y-118318838D01*
X112596100Y-118256054D01*
X112820212Y-118163224D01*
X113030289Y-118041936D01*
X113222738Y-117894265D01*
X113394265Y-117722738D01*
X113541936Y-117530289D01*
X113663224Y-117320212D01*
X113756054Y-117096100D01*
X113818838Y-116861789D01*
X113850500Y-116621288D01*
X113850500Y-116378712D01*
X113818838Y-116138211D01*
X113756054Y-115903900D01*
X113663224Y-115679788D01*
X113541936Y-115469711D01*
X113394265Y-115277262D01*
X113394260Y-115277256D01*
X113222743Y-115105739D01*
X113222736Y-115105733D01*
X113030293Y-114958067D01*
X113030292Y-114958066D01*
X113030289Y-114958064D01*
X112820212Y-114836776D01*
X112772594Y-114817052D01*
X112596104Y-114743947D01*
X112361785Y-114681161D01*
X112121289Y-114649500D01*
X112121288Y-114649500D01*
X111878712Y-114649500D01*
X111878711Y-114649500D01*
X111638214Y-114681161D01*
X111403895Y-114743947D01*
X111179794Y-114836773D01*
X111179785Y-114836777D01*
X110969706Y-114958067D01*
X110777263Y-115105733D01*
X110777256Y-115105739D01*
X110605739Y-115277256D01*
X110605733Y-115277263D01*
X110458067Y-115469706D01*
X110336777Y-115679785D01*
X110336773Y-115679794D01*
X110243947Y-115903895D01*
X110181161Y-116138214D01*
X110149500Y-116378711D01*
X109051012Y-116378711D01*
X109069740Y-116333497D01*
X109100503Y-116178842D01*
X109100503Y-116021158D01*
X109100503Y-116021155D01*
X109100502Y-116021153D01*
X109081161Y-115923920D01*
X109069740Y-115866503D01*
X109033572Y-115779185D01*
X109009400Y-115720828D01*
X109009399Y-115720827D01*
X109009397Y-115720821D01*
X108971399Y-115663953D01*
X108950523Y-115597276D01*
X108950503Y-115595064D01*
X108950503Y-110835931D01*
X108925505Y-110710264D01*
X108925504Y-110710263D01*
X108925504Y-110710259D01*
X108876468Y-110591876D01*
X108805280Y-110485334D01*
X108805278Y-110485332D01*
X108805276Y-110485329D01*
X105986819Y-107666872D01*
X105953334Y-107605549D01*
X105950500Y-107579191D01*
X105950500Y-101159808D01*
X105970185Y-101092769D01*
X106022989Y-101047014D01*
X106092147Y-101037070D01*
X106155703Y-101066095D01*
X106162181Y-101072127D01*
X107550348Y-102460294D01*
X107580596Y-102509652D01*
X107583442Y-102518411D01*
X107679951Y-102707820D01*
X107804890Y-102879786D01*
X107955213Y-103030109D01*
X108127179Y-103155048D01*
X108127181Y-103155049D01*
X108127184Y-103155051D01*
X108316588Y-103251557D01*
X108518757Y-103317246D01*
X108728713Y-103350500D01*
X108728714Y-103350500D01*
X108941286Y-103350500D01*
X108941287Y-103350500D01*
X109151243Y-103317246D01*
X109353412Y-103251557D01*
X109542816Y-103155051D01*
X109714792Y-103030104D01*
X109828329Y-102916566D01*
X109889648Y-102883084D01*
X109959340Y-102888068D01*
X110015274Y-102929939D01*
X110032189Y-102960917D01*
X110081202Y-103092328D01*
X110081206Y-103092335D01*
X110167452Y-103207544D01*
X110167455Y-103207547D01*
X110282664Y-103293793D01*
X110282671Y-103293797D01*
X110417517Y-103344091D01*
X110417516Y-103344091D01*
X110424444Y-103344835D01*
X110477127Y-103350500D01*
X112272872Y-103350499D01*
X112332483Y-103344091D01*
X112467331Y-103293796D01*
X112582546Y-103207546D01*
X112668796Y-103092331D01*
X112719091Y-102957483D01*
X112725500Y-102897873D01*
X112725499Y-101102128D01*
X112719091Y-101042517D01*
X112717810Y-101039083D01*
X112668797Y-100907671D01*
X112668793Y-100907664D01*
X112582547Y-100792455D01*
X112582544Y-100792452D01*
X112467335Y-100706206D01*
X112467328Y-100706202D01*
X112332482Y-100655908D01*
X112332483Y-100655908D01*
X112272883Y-100649501D01*
X112272881Y-100649500D01*
X112272873Y-100649500D01*
X112272865Y-100649500D01*
X111418472Y-100649500D01*
X111351433Y-100629815D01*
X111305678Y-100577011D01*
X111295734Y-100507853D01*
X111324759Y-100444297D01*
X111349582Y-100422398D01*
X111401285Y-100387850D01*
X111440289Y-100361789D01*
X111551789Y-100250289D01*
X111639394Y-100119179D01*
X111699737Y-99973497D01*
X111730500Y-99818842D01*
X111730500Y-99661158D01*
X111730500Y-99661155D01*
X111730499Y-99661153D01*
X111720506Y-99610916D01*
X111699737Y-99506503D01*
X111699563Y-99506082D01*
X111639397Y-99360827D01*
X111639390Y-99360814D01*
X111551789Y-99229711D01*
X111551786Y-99229707D01*
X111440292Y-99118213D01*
X111440288Y-99118210D01*
X111309185Y-99030609D01*
X111309172Y-99030602D01*
X111199110Y-98985014D01*
X111163501Y-98970264D01*
X111163489Y-98970261D01*
X111008845Y-98939500D01*
X111008842Y-98939500D01*
X110851158Y-98939500D01*
X110851155Y-98939500D01*
X110696510Y-98970261D01*
X110696498Y-98970264D01*
X110550827Y-99030602D01*
X110550820Y-99030606D01*
X110521928Y-99049911D01*
X110493955Y-99068602D01*
X110427279Y-99089480D01*
X110425065Y-99089500D01*
X107370808Y-99089500D01*
X107303769Y-99069815D01*
X107283127Y-99053181D01*
X107106486Y-98876540D01*
X111954200Y-98876540D01*
X111954200Y-99023459D01*
X111982858Y-99167534D01*
X111982861Y-99167544D01*
X112039078Y-99303266D01*
X112039083Y-99303275D01*
X112120698Y-99425419D01*
X112120701Y-99425423D01*
X112224576Y-99529298D01*
X112224580Y-99529301D01*
X112346724Y-99610916D01*
X112346730Y-99610919D01*
X112346731Y-99610920D01*
X112482458Y-99667140D01*
X112626540Y-99695799D01*
X112626544Y-99695800D01*
X112626545Y-99695800D01*
X112773456Y-99695800D01*
X112773457Y-99695799D01*
X112917542Y-99667140D01*
X113053269Y-99610920D01*
X113175420Y-99529301D01*
X113279301Y-99425420D01*
X113360920Y-99303269D01*
X113417140Y-99167542D01*
X113445800Y-99023455D01*
X113445800Y-98876545D01*
X113417140Y-98732458D01*
X113360920Y-98596731D01*
X113360919Y-98596730D01*
X113360916Y-98596724D01*
X113279301Y-98474580D01*
X113279298Y-98474576D01*
X113175423Y-98370701D01*
X113175419Y-98370698D01*
X113053275Y-98289083D01*
X113053266Y-98289078D01*
X112917544Y-98232861D01*
X112917545Y-98232861D01*
X112917542Y-98232860D01*
X112917538Y-98232859D01*
X112917534Y-98232858D01*
X112773459Y-98204200D01*
X112773455Y-98204200D01*
X112626545Y-98204200D01*
X112626540Y-98204200D01*
X112482465Y-98232858D01*
X112482455Y-98232861D01*
X112346733Y-98289078D01*
X112346724Y-98289083D01*
X112224580Y-98370698D01*
X112224576Y-98370701D01*
X112120701Y-98474576D01*
X112120698Y-98474580D01*
X112039083Y-98596724D01*
X112039078Y-98596733D01*
X111982861Y-98732455D01*
X111982858Y-98732465D01*
X111954200Y-98876540D01*
X107106486Y-98876540D01*
X106172081Y-97942134D01*
X106090487Y-97860540D01*
X106874200Y-97860540D01*
X106874200Y-98007459D01*
X106902858Y-98151534D01*
X106902861Y-98151544D01*
X106959078Y-98287266D01*
X106959083Y-98287275D01*
X107040698Y-98409419D01*
X107040701Y-98409423D01*
X107144576Y-98513298D01*
X107144580Y-98513301D01*
X107266724Y-98594916D01*
X107266730Y-98594919D01*
X107266731Y-98594920D01*
X107402458Y-98651140D01*
X107521936Y-98674905D01*
X107546540Y-98679799D01*
X107546544Y-98679800D01*
X107546545Y-98679800D01*
X107693456Y-98679800D01*
X107693457Y-98679799D01*
X107837542Y-98651140D01*
X107973269Y-98594920D01*
X108095420Y-98513301D01*
X108199301Y-98409420D01*
X108280920Y-98287269D01*
X108337140Y-98151542D01*
X108365800Y-98007455D01*
X108365800Y-97860545D01*
X108337140Y-97716458D01*
X108280920Y-97580731D01*
X108280919Y-97580730D01*
X108280916Y-97580724D01*
X108199301Y-97458580D01*
X108199298Y-97458576D01*
X108095423Y-97354701D01*
X108095419Y-97354698D01*
X107973275Y-97273083D01*
X107973266Y-97273078D01*
X107837544Y-97216861D01*
X107837545Y-97216861D01*
X107837542Y-97216860D01*
X107837538Y-97216859D01*
X107837534Y-97216858D01*
X107693459Y-97188200D01*
X107693455Y-97188200D01*
X107546545Y-97188200D01*
X107546540Y-97188200D01*
X107402465Y-97216858D01*
X107402455Y-97216861D01*
X107266733Y-97273078D01*
X107266724Y-97273083D01*
X107144580Y-97354698D01*
X107144576Y-97354701D01*
X107040701Y-97458576D01*
X107040698Y-97458580D01*
X106959083Y-97580724D01*
X106959078Y-97580733D01*
X106902861Y-97716455D01*
X106902858Y-97716465D01*
X106874200Y-97860540D01*
X106090487Y-97860540D01*
X105294673Y-97064726D01*
X105294669Y-97064723D01*
X105188127Y-96993535D01*
X105183115Y-96991459D01*
X105090301Y-96953014D01*
X105090299Y-96953013D01*
X105069748Y-96944500D01*
X105069738Y-96944497D01*
X104944071Y-96919500D01*
X104944069Y-96919500D01*
X102685931Y-96919500D01*
X102685929Y-96919500D01*
X102560261Y-96944497D01*
X102560255Y-96944499D01*
X102441870Y-96993535D01*
X102335331Y-97064722D01*
X102335324Y-97064728D01*
X102034261Y-97365791D01*
X101972938Y-97399276D01*
X101903246Y-97394292D01*
X101847313Y-97352420D01*
X101843478Y-97347001D01*
X101771789Y-97239710D01*
X101660292Y-97128213D01*
X101660288Y-97128210D01*
X101529185Y-97040609D01*
X101529172Y-97040602D01*
X101383501Y-96980264D01*
X101383489Y-96980261D01*
X101228847Y-96949500D01*
X101224782Y-96949100D01*
X101159995Y-96922939D01*
X101123594Y-96871498D01*
X101122068Y-96872131D01*
X101110640Y-96844540D01*
X111954200Y-96844540D01*
X111954200Y-96991459D01*
X111982858Y-97135534D01*
X111982861Y-97135544D01*
X112039078Y-97271266D01*
X112039083Y-97271275D01*
X112120698Y-97393419D01*
X112120701Y-97393423D01*
X112224576Y-97497298D01*
X112224580Y-97497301D01*
X112346724Y-97578916D01*
X112346730Y-97578919D01*
X112346731Y-97578920D01*
X112482458Y-97635140D01*
X112626540Y-97663799D01*
X112626544Y-97663800D01*
X112626545Y-97663800D01*
X112773456Y-97663800D01*
X112773457Y-97663799D01*
X112917542Y-97635140D01*
X113053269Y-97578920D01*
X113175420Y-97497301D01*
X113279301Y-97393420D01*
X113360920Y-97271269D01*
X113417140Y-97135542D01*
X113445800Y-96991455D01*
X113445800Y-96844545D01*
X113417140Y-96700458D01*
X113360920Y-96564731D01*
X113360919Y-96564730D01*
X113360916Y-96564724D01*
X113279301Y-96442580D01*
X113279298Y-96442576D01*
X113175423Y-96338701D01*
X113175419Y-96338698D01*
X113053275Y-96257083D01*
X113053266Y-96257078D01*
X112917544Y-96200861D01*
X112917545Y-96200861D01*
X112917542Y-96200860D01*
X112917538Y-96200859D01*
X112917534Y-96200858D01*
X112773459Y-96172200D01*
X112773455Y-96172200D01*
X112626545Y-96172200D01*
X112626540Y-96172200D01*
X112482465Y-96200858D01*
X112482455Y-96200861D01*
X112346733Y-96257078D01*
X112346724Y-96257083D01*
X112224580Y-96338698D01*
X112224576Y-96338701D01*
X112120701Y-96442576D01*
X112120698Y-96442580D01*
X112039083Y-96564724D01*
X112039078Y-96564733D01*
X111982861Y-96700455D01*
X111982858Y-96700465D01*
X111954200Y-96844540D01*
X101110640Y-96844540D01*
X101059397Y-96720827D01*
X101059390Y-96720814D01*
X100971789Y-96589711D01*
X100971786Y-96589707D01*
X100860292Y-96478213D01*
X100860288Y-96478210D01*
X100729185Y-96390609D01*
X100729172Y-96390602D01*
X100583501Y-96330264D01*
X100583489Y-96330261D01*
X100516420Y-96316920D01*
X100454509Y-96284535D01*
X100452930Y-96282984D01*
X97823126Y-93653180D01*
X97789641Y-93591857D01*
X97794625Y-93522165D01*
X97836497Y-93466232D01*
X97863354Y-93450938D01*
X97891812Y-93439150D01*
X97964246Y-93390750D01*
X98037661Y-93341697D01*
X98161697Y-93217661D01*
X98259151Y-93071810D01*
X98326279Y-92909749D01*
X98360500Y-92737707D01*
X98360500Y-92650000D01*
X98360500Y-92576706D01*
X98360500Y-92465931D01*
X98360500Y-92442293D01*
X98326279Y-92270251D01*
X98259151Y-92108190D01*
X98226210Y-92058891D01*
X98205332Y-91992215D01*
X98223816Y-91924835D01*
X98226211Y-91921108D01*
X98259146Y-91871817D01*
X98259151Y-91871810D01*
X98326279Y-91709749D01*
X98360500Y-91537707D01*
X98360500Y-91450000D01*
X98360500Y-91376706D01*
X98360500Y-91265931D01*
X98360500Y-91242293D01*
X98326279Y-91070251D01*
X98259151Y-90908190D01*
X98226210Y-90858891D01*
X98205332Y-90792215D01*
X98223816Y-90724835D01*
X98226211Y-90721108D01*
X98259146Y-90671817D01*
X98259151Y-90671810D01*
X98326279Y-90509749D01*
X98360500Y-90337707D01*
X98360500Y-90250000D01*
X98360500Y-90176706D01*
X98360500Y-90065931D01*
X98360500Y-90042293D01*
X98326279Y-89870251D01*
X98259151Y-89708190D01*
X98226210Y-89658891D01*
X98205332Y-89592215D01*
X98223816Y-89524835D01*
X98226211Y-89521108D01*
X98259146Y-89471817D01*
X98259151Y-89471810D01*
X98326279Y-89309749D01*
X98360500Y-89137707D01*
X98360500Y-89050000D01*
X98360500Y-88976706D01*
X98360500Y-88865931D01*
X98360500Y-88842293D01*
X98326279Y-88670251D01*
X98259151Y-88508190D01*
X98259150Y-88508187D01*
X98161700Y-88362343D01*
X98161694Y-88362335D01*
X98037664Y-88238305D01*
X98037656Y-88238299D01*
X97891811Y-88140849D01*
X97727047Y-88072601D01*
X97711481Y-88060057D01*
X97693297Y-88051753D01*
X97684832Y-88038582D01*
X97672644Y-88028760D01*
X97666331Y-88009793D01*
X97655523Y-87992975D01*
X97651560Y-87965412D01*
X97650579Y-87962465D01*
X97650500Y-87958040D01*
X97650500Y-87804935D01*
X97670185Y-87737896D01*
X97671366Y-87736090D01*
X97709394Y-87679179D01*
X97769737Y-87533497D01*
X97800500Y-87378842D01*
X97800500Y-87221158D01*
X97800500Y-87221155D01*
X97800499Y-87221153D01*
X97769738Y-87066510D01*
X97769737Y-87066503D01*
X97709394Y-86920821D01*
X97674694Y-86868889D01*
X97653816Y-86802215D01*
X97672300Y-86734835D01*
X97674676Y-86731136D01*
X97709394Y-86679179D01*
X97769737Y-86533497D01*
X97800500Y-86378842D01*
X97800500Y-86221158D01*
X97800500Y-86221155D01*
X97800499Y-86221153D01*
X97769738Y-86066510D01*
X97769738Y-86066508D01*
X97769737Y-86066503D01*
X97769735Y-86066498D01*
X97709397Y-85920827D01*
X97709390Y-85920814D01*
X97621789Y-85789711D01*
X97621786Y-85789707D01*
X97510292Y-85678213D01*
X97510288Y-85678210D01*
X97379185Y-85590609D01*
X97379172Y-85590602D01*
X97233501Y-85530264D01*
X97233489Y-85530261D01*
X97078845Y-85499500D01*
X97078842Y-85499500D01*
X96921158Y-85499500D01*
X96921155Y-85499500D01*
X96766510Y-85530261D01*
X96766498Y-85530264D01*
X96620827Y-85590602D01*
X96620814Y-85590609D01*
X96489711Y-85678210D01*
X96489707Y-85678213D01*
X96378213Y-85789707D01*
X96378210Y-85789711D01*
X96290609Y-85920814D01*
X96290602Y-85920827D01*
X96230264Y-86066498D01*
X96230261Y-86066508D01*
X96216920Y-86133579D01*
X96184535Y-86195490D01*
X96182984Y-86197068D01*
X95844725Y-86535328D01*
X95844722Y-86535332D01*
X95807789Y-86590605D01*
X95807790Y-86590606D01*
X95773534Y-86641874D01*
X95724499Y-86760255D01*
X95724497Y-86760261D01*
X95699500Y-86885928D01*
X95699500Y-86885931D01*
X95699500Y-94083308D01*
X95699500Y-94083310D01*
X95699499Y-94083310D01*
X95724497Y-94208977D01*
X95724499Y-94208983D01*
X95773534Y-94327364D01*
X95844726Y-94433912D01*
X95844727Y-94433913D01*
X96127508Y-94716693D01*
X96160993Y-94778016D01*
X96156009Y-94847707D01*
X96114138Y-94903641D01*
X96087280Y-94918935D01*
X96010824Y-94950604D01*
X96010814Y-94950609D01*
X95879711Y-95038210D01*
X95879707Y-95038213D01*
X95768213Y-95149707D01*
X95768210Y-95149711D01*
X95680609Y-95280814D01*
X95680602Y-95280827D01*
X95620264Y-95426498D01*
X95620261Y-95426510D01*
X95589500Y-95581153D01*
X83500500Y-95581153D01*
X83500500Y-85003051D01*
X83500649Y-84996966D01*
X83506459Y-84878711D01*
X85149500Y-84878711D01*
X85149500Y-85121288D01*
X85181161Y-85361785D01*
X85243947Y-85596104D01*
X85277957Y-85678210D01*
X85336776Y-85820212D01*
X85458064Y-86030289D01*
X85458066Y-86030292D01*
X85458067Y-86030293D01*
X85605733Y-86222736D01*
X85605739Y-86222743D01*
X85777256Y-86394260D01*
X85777262Y-86394265D01*
X85969711Y-86541936D01*
X86179788Y-86663224D01*
X86403900Y-86756054D01*
X86638211Y-86818838D01*
X86818586Y-86842584D01*
X86878711Y-86850500D01*
X86878712Y-86850500D01*
X87121289Y-86850500D01*
X87169388Y-86844167D01*
X87361789Y-86818838D01*
X87596100Y-86756054D01*
X87820212Y-86663224D01*
X88030289Y-86541936D01*
X88222738Y-86394265D01*
X88394265Y-86222738D01*
X88541936Y-86030289D01*
X88663224Y-85820212D01*
X88756054Y-85596100D01*
X88818838Y-85361789D01*
X88850500Y-85121288D01*
X88850500Y-84878712D01*
X88850500Y-84878711D01*
X110149500Y-84878711D01*
X110149500Y-85121288D01*
X110181161Y-85361785D01*
X110243947Y-85596104D01*
X110277957Y-85678210D01*
X110336776Y-85820212D01*
X110458064Y-86030289D01*
X110458066Y-86030292D01*
X110458067Y-86030293D01*
X110605733Y-86222736D01*
X110605739Y-86222743D01*
X110777256Y-86394260D01*
X110777262Y-86394265D01*
X110969711Y-86541936D01*
X111179788Y-86663224D01*
X111403900Y-86756054D01*
X111638211Y-86818838D01*
X111818586Y-86842584D01*
X111878711Y-86850500D01*
X111878712Y-86850500D01*
X112121289Y-86850500D01*
X112169388Y-86844167D01*
X112361789Y-86818838D01*
X112596100Y-86756054D01*
X112820212Y-86663224D01*
X113030289Y-86541936D01*
X113222738Y-86394265D01*
X113394265Y-86222738D01*
X113541936Y-86030289D01*
X113663224Y-85820212D01*
X113756054Y-85596100D01*
X113818838Y-85361789D01*
X113850500Y-85121288D01*
X113850500Y-84878712D01*
X113849164Y-84868567D01*
X113822111Y-84663072D01*
X113818838Y-84638211D01*
X113756054Y-84403900D01*
X113663224Y-84179788D01*
X113541936Y-83969711D01*
X113394265Y-83777262D01*
X113394260Y-83777256D01*
X113222743Y-83605739D01*
X113222736Y-83605733D01*
X113030293Y-83458067D01*
X113030292Y-83458066D01*
X113030289Y-83458064D01*
X112820212Y-83336776D01*
X112820205Y-83336773D01*
X112596104Y-83243947D01*
X112361785Y-83181161D01*
X112121289Y-83149500D01*
X112121288Y-83149500D01*
X111878712Y-83149500D01*
X111878711Y-83149500D01*
X111638214Y-83181161D01*
X111403895Y-83243947D01*
X111179794Y-83336773D01*
X111179785Y-83336777D01*
X110969706Y-83458067D01*
X110777263Y-83605733D01*
X110777256Y-83605739D01*
X110605739Y-83777256D01*
X110605733Y-83777263D01*
X110458067Y-83969706D01*
X110336777Y-84179785D01*
X110336773Y-84179794D01*
X110243947Y-84403895D01*
X110181161Y-84638214D01*
X110149500Y-84878711D01*
X88850500Y-84878711D01*
X88849164Y-84868567D01*
X88822111Y-84663072D01*
X88818838Y-84638211D01*
X88756054Y-84403900D01*
X88663224Y-84179788D01*
X88541936Y-83969711D01*
X88394265Y-83777262D01*
X88394260Y-83777256D01*
X88222743Y-83605739D01*
X88222736Y-83605733D01*
X88030293Y-83458067D01*
X88030292Y-83458066D01*
X88030289Y-83458064D01*
X87820212Y-83336776D01*
X87820205Y-83336773D01*
X87596104Y-83243947D01*
X87361785Y-83181161D01*
X87121289Y-83149500D01*
X87121288Y-83149500D01*
X86878712Y-83149500D01*
X86878711Y-83149500D01*
X86638214Y-83181161D01*
X86403895Y-83243947D01*
X86179794Y-83336773D01*
X86179785Y-83336777D01*
X85969706Y-83458067D01*
X85777263Y-83605733D01*
X85777256Y-83605739D01*
X85605739Y-83777256D01*
X85605733Y-83777263D01*
X85458067Y-83969706D01*
X85336777Y-84179785D01*
X85336773Y-84179794D01*
X85243947Y-84403895D01*
X85181161Y-84638214D01*
X85149500Y-84878711D01*
X83506459Y-84878711D01*
X83506957Y-84868568D01*
X83506957Y-84868567D01*
X83517052Y-84663072D01*
X83518245Y-84650962D01*
X83520136Y-84638211D01*
X83566849Y-84323296D01*
X83569218Y-84311385D01*
X83649710Y-83990043D01*
X83653240Y-83978411D01*
X83725212Y-83777263D01*
X83764835Y-83666525D01*
X83769476Y-83655318D01*
X83911124Y-83355828D01*
X83916840Y-83345136D01*
X84087145Y-83060998D01*
X84093888Y-83050905D01*
X84291232Y-82784818D01*
X84298935Y-82775433D01*
X84521405Y-82529975D01*
X84529975Y-82521405D01*
X84775433Y-82298935D01*
X84784818Y-82291232D01*
X85050905Y-82093888D01*
X85060998Y-82087145D01*
X85345136Y-81916840D01*
X85355828Y-81911124D01*
X85655318Y-81769476D01*
X85666525Y-81764835D01*
X85978412Y-81653239D01*
X85990043Y-81649710D01*
X86311385Y-81569218D01*
X86323296Y-81566849D01*
X86650962Y-81518244D01*
X86663068Y-81517052D01*
X86996967Y-81500648D01*
X87003051Y-81500500D01*
X87065892Y-81500500D01*
X111834108Y-81500500D01*
X111896949Y-81500500D01*
X111903032Y-81500648D01*
G37*
G04 #@! TD.AperFunction*
G04 #@! TA.AperFunction,NonConductor*
G36*
X110492104Y-100410185D02*
G01*
X110493956Y-100411398D01*
X110514431Y-100425079D01*
X110559236Y-100478691D01*
X110567943Y-100548016D01*
X110537789Y-100611044D01*
X110478345Y-100647763D01*
X110458795Y-100651470D01*
X110417520Y-100655907D01*
X110282671Y-100706202D01*
X110282664Y-100706206D01*
X110167455Y-100792452D01*
X110167452Y-100792455D01*
X110081206Y-100907664D01*
X110081203Y-100907669D01*
X110032189Y-101039083D01*
X109990317Y-101095016D01*
X109924853Y-101119433D01*
X109856580Y-101104581D01*
X109828326Y-101083430D01*
X109714786Y-100969890D01*
X109542820Y-100844951D01*
X109353414Y-100748444D01*
X109353413Y-100748443D01*
X109353412Y-100748443D01*
X109151243Y-100682754D01*
X109151241Y-100682753D01*
X109151240Y-100682753D01*
X108989957Y-100657208D01*
X108941287Y-100649500D01*
X108728713Y-100649500D01*
X108680042Y-100657208D01*
X108518760Y-100682753D01*
X108316585Y-100748444D01*
X108127184Y-100844948D01*
X108008819Y-100930945D01*
X107943012Y-100954424D01*
X107874958Y-100938598D01*
X107848253Y-100918307D01*
X107532127Y-100602181D01*
X107498642Y-100540858D01*
X107503626Y-100471166D01*
X107545498Y-100415233D01*
X107610962Y-100390816D01*
X107619808Y-100390500D01*
X110425065Y-100390500D01*
X110492104Y-100410185D01*
G37*
G04 #@! TD.AperFunction*
M02*
