G04 #@! TF.GenerationSoftware,KiCad,Pcbnew,9.0.0*
G04 #@! TF.CreationDate,2025-03-18T22:32:34-07:00*
G04 #@! TF.ProjectId,steering wheel v4,73746565-7269-46e6-9720-776865656c20,B*
G04 #@! TF.SameCoordinates,Original*
G04 #@! TF.FileFunction,Legend,Bot*
G04 #@! TF.FilePolarity,Positive*
%FSLAX46Y46*%
G04 Gerber Fmt 4.6, Leading zero omitted, Abs format (unit mm)*
G04 Created by KiCad (PCBNEW 9.0.0) date 2025-03-18 22:32:34*
%MOMM*%
%LPD*%
G01*
G04 APERTURE LIST*
G04 Aperture macros list*
%AMRoundRect*
0 Rectangle with rounded corners*
0 $1 Rounding radius*
0 $2 $3 $4 $5 $6 $7 $8 $9 X,Y pos of 4 corners*
0 Add a 4 corners polygon primitive as box body*
4,1,4,$2,$3,$4,$5,$6,$7,$8,$9,$2,$3,0*
0 Add four circle primitives for the rounded corners*
1,1,$1+$1,$2,$3*
1,1,$1+$1,$4,$5*
1,1,$1+$1,$6,$7*
1,1,$1+$1,$8,$9*
0 Add four rect primitives between the rounded corners*
20,1,$1+$1,$2,$3,$4,$5,0*
20,1,$1+$1,$4,$5,$6,$7,0*
20,1,$1+$1,$6,$7,$8,$9,0*
20,1,$1+$1,$8,$9,$2,$3,0*%
G04 Aperture macros list end*
%ADD10C,0.100000*%
%ADD11C,0.150000*%
%ADD12C,0.120000*%
%ADD13C,3.200000*%
%ADD14R,1.700000X1.700000*%
%ADD15O,1.700000X1.700000*%
%ADD16O,1.200000X1.900000*%
%ADD17C,1.450000*%
%ADD18C,1.100000*%
%ADD19R,0.800000X3.000000*%
%ADD20RoundRect,0.250000X-0.600000X-0.725000X0.600000X-0.725000X0.600000X0.725000X-0.600000X0.725000X0*%
%ADD21O,1.700000X1.950000*%
%ADD22RoundRect,0.250000X-0.750000X0.600000X-0.750000X-0.600000X0.750000X-0.600000X0.750000X0.600000X0*%
%ADD23O,2.000000X1.700000*%
%ADD24C,0.990600*%
%ADD25RoundRect,0.250000X0.750000X-0.600000X0.750000X0.600000X-0.750000X0.600000X-0.750000X-0.600000X0*%
%ADD26C,0.787400*%
G04 APERTURE END LIST*
D10*
X160767544Y-33872419D02*
X160767544Y-32872419D01*
X160767544Y-33824800D02*
X160862782Y-33872419D01*
X160862782Y-33872419D02*
X161053258Y-33872419D01*
X161053258Y-33872419D02*
X161148496Y-33824800D01*
X161148496Y-33824800D02*
X161196115Y-33777180D01*
X161196115Y-33777180D02*
X161243734Y-33681942D01*
X161243734Y-33681942D02*
X161243734Y-33396228D01*
X161243734Y-33396228D02*
X161196115Y-33300990D01*
X161196115Y-33300990D02*
X161148496Y-33253371D01*
X161148496Y-33253371D02*
X161053258Y-33205752D01*
X161053258Y-33205752D02*
X160862782Y-33205752D01*
X160862782Y-33205752D02*
X160767544Y-33253371D01*
X160291353Y-33872419D02*
X160291353Y-33205752D01*
X160291353Y-32872419D02*
X160338972Y-32920038D01*
X160338972Y-32920038D02*
X160291353Y-32967657D01*
X160291353Y-32967657D02*
X160243734Y-32920038D01*
X160243734Y-32920038D02*
X160291353Y-32872419D01*
X160291353Y-32872419D02*
X160291353Y-32967657D01*
X159386592Y-33205752D02*
X159386592Y-34015276D01*
X159386592Y-34015276D02*
X159434211Y-34110514D01*
X159434211Y-34110514D02*
X159481830Y-34158133D01*
X159481830Y-34158133D02*
X159577068Y-34205752D01*
X159577068Y-34205752D02*
X159719925Y-34205752D01*
X159719925Y-34205752D02*
X159815163Y-34158133D01*
X159386592Y-33824800D02*
X159481830Y-33872419D01*
X159481830Y-33872419D02*
X159672306Y-33872419D01*
X159672306Y-33872419D02*
X159767544Y-33824800D01*
X159767544Y-33824800D02*
X159815163Y-33777180D01*
X159815163Y-33777180D02*
X159862782Y-33681942D01*
X159862782Y-33681942D02*
X159862782Y-33396228D01*
X159862782Y-33396228D02*
X159815163Y-33300990D01*
X159815163Y-33300990D02*
X159767544Y-33253371D01*
X159767544Y-33253371D02*
X159672306Y-33205752D01*
X159672306Y-33205752D02*
X159481830Y-33205752D01*
X159481830Y-33205752D02*
X159386592Y-33253371D01*
X158910401Y-33872419D02*
X158910401Y-33205752D01*
X158910401Y-32872419D02*
X158958020Y-32920038D01*
X158958020Y-32920038D02*
X158910401Y-32967657D01*
X158910401Y-32967657D02*
X158862782Y-32920038D01*
X158862782Y-32920038D02*
X158910401Y-32872419D01*
X158910401Y-32872419D02*
X158910401Y-32967657D01*
X158577068Y-33205752D02*
X158196116Y-33205752D01*
X158434211Y-32872419D02*
X158434211Y-33729561D01*
X158434211Y-33729561D02*
X158386592Y-33824800D01*
X158386592Y-33824800D02*
X158291354Y-33872419D01*
X158291354Y-33872419D02*
X158196116Y-33872419D01*
X157434211Y-33872419D02*
X157434211Y-33348609D01*
X157434211Y-33348609D02*
X157481830Y-33253371D01*
X157481830Y-33253371D02*
X157577068Y-33205752D01*
X157577068Y-33205752D02*
X157767544Y-33205752D01*
X157767544Y-33205752D02*
X157862782Y-33253371D01*
X157434211Y-33824800D02*
X157529449Y-33872419D01*
X157529449Y-33872419D02*
X157767544Y-33872419D01*
X157767544Y-33872419D02*
X157862782Y-33824800D01*
X157862782Y-33824800D02*
X157910401Y-33729561D01*
X157910401Y-33729561D02*
X157910401Y-33634323D01*
X157910401Y-33634323D02*
X157862782Y-33539085D01*
X157862782Y-33539085D02*
X157767544Y-33491466D01*
X157767544Y-33491466D02*
X157529449Y-33491466D01*
X157529449Y-33491466D02*
X157434211Y-33443847D01*
X156815163Y-33872419D02*
X156910401Y-33824800D01*
X156910401Y-33824800D02*
X156958020Y-33729561D01*
X156958020Y-33729561D02*
X156958020Y-32872419D01*
X155672305Y-33205752D02*
X155672305Y-34062895D01*
X155672305Y-34062895D02*
X155719924Y-34158133D01*
X155719924Y-34158133D02*
X155815162Y-34205752D01*
X155815162Y-34205752D02*
X155862781Y-34205752D01*
X155672305Y-32872419D02*
X155719924Y-32920038D01*
X155719924Y-32920038D02*
X155672305Y-32967657D01*
X155672305Y-32967657D02*
X155624686Y-32920038D01*
X155624686Y-32920038D02*
X155672305Y-32872419D01*
X155672305Y-32872419D02*
X155672305Y-32967657D01*
X154815163Y-33824800D02*
X154910401Y-33872419D01*
X154910401Y-33872419D02*
X155100877Y-33872419D01*
X155100877Y-33872419D02*
X155196115Y-33824800D01*
X155196115Y-33824800D02*
X155243734Y-33729561D01*
X155243734Y-33729561D02*
X155243734Y-33348609D01*
X155243734Y-33348609D02*
X155196115Y-33253371D01*
X155196115Y-33253371D02*
X155100877Y-33205752D01*
X155100877Y-33205752D02*
X154910401Y-33205752D01*
X154910401Y-33205752D02*
X154815163Y-33253371D01*
X154815163Y-33253371D02*
X154767544Y-33348609D01*
X154767544Y-33348609D02*
X154767544Y-33443847D01*
X154767544Y-33443847D02*
X155243734Y-33539085D01*
X154386591Y-33824800D02*
X154291353Y-33872419D01*
X154291353Y-33872419D02*
X154100877Y-33872419D01*
X154100877Y-33872419D02*
X154005639Y-33824800D01*
X154005639Y-33824800D02*
X153958020Y-33729561D01*
X153958020Y-33729561D02*
X153958020Y-33681942D01*
X153958020Y-33681942D02*
X154005639Y-33586704D01*
X154005639Y-33586704D02*
X154100877Y-33539085D01*
X154100877Y-33539085D02*
X154243734Y-33539085D01*
X154243734Y-33539085D02*
X154338972Y-33491466D01*
X154338972Y-33491466D02*
X154386591Y-33396228D01*
X154386591Y-33396228D02*
X154386591Y-33348609D01*
X154386591Y-33348609D02*
X154338972Y-33253371D01*
X154338972Y-33253371D02*
X154243734Y-33205752D01*
X154243734Y-33205752D02*
X154100877Y-33205752D01*
X154100877Y-33205752D02*
X154005639Y-33253371D01*
X153100877Y-33205752D02*
X153100877Y-33872419D01*
X153529448Y-33205752D02*
X153529448Y-33729561D01*
X153529448Y-33729561D02*
X153481829Y-33824800D01*
X153481829Y-33824800D02*
X153386591Y-33872419D01*
X153386591Y-33872419D02*
X153243734Y-33872419D01*
X153243734Y-33872419D02*
X153148496Y-33824800D01*
X153148496Y-33824800D02*
X153100877Y-33777180D01*
X152672305Y-33824800D02*
X152577067Y-33872419D01*
X152577067Y-33872419D02*
X152386591Y-33872419D01*
X152386591Y-33872419D02*
X152291353Y-33824800D01*
X152291353Y-33824800D02*
X152243734Y-33729561D01*
X152243734Y-33729561D02*
X152243734Y-33681942D01*
X152243734Y-33681942D02*
X152291353Y-33586704D01*
X152291353Y-33586704D02*
X152386591Y-33539085D01*
X152386591Y-33539085D02*
X152529448Y-33539085D01*
X152529448Y-33539085D02*
X152624686Y-33491466D01*
X152624686Y-33491466D02*
X152672305Y-33396228D01*
X152672305Y-33396228D02*
X152672305Y-33348609D01*
X152672305Y-33348609D02*
X152624686Y-33253371D01*
X152624686Y-33253371D02*
X152529448Y-33205752D01*
X152529448Y-33205752D02*
X152386591Y-33205752D01*
X152386591Y-33205752D02*
X152291353Y-33253371D01*
X151196114Y-33205752D02*
X150815162Y-33205752D01*
X151053257Y-32872419D02*
X151053257Y-33729561D01*
X151053257Y-33729561D02*
X151005638Y-33824800D01*
X151005638Y-33824800D02*
X150910400Y-33872419D01*
X150910400Y-33872419D02*
X150815162Y-33872419D01*
X150053257Y-33872419D02*
X150053257Y-33348609D01*
X150053257Y-33348609D02*
X150100876Y-33253371D01*
X150100876Y-33253371D02*
X150196114Y-33205752D01*
X150196114Y-33205752D02*
X150386590Y-33205752D01*
X150386590Y-33205752D02*
X150481828Y-33253371D01*
X150053257Y-33824800D02*
X150148495Y-33872419D01*
X150148495Y-33872419D02*
X150386590Y-33872419D01*
X150386590Y-33872419D02*
X150481828Y-33824800D01*
X150481828Y-33824800D02*
X150529447Y-33729561D01*
X150529447Y-33729561D02*
X150529447Y-33634323D01*
X150529447Y-33634323D02*
X150481828Y-33539085D01*
X150481828Y-33539085D02*
X150386590Y-33491466D01*
X150386590Y-33491466D02*
X150148495Y-33491466D01*
X150148495Y-33491466D02*
X150053257Y-33443847D01*
X149577066Y-33872419D02*
X149577066Y-32872419D01*
X149481828Y-33491466D02*
X149196114Y-33872419D01*
X149196114Y-33205752D02*
X149577066Y-33586704D01*
X148386590Y-33824800D02*
X148481828Y-33872419D01*
X148481828Y-33872419D02*
X148672304Y-33872419D01*
X148672304Y-33872419D02*
X148767542Y-33824800D01*
X148767542Y-33824800D02*
X148815161Y-33729561D01*
X148815161Y-33729561D02*
X148815161Y-33348609D01*
X148815161Y-33348609D02*
X148767542Y-33253371D01*
X148767542Y-33253371D02*
X148672304Y-33205752D01*
X148672304Y-33205752D02*
X148481828Y-33205752D01*
X148481828Y-33205752D02*
X148386590Y-33253371D01*
X148386590Y-33253371D02*
X148338971Y-33348609D01*
X148338971Y-33348609D02*
X148338971Y-33443847D01*
X148338971Y-33443847D02*
X148815161Y-33539085D01*
X147291351Y-33205752D02*
X146910399Y-33205752D01*
X147148494Y-32872419D02*
X147148494Y-33729561D01*
X147148494Y-33729561D02*
X147100875Y-33824800D01*
X147100875Y-33824800D02*
X147005637Y-33872419D01*
X147005637Y-33872419D02*
X146910399Y-33872419D01*
X146577065Y-33872419D02*
X146577065Y-32872419D01*
X146148494Y-33872419D02*
X146148494Y-33348609D01*
X146148494Y-33348609D02*
X146196113Y-33253371D01*
X146196113Y-33253371D02*
X146291351Y-33205752D01*
X146291351Y-33205752D02*
X146434208Y-33205752D01*
X146434208Y-33205752D02*
X146529446Y-33253371D01*
X146529446Y-33253371D02*
X146577065Y-33300990D01*
X145291351Y-33824800D02*
X145386589Y-33872419D01*
X145386589Y-33872419D02*
X145577065Y-33872419D01*
X145577065Y-33872419D02*
X145672303Y-33824800D01*
X145672303Y-33824800D02*
X145719922Y-33729561D01*
X145719922Y-33729561D02*
X145719922Y-33348609D01*
X145719922Y-33348609D02*
X145672303Y-33253371D01*
X145672303Y-33253371D02*
X145577065Y-33205752D01*
X145577065Y-33205752D02*
X145386589Y-33205752D01*
X145386589Y-33205752D02*
X145291351Y-33253371D01*
X145291351Y-33253371D02*
X145243732Y-33348609D01*
X145243732Y-33348609D02*
X145243732Y-33443847D01*
X145243732Y-33443847D02*
X145719922Y-33539085D01*
X144148493Y-33205752D02*
X143958017Y-33872419D01*
X143958017Y-33872419D02*
X143767541Y-33396228D01*
X143767541Y-33396228D02*
X143577065Y-33872419D01*
X143577065Y-33872419D02*
X143386589Y-33205752D01*
X143005636Y-33872419D02*
X143005636Y-32872419D01*
X142577065Y-33872419D02*
X142577065Y-33348609D01*
X142577065Y-33348609D02*
X142624684Y-33253371D01*
X142624684Y-33253371D02*
X142719922Y-33205752D01*
X142719922Y-33205752D02*
X142862779Y-33205752D01*
X142862779Y-33205752D02*
X142958017Y-33253371D01*
X142958017Y-33253371D02*
X143005636Y-33300990D01*
X141719922Y-33824800D02*
X141815160Y-33872419D01*
X141815160Y-33872419D02*
X142005636Y-33872419D01*
X142005636Y-33872419D02*
X142100874Y-33824800D01*
X142100874Y-33824800D02*
X142148493Y-33729561D01*
X142148493Y-33729561D02*
X142148493Y-33348609D01*
X142148493Y-33348609D02*
X142100874Y-33253371D01*
X142100874Y-33253371D02*
X142005636Y-33205752D01*
X142005636Y-33205752D02*
X141815160Y-33205752D01*
X141815160Y-33205752D02*
X141719922Y-33253371D01*
X141719922Y-33253371D02*
X141672303Y-33348609D01*
X141672303Y-33348609D02*
X141672303Y-33443847D01*
X141672303Y-33443847D02*
X142148493Y-33539085D01*
X140862779Y-33824800D02*
X140958017Y-33872419D01*
X140958017Y-33872419D02*
X141148493Y-33872419D01*
X141148493Y-33872419D02*
X141243731Y-33824800D01*
X141243731Y-33824800D02*
X141291350Y-33729561D01*
X141291350Y-33729561D02*
X141291350Y-33348609D01*
X141291350Y-33348609D02*
X141243731Y-33253371D01*
X141243731Y-33253371D02*
X141148493Y-33205752D01*
X141148493Y-33205752D02*
X140958017Y-33205752D01*
X140958017Y-33205752D02*
X140862779Y-33253371D01*
X140862779Y-33253371D02*
X140815160Y-33348609D01*
X140815160Y-33348609D02*
X140815160Y-33443847D01*
X140815160Y-33443847D02*
X141291350Y-33539085D01*
X140243731Y-33872419D02*
X140338969Y-33824800D01*
X140338969Y-33824800D02*
X140386588Y-33729561D01*
X140386588Y-33729561D02*
X140386588Y-32872419D01*
X160267544Y-123555808D02*
X160267544Y-124365332D01*
X160267544Y-124365332D02*
X160315163Y-124460570D01*
X160315163Y-124460570D02*
X160362782Y-124508189D01*
X160362782Y-124508189D02*
X160458020Y-124555808D01*
X160458020Y-124555808D02*
X160600877Y-124555808D01*
X160600877Y-124555808D02*
X160696115Y-124508189D01*
X160267544Y-124174856D02*
X160362782Y-124222475D01*
X160362782Y-124222475D02*
X160553258Y-124222475D01*
X160553258Y-124222475D02*
X160648496Y-124174856D01*
X160648496Y-124174856D02*
X160696115Y-124127236D01*
X160696115Y-124127236D02*
X160743734Y-124031998D01*
X160743734Y-124031998D02*
X160743734Y-123746284D01*
X160743734Y-123746284D02*
X160696115Y-123651046D01*
X160696115Y-123651046D02*
X160648496Y-123603427D01*
X160648496Y-123603427D02*
X160553258Y-123555808D01*
X160553258Y-123555808D02*
X160362782Y-123555808D01*
X160362782Y-123555808D02*
X160267544Y-123603427D01*
X159648496Y-124222475D02*
X159743734Y-124174856D01*
X159743734Y-124174856D02*
X159791353Y-124127236D01*
X159791353Y-124127236D02*
X159838972Y-124031998D01*
X159838972Y-124031998D02*
X159838972Y-123746284D01*
X159838972Y-123746284D02*
X159791353Y-123651046D01*
X159791353Y-123651046D02*
X159743734Y-123603427D01*
X159743734Y-123603427D02*
X159648496Y-123555808D01*
X159648496Y-123555808D02*
X159505639Y-123555808D01*
X159505639Y-123555808D02*
X159410401Y-123603427D01*
X159410401Y-123603427D02*
X159362782Y-123651046D01*
X159362782Y-123651046D02*
X159315163Y-123746284D01*
X159315163Y-123746284D02*
X159315163Y-124031998D01*
X159315163Y-124031998D02*
X159362782Y-124127236D01*
X159362782Y-124127236D02*
X159410401Y-124174856D01*
X159410401Y-124174856D02*
X159505639Y-124222475D01*
X159505639Y-124222475D02*
X159648496Y-124222475D01*
X158267543Y-123555808D02*
X157886591Y-123555808D01*
X158124686Y-123222475D02*
X158124686Y-124079617D01*
X158124686Y-124079617D02*
X158077067Y-124174856D01*
X158077067Y-124174856D02*
X157981829Y-124222475D01*
X157981829Y-124222475D02*
X157886591Y-124222475D01*
X157410400Y-124222475D02*
X157505638Y-124174856D01*
X157505638Y-124174856D02*
X157553257Y-124127236D01*
X157553257Y-124127236D02*
X157600876Y-124031998D01*
X157600876Y-124031998D02*
X157600876Y-123746284D01*
X157600876Y-123746284D02*
X157553257Y-123651046D01*
X157553257Y-123651046D02*
X157505638Y-123603427D01*
X157505638Y-123603427D02*
X157410400Y-123555808D01*
X157410400Y-123555808D02*
X157267543Y-123555808D01*
X157267543Y-123555808D02*
X157172305Y-123603427D01*
X157172305Y-123603427D02*
X157124686Y-123651046D01*
X157124686Y-123651046D02*
X157077067Y-123746284D01*
X157077067Y-123746284D02*
X157077067Y-124031998D01*
X157077067Y-124031998D02*
X157124686Y-124127236D01*
X157124686Y-124127236D02*
X157172305Y-124174856D01*
X157172305Y-124174856D02*
X157267543Y-124222475D01*
X157267543Y-124222475D02*
X157410400Y-124222475D01*
X155458019Y-124222475D02*
X155458019Y-123698665D01*
X155458019Y-123698665D02*
X155505638Y-123603427D01*
X155505638Y-123603427D02*
X155600876Y-123555808D01*
X155600876Y-123555808D02*
X155791352Y-123555808D01*
X155791352Y-123555808D02*
X155886590Y-123603427D01*
X155458019Y-124174856D02*
X155553257Y-124222475D01*
X155553257Y-124222475D02*
X155791352Y-124222475D01*
X155791352Y-124222475D02*
X155886590Y-124174856D01*
X155886590Y-124174856D02*
X155934209Y-124079617D01*
X155934209Y-124079617D02*
X155934209Y-123984379D01*
X155934209Y-123984379D02*
X155886590Y-123889141D01*
X155886590Y-123889141D02*
X155791352Y-123841522D01*
X155791352Y-123841522D02*
X155553257Y-123841522D01*
X155553257Y-123841522D02*
X155458019Y-123793903D01*
X154267542Y-124174856D02*
X154172304Y-124222475D01*
X154172304Y-124222475D02*
X153981828Y-124222475D01*
X153981828Y-124222475D02*
X153886590Y-124174856D01*
X153886590Y-124174856D02*
X153838971Y-124079617D01*
X153838971Y-124079617D02*
X153838971Y-124031998D01*
X153838971Y-124031998D02*
X153886590Y-123936760D01*
X153886590Y-123936760D02*
X153981828Y-123889141D01*
X153981828Y-123889141D02*
X154124685Y-123889141D01*
X154124685Y-123889141D02*
X154219923Y-123841522D01*
X154219923Y-123841522D02*
X154267542Y-123746284D01*
X154267542Y-123746284D02*
X154267542Y-123698665D01*
X154267542Y-123698665D02*
X154219923Y-123603427D01*
X154219923Y-123603427D02*
X154124685Y-123555808D01*
X154124685Y-123555808D02*
X153981828Y-123555808D01*
X153981828Y-123555808D02*
X153886590Y-123603427D01*
X153553256Y-123555808D02*
X153172304Y-123555808D01*
X153410399Y-123222475D02*
X153410399Y-124079617D01*
X153410399Y-124079617D02*
X153362780Y-124174856D01*
X153362780Y-124174856D02*
X153267542Y-124222475D01*
X153267542Y-124222475D02*
X153172304Y-124222475D01*
X152458018Y-124174856D02*
X152553256Y-124222475D01*
X152553256Y-124222475D02*
X152743732Y-124222475D01*
X152743732Y-124222475D02*
X152838970Y-124174856D01*
X152838970Y-124174856D02*
X152886589Y-124079617D01*
X152886589Y-124079617D02*
X152886589Y-123698665D01*
X152886589Y-123698665D02*
X152838970Y-123603427D01*
X152838970Y-123603427D02*
X152743732Y-123555808D01*
X152743732Y-123555808D02*
X152553256Y-123555808D01*
X152553256Y-123555808D02*
X152458018Y-123603427D01*
X152458018Y-123603427D02*
X152410399Y-123698665D01*
X152410399Y-123698665D02*
X152410399Y-123793903D01*
X152410399Y-123793903D02*
X152886589Y-123889141D01*
X151553256Y-124222475D02*
X151553256Y-123698665D01*
X151553256Y-123698665D02*
X151600875Y-123603427D01*
X151600875Y-123603427D02*
X151696113Y-123555808D01*
X151696113Y-123555808D02*
X151886589Y-123555808D01*
X151886589Y-123555808D02*
X151981827Y-123603427D01*
X151553256Y-124174856D02*
X151648494Y-124222475D01*
X151648494Y-124222475D02*
X151886589Y-124222475D01*
X151886589Y-124222475D02*
X151981827Y-124174856D01*
X151981827Y-124174856D02*
X152029446Y-124079617D01*
X152029446Y-124079617D02*
X152029446Y-123984379D01*
X152029446Y-123984379D02*
X151981827Y-123889141D01*
X151981827Y-123889141D02*
X151886589Y-123841522D01*
X151886589Y-123841522D02*
X151648494Y-123841522D01*
X151648494Y-123841522D02*
X151553256Y-123793903D01*
X151077065Y-124222475D02*
X151077065Y-123222475D01*
X150981827Y-123841522D02*
X150696113Y-124222475D01*
X150696113Y-123555808D02*
X151077065Y-123936760D01*
X150267541Y-124222475D02*
X150267541Y-123222475D01*
X149838970Y-124222475D02*
X149838970Y-123698665D01*
X149838970Y-123698665D02*
X149886589Y-123603427D01*
X149886589Y-123603427D02*
X149981827Y-123555808D01*
X149981827Y-123555808D02*
X150124684Y-123555808D01*
X150124684Y-123555808D02*
X150219922Y-123603427D01*
X150219922Y-123603427D02*
X150267541Y-123651046D01*
X149219922Y-124222475D02*
X149315160Y-124174856D01*
X149315160Y-124174856D02*
X149362779Y-124127236D01*
X149362779Y-124127236D02*
X149410398Y-124031998D01*
X149410398Y-124031998D02*
X149410398Y-123746284D01*
X149410398Y-123746284D02*
X149362779Y-123651046D01*
X149362779Y-123651046D02*
X149315160Y-123603427D01*
X149315160Y-123603427D02*
X149219922Y-123555808D01*
X149219922Y-123555808D02*
X149077065Y-123555808D01*
X149077065Y-123555808D02*
X148981827Y-123603427D01*
X148981827Y-123603427D02*
X148934208Y-123651046D01*
X148934208Y-123651046D02*
X148886589Y-123746284D01*
X148886589Y-123746284D02*
X148886589Y-124031998D01*
X148886589Y-124031998D02*
X148934208Y-124127236D01*
X148934208Y-124127236D02*
X148981827Y-124174856D01*
X148981827Y-124174856D02*
X149077065Y-124222475D01*
X149077065Y-124222475D02*
X149219922Y-124222475D01*
X148029446Y-123555808D02*
X148029446Y-124222475D01*
X148458017Y-123555808D02*
X148458017Y-124079617D01*
X148458017Y-124079617D02*
X148410398Y-124174856D01*
X148410398Y-124174856D02*
X148315160Y-124222475D01*
X148315160Y-124222475D02*
X148172303Y-124222475D01*
X148172303Y-124222475D02*
X148077065Y-124174856D01*
X148077065Y-124174856D02*
X148029446Y-124127236D01*
X147600874Y-124174856D02*
X147505636Y-124222475D01*
X147505636Y-124222475D02*
X147315160Y-124222475D01*
X147315160Y-124222475D02*
X147219922Y-124174856D01*
X147219922Y-124174856D02*
X147172303Y-124079617D01*
X147172303Y-124079617D02*
X147172303Y-124031998D01*
X147172303Y-124031998D02*
X147219922Y-123936760D01*
X147219922Y-123936760D02*
X147315160Y-123889141D01*
X147315160Y-123889141D02*
X147458017Y-123889141D01*
X147458017Y-123889141D02*
X147553255Y-123841522D01*
X147553255Y-123841522D02*
X147600874Y-123746284D01*
X147600874Y-123746284D02*
X147600874Y-123698665D01*
X147600874Y-123698665D02*
X147553255Y-123603427D01*
X147553255Y-123603427D02*
X147458017Y-123555808D01*
X147458017Y-123555808D02*
X147315160Y-123555808D01*
X147315160Y-123555808D02*
X147219922Y-123603427D01*
X146362779Y-124174856D02*
X146458017Y-124222475D01*
X146458017Y-124222475D02*
X146648493Y-124222475D01*
X146648493Y-124222475D02*
X146743731Y-124174856D01*
X146743731Y-124174856D02*
X146791350Y-124079617D01*
X146791350Y-124079617D02*
X146791350Y-123698665D01*
X146791350Y-123698665D02*
X146743731Y-123603427D01*
X146743731Y-123603427D02*
X146648493Y-123555808D01*
X146648493Y-123555808D02*
X146458017Y-123555808D01*
X146458017Y-123555808D02*
X146362779Y-123603427D01*
X146362779Y-123603427D02*
X146315160Y-123698665D01*
X146315160Y-123698665D02*
X146315160Y-123793903D01*
X146315160Y-123793903D02*
X146791350Y-123889141D01*
X144696112Y-124222475D02*
X144696112Y-123698665D01*
X144696112Y-123698665D02*
X144743731Y-123603427D01*
X144743731Y-123603427D02*
X144838969Y-123555808D01*
X144838969Y-123555808D02*
X145029445Y-123555808D01*
X145029445Y-123555808D02*
X145124683Y-123603427D01*
X144696112Y-124174856D02*
X144791350Y-124222475D01*
X144791350Y-124222475D02*
X145029445Y-124222475D01*
X145029445Y-124222475D02*
X145124683Y-124174856D01*
X145124683Y-124174856D02*
X145172302Y-124079617D01*
X145172302Y-124079617D02*
X145172302Y-123984379D01*
X145172302Y-123984379D02*
X145124683Y-123889141D01*
X145124683Y-123889141D02*
X145029445Y-123841522D01*
X145029445Y-123841522D02*
X144791350Y-123841522D01*
X144791350Y-123841522D02*
X144696112Y-123793903D01*
X144219921Y-123555808D02*
X144219921Y-124222475D01*
X144219921Y-123651046D02*
X144172302Y-123603427D01*
X144172302Y-123603427D02*
X144077064Y-123555808D01*
X144077064Y-123555808D02*
X143934207Y-123555808D01*
X143934207Y-123555808D02*
X143838969Y-123603427D01*
X143838969Y-123603427D02*
X143791350Y-123698665D01*
X143791350Y-123698665D02*
X143791350Y-124222475D01*
X142886588Y-124222475D02*
X142886588Y-123222475D01*
X142886588Y-124174856D02*
X142981826Y-124222475D01*
X142981826Y-124222475D02*
X143172302Y-124222475D01*
X143172302Y-124222475D02*
X143267540Y-124174856D01*
X143267540Y-124174856D02*
X143315159Y-124127236D01*
X143315159Y-124127236D02*
X143362778Y-124031998D01*
X143362778Y-124031998D02*
X143362778Y-123746284D01*
X143362778Y-123746284D02*
X143315159Y-123651046D01*
X143315159Y-123651046D02*
X143267540Y-123603427D01*
X143267540Y-123603427D02*
X143172302Y-123555808D01*
X143172302Y-123555808D02*
X142981826Y-123555808D01*
X142981826Y-123555808D02*
X142886588Y-123603427D01*
X141505635Y-124222475D02*
X141600873Y-124174856D01*
X141600873Y-124174856D02*
X141648492Y-124127236D01*
X141648492Y-124127236D02*
X141696111Y-124031998D01*
X141696111Y-124031998D02*
X141696111Y-123746284D01*
X141696111Y-123746284D02*
X141648492Y-123651046D01*
X141648492Y-123651046D02*
X141600873Y-123603427D01*
X141600873Y-123603427D02*
X141505635Y-123555808D01*
X141505635Y-123555808D02*
X141362778Y-123555808D01*
X141362778Y-123555808D02*
X141267540Y-123603427D01*
X141267540Y-123603427D02*
X141219921Y-123651046D01*
X141219921Y-123651046D02*
X141172302Y-123746284D01*
X141172302Y-123746284D02*
X141172302Y-124031998D01*
X141172302Y-124031998D02*
X141219921Y-124127236D01*
X141219921Y-124127236D02*
X141267540Y-124174856D01*
X141267540Y-124174856D02*
X141362778Y-124222475D01*
X141362778Y-124222475D02*
X141505635Y-124222475D01*
X140743730Y-124222475D02*
X140743730Y-123555808D01*
X140743730Y-123746284D02*
X140696111Y-123651046D01*
X140696111Y-123651046D02*
X140648492Y-123603427D01*
X140648492Y-123603427D02*
X140553254Y-123555808D01*
X140553254Y-123555808D02*
X140458016Y-123555808D01*
X139696111Y-124222475D02*
X139696111Y-123222475D01*
X139696111Y-124174856D02*
X139791349Y-124222475D01*
X139791349Y-124222475D02*
X139981825Y-124222475D01*
X139981825Y-124222475D02*
X140077063Y-124174856D01*
X140077063Y-124174856D02*
X140124682Y-124127236D01*
X140124682Y-124127236D02*
X140172301Y-124031998D01*
X140172301Y-124031998D02*
X140172301Y-123746284D01*
X140172301Y-123746284D02*
X140124682Y-123651046D01*
X140124682Y-123651046D02*
X140077063Y-123603427D01*
X140077063Y-123603427D02*
X139981825Y-123555808D01*
X139981825Y-123555808D02*
X139791349Y-123555808D01*
X139791349Y-123555808D02*
X139696111Y-123603427D01*
X138838968Y-124174856D02*
X138934206Y-124222475D01*
X138934206Y-124222475D02*
X139124682Y-124222475D01*
X139124682Y-124222475D02*
X139219920Y-124174856D01*
X139219920Y-124174856D02*
X139267539Y-124079617D01*
X139267539Y-124079617D02*
X139267539Y-123698665D01*
X139267539Y-123698665D02*
X139219920Y-123603427D01*
X139219920Y-123603427D02*
X139124682Y-123555808D01*
X139124682Y-123555808D02*
X138934206Y-123555808D01*
X138934206Y-123555808D02*
X138838968Y-123603427D01*
X138838968Y-123603427D02*
X138791349Y-123698665D01*
X138791349Y-123698665D02*
X138791349Y-123793903D01*
X138791349Y-123793903D02*
X139267539Y-123889141D01*
X138362777Y-124222475D02*
X138362777Y-123555808D01*
X138362777Y-123746284D02*
X138315158Y-123651046D01*
X138315158Y-123651046D02*
X138267539Y-123603427D01*
X138267539Y-123603427D02*
X138172301Y-123555808D01*
X138172301Y-123555808D02*
X138077063Y-123555808D01*
X160267544Y-125832419D02*
X160267544Y-125308609D01*
X160267544Y-125308609D02*
X160315163Y-125213371D01*
X160315163Y-125213371D02*
X160410401Y-125165752D01*
X160410401Y-125165752D02*
X160600877Y-125165752D01*
X160600877Y-125165752D02*
X160696115Y-125213371D01*
X160267544Y-125784800D02*
X160362782Y-125832419D01*
X160362782Y-125832419D02*
X160600877Y-125832419D01*
X160600877Y-125832419D02*
X160696115Y-125784800D01*
X160696115Y-125784800D02*
X160743734Y-125689561D01*
X160743734Y-125689561D02*
X160743734Y-125594323D01*
X160743734Y-125594323D02*
X160696115Y-125499085D01*
X160696115Y-125499085D02*
X160600877Y-125451466D01*
X160600877Y-125451466D02*
X160362782Y-125451466D01*
X160362782Y-125451466D02*
X160267544Y-125403847D01*
X159172305Y-125165752D02*
X158791353Y-125165752D01*
X159029448Y-125832419D02*
X159029448Y-124975276D01*
X159029448Y-124975276D02*
X158981829Y-124880038D01*
X158981829Y-124880038D02*
X158886591Y-124832419D01*
X158886591Y-124832419D02*
X158791353Y-124832419D01*
X158458019Y-125832419D02*
X158458019Y-125165752D01*
X158458019Y-124832419D02*
X158505638Y-124880038D01*
X158505638Y-124880038D02*
X158458019Y-124927657D01*
X158458019Y-124927657D02*
X158410400Y-124880038D01*
X158410400Y-124880038D02*
X158458019Y-124832419D01*
X158458019Y-124832419D02*
X158458019Y-124927657D01*
X157838972Y-125832419D02*
X157934210Y-125784800D01*
X157934210Y-125784800D02*
X157981829Y-125689561D01*
X157981829Y-125689561D02*
X157981829Y-124832419D01*
X157315162Y-125832419D02*
X157410400Y-125784800D01*
X157410400Y-125784800D02*
X157458019Y-125689561D01*
X157458019Y-125689561D02*
X157458019Y-124832419D01*
X156553257Y-125784800D02*
X156648495Y-125832419D01*
X156648495Y-125832419D02*
X156838971Y-125832419D01*
X156838971Y-125832419D02*
X156934209Y-125784800D01*
X156934209Y-125784800D02*
X156981828Y-125689561D01*
X156981828Y-125689561D02*
X156981828Y-125308609D01*
X156981828Y-125308609D02*
X156934209Y-125213371D01*
X156934209Y-125213371D02*
X156838971Y-125165752D01*
X156838971Y-125165752D02*
X156648495Y-125165752D01*
X156648495Y-125165752D02*
X156553257Y-125213371D01*
X156553257Y-125213371D02*
X156505638Y-125308609D01*
X156505638Y-125308609D02*
X156505638Y-125403847D01*
X156505638Y-125403847D02*
X156981828Y-125499085D01*
X156219923Y-125165752D02*
X155838971Y-125165752D01*
X156077066Y-124832419D02*
X156077066Y-125689561D01*
X156077066Y-125689561D02*
X156029447Y-125784800D01*
X156029447Y-125784800D02*
X155934209Y-125832419D01*
X155934209Y-125832419D02*
X155838971Y-125832419D01*
X154743732Y-125832419D02*
X154743732Y-125165752D01*
X154743732Y-125260990D02*
X154696113Y-125213371D01*
X154696113Y-125213371D02*
X154600875Y-125165752D01*
X154600875Y-125165752D02*
X154458018Y-125165752D01*
X154458018Y-125165752D02*
X154362780Y-125213371D01*
X154362780Y-125213371D02*
X154315161Y-125308609D01*
X154315161Y-125308609D02*
X154315161Y-125832419D01*
X154315161Y-125308609D02*
X154267542Y-125213371D01*
X154267542Y-125213371D02*
X154172304Y-125165752D01*
X154172304Y-125165752D02*
X154029447Y-125165752D01*
X154029447Y-125165752D02*
X153934208Y-125213371D01*
X153934208Y-125213371D02*
X153886589Y-125308609D01*
X153886589Y-125308609D02*
X153886589Y-125832419D01*
X153410399Y-125832419D02*
X153410399Y-125165752D01*
X153410399Y-124832419D02*
X153458018Y-124880038D01*
X153458018Y-124880038D02*
X153410399Y-124927657D01*
X153410399Y-124927657D02*
X153362780Y-124880038D01*
X153362780Y-124880038D02*
X153410399Y-124832419D01*
X153410399Y-124832419D02*
X153410399Y-124927657D01*
X152505638Y-125165752D02*
X152505638Y-125975276D01*
X152505638Y-125975276D02*
X152553257Y-126070514D01*
X152553257Y-126070514D02*
X152600876Y-126118133D01*
X152600876Y-126118133D02*
X152696114Y-126165752D01*
X152696114Y-126165752D02*
X152838971Y-126165752D01*
X152838971Y-126165752D02*
X152934209Y-126118133D01*
X152505638Y-125784800D02*
X152600876Y-125832419D01*
X152600876Y-125832419D02*
X152791352Y-125832419D01*
X152791352Y-125832419D02*
X152886590Y-125784800D01*
X152886590Y-125784800D02*
X152934209Y-125737180D01*
X152934209Y-125737180D02*
X152981828Y-125641942D01*
X152981828Y-125641942D02*
X152981828Y-125356228D01*
X152981828Y-125356228D02*
X152934209Y-125260990D01*
X152934209Y-125260990D02*
X152886590Y-125213371D01*
X152886590Y-125213371D02*
X152791352Y-125165752D01*
X152791352Y-125165752D02*
X152600876Y-125165752D01*
X152600876Y-125165752D02*
X152505638Y-125213371D01*
X152029447Y-125165752D02*
X152029447Y-125832419D01*
X152029447Y-125260990D02*
X151981828Y-125213371D01*
X151981828Y-125213371D02*
X151886590Y-125165752D01*
X151886590Y-125165752D02*
X151743733Y-125165752D01*
X151743733Y-125165752D02*
X151648495Y-125213371D01*
X151648495Y-125213371D02*
X151600876Y-125308609D01*
X151600876Y-125308609D02*
X151600876Y-125832419D01*
X150981828Y-125832419D02*
X151077066Y-125784800D01*
X151077066Y-125784800D02*
X151124685Y-125737180D01*
X151124685Y-125737180D02*
X151172304Y-125641942D01*
X151172304Y-125641942D02*
X151172304Y-125356228D01*
X151172304Y-125356228D02*
X151124685Y-125260990D01*
X151124685Y-125260990D02*
X151077066Y-125213371D01*
X151077066Y-125213371D02*
X150981828Y-125165752D01*
X150981828Y-125165752D02*
X150838971Y-125165752D01*
X150838971Y-125165752D02*
X150743733Y-125213371D01*
X150743733Y-125213371D02*
X150696114Y-125260990D01*
X150696114Y-125260990D02*
X150648495Y-125356228D01*
X150648495Y-125356228D02*
X150648495Y-125641942D01*
X150648495Y-125641942D02*
X150696114Y-125737180D01*
X150696114Y-125737180D02*
X150743733Y-125784800D01*
X150743733Y-125784800D02*
X150838971Y-125832419D01*
X150838971Y-125832419D02*
X150981828Y-125832419D01*
X150219923Y-125165752D02*
X150219923Y-125832419D01*
X150219923Y-125260990D02*
X150172304Y-125213371D01*
X150172304Y-125213371D02*
X150077066Y-125165752D01*
X150077066Y-125165752D02*
X149934209Y-125165752D01*
X149934209Y-125165752D02*
X149838971Y-125213371D01*
X149838971Y-125213371D02*
X149791352Y-125308609D01*
X149791352Y-125308609D02*
X149791352Y-125832419D01*
X148553256Y-125451466D02*
X147791352Y-125451466D01*
X146172304Y-125784800D02*
X146267542Y-125832419D01*
X146267542Y-125832419D02*
X146458018Y-125832419D01*
X146458018Y-125832419D02*
X146553256Y-125784800D01*
X146553256Y-125784800D02*
X146600875Y-125689561D01*
X146600875Y-125689561D02*
X146600875Y-125308609D01*
X146600875Y-125308609D02*
X146553256Y-125213371D01*
X146553256Y-125213371D02*
X146458018Y-125165752D01*
X146458018Y-125165752D02*
X146267542Y-125165752D01*
X146267542Y-125165752D02*
X146172304Y-125213371D01*
X146172304Y-125213371D02*
X146124685Y-125308609D01*
X146124685Y-125308609D02*
X146124685Y-125403847D01*
X146124685Y-125403847D02*
X146600875Y-125499085D01*
X145791351Y-125165752D02*
X145553256Y-125832419D01*
X145553256Y-125832419D02*
X145315161Y-125165752D01*
X144505637Y-125832419D02*
X144505637Y-125308609D01*
X144505637Y-125308609D02*
X144553256Y-125213371D01*
X144553256Y-125213371D02*
X144648494Y-125165752D01*
X144648494Y-125165752D02*
X144838970Y-125165752D01*
X144838970Y-125165752D02*
X144934208Y-125213371D01*
X144505637Y-125784800D02*
X144600875Y-125832419D01*
X144600875Y-125832419D02*
X144838970Y-125832419D01*
X144838970Y-125832419D02*
X144934208Y-125784800D01*
X144934208Y-125784800D02*
X144981827Y-125689561D01*
X144981827Y-125689561D02*
X144981827Y-125594323D01*
X144981827Y-125594323D02*
X144934208Y-125499085D01*
X144934208Y-125499085D02*
X144838970Y-125451466D01*
X144838970Y-125451466D02*
X144600875Y-125451466D01*
X144600875Y-125451466D02*
X144505637Y-125403847D01*
X144029446Y-125165752D02*
X144029446Y-125832419D01*
X144029446Y-125260990D02*
X143981827Y-125213371D01*
X143981827Y-125213371D02*
X143886589Y-125165752D01*
X143886589Y-125165752D02*
X143743732Y-125165752D01*
X143743732Y-125165752D02*
X143648494Y-125213371D01*
X143648494Y-125213371D02*
X143600875Y-125308609D01*
X143600875Y-125308609D02*
X143600875Y-125832419D01*
D11*
X151333333Y-35389819D02*
X151333333Y-36104104D01*
X151333333Y-36104104D02*
X151380952Y-36246961D01*
X151380952Y-36246961D02*
X151476190Y-36342200D01*
X151476190Y-36342200D02*
X151619047Y-36389819D01*
X151619047Y-36389819D02*
X151714285Y-36389819D01*
X150380952Y-35389819D02*
X150857142Y-35389819D01*
X150857142Y-35389819D02*
X150904761Y-35866009D01*
X150904761Y-35866009D02*
X150857142Y-35818390D01*
X150857142Y-35818390D02*
X150761904Y-35770771D01*
X150761904Y-35770771D02*
X150523809Y-35770771D01*
X150523809Y-35770771D02*
X150428571Y-35818390D01*
X150428571Y-35818390D02*
X150380952Y-35866009D01*
X150380952Y-35866009D02*
X150333333Y-35961247D01*
X150333333Y-35961247D02*
X150333333Y-36199342D01*
X150333333Y-36199342D02*
X150380952Y-36294580D01*
X150380952Y-36294580D02*
X150428571Y-36342200D01*
X150428571Y-36342200D02*
X150523809Y-36389819D01*
X150523809Y-36389819D02*
X150761904Y-36389819D01*
X150761904Y-36389819D02*
X150857142Y-36342200D01*
X150857142Y-36342200D02*
X150904761Y-36294580D01*
D12*
X149095000Y-37365000D02*
X149095000Y-38000000D01*
X149730000Y-37365000D02*
X149095000Y-37365000D01*
%LPC*%
D13*
X179921122Y-45487913D03*
X123921122Y-127500000D03*
D14*
X197062500Y-128467058D03*
D15*
X197062500Y-125927058D03*
D13*
X221921122Y-30987913D03*
X123921122Y-45487913D03*
D16*
X174200000Y-150402500D03*
D17*
X175200000Y-147702500D03*
X180200000Y-147702500D03*
D16*
X181200000Y-150402500D03*
D14*
X153700000Y-61900000D03*
D15*
X153700000Y-64440000D03*
D18*
X192721122Y-82837913D03*
X192721122Y-84837913D03*
X192721122Y-86837913D03*
D19*
X211459122Y-32095413D03*
X206739122Y-32095413D03*
D20*
X146721122Y-56937913D03*
D21*
X149221122Y-56937913D03*
X151721122Y-56937913D03*
X154221122Y-56937913D03*
D22*
X108721122Y-34987913D03*
D23*
X108721122Y-37487913D03*
D13*
X88421122Y-147487913D03*
D24*
X160420000Y-99484000D03*
X165500000Y-98468000D03*
X165500000Y-100500000D03*
D19*
X97195627Y-32112913D03*
X92475627Y-32112913D03*
D13*
X215421122Y-147487913D03*
X179921122Y-127500000D03*
D18*
X111156122Y-86752913D03*
X111156122Y-84752913D03*
X111156122Y-82752913D03*
D13*
X81921122Y-30987913D03*
D25*
X189921122Y-37487913D03*
D23*
X189921122Y-34987913D03*
D24*
X148460000Y-38635000D03*
X153540000Y-37619000D03*
X153540000Y-39651000D03*
D26*
X149730000Y-38000000D03*
X149730000Y-39270000D03*
X151000000Y-38000000D03*
X151000000Y-39270000D03*
X152270000Y-38000000D03*
X152270000Y-39270000D03*
%LPD*%
M02*
