M48
; DRILL file {KiCad 9.0.0} date 2025-03-18T22:36:04-0700
; FORMAT={-:-/ absolute / metric / decimal}
; #@! TF.CreationDate,2025-03-18T22:36:04-07:00
; #@! TF.GenerationSoftware,Kicad,Pcbnew,9.0.0
; #@! TF.FileFunction,Plated,1,4,PTH
FMAT,2
METRIC
; #@! TA.AperFunction,Plated,PTH,ViaDrill
T1C0.300
; #@! TA.AperFunction,Plated,PTH,ComponentDrill
T2C0.500
; #@! TA.AperFunction,Plated,PTH,ComponentDrill
T3C0.600
; #@! TA.AperFunction,Plated,PTH,ComponentDrill
T4C0.800
; #@! TA.AperFunction,Plated,PTH,ComponentDrill
T5C0.850
; #@! TA.AperFunction,Plated,PTH,ComponentDrill
T6C0.950
; #@! TA.AperFunction,Plated,PTH,ComponentDrill
T7C1.000
%
G90
G05
T1
X88.912Y-28.587
X98.0Y-29.0
X100.0Y-140.5
X100.5Y-51.5
X101.5Y-35.675
X106.5Y-34.0
X108.496Y-134.5
X113.0Y-134.5
X114.0Y-80.5
X116.0Y-131.5
X121.0Y-85.5
X137.6Y-73.8
X141.125Y-76.45
X141.5Y-83.0
X141.5Y-84.0
X142.2Y-73.0
X142.925Y-74.75
X143.0Y-82.5
X143.0Y-84.5
X143.0Y-90.5
X145.621Y-59.513
X145.921Y-68.913
X147.4Y-82.2
X147.4Y-83.4
X147.4Y-84.8
X148.2Y-82.2
X148.2Y-83.4
X148.2Y-84.8
X149.5Y-92.0
X150.0Y-131.0
X150.186Y-80.5
X151.5Y-82.5
X152.0Y-81.5
X152.0Y-85.5
X152.025Y-66.825
X153.0Y-36.0
X154.0Y-81.0
X154.5Y-134.5
X154.65Y-83.2
X155.0Y-84.0
X155.0Y-131.0
X157.0Y-87.0
X157.084Y-97.416
X159.5Y-96.5
X162.5Y-109.5
X163.0Y-96.5
X164.0Y-106.0
X164.0Y-108.5
X164.0Y-109.5
X164.5Y-96.5
X166.0Y-126.5
X166.5Y-101.5
X166.5Y-118.0
X167.4Y-118.4
X167.5Y-90.5
X167.75Y-115.0
X169.2Y-116.6
X169.5Y-120.0
X172.0Y-101.0
X172.5Y-116.0
X173.04Y-105.5
X174.0Y-141.0
X175.5Y-102.775
X175.9Y-138.1
X176.375Y-145.346
X176.5Y-117.0
X177.0Y-139.4
X179.0Y-117.0
X179.1Y-144.0
X179.5Y-101.5
X179.651Y-103.5
X181.5Y-112.5
X182.75Y-120.5
X183.5Y-109.0
X183.85Y-120.65
X184.0Y-105.5
X184.25Y-111.5
X185.0Y-103.0
X185.75Y-126.75
X187.0Y-112.0
X187.0Y-113.0
X187.0Y-117.0
X191.0Y-70.5
X191.25Y-132.5
X192.0Y-129.389
X192.5Y-106.0
X192.5Y-116.75
X193.584Y-121.09
X196.0Y-132.5
X196.5Y-32.5
X196.5Y-38.0
X197.0Y-134.5
X201.5Y-148.5
X203.0Y-68.5
X212.0Y-34.5
X222.5Y-35.0
T4
X111.156Y-82.753
X111.156Y-84.753
X111.156Y-86.753
X192.721Y-82.838
X192.721Y-84.838
X192.721Y-86.838
T5
X175.2Y-147.702
X180.2Y-147.702
T6
X146.721Y-56.938
X149.221Y-56.938
X151.721Y-56.938
X154.221Y-56.938
T7
X108.721Y-34.988
X108.721Y-37.488
X153.7Y-61.9
X153.7Y-64.44
X189.921Y-34.988
X189.921Y-37.488
X197.062Y-125.927
X197.062Y-128.467
T2
X92.476Y-30.988G85X92.476Y-33.238
G05
X97.196Y-30.988G85X97.196Y-33.238
G05
X206.739Y-30.97G85X206.739Y-33.22
G05
X211.459Y-30.97G85X211.459Y-33.22
G05
T3
X174.2Y-150.752G85X174.2Y-150.052
G05
X181.2Y-150.052G85X181.2Y-150.752
G05
M30
