G04 #@! TF.GenerationSoftware,KiCad,Pcbnew,8.0.2*
G04 #@! TF.CreationDate,2025-02-02T01:14:39-07:00*
G04 #@! TF.ProjectId,drs,6472732e-6b69-4636-9164-5f7063625858,v1*
G04 #@! TF.SameCoordinates,Original*
G04 #@! TF.FileFunction,Copper,L2,Bot*
G04 #@! TF.FilePolarity,Positive*
%FSLAX46Y46*%
G04 Gerber Fmt 4.6, Leading zero omitted, Abs format (unit mm)*
G04 Created by KiCad (PCBNEW 8.0.2) date 2025-02-02 01:14:39*
%MOMM*%
%LPD*%
G01*
G04 APERTURE LIST*
G04 Aperture macros list*
%AMRoundRect*
0 Rectangle with rounded corners*
0 $1 Rounding radius*
0 $2 $3 $4 $5 $6 $7 $8 $9 X,Y pos of 4 corners*
0 Add a 4 corners polygon primitive as box body*
4,1,4,$2,$3,$4,$5,$6,$7,$8,$9,$2,$3,0*
0 Add four circle primitives for the rounded corners*
1,1,$1+$1,$2,$3*
1,1,$1+$1,$4,$5*
1,1,$1+$1,$6,$7*
1,1,$1+$1,$8,$9*
0 Add four rect primitives between the rounded corners*
20,1,$1+$1,$2,$3,$4,$5,0*
20,1,$1+$1,$4,$5,$6,$7,0*
20,1,$1+$1,$6,$7,$8,$9,0*
20,1,$1+$1,$8,$9,$2,$3,0*%
G04 Aperture macros list end*
G04 #@! TA.AperFunction,ComponentPad*
%ADD10RoundRect,0.250000X0.750000X-0.600000X0.750000X0.600000X-0.750000X0.600000X-0.750000X-0.600000X0*%
G04 #@! TD*
G04 #@! TA.AperFunction,ComponentPad*
%ADD11O,2.000000X1.700000*%
G04 #@! TD*
G04 #@! TA.AperFunction,ComponentPad*
%ADD12R,1.700000X1.700000*%
G04 #@! TD*
G04 #@! TA.AperFunction,ComponentPad*
%ADD13O,1.700000X1.700000*%
G04 #@! TD*
G04 #@! TA.AperFunction,ComponentPad*
%ADD14RoundRect,0.250000X-0.600000X-0.750000X0.600000X-0.750000X0.600000X0.750000X-0.600000X0.750000X0*%
G04 #@! TD*
G04 #@! TA.AperFunction,ComponentPad*
%ADD15O,1.700000X2.000000*%
G04 #@! TD*
G04 #@! TA.AperFunction,ComponentPad*
%ADD16O,1.727200X1.727200*%
G04 #@! TD*
G04 #@! TA.AperFunction,ComponentPad*
%ADD17R,1.727200X1.727200*%
G04 #@! TD*
G04 #@! TA.AperFunction,ComponentPad*
%ADD18RoundRect,0.250000X0.725000X-0.600000X0.725000X0.600000X-0.725000X0.600000X-0.725000X-0.600000X0*%
G04 #@! TD*
G04 #@! TA.AperFunction,ComponentPad*
%ADD19O,1.950000X1.700000*%
G04 #@! TD*
G04 #@! TA.AperFunction,ComponentPad*
%ADD20RoundRect,0.250000X0.600000X0.750000X-0.600000X0.750000X-0.600000X-0.750000X0.600000X-0.750000X0*%
G04 #@! TD*
G04 #@! TA.AperFunction,ViaPad*
%ADD21C,0.700000*%
G04 #@! TD*
G04 #@! TA.AperFunction,Conductor*
%ADD22C,0.300000*%
G04 #@! TD*
G04 APERTURE END LIST*
D10*
X160275000Y-85150000D03*
D11*
X160275000Y-82650000D03*
D12*
X136500000Y-93100000D03*
D13*
X136500000Y-90560000D03*
D12*
X124900000Y-84975000D03*
D13*
X124900000Y-82435000D03*
D14*
X149900000Y-78200000D03*
D15*
X152400000Y-78200000D03*
D16*
X150460000Y-119800000D03*
X153000000Y-119800000D03*
X181067000Y-91860000D03*
X165700000Y-119800000D03*
X168240000Y-119800000D03*
X170780000Y-119800000D03*
X173320000Y-119800000D03*
X175860000Y-119800000D03*
X178400000Y-119800000D03*
X138776000Y-71540000D03*
X142840000Y-119800000D03*
X178400000Y-71540000D03*
X175860000Y-71540000D03*
X173320000Y-71540000D03*
X170780000Y-71540000D03*
X168240000Y-71540000D03*
X165700000Y-71540000D03*
X163160000Y-71540000D03*
X160620000Y-71540000D03*
X156556000Y-71540000D03*
X154016000Y-71540000D03*
X151476000Y-71540000D03*
X148936000Y-71540000D03*
X146396000Y-71540000D03*
X143856000Y-71540000D03*
D17*
X141316000Y-71540000D03*
X155540000Y-119800000D03*
X158080000Y-119800000D03*
X181067000Y-96940000D03*
D16*
X145380000Y-119800000D03*
X178527000Y-91860000D03*
X181067000Y-94400000D03*
X147920000Y-119800000D03*
X178527000Y-96940000D03*
X178527000Y-94400000D03*
X133696000Y-71540000D03*
X136236000Y-71540000D03*
X160620000Y-119800000D03*
D18*
X124875000Y-95700000D03*
D19*
X124875000Y-93200000D03*
X124875000Y-90700000D03*
D20*
X160500000Y-114000000D03*
D15*
X158000000Y-114000000D03*
D21*
X158500000Y-92000000D03*
X164500000Y-83800000D03*
X158200000Y-93400000D03*
X157000000Y-96500000D03*
X154800000Y-75200000D03*
X154300000Y-109100000D03*
X155800000Y-88800000D03*
X133800000Y-94800000D03*
X142600000Y-100000000D03*
X144200000Y-93100000D03*
X158200000Y-78300000D03*
X156000000Y-75900000D03*
X147600000Y-75000000D03*
X149100000Y-94800000D03*
X152000000Y-94100000D03*
X152200000Y-95900000D03*
X148800000Y-96000000D03*
D22*
X158500000Y-92000000D02*
X160000000Y-92000000D01*
X163500000Y-88500000D02*
X164500000Y-87500000D01*
X164500000Y-87500000D02*
X164500000Y-83800000D01*
X160000000Y-92000000D02*
X163500000Y-88500000D01*
X158200000Y-93400000D02*
X161600000Y-93400000D01*
X165700000Y-89300000D02*
X165700000Y-71540000D01*
X161600000Y-93400000D02*
X165700000Y-89300000D01*
X149100000Y-94800000D02*
X151300000Y-94800000D01*
X151300000Y-94800000D02*
X152000000Y-94100000D01*
X148800000Y-96000000D02*
X152100000Y-96000000D01*
X152100000Y-96000000D02*
X152200000Y-95900000D01*
G04 #@! TA.AperFunction,Conductor*
G36*
X157606619Y-119603919D02*
G01*
X157572000Y-119733120D01*
X157572000Y-119866880D01*
X157606619Y-119996081D01*
X157637749Y-120050000D01*
X155982251Y-120050000D01*
X156013381Y-119996081D01*
X156048000Y-119866880D01*
X156048000Y-119733120D01*
X156013381Y-119603919D01*
X155982251Y-119550000D01*
X157637749Y-119550000D01*
X157606619Y-119603919D01*
G37*
G04 #@! TD.AperFunction*
G04 #@! TA.AperFunction,Conductor*
G36*
X129728766Y-69519685D02*
G01*
X129774521Y-69572489D01*
X129784465Y-69641647D01*
X129755440Y-69705203D01*
X129696662Y-69742977D01*
X129693864Y-69743762D01*
X129600063Y-69768896D01*
X129543895Y-69783947D01*
X129319794Y-69876773D01*
X129319785Y-69876777D01*
X129109706Y-69998067D01*
X128917263Y-70145733D01*
X128917256Y-70145739D01*
X128745739Y-70317256D01*
X128745733Y-70317263D01*
X128598067Y-70509706D01*
X128476777Y-70719785D01*
X128476773Y-70719794D01*
X128383947Y-70943895D01*
X128321161Y-71178214D01*
X128289500Y-71418711D01*
X128289500Y-71661288D01*
X128321161Y-71901785D01*
X128383947Y-72136104D01*
X128411936Y-72203675D01*
X128476776Y-72360212D01*
X128598064Y-72570289D01*
X128598066Y-72570292D01*
X128598067Y-72570293D01*
X128745733Y-72762736D01*
X128745739Y-72762743D01*
X128917256Y-72934260D01*
X128917262Y-72934265D01*
X129109711Y-73081936D01*
X129319788Y-73203224D01*
X129543900Y-73296054D01*
X129778211Y-73358838D01*
X129958586Y-73382584D01*
X130018711Y-73390500D01*
X130018712Y-73390500D01*
X130261289Y-73390500D01*
X130309388Y-73384167D01*
X130501789Y-73358838D01*
X130736100Y-73296054D01*
X130960212Y-73203224D01*
X131170289Y-73081936D01*
X131362738Y-72934265D01*
X131534265Y-72762738D01*
X131681936Y-72570289D01*
X131803224Y-72360212D01*
X131896054Y-72136100D01*
X131958838Y-71901789D01*
X131990500Y-71661288D01*
X131990500Y-71539993D01*
X132327225Y-71539993D01*
X132327225Y-71540006D01*
X132345892Y-71765289D01*
X132401388Y-71984439D01*
X132492198Y-72191466D01*
X132615842Y-72380716D01*
X132615850Y-72380727D01*
X132768950Y-72547036D01*
X132768954Y-72547040D01*
X132947351Y-72685893D01*
X133146169Y-72793488D01*
X133146172Y-72793489D01*
X133359982Y-72866890D01*
X133359984Y-72866890D01*
X133359986Y-72866891D01*
X133582967Y-72904100D01*
X133582968Y-72904100D01*
X133809032Y-72904100D01*
X133809033Y-72904100D01*
X134032014Y-72866891D01*
X134245831Y-72793488D01*
X134444649Y-72685893D01*
X134623046Y-72547040D01*
X134776156Y-72380719D01*
X134862193Y-72249028D01*
X134915338Y-72203675D01*
X134984569Y-72194251D01*
X135047905Y-72223753D01*
X135069804Y-72249025D01*
X135155844Y-72380719D01*
X135155849Y-72380724D01*
X135155850Y-72380727D01*
X135308950Y-72547036D01*
X135308954Y-72547040D01*
X135487351Y-72685893D01*
X135686169Y-72793488D01*
X135686172Y-72793489D01*
X135899982Y-72866890D01*
X135899984Y-72866890D01*
X135899986Y-72866891D01*
X136122967Y-72904100D01*
X136122968Y-72904100D01*
X136349032Y-72904100D01*
X136349033Y-72904100D01*
X136572014Y-72866891D01*
X136785831Y-72793488D01*
X136984649Y-72685893D01*
X137163046Y-72547040D01*
X137316156Y-72380719D01*
X137402193Y-72249028D01*
X137455338Y-72203675D01*
X137524569Y-72194251D01*
X137587905Y-72223753D01*
X137609804Y-72249025D01*
X137695844Y-72380719D01*
X137695849Y-72380724D01*
X137695850Y-72380727D01*
X137848950Y-72547036D01*
X137848954Y-72547040D01*
X138027351Y-72685893D01*
X138226169Y-72793488D01*
X138226172Y-72793489D01*
X138439982Y-72866890D01*
X138439984Y-72866890D01*
X138439986Y-72866891D01*
X138662967Y-72904100D01*
X138662968Y-72904100D01*
X138889032Y-72904100D01*
X138889033Y-72904100D01*
X139112014Y-72866891D01*
X139325831Y-72793488D01*
X139524649Y-72685893D01*
X139703046Y-72547040D01*
X139757815Y-72487545D01*
X139817699Y-72451557D01*
X139887537Y-72453657D01*
X139945153Y-72493180D01*
X139965224Y-72528196D01*
X140009046Y-72645688D01*
X140009049Y-72645693D01*
X140095209Y-72760787D01*
X140095212Y-72760790D01*
X140210306Y-72846950D01*
X140210313Y-72846954D01*
X140345020Y-72897196D01*
X140345027Y-72897198D01*
X140404555Y-72903599D01*
X140404572Y-72903600D01*
X141066000Y-72903600D01*
X141066000Y-71982251D01*
X141119919Y-72013381D01*
X141249120Y-72048000D01*
X141382880Y-72048000D01*
X141512081Y-72013381D01*
X141566000Y-71982251D01*
X141566000Y-72903600D01*
X142227428Y-72903600D01*
X142227444Y-72903599D01*
X142286972Y-72897198D01*
X142286979Y-72897196D01*
X142421686Y-72846954D01*
X142421693Y-72846950D01*
X142536787Y-72760790D01*
X142536790Y-72760787D01*
X142622950Y-72645693D01*
X142622954Y-72645686D01*
X142666775Y-72528197D01*
X142708646Y-72472263D01*
X142774110Y-72447846D01*
X142842383Y-72462698D01*
X142874186Y-72487547D01*
X142928950Y-72547036D01*
X142928954Y-72547040D01*
X143107351Y-72685893D01*
X143306169Y-72793488D01*
X143306172Y-72793489D01*
X143519982Y-72866890D01*
X143519984Y-72866890D01*
X143519986Y-72866891D01*
X143742967Y-72904100D01*
X143742968Y-72904100D01*
X143969032Y-72904100D01*
X143969033Y-72904100D01*
X144192014Y-72866891D01*
X144405831Y-72793488D01*
X144604649Y-72685893D01*
X144783046Y-72547040D01*
X144936156Y-72380719D01*
X145022193Y-72249028D01*
X145075338Y-72203675D01*
X145144569Y-72194251D01*
X145207905Y-72223753D01*
X145229804Y-72249025D01*
X145315844Y-72380719D01*
X145315849Y-72380724D01*
X145315850Y-72380727D01*
X145468950Y-72547036D01*
X145468954Y-72547040D01*
X145647351Y-72685893D01*
X145846169Y-72793488D01*
X145846172Y-72793489D01*
X146059982Y-72866890D01*
X146059984Y-72866890D01*
X146059986Y-72866891D01*
X146282967Y-72904100D01*
X146282968Y-72904100D01*
X146509032Y-72904100D01*
X146509033Y-72904100D01*
X146732014Y-72866891D01*
X146945831Y-72793488D01*
X147144649Y-72685893D01*
X147323046Y-72547040D01*
X147476156Y-72380719D01*
X147562193Y-72249028D01*
X147615338Y-72203675D01*
X147684569Y-72194251D01*
X147747905Y-72223753D01*
X147769804Y-72249025D01*
X147855844Y-72380719D01*
X147855849Y-72380724D01*
X147855850Y-72380727D01*
X148008950Y-72547036D01*
X148008954Y-72547040D01*
X148187351Y-72685893D01*
X148386169Y-72793488D01*
X148386172Y-72793489D01*
X148599982Y-72866890D01*
X148599984Y-72866890D01*
X148599986Y-72866891D01*
X148822967Y-72904100D01*
X148822968Y-72904100D01*
X149049032Y-72904100D01*
X149049033Y-72904100D01*
X149272014Y-72866891D01*
X149485831Y-72793488D01*
X149684649Y-72685893D01*
X149863046Y-72547040D01*
X150016156Y-72380719D01*
X150102193Y-72249028D01*
X150155338Y-72203675D01*
X150224569Y-72194251D01*
X150287905Y-72223753D01*
X150309804Y-72249025D01*
X150395844Y-72380719D01*
X150395849Y-72380724D01*
X150395850Y-72380727D01*
X150548950Y-72547036D01*
X150548954Y-72547040D01*
X150727351Y-72685893D01*
X150926169Y-72793488D01*
X150926172Y-72793489D01*
X151139982Y-72866890D01*
X151139984Y-72866890D01*
X151139986Y-72866891D01*
X151362967Y-72904100D01*
X151362968Y-72904100D01*
X151589032Y-72904100D01*
X151589033Y-72904100D01*
X151812014Y-72866891D01*
X152025831Y-72793488D01*
X152224649Y-72685893D01*
X152403046Y-72547040D01*
X152556156Y-72380719D01*
X152642193Y-72249028D01*
X152695338Y-72203675D01*
X152764569Y-72194251D01*
X152827905Y-72223753D01*
X152849804Y-72249025D01*
X152935844Y-72380719D01*
X152935849Y-72380724D01*
X152935850Y-72380727D01*
X153088950Y-72547036D01*
X153088954Y-72547040D01*
X153267351Y-72685893D01*
X153466169Y-72793488D01*
X153466172Y-72793489D01*
X153679982Y-72866890D01*
X153679984Y-72866890D01*
X153679986Y-72866891D01*
X153902967Y-72904100D01*
X153902968Y-72904100D01*
X154129032Y-72904100D01*
X154129033Y-72904100D01*
X154352014Y-72866891D01*
X154565831Y-72793488D01*
X154764649Y-72685893D01*
X154943046Y-72547040D01*
X155096156Y-72380719D01*
X155182193Y-72249028D01*
X155235338Y-72203675D01*
X155304569Y-72194251D01*
X155367905Y-72223753D01*
X155389804Y-72249025D01*
X155475844Y-72380719D01*
X155475849Y-72380724D01*
X155475850Y-72380727D01*
X155628950Y-72547036D01*
X155628954Y-72547040D01*
X155807351Y-72685893D01*
X156006169Y-72793488D01*
X156006172Y-72793489D01*
X156219982Y-72866890D01*
X156219984Y-72866890D01*
X156219986Y-72866891D01*
X156442967Y-72904100D01*
X156442968Y-72904100D01*
X156669032Y-72904100D01*
X156669033Y-72904100D01*
X156892014Y-72866891D01*
X157105831Y-72793488D01*
X157304649Y-72685893D01*
X157483046Y-72547040D01*
X157636156Y-72380719D01*
X157759802Y-72191465D01*
X157850611Y-71984441D01*
X157906107Y-71765293D01*
X157914725Y-71661288D01*
X157924775Y-71540006D01*
X157924775Y-71539993D01*
X157911707Y-71382294D01*
X157906107Y-71314707D01*
X157850611Y-71095559D01*
X157759802Y-70888535D01*
X157636156Y-70699281D01*
X157636153Y-70699278D01*
X157636149Y-70699272D01*
X157483049Y-70532963D01*
X157483048Y-70532962D01*
X157483046Y-70532960D01*
X157304649Y-70394107D01*
X157278390Y-70379896D01*
X157105832Y-70286512D01*
X157105827Y-70286510D01*
X156892017Y-70213109D01*
X156710388Y-70182801D01*
X156669033Y-70175900D01*
X156442967Y-70175900D01*
X156401612Y-70182801D01*
X156219982Y-70213109D01*
X156006172Y-70286510D01*
X156006167Y-70286512D01*
X155807352Y-70394106D01*
X155628955Y-70532959D01*
X155628950Y-70532963D01*
X155475850Y-70699272D01*
X155475842Y-70699283D01*
X155389808Y-70830968D01*
X155336662Y-70876325D01*
X155267430Y-70885748D01*
X155204095Y-70856246D01*
X155182192Y-70830968D01*
X155096157Y-70699283D01*
X155096149Y-70699272D01*
X154943049Y-70532963D01*
X154943048Y-70532962D01*
X154943046Y-70532960D01*
X154764649Y-70394107D01*
X154738390Y-70379896D01*
X154565832Y-70286512D01*
X154565827Y-70286510D01*
X154352017Y-70213109D01*
X154170388Y-70182801D01*
X154129033Y-70175900D01*
X153902967Y-70175900D01*
X153861612Y-70182801D01*
X153679982Y-70213109D01*
X153466172Y-70286510D01*
X153466167Y-70286512D01*
X153267352Y-70394106D01*
X153088955Y-70532959D01*
X153088950Y-70532963D01*
X152935850Y-70699272D01*
X152935842Y-70699283D01*
X152849808Y-70830968D01*
X152796662Y-70876325D01*
X152727430Y-70885748D01*
X152664095Y-70856246D01*
X152642192Y-70830968D01*
X152556157Y-70699283D01*
X152556149Y-70699272D01*
X152403049Y-70532963D01*
X152403048Y-70532962D01*
X152403046Y-70532960D01*
X152224649Y-70394107D01*
X152198390Y-70379896D01*
X152025832Y-70286512D01*
X152025827Y-70286510D01*
X151812017Y-70213109D01*
X151630388Y-70182801D01*
X151589033Y-70175900D01*
X151362967Y-70175900D01*
X151321612Y-70182801D01*
X151139982Y-70213109D01*
X150926172Y-70286510D01*
X150926167Y-70286512D01*
X150727352Y-70394106D01*
X150548955Y-70532959D01*
X150548950Y-70532963D01*
X150395850Y-70699272D01*
X150395842Y-70699283D01*
X150309808Y-70830968D01*
X150256662Y-70876325D01*
X150187430Y-70885748D01*
X150124095Y-70856246D01*
X150102192Y-70830968D01*
X150016157Y-70699283D01*
X150016149Y-70699272D01*
X149863049Y-70532963D01*
X149863048Y-70532962D01*
X149863046Y-70532960D01*
X149684649Y-70394107D01*
X149658390Y-70379896D01*
X149485832Y-70286512D01*
X149485827Y-70286510D01*
X149272017Y-70213109D01*
X149090388Y-70182801D01*
X149049033Y-70175900D01*
X148822967Y-70175900D01*
X148781612Y-70182801D01*
X148599982Y-70213109D01*
X148386172Y-70286510D01*
X148386167Y-70286512D01*
X148187352Y-70394106D01*
X148008955Y-70532959D01*
X148008950Y-70532963D01*
X147855850Y-70699272D01*
X147855842Y-70699283D01*
X147769808Y-70830968D01*
X147716662Y-70876325D01*
X147647430Y-70885748D01*
X147584095Y-70856246D01*
X147562192Y-70830968D01*
X147476157Y-70699283D01*
X147476149Y-70699272D01*
X147323049Y-70532963D01*
X147323048Y-70532962D01*
X147323046Y-70532960D01*
X147144649Y-70394107D01*
X147118390Y-70379896D01*
X146945832Y-70286512D01*
X146945827Y-70286510D01*
X146732017Y-70213109D01*
X146550388Y-70182801D01*
X146509033Y-70175900D01*
X146282967Y-70175900D01*
X146241612Y-70182801D01*
X146059982Y-70213109D01*
X145846172Y-70286510D01*
X145846167Y-70286512D01*
X145647352Y-70394106D01*
X145468955Y-70532959D01*
X145468950Y-70532963D01*
X145315850Y-70699272D01*
X145315842Y-70699283D01*
X145229808Y-70830968D01*
X145176662Y-70876325D01*
X145107430Y-70885748D01*
X145044095Y-70856246D01*
X145022192Y-70830968D01*
X144936157Y-70699283D01*
X144936149Y-70699272D01*
X144783049Y-70532963D01*
X144783048Y-70532962D01*
X144783046Y-70532960D01*
X144604649Y-70394107D01*
X144578390Y-70379896D01*
X144405832Y-70286512D01*
X144405827Y-70286510D01*
X144192017Y-70213109D01*
X144010388Y-70182801D01*
X143969033Y-70175900D01*
X143742967Y-70175900D01*
X143701612Y-70182801D01*
X143519982Y-70213109D01*
X143306172Y-70286510D01*
X143306167Y-70286512D01*
X143107352Y-70394106D01*
X142928955Y-70532958D01*
X142874186Y-70592453D01*
X142814298Y-70628443D01*
X142744460Y-70626342D01*
X142686845Y-70586817D01*
X142666775Y-70551802D01*
X142622954Y-70434313D01*
X142622950Y-70434306D01*
X142536790Y-70319212D01*
X142536787Y-70319209D01*
X142421693Y-70233049D01*
X142421686Y-70233045D01*
X142286979Y-70182803D01*
X142286972Y-70182801D01*
X142227444Y-70176400D01*
X141566000Y-70176400D01*
X141566000Y-71097748D01*
X141512081Y-71066619D01*
X141382880Y-71032000D01*
X141249120Y-71032000D01*
X141119919Y-71066619D01*
X141066000Y-71097748D01*
X141066000Y-70176400D01*
X140404555Y-70176400D01*
X140345027Y-70182801D01*
X140345020Y-70182803D01*
X140210313Y-70233045D01*
X140210306Y-70233049D01*
X140095212Y-70319209D01*
X140095209Y-70319212D01*
X140009049Y-70434306D01*
X140009046Y-70434312D01*
X139965224Y-70551803D01*
X139923352Y-70607736D01*
X139857887Y-70632153D01*
X139789615Y-70617301D01*
X139757813Y-70592452D01*
X139703049Y-70532963D01*
X139703048Y-70532962D01*
X139703046Y-70532960D01*
X139524649Y-70394107D01*
X139498390Y-70379896D01*
X139325832Y-70286512D01*
X139325827Y-70286510D01*
X139112017Y-70213109D01*
X138930388Y-70182801D01*
X138889033Y-70175900D01*
X138662967Y-70175900D01*
X138621612Y-70182801D01*
X138439982Y-70213109D01*
X138226172Y-70286510D01*
X138226167Y-70286512D01*
X138027352Y-70394106D01*
X137848955Y-70532959D01*
X137848950Y-70532963D01*
X137695850Y-70699272D01*
X137695842Y-70699283D01*
X137609808Y-70830968D01*
X137556662Y-70876325D01*
X137487430Y-70885748D01*
X137424095Y-70856246D01*
X137402192Y-70830968D01*
X137316157Y-70699283D01*
X137316149Y-70699272D01*
X137163049Y-70532963D01*
X137163048Y-70532962D01*
X137163046Y-70532960D01*
X136984649Y-70394107D01*
X136958390Y-70379896D01*
X136785832Y-70286512D01*
X136785827Y-70286510D01*
X136572017Y-70213109D01*
X136390388Y-70182801D01*
X136349033Y-70175900D01*
X136122967Y-70175900D01*
X136081612Y-70182801D01*
X135899982Y-70213109D01*
X135686172Y-70286510D01*
X135686167Y-70286512D01*
X135487352Y-70394106D01*
X135308955Y-70532959D01*
X135308950Y-70532963D01*
X135155850Y-70699272D01*
X135155842Y-70699283D01*
X135069808Y-70830968D01*
X135016662Y-70876325D01*
X134947430Y-70885748D01*
X134884095Y-70856246D01*
X134862192Y-70830968D01*
X134776157Y-70699283D01*
X134776149Y-70699272D01*
X134623049Y-70532963D01*
X134623048Y-70532962D01*
X134623046Y-70532960D01*
X134444649Y-70394107D01*
X134418390Y-70379896D01*
X134245832Y-70286512D01*
X134245827Y-70286510D01*
X134032017Y-70213109D01*
X133850388Y-70182801D01*
X133809033Y-70175900D01*
X133582967Y-70175900D01*
X133541612Y-70182801D01*
X133359982Y-70213109D01*
X133146172Y-70286510D01*
X133146167Y-70286512D01*
X132947352Y-70394106D01*
X132768955Y-70532959D01*
X132768950Y-70532963D01*
X132615850Y-70699272D01*
X132615842Y-70699283D01*
X132492198Y-70888533D01*
X132401388Y-71095560D01*
X132345892Y-71314710D01*
X132327225Y-71539993D01*
X131990500Y-71539993D01*
X131990500Y-71418712D01*
X131958838Y-71178211D01*
X131896054Y-70943900D01*
X131803224Y-70719788D01*
X131681936Y-70509711D01*
X131593229Y-70394106D01*
X131534266Y-70317263D01*
X131534260Y-70317256D01*
X131362743Y-70145739D01*
X131362736Y-70145733D01*
X131170293Y-69998067D01*
X131170292Y-69998066D01*
X131170289Y-69998064D01*
X130960212Y-69876776D01*
X130960205Y-69876773D01*
X130736104Y-69783947D01*
X130719254Y-69779432D01*
X130586177Y-69743773D01*
X130526519Y-69707410D01*
X130495990Y-69644563D01*
X130504285Y-69575187D01*
X130548770Y-69521309D01*
X130615322Y-69500035D01*
X130618273Y-69500000D01*
X178948638Y-69500000D01*
X179015677Y-69519685D01*
X179036319Y-69536319D01*
X180463681Y-70963681D01*
X180497166Y-71025004D01*
X180500000Y-71051362D01*
X180500000Y-82000000D01*
X182963681Y-84463681D01*
X182997166Y-84525004D01*
X183000000Y-84551362D01*
X183000000Y-86376367D01*
X182980315Y-86443406D01*
X182927511Y-86489161D01*
X182858353Y-86499105D01*
X182794797Y-86470080D01*
X182757023Y-86411302D01*
X182756225Y-86408461D01*
X182696054Y-86183900D01*
X182603224Y-85959788D01*
X182481936Y-85749711D01*
X182334265Y-85557262D01*
X182334260Y-85557256D01*
X182162743Y-85385739D01*
X182162736Y-85385733D01*
X181970293Y-85238067D01*
X181970292Y-85238066D01*
X181970289Y-85238064D01*
X181760212Y-85116776D01*
X181760205Y-85116773D01*
X181536104Y-85023947D01*
X181301785Y-84961161D01*
X181061289Y-84929500D01*
X181061288Y-84929500D01*
X180818712Y-84929500D01*
X180818711Y-84929500D01*
X180578214Y-84961161D01*
X180343895Y-85023947D01*
X180119794Y-85116773D01*
X180119785Y-85116777D01*
X179909706Y-85238067D01*
X179717263Y-85385733D01*
X179717256Y-85385739D01*
X179545739Y-85557256D01*
X179545733Y-85557263D01*
X179398067Y-85749706D01*
X179276777Y-85959785D01*
X179276773Y-85959794D01*
X179183947Y-86183895D01*
X179121161Y-86418214D01*
X179089500Y-86658711D01*
X179089500Y-86901288D01*
X179117520Y-87114129D01*
X179121162Y-87141789D01*
X179124129Y-87152863D01*
X179183947Y-87376104D01*
X179276773Y-87600205D01*
X179276776Y-87600212D01*
X179398064Y-87810289D01*
X179398066Y-87810292D01*
X179398067Y-87810293D01*
X179545733Y-88002736D01*
X179545739Y-88002743D01*
X179717256Y-88174260D01*
X179717262Y-88174265D01*
X179909711Y-88321936D01*
X180119788Y-88443224D01*
X180343900Y-88536054D01*
X180578211Y-88598838D01*
X180758586Y-88622584D01*
X180818711Y-88630500D01*
X180818712Y-88630500D01*
X181061289Y-88630500D01*
X181109388Y-88624167D01*
X181301789Y-88598838D01*
X181536100Y-88536054D01*
X181760212Y-88443224D01*
X181970289Y-88321936D01*
X182162738Y-88174265D01*
X182334265Y-88002738D01*
X182481936Y-87810289D01*
X182603224Y-87600212D01*
X182696054Y-87376100D01*
X182756226Y-87151535D01*
X182792590Y-87091878D01*
X182855437Y-87061349D01*
X182924813Y-87069644D01*
X182978691Y-87114129D01*
X182999965Y-87180681D01*
X183000000Y-87183632D01*
X183000000Y-114316367D01*
X182980315Y-114383406D01*
X182927511Y-114429161D01*
X182858353Y-114439105D01*
X182794797Y-114410080D01*
X182757023Y-114351302D01*
X182756225Y-114348461D01*
X182696054Y-114123900D01*
X182603224Y-113899788D01*
X182481936Y-113689711D01*
X182362357Y-113533872D01*
X182334266Y-113497263D01*
X182334260Y-113497256D01*
X182162743Y-113325739D01*
X182162736Y-113325733D01*
X181970293Y-113178067D01*
X181970292Y-113178066D01*
X181970289Y-113178064D01*
X181760212Y-113056776D01*
X181760205Y-113056773D01*
X181536104Y-112963947D01*
X181301785Y-112901161D01*
X181061289Y-112869500D01*
X181061288Y-112869500D01*
X180818712Y-112869500D01*
X180818711Y-112869500D01*
X180578214Y-112901161D01*
X180343895Y-112963947D01*
X180119794Y-113056773D01*
X180119785Y-113056777D01*
X179909706Y-113178067D01*
X179717263Y-113325733D01*
X179717256Y-113325739D01*
X179545739Y-113497256D01*
X179545733Y-113497263D01*
X179398067Y-113689706D01*
X179276777Y-113899785D01*
X179276773Y-113899794D01*
X179183947Y-114123895D01*
X179121161Y-114358214D01*
X179089500Y-114598711D01*
X179089500Y-114841288D01*
X179121161Y-115081785D01*
X179183947Y-115316104D01*
X179246350Y-115466757D01*
X179276776Y-115540212D01*
X179398064Y-115750289D01*
X179398066Y-115750292D01*
X179398067Y-115750293D01*
X179545733Y-115942736D01*
X179545739Y-115942743D01*
X179717256Y-116114260D01*
X179717262Y-116114265D01*
X179909711Y-116261936D01*
X180119788Y-116383224D01*
X180343900Y-116476054D01*
X180578211Y-116538838D01*
X180758586Y-116562584D01*
X180818711Y-116570500D01*
X180818712Y-116570500D01*
X181061289Y-116570500D01*
X181109388Y-116564167D01*
X181301789Y-116538838D01*
X181536100Y-116476054D01*
X181760212Y-116383224D01*
X181970289Y-116261936D01*
X182162738Y-116114265D01*
X182334265Y-115942738D01*
X182481936Y-115750289D01*
X182603224Y-115540212D01*
X182696054Y-115316100D01*
X182756226Y-115091535D01*
X182792590Y-115031878D01*
X182855437Y-115001349D01*
X182924813Y-115009644D01*
X182978691Y-115054129D01*
X182999965Y-115120681D01*
X183000000Y-115123632D01*
X183000000Y-118948637D01*
X182980315Y-119015676D01*
X182963681Y-119036318D01*
X180499999Y-121499999D01*
X180497855Y-121609337D01*
X180496352Y-121626303D01*
X180462336Y-121841068D01*
X180457794Y-121859988D01*
X180390978Y-122065629D01*
X180383532Y-122083606D01*
X180285368Y-122276264D01*
X180275201Y-122292855D01*
X180148105Y-122467786D01*
X180135468Y-122482581D01*
X179982581Y-122635468D01*
X179967786Y-122648105D01*
X179792855Y-122775201D01*
X179776264Y-122785368D01*
X179583606Y-122883532D01*
X179565629Y-122890978D01*
X179359988Y-122957794D01*
X179341068Y-122962336D01*
X179126303Y-122996352D01*
X179109337Y-122997855D01*
X179001224Y-122999976D01*
X178998792Y-123000000D01*
X116001208Y-123000000D01*
X115998776Y-122999976D01*
X115890662Y-122997855D01*
X115873696Y-122996352D01*
X115658931Y-122962336D01*
X115640011Y-122957794D01*
X115434370Y-122890978D01*
X115416393Y-122883532D01*
X115223735Y-122785368D01*
X115207144Y-122775201D01*
X115032213Y-122648105D01*
X115017418Y-122635468D01*
X114864531Y-122482581D01*
X114851894Y-122467786D01*
X114724798Y-122292855D01*
X114714631Y-122276264D01*
X114616467Y-122083606D01*
X114609021Y-122065629D01*
X114542205Y-121859988D01*
X114537663Y-121841068D01*
X114503646Y-121626295D01*
X114502144Y-121609344D01*
X114500024Y-121501222D01*
X114500000Y-121498791D01*
X114500000Y-119678711D01*
X127019500Y-119678711D01*
X127019500Y-119921288D01*
X127051161Y-120161785D01*
X127113947Y-120396104D01*
X127141936Y-120463675D01*
X127206776Y-120620212D01*
X127328064Y-120830289D01*
X127328066Y-120830292D01*
X127328067Y-120830293D01*
X127475733Y-121022736D01*
X127475739Y-121022743D01*
X127647256Y-121194260D01*
X127647262Y-121194265D01*
X127839711Y-121341936D01*
X128049788Y-121463224D01*
X128273900Y-121556054D01*
X128508211Y-121618838D01*
X128688586Y-121642584D01*
X128748711Y-121650500D01*
X128748712Y-121650500D01*
X128991289Y-121650500D01*
X129039388Y-121644167D01*
X129231789Y-121618838D01*
X129466100Y-121556054D01*
X129690212Y-121463224D01*
X129900289Y-121341936D01*
X130092738Y-121194265D01*
X130264265Y-121022738D01*
X130411936Y-120830289D01*
X130533224Y-120620212D01*
X130626054Y-120396100D01*
X130688838Y-120161789D01*
X130720500Y-119921288D01*
X130720500Y-119799993D01*
X141471225Y-119799993D01*
X141471225Y-119800006D01*
X141489892Y-120025289D01*
X141545388Y-120244439D01*
X141636198Y-120451466D01*
X141759842Y-120640716D01*
X141759850Y-120640727D01*
X141912950Y-120807036D01*
X141912954Y-120807040D01*
X142091351Y-120945893D01*
X142290169Y-121053488D01*
X142290172Y-121053489D01*
X142503982Y-121126890D01*
X142503984Y-121126890D01*
X142503986Y-121126891D01*
X142726967Y-121164100D01*
X142726968Y-121164100D01*
X142953032Y-121164100D01*
X142953033Y-121164100D01*
X143176014Y-121126891D01*
X143389831Y-121053488D01*
X143588649Y-120945893D01*
X143767046Y-120807040D01*
X143920156Y-120640719D01*
X144006193Y-120509028D01*
X144059338Y-120463675D01*
X144128569Y-120454251D01*
X144191905Y-120483753D01*
X144213804Y-120509025D01*
X144299844Y-120640719D01*
X144299849Y-120640724D01*
X144299850Y-120640727D01*
X144452950Y-120807036D01*
X144452954Y-120807040D01*
X144631351Y-120945893D01*
X144830169Y-121053488D01*
X144830172Y-121053489D01*
X145043982Y-121126890D01*
X145043984Y-121126890D01*
X145043986Y-121126891D01*
X145266967Y-121164100D01*
X145266968Y-121164100D01*
X145493032Y-121164100D01*
X145493033Y-121164100D01*
X145716014Y-121126891D01*
X145929831Y-121053488D01*
X146128649Y-120945893D01*
X146307046Y-120807040D01*
X146460156Y-120640719D01*
X146546193Y-120509028D01*
X146599338Y-120463675D01*
X146668569Y-120454251D01*
X146731905Y-120483753D01*
X146753804Y-120509025D01*
X146839844Y-120640719D01*
X146839849Y-120640724D01*
X146839850Y-120640727D01*
X146992950Y-120807036D01*
X146992954Y-120807040D01*
X147171351Y-120945893D01*
X147370169Y-121053488D01*
X147370172Y-121053489D01*
X147583982Y-121126890D01*
X147583984Y-121126890D01*
X147583986Y-121126891D01*
X147806967Y-121164100D01*
X147806968Y-121164100D01*
X148033032Y-121164100D01*
X148033033Y-121164100D01*
X148256014Y-121126891D01*
X148469831Y-121053488D01*
X148668649Y-120945893D01*
X148847046Y-120807040D01*
X149000156Y-120640719D01*
X149086193Y-120509028D01*
X149139338Y-120463675D01*
X149208569Y-120454251D01*
X149271905Y-120483753D01*
X149293804Y-120509025D01*
X149379844Y-120640719D01*
X149379849Y-120640724D01*
X149379850Y-120640727D01*
X149532950Y-120807036D01*
X149532954Y-120807040D01*
X149711351Y-120945893D01*
X149910169Y-121053488D01*
X149910172Y-121053489D01*
X150123982Y-121126890D01*
X150123984Y-121126890D01*
X150123986Y-121126891D01*
X150346967Y-121164100D01*
X150346968Y-121164100D01*
X150573032Y-121164100D01*
X150573033Y-121164100D01*
X150796014Y-121126891D01*
X151009831Y-121053488D01*
X151208649Y-120945893D01*
X151387046Y-120807040D01*
X151540156Y-120640719D01*
X151626193Y-120509028D01*
X151679338Y-120463675D01*
X151748569Y-120454251D01*
X151811905Y-120483753D01*
X151833804Y-120509025D01*
X151919844Y-120640719D01*
X151919849Y-120640724D01*
X151919850Y-120640727D01*
X152072950Y-120807036D01*
X152072954Y-120807040D01*
X152251351Y-120945893D01*
X152450169Y-121053488D01*
X152450172Y-121053489D01*
X152663982Y-121126890D01*
X152663984Y-121126890D01*
X152663986Y-121126891D01*
X152886967Y-121164100D01*
X152886968Y-121164100D01*
X153113032Y-121164100D01*
X153113033Y-121164100D01*
X153336014Y-121126891D01*
X153549831Y-121053488D01*
X153748649Y-120945893D01*
X153927046Y-120807040D01*
X153981815Y-120747545D01*
X154041699Y-120711557D01*
X154111537Y-120713657D01*
X154169153Y-120753180D01*
X154189224Y-120788196D01*
X154233046Y-120905688D01*
X154233049Y-120905693D01*
X154319209Y-121020787D01*
X154319212Y-121020790D01*
X154434306Y-121106950D01*
X154434313Y-121106954D01*
X154569020Y-121157196D01*
X154569027Y-121157198D01*
X154628555Y-121163599D01*
X154628572Y-121163600D01*
X155290000Y-121163600D01*
X155290000Y-120242251D01*
X155343919Y-120273381D01*
X155473120Y-120308000D01*
X155606880Y-120308000D01*
X155736081Y-120273381D01*
X155790000Y-120242251D01*
X155790000Y-121163600D01*
X156451428Y-121163600D01*
X156451444Y-121163599D01*
X156510972Y-121157198D01*
X156510979Y-121157196D01*
X156645686Y-121106954D01*
X156645689Y-121106952D01*
X156735688Y-121039579D01*
X156801152Y-121015161D01*
X156869426Y-121030012D01*
X156884312Y-121039579D01*
X156974310Y-121106952D01*
X156974313Y-121106954D01*
X157109020Y-121157196D01*
X157109027Y-121157198D01*
X157168555Y-121163599D01*
X157168572Y-121163600D01*
X157830000Y-121163600D01*
X157830000Y-120242251D01*
X157883919Y-120273381D01*
X158013120Y-120308000D01*
X158146880Y-120308000D01*
X158276081Y-120273381D01*
X158330000Y-120242251D01*
X158330000Y-121163600D01*
X158991428Y-121163600D01*
X158991444Y-121163599D01*
X159050972Y-121157198D01*
X159050979Y-121157196D01*
X159185686Y-121106954D01*
X159185693Y-121106950D01*
X159300787Y-121020790D01*
X159300790Y-121020787D01*
X159386950Y-120905693D01*
X159386954Y-120905686D01*
X159430775Y-120788197D01*
X159472646Y-120732263D01*
X159538110Y-120707846D01*
X159606383Y-120722698D01*
X159638186Y-120747547D01*
X159692950Y-120807036D01*
X159692954Y-120807040D01*
X159871351Y-120945893D01*
X160070169Y-121053488D01*
X160070172Y-121053489D01*
X160283982Y-121126890D01*
X160283984Y-121126890D01*
X160283986Y-121126891D01*
X160506967Y-121164100D01*
X160506968Y-121164100D01*
X160733032Y-121164100D01*
X160733033Y-121164100D01*
X160956014Y-121126891D01*
X161169831Y-121053488D01*
X161368649Y-120945893D01*
X161547046Y-120807040D01*
X161700156Y-120640719D01*
X161823802Y-120451465D01*
X161914611Y-120244441D01*
X161970107Y-120025293D01*
X161978725Y-119921288D01*
X161988775Y-119800006D01*
X161988775Y-119799993D01*
X164331225Y-119799993D01*
X164331225Y-119800006D01*
X164349892Y-120025289D01*
X164405388Y-120244439D01*
X164496198Y-120451466D01*
X164619842Y-120640716D01*
X164619850Y-120640727D01*
X164772950Y-120807036D01*
X164772954Y-120807040D01*
X164951351Y-120945893D01*
X165150169Y-121053488D01*
X165150172Y-121053489D01*
X165363982Y-121126890D01*
X165363984Y-121126890D01*
X165363986Y-121126891D01*
X165586967Y-121164100D01*
X165586968Y-121164100D01*
X165813032Y-121164100D01*
X165813033Y-121164100D01*
X166036014Y-121126891D01*
X166249831Y-121053488D01*
X166448649Y-120945893D01*
X166627046Y-120807040D01*
X166780156Y-120640719D01*
X166866193Y-120509028D01*
X166919338Y-120463675D01*
X166988569Y-120454251D01*
X167051905Y-120483753D01*
X167073804Y-120509025D01*
X167159844Y-120640719D01*
X167159849Y-120640724D01*
X167159850Y-120640727D01*
X167312950Y-120807036D01*
X167312954Y-120807040D01*
X167491351Y-120945893D01*
X167690169Y-121053488D01*
X167690172Y-121053489D01*
X167903982Y-121126890D01*
X167903984Y-121126890D01*
X167903986Y-121126891D01*
X168126967Y-121164100D01*
X168126968Y-121164100D01*
X168353032Y-121164100D01*
X168353033Y-121164100D01*
X168576014Y-121126891D01*
X168789831Y-121053488D01*
X168988649Y-120945893D01*
X169167046Y-120807040D01*
X169320156Y-120640719D01*
X169406193Y-120509028D01*
X169459338Y-120463675D01*
X169528569Y-120454251D01*
X169591905Y-120483753D01*
X169613804Y-120509025D01*
X169699844Y-120640719D01*
X169699849Y-120640724D01*
X169699850Y-120640727D01*
X169852950Y-120807036D01*
X169852954Y-120807040D01*
X170031351Y-120945893D01*
X170230169Y-121053488D01*
X170230172Y-121053489D01*
X170443982Y-121126890D01*
X170443984Y-121126890D01*
X170443986Y-121126891D01*
X170666967Y-121164100D01*
X170666968Y-121164100D01*
X170893032Y-121164100D01*
X170893033Y-121164100D01*
X171116014Y-121126891D01*
X171329831Y-121053488D01*
X171528649Y-120945893D01*
X171707046Y-120807040D01*
X171860156Y-120640719D01*
X171946193Y-120509028D01*
X171999338Y-120463675D01*
X172068569Y-120454251D01*
X172131905Y-120483753D01*
X172153804Y-120509025D01*
X172239844Y-120640719D01*
X172239849Y-120640724D01*
X172239850Y-120640727D01*
X172392950Y-120807036D01*
X172392954Y-120807040D01*
X172571351Y-120945893D01*
X172770169Y-121053488D01*
X172770172Y-121053489D01*
X172983982Y-121126890D01*
X172983984Y-121126890D01*
X172983986Y-121126891D01*
X173206967Y-121164100D01*
X173206968Y-121164100D01*
X173433032Y-121164100D01*
X173433033Y-121164100D01*
X173656014Y-121126891D01*
X173869831Y-121053488D01*
X174068649Y-120945893D01*
X174247046Y-120807040D01*
X174400156Y-120640719D01*
X174486193Y-120509028D01*
X174539338Y-120463675D01*
X174608569Y-120454251D01*
X174671905Y-120483753D01*
X174693804Y-120509025D01*
X174779844Y-120640719D01*
X174779849Y-120640724D01*
X174779850Y-120640727D01*
X174932950Y-120807036D01*
X174932954Y-120807040D01*
X175111351Y-120945893D01*
X175310169Y-121053488D01*
X175310172Y-121053489D01*
X175523982Y-121126890D01*
X175523984Y-121126890D01*
X175523986Y-121126891D01*
X175746967Y-121164100D01*
X175746968Y-121164100D01*
X175973032Y-121164100D01*
X175973033Y-121164100D01*
X176196014Y-121126891D01*
X176409831Y-121053488D01*
X176608649Y-120945893D01*
X176787046Y-120807040D01*
X176940156Y-120640719D01*
X177026193Y-120509028D01*
X177079338Y-120463675D01*
X177148569Y-120454251D01*
X177211905Y-120483753D01*
X177233804Y-120509025D01*
X177319844Y-120640719D01*
X177319849Y-120640724D01*
X177319850Y-120640727D01*
X177472950Y-120807036D01*
X177472954Y-120807040D01*
X177651351Y-120945893D01*
X177850169Y-121053488D01*
X177850172Y-121053489D01*
X178063982Y-121126890D01*
X178063984Y-121126890D01*
X178063986Y-121126891D01*
X178286967Y-121164100D01*
X178286968Y-121164100D01*
X178513032Y-121164100D01*
X178513033Y-121164100D01*
X178736014Y-121126891D01*
X178949831Y-121053488D01*
X179148649Y-120945893D01*
X179327046Y-120807040D01*
X179480156Y-120640719D01*
X179603802Y-120451465D01*
X179694611Y-120244441D01*
X179750107Y-120025293D01*
X179758725Y-119921288D01*
X179768775Y-119800006D01*
X179768775Y-119799993D01*
X179755707Y-119642294D01*
X179750107Y-119574707D01*
X179694611Y-119355559D01*
X179603802Y-119148535D01*
X179480156Y-118959281D01*
X179480153Y-118959278D01*
X179480149Y-118959272D01*
X179327049Y-118792963D01*
X179327048Y-118792962D01*
X179327046Y-118792960D01*
X179148649Y-118654107D01*
X179122390Y-118639896D01*
X178949832Y-118546512D01*
X178949827Y-118546510D01*
X178736017Y-118473109D01*
X178554388Y-118442801D01*
X178513033Y-118435900D01*
X178286967Y-118435900D01*
X178245612Y-118442801D01*
X178063982Y-118473109D01*
X177850172Y-118546510D01*
X177850167Y-118546512D01*
X177651352Y-118654106D01*
X177472955Y-118792959D01*
X177472950Y-118792963D01*
X177319850Y-118959272D01*
X177319842Y-118959283D01*
X177233808Y-119090968D01*
X177180662Y-119136325D01*
X177111430Y-119145748D01*
X177048095Y-119116246D01*
X177026192Y-119090968D01*
X176940157Y-118959283D01*
X176940149Y-118959272D01*
X176787049Y-118792963D01*
X176787048Y-118792962D01*
X176787046Y-118792960D01*
X176608649Y-118654107D01*
X176582390Y-118639896D01*
X176409832Y-118546512D01*
X176409827Y-118546510D01*
X176196017Y-118473109D01*
X176014388Y-118442801D01*
X175973033Y-118435900D01*
X175746967Y-118435900D01*
X175705612Y-118442801D01*
X175523982Y-118473109D01*
X175310172Y-118546510D01*
X175310167Y-118546512D01*
X175111352Y-118654106D01*
X174932955Y-118792959D01*
X174932950Y-118792963D01*
X174779850Y-118959272D01*
X174779842Y-118959283D01*
X174693808Y-119090968D01*
X174640662Y-119136325D01*
X174571430Y-119145748D01*
X174508095Y-119116246D01*
X174486192Y-119090968D01*
X174400157Y-118959283D01*
X174400149Y-118959272D01*
X174247049Y-118792963D01*
X174247048Y-118792962D01*
X174247046Y-118792960D01*
X174068649Y-118654107D01*
X174042390Y-118639896D01*
X173869832Y-118546512D01*
X173869827Y-118546510D01*
X173656017Y-118473109D01*
X173474388Y-118442801D01*
X173433033Y-118435900D01*
X173206967Y-118435900D01*
X173165612Y-118442801D01*
X172983982Y-118473109D01*
X172770172Y-118546510D01*
X172770167Y-118546512D01*
X172571352Y-118654106D01*
X172392955Y-118792959D01*
X172392950Y-118792963D01*
X172239850Y-118959272D01*
X172239842Y-118959283D01*
X172153808Y-119090968D01*
X172100662Y-119136325D01*
X172031430Y-119145748D01*
X171968095Y-119116246D01*
X171946192Y-119090968D01*
X171860157Y-118959283D01*
X171860149Y-118959272D01*
X171707049Y-118792963D01*
X171707048Y-118792962D01*
X171707046Y-118792960D01*
X171528649Y-118654107D01*
X171502390Y-118639896D01*
X171329832Y-118546512D01*
X171329827Y-118546510D01*
X171116017Y-118473109D01*
X170934388Y-118442801D01*
X170893033Y-118435900D01*
X170666967Y-118435900D01*
X170625612Y-118442801D01*
X170443982Y-118473109D01*
X170230172Y-118546510D01*
X170230167Y-118546512D01*
X170031352Y-118654106D01*
X169852955Y-118792959D01*
X169852950Y-118792963D01*
X169699850Y-118959272D01*
X169699842Y-118959283D01*
X169613808Y-119090968D01*
X169560662Y-119136325D01*
X169491430Y-119145748D01*
X169428095Y-119116246D01*
X169406192Y-119090968D01*
X169320157Y-118959283D01*
X169320149Y-118959272D01*
X169167049Y-118792963D01*
X169167048Y-118792962D01*
X169167046Y-118792960D01*
X168988649Y-118654107D01*
X168962390Y-118639896D01*
X168789832Y-118546512D01*
X168789827Y-118546510D01*
X168576017Y-118473109D01*
X168394388Y-118442801D01*
X168353033Y-118435900D01*
X168126967Y-118435900D01*
X168085612Y-118442801D01*
X167903982Y-118473109D01*
X167690172Y-118546510D01*
X167690167Y-118546512D01*
X167491352Y-118654106D01*
X167312955Y-118792959D01*
X167312950Y-118792963D01*
X167159850Y-118959272D01*
X167159842Y-118959283D01*
X167073808Y-119090968D01*
X167020662Y-119136325D01*
X166951430Y-119145748D01*
X166888095Y-119116246D01*
X166866192Y-119090968D01*
X166780157Y-118959283D01*
X166780149Y-118959272D01*
X166627049Y-118792963D01*
X166627048Y-118792962D01*
X166627046Y-118792960D01*
X166448649Y-118654107D01*
X166422390Y-118639896D01*
X166249832Y-118546512D01*
X166249827Y-118546510D01*
X166036017Y-118473109D01*
X165854388Y-118442801D01*
X165813033Y-118435900D01*
X165586967Y-118435900D01*
X165545612Y-118442801D01*
X165363982Y-118473109D01*
X165150172Y-118546510D01*
X165150167Y-118546512D01*
X164951352Y-118654106D01*
X164772955Y-118792959D01*
X164772950Y-118792963D01*
X164619850Y-118959272D01*
X164619842Y-118959283D01*
X164496198Y-119148533D01*
X164405388Y-119355560D01*
X164349892Y-119574710D01*
X164331225Y-119799993D01*
X161988775Y-119799993D01*
X161975707Y-119642294D01*
X161970107Y-119574707D01*
X161914611Y-119355559D01*
X161823802Y-119148535D01*
X161700156Y-118959281D01*
X161700153Y-118959278D01*
X161700149Y-118959272D01*
X161547049Y-118792963D01*
X161547048Y-118792962D01*
X161547046Y-118792960D01*
X161368649Y-118654107D01*
X161342390Y-118639896D01*
X161169832Y-118546512D01*
X161169827Y-118546510D01*
X160956017Y-118473109D01*
X160774388Y-118442801D01*
X160733033Y-118435900D01*
X160506967Y-118435900D01*
X160465612Y-118442801D01*
X160283982Y-118473109D01*
X160070172Y-118546510D01*
X160070167Y-118546512D01*
X159871352Y-118654106D01*
X159692955Y-118792958D01*
X159638186Y-118852453D01*
X159578298Y-118888443D01*
X159508460Y-118886342D01*
X159450845Y-118846817D01*
X159430775Y-118811802D01*
X159386954Y-118694313D01*
X159386950Y-118694306D01*
X159300790Y-118579212D01*
X159300787Y-118579209D01*
X159185693Y-118493049D01*
X159185686Y-118493045D01*
X159050979Y-118442803D01*
X159050972Y-118442801D01*
X158991444Y-118436400D01*
X158330000Y-118436400D01*
X158330000Y-119357748D01*
X158276081Y-119326619D01*
X158146880Y-119292000D01*
X158013120Y-119292000D01*
X157883919Y-119326619D01*
X157830000Y-119357748D01*
X157830000Y-118436400D01*
X157168555Y-118436400D01*
X157109027Y-118442801D01*
X157109020Y-118442803D01*
X156974313Y-118493045D01*
X156974311Y-118493047D01*
X156884311Y-118560421D01*
X156818847Y-118584838D01*
X156750574Y-118569987D01*
X156735689Y-118560421D01*
X156645688Y-118493047D01*
X156645686Y-118493045D01*
X156510979Y-118442803D01*
X156510972Y-118442801D01*
X156451444Y-118436400D01*
X155790000Y-118436400D01*
X155790000Y-119357748D01*
X155736081Y-119326619D01*
X155606880Y-119292000D01*
X155473120Y-119292000D01*
X155343919Y-119326619D01*
X155290000Y-119357748D01*
X155290000Y-118436400D01*
X154628555Y-118436400D01*
X154569027Y-118442801D01*
X154569020Y-118442803D01*
X154434313Y-118493045D01*
X154434306Y-118493049D01*
X154319212Y-118579209D01*
X154319209Y-118579212D01*
X154233049Y-118694306D01*
X154233046Y-118694312D01*
X154189224Y-118811803D01*
X154147352Y-118867736D01*
X154081887Y-118892153D01*
X154013615Y-118877301D01*
X153981813Y-118852452D01*
X153927049Y-118792963D01*
X153927048Y-118792962D01*
X153927046Y-118792960D01*
X153748649Y-118654107D01*
X153722390Y-118639896D01*
X153549832Y-118546512D01*
X153549827Y-118546510D01*
X153336017Y-118473109D01*
X153154388Y-118442801D01*
X153113033Y-118435900D01*
X152886967Y-118435900D01*
X152845612Y-118442801D01*
X152663982Y-118473109D01*
X152450172Y-118546510D01*
X152450167Y-118546512D01*
X152251352Y-118654106D01*
X152072955Y-118792959D01*
X152072950Y-118792963D01*
X151919850Y-118959272D01*
X151919842Y-118959283D01*
X151833808Y-119090968D01*
X151780662Y-119136325D01*
X151711430Y-119145748D01*
X151648095Y-119116246D01*
X151626192Y-119090968D01*
X151540157Y-118959283D01*
X151540149Y-118959272D01*
X151387049Y-118792963D01*
X151387048Y-118792962D01*
X151387046Y-118792960D01*
X151208649Y-118654107D01*
X151182390Y-118639896D01*
X151009832Y-118546512D01*
X151009827Y-118546510D01*
X150796017Y-118473109D01*
X150614388Y-118442801D01*
X150573033Y-118435900D01*
X150346967Y-118435900D01*
X150305612Y-118442801D01*
X150123982Y-118473109D01*
X149910172Y-118546510D01*
X149910167Y-118546512D01*
X149711352Y-118654106D01*
X149532955Y-118792959D01*
X149532950Y-118792963D01*
X149379850Y-118959272D01*
X149379842Y-118959283D01*
X149293808Y-119090968D01*
X149240662Y-119136325D01*
X149171430Y-119145748D01*
X149108095Y-119116246D01*
X149086192Y-119090968D01*
X149000157Y-118959283D01*
X149000149Y-118959272D01*
X148847049Y-118792963D01*
X148847048Y-118792962D01*
X148847046Y-118792960D01*
X148668649Y-118654107D01*
X148642390Y-118639896D01*
X148469832Y-118546512D01*
X148469827Y-118546510D01*
X148256017Y-118473109D01*
X148074388Y-118442801D01*
X148033033Y-118435900D01*
X147806967Y-118435900D01*
X147765612Y-118442801D01*
X147583982Y-118473109D01*
X147370172Y-118546510D01*
X147370167Y-118546512D01*
X147171352Y-118654106D01*
X146992955Y-118792959D01*
X146992950Y-118792963D01*
X146839850Y-118959272D01*
X146839842Y-118959283D01*
X146753808Y-119090968D01*
X146700662Y-119136325D01*
X146631430Y-119145748D01*
X146568095Y-119116246D01*
X146546192Y-119090968D01*
X146460157Y-118959283D01*
X146460149Y-118959272D01*
X146307049Y-118792963D01*
X146307048Y-118792962D01*
X146307046Y-118792960D01*
X146128649Y-118654107D01*
X146102390Y-118639896D01*
X145929832Y-118546512D01*
X145929827Y-118546510D01*
X145716017Y-118473109D01*
X145534388Y-118442801D01*
X145493033Y-118435900D01*
X145266967Y-118435900D01*
X145225612Y-118442801D01*
X145043982Y-118473109D01*
X144830172Y-118546510D01*
X144830167Y-118546512D01*
X144631352Y-118654106D01*
X144452955Y-118792959D01*
X144452950Y-118792963D01*
X144299850Y-118959272D01*
X144299842Y-118959283D01*
X144213808Y-119090968D01*
X144160662Y-119136325D01*
X144091430Y-119145748D01*
X144028095Y-119116246D01*
X144006192Y-119090968D01*
X143920157Y-118959283D01*
X143920149Y-118959272D01*
X143767049Y-118792963D01*
X143767048Y-118792962D01*
X143767046Y-118792960D01*
X143588649Y-118654107D01*
X143562390Y-118639896D01*
X143389832Y-118546512D01*
X143389827Y-118546510D01*
X143176017Y-118473109D01*
X142994388Y-118442801D01*
X142953033Y-118435900D01*
X142726967Y-118435900D01*
X142685612Y-118442801D01*
X142503982Y-118473109D01*
X142290172Y-118546510D01*
X142290167Y-118546512D01*
X142091352Y-118654106D01*
X141912955Y-118792959D01*
X141912950Y-118792963D01*
X141759850Y-118959272D01*
X141759842Y-118959283D01*
X141636198Y-119148533D01*
X141545388Y-119355560D01*
X141489892Y-119574710D01*
X141471225Y-119799993D01*
X130720500Y-119799993D01*
X130720500Y-119678712D01*
X130688838Y-119438211D01*
X130626054Y-119203900D01*
X130533224Y-118979788D01*
X130411936Y-118769711D01*
X130270078Y-118584838D01*
X130264266Y-118577263D01*
X130264260Y-118577256D01*
X130092743Y-118405739D01*
X130092736Y-118405733D01*
X129900293Y-118258067D01*
X129900292Y-118258066D01*
X129900289Y-118258064D01*
X129690212Y-118136776D01*
X129690205Y-118136773D01*
X129466104Y-118043947D01*
X129231785Y-117981161D01*
X128991289Y-117949500D01*
X128991288Y-117949500D01*
X128748712Y-117949500D01*
X128748711Y-117949500D01*
X128508214Y-117981161D01*
X128273895Y-118043947D01*
X128049794Y-118136773D01*
X128049785Y-118136777D01*
X127839706Y-118258067D01*
X127647263Y-118405733D01*
X127647256Y-118405739D01*
X127475739Y-118577256D01*
X127475733Y-118577263D01*
X127328067Y-118769706D01*
X127206777Y-118979785D01*
X127206773Y-118979794D01*
X127113947Y-119203895D01*
X127051161Y-119438214D01*
X127019500Y-119678711D01*
X114500000Y-119678711D01*
X114500000Y-113743753D01*
X156650000Y-113743753D01*
X156650000Y-113750000D01*
X157566988Y-113750000D01*
X157534075Y-113807007D01*
X157500000Y-113934174D01*
X157500000Y-114065826D01*
X157534075Y-114192993D01*
X157566988Y-114250000D01*
X156650000Y-114250000D01*
X156650000Y-114256246D01*
X156683242Y-114466127D01*
X156683242Y-114466130D01*
X156748904Y-114668217D01*
X156845379Y-114857557D01*
X156970272Y-115029459D01*
X156970276Y-115029464D01*
X157120535Y-115179723D01*
X157120540Y-115179727D01*
X157292442Y-115304620D01*
X157481782Y-115401095D01*
X157683871Y-115466757D01*
X157750000Y-115477231D01*
X157750000Y-114433012D01*
X157807007Y-114465925D01*
X157934174Y-114500000D01*
X158065826Y-114500000D01*
X158192993Y-114465925D01*
X158250000Y-114433012D01*
X158250000Y-115477230D01*
X158316126Y-115466757D01*
X158316129Y-115466757D01*
X158518217Y-115401095D01*
X158707557Y-115304620D01*
X158879458Y-115179728D01*
X159018330Y-115040856D01*
X159079653Y-115007371D01*
X159149345Y-115012355D01*
X159205279Y-115054226D01*
X159211551Y-115063440D01*
X159215185Y-115069331D01*
X159215186Y-115069334D01*
X159307288Y-115218656D01*
X159431344Y-115342712D01*
X159580666Y-115434814D01*
X159747203Y-115489999D01*
X159849991Y-115500500D01*
X161150008Y-115500499D01*
X161252797Y-115489999D01*
X161419334Y-115434814D01*
X161568656Y-115342712D01*
X161692712Y-115218656D01*
X161784814Y-115069334D01*
X161839999Y-114902797D01*
X161850500Y-114800009D01*
X161850499Y-113199992D01*
X161839999Y-113097203D01*
X161807037Y-112997733D01*
X161804636Y-112927907D01*
X161840367Y-112867865D01*
X161902888Y-112836672D01*
X161948935Y-112837114D01*
X161988270Y-112844937D01*
X162016230Y-112850499D01*
X162016232Y-112850500D01*
X162016233Y-112850500D01*
X162183768Y-112850500D01*
X162183769Y-112850499D01*
X162348082Y-112817816D01*
X162502863Y-112753703D01*
X162642162Y-112660626D01*
X162760626Y-112542162D01*
X162853703Y-112402863D01*
X162917816Y-112248082D01*
X162950500Y-112083767D01*
X162950500Y-111916233D01*
X162917816Y-111751918D01*
X162853703Y-111597137D01*
X162822537Y-111550494D01*
X162760626Y-111457837D01*
X162642162Y-111339373D01*
X162502860Y-111246295D01*
X162348082Y-111182184D01*
X162348074Y-111182182D01*
X162183771Y-111149500D01*
X162183767Y-111149500D01*
X162016233Y-111149500D01*
X162016228Y-111149500D01*
X161851925Y-111182182D01*
X161851917Y-111182184D01*
X161697139Y-111246295D01*
X161557837Y-111339373D01*
X161439373Y-111457837D01*
X161346295Y-111597139D01*
X161282184Y-111751917D01*
X161282182Y-111751925D01*
X161249500Y-111916228D01*
X161249500Y-112083771D01*
X161282182Y-112248074D01*
X161282185Y-112248086D01*
X161317269Y-112332786D01*
X161324738Y-112402255D01*
X161293463Y-112464734D01*
X161233374Y-112500386D01*
X161190106Y-112503596D01*
X161150011Y-112499500D01*
X159849998Y-112499500D01*
X159849981Y-112499501D01*
X159747203Y-112510000D01*
X159747200Y-112510001D01*
X159580668Y-112565185D01*
X159580663Y-112565187D01*
X159431342Y-112657289D01*
X159307289Y-112781342D01*
X159211551Y-112936559D01*
X159159603Y-112983283D01*
X159090640Y-112994506D01*
X159026558Y-112966662D01*
X159018331Y-112959143D01*
X158879464Y-112820276D01*
X158879459Y-112820272D01*
X158707557Y-112695379D01*
X158518215Y-112598903D01*
X158316124Y-112533241D01*
X158250000Y-112522768D01*
X158250000Y-113566988D01*
X158192993Y-113534075D01*
X158065826Y-113500000D01*
X157934174Y-113500000D01*
X157807007Y-113534075D01*
X157750000Y-113566988D01*
X157750000Y-112522768D01*
X157749999Y-112522768D01*
X157683875Y-112533241D01*
X157481784Y-112598903D01*
X157292442Y-112695379D01*
X157120540Y-112820272D01*
X157120535Y-112820276D01*
X156970276Y-112970535D01*
X156970272Y-112970540D01*
X156845379Y-113142442D01*
X156748904Y-113331782D01*
X156683242Y-113533869D01*
X156683242Y-113533872D01*
X156650000Y-113743753D01*
X114500000Y-113743753D01*
X114500000Y-90593713D01*
X123399500Y-90593713D01*
X123399500Y-90806287D01*
X123432754Y-91016243D01*
X123494328Y-91205748D01*
X123498444Y-91218414D01*
X123594951Y-91407820D01*
X123719890Y-91579786D01*
X123870209Y-91730105D01*
X123870214Y-91730109D01*
X124034793Y-91849682D01*
X124077459Y-91905011D01*
X124083438Y-91974625D01*
X124050833Y-92036420D01*
X124034793Y-92050318D01*
X123870214Y-92169890D01*
X123870209Y-92169894D01*
X123719890Y-92320213D01*
X123594951Y-92492179D01*
X123498444Y-92681585D01*
X123432753Y-92883760D01*
X123399500Y-93093713D01*
X123399500Y-93306286D01*
X123424554Y-93464475D01*
X123432754Y-93516243D01*
X123497739Y-93716246D01*
X123498444Y-93718414D01*
X123594951Y-93907820D01*
X123719890Y-94079786D01*
X123858705Y-94218601D01*
X123892190Y-94279924D01*
X123887206Y-94349616D01*
X123845334Y-94405549D01*
X123836121Y-94411821D01*
X123681342Y-94507289D01*
X123557289Y-94631342D01*
X123465187Y-94780663D01*
X123465186Y-94780666D01*
X123410001Y-94947203D01*
X123410001Y-94947204D01*
X123410000Y-94947204D01*
X123399500Y-95049983D01*
X123399500Y-96350001D01*
X123399501Y-96350018D01*
X123410000Y-96452796D01*
X123410001Y-96452799D01*
X123437423Y-96535551D01*
X123465186Y-96619334D01*
X123557288Y-96768656D01*
X123681344Y-96892712D01*
X123830666Y-96984814D01*
X123997203Y-97039999D01*
X124099991Y-97050500D01*
X125650008Y-97050499D01*
X125752797Y-97039999D01*
X125879031Y-96998168D01*
X125948855Y-96995767D01*
X126008897Y-97031498D01*
X126040091Y-97094018D01*
X126039650Y-97140065D01*
X126024500Y-97216234D01*
X126024500Y-97383771D01*
X126057182Y-97548074D01*
X126057184Y-97548082D01*
X126121295Y-97702860D01*
X126214373Y-97842162D01*
X126332837Y-97960626D01*
X126425494Y-98022537D01*
X126472137Y-98053703D01*
X126626918Y-98117816D01*
X126791228Y-98150499D01*
X126791232Y-98150500D01*
X126791233Y-98150500D01*
X126958768Y-98150500D01*
X126958769Y-98150499D01*
X127123082Y-98117816D01*
X127277863Y-98053703D01*
X127417162Y-97960626D01*
X127535626Y-97842162D01*
X127628703Y-97702863D01*
X127692816Y-97548082D01*
X127725500Y-97383767D01*
X127725500Y-97216233D01*
X127692816Y-97051918D01*
X127628703Y-96897137D01*
X127572704Y-96813329D01*
X127535626Y-96757837D01*
X127417162Y-96639373D01*
X127277860Y-96546295D01*
X127123082Y-96482184D01*
X127123074Y-96482182D01*
X126958771Y-96449500D01*
X126958767Y-96449500D01*
X126791233Y-96449500D01*
X126791228Y-96449500D01*
X126626925Y-96482182D01*
X126626913Y-96482185D01*
X126516109Y-96528082D01*
X126446640Y-96535551D01*
X126384161Y-96504276D01*
X126348509Y-96444187D01*
X126345299Y-96400918D01*
X126350499Y-96350016D01*
X126350500Y-96350009D01*
X126350500Y-96000000D01*
X147944815Y-96000000D01*
X147963503Y-96177805D01*
X147963504Y-96177807D01*
X148018747Y-96347829D01*
X148018750Y-96347835D01*
X148108141Y-96502665D01*
X148137752Y-96535551D01*
X148227764Y-96635521D01*
X148227767Y-96635523D01*
X148227770Y-96635526D01*
X148372407Y-96740612D01*
X148535733Y-96813329D01*
X148710609Y-96850500D01*
X148710610Y-96850500D01*
X148889389Y-96850500D01*
X148889391Y-96850500D01*
X149064267Y-96813329D01*
X149227593Y-96740612D01*
X149319025Y-96674182D01*
X149384831Y-96650702D01*
X149391911Y-96650500D01*
X151768259Y-96650500D01*
X151818693Y-96661219D01*
X151935733Y-96713329D01*
X152110609Y-96750500D01*
X152110610Y-96750500D01*
X152289389Y-96750500D01*
X152289391Y-96750500D01*
X152464267Y-96713329D01*
X152627593Y-96640612D01*
X152772230Y-96535526D01*
X152891859Y-96402665D01*
X152981250Y-96247835D01*
X153036497Y-96077803D01*
X153055185Y-95900000D01*
X153036497Y-95722197D01*
X153007386Y-95632602D01*
X152981252Y-95552170D01*
X152981249Y-95552164D01*
X152977629Y-95545894D01*
X152891859Y-95397335D01*
X152821787Y-95319512D01*
X152772235Y-95264478D01*
X152772232Y-95264476D01*
X152772231Y-95264475D01*
X152772230Y-95264474D01*
X152627593Y-95159388D01*
X152464267Y-95086671D01*
X152450539Y-95083753D01*
X152438661Y-95081228D01*
X152377180Y-95048034D01*
X152343405Y-94986870D01*
X152348059Y-94917156D01*
X152389665Y-94861024D01*
X152414008Y-94846659D01*
X152427593Y-94840612D01*
X152572230Y-94735526D01*
X152691859Y-94602665D01*
X152781250Y-94447835D01*
X152836497Y-94277803D01*
X152855185Y-94100000D01*
X152836497Y-93922197D01*
X152781250Y-93752165D01*
X152691859Y-93597335D01*
X152645003Y-93545296D01*
X152572235Y-93464478D01*
X152572232Y-93464476D01*
X152572231Y-93464475D01*
X152572230Y-93464474D01*
X152483490Y-93400000D01*
X157344815Y-93400000D01*
X157363503Y-93577805D01*
X157363504Y-93577807D01*
X157418747Y-93747829D01*
X157418750Y-93747835D01*
X157508141Y-93902665D01*
X157525728Y-93922197D01*
X157627764Y-94035521D01*
X157627767Y-94035523D01*
X157627770Y-94035526D01*
X157772407Y-94140612D01*
X157935733Y-94213329D01*
X158110609Y-94250500D01*
X158110610Y-94250500D01*
X158289389Y-94250500D01*
X158289391Y-94250500D01*
X158464267Y-94213329D01*
X158627593Y-94140612D01*
X158719025Y-94074182D01*
X158784831Y-94050702D01*
X158791911Y-94050500D01*
X161664071Y-94050500D01*
X161748615Y-94033682D01*
X161789744Y-94025501D01*
X161908127Y-93976465D01*
X161936181Y-93957720D01*
X162014669Y-93905277D01*
X164059953Y-91859993D01*
X177158225Y-91859993D01*
X177158225Y-91860006D01*
X177176892Y-92085289D01*
X177232388Y-92304439D01*
X177323198Y-92511466D01*
X177446842Y-92700716D01*
X177446850Y-92700727D01*
X177599950Y-92867036D01*
X177599954Y-92867040D01*
X177778351Y-93005893D01*
X177806165Y-93020945D01*
X177855755Y-93070165D01*
X177870863Y-93138382D01*
X177846692Y-93203937D01*
X177806165Y-93239055D01*
X177778352Y-93254106D01*
X177599955Y-93392959D01*
X177599950Y-93392963D01*
X177446850Y-93559272D01*
X177446842Y-93559283D01*
X177323198Y-93748533D01*
X177232388Y-93955560D01*
X177176892Y-94174710D01*
X177158225Y-94399993D01*
X177158225Y-94400006D01*
X177176892Y-94625289D01*
X177232388Y-94844439D01*
X177323198Y-95051466D01*
X177446842Y-95240716D01*
X177446850Y-95240727D01*
X177599950Y-95407036D01*
X177599954Y-95407040D01*
X177778351Y-95545893D01*
X177806165Y-95560945D01*
X177855755Y-95610165D01*
X177870863Y-95678382D01*
X177846692Y-95743937D01*
X177806165Y-95779055D01*
X177778352Y-95794106D01*
X177599955Y-95932959D01*
X177599950Y-95932963D01*
X177446850Y-96099272D01*
X177446842Y-96099283D01*
X177323198Y-96288533D01*
X177232388Y-96495560D01*
X177176892Y-96714710D01*
X177158225Y-96939993D01*
X177158225Y-96940006D01*
X177176892Y-97165289D01*
X177232388Y-97384439D01*
X177323198Y-97591466D01*
X177446842Y-97780716D01*
X177446850Y-97780727D01*
X177550752Y-97893593D01*
X177599954Y-97947040D01*
X177778351Y-98085893D01*
X177977169Y-98193488D01*
X177977172Y-98193489D01*
X178190982Y-98266890D01*
X178190984Y-98266890D01*
X178190986Y-98266891D01*
X178413967Y-98304100D01*
X178413968Y-98304100D01*
X178640032Y-98304100D01*
X178640033Y-98304100D01*
X178863014Y-98266891D01*
X179076831Y-98193488D01*
X179275649Y-98085893D01*
X179454046Y-97947040D01*
X179508435Y-97887957D01*
X179568320Y-97851969D01*
X179638158Y-97854069D01*
X179695774Y-97893593D01*
X179715845Y-97928609D01*
X179759602Y-98045928D01*
X179759606Y-98045935D01*
X179845852Y-98161144D01*
X179845855Y-98161147D01*
X179961064Y-98247393D01*
X179961071Y-98247397D01*
X180095917Y-98297691D01*
X180095916Y-98297691D01*
X180102844Y-98298435D01*
X180155527Y-98304100D01*
X181978472Y-98304099D01*
X182038083Y-98297691D01*
X182172931Y-98247396D01*
X182288146Y-98161146D01*
X182374396Y-98045931D01*
X182424691Y-97911083D01*
X182431100Y-97851473D01*
X182431099Y-96028528D01*
X182424691Y-95968917D01*
X182418154Y-95951391D01*
X182374397Y-95834071D01*
X182374393Y-95834064D01*
X182288147Y-95718855D01*
X182288144Y-95718852D01*
X182172935Y-95632606D01*
X182172928Y-95632602D01*
X182058016Y-95589743D01*
X182002082Y-95547872D01*
X181977665Y-95482408D01*
X181992517Y-95414135D01*
X182010113Y-95389586D01*
X182147156Y-95240719D01*
X182270802Y-95051465D01*
X182361611Y-94844441D01*
X182417107Y-94625293D01*
X182431591Y-94450498D01*
X182435775Y-94400006D01*
X182435775Y-94399993D01*
X182420307Y-94213329D01*
X182417107Y-94174707D01*
X182361611Y-93955559D01*
X182270802Y-93748535D01*
X182147156Y-93559281D01*
X182147153Y-93559278D01*
X182147149Y-93559272D01*
X181994049Y-93392963D01*
X181994048Y-93392962D01*
X181994046Y-93392960D01*
X181815649Y-93254107D01*
X181815647Y-93254106D01*
X181815646Y-93254105D01*
X181815639Y-93254100D01*
X181787836Y-93239055D01*
X181738244Y-93189837D01*
X181723135Y-93121620D01*
X181747306Y-93056064D01*
X181787836Y-93020945D01*
X181815639Y-93005899D01*
X181815642Y-93005896D01*
X181815649Y-93005893D01*
X181994046Y-92867040D01*
X182147156Y-92700719D01*
X182270802Y-92511465D01*
X182361611Y-92304441D01*
X182417107Y-92085293D01*
X182430358Y-91925376D01*
X182435775Y-91860006D01*
X182435775Y-91859993D01*
X182418554Y-91652170D01*
X182417107Y-91634707D01*
X182361611Y-91415559D01*
X182270802Y-91208535D01*
X182232232Y-91149500D01*
X182208979Y-91113908D01*
X182147156Y-91019281D01*
X182147153Y-91019278D01*
X182147149Y-91019272D01*
X181994049Y-90852963D01*
X181994048Y-90852962D01*
X181994046Y-90852960D01*
X181815649Y-90714107D01*
X181789390Y-90699896D01*
X181616832Y-90606512D01*
X181616827Y-90606510D01*
X181403017Y-90533109D01*
X181235778Y-90505202D01*
X181180033Y-90495900D01*
X180953967Y-90495900D01*
X180909370Y-90503341D01*
X180730982Y-90533109D01*
X180517172Y-90606510D01*
X180517167Y-90606512D01*
X180318352Y-90714106D01*
X180139955Y-90852959D01*
X180139950Y-90852963D01*
X179986850Y-91019272D01*
X179986842Y-91019283D01*
X179900808Y-91150968D01*
X179847662Y-91196325D01*
X179778430Y-91205748D01*
X179715095Y-91176246D01*
X179693192Y-91150968D01*
X179641741Y-91072217D01*
X179607156Y-91019281D01*
X179607153Y-91019278D01*
X179607149Y-91019272D01*
X179454049Y-90852963D01*
X179454048Y-90852962D01*
X179454046Y-90852960D01*
X179275649Y-90714107D01*
X179249390Y-90699896D01*
X179076832Y-90606512D01*
X179076827Y-90606510D01*
X178863017Y-90533109D01*
X178695778Y-90505202D01*
X178640033Y-90495900D01*
X178413967Y-90495900D01*
X178369370Y-90503341D01*
X178190982Y-90533109D01*
X177977172Y-90606510D01*
X177977167Y-90606512D01*
X177778352Y-90714106D01*
X177599955Y-90852959D01*
X177599950Y-90852963D01*
X177446850Y-91019272D01*
X177446842Y-91019283D01*
X177323198Y-91208533D01*
X177232388Y-91415560D01*
X177176892Y-91634710D01*
X177158225Y-91859993D01*
X164059953Y-91859993D01*
X166205277Y-89714669D01*
X166276466Y-89608126D01*
X166325501Y-89489743D01*
X166333717Y-89448443D01*
X166350500Y-89364069D01*
X166350500Y-72812896D01*
X166370185Y-72745857D01*
X166415481Y-72703841D01*
X166448649Y-72685893D01*
X166627046Y-72547040D01*
X166780156Y-72380719D01*
X166866193Y-72249028D01*
X166919338Y-72203675D01*
X166988569Y-72194251D01*
X167051905Y-72223753D01*
X167073804Y-72249025D01*
X167159844Y-72380719D01*
X167159849Y-72380724D01*
X167159850Y-72380727D01*
X167312950Y-72547036D01*
X167312954Y-72547040D01*
X167491351Y-72685893D01*
X167690169Y-72793488D01*
X167690172Y-72793489D01*
X167903982Y-72866890D01*
X167903984Y-72866890D01*
X167903986Y-72866891D01*
X168126967Y-72904100D01*
X168126968Y-72904100D01*
X168353032Y-72904100D01*
X168353033Y-72904100D01*
X168576014Y-72866891D01*
X168789831Y-72793488D01*
X168988649Y-72685893D01*
X169167046Y-72547040D01*
X169320156Y-72380719D01*
X169406193Y-72249028D01*
X169459338Y-72203675D01*
X169528569Y-72194251D01*
X169591905Y-72223753D01*
X169613804Y-72249025D01*
X169699844Y-72380719D01*
X169699849Y-72380724D01*
X169699850Y-72380727D01*
X169852950Y-72547036D01*
X169852954Y-72547040D01*
X170031351Y-72685893D01*
X170230169Y-72793488D01*
X170230172Y-72793489D01*
X170443982Y-72866890D01*
X170443984Y-72866890D01*
X170443986Y-72866891D01*
X170666967Y-72904100D01*
X170666968Y-72904100D01*
X170893032Y-72904100D01*
X170893033Y-72904100D01*
X171116014Y-72866891D01*
X171329831Y-72793488D01*
X171528649Y-72685893D01*
X171707046Y-72547040D01*
X171860156Y-72380719D01*
X171946193Y-72249028D01*
X171999338Y-72203675D01*
X172068569Y-72194251D01*
X172131905Y-72223753D01*
X172153804Y-72249025D01*
X172239844Y-72380719D01*
X172239849Y-72380724D01*
X172239850Y-72380727D01*
X172392950Y-72547036D01*
X172392954Y-72547040D01*
X172571351Y-72685893D01*
X172770169Y-72793488D01*
X172770172Y-72793489D01*
X172983982Y-72866890D01*
X172983984Y-72866890D01*
X172983986Y-72866891D01*
X173206967Y-72904100D01*
X173206968Y-72904100D01*
X173433032Y-72904100D01*
X173433033Y-72904100D01*
X173656014Y-72866891D01*
X173869831Y-72793488D01*
X174068649Y-72685893D01*
X174247046Y-72547040D01*
X174400156Y-72380719D01*
X174486193Y-72249028D01*
X174539338Y-72203675D01*
X174608569Y-72194251D01*
X174671905Y-72223753D01*
X174693804Y-72249025D01*
X174779844Y-72380719D01*
X174779849Y-72380724D01*
X174779850Y-72380727D01*
X174932950Y-72547036D01*
X174932954Y-72547040D01*
X175111351Y-72685893D01*
X175310169Y-72793488D01*
X175310172Y-72793489D01*
X175523982Y-72866890D01*
X175523984Y-72866890D01*
X175523986Y-72866891D01*
X175746967Y-72904100D01*
X175746968Y-72904100D01*
X175973032Y-72904100D01*
X175973033Y-72904100D01*
X176196014Y-72866891D01*
X176409831Y-72793488D01*
X176608649Y-72685893D01*
X176787046Y-72547040D01*
X176940156Y-72380719D01*
X177026193Y-72249028D01*
X177079338Y-72203675D01*
X177148569Y-72194251D01*
X177211905Y-72223753D01*
X177233804Y-72249025D01*
X177319844Y-72380719D01*
X177319849Y-72380724D01*
X177319850Y-72380727D01*
X177472950Y-72547036D01*
X177472954Y-72547040D01*
X177651351Y-72685893D01*
X177850169Y-72793488D01*
X177850172Y-72793489D01*
X178063982Y-72866890D01*
X178063984Y-72866890D01*
X178063986Y-72866891D01*
X178286967Y-72904100D01*
X178286968Y-72904100D01*
X178513032Y-72904100D01*
X178513033Y-72904100D01*
X178736014Y-72866891D01*
X178949831Y-72793488D01*
X179148649Y-72685893D01*
X179327046Y-72547040D01*
X179480156Y-72380719D01*
X179603802Y-72191465D01*
X179694611Y-71984441D01*
X179750107Y-71765293D01*
X179758725Y-71661288D01*
X179768775Y-71540006D01*
X179768775Y-71539993D01*
X179755707Y-71382294D01*
X179750107Y-71314707D01*
X179694611Y-71095559D01*
X179603802Y-70888535D01*
X179480156Y-70699281D01*
X179480153Y-70699278D01*
X179480149Y-70699272D01*
X179327049Y-70532963D01*
X179327048Y-70532962D01*
X179327046Y-70532960D01*
X179148649Y-70394107D01*
X179122390Y-70379896D01*
X178949832Y-70286512D01*
X178949827Y-70286510D01*
X178736017Y-70213109D01*
X178554388Y-70182801D01*
X178513033Y-70175900D01*
X178286967Y-70175900D01*
X178245612Y-70182801D01*
X178063982Y-70213109D01*
X177850172Y-70286510D01*
X177850167Y-70286512D01*
X177651352Y-70394106D01*
X177472955Y-70532959D01*
X177472950Y-70532963D01*
X177319850Y-70699272D01*
X177319842Y-70699283D01*
X177233808Y-70830968D01*
X177180662Y-70876325D01*
X177111430Y-70885748D01*
X177048095Y-70856246D01*
X177026192Y-70830968D01*
X176940157Y-70699283D01*
X176940149Y-70699272D01*
X176787049Y-70532963D01*
X176787048Y-70532962D01*
X176787046Y-70532960D01*
X176608649Y-70394107D01*
X176582390Y-70379896D01*
X176409832Y-70286512D01*
X176409827Y-70286510D01*
X176196017Y-70213109D01*
X176014388Y-70182801D01*
X175973033Y-70175900D01*
X175746967Y-70175900D01*
X175705612Y-70182801D01*
X175523982Y-70213109D01*
X175310172Y-70286510D01*
X175310167Y-70286512D01*
X175111352Y-70394106D01*
X174932955Y-70532959D01*
X174932950Y-70532963D01*
X174779850Y-70699272D01*
X174779842Y-70699283D01*
X174693808Y-70830968D01*
X174640662Y-70876325D01*
X174571430Y-70885748D01*
X174508095Y-70856246D01*
X174486192Y-70830968D01*
X174400157Y-70699283D01*
X174400149Y-70699272D01*
X174247049Y-70532963D01*
X174247048Y-70532962D01*
X174247046Y-70532960D01*
X174068649Y-70394107D01*
X174042390Y-70379896D01*
X173869832Y-70286512D01*
X173869827Y-70286510D01*
X173656017Y-70213109D01*
X173474388Y-70182801D01*
X173433033Y-70175900D01*
X173206967Y-70175900D01*
X173165612Y-70182801D01*
X172983982Y-70213109D01*
X172770172Y-70286510D01*
X172770167Y-70286512D01*
X172571352Y-70394106D01*
X172392955Y-70532959D01*
X172392950Y-70532963D01*
X172239850Y-70699272D01*
X172239842Y-70699283D01*
X172153808Y-70830968D01*
X172100662Y-70876325D01*
X172031430Y-70885748D01*
X171968095Y-70856246D01*
X171946192Y-70830968D01*
X171860157Y-70699283D01*
X171860149Y-70699272D01*
X171707049Y-70532963D01*
X171707048Y-70532962D01*
X171707046Y-70532960D01*
X171528649Y-70394107D01*
X171502390Y-70379896D01*
X171329832Y-70286512D01*
X171329827Y-70286510D01*
X171116017Y-70213109D01*
X170934388Y-70182801D01*
X170893033Y-70175900D01*
X170666967Y-70175900D01*
X170625612Y-70182801D01*
X170443982Y-70213109D01*
X170230172Y-70286510D01*
X170230167Y-70286512D01*
X170031352Y-70394106D01*
X169852955Y-70532959D01*
X169852950Y-70532963D01*
X169699850Y-70699272D01*
X169699842Y-70699283D01*
X169613808Y-70830968D01*
X169560662Y-70876325D01*
X169491430Y-70885748D01*
X169428095Y-70856246D01*
X169406192Y-70830968D01*
X169320157Y-70699283D01*
X169320149Y-70699272D01*
X169167049Y-70532963D01*
X169167048Y-70532962D01*
X169167046Y-70532960D01*
X168988649Y-70394107D01*
X168962390Y-70379896D01*
X168789832Y-70286512D01*
X168789827Y-70286510D01*
X168576017Y-70213109D01*
X168394388Y-70182801D01*
X168353033Y-70175900D01*
X168126967Y-70175900D01*
X168085612Y-70182801D01*
X167903982Y-70213109D01*
X167690172Y-70286510D01*
X167690167Y-70286512D01*
X167491352Y-70394106D01*
X167312955Y-70532959D01*
X167312950Y-70532963D01*
X167159850Y-70699272D01*
X167159842Y-70699283D01*
X167073808Y-70830968D01*
X167020662Y-70876325D01*
X166951430Y-70885748D01*
X166888095Y-70856246D01*
X166866192Y-70830968D01*
X166780157Y-70699283D01*
X166780149Y-70699272D01*
X166627049Y-70532963D01*
X166627048Y-70532962D01*
X166627046Y-70532960D01*
X166448649Y-70394107D01*
X166422390Y-70379896D01*
X166249832Y-70286512D01*
X166249827Y-70286510D01*
X166036017Y-70213109D01*
X165854388Y-70182801D01*
X165813033Y-70175900D01*
X165586967Y-70175900D01*
X165545612Y-70182801D01*
X165363982Y-70213109D01*
X165150172Y-70286510D01*
X165150167Y-70286512D01*
X164951352Y-70394106D01*
X164772955Y-70532959D01*
X164772950Y-70532963D01*
X164619850Y-70699272D01*
X164619842Y-70699283D01*
X164533808Y-70830968D01*
X164480662Y-70876325D01*
X164411430Y-70885748D01*
X164348095Y-70856246D01*
X164326192Y-70830968D01*
X164240157Y-70699283D01*
X164240149Y-70699272D01*
X164087049Y-70532963D01*
X164087048Y-70532962D01*
X164087046Y-70532960D01*
X163908649Y-70394107D01*
X163882390Y-70379896D01*
X163709832Y-70286512D01*
X163709827Y-70286510D01*
X163496017Y-70213109D01*
X163314388Y-70182801D01*
X163273033Y-70175900D01*
X163046967Y-70175900D01*
X163005612Y-70182801D01*
X162823982Y-70213109D01*
X162610172Y-70286510D01*
X162610167Y-70286512D01*
X162411352Y-70394106D01*
X162232955Y-70532959D01*
X162232950Y-70532963D01*
X162079850Y-70699272D01*
X162079842Y-70699283D01*
X161993808Y-70830968D01*
X161940662Y-70876325D01*
X161871430Y-70885748D01*
X161808095Y-70856246D01*
X161786192Y-70830968D01*
X161700157Y-70699283D01*
X161700149Y-70699272D01*
X161547049Y-70532963D01*
X161547048Y-70532962D01*
X161547046Y-70532960D01*
X161368649Y-70394107D01*
X161342390Y-70379896D01*
X161169832Y-70286512D01*
X161169827Y-70286510D01*
X160956017Y-70213109D01*
X160774388Y-70182801D01*
X160733033Y-70175900D01*
X160506967Y-70175900D01*
X160465612Y-70182801D01*
X160283982Y-70213109D01*
X160070172Y-70286510D01*
X160070167Y-70286512D01*
X159871352Y-70394106D01*
X159692955Y-70532959D01*
X159692950Y-70532963D01*
X159539850Y-70699272D01*
X159539842Y-70699283D01*
X159416198Y-70888533D01*
X159325388Y-71095560D01*
X159269892Y-71314710D01*
X159251225Y-71539993D01*
X159251225Y-71540006D01*
X159269892Y-71765289D01*
X159325388Y-71984439D01*
X159416198Y-72191466D01*
X159539842Y-72380716D01*
X159539850Y-72380727D01*
X159692950Y-72547036D01*
X159692954Y-72547040D01*
X159871351Y-72685893D01*
X160070169Y-72793488D01*
X160070172Y-72793489D01*
X160283982Y-72866890D01*
X160283984Y-72866890D01*
X160283986Y-72866891D01*
X160506967Y-72904100D01*
X160506968Y-72904100D01*
X160733032Y-72904100D01*
X160733033Y-72904100D01*
X160956014Y-72866891D01*
X161169831Y-72793488D01*
X161368649Y-72685893D01*
X161547046Y-72547040D01*
X161700156Y-72380719D01*
X161786193Y-72249028D01*
X161839338Y-72203675D01*
X161908569Y-72194251D01*
X161971905Y-72223753D01*
X161993804Y-72249025D01*
X162079844Y-72380719D01*
X162079849Y-72380724D01*
X162079850Y-72380727D01*
X162232950Y-72547036D01*
X162232954Y-72547040D01*
X162411351Y-72685893D01*
X162610169Y-72793488D01*
X162610172Y-72793489D01*
X162823982Y-72866890D01*
X162823984Y-72866890D01*
X162823986Y-72866891D01*
X163046967Y-72904100D01*
X163046968Y-72904100D01*
X163273032Y-72904100D01*
X163273033Y-72904100D01*
X163496014Y-72866891D01*
X163709831Y-72793488D01*
X163908649Y-72685893D01*
X164087046Y-72547040D01*
X164240156Y-72380719D01*
X164326193Y-72249028D01*
X164379338Y-72203675D01*
X164448569Y-72194251D01*
X164511905Y-72223753D01*
X164533804Y-72249025D01*
X164619844Y-72380719D01*
X164619849Y-72380724D01*
X164619850Y-72380727D01*
X164772950Y-72547036D01*
X164772954Y-72547040D01*
X164951351Y-72685893D01*
X164984517Y-72703841D01*
X165034107Y-72753059D01*
X165049500Y-72812896D01*
X165049500Y-82922721D01*
X165029815Y-82989760D01*
X164977011Y-83035515D01*
X164907853Y-83045459D01*
X164875065Y-83036001D01*
X164838881Y-83019891D01*
X164764267Y-82986671D01*
X164764265Y-82986670D01*
X164636594Y-82959533D01*
X164589391Y-82949500D01*
X164410609Y-82949500D01*
X164379954Y-82956015D01*
X164235733Y-82986670D01*
X164235728Y-82986672D01*
X164072408Y-83059387D01*
X163927768Y-83164475D01*
X163808140Y-83297336D01*
X163718750Y-83452164D01*
X163718747Y-83452170D01*
X163663504Y-83622192D01*
X163663503Y-83622194D01*
X163644815Y-83800000D01*
X163663503Y-83977805D01*
X163663504Y-83977807D01*
X163718747Y-84147829D01*
X163718750Y-84147835D01*
X163808141Y-84302665D01*
X163817648Y-84313223D01*
X163847879Y-84376213D01*
X163849500Y-84396197D01*
X163849500Y-87179192D01*
X163829815Y-87246231D01*
X163813181Y-87266873D01*
X159766873Y-91313181D01*
X159705550Y-91346666D01*
X159679192Y-91349500D01*
X159091911Y-91349500D01*
X159024872Y-91329815D01*
X159019025Y-91325818D01*
X158927594Y-91259389D01*
X158927593Y-91259388D01*
X158764267Y-91186671D01*
X158764265Y-91186670D01*
X158596297Y-91150968D01*
X158589391Y-91149500D01*
X158410609Y-91149500D01*
X158403703Y-91150968D01*
X158235733Y-91186670D01*
X158235728Y-91186672D01*
X158072408Y-91259387D01*
X157927768Y-91364475D01*
X157808140Y-91497336D01*
X157718750Y-91652164D01*
X157718747Y-91652170D01*
X157663504Y-91822192D01*
X157663503Y-91822194D01*
X157644815Y-92000000D01*
X157663503Y-92177805D01*
X157663504Y-92177807D01*
X157718747Y-92347829D01*
X157718750Y-92347835D01*
X157805501Y-92498093D01*
X157821974Y-92565994D01*
X157799121Y-92632020D01*
X157771000Y-92660411D01*
X157627768Y-92764475D01*
X157508140Y-92897336D01*
X157418750Y-93052164D01*
X157418747Y-93052170D01*
X157363504Y-93222192D01*
X157363503Y-93222194D01*
X157344815Y-93400000D01*
X152483490Y-93400000D01*
X152427593Y-93359388D01*
X152264267Y-93286671D01*
X152264265Y-93286670D01*
X152111065Y-93254107D01*
X152089391Y-93249500D01*
X151910609Y-93249500D01*
X151888935Y-93254107D01*
X151735733Y-93286670D01*
X151735728Y-93286672D01*
X151572408Y-93359387D01*
X151427768Y-93464475D01*
X151308140Y-93597336D01*
X151218750Y-93752164D01*
X151218747Y-93752170D01*
X151163504Y-93922192D01*
X151163503Y-93922194D01*
X151157011Y-93983962D01*
X151130425Y-94048577D01*
X151121373Y-94058679D01*
X151066874Y-94113180D01*
X151005551Y-94146666D01*
X150979191Y-94149500D01*
X149691911Y-94149500D01*
X149624872Y-94129815D01*
X149619025Y-94125818D01*
X149527594Y-94059389D01*
X149527593Y-94059388D01*
X149364267Y-93986671D01*
X149364265Y-93986670D01*
X149236594Y-93959533D01*
X149189391Y-93949500D01*
X149010609Y-93949500D01*
X148982104Y-93955559D01*
X148835733Y-93986670D01*
X148835728Y-93986672D01*
X148672408Y-94059387D01*
X148527768Y-94164475D01*
X148408140Y-94297336D01*
X148318750Y-94452164D01*
X148318747Y-94452170D01*
X148263504Y-94622192D01*
X148263503Y-94622194D01*
X148244815Y-94800000D01*
X148263503Y-94977805D01*
X148263504Y-94977807D01*
X148318747Y-95147829D01*
X148318751Y-95147837D01*
X148324155Y-95157197D01*
X148340626Y-95225097D01*
X148317773Y-95291124D01*
X148289653Y-95319512D01*
X148227772Y-95364471D01*
X148227770Y-95364473D01*
X148108140Y-95497336D01*
X148018750Y-95652164D01*
X148018747Y-95652170D01*
X147963504Y-95822192D01*
X147963503Y-95822194D01*
X147944815Y-96000000D01*
X126350500Y-96000000D01*
X126350499Y-95049992D01*
X126339999Y-94947203D01*
X126284814Y-94780666D01*
X126192712Y-94631344D01*
X126068656Y-94507288D01*
X125919334Y-94415186D01*
X125919333Y-94415185D01*
X125913878Y-94411821D01*
X125867154Y-94359873D01*
X125855931Y-94290910D01*
X125883775Y-94226828D01*
X125891272Y-94218623D01*
X126030104Y-94079792D01*
X126045444Y-94058679D01*
X126155048Y-93907820D01*
X126155047Y-93907820D01*
X126155051Y-93907816D01*
X126251557Y-93718412D01*
X126317246Y-93516243D01*
X126350500Y-93306287D01*
X126350500Y-93093713D01*
X126317246Y-92883757D01*
X126251557Y-92681588D01*
X126155051Y-92492184D01*
X126155049Y-92492181D01*
X126155048Y-92492179D01*
X126030109Y-92320213D01*
X125879792Y-92169896D01*
X125879784Y-92169890D01*
X125715204Y-92050316D01*
X125672540Y-91994989D01*
X125666561Y-91925376D01*
X125699166Y-91863580D01*
X125715199Y-91849686D01*
X125879792Y-91730104D01*
X126030104Y-91579792D01*
X126030106Y-91579788D01*
X126030109Y-91579786D01*
X126155048Y-91407820D01*
X126155047Y-91407820D01*
X126155051Y-91407816D01*
X126251557Y-91218412D01*
X126317246Y-91016243D01*
X126350500Y-90806287D01*
X126350500Y-90593713D01*
X126345160Y-90559999D01*
X135144341Y-90559999D01*
X135144341Y-90560000D01*
X135164936Y-90795403D01*
X135164938Y-90795413D01*
X135226094Y-91023655D01*
X135226096Y-91023659D01*
X135226097Y-91023663D01*
X135316910Y-91218412D01*
X135325965Y-91237830D01*
X135325967Y-91237834D01*
X135402173Y-91346666D01*
X135461501Y-91431396D01*
X135461506Y-91431402D01*
X135583430Y-91553326D01*
X135616915Y-91614649D01*
X135611931Y-91684341D01*
X135570059Y-91740274D01*
X135539083Y-91757189D01*
X135407669Y-91806203D01*
X135407664Y-91806206D01*
X135292455Y-91892452D01*
X135292452Y-91892455D01*
X135206206Y-92007664D01*
X135206202Y-92007671D01*
X135155908Y-92142517D01*
X135149501Y-92202116D01*
X135149501Y-92202123D01*
X135149500Y-92202135D01*
X135149500Y-93997870D01*
X135149501Y-93997876D01*
X135155908Y-94057483D01*
X135206202Y-94192328D01*
X135206206Y-94192335D01*
X135292452Y-94307544D01*
X135292455Y-94307547D01*
X135407664Y-94393793D01*
X135407671Y-94393797D01*
X135542517Y-94444091D01*
X135542516Y-94444091D01*
X135549444Y-94444835D01*
X135602127Y-94450500D01*
X137397872Y-94450499D01*
X137457483Y-94444091D01*
X137592331Y-94393796D01*
X137707546Y-94307546D01*
X137793796Y-94192331D01*
X137844091Y-94057483D01*
X137850500Y-93997873D01*
X137850499Y-92202128D01*
X137844091Y-92142517D01*
X137822746Y-92085289D01*
X137793797Y-92007671D01*
X137793793Y-92007664D01*
X137707547Y-91892455D01*
X137707544Y-91892452D01*
X137592335Y-91806206D01*
X137592328Y-91806202D01*
X137460917Y-91757189D01*
X137404983Y-91715318D01*
X137380566Y-91649853D01*
X137395418Y-91581580D01*
X137416563Y-91553332D01*
X137538495Y-91431401D01*
X137674035Y-91237830D01*
X137773903Y-91023663D01*
X137835063Y-90795408D01*
X137855659Y-90560000D01*
X137835063Y-90324592D01*
X137773903Y-90096337D01*
X137674035Y-89882171D01*
X137630649Y-89820208D01*
X137538494Y-89688597D01*
X137371402Y-89521506D01*
X137371395Y-89521501D01*
X137177834Y-89385967D01*
X137177830Y-89385965D01*
X137130874Y-89364069D01*
X136963663Y-89286097D01*
X136963659Y-89286096D01*
X136963655Y-89286094D01*
X136735413Y-89224938D01*
X136735403Y-89224936D01*
X136500001Y-89204341D01*
X136499999Y-89204341D01*
X136264596Y-89224936D01*
X136264586Y-89224938D01*
X136036344Y-89286094D01*
X136036335Y-89286098D01*
X135822171Y-89385964D01*
X135822169Y-89385965D01*
X135628597Y-89521505D01*
X135461505Y-89688597D01*
X135325965Y-89882169D01*
X135325964Y-89882171D01*
X135226098Y-90096335D01*
X135226094Y-90096344D01*
X135164938Y-90324586D01*
X135164936Y-90324596D01*
X135144341Y-90559999D01*
X126345160Y-90559999D01*
X126317246Y-90383757D01*
X126251557Y-90181588D01*
X126155051Y-89992184D01*
X126155049Y-89992181D01*
X126155048Y-89992179D01*
X126030109Y-89820213D01*
X125879786Y-89669890D01*
X125707820Y-89544951D01*
X125518414Y-89448444D01*
X125518413Y-89448443D01*
X125518412Y-89448443D01*
X125316243Y-89382754D01*
X125316241Y-89382753D01*
X125316240Y-89382753D01*
X125154957Y-89357208D01*
X125106287Y-89349500D01*
X124643713Y-89349500D01*
X124595042Y-89357208D01*
X124433760Y-89382753D01*
X124231585Y-89448444D01*
X124042179Y-89544951D01*
X123870213Y-89669890D01*
X123719890Y-89820213D01*
X123594951Y-89992179D01*
X123498444Y-90181585D01*
X123432753Y-90383760D01*
X123414992Y-90495900D01*
X123399500Y-90593713D01*
X114500000Y-90593713D01*
X114500000Y-84077135D01*
X123549500Y-84077135D01*
X123549500Y-85872870D01*
X123549501Y-85872876D01*
X123555908Y-85932483D01*
X123606202Y-86067328D01*
X123606206Y-86067335D01*
X123692452Y-86182544D01*
X123692455Y-86182547D01*
X123807664Y-86268793D01*
X123807671Y-86268797D01*
X123942517Y-86319091D01*
X123942516Y-86319091D01*
X123949444Y-86319835D01*
X124002127Y-86325500D01*
X125797872Y-86325499D01*
X125857483Y-86319091D01*
X125992331Y-86268796D01*
X126107546Y-86182546D01*
X126193796Y-86067331D01*
X126244091Y-85932483D01*
X126250500Y-85872873D01*
X126250499Y-84077128D01*
X126244091Y-84017517D01*
X126229279Y-83977805D01*
X126193797Y-83882671D01*
X126193793Y-83882664D01*
X126107547Y-83767455D01*
X126107544Y-83767452D01*
X125992335Y-83681206D01*
X125992328Y-83681202D01*
X125860401Y-83631997D01*
X125804467Y-83590126D01*
X125780050Y-83524662D01*
X125794902Y-83456389D01*
X125816053Y-83428133D01*
X125938108Y-83306078D01*
X126073600Y-83112578D01*
X126173429Y-82898492D01*
X126173432Y-82898486D01*
X126230636Y-82685000D01*
X125333012Y-82685000D01*
X125365925Y-82627993D01*
X125388508Y-82543713D01*
X158774500Y-82543713D01*
X158774500Y-82756286D01*
X158802805Y-82935000D01*
X158807754Y-82966243D01*
X158872163Y-83164474D01*
X158873444Y-83168414D01*
X158969951Y-83357820D01*
X159094890Y-83529786D01*
X159233705Y-83668601D01*
X159267190Y-83729924D01*
X159262206Y-83799616D01*
X159220334Y-83855549D01*
X159211121Y-83861821D01*
X159056342Y-83957289D01*
X158932289Y-84081342D01*
X158840187Y-84230663D01*
X158840185Y-84230668D01*
X158816328Y-84302665D01*
X158785001Y-84397203D01*
X158785001Y-84397204D01*
X158785000Y-84397204D01*
X158774500Y-84499983D01*
X158774500Y-85800001D01*
X158774501Y-85800018D01*
X158785000Y-85902796D01*
X158785001Y-85902799D01*
X158798476Y-85943462D01*
X158840186Y-86069334D01*
X158932288Y-86218656D01*
X159056344Y-86342712D01*
X159205666Y-86434814D01*
X159372203Y-86489999D01*
X159474991Y-86500500D01*
X161075008Y-86500499D01*
X161088655Y-86499105D01*
X161174194Y-86490367D01*
X161177797Y-86489999D01*
X161277266Y-86457037D01*
X161347091Y-86454636D01*
X161407133Y-86490367D01*
X161438327Y-86552887D01*
X161437886Y-86598934D01*
X161424500Y-86666234D01*
X161424500Y-86833771D01*
X161457182Y-86998074D01*
X161457184Y-86998082D01*
X161521295Y-87152860D01*
X161614373Y-87292162D01*
X161732837Y-87410626D01*
X161825494Y-87472537D01*
X161872137Y-87503703D01*
X162026918Y-87567816D01*
X162189750Y-87600205D01*
X162191228Y-87600499D01*
X162191232Y-87600500D01*
X162191233Y-87600500D01*
X162358768Y-87600500D01*
X162358769Y-87600499D01*
X162523082Y-87567816D01*
X162677863Y-87503703D01*
X162817162Y-87410626D01*
X162935626Y-87292162D01*
X163028703Y-87152863D01*
X163092816Y-86998082D01*
X163125500Y-86833767D01*
X163125500Y-86666233D01*
X163092816Y-86501918D01*
X163028703Y-86347137D01*
X162976355Y-86268793D01*
X162935626Y-86207837D01*
X162817162Y-86089373D01*
X162677860Y-85996295D01*
X162523082Y-85932184D01*
X162523074Y-85932182D01*
X162358771Y-85899500D01*
X162358767Y-85899500D01*
X162191233Y-85899500D01*
X162191228Y-85899500D01*
X162026925Y-85932182D01*
X162026913Y-85932185D01*
X161942213Y-85967269D01*
X161872744Y-85974738D01*
X161810265Y-85943462D01*
X161774613Y-85883373D01*
X161771403Y-85840108D01*
X161775500Y-85800009D01*
X161775499Y-84499992D01*
X161764999Y-84397203D01*
X161709814Y-84230666D01*
X161617712Y-84081344D01*
X161493656Y-83957288D01*
X161344334Y-83865186D01*
X161344333Y-83865185D01*
X161338878Y-83861821D01*
X161292154Y-83809873D01*
X161280931Y-83740910D01*
X161308775Y-83676828D01*
X161316272Y-83668623D01*
X161455104Y-83529792D01*
X161580051Y-83357816D01*
X161676557Y-83168412D01*
X161742246Y-82966243D01*
X161775500Y-82756287D01*
X161775500Y-82543713D01*
X161742246Y-82333757D01*
X161676557Y-82131588D01*
X161580051Y-81942184D01*
X161580049Y-81942181D01*
X161580048Y-81942179D01*
X161455109Y-81770213D01*
X161304786Y-81619890D01*
X161132820Y-81494951D01*
X160943414Y-81398444D01*
X160943413Y-81398443D01*
X160943412Y-81398443D01*
X160741243Y-81332754D01*
X160741241Y-81332753D01*
X160741240Y-81332753D01*
X160579957Y-81307208D01*
X160531287Y-81299500D01*
X160018713Y-81299500D01*
X159970042Y-81307208D01*
X159808760Y-81332753D01*
X159606585Y-81398444D01*
X159417179Y-81494951D01*
X159245213Y-81619890D01*
X159094890Y-81770213D01*
X158969951Y-81942179D01*
X158873444Y-82131585D01*
X158807753Y-82333760D01*
X158774500Y-82543713D01*
X125388508Y-82543713D01*
X125400000Y-82500826D01*
X125400000Y-82369174D01*
X125365925Y-82242007D01*
X125333012Y-82185000D01*
X126230636Y-82185000D01*
X126230635Y-82184999D01*
X126173432Y-81971513D01*
X126173429Y-81971507D01*
X126073600Y-81757422D01*
X126073599Y-81757420D01*
X125938113Y-81563926D01*
X125938108Y-81563920D01*
X125771082Y-81396894D01*
X125577578Y-81261399D01*
X125363492Y-81161570D01*
X125363486Y-81161567D01*
X125150000Y-81104364D01*
X125150000Y-82001988D01*
X125092993Y-81969075D01*
X124965826Y-81935000D01*
X124834174Y-81935000D01*
X124707007Y-81969075D01*
X124650000Y-82001988D01*
X124650000Y-81104364D01*
X124649999Y-81104364D01*
X124436513Y-81161567D01*
X124436507Y-81161570D01*
X124222422Y-81261399D01*
X124222420Y-81261400D01*
X124028926Y-81396886D01*
X124028920Y-81396891D01*
X123861891Y-81563920D01*
X123861886Y-81563926D01*
X123726400Y-81757420D01*
X123726399Y-81757422D01*
X123626570Y-81971507D01*
X123626567Y-81971513D01*
X123569364Y-82184999D01*
X123569364Y-82185000D01*
X124466988Y-82185000D01*
X124434075Y-82242007D01*
X124400000Y-82369174D01*
X124400000Y-82500826D01*
X124434075Y-82627993D01*
X124466988Y-82685000D01*
X123569364Y-82685000D01*
X123626567Y-82898486D01*
X123626570Y-82898492D01*
X123726399Y-83112578D01*
X123861894Y-83306082D01*
X123983946Y-83428134D01*
X124017431Y-83489457D01*
X124012447Y-83559149D01*
X123970575Y-83615082D01*
X123939598Y-83631997D01*
X123807671Y-83681202D01*
X123807664Y-83681206D01*
X123692455Y-83767452D01*
X123692452Y-83767455D01*
X123606206Y-83882664D01*
X123606202Y-83882671D01*
X123555908Y-84017517D01*
X123549501Y-84077116D01*
X123549501Y-84077123D01*
X123549500Y-84077135D01*
X114500000Y-84077135D01*
X114500000Y-80116228D01*
X147449500Y-80116228D01*
X147449500Y-80283771D01*
X147482182Y-80448074D01*
X147482184Y-80448082D01*
X147546295Y-80602860D01*
X147639373Y-80742162D01*
X147757837Y-80860626D01*
X147850494Y-80922537D01*
X147897137Y-80953703D01*
X148051918Y-81017816D01*
X148216228Y-81050499D01*
X148216232Y-81050500D01*
X148216233Y-81050500D01*
X148383768Y-81050500D01*
X148383769Y-81050499D01*
X148548082Y-81017816D01*
X148702863Y-80953703D01*
X148842162Y-80860626D01*
X148960626Y-80742162D01*
X149053703Y-80602863D01*
X149117816Y-80448082D01*
X149150500Y-80283767D01*
X149150500Y-80116233D01*
X149117816Y-79951918D01*
X149082729Y-79867213D01*
X149075261Y-79797745D01*
X149106536Y-79735265D01*
X149166625Y-79699613D01*
X149209891Y-79696403D01*
X149249991Y-79700500D01*
X150550008Y-79700499D01*
X150558682Y-79699613D01*
X150590105Y-79696403D01*
X150652797Y-79689999D01*
X150819334Y-79634814D01*
X150968656Y-79542712D01*
X151092712Y-79418656D01*
X151184814Y-79269334D01*
X151184814Y-79269331D01*
X151188178Y-79263879D01*
X151240126Y-79217154D01*
X151309088Y-79205931D01*
X151373170Y-79233774D01*
X151381398Y-79241294D01*
X151520213Y-79380109D01*
X151692179Y-79505048D01*
X151692181Y-79505049D01*
X151692184Y-79505051D01*
X151881588Y-79601557D01*
X152083757Y-79667246D01*
X152293713Y-79700500D01*
X152293714Y-79700500D01*
X152506286Y-79700500D01*
X152506287Y-79700500D01*
X152716243Y-79667246D01*
X152918412Y-79601557D01*
X153107816Y-79505051D01*
X153188685Y-79446297D01*
X153279786Y-79380109D01*
X153279788Y-79380106D01*
X153279792Y-79380104D01*
X153430104Y-79229792D01*
X153430106Y-79229788D01*
X153430109Y-79229786D01*
X153555048Y-79057820D01*
X153555047Y-79057820D01*
X153555051Y-79057816D01*
X153651557Y-78868412D01*
X153717246Y-78666243D01*
X153750500Y-78456287D01*
X153750500Y-77943713D01*
X153717246Y-77733757D01*
X153651557Y-77531588D01*
X153555051Y-77342184D01*
X153555049Y-77342181D01*
X153555048Y-77342179D01*
X153430109Y-77170213D01*
X153279786Y-77019890D01*
X153107820Y-76894951D01*
X152918414Y-76798444D01*
X152918413Y-76798443D01*
X152918412Y-76798443D01*
X152716243Y-76732754D01*
X152716241Y-76732753D01*
X152716240Y-76732753D01*
X152554957Y-76707208D01*
X152506287Y-76699500D01*
X152293713Y-76699500D01*
X152245042Y-76707208D01*
X152083760Y-76732753D01*
X151881585Y-76798444D01*
X151692179Y-76894951D01*
X151520215Y-77019889D01*
X151381398Y-77158706D01*
X151320075Y-77192190D01*
X151250383Y-77187206D01*
X151194450Y-77145334D01*
X151188178Y-77136120D01*
X151092712Y-76981344D01*
X150968657Y-76857289D01*
X150968656Y-76857288D01*
X150819334Y-76765186D01*
X150652797Y-76710001D01*
X150652795Y-76710000D01*
X150550010Y-76699500D01*
X149249998Y-76699500D01*
X149249981Y-76699501D01*
X149147203Y-76710000D01*
X149147200Y-76710001D01*
X148980668Y-76765185D01*
X148980663Y-76765187D01*
X148831342Y-76857289D01*
X148707289Y-76981342D01*
X148615187Y-77130663D01*
X148615185Y-77130668D01*
X148610325Y-77145334D01*
X148560001Y-77297203D01*
X148560001Y-77297204D01*
X148560000Y-77297204D01*
X148549500Y-77399983D01*
X148549500Y-79000001D01*
X148549501Y-79000018D01*
X148560000Y-79102796D01*
X148560001Y-79102799D01*
X148592961Y-79202264D01*
X148595363Y-79272092D01*
X148559631Y-79332134D01*
X148497111Y-79363327D01*
X148451065Y-79362886D01*
X148411286Y-79354973D01*
X148383767Y-79349500D01*
X148216233Y-79349500D01*
X148216228Y-79349500D01*
X148051925Y-79382182D01*
X148051917Y-79382184D01*
X147897139Y-79446295D01*
X147757837Y-79539373D01*
X147639373Y-79657837D01*
X147546295Y-79797139D01*
X147482184Y-79951917D01*
X147482182Y-79951925D01*
X147449500Y-80116228D01*
X114500000Y-80116228D01*
X114500000Y-71001208D01*
X114500024Y-70998777D01*
X114501100Y-70943895D01*
X114502144Y-70890654D01*
X114503646Y-70873705D01*
X114537663Y-70658928D01*
X114542205Y-70640011D01*
X114545964Y-70628443D01*
X114609024Y-70434361D01*
X114616463Y-70416401D01*
X114714635Y-70223728D01*
X114724793Y-70207151D01*
X114851899Y-70032206D01*
X114864525Y-70017424D01*
X115017424Y-69864525D01*
X115032206Y-69851899D01*
X115207151Y-69724793D01*
X115223728Y-69714635D01*
X115416401Y-69616463D01*
X115434361Y-69609024D01*
X115640013Y-69542204D01*
X115658928Y-69537663D01*
X115873705Y-69503646D01*
X115890654Y-69502144D01*
X115998216Y-69500035D01*
X115998777Y-69500024D01*
X116001208Y-69500000D01*
X129661727Y-69500000D01*
X129728766Y-69519685D01*
G37*
G04 #@! TD.AperFunction*
M02*
