%TF.GenerationSoftware,KiCad,Pcbnew,7.0.7*%
%TF.CreationDate,2023-11-26T17:57:00-07:00*%
%TF.ProjectId,IMUBox,494d5542-6f78-42e6-9b69-6361645f7063,v2*%
%TF.SameCoordinates,Original*%
%TF.FileFunction,Copper,L1,Top*%
%TF.FilePolarity,Positive*%
%FSLAX46Y46*%
G04 Gerber Fmt 4.6, Leading zero omitted, Abs format (unit mm)*
G04 Created by KiCad (PCBNEW 7.0.7) date 2023-11-26 17:57:00*
%MOMM*%
%LPD*%
G01*
G04 APERTURE LIST*
G04 Aperture macros list*
%AMRoundRect*
0 Rectangle with rounded corners*
0 $1 Rounding radius*
0 $2 $3 $4 $5 $6 $7 $8 $9 X,Y pos of 4 corners*
0 Add a 4 corners polygon primitive as box body*
4,1,4,$2,$3,$4,$5,$6,$7,$8,$9,$2,$3,0*
0 Add four circle primitives for the rounded corners*
1,1,$1+$1,$2,$3*
1,1,$1+$1,$4,$5*
1,1,$1+$1,$6,$7*
1,1,$1+$1,$8,$9*
0 Add four rect primitives between the rounded corners*
20,1,$1+$1,$2,$3,$4,$5,0*
20,1,$1+$1,$4,$5,$6,$7,0*
20,1,$1+$1,$6,$7,$8,$9,0*
20,1,$1+$1,$8,$9,$2,$3,0*%
G04 Aperture macros list end*
%TA.AperFunction,SMDPad,CuDef*%
%ADD10RoundRect,0.150000X0.825000X0.150000X-0.825000X0.150000X-0.825000X-0.150000X0.825000X-0.150000X0*%
%TD*%
%TA.AperFunction,SMDPad,CuDef*%
%ADD11RoundRect,0.140000X-0.170000X0.140000X-0.170000X-0.140000X0.170000X-0.140000X0.170000X0.140000X0*%
%TD*%
%TA.AperFunction,ComponentPad*%
%ADD12R,1.700000X1.700000*%
%TD*%
%TA.AperFunction,ComponentPad*%
%ADD13O,1.700000X1.700000*%
%TD*%
%TA.AperFunction,SMDPad,CuDef*%
%ADD14RoundRect,0.200000X0.200000X0.275000X-0.200000X0.275000X-0.200000X-0.275000X0.200000X-0.275000X0*%
%TD*%
%TA.AperFunction,SMDPad,CuDef*%
%ADD15RoundRect,0.250000X-0.450000X0.262500X-0.450000X-0.262500X0.450000X-0.262500X0.450000X0.262500X0*%
%TD*%
%TA.AperFunction,SMDPad,CuDef*%
%ADD16RoundRect,0.200000X-0.275000X0.200000X-0.275000X-0.200000X0.275000X-0.200000X0.275000X0.200000X0*%
%TD*%
%TA.AperFunction,SMDPad,CuDef*%
%ADD17RoundRect,0.140000X0.170000X-0.140000X0.170000X0.140000X-0.170000X0.140000X-0.170000X-0.140000X0*%
%TD*%
%TA.AperFunction,SMDPad,CuDef*%
%ADD18RoundRect,0.250000X0.450000X-0.262500X0.450000X0.262500X-0.450000X0.262500X-0.450000X-0.262500X0*%
%TD*%
%TA.AperFunction,SMDPad,CuDef*%
%ADD19RoundRect,0.250000X-0.375000X-0.625000X0.375000X-0.625000X0.375000X0.625000X-0.375000X0.625000X0*%
%TD*%
%TA.AperFunction,ComponentPad*%
%ADD20RoundRect,0.250000X0.725000X-0.600000X0.725000X0.600000X-0.725000X0.600000X-0.725000X-0.600000X0*%
%TD*%
%TA.AperFunction,ComponentPad*%
%ADD21O,1.950000X1.700000*%
%TD*%
%TA.AperFunction,SMDPad,CuDef*%
%ADD22R,0.300000X0.480000*%
%TD*%
%TA.AperFunction,SMDPad,CuDef*%
%ADD23R,0.480000X0.300000*%
%TD*%
%TA.AperFunction,SMDPad,CuDef*%
%ADD24RoundRect,0.250000X-0.262500X-0.450000X0.262500X-0.450000X0.262500X0.450000X-0.262500X0.450000X0*%
%TD*%
%TA.AperFunction,ComponentPad*%
%ADD25C,1.600000*%
%TD*%
%TA.AperFunction,SMDPad,CuDef*%
%ADD26R,0.700000X0.450000*%
%TD*%
%TA.AperFunction,SMDPad,CuDef*%
%ADD27RoundRect,0.250000X0.625000X-0.375000X0.625000X0.375000X-0.625000X0.375000X-0.625000X-0.375000X0*%
%TD*%
%TA.AperFunction,SMDPad,CuDef*%
%ADD28RoundRect,0.135000X0.185000X-0.135000X0.185000X0.135000X-0.185000X0.135000X-0.185000X-0.135000X0*%
%TD*%
%TA.AperFunction,ViaPad*%
%ADD29C,0.700000*%
%TD*%
%TA.AperFunction,Conductor*%
%ADD30C,0.500000*%
%TD*%
%TA.AperFunction,Conductor*%
%ADD31C,0.300000*%
%TD*%
G04 APERTURE END LIST*
D10*
%TO.P,U1,1,D*%
%TO.N,/CTX*%
X140675000Y-47205000D03*
%TO.P,U1,2,GND*%
%TO.N,GND*%
X140675000Y-45935000D03*
%TO.P,U1,3,VCC*%
%TO.N,+3.3V*%
X140675000Y-44665000D03*
%TO.P,U1,4,R*%
%TO.N,/CRX*%
X140675000Y-43395000D03*
%TO.P,U1,5,Vref*%
%TO.N,unconnected-(U1-Vref-Pad5)*%
X135725000Y-43395000D03*
%TO.P,U1,6,CANL*%
%TO.N,/CANL*%
X135725000Y-44665000D03*
%TO.P,U1,7,CANH*%
%TO.N,/CANH*%
X135725000Y-45935000D03*
%TO.P,U1,8,Rs*%
%TO.N,Net-(U1-Rs)*%
X135725000Y-47205000D03*
%TD*%
D11*
%TO.P,C1,1*%
%TO.N,GND*%
X155593750Y-44833750D03*
%TO.P,C1,2*%
%TO.N,+3.3V*%
X155593750Y-45793750D03*
%TD*%
D12*
%TO.P,JP1,1,A*%
%TO.N,/CANL*%
X130200000Y-42560000D03*
D13*
%TO.P,JP1,2,B*%
%TO.N,Net-(JP1-B)*%
X130200000Y-45100000D03*
%TD*%
D14*
%TO.P,R1,1*%
%TO.N,/SCL0*%
X148518750Y-46893750D03*
%TO.P,R1,2*%
%TO.N,+3.3V*%
X146868750Y-46893750D03*
%TD*%
D15*
%TO.P,R5,1*%
%TO.N,Net-(U1-Rs)*%
X133300000Y-48800000D03*
%TO.P,R5,2*%
%TO.N,GND*%
X133300000Y-50625000D03*
%TD*%
D11*
%TO.P,C4,1*%
%TO.N,+3.3V*%
X143093750Y-44793750D03*
%TO.P,C4,2*%
%TO.N,GND*%
X143093750Y-45753750D03*
%TD*%
D16*
%TO.P,R2,1*%
%TO.N,/SDA0*%
X149393750Y-48468750D03*
%TO.P,R2,2*%
%TO.N,+3.3V*%
X149393750Y-50118750D03*
%TD*%
D17*
%TO.P,C2,1*%
%TO.N,+3.3V*%
X154193750Y-45793750D03*
%TO.P,C2,2*%
%TO.N,GND*%
X154193750Y-44833750D03*
%TD*%
D18*
%TO.P,R6,1*%
%TO.N,Net-(D3-A)*%
X121900000Y-66612500D03*
%TO.P,R6,2*%
%TO.N,+5V*%
X121900000Y-64787500D03*
%TD*%
D11*
%TO.P,C3,1*%
%TO.N,+3.3V*%
X144793750Y-44793750D03*
%TO.P,C3,2*%
%TO.N,GND*%
X144793750Y-45753750D03*
%TD*%
D19*
%TO.P,D4,1,K*%
%TO.N,GND*%
X128100000Y-72700000D03*
%TO.P,D4,2,A*%
%TO.N,Net-(D4-A)*%
X130900000Y-72700000D03*
%TD*%
D20*
%TO.P,J1,1,Pin_1*%
%TO.N,+5V*%
X117200000Y-52300000D03*
D21*
%TO.P,J1,2,Pin_2*%
%TO.N,GND*%
X117200000Y-49800000D03*
%TO.P,J1,3,Pin_3*%
%TO.N,/CANH*%
X117200000Y-47300000D03*
%TO.P,J1,4,Pin_4*%
%TO.N,/CANL*%
X117200000Y-44800000D03*
%TD*%
D22*
%TO.P,U2,1,SDO/SA0*%
%TO.N,unconnected-(U2-SDO{slash}SA0-Pad1)*%
X150743750Y-48156250D03*
%TO.P,U2,2,SDx*%
%TO.N,unconnected-(U2-SDx-Pad2)*%
X151243750Y-48156250D03*
%TO.P,U2,3,SCx*%
%TO.N,unconnected-(U2-SCx-Pad3)*%
X151743750Y-48156250D03*
%TO.P,U2,4,INT1*%
%TO.N,unconnected-(U2-INT1-Pad4)*%
X152243750Y-48156250D03*
D23*
%TO.P,U2,5,VDDIO*%
%TO.N,+3.3V*%
X152493750Y-47493750D03*
%TO.P,U2,6,GND*%
%TO.N,GND*%
X152493750Y-46993750D03*
%TO.P,U2,7,GND*%
X152493750Y-46493750D03*
D22*
%TO.P,U2,8,VDD*%
%TO.N,+3.3V*%
X152243750Y-45831250D03*
%TO.P,U2,9,INT2*%
%TO.N,unconnected-(U2-INT2-Pad9)*%
X151743750Y-45831250D03*
%TO.P,U2,10,OCS_Aux*%
%TO.N,unconnected-(U2-OCS_Aux-Pad10)*%
X151243750Y-45831250D03*
%TO.P,U2,11,SDO_Aux*%
%TO.N,unconnected-(U2-SDO_Aux-Pad11)*%
X150743750Y-45831250D03*
D23*
%TO.P,U2,12,CS*%
%TO.N,Net-(U2-CS)*%
X150493750Y-46493750D03*
%TO.P,U2,13,SCL*%
%TO.N,/SCL0*%
X150493750Y-46993750D03*
%TO.P,U2,14,SDA*%
%TO.N,/SDA0*%
X150493750Y-47493750D03*
%TD*%
D24*
%TO.P,R3,1*%
%TO.N,+3.3V*%
X147081250Y-44793750D03*
%TO.P,R3,2*%
%TO.N,Net-(U2-CS)*%
X148906250Y-44793750D03*
%TD*%
D25*
%TO.P,U3,1,GND*%
%TO.N,GND*%
X127000000Y-68580000D03*
%TO.P,U3,2,0_RX1_CRX2_CS1*%
%TO.N,unconnected-(U3-0_RX1_CRX2_CS1-Pad2)*%
X129540000Y-68580000D03*
%TO.P,U3,3,1_TX1_CTX2_MISO1*%
%TO.N,unconnected-(U3-1_TX1_CTX2_MISO1-Pad3)*%
X132080000Y-68580000D03*
%TO.P,U3,4,2_OUT2*%
%TO.N,unconnected-(U3-2_OUT2-Pad4)*%
X134620000Y-68580000D03*
%TO.P,U3,5,3_LRCLK2*%
%TO.N,unconnected-(U3-3_LRCLK2-Pad5)*%
X137160000Y-68580000D03*
%TO.P,U3,6,4_BCLK2*%
%TO.N,unconnected-(U3-4_BCLK2-Pad6)*%
X139700000Y-68580000D03*
%TO.P,U3,7,5_IN2*%
%TO.N,unconnected-(U3-5_IN2-Pad7)*%
X142240000Y-68580000D03*
%TO.P,U3,8,6_OUT1D*%
%TO.N,unconnected-(U3-6_OUT1D-Pad8)*%
X144780000Y-68580000D03*
%TO.P,U3,9,7_RX2_OUT1A*%
%TO.N,/LED*%
X147320000Y-68580000D03*
%TO.P,U3,10,8_TX2_IN1*%
%TO.N,unconnected-(U3-8_TX2_IN1-Pad10)*%
X149860000Y-68580000D03*
%TO.P,U3,11,9_OUT1C*%
%TO.N,unconnected-(U3-9_OUT1C-Pad11)*%
X152400000Y-68580000D03*
%TO.P,U3,12,10_CS_MQSR*%
%TO.N,unconnected-(U3-10_CS_MQSR-Pad12)*%
X154940000Y-68580000D03*
%TO.P,U3,13,11_MOSI_CTX1*%
%TO.N,unconnected-(U3-11_MOSI_CTX1-Pad13)*%
X157480000Y-68580000D03*
%TO.P,U3,14,12_MISO_MQSL*%
%TO.N,unconnected-(U3-12_MISO_MQSL-Pad14)*%
X160020000Y-68580000D03*
%TO.P,U3,15,VBAT*%
%TO.N,unconnected-(U3-VBAT-Pad15)*%
X160020000Y-66040000D03*
%TO.P,U3,16,3V3*%
%TO.N,unconnected-(U3-3V3-Pad16)*%
X160020000Y-63500000D03*
%TO.P,U3,17,GND*%
%TO.N,GND*%
X160020000Y-60960000D03*
%TO.P,U3,18,PROGRAM*%
%TO.N,unconnected-(U3-PROGRAM-Pad18)*%
X160020000Y-58420000D03*
%TO.P,U3,19,ON_OFF*%
%TO.N,unconnected-(U3-ON_OFF-Pad19)*%
X160020000Y-55880000D03*
%TO.P,U3,20,13_SCK_CRX1_LED*%
%TO.N,unconnected-(U3-13_SCK_CRX1_LED-Pad20)*%
X160020000Y-53340000D03*
%TO.P,U3,21,14_A0_TX3_SPDIF_OUT*%
%TO.N,unconnected-(U3-14_A0_TX3_SPDIF_OUT-Pad21)*%
X157480000Y-53340000D03*
%TO.P,U3,22,15_A1_RX3_SPDIF_IN*%
%TO.N,unconnected-(U3-15_A1_RX3_SPDIF_IN-Pad22)*%
X154940000Y-53340000D03*
%TO.P,U3,23,16_A2_RX4_SCL1*%
%TO.N,unconnected-(U3-16_A2_RX4_SCL1-Pad23)*%
X152400000Y-53340000D03*
%TO.P,U3,24,17_A3_TX4_SDA1*%
%TO.N,unconnected-(U3-17_A3_TX4_SDA1-Pad24)*%
X149860000Y-53340000D03*
%TO.P,U3,25,18_A4_SDA0*%
%TO.N,/SDA0*%
X147320000Y-53340000D03*
%TO.P,U3,26,19_A5_SCL0*%
%TO.N,/SCL0*%
X144780000Y-53340000D03*
%TO.P,U3,27,20_A6_TX5_LRCLK1*%
%TO.N,unconnected-(U3-20_A6_TX5_LRCLK1-Pad27)*%
X142240000Y-53340000D03*
%TO.P,U3,28,21_A7_RX5_BCLK1*%
%TO.N,unconnected-(U3-21_A7_RX5_BCLK1-Pad28)*%
X139700000Y-53340000D03*
%TO.P,U3,29,22_A8_CTX1*%
%TO.N,/CTX*%
X137160000Y-53340000D03*
%TO.P,U3,30,23_A9_CRX1_MCLK1*%
%TO.N,/CRX*%
X134620000Y-53340000D03*
%TO.P,U3,31,3V3*%
%TO.N,+3.3V*%
X132080000Y-53340000D03*
%TO.P,U3,32,GND*%
%TO.N,GND*%
X129540000Y-53340000D03*
%TO.P,U3,33,VIN*%
%TO.N,+5V*%
X127000000Y-53340000D03*
%TO.P,U3,34,VUSB*%
%TO.N,unconnected-(U3-VUSB-Pad34)*%
X129540000Y-55880000D03*
%TO.P,U3,35,24_A10_TX6_SCL2*%
%TO.N,unconnected-(U3-24_A10_TX6_SCL2-Pad35)*%
X154940000Y-55880000D03*
%TO.P,U3,36,25_A11_RX6_SDA2*%
%TO.N,unconnected-(U3-25_A11_RX6_SDA2-Pad36)*%
X152400000Y-55880000D03*
%TO.P,U3,37,26_A12_MOSI1*%
%TO.N,unconnected-(U3-26_A12_MOSI1-Pad37)*%
X154940000Y-58420000D03*
%TO.P,U3,38,27_A13_SCK1*%
%TO.N,unconnected-(U3-27_A13_SCK1-Pad38)*%
X152400000Y-58420000D03*
%TO.P,U3,39,28_RX7*%
%TO.N,unconnected-(U3-28_RX7-Pad39)*%
X154940000Y-60960000D03*
%TO.P,U3,40,29_TX7*%
%TO.N,unconnected-(U3-29_TX7-Pad40)*%
X152400000Y-60960000D03*
%TO.P,U3,41,30_CRX3*%
%TO.N,unconnected-(U3-30_CRX3-Pad41)*%
X154940000Y-63500000D03*
%TO.P,U3,42,31_CTX3*%
%TO.N,unconnected-(U3-31_CTX3-Pad42)*%
X152400000Y-63500000D03*
%TO.P,U3,43,32_OUT1B*%
%TO.N,unconnected-(U3-32_OUT1B-Pad43)*%
X154940000Y-66040000D03*
%TO.P,U3,44,33_MCLK2*%
%TO.N,unconnected-(U3-33_MCLK2-Pad44)*%
X152400000Y-66040000D03*
%TD*%
D24*
%TO.P,R7,1*%
%TO.N,Net-(D4-A)*%
X133397500Y-72640000D03*
%TO.P,R7,2*%
%TO.N,/LED*%
X135222500Y-72640000D03*
%TD*%
D26*
%TO.P,D1,1,A1*%
%TO.N,/CANL*%
X123500000Y-45150000D03*
%TO.P,D1,2,A2*%
%TO.N,/CANH*%
X123500000Y-46450000D03*
%TO.P,D1,3,common*%
%TO.N,GND*%
X125500000Y-45800000D03*
%TD*%
D27*
%TO.P,D3,1,K*%
%TO.N,GND*%
X121900000Y-71800000D03*
%TO.P,D3,2,A*%
%TO.N,Net-(D3-A)*%
X121900000Y-69000000D03*
%TD*%
D28*
%TO.P,R4,1*%
%TO.N,/CANH*%
X130100000Y-49345000D03*
%TO.P,R4,2*%
%TO.N,Net-(JP1-B)*%
X130100000Y-48325000D03*
%TD*%
D29*
%TO.N,GND*%
X121800000Y-49800000D03*
X154200000Y-43800000D03*
X151500000Y-46800000D03*
X127000000Y-45800000D03*
X125900000Y-71800000D03*
X144200000Y-47100000D03*
X129500000Y-50800000D03*
%TD*%
D30*
%TO.N,GND*%
X125900000Y-71800000D02*
X125900000Y-69680000D01*
X155593750Y-44833750D02*
X154193750Y-44833750D01*
X117200000Y-49800000D02*
X121800000Y-49800000D01*
X144793750Y-46506250D02*
X144200000Y-47100000D01*
X121900000Y-71800000D02*
X125900000Y-71800000D01*
X128100000Y-72700000D02*
X126800000Y-72700000D01*
X133300000Y-50625000D02*
X129675000Y-50625000D01*
X154193750Y-43806250D02*
X154200000Y-43800000D01*
X129540000Y-50840000D02*
X129500000Y-50800000D01*
D31*
X152493750Y-46493750D02*
X151806250Y-46493750D01*
D30*
X125500000Y-45800000D02*
X127000000Y-45800000D01*
X129540000Y-53340000D02*
X129540000Y-50840000D01*
X144793750Y-45753750D02*
X143093750Y-45753750D01*
X129675000Y-50625000D02*
X129500000Y-50800000D01*
X154193750Y-44833750D02*
X154193750Y-43806250D01*
D31*
X152493750Y-46993750D02*
X152493750Y-46493750D01*
D30*
X144793750Y-45753750D02*
X144793750Y-46506250D01*
X126800000Y-72700000D02*
X125900000Y-71800000D01*
X125900000Y-69680000D02*
X127000000Y-68580000D01*
X140675000Y-45935000D02*
X142912500Y-45935000D01*
D31*
X151806250Y-46493750D02*
X151500000Y-46800000D01*
D30*
X142912500Y-45935000D02*
X143093750Y-45753750D01*
%TO.N,+3.3V*%
X140675000Y-44665000D02*
X142965000Y-44665000D01*
D31*
X153400000Y-45831250D02*
X154156250Y-45831250D01*
X154193750Y-45793750D02*
X155593750Y-45793750D01*
D30*
X140950000Y-52812500D02*
X146868750Y-46893750D01*
D31*
X154156250Y-45831250D02*
X154193750Y-45793750D01*
D30*
X151571250Y-50118750D02*
X153400000Y-48290000D01*
X142965000Y-44665000D02*
X143093750Y-44793750D01*
X140950000Y-53857767D02*
X140950000Y-52812500D01*
D31*
X150746250Y-43743750D02*
X152243750Y-45241250D01*
D30*
X132080000Y-53340000D02*
X133330000Y-54590000D01*
X153400000Y-48290000D02*
X153400000Y-47500000D01*
D31*
X153393750Y-47493750D02*
X153400000Y-47500000D01*
D30*
X149393750Y-50118750D02*
X151571250Y-50118750D01*
X133330000Y-54590000D02*
X140217767Y-54590000D01*
X144793750Y-44793750D02*
X147081250Y-44793750D01*
D31*
X147081250Y-44793750D02*
X148131250Y-43743750D01*
X146868750Y-46893750D02*
X146868750Y-45006250D01*
D30*
X143093750Y-44793750D02*
X144793750Y-44793750D01*
D31*
X152243750Y-45831250D02*
X153400000Y-45831250D01*
D30*
X153400000Y-47500000D02*
X153400000Y-45831250D01*
D31*
X147081250Y-46681250D02*
X146868750Y-46893750D01*
X152243750Y-45241250D02*
X152243750Y-45831250D01*
X152493750Y-47493750D02*
X153393750Y-47493750D01*
X148131250Y-43743750D02*
X150746250Y-43743750D01*
X146868750Y-45006250D02*
X147081250Y-44793750D01*
D30*
X140217767Y-54590000D02*
X140950000Y-53857767D01*
D31*
X154193750Y-45793750D02*
X154150785Y-45793750D01*
D30*
%TO.N,/CANH*%
X130227315Y-49345000D02*
X130100000Y-49345000D01*
X135725000Y-45935000D02*
X133637315Y-45935000D01*
X133637315Y-45935000D02*
X130227315Y-49345000D01*
X123500000Y-46450000D02*
X126395000Y-49345000D01*
X126395000Y-49345000D02*
X130100000Y-49345000D01*
X117200000Y-47300000D02*
X122650000Y-47300000D01*
X122650000Y-47300000D02*
X123500000Y-46450000D01*
%TO.N,/CANL*%
X126090000Y-42560000D02*
X130200000Y-42560000D01*
X130200000Y-42560000D02*
X132305000Y-44665000D01*
X132305000Y-44665000D02*
X135725000Y-44665000D01*
X123500000Y-45150000D02*
X126090000Y-42560000D01*
X117200000Y-44800000D02*
X123150000Y-44800000D01*
X117200000Y-44800000D02*
X117600000Y-44400000D01*
X123150000Y-44800000D02*
X123500000Y-45150000D01*
D31*
X135690000Y-44700000D02*
X135725000Y-44665000D01*
D30*
%TO.N,+5V*%
X117200000Y-52300000D02*
X118240000Y-53340000D01*
X127000000Y-55900000D02*
X121900000Y-61000000D01*
X121900000Y-61000000D02*
X121900000Y-64787500D01*
X118240000Y-53340000D02*
X127000000Y-53340000D01*
X127000000Y-53340000D02*
X127000000Y-55900000D01*
%TO.N,Net-(JP1-B)*%
X130200000Y-45100000D02*
X130200000Y-48225000D01*
X130200000Y-48225000D02*
X130100000Y-48325000D01*
%TO.N,/SCL0*%
X144780000Y-53340000D02*
X144780000Y-50632500D01*
D31*
X148518750Y-46893750D02*
X148618750Y-46993750D01*
X148618750Y-46993750D02*
X150493750Y-46993750D01*
D30*
X144780000Y-50632500D02*
X148518750Y-46893750D01*
D31*
%TO.N,/SDA0*%
X149518750Y-48468750D02*
X150493750Y-47493750D01*
D30*
X147320000Y-53340000D02*
X147320000Y-50542500D01*
D31*
X149393750Y-48468750D02*
X149518750Y-48468750D01*
D30*
X147320000Y-50542500D02*
X149393750Y-48468750D01*
D31*
%TO.N,Net-(U2-CS)*%
X150493750Y-46493750D02*
X148906250Y-44906250D01*
X148906250Y-44906250D02*
X148906250Y-44793750D01*
%TO.N,Net-(U1-Rs)*%
X134895000Y-47205000D02*
X135725000Y-47205000D01*
X133300000Y-48800000D02*
X134895000Y-47205000D01*
D30*
%TO.N,/CTX*%
X140675000Y-49825000D02*
X140675000Y-47205000D01*
D31*
X140700000Y-47230000D02*
X140675000Y-47205000D01*
D30*
X137160000Y-53340000D02*
X140675000Y-49825000D01*
%TO.N,/CRX*%
X139505000Y-43395000D02*
X140675000Y-43395000D01*
X138200000Y-44700000D02*
X139505000Y-43395000D01*
X134620000Y-53340000D02*
X138200000Y-49760000D01*
X138200000Y-49760000D02*
X138200000Y-44700000D01*
%TO.N,/LED*%
X135222500Y-72640000D02*
X143260000Y-72640000D01*
X143260000Y-72640000D02*
X147320000Y-68580000D01*
%TO.N,Net-(D3-A)*%
X121900000Y-66612500D02*
X121900000Y-69000000D01*
%TO.N,Net-(D4-A)*%
X133337500Y-72700000D02*
X133397500Y-72640000D01*
X130900000Y-72700000D02*
X133337500Y-72700000D01*
%TD*%
M02*
