%TF.GenerationSoftware,KiCad,Pcbnew,7.0.7*%
%TF.CreationDate,2023-11-26T17:57:00-07:00*%
%TF.ProjectId,IMUBox,494d5542-6f78-42e6-9b69-6361645f7063,v2*%
%TF.SameCoordinates,Original*%
%TF.FileFunction,Paste,Top*%
%TF.FilePolarity,Positive*%
%FSLAX46Y46*%
G04 Gerber Fmt 4.6, Leading zero omitted, Abs format (unit mm)*
G04 Created by KiCad (PCBNEW 7.0.7) date 2023-11-26 17:57:00*
%MOMM*%
%LPD*%
G01*
G04 APERTURE LIST*
G04 Aperture macros list*
%AMRoundRect*
0 Rectangle with rounded corners*
0 $1 Rounding radius*
0 $2 $3 $4 $5 $6 $7 $8 $9 X,Y pos of 4 corners*
0 Add a 4 corners polygon primitive as box body*
4,1,4,$2,$3,$4,$5,$6,$7,$8,$9,$2,$3,0*
0 Add four circle primitives for the rounded corners*
1,1,$1+$1,$2,$3*
1,1,$1+$1,$4,$5*
1,1,$1+$1,$6,$7*
1,1,$1+$1,$8,$9*
0 Add four rect primitives between the rounded corners*
20,1,$1+$1,$2,$3,$4,$5,0*
20,1,$1+$1,$4,$5,$6,$7,0*
20,1,$1+$1,$6,$7,$8,$9,0*
20,1,$1+$1,$8,$9,$2,$3,0*%
G04 Aperture macros list end*
%ADD10RoundRect,0.150000X0.825000X0.150000X-0.825000X0.150000X-0.825000X-0.150000X0.825000X-0.150000X0*%
%ADD11RoundRect,0.140000X-0.170000X0.140000X-0.170000X-0.140000X0.170000X-0.140000X0.170000X0.140000X0*%
%ADD12RoundRect,0.200000X0.200000X0.275000X-0.200000X0.275000X-0.200000X-0.275000X0.200000X-0.275000X0*%
%ADD13RoundRect,0.250000X-0.450000X0.262500X-0.450000X-0.262500X0.450000X-0.262500X0.450000X0.262500X0*%
%ADD14RoundRect,0.200000X-0.275000X0.200000X-0.275000X-0.200000X0.275000X-0.200000X0.275000X0.200000X0*%
%ADD15RoundRect,0.140000X0.170000X-0.140000X0.170000X0.140000X-0.170000X0.140000X-0.170000X-0.140000X0*%
%ADD16RoundRect,0.250000X0.450000X-0.262500X0.450000X0.262500X-0.450000X0.262500X-0.450000X-0.262500X0*%
%ADD17RoundRect,0.250000X-0.375000X-0.625000X0.375000X-0.625000X0.375000X0.625000X-0.375000X0.625000X0*%
%ADD18R,0.300000X0.480000*%
%ADD19R,0.480000X0.300000*%
%ADD20RoundRect,0.250000X-0.262500X-0.450000X0.262500X-0.450000X0.262500X0.450000X-0.262500X0.450000X0*%
%ADD21R,0.700000X0.450000*%
%ADD22RoundRect,0.250000X0.625000X-0.375000X0.625000X0.375000X-0.625000X0.375000X-0.625000X-0.375000X0*%
%ADD23RoundRect,0.135000X0.185000X-0.135000X0.185000X0.135000X-0.185000X0.135000X-0.185000X-0.135000X0*%
G04 APERTURE END LIST*
D10*
%TO.C,U1*%
X140675000Y-47205000D03*
X140675000Y-45935000D03*
X140675000Y-44665000D03*
X140675000Y-43395000D03*
X135725000Y-43395000D03*
X135725000Y-44665000D03*
X135725000Y-45935000D03*
X135725000Y-47205000D03*
%TD*%
D11*
%TO.C,C1*%
X155593750Y-44833750D03*
X155593750Y-45793750D03*
%TD*%
D12*
%TO.C,R1*%
X148518750Y-46893750D03*
X146868750Y-46893750D03*
%TD*%
D13*
%TO.C,R5*%
X133300000Y-48800000D03*
X133300000Y-50625000D03*
%TD*%
D11*
%TO.C,C4*%
X143093750Y-44793750D03*
X143093750Y-45753750D03*
%TD*%
D14*
%TO.C,R2*%
X149393750Y-48468750D03*
X149393750Y-50118750D03*
%TD*%
D15*
%TO.C,C2*%
X154193750Y-45793750D03*
X154193750Y-44833750D03*
%TD*%
D16*
%TO.C,R6*%
X121900000Y-66612500D03*
X121900000Y-64787500D03*
%TD*%
D11*
%TO.C,C3*%
X144793750Y-44793750D03*
X144793750Y-45753750D03*
%TD*%
D17*
%TO.C,D4*%
X128100000Y-72700000D03*
X130900000Y-72700000D03*
%TD*%
D18*
%TO.C,U2*%
X150743750Y-48156250D03*
X151243750Y-48156250D03*
X151743750Y-48156250D03*
X152243750Y-48156250D03*
D19*
X152493750Y-47493750D03*
X152493750Y-46993750D03*
X152493750Y-46493750D03*
D18*
X152243750Y-45831250D03*
X151743750Y-45831250D03*
X151243750Y-45831250D03*
X150743750Y-45831250D03*
D19*
X150493750Y-46493750D03*
X150493750Y-46993750D03*
X150493750Y-47493750D03*
%TD*%
D20*
%TO.C,R3*%
X147081250Y-44793750D03*
X148906250Y-44793750D03*
%TD*%
%TO.C,R7*%
X133397500Y-72640000D03*
X135222500Y-72640000D03*
%TD*%
D21*
%TO.C,D1*%
X123500000Y-45150000D03*
X123500000Y-46450000D03*
X125500000Y-45800000D03*
%TD*%
D22*
%TO.C,D3*%
X121900000Y-71800000D03*
X121900000Y-69000000D03*
%TD*%
D23*
%TO.C,R4*%
X130100000Y-49345000D03*
X130100000Y-48325000D03*
%TD*%
M02*
