M48
; DRILL file {KiCad 7.0.7} date 2023 November 26, Sunday 17:57:58
; FORMAT={-:-/ absolute / metric / decimal}
; #@! TF.CreationDate,2023-11-26T17:57:58-07:00
; #@! TF.GenerationSoftware,Kicad,Pcbnew,7.0.7
; #@! TF.FileFunction,Plated,1,2,PTH
FMAT,2
METRIC
; #@! TA.AperFunction,Plated,PTH,ViaDrill
T1C0.300
; #@! TA.AperFunction,Plated,PTH,ComponentDrill
T2C0.950
; #@! TA.AperFunction,Plated,PTH,ComponentDrill
T3C1.000
; #@! TA.AperFunction,Plated,PTH,ComponentDrill
T4C1.100
%
G90
G05
T1
X121.8Y-49.8
X125.9Y-71.8
X127.0Y-45.8
X129.5Y-50.8
X144.2Y-47.1
X151.5Y-46.8
X154.2Y-43.8
T2
X117.2Y-44.8
X117.2Y-47.3
X117.2Y-49.8
X117.2Y-52.3
T3
X130.2Y-42.56
X130.2Y-45.1
T4
X127.0Y-53.34
X127.0Y-68.58
X129.54Y-53.34
X129.54Y-55.88
X129.54Y-68.58
X132.08Y-53.34
X132.08Y-68.58
X134.62Y-53.34
X134.62Y-68.58
X137.16Y-53.34
X137.16Y-68.58
X139.7Y-53.34
X139.7Y-68.58
X142.24Y-53.34
X142.24Y-68.58
X144.78Y-53.34
X144.78Y-68.58
X147.32Y-53.34
X147.32Y-68.58
X149.86Y-53.34
X149.86Y-68.58
X152.4Y-53.34
X152.4Y-55.88
X152.4Y-58.42
X152.4Y-60.96
X152.4Y-63.5
X152.4Y-66.04
X152.4Y-68.58
X154.94Y-53.34
X154.94Y-55.88
X154.94Y-58.42
X154.94Y-60.96
X154.94Y-63.5
X154.94Y-66.04
X154.94Y-68.58
X157.48Y-53.34
X157.48Y-68.58
X160.02Y-53.34
X160.02Y-55.88
X160.02Y-58.42
X160.02Y-60.96
X160.02Y-63.5
X160.02Y-66.04
X160.02Y-68.58
T0
M30
