G04 #@! TF.GenerationSoftware,KiCad,Pcbnew,9.0.0*
G04 #@! TF.CreationDate,2025-04-17T11:42:55-07:00*
G04 #@! TF.ProjectId,Teensy_Telemetry_Compact,5465656e-7379-45f5-9465-6c656d657472,rev?*
G04 #@! TF.SameCoordinates,Original*
G04 #@! TF.FileFunction,Copper,L1,Top*
G04 #@! TF.FilePolarity,Positive*
%FSLAX46Y46*%
G04 Gerber Fmt 4.6, Leading zero omitted, Abs format (unit mm)*
G04 Created by KiCad (PCBNEW 9.0.0) date 2025-04-17 11:42:55*
%MOMM*%
%LPD*%
G01*
G04 APERTURE LIST*
G04 Aperture macros list*
%AMRoundRect*
0 Rectangle with rounded corners*
0 $1 Rounding radius*
0 $2 $3 $4 $5 $6 $7 $8 $9 X,Y pos of 4 corners*
0 Add a 4 corners polygon primitive as box body*
4,1,4,$2,$3,$4,$5,$6,$7,$8,$9,$2,$3,0*
0 Add four circle primitives for the rounded corners*
1,1,$1+$1,$2,$3*
1,1,$1+$1,$4,$5*
1,1,$1+$1,$6,$7*
1,1,$1+$1,$8,$9*
0 Add four rect primitives between the rounded corners*
20,1,$1+$1,$2,$3,$4,$5,0*
20,1,$1+$1,$4,$5,$6,$7,0*
20,1,$1+$1,$6,$7,$8,$9,0*
20,1,$1+$1,$8,$9,$2,$3,0*%
G04 Aperture macros list end*
G04 #@! TA.AperFunction,ComponentPad*
%ADD10C,1.810000*%
G04 #@! TD*
G04 #@! TA.AperFunction,ComponentPad*
%ADD11RoundRect,0.250000X0.725000X-0.600000X0.725000X0.600000X-0.725000X0.600000X-0.725000X-0.600000X0*%
G04 #@! TD*
G04 #@! TA.AperFunction,ComponentPad*
%ADD12O,1.950000X1.700000*%
G04 #@! TD*
G04 #@! TA.AperFunction,ComponentPad*
%ADD13C,1.600000*%
G04 #@! TD*
G04 #@! TA.AperFunction,ViaPad*
%ADD14C,0.800000*%
G04 #@! TD*
G04 #@! TA.AperFunction,Conductor*
%ADD15C,0.400000*%
G04 #@! TD*
G04 APERTURE END LIST*
D10*
X109640000Y-114900000D03*
X112180000Y-114900000D03*
X114720000Y-114900000D03*
X117260000Y-114900000D03*
X119800000Y-114900000D03*
X122340000Y-114900000D03*
X124880000Y-114900000D03*
X127420000Y-114900000D03*
X129960000Y-114900000D03*
X109640000Y-89500000D03*
X112180000Y-89500000D03*
X114720000Y-89500000D03*
X117260000Y-89500000D03*
X119800000Y-89500000D03*
D11*
X128750000Y-128350000D03*
D12*
X128750000Y-125850000D03*
X128750000Y-123350000D03*
X128750000Y-120850000D03*
D10*
X83175000Y-114905000D03*
X85715000Y-114905000D03*
X88255000Y-114905000D03*
X90795000Y-114905000D03*
X93335000Y-114905000D03*
X95875000Y-114905000D03*
X98415000Y-114905000D03*
X100955000Y-114905000D03*
X103495000Y-114905000D03*
X83175000Y-89505000D03*
X85715000Y-89505000D03*
X88255000Y-89505000D03*
X90795000Y-89505000D03*
X93335000Y-89505000D03*
X103495000Y-112000000D03*
X100955000Y-112000000D03*
X98415000Y-112000000D03*
X95875000Y-112000000D03*
X93335000Y-112000000D03*
X90795000Y-112000000D03*
X88255000Y-112000000D03*
X85715000Y-112000000D03*
X83175000Y-112000000D03*
X103495000Y-86600000D03*
X100955000Y-86600000D03*
X98415000Y-86600000D03*
X95875000Y-86600000D03*
X93335000Y-86600000D03*
D13*
X81380000Y-120000000D03*
X83920000Y-120000000D03*
X86460000Y-120000000D03*
X89000000Y-120000000D03*
X91540000Y-120000000D03*
X94080000Y-120000000D03*
X96620000Y-120000000D03*
X99160000Y-120000000D03*
X101700000Y-120000000D03*
X104240000Y-120000000D03*
X106780000Y-120000000D03*
X109320000Y-120000000D03*
X111860000Y-120000000D03*
X114400000Y-120000000D03*
X114400000Y-122540000D03*
X114400000Y-125080000D03*
X114400000Y-127620000D03*
X114400000Y-130160000D03*
X114400000Y-132700000D03*
X114400000Y-135240000D03*
X111860000Y-135240000D03*
X109320000Y-135240000D03*
X106780000Y-135240000D03*
X104240000Y-135240000D03*
X101700000Y-135240000D03*
X99160000Y-135240000D03*
X96620000Y-135240000D03*
X94080000Y-135240000D03*
X91540000Y-135240000D03*
X89000000Y-135240000D03*
X86460000Y-135240000D03*
X83920000Y-135240000D03*
X81380000Y-135240000D03*
X83920000Y-132700000D03*
X109320000Y-132700000D03*
X106780000Y-132700000D03*
X109320000Y-130160000D03*
X106780000Y-130160000D03*
X109320000Y-127620000D03*
X106780000Y-127620000D03*
X109320000Y-125080000D03*
X106780000Y-125080000D03*
X109320000Y-122540000D03*
X106780000Y-122540000D03*
D10*
X129960000Y-112000000D03*
X127420000Y-112000000D03*
X124880000Y-112000000D03*
X122340000Y-112000000D03*
X119800000Y-112000000D03*
X117260000Y-112000000D03*
X114720000Y-112000000D03*
X112180000Y-112000000D03*
X109640000Y-112000000D03*
X129960000Y-86600000D03*
X127420000Y-86600000D03*
X124880000Y-86600000D03*
X122340000Y-86600000D03*
X119800000Y-86600000D03*
D14*
X124000000Y-137000000D03*
X82000000Y-122500000D03*
X106000000Y-109000000D03*
X108000000Y-108000000D03*
X107000000Y-109000000D03*
X124000000Y-136000000D03*
X106000000Y-108000000D03*
X108275000Y-117200000D03*
X108000000Y-109000000D03*
X125000000Y-137000000D03*
X88900000Y-117300000D03*
X84000000Y-122500000D03*
X83000000Y-122500000D03*
X107000000Y-108000000D03*
X125000000Y-136000000D03*
X88900000Y-118200000D03*
X99680000Y-113460000D03*
X119800000Y-117250000D03*
X113500000Y-113500000D03*
X109600000Y-117600000D03*
D15*
X106395000Y-114900000D02*
X104895000Y-116400000D01*
X117675000Y-116375000D02*
X119351000Y-118051000D01*
X106395000Y-114900000D02*
X103495000Y-112000000D01*
X131000000Y-116425000D02*
X131425000Y-116000000D01*
X109640000Y-114900000D02*
X106395000Y-114900000D01*
X131425000Y-116000000D02*
X131425000Y-113465000D01*
X87661000Y-134039000D02*
X86460000Y-135240000D01*
X87661000Y-117211000D02*
X87661000Y-134039000D01*
X110590000Y-115850000D02*
X110590000Y-116375000D01*
X109640000Y-114900000D02*
X110590000Y-115850000D01*
X110590000Y-121270000D02*
X114400000Y-125080000D01*
X131425000Y-113465000D02*
X129960000Y-112000000D01*
X104895000Y-116400000D02*
X86850000Y-116400000D01*
X84670000Y-116400000D02*
X83175000Y-114905000D01*
X86850000Y-116400000D02*
X87661000Y-117211000D01*
X120224000Y-118051000D02*
X121850000Y-116425000D01*
X121850000Y-116425000D02*
X131000000Y-116425000D01*
X86850000Y-116400000D02*
X84670000Y-116400000D01*
X110590000Y-115850000D02*
X111115000Y-116375000D01*
X111115000Y-116375000D02*
X117675000Y-116375000D01*
X110590000Y-116375000D02*
X110590000Y-121270000D01*
X119351000Y-118051000D02*
X120224000Y-118051000D01*
X83090000Y-136950000D02*
X81380000Y-135240000D01*
X128730000Y-128320000D02*
X128580000Y-128320000D01*
X128580000Y-128320000D02*
X119950000Y-136950000D01*
X119950000Y-136950000D02*
X83090000Y-136950000D01*
X119800000Y-117250000D02*
X119800000Y-114900000D01*
X124880000Y-114900000D02*
X123430000Y-113450000D01*
X88255000Y-112000000D02*
X89755000Y-113500000D01*
X97010000Y-113500000D02*
X98415000Y-114905000D01*
X89755000Y-113500000D02*
X97010000Y-113500000D01*
X113270000Y-110550000D02*
X89705000Y-110550000D01*
X89705000Y-110550000D02*
X88255000Y-112000000D01*
X116170000Y-113450000D02*
X114720000Y-112000000D01*
X114720000Y-112000000D02*
X113270000Y-110550000D01*
X123430000Y-113450000D02*
X116170000Y-113450000D01*
X108824000Y-118376000D02*
X90624000Y-118376000D01*
X109600000Y-117600000D02*
X108824000Y-118376000D01*
X90624000Y-118376000D02*
X89000000Y-120000000D01*
G04 #@! TA.AperFunction,Conductor*
G36*
X108353717Y-115602041D02*
G01*
X108359079Y-115600955D01*
X108386883Y-115611780D01*
X108415507Y-115620185D01*
X108420441Y-115624845D01*
X108424188Y-115626304D01*
X108448786Y-115651614D01*
X108567945Y-115815622D01*
X108724378Y-115972055D01*
X108903357Y-116102091D01*
X108990599Y-116146543D01*
X109100470Y-116202526D01*
X109100472Y-116202526D01*
X109100475Y-116202528D01*
X109213257Y-116239173D01*
X109310877Y-116270892D01*
X109529380Y-116305500D01*
X109529385Y-116305500D01*
X109750615Y-116305500D01*
X109755466Y-116305118D01*
X109755653Y-116307501D01*
X109764515Y-116308627D01*
X109783147Y-116305949D01*
X109798459Y-116312941D01*
X109815157Y-116315064D01*
X109829581Y-116327154D01*
X109846703Y-116334974D01*
X109855803Y-116349134D01*
X109868704Y-116359948D01*
X109874301Y-116377918D01*
X109884477Y-116393752D01*
X109888972Y-116425016D01*
X109889483Y-116426656D01*
X109889500Y-116428687D01*
X109889500Y-116588348D01*
X109869815Y-116655387D01*
X109817011Y-116701142D01*
X109747853Y-116711086D01*
X109741310Y-116709966D01*
X109688691Y-116699500D01*
X109511309Y-116699500D01*
X109511306Y-116699500D01*
X109337341Y-116734103D01*
X109337332Y-116734106D01*
X109173459Y-116801983D01*
X109173446Y-116801990D01*
X109025965Y-116900535D01*
X109025961Y-116900538D01*
X108900538Y-117025961D01*
X108900535Y-117025965D01*
X108801990Y-117173446D01*
X108801983Y-117173459D01*
X108734106Y-117337332D01*
X108734104Y-117337340D01*
X108707202Y-117472585D01*
X108698437Y-117489340D01*
X108694418Y-117507819D01*
X108675673Y-117532857D01*
X108674817Y-117534496D01*
X108673267Y-117536073D01*
X108570162Y-117639180D01*
X108508839Y-117672666D01*
X108482480Y-117675500D01*
X90555004Y-117675500D01*
X90419677Y-117702418D01*
X90419667Y-117702421D01*
X90292192Y-117755222D01*
X90177454Y-117831887D01*
X89326147Y-118683194D01*
X89264824Y-118716679D01*
X89219068Y-118717986D01*
X89161745Y-118708907D01*
X89102352Y-118699500D01*
X88897648Y-118699500D01*
X88873329Y-118703351D01*
X88695465Y-118731522D01*
X88586679Y-118766870D01*
X88523817Y-118787295D01*
X88453977Y-118789290D01*
X88394144Y-118753210D01*
X88363316Y-118690509D01*
X88361500Y-118669364D01*
X88361500Y-117224500D01*
X88381185Y-117157461D01*
X88433989Y-117111706D01*
X88485500Y-117100500D01*
X104963996Y-117100500D01*
X105055040Y-117082389D01*
X105099328Y-117073580D01*
X105166455Y-117045775D01*
X105226807Y-117020777D01*
X105226808Y-117020776D01*
X105226811Y-117020775D01*
X105341543Y-116944114D01*
X106648837Y-115636818D01*
X106710160Y-115603334D01*
X106736518Y-115600500D01*
X108348468Y-115600500D01*
X108353717Y-115602041D01*
G37*
G04 #@! TD.AperFunction*
G04 #@! TA.AperFunction,Conductor*
G36*
X84531420Y-112765211D02*
G01*
X84545317Y-112781249D01*
X84642945Y-112915622D01*
X84799378Y-113072055D01*
X84978357Y-113202091D01*
X85175475Y-113302528D01*
X85274894Y-113334831D01*
X85332570Y-113374269D01*
X85359768Y-113438627D01*
X85347853Y-113507474D01*
X85300609Y-113558949D01*
X85274896Y-113570693D01*
X85175661Y-113602937D01*
X84978622Y-113703334D01*
X84913906Y-113750352D01*
X85606003Y-114442449D01*
X85531657Y-114462370D01*
X85423343Y-114524905D01*
X85334905Y-114613343D01*
X85272370Y-114721657D01*
X85252449Y-114796003D01*
X84560352Y-114103906D01*
X84560351Y-114103906D01*
X84545626Y-114124174D01*
X84490296Y-114166840D01*
X84420683Y-114172819D01*
X84358888Y-114140213D01*
X84344990Y-114124174D01*
X84344682Y-114123750D01*
X84247055Y-113989378D01*
X84090622Y-113832945D01*
X83911643Y-113702909D01*
X83714525Y-113602472D01*
X83615913Y-113570431D01*
X83558237Y-113530993D01*
X83531039Y-113466635D01*
X83542954Y-113397788D01*
X83590198Y-113346313D01*
X83615913Y-113334569D01*
X83624416Y-113331806D01*
X83714525Y-113302528D01*
X83911643Y-113202091D01*
X84090622Y-113072055D01*
X84247055Y-112915622D01*
X84344682Y-112781249D01*
X84400012Y-112738584D01*
X84469625Y-112732605D01*
X84531420Y-112765211D01*
G37*
G04 #@! TD.AperFunction*
G04 #@! TA.AperFunction,Conductor*
G36*
X87071420Y-112765211D02*
G01*
X87085317Y-112781249D01*
X87182945Y-112915622D01*
X87339378Y-113072055D01*
X87518357Y-113202091D01*
X87611485Y-113249542D01*
X87715470Y-113302526D01*
X87715472Y-113302526D01*
X87715475Y-113302528D01*
X87801311Y-113330418D01*
X87814087Y-113334569D01*
X87871762Y-113374007D01*
X87898960Y-113438366D01*
X87887045Y-113507212D01*
X87839801Y-113558688D01*
X87814087Y-113570431D01*
X87715470Y-113602473D01*
X87518356Y-113702909D01*
X87416242Y-113777099D01*
X87339378Y-113832945D01*
X87339376Y-113832947D01*
X87339375Y-113832947D01*
X87182947Y-113989375D01*
X87182947Y-113989376D01*
X87182945Y-113989378D01*
X87182943Y-113989381D01*
X87085009Y-114124175D01*
X87029679Y-114166840D01*
X86960065Y-114172819D01*
X86898270Y-114140213D01*
X86884373Y-114124175D01*
X86869646Y-114103906D01*
X86869646Y-114103905D01*
X86177550Y-114796001D01*
X86157630Y-114721657D01*
X86095095Y-114613343D01*
X86006657Y-114524905D01*
X85898343Y-114462370D01*
X85823997Y-114442449D01*
X86516093Y-113750352D01*
X86516092Y-113750350D01*
X86451384Y-113703338D01*
X86254336Y-113602936D01*
X86155104Y-113570693D01*
X86097429Y-113531255D01*
X86070231Y-113466896D01*
X86082146Y-113398049D01*
X86129391Y-113346574D01*
X86155101Y-113334832D01*
X86254525Y-113302528D01*
X86451643Y-113202091D01*
X86630622Y-113072055D01*
X86787055Y-112915622D01*
X86884682Y-112781249D01*
X86940012Y-112738584D01*
X87009625Y-112732605D01*
X87071420Y-112765211D01*
G37*
G04 #@! TD.AperFunction*
G04 #@! TA.AperFunction,Conductor*
G36*
X110996420Y-112765211D02*
G01*
X111010317Y-112781249D01*
X111107945Y-112915622D01*
X111264378Y-113072055D01*
X111443357Y-113202091D01*
X111640475Y-113302528D01*
X111732200Y-113332331D01*
X111789876Y-113371769D01*
X111817074Y-113436127D01*
X111805159Y-113504973D01*
X111757915Y-113556449D01*
X111732202Y-113568192D01*
X111640666Y-113597934D01*
X111443622Y-113698334D01*
X111378906Y-113745352D01*
X112071003Y-114437449D01*
X111996657Y-114457370D01*
X111888343Y-114519905D01*
X111799905Y-114608343D01*
X111737370Y-114716657D01*
X111717449Y-114791003D01*
X111025352Y-114098906D01*
X111025351Y-114098906D01*
X111010626Y-114119174D01*
X110955296Y-114161840D01*
X110885683Y-114167819D01*
X110823888Y-114135213D01*
X110809990Y-114119174D01*
X110798897Y-114103906D01*
X110712055Y-113984378D01*
X110555622Y-113827945D01*
X110376643Y-113697909D01*
X110179525Y-113597472D01*
X110088606Y-113567930D01*
X110030931Y-113528493D01*
X110003733Y-113464135D01*
X110015648Y-113395288D01*
X110062892Y-113343813D01*
X110088607Y-113332069D01*
X110089416Y-113331806D01*
X110179525Y-113302528D01*
X110376643Y-113202091D01*
X110555622Y-113072055D01*
X110712055Y-112915622D01*
X110809682Y-112781249D01*
X110865012Y-112738584D01*
X110934625Y-112732605D01*
X110996420Y-112765211D01*
G37*
G04 #@! TD.AperFunction*
G04 #@! TA.AperFunction,Conductor*
G36*
X102109646Y-112801093D02*
G01*
X102109646Y-112801092D01*
X102124373Y-112780824D01*
X102179703Y-112738159D01*
X102249317Y-112732180D01*
X102311112Y-112764786D01*
X102325008Y-112780824D01*
X102422945Y-112915622D01*
X102579378Y-113072055D01*
X102758357Y-113202091D01*
X102851485Y-113249542D01*
X102955470Y-113302526D01*
X102955472Y-113302526D01*
X102955475Y-113302528D01*
X103041311Y-113330418D01*
X103054087Y-113334569D01*
X103111762Y-113374007D01*
X103138960Y-113438366D01*
X103127045Y-113507212D01*
X103079801Y-113558688D01*
X103054087Y-113570431D01*
X102955470Y-113602473D01*
X102758356Y-113702909D01*
X102656242Y-113777099D01*
X102579378Y-113832945D01*
X102579376Y-113832947D01*
X102579375Y-113832947D01*
X102422947Y-113989375D01*
X102422947Y-113989376D01*
X102422945Y-113989378D01*
X102325318Y-114123750D01*
X102269988Y-114166415D01*
X102200374Y-114172394D01*
X102138579Y-114139788D01*
X102124682Y-114123750D01*
X102027055Y-113989378D01*
X101870622Y-113832945D01*
X101691643Y-113702909D01*
X101641913Y-113677570D01*
X101494529Y-113602473D01*
X101395104Y-113570168D01*
X101337429Y-113530730D01*
X101310231Y-113466371D01*
X101322146Y-113397525D01*
X101369390Y-113346049D01*
X101395105Y-113334306D01*
X101494335Y-113302063D01*
X101691380Y-113201664D01*
X101756092Y-113154646D01*
X101756093Y-113154646D01*
X101063997Y-112462550D01*
X101138343Y-112442630D01*
X101246657Y-112380095D01*
X101335095Y-112291657D01*
X101397630Y-112183343D01*
X101417550Y-112108997D01*
X102109646Y-112801093D01*
G37*
G04 #@! TD.AperFunction*
G04 #@! TA.AperFunction,Conductor*
G36*
X126977370Y-112183343D02*
G01*
X127039905Y-112291657D01*
X127128343Y-112380095D01*
X127236657Y-112442630D01*
X127311002Y-112462550D01*
X126618905Y-113154646D01*
X126683618Y-113201663D01*
X126880662Y-113302063D01*
X126972201Y-113331806D01*
X127029876Y-113371244D01*
X127057074Y-113435603D01*
X127045159Y-113504449D01*
X126997915Y-113555925D01*
X126972201Y-113567668D01*
X126880471Y-113597473D01*
X126683356Y-113697909D01*
X126618057Y-113745352D01*
X126504378Y-113827945D01*
X126504376Y-113827947D01*
X126504375Y-113827947D01*
X126347947Y-113984375D01*
X126347947Y-113984376D01*
X126347945Y-113984378D01*
X126261103Y-114103906D01*
X126250318Y-114118750D01*
X126194988Y-114161415D01*
X126125374Y-114167394D01*
X126063579Y-114134788D01*
X126049682Y-114118750D01*
X126038897Y-114103906D01*
X125952055Y-113984378D01*
X125795622Y-113827945D01*
X125616643Y-113697909D01*
X125419525Y-113597472D01*
X125328606Y-113567930D01*
X125270931Y-113528493D01*
X125243733Y-113464135D01*
X125255648Y-113395288D01*
X125302892Y-113343813D01*
X125328607Y-113332069D01*
X125329416Y-113331806D01*
X125419525Y-113302528D01*
X125616643Y-113202091D01*
X125795622Y-113072055D01*
X125952055Y-112915622D01*
X126049990Y-112780825D01*
X126105320Y-112738160D01*
X126174933Y-112732181D01*
X126236728Y-112764787D01*
X126250626Y-112780826D01*
X126265350Y-112801092D01*
X126265352Y-112801093D01*
X126957449Y-112108996D01*
X126977370Y-112183343D01*
G37*
G04 #@! TD.AperFunction*
G04 #@! TA.AperFunction,Conductor*
G36*
X128574646Y-112801093D02*
G01*
X128574646Y-112801092D01*
X128589373Y-112780824D01*
X128644703Y-112738159D01*
X128714317Y-112732180D01*
X128776112Y-112764786D01*
X128790008Y-112780824D01*
X128887945Y-112915622D01*
X129044378Y-113072055D01*
X129223357Y-113202091D01*
X129316485Y-113249542D01*
X129420470Y-113302526D01*
X129420472Y-113302526D01*
X129420475Y-113302528D01*
X129510584Y-113331806D01*
X129511393Y-113332069D01*
X129569068Y-113371507D01*
X129596266Y-113435866D01*
X129584351Y-113504712D01*
X129537107Y-113556188D01*
X129511393Y-113567931D01*
X129420470Y-113597473D01*
X129223356Y-113697909D01*
X129158057Y-113745352D01*
X129044378Y-113827945D01*
X129044376Y-113827947D01*
X129044375Y-113827947D01*
X128887947Y-113984375D01*
X128887947Y-113984376D01*
X128887945Y-113984378D01*
X128801103Y-114103906D01*
X128790318Y-114118750D01*
X128734988Y-114161415D01*
X128665374Y-114167394D01*
X128603579Y-114134788D01*
X128589682Y-114118750D01*
X128578897Y-114103906D01*
X128492055Y-113984378D01*
X128335622Y-113827945D01*
X128156643Y-113697909D01*
X128096719Y-113667376D01*
X127959529Y-113597473D01*
X127867798Y-113567668D01*
X127810123Y-113528230D01*
X127782925Y-113463871D01*
X127794840Y-113395025D01*
X127842084Y-113343549D01*
X127867799Y-113331806D01*
X127959335Y-113302063D01*
X128156380Y-113201664D01*
X128221092Y-113154646D01*
X128221093Y-113154646D01*
X127528996Y-112462550D01*
X127603343Y-112442630D01*
X127711657Y-112380095D01*
X127800095Y-112291657D01*
X127862630Y-112183343D01*
X127882550Y-112108996D01*
X128574646Y-112801093D01*
G37*
G04 #@! TD.AperFunction*
G04 #@! TA.AperFunction,Conductor*
G36*
X129503032Y-84500648D02*
G01*
X129806846Y-84515574D01*
X129813661Y-84516099D01*
X129882848Y-84523371D01*
X129887986Y-84524022D01*
X130153502Y-84563408D01*
X130161000Y-84564760D01*
X130223686Y-84578084D01*
X130227890Y-84579056D01*
X130494442Y-84645824D01*
X130502604Y-84648170D01*
X130553306Y-84664644D01*
X130556660Y-84665788D01*
X130826065Y-84762184D01*
X130834686Y-84765639D01*
X130865509Y-84779362D01*
X130868053Y-84780530D01*
X131144156Y-84911117D01*
X131154876Y-84916847D01*
X131283431Y-84993900D01*
X131438988Y-85087137D01*
X131449106Y-85093897D01*
X131715170Y-85291224D01*
X131724576Y-85298944D01*
X131970013Y-85521395D01*
X131978604Y-85529986D01*
X132084091Y-85646373D01*
X132201055Y-85775423D01*
X132208775Y-85784829D01*
X132406102Y-86050893D01*
X132412862Y-86061011D01*
X132583144Y-86345110D01*
X132588881Y-86355842D01*
X132719468Y-86631945D01*
X132720652Y-86634525D01*
X132734349Y-86665288D01*
X132737821Y-86673950D01*
X132834185Y-86943267D01*
X132835365Y-86946725D01*
X132851827Y-86997391D01*
X132854180Y-87005578D01*
X132920926Y-87272042D01*
X132921932Y-87276391D01*
X132935229Y-87338948D01*
X132936597Y-87346535D01*
X132975970Y-87611968D01*
X132976633Y-87617201D01*
X132983896Y-87686305D01*
X132984426Y-87693181D01*
X132999351Y-87996967D01*
X132999500Y-88003052D01*
X132999500Y-134996947D01*
X132999351Y-135003032D01*
X132984426Y-135306817D01*
X132983896Y-135313693D01*
X132976633Y-135382797D01*
X132975970Y-135388030D01*
X132936597Y-135653463D01*
X132935229Y-135661050D01*
X132921932Y-135723607D01*
X132920926Y-135727956D01*
X132854180Y-135994420D01*
X132851827Y-136002607D01*
X132835365Y-136053273D01*
X132834185Y-136056731D01*
X132737821Y-136326048D01*
X132734349Y-136334710D01*
X132720652Y-136365473D01*
X132719468Y-136368053D01*
X132588882Y-136644153D01*
X132583146Y-136654884D01*
X132412861Y-136938990D01*
X132406100Y-136949109D01*
X132208775Y-137215170D01*
X132201055Y-137224576D01*
X131978611Y-137470006D01*
X131970006Y-137478611D01*
X131724576Y-137701055D01*
X131715170Y-137708775D01*
X131449109Y-137906100D01*
X131438990Y-137912861D01*
X131154884Y-138083146D01*
X131144153Y-138088882D01*
X130868053Y-138219468D01*
X130865473Y-138220652D01*
X130834710Y-138234349D01*
X130826048Y-138237821D01*
X130556731Y-138334185D01*
X130553273Y-138335365D01*
X130502607Y-138351827D01*
X130494420Y-138354180D01*
X130227956Y-138420926D01*
X130223607Y-138421932D01*
X130161050Y-138435229D01*
X130153463Y-138436597D01*
X129888030Y-138475970D01*
X129882797Y-138476633D01*
X129813693Y-138483896D01*
X129806817Y-138484426D01*
X129503033Y-138499351D01*
X129496948Y-138499500D01*
X82503052Y-138499500D01*
X82496967Y-138499351D01*
X82193181Y-138484426D01*
X82186305Y-138483896D01*
X82117201Y-138476633D01*
X82111968Y-138475970D01*
X81846535Y-138436597D01*
X81838948Y-138435229D01*
X81776391Y-138421932D01*
X81772042Y-138420926D01*
X81505578Y-138354180D01*
X81497391Y-138351827D01*
X81446725Y-138335365D01*
X81443267Y-138334185D01*
X81173950Y-138237821D01*
X81165288Y-138234349D01*
X81134525Y-138220652D01*
X81131945Y-138219468D01*
X80855842Y-138088881D01*
X80845110Y-138083144D01*
X80561011Y-137912862D01*
X80550893Y-137906102D01*
X80284829Y-137708775D01*
X80275423Y-137701055D01*
X80219644Y-137650500D01*
X80029986Y-137478604D01*
X80021395Y-137470013D01*
X79798944Y-137224576D01*
X79791224Y-137215170D01*
X79593897Y-136949106D01*
X79587137Y-136938988D01*
X79416847Y-136654876D01*
X79411117Y-136644156D01*
X79280530Y-136368053D01*
X79279346Y-136365473D01*
X79273474Y-136352284D01*
X79265639Y-136334686D01*
X79262184Y-136326065D01*
X79165788Y-136056660D01*
X79164644Y-136053306D01*
X79148170Y-136002604D01*
X79145824Y-135994442D01*
X79079056Y-135727890D01*
X79078084Y-135723686D01*
X79064760Y-135661000D01*
X79063408Y-135653502D01*
X79024022Y-135387986D01*
X79023371Y-135382848D01*
X79016099Y-135313661D01*
X79015574Y-135306846D01*
X79007262Y-135137648D01*
X80079500Y-135137648D01*
X80079500Y-135342352D01*
X80082578Y-135361785D01*
X80111522Y-135544534D01*
X80174781Y-135739223D01*
X80267715Y-135921613D01*
X80388028Y-136087213D01*
X80532786Y-136231971D01*
X80687749Y-136344556D01*
X80698390Y-136352287D01*
X80814607Y-136411503D01*
X80880776Y-136445218D01*
X80880778Y-136445218D01*
X80880781Y-136445220D01*
X80985137Y-136479127D01*
X81075465Y-136508477D01*
X81176557Y-136524488D01*
X81277648Y-136540500D01*
X81277649Y-136540500D01*
X81482350Y-136540500D01*
X81482352Y-136540500D01*
X81599068Y-136522013D01*
X81668362Y-136530967D01*
X81706148Y-136556805D01*
X82643453Y-137494111D01*
X82643454Y-137494112D01*
X82758190Y-137570776D01*
X82821086Y-137596828D01*
X82885671Y-137623580D01*
X82885672Y-137623580D01*
X82885677Y-137623582D01*
X82912545Y-137628925D01*
X82912551Y-137628926D01*
X82912591Y-137628934D01*
X83002937Y-137646905D01*
X83021006Y-137650500D01*
X83021007Y-137650500D01*
X120018996Y-137650500D01*
X120127457Y-137628925D01*
X120154328Y-137623580D01*
X120218913Y-137596828D01*
X120281807Y-137570777D01*
X120281808Y-137570776D01*
X120281811Y-137570775D01*
X120396543Y-137494114D01*
X123011946Y-134878711D01*
X127649500Y-134878711D01*
X127649500Y-135121288D01*
X127681161Y-135361785D01*
X127743947Y-135596104D01*
X127836773Y-135820205D01*
X127836777Y-135820214D01*
X127841803Y-135828919D01*
X127958064Y-136030289D01*
X127958066Y-136030292D01*
X127958067Y-136030293D01*
X128105733Y-136222736D01*
X128105739Y-136222743D01*
X128277256Y-136394260D01*
X128277262Y-136394265D01*
X128469711Y-136541936D01*
X128679788Y-136663224D01*
X128903900Y-136756054D01*
X129138211Y-136818838D01*
X129318586Y-136842584D01*
X129378711Y-136850500D01*
X129378712Y-136850500D01*
X129621289Y-136850500D01*
X129669388Y-136844167D01*
X129861789Y-136818838D01*
X130096100Y-136756054D01*
X130320212Y-136663224D01*
X130530289Y-136541936D01*
X130722738Y-136394265D01*
X130894265Y-136222738D01*
X131041936Y-136030289D01*
X131163224Y-135820212D01*
X131256054Y-135596100D01*
X131318838Y-135361789D01*
X131350500Y-135121288D01*
X131350500Y-134878712D01*
X131318838Y-134638211D01*
X131256054Y-134403900D01*
X131163224Y-134179788D01*
X131041936Y-133969711D01*
X130894265Y-133777262D01*
X130894260Y-133777256D01*
X130722743Y-133605739D01*
X130722736Y-133605733D01*
X130530293Y-133458067D01*
X130530292Y-133458066D01*
X130530289Y-133458064D01*
X130320212Y-133336776D01*
X130320205Y-133336773D01*
X130096104Y-133243947D01*
X129861785Y-133181161D01*
X129621289Y-133149500D01*
X129621288Y-133149500D01*
X129378712Y-133149500D01*
X129378711Y-133149500D01*
X129138214Y-133181161D01*
X128903895Y-133243947D01*
X128679794Y-133336773D01*
X128679785Y-133336777D01*
X128469706Y-133458067D01*
X128277263Y-133605733D01*
X128277256Y-133605739D01*
X128105739Y-133777256D01*
X128105733Y-133777263D01*
X127958067Y-133969706D01*
X127958064Y-133969710D01*
X127958064Y-133969711D01*
X127957018Y-133971523D01*
X127836777Y-134179785D01*
X127836773Y-134179794D01*
X127743947Y-134403895D01*
X127681161Y-134638214D01*
X127649500Y-134878711D01*
X123011946Y-134878711D01*
X124343438Y-133547219D01*
X128153838Y-129736818D01*
X128215161Y-129703333D01*
X128241519Y-129700499D01*
X129525002Y-129700499D01*
X129525008Y-129700499D01*
X129627797Y-129689999D01*
X129754031Y-129648168D01*
X129823855Y-129645767D01*
X129883897Y-129681498D01*
X129915091Y-129744018D01*
X129914650Y-129790065D01*
X129899500Y-129866234D01*
X129899500Y-130033771D01*
X129932182Y-130198074D01*
X129932184Y-130198082D01*
X129996295Y-130352860D01*
X130089373Y-130492162D01*
X130207837Y-130610626D01*
X130280562Y-130659219D01*
X130347137Y-130703703D01*
X130501918Y-130767816D01*
X130666228Y-130800499D01*
X130666232Y-130800500D01*
X130666233Y-130800500D01*
X130833768Y-130800500D01*
X130833769Y-130800499D01*
X130998082Y-130767816D01*
X131152863Y-130703703D01*
X131292162Y-130610626D01*
X131410626Y-130492162D01*
X131503703Y-130352863D01*
X131567816Y-130198082D01*
X131600500Y-130033767D01*
X131600500Y-129866233D01*
X131567816Y-129701918D01*
X131503703Y-129547137D01*
X131457765Y-129478386D01*
X131410626Y-129407837D01*
X131292162Y-129289373D01*
X131152860Y-129196295D01*
X130998082Y-129132184D01*
X130998074Y-129132182D01*
X130833771Y-129099500D01*
X130833767Y-129099500D01*
X130666233Y-129099500D01*
X130666228Y-129099500D01*
X130501925Y-129132182D01*
X130501913Y-129132185D01*
X130391109Y-129178082D01*
X130321640Y-129185551D01*
X130259161Y-129154276D01*
X130223509Y-129094187D01*
X130220299Y-129050918D01*
X130225499Y-129000016D01*
X130225500Y-129000009D01*
X130225499Y-127699992D01*
X130214999Y-127597203D01*
X130159814Y-127430666D01*
X130067712Y-127281344D01*
X129943656Y-127157288D01*
X129794334Y-127065186D01*
X129794332Y-127065185D01*
X129788440Y-127061551D01*
X129741716Y-127009603D01*
X129730493Y-126940641D01*
X129758337Y-126876558D01*
X129765856Y-126868330D01*
X129904728Y-126729458D01*
X130029620Y-126557557D01*
X130126095Y-126368217D01*
X130191757Y-126166129D01*
X130191757Y-126166126D01*
X130202231Y-126100000D01*
X129154146Y-126100000D01*
X129192630Y-126033343D01*
X129225000Y-125912535D01*
X129225000Y-125787465D01*
X129192630Y-125666657D01*
X129154146Y-125600000D01*
X130202231Y-125600000D01*
X130191757Y-125533873D01*
X130191757Y-125533870D01*
X130126095Y-125331782D01*
X130029620Y-125142442D01*
X129904727Y-124970540D01*
X129904723Y-124970535D01*
X129754464Y-124820276D01*
X129754459Y-124820272D01*
X129589781Y-124700627D01*
X129547115Y-124645297D01*
X129541136Y-124575684D01*
X129573741Y-124513889D01*
X129589776Y-124499994D01*
X129754792Y-124380104D01*
X129905104Y-124229792D01*
X129905106Y-124229788D01*
X129905109Y-124229786D01*
X130030048Y-124057820D01*
X130030047Y-124057820D01*
X130030051Y-124057816D01*
X130126557Y-123868412D01*
X130192246Y-123666243D01*
X130225500Y-123456287D01*
X130225500Y-123243713D01*
X130192246Y-123033757D01*
X130126557Y-122831588D01*
X130030051Y-122642184D01*
X130030049Y-122642181D01*
X130030048Y-122642179D01*
X129905109Y-122470213D01*
X129754792Y-122319896D01*
X129677290Y-122263588D01*
X129590204Y-122200316D01*
X129547540Y-122144989D01*
X129541561Y-122075376D01*
X129574166Y-122013580D01*
X129590199Y-121999686D01*
X129754792Y-121880104D01*
X129905104Y-121729792D01*
X129905106Y-121729788D01*
X129905109Y-121729786D01*
X130030048Y-121557820D01*
X130030047Y-121557820D01*
X130030051Y-121557816D01*
X130126557Y-121368412D01*
X130192246Y-121166243D01*
X130225500Y-120956287D01*
X130225500Y-120743713D01*
X130192246Y-120533757D01*
X130126557Y-120331588D01*
X130030051Y-120142184D01*
X130030049Y-120142181D01*
X130030048Y-120142179D01*
X129905109Y-119970213D01*
X129754786Y-119819890D01*
X129582820Y-119694951D01*
X129393414Y-119598444D01*
X129393413Y-119598443D01*
X129393412Y-119598443D01*
X129191243Y-119532754D01*
X129191241Y-119532753D01*
X129191240Y-119532753D01*
X129029957Y-119507208D01*
X128981287Y-119499500D01*
X128518713Y-119499500D01*
X128470042Y-119507208D01*
X128308760Y-119532753D01*
X128106585Y-119598444D01*
X127917179Y-119694951D01*
X127745213Y-119819890D01*
X127594890Y-119970213D01*
X127469951Y-120142179D01*
X127373444Y-120331585D01*
X127373443Y-120331587D01*
X127373443Y-120331588D01*
X127366306Y-120353553D01*
X127307753Y-120533760D01*
X127274500Y-120743713D01*
X127274500Y-120956286D01*
X127299207Y-121112284D01*
X127307754Y-121166243D01*
X127364681Y-121341446D01*
X127373444Y-121368414D01*
X127469951Y-121557820D01*
X127594890Y-121729786D01*
X127745209Y-121880105D01*
X127745214Y-121880109D01*
X127909793Y-121999682D01*
X127952459Y-122055011D01*
X127958438Y-122124625D01*
X127925833Y-122186420D01*
X127909793Y-122200318D01*
X127745214Y-122319890D01*
X127745209Y-122319894D01*
X127594890Y-122470213D01*
X127469951Y-122642179D01*
X127373444Y-122831585D01*
X127307753Y-123033760D01*
X127274500Y-123243713D01*
X127274500Y-123456286D01*
X127305543Y-123652287D01*
X127307754Y-123666243D01*
X127356189Y-123815311D01*
X127373444Y-123868414D01*
X127469951Y-124057820D01*
X127594890Y-124229786D01*
X127745209Y-124380105D01*
X127745214Y-124380109D01*
X127910218Y-124499991D01*
X127952884Y-124555320D01*
X127958863Y-124624934D01*
X127926258Y-124686729D01*
X127910218Y-124700627D01*
X127745540Y-124820272D01*
X127745535Y-124820276D01*
X127595276Y-124970535D01*
X127595272Y-124970540D01*
X127470379Y-125142442D01*
X127373904Y-125331782D01*
X127308242Y-125533870D01*
X127308242Y-125533873D01*
X127297769Y-125600000D01*
X128345854Y-125600000D01*
X128307370Y-125666657D01*
X128275000Y-125787465D01*
X128275000Y-125912535D01*
X128307370Y-126033343D01*
X128345854Y-126100000D01*
X127297769Y-126100000D01*
X127308242Y-126166126D01*
X127308242Y-126166129D01*
X127373904Y-126368217D01*
X127470379Y-126557557D01*
X127595272Y-126729459D01*
X127595276Y-126729464D01*
X127734143Y-126868331D01*
X127767628Y-126929654D01*
X127762644Y-126999346D01*
X127720772Y-127055279D01*
X127711559Y-127061551D01*
X127556342Y-127157289D01*
X127432289Y-127281342D01*
X127340187Y-127430663D01*
X127340186Y-127430666D01*
X127285001Y-127597203D01*
X127285001Y-127597204D01*
X127285000Y-127597204D01*
X127274500Y-127699983D01*
X127274500Y-128583480D01*
X127254815Y-128650519D01*
X127238181Y-128671161D01*
X119696162Y-136213181D01*
X119634839Y-136246666D01*
X119608481Y-136249500D01*
X115517426Y-136249500D01*
X115450387Y-136229815D01*
X115404632Y-136177011D01*
X115394688Y-136107853D01*
X115417108Y-136052615D01*
X115467610Y-135983101D01*
X115512287Y-135921610D01*
X115605220Y-135739219D01*
X115668477Y-135544534D01*
X115700500Y-135342352D01*
X115700500Y-135137648D01*
X115668477Y-134935466D01*
X115652549Y-134886446D01*
X115605218Y-134740776D01*
X115512420Y-134558652D01*
X115512287Y-134558390D01*
X115480092Y-134514077D01*
X115391971Y-134392786D01*
X115247213Y-134248028D01*
X115081614Y-134127715D01*
X115038499Y-134105747D01*
X114988917Y-134080483D01*
X114938123Y-134032511D01*
X114921328Y-133964690D01*
X114943865Y-133898555D01*
X114988917Y-133859516D01*
X115081610Y-133812287D01*
X115129818Y-133777262D01*
X115247213Y-133691971D01*
X115247215Y-133691968D01*
X115247219Y-133691966D01*
X115391966Y-133547219D01*
X115391968Y-133547215D01*
X115391971Y-133547213D01*
X115456740Y-133458064D01*
X115512287Y-133381610D01*
X115605220Y-133199219D01*
X115668477Y-133004534D01*
X115700500Y-132802352D01*
X115700500Y-132597648D01*
X115668477Y-132395466D01*
X115605220Y-132200781D01*
X115605218Y-132200778D01*
X115605218Y-132200776D01*
X115559515Y-132111080D01*
X115512287Y-132018390D01*
X115504556Y-132007749D01*
X115391971Y-131852786D01*
X115247213Y-131708028D01*
X115081614Y-131587715D01*
X115075006Y-131584348D01*
X114988917Y-131540483D01*
X114938123Y-131492511D01*
X114921328Y-131424690D01*
X114943865Y-131358555D01*
X114988917Y-131319516D01*
X115081610Y-131272287D01*
X115102770Y-131256913D01*
X115247213Y-131151971D01*
X115247215Y-131151968D01*
X115247219Y-131151966D01*
X115391966Y-131007219D01*
X115391968Y-131007215D01*
X115391971Y-131007213D01*
X115444732Y-130934590D01*
X115512287Y-130841610D01*
X115605220Y-130659219D01*
X115668477Y-130464534D01*
X115700500Y-130262352D01*
X115700500Y-130057648D01*
X115670183Y-129866234D01*
X115668477Y-129855465D01*
X115618125Y-129700498D01*
X115605220Y-129660781D01*
X115605218Y-129660778D01*
X115605218Y-129660776D01*
X115547315Y-129547137D01*
X115512287Y-129478390D01*
X115468888Y-129418656D01*
X115391971Y-129312786D01*
X115247213Y-129168028D01*
X115081614Y-129047715D01*
X115075006Y-129044348D01*
X114988917Y-129000483D01*
X114938123Y-128952511D01*
X114921328Y-128884690D01*
X114943865Y-128818555D01*
X114988917Y-128779516D01*
X115081610Y-128732287D01*
X115102770Y-128716913D01*
X115247213Y-128611971D01*
X115247215Y-128611968D01*
X115247219Y-128611966D01*
X115391966Y-128467219D01*
X115391968Y-128467215D01*
X115391971Y-128467213D01*
X115444973Y-128394260D01*
X115512287Y-128301610D01*
X115605220Y-128119219D01*
X115668477Y-127924534D01*
X115700500Y-127722352D01*
X115700500Y-127517648D01*
X115668477Y-127315465D01*
X115617082Y-127157288D01*
X115605220Y-127120781D01*
X115605218Y-127120778D01*
X115605218Y-127120776D01*
X115559515Y-127031080D01*
X115512287Y-126938390D01*
X115461386Y-126868330D01*
X115391971Y-126772786D01*
X115247213Y-126628028D01*
X115081614Y-126507715D01*
X115075006Y-126504348D01*
X114988917Y-126460483D01*
X114938123Y-126412511D01*
X114921328Y-126344690D01*
X114943865Y-126278555D01*
X114988917Y-126239516D01*
X115081610Y-126192287D01*
X115151297Y-126141657D01*
X115247213Y-126071971D01*
X115247215Y-126071968D01*
X115247219Y-126071966D01*
X115391966Y-125927219D01*
X115391968Y-125927215D01*
X115391971Y-125927213D01*
X115493502Y-125787465D01*
X115512287Y-125761610D01*
X115605220Y-125579219D01*
X115668477Y-125384534D01*
X115700500Y-125182352D01*
X115700500Y-124977648D01*
X115668477Y-124775466D01*
X115605220Y-124580781D01*
X115605218Y-124580778D01*
X115605218Y-124580776D01*
X115571137Y-124513889D01*
X115512287Y-124398390D01*
X115499001Y-124380103D01*
X115391971Y-124232786D01*
X115247213Y-124088028D01*
X115081614Y-123967715D01*
X115075006Y-123964348D01*
X114988917Y-123920483D01*
X114938123Y-123872511D01*
X114921328Y-123804690D01*
X114943865Y-123738555D01*
X114988917Y-123699516D01*
X115081610Y-123652287D01*
X115102770Y-123636913D01*
X115247213Y-123531971D01*
X115247215Y-123531968D01*
X115247219Y-123531966D01*
X115391966Y-123387219D01*
X115391968Y-123387215D01*
X115391971Y-123387213D01*
X115496228Y-123243713D01*
X115512287Y-123221610D01*
X115605220Y-123039219D01*
X115668477Y-122844534D01*
X115700500Y-122642352D01*
X115700500Y-122437648D01*
X115668477Y-122235466D01*
X115605220Y-122040781D01*
X115605218Y-122040778D01*
X115605218Y-122040776D01*
X115523351Y-121880105D01*
X115512287Y-121858390D01*
X115504556Y-121847749D01*
X115391971Y-121692786D01*
X115247213Y-121548028D01*
X115081614Y-121427715D01*
X115075006Y-121424348D01*
X114988917Y-121380483D01*
X114938123Y-121332511D01*
X114921328Y-121264690D01*
X114943865Y-121198555D01*
X114988917Y-121159516D01*
X115081610Y-121112287D01*
X115126774Y-121079474D01*
X115247213Y-120991971D01*
X115247215Y-120991968D01*
X115247219Y-120991966D01*
X115391966Y-120847219D01*
X115391968Y-120847215D01*
X115391971Y-120847213D01*
X115512285Y-120681613D01*
X115512415Y-120681359D01*
X115605220Y-120499219D01*
X115668477Y-120304534D01*
X115700500Y-120102352D01*
X115700500Y-119897648D01*
X115670000Y-119705081D01*
X115668477Y-119695465D01*
X115624426Y-119559890D01*
X115605220Y-119500781D01*
X115605218Y-119500778D01*
X115605218Y-119500776D01*
X115512420Y-119318652D01*
X115512287Y-119318390D01*
X115480092Y-119274077D01*
X115391971Y-119152786D01*
X115247213Y-119008028D01*
X115081613Y-118887715D01*
X115081612Y-118887714D01*
X115081610Y-118887713D01*
X115024653Y-118858691D01*
X114899223Y-118794781D01*
X114704534Y-118731522D01*
X114529995Y-118703878D01*
X114502352Y-118699500D01*
X114297648Y-118699500D01*
X114273329Y-118703351D01*
X114095465Y-118731522D01*
X113900776Y-118794781D01*
X113718386Y-118887715D01*
X113552786Y-119008028D01*
X113408028Y-119152786D01*
X113287715Y-119318386D01*
X113240485Y-119411080D01*
X113192510Y-119461876D01*
X113124689Y-119478671D01*
X113058554Y-119456134D01*
X113019515Y-119411080D01*
X112972420Y-119318652D01*
X112972287Y-119318390D01*
X112940092Y-119274077D01*
X112851971Y-119152786D01*
X112707213Y-119008028D01*
X112541613Y-118887715D01*
X112541612Y-118887714D01*
X112541610Y-118887713D01*
X112484653Y-118858691D01*
X112359223Y-118794781D01*
X112164534Y-118731522D01*
X111989995Y-118703878D01*
X111962352Y-118699500D01*
X111757648Y-118699500D01*
X111690254Y-118710174D01*
X111555464Y-118731523D01*
X111555461Y-118731523D01*
X111452818Y-118764875D01*
X111382977Y-118766870D01*
X111323144Y-118730790D01*
X111292316Y-118668089D01*
X111290500Y-118646944D01*
X111290500Y-117199500D01*
X111310185Y-117132461D01*
X111362989Y-117086706D01*
X111414500Y-117075500D01*
X117333481Y-117075500D01*
X117400520Y-117095185D01*
X117421162Y-117111819D01*
X118904453Y-118595111D01*
X118904454Y-118595112D01*
X119019192Y-118671777D01*
X119146667Y-118724578D01*
X119146672Y-118724580D01*
X119146676Y-118724580D01*
X119146677Y-118724581D01*
X119282003Y-118751500D01*
X119282006Y-118751500D01*
X120292996Y-118751500D01*
X120390980Y-118732009D01*
X120428328Y-118724580D01*
X120492069Y-118698177D01*
X120555807Y-118671777D01*
X120555808Y-118671776D01*
X120555811Y-118671775D01*
X120670543Y-118595114D01*
X122103838Y-117161819D01*
X122165161Y-117128334D01*
X122191519Y-117125500D01*
X131068996Y-117125500D01*
X131160040Y-117107389D01*
X131204328Y-117098580D01*
X131268069Y-117072177D01*
X131331807Y-117045777D01*
X131331808Y-117045776D01*
X131331811Y-117045775D01*
X131446543Y-116969114D01*
X131969114Y-116446543D01*
X132045775Y-116331811D01*
X132054603Y-116310500D01*
X132074129Y-116263357D01*
X132098580Y-116204328D01*
X132114461Y-116124492D01*
X132125500Y-116068996D01*
X132125500Y-113396010D01*
X132125500Y-113396007D01*
X132124505Y-113391007D01*
X132098580Y-113260672D01*
X132086962Y-113232623D01*
X132045777Y-113133192D01*
X131969112Y-113018454D01*
X131969111Y-113018453D01*
X131368579Y-112417922D01*
X131335094Y-112356599D01*
X131333787Y-112310843D01*
X131365500Y-112110620D01*
X131365500Y-111889379D01*
X131330892Y-111670877D01*
X131262526Y-111460470D01*
X131192475Y-111322989D01*
X131162091Y-111263357D01*
X131032055Y-111084378D01*
X130875622Y-110927945D01*
X130696643Y-110797909D01*
X130499529Y-110697473D01*
X130289122Y-110629107D01*
X130070620Y-110594500D01*
X130070615Y-110594500D01*
X129849385Y-110594500D01*
X129849380Y-110594500D01*
X129630877Y-110629107D01*
X129420470Y-110697473D01*
X129223356Y-110797909D01*
X129158060Y-110845350D01*
X129044378Y-110927945D01*
X129044376Y-110927947D01*
X129044375Y-110927947D01*
X128887947Y-111084375D01*
X128887947Y-111084376D01*
X128887945Y-111084378D01*
X128887943Y-111084381D01*
X128790009Y-111219175D01*
X128734679Y-111261840D01*
X128665065Y-111267819D01*
X128603270Y-111235213D01*
X128589373Y-111219175D01*
X128574646Y-111198906D01*
X128574646Y-111198905D01*
X127882550Y-111891002D01*
X127862630Y-111816657D01*
X127800095Y-111708343D01*
X127711657Y-111619905D01*
X127603343Y-111557370D01*
X127528997Y-111537449D01*
X128221093Y-110845352D01*
X128221092Y-110845350D01*
X128156384Y-110798338D01*
X127959337Y-110697936D01*
X127749005Y-110629594D01*
X127530581Y-110595000D01*
X127309419Y-110595000D01*
X127090994Y-110629594D01*
X126880662Y-110697936D01*
X126683622Y-110798334D01*
X126618906Y-110845352D01*
X127311003Y-111537449D01*
X127236657Y-111557370D01*
X127128343Y-111619905D01*
X127039905Y-111708343D01*
X126977370Y-111816657D01*
X126957449Y-111891003D01*
X126265352Y-111198906D01*
X126265351Y-111198906D01*
X126250626Y-111219174D01*
X126195296Y-111261840D01*
X126125683Y-111267819D01*
X126063888Y-111235213D01*
X126049990Y-111219174D01*
X126049682Y-111218750D01*
X125952055Y-111084378D01*
X125795622Y-110927945D01*
X125616643Y-110797909D01*
X125419529Y-110697473D01*
X125209122Y-110629107D01*
X124990620Y-110594500D01*
X124990615Y-110594500D01*
X124769385Y-110594500D01*
X124769380Y-110594500D01*
X124550877Y-110629107D01*
X124340470Y-110697473D01*
X124143356Y-110797909D01*
X124078060Y-110845350D01*
X123964378Y-110927945D01*
X123964376Y-110927947D01*
X123964375Y-110927947D01*
X123807947Y-111084375D01*
X123807947Y-111084376D01*
X123807945Y-111084378D01*
X123710318Y-111218750D01*
X123654988Y-111261415D01*
X123585374Y-111267394D01*
X123523579Y-111234788D01*
X123509682Y-111218750D01*
X123412055Y-111084378D01*
X123255622Y-110927945D01*
X123076643Y-110797909D01*
X122879529Y-110697473D01*
X122669122Y-110629107D01*
X122450620Y-110594500D01*
X122450615Y-110594500D01*
X122229385Y-110594500D01*
X122229380Y-110594500D01*
X122010877Y-110629107D01*
X121800470Y-110697473D01*
X121603356Y-110797909D01*
X121538060Y-110845350D01*
X121424378Y-110927945D01*
X121424376Y-110927947D01*
X121424375Y-110927947D01*
X121267947Y-111084375D01*
X121267947Y-111084376D01*
X121267945Y-111084378D01*
X121170318Y-111218750D01*
X121114988Y-111261415D01*
X121045374Y-111267394D01*
X120983579Y-111234788D01*
X120969682Y-111218750D01*
X120872055Y-111084378D01*
X120715622Y-110927945D01*
X120536643Y-110797909D01*
X120339529Y-110697473D01*
X120129122Y-110629107D01*
X119910620Y-110594500D01*
X119910615Y-110594500D01*
X119689385Y-110594500D01*
X119689380Y-110594500D01*
X119470877Y-110629107D01*
X119260470Y-110697473D01*
X119063356Y-110797909D01*
X118998060Y-110845350D01*
X118884378Y-110927945D01*
X118884376Y-110927947D01*
X118884375Y-110927947D01*
X118727947Y-111084375D01*
X118727947Y-111084376D01*
X118727945Y-111084378D01*
X118630318Y-111218750D01*
X118574988Y-111261415D01*
X118505374Y-111267394D01*
X118443579Y-111234788D01*
X118429682Y-111218750D01*
X118332055Y-111084378D01*
X118175622Y-110927945D01*
X117996643Y-110797909D01*
X117799529Y-110697473D01*
X117589122Y-110629107D01*
X117370620Y-110594500D01*
X117370615Y-110594500D01*
X117149385Y-110594500D01*
X117149380Y-110594500D01*
X116930877Y-110629107D01*
X116720470Y-110697473D01*
X116523356Y-110797909D01*
X116458060Y-110845350D01*
X116344378Y-110927945D01*
X116344376Y-110927947D01*
X116344375Y-110927947D01*
X116187947Y-111084375D01*
X116187947Y-111084376D01*
X116187945Y-111084378D01*
X116090318Y-111218750D01*
X116034988Y-111261415D01*
X115965374Y-111267394D01*
X115903579Y-111234788D01*
X115889682Y-111218750D01*
X115792055Y-111084378D01*
X115635622Y-110927945D01*
X115456643Y-110797909D01*
X115259529Y-110697473D01*
X115049122Y-110629107D01*
X114830620Y-110594500D01*
X114830615Y-110594500D01*
X114609385Y-110594500D01*
X114609380Y-110594500D01*
X114409156Y-110626212D01*
X114339862Y-110617257D01*
X114302077Y-110591420D01*
X113716546Y-110005888D01*
X113716545Y-110005887D01*
X113601807Y-109929222D01*
X113474332Y-109876421D01*
X113474322Y-109876418D01*
X113338996Y-109849500D01*
X113338994Y-109849500D01*
X113338993Y-109849500D01*
X89773994Y-109849500D01*
X89636006Y-109849500D01*
X89636004Y-109849500D01*
X89500677Y-109876418D01*
X89500667Y-109876421D01*
X89373192Y-109929222D01*
X89258454Y-110005887D01*
X88672921Y-110591420D01*
X88611598Y-110624905D01*
X88565842Y-110626212D01*
X88365620Y-110594500D01*
X88365615Y-110594500D01*
X88144385Y-110594500D01*
X88144380Y-110594500D01*
X87925877Y-110629107D01*
X87715470Y-110697473D01*
X87518356Y-110797909D01*
X87453060Y-110845350D01*
X87339378Y-110927945D01*
X87339376Y-110927947D01*
X87339375Y-110927947D01*
X87182947Y-111084375D01*
X87182947Y-111084376D01*
X87182945Y-111084378D01*
X87085318Y-111218750D01*
X87029988Y-111261415D01*
X86960374Y-111267394D01*
X86898579Y-111234788D01*
X86884682Y-111218750D01*
X86787055Y-111084378D01*
X86630622Y-110927945D01*
X86451643Y-110797909D01*
X86254529Y-110697473D01*
X86044122Y-110629107D01*
X85825620Y-110594500D01*
X85825615Y-110594500D01*
X85604385Y-110594500D01*
X85604380Y-110594500D01*
X85385877Y-110629107D01*
X85175470Y-110697473D01*
X84978356Y-110797909D01*
X84913060Y-110845350D01*
X84799378Y-110927945D01*
X84799376Y-110927947D01*
X84799375Y-110927947D01*
X84642947Y-111084375D01*
X84642947Y-111084376D01*
X84642945Y-111084378D01*
X84545318Y-111218750D01*
X84489988Y-111261415D01*
X84420374Y-111267394D01*
X84358579Y-111234788D01*
X84344682Y-111218750D01*
X84247055Y-111084378D01*
X84090622Y-110927945D01*
X83911643Y-110797909D01*
X83714529Y-110697473D01*
X83504122Y-110629107D01*
X83285620Y-110594500D01*
X83285615Y-110594500D01*
X83064385Y-110594500D01*
X83064380Y-110594500D01*
X82845877Y-110629107D01*
X82635470Y-110697473D01*
X82438356Y-110797909D01*
X82373060Y-110845350D01*
X82259378Y-110927945D01*
X82259376Y-110927947D01*
X82259375Y-110927947D01*
X82102947Y-111084375D01*
X82102947Y-111084376D01*
X82102945Y-111084378D01*
X82102943Y-111084381D01*
X81972909Y-111263356D01*
X81872473Y-111460470D01*
X81804107Y-111670877D01*
X81769500Y-111889379D01*
X81769500Y-112110620D01*
X81804107Y-112329122D01*
X81872473Y-112539529D01*
X81970635Y-112732180D01*
X81972909Y-112736643D01*
X82102945Y-112915622D01*
X82259378Y-113072055D01*
X82438357Y-113202091D01*
X82531485Y-113249542D01*
X82635470Y-113302526D01*
X82635472Y-113302526D01*
X82635475Y-113302528D01*
X82721311Y-113330418D01*
X82734087Y-113334569D01*
X82791762Y-113374007D01*
X82818960Y-113438366D01*
X82807045Y-113507212D01*
X82759801Y-113558688D01*
X82734087Y-113570431D01*
X82635470Y-113602473D01*
X82438356Y-113702909D01*
X82336242Y-113777099D01*
X82259378Y-113832945D01*
X82259376Y-113832947D01*
X82259375Y-113832947D01*
X82102947Y-113989375D01*
X82102947Y-113989376D01*
X82102945Y-113989378D01*
X82102943Y-113989381D01*
X81972909Y-114168356D01*
X81872473Y-114365470D01*
X81804107Y-114575877D01*
X81769500Y-114794379D01*
X81769500Y-115015620D01*
X81804107Y-115234122D01*
X81872473Y-115444529D01*
X81968796Y-115633570D01*
X81972909Y-115641643D01*
X82102945Y-115820622D01*
X82259378Y-115977055D01*
X82438357Y-116107091D01*
X82515786Y-116146543D01*
X82635470Y-116207526D01*
X82635472Y-116207526D01*
X82635475Y-116207528D01*
X82748257Y-116244173D01*
X82845877Y-116275892D01*
X83064380Y-116310500D01*
X83064385Y-116310500D01*
X83285620Y-116310500D01*
X83463379Y-116282344D01*
X83485843Y-116278787D01*
X83555136Y-116287741D01*
X83592922Y-116313579D01*
X84223453Y-116944111D01*
X84223454Y-116944112D01*
X84223457Y-116944114D01*
X84338189Y-117020775D01*
X84465671Y-117073580D01*
X84475319Y-117075499D01*
X84525594Y-117085499D01*
X84601004Y-117100500D01*
X84601007Y-117100500D01*
X86508481Y-117100500D01*
X86575520Y-117120185D01*
X86596162Y-117136819D01*
X86924181Y-117464838D01*
X86957666Y-117526161D01*
X86960500Y-117552519D01*
X86960500Y-118624524D01*
X86940815Y-118691563D01*
X86888011Y-118737318D01*
X86818853Y-118747262D01*
X86798183Y-118742455D01*
X86764542Y-118731524D01*
X86764535Y-118731523D01*
X86663443Y-118715511D01*
X86562352Y-118699500D01*
X86357648Y-118699500D01*
X86333329Y-118703351D01*
X86155465Y-118731522D01*
X85960776Y-118794781D01*
X85778386Y-118887715D01*
X85612786Y-119008028D01*
X85468028Y-119152786D01*
X85347715Y-119318386D01*
X85300485Y-119411080D01*
X85252510Y-119461876D01*
X85184689Y-119478671D01*
X85118554Y-119456134D01*
X85079515Y-119411080D01*
X85032420Y-119318652D01*
X85032287Y-119318390D01*
X85000092Y-119274077D01*
X84911971Y-119152786D01*
X84767213Y-119008028D01*
X84601613Y-118887715D01*
X84601612Y-118887714D01*
X84601610Y-118887713D01*
X84544653Y-118858691D01*
X84419223Y-118794781D01*
X84224534Y-118731522D01*
X84049995Y-118703878D01*
X84022352Y-118699500D01*
X83817648Y-118699500D01*
X83793329Y-118703351D01*
X83615465Y-118731522D01*
X83420776Y-118794781D01*
X83238386Y-118887715D01*
X83072786Y-119008028D01*
X82928028Y-119152786D01*
X82807713Y-119318388D01*
X82760203Y-119411630D01*
X82712228Y-119462426D01*
X82644407Y-119479220D01*
X82578272Y-119456682D01*
X82539234Y-119411628D01*
X82491861Y-119318652D01*
X82459474Y-119274077D01*
X82459474Y-119274076D01*
X81903787Y-119829764D01*
X81892518Y-119787708D01*
X81820110Y-119662292D01*
X81717708Y-119559890D01*
X81592292Y-119487482D01*
X81550233Y-119476212D01*
X82105922Y-118920524D01*
X82105921Y-118920523D01*
X82061359Y-118888147D01*
X82061350Y-118888141D01*
X81879031Y-118795244D01*
X81684417Y-118732009D01*
X81482317Y-118700000D01*
X81277683Y-118700000D01*
X81075582Y-118732009D01*
X80880968Y-118795244D01*
X80698644Y-118888143D01*
X80654077Y-118920523D01*
X80654077Y-118920524D01*
X81209766Y-119476212D01*
X81167708Y-119487482D01*
X81042292Y-119559890D01*
X80939890Y-119662292D01*
X80867482Y-119787708D01*
X80856212Y-119829765D01*
X80300524Y-119274077D01*
X80300523Y-119274077D01*
X80268143Y-119318644D01*
X80175244Y-119500968D01*
X80112009Y-119695582D01*
X80080000Y-119897682D01*
X80080000Y-120102317D01*
X80112009Y-120304417D01*
X80175244Y-120499031D01*
X80268141Y-120681350D01*
X80268147Y-120681359D01*
X80300523Y-120725921D01*
X80300524Y-120725922D01*
X80856212Y-120170234D01*
X80867482Y-120212292D01*
X80939890Y-120337708D01*
X81042292Y-120440110D01*
X81167708Y-120512518D01*
X81209765Y-120523787D01*
X80654076Y-121079474D01*
X80698650Y-121111859D01*
X80880968Y-121204755D01*
X81075582Y-121267990D01*
X81277683Y-121300000D01*
X81482317Y-121300000D01*
X81684417Y-121267990D01*
X81879031Y-121204755D01*
X82061349Y-121111859D01*
X82105921Y-121079474D01*
X81550234Y-120523787D01*
X81592292Y-120512518D01*
X81717708Y-120440110D01*
X81820110Y-120337708D01*
X81892518Y-120212292D01*
X81903787Y-120170234D01*
X82459474Y-120725921D01*
X82491861Y-120681347D01*
X82491861Y-120681346D01*
X82539234Y-120588371D01*
X82587208Y-120537575D01*
X82655028Y-120520779D01*
X82721164Y-120543316D01*
X82760203Y-120588369D01*
X82807713Y-120681611D01*
X82928028Y-120847213D01*
X83072786Y-120991971D01*
X83193226Y-121079474D01*
X83238390Y-121112287D01*
X83350498Y-121169409D01*
X83420776Y-121205218D01*
X83420778Y-121205218D01*
X83420781Y-121205220D01*
X83525137Y-121239127D01*
X83615465Y-121268477D01*
X83658613Y-121275311D01*
X83817648Y-121300500D01*
X83817649Y-121300500D01*
X84022351Y-121300500D01*
X84022352Y-121300500D01*
X84224534Y-121268477D01*
X84419219Y-121205220D01*
X84601610Y-121112287D01*
X84694590Y-121044732D01*
X84767213Y-120991971D01*
X84767215Y-120991968D01*
X84767219Y-120991966D01*
X84911966Y-120847219D01*
X84911968Y-120847215D01*
X84911971Y-120847213D01*
X85032284Y-120681614D01*
X85032286Y-120681611D01*
X85032287Y-120681610D01*
X85079516Y-120588917D01*
X85127489Y-120538123D01*
X85195310Y-120521328D01*
X85261445Y-120543865D01*
X85300485Y-120588919D01*
X85347715Y-120681614D01*
X85468028Y-120847213D01*
X85612786Y-120991971D01*
X85733226Y-121079474D01*
X85778390Y-121112287D01*
X85890498Y-121169409D01*
X85960776Y-121205218D01*
X85960778Y-121205218D01*
X85960781Y-121205220D01*
X86065137Y-121239127D01*
X86155465Y-121268477D01*
X86198613Y-121275311D01*
X86357648Y-121300500D01*
X86357649Y-121300500D01*
X86562351Y-121300500D01*
X86562352Y-121300500D01*
X86764534Y-121268477D01*
X86764539Y-121268475D01*
X86764541Y-121268475D01*
X86798180Y-121257545D01*
X86868021Y-121255548D01*
X86927854Y-121291628D01*
X86958684Y-121354328D01*
X86960500Y-121375475D01*
X86960500Y-133697481D01*
X86951855Y-133726921D01*
X86945332Y-133756908D01*
X86941577Y-133761923D01*
X86940815Y-133764520D01*
X86924185Y-133785157D01*
X86849828Y-133859515D01*
X86786148Y-133923195D01*
X86724825Y-133956679D01*
X86679069Y-133957986D01*
X86618613Y-133948410D01*
X86562352Y-133939500D01*
X86357648Y-133939500D01*
X86333329Y-133943351D01*
X86155465Y-133971522D01*
X85960776Y-134034781D01*
X85778386Y-134127715D01*
X85612786Y-134248028D01*
X85468028Y-134392786D01*
X85347713Y-134558388D01*
X85300203Y-134651630D01*
X85252228Y-134702426D01*
X85184407Y-134719220D01*
X85118272Y-134696682D01*
X85079234Y-134651628D01*
X85031861Y-134558652D01*
X84999474Y-134514077D01*
X84999474Y-134514076D01*
X84443787Y-135069764D01*
X84432518Y-135027708D01*
X84360110Y-134902292D01*
X84257708Y-134799890D01*
X84132292Y-134727482D01*
X84090233Y-134716212D01*
X84645922Y-134160524D01*
X84645921Y-134160523D01*
X84601359Y-134128147D01*
X84601350Y-134128141D01*
X84508369Y-134080765D01*
X84457573Y-134032790D01*
X84440778Y-133964969D01*
X84463315Y-133898835D01*
X84508370Y-133859795D01*
X84508920Y-133859515D01*
X84601610Y-133812287D01*
X84688934Y-133748843D01*
X84767213Y-133691971D01*
X84767215Y-133691968D01*
X84767219Y-133691966D01*
X84911966Y-133547219D01*
X84911968Y-133547215D01*
X84911971Y-133547213D01*
X84976740Y-133458064D01*
X85032287Y-133381610D01*
X85125220Y-133199219D01*
X85188477Y-133004534D01*
X85220500Y-132802352D01*
X85220500Y-132597648D01*
X85188477Y-132395466D01*
X85125220Y-132200781D01*
X85125218Y-132200778D01*
X85125218Y-132200776D01*
X85079515Y-132111080D01*
X85032287Y-132018390D01*
X85024556Y-132007749D01*
X84911971Y-131852786D01*
X84767213Y-131708028D01*
X84601613Y-131587715D01*
X84601612Y-131587714D01*
X84601610Y-131587713D01*
X84544653Y-131558691D01*
X84419223Y-131494781D01*
X84224534Y-131431522D01*
X84049995Y-131403878D01*
X84022352Y-131399500D01*
X83817648Y-131399500D01*
X83793329Y-131403351D01*
X83615465Y-131431522D01*
X83420776Y-131494781D01*
X83238386Y-131587715D01*
X83072786Y-131708028D01*
X82928028Y-131852786D01*
X82807715Y-132018386D01*
X82714781Y-132200776D01*
X82651522Y-132395465D01*
X82619500Y-132597648D01*
X82619500Y-132802351D01*
X82651522Y-133004534D01*
X82714781Y-133199223D01*
X82778691Y-133324653D01*
X82784869Y-133336777D01*
X82807715Y-133381613D01*
X82928028Y-133547213D01*
X83072786Y-133691971D01*
X83238385Y-133812284D01*
X83238387Y-133812285D01*
X83238390Y-133812287D01*
X83331080Y-133859515D01*
X83331630Y-133859795D01*
X83382426Y-133907770D01*
X83399221Y-133975591D01*
X83376684Y-134041725D01*
X83331630Y-134080765D01*
X83238644Y-134128143D01*
X83194077Y-134160523D01*
X83194077Y-134160524D01*
X83749766Y-134716212D01*
X83707708Y-134727482D01*
X83582292Y-134799890D01*
X83479890Y-134902292D01*
X83407482Y-135027708D01*
X83396212Y-135069765D01*
X82840524Y-134514077D01*
X82840523Y-134514077D01*
X82808143Y-134558644D01*
X82760765Y-134651630D01*
X82712790Y-134702426D01*
X82644969Y-134719221D01*
X82578834Y-134696683D01*
X82539795Y-134651630D01*
X82492284Y-134558385D01*
X82371971Y-134392786D01*
X82227213Y-134248028D01*
X82061613Y-134127715D01*
X82061612Y-134127714D01*
X82061610Y-134127713D01*
X81969470Y-134080765D01*
X81879223Y-134034781D01*
X81684534Y-133971522D01*
X81509995Y-133943878D01*
X81482352Y-133939500D01*
X81277648Y-133939500D01*
X81253329Y-133943351D01*
X81075465Y-133971522D01*
X80880776Y-134034781D01*
X80698386Y-134127715D01*
X80532786Y-134248028D01*
X80388028Y-134392786D01*
X80267715Y-134558386D01*
X80174781Y-134740776D01*
X80111522Y-134935465D01*
X80082091Y-135121288D01*
X80079500Y-135137648D01*
X79007262Y-135137648D01*
X79000649Y-135003032D01*
X79000500Y-134996948D01*
X79000500Y-126878711D01*
X80649500Y-126878711D01*
X80649500Y-127121288D01*
X80681161Y-127361785D01*
X80743947Y-127596104D01*
X80796241Y-127722352D01*
X80836776Y-127820212D01*
X80958064Y-128030289D01*
X80958066Y-128030292D01*
X80958067Y-128030293D01*
X81105733Y-128222736D01*
X81105739Y-128222743D01*
X81277256Y-128394260D01*
X81277262Y-128394265D01*
X81469711Y-128541936D01*
X81679788Y-128663224D01*
X81903900Y-128756054D01*
X82138211Y-128818838D01*
X82318586Y-128842584D01*
X82378711Y-128850500D01*
X82378712Y-128850500D01*
X82621289Y-128850500D01*
X82669388Y-128844167D01*
X82861789Y-128818838D01*
X83096100Y-128756054D01*
X83320212Y-128663224D01*
X83530289Y-128541936D01*
X83722738Y-128394265D01*
X83894265Y-128222738D01*
X84041936Y-128030289D01*
X84163224Y-127820212D01*
X84256054Y-127596100D01*
X84318838Y-127361789D01*
X84350500Y-127121288D01*
X84350500Y-126878712D01*
X84350216Y-126876558D01*
X84330851Y-126729459D01*
X84318838Y-126638211D01*
X84256054Y-126403900D01*
X84163224Y-126179788D01*
X84041936Y-125969711D01*
X83894265Y-125777262D01*
X83894260Y-125777256D01*
X83722743Y-125605739D01*
X83722736Y-125605733D01*
X83530293Y-125458067D01*
X83530292Y-125458066D01*
X83530289Y-125458064D01*
X83320212Y-125336776D01*
X83320205Y-125336773D01*
X83096104Y-125243947D01*
X82861785Y-125181161D01*
X82621289Y-125149500D01*
X82621288Y-125149500D01*
X82378712Y-125149500D01*
X82378711Y-125149500D01*
X82138214Y-125181161D01*
X81903895Y-125243947D01*
X81679794Y-125336773D01*
X81679785Y-125336777D01*
X81469706Y-125458067D01*
X81277263Y-125605733D01*
X81277256Y-125605739D01*
X81105739Y-125777256D01*
X81105733Y-125777263D01*
X80958067Y-125969706D01*
X80836777Y-126179785D01*
X80836773Y-126179794D01*
X80743947Y-126403895D01*
X80681161Y-126638214D01*
X80649500Y-126878711D01*
X79000500Y-126878711D01*
X79000500Y-95878711D01*
X80649500Y-95878711D01*
X80649500Y-96121288D01*
X80681161Y-96361785D01*
X80743947Y-96596104D01*
X80836773Y-96820205D01*
X80836776Y-96820212D01*
X80958064Y-97030289D01*
X80958066Y-97030292D01*
X80958067Y-97030293D01*
X81105733Y-97222736D01*
X81105739Y-97222743D01*
X81277256Y-97394260D01*
X81277262Y-97394265D01*
X81469711Y-97541936D01*
X81679788Y-97663224D01*
X81903900Y-97756054D01*
X82138211Y-97818838D01*
X82318586Y-97842584D01*
X82378711Y-97850500D01*
X82378712Y-97850500D01*
X82621289Y-97850500D01*
X82669388Y-97844167D01*
X82861789Y-97818838D01*
X83096100Y-97756054D01*
X83320212Y-97663224D01*
X83530289Y-97541936D01*
X83722738Y-97394265D01*
X83894265Y-97222738D01*
X84041936Y-97030289D01*
X84163224Y-96820212D01*
X84256054Y-96596100D01*
X84318838Y-96361789D01*
X84350500Y-96121288D01*
X84350500Y-95878712D01*
X84350500Y-95878711D01*
X127649500Y-95878711D01*
X127649500Y-96121288D01*
X127681161Y-96361785D01*
X127743947Y-96596104D01*
X127836773Y-96820205D01*
X127836776Y-96820212D01*
X127958064Y-97030289D01*
X127958066Y-97030292D01*
X127958067Y-97030293D01*
X128105733Y-97222736D01*
X128105739Y-97222743D01*
X128277256Y-97394260D01*
X128277262Y-97394265D01*
X128469711Y-97541936D01*
X128679788Y-97663224D01*
X128903900Y-97756054D01*
X129138211Y-97818838D01*
X129318586Y-97842584D01*
X129378711Y-97850500D01*
X129378712Y-97850500D01*
X129621289Y-97850500D01*
X129669388Y-97844167D01*
X129861789Y-97818838D01*
X130096100Y-97756054D01*
X130320212Y-97663224D01*
X130530289Y-97541936D01*
X130722738Y-97394265D01*
X130894265Y-97222738D01*
X131041936Y-97030289D01*
X131163224Y-96820212D01*
X131256054Y-96596100D01*
X131318838Y-96361789D01*
X131350500Y-96121288D01*
X131350500Y-95878712D01*
X131318838Y-95638211D01*
X131256054Y-95403900D01*
X131163224Y-95179788D01*
X131041936Y-94969711D01*
X130894265Y-94777262D01*
X130894260Y-94777256D01*
X130722743Y-94605739D01*
X130722736Y-94605733D01*
X130530293Y-94458067D01*
X130530292Y-94458066D01*
X130530289Y-94458064D01*
X130320212Y-94336776D01*
X130320205Y-94336773D01*
X130096104Y-94243947D01*
X129861785Y-94181161D01*
X129621289Y-94149500D01*
X129621288Y-94149500D01*
X129378712Y-94149500D01*
X129378711Y-94149500D01*
X129138214Y-94181161D01*
X128903895Y-94243947D01*
X128679794Y-94336773D01*
X128679785Y-94336777D01*
X128469706Y-94458067D01*
X128277263Y-94605733D01*
X128277256Y-94605739D01*
X128105739Y-94777256D01*
X128105733Y-94777263D01*
X127958067Y-94969706D01*
X127836777Y-95179785D01*
X127836773Y-95179794D01*
X127743947Y-95403895D01*
X127681161Y-95638214D01*
X127649500Y-95878711D01*
X84350500Y-95878711D01*
X84318838Y-95638211D01*
X84256054Y-95403900D01*
X84163224Y-95179788D01*
X84041936Y-94969711D01*
X83894265Y-94777262D01*
X83894260Y-94777256D01*
X83722743Y-94605739D01*
X83722736Y-94605733D01*
X83530293Y-94458067D01*
X83530292Y-94458066D01*
X83530289Y-94458064D01*
X83320212Y-94336776D01*
X83320205Y-94336773D01*
X83096104Y-94243947D01*
X82861785Y-94181161D01*
X82621289Y-94149500D01*
X82621288Y-94149500D01*
X82378712Y-94149500D01*
X82378711Y-94149500D01*
X82138214Y-94181161D01*
X81903895Y-94243947D01*
X81679794Y-94336773D01*
X81679785Y-94336777D01*
X81469706Y-94458067D01*
X81277263Y-94605733D01*
X81277256Y-94605739D01*
X81105739Y-94777256D01*
X81105733Y-94777263D01*
X80958067Y-94969706D01*
X80836777Y-95179785D01*
X80836773Y-95179794D01*
X80743947Y-95403895D01*
X80681161Y-95638214D01*
X80649500Y-95878711D01*
X79000500Y-95878711D01*
X79000500Y-89394379D01*
X81769500Y-89394379D01*
X81769500Y-89615620D01*
X81804107Y-89834122D01*
X81872473Y-90044529D01*
X81968304Y-90232605D01*
X81972909Y-90241643D01*
X82102945Y-90420622D01*
X82259378Y-90577055D01*
X82438357Y-90707091D01*
X82531485Y-90754542D01*
X82635470Y-90807526D01*
X82635472Y-90807526D01*
X82635475Y-90807528D01*
X82748257Y-90844173D01*
X82845877Y-90875892D01*
X83064380Y-90910500D01*
X83064385Y-90910500D01*
X83285620Y-90910500D01*
X83504122Y-90875892D01*
X83519510Y-90870892D01*
X83714525Y-90807528D01*
X83911643Y-90707091D01*
X84090622Y-90577055D01*
X84247055Y-90420622D01*
X84344682Y-90286249D01*
X84400012Y-90243584D01*
X84469625Y-90237605D01*
X84531420Y-90270211D01*
X84545317Y-90286249D01*
X84642945Y-90420622D01*
X84799378Y-90577055D01*
X84978357Y-90707091D01*
X85071485Y-90754542D01*
X85175470Y-90807526D01*
X85175472Y-90807526D01*
X85175475Y-90807528D01*
X85288257Y-90844173D01*
X85385877Y-90875892D01*
X85604380Y-90910500D01*
X85604385Y-90910500D01*
X85825620Y-90910500D01*
X86044122Y-90875892D01*
X86059510Y-90870892D01*
X86254525Y-90807528D01*
X86451643Y-90707091D01*
X86630622Y-90577055D01*
X86787055Y-90420622D01*
X86884682Y-90286249D01*
X86940012Y-90243584D01*
X87009625Y-90237605D01*
X87071420Y-90270211D01*
X87085317Y-90286249D01*
X87182945Y-90420622D01*
X87339378Y-90577055D01*
X87518357Y-90707091D01*
X87611485Y-90754542D01*
X87715470Y-90807526D01*
X87715472Y-90807526D01*
X87715475Y-90807528D01*
X87828257Y-90844173D01*
X87925877Y-90875892D01*
X88144380Y-90910500D01*
X88144385Y-90910500D01*
X88365620Y-90910500D01*
X88584122Y-90875892D01*
X88599510Y-90870892D01*
X88794525Y-90807528D01*
X88991643Y-90707091D01*
X89170622Y-90577055D01*
X89327055Y-90420622D01*
X89424682Y-90286249D01*
X89480012Y-90243584D01*
X89549625Y-90237605D01*
X89611420Y-90270211D01*
X89625317Y-90286249D01*
X89722945Y-90420622D01*
X89879378Y-90577055D01*
X90058357Y-90707091D01*
X90151485Y-90754542D01*
X90255470Y-90807526D01*
X90255472Y-90807526D01*
X90255475Y-90807528D01*
X90368257Y-90844173D01*
X90465877Y-90875892D01*
X90684380Y-90910500D01*
X90684385Y-90910500D01*
X90905620Y-90910500D01*
X91124122Y-90875892D01*
X91139510Y-90870892D01*
X91334525Y-90807528D01*
X91531643Y-90707091D01*
X91710622Y-90577055D01*
X91867055Y-90420622D01*
X91964682Y-90286249D01*
X92020012Y-90243584D01*
X92089625Y-90237605D01*
X92151420Y-90270211D01*
X92165317Y-90286249D01*
X92262945Y-90420622D01*
X92419378Y-90577055D01*
X92598357Y-90707091D01*
X92691485Y-90754542D01*
X92795470Y-90807526D01*
X92795472Y-90807526D01*
X92795475Y-90807528D01*
X92908257Y-90844173D01*
X93005877Y-90875892D01*
X93224380Y-90910500D01*
X93224385Y-90910500D01*
X93445620Y-90910500D01*
X93664122Y-90875892D01*
X93679510Y-90870892D01*
X93874525Y-90807528D01*
X94071643Y-90707091D01*
X94250622Y-90577055D01*
X94407055Y-90420622D01*
X94537091Y-90241643D01*
X94637528Y-90044525D01*
X94705892Y-89834122D01*
X94706684Y-89829122D01*
X94740500Y-89615620D01*
X94740500Y-89394381D01*
X94740499Y-89394377D01*
X94739707Y-89389379D01*
X108234500Y-89389379D01*
X108234500Y-89610620D01*
X108269107Y-89829122D01*
X108337473Y-90039529D01*
X108372547Y-90108364D01*
X108437909Y-90236643D01*
X108567945Y-90415622D01*
X108724378Y-90572055D01*
X108903357Y-90702091D01*
X108996485Y-90749542D01*
X109100470Y-90802526D01*
X109100472Y-90802526D01*
X109100475Y-90802528D01*
X109213257Y-90839173D01*
X109310877Y-90870892D01*
X109529380Y-90905500D01*
X109529385Y-90905500D01*
X109750620Y-90905500D01*
X109969122Y-90870892D01*
X110179525Y-90802528D01*
X110376643Y-90702091D01*
X110555622Y-90572055D01*
X110712055Y-90415622D01*
X110809682Y-90281249D01*
X110865012Y-90238584D01*
X110934625Y-90232605D01*
X110996420Y-90265211D01*
X111010317Y-90281249D01*
X111107945Y-90415622D01*
X111264378Y-90572055D01*
X111443357Y-90702091D01*
X111536485Y-90749542D01*
X111640470Y-90802526D01*
X111640472Y-90802526D01*
X111640475Y-90802528D01*
X111753257Y-90839173D01*
X111850877Y-90870892D01*
X112069380Y-90905500D01*
X112069385Y-90905500D01*
X112290620Y-90905500D01*
X112509122Y-90870892D01*
X112719525Y-90802528D01*
X112916643Y-90702091D01*
X113095622Y-90572055D01*
X113252055Y-90415622D01*
X113349682Y-90281249D01*
X113405012Y-90238584D01*
X113474625Y-90232605D01*
X113536420Y-90265211D01*
X113550317Y-90281249D01*
X113647945Y-90415622D01*
X113804378Y-90572055D01*
X113983357Y-90702091D01*
X114076485Y-90749542D01*
X114180470Y-90802526D01*
X114180472Y-90802526D01*
X114180475Y-90802528D01*
X114293257Y-90839173D01*
X114390877Y-90870892D01*
X114609380Y-90905500D01*
X114609385Y-90905500D01*
X114830620Y-90905500D01*
X115049122Y-90870892D01*
X115259525Y-90802528D01*
X115456643Y-90702091D01*
X115635622Y-90572055D01*
X115792055Y-90415622D01*
X115889682Y-90281249D01*
X115945012Y-90238584D01*
X116014625Y-90232605D01*
X116076420Y-90265211D01*
X116090317Y-90281249D01*
X116187945Y-90415622D01*
X116344378Y-90572055D01*
X116523357Y-90702091D01*
X116616485Y-90749542D01*
X116720470Y-90802526D01*
X116720472Y-90802526D01*
X116720475Y-90802528D01*
X116833257Y-90839173D01*
X116930877Y-90870892D01*
X117149380Y-90905500D01*
X117149385Y-90905500D01*
X117370620Y-90905500D01*
X117589122Y-90870892D01*
X117799525Y-90802528D01*
X117996643Y-90702091D01*
X118175622Y-90572055D01*
X118332055Y-90415622D01*
X118429682Y-90281249D01*
X118485012Y-90238584D01*
X118554625Y-90232605D01*
X118616420Y-90265211D01*
X118630317Y-90281249D01*
X118727945Y-90415622D01*
X118884378Y-90572055D01*
X119063357Y-90702091D01*
X119156485Y-90749542D01*
X119260470Y-90802526D01*
X119260472Y-90802526D01*
X119260475Y-90802528D01*
X119373257Y-90839173D01*
X119470877Y-90870892D01*
X119689380Y-90905500D01*
X119689385Y-90905500D01*
X119910620Y-90905500D01*
X120129122Y-90870892D01*
X120339525Y-90802528D01*
X120536643Y-90702091D01*
X120715622Y-90572055D01*
X120872055Y-90415622D01*
X121002091Y-90236643D01*
X121102528Y-90039525D01*
X121170892Y-89829122D01*
X121205500Y-89610620D01*
X121205500Y-89389379D01*
X121170892Y-89170877D01*
X121139173Y-89073257D01*
X121102528Y-88960475D01*
X121102526Y-88960472D01*
X121102526Y-88960470D01*
X121049542Y-88856485D01*
X121002091Y-88763357D01*
X120872055Y-88584378D01*
X120715622Y-88427945D01*
X120536643Y-88297909D01*
X120339525Y-88197472D01*
X120248606Y-88167930D01*
X120190931Y-88128493D01*
X120163733Y-88064135D01*
X120175648Y-87995288D01*
X120222892Y-87943813D01*
X120248607Y-87932069D01*
X120339525Y-87902528D01*
X120536643Y-87802091D01*
X120715622Y-87672055D01*
X120872055Y-87515622D01*
X120969682Y-87381249D01*
X121025012Y-87338584D01*
X121094625Y-87332605D01*
X121156420Y-87365211D01*
X121170317Y-87381249D01*
X121267945Y-87515622D01*
X121424378Y-87672055D01*
X121603357Y-87802091D01*
X121654267Y-87828031D01*
X121800470Y-87902526D01*
X121800472Y-87902526D01*
X121800475Y-87902528D01*
X121891393Y-87932069D01*
X122010877Y-87970892D01*
X122229380Y-88005500D01*
X122229385Y-88005500D01*
X122450620Y-88005500D01*
X122669122Y-87970892D01*
X122744768Y-87946313D01*
X122879525Y-87902528D01*
X123076643Y-87802091D01*
X123255622Y-87672055D01*
X123412055Y-87515622D01*
X123509682Y-87381249D01*
X123565012Y-87338584D01*
X123634625Y-87332605D01*
X123696420Y-87365211D01*
X123710317Y-87381249D01*
X123807945Y-87515622D01*
X123964378Y-87672055D01*
X124143357Y-87802091D01*
X124194267Y-87828031D01*
X124340470Y-87902526D01*
X124340472Y-87902526D01*
X124340475Y-87902528D01*
X124431393Y-87932069D01*
X124550877Y-87970892D01*
X124769380Y-88005500D01*
X124769385Y-88005500D01*
X124990620Y-88005500D01*
X125209122Y-87970892D01*
X125284768Y-87946313D01*
X125419525Y-87902528D01*
X125616643Y-87802091D01*
X125795622Y-87672055D01*
X125952055Y-87515622D01*
X126049682Y-87381249D01*
X126105012Y-87338584D01*
X126174625Y-87332605D01*
X126236420Y-87365211D01*
X126250317Y-87381249D01*
X126347945Y-87515622D01*
X126504378Y-87672055D01*
X126683357Y-87802091D01*
X126734267Y-87828031D01*
X126880470Y-87902526D01*
X126880472Y-87902526D01*
X126880475Y-87902528D01*
X126971393Y-87932069D01*
X127090877Y-87970892D01*
X127309380Y-88005500D01*
X127309385Y-88005500D01*
X127530620Y-88005500D01*
X127749122Y-87970892D01*
X127824768Y-87946313D01*
X127959525Y-87902528D01*
X128156643Y-87802091D01*
X128335622Y-87672055D01*
X128492055Y-87515622D01*
X128589682Y-87381249D01*
X128645012Y-87338584D01*
X128714625Y-87332605D01*
X128776420Y-87365211D01*
X128790317Y-87381249D01*
X128887945Y-87515622D01*
X129044378Y-87672055D01*
X129223357Y-87802091D01*
X129274267Y-87828031D01*
X129420470Y-87902526D01*
X129420472Y-87902526D01*
X129420475Y-87902528D01*
X129511393Y-87932069D01*
X129630877Y-87970892D01*
X129849380Y-88005500D01*
X129849385Y-88005500D01*
X130070620Y-88005500D01*
X130289122Y-87970892D01*
X130364768Y-87946313D01*
X130499525Y-87902528D01*
X130696643Y-87802091D01*
X130875622Y-87672055D01*
X131032055Y-87515622D01*
X131162091Y-87336643D01*
X131262528Y-87139525D01*
X131330892Y-86929122D01*
X131348287Y-86819295D01*
X131365500Y-86710620D01*
X131365500Y-86489379D01*
X131330892Y-86270877D01*
X131262526Y-86060470D01*
X131186998Y-85912240D01*
X131162091Y-85863357D01*
X131032055Y-85684378D01*
X130875622Y-85527945D01*
X130696643Y-85397909D01*
X130499529Y-85297473D01*
X130289122Y-85229107D01*
X130070620Y-85194500D01*
X130070615Y-85194500D01*
X129849385Y-85194500D01*
X129849380Y-85194500D01*
X129630877Y-85229107D01*
X129420470Y-85297473D01*
X129223356Y-85397909D01*
X129121242Y-85472099D01*
X129044378Y-85527945D01*
X129044376Y-85527947D01*
X129044375Y-85527947D01*
X128887947Y-85684375D01*
X128887947Y-85684376D01*
X128887945Y-85684378D01*
X128814963Y-85784829D01*
X128790318Y-85818750D01*
X128734988Y-85861415D01*
X128665374Y-85867394D01*
X128603579Y-85834788D01*
X128589682Y-85818750D01*
X128565037Y-85784829D01*
X128492055Y-85684378D01*
X128335622Y-85527945D01*
X128156643Y-85397909D01*
X127959529Y-85297473D01*
X127749122Y-85229107D01*
X127530620Y-85194500D01*
X127530615Y-85194500D01*
X127309385Y-85194500D01*
X127309380Y-85194500D01*
X127090877Y-85229107D01*
X126880470Y-85297473D01*
X126683356Y-85397909D01*
X126581242Y-85472099D01*
X126504378Y-85527945D01*
X126504376Y-85527947D01*
X126504375Y-85527947D01*
X126347947Y-85684375D01*
X126347947Y-85684376D01*
X126347945Y-85684378D01*
X126274963Y-85784829D01*
X126250318Y-85818750D01*
X126194988Y-85861415D01*
X126125374Y-85867394D01*
X126063579Y-85834788D01*
X126049682Y-85818750D01*
X126025037Y-85784829D01*
X125952055Y-85684378D01*
X125795622Y-85527945D01*
X125616643Y-85397909D01*
X125419529Y-85297473D01*
X125209122Y-85229107D01*
X124990620Y-85194500D01*
X124990615Y-85194500D01*
X124769385Y-85194500D01*
X124769380Y-85194500D01*
X124550877Y-85229107D01*
X124340470Y-85297473D01*
X124143356Y-85397909D01*
X124041242Y-85472099D01*
X123964378Y-85527945D01*
X123964376Y-85527947D01*
X123964375Y-85527947D01*
X123807947Y-85684375D01*
X123807947Y-85684376D01*
X123807945Y-85684378D01*
X123734963Y-85784829D01*
X123710318Y-85818750D01*
X123654988Y-85861415D01*
X123585374Y-85867394D01*
X123523579Y-85834788D01*
X123509682Y-85818750D01*
X123485037Y-85784829D01*
X123412055Y-85684378D01*
X123255622Y-85527945D01*
X123076643Y-85397909D01*
X122879529Y-85297473D01*
X122669122Y-85229107D01*
X122450620Y-85194500D01*
X122450615Y-85194500D01*
X122229385Y-85194500D01*
X122229380Y-85194500D01*
X122010877Y-85229107D01*
X121800470Y-85297473D01*
X121603356Y-85397909D01*
X121501242Y-85472099D01*
X121424378Y-85527945D01*
X121424376Y-85527947D01*
X121424375Y-85527947D01*
X121267947Y-85684375D01*
X121267947Y-85684376D01*
X121267945Y-85684378D01*
X121194963Y-85784829D01*
X121170318Y-85818750D01*
X121114988Y-85861415D01*
X121045374Y-85867394D01*
X120983579Y-85834788D01*
X120969682Y-85818750D01*
X120945037Y-85784829D01*
X120872055Y-85684378D01*
X120715622Y-85527945D01*
X120536643Y-85397909D01*
X120339529Y-85297473D01*
X120129122Y-85229107D01*
X119910620Y-85194500D01*
X119910615Y-85194500D01*
X119689385Y-85194500D01*
X119689380Y-85194500D01*
X119470877Y-85229107D01*
X119260470Y-85297473D01*
X119063356Y-85397909D01*
X118961242Y-85472099D01*
X118884378Y-85527945D01*
X118884376Y-85527947D01*
X118884375Y-85527947D01*
X118727947Y-85684375D01*
X118727947Y-85684376D01*
X118727945Y-85684378D01*
X118672099Y-85761242D01*
X118597909Y-85863356D01*
X118497473Y-86060470D01*
X118429107Y-86270877D01*
X118394500Y-86489379D01*
X118394500Y-86710620D01*
X118429107Y-86929122D01*
X118497473Y-87139529D01*
X118595852Y-87332605D01*
X118597909Y-87336643D01*
X118727945Y-87515622D01*
X118884378Y-87672055D01*
X119063357Y-87802091D01*
X119114267Y-87828031D01*
X119260470Y-87902526D01*
X119260472Y-87902526D01*
X119260475Y-87902528D01*
X119351393Y-87932069D01*
X119409068Y-87971507D01*
X119436266Y-88035866D01*
X119424351Y-88104712D01*
X119377107Y-88156188D01*
X119351393Y-88167931D01*
X119260470Y-88197473D01*
X119063356Y-88297909D01*
X118961242Y-88372099D01*
X118884378Y-88427945D01*
X118884376Y-88427947D01*
X118884375Y-88427947D01*
X118727947Y-88584375D01*
X118727947Y-88584376D01*
X118727945Y-88584378D01*
X118630318Y-88718750D01*
X118574988Y-88761415D01*
X118505374Y-88767394D01*
X118443579Y-88734788D01*
X118429682Y-88718750D01*
X118332055Y-88584378D01*
X118175622Y-88427945D01*
X117996643Y-88297909D01*
X117799529Y-88197473D01*
X117589122Y-88129107D01*
X117370620Y-88094500D01*
X117370615Y-88094500D01*
X117149385Y-88094500D01*
X117149380Y-88094500D01*
X116930877Y-88129107D01*
X116720470Y-88197473D01*
X116523356Y-88297909D01*
X116421242Y-88372099D01*
X116344378Y-88427945D01*
X116344376Y-88427947D01*
X116344375Y-88427947D01*
X116187947Y-88584375D01*
X116187947Y-88584376D01*
X116187945Y-88584378D01*
X116090318Y-88718750D01*
X116034988Y-88761415D01*
X115965374Y-88767394D01*
X115903579Y-88734788D01*
X115889682Y-88718750D01*
X115792055Y-88584378D01*
X115635622Y-88427945D01*
X115456643Y-88297909D01*
X115259529Y-88197473D01*
X115049122Y-88129107D01*
X114830620Y-88094500D01*
X114830615Y-88094500D01*
X114609385Y-88094500D01*
X114609380Y-88094500D01*
X114390877Y-88129107D01*
X114180470Y-88197473D01*
X113983356Y-88297909D01*
X113881242Y-88372099D01*
X113804378Y-88427945D01*
X113804376Y-88427947D01*
X113804375Y-88427947D01*
X113647947Y-88584375D01*
X113647947Y-88584376D01*
X113647945Y-88584378D01*
X113550318Y-88718750D01*
X113494988Y-88761415D01*
X113425374Y-88767394D01*
X113363579Y-88734788D01*
X113349682Y-88718750D01*
X113252055Y-88584378D01*
X113095622Y-88427945D01*
X112916643Y-88297909D01*
X112719529Y-88197473D01*
X112509122Y-88129107D01*
X112290620Y-88094500D01*
X112290615Y-88094500D01*
X112069385Y-88094500D01*
X112069380Y-88094500D01*
X111850877Y-88129107D01*
X111640470Y-88197473D01*
X111443356Y-88297909D01*
X111341242Y-88372099D01*
X111264378Y-88427945D01*
X111264376Y-88427947D01*
X111264375Y-88427947D01*
X111107947Y-88584375D01*
X111107947Y-88584376D01*
X111107945Y-88584378D01*
X111010318Y-88718750D01*
X110954988Y-88761415D01*
X110885374Y-88767394D01*
X110823579Y-88734788D01*
X110809682Y-88718750D01*
X110712055Y-88584378D01*
X110555622Y-88427945D01*
X110376643Y-88297909D01*
X110179529Y-88197473D01*
X109969122Y-88129107D01*
X109750620Y-88094500D01*
X109750615Y-88094500D01*
X109529385Y-88094500D01*
X109529380Y-88094500D01*
X109310877Y-88129107D01*
X109100470Y-88197473D01*
X108903356Y-88297909D01*
X108801242Y-88372099D01*
X108724378Y-88427945D01*
X108724376Y-88427947D01*
X108724375Y-88427947D01*
X108567947Y-88584375D01*
X108567947Y-88584376D01*
X108567945Y-88584378D01*
X108512099Y-88661242D01*
X108437909Y-88763356D01*
X108337473Y-88960470D01*
X108269107Y-89170877D01*
X108234500Y-89389379D01*
X94739707Y-89389379D01*
X94705892Y-89175877D01*
X94637526Y-88965470D01*
X94584542Y-88861485D01*
X94537091Y-88768357D01*
X94407055Y-88589378D01*
X94250622Y-88432945D01*
X94071643Y-88302909D01*
X93874525Y-88202472D01*
X93775913Y-88170431D01*
X93718237Y-88130993D01*
X93691039Y-88066635D01*
X93702954Y-87997788D01*
X93750198Y-87946313D01*
X93775913Y-87934569D01*
X93783607Y-87932069D01*
X93874525Y-87902528D01*
X94071643Y-87802091D01*
X94250622Y-87672055D01*
X94407055Y-87515622D01*
X94504682Y-87381249D01*
X94560012Y-87338584D01*
X94629625Y-87332605D01*
X94691420Y-87365211D01*
X94705317Y-87381249D01*
X94802945Y-87515622D01*
X94959378Y-87672055D01*
X95138357Y-87802091D01*
X95189267Y-87828031D01*
X95335470Y-87902526D01*
X95335472Y-87902526D01*
X95335475Y-87902528D01*
X95426393Y-87932069D01*
X95545877Y-87970892D01*
X95764380Y-88005500D01*
X95764385Y-88005500D01*
X95985620Y-88005500D01*
X96204122Y-87970892D01*
X96279768Y-87946313D01*
X96414525Y-87902528D01*
X96611643Y-87802091D01*
X96790622Y-87672055D01*
X96947055Y-87515622D01*
X97044682Y-87381249D01*
X97100012Y-87338584D01*
X97169625Y-87332605D01*
X97231420Y-87365211D01*
X97245317Y-87381249D01*
X97342945Y-87515622D01*
X97499378Y-87672055D01*
X97678357Y-87802091D01*
X97729267Y-87828031D01*
X97875470Y-87902526D01*
X97875472Y-87902526D01*
X97875475Y-87902528D01*
X97966393Y-87932069D01*
X98085877Y-87970892D01*
X98304380Y-88005500D01*
X98304385Y-88005500D01*
X98525620Y-88005500D01*
X98744122Y-87970892D01*
X98819768Y-87946313D01*
X98954525Y-87902528D01*
X99151643Y-87802091D01*
X99330622Y-87672055D01*
X99487055Y-87515622D01*
X99584682Y-87381249D01*
X99640012Y-87338584D01*
X99709625Y-87332605D01*
X99771420Y-87365211D01*
X99785317Y-87381249D01*
X99882945Y-87515622D01*
X100039378Y-87672055D01*
X100218357Y-87802091D01*
X100269267Y-87828031D01*
X100415470Y-87902526D01*
X100415472Y-87902526D01*
X100415475Y-87902528D01*
X100506393Y-87932069D01*
X100625877Y-87970892D01*
X100844380Y-88005500D01*
X100844385Y-88005500D01*
X101065620Y-88005500D01*
X101284122Y-87970892D01*
X101359768Y-87946313D01*
X101494525Y-87902528D01*
X101691643Y-87802091D01*
X101870622Y-87672055D01*
X102027055Y-87515622D01*
X102124682Y-87381249D01*
X102180012Y-87338584D01*
X102249625Y-87332605D01*
X102311420Y-87365211D01*
X102325317Y-87381249D01*
X102422945Y-87515622D01*
X102579378Y-87672055D01*
X102758357Y-87802091D01*
X102809267Y-87828031D01*
X102955470Y-87902526D01*
X102955472Y-87902526D01*
X102955475Y-87902528D01*
X103046393Y-87932069D01*
X103165877Y-87970892D01*
X103384380Y-88005500D01*
X103384385Y-88005500D01*
X103605620Y-88005500D01*
X103824122Y-87970892D01*
X103899768Y-87946313D01*
X104034525Y-87902528D01*
X104231643Y-87802091D01*
X104410622Y-87672055D01*
X104567055Y-87515622D01*
X104697091Y-87336643D01*
X104797528Y-87139525D01*
X104865892Y-86929122D01*
X104883287Y-86819295D01*
X104900500Y-86710620D01*
X104900500Y-86489379D01*
X104865892Y-86270877D01*
X104797526Y-86060470D01*
X104721998Y-85912240D01*
X104697091Y-85863357D01*
X104567055Y-85684378D01*
X104410622Y-85527945D01*
X104231643Y-85397909D01*
X104034529Y-85297473D01*
X103824122Y-85229107D01*
X103605620Y-85194500D01*
X103605615Y-85194500D01*
X103384385Y-85194500D01*
X103384380Y-85194500D01*
X103165877Y-85229107D01*
X102955470Y-85297473D01*
X102758356Y-85397909D01*
X102656242Y-85472099D01*
X102579378Y-85527945D01*
X102579376Y-85527947D01*
X102579375Y-85527947D01*
X102422947Y-85684375D01*
X102422947Y-85684376D01*
X102422945Y-85684378D01*
X102349963Y-85784829D01*
X102325318Y-85818750D01*
X102269988Y-85861415D01*
X102200374Y-85867394D01*
X102138579Y-85834788D01*
X102124682Y-85818750D01*
X102100037Y-85784829D01*
X102027055Y-85684378D01*
X101870622Y-85527945D01*
X101691643Y-85397909D01*
X101494529Y-85297473D01*
X101284122Y-85229107D01*
X101065620Y-85194500D01*
X101065615Y-85194500D01*
X100844385Y-85194500D01*
X100844380Y-85194500D01*
X100625877Y-85229107D01*
X100415470Y-85297473D01*
X100218356Y-85397909D01*
X100116242Y-85472099D01*
X100039378Y-85527945D01*
X100039376Y-85527947D01*
X100039375Y-85527947D01*
X99882947Y-85684375D01*
X99882947Y-85684376D01*
X99882945Y-85684378D01*
X99809963Y-85784829D01*
X99785318Y-85818750D01*
X99729988Y-85861415D01*
X99660374Y-85867394D01*
X99598579Y-85834788D01*
X99584682Y-85818750D01*
X99560037Y-85784829D01*
X99487055Y-85684378D01*
X99330622Y-85527945D01*
X99151643Y-85397909D01*
X98954529Y-85297473D01*
X98744122Y-85229107D01*
X98525620Y-85194500D01*
X98525615Y-85194500D01*
X98304385Y-85194500D01*
X98304380Y-85194500D01*
X98085877Y-85229107D01*
X97875470Y-85297473D01*
X97678356Y-85397909D01*
X97576242Y-85472099D01*
X97499378Y-85527945D01*
X97499376Y-85527947D01*
X97499375Y-85527947D01*
X97342947Y-85684375D01*
X97342947Y-85684376D01*
X97342945Y-85684378D01*
X97269963Y-85784829D01*
X97245318Y-85818750D01*
X97189988Y-85861415D01*
X97120374Y-85867394D01*
X97058579Y-85834788D01*
X97044682Y-85818750D01*
X97020037Y-85784829D01*
X96947055Y-85684378D01*
X96790622Y-85527945D01*
X96611643Y-85397909D01*
X96414529Y-85297473D01*
X96204122Y-85229107D01*
X95985620Y-85194500D01*
X95985615Y-85194500D01*
X95764385Y-85194500D01*
X95764380Y-85194500D01*
X95545877Y-85229107D01*
X95335470Y-85297473D01*
X95138356Y-85397909D01*
X95036242Y-85472099D01*
X94959378Y-85527945D01*
X94959376Y-85527947D01*
X94959375Y-85527947D01*
X94802947Y-85684375D01*
X94802947Y-85684376D01*
X94802945Y-85684378D01*
X94729963Y-85784829D01*
X94705318Y-85818750D01*
X94649988Y-85861415D01*
X94580374Y-85867394D01*
X94518579Y-85834788D01*
X94504682Y-85818750D01*
X94480037Y-85784829D01*
X94407055Y-85684378D01*
X94250622Y-85527945D01*
X94071643Y-85397909D01*
X93874529Y-85297473D01*
X93664122Y-85229107D01*
X93445620Y-85194500D01*
X93445615Y-85194500D01*
X93224385Y-85194500D01*
X93224380Y-85194500D01*
X93005877Y-85229107D01*
X92795470Y-85297473D01*
X92598356Y-85397909D01*
X92496242Y-85472099D01*
X92419378Y-85527945D01*
X92419376Y-85527947D01*
X92419375Y-85527947D01*
X92262947Y-85684375D01*
X92262947Y-85684376D01*
X92262945Y-85684378D01*
X92207099Y-85761242D01*
X92132909Y-85863356D01*
X92032473Y-86060470D01*
X91964107Y-86270877D01*
X91929500Y-86489379D01*
X91929500Y-86710620D01*
X91964107Y-86929122D01*
X92032473Y-87139529D01*
X92130852Y-87332605D01*
X92132909Y-87336643D01*
X92262945Y-87515622D01*
X92419378Y-87672055D01*
X92598357Y-87802091D01*
X92649267Y-87828031D01*
X92795470Y-87902526D01*
X92795472Y-87902526D01*
X92795475Y-87902528D01*
X92881311Y-87930418D01*
X92894087Y-87934569D01*
X92951762Y-87974007D01*
X92978960Y-88038366D01*
X92967045Y-88107212D01*
X92919801Y-88158688D01*
X92894087Y-88170431D01*
X92795470Y-88202473D01*
X92598356Y-88302909D01*
X92496242Y-88377099D01*
X92419378Y-88432945D01*
X92419376Y-88432947D01*
X92419375Y-88432947D01*
X92262947Y-88589375D01*
X92262947Y-88589376D01*
X92262945Y-88589378D01*
X92168951Y-88718750D01*
X92165318Y-88723750D01*
X92109988Y-88766415D01*
X92040374Y-88772394D01*
X91978579Y-88739788D01*
X91964682Y-88723750D01*
X91961049Y-88718750D01*
X91867055Y-88589378D01*
X91710622Y-88432945D01*
X91531643Y-88302909D01*
X91521830Y-88297909D01*
X91334529Y-88202473D01*
X91124122Y-88134107D01*
X90905620Y-88099500D01*
X90905615Y-88099500D01*
X90684385Y-88099500D01*
X90684380Y-88099500D01*
X90465877Y-88134107D01*
X90255470Y-88202473D01*
X90058356Y-88302909D01*
X89956242Y-88377099D01*
X89879378Y-88432945D01*
X89879376Y-88432947D01*
X89879375Y-88432947D01*
X89722947Y-88589375D01*
X89722947Y-88589376D01*
X89722945Y-88589378D01*
X89628951Y-88718750D01*
X89625318Y-88723750D01*
X89569988Y-88766415D01*
X89500374Y-88772394D01*
X89438579Y-88739788D01*
X89424682Y-88723750D01*
X89421049Y-88718750D01*
X89327055Y-88589378D01*
X89170622Y-88432945D01*
X88991643Y-88302909D01*
X88981830Y-88297909D01*
X88794529Y-88202473D01*
X88584122Y-88134107D01*
X88365620Y-88099500D01*
X88365615Y-88099500D01*
X88144385Y-88099500D01*
X88144380Y-88099500D01*
X87925877Y-88134107D01*
X87715470Y-88202473D01*
X87518356Y-88302909D01*
X87416242Y-88377099D01*
X87339378Y-88432945D01*
X87339376Y-88432947D01*
X87339375Y-88432947D01*
X87182947Y-88589375D01*
X87182947Y-88589376D01*
X87182945Y-88589378D01*
X87088951Y-88718750D01*
X87085318Y-88723750D01*
X87029988Y-88766415D01*
X86960374Y-88772394D01*
X86898579Y-88739788D01*
X86884682Y-88723750D01*
X86881049Y-88718750D01*
X86787055Y-88589378D01*
X86630622Y-88432945D01*
X86451643Y-88302909D01*
X86441830Y-88297909D01*
X86254529Y-88202473D01*
X86044122Y-88134107D01*
X85825620Y-88099500D01*
X85825615Y-88099500D01*
X85604385Y-88099500D01*
X85604380Y-88099500D01*
X85385877Y-88134107D01*
X85175470Y-88202473D01*
X84978356Y-88302909D01*
X84876242Y-88377099D01*
X84799378Y-88432945D01*
X84799376Y-88432947D01*
X84799375Y-88432947D01*
X84642947Y-88589375D01*
X84642947Y-88589376D01*
X84642945Y-88589378D01*
X84548951Y-88718750D01*
X84545318Y-88723750D01*
X84489988Y-88766415D01*
X84420374Y-88772394D01*
X84358579Y-88739788D01*
X84344682Y-88723750D01*
X84341049Y-88718750D01*
X84247055Y-88589378D01*
X84090622Y-88432945D01*
X83911643Y-88302909D01*
X83901830Y-88297909D01*
X83714529Y-88202473D01*
X83504122Y-88134107D01*
X83285620Y-88099500D01*
X83285615Y-88099500D01*
X83064385Y-88099500D01*
X83064380Y-88099500D01*
X82845877Y-88134107D01*
X82635470Y-88202473D01*
X82438356Y-88302909D01*
X82336242Y-88377099D01*
X82259378Y-88432945D01*
X82259376Y-88432947D01*
X82259375Y-88432947D01*
X82102947Y-88589375D01*
X82102947Y-88589376D01*
X82102945Y-88589378D01*
X82047099Y-88666242D01*
X81972909Y-88768356D01*
X81872473Y-88965470D01*
X81804107Y-89175877D01*
X81769500Y-89394379D01*
X79000500Y-89394379D01*
X79000500Y-88003051D01*
X79000649Y-87996967D01*
X79005288Y-87902528D01*
X79015574Y-87693147D01*
X79016099Y-87686343D01*
X79023372Y-87617139D01*
X79024020Y-87612025D01*
X79063409Y-87346485D01*
X79064757Y-87339010D01*
X79078089Y-87276289D01*
X79079050Y-87272133D01*
X79145828Y-87005541D01*
X79148165Y-86997410D01*
X79164658Y-86946651D01*
X79165774Y-86943380D01*
X79262190Y-86673915D01*
X79265631Y-86665331D01*
X79279392Y-86634423D01*
X79280498Y-86632013D01*
X79411126Y-86355824D01*
X79416838Y-86345139D01*
X79587145Y-86060998D01*
X79593888Y-86050905D01*
X79791232Y-85784818D01*
X79798935Y-85775433D01*
X80021405Y-85529975D01*
X80029975Y-85521405D01*
X80275433Y-85298935D01*
X80284818Y-85291232D01*
X80550905Y-85093888D01*
X80560998Y-85087145D01*
X80845139Y-84916838D01*
X80855824Y-84911126D01*
X81132013Y-84780498D01*
X81134423Y-84779392D01*
X81165331Y-84765631D01*
X81173915Y-84762190D01*
X81443380Y-84665774D01*
X81446651Y-84664658D01*
X81497410Y-84648165D01*
X81505541Y-84645828D01*
X81772133Y-84579050D01*
X81776289Y-84578089D01*
X81839010Y-84564757D01*
X81846485Y-84563409D01*
X82112025Y-84524020D01*
X82117139Y-84523372D01*
X82186343Y-84516099D01*
X82193147Y-84515574D01*
X82496967Y-84500648D01*
X82503051Y-84500500D01*
X129496949Y-84500500D01*
X129503032Y-84500648D01*
G37*
G04 #@! TD.AperFunction*
M02*
