M48
; DRILL file {KiCad 7.0.8} date Sun Dec  3 17:14:48 2023
; FORMAT={-:-/ absolute / metric / decimal}
; #@! TF.CreationDate,2023-12-03T17:14:48-07:00
; #@! TF.GenerationSoftware,Kicad,Pcbnew,7.0.8
; #@! TF.FileFunction,Plated,1,4,PTH
FMAT,2
METRIC
; #@! TA.AperFunction,Plated,PTH,ViaDrill
T1C0.200
; #@! TA.AperFunction,Plated,PTH,ViaDrill
T2C0.300
; #@! TA.AperFunction,Plated,PTH,ViaDrill
T3C0.400
; #@! TA.AperFunction,Plated,PTH,ComponentDrill
T4C0.780
; #@! TA.AperFunction,Plated,PTH,ComponentDrill
T5C0.920
; #@! TA.AperFunction,Plated,PTH,ComponentDrill
T6C1.000
; #@! TA.AperFunction,Plated,PTH,ComponentDrill
T7C1.753
%
G90
G05
T1
X129.0Y-131.6
X129.9Y-132.7
X143.0Y-138.6
X144.3Y-139.5
X145.7Y-128.0
X146.4Y-127.5
X147.4Y-129.6
X148.0Y-124.6
X148.0Y-125.5
X148.0Y-129.1
X148.4Y-132.2
X149.4Y-131.9
X149.6Y-130.2
X150.15Y-125.45
X150.3Y-130.6
X150.8Y-124.8
X151.5Y-132.5
X151.6Y-129.0
X152.3Y-132.5
X152.4Y-128.8
T2
X68.5Y-99.4
X72.3Y-106.2
X74.8Y-89.3
X78.6Y-139.0
X78.6Y-140.3
X78.8Y-138.0
X78.8Y-141.6
X79.0Y-134.3
X79.1Y-143.1
X79.2Y-131.8
X79.3Y-137.0
X79.4Y-129.5
X79.9Y-127.0
X80.2Y-143.6
X80.4Y-137.1
X81.3Y-143.7
X81.4Y-131.9
X81.7Y-137.1
X81.9Y-125.4
X82.1Y-142.9
X83.4Y-137.0
X83.7Y-128.9
X83.75Y-141.5
X83.8Y-142.9
X84.1Y-135.8
X84.6Y-139.1
X84.75Y-141.0
X85.4Y-135.8
X85.75Y-141.25
X87.9Y-143.5
X88.3Y-124.7
X89.5Y-140.25
X89.6Y-139.1
X89.7Y-134.1
X89.7Y-141.3
X90.446Y-143.599
X90.7Y-139.1
X90.7Y-140.2
X90.7Y-141.3
X91.0Y-131.9
X91.9Y-135.1
X92.0Y-137.1
X92.6Y-139.8
X92.7Y-143.6
X93.7Y-132.0
X94.1Y-134.4
X94.4Y-137.4
X94.6Y-140.8
X94.8Y-143.4
X96.1Y-127.1
X97.0Y-125.1
X97.2Y-129.9
X97.7Y-139.6
X97.8Y-136.4
X99.1Y-143.8
X101.1Y-124.9
X101.9Y-132.7
X101.9Y-141.6
X102.8Y-138.0
X102.9Y-125.9
X103.3Y-130.4
X103.8Y-133.8
X105.1Y-132.7
X105.4Y-137.0
X105.5Y-130.3
X105.5Y-139.7
X105.6Y-143.3
X105.7Y-126.7
X108.4Y-113.1
X114.2Y-127.8
X115.3Y-142.6
X115.7Y-106.0
X117.6Y-106.1
X117.8Y-144.3
X118.9Y-138.1
X119.8Y-129.1
X119.9Y-108.2
X120.8Y-112.4
X121.6Y-130.4
X122.6Y-130.6
X123.9Y-91.8
X124.935Y-105.87
X125.0Y-114.9
X127.2Y-116.8
X127.48Y-110.17
X127.9Y-116.0
X128.9Y-132.7
X130.2Y-115.2
X131.7Y-134.1
X133.9Y-115.7
X134.7Y-133.3
X136.3Y-112.7
X140.1Y-128.0
X140.2Y-92.1
X140.2Y-121.5
X140.51Y-128.98
X141.1Y-114.2
X141.2Y-121.2
X141.6Y-129.4
X142.6Y-98.5
X143.3Y-137.7
X143.4Y-131.7
X144.7Y-140.4
X144.7Y-154.9
X146.4Y-144.4
X147.2Y-92.3
X148.7Y-141.7
X149.6Y-154.2
X149.7Y-89.9
X152.5Y-101.8
X153.9Y-107.2
X154.5Y-146.1
X154.6Y-141.6
X154.8Y-108.1
X155.65Y-141.1
X155.9Y-109.0
X156.9Y-143.9
X157.2Y-101.5
X157.3Y-148.1
X157.7Y-102.6
X157.8Y-103.8
X158.05Y-143.84
X158.675Y-100.635
X158.8Y-155.1
X163.875Y-96.135
X166.1Y-141.6
X166.1Y-142.8
X166.8Y-127.9
X166.8Y-128.9
X166.8Y-129.9
X167.3Y-144.0
X167.8Y-127.9
X167.8Y-128.9
X167.8Y-129.9
X168.1Y-131.6
X168.1Y-137.6
X168.5Y-107.2
X168.8Y-127.9
X168.8Y-128.9
X168.8Y-129.9
X168.8Y-144.0
X169.2Y-118.1
X169.3Y-137.6
X169.4Y-96.3
X169.4Y-131.6
X169.9Y-107.5
X170.2Y-144.0
X172.6Y-105.331
X173.1Y-107.7
X173.2Y-109.0
X173.2Y-140.2
X174.2Y-123.8
X174.3Y-116.2
X174.3Y-140.2
X174.4Y-104.5
X175.5Y-89.2
X176.4Y-127.6
X176.4Y-130.7
X177.7Y-127.6
X177.7Y-130.7
X178.2Y-100.2
X178.4Y-101.5
X178.9Y-102.6
X179.3Y-103.6
X179.3Y-127.6
X179.3Y-130.7
X180.1Y-98.1
X180.6Y-116.3
X182.4Y-116.5
X183.5Y-118.0
X183.5Y-119.0
X183.5Y-120.0
X183.5Y-121.0
X184.2Y-98.1
X184.6Y-121.1
X185.7Y-92.9
X185.8Y-99.3
X185.8Y-121.1
X186.1Y-90.4
X186.8Y-120.7
X187.1Y-119.7
X187.3Y-113.6
X188.0Y-119.7
X188.7Y-119.0
X190.4Y-104.3
X190.4Y-107.3
X191.6Y-104.3
X191.6Y-107.3
X192.0Y-116.3
X192.9Y-104.3
X192.9Y-107.3
T3
X77.8Y-109.5
X82.4Y-114.1
X109.1Y-129.0
X110.2Y-104.6
X116.7Y-130.3
X117.0Y-114.1
X124.4Y-108.7
X133.0Y-106.9
X138.6Y-136.6
X146.5Y-133.7
X158.9Y-134.7
X160.1Y-132.4
T4
X100.43Y-151.27
X102.97Y-151.27
X108.73Y-151.27
X111.27Y-151.27
X179.73Y-151.27
X182.27Y-151.27
T5
X130.26Y-142.16
X130.26Y-144.16
X132.76Y-142.16
X132.76Y-144.16
T6
X74.0Y-91.465
X76.54Y-91.465
X116.035Y-148.6
X118.575Y-148.6
X175.535Y-91.0
X178.075Y-91.0
T7
X72.0Y-75.0
X72.0Y-83.0
X74.0Y-79.0
X76.0Y-75.0
X76.0Y-83.0
X78.0Y-79.0
X80.0Y-75.0
X80.0Y-83.0
X82.0Y-79.0
X84.0Y-75.0
X84.0Y-83.0
X86.0Y-79.0
X88.0Y-75.0
X88.0Y-83.0
X90.0Y-79.0
X92.0Y-75.0
X92.0Y-83.0
X94.0Y-79.0
X96.0Y-75.0
X96.0Y-83.0
X98.0Y-79.0
X100.0Y-75.0
X100.0Y-83.0
X150.0Y-75.0
X150.0Y-83.0
X152.0Y-79.0
X154.0Y-75.0
X154.0Y-83.0
X156.0Y-79.0
X158.0Y-75.0
X158.0Y-83.0
X160.0Y-79.0
X162.0Y-75.0
X162.0Y-83.0
X164.0Y-79.0
X166.0Y-75.0
X166.0Y-83.0
X168.0Y-79.0
X170.0Y-75.0
X170.0Y-83.0
X172.0Y-79.0
X174.0Y-75.0
X174.0Y-83.0
X176.0Y-79.0
X178.0Y-75.0
X178.0Y-83.0
T0
M30
