G04 #@! TF.GenerationSoftware,KiCad,Pcbnew,7.0.8*
G04 #@! TF.CreationDate,2023-12-03T17:14:39-07:00*
G04 #@! TF.ProjectId,sdm24logger,73646d32-346c-46f6-9767-65722e6b6963,v3*
G04 #@! TF.SameCoordinates,Original*
G04 #@! TF.FileFunction,Soldermask,Bot*
G04 #@! TF.FilePolarity,Negative*
%FSLAX46Y46*%
G04 Gerber Fmt 4.6, Leading zero omitted, Abs format (unit mm)*
G04 Created by KiCad (PCBNEW 7.0.8) date 2023-12-03 17:14:39*
%MOMM*%
%LPD*%
G01*
G04 APERTURE LIST*
%ADD10R,1.700000X1.700000*%
%ADD11O,1.700000X1.700000*%
%ADD12C,2.844800*%
%ADD13C,2.600000*%
%ADD14C,3.200000*%
%ADD15C,0.990600*%
%ADD16C,1.524000*%
%ADD17C,2.300000*%
%ADD18C,1.600000*%
G04 APERTURE END LIST*
D10*
X76540000Y-91465000D03*
D11*
X74000000Y-91465000D03*
D12*
X65500005Y-78500115D03*
X106499999Y-78500115D03*
D13*
X99999999Y-83000000D03*
X96000000Y-83000000D03*
X92000000Y-83000000D03*
X88000000Y-83000000D03*
X84000001Y-83000000D03*
X80000001Y-83000000D03*
X76000002Y-83000000D03*
X72000002Y-83000000D03*
X98000001Y-79000000D03*
X94000001Y-79000000D03*
X90000001Y-79000000D03*
X86000002Y-79000000D03*
X82000002Y-79000000D03*
X78000003Y-79000000D03*
X74000003Y-79000000D03*
X99999999Y-75000000D03*
X96000000Y-75000000D03*
X92000000Y-75000000D03*
X88000000Y-75000000D03*
X84000001Y-75000000D03*
X80000001Y-75000000D03*
X76000002Y-75000000D03*
X72000002Y-75000000D03*
D12*
X143500005Y-78500115D03*
X184499999Y-78500115D03*
D13*
X177999999Y-83000000D03*
X174000000Y-83000000D03*
X170000000Y-83000000D03*
X166000000Y-83000000D03*
X162000001Y-83000000D03*
X158000001Y-83000000D03*
X154000002Y-83000000D03*
X150000002Y-83000000D03*
X176000001Y-79000000D03*
X172000001Y-79000000D03*
X168000001Y-79000000D03*
X164000002Y-79000000D03*
X160000002Y-79000000D03*
X156000003Y-79000000D03*
X152000003Y-79000000D03*
X177999999Y-75000000D03*
X174000000Y-75000000D03*
X170000000Y-75000000D03*
X166000000Y-75000000D03*
X162000001Y-75000000D03*
X158000001Y-75000000D03*
X154000002Y-75000000D03*
X150000002Y-75000000D03*
D14*
X194000000Y-74000000D03*
D10*
X178075000Y-91000000D03*
D11*
X175535000Y-91000000D03*
D10*
X118575000Y-148600000D03*
D11*
X116035000Y-148600000D03*
D14*
X56000000Y-74000000D03*
X56000000Y-153000000D03*
D15*
X141616000Y-135480000D03*
X140600000Y-130400000D03*
X142632000Y-130400000D03*
D16*
X111270000Y-151270000D03*
X108730000Y-151270000D03*
X102970000Y-151270000D03*
X100430000Y-151270000D03*
D17*
X125490000Y-146870000D03*
X137530000Y-146870000D03*
D18*
X132760000Y-142160000D03*
X130260000Y-142160000D03*
X130260000Y-144160000D03*
X132760000Y-144160000D03*
D14*
X194000000Y-153000000D03*
D16*
X182270000Y-151270000D03*
X179730000Y-151270000D03*
M02*
