G04 #@! TF.GenerationSoftware,KiCad,Pcbnew,8.0.2*
G04 #@! TF.CreationDate,2025-02-01T20:33:11-07:00*
G04 #@! TF.ProjectId,Telemetry_STM32_V3,54656c65-6d65-4747-9279-5f53544d3332,rev?*
G04 #@! TF.SameCoordinates,Original*
G04 #@! TF.FileFunction,Paste,Top*
G04 #@! TF.FilePolarity,Positive*
%FSLAX46Y46*%
G04 Gerber Fmt 4.6, Leading zero omitted, Abs format (unit mm)*
G04 Created by KiCad (PCBNEW 8.0.2) date 2025-02-01 20:33:11*
%MOMM*%
%LPD*%
G01*
G04 APERTURE LIST*
G04 Aperture macros list*
%AMRoundRect*
0 Rectangle with rounded corners*
0 $1 Rounding radius*
0 $2 $3 $4 $5 $6 $7 $8 $9 X,Y pos of 4 corners*
0 Add a 4 corners polygon primitive as box body*
4,1,4,$2,$3,$4,$5,$6,$7,$8,$9,$2,$3,0*
0 Add four circle primitives for the rounded corners*
1,1,$1+$1,$2,$3*
1,1,$1+$1,$4,$5*
1,1,$1+$1,$6,$7*
1,1,$1+$1,$8,$9*
0 Add four rect primitives between the rounded corners*
20,1,$1+$1,$2,$3,$4,$5,0*
20,1,$1+$1,$4,$5,$6,$7,0*
20,1,$1+$1,$6,$7,$8,$9,0*
20,1,$1+$1,$8,$9,$2,$3,0*%
G04 Aperture macros list end*
%ADD10RoundRect,0.250000X0.262500X0.450000X-0.262500X0.450000X-0.262500X-0.450000X0.262500X-0.450000X0*%
%ADD11RoundRect,0.250000X-0.250000X-0.475000X0.250000X-0.475000X0.250000X0.475000X-0.250000X0.475000X0*%
%ADD12RoundRect,0.112500X-0.362500X-0.112500X0.362500X-0.112500X0.362500X0.112500X-0.362500X0.112500X0*%
%ADD13RoundRect,0.140000X0.140000X0.170000X-0.140000X0.170000X-0.140000X-0.170000X0.140000X-0.170000X0*%
%ADD14R,1.500000X2.000000*%
%ADD15R,3.800000X2.000000*%
%ADD16RoundRect,0.250000X-0.450000X0.262500X-0.450000X-0.262500X0.450000X-0.262500X0.450000X0.262500X0*%
%ADD17RoundRect,0.075000X-0.075000X0.700000X-0.075000X-0.700000X0.075000X-0.700000X0.075000X0.700000X0*%
%ADD18RoundRect,0.075000X-0.700000X0.075000X-0.700000X-0.075000X0.700000X-0.075000X0.700000X0.075000X0*%
%ADD19RoundRect,0.245000X0.380000X-0.245000X0.380000X0.245000X-0.380000X0.245000X-0.380000X-0.245000X0*%
%ADD20RoundRect,0.200000X-0.275000X0.200000X-0.275000X-0.200000X0.275000X-0.200000X0.275000X0.200000X0*%
%ADD21RoundRect,0.150000X0.150000X-0.512500X0.150000X0.512500X-0.150000X0.512500X-0.150000X-0.512500X0*%
%ADD22RoundRect,0.140000X-0.170000X0.140000X-0.170000X-0.140000X0.170000X-0.140000X0.170000X0.140000X0*%
%ADD23RoundRect,0.140000X-0.140000X-0.170000X0.140000X-0.170000X0.140000X0.170000X-0.140000X0.170000X0*%
%ADD24RoundRect,0.139700X-0.571500X0.139700X-0.571500X-0.139700X0.571500X-0.139700X0.571500X0.139700X0*%
%ADD25R,0.400000X1.350000*%
%ADD26R,1.500000X1.900000*%
%ADD27RoundRect,0.245000X-0.380000X0.245000X-0.380000X-0.245000X0.380000X-0.245000X0.380000X0.245000X0*%
%ADD28RoundRect,0.200000X0.200000X0.275000X-0.200000X0.275000X-0.200000X-0.275000X0.200000X-0.275000X0*%
%ADD29R,1.000000X1.150000*%
%ADD30RoundRect,0.150000X-0.150000X0.825000X-0.150000X-0.825000X0.150000X-0.825000X0.150000X0.825000X0*%
%ADD31RoundRect,0.243750X0.243750X0.456250X-0.243750X0.456250X-0.243750X-0.456250X0.243750X-0.456250X0*%
%ADD32RoundRect,0.225000X0.250000X-0.225000X0.250000X0.225000X-0.250000X0.225000X-0.250000X-0.225000X0*%
%ADD33RoundRect,0.218750X-0.218750X-0.256250X0.218750X-0.256250X0.218750X0.256250X-0.218750X0.256250X0*%
%ADD34RoundRect,0.225000X0.225000X0.250000X-0.225000X0.250000X-0.225000X-0.250000X0.225000X-0.250000X0*%
%ADD35RoundRect,0.225000X-0.250000X0.225000X-0.250000X-0.225000X0.250000X-0.225000X0.250000X0.225000X0*%
%ADD36RoundRect,0.250000X0.475000X-0.250000X0.475000X0.250000X-0.475000X0.250000X-0.475000X-0.250000X0*%
G04 APERTURE END LIST*
D10*
X161312500Y-101725000D03*
X159487500Y-101725000D03*
D11*
X156050000Y-132000000D03*
X157950000Y-132000000D03*
D12*
X139650000Y-102100000D03*
X139650000Y-102750000D03*
X139650000Y-103400000D03*
X141850000Y-103400000D03*
X141850000Y-102100000D03*
D13*
X155500000Y-91000000D03*
X154540000Y-91000000D03*
D14*
X155700000Y-129150000D03*
X158000000Y-129150000D03*
D15*
X158000000Y-122850000D03*
D14*
X160300000Y-129150000D03*
D16*
X149875000Y-123862500D03*
X149875000Y-125687500D03*
D17*
X153750000Y-94325000D03*
X153250000Y-94325000D03*
X152750000Y-94325000D03*
X152250000Y-94325000D03*
X151750000Y-94325000D03*
X151250000Y-94325000D03*
X150750000Y-94325000D03*
X150250000Y-94325000D03*
X149750000Y-94325000D03*
X149250000Y-94325000D03*
X148750000Y-94325000D03*
X148250000Y-94325000D03*
X147750000Y-94325000D03*
X147250000Y-94325000D03*
X146750000Y-94325000D03*
X146250000Y-94325000D03*
D18*
X144325000Y-96250000D03*
X144325000Y-96750000D03*
X144325000Y-97250000D03*
X144325000Y-97750000D03*
X144325000Y-98250000D03*
X144325000Y-98750000D03*
X144325000Y-99250000D03*
X144325000Y-99750000D03*
X144325000Y-100250000D03*
X144325000Y-100750000D03*
X144325000Y-101250000D03*
X144325000Y-101750000D03*
X144325000Y-102250000D03*
X144325000Y-102750000D03*
X144325000Y-103250000D03*
X144325000Y-103750000D03*
D17*
X146250000Y-105675000D03*
X146750000Y-105675000D03*
X147250000Y-105675000D03*
X147750000Y-105675000D03*
X148250000Y-105675000D03*
X148750000Y-105675000D03*
X149250000Y-105675000D03*
X149750000Y-105675000D03*
X150250000Y-105675000D03*
X150750000Y-105675000D03*
X151250000Y-105675000D03*
X151750000Y-105675000D03*
X152250000Y-105675000D03*
X152750000Y-105675000D03*
X153250000Y-105675000D03*
X153750000Y-105675000D03*
D18*
X155675000Y-103750000D03*
X155675000Y-103250000D03*
X155675000Y-102750000D03*
X155675000Y-102250000D03*
X155675000Y-101750000D03*
X155675000Y-101250000D03*
X155675000Y-100750000D03*
X155675000Y-100250000D03*
X155675000Y-99750000D03*
X155675000Y-99250000D03*
X155675000Y-98750000D03*
X155675000Y-98250000D03*
X155675000Y-97750000D03*
X155675000Y-97250000D03*
X155675000Y-96750000D03*
X155675000Y-96250000D03*
D19*
X142475000Y-125885000D03*
X142475000Y-122665000D03*
D20*
X140200000Y-110925000D03*
X140200000Y-112575000D03*
D21*
X151050000Y-131000000D03*
X152000000Y-131000000D03*
X152950000Y-131000000D03*
X152950000Y-128725000D03*
X152000000Y-128725000D03*
X151050000Y-128725000D03*
D22*
X139250000Y-97520000D03*
X139250000Y-98480000D03*
X137500000Y-97520000D03*
X137500000Y-98480000D03*
X152500000Y-88020000D03*
X152500000Y-88980000D03*
D13*
X146480000Y-91750000D03*
X145520000Y-91750000D03*
D23*
X143020000Y-106250000D03*
X143980000Y-106250000D03*
X155520000Y-94000000D03*
X156480000Y-94000000D03*
D13*
X148330000Y-114237500D03*
X147370000Y-114237500D03*
X148330000Y-113087500D03*
X147370000Y-113087500D03*
D10*
X161412500Y-104000000D03*
X159587500Y-104000000D03*
D24*
X154310200Y-113049999D03*
X154310200Y-114950001D03*
X156189800Y-114000000D03*
D13*
X155055000Y-107500000D03*
X154095000Y-107500000D03*
D23*
X155540000Y-92750000D03*
X156500000Y-92750000D03*
D25*
X148700000Y-134050000D03*
X149350000Y-134050000D03*
X150000000Y-134050000D03*
X150650000Y-134050000D03*
X151300000Y-134050000D03*
D26*
X149000000Y-136750000D03*
X151000000Y-136750000D03*
D27*
X142475000Y-117165000D03*
X142475000Y-120385000D03*
D28*
X137825000Y-103500000D03*
X136175000Y-103500000D03*
D29*
X155700000Y-89375000D03*
X155700000Y-87625000D03*
X154300000Y-87625000D03*
X154300000Y-89375000D03*
D30*
X149880000Y-116300000D03*
X148610000Y-116300000D03*
X147340000Y-116300000D03*
X146070000Y-116300000D03*
X146070000Y-121250000D03*
X147340000Y-121250000D03*
X148610000Y-121250000D03*
X149880000Y-121250000D03*
D28*
X137825000Y-102000000D03*
X136175000Y-102000000D03*
D31*
X165187500Y-104000000D03*
X163312500Y-104000000D03*
D32*
X149750000Y-89025000D03*
X149750000Y-87475000D03*
D33*
X145462500Y-87500000D03*
X147037500Y-87500000D03*
D34*
X144775000Y-108000000D03*
X143225000Y-108000000D03*
D22*
X150750000Y-91520000D03*
X150750000Y-92480000D03*
D35*
X159000000Y-116975000D03*
X159000000Y-118525000D03*
D36*
X163000000Y-126950000D03*
X163000000Y-125050000D03*
D35*
X157000000Y-116975000D03*
X157000000Y-118525000D03*
D34*
X147025000Y-89750000D03*
X145475000Y-89750000D03*
X154775000Y-109000000D03*
X153225000Y-109000000D03*
M02*
