G04 #@! TF.GenerationSoftware,KiCad,Pcbnew,8.0.2*
G04 #@! TF.CreationDate,2025-02-01T20:33:12-07:00*
G04 #@! TF.ProjectId,Telemetry_STM32_V3,54656c65-6d65-4747-9279-5f53544d3332,rev?*
G04 #@! TF.SameCoordinates,Original*
G04 #@! TF.FileFunction,Soldermask,Top*
G04 #@! TF.FilePolarity,Negative*
%FSLAX46Y46*%
G04 Gerber Fmt 4.6, Leading zero omitted, Abs format (unit mm)*
G04 Created by KiCad (PCBNEW 8.0.2) date 2025-02-01 20:33:12*
%MOMM*%
%LPD*%
G01*
G04 APERTURE LIST*
G04 Aperture macros list*
%AMRoundRect*
0 Rectangle with rounded corners*
0 $1 Rounding radius*
0 $2 $3 $4 $5 $6 $7 $8 $9 X,Y pos of 4 corners*
0 Add a 4 corners polygon primitive as box body*
4,1,4,$2,$3,$4,$5,$6,$7,$8,$9,$2,$3,0*
0 Add four circle primitives for the rounded corners*
1,1,$1+$1,$2,$3*
1,1,$1+$1,$4,$5*
1,1,$1+$1,$6,$7*
1,1,$1+$1,$8,$9*
0 Add four rect primitives between the rounded corners*
20,1,$1+$1,$2,$3,$4,$5,0*
20,1,$1+$1,$4,$5,$6,$7,0*
20,1,$1+$1,$6,$7,$8,$9,0*
20,1,$1+$1,$8,$9,$2,$3,0*%
G04 Aperture macros list end*
%ADD10RoundRect,0.250000X0.262500X0.450000X-0.262500X0.450000X-0.262500X-0.450000X0.262500X-0.450000X0*%
%ADD11RoundRect,0.250000X-0.250000X-0.475000X0.250000X-0.475000X0.250000X0.475000X-0.250000X0.475000X0*%
%ADD12RoundRect,0.250000X0.750000X-0.600000X0.750000X0.600000X-0.750000X0.600000X-0.750000X-0.600000X0*%
%ADD13O,2.000000X1.700000*%
%ADD14RoundRect,0.112500X-0.362500X-0.112500X0.362500X-0.112500X0.362500X0.112500X-0.362500X0.112500X0*%
%ADD15RoundRect,0.140000X0.140000X0.170000X-0.140000X0.170000X-0.140000X-0.170000X0.140000X-0.170000X0*%
%ADD16C,1.810000*%
%ADD17R,1.500000X2.000000*%
%ADD18R,3.800000X2.000000*%
%ADD19C,3.200000*%
%ADD20RoundRect,0.250000X-0.450000X0.262500X-0.450000X-0.262500X0.450000X-0.262500X0.450000X0.262500X0*%
%ADD21R,1.700000X1.700000*%
%ADD22O,1.700000X1.700000*%
%ADD23RoundRect,0.075000X-0.075000X0.700000X-0.075000X-0.700000X0.075000X-0.700000X0.075000X0.700000X0*%
%ADD24RoundRect,0.075000X-0.700000X0.075000X-0.700000X-0.075000X0.700000X-0.075000X0.700000X0.075000X0*%
%ADD25RoundRect,0.245000X0.380000X-0.245000X0.380000X0.245000X-0.380000X0.245000X-0.380000X-0.245000X0*%
%ADD26RoundRect,0.200000X-0.275000X0.200000X-0.275000X-0.200000X0.275000X-0.200000X0.275000X0.200000X0*%
%ADD27RoundRect,0.150000X0.150000X-0.512500X0.150000X0.512500X-0.150000X0.512500X-0.150000X-0.512500X0*%
%ADD28RoundRect,0.140000X-0.170000X0.140000X-0.170000X-0.140000X0.170000X-0.140000X0.170000X0.140000X0*%
%ADD29RoundRect,0.140000X-0.140000X-0.170000X0.140000X-0.170000X0.140000X0.170000X-0.140000X0.170000X0*%
%ADD30RoundRect,0.139700X-0.571500X0.139700X-0.571500X-0.139700X0.571500X-0.139700X0.571500X0.139700X0*%
%ADD31R,0.400000X1.350000*%
%ADD32O,1.200000X1.900000*%
%ADD33R,1.200000X1.900000*%
%ADD34C,1.450000*%
%ADD35R,1.500000X1.900000*%
%ADD36RoundRect,0.245000X-0.380000X0.245000X-0.380000X-0.245000X0.380000X-0.245000X0.380000X0.245000X0*%
%ADD37RoundRect,0.200000X0.200000X0.275000X-0.200000X0.275000X-0.200000X-0.275000X0.200000X-0.275000X0*%
%ADD38R,1.000000X1.150000*%
%ADD39RoundRect,0.250000X-0.750000X0.600000X-0.750000X-0.600000X0.750000X-0.600000X0.750000X0.600000X0*%
%ADD40C,0.990600*%
%ADD41C,0.787400*%
%ADD42RoundRect,0.150000X-0.150000X0.825000X-0.150000X-0.825000X0.150000X-0.825000X0.150000X0.825000X0*%
%ADD43RoundRect,0.243750X0.243750X0.456250X-0.243750X0.456250X-0.243750X-0.456250X0.243750X-0.456250X0*%
%ADD44RoundRect,0.225000X0.250000X-0.225000X0.250000X0.225000X-0.250000X0.225000X-0.250000X-0.225000X0*%
%ADD45RoundRect,0.218750X-0.218750X-0.256250X0.218750X-0.256250X0.218750X0.256250X-0.218750X0.256250X0*%
%ADD46RoundRect,0.225000X0.225000X0.250000X-0.225000X0.250000X-0.225000X-0.250000X0.225000X-0.250000X0*%
%ADD47RoundRect,0.225000X-0.250000X0.225000X-0.250000X-0.225000X0.250000X-0.225000X0.250000X0.225000X0*%
%ADD48RoundRect,0.250000X0.725000X-0.600000X0.725000X0.600000X-0.725000X0.600000X-0.725000X-0.600000X0*%
%ADD49O,1.950000X1.700000*%
%ADD50RoundRect,0.250000X0.475000X-0.250000X0.475000X0.250000X-0.475000X0.250000X-0.475000X-0.250000X0*%
G04 APERTURE END LIST*
D10*
X161312500Y-101725000D03*
X159487500Y-101725000D03*
D11*
X156050000Y-132000000D03*
X157950000Y-132000000D03*
D12*
X161950000Y-116500000D03*
D13*
X161950000Y-114000000D03*
D14*
X139650000Y-102100000D03*
X139650000Y-102750000D03*
X139650000Y-103400000D03*
X141850000Y-103400000D03*
X141850000Y-102100000D03*
D15*
X155500000Y-91000000D03*
X154540000Y-91000000D03*
D16*
X131000000Y-108960000D03*
X131000000Y-106420000D03*
X131000000Y-103880000D03*
X131000000Y-101340000D03*
X131000000Y-98800000D03*
X131000000Y-96260000D03*
X131000000Y-93720000D03*
X131000000Y-91180000D03*
X131000000Y-88640000D03*
X105600000Y-108960000D03*
X105600000Y-106420000D03*
X105600000Y-103880000D03*
X105600000Y-101340000D03*
X105600000Y-98800000D03*
D17*
X155700000Y-129150000D03*
X158000000Y-129150000D03*
D18*
X158000000Y-122850000D03*
D17*
X160300000Y-129150000D03*
D19*
X162750000Y-134000000D03*
D20*
X149875000Y-123862500D03*
X149875000Y-125687500D03*
D21*
X143000000Y-111725000D03*
D22*
X143000000Y-114265000D03*
D23*
X153750000Y-94325000D03*
X153250000Y-94325000D03*
X152750000Y-94325000D03*
X152250000Y-94325000D03*
X151750000Y-94325000D03*
X151250000Y-94325000D03*
X150750000Y-94325000D03*
X150250000Y-94325000D03*
X149750000Y-94325000D03*
X149250000Y-94325000D03*
X148750000Y-94325000D03*
X148250000Y-94325000D03*
X147750000Y-94325000D03*
X147250000Y-94325000D03*
X146750000Y-94325000D03*
X146250000Y-94325000D03*
D24*
X144325000Y-96250000D03*
X144325000Y-96750000D03*
X144325000Y-97250000D03*
X144325000Y-97750000D03*
X144325000Y-98250000D03*
X144325000Y-98750000D03*
X144325000Y-99250000D03*
X144325000Y-99750000D03*
X144325000Y-100250000D03*
X144325000Y-100750000D03*
X144325000Y-101250000D03*
X144325000Y-101750000D03*
X144325000Y-102250000D03*
X144325000Y-102750000D03*
X144325000Y-103250000D03*
X144325000Y-103750000D03*
D23*
X146250000Y-105675000D03*
X146750000Y-105675000D03*
X147250000Y-105675000D03*
X147750000Y-105675000D03*
X148250000Y-105675000D03*
X148750000Y-105675000D03*
X149250000Y-105675000D03*
X149750000Y-105675000D03*
X150250000Y-105675000D03*
X150750000Y-105675000D03*
X151250000Y-105675000D03*
X151750000Y-105675000D03*
X152250000Y-105675000D03*
X152750000Y-105675000D03*
X153250000Y-105675000D03*
X153750000Y-105675000D03*
D24*
X155675000Y-103750000D03*
X155675000Y-103250000D03*
X155675000Y-102750000D03*
X155675000Y-102250000D03*
X155675000Y-101750000D03*
X155675000Y-101250000D03*
X155675000Y-100750000D03*
X155675000Y-100250000D03*
X155675000Y-99750000D03*
X155675000Y-99250000D03*
X155675000Y-98750000D03*
X155675000Y-98250000D03*
X155675000Y-97750000D03*
X155675000Y-97250000D03*
X155675000Y-96750000D03*
X155675000Y-96250000D03*
D25*
X142475000Y-125885000D03*
X142475000Y-122665000D03*
D26*
X140200000Y-110925000D03*
X140200000Y-112575000D03*
D27*
X151050000Y-131000000D03*
X152000000Y-131000000D03*
X152950000Y-131000000D03*
X152950000Y-128725000D03*
X152000000Y-128725000D03*
X151050000Y-128725000D03*
D28*
X139250000Y-97520000D03*
X139250000Y-98480000D03*
X137500000Y-97520000D03*
X137500000Y-98480000D03*
X152500000Y-88020000D03*
X152500000Y-88980000D03*
D15*
X146480000Y-91750000D03*
X145520000Y-91750000D03*
D29*
X143020000Y-106250000D03*
X143980000Y-106250000D03*
X155520000Y-94000000D03*
X156480000Y-94000000D03*
D16*
X169000000Y-115000000D03*
X169000000Y-117540000D03*
X169000000Y-120080000D03*
X169000000Y-122620000D03*
X169000000Y-125160000D03*
X169000000Y-127700000D03*
X169000000Y-130240000D03*
X169000000Y-132780000D03*
X169000000Y-135320000D03*
X194400000Y-115000000D03*
X194400000Y-117540000D03*
X194400000Y-120080000D03*
X194400000Y-122620000D03*
X194400000Y-125160000D03*
D19*
X115000000Y-134000000D03*
D15*
X148330000Y-114237500D03*
X147370000Y-114237500D03*
X148330000Y-113087500D03*
X147370000Y-113087500D03*
D10*
X161412500Y-104000000D03*
X159587500Y-104000000D03*
D30*
X154310200Y-113049999D03*
X154310200Y-114950001D03*
X156189800Y-114000000D03*
D15*
X155055000Y-107500000D03*
X154095000Y-107500000D03*
D16*
X169000000Y-88460000D03*
X169000000Y-91000000D03*
X169000000Y-93540000D03*
X169000000Y-96080000D03*
X169000000Y-98620000D03*
X169000000Y-101160000D03*
X169000000Y-103700000D03*
X169000000Y-106240000D03*
X169000000Y-108780000D03*
X194400000Y-88460000D03*
X194400000Y-91000000D03*
X194400000Y-93540000D03*
X194400000Y-96080000D03*
X194400000Y-98620000D03*
D19*
X185000000Y-134000000D03*
D29*
X155540000Y-92750000D03*
X156500000Y-92750000D03*
D31*
X148700000Y-134050000D03*
X149350000Y-134050000D03*
X150000000Y-134050000D03*
X150650000Y-134050000D03*
X151300000Y-134050000D03*
D32*
X146500000Y-136750000D03*
D33*
X147100000Y-136750000D03*
D34*
X147500000Y-134050000D03*
D35*
X149000000Y-136750000D03*
X151000000Y-136750000D03*
D34*
X152500000Y-134050000D03*
D33*
X152900000Y-136750000D03*
D32*
X153500000Y-136750000D03*
D36*
X142475000Y-117165000D03*
X142475000Y-120385000D03*
D37*
X137825000Y-103500000D03*
X136175000Y-103500000D03*
D38*
X155700000Y-89375000D03*
X155700000Y-87625000D03*
X154300000Y-87625000D03*
X154300000Y-89375000D03*
D39*
X137050000Y-111750000D03*
D13*
X137050000Y-114250000D03*
D19*
X115000000Y-89750000D03*
D40*
X157190000Y-107135000D03*
X162270000Y-106119000D03*
X162270000Y-108151000D03*
D41*
X158460000Y-107770000D03*
X158460000Y-106500000D03*
X159730000Y-107770000D03*
X159730000Y-106500000D03*
X161000000Y-107770000D03*
X161000000Y-106500000D03*
D42*
X149880000Y-116300000D03*
X148610000Y-116300000D03*
X147340000Y-116300000D03*
X146070000Y-116300000D03*
X146070000Y-121250000D03*
X147340000Y-121250000D03*
X148610000Y-121250000D03*
X149880000Y-121250000D03*
D37*
X137825000Y-102000000D03*
X136175000Y-102000000D03*
D43*
X165187500Y-104000000D03*
X163312500Y-104000000D03*
D44*
X149750000Y-89025000D03*
X149750000Y-87475000D03*
D45*
X145462500Y-87500000D03*
X147037500Y-87500000D03*
D19*
X137250000Y-134000000D03*
D46*
X144775000Y-108000000D03*
X143225000Y-108000000D03*
D28*
X150750000Y-91520000D03*
X150750000Y-92480000D03*
D47*
X159000000Y-116975000D03*
X159000000Y-118525000D03*
D19*
X185000000Y-89750000D03*
D21*
X162025000Y-98750000D03*
D22*
X159485000Y-98750000D03*
D19*
X137250000Y-89750000D03*
D48*
X137000000Y-127787500D03*
D49*
X137000000Y-125287500D03*
X137000000Y-122787500D03*
X137000000Y-120287500D03*
D50*
X163000000Y-126950000D03*
X163000000Y-125050000D03*
D19*
X162750000Y-89750000D03*
D47*
X157000000Y-116975000D03*
X157000000Y-118525000D03*
D46*
X147025000Y-89750000D03*
X145475000Y-89750000D03*
X154775000Y-109000000D03*
X153225000Y-109000000D03*
D16*
X131000000Y-135320000D03*
X131000000Y-132780000D03*
X131000000Y-130240000D03*
X131000000Y-127700000D03*
X131000000Y-125160000D03*
X131000000Y-122620000D03*
X131000000Y-120080000D03*
X131000000Y-117540000D03*
X131000000Y-115000000D03*
X105600000Y-135320000D03*
X105600000Y-132780000D03*
X105600000Y-130240000D03*
X105600000Y-127700000D03*
X105600000Y-125160000D03*
M02*
