G04 #@! TF.GenerationSoftware,KiCad,Pcbnew,8.0.2*
G04 #@! TF.CreationDate,2025-01-25T00:48:09-07:00*
G04 #@! TF.ProjectId,Telemetry_STM32_V3,54656c65-6d65-4747-9279-5f53544d3332,rev?*
G04 #@! TF.SameCoordinates,Original*
G04 #@! TF.FileFunction,Legend,Bot*
G04 #@! TF.FilePolarity,Positive*
%FSLAX46Y46*%
G04 Gerber Fmt 4.6, Leading zero omitted, Abs format (unit mm)*
G04 Created by KiCad (PCBNEW 8.0.2) date 2025-01-25 00:48:09*
%MOMM*%
%LPD*%
G01*
G04 APERTURE LIST*
G04 Aperture macros list*
%AMRoundRect*
0 Rectangle with rounded corners*
0 $1 Rounding radius*
0 $2 $3 $4 $5 $6 $7 $8 $9 X,Y pos of 4 corners*
0 Add a 4 corners polygon primitive as box body*
4,1,4,$2,$3,$4,$5,$6,$7,$8,$9,$2,$3,0*
0 Add four circle primitives for the rounded corners*
1,1,$1+$1,$2,$3*
1,1,$1+$1,$4,$5*
1,1,$1+$1,$6,$7*
1,1,$1+$1,$8,$9*
0 Add four rect primitives between the rounded corners*
20,1,$1+$1,$2,$3,$4,$5,0*
20,1,$1+$1,$4,$5,$6,$7,0*
20,1,$1+$1,$6,$7,$8,$9,0*
20,1,$1+$1,$8,$9,$2,$3,0*%
G04 Aperture macros list end*
%ADD10C,0.200000*%
%ADD11C,0.400000*%
%ADD12C,0.000000*%
%ADD13RoundRect,0.250000X0.750000X-0.600000X0.750000X0.600000X-0.750000X0.600000X-0.750000X-0.600000X0*%
%ADD14O,2.000000X1.700000*%
%ADD15C,1.810000*%
%ADD16C,3.200000*%
%ADD17R,1.700000X1.700000*%
%ADD18O,1.700000X1.700000*%
%ADD19O,1.200000X1.900000*%
%ADD20C,1.450000*%
%ADD21RoundRect,0.250000X-0.750000X0.600000X-0.750000X-0.600000X0.750000X-0.600000X0.750000X0.600000X0*%
%ADD22C,0.990600*%
%ADD23RoundRect,0.250000X0.725000X-0.600000X0.725000X0.600000X-0.725000X0.600000X-0.725000X-0.600000X0*%
%ADD24O,1.950000X1.700000*%
G04 APERTURE END LIST*
D10*
X192177945Y-114319600D02*
X192035088Y-114367219D01*
X192035088Y-114367219D02*
X191796993Y-114367219D01*
X191796993Y-114367219D02*
X191701755Y-114319600D01*
X191701755Y-114319600D02*
X191654136Y-114271980D01*
X191654136Y-114271980D02*
X191606517Y-114176742D01*
X191606517Y-114176742D02*
X191606517Y-114081504D01*
X191606517Y-114081504D02*
X191654136Y-113986266D01*
X191654136Y-113986266D02*
X191701755Y-113938647D01*
X191701755Y-113938647D02*
X191796993Y-113891028D01*
X191796993Y-113891028D02*
X191987469Y-113843409D01*
X191987469Y-113843409D02*
X192082707Y-113795790D01*
X192082707Y-113795790D02*
X192130326Y-113748171D01*
X192130326Y-113748171D02*
X192177945Y-113652933D01*
X192177945Y-113652933D02*
X192177945Y-113557695D01*
X192177945Y-113557695D02*
X192130326Y-113462457D01*
X192130326Y-113462457D02*
X192082707Y-113414838D01*
X192082707Y-113414838D02*
X191987469Y-113367219D01*
X191987469Y-113367219D02*
X191749374Y-113367219D01*
X191749374Y-113367219D02*
X191606517Y-113414838D01*
X191177945Y-114367219D02*
X191177945Y-113367219D01*
X191177945Y-113367219D02*
X190939850Y-113367219D01*
X190939850Y-113367219D02*
X190796993Y-113414838D01*
X190796993Y-113414838D02*
X190701755Y-113510076D01*
X190701755Y-113510076D02*
X190654136Y-113605314D01*
X190654136Y-113605314D02*
X190606517Y-113795790D01*
X190606517Y-113795790D02*
X190606517Y-113938647D01*
X190606517Y-113938647D02*
X190654136Y-114129123D01*
X190654136Y-114129123D02*
X190701755Y-114224361D01*
X190701755Y-114224361D02*
X190796993Y-114319600D01*
X190796993Y-114319600D02*
X190939850Y-114367219D01*
X190939850Y-114367219D02*
X191177945Y-114367219D01*
X190177945Y-114367219D02*
X190177945Y-113367219D01*
X190177945Y-113367219D02*
X189844612Y-114081504D01*
X189844612Y-114081504D02*
X189511279Y-113367219D01*
X189511279Y-113367219D02*
X189511279Y-114367219D01*
X189035088Y-113986266D02*
X188273184Y-113986266D01*
X187844612Y-113462457D02*
X187796993Y-113414838D01*
X187796993Y-113414838D02*
X187701755Y-113367219D01*
X187701755Y-113367219D02*
X187463660Y-113367219D01*
X187463660Y-113367219D02*
X187368422Y-113414838D01*
X187368422Y-113414838D02*
X187320803Y-113462457D01*
X187320803Y-113462457D02*
X187273184Y-113557695D01*
X187273184Y-113557695D02*
X187273184Y-113652933D01*
X187273184Y-113652933D02*
X187320803Y-113795790D01*
X187320803Y-113795790D02*
X187892231Y-114367219D01*
X187892231Y-114367219D02*
X187273184Y-114367219D01*
X186368422Y-113367219D02*
X186844612Y-113367219D01*
X186844612Y-113367219D02*
X186892231Y-113843409D01*
X186892231Y-113843409D02*
X186844612Y-113795790D01*
X186844612Y-113795790D02*
X186749374Y-113748171D01*
X186749374Y-113748171D02*
X186511279Y-113748171D01*
X186511279Y-113748171D02*
X186416041Y-113795790D01*
X186416041Y-113795790D02*
X186368422Y-113843409D01*
X186368422Y-113843409D02*
X186320803Y-113938647D01*
X186320803Y-113938647D02*
X186320803Y-114176742D01*
X186320803Y-114176742D02*
X186368422Y-114271980D01*
X186368422Y-114271980D02*
X186416041Y-114319600D01*
X186416041Y-114319600D02*
X186511279Y-114367219D01*
X186511279Y-114367219D02*
X186749374Y-114367219D01*
X186749374Y-114367219D02*
X186844612Y-114319600D01*
X186844612Y-114319600D02*
X186892231Y-114271980D01*
X185273183Y-113367219D02*
X184701755Y-113367219D01*
X184987469Y-114367219D02*
X184987469Y-113367219D01*
X183987469Y-114319600D02*
X184082707Y-114367219D01*
X184082707Y-114367219D02*
X184273183Y-114367219D01*
X184273183Y-114367219D02*
X184368421Y-114319600D01*
X184368421Y-114319600D02*
X184416040Y-114224361D01*
X184416040Y-114224361D02*
X184416040Y-113843409D01*
X184416040Y-113843409D02*
X184368421Y-113748171D01*
X184368421Y-113748171D02*
X184273183Y-113700552D01*
X184273183Y-113700552D02*
X184082707Y-113700552D01*
X184082707Y-113700552D02*
X183987469Y-113748171D01*
X183987469Y-113748171D02*
X183939850Y-113843409D01*
X183939850Y-113843409D02*
X183939850Y-113938647D01*
X183939850Y-113938647D02*
X184416040Y-114033885D01*
X183368421Y-114367219D02*
X183463659Y-114319600D01*
X183463659Y-114319600D02*
X183511278Y-114224361D01*
X183511278Y-114224361D02*
X183511278Y-113367219D01*
X182606516Y-114319600D02*
X182701754Y-114367219D01*
X182701754Y-114367219D02*
X182892230Y-114367219D01*
X182892230Y-114367219D02*
X182987468Y-114319600D01*
X182987468Y-114319600D02*
X183035087Y-114224361D01*
X183035087Y-114224361D02*
X183035087Y-113843409D01*
X183035087Y-113843409D02*
X182987468Y-113748171D01*
X182987468Y-113748171D02*
X182892230Y-113700552D01*
X182892230Y-113700552D02*
X182701754Y-113700552D01*
X182701754Y-113700552D02*
X182606516Y-113748171D01*
X182606516Y-113748171D02*
X182558897Y-113843409D01*
X182558897Y-113843409D02*
X182558897Y-113938647D01*
X182558897Y-113938647D02*
X183035087Y-114033885D01*
X182130325Y-114367219D02*
X182130325Y-113700552D01*
X182130325Y-113795790D02*
X182082706Y-113748171D01*
X182082706Y-113748171D02*
X181987468Y-113700552D01*
X181987468Y-113700552D02*
X181844611Y-113700552D01*
X181844611Y-113700552D02*
X181749373Y-113748171D01*
X181749373Y-113748171D02*
X181701754Y-113843409D01*
X181701754Y-113843409D02*
X181701754Y-114367219D01*
X181701754Y-113843409D02*
X181654135Y-113748171D01*
X181654135Y-113748171D02*
X181558897Y-113700552D01*
X181558897Y-113700552D02*
X181416040Y-113700552D01*
X181416040Y-113700552D02*
X181320801Y-113748171D01*
X181320801Y-113748171D02*
X181273182Y-113843409D01*
X181273182Y-113843409D02*
X181273182Y-114367219D01*
X180416040Y-114319600D02*
X180511278Y-114367219D01*
X180511278Y-114367219D02*
X180701754Y-114367219D01*
X180701754Y-114367219D02*
X180796992Y-114319600D01*
X180796992Y-114319600D02*
X180844611Y-114224361D01*
X180844611Y-114224361D02*
X180844611Y-113843409D01*
X180844611Y-113843409D02*
X180796992Y-113748171D01*
X180796992Y-113748171D02*
X180701754Y-113700552D01*
X180701754Y-113700552D02*
X180511278Y-113700552D01*
X180511278Y-113700552D02*
X180416040Y-113748171D01*
X180416040Y-113748171D02*
X180368421Y-113843409D01*
X180368421Y-113843409D02*
X180368421Y-113938647D01*
X180368421Y-113938647D02*
X180844611Y-114033885D01*
X180082706Y-113700552D02*
X179701754Y-113700552D01*
X179939849Y-113367219D02*
X179939849Y-114224361D01*
X179939849Y-114224361D02*
X179892230Y-114319600D01*
X179892230Y-114319600D02*
X179796992Y-114367219D01*
X179796992Y-114367219D02*
X179701754Y-114367219D01*
X179368420Y-114367219D02*
X179368420Y-113700552D01*
X179368420Y-113891028D02*
X179320801Y-113795790D01*
X179320801Y-113795790D02*
X179273182Y-113748171D01*
X179273182Y-113748171D02*
X179177944Y-113700552D01*
X179177944Y-113700552D02*
X179082706Y-113700552D01*
X178844610Y-113700552D02*
X178606515Y-114367219D01*
X178368420Y-113700552D02*
X178606515Y-114367219D01*
X178606515Y-114367219D02*
X178701753Y-114605314D01*
X178701753Y-114605314D02*
X178749372Y-114652933D01*
X178749372Y-114652933D02*
X178844610Y-114700552D01*
X177225562Y-114367219D02*
X177225562Y-113367219D01*
X177225562Y-113367219D02*
X176892229Y-114081504D01*
X176892229Y-114081504D02*
X176558896Y-113367219D01*
X176558896Y-113367219D02*
X176558896Y-114367219D01*
X175939848Y-114367219D02*
X176035086Y-114319600D01*
X176035086Y-114319600D02*
X176082705Y-114271980D01*
X176082705Y-114271980D02*
X176130324Y-114176742D01*
X176130324Y-114176742D02*
X176130324Y-113891028D01*
X176130324Y-113891028D02*
X176082705Y-113795790D01*
X176082705Y-113795790D02*
X176035086Y-113748171D01*
X176035086Y-113748171D02*
X175939848Y-113700552D01*
X175939848Y-113700552D02*
X175796991Y-113700552D01*
X175796991Y-113700552D02*
X175701753Y-113748171D01*
X175701753Y-113748171D02*
X175654134Y-113795790D01*
X175654134Y-113795790D02*
X175606515Y-113891028D01*
X175606515Y-113891028D02*
X175606515Y-114176742D01*
X175606515Y-114176742D02*
X175654134Y-114271980D01*
X175654134Y-114271980D02*
X175701753Y-114319600D01*
X175701753Y-114319600D02*
X175796991Y-114367219D01*
X175796991Y-114367219D02*
X175939848Y-114367219D01*
X174749372Y-114367219D02*
X174749372Y-113367219D01*
X174749372Y-114319600D02*
X174844610Y-114367219D01*
X174844610Y-114367219D02*
X175035086Y-114367219D01*
X175035086Y-114367219D02*
X175130324Y-114319600D01*
X175130324Y-114319600D02*
X175177943Y-114271980D01*
X175177943Y-114271980D02*
X175225562Y-114176742D01*
X175225562Y-114176742D02*
X175225562Y-113891028D01*
X175225562Y-113891028D02*
X175177943Y-113795790D01*
X175177943Y-113795790D02*
X175130324Y-113748171D01*
X175130324Y-113748171D02*
X175035086Y-113700552D01*
X175035086Y-113700552D02*
X174844610Y-113700552D01*
X174844610Y-113700552D02*
X174749372Y-113748171D01*
X173844610Y-113700552D02*
X173844610Y-114367219D01*
X174273181Y-113700552D02*
X174273181Y-114224361D01*
X174273181Y-114224361D02*
X174225562Y-114319600D01*
X174225562Y-114319600D02*
X174130324Y-114367219D01*
X174130324Y-114367219D02*
X173987467Y-114367219D01*
X173987467Y-114367219D02*
X173892229Y-114319600D01*
X173892229Y-114319600D02*
X173844610Y-114271980D01*
X173225562Y-114367219D02*
X173320800Y-114319600D01*
X173320800Y-114319600D02*
X173368419Y-114224361D01*
X173368419Y-114224361D02*
X173368419Y-113367219D01*
X172463657Y-114319600D02*
X172558895Y-114367219D01*
X172558895Y-114367219D02*
X172749371Y-114367219D01*
X172749371Y-114367219D02*
X172844609Y-114319600D01*
X172844609Y-114319600D02*
X172892228Y-114224361D01*
X172892228Y-114224361D02*
X172892228Y-113843409D01*
X172892228Y-113843409D02*
X172844609Y-113748171D01*
X172844609Y-113748171D02*
X172749371Y-113700552D01*
X172749371Y-113700552D02*
X172558895Y-113700552D01*
X172558895Y-113700552D02*
X172463657Y-113748171D01*
X172463657Y-113748171D02*
X172416038Y-113843409D01*
X172416038Y-113843409D02*
X172416038Y-113938647D01*
X172416038Y-113938647D02*
X172892228Y-114033885D01*
D11*
G36*
X117280002Y-124988570D02*
G01*
X117412779Y-125118079D01*
X117489287Y-125412928D01*
X117492647Y-126029851D01*
X117417175Y-126343582D01*
X117292289Y-126471620D01*
X117170555Y-126534826D01*
X116883892Y-126537449D01*
X116765111Y-126480305D01*
X116632332Y-126350794D01*
X116555825Y-126055946D01*
X116552465Y-125439023D01*
X116627937Y-125125291D01*
X116752823Y-124997254D01*
X116874557Y-124934049D01*
X117161220Y-124931426D01*
X117280002Y-124988570D01*
G37*
G36*
X120349761Y-126535904D02*
G01*
X120111541Y-126537681D01*
X119895844Y-126468480D01*
X119761564Y-126337505D01*
X119690324Y-126200296D01*
X119603365Y-125865165D01*
X119600553Y-125627551D01*
X119681032Y-125293001D01*
X119752879Y-125143658D01*
X119887491Y-125005649D01*
X120093856Y-124934261D01*
X120346739Y-124932375D01*
X120349761Y-126535904D01*
G37*
G36*
X124062251Y-125583008D02*
G01*
X123798591Y-125584274D01*
X123788797Y-125582104D01*
X123775882Y-125584383D01*
X123551373Y-125585460D01*
X123431074Y-125527586D01*
X123379525Y-125478267D01*
X123317289Y-125358401D01*
X123315021Y-125166708D01*
X123372265Y-125047717D01*
X123421584Y-124996167D01*
X123540864Y-124934235D01*
X124061023Y-124931740D01*
X124062251Y-125583008D01*
G37*
G36*
X122081080Y-125964074D02*
G01*
X121678465Y-125965634D01*
X121878832Y-125360929D01*
X122081080Y-125964074D01*
G37*
G36*
X124682874Y-127156660D02*
G01*
X112505096Y-127156660D01*
X112505096Y-125115390D01*
X112727318Y-125115390D01*
X112730537Y-125307675D01*
X112728889Y-125330881D01*
X112731088Y-125340555D01*
X112731161Y-125344884D01*
X112733181Y-125349762D01*
X112737581Y-125369112D01*
X112826399Y-125625859D01*
X112826399Y-125630598D01*
X112836343Y-125654606D01*
X112848804Y-125690626D01*
X112853511Y-125696054D01*
X112856262Y-125702694D01*
X112881135Y-125733001D01*
X113687744Y-126535875D01*
X112888300Y-126538281D01*
X112816204Y-126568144D01*
X112761024Y-126623324D01*
X112731161Y-126695420D01*
X112731161Y-126773456D01*
X112761024Y-126845552D01*
X112816204Y-126900732D01*
X112888300Y-126930595D01*
X112927318Y-126934438D01*
X114204431Y-126930595D01*
X114276527Y-126900732D01*
X114331707Y-126845552D01*
X114347696Y-126806952D01*
X114361570Y-126773457D01*
X114361570Y-126695420D01*
X114331707Y-126623324D01*
X114306835Y-126593017D01*
X113199214Y-125490526D01*
X113168280Y-125401104D01*
X116155890Y-125401104D01*
X116159451Y-126055148D01*
X116156127Y-126077493D01*
X116159705Y-126101696D01*
X116159733Y-126106789D01*
X116160860Y-126109511D01*
X116161861Y-126116278D01*
X116254971Y-126475110D01*
X116254971Y-126487741D01*
X116263744Y-126508922D01*
X116270291Y-126534151D01*
X116279143Y-126546098D01*
X116284834Y-126559837D01*
X116309706Y-126590144D01*
X116502482Y-126778175D01*
X116518981Y-126797199D01*
X116527453Y-126802532D01*
X116530489Y-126805493D01*
X116535367Y-126807513D01*
X116552161Y-126818085D01*
X116718195Y-126897961D01*
X116720966Y-126900732D01*
X116742467Y-126909638D01*
X116779255Y-126927336D01*
X116786424Y-126927845D01*
X116793062Y-126930595D01*
X116832080Y-126934438D01*
X117183093Y-126931226D01*
X117188019Y-126932868D01*
X117215265Y-126930931D01*
X117252051Y-126930595D01*
X117258688Y-126927845D01*
X117265858Y-126927336D01*
X117302476Y-126913323D01*
X117492531Y-126814644D01*
X117514623Y-126805494D01*
X117522316Y-126799179D01*
X117526132Y-126797199D01*
X117529592Y-126793208D01*
X117544931Y-126780621D01*
X117718264Y-126602912D01*
X117728365Y-126596852D01*
X117741605Y-126578981D01*
X117760279Y-126559837D01*
X117765969Y-126546098D01*
X117774822Y-126534151D01*
X117788014Y-126497230D01*
X117877171Y-126126607D01*
X117885380Y-126106789D01*
X117887765Y-126082564D01*
X117888986Y-126077493D01*
X117888552Y-126074579D01*
X117889223Y-126067771D01*
X117885661Y-125413726D01*
X117888986Y-125391382D01*
X117885407Y-125367182D01*
X117885380Y-125362086D01*
X117884251Y-125359360D01*
X117883251Y-125352597D01*
X117790142Y-124993765D01*
X117790142Y-124981134D01*
X117781368Y-124959951D01*
X117774822Y-124934724D01*
X117765969Y-124922776D01*
X117760279Y-124909038D01*
X117735407Y-124878731D01*
X117587472Y-124734438D01*
X118346366Y-124734438D01*
X118350209Y-126773456D01*
X118380072Y-126845552D01*
X118435252Y-126900732D01*
X118507348Y-126930595D01*
X118585384Y-126930595D01*
X118657480Y-126900732D01*
X118712660Y-126845552D01*
X118742523Y-126773456D01*
X118746366Y-126734438D01*
X118744212Y-125591580D01*
X119203509Y-125591580D01*
X119206765Y-125866726D01*
X119203746Y-125887017D01*
X119207288Y-125910981D01*
X119207352Y-125916313D01*
X119208479Y-125919035D01*
X119209480Y-125925802D01*
X119304490Y-126291958D01*
X119305849Y-126311072D01*
X119317034Y-126340302D01*
X119317910Y-126343675D01*
X119318769Y-126344834D01*
X119319862Y-126347690D01*
X119418540Y-126537746D01*
X119427691Y-126559837D01*
X119434005Y-126567530D01*
X119435986Y-126571346D01*
X119439976Y-126574806D01*
X119452563Y-126590144D01*
X119624451Y-126757801D01*
X119626462Y-126761823D01*
X119645518Y-126778350D01*
X119673346Y-126805493D01*
X119679985Y-126808243D01*
X119685415Y-126812952D01*
X119721216Y-126828937D01*
X120007376Y-126920744D01*
X120031158Y-126930595D01*
X120041146Y-126931578D01*
X120045162Y-126932867D01*
X120050427Y-126932492D01*
X120070176Y-126934438D01*
X120585384Y-126930595D01*
X120657480Y-126900732D01*
X120712660Y-126845552D01*
X120742523Y-126773456D01*
X120746366Y-126734438D01*
X120746319Y-126709423D01*
X121014604Y-126709423D01*
X121020135Y-126787263D01*
X121055034Y-126857061D01*
X121113987Y-126908190D01*
X121188018Y-126932867D01*
X121265858Y-126927336D01*
X121335656Y-126892437D01*
X121386785Y-126833484D01*
X121402770Y-126797684D01*
X121546981Y-126362452D01*
X122213799Y-126359868D01*
X122372614Y-126833484D01*
X122423743Y-126892437D01*
X122493541Y-126927336D01*
X122571381Y-126932868D01*
X122645412Y-126908190D01*
X122704365Y-126857061D01*
X122739264Y-126787263D01*
X122744795Y-126709424D01*
X122736103Y-126671193D01*
X122214406Y-125115390D01*
X122917795Y-125115390D01*
X122920828Y-125371700D01*
X122919365Y-125376090D01*
X122921182Y-125401669D01*
X122921638Y-125440122D01*
X122924387Y-125446759D01*
X122924897Y-125453929D01*
X122938910Y-125490547D01*
X123037590Y-125680607D01*
X123046739Y-125702693D01*
X123053052Y-125710385D01*
X123055034Y-125714203D01*
X123059025Y-125717664D01*
X123071611Y-125733001D01*
X123171817Y-125828870D01*
X123185648Y-125844818D01*
X123193944Y-125850040D01*
X123197156Y-125853113D01*
X123202038Y-125855135D01*
X123218828Y-125865704D01*
X123384862Y-125945580D01*
X123387633Y-125948351D01*
X123409134Y-125957257D01*
X123416579Y-125960838D01*
X122934722Y-126653914D01*
X122917842Y-126730103D01*
X122931404Y-126806952D01*
X122973342Y-126872761D01*
X123037271Y-126917511D01*
X123113460Y-126934391D01*
X123190309Y-126920829D01*
X123256118Y-126878891D01*
X123281641Y-126849131D01*
X123885760Y-125980200D01*
X124062998Y-125979349D01*
X124064495Y-126773456D01*
X124094358Y-126845552D01*
X124149538Y-126900732D01*
X124221634Y-126930595D01*
X124299670Y-126930595D01*
X124371766Y-126900732D01*
X124426946Y-126845552D01*
X124456809Y-126773456D01*
X124460652Y-126734438D01*
X124456809Y-124695420D01*
X124426946Y-124623324D01*
X124371766Y-124568144D01*
X124299670Y-124538281D01*
X124260652Y-124534438D01*
X123529575Y-124537945D01*
X123523762Y-124536008D01*
X123494099Y-124538116D01*
X123459729Y-124538281D01*
X123453091Y-124541030D01*
X123445922Y-124541540D01*
X123409305Y-124555552D01*
X123219246Y-124654232D01*
X123197157Y-124663382D01*
X123189463Y-124669695D01*
X123185648Y-124671677D01*
X123182186Y-124675668D01*
X123166850Y-124688255D01*
X123070987Y-124788454D01*
X123055034Y-124802291D01*
X123049809Y-124810590D01*
X123046739Y-124813800D01*
X123044717Y-124818679D01*
X123034148Y-124835471D01*
X122954271Y-125001505D01*
X122951501Y-125004276D01*
X122942594Y-125025777D01*
X122924897Y-125062565D01*
X122924387Y-125069734D01*
X122921638Y-125076372D01*
X122917795Y-125115390D01*
X122214406Y-125115390D01*
X122073578Y-124695413D01*
X122072598Y-124681613D01*
X122061524Y-124659466D01*
X122053452Y-124635392D01*
X122044090Y-124624597D01*
X122037699Y-124611815D01*
X122018753Y-124595384D01*
X122002323Y-124576439D01*
X121989540Y-124570047D01*
X121978746Y-124560686D01*
X121954959Y-124552757D01*
X121932525Y-124541540D01*
X121918269Y-124540527D01*
X121904715Y-124536009D01*
X121879702Y-124537786D01*
X121854685Y-124536009D01*
X121841127Y-124540528D01*
X121826875Y-124541541D01*
X121804445Y-124552755D01*
X121780654Y-124560686D01*
X121769859Y-124570047D01*
X121757077Y-124576439D01*
X121740646Y-124595384D01*
X121721701Y-124611815D01*
X121715309Y-124624597D01*
X121705948Y-124635392D01*
X121689963Y-124671193D01*
X121213512Y-126109118D01*
X121207352Y-126123991D01*
X121207352Y-126127710D01*
X121014604Y-126709423D01*
X120746319Y-126709423D01*
X120742523Y-124695420D01*
X120712660Y-124623324D01*
X120657480Y-124568144D01*
X120585384Y-124538281D01*
X120546366Y-124534438D01*
X120072768Y-124537970D01*
X120045162Y-124536009D01*
X120035304Y-124538250D01*
X120031158Y-124538281D01*
X120026277Y-124540302D01*
X120006931Y-124544701D01*
X119750182Y-124633519D01*
X119745443Y-124633519D01*
X119721433Y-124643464D01*
X119685415Y-124655924D01*
X119679986Y-124660631D01*
X119673347Y-124663382D01*
X119643040Y-124688254D01*
X119455010Y-124881029D01*
X119435986Y-124897529D01*
X119430652Y-124906001D01*
X119427691Y-124909038D01*
X119425669Y-124913917D01*
X119415100Y-124930709D01*
X119328242Y-125111254D01*
X119317910Y-125125200D01*
X119307449Y-125154475D01*
X119305849Y-125157803D01*
X119305746Y-125159241D01*
X119304718Y-125162121D01*
X119215560Y-125532743D01*
X119207352Y-125552562D01*
X119204966Y-125576786D01*
X119203746Y-125581858D01*
X119204179Y-125584771D01*
X119203509Y-125591580D01*
X118744212Y-125591580D01*
X118742523Y-124695420D01*
X118712660Y-124623324D01*
X118657480Y-124568144D01*
X118585384Y-124538281D01*
X118507348Y-124538281D01*
X118435252Y-124568144D01*
X118380072Y-124623324D01*
X118350209Y-124695420D01*
X118346366Y-124734438D01*
X117587472Y-124734438D01*
X117542631Y-124690701D01*
X117526132Y-124671677D01*
X117517659Y-124666343D01*
X117514623Y-124663382D01*
X117509743Y-124661360D01*
X117492952Y-124650791D01*
X117326917Y-124570914D01*
X117324147Y-124568144D01*
X117302645Y-124559237D01*
X117265858Y-124541540D01*
X117258688Y-124541030D01*
X117252051Y-124538281D01*
X117213033Y-124534438D01*
X116862020Y-124537649D01*
X116857095Y-124536008D01*
X116829848Y-124537944D01*
X116793062Y-124538281D01*
X116786424Y-124541030D01*
X116779255Y-124541540D01*
X116742638Y-124555552D01*
X116552579Y-124654232D01*
X116530490Y-124663382D01*
X116522796Y-124669696D01*
X116518981Y-124671677D01*
X116515520Y-124675666D01*
X116500183Y-124688254D01*
X116326847Y-124865964D01*
X116316748Y-124872024D01*
X116303509Y-124889891D01*
X116284834Y-124909038D01*
X116279143Y-124922776D01*
X116270291Y-124934724D01*
X116257099Y-124971645D01*
X116167941Y-125342267D01*
X116159733Y-125362086D01*
X116157347Y-125386310D01*
X116156127Y-125391382D01*
X116156560Y-125394295D01*
X116155890Y-125401104D01*
X113168280Y-125401104D01*
X113126910Y-125281516D01*
X113124972Y-125165817D01*
X113181788Y-125047717D01*
X113231107Y-124996167D01*
X113350606Y-124934122D01*
X113732333Y-124931274D01*
X113852133Y-124988908D01*
X113959061Y-125091208D01*
X114031157Y-125121071D01*
X114109193Y-125121071D01*
X114181289Y-125091208D01*
X114236469Y-125036028D01*
X114266332Y-124963932D01*
X114266332Y-124885896D01*
X114236469Y-124813800D01*
X114211596Y-124783493D01*
X114111396Y-124687630D01*
X114097560Y-124671677D01*
X114089260Y-124666452D01*
X114086051Y-124663382D01*
X114081171Y-124661360D01*
X114064380Y-124650791D01*
X113898345Y-124570914D01*
X113895575Y-124568144D01*
X113874073Y-124559237D01*
X113837286Y-124541540D01*
X113830116Y-124541030D01*
X113823479Y-124538281D01*
X113784461Y-124534438D01*
X113338553Y-124537764D01*
X113333285Y-124536008D01*
X113305060Y-124538013D01*
X113269252Y-124538281D01*
X113262614Y-124541030D01*
X113255445Y-124541540D01*
X113218828Y-124555552D01*
X113028769Y-124654232D01*
X113006680Y-124663382D01*
X112998986Y-124669695D01*
X112995171Y-124671677D01*
X112991709Y-124675668D01*
X112976373Y-124688255D01*
X112880510Y-124788454D01*
X112864557Y-124802291D01*
X112859332Y-124810590D01*
X112856262Y-124813800D01*
X112854240Y-124818679D01*
X112843671Y-124835471D01*
X112763794Y-125001505D01*
X112761024Y-125004276D01*
X112752117Y-125025777D01*
X112734420Y-125062565D01*
X112733910Y-125069734D01*
X112731161Y-125076372D01*
X112727318Y-125115390D01*
X112505096Y-125115390D01*
X112505096Y-124312216D01*
X124682874Y-124312216D01*
X124682874Y-127156660D01*
G37*
G36*
X117280002Y-97988570D02*
G01*
X117412779Y-98118079D01*
X117489287Y-98412928D01*
X117492647Y-99029851D01*
X117417175Y-99343582D01*
X117292289Y-99471620D01*
X117170555Y-99534826D01*
X116883892Y-99537449D01*
X116765111Y-99480305D01*
X116632332Y-99350794D01*
X116555825Y-99055946D01*
X116552465Y-98439023D01*
X116627937Y-98125291D01*
X116752823Y-97997254D01*
X116874557Y-97934049D01*
X117161220Y-97931426D01*
X117280002Y-97988570D01*
G37*
G36*
X120349761Y-99535904D02*
G01*
X120111541Y-99537681D01*
X119895844Y-99468480D01*
X119761564Y-99337505D01*
X119690324Y-99200296D01*
X119603365Y-98865165D01*
X119600553Y-98627551D01*
X119681032Y-98293001D01*
X119752879Y-98143658D01*
X119887491Y-98005649D01*
X120093856Y-97934261D01*
X120346739Y-97932375D01*
X120349761Y-99535904D01*
G37*
G36*
X124062251Y-98583008D02*
G01*
X123798591Y-98584274D01*
X123788797Y-98582104D01*
X123775882Y-98584383D01*
X123551373Y-98585460D01*
X123431074Y-98527586D01*
X123379525Y-98478267D01*
X123317289Y-98358401D01*
X123315021Y-98166708D01*
X123372265Y-98047717D01*
X123421584Y-97996167D01*
X123540864Y-97934235D01*
X124061023Y-97931740D01*
X124062251Y-98583008D01*
G37*
G36*
X122081080Y-98964074D02*
G01*
X121678465Y-98965634D01*
X121878832Y-98360929D01*
X122081080Y-98964074D01*
G37*
G36*
X124682874Y-100156660D02*
G01*
X112508939Y-100156660D01*
X112508939Y-99695420D01*
X112731161Y-99695420D01*
X112731161Y-99773456D01*
X112761024Y-99845552D01*
X112816204Y-99900732D01*
X112888300Y-99930595D01*
X112927318Y-99934438D01*
X114109193Y-99930595D01*
X114181289Y-99900732D01*
X114236469Y-99845552D01*
X114266332Y-99773456D01*
X114266332Y-99695420D01*
X114236469Y-99623324D01*
X114181289Y-99568144D01*
X114109193Y-99538281D01*
X114070175Y-99534438D01*
X113698372Y-99535646D01*
X113696055Y-98306177D01*
X113740577Y-98349603D01*
X113757076Y-98368627D01*
X113765548Y-98373960D01*
X113768585Y-98376922D01*
X113773464Y-98378943D01*
X113790256Y-98389513D01*
X114017350Y-98498764D01*
X114095190Y-98504296D01*
X114169222Y-98479618D01*
X114228174Y-98428489D01*
X114241867Y-98401104D01*
X116155890Y-98401104D01*
X116159451Y-99055148D01*
X116156127Y-99077493D01*
X116159705Y-99101696D01*
X116159733Y-99106789D01*
X116160860Y-99109511D01*
X116161861Y-99116278D01*
X116254971Y-99475110D01*
X116254971Y-99487741D01*
X116263744Y-99508922D01*
X116270291Y-99534151D01*
X116279143Y-99546098D01*
X116284834Y-99559837D01*
X116309706Y-99590144D01*
X116502482Y-99778175D01*
X116518981Y-99797199D01*
X116527453Y-99802532D01*
X116530489Y-99805493D01*
X116535367Y-99807513D01*
X116552161Y-99818085D01*
X116718195Y-99897961D01*
X116720966Y-99900732D01*
X116742467Y-99909638D01*
X116779255Y-99927336D01*
X116786424Y-99927845D01*
X116793062Y-99930595D01*
X116832080Y-99934438D01*
X117183093Y-99931226D01*
X117188019Y-99932868D01*
X117215265Y-99930931D01*
X117252051Y-99930595D01*
X117258688Y-99927845D01*
X117265858Y-99927336D01*
X117302476Y-99913323D01*
X117492531Y-99814644D01*
X117514623Y-99805494D01*
X117522316Y-99799179D01*
X117526132Y-99797199D01*
X117529592Y-99793208D01*
X117544931Y-99780621D01*
X117718264Y-99602912D01*
X117728365Y-99596852D01*
X117741605Y-99578981D01*
X117760279Y-99559837D01*
X117765969Y-99546098D01*
X117774822Y-99534151D01*
X117788014Y-99497230D01*
X117877171Y-99126607D01*
X117885380Y-99106789D01*
X117887765Y-99082564D01*
X117888986Y-99077493D01*
X117888552Y-99074579D01*
X117889223Y-99067771D01*
X117885661Y-98413726D01*
X117888986Y-98391382D01*
X117885407Y-98367182D01*
X117885380Y-98362086D01*
X117884251Y-98359360D01*
X117883251Y-98352597D01*
X117790142Y-97993765D01*
X117790142Y-97981134D01*
X117781368Y-97959951D01*
X117774822Y-97934724D01*
X117765969Y-97922776D01*
X117760279Y-97909038D01*
X117735407Y-97878731D01*
X117587472Y-97734438D01*
X118346366Y-97734438D01*
X118350209Y-99773456D01*
X118380072Y-99845552D01*
X118435252Y-99900732D01*
X118507348Y-99930595D01*
X118585384Y-99930595D01*
X118657480Y-99900732D01*
X118712660Y-99845552D01*
X118742523Y-99773456D01*
X118746366Y-99734438D01*
X118744212Y-98591580D01*
X119203509Y-98591580D01*
X119206765Y-98866726D01*
X119203746Y-98887017D01*
X119207288Y-98910981D01*
X119207352Y-98916313D01*
X119208479Y-98919035D01*
X119209480Y-98925802D01*
X119304490Y-99291958D01*
X119305849Y-99311072D01*
X119317034Y-99340302D01*
X119317910Y-99343675D01*
X119318769Y-99344834D01*
X119319862Y-99347690D01*
X119418540Y-99537746D01*
X119427691Y-99559837D01*
X119434005Y-99567530D01*
X119435986Y-99571346D01*
X119439976Y-99574806D01*
X119452563Y-99590144D01*
X119624451Y-99757801D01*
X119626462Y-99761823D01*
X119645518Y-99778350D01*
X119673346Y-99805493D01*
X119679985Y-99808243D01*
X119685415Y-99812952D01*
X119721216Y-99828937D01*
X120007376Y-99920744D01*
X120031158Y-99930595D01*
X120041146Y-99931578D01*
X120045162Y-99932867D01*
X120050427Y-99932492D01*
X120070176Y-99934438D01*
X120585384Y-99930595D01*
X120657480Y-99900732D01*
X120712660Y-99845552D01*
X120742523Y-99773456D01*
X120746366Y-99734438D01*
X120746319Y-99709423D01*
X121014604Y-99709423D01*
X121020135Y-99787263D01*
X121055034Y-99857061D01*
X121113987Y-99908190D01*
X121188018Y-99932867D01*
X121265858Y-99927336D01*
X121335656Y-99892437D01*
X121386785Y-99833484D01*
X121402770Y-99797684D01*
X121546981Y-99362452D01*
X122213799Y-99359868D01*
X122372614Y-99833484D01*
X122423743Y-99892437D01*
X122493541Y-99927336D01*
X122571381Y-99932868D01*
X122645412Y-99908190D01*
X122704365Y-99857061D01*
X122739264Y-99787263D01*
X122744795Y-99709424D01*
X122736103Y-99671193D01*
X122214406Y-98115390D01*
X122917795Y-98115390D01*
X122920828Y-98371700D01*
X122919365Y-98376090D01*
X122921182Y-98401669D01*
X122921638Y-98440122D01*
X122924387Y-98446759D01*
X122924897Y-98453929D01*
X122938910Y-98490547D01*
X123037590Y-98680607D01*
X123046739Y-98702693D01*
X123053052Y-98710385D01*
X123055034Y-98714203D01*
X123059025Y-98717664D01*
X123071611Y-98733001D01*
X123171817Y-98828870D01*
X123185648Y-98844818D01*
X123193944Y-98850040D01*
X123197156Y-98853113D01*
X123202038Y-98855135D01*
X123218828Y-98865704D01*
X123384862Y-98945580D01*
X123387633Y-98948351D01*
X123409134Y-98957257D01*
X123416579Y-98960838D01*
X122934722Y-99653914D01*
X122917842Y-99730103D01*
X122931404Y-99806952D01*
X122973342Y-99872761D01*
X123037271Y-99917511D01*
X123113460Y-99934391D01*
X123190309Y-99920829D01*
X123256118Y-99878891D01*
X123281641Y-99849131D01*
X123885760Y-98980200D01*
X124062998Y-98979349D01*
X124064495Y-99773456D01*
X124094358Y-99845552D01*
X124149538Y-99900732D01*
X124221634Y-99930595D01*
X124299670Y-99930595D01*
X124371766Y-99900732D01*
X124426946Y-99845552D01*
X124456809Y-99773456D01*
X124460652Y-99734438D01*
X124456809Y-97695420D01*
X124426946Y-97623324D01*
X124371766Y-97568144D01*
X124299670Y-97538281D01*
X124260652Y-97534438D01*
X123529575Y-97537945D01*
X123523762Y-97536008D01*
X123494099Y-97538116D01*
X123459729Y-97538281D01*
X123453091Y-97541030D01*
X123445922Y-97541540D01*
X123409305Y-97555552D01*
X123219246Y-97654232D01*
X123197157Y-97663382D01*
X123189463Y-97669695D01*
X123185648Y-97671677D01*
X123182186Y-97675668D01*
X123166850Y-97688255D01*
X123070987Y-97788454D01*
X123055034Y-97802291D01*
X123049809Y-97810590D01*
X123046739Y-97813800D01*
X123044717Y-97818679D01*
X123034148Y-97835471D01*
X122954271Y-98001505D01*
X122951501Y-98004276D01*
X122942594Y-98025777D01*
X122924897Y-98062565D01*
X122924387Y-98069734D01*
X122921638Y-98076372D01*
X122917795Y-98115390D01*
X122214406Y-98115390D01*
X122073578Y-97695413D01*
X122072598Y-97681613D01*
X122061524Y-97659466D01*
X122053452Y-97635392D01*
X122044090Y-97624597D01*
X122037699Y-97611815D01*
X122018753Y-97595384D01*
X122002323Y-97576439D01*
X121989540Y-97570047D01*
X121978746Y-97560686D01*
X121954959Y-97552757D01*
X121932525Y-97541540D01*
X121918269Y-97540527D01*
X121904715Y-97536009D01*
X121879702Y-97537786D01*
X121854685Y-97536009D01*
X121841127Y-97540528D01*
X121826875Y-97541541D01*
X121804445Y-97552755D01*
X121780654Y-97560686D01*
X121769859Y-97570047D01*
X121757077Y-97576439D01*
X121740646Y-97595384D01*
X121721701Y-97611815D01*
X121715309Y-97624597D01*
X121705948Y-97635392D01*
X121689963Y-97671193D01*
X121213512Y-99109118D01*
X121207352Y-99123991D01*
X121207352Y-99127710D01*
X121014604Y-99709423D01*
X120746319Y-99709423D01*
X120742523Y-97695420D01*
X120712660Y-97623324D01*
X120657480Y-97568144D01*
X120585384Y-97538281D01*
X120546366Y-97534438D01*
X120072768Y-97537970D01*
X120045162Y-97536009D01*
X120035304Y-97538250D01*
X120031158Y-97538281D01*
X120026277Y-97540302D01*
X120006931Y-97544701D01*
X119750182Y-97633519D01*
X119745443Y-97633519D01*
X119721433Y-97643464D01*
X119685415Y-97655924D01*
X119679986Y-97660631D01*
X119673347Y-97663382D01*
X119643040Y-97688254D01*
X119455010Y-97881029D01*
X119435986Y-97897529D01*
X119430652Y-97906001D01*
X119427691Y-97909038D01*
X119425669Y-97913917D01*
X119415100Y-97930709D01*
X119328242Y-98111254D01*
X119317910Y-98125200D01*
X119307449Y-98154475D01*
X119305849Y-98157803D01*
X119305746Y-98159241D01*
X119304718Y-98162121D01*
X119215560Y-98532743D01*
X119207352Y-98552562D01*
X119204966Y-98576786D01*
X119203746Y-98581858D01*
X119204179Y-98584771D01*
X119203509Y-98591580D01*
X118744212Y-98591580D01*
X118742523Y-97695420D01*
X118712660Y-97623324D01*
X118657480Y-97568144D01*
X118585384Y-97538281D01*
X118507348Y-97538281D01*
X118435252Y-97568144D01*
X118380072Y-97623324D01*
X118350209Y-97695420D01*
X118346366Y-97734438D01*
X117587472Y-97734438D01*
X117542631Y-97690701D01*
X117526132Y-97671677D01*
X117517659Y-97666343D01*
X117514623Y-97663382D01*
X117509743Y-97661360D01*
X117492952Y-97650791D01*
X117326917Y-97570914D01*
X117324147Y-97568144D01*
X117302645Y-97559237D01*
X117265858Y-97541540D01*
X117258688Y-97541030D01*
X117252051Y-97538281D01*
X117213033Y-97534438D01*
X116862020Y-97537649D01*
X116857095Y-97536008D01*
X116829848Y-97537944D01*
X116793062Y-97538281D01*
X116786424Y-97541030D01*
X116779255Y-97541540D01*
X116742638Y-97555552D01*
X116552579Y-97654232D01*
X116530490Y-97663382D01*
X116522796Y-97669696D01*
X116518981Y-97671677D01*
X116515520Y-97675666D01*
X116500183Y-97688254D01*
X116326847Y-97865964D01*
X116316748Y-97872024D01*
X116303509Y-97889891D01*
X116284834Y-97909038D01*
X116279143Y-97922776D01*
X116270291Y-97934724D01*
X116257099Y-97971645D01*
X116167941Y-98342267D01*
X116159733Y-98362086D01*
X116157347Y-98386310D01*
X116156127Y-98391382D01*
X116156560Y-98394295D01*
X116155890Y-98401104D01*
X114241867Y-98401104D01*
X114263073Y-98358691D01*
X114268605Y-98280852D01*
X114243928Y-98206820D01*
X114192798Y-98147867D01*
X114159618Y-98126981D01*
X114003207Y-98051734D01*
X113852750Y-97904981D01*
X113671521Y-97638968D01*
X113665041Y-97623324D01*
X113651931Y-97610214D01*
X113640316Y-97593165D01*
X113623864Y-97582147D01*
X113609861Y-97568144D01*
X113591758Y-97560645D01*
X113575477Y-97549742D01*
X113556058Y-97545858D01*
X113537765Y-97538281D01*
X113518171Y-97538281D01*
X113498956Y-97534438D01*
X113479530Y-97538281D01*
X113459729Y-97538281D01*
X113441626Y-97545779D01*
X113422404Y-97549582D01*
X113405928Y-97560565D01*
X113387633Y-97568144D01*
X113373776Y-97582000D01*
X113357474Y-97592869D01*
X113346456Y-97609320D01*
X113332453Y-97623324D01*
X113324954Y-97641426D01*
X113314051Y-97657708D01*
X113310167Y-97677126D01*
X113302590Y-97695420D01*
X113298787Y-97734026D01*
X113298747Y-97734229D01*
X113298760Y-97734298D01*
X113298747Y-97734438D01*
X113302144Y-99536935D01*
X112888300Y-99538281D01*
X112816204Y-99568144D01*
X112761024Y-99623324D01*
X112731161Y-99695420D01*
X112508939Y-99695420D01*
X112508939Y-97312216D01*
X124682874Y-97312216D01*
X124682874Y-100156660D01*
G37*
G36*
X181280002Y-124988570D02*
G01*
X181412779Y-125118079D01*
X181489287Y-125412928D01*
X181492647Y-126029851D01*
X181417175Y-126343582D01*
X181292289Y-126471620D01*
X181170555Y-126534826D01*
X180883892Y-126537449D01*
X180765111Y-126480305D01*
X180632332Y-126350794D01*
X180555825Y-126055946D01*
X180552465Y-125439023D01*
X180627937Y-125125291D01*
X180752823Y-124997254D01*
X180874557Y-124934049D01*
X181161220Y-124931426D01*
X181280002Y-124988570D01*
G37*
G36*
X184349761Y-126535904D02*
G01*
X184111541Y-126537681D01*
X183895844Y-126468480D01*
X183761564Y-126337505D01*
X183690324Y-126200296D01*
X183603365Y-125865165D01*
X183600553Y-125627551D01*
X183681032Y-125293001D01*
X183752879Y-125143658D01*
X183887491Y-125005649D01*
X184093856Y-124934261D01*
X184346739Y-124932375D01*
X184349761Y-126535904D01*
G37*
G36*
X188062251Y-125583008D02*
G01*
X187798591Y-125584274D01*
X187788797Y-125582104D01*
X187775882Y-125584383D01*
X187551373Y-125585460D01*
X187431074Y-125527586D01*
X187379525Y-125478267D01*
X187317289Y-125358401D01*
X187315021Y-125166708D01*
X187372265Y-125047717D01*
X187421584Y-124996167D01*
X187540864Y-124934235D01*
X188061023Y-124931740D01*
X188062251Y-125583008D01*
G37*
G36*
X186081080Y-125964074D02*
G01*
X185678465Y-125965634D01*
X185878832Y-125360929D01*
X186081080Y-125964074D01*
G37*
G36*
X188682874Y-127156660D02*
G01*
X176413701Y-127156660D01*
X176413701Y-126028753D01*
X176635923Y-126028753D01*
X176635923Y-126106789D01*
X176665786Y-126178885D01*
X176720966Y-126234065D01*
X176793062Y-126263928D01*
X176832080Y-126267771D01*
X176920220Y-126267505D01*
X176921637Y-126773456D01*
X176951500Y-126845552D01*
X177006680Y-126900732D01*
X177078776Y-126930595D01*
X177156812Y-126930595D01*
X177228908Y-126900732D01*
X177284088Y-126845552D01*
X177313951Y-126773456D01*
X177317794Y-126734438D01*
X177316483Y-126266313D01*
X178065083Y-126264060D01*
X178095190Y-126266200D01*
X178101940Y-126263949D01*
X178109193Y-126263928D01*
X178138813Y-126251658D01*
X178169221Y-126241523D01*
X178174649Y-126236815D01*
X178181289Y-126234065D01*
X178203956Y-126211397D01*
X178228174Y-126190394D01*
X178231388Y-126183966D01*
X178236469Y-126178885D01*
X178248735Y-126149271D01*
X178263073Y-126120596D01*
X178263582Y-126113427D01*
X178266332Y-126106789D01*
X178266332Y-126074731D01*
X178268604Y-126042757D01*
X178266332Y-126032763D01*
X178266332Y-126028753D01*
X178264310Y-126023872D01*
X178259912Y-126004526D01*
X178057102Y-125401104D01*
X180155890Y-125401104D01*
X180159451Y-126055148D01*
X180156127Y-126077493D01*
X180159705Y-126101696D01*
X180159733Y-126106789D01*
X180160860Y-126109511D01*
X180161861Y-126116278D01*
X180254971Y-126475110D01*
X180254971Y-126487741D01*
X180263744Y-126508922D01*
X180270291Y-126534151D01*
X180279143Y-126546098D01*
X180284834Y-126559837D01*
X180309706Y-126590144D01*
X180502482Y-126778175D01*
X180518981Y-126797199D01*
X180527453Y-126802532D01*
X180530489Y-126805493D01*
X180535367Y-126807513D01*
X180552161Y-126818085D01*
X180718195Y-126897961D01*
X180720966Y-126900732D01*
X180742467Y-126909638D01*
X180779255Y-126927336D01*
X180786424Y-126927845D01*
X180793062Y-126930595D01*
X180832080Y-126934438D01*
X181183093Y-126931226D01*
X181188019Y-126932868D01*
X181215265Y-126930931D01*
X181252051Y-126930595D01*
X181258688Y-126927845D01*
X181265858Y-126927336D01*
X181302476Y-126913323D01*
X181492531Y-126814644D01*
X181514623Y-126805494D01*
X181522316Y-126799179D01*
X181526132Y-126797199D01*
X181529592Y-126793208D01*
X181544931Y-126780621D01*
X181718264Y-126602912D01*
X181728365Y-126596852D01*
X181741605Y-126578981D01*
X181760279Y-126559837D01*
X181765969Y-126546098D01*
X181774822Y-126534151D01*
X181788014Y-126497230D01*
X181877171Y-126126607D01*
X181885380Y-126106789D01*
X181887765Y-126082564D01*
X181888986Y-126077493D01*
X181888552Y-126074579D01*
X181889223Y-126067771D01*
X181885661Y-125413726D01*
X181888986Y-125391382D01*
X181885407Y-125367182D01*
X181885380Y-125362086D01*
X181884251Y-125359360D01*
X181883251Y-125352597D01*
X181790142Y-124993765D01*
X181790142Y-124981134D01*
X181781368Y-124959951D01*
X181774822Y-124934724D01*
X181765969Y-124922776D01*
X181760279Y-124909038D01*
X181735407Y-124878731D01*
X181587472Y-124734438D01*
X182346366Y-124734438D01*
X182350209Y-126773456D01*
X182380072Y-126845552D01*
X182435252Y-126900732D01*
X182507348Y-126930595D01*
X182585384Y-126930595D01*
X182657480Y-126900732D01*
X182712660Y-126845552D01*
X182742523Y-126773456D01*
X182746366Y-126734438D01*
X182744212Y-125591580D01*
X183203509Y-125591580D01*
X183206765Y-125866726D01*
X183203746Y-125887017D01*
X183207288Y-125910981D01*
X183207352Y-125916313D01*
X183208479Y-125919035D01*
X183209480Y-125925802D01*
X183304490Y-126291958D01*
X183305849Y-126311072D01*
X183317034Y-126340302D01*
X183317910Y-126343675D01*
X183318769Y-126344834D01*
X183319862Y-126347690D01*
X183418540Y-126537746D01*
X183427691Y-126559837D01*
X183434005Y-126567530D01*
X183435986Y-126571346D01*
X183439976Y-126574806D01*
X183452563Y-126590144D01*
X183624451Y-126757801D01*
X183626462Y-126761823D01*
X183645518Y-126778350D01*
X183673346Y-126805493D01*
X183679985Y-126808243D01*
X183685415Y-126812952D01*
X183721216Y-126828937D01*
X184007376Y-126920744D01*
X184031158Y-126930595D01*
X184041146Y-126931578D01*
X184045162Y-126932867D01*
X184050427Y-126932492D01*
X184070176Y-126934438D01*
X184585384Y-126930595D01*
X184657480Y-126900732D01*
X184712660Y-126845552D01*
X184742523Y-126773456D01*
X184746366Y-126734438D01*
X184746319Y-126709423D01*
X185014604Y-126709423D01*
X185020135Y-126787263D01*
X185055034Y-126857061D01*
X185113987Y-126908190D01*
X185188018Y-126932867D01*
X185265858Y-126927336D01*
X185335656Y-126892437D01*
X185386785Y-126833484D01*
X185402770Y-126797684D01*
X185546981Y-126362452D01*
X186213799Y-126359868D01*
X186372614Y-126833484D01*
X186423743Y-126892437D01*
X186493541Y-126927336D01*
X186571381Y-126932868D01*
X186645412Y-126908190D01*
X186704365Y-126857061D01*
X186739264Y-126787263D01*
X186744795Y-126709424D01*
X186736103Y-126671193D01*
X186214406Y-125115390D01*
X186917795Y-125115390D01*
X186920828Y-125371700D01*
X186919365Y-125376090D01*
X186921182Y-125401669D01*
X186921638Y-125440122D01*
X186924387Y-125446759D01*
X186924897Y-125453929D01*
X186938910Y-125490547D01*
X187037590Y-125680607D01*
X187046739Y-125702693D01*
X187053052Y-125710385D01*
X187055034Y-125714203D01*
X187059025Y-125717664D01*
X187071611Y-125733001D01*
X187171817Y-125828870D01*
X187185648Y-125844818D01*
X187193944Y-125850040D01*
X187197156Y-125853113D01*
X187202038Y-125855135D01*
X187218828Y-125865704D01*
X187384862Y-125945580D01*
X187387633Y-125948351D01*
X187409134Y-125957257D01*
X187416579Y-125960838D01*
X186934722Y-126653914D01*
X186917842Y-126730103D01*
X186931404Y-126806952D01*
X186973342Y-126872761D01*
X187037271Y-126917511D01*
X187113460Y-126934391D01*
X187190309Y-126920829D01*
X187256118Y-126878891D01*
X187281641Y-126849131D01*
X187885760Y-125980200D01*
X188062998Y-125979349D01*
X188064495Y-126773456D01*
X188094358Y-126845552D01*
X188149538Y-126900732D01*
X188221634Y-126930595D01*
X188299670Y-126930595D01*
X188371766Y-126900732D01*
X188426946Y-126845552D01*
X188456809Y-126773456D01*
X188460652Y-126734438D01*
X188456809Y-124695420D01*
X188426946Y-124623324D01*
X188371766Y-124568144D01*
X188299670Y-124538281D01*
X188260652Y-124534438D01*
X187529575Y-124537945D01*
X187523762Y-124536008D01*
X187494099Y-124538116D01*
X187459729Y-124538281D01*
X187453091Y-124541030D01*
X187445922Y-124541540D01*
X187409305Y-124555552D01*
X187219246Y-124654232D01*
X187197157Y-124663382D01*
X187189463Y-124669695D01*
X187185648Y-124671677D01*
X187182186Y-124675668D01*
X187166850Y-124688255D01*
X187070987Y-124788454D01*
X187055034Y-124802291D01*
X187049809Y-124810590D01*
X187046739Y-124813800D01*
X187044717Y-124818679D01*
X187034148Y-124835471D01*
X186954271Y-125001505D01*
X186951501Y-125004276D01*
X186942594Y-125025777D01*
X186924897Y-125062565D01*
X186924387Y-125069734D01*
X186921638Y-125076372D01*
X186917795Y-125115390D01*
X186214406Y-125115390D01*
X186073578Y-124695413D01*
X186072598Y-124681613D01*
X186061524Y-124659466D01*
X186053452Y-124635392D01*
X186044090Y-124624597D01*
X186037699Y-124611815D01*
X186018753Y-124595384D01*
X186002323Y-124576439D01*
X185989540Y-124570047D01*
X185978746Y-124560686D01*
X185954959Y-124552757D01*
X185932525Y-124541540D01*
X185918269Y-124540527D01*
X185904715Y-124536009D01*
X185879702Y-124537786D01*
X185854685Y-124536009D01*
X185841127Y-124540528D01*
X185826875Y-124541541D01*
X185804445Y-124552755D01*
X185780654Y-124560686D01*
X185769859Y-124570047D01*
X185757077Y-124576439D01*
X185740646Y-124595384D01*
X185721701Y-124611815D01*
X185715309Y-124624597D01*
X185705948Y-124635392D01*
X185689963Y-124671193D01*
X185213512Y-126109118D01*
X185207352Y-126123991D01*
X185207352Y-126127710D01*
X185014604Y-126709423D01*
X184746319Y-126709423D01*
X184742523Y-124695420D01*
X184712660Y-124623324D01*
X184657480Y-124568144D01*
X184585384Y-124538281D01*
X184546366Y-124534438D01*
X184072768Y-124537970D01*
X184045162Y-124536009D01*
X184035304Y-124538250D01*
X184031158Y-124538281D01*
X184026277Y-124540302D01*
X184006931Y-124544701D01*
X183750182Y-124633519D01*
X183745443Y-124633519D01*
X183721433Y-124643464D01*
X183685415Y-124655924D01*
X183679986Y-124660631D01*
X183673347Y-124663382D01*
X183643040Y-124688254D01*
X183455010Y-124881029D01*
X183435986Y-124897529D01*
X183430652Y-124906001D01*
X183427691Y-124909038D01*
X183425669Y-124913917D01*
X183415100Y-124930709D01*
X183328242Y-125111254D01*
X183317910Y-125125200D01*
X183307449Y-125154475D01*
X183305849Y-125157803D01*
X183305746Y-125159241D01*
X183304718Y-125162121D01*
X183215560Y-125532743D01*
X183207352Y-125552562D01*
X183204966Y-125576786D01*
X183203746Y-125581858D01*
X183204179Y-125584771D01*
X183203509Y-125591580D01*
X182744212Y-125591580D01*
X182742523Y-124695420D01*
X182712660Y-124623324D01*
X182657480Y-124568144D01*
X182585384Y-124538281D01*
X182507348Y-124538281D01*
X182435252Y-124568144D01*
X182380072Y-124623324D01*
X182350209Y-124695420D01*
X182346366Y-124734438D01*
X181587472Y-124734438D01*
X181542631Y-124690701D01*
X181526132Y-124671677D01*
X181517659Y-124666343D01*
X181514623Y-124663382D01*
X181509743Y-124661360D01*
X181492952Y-124650791D01*
X181326917Y-124570914D01*
X181324147Y-124568144D01*
X181302645Y-124559237D01*
X181265858Y-124541540D01*
X181258688Y-124541030D01*
X181252051Y-124538281D01*
X181213033Y-124534438D01*
X180862020Y-124537649D01*
X180857095Y-124536008D01*
X180829848Y-124537944D01*
X180793062Y-124538281D01*
X180786424Y-124541030D01*
X180779255Y-124541540D01*
X180742638Y-124555552D01*
X180552579Y-124654232D01*
X180530490Y-124663382D01*
X180522796Y-124669696D01*
X180518981Y-124671677D01*
X180515520Y-124675666D01*
X180500183Y-124688254D01*
X180326847Y-124865964D01*
X180316748Y-124872024D01*
X180303509Y-124889891D01*
X180284834Y-124909038D01*
X180279143Y-124922776D01*
X180270291Y-124934724D01*
X180257099Y-124971645D01*
X180167941Y-125342267D01*
X180159733Y-125362086D01*
X180157347Y-125386310D01*
X180156127Y-125391382D01*
X180156560Y-125394295D01*
X180155890Y-125401104D01*
X178057102Y-125401104D01*
X177767737Y-124540154D01*
X177716608Y-124481201D01*
X177646810Y-124446302D01*
X177568970Y-124440771D01*
X177494939Y-124465448D01*
X177435986Y-124516577D01*
X177401087Y-124586375D01*
X177395556Y-124664215D01*
X177404248Y-124702446D01*
X177796190Y-125868595D01*
X177315373Y-125870042D01*
X177313951Y-125362086D01*
X177284088Y-125289990D01*
X177228908Y-125234810D01*
X177156812Y-125204947D01*
X177078776Y-125204947D01*
X177006680Y-125234810D01*
X176951500Y-125289990D01*
X176921637Y-125362086D01*
X176917794Y-125401104D01*
X176919110Y-125871234D01*
X176793062Y-125871614D01*
X176720966Y-125901477D01*
X176665786Y-125956657D01*
X176635923Y-126028753D01*
X176413701Y-126028753D01*
X176413701Y-124218549D01*
X188682874Y-124218549D01*
X188682874Y-127156660D01*
G37*
G36*
X181280002Y-97988570D02*
G01*
X181412779Y-98118079D01*
X181489287Y-98412928D01*
X181492647Y-99029851D01*
X181417175Y-99343582D01*
X181292289Y-99471620D01*
X181170555Y-99534826D01*
X180883892Y-99537449D01*
X180765111Y-99480305D01*
X180632332Y-99350794D01*
X180555825Y-99055946D01*
X180552465Y-98439023D01*
X180627937Y-98125291D01*
X180752823Y-97997254D01*
X180874557Y-97934049D01*
X181161220Y-97931426D01*
X181280002Y-97988570D01*
G37*
G36*
X184349761Y-99535904D02*
G01*
X184111541Y-99537681D01*
X183895844Y-99468480D01*
X183761564Y-99337505D01*
X183690324Y-99200296D01*
X183603365Y-98865165D01*
X183600553Y-98627551D01*
X183681032Y-98293001D01*
X183752879Y-98143658D01*
X183887491Y-98005649D01*
X184093856Y-97934261D01*
X184346739Y-97932375D01*
X184349761Y-99535904D01*
G37*
G36*
X188062251Y-98583008D02*
G01*
X187798591Y-98584274D01*
X187788797Y-98582104D01*
X187775882Y-98584383D01*
X187551373Y-98585460D01*
X187431074Y-98527586D01*
X187379525Y-98478267D01*
X187317289Y-98358401D01*
X187315021Y-98166708D01*
X187372265Y-98047717D01*
X187421584Y-97996167D01*
X187540864Y-97934235D01*
X188061023Y-97931740D01*
X188062251Y-98583008D01*
G37*
G36*
X186081080Y-98964074D02*
G01*
X185678465Y-98965634D01*
X185878832Y-98360929D01*
X186081080Y-98964074D01*
G37*
G36*
X188682874Y-100156660D02*
G01*
X176505096Y-100156660D01*
X176505096Y-98877295D01*
X176727318Y-98877295D01*
X176730644Y-99323202D01*
X176728888Y-99328471D01*
X176730893Y-99356695D01*
X176731161Y-99392503D01*
X176733910Y-99399140D01*
X176734420Y-99406310D01*
X176748433Y-99442928D01*
X176847113Y-99632988D01*
X176856262Y-99655074D01*
X176862575Y-99662766D01*
X176864557Y-99666584D01*
X176868548Y-99670045D01*
X176881134Y-99685382D01*
X176981340Y-99781251D01*
X176995171Y-99797199D01*
X177003467Y-99802421D01*
X177006679Y-99805494D01*
X177011561Y-99807516D01*
X177028351Y-99818085D01*
X177194385Y-99897961D01*
X177197156Y-99900732D01*
X177218657Y-99909638D01*
X177255445Y-99927336D01*
X177262614Y-99927845D01*
X177269252Y-99930595D01*
X177308270Y-99934438D01*
X177849179Y-99931032D01*
X177854685Y-99932868D01*
X177883552Y-99930816D01*
X177918717Y-99930595D01*
X177925354Y-99927845D01*
X177932524Y-99927336D01*
X177969142Y-99913323D01*
X178159201Y-99814642D01*
X178181290Y-99805493D01*
X178188982Y-99799180D01*
X178192798Y-99797199D01*
X178196259Y-99793208D01*
X178211597Y-99780621D01*
X178331708Y-99655074D01*
X178361571Y-99582978D01*
X178361570Y-99504942D01*
X178331707Y-99432846D01*
X178276526Y-99377666D01*
X178204430Y-99347803D01*
X178126394Y-99347804D01*
X178054298Y-99377667D01*
X178023991Y-99402540D01*
X177956861Y-99472708D01*
X177837457Y-99534703D01*
X177360615Y-99537705D01*
X177240597Y-99479967D01*
X177189048Y-99430648D01*
X177127002Y-99311147D01*
X177124154Y-98929422D01*
X177181787Y-98809624D01*
X177231109Y-98758070D01*
X177350971Y-98695836D01*
X177594320Y-98692956D01*
X177619868Y-98694660D01*
X177626012Y-98692581D01*
X177633003Y-98692499D01*
X177663024Y-98680063D01*
X177693791Y-98669658D01*
X177698865Y-98665218D01*
X177705099Y-98662636D01*
X177728079Y-98639656D01*
X177752519Y-98618271D01*
X177755507Y-98612227D01*
X177760279Y-98607456D01*
X177772714Y-98577434D01*
X177787112Y-98548321D01*
X177787560Y-98541592D01*
X177790142Y-98535360D01*
X177790142Y-98502872D01*
X177792303Y-98470458D01*
X177790142Y-98464068D01*
X177790142Y-98457324D01*
X177777708Y-98427306D01*
X177768846Y-98401104D01*
X180155890Y-98401104D01*
X180159451Y-99055148D01*
X180156127Y-99077493D01*
X180159705Y-99101696D01*
X180159733Y-99106789D01*
X180160860Y-99109511D01*
X180161861Y-99116278D01*
X180254971Y-99475110D01*
X180254971Y-99487741D01*
X180263744Y-99508922D01*
X180270291Y-99534151D01*
X180279143Y-99546098D01*
X180284834Y-99559837D01*
X180309706Y-99590144D01*
X180502482Y-99778175D01*
X180518981Y-99797199D01*
X180527453Y-99802532D01*
X180530489Y-99805493D01*
X180535367Y-99807513D01*
X180552161Y-99818085D01*
X180718195Y-99897961D01*
X180720966Y-99900732D01*
X180742467Y-99909638D01*
X180779255Y-99927336D01*
X180786424Y-99927845D01*
X180793062Y-99930595D01*
X180832080Y-99934438D01*
X181183093Y-99931226D01*
X181188019Y-99932868D01*
X181215265Y-99930931D01*
X181252051Y-99930595D01*
X181258688Y-99927845D01*
X181265858Y-99927336D01*
X181302476Y-99913323D01*
X181492531Y-99814644D01*
X181514623Y-99805494D01*
X181522316Y-99799179D01*
X181526132Y-99797199D01*
X181529592Y-99793208D01*
X181544931Y-99780621D01*
X181718264Y-99602912D01*
X181728365Y-99596852D01*
X181741605Y-99578981D01*
X181760279Y-99559837D01*
X181765969Y-99546098D01*
X181774822Y-99534151D01*
X181788014Y-99497230D01*
X181877171Y-99126607D01*
X181885380Y-99106789D01*
X181887765Y-99082564D01*
X181888986Y-99077493D01*
X181888552Y-99074579D01*
X181889223Y-99067771D01*
X181885661Y-98413726D01*
X181888986Y-98391382D01*
X181885407Y-98367182D01*
X181885380Y-98362086D01*
X181884251Y-98359360D01*
X181883251Y-98352597D01*
X181790142Y-97993765D01*
X181790142Y-97981134D01*
X181781368Y-97959951D01*
X181774822Y-97934724D01*
X181765969Y-97922776D01*
X181760279Y-97909038D01*
X181735407Y-97878731D01*
X181587472Y-97734438D01*
X182346366Y-97734438D01*
X182350209Y-99773456D01*
X182380072Y-99845552D01*
X182435252Y-99900732D01*
X182507348Y-99930595D01*
X182585384Y-99930595D01*
X182657480Y-99900732D01*
X182712660Y-99845552D01*
X182742523Y-99773456D01*
X182746366Y-99734438D01*
X182744212Y-98591580D01*
X183203509Y-98591580D01*
X183206765Y-98866726D01*
X183203746Y-98887017D01*
X183207288Y-98910981D01*
X183207352Y-98916313D01*
X183208479Y-98919035D01*
X183209480Y-98925802D01*
X183304490Y-99291958D01*
X183305849Y-99311072D01*
X183317034Y-99340302D01*
X183317910Y-99343675D01*
X183318769Y-99344834D01*
X183319862Y-99347690D01*
X183418540Y-99537746D01*
X183427691Y-99559837D01*
X183434005Y-99567530D01*
X183435986Y-99571346D01*
X183439976Y-99574806D01*
X183452563Y-99590144D01*
X183624451Y-99757801D01*
X183626462Y-99761823D01*
X183645518Y-99778350D01*
X183673346Y-99805493D01*
X183679985Y-99808243D01*
X183685415Y-99812952D01*
X183721216Y-99828937D01*
X184007376Y-99920744D01*
X184031158Y-99930595D01*
X184041146Y-99931578D01*
X184045162Y-99932867D01*
X184050427Y-99932492D01*
X184070176Y-99934438D01*
X184585384Y-99930595D01*
X184657480Y-99900732D01*
X184712660Y-99845552D01*
X184742523Y-99773456D01*
X184746366Y-99734438D01*
X184746319Y-99709423D01*
X185014604Y-99709423D01*
X185020135Y-99787263D01*
X185055034Y-99857061D01*
X185113987Y-99908190D01*
X185188018Y-99932867D01*
X185265858Y-99927336D01*
X185335656Y-99892437D01*
X185386785Y-99833484D01*
X185402770Y-99797684D01*
X185546981Y-99362452D01*
X186213799Y-99359868D01*
X186372614Y-99833484D01*
X186423743Y-99892437D01*
X186493541Y-99927336D01*
X186571381Y-99932868D01*
X186645412Y-99908190D01*
X186704365Y-99857061D01*
X186739264Y-99787263D01*
X186744795Y-99709424D01*
X186736103Y-99671193D01*
X186214406Y-98115390D01*
X186917795Y-98115390D01*
X186920828Y-98371700D01*
X186919365Y-98376090D01*
X186921182Y-98401669D01*
X186921638Y-98440122D01*
X186924387Y-98446759D01*
X186924897Y-98453929D01*
X186938910Y-98490547D01*
X187037590Y-98680607D01*
X187046739Y-98702693D01*
X187053052Y-98710385D01*
X187055034Y-98714203D01*
X187059025Y-98717664D01*
X187071611Y-98733001D01*
X187171817Y-98828870D01*
X187185648Y-98844818D01*
X187193944Y-98850040D01*
X187197156Y-98853113D01*
X187202038Y-98855135D01*
X187218828Y-98865704D01*
X187384862Y-98945580D01*
X187387633Y-98948351D01*
X187409134Y-98957257D01*
X187416579Y-98960838D01*
X186934722Y-99653914D01*
X186917842Y-99730103D01*
X186931404Y-99806952D01*
X186973342Y-99872761D01*
X187037271Y-99917511D01*
X187113460Y-99934391D01*
X187190309Y-99920829D01*
X187256118Y-99878891D01*
X187281641Y-99849131D01*
X187885760Y-98980200D01*
X188062998Y-98979349D01*
X188064495Y-99773456D01*
X188094358Y-99845552D01*
X188149538Y-99900732D01*
X188221634Y-99930595D01*
X188299670Y-99930595D01*
X188371766Y-99900732D01*
X188426946Y-99845552D01*
X188456809Y-99773456D01*
X188460652Y-99734438D01*
X188456809Y-97695420D01*
X188426946Y-97623324D01*
X188371766Y-97568144D01*
X188299670Y-97538281D01*
X188260652Y-97534438D01*
X187529575Y-97537945D01*
X187523762Y-97536008D01*
X187494099Y-97538116D01*
X187459729Y-97538281D01*
X187453091Y-97541030D01*
X187445922Y-97541540D01*
X187409305Y-97555552D01*
X187219246Y-97654232D01*
X187197157Y-97663382D01*
X187189463Y-97669695D01*
X187185648Y-97671677D01*
X187182186Y-97675668D01*
X187166850Y-97688255D01*
X187070987Y-97788454D01*
X187055034Y-97802291D01*
X187049809Y-97810590D01*
X187046739Y-97813800D01*
X187044717Y-97818679D01*
X187034148Y-97835471D01*
X186954271Y-98001505D01*
X186951501Y-98004276D01*
X186942594Y-98025777D01*
X186924897Y-98062565D01*
X186924387Y-98069734D01*
X186921638Y-98076372D01*
X186917795Y-98115390D01*
X186214406Y-98115390D01*
X186073578Y-97695413D01*
X186072598Y-97681613D01*
X186061524Y-97659466D01*
X186053452Y-97635392D01*
X186044090Y-97624597D01*
X186037699Y-97611815D01*
X186018753Y-97595384D01*
X186002323Y-97576439D01*
X185989540Y-97570047D01*
X185978746Y-97560686D01*
X185954959Y-97552757D01*
X185932525Y-97541540D01*
X185918269Y-97540527D01*
X185904715Y-97536009D01*
X185879702Y-97537786D01*
X185854685Y-97536009D01*
X185841127Y-97540528D01*
X185826875Y-97541541D01*
X185804445Y-97552755D01*
X185780654Y-97560686D01*
X185769859Y-97570047D01*
X185757077Y-97576439D01*
X185740646Y-97595384D01*
X185721701Y-97611815D01*
X185715309Y-97624597D01*
X185705948Y-97635392D01*
X185689963Y-97671193D01*
X185213512Y-99109118D01*
X185207352Y-99123991D01*
X185207352Y-99127710D01*
X185014604Y-99709423D01*
X184746319Y-99709423D01*
X184742523Y-97695420D01*
X184712660Y-97623324D01*
X184657480Y-97568144D01*
X184585384Y-97538281D01*
X184546366Y-97534438D01*
X184072768Y-97537970D01*
X184045162Y-97536009D01*
X184035304Y-97538250D01*
X184031158Y-97538281D01*
X184026277Y-97540302D01*
X184006931Y-97544701D01*
X183750182Y-97633519D01*
X183745443Y-97633519D01*
X183721433Y-97643464D01*
X183685415Y-97655924D01*
X183679986Y-97660631D01*
X183673347Y-97663382D01*
X183643040Y-97688254D01*
X183455010Y-97881029D01*
X183435986Y-97897529D01*
X183430652Y-97906001D01*
X183427691Y-97909038D01*
X183425669Y-97913917D01*
X183415100Y-97930709D01*
X183328242Y-98111254D01*
X183317910Y-98125200D01*
X183307449Y-98154475D01*
X183305849Y-98157803D01*
X183305746Y-98159241D01*
X183304718Y-98162121D01*
X183215560Y-98532743D01*
X183207352Y-98552562D01*
X183204966Y-98576786D01*
X183203746Y-98581858D01*
X183204179Y-98584771D01*
X183203509Y-98591580D01*
X182744212Y-98591580D01*
X182742523Y-97695420D01*
X182712660Y-97623324D01*
X182657480Y-97568144D01*
X182585384Y-97538281D01*
X182507348Y-97538281D01*
X182435252Y-97568144D01*
X182380072Y-97623324D01*
X182350209Y-97695420D01*
X182346366Y-97734438D01*
X181587472Y-97734438D01*
X181542631Y-97690701D01*
X181526132Y-97671677D01*
X181517659Y-97666343D01*
X181514623Y-97663382D01*
X181509743Y-97661360D01*
X181492952Y-97650791D01*
X181326917Y-97570914D01*
X181324147Y-97568144D01*
X181302645Y-97559237D01*
X181265858Y-97541540D01*
X181258688Y-97541030D01*
X181252051Y-97538281D01*
X181213033Y-97534438D01*
X180862020Y-97537649D01*
X180857095Y-97536008D01*
X180829848Y-97537944D01*
X180793062Y-97538281D01*
X180786424Y-97541030D01*
X180779255Y-97541540D01*
X180742638Y-97555552D01*
X180552579Y-97654232D01*
X180530490Y-97663382D01*
X180522796Y-97669696D01*
X180518981Y-97671677D01*
X180515520Y-97675666D01*
X180500183Y-97688254D01*
X180326847Y-97865964D01*
X180316748Y-97872024D01*
X180303509Y-97889891D01*
X180284834Y-97909038D01*
X180279143Y-97922776D01*
X180270291Y-97934724D01*
X180257099Y-97971645D01*
X180167941Y-98342267D01*
X180159733Y-98362086D01*
X180157347Y-98386310D01*
X180156127Y-98391382D01*
X180156560Y-98394295D01*
X180155890Y-98401104D01*
X177768846Y-98401104D01*
X177767301Y-98396535D01*
X177761741Y-98388757D01*
X177760279Y-98385228D01*
X177756556Y-98381505D01*
X177744500Y-98364641D01*
X177364128Y-97933123D01*
X178204431Y-97930595D01*
X178276527Y-97900732D01*
X178331707Y-97845552D01*
X178361570Y-97773456D01*
X178361570Y-97695420D01*
X178331707Y-97623324D01*
X178276527Y-97568144D01*
X178204431Y-97538281D01*
X178165413Y-97534438D01*
X176931881Y-97538149D01*
X176901434Y-97536120D01*
X176895104Y-97538260D01*
X176888300Y-97538281D01*
X176858288Y-97550712D01*
X176827512Y-97561121D01*
X176822435Y-97565562D01*
X176816204Y-97568144D01*
X176793232Y-97591116D01*
X176768784Y-97612508D01*
X176765794Y-97618553D01*
X176761024Y-97623324D01*
X176748591Y-97653339D01*
X176734191Y-97682458D01*
X176733742Y-97689188D01*
X176731161Y-97695420D01*
X176731161Y-97727907D01*
X176729000Y-97760322D01*
X176731161Y-97766711D01*
X176731161Y-97773456D01*
X176743592Y-97803467D01*
X176754001Y-97834244D01*
X176759562Y-97842022D01*
X176761024Y-97845552D01*
X176764746Y-97849274D01*
X176776803Y-97866139D01*
X177188505Y-98333199D01*
X177028773Y-98416134D01*
X177006679Y-98425286D01*
X176998984Y-98431601D01*
X176995171Y-98433581D01*
X176991711Y-98437569D01*
X176976372Y-98450159D01*
X176880512Y-98550357D01*
X176864557Y-98564196D01*
X176859331Y-98572497D01*
X176856262Y-98575706D01*
X176854242Y-98580582D01*
X176843671Y-98597376D01*
X176763794Y-98763410D01*
X176761024Y-98766181D01*
X176752117Y-98787682D01*
X176734420Y-98824470D01*
X176733910Y-98831639D01*
X176731161Y-98838277D01*
X176727318Y-98877295D01*
X176505096Y-98877295D01*
X176505096Y-97312216D01*
X188682874Y-97312216D01*
X188682874Y-100156660D01*
G37*
D12*
G36*
X186617765Y-110667503D02*
G01*
X186625235Y-110673311D01*
X186608016Y-110677252D01*
X186591648Y-110676111D01*
X186586835Y-110668777D01*
X186592545Y-110665579D01*
X186617765Y-110667503D01*
G37*
G36*
X176448285Y-107991678D02*
G01*
X176448285Y-108548412D01*
X176319187Y-108548412D01*
X176190089Y-108548412D01*
X176190089Y-107991678D01*
X176190089Y-107434943D01*
X176319187Y-107434943D01*
X176448285Y-107434943D01*
X176448285Y-107991678D01*
G37*
G36*
X175996442Y-107991678D02*
G01*
X175996442Y-108548412D01*
X175423570Y-108548412D01*
X174850699Y-108548412D01*
X174850699Y-108443520D01*
X174850699Y-108338628D01*
X175294473Y-108338628D01*
X175738246Y-108338628D01*
X175738246Y-107886786D01*
X175738246Y-107434943D01*
X175867344Y-107434943D01*
X175996442Y-107434943D01*
X175996442Y-107991678D01*
G37*
G36*
X175948030Y-108951843D02*
G01*
X175948030Y-109016392D01*
X175722109Y-109016392D01*
X175496188Y-109016392D01*
X175496188Y-109387548D01*
X175496188Y-109758704D01*
X175415502Y-109758704D01*
X175334816Y-109758704D01*
X175334816Y-109387548D01*
X175334816Y-109016392D01*
X175116963Y-109016392D01*
X174899110Y-109016392D01*
X174899110Y-108951843D01*
X174899110Y-108887294D01*
X175423570Y-108887294D01*
X175948030Y-108887294D01*
X175948030Y-108951843D01*
G37*
G36*
X184113469Y-108951843D02*
G01*
X184113469Y-109016392D01*
X183887548Y-109016392D01*
X183661626Y-109016392D01*
X183661626Y-109387548D01*
X183661626Y-109758704D01*
X183580940Y-109758704D01*
X183500254Y-109758704D01*
X183500254Y-109387548D01*
X183500254Y-109016392D01*
X183282401Y-109016392D01*
X183064549Y-109016392D01*
X183064549Y-108951843D01*
X183064549Y-108887294D01*
X183589009Y-108887294D01*
X184113469Y-108887294D01*
X184113469Y-108951843D01*
G37*
G36*
X188663794Y-108108892D02*
G01*
X188712061Y-108143971D01*
X188744754Y-108201159D01*
X188754641Y-108250120D01*
X188743459Y-108317252D01*
X188700712Y-108378369D01*
X188685469Y-108392180D01*
X188644492Y-108413460D01*
X188588108Y-108419314D01*
X188535205Y-108412491D01*
X188475068Y-108381326D01*
X188436023Y-108328500D01*
X188422109Y-108257942D01*
X188425513Y-108223460D01*
X188450224Y-108165851D01*
X188493169Y-108124399D01*
X188547586Y-108100296D01*
X188606715Y-108094730D01*
X188663794Y-108108892D01*
G37*
G36*
X190159216Y-109091976D02*
G01*
X190204498Y-109130652D01*
X190235065Y-109181965D01*
X190246914Y-109240394D01*
X190236042Y-109300418D01*
X190198446Y-109356515D01*
X190175505Y-109375426D01*
X190115352Y-109399727D01*
X190051076Y-109399594D01*
X189990834Y-109377351D01*
X189942781Y-109335320D01*
X189915074Y-109275823D01*
X189912264Y-109253597D01*
X189922733Y-109189175D01*
X189955355Y-109130079D01*
X190004247Y-109088653D01*
X190040520Y-109074623D01*
X190103223Y-109071459D01*
X190159216Y-109091976D01*
G37*
G36*
X188542966Y-109044670D02*
G01*
X188589603Y-109082338D01*
X188620990Y-109133208D01*
X188633235Y-109191588D01*
X188622444Y-109251784D01*
X188584723Y-109308103D01*
X188560893Y-109329498D01*
X188520341Y-109349974D01*
X188465894Y-109355274D01*
X188448860Y-109354538D01*
X188384561Y-109335945D01*
X188337072Y-109297315D01*
X188307779Y-109245359D01*
X188298073Y-109186791D01*
X188309341Y-109128321D01*
X188342974Y-109076664D01*
X188400359Y-109038532D01*
X188419517Y-109031712D01*
X188484973Y-109025897D01*
X188542966Y-109044670D01*
G37*
G36*
X189370786Y-109572004D02*
G01*
X189418823Y-109616026D01*
X189447097Y-109679262D01*
X189449630Y-109717088D01*
X189432598Y-109779658D01*
X189394630Y-109833222D01*
X189341931Y-109866720D01*
X189333003Y-109869756D01*
X189297586Y-109881619D01*
X189280898Y-109886891D01*
X189279695Y-109886791D01*
X189258985Y-109879853D01*
X189222493Y-109865301D01*
X189170649Y-109833214D01*
X189130048Y-109780204D01*
X189114194Y-109718134D01*
X189124701Y-109654323D01*
X189163180Y-109596091D01*
X189184833Y-109577705D01*
X189246117Y-109550596D01*
X189310659Y-109549445D01*
X189370786Y-109572004D01*
G37*
G36*
X192218996Y-106605757D02*
G01*
X192242986Y-106669949D01*
X192260296Y-106755618D01*
X192267429Y-106845818D01*
X192262496Y-106926621D01*
X192261853Y-106930541D01*
X192243228Y-107015830D01*
X192214882Y-107091976D01*
X192170750Y-107175426D01*
X192129132Y-107246723D01*
X192093785Y-107149106D01*
X192076147Y-107103755D01*
X192048165Y-107040294D01*
X192022782Y-106991055D01*
X192013092Y-106974208D01*
X191996300Y-106941909D01*
X191991816Y-106927771D01*
X192038597Y-106897021D01*
X192083315Y-106857532D01*
X192115993Y-106810333D01*
X192141926Y-106747311D01*
X192166411Y-106660356D01*
X192192757Y-106555464D01*
X192218996Y-106605757D01*
G37*
G36*
X179465947Y-107991678D02*
G01*
X179465947Y-108548412D01*
X178876938Y-108548412D01*
X178287929Y-108548412D01*
X178287929Y-108443520D01*
X178287929Y-108338628D01*
X178747840Y-108338628D01*
X179207751Y-108338628D01*
X179207751Y-108201462D01*
X179207751Y-108064295D01*
X178772046Y-108064295D01*
X178336340Y-108064295D01*
X178336340Y-107959403D01*
X178336340Y-107854511D01*
X178772046Y-107854511D01*
X179207751Y-107854511D01*
X179207751Y-107749619D01*
X179207751Y-107644727D01*
X178747840Y-107644727D01*
X178287929Y-107644727D01*
X178287929Y-107539835D01*
X178287929Y-107434943D01*
X178876938Y-107434943D01*
X179465947Y-107434943D01*
X179465947Y-107991678D01*
G37*
G36*
X182325978Y-107812064D02*
G01*
X182330305Y-108189184D01*
X182854765Y-107812907D01*
X183379225Y-107436629D01*
X183496220Y-107435786D01*
X183613215Y-107434943D01*
X183613215Y-107991678D01*
X183613215Y-108548412D01*
X183500531Y-108548412D01*
X183387848Y-108548412D01*
X183383536Y-108146980D01*
X183379225Y-107745549D01*
X182802488Y-108146980D01*
X182773264Y-108167316D01*
X182637844Y-108261345D01*
X182525737Y-108338677D01*
X182434382Y-108400913D01*
X182361223Y-108449655D01*
X182303698Y-108486504D01*
X182259249Y-108513061D01*
X182225318Y-108530930D01*
X182199344Y-108541710D01*
X182178769Y-108547003D01*
X182161033Y-108548412D01*
X182096315Y-108548412D01*
X182096315Y-107991678D01*
X182096315Y-107434943D01*
X182208984Y-107434943D01*
X182321652Y-107434943D01*
X182325978Y-107812064D01*
G37*
G36*
X178197124Y-107480910D02*
G01*
X178196482Y-107481911D01*
X178179485Y-107507874D01*
X178146971Y-107557143D01*
X178101123Y-107626427D01*
X178044122Y-107712433D01*
X177978150Y-107811869D01*
X177905388Y-107921443D01*
X177828018Y-108037865D01*
X177489136Y-108547588D01*
X177392170Y-108548000D01*
X177295205Y-108548412D01*
X176940328Y-108013607D01*
X176916777Y-107978110D01*
X176839887Y-107862141D01*
X176768920Y-107754989D01*
X176705865Y-107659664D01*
X176652711Y-107579180D01*
X176611447Y-107516545D01*
X176584062Y-107474773D01*
X176572546Y-107456873D01*
X176571553Y-107454999D01*
X176573157Y-107445020D01*
X176592556Y-107438886D01*
X176634567Y-107435795D01*
X176704005Y-107434943D01*
X176848368Y-107434943D01*
X177025303Y-107713310D01*
X177082994Y-107803974D01*
X177145339Y-107901759D01*
X177204399Y-107994212D01*
X177255505Y-108074025D01*
X177293990Y-108133892D01*
X177385742Y-108276107D01*
X177657085Y-107859559D01*
X177928428Y-107443012D01*
X178077889Y-107438346D01*
X178227349Y-107433680D01*
X178197124Y-107480910D01*
G37*
G36*
X185825623Y-109206004D02*
G01*
X185869146Y-109266440D01*
X185931534Y-109352911D01*
X185986965Y-109429549D01*
X186032470Y-109492259D01*
X186065081Y-109536947D01*
X186081832Y-109559516D01*
X186089009Y-109567919D01*
X186097955Y-109572934D01*
X186109541Y-109570064D01*
X186126082Y-109556693D01*
X186149897Y-109530207D01*
X186183303Y-109487990D01*
X186228617Y-109427428D01*
X186288157Y-109345905D01*
X186364238Y-109240806D01*
X186619786Y-108887294D01*
X186697949Y-108887294D01*
X186776112Y-108887294D01*
X186776112Y-109322999D01*
X186776112Y-109758704D01*
X186695790Y-109758704D01*
X186615467Y-109758704D01*
X186611069Y-109467035D01*
X186606671Y-109175365D01*
X186396887Y-109466539D01*
X186187103Y-109757713D01*
X186114485Y-109757713D01*
X186041868Y-109757713D01*
X185832084Y-109466539D01*
X185622300Y-109175365D01*
X185617901Y-109467035D01*
X185613503Y-109758704D01*
X185533181Y-109758704D01*
X185452859Y-109758704D01*
X185452859Y-109322999D01*
X185452859Y-108887294D01*
X185524566Y-108887294D01*
X185596274Y-108887294D01*
X185825623Y-109206004D01*
G37*
G36*
X189162668Y-108281994D02*
G01*
X189193495Y-108298041D01*
X189238570Y-108331191D01*
X189268074Y-108351766D01*
X189330662Y-108389788D01*
X189405543Y-108430826D01*
X189482278Y-108468981D01*
X189551400Y-108502828D01*
X189650687Y-108556381D01*
X189740942Y-108610624D01*
X189815203Y-108661296D01*
X189866504Y-108704134D01*
X189867588Y-108705236D01*
X189880834Y-108724772D01*
X189887955Y-108753960D01*
X189889894Y-108800286D01*
X189887598Y-108871232D01*
X189883372Y-108935521D01*
X189874878Y-108993844D01*
X189860246Y-109040223D01*
X189836832Y-109085831D01*
X189765378Y-109183444D01*
X189668347Y-109270626D01*
X189556940Y-109333799D01*
X189436904Y-109368894D01*
X189425812Y-109370572D01*
X189294174Y-109374573D01*
X189168109Y-109350558D01*
X189052164Y-109301027D01*
X188950883Y-109228481D01*
X188868812Y-109135419D01*
X188810496Y-109024341D01*
X188803890Y-109005403D01*
X188781020Y-108893459D01*
X188778342Y-108771321D01*
X188795326Y-108651160D01*
X188831440Y-108545147D01*
X188846455Y-108516949D01*
X188899193Y-108442415D01*
X188964291Y-108374290D01*
X189033584Y-108320408D01*
X189098906Y-108288599D01*
X189100671Y-108288072D01*
X189135317Y-108279767D01*
X189162668Y-108281994D01*
G37*
G36*
X177045362Y-109322999D02*
G01*
X177045362Y-109758704D01*
X176964676Y-109758704D01*
X176883990Y-109758704D01*
X176883990Y-109564615D01*
X176883990Y-109370525D01*
X176655669Y-109375002D01*
X176427348Y-109379479D01*
X176328890Y-109568739D01*
X176230432Y-109757999D01*
X176139868Y-109758352D01*
X176049304Y-109758704D01*
X176148898Y-109566691D01*
X176248493Y-109374678D01*
X176188206Y-109356616D01*
X176182788Y-109354852D01*
X176130481Y-109327384D01*
X176086386Y-109289195D01*
X176069858Y-109267681D01*
X176054007Y-109235306D01*
X176046652Y-109193258D01*
X176044854Y-109130291D01*
X176044855Y-109130223D01*
X176205825Y-109130223D01*
X176215380Y-109180965D01*
X176242091Y-109217192D01*
X176258190Y-109225482D01*
X176285437Y-109232438D01*
X176326802Y-109237263D01*
X176386822Y-109240293D01*
X176470033Y-109241864D01*
X176580973Y-109242313D01*
X176883990Y-109242313D01*
X176883990Y-109129352D01*
X176883990Y-109016392D01*
X176571815Y-109016392D01*
X176481782Y-109016547D01*
X176395537Y-109017386D01*
X176333302Y-109019316D01*
X176290500Y-109022734D01*
X176262556Y-109028038D01*
X176244892Y-109035628D01*
X176232933Y-109045903D01*
X176214135Y-109078221D01*
X176205825Y-109130223D01*
X176044855Y-109130223D01*
X176045017Y-109108799D01*
X176048867Y-109049813D01*
X176059667Y-109009191D01*
X176079838Y-108976269D01*
X176095417Y-108957612D01*
X176118458Y-108935974D01*
X176146270Y-108919270D01*
X176182783Y-108906868D01*
X176231925Y-108898138D01*
X176297623Y-108892446D01*
X176383807Y-108889163D01*
X176494405Y-108887656D01*
X176633344Y-108887294D01*
X177045362Y-108887294D01*
X177045362Y-109129352D01*
X177045362Y-109322999D01*
G37*
G36*
X181709022Y-109322999D02*
G01*
X181709022Y-109758704D01*
X181628335Y-109758704D01*
X181547649Y-109758704D01*
X181547649Y-109564615D01*
X181547649Y-109370525D01*
X181319328Y-109375002D01*
X181091008Y-109379479D01*
X180992550Y-109568739D01*
X180894091Y-109757999D01*
X180803528Y-109758352D01*
X180712964Y-109758704D01*
X180812558Y-109566691D01*
X180912152Y-109374678D01*
X180851865Y-109356616D01*
X180846447Y-109354852D01*
X180794141Y-109327384D01*
X180750046Y-109289195D01*
X180733517Y-109267681D01*
X180717666Y-109235306D01*
X180710312Y-109193258D01*
X180708513Y-109130291D01*
X180708514Y-109130223D01*
X180869485Y-109130223D01*
X180879040Y-109180965D01*
X180905751Y-109217192D01*
X180921850Y-109225482D01*
X180949096Y-109232438D01*
X180990461Y-109237263D01*
X181050481Y-109240293D01*
X181133693Y-109241864D01*
X181244632Y-109242313D01*
X181547649Y-109242313D01*
X181547649Y-109129352D01*
X181547649Y-109016392D01*
X181235474Y-109016392D01*
X181145441Y-109016547D01*
X181059196Y-109017386D01*
X180996961Y-109019316D01*
X180954160Y-109022734D01*
X180926215Y-109028038D01*
X180908552Y-109035628D01*
X180896592Y-109045903D01*
X180877795Y-109078221D01*
X180869485Y-109130223D01*
X180708514Y-109130223D01*
X180708676Y-109108799D01*
X180712527Y-109049813D01*
X180723326Y-109009191D01*
X180743497Y-108976269D01*
X180759077Y-108957612D01*
X180782117Y-108935974D01*
X180809930Y-108919270D01*
X180846443Y-108906868D01*
X180895584Y-108898138D01*
X180961283Y-108892446D01*
X181047467Y-108889163D01*
X181158064Y-108887656D01*
X181297004Y-108887294D01*
X181709022Y-108887294D01*
X181709022Y-109129352D01*
X181709022Y-109322999D01*
G37*
G36*
X179401398Y-109322999D02*
G01*
X179401398Y-109758704D01*
X179320711Y-109758704D01*
X179240025Y-109758704D01*
X179240025Y-109597332D01*
X179240025Y-109435960D01*
X178916762Y-109435960D01*
X178867943Y-109435887D01*
X178753851Y-109434686D01*
X178665816Y-109431395D01*
X178599293Y-109425220D01*
X178549735Y-109415366D01*
X178512592Y-109401042D01*
X178483320Y-109381453D01*
X178457370Y-109355807D01*
X178449477Y-109346114D01*
X178436961Y-109322391D01*
X178429547Y-109288682D01*
X178426003Y-109237567D01*
X178425095Y-109161627D01*
X178578399Y-109161627D01*
X178579062Y-109187474D01*
X178588294Y-109239540D01*
X178610673Y-109274587D01*
X178622169Y-109284605D01*
X178638866Y-109293364D01*
X178663749Y-109299477D01*
X178701635Y-109303413D01*
X178757341Y-109305642D01*
X178835686Y-109306635D01*
X178941487Y-109306862D01*
X179240025Y-109306862D01*
X179240025Y-109161627D01*
X179240025Y-109016392D01*
X178941487Y-109016392D01*
X178848666Y-109016552D01*
X178766786Y-109017410D01*
X178708215Y-109019439D01*
X178668136Y-109023109D01*
X178641731Y-109028891D01*
X178624183Y-109037253D01*
X178610673Y-109048666D01*
X178600600Y-109060399D01*
X178583466Y-109100611D01*
X178578399Y-109161627D01*
X178425095Y-109161627D01*
X178425267Y-109122801D01*
X178427246Y-109059312D01*
X178432433Y-109017203D01*
X178442064Y-108989054D01*
X178457370Y-108967447D01*
X178467935Y-108956048D01*
X178491528Y-108935061D01*
X178519252Y-108918809D01*
X178555126Y-108906694D01*
X178603170Y-108898119D01*
X178667405Y-108892488D01*
X178751850Y-108889205D01*
X178860524Y-108887672D01*
X178997449Y-108887294D01*
X179401398Y-108887294D01*
X179401398Y-109161627D01*
X179401398Y-109322999D01*
G37*
G36*
X184065057Y-107867421D02*
G01*
X184065493Y-108006585D01*
X184066912Y-108119725D01*
X184069414Y-108205224D01*
X184073100Y-108265420D01*
X184078069Y-108302653D01*
X184084422Y-108319263D01*
X184084918Y-108319693D01*
X184108863Y-108325909D01*
X184159378Y-108330987D01*
X184231115Y-108334929D01*
X184318726Y-108337735D01*
X184416864Y-108339404D01*
X184520182Y-108339936D01*
X184623330Y-108339332D01*
X184720963Y-108337592D01*
X184807731Y-108334714D01*
X184878288Y-108330701D01*
X184927286Y-108325550D01*
X184949377Y-108319263D01*
X184955589Y-108303309D01*
X184960591Y-108266619D01*
X184964308Y-108207025D01*
X184966838Y-108122187D01*
X184968283Y-108009765D01*
X184968742Y-107867421D01*
X184968742Y-107434943D01*
X185097840Y-107434943D01*
X185226938Y-107434943D01*
X185226938Y-107887304D01*
X185226653Y-108028326D01*
X185225451Y-108144649D01*
X185222835Y-108236114D01*
X185218312Y-108306476D01*
X185211388Y-108359486D01*
X185201567Y-108398898D01*
X185188357Y-108428465D01*
X185171262Y-108451940D01*
X185149788Y-108473076D01*
X185140664Y-108480199D01*
X185097907Y-108504359D01*
X185046704Y-108524885D01*
X185024190Y-108530468D01*
X184985259Y-108535969D01*
X184930977Y-108540001D01*
X184857961Y-108542679D01*
X184762831Y-108544118D01*
X184642202Y-108544434D01*
X184492694Y-108543741D01*
X184391241Y-108542969D01*
X184272769Y-108541739D01*
X184179958Y-108540119D01*
X184108934Y-108537856D01*
X184055825Y-108534698D01*
X184016757Y-108530392D01*
X183987857Y-108524687D01*
X183965252Y-108517330D01*
X183945069Y-108508069D01*
X183933309Y-108501641D01*
X183884736Y-108467233D01*
X183848246Y-108430266D01*
X183839749Y-108417574D01*
X183831895Y-108400964D01*
X183825783Y-108378520D01*
X183821135Y-108346467D01*
X183817676Y-108301026D01*
X183815130Y-108238420D01*
X183813221Y-108154872D01*
X183811672Y-108046605D01*
X183810207Y-107909841D01*
X183805484Y-107434943D01*
X183935271Y-107434943D01*
X184065057Y-107434943D01*
X184065057Y-107867421D01*
G37*
G36*
X181128081Y-108548412D02*
G01*
X180547935Y-108548412D01*
X180504358Y-108548399D01*
X180339913Y-108547961D01*
X180203762Y-108546655D01*
X180092687Y-108544147D01*
X180003476Y-108540098D01*
X179932911Y-108534172D01*
X179877779Y-108526034D01*
X179834865Y-108515345D01*
X179800953Y-108501771D01*
X179772828Y-108484975D01*
X179747275Y-108464619D01*
X179723122Y-108441492D01*
X179700653Y-108412441D01*
X179683998Y-108377328D01*
X179672428Y-108331789D01*
X179665209Y-108271460D01*
X179661611Y-108191978D01*
X179660903Y-108088980D01*
X179661878Y-108000836D01*
X179917789Y-108000836D01*
X179917838Y-108049781D01*
X179918471Y-108140700D01*
X179920205Y-108206289D01*
X179923497Y-108251376D01*
X179928804Y-108280791D01*
X179936586Y-108299363D01*
X179947300Y-108311921D01*
X179957833Y-108319183D01*
X179975681Y-108325589D01*
X180003572Y-108330439D01*
X180045212Y-108333942D01*
X180104304Y-108336304D01*
X180184554Y-108337734D01*
X180289667Y-108338439D01*
X180423348Y-108338628D01*
X180869886Y-108338628D01*
X180869886Y-107991678D01*
X180869886Y-107644727D01*
X180418958Y-107644727D01*
X180406094Y-107644727D01*
X180276485Y-107644799D01*
X180175100Y-107645194D01*
X180098215Y-107646193D01*
X180042108Y-107648078D01*
X180003054Y-107651128D01*
X179977331Y-107655624D01*
X179961214Y-107661846D01*
X179950982Y-107670075D01*
X179942910Y-107680592D01*
X179936492Y-107692033D01*
X179928778Y-107717423D01*
X179923418Y-107756305D01*
X179920045Y-107813374D01*
X179918292Y-107893320D01*
X179917789Y-108000836D01*
X179661878Y-108000836D01*
X179662351Y-107958102D01*
X179667662Y-107617919D01*
X179711128Y-107560977D01*
X179719843Y-107549605D01*
X179741214Y-107523323D01*
X179762983Y-107501755D01*
X179788338Y-107484405D01*
X179820466Y-107470779D01*
X179862554Y-107460382D01*
X179917791Y-107452720D01*
X179989364Y-107447297D01*
X180080460Y-107443619D01*
X180194267Y-107441191D01*
X180333972Y-107439518D01*
X180502764Y-107438106D01*
X181128081Y-107433200D01*
X181128081Y-107990806D01*
X181128081Y-107991678D01*
X181128081Y-108548412D01*
G37*
G36*
X180108585Y-108887460D02*
G01*
X180227042Y-108888568D01*
X180319940Y-108891268D01*
X180391207Y-108896192D01*
X180444771Y-108903971D01*
X180484561Y-108915237D01*
X180514505Y-108930621D01*
X180538532Y-108950755D01*
X180560569Y-108976269D01*
X180576566Y-109003502D01*
X180594207Y-109068134D01*
X180597421Y-109141929D01*
X180586208Y-109212210D01*
X180560569Y-109266298D01*
X180549090Y-109280201D01*
X180523028Y-109305336D01*
X180491753Y-109324218D01*
X180450756Y-109337717D01*
X180395530Y-109346702D01*
X180321568Y-109352044D01*
X180224363Y-109354611D01*
X180099407Y-109355274D01*
X180051696Y-109355299D01*
X179940265Y-109356045D01*
X179855958Y-109358825D01*
X179794996Y-109364965D01*
X179753596Y-109375790D01*
X179727978Y-109392625D01*
X179714361Y-109416795D01*
X179708964Y-109449625D01*
X179708005Y-109492440D01*
X179708032Y-109509199D01*
X179709458Y-109545164D01*
X179715583Y-109573143D01*
X179729854Y-109594139D01*
X179755718Y-109609154D01*
X179796622Y-109619190D01*
X179856013Y-109625251D01*
X179937338Y-109628339D01*
X180044043Y-109629457D01*
X180179575Y-109629607D01*
X180579415Y-109629607D01*
X180579415Y-109694155D01*
X180579415Y-109758704D01*
X180151261Y-109758704D01*
X180021628Y-109758440D01*
X179906303Y-109757174D01*
X179815907Y-109754303D01*
X179746593Y-109749226D01*
X179694514Y-109741343D01*
X179655824Y-109730053D01*
X179626676Y-109714754D01*
X179603222Y-109694847D01*
X179581617Y-109669729D01*
X179564256Y-109643038D01*
X179553273Y-109609932D01*
X179547994Y-109562755D01*
X179546633Y-109492440D01*
X179547850Y-109424985D01*
X179552892Y-109376876D01*
X179563551Y-109343287D01*
X179581617Y-109315151D01*
X179593096Y-109301249D01*
X179619157Y-109276114D01*
X179650433Y-109257232D01*
X179691430Y-109243732D01*
X179746655Y-109234747D01*
X179820617Y-109229405D01*
X179917822Y-109226838D01*
X180042778Y-109226176D01*
X180056144Y-109226172D01*
X180166971Y-109225670D01*
X180250400Y-109224110D01*
X180310841Y-109221179D01*
X180352702Y-109216568D01*
X180380391Y-109209964D01*
X180398315Y-109201055D01*
X180413314Y-109186780D01*
X180432270Y-109142300D01*
X180430580Y-109090997D01*
X180407473Y-109045903D01*
X180399533Y-109038528D01*
X180385328Y-109030960D01*
X180362952Y-109025331D01*
X180328387Y-109021360D01*
X180277617Y-109018762D01*
X180206625Y-109017257D01*
X180111393Y-109016561D01*
X179987905Y-109016392D01*
X179595044Y-109016392D01*
X179595044Y-108951843D01*
X179595044Y-108887294D01*
X180007062Y-108887294D01*
X180108585Y-108887460D01*
G37*
G36*
X174347594Y-108887460D02*
G01*
X174466051Y-108888568D01*
X174558949Y-108891268D01*
X174630216Y-108896192D01*
X174683780Y-108903971D01*
X174723570Y-108915237D01*
X174753514Y-108930621D01*
X174777541Y-108950755D01*
X174799578Y-108976269D01*
X174820622Y-109011369D01*
X174831537Y-109056114D01*
X174834562Y-109121284D01*
X174831657Y-109185454D01*
X174820916Y-109230477D01*
X174799578Y-109266298D01*
X174788098Y-109280201D01*
X174762037Y-109305336D01*
X174730762Y-109324218D01*
X174689765Y-109337717D01*
X174634539Y-109346702D01*
X174560577Y-109352044D01*
X174463372Y-109354611D01*
X174338416Y-109355274D01*
X174290705Y-109355299D01*
X174179273Y-109356045D01*
X174094967Y-109358825D01*
X174034005Y-109364965D01*
X173992605Y-109375790D01*
X173966987Y-109392625D01*
X173953370Y-109416795D01*
X173947973Y-109449625D01*
X173947014Y-109492440D01*
X173947041Y-109509199D01*
X173948467Y-109545164D01*
X173954592Y-109573143D01*
X173968863Y-109594139D01*
X173994727Y-109609154D01*
X174035631Y-109619190D01*
X174095022Y-109625251D01*
X174176346Y-109628339D01*
X174283052Y-109629457D01*
X174418584Y-109629607D01*
X174818424Y-109629607D01*
X174818424Y-109694155D01*
X174818424Y-109758704D01*
X174390269Y-109758704D01*
X174260637Y-109758440D01*
X174145312Y-109757174D01*
X174054916Y-109754303D01*
X173985602Y-109749226D01*
X173933523Y-109741343D01*
X173894833Y-109730053D01*
X173865685Y-109714754D01*
X173842231Y-109694847D01*
X173820625Y-109669729D01*
X173803265Y-109643038D01*
X173792281Y-109609932D01*
X173787003Y-109562755D01*
X173785642Y-109492440D01*
X173786859Y-109424985D01*
X173791901Y-109376876D01*
X173802560Y-109343287D01*
X173820625Y-109315151D01*
X173832105Y-109301249D01*
X173858166Y-109276114D01*
X173889441Y-109257232D01*
X173930438Y-109243732D01*
X173985664Y-109234747D01*
X174059626Y-109229405D01*
X174156831Y-109226838D01*
X174281787Y-109226176D01*
X174295153Y-109226172D01*
X174405980Y-109225670D01*
X174489409Y-109224110D01*
X174549850Y-109221179D01*
X174591711Y-109216568D01*
X174619400Y-109209964D01*
X174637324Y-109201055D01*
X174652323Y-109186780D01*
X174671279Y-109142300D01*
X174669589Y-109090997D01*
X174646482Y-109045903D01*
X174638542Y-109038528D01*
X174624337Y-109030960D01*
X174601961Y-109025331D01*
X174567396Y-109021360D01*
X174516626Y-109018762D01*
X174445634Y-109017257D01*
X174350402Y-109016561D01*
X174226914Y-109016392D01*
X173834053Y-109016392D01*
X173834053Y-108951843D01*
X173834053Y-108887294D01*
X174246071Y-108887294D01*
X174347594Y-108887460D01*
G37*
G36*
X178304066Y-109322999D02*
G01*
X178304066Y-109327378D01*
X178303847Y-109432729D01*
X178302874Y-109510965D01*
X178300644Y-109567065D01*
X178296656Y-109606007D01*
X178290408Y-109632770D01*
X178281399Y-109652332D01*
X178269126Y-109669673D01*
X178230601Y-109706805D01*
X178184405Y-109735767D01*
X178168159Y-109741004D01*
X178129932Y-109747392D01*
X178072301Y-109752127D01*
X177992053Y-109755375D01*
X177885973Y-109757302D01*
X177750848Y-109758073D01*
X177676796Y-109758242D01*
X177543034Y-109757961D01*
X177436848Y-109754751D01*
X177355062Y-109746105D01*
X177294494Y-109729520D01*
X177251967Y-109702490D01*
X177224301Y-109662510D01*
X177208317Y-109607076D01*
X177200836Y-109533683D01*
X177198678Y-109439826D01*
X177198666Y-109322999D01*
X177198613Y-109269007D01*
X177198836Y-109227821D01*
X177351533Y-109227821D01*
X177351969Y-109322999D01*
X177351970Y-109327257D01*
X177352345Y-109420442D01*
X177353862Y-109487051D01*
X177357165Y-109532564D01*
X177362900Y-109562461D01*
X177371712Y-109582224D01*
X177384244Y-109597332D01*
X177388651Y-109601554D01*
X177402177Y-109611353D01*
X177421064Y-109618566D01*
X177449796Y-109623588D01*
X177492861Y-109626810D01*
X177554742Y-109628625D01*
X177639927Y-109629427D01*
X177752899Y-109629607D01*
X177766912Y-109629604D01*
X177877066Y-109629326D01*
X177959816Y-109628330D01*
X178019547Y-109626258D01*
X178060645Y-109622756D01*
X178087494Y-109617465D01*
X178104479Y-109610031D01*
X178115987Y-109600096D01*
X178122127Y-109592009D01*
X178130832Y-109571496D01*
X178136753Y-109539172D01*
X178140379Y-109489922D01*
X178142196Y-109418634D01*
X178142694Y-109320195D01*
X178142356Y-109227285D01*
X178140924Y-109156654D01*
X178137845Y-109108120D01*
X178132565Y-109076485D01*
X178124529Y-109056544D01*
X178113183Y-109043099D01*
X178104815Y-109036881D01*
X178086457Y-109029286D01*
X178057600Y-109023790D01*
X178013890Y-109020073D01*
X177950972Y-109017814D01*
X177864492Y-109016694D01*
X177750095Y-109016392D01*
X177718258Y-109016353D01*
X177601713Y-109016050D01*
X177512807Y-109017658D01*
X177447821Y-109024040D01*
X177403037Y-109038062D01*
X177374735Y-109062587D01*
X177359197Y-109100478D01*
X177352702Y-109154602D01*
X177351533Y-109227821D01*
X177198836Y-109227821D01*
X177199190Y-109162291D01*
X177203327Y-109077560D01*
X177214215Y-109012283D01*
X177235042Y-108963927D01*
X177268998Y-108929959D01*
X177319272Y-108907846D01*
X177389053Y-108895055D01*
X177481530Y-108889055D01*
X177599893Y-108887312D01*
X177747332Y-108887294D01*
X177804971Y-108887284D01*
X177942599Y-108887917D01*
X178052279Y-108891475D01*
X178137183Y-108900441D01*
X178200480Y-108917294D01*
X178245341Y-108944516D01*
X178274936Y-108984588D01*
X178292436Y-109039991D01*
X178301011Y-109113207D01*
X178303831Y-109206716D01*
X178304060Y-109320195D01*
X178304066Y-109322999D01*
G37*
G36*
X182983863Y-109322999D02*
G01*
X182983863Y-109327378D01*
X182983644Y-109432729D01*
X182982670Y-109510965D01*
X182980441Y-109567065D01*
X182976453Y-109606007D01*
X182970205Y-109632770D01*
X182961195Y-109652332D01*
X182948923Y-109669673D01*
X182910398Y-109706805D01*
X182864202Y-109735767D01*
X182847956Y-109741004D01*
X182809729Y-109747392D01*
X182752098Y-109752127D01*
X182671849Y-109755375D01*
X182565770Y-109757302D01*
X182430644Y-109758073D01*
X182356593Y-109758242D01*
X182222830Y-109757961D01*
X182116645Y-109754751D01*
X182034858Y-109746105D01*
X181974291Y-109729520D01*
X181931764Y-109702490D01*
X181904098Y-109662510D01*
X181888114Y-109607076D01*
X181880632Y-109533683D01*
X181878475Y-109439826D01*
X181878462Y-109322999D01*
X181878410Y-109269007D01*
X181878633Y-109227821D01*
X182031329Y-109227821D01*
X182031766Y-109322999D01*
X182031766Y-109327257D01*
X182032141Y-109420442D01*
X182033658Y-109487051D01*
X182036962Y-109532564D01*
X182042697Y-109562461D01*
X182051508Y-109582224D01*
X182064041Y-109597332D01*
X182068447Y-109601554D01*
X182081973Y-109611353D01*
X182100860Y-109618566D01*
X182129593Y-109623588D01*
X182172658Y-109626810D01*
X182234539Y-109628625D01*
X182319723Y-109629427D01*
X182432696Y-109629607D01*
X182446709Y-109629604D01*
X182556863Y-109629326D01*
X182639613Y-109628330D01*
X182699344Y-109626258D01*
X182740442Y-109622756D01*
X182767291Y-109617465D01*
X182784276Y-109610031D01*
X182795783Y-109600096D01*
X182801923Y-109592009D01*
X182810628Y-109571496D01*
X182816550Y-109539172D01*
X182820175Y-109489922D01*
X182821993Y-109418634D01*
X182822490Y-109320195D01*
X182822152Y-109227285D01*
X182820721Y-109156654D01*
X182817642Y-109108120D01*
X182812361Y-109076485D01*
X182804325Y-109056544D01*
X182792980Y-109043099D01*
X182784611Y-109036881D01*
X182766254Y-109029286D01*
X182737397Y-109023790D01*
X182693687Y-109020073D01*
X182630769Y-109017814D01*
X182544288Y-109016694D01*
X182429892Y-109016392D01*
X182398054Y-109016353D01*
X182281509Y-109016050D01*
X182192603Y-109017658D01*
X182127618Y-109024040D01*
X182082834Y-109038062D01*
X182054532Y-109062587D01*
X182038993Y-109100478D01*
X182032499Y-109154602D01*
X182031329Y-109227821D01*
X181878633Y-109227821D01*
X181878987Y-109162291D01*
X181883124Y-109077560D01*
X181894012Y-109012283D01*
X181914839Y-108963927D01*
X181948795Y-108929959D01*
X181999068Y-108907846D01*
X182068849Y-108895055D01*
X182161327Y-108889055D01*
X182279690Y-108887312D01*
X182427128Y-108887294D01*
X182484768Y-108887284D01*
X182622396Y-108887917D01*
X182732076Y-108891475D01*
X182816980Y-108900441D01*
X182880277Y-108917294D01*
X182925138Y-108944516D01*
X182954733Y-108984588D01*
X182972233Y-109039991D01*
X182980807Y-109113207D01*
X182983627Y-109206716D01*
X182983857Y-109320195D01*
X182983863Y-109322999D01*
G37*
G36*
X185291487Y-109322999D02*
G01*
X185291486Y-109327378D01*
X185291268Y-109432729D01*
X185290294Y-109510965D01*
X185288064Y-109567065D01*
X185284077Y-109606007D01*
X185277829Y-109632770D01*
X185268819Y-109652332D01*
X185256546Y-109669673D01*
X185218022Y-109706805D01*
X185171826Y-109735767D01*
X185155580Y-109741004D01*
X185117353Y-109747392D01*
X185059722Y-109752127D01*
X184979473Y-109755375D01*
X184873393Y-109757302D01*
X184738268Y-109758073D01*
X184664217Y-109758242D01*
X184530454Y-109757961D01*
X184424269Y-109754751D01*
X184342482Y-109746105D01*
X184281915Y-109729520D01*
X184239388Y-109702490D01*
X184211722Y-109662510D01*
X184195737Y-109607076D01*
X184188256Y-109533683D01*
X184186099Y-109439826D01*
X184186086Y-109322999D01*
X184186034Y-109269007D01*
X184186256Y-109227821D01*
X184338953Y-109227821D01*
X184339390Y-109322999D01*
X184339390Y-109327257D01*
X184339765Y-109420442D01*
X184341282Y-109487051D01*
X184344586Y-109532564D01*
X184350321Y-109562461D01*
X184359132Y-109582224D01*
X184371664Y-109597332D01*
X184376071Y-109601554D01*
X184389597Y-109611353D01*
X184408484Y-109618566D01*
X184437217Y-109623588D01*
X184480281Y-109626810D01*
X184542163Y-109628625D01*
X184627347Y-109629427D01*
X184740320Y-109629607D01*
X184754333Y-109629604D01*
X184864487Y-109629326D01*
X184947237Y-109628330D01*
X185006968Y-109626258D01*
X185048065Y-109622756D01*
X185074914Y-109617465D01*
X185091900Y-109610031D01*
X185103407Y-109600096D01*
X185109547Y-109592009D01*
X185118252Y-109571496D01*
X185124174Y-109539172D01*
X185127799Y-109489922D01*
X185129617Y-109418634D01*
X185130114Y-109320195D01*
X185129776Y-109227285D01*
X185128345Y-109156654D01*
X185125266Y-109108120D01*
X185119985Y-109076485D01*
X185111949Y-109056544D01*
X185100603Y-109043099D01*
X185092235Y-109036881D01*
X185073878Y-109029286D01*
X185045021Y-109023790D01*
X185001311Y-109020073D01*
X184938393Y-109017814D01*
X184851912Y-109016694D01*
X184737516Y-109016392D01*
X184705678Y-109016353D01*
X184589133Y-109016050D01*
X184500227Y-109017658D01*
X184435242Y-109024040D01*
X184390458Y-109038062D01*
X184362156Y-109062587D01*
X184346617Y-109100478D01*
X184340123Y-109154602D01*
X184338953Y-109227821D01*
X184186256Y-109227821D01*
X184186610Y-109162291D01*
X184190748Y-109077560D01*
X184201636Y-109012283D01*
X184222463Y-108963927D01*
X184256418Y-108929959D01*
X184306692Y-108907846D01*
X184376473Y-108895055D01*
X184468951Y-108889055D01*
X184587314Y-108887312D01*
X184734752Y-108887294D01*
X184792392Y-108887284D01*
X184930020Y-108887917D01*
X185039700Y-108891475D01*
X185124604Y-108900441D01*
X185187901Y-108917294D01*
X185232762Y-108944516D01*
X185262357Y-108984588D01*
X185279857Y-109039991D01*
X185288431Y-109113207D01*
X185291251Y-109206716D01*
X185291481Y-109320195D01*
X185291487Y-109322999D01*
G37*
G36*
X186013628Y-107438199D02*
G01*
X186109122Y-107439047D01*
X186241156Y-107440431D01*
X186346619Y-107442001D01*
X186429049Y-107443974D01*
X186491984Y-107446567D01*
X186538961Y-107449995D01*
X186573516Y-107454476D01*
X186599188Y-107460225D01*
X186619514Y-107467459D01*
X186638030Y-107476394D01*
X186666108Y-107492178D01*
X186715985Y-107530790D01*
X186747798Y-107578336D01*
X186765592Y-107642413D01*
X186773413Y-107730619D01*
X186774080Y-107748011D01*
X186774905Y-107810925D01*
X186770817Y-107853626D01*
X186760125Y-107885911D01*
X186741138Y-107917576D01*
X186737305Y-107923119D01*
X186707749Y-107961065D01*
X186675235Y-107991612D01*
X186636101Y-108015544D01*
X186586685Y-108033647D01*
X186523325Y-108046706D01*
X186442358Y-108055506D01*
X186340123Y-108060832D01*
X186212957Y-108063469D01*
X186057198Y-108064202D01*
X185997702Y-108064316D01*
X185878166Y-108065421D01*
X185787557Y-108067791D01*
X185723533Y-108071543D01*
X185683752Y-108076794D01*
X185665870Y-108083660D01*
X185663719Y-108086436D01*
X185654307Y-108117034D01*
X185648387Y-108166308D01*
X185646432Y-108222950D01*
X185648913Y-108275651D01*
X185656301Y-108313102D01*
X185660042Y-108318559D01*
X185671096Y-108324476D01*
X185692065Y-108329122D01*
X185726144Y-108332646D01*
X185776525Y-108335196D01*
X185846404Y-108336920D01*
X185938975Y-108337968D01*
X186057431Y-108338488D01*
X186204967Y-108338628D01*
X186743837Y-108338628D01*
X186743837Y-108444280D01*
X186743837Y-108549933D01*
X186166931Y-108545138D01*
X186046598Y-108544092D01*
X185916798Y-108542725D01*
X185813109Y-108541152D01*
X185732056Y-108539166D01*
X185670162Y-108536559D01*
X185623950Y-108533124D01*
X185589944Y-108528654D01*
X185564666Y-108522942D01*
X185544641Y-108515780D01*
X185526391Y-108506962D01*
X185489827Y-108486338D01*
X185448878Y-108455013D01*
X185421799Y-108417302D01*
X185405849Y-108366766D01*
X185398290Y-108296966D01*
X185396379Y-108201462D01*
X185397169Y-108134311D01*
X185402562Y-108056742D01*
X185415441Y-108000562D01*
X185438545Y-107959331D01*
X185474615Y-107926611D01*
X185526391Y-107895962D01*
X185532134Y-107893013D01*
X185553534Y-107883615D01*
X185578549Y-107876195D01*
X185611271Y-107870420D01*
X185655796Y-107865956D01*
X185716217Y-107862467D01*
X185796629Y-107859620D01*
X185901125Y-107857079D01*
X186033799Y-107854511D01*
X186041323Y-107854373D01*
X186157990Y-107851751D01*
X186264249Y-107848514D01*
X186355727Y-107844859D01*
X186428050Y-107840988D01*
X186476847Y-107837097D01*
X186497745Y-107833387D01*
X186506407Y-107821976D01*
X186515403Y-107785176D01*
X186517134Y-107737819D01*
X186511538Y-107693069D01*
X186498551Y-107664092D01*
X186490846Y-107660234D01*
X186463257Y-107655152D01*
X186414739Y-107651179D01*
X186343024Y-107648233D01*
X186245844Y-107646230D01*
X186120933Y-107645089D01*
X185966023Y-107644727D01*
X185452859Y-107644727D01*
X185452859Y-107539057D01*
X185452859Y-107433386D01*
X186013628Y-107438199D01*
G37*
G36*
X191592485Y-106243556D02*
G01*
X191683807Y-106253633D01*
X191771342Y-106274245D01*
X191870471Y-106308203D01*
X191964231Y-106343617D01*
X191860643Y-106364887D01*
X191725317Y-106404239D01*
X191591106Y-106472709D01*
X191476603Y-106566720D01*
X191381708Y-106686337D01*
X191381606Y-106686497D01*
X191358223Y-106728169D01*
X191332526Y-106782227D01*
X191306729Y-106842691D01*
X191283047Y-106903584D01*
X191263692Y-106958929D01*
X191250878Y-107002748D01*
X191246820Y-107029063D01*
X191253731Y-107031896D01*
X191260682Y-107023571D01*
X191278068Y-106988163D01*
X191293522Y-106940101D01*
X191323227Y-106849387D01*
X191375055Y-106758078D01*
X191449855Y-106678091D01*
X191479173Y-106653117D01*
X191532185Y-106615979D01*
X191576175Y-106601723D01*
X191618903Y-106608847D01*
X191668131Y-106635849D01*
X191717531Y-106672922D01*
X191792195Y-106740375D01*
X191867881Y-106819217D01*
X191935713Y-106900042D01*
X191986814Y-106973448D01*
X192024369Y-107045030D01*
X192070810Y-107156464D01*
X192112481Y-107280654D01*
X192145806Y-107406700D01*
X192167213Y-107523698D01*
X192173267Y-107583955D01*
X192177320Y-107669480D01*
X192177449Y-107757430D01*
X192173974Y-107840881D01*
X192167222Y-107912910D01*
X192157515Y-107966593D01*
X192145177Y-107995008D01*
X192129716Y-108003594D01*
X192100867Y-108000596D01*
X192052986Y-107981812D01*
X192023333Y-107969058D01*
X191933995Y-107934624D01*
X191826393Y-107897112D01*
X191709831Y-107859462D01*
X191593613Y-107824619D01*
X191487044Y-107795524D01*
X191399428Y-107775120D01*
X191337048Y-107763189D01*
X191176126Y-107737754D01*
X191019557Y-107720259D01*
X190871804Y-107710799D01*
X190737331Y-107709467D01*
X190620600Y-107716358D01*
X190526076Y-107731568D01*
X190458222Y-107755190D01*
X190399170Y-107797929D01*
X190357855Y-107858188D01*
X190334319Y-107939149D01*
X190326657Y-108045007D01*
X190326302Y-108162885D01*
X190540121Y-108377102D01*
X190559632Y-108396546D01*
X190729850Y-108556461D01*
X190892480Y-108690360D01*
X191052176Y-108801517D01*
X191213589Y-108893201D01*
X191381370Y-108968685D01*
X191442272Y-108992396D01*
X191484478Y-109006059D01*
X191514980Y-109009907D01*
X191543037Y-109005068D01*
X191577905Y-108992674D01*
X191604383Y-108981051D01*
X191664200Y-108948206D01*
X191720059Y-108910603D01*
X191735218Y-108899435D01*
X191798655Y-108864332D01*
X191852256Y-108857209D01*
X191899856Y-108877357D01*
X191909785Y-108885747D01*
X191916545Y-108897747D01*
X191918164Y-108917150D01*
X191913981Y-108948708D01*
X191903337Y-108997168D01*
X191885570Y-109067280D01*
X191860020Y-109163793D01*
X191842116Y-109229710D01*
X191818827Y-109311697D01*
X191798413Y-109379389D01*
X191782596Y-109427131D01*
X191773098Y-109449271D01*
X191768856Y-109453863D01*
X191738382Y-109478576D01*
X191686173Y-109515677D01*
X191616902Y-109562131D01*
X191535244Y-109614903D01*
X191445872Y-109670956D01*
X191353460Y-109727256D01*
X191262682Y-109780766D01*
X191249779Y-109788187D01*
X191179699Y-109827142D01*
X191118911Y-109858786D01*
X191073550Y-109880034D01*
X191049752Y-109887802D01*
X191041411Y-109885862D01*
X191009612Y-109864599D01*
X190967291Y-109824782D01*
X190919578Y-109772543D01*
X190871597Y-109714012D01*
X190828475Y-109655321D01*
X190795340Y-109602601D01*
X190777317Y-109561983D01*
X190773353Y-109547722D01*
X190755503Y-109494710D01*
X190732011Y-109445169D01*
X190699302Y-109393985D01*
X190653805Y-109336038D01*
X190591945Y-109266213D01*
X190510149Y-109179393D01*
X190350171Y-109019409D01*
X190140706Y-108832347D01*
X189929461Y-108670184D01*
X189711433Y-108529155D01*
X189481618Y-108405495D01*
X189473447Y-108401487D01*
X189384769Y-108356582D01*
X189316932Y-108318256D01*
X189261689Y-108280990D01*
X189210794Y-108239264D01*
X189156002Y-108187561D01*
X189128610Y-108159771D01*
X189078923Y-108104346D01*
X189042971Y-108057125D01*
X189025995Y-108024675D01*
X189023609Y-107993175D01*
X189025620Y-107936498D01*
X189031778Y-107863806D01*
X189041558Y-107783242D01*
X189069752Y-107605906D01*
X189104916Y-107428021D01*
X189144984Y-107259723D01*
X189188670Y-107105544D01*
X189234685Y-106970013D01*
X189281744Y-106857660D01*
X189328559Y-106773014D01*
X189390925Y-106689872D01*
X189514441Y-106564356D01*
X189658927Y-106456371D01*
X189818536Y-106370033D01*
X189987420Y-106309454D01*
X190005440Y-106305134D01*
X190083974Y-106293112D01*
X190185278Y-106284778D01*
X190302203Y-106280118D01*
X190427601Y-106279116D01*
X190554322Y-106281755D01*
X190675218Y-106288022D01*
X190783138Y-106297900D01*
X190870934Y-106311373D01*
X190908714Y-106319223D01*
X190966046Y-106332021D01*
X191005512Y-106342034D01*
X191020203Y-106347586D01*
X191014878Y-106354606D01*
X190990906Y-106380377D01*
X190952060Y-106420110D01*
X190903208Y-106468766D01*
X190786213Y-106583976D01*
X190899650Y-106480965D01*
X190980927Y-106412348D01*
X191100445Y-106332906D01*
X191222691Y-106279771D01*
X191354742Y-106250133D01*
X191503676Y-106241183D01*
X191592485Y-106243556D01*
G37*
G36*
X190185122Y-110572564D02*
G01*
X189986988Y-110651987D01*
X189947286Y-110665238D01*
X189898930Y-110681089D01*
X189854120Y-110694806D01*
X189810298Y-110706563D01*
X189764905Y-110716535D01*
X189715383Y-110724898D01*
X189659173Y-110731827D01*
X189593717Y-110737497D01*
X189516456Y-110742082D01*
X189424831Y-110745759D01*
X189316285Y-110748702D01*
X189188258Y-110751086D01*
X189038193Y-110753086D01*
X188863530Y-110754878D01*
X188661711Y-110756636D01*
X188430178Y-110758536D01*
X188159245Y-110760748D01*
X187862572Y-110763138D01*
X187595537Y-110765246D01*
X187356703Y-110767077D01*
X187144633Y-110768637D01*
X186957890Y-110769935D01*
X186795036Y-110770974D01*
X186654635Y-110771764D01*
X186535249Y-110772308D01*
X186435440Y-110772615D01*
X186353773Y-110772690D01*
X186288809Y-110772540D01*
X186239111Y-110772171D01*
X186203243Y-110771590D01*
X186179767Y-110770803D01*
X186167245Y-110769816D01*
X186164242Y-110768636D01*
X186165146Y-110768347D01*
X186188194Y-110765676D01*
X186240143Y-110761081D01*
X186318250Y-110754766D01*
X186419770Y-110746939D01*
X186541961Y-110737804D01*
X186682078Y-110727568D01*
X186837378Y-110716435D01*
X187005117Y-110704612D01*
X187182552Y-110692304D01*
X187221316Y-110689632D01*
X187396417Y-110677462D01*
X187560926Y-110665863D01*
X187712141Y-110655038D01*
X187847362Y-110645187D01*
X187963887Y-110636510D01*
X188059015Y-110629208D01*
X188130046Y-110623481D01*
X188174278Y-110619531D01*
X188189010Y-110617557D01*
X188184232Y-110617147D01*
X188152254Y-110617280D01*
X188093130Y-110618555D01*
X188010230Y-110620867D01*
X187906922Y-110624114D01*
X187786574Y-110628192D01*
X187652556Y-110632999D01*
X187508236Y-110638430D01*
X187455708Y-110640444D01*
X187260968Y-110647718D01*
X187097914Y-110653364D01*
X186966099Y-110657262D01*
X186865078Y-110659291D01*
X186794405Y-110659332D01*
X186753633Y-110657264D01*
X186742317Y-110652967D01*
X186760012Y-110646320D01*
X186806270Y-110637204D01*
X186880646Y-110625497D01*
X186982695Y-110611081D01*
X187111970Y-110593833D01*
X187268024Y-110573634D01*
X187314027Y-110567708D01*
X187447144Y-110550252D01*
X187567236Y-110534048D01*
X187671134Y-110519555D01*
X187755674Y-110507230D01*
X187817688Y-110497532D01*
X187854009Y-110490917D01*
X187861471Y-110487845D01*
X187846098Y-110487349D01*
X187800421Y-110488418D01*
X187730911Y-110491322D01*
X187642436Y-110495827D01*
X187539867Y-110501699D01*
X187428071Y-110508703D01*
X187343211Y-110514094D01*
X187241569Y-110520124D01*
X187154426Y-110524808D01*
X187086207Y-110527928D01*
X187041337Y-110529265D01*
X187024240Y-110528603D01*
X187033133Y-110524142D01*
X187067737Y-110514310D01*
X187122608Y-110500965D01*
X187191649Y-110485672D01*
X187222077Y-110478975D01*
X187940847Y-110478975D01*
X187954130Y-110484880D01*
X187962673Y-110483715D01*
X187964888Y-110474122D01*
X187962522Y-110472190D01*
X187943371Y-110474122D01*
X187940847Y-110478975D01*
X187222077Y-110478975D01*
X187258925Y-110470865D01*
X187343003Y-110451521D01*
X187436780Y-110429333D01*
X187535116Y-110405577D01*
X187632871Y-110381528D01*
X187724905Y-110358465D01*
X187806077Y-110337662D01*
X187871248Y-110320396D01*
X187915276Y-110307944D01*
X187933022Y-110301583D01*
X187932472Y-110298668D01*
X187916581Y-110278333D01*
X187883918Y-110243748D01*
X187839499Y-110200342D01*
X187710244Y-110062611D01*
X187575957Y-109876898D01*
X187464585Y-109669757D01*
X187376868Y-109442601D01*
X187313547Y-109196842D01*
X187302567Y-109131590D01*
X187292964Y-109038400D01*
X187287747Y-108927008D01*
X187286456Y-108790471D01*
X187287498Y-108698949D01*
X187292507Y-108579322D01*
X187302937Y-108475945D01*
X187320253Y-108379212D01*
X187345919Y-108279514D01*
X187381397Y-108167244D01*
X187416856Y-108070995D01*
X187519875Y-107855509D01*
X187649824Y-107652238D01*
X187803627Y-107464318D01*
X187978207Y-107294886D01*
X188170488Y-107147079D01*
X188377394Y-107024034D01*
X188595848Y-106928888D01*
X188629347Y-106917453D01*
X188729079Y-106888371D01*
X188838048Y-106862241D01*
X188946361Y-106841079D01*
X189044126Y-106826902D01*
X189121449Y-106821729D01*
X189210572Y-106821729D01*
X189172962Y-106914518D01*
X189170182Y-106921413D01*
X189115332Y-107075520D01*
X189069499Y-107243805D01*
X189030236Y-107435184D01*
X188994981Y-107632483D01*
X188873952Y-107675244D01*
X188836641Y-107689126D01*
X188667432Y-107771423D01*
X188517858Y-107876498D01*
X188388856Y-108001313D01*
X188281361Y-108142831D01*
X188196309Y-108298015D01*
X188134636Y-108463828D01*
X188097278Y-108637234D01*
X188085171Y-108815194D01*
X188099251Y-108994671D01*
X188140454Y-109172630D01*
X188209715Y-109346032D01*
X188307971Y-109511840D01*
X188422062Y-109652549D01*
X188566996Y-109784845D01*
X188729101Y-109890913D01*
X188906428Y-109969902D01*
X189097026Y-110020963D01*
X189298944Y-110043245D01*
X189510232Y-110035898D01*
X189565017Y-110029460D01*
X189760752Y-109992443D01*
X189933269Y-109935397D01*
X190084928Y-109857392D01*
X190218091Y-109757501D01*
X190289317Y-109684499D01*
X190366334Y-109587015D01*
X190435064Y-109481970D01*
X190486771Y-109381587D01*
X190495265Y-109362246D01*
X190513836Y-109327627D01*
X190529949Y-109315917D01*
X190549450Y-109321515D01*
X190589807Y-109352436D01*
X190639056Y-109415311D01*
X190681736Y-109497838D01*
X190713573Y-109592948D01*
X190720711Y-109615096D01*
X190757690Y-109681577D01*
X190821815Y-109759501D01*
X190912842Y-109857820D01*
X190871710Y-109941395D01*
X190793178Y-110075008D01*
X190675527Y-110221001D01*
X190532737Y-110354383D01*
X190368153Y-110472466D01*
X190365125Y-110474122D01*
X190185122Y-110572564D01*
G37*
%LPC*%
D13*
X161950000Y-116500000D03*
D14*
X161950000Y-114000000D03*
D15*
X131000000Y-108960000D03*
X131000000Y-106420000D03*
X131000000Y-103880000D03*
X131000000Y-101340000D03*
X131000000Y-98800000D03*
X131000000Y-96260000D03*
X131000000Y-93720000D03*
X131000000Y-91180000D03*
X131000000Y-88640000D03*
X105600000Y-108960000D03*
X105600000Y-106420000D03*
X105600000Y-103880000D03*
X105600000Y-101340000D03*
X105600000Y-98800000D03*
D16*
X162750000Y-134000000D03*
D17*
X143000000Y-111725000D03*
D18*
X143000000Y-114265000D03*
D15*
X169000000Y-115000000D03*
X169000000Y-117540000D03*
X169000000Y-120080000D03*
X169000000Y-122620000D03*
X169000000Y-125160000D03*
X169000000Y-127700000D03*
X169000000Y-130240000D03*
X169000000Y-132780000D03*
X169000000Y-135320000D03*
X194400000Y-115000000D03*
X194400000Y-117540000D03*
X194400000Y-120080000D03*
X194400000Y-122620000D03*
X194400000Y-125160000D03*
D16*
X115000000Y-134000000D03*
D15*
X169000000Y-88460000D03*
X169000000Y-91000000D03*
X169000000Y-93540000D03*
X169000000Y-96080000D03*
X169000000Y-98620000D03*
X169000000Y-101160000D03*
X169000000Y-103700000D03*
X169000000Y-106240000D03*
X169000000Y-108780000D03*
X194400000Y-88460000D03*
X194400000Y-91000000D03*
X194400000Y-93540000D03*
X194400000Y-96080000D03*
X194400000Y-98620000D03*
D16*
X185000000Y-134000000D03*
D19*
X146500000Y-136750000D03*
D20*
X147500000Y-134050000D03*
X152500000Y-134050000D03*
D19*
X153500000Y-136750000D03*
D21*
X137050000Y-111750000D03*
D14*
X137050000Y-114250000D03*
D16*
X115000000Y-89750000D03*
D22*
X157190000Y-107135000D03*
X162270000Y-106119000D03*
X162270000Y-108151000D03*
D16*
X137250000Y-134000000D03*
X185000000Y-89750000D03*
D17*
X162025000Y-98750000D03*
D18*
X159485000Y-98750000D03*
D16*
X137250000Y-89750000D03*
D23*
X137000000Y-127787500D03*
D24*
X137000000Y-125287500D03*
X137000000Y-122787500D03*
X137000000Y-120287500D03*
D16*
X162750000Y-89750000D03*
D15*
X131000000Y-135320000D03*
X131000000Y-132780000D03*
X131000000Y-130240000D03*
X131000000Y-127700000D03*
X131000000Y-125160000D03*
X131000000Y-122620000D03*
X131000000Y-120080000D03*
X131000000Y-117540000D03*
X131000000Y-115000000D03*
X105600000Y-135320000D03*
X105600000Y-132780000D03*
X105600000Y-130240000D03*
X105600000Y-127700000D03*
X105600000Y-125160000D03*
%LPD*%
M02*
