ISO-10303-21;
HEADER;
FILE_DESCRIPTION (( 'STEP AP203' ),
    '1' );
FILE_NAME ('THP201612.STEP',
    '2024-03-26T21:02:27',
    ( '' ),
    ( '' ),
    'SwSTEP 2.0',
    'SolidWorks 2014',
    '' );
FILE_SCHEMA (( 'CONFIG_CONTROL_DESIGN' ));
ENDSEC;

DATA;
#1 = EDGE_CURVE ( 'NONE', #45, #231, #278, .T. ) ;
#2 = CARTESIAN_POINT ( 'NONE',  ( 0.6136746313866302500, -0.05999999999999999800, 0.9918925184615700100 ) ) ;
#3 = VERTEX_POINT ( 'NONE', #33 ) ;
#4 = CARTESIAN_POINT ( 'NONE',  ( 0.6136746313866300300, -0.04999999999999999600, -0.6081074815384299700 ) ) ;
#5 = EDGE_CURVE ( 'NONE', #152, #45, #131, .T. ) ;
#6 = CARTESIAN_POINT ( 'NONE',  ( 1.213674631386630200, 0.0000000000000000000, -2.105389875263885100E-016 ) ) ;
#7 = ADVANCED_FACE ( 'NONE', ( #346 ), #266, .T. ) ;
#8 = CARTESIAN_POINT ( 'NONE',  ( -0.08632536861336979900, 1.100000000000000100, -0.5081074815384299900 ) ) ;
#9 = VECTOR ( 'NONE', #134, 1000.000000000000000 ) ;
#10 = DIRECTION ( 'NONE',  ( -0.0000000000000000000, -1.000000000000000000, 0.0000000000000000000 ) ) ;
#11 = ORIENTED_EDGE ( 'NONE', *, *, #125, .F. ) ;
#12 = EDGE_CURVE ( 'NONE', #337, #485, #100, .T. ) ;
#13 = VECTOR ( 'NONE', #471, 1000.000000000000000 ) ;
#14 = ORIENTED_EDGE ( 'NONE', *, *, #32, .T. ) ;
#15 = VERTEX_POINT ( 'NONE', #390 ) ;
#16 = DIRECTION ( 'NONE',  ( -0.0000000000000000000, -1.000000000000000000, 0.0000000000000000000 ) ) ;
#17 = DIRECTION ( 'NONE',  ( 1.000000000000000000, -0.0000000000000000000, 0.0000000000000000000 ) ) ;
#18 = CARTESIAN_POINT ( 'NONE',  ( 1.913674631386630200, -0.05999999999999999800, -0.5081074815384299900 ) ) ;
#19 = PERSON_AND_ORGANIZATION ( #250, #315 ) ;
#20 = LINE ( 'NONE', #111, #381 ) ;
#21 = DIRECTION ( 'NONE',  ( 1.000000000000000000, 0.0000000000000000000, -1.185846126156020500E-016 ) ) ;
#22 = ORIENTED_EDGE ( 'NONE', *, *, #185, .F. ) ;
#23 = DIRECTION ( 'NONE',  ( -0.0000000000000000000, -0.0000000000000000000, 1.000000000000000000 ) ) ;
#24 = AXIS2_PLACEMENT_3D ( 'NONE', #85, #406, #405 ) ;
#25 = CARTESIAN_POINT ( 'NONE',  ( 0.0000000000000000000, -0.05999999999999999800, -0.6081074815384299700 ) ) ;
#26 = CARTESIAN_POINT ( 'NONE',  ( -0.08632536861336974300, 1.100000000000000100, 1.023686039591550400E-017 ) ) ;
#27 =( NAMED_UNIT ( * ) SI_UNIT ( $, .STERADIAN. ) SOLID_ANGLE_UNIT ( ) );
#28 = AXIS2_PLACEMENT_3D ( 'NONE', #387, #336, #295 ) ;
#29 = COORDINATED_UNIVERSAL_TIME_OFFSET ( 8, 0, .AHEAD. ) ;
#30 = VERTEX_POINT ( 'NONE', #392 ) ;
#31 = APPLICATION_PROTOCOL_DEFINITION ( 'international standard', 'config_control_design', 1994, #298 ) ;
#32 = EDGE_CURVE ( 'NONE', #37, #494, #500, .T. ) ;
#33 = CARTESIAN_POINT ( 'NONE',  ( 0.01367463138663020500, 1.100000000000000100, -0.6081074815384299700 ) ) ;
#34 = ORIENTED_EDGE ( 'NONE', *, *, #443, .F. ) ;
#35 = EDGE_CURVE ( 'NONE', #119, #507, #416, .T. ) ;
#36 = CIRCLE ( 'NONE', #423, 0.1000000000000000500 ) ;
#37 = VERTEX_POINT ( 'NONE', #181 ) ;
#38 = ORIENTED_EDGE ( 'NONE', *, *, #436, .F. ) ;
#39 = ORIENTED_EDGE ( 'NONE', *, *, #12, .T. ) ;
#40 = CC_DESIGN_APPROVAL ( #201, ( #529 ) ) ;
#41 = DIRECTION ( 'NONE',  ( 1.000000000000000000, -0.0000000000000000000, 0.0000000000000000000 ) ) ;
#42 = LINE ( 'NONE', #2, #563 ) ;
#43 = DIRECTION ( 'NONE',  ( -1.000000000000000000, 0.0000000000000000000, -0.0000000000000000000 ) ) ;
#44 = EDGE_LOOP ( 'NONE', ( #272, #39, #483, #211 ) ) ;
#45 = VERTEX_POINT ( 'NONE', #527 ) ;
#46 = ORIENTED_EDGE ( 'NONE', *, *, #176, .T. ) ;
#47 = CARTESIAN_POINT ( 'NONE',  ( 0.01367463138663037100, 1.100000000000000100, 0.9918925184615700100 ) ) ;
#48 = DIRECTION ( 'NONE',  ( 0.0000000000000000000, -1.000000000000000000, 0.0000000000000000000 ) ) ;
#49 = FACE_OUTER_BOUND ( 'NONE', #320, .T. ) ;
#50 = FACE_OUTER_BOUND ( 'NONE', #566, .T. ) ;
#51 = CARTESIAN_POINT ( 'NONE',  ( 1.913674631386630400, 1.100000000000000100, -5.187025481949455000E-016 ) ) ;
#52 = AXIS2_PLACEMENT_3D ( 'NONE', #78, #398, #132 ) ;
#53 = CARTESIAN_POINT ( 'NONE',  ( -0.08632536861336974300, -0.05999999999999999800, 1.023686039591550400E-017 ) ) ;
#54 = ADVANCED_FACE ( 'NONE', ( #236 ), #221, .T. ) ;
#55 = CARTESIAN_POINT ( 'NONE',  ( 1.223674631386630200, -0.05999999999999999800, -0.6081074815384299700 ) ) ;
#56 = LINE ( 'NONE', #113, #129 ) ;
#57 = ORIENTED_EDGE ( 'NONE', *, *, #205, .T. ) ;
#58 = AXIS2_PLACEMENT_3D ( 'NONE', #452, #498, #232 ) ;
#59 = CARTESIAN_POINT ( 'NONE',  ( 1.813674631386630500, 1.100000000000000100, 0.8918925184615699200 ) ) ;
#60 = DIRECTION ( 'NONE',  ( 0.0000000000000000000, 0.0000000000000000000, 1.000000000000000000 ) ) ;
#61 = EDGE_CURVE ( 'NONE', #459, #494, #312, .T. ) ;
#62 = VECTOR ( 'NONE', #154, 1000.000000000000000 ) ;
#63 = LINE ( 'NONE', #241, #526 ) ;
#64 = EDGE_CURVE ( 'NONE', #124, #152, #79, .T. ) ;
#65 = CARTESIAN_POINT ( 'NONE',  ( 1.913674631386630200, 1.100000000000000100, -0.5081074815384299900 ) ) ;
#66 = SECURITY_CLASSIFICATION_LEVEL ( 'unclassified' ) ;
#67 = APPROVAL_STATUS ( 'not_yet_approved' ) ;
#68 = AXIS2_PLACEMENT_3D ( 'NONE', #109, #151, #418 ) ;
#69 = LINE ( 'NONE', #549, #296 ) ;
#70 = CARTESIAN_POINT ( 'NONE',  ( 1.913674631386630400, -0.05999999999999999800, -5.187025481949455000E-016 ) ) ;
#71 = VERTEX_POINT ( 'NONE', #84 ) ;
#72 = ORIENTED_EDGE ( 'NONE', *, *, #86, .F. ) ;
#73 = DIRECTION ( 'NONE',  ( 0.0000000000000000000, -1.000000000000000000, 0.0000000000000000000 ) ) ;
#74 = VECTOR ( 'NONE', #207, 1000.000000000000000 ) ;
#75 = LINE ( 'NONE', #353, #206 ) ;
#76 = ORIENTED_EDGE ( 'NONE', *, *, #374, .F. ) ;
#77 = AXIS2_PLACEMENT_3D ( 'NONE', #446, #493, #530 ) ;
#78 = CARTESIAN_POINT ( 'NONE',  ( 1.223674631386630200, -0.04999999999999999600, -0.6081074815384299700 ) ) ;
#79 = LINE ( 'NONE', #276, #511 ) ;
#80 = ORIENTED_EDGE ( 'NONE', *, *, #572, .F. ) ;
#81 = CARTESIAN_POINT ( 'NONE',  ( 1.813674631386630500, 1.100000000000000100, 0.9918925184615700100 ) ) ;
#82 = VERTEX_POINT ( 'NONE', #538 ) ;
#83 = CC_DESIGN_APPROVAL ( #399, ( #139 ) ) ;
#84 = CARTESIAN_POINT ( 'NONE',  ( 0.6136746313866302500, -0.04999999999999999600, 0.9918925184615700100 ) ) ;
#85 = CARTESIAN_POINT ( 'NONE',  ( 0.0000000000000000000, 1.100000000000000100, 0.0000000000000000000 ) ) ;
#86 = EDGE_CURVE ( 'NONE', #82, #228, #482, .T. ) ;
#87 = ADVANCED_FACE ( 'NONE', ( #50 ), #536, .F. ) ;
#88 = LOCAL_TIME ( 5, 2, 27.00000000000000000, #345 ) ;
#89 = CARTESIAN_POINT ( 'NONE',  ( 0.0000000000000000000, 1.100000000000000100, 0.9918925184615700100 ) ) ;
#90 = LINE ( 'NONE', #378, #573 ) ;
#91 = CARTESIAN_POINT ( 'NONE',  ( -0.08632536861336963200, -0.05999999999999999800, 0.8918925184615699200 ) ) ;
#92 = ORIENTED_EDGE ( 'NONE', *, *, #194, .T. ) ;
#93 = ORIENTED_EDGE ( 'NONE', *, *, #374, .T. ) ;
#94 = CARTESIAN_POINT ( 'NONE',  ( 0.01367463138663037100, 1.100000000000000100, 0.9918925184615700100 ) ) ;
#95 = ADVANCED_FACE ( 'NONE', ( #218 ), #449, .T. ) ;
#96 = CARTESIAN_POINT ( 'NONE',  ( 0.01367463138663037100, -0.05999999999999994200, 0.8918925184615699200 ) ) ;
#97 = FACE_OUTER_BOUND ( 'NONE', #575, .T. ) ;
#98 = CYLINDRICAL_SURFACE ( 'NONE', #77, 0.01000000000000002600 ) ;
#99 = CC_DESIGN_PERSON_AND_ORGANIZATION_ASSIGNMENT ( #463, #384, ( #529 ) ) ;
#100 = LINE ( 'NONE', #262, #383 ) ;
#101 = DIRECTION ( 'NONE',  ( 2.710505431213761600E-016, 0.0000000000000000000, 1.000000000000000000 ) ) ;
#102 = ADVANCED_FACE ( 'NONE', ( #555 ), #98, .T. ) ;
#103 = ORIENTED_EDGE ( 'NONE', *, *, #301, .T. ) ;
#104 = ORIENTED_EDGE ( 'NONE', *, *, #404, .T. ) ;
#105 = CARTESIAN_POINT ( 'NONE',  ( 1.213674631386630200, 0.0000000000000000000, 0.9918925184615700100 ) ) ;
#106 = ORIENTED_EDGE ( 'NONE', *, *, #133, .T. ) ;
#107 = EDGE_CURVE ( 'NONE', #71, #143, #438, .T. ) ;
#108 = DESIGN_CONTEXT ( 'detailed design', #298, 'design' ) ;
#109 = CARTESIAN_POINT ( 'NONE',  ( 0.6036746313866302400, -0.04999999999999999600, 0.9918925184615700100 ) ) ;
#110 = VERTEX_POINT ( 'NONE', #47 ) ;
#111 = CARTESIAN_POINT ( 'NONE',  ( 0.0000000000000000000, 1.100000000000000100, 0.9918925184615700100 ) ) ;
#112 = PRODUCT_DEFINITION ( '未知', '', #139, #108 ) ;
#113 = CARTESIAN_POINT ( 'NONE',  ( 0.0000000000000000000, -0.05999999999999999800, 0.9918925184615700100 ) ) ;
#114 = PERSON_AND_ORGANIZATION ( #250, #315 ) ;
#115 = PRODUCT_DEFINITION_SHAPE ( 'NONE', 'NONE',  #112 ) ;
#116 = VECTOR ( 'NONE', #489, 1000.000000000000000 ) ;
#117 = ORIENTED_EDGE ( 'NONE', *, *, #12, .F. ) ;
#118 =( LENGTH_UNIT ( ) NAMED_UNIT ( * ) SI_UNIT ( .MILLI., .METRE. ) );
#119 = VERTEX_POINT ( 'NONE', #577 ) ;
#120 = DIRECTION ( 'NONE',  ( -1.734723475976807100E-016, 0.0000000000000000000, -1.000000000000000000 ) ) ;
#121 = CARTESIAN_POINT ( 'NONE',  ( 1.213674631386630200, -0.05999999999999999800, 0.9918925184615700100 ) ) ;
#122 = CYLINDRICAL_SURFACE ( 'NONE', #486, 0.1000000000000000500 ) ;
#123 = ORIENTED_EDGE ( 'NONE', *, *, #64, .T. ) ;
#124 = VERTEX_POINT ( 'NONE', #487 ) ;
#125 = EDGE_CURVE ( 'NONE', #71, #15, #42, .T. ) ;
#126 = ORIENTED_EDGE ( 'NONE', *, *, #167, .F. ) ;
#127 = AXIS2_PLACEMENT_3D ( 'NONE', #130, #174, #481 ) ;
#128 = APPROVAL_DATE_TIME ( #447, #411 ) ;
#129 = VECTOR ( 'NONE', #553, 1000.000000000000000 ) ;
#130 = CARTESIAN_POINT ( 'NONE',  ( 1.813674631386630500, 1.100000000000000100, 0.8918925184615699200 ) ) ;
#131 = CIRCLE ( 'NONE', #127, 0.1000000000000000500 ) ;
#132 = DIRECTION ( 'NONE',  ( -1.000000000000000000, 0.0000000000000000000, 0.0000000000000000000 ) ) ;
#133 = EDGE_CURVE ( 'NONE', #228, #459, #190, .T. ) ;
#134 = DIRECTION ( 'NONE',  ( 1.000000000000000000, -0.0000000000000000000, 0.0000000000000000000 ) ) ;
#135 = FACE_OUTER_BOUND ( 'NONE', #339, .T. ) ;
#136 = ORIENTED_EDGE ( 'NONE', *, *, #484, .F. ) ;
#137 = ORIENTED_EDGE ( 'NONE', *, *, #546, .T. ) ;
#138 = DIRECTION ( 'NONE',  ( 0.0000000000000000000, 1.000000000000000000, -0.0000000000000000000 ) ) ;
#139 = PRODUCT_DEFINITION_FORMATION_WITH_SPECIFIED_SOURCE ( '任何', '', #556, .NOT_KNOWN. ) ;
#140 = VECTOR ( 'NONE', #292, 1000.000000000000000 ) ;
#141 = VECTOR ( 'NONE', #41, 1000.000000000000000 ) ;
#142 = ADVANCED_FACE ( 'NONE', ( #316 ), #177, .F. ) ;
#143 = VERTEX_POINT ( 'NONE', #4 ) ;
#144 = EDGE_LOOP ( 'NONE', ( #126, #569, #153, #373 ) ) ;
#145 = CARTESIAN_POINT ( 'NONE',  ( 0.01367463138663020500, 1.100000000000000100, -0.5081074815384299900 ) ) ;
#146 = ORIENTED_EDGE ( 'NONE', *, *, #215, .F. ) ;
#147 = DIRECTION ( 'NONE',  ( 1.734723475976807100E-016, 0.0000000000000000000, 1.000000000000000000 ) ) ;
#148 = APPROVAL_PERSON_ORGANIZATION ( #334, #399, #200 ) ;
#149 = ORIENTED_EDGE ( 'NONE', *, *, #176, .F. ) ;
#150 = CARTESIAN_POINT ( 'NONE',  ( 0.01367463138663037100, 1.100000000000000100, 0.8918925184615699200 ) ) ;
#151 = DIRECTION ( 'NONE',  ( -0.0000000000000000000, -0.0000000000000000000, 1.000000000000000000 ) ) ;
#152 = VERTEX_POINT ( 'NONE', #81 ) ;
#153 = ORIENTED_EDGE ( 'NONE', *, *, #404, .F. ) ;
#154 = DIRECTION ( 'NONE',  ( -0.0000000000000000000, 1.000000000000000000, -0.0000000000000000000 ) ) ;
#155 = ADVANCED_BREP_SHAPE_REPRESENTATION ( 'THP201612', ( #274, #28 ), #173 ) ;
#156 = CALENDAR_DATE ( 2024, 27, 3 ) ;
#157 = CARTESIAN_POINT ( 'NONE',  ( 1.213674631386630200, -0.04999999999999999600, 0.9918925184615700100 ) ) ;
#158 = VECTOR ( 'NONE', #17, 1000.000000000000000 ) ;
#159 = PERSON_AND_ORGANIZATION_ROLE ( 'creator' ) ;
#160 = VECTOR ( 'NONE', #73, 1000.000000000000000 ) ;
#161 = CARTESIAN_POINT ( 'NONE',  ( 1.813674631386630500, -0.05999999999999994200, 0.8918925184615699200 ) ) ;
#162 = ORIENTED_EDGE ( 'NONE', *, *, #1, .T. ) ;
#163 = DIRECTION ( 'NONE',  ( -1.000000000000000000, 0.0000000000000000000, 0.0000000000000000000 ) ) ;
#164 = CC_DESIGN_PERSON_AND_ORGANIZATION_ASSIGNMENT ( #244, #252, ( #139 ) ) ;
#165 = CIRCLE ( 'NONE', #561, 0.09999999999999999200 ) ;
#166 = ORIENTED_EDGE ( 'NONE', *, *, #125, .T. ) ;
#167 = EDGE_CURVE ( 'NONE', #143, #574, #441, .T. ) ;
#168 = APPLICATION_PROTOCOL_DEFINITION ( 'international standard', 'config_control_design', 1994, #435 ) ;
#169 = ORIENTED_EDGE ( 'NONE', *, *, #61, .T. ) ;
#170 = FACE_OUTER_BOUND ( 'NONE', #44, .T. ) ;
#171 = DIRECTION ( 'NONE',  ( 0.0000000000000000000, -1.000000000000000000, 0.0000000000000000000 ) ) ;
#172 = LINE ( 'NONE', #371, #470 ) ;
#173 =( GEOMETRIC_REPRESENTATION_CONTEXT ( 3 ) GLOBAL_UNCERTAINTY_ASSIGNED_CONTEXT ( ( #268 ) ) GLOBAL_UNIT_ASSIGNED_CONTEXT ( ( #118, #467, #27 ) ) REPRESENTATION_CONTEXT ( 'NONE', 'WORKASPACE' ) );
#174 = DIRECTION ( 'NONE',  ( 0.0000000000000000000, 1.000000000000000000, -0.0000000000000000000 ) ) ;
#175 = CARTESIAN_POINT ( 'NONE',  ( 0.01367463138663037100, 1.100000000000000100, 0.8918925184615699200 ) ) ;
#176 = EDGE_CURVE ( 'NONE', #228, #30, #531, .T. ) ;
#177 = PLANE ( 'NONE',  #239 ) ;
#178 = CIRCLE ( 'NONE', #58, 0.09999999999999999200 ) ;
#179 = CARTESIAN_POINT ( 'NONE',  ( 0.6036746313866300200, -0.04999999999999999600, -0.6081074815384299700 ) ) ;
#180 = ORIENTED_EDGE ( 'NONE', *, *, #567, .F. ) ;
#181 = CARTESIAN_POINT ( 'NONE',  ( 0.6136746313866301400, 0.0000000000000000000, -0.6081074815384299700 ) ) ;
#182 = DIRECTION ( 'NONE',  ( 1.734723475976807100E-016, 0.0000000000000000000, 1.000000000000000000 ) ) ;
#183 = FACE_OUTER_BOUND ( 'NONE', #281, .T. ) ;
#184 = DIRECTION ( 'NONE',  ( 1.185846126156020700E-016, 0.0000000000000000000, 1.000000000000000000 ) ) ;
#185 = EDGE_CURVE ( 'NONE', #222, #3, #75, .T. ) ;
#186 = ORIENTED_EDGE ( 'NONE', *, *, #86, .T. ) ;
#187 = DIRECTION ( 'NONE',  ( 0.0000000000000000000, 1.000000000000000000, 0.0000000000000000000 ) ) ;
#188 = DIRECTION ( 'NONE',  ( 0.0000000000000000000, 0.0000000000000000000, 1.000000000000000000 ) ) ;
#189 = AXIS2_PLACEMENT_3D ( 'NONE', #382, #246, #328 ) ;
#190 = CIRCLE ( 'NONE', #52, 0.01000000000000002600 ) ;
#191 = ORIENTED_EDGE ( 'NONE', *, *, #167, .T. ) ;
#192 = VERTEX_POINT ( 'NONE', #91 ) ;
#193 = PLANE ( 'NONE',  #265 ) ;
#194 = EDGE_CURVE ( 'NONE', #110, #119, #541, .T. ) ;
#195 = CARTESIAN_POINT ( 'NONE',  ( 1.213674631386630500, -0.04999999999999999600, 0.9918925184615700100 ) ) ;
#196 = PLANE ( 'NONE',  #293 ) ;
#197 = LOCAL_TIME ( 5, 2, 27.00000000000000000, #363 ) ;
#198 = VECTOR ( 'NONE', #540, 1000.000000000000000 ) ;
#199 = CARTESIAN_POINT ( 'NONE',  ( -0.08632536861336979900, -0.05999999999999999800, -0.5081074815384299900 ) ) ;
#200 = APPROVAL_ROLE ( '' ) ;
#201 = APPROVAL ( #516, '未指定' ) ;
#202 = DIRECTION ( 'NONE',  ( 1.734723475976807100E-016, -0.0000000000000000000, 1.000000000000000000 ) ) ;
#203 = DATE_TIME_ROLE ( 'classification_date' ) ;
#204 = CARTESIAN_POINT ( 'NONE',  ( 1.813674631386630100, 1.100000000000000100, -0.5081074815384299900 ) ) ;
#205 = EDGE_CURVE ( 'NONE', #485, #222, #365, .T. ) ;
#206 = VECTOR ( 'NONE', #550, 1000.000000000000000 ) ;
#207 = DIRECTION ( 'NONE',  ( 1.185846126156020700E-016, 0.0000000000000000000, 1.000000000000000000 ) ) ;
#208 = ORIENTED_EDGE ( 'NONE', *, *, #567, .T. ) ;
#209 = ORIENTED_EDGE ( 'NONE', *, *, #552, .T. ) ;
#210 = DIRECTION ( 'NONE',  ( -1.185846126156020500E-016, 0.0000000000000000000, -1.000000000000000000 ) ) ;
#211 = ORIENTED_EDGE ( 'NONE', *, *, #436, .T. ) ;
#212 = SHAPE_DEFINITION_REPRESENTATION ( #115, #155 ) ;
#213 = FACE_OUTER_BOUND ( 'NONE', #532, .T. ) ;
#214 = ORIENTED_EDGE ( 'NONE', *, *, #557, .T. ) ;
#215 = EDGE_CURVE ( 'NONE', #485, #192, #429, .T. ) ;
#216 = CIRCLE ( 'NONE', #314, 0.01000000000000002600 ) ;
#217 = DIRECTION ( 'NONE',  ( 0.0000000000000000000, 0.0000000000000000000, -1.000000000000000000 ) ) ;
#218 = FACE_OUTER_BOUND ( 'NONE', #376, .T. ) ;
#219 = ORIENTED_EDGE ( 'NONE', *, *, #492, .F. ) ;
#220 = AXIS2_PLACEMENT_3D ( 'NONE', #26, #21, #210 ) ;
#221 = PLANE ( 'NONE',  #331 ) ;
#222 = VERTEX_POINT ( 'NONE', #361 ) ;
#223 = ORIENTED_EDGE ( 'NONE', *, *, #318, .F. ) ;
#224 = ORIENTED_EDGE ( 'NONE', *, *, #1, .F. ) ;
#225 = EDGE_CURVE ( 'NONE', #494, #261, #456, .T. ) ;
#226 = DIRECTION ( 'NONE',  ( -0.0000000000000000000, 1.000000000000000000, -0.0000000000000000000 ) ) ;
#227 = LINE ( 'NONE', #513, #562 ) ;
#228 = VERTEX_POINT ( 'NONE', #55 ) ;
#229 = EDGE_LOOP ( 'NONE', ( #237, #327, #495, #389, #146, #57 ) ) ;
#230 = DIRECTION ( 'NONE',  ( -1.000000000000000000, 0.0000000000000000000, 1.355252715606880800E-016 ) ) ;
#231 = VERTEX_POINT ( 'NONE', #370 ) ;
#232 = DIRECTION ( 'NONE',  ( 0.0000000000000000000, 0.0000000000000000000, 1.000000000000000000 ) ) ;
#233 = ADVANCED_FACE ( 'NONE', ( #183 ), #193, .F. ) ;
#234 = DIRECTION ( 'NONE',  ( 0.0000000000000000000, 0.0000000000000000000, 1.000000000000000000 ) ) ;
#235 = PERSON_AND_ORGANIZATION ( #250, #315 ) ;
#236 = FACE_OUTER_BOUND ( 'NONE', #329, .T. ) ;
#237 = ORIENTED_EDGE ( 'NONE', *, *, #572, .T. ) ;
#238 = DIRECTION ( 'NONE',  ( 0.0000000000000000000, 0.0000000000000000000, 1.000000000000000000 ) ) ;
#239 = AXIS2_PLACEMENT_3D ( 'NONE', #89, #402, #43 ) ;
#240 = DIRECTION ( 'NONE',  ( 0.0000000000000000000, 0.0000000000000000000, 1.000000000000000000 ) ) ;
#241 = CARTESIAN_POINT ( 'NONE',  ( 1.813674631386630100, 1.100000000000000100, -0.6081074815384299700 ) ) ;
#242 = ADVANCED_FACE ( 'NONE', ( #519 ), #413, .F. ) ;
#243 = CARTESIAN_POINT ( 'NONE',  ( 1.813674631386630100, 1.100000000000000100, -0.6081074815384299700 ) ) ;
#244 = PERSON_AND_ORGANIZATION ( #250, #315 ) ;
#245 = ORIENTED_EDGE ( 'NONE', *, *, #443, .T. ) ;
#246 = DIRECTION ( 'NONE',  ( 0.0000000000000000000, 0.0000000000000000000, -1.000000000000000000 ) ) ;
#247 = AXIS2_PLACEMENT_3D ( 'NONE', #313, #319, #240 ) ;
#248 = ORIENTED_EDGE ( 'NONE', *, *, #288, .F. ) ;
#249 = PLANE ( 'NONE',  #189 ) ;
#250 = PERSON ( '未指定', '未指定', '未指定', ('未指定'), ('未指定'), ('未指定') ) ;
#251 = DIRECTION ( 'NONE',  ( 0.0000000000000000000, 1.000000000000000000, -0.0000000000000000000 ) ) ;
#252 = PERSON_AND_ORGANIZATION_ROLE ( 'creator' ) ;
#253 = CALENDAR_DATE ( 2024, 27, 3 ) ;
#254 = VECTOR ( 'NONE', #184, 1000.000000000000000 ) ;
#255 = DIRECTION ( 'NONE',  ( 1.355252715606880800E-016, 0.0000000000000000000, 1.000000000000000000 ) ) ;
#256 = ORIENTED_EDGE ( 'NONE', *, *, #225, .T. ) ;
#257 = APPROVAL_ROLE ( '' ) ;
#258 = DIRECTION ( 'NONE',  ( 0.0000000000000000000, -1.000000000000000000, 0.0000000000000000000 ) ) ;
#259 = AXIS2_PLACEMENT_3D ( 'NONE', #161, #16, #322 ) ;
#260 = DATE_AND_TIME ( #372, #488 ) ;
#261 = VERTEX_POINT ( 'NONE', #105 ) ;
#262 = CARTESIAN_POINT ( 'NONE',  ( -0.08632536861336979900, -0.05999999999999994200, -0.5081074815384299900 ) ) ;
#263 = ORIENTED_EDGE ( 'NONE', *, *, #288, .T. ) ;
#264 = VECTOR ( 'NONE', #350, 1000.000000000000000 ) ;
#265 = AXIS2_PLACEMENT_3D ( 'NONE', #503, #138, #234 ) ;
#266 = CYLINDRICAL_SURFACE ( 'NONE', #279, 0.1000000000000000500 ) ;
#267 = AXIS2_PLACEMENT_3D ( 'NONE', #282, #10, #238 ) ;
#268 = UNCERTAINTY_MEASURE_WITH_UNIT (LENGTH_MEASURE( 1.000000000000000100E-005 ), #118, 'distance_accuracy_value', 'NONE');
#269 = DIRECTION ( 'NONE',  ( 0.0000000000000000000, 1.000000000000000000, 0.0000000000000000000 ) ) ;
#270 = DIRECTION ( 'NONE',  ( -1.000000000000000000, 0.0000000000000000000, 0.0000000000000000000 ) ) ;
#271 = APPROVAL_PERSON_ORGANIZATION ( #19, #411, #518 ) ;
#272 = ORIENTED_EDGE ( 'NONE', *, *, #557, .F. ) ;
#273 = DIRECTION ( 'NONE',  ( 1.355252715606880800E-016, 0.0000000000000000000, 1.000000000000000000 ) ) ;
#274 = MANIFOLD_SOLID_BREP ( '圆角2', #551 ) ;
#275 = AXIS2_PLACEMENT_3D ( 'NONE', #461, #543, #280 ) ;
#276 = CARTESIAN_POINT ( 'NONE',  ( 1.813674631386630500, 1.100000000000000100, 0.9918925184615700100 ) ) ;
#277 = LINE ( 'NONE', #426, #158 ) ;
#278 = LINE ( 'NONE', #347, #160 ) ;
#279 = AXIS2_PLACEMENT_3D ( 'NONE', #175, #439, #217 ) ;
#280 = DIRECTION ( 'NONE',  ( 0.0000000000000000000, 0.0000000000000000000, 1.000000000000000000 ) ) ;
#281 = EDGE_LOOP ( 'NONE', ( #14, #256, #451, #180 ) ) ;
#282 = CARTESIAN_POINT ( 'NONE',  ( 0.01367463138663020500, -0.05999999999999994200, -0.5081074815384299900 ) ) ;
#283 = CC_DESIGN_PERSON_AND_ORGANIZATION_ASSIGNMENT ( #235, #159, ( #112 ) ) ;
#284 = ADVANCED_FACE ( 'NONE', ( #422 ), #348, .T. ) ;
#285 = LINE ( 'NONE', #362, #300 ) ;
#286 = EDGE_LOOP ( 'NONE', ( #457, #191, #80, #535, #528, #317, #149, #106, #169, #508 ) ) ;
#287 = DIRECTION ( 'NONE',  ( 0.0000000000000000000, -1.000000000000000000, 0.0000000000000000000 ) ) ;
#288 = EDGE_CURVE ( 'NONE', #349, #45, #415, .T. ) ;
#289 = DIRECTION ( 'NONE',  ( 1.000000000000000000, -0.0000000000000000000, 0.0000000000000000000 ) ) ;
#290 = DIRECTION ( 'NONE',  ( 1.000000000000000000, 0.0000000000000000000, -2.710505431213761100E-016 ) ) ;
#291 = VECTOR ( 'NONE', #202, 1000.000000000000000 ) ;
#292 = DIRECTION ( 'NONE',  ( 0.0000000000000000000, 1.000000000000000000, 0.0000000000000000000 ) ) ;
#293 = AXIS2_PLACEMENT_3D ( 'NONE', #512, #290, #509 ) ;
#294 = DIRECTION ( 'NONE',  ( 0.0000000000000000000, 0.0000000000000000000, 1.000000000000000000 ) ) ;
#295 = DIRECTION ( 'NONE',  ( 1.000000000000000000, 0.0000000000000000000, 0.0000000000000000000 ) ) ;
#296 = VECTOR ( 'NONE', #417, 1000.000000000000000 ) ;
#297 = ORIENTED_EDGE ( 'NONE', *, *, #552, .F. ) ;
#298 = APPLICATION_CONTEXT ( 'configuration controlled 3d designs of mechanical parts and assemblies' ) ;
#299 = AXIS2_PLACEMENT_3D ( 'NONE', #474, #564, #294 ) ;
#300 = VECTOR ( 'NONE', #255, 1000.000000000000000 ) ;
#301 = EDGE_CURVE ( 'NONE', #143, #37, #69, .T. ) ;
#302 = CARTESIAN_POINT ( 'NONE',  ( 0.0000000000000000000, 0.0000000000000000000, -0.6081074815384299700 ) ) ;
#303 = VECTOR ( 'NONE', #147, 1000.000000000000000 ) ;
#304 = CC_DESIGN_SECURITY_CLASSIFICATION ( #529, ( #139 ) ) ;
#305 = ORIENTED_EDGE ( 'NONE', *, *, #414, .F. ) ;
#306 = DIRECTION ( 'NONE',  ( -1.000000000000000000, 0.0000000000000000000, 1.734723475976807100E-016 ) ) ;
#307 = ORIENTED_EDGE ( 'NONE', *, *, #194, .F. ) ;
#308 = EDGE_CURVE ( 'NONE', #30, #491, #178, .T. ) ;
#309 = CARTESIAN_POINT ( 'NONE',  ( 1.213674631386630200, -0.05999999999999999800, -0.6081074815384299700 ) ) ;
#310 = APPROVAL_DATE_TIME ( #324, #201 ) ;
#311 = PERSON_AND_ORGANIZATION ( #250, #315 ) ;
#312 = LINE ( 'NONE', #309, #116 ) ;
#313 = CARTESIAN_POINT ( 'NONE',  ( 0.0000000000000000000, -0.05999999999999999800, 0.0000000000000000000 ) ) ;
#314 = AXIS2_PLACEMENT_3D ( 'NONE', #430, #23, #163 ) ;
#315 = ORGANIZATION ( '未指定', '未指定', '' ) ;
#316 = FACE_OUTER_BOUND ( 'NONE', #448, .T. ) ;
#317 = ORIENTED_EDGE ( 'NONE', *, *, #318, .T. ) ;
#318 = EDGE_CURVE ( 'NONE', #496, #30, #63, .T. ) ;
#319 = DIRECTION ( 'NONE',  ( 0.0000000000000000000, 1.000000000000000000, -0.0000000000000000000 ) ) ;
#320 = EDGE_LOOP ( 'NONE', ( #490, #473, #440, #224 ) ) ;
#321 = ADVANCED_FACE ( 'NONE', ( #335 ), #545, .F. ) ;
#322 = DIRECTION ( 'NONE',  ( 0.0000000000000000000, 0.0000000000000000000, 1.000000000000000000 ) ) ;
#323 = DIRECTION ( 'NONE',  ( 0.0000000000000000000, 1.000000000000000000, 0.0000000000000000000 ) ) ;
#324 = DATE_AND_TIME ( #156, #445 ) ;
#325 = LOCAL_TIME ( 5, 2, 27.00000000000000000, #571 ) ;
#326 = LINE ( 'NONE', #195, #291 ) ;
#327 = ORIENTED_EDGE ( 'NONE', *, *, #352, .T. ) ;
#328 = DIRECTION ( 'NONE',  ( -1.000000000000000000, 0.0000000000000000000, -0.0000000000000000000 ) ) ;
#329 = EDGE_LOOP ( 'NONE', ( #442, #465, #137, #343 ) ) ;
#330 = DIRECTION ( 'NONE',  ( 1.000000000000000000, -0.0000000000000000000, 0.0000000000000000000 ) ) ;
#331 = AXIS2_PLACEMENT_3D ( 'NONE', #354, #306, #182 ) ;
#332 = PERSON_AND_ORGANIZATION_ROLE ( 'design_supplier' ) ;
#333 = DIRECTION ( 'NONE',  ( -1.000000000000000000, 0.0000000000000000000, 1.734723475976804100E-016 ) ) ;
#334 = PERSON_AND_ORGANIZATION ( #250, #315 ) ;
#335 = FACE_OUTER_BOUND ( 'NONE', #229, .T. ) ;
#336 = DIRECTION ( 'NONE',  ( 0.0000000000000000000, 0.0000000000000000000, 1.000000000000000000 ) ) ;
#337 = VERTEX_POINT ( 'NONE', #8 ) ;
#338 = DIRECTION ( 'NONE',  ( 0.0000000000000000000, 0.0000000000000000000, -1.000000000000000000 ) ) ;
#339 = EDGE_LOOP ( 'NONE', ( #522, #136, #464, #223 ) ) ;
#340 = PLANE ( 'NONE',  #220 ) ;
#341 = CC_DESIGN_DATE_AND_TIME_ASSIGNMENT ( #437, #203, ( #529 ) ) ;
#342 = ORIENTED_EDGE ( 'NONE', *, *, #533, .T. ) ;
#343 = ORIENTED_EDGE ( 'NONE', *, *, #225, .F. ) ;
#344 = EDGE_CURVE ( 'NONE', #119, #192, #395, .T. ) ;
#345 = COORDINATED_UNIVERSAL_TIME_OFFSET ( 8, 0, .AHEAD. ) ;
#346 = FACE_OUTER_BOUND ( 'NONE', #368, .T. ) ;
#347 = CARTESIAN_POINT ( 'NONE',  ( 1.913674631386630600, -0.05999999999999994200, 0.8918925184615699200 ) ) ;
#348 = CYLINDRICAL_SURFACE ( 'NONE', #521, 0.09999999999999999200 ) ;
#349 = VERTEX_POINT ( 'NONE', #410 ) ;
#350 = DIRECTION ( 'NONE',  ( -1.734723475976807100E-016, -0.0000000000000000000, -1.000000000000000000 ) ) ;
#351 = ORIENTED_EDGE ( 'NONE', *, *, #205, .F. ) ;
#352 = EDGE_CURVE ( 'NONE', #574, #507, #285, .T. ) ;
#353 = CARTESIAN_POINT ( 'NONE',  ( 0.01367463138663020500, 1.100000000000000100, -0.6081074815384299700 ) ) ;
#354 = CARTESIAN_POINT ( 'NONE',  ( 1.213674631386630200, -0.05999999999999999800, -2.105389875263885100E-016 ) ) ;
#355 = APPROVAL_DATE_TIME ( #260, #399 ) ;
#356 = CARTESIAN_POINT ( 'NONE',  ( 0.6136746313866301400, -0.05999999999999999800, -8.316842106857821700E-017 ) ) ;
#357 = ORIENTED_EDGE ( 'NONE', *, *, #523, .F. ) ;
#358 = EDGE_LOOP ( 'NONE', ( #357, #22, #351, #117 ) ) ;
#359 = CARTESIAN_POINT ( 'NONE',  ( 0.6136746313866301400, -0.04999999999999999600, -8.316842106857821700E-017 ) ) ;
#360 = CC_DESIGN_PERSON_AND_ORGANIZATION_ASSIGNMENT ( #539, #332, ( #139 ) ) ;
#361 = CARTESIAN_POINT ( 'NONE',  ( 0.01367463138663020500, -0.05999999999999999800, -0.6081074815384299700 ) ) ;
#362 = CARTESIAN_POINT ( 'NONE',  ( 0.6036746313866301300, -0.05999999999999999800, -8.181316835297132400E-017 ) ) ;
#363 = COORDINATED_UNIVERSAL_TIME_OFFSET ( 8, 0, .AHEAD. ) ;
#364 = AXIS2_PLACEMENT_3D ( 'NONE', #356, #230, #273 ) ;
#365 = CIRCLE ( 'NONE', #267, 0.09999999999999999200 ) ;
#366 = ORIENTED_EDGE ( 'NONE', *, *, #462, .T. ) ;
#367 = ADVANCED_FACE ( 'NONE', ( #408 ), #249, .T. ) ;
#368 = EDGE_LOOP ( 'NONE', ( #34, #38, #579, #307 ) ) ;
#369 = CC_DESIGN_APPROVAL ( #411, ( #112 ) ) ;
#370 = CARTESIAN_POINT ( 'NONE',  ( 1.913674631386630600, -0.05999999999999999800, 0.8918925184615699200 ) ) ;
#371 = CARTESIAN_POINT ( 'NONE',  ( 0.0000000000000000000, 1.100000000000000100, -0.6081074815384299700 ) ) ;
#372 = CALENDAR_DATE ( 2024, 27, 3 ) ;
#373 = ORIENTED_EDGE ( 'NONE', *, *, #352, .F. ) ;
#374 = EDGE_CURVE ( 'NONE', #82, #124, #56, .T. ) ;
#375 = CARTESIAN_POINT ( 'NONE',  ( 1.213674631386630200, 0.0000000000000000000, -0.6081074815384299700 ) ) ;
#376 = EDGE_LOOP ( 'NONE', ( #219, #391, #214, #245, #558, #434, #248, #502 ) ) ;
#377 = DIRECTION ( 'NONE',  ( 0.0000000000000000000, 0.0000000000000000000, 1.000000000000000000 ) ) ;
#378 = CARTESIAN_POINT ( 'NONE',  ( -0.08632536861336963200, 1.100000000000000100, 0.8918925184615699200 ) ) ;
#379 = APPROVAL_STATUS ( 'not_yet_approved' ) ;
#380 = LINE ( 'NONE', #121, #140 ) ;
#381 = VECTOR ( 'NONE', #330, 1000.000000000000000 ) ;
#382 = CARTESIAN_POINT ( 'NONE',  ( 0.0000000000000000000, 1.100000000000000100, -0.6081074815384299700 ) ) ;
#383 = VECTOR ( 'NONE', #171, 1000.000000000000000 ) ;
#384 = PERSON_AND_ORGANIZATION_ROLE ( 'classification_officer' ) ;
#385 = CARTESIAN_POINT ( 'NONE',  ( 1.223674631386630200, -0.04999999999999999600, -2.122737110023653100E-016 ) ) ;
#386 = EDGE_CURVE ( 'NONE', #349, #496, #165, .T. ) ;
#387 = CARTESIAN_POINT ( 'NONE',  ( 0.0000000000000000000, 0.0000000000000000000, 0.0000000000000000000 ) ) ;
#388 = CIRCLE ( 'NONE', #68, 0.01000000000000002600 ) ;
#389 = ORIENTED_EDGE ( 'NONE', *, *, #344, .T. ) ;
#390 = CARTESIAN_POINT ( 'NONE',  ( 0.6136746313866302500, 0.0000000000000000000, 0.9918925184615700100 ) ) ;
#391 = ORIENTED_EDGE ( 'NONE', *, *, #523, .T. ) ;
#392 = CARTESIAN_POINT ( 'NONE',  ( 1.813674631386630100, -0.05999999999999999800, -0.6081074815384299700 ) ) ;
#393 = AXIS2_PLACEMENT_3D ( 'NONE', #96, #412, #188 ) ;
#394 = VECTOR ( 'NONE', #432, 1000.000000000000000 ) ;
#395 = CIRCLE ( 'NONE', #393, 0.1000000000000000500 ) ;
#396 = VECTOR ( 'NONE', #576, 1000.000000000000000 ) ;
#397 = ORIENTED_EDGE ( 'NONE', *, *, #427, .T. ) ;
#398 = DIRECTION ( 'NONE',  ( 0.0000000000000000000, 0.0000000000000000000, -1.000000000000000000 ) ) ;
#399 = APPROVAL ( #67, '未指定' ) ;
#400 = CIRCLE ( 'NONE', #259, 0.1000000000000000500 ) ;
#401 = EDGE_LOOP ( 'NONE', ( #76, #186, #46, #450, #209, #366 ) ) ;
#402 = DIRECTION ( 'NONE',  ( 0.0000000000000000000, 0.0000000000000000000, -1.000000000000000000 ) ) ;
#403 = ORIENTED_EDGE ( 'NONE', *, *, #35, .T. ) ;
#404 = EDGE_CURVE ( 'NONE', #507, #71, #388, .T. ) ;
#405 = DIRECTION ( 'NONE',  ( 0.0000000000000000000, 0.0000000000000000000, 1.000000000000000000 ) ) ;
#406 = DIRECTION ( 'NONE',  ( 0.0000000000000000000, 1.000000000000000000, -0.0000000000000000000 ) ) ;
#407 = LINE ( 'NONE', #25, #13 ) ;
#408 = FACE_OUTER_BOUND ( 'NONE', #286, .T. ) ;
#409 = ADVANCED_FACE ( 'NONE', ( #213 ), #196, .T. ) ;
#410 = CARTESIAN_POINT ( 'NONE',  ( 1.913674631386630200, 1.100000000000000100, -0.5081074815384299900 ) ) ;
#411 = APPROVAL ( #379, '未指定' ) ;
#412 = DIRECTION ( 'NONE',  ( -0.0000000000000000000, -1.000000000000000000, 0.0000000000000000000 ) ) ;
#413 = PLANE ( 'NONE',  #247 ) ;
#414 = EDGE_CURVE ( 'NONE', #459, #478, #326, .T. ) ;
#415 = LINE ( 'NONE', #51, #504 ) ;
#416 = LINE ( 'NONE', #524, #396 ) ;
#417 = DIRECTION ( 'NONE',  ( 0.0000000000000000000, 1.000000000000000000, 0.0000000000000000000 ) ) ;
#418 = DIRECTION ( 'NONE',  ( -1.000000000000000000, 0.0000000000000000000, 0.0000000000000000000 ) ) ;
#419 = DIRECTION ( 'NONE',  ( 0.0000000000000000000, 0.0000000000000000000, 1.000000000000000000 ) ) ;
#420 = COORDINATED_UNIVERSAL_TIME_OFFSET ( 8, 0, .AHEAD. ) ;
#421 = APPROVAL_PERSON_ORGANIZATION ( #311, #201, #257 ) ;
#422 = FACE_OUTER_BOUND ( 'NONE', #358, .T. ) ;
#423 = AXIS2_PLACEMENT_3D ( 'NONE', #150, #424, #377 ) ;
#424 = DIRECTION ( 'NONE',  ( 0.0000000000000000000, 1.000000000000000000, -0.0000000000000000000 ) ) ;
#425 = CARTESIAN_POINT ( 'NONE',  ( -0.08632536861336963200, 1.100000000000000100, 0.8918925184615699200 ) ) ;
#426 = CARTESIAN_POINT ( 'NONE',  ( 0.0000000000000000000, 0.0000000000000000000, 0.9918925184615700100 ) ) ;
#427 = EDGE_CURVE ( 'NONE', #15, #261, #277, .T. ) ;
#428 = DATE_TIME_ROLE ( 'creation_date' ) ;
#429 = LINE ( 'NONE', #53, #254 ) ;
#430 = CARTESIAN_POINT ( 'NONE',  ( 1.223674631386630500, -0.04999999999999999600, 0.9918925184615700100 ) ) ;
#431 = ORIENTED_EDGE ( 'NONE', *, *, #533, .F. ) ;
#432 = DIRECTION ( 'NONE',  ( 2.710505431213761600E-016, 0.0000000000000000000, 1.000000000000000000 ) ) ;
#433 = PRODUCT_RELATED_PRODUCT_CATEGORY ( 'detail', '', ( #556 ) ) ;
#434 = ORIENTED_EDGE ( 'NONE', *, *, #5, .T. ) ;
#435 = APPLICATION_CONTEXT ( 'configuration controlled 3d designs of mechanical parts and assemblies' ) ;
#436 = EDGE_CURVE ( 'NONE', #192, #570, #90, .T. ) ;
#437 = DATE_AND_TIME ( #554, #88 ) ;
#438 = LINE ( 'NONE', #359, #198 ) ;
#439 = DIRECTION ( 'NONE',  ( 0.0000000000000000000, -1.000000000000000000, 0.0000000000000000000 ) ) ;
#440 = ORIENTED_EDGE ( 'NONE', *, *, #462, .F. ) ;
#441 = CIRCLE ( 'NONE', #453, 0.01000000000000002600 ) ;
#442 = ORIENTED_EDGE ( 'NONE', *, *, #61, .F. ) ;
#443 = EDGE_CURVE ( 'NONE', #570, #110, #36, .T. ) ;
#444 = CARTESIAN_POINT ( 'NONE',  ( 0.0000000000000000000, -0.05999999999999999800, -0.6081074815384299700 ) ) ;
#445 = LOCAL_TIME ( 5, 2, 27.00000000000000000, #420 ) ;
#446 = CARTESIAN_POINT ( 'NONE',  ( 0.6036746313866301300, -0.04999999999999999600, -8.181316835297132400E-017 ) ) ;
#447 = DATE_AND_TIME ( #253, #197 ) ;
#448 = EDGE_LOOP ( 'NONE', ( #403, #104, #166, #397, #515, #342, #93, #123, #506, #92 ) ) ;
#449 = PLANE ( 'NONE',  #24 ) ;
#450 = ORIENTED_EDGE ( 'NONE', *, *, #308, .T. ) ;
#451 = ORIENTED_EDGE ( 'NONE', *, *, #427, .F. ) ;
#452 = CARTESIAN_POINT ( 'NONE',  ( 1.813674631386630100, -0.05999999999999994200, -0.5081074815384299900 ) ) ;
#453 = AXIS2_PLACEMENT_3D ( 'NONE', #179, #534, #270 ) ;
#454 = DATE_AND_TIME ( #477, #325 ) ;
#455 = DIRECTION ( 'NONE',  ( 0.0000000000000000000, 0.0000000000000000000, 1.000000000000000000 ) ) ;
#456 = LINE ( 'NONE', #6, #303 ) ;
#457 = ORIENTED_EDGE ( 'NONE', *, *, #301, .F. ) ;
#458 = ORIENTED_EDGE ( 'NONE', *, *, #107, .T. ) ;
#459 = VERTEX_POINT ( 'NONE', #560 ) ;
#460 = AXIS2_PLACEMENT_3D ( 'NONE', #59, #323, #60 ) ;
#461 = CARTESIAN_POINT ( 'NONE',  ( 0.0000000000000000000, -0.05999999999999999800, 0.0000000000000000000 ) ) ;
#462 = EDGE_CURVE ( 'NONE', #231, #124, #400, .T. ) ;
#463 = PERSON_AND_ORGANIZATION ( #250, #315 ) ;
#464 = ORIENTED_EDGE ( 'NONE', *, *, #308, .F. ) ;
#465 = ORIENTED_EDGE ( 'NONE', *, *, #414, .T. ) ;
#466 = ORIENTED_EDGE ( 'NONE', *, *, #484, .T. ) ;
#467 =( NAMED_UNIT ( * ) PLANE_ANGLE_UNIT ( ) SI_UNIT ( $, .RADIAN. ) );
#468 = CARTESIAN_POINT ( 'NONE',  ( 1.813674631386630100, 1.100000000000000100, -0.5081074815384299900 ) ) ;
#469 = LINE ( 'NONE', #559, #74 ) ;
#470 = VECTOR ( 'NONE', #289, 1000.000000000000000 ) ;
#471 = DIRECTION ( 'NONE',  ( 1.000000000000000000, -0.0000000000000000000, 0.0000000000000000000 ) ) ;
#472 = AXIS2_PLACEMENT_3D ( 'NONE', #385, #120, #333 ) ;
#473 = ORIENTED_EDGE ( 'NONE', *, *, #64, .F. ) ;
#474 = CARTESIAN_POINT ( 'NONE',  ( 0.01367463138663020500, 1.100000000000000100, -0.5081074815384299900 ) ) ;
#475 = EDGE_CURVE ( 'NONE', #110, #152, #20, .T. ) ;
#476 = MECHANICAL_CONTEXT ( 'NONE', #435, 'mechanical' ) ;
#477 = CALENDAR_DATE ( 2024, 27, 3 ) ;
#478 = VERTEX_POINT ( 'NONE', #157 ) ;
#479 = CC_DESIGN_DATE_AND_TIME_ASSIGNMENT ( #454, #428, ( #112 ) ) ;
#480 = CYLINDRICAL_SURFACE ( 'NONE', #460, 0.1000000000000000500 ) ;
#481 = DIRECTION ( 'NONE',  ( 0.0000000000000000000, 0.0000000000000000000, 1.000000000000000000 ) ) ;
#482 = LINE ( 'NONE', #497, #264 ) ;
#483 = ORIENTED_EDGE ( 'NONE', *, *, #215, .T. ) ;
#484 = EDGE_CURVE ( 'NONE', #491, #349, #499, .T. ) ;
#485 = VERTEX_POINT ( 'NONE', #199 ) ;
#486 = AXIS2_PLACEMENT_3D ( 'NONE', #204, #258, #338 ) ;
#487 = CARTESIAN_POINT ( 'NONE',  ( 1.813674631386630500, -0.05999999999999999800, 0.9918925184615700100 ) ) ;
#488 = LOCAL_TIME ( 5, 2, 27.00000000000000000, #29 ) ;
#489 = DIRECTION ( 'NONE',  ( 0.0000000000000000000, 1.000000000000000000, 0.0000000000000000000 ) ) ;
#490 = ORIENTED_EDGE ( 'NONE', *, *, #5, .F. ) ;
#491 = VERTEX_POINT ( 'NONE', #18 ) ;
#492 = EDGE_CURVE ( 'NONE', #3, #496, #172, .T. ) ;
#493 = DIRECTION ( 'NONE',  ( 1.355252715606880800E-016, 0.0000000000000000000, 1.000000000000000000 ) ) ;
#494 = VERTEX_POINT ( 'NONE', #375 ) ;
#495 = ORIENTED_EDGE ( 'NONE', *, *, #35, .F. ) ;
#496 = VERTEX_POINT ( 'NONE', #243 ) ;
#497 = CARTESIAN_POINT ( 'NONE',  ( 1.223674631386630200, -0.05999999999999999800, -0.6081074815384299700 ) ) ;
#498 = DIRECTION ( 'NONE',  ( -0.0000000000000000000, -1.000000000000000000, 0.0000000000000000000 ) ) ;
#499 = LINE ( 'NONE', #65, #62 ) ;
#500 = LINE ( 'NONE', #302, #9 ) ;
#501 = CC_DESIGN_PERSON_AND_ORGANIZATION_ASSIGNMENT ( #114, #568, ( #556 ) ) ;
#502 = ORIENTED_EDGE ( 'NONE', *, *, #386, .T. ) ;
#503 = CARTESIAN_POINT ( 'NONE',  ( 0.0000000000000000000, 0.0000000000000000000, 0.0000000000000000000 ) ) ;
#504 = VECTOR ( 'NONE', #101, 1000.000000000000000 ) ;
#505 = ADVANCED_FACE ( 'NONE', ( #49 ), #480, .T. ) ;
#506 = ORIENTED_EDGE ( 'NONE', *, *, #475, .F. ) ;
#507 = VERTEX_POINT ( 'NONE', #517 ) ;
#508 = ORIENTED_EDGE ( 'NONE', *, *, #32, .F. ) ;
#509 = DIRECTION ( 'NONE',  ( -2.710505431213761100E-016, 0.0000000000000000000, -1.000000000000000000 ) ) ;
#510 = LINE ( 'NONE', #70, #394 ) ;
#511 = VECTOR ( 'NONE', #226, 1000.000000000000000 ) ;
#512 = CARTESIAN_POINT ( 'NONE',  ( 1.913674631386630400, 1.100000000000000100, -5.187025481949455000E-016 ) ) ;
#513 = CARTESIAN_POINT ( 'NONE',  ( 0.6136746313866301400, 0.0000000000000000000, -8.316842106857821700E-017 ) ) ;
#514 = DIRECTION ( 'NONE',  ( -0.0000000000000000000, 1.000000000000000000, -0.0000000000000000000 ) ) ;
#515 = ORIENTED_EDGE ( 'NONE', *, *, #546, .F. ) ;
#516 = APPROVAL_STATUS ( 'not_yet_approved' ) ;
#517 = CARTESIAN_POINT ( 'NONE',  ( 0.6036746313866302400, -0.05999999999999999800, 0.9918925184615700100 ) ) ;
#518 = APPROVAL_ROLE ( '' ) ;
#519 = FACE_OUTER_BOUND ( 'NONE', #401, .T. ) ;
#520 = DIRECTION ( 'NONE',  ( 1.355252715606880800E-016, 0.0000000000000000000, 1.000000000000000000 ) ) ;
#521 = AXIS2_PLACEMENT_3D ( 'NONE', #145, #187, #455 ) ;
#522 = ORIENTED_EDGE ( 'NONE', *, *, #386, .F. ) ;
#523 = EDGE_CURVE ( 'NONE', #3, #337, #578, .T. ) ;
#524 = CARTESIAN_POINT ( 'NONE',  ( 0.0000000000000000000, -0.05999999999999999800, 0.9918925184615700100 ) ) ;
#525 = CYLINDRICAL_SURFACE ( 'NONE', #472, 0.01000000000000002600 ) ;
#526 = VECTOR ( 'NONE', #48, 1000.000000000000000 ) ;
#527 = CARTESIAN_POINT ( 'NONE',  ( 1.913674631386630600, 1.100000000000000100, 0.8918925184615699200 ) ) ;
#528 = ORIENTED_EDGE ( 'NONE', *, *, #492, .T. ) ;
#529 = SECURITY_CLASSIFICATION ( '', '', #66 ) ;
#530 = DIRECTION ( 'NONE',  ( 1.000000000000000000, 0.0000000000000000000, -1.355252715606872200E-016 ) ) ;
#531 = LINE ( 'NONE', #444, #141 ) ;
#532 = EDGE_LOOP ( 'NONE', ( #297, #466, #263, #162 ) ) ;
#533 = EDGE_CURVE ( 'NONE', #478, #82, #216, .T. ) ;
#534 = DIRECTION ( 'NONE',  ( 0.0000000000000000000, 0.0000000000000000000, -1.000000000000000000 ) ) ;
#535 = ORIENTED_EDGE ( 'NONE', *, *, #185, .T. ) ;
#536 = PLANE ( 'NONE',  #364 ) ;
#537 = ADVANCED_FACE ( 'NONE', ( #135 ), #122, .T. ) ;
#538 = CARTESIAN_POINT ( 'NONE',  ( 1.223674631386630500, -0.05999999999999999800, 0.9918925184615700100 ) ) ;
#539 = PERSON_AND_ORGANIZATION ( #250, #315 ) ;
#540 = DIRECTION ( 'NONE',  ( -1.355252715606880800E-016, -0.0000000000000000000, -1.000000000000000000 ) ) ;
#541 = LINE ( 'NONE', #94, #547 ) ;
#542 = ADVANCED_FACE ( 'NONE', ( #97 ), #525, .T. ) ;
#543 = DIRECTION ( 'NONE',  ( 0.0000000000000000000, 1.000000000000000000, -0.0000000000000000000 ) ) ;
#544 = ADVANCED_FACE ( 'NONE', ( #170 ), #340, .F. ) ;
#545 = PLANE ( 'NONE',  #275 ) ;
#546 = EDGE_CURVE ( 'NONE', #478, #261, #380, .T. ) ;
#547 = VECTOR ( 'NONE', #287, 1000.000000000000000 ) ;
#548 = ORIENTED_EDGE ( 'NONE', *, *, #133, .F. ) ;
#549 = CARTESIAN_POINT ( 'NONE',  ( 0.6136746313866300300, -0.05999999999999999800, -0.6081074815384299700 ) ) ;
#550 = DIRECTION ( 'NONE',  ( -0.0000000000000000000, 1.000000000000000000, -0.0000000000000000000 ) ) ;
#551 = CLOSED_SHELL ( 'NONE', ( #233, #544, #142, #409, #367, #95, #87, #321, #54, #242, #284, #537, #7, #505, #102, #542 ) ) ;
#552 = EDGE_CURVE ( 'NONE', #491, #231, #510, .T. ) ;
#553 = DIRECTION ( 'NONE',  ( 1.000000000000000000, -0.0000000000000000000, 0.0000000000000000000 ) ) ;
#554 = CALENDAR_DATE ( 2024, 27, 3 ) ;
#555 = FACE_OUTER_BOUND ( 'NONE', #144, .T. ) ;
#556 = PRODUCT ( 'THP201612', 'THP201612', '', ( #476 ) ) ;
#557 = EDGE_CURVE ( 'NONE', #337, #570, #469, .T. ) ;
#558 = ORIENTED_EDGE ( 'NONE', *, *, #475, .T. ) ;
#559 = CARTESIAN_POINT ( 'NONE',  ( -0.08632536861336974300, 1.100000000000000100, 1.023686039591550400E-017 ) ) ;
#560 = CARTESIAN_POINT ( 'NONE',  ( 1.213674631386630200, -0.04999999999999999600, -0.6081074815384299700 ) ) ;
#561 = AXIS2_PLACEMENT_3D ( 'NONE', #468, #251, #419 ) ;
#562 = VECTOR ( 'NONE', #520, 1000.000000000000000 ) ;
#563 = VECTOR ( 'NONE', #269, 1000.000000000000000 ) ;
#564 = DIRECTION ( 'NONE',  ( 0.0000000000000000000, 1.000000000000000000, -0.0000000000000000000 ) ) ;
#565 = CARTESIAN_POINT ( 'NONE',  ( 0.6036746313866300200, -0.05999999999999999800, -0.6081074815384299700 ) ) ;
#566 = EDGE_LOOP ( 'NONE', ( #11, #458, #103, #208 ) ) ;
#567 = EDGE_CURVE ( 'NONE', #37, #15, #227, .T. ) ;
#568 = PERSON_AND_ORGANIZATION_ROLE ( 'design_owner' ) ;
#569 = ORIENTED_EDGE ( 'NONE', *, *, #107, .F. ) ;
#570 = VERTEX_POINT ( 'NONE', #425 ) ;
#571 = COORDINATED_UNIVERSAL_TIME_OFFSET ( 8, 0, .AHEAD. ) ;
#572 = EDGE_CURVE ( 'NONE', #222, #574, #407, .T. ) ;
#573 = VECTOR ( 'NONE', #514, 1000.000000000000000 ) ;
#574 = VERTEX_POINT ( 'NONE', #565 ) ;
#575 = EDGE_LOOP ( 'NONE', ( #548, #72, #431, #305 ) ) ;
#576 = DIRECTION ( 'NONE',  ( 1.000000000000000000, -0.0000000000000000000, 0.0000000000000000000 ) ) ;
#577 = CARTESIAN_POINT ( 'NONE',  ( 0.01367463138663037100, -0.05999999999999999800, 0.9918925184615700100 ) ) ;
#578 = CIRCLE ( 'NONE', #299, 0.09999999999999999200 ) ;
#579 = ORIENTED_EDGE ( 'NONE', *, *, #344, .F. ) ;
ENDSEC;
END-ISO-10303-21;
