G04 #@! TF.GenerationSoftware,KiCad,Pcbnew,7.0.8*
G04 #@! TF.CreationDate,2024-01-21T00:56:49-07:00*
G04 #@! TF.ProjectId,lapbeacon,6c617062-6561-4636-9f6e-2e6b69636164,v1*
G04 #@! TF.SameCoordinates,Original*
G04 #@! TF.FileFunction,Copper,L2,Bot*
G04 #@! TF.FilePolarity,Positive*
%FSLAX46Y46*%
G04 Gerber Fmt 4.6, Leading zero omitted, Abs format (unit mm)*
G04 Created by KiCad (PCBNEW 7.0.8) date 2024-01-21 00:56:49*
%MOMM*%
%LPD*%
G01*
G04 APERTURE LIST*
G04 Aperture macros list*
%AMRoundRect*
0 Rectangle with rounded corners*
0 $1 Rounding radius*
0 $2 $3 $4 $5 $6 $7 $8 $9 X,Y pos of 4 corners*
0 Add a 4 corners polygon primitive as box body*
4,1,4,$2,$3,$4,$5,$6,$7,$8,$9,$2,$3,0*
0 Add four circle primitives for the rounded corners*
1,1,$1+$1,$2,$3*
1,1,$1+$1,$4,$5*
1,1,$1+$1,$6,$7*
1,1,$1+$1,$8,$9*
0 Add four rect primitives between the rounded corners*
20,1,$1+$1,$2,$3,$4,$5,0*
20,1,$1+$1,$4,$5,$6,$7,0*
20,1,$1+$1,$6,$7,$8,$9,0*
20,1,$1+$1,$8,$9,$2,$3,0*%
G04 Aperture macros list end*
G04 #@! TA.AperFunction,ComponentPad*
%ADD10R,2.100000X2.100000*%
G04 #@! TD*
G04 #@! TA.AperFunction,ComponentPad*
%ADD11C,2.100000*%
G04 #@! TD*
G04 #@! TA.AperFunction,ComponentPad*
%ADD12RoundRect,0.250000X-0.725000X0.600000X-0.725000X-0.600000X0.725000X-0.600000X0.725000X0.600000X0*%
G04 #@! TD*
G04 #@! TA.AperFunction,ComponentPad*
%ADD13O,1.950000X1.700000*%
G04 #@! TD*
G04 #@! TA.AperFunction,ComponentPad*
%ADD14O,1.900000X1.200000*%
G04 #@! TD*
G04 #@! TA.AperFunction,ComponentPad*
%ADD15C,1.450000*%
G04 #@! TD*
G04 #@! TA.AperFunction,ComponentPad*
%ADD16R,1.800000X1.800000*%
G04 #@! TD*
G04 #@! TA.AperFunction,ComponentPad*
%ADD17C,1.800000*%
G04 #@! TD*
G04 #@! TA.AperFunction,ViaPad*
%ADD18C,0.700000*%
G04 #@! TD*
G04 #@! TA.AperFunction,Conductor*
%ADD19C,0.300000*%
G04 #@! TD*
G04 APERTURE END LIST*
D10*
X137800000Y-96850000D03*
D11*
X137800000Y-99390000D03*
D12*
X136400000Y-120500000D03*
D13*
X136400000Y-123000000D03*
X136400000Y-125500000D03*
D14*
X134030000Y-103135000D03*
D15*
X136730000Y-104135000D03*
X136730000Y-109135000D03*
D14*
X134030000Y-110135000D03*
D16*
X160000000Y-115260000D03*
D17*
X160000000Y-112720000D03*
D18*
X163100000Y-97000000D03*
X144300000Y-133800000D03*
X158300000Y-103200000D03*
X162300000Y-124100000D03*
X163100000Y-97900000D03*
X159500000Y-126600000D03*
X148900000Y-112400000D03*
X150300000Y-106400000D03*
X156700000Y-98000000D03*
X146800000Y-100900000D03*
X157700000Y-110200000D03*
X149300000Y-102800000D03*
X146968424Y-109144207D03*
X142100000Y-107000000D03*
X153200000Y-98000000D03*
X154900000Y-121000000D03*
X140600000Y-110200000D03*
X163100000Y-96000000D03*
X158300000Y-102100000D03*
X156700000Y-97000000D03*
X163100000Y-98900000D03*
X149200000Y-95600000D03*
X141400000Y-115100000D03*
X138400000Y-115200000D03*
X160300000Y-103000000D03*
X139900000Y-119400000D03*
X145100000Y-125000000D03*
X138200000Y-108200000D03*
X152200000Y-98000000D03*
X146100000Y-105900000D03*
X146850000Y-108050000D03*
D19*
X135030000Y-109135000D02*
X134030000Y-110135000D01*
X136730000Y-104135000D02*
X135030000Y-104135000D01*
X135030000Y-104135000D02*
X134030000Y-103135000D01*
X136730000Y-109135000D02*
X135030000Y-109135000D01*
X146850000Y-108050000D02*
X146100000Y-107300000D01*
X146100000Y-107300000D02*
X146100000Y-105900000D01*
G04 #@! TA.AperFunction,Conductor*
G36*
X160001423Y-93000566D02*
G01*
X160040986Y-93002394D01*
X160172950Y-93008495D01*
X160372549Y-93018302D01*
X160378048Y-93018819D01*
X160563357Y-93044668D01*
X160749828Y-93072329D01*
X160754871Y-93073294D01*
X160939341Y-93116681D01*
X161120221Y-93161989D01*
X161124797Y-93163327D01*
X161305568Y-93223916D01*
X161480339Y-93286450D01*
X161484471Y-93288100D01*
X161542986Y-93313936D01*
X161659474Y-93365370D01*
X161826973Y-93444592D01*
X161830601Y-93446457D01*
X161998128Y-93539770D01*
X161998142Y-93539778D01*
X162156964Y-93634972D01*
X162160119Y-93636996D01*
X162318603Y-93745559D01*
X162467377Y-93855897D01*
X162470001Y-93857957D01*
X162618027Y-93980876D01*
X162755321Y-94105314D01*
X162757514Y-94107402D01*
X162892596Y-94242484D01*
X162894695Y-94244688D01*
X163019129Y-94381980D01*
X163142034Y-94529989D01*
X163144109Y-94532632D01*
X163254443Y-94681400D01*
X163363002Y-94839879D01*
X163365032Y-94843044D01*
X163460221Y-95001857D01*
X163553527Y-95169371D01*
X163555410Y-95173034D01*
X163634638Y-95340547D01*
X163711899Y-95515527D01*
X163713558Y-95519685D01*
X163776093Y-95694459D01*
X163836662Y-95875173D01*
X163838018Y-95879812D01*
X163883317Y-96060654D01*
X163926696Y-96245090D01*
X163927672Y-96250189D01*
X163955337Y-96436689D01*
X163981177Y-96621933D01*
X163981697Y-96627459D01*
X163991512Y-96827238D01*
X163999434Y-96998575D01*
X163999500Y-97001439D01*
X163999500Y-132998560D01*
X163999434Y-133001424D01*
X163991512Y-133172761D01*
X163981697Y-133372539D01*
X163981177Y-133378065D01*
X163955337Y-133563310D01*
X163927672Y-133749809D01*
X163926696Y-133754908D01*
X163883317Y-133939345D01*
X163838018Y-134120186D01*
X163836662Y-134124825D01*
X163776093Y-134305540D01*
X163713557Y-134480314D01*
X163711899Y-134484470D01*
X163634638Y-134659452D01*
X163555410Y-134826964D01*
X163553527Y-134830627D01*
X163460221Y-134998142D01*
X163365032Y-135156954D01*
X163363002Y-135160118D01*
X163254437Y-135318608D01*
X163144121Y-135467350D01*
X163142021Y-135470025D01*
X163019132Y-135618016D01*
X162894695Y-135755310D01*
X162892596Y-135757514D01*
X162757514Y-135892596D01*
X162755310Y-135894695D01*
X162618016Y-136019132D01*
X162470025Y-136142021D01*
X162467350Y-136144121D01*
X162318608Y-136254437D01*
X162160118Y-136363002D01*
X162156954Y-136365032D01*
X161998142Y-136460221D01*
X161830627Y-136553527D01*
X161826964Y-136555410D01*
X161659452Y-136634638D01*
X161484470Y-136711899D01*
X161480314Y-136713557D01*
X161305540Y-136776093D01*
X161124825Y-136836662D01*
X161120186Y-136838018D01*
X160939345Y-136883317D01*
X160754908Y-136926696D01*
X160749809Y-136927672D01*
X160563310Y-136955337D01*
X160378065Y-136981177D01*
X160372539Y-136981697D01*
X160172761Y-136991512D01*
X160001424Y-136999434D01*
X159998560Y-136999500D01*
X136001440Y-136999500D01*
X135998576Y-136999434D01*
X135827238Y-136991512D01*
X135627459Y-136981697D01*
X135621933Y-136981177D01*
X135436689Y-136955337D01*
X135250189Y-136927672D01*
X135245090Y-136926696D01*
X135060654Y-136883317D01*
X134879812Y-136838018D01*
X134875173Y-136836662D01*
X134694459Y-136776093D01*
X134519685Y-136713558D01*
X134515527Y-136711899D01*
X134340547Y-136634638D01*
X134173034Y-136555410D01*
X134169371Y-136553527D01*
X134001857Y-136460221D01*
X133843044Y-136365032D01*
X133839879Y-136363002D01*
X133730371Y-136287989D01*
X133681392Y-136254437D01*
X133532632Y-136144109D01*
X133529989Y-136142034D01*
X133381980Y-136019129D01*
X133244688Y-135894695D01*
X133242484Y-135892596D01*
X133107402Y-135757514D01*
X133105314Y-135755321D01*
X132980867Y-135618016D01*
X132857957Y-135470001D01*
X132855897Y-135467377D01*
X132745559Y-135318603D01*
X132636995Y-135160118D01*
X132634966Y-135156954D01*
X132539778Y-134998142D01*
X132512261Y-134948740D01*
X132446457Y-134830601D01*
X132444588Y-134826964D01*
X132420852Y-134776779D01*
X132365370Y-134659474D01*
X132288100Y-134484471D01*
X132286450Y-134480339D01*
X132223906Y-134305540D01*
X132163327Y-134124797D01*
X132161989Y-134120221D01*
X132116675Y-133939315D01*
X132111402Y-133916895D01*
X132073294Y-133754871D01*
X132072329Y-133749828D01*
X132044662Y-133563310D01*
X132018819Y-133378048D01*
X132018302Y-133372549D01*
X132008487Y-133172761D01*
X132003633Y-133067763D01*
X134145787Y-133067763D01*
X134175413Y-133337013D01*
X134175415Y-133337024D01*
X134234564Y-133563270D01*
X134243928Y-133599088D01*
X134349870Y-133848390D01*
X134421998Y-133966575D01*
X134490979Y-134079605D01*
X134490986Y-134079615D01*
X134664253Y-134287819D01*
X134664259Y-134287824D01*
X134769240Y-134381887D01*
X134865998Y-134468582D01*
X135091910Y-134618044D01*
X135337176Y-134733020D01*
X135337183Y-134733022D01*
X135337185Y-134733023D01*
X135596557Y-134811057D01*
X135596564Y-134811058D01*
X135596569Y-134811060D01*
X135864561Y-134850500D01*
X135864566Y-134850500D01*
X136067636Y-134850500D01*
X136119133Y-134846730D01*
X136270156Y-134835677D01*
X136382758Y-134810593D01*
X136534546Y-134776782D01*
X136534548Y-134776781D01*
X136534553Y-134776780D01*
X136787558Y-134680014D01*
X137023777Y-134547441D01*
X137238177Y-134381888D01*
X137426186Y-134186881D01*
X137583799Y-133966579D01*
X137692626Y-133754909D01*
X137707649Y-133725690D01*
X137707651Y-133725684D01*
X137707656Y-133725675D01*
X137795118Y-133469305D01*
X137844319Y-133202933D01*
X137849259Y-133067763D01*
X158145787Y-133067763D01*
X158175413Y-133337013D01*
X158175415Y-133337024D01*
X158234564Y-133563270D01*
X158243928Y-133599088D01*
X158349870Y-133848390D01*
X158421998Y-133966575D01*
X158490979Y-134079605D01*
X158490986Y-134079615D01*
X158664253Y-134287819D01*
X158664259Y-134287824D01*
X158769240Y-134381887D01*
X158865998Y-134468582D01*
X159091910Y-134618044D01*
X159337176Y-134733020D01*
X159337183Y-134733022D01*
X159337185Y-134733023D01*
X159596557Y-134811057D01*
X159596564Y-134811058D01*
X159596569Y-134811060D01*
X159864561Y-134850500D01*
X159864566Y-134850500D01*
X160067636Y-134850500D01*
X160119133Y-134846730D01*
X160270156Y-134835677D01*
X160382758Y-134810593D01*
X160534546Y-134776782D01*
X160534548Y-134776781D01*
X160534553Y-134776780D01*
X160787558Y-134680014D01*
X161023777Y-134547441D01*
X161238177Y-134381888D01*
X161426186Y-134186881D01*
X161583799Y-133966579D01*
X161692626Y-133754909D01*
X161707649Y-133725690D01*
X161707651Y-133725684D01*
X161707656Y-133725675D01*
X161795118Y-133469305D01*
X161844319Y-133202933D01*
X161854212Y-132932235D01*
X161824586Y-132662982D01*
X161756072Y-132400912D01*
X161650130Y-132151610D01*
X161509018Y-131920390D01*
X161419747Y-131813119D01*
X161335746Y-131712180D01*
X161335740Y-131712175D01*
X161134002Y-131531418D01*
X160908092Y-131381957D01*
X160908090Y-131381956D01*
X160662824Y-131266980D01*
X160662819Y-131266978D01*
X160662814Y-131266976D01*
X160403442Y-131188942D01*
X160403428Y-131188939D01*
X160287791Y-131171921D01*
X160135439Y-131149500D01*
X159932369Y-131149500D01*
X159932364Y-131149500D01*
X159729844Y-131164323D01*
X159729831Y-131164325D01*
X159465453Y-131223217D01*
X159465446Y-131223220D01*
X159212439Y-131319987D01*
X158976226Y-131452557D01*
X158761822Y-131618112D01*
X158573822Y-131813109D01*
X158573816Y-131813116D01*
X158416202Y-132033419D01*
X158416199Y-132033424D01*
X158292350Y-132274309D01*
X158292343Y-132274327D01*
X158204884Y-132530685D01*
X158204881Y-132530699D01*
X158155681Y-132797068D01*
X158155680Y-132797075D01*
X158145787Y-133067763D01*
X137849259Y-133067763D01*
X137854212Y-132932235D01*
X137824586Y-132662982D01*
X137756072Y-132400912D01*
X137650130Y-132151610D01*
X137509018Y-131920390D01*
X137419747Y-131813119D01*
X137335746Y-131712180D01*
X137335740Y-131712175D01*
X137134002Y-131531418D01*
X136908092Y-131381957D01*
X136908090Y-131381956D01*
X136662824Y-131266980D01*
X136662819Y-131266978D01*
X136662814Y-131266976D01*
X136403442Y-131188942D01*
X136403428Y-131188939D01*
X136287791Y-131171921D01*
X136135439Y-131149500D01*
X135932369Y-131149500D01*
X135932364Y-131149500D01*
X135729844Y-131164323D01*
X135729831Y-131164325D01*
X135465453Y-131223217D01*
X135465446Y-131223220D01*
X135212439Y-131319987D01*
X134976226Y-131452557D01*
X134761822Y-131618112D01*
X134573822Y-131813109D01*
X134573816Y-131813116D01*
X134416202Y-132033419D01*
X134416199Y-132033424D01*
X134292350Y-132274309D01*
X134292343Y-132274327D01*
X134204884Y-132530685D01*
X134204881Y-132530699D01*
X134155681Y-132797068D01*
X134155680Y-132797075D01*
X134145787Y-133067763D01*
X132003633Y-133067763D01*
X132000566Y-133001423D01*
X132000500Y-132998560D01*
X132000500Y-123000000D01*
X134919341Y-123000000D01*
X134939936Y-123235403D01*
X134939938Y-123235413D01*
X135001094Y-123463655D01*
X135001096Y-123463659D01*
X135001097Y-123463663D01*
X135051031Y-123570746D01*
X135100964Y-123677828D01*
X135100965Y-123677830D01*
X135236505Y-123871402D01*
X135403597Y-124038494D01*
X135561031Y-124148730D01*
X135604656Y-124203307D01*
X135611850Y-124272805D01*
X135580327Y-124335160D01*
X135561032Y-124351880D01*
X135403922Y-124461890D01*
X135403920Y-124461891D01*
X135236894Y-124628917D01*
X135101399Y-124822421D01*
X135001570Y-125036507D01*
X135001567Y-125036513D01*
X134944364Y-125249999D01*
X134944364Y-125250000D01*
X135996031Y-125250000D01*
X135963481Y-125300649D01*
X135925000Y-125431705D01*
X135925000Y-125568295D01*
X135963481Y-125699351D01*
X135996031Y-125750000D01*
X134944364Y-125750000D01*
X135001567Y-125963486D01*
X135001570Y-125963492D01*
X135101399Y-126177577D01*
X135101400Y-126177579D01*
X135236886Y-126371073D01*
X135236891Y-126371079D01*
X135403920Y-126538108D01*
X135403926Y-126538113D01*
X135597420Y-126673599D01*
X135597422Y-126673600D01*
X135811507Y-126773429D01*
X135811516Y-126773433D01*
X136039678Y-126834568D01*
X136150000Y-126844219D01*
X136150000Y-125908018D01*
X136264801Y-125960446D01*
X136366025Y-125975000D01*
X136433975Y-125975000D01*
X136535199Y-125960446D01*
X136650000Y-125908018D01*
X136650000Y-126844219D01*
X136760320Y-126834568D01*
X136760323Y-126834568D01*
X136988483Y-126773433D01*
X136988492Y-126773429D01*
X137202577Y-126673600D01*
X137202579Y-126673599D01*
X137396073Y-126538113D01*
X137396079Y-126538108D01*
X137563105Y-126371082D01*
X137698600Y-126177578D01*
X137798429Y-125963492D01*
X137798432Y-125963486D01*
X137855636Y-125750000D01*
X136803969Y-125750000D01*
X136836519Y-125699351D01*
X136875000Y-125568295D01*
X136875000Y-125431705D01*
X136836519Y-125300649D01*
X136803969Y-125250000D01*
X137855636Y-125250000D01*
X137855635Y-125249999D01*
X137798432Y-125036513D01*
X137798429Y-125036507D01*
X137698600Y-124822422D01*
X137698599Y-124822420D01*
X137563113Y-124628926D01*
X137563108Y-124628920D01*
X137396079Y-124461891D01*
X137396073Y-124461886D01*
X137238967Y-124351880D01*
X137195342Y-124297303D01*
X137188148Y-124227805D01*
X137219671Y-124165450D01*
X137238960Y-124148735D01*
X137396401Y-124038495D01*
X137563495Y-123871401D01*
X137699035Y-123677830D01*
X137798903Y-123463663D01*
X137860063Y-123235408D01*
X137880659Y-123000000D01*
X137860063Y-122764592D01*
X137798903Y-122536337D01*
X137699035Y-122322171D01*
X137699034Y-122322169D01*
X137563494Y-122128597D01*
X137416295Y-121981398D01*
X137382810Y-121920075D01*
X137387794Y-121850383D01*
X137429666Y-121794450D01*
X137438880Y-121788178D01*
X137444334Y-121784814D01*
X137593656Y-121692712D01*
X137717712Y-121568656D01*
X137809814Y-121419334D01*
X137864999Y-121252797D01*
X137875500Y-121150009D01*
X137875499Y-119849992D01*
X137864999Y-119747203D01*
X137809814Y-119580666D01*
X137717712Y-119431344D01*
X137593656Y-119307288D01*
X137444334Y-119215186D01*
X137277797Y-119160001D01*
X137277795Y-119160000D01*
X137175010Y-119149500D01*
X135624998Y-119149500D01*
X135624981Y-119149501D01*
X135522203Y-119160000D01*
X135522200Y-119160001D01*
X135355668Y-119215185D01*
X135355663Y-119215187D01*
X135206342Y-119307289D01*
X135082289Y-119431342D01*
X134990187Y-119580663D01*
X134990186Y-119580666D01*
X134935001Y-119747203D01*
X134935001Y-119747204D01*
X134935000Y-119747204D01*
X134924500Y-119849983D01*
X134924500Y-121150001D01*
X134924501Y-121150018D01*
X134935000Y-121252796D01*
X134935001Y-121252799D01*
X134990185Y-121419331D01*
X134990187Y-121419336D01*
X135082289Y-121568657D01*
X135206344Y-121692712D01*
X135361120Y-121788178D01*
X135407845Y-121840126D01*
X135419068Y-121909088D01*
X135391224Y-121973171D01*
X135383706Y-121981398D01*
X135236501Y-122128603D01*
X135236501Y-122128604D01*
X135100967Y-122322165D01*
X135100965Y-122322169D01*
X135001098Y-122536335D01*
X135001094Y-122536344D01*
X134939938Y-122764586D01*
X134939936Y-122764596D01*
X134919341Y-122999999D01*
X134919341Y-123000000D01*
X132000500Y-123000000D01*
X132000500Y-113559660D01*
X149170393Y-113559660D01*
X149200668Y-113731354D01*
X149269721Y-113891438D01*
X149269722Y-113891440D01*
X149269724Y-113891443D01*
X149352370Y-114002455D01*
X149373832Y-114031283D01*
X149507386Y-114143349D01*
X149663185Y-114221594D01*
X149832829Y-114261800D01*
X149832831Y-114261800D01*
X149963429Y-114261800D01*
X149963436Y-114261800D01*
X150093164Y-114246637D01*
X150256993Y-114187008D01*
X150402654Y-114091205D01*
X150522296Y-113964393D01*
X150609467Y-113813407D01*
X150659469Y-113646388D01*
X150669607Y-113472340D01*
X150639332Y-113300646D01*
X150570279Y-113140562D01*
X150560442Y-113127349D01*
X150466167Y-113000716D01*
X150332614Y-112888651D01*
X150332612Y-112888650D01*
X150176818Y-112810407D01*
X150176816Y-112810406D01*
X150176815Y-112810406D01*
X150007171Y-112770200D01*
X149876564Y-112770200D01*
X149763052Y-112783467D01*
X149746835Y-112785363D01*
X149746832Y-112785364D01*
X149583008Y-112844991D01*
X149583004Y-112844993D01*
X149437348Y-112940792D01*
X149437347Y-112940793D01*
X149317706Y-113067603D01*
X149317703Y-113067609D01*
X149230534Y-113218590D01*
X149180531Y-113385610D01*
X149180530Y-113385616D01*
X149180342Y-113388849D01*
X149170393Y-113559660D01*
X132000500Y-113559660D01*
X132000500Y-112543660D01*
X154250393Y-112543660D01*
X154280668Y-112715354D01*
X154349721Y-112875438D01*
X154349722Y-112875440D01*
X154349724Y-112875443D01*
X154404032Y-112948390D01*
X154453832Y-113015283D01*
X154587386Y-113127349D01*
X154743185Y-113205594D01*
X154912829Y-113245800D01*
X154912831Y-113245800D01*
X155043429Y-113245800D01*
X155043436Y-113245800D01*
X155173164Y-113230637D01*
X155336993Y-113171008D01*
X155482654Y-113075205D01*
X155602296Y-112948393D01*
X155689467Y-112797407D01*
X155712639Y-112720006D01*
X158594700Y-112720006D01*
X158613864Y-112951297D01*
X158613866Y-112951308D01*
X158670842Y-113176300D01*
X158764075Y-113388848D01*
X158891016Y-113583147D01*
X158891019Y-113583151D01*
X158891021Y-113583153D01*
X158985803Y-113686114D01*
X159016724Y-113748767D01*
X159008864Y-113818193D01*
X158964716Y-113872348D01*
X158937906Y-113886277D01*
X158857669Y-113916203D01*
X158857664Y-113916206D01*
X158742455Y-114002452D01*
X158742452Y-114002455D01*
X158656206Y-114117664D01*
X158656202Y-114117671D01*
X158605908Y-114252517D01*
X158599501Y-114312116D01*
X158599501Y-114312123D01*
X158599500Y-114312135D01*
X158599500Y-116207870D01*
X158599501Y-116207876D01*
X158605908Y-116267483D01*
X158656202Y-116402328D01*
X158656206Y-116402335D01*
X158742452Y-116517544D01*
X158742455Y-116517547D01*
X158857664Y-116603793D01*
X158857671Y-116603797D01*
X158992517Y-116654091D01*
X158992516Y-116654091D01*
X158999444Y-116654835D01*
X159052127Y-116660500D01*
X160947872Y-116660499D01*
X161007483Y-116654091D01*
X161142331Y-116603796D01*
X161257546Y-116517546D01*
X161343796Y-116402331D01*
X161394091Y-116267483D01*
X161400500Y-116207873D01*
X161400499Y-114312128D01*
X161394091Y-114252517D01*
X161391897Y-114246635D01*
X161343797Y-114117671D01*
X161343793Y-114117664D01*
X161257547Y-114002455D01*
X161257544Y-114002452D01*
X161142335Y-113916206D01*
X161142328Y-113916202D01*
X161062094Y-113886277D01*
X161006160Y-113844406D01*
X160981743Y-113778941D01*
X160996595Y-113710668D01*
X161014190Y-113686121D01*
X161108979Y-113583153D01*
X161235924Y-113388849D01*
X161329157Y-113176300D01*
X161386134Y-112951305D01*
X161386375Y-112948396D01*
X161405300Y-112720006D01*
X161405300Y-112719993D01*
X161386135Y-112488702D01*
X161386133Y-112488691D01*
X161329157Y-112263699D01*
X161235924Y-112051151D01*
X161108983Y-111856852D01*
X161108980Y-111856849D01*
X161108979Y-111856847D01*
X160951784Y-111686087D01*
X160951779Y-111686083D01*
X160951777Y-111686081D01*
X160768634Y-111543535D01*
X160768628Y-111543531D01*
X160564504Y-111433064D01*
X160564495Y-111433061D01*
X160344984Y-111357702D01*
X160173282Y-111329050D01*
X160116049Y-111319500D01*
X159883951Y-111319500D01*
X159838164Y-111327140D01*
X159655015Y-111357702D01*
X159435504Y-111433061D01*
X159435495Y-111433064D01*
X159231371Y-111543531D01*
X159231365Y-111543535D01*
X159048222Y-111686081D01*
X159048219Y-111686084D01*
X158891016Y-111856852D01*
X158764075Y-112051151D01*
X158670842Y-112263699D01*
X158613866Y-112488691D01*
X158613864Y-112488702D01*
X158594700Y-112719993D01*
X158594700Y-112720006D01*
X155712639Y-112720006D01*
X155739469Y-112630388D01*
X155749607Y-112456340D01*
X155719332Y-112284646D01*
X155650279Y-112124562D01*
X155640442Y-112111349D01*
X155546167Y-111984716D01*
X155412614Y-111872651D01*
X155412612Y-111872650D01*
X155256818Y-111794407D01*
X155256816Y-111794406D01*
X155256815Y-111794406D01*
X155087171Y-111754200D01*
X154956564Y-111754200D01*
X154843052Y-111767467D01*
X154826835Y-111769363D01*
X154826832Y-111769364D01*
X154663008Y-111828991D01*
X154663004Y-111828993D01*
X154517348Y-111924792D01*
X154517347Y-111924793D01*
X154397706Y-112051603D01*
X154397703Y-112051609D01*
X154310534Y-112202590D01*
X154260531Y-112369610D01*
X154260530Y-112369616D01*
X154253594Y-112488702D01*
X154250393Y-112543660D01*
X132000500Y-112543660D01*
X132000500Y-111527660D01*
X149170393Y-111527660D01*
X149173192Y-111543531D01*
X149198327Y-111686081D01*
X149200668Y-111699354D01*
X149269721Y-111859438D01*
X149269722Y-111859440D01*
X149269724Y-111859443D01*
X149324032Y-111932390D01*
X149373832Y-111999283D01*
X149507386Y-112111349D01*
X149663185Y-112189594D01*
X149832829Y-112229800D01*
X149832831Y-112229800D01*
X149963429Y-112229800D01*
X149963436Y-112229800D01*
X150093164Y-112214637D01*
X150256993Y-112155008D01*
X150402654Y-112059205D01*
X150522296Y-111932393D01*
X150609467Y-111781407D01*
X150659469Y-111614388D01*
X150669607Y-111440340D01*
X150639332Y-111268646D01*
X150570279Y-111108562D01*
X150537856Y-111065011D01*
X150466167Y-110968716D01*
X150332614Y-110856651D01*
X150332612Y-110856650D01*
X150176818Y-110778407D01*
X150176816Y-110778406D01*
X150176815Y-110778406D01*
X150007171Y-110738200D01*
X149876564Y-110738200D01*
X149763052Y-110751467D01*
X149746835Y-110753363D01*
X149746832Y-110753364D01*
X149583008Y-110812991D01*
X149583004Y-110812993D01*
X149437348Y-110908792D01*
X149437347Y-110908793D01*
X149317706Y-111035603D01*
X149317703Y-111035609D01*
X149230534Y-111186590D01*
X149180531Y-111353610D01*
X149180530Y-111353616D01*
X149175903Y-111433061D01*
X149170393Y-111527660D01*
X132000500Y-111527660D01*
X132000500Y-110082401D01*
X132575746Y-110082401D01*
X132585745Y-110292327D01*
X132635296Y-110496578D01*
X132635298Y-110496582D01*
X132722598Y-110687743D01*
X132722601Y-110687748D01*
X132722602Y-110687750D01*
X132722604Y-110687753D01*
X132844514Y-110858952D01*
X132844515Y-110858953D01*
X132844520Y-110858959D01*
X132996620Y-111003985D01*
X133091578Y-111065011D01*
X133173428Y-111117613D01*
X133368543Y-111195725D01*
X133471729Y-111215612D01*
X133574914Y-111235500D01*
X133574915Y-111235500D01*
X134432419Y-111235500D01*
X134432425Y-111235500D01*
X134589218Y-111220528D01*
X134790875Y-111161316D01*
X134977682Y-111065011D01*
X135142886Y-110935092D01*
X135280519Y-110776256D01*
X135293737Y-110753363D01*
X135385601Y-110594249D01*
X135385600Y-110594249D01*
X135385604Y-110594244D01*
X135454344Y-110395633D01*
X135484254Y-110187602D01*
X135474254Y-109977670D01*
X135464808Y-109938733D01*
X135468133Y-109868943D01*
X135508662Y-109812029D01*
X135573527Y-109786061D01*
X135585313Y-109785500D01*
X135624876Y-109785500D01*
X135691915Y-109805185D01*
X135726450Y-109838376D01*
X135751652Y-109874368D01*
X135787627Y-109925745D01*
X135939255Y-110077373D01*
X136114909Y-110200368D01*
X136309253Y-110290992D01*
X136516381Y-110346492D01*
X136668966Y-110359841D01*
X136729998Y-110365181D01*
X136730000Y-110365181D01*
X136730002Y-110365181D01*
X136783404Y-110360508D01*
X136943619Y-110346492D01*
X137150747Y-110290992D01*
X137345091Y-110200368D01*
X137520745Y-110077373D01*
X137672373Y-109925745D01*
X137795368Y-109750091D01*
X137885992Y-109555747D01*
X137941492Y-109348619D01*
X137960181Y-109135000D01*
X137941492Y-108921381D01*
X137885992Y-108714253D01*
X137795368Y-108519910D01*
X137793896Y-108517808D01*
X137672376Y-108344259D01*
X137672371Y-108344253D01*
X137520745Y-108192627D01*
X137345090Y-108069631D01*
X137247919Y-108024320D01*
X137150747Y-107979008D01*
X137150743Y-107979007D01*
X137150739Y-107979005D01*
X136943624Y-107923509D01*
X136943620Y-107923508D01*
X136943619Y-107923508D01*
X136943618Y-107923507D01*
X136943613Y-107923507D01*
X136730002Y-107904819D01*
X136729998Y-107904819D01*
X136516386Y-107923507D01*
X136516375Y-107923509D01*
X136309260Y-107979005D01*
X136309251Y-107979009D01*
X136114910Y-108069631D01*
X136114908Y-108069632D01*
X135939259Y-108192623D01*
X135939253Y-108192628D01*
X135787627Y-108344254D01*
X135726450Y-108431624D01*
X135671873Y-108475249D01*
X135624876Y-108484500D01*
X135115506Y-108484500D01*
X135099495Y-108482732D01*
X135099473Y-108482974D01*
X135091706Y-108482239D01*
X135019783Y-108484500D01*
X134989075Y-108484500D01*
X134989071Y-108484500D01*
X134989060Y-108484501D01*
X134981804Y-108485417D01*
X134975986Y-108485875D01*
X134927433Y-108487401D01*
X134912873Y-108491630D01*
X134907040Y-108493325D01*
X134887996Y-108497269D01*
X134866942Y-108499929D01*
X134866940Y-108499929D01*
X134821781Y-108517808D01*
X134816255Y-108519700D01*
X134769601Y-108533254D01*
X134751325Y-108544063D01*
X134733860Y-108552619D01*
X134714124Y-108560433D01*
X134674824Y-108588986D01*
X134669942Y-108592193D01*
X134628136Y-108616917D01*
X134613124Y-108631929D01*
X134598336Y-108644558D01*
X134581167Y-108657032D01*
X134581165Y-108657034D01*
X134550194Y-108694470D01*
X134546261Y-108698791D01*
X134246871Y-108998182D01*
X134185551Y-109031666D01*
X134159192Y-109034500D01*
X133627575Y-109034500D01*
X133470782Y-109049472D01*
X133470778Y-109049473D01*
X133269127Y-109108683D01*
X133082313Y-109204991D01*
X132917116Y-109334905D01*
X132917112Y-109334909D01*
X132779478Y-109493746D01*
X132674398Y-109675750D01*
X132605656Y-109874365D01*
X132605656Y-109874367D01*
X132576469Y-110077373D01*
X132575746Y-110082401D01*
X132000500Y-110082401D01*
X132000500Y-105900000D01*
X145244815Y-105900000D01*
X145263503Y-106077805D01*
X145263504Y-106077807D01*
X145318747Y-106247829D01*
X145318750Y-106247835D01*
X145408141Y-106402665D01*
X145417648Y-106413223D01*
X145447879Y-106476213D01*
X145449500Y-106496197D01*
X145449500Y-107214494D01*
X145447732Y-107230505D01*
X145447974Y-107230528D01*
X145447240Y-107238294D01*
X145449500Y-107310203D01*
X145449500Y-107340920D01*
X145449501Y-107340940D01*
X145450418Y-107348206D01*
X145450876Y-107354024D01*
X145452402Y-107402567D01*
X145452403Y-107402570D01*
X145458323Y-107422948D01*
X145462268Y-107441996D01*
X145464928Y-107463054D01*
X145464931Y-107463064D01*
X145482813Y-107508230D01*
X145484705Y-107513758D01*
X145498254Y-107560395D01*
X145498255Y-107560397D01*
X145509060Y-107578666D01*
X145517617Y-107596134D01*
X145523226Y-107610300D01*
X145525432Y-107615872D01*
X145553983Y-107655170D01*
X145557188Y-107660049D01*
X145581919Y-107701865D01*
X145581923Y-107701869D01*
X145596925Y-107716871D01*
X145609563Y-107731669D01*
X145622033Y-107748833D01*
X145622036Y-107748836D01*
X145622037Y-107748837D01*
X145659476Y-107779809D01*
X145663776Y-107783722D01*
X145859059Y-107979005D01*
X145971371Y-108091317D01*
X146004856Y-108152640D01*
X146007010Y-108166031D01*
X146013503Y-108227803D01*
X146013504Y-108227805D01*
X146013504Y-108227807D01*
X146068747Y-108397829D01*
X146068750Y-108397835D01*
X146158141Y-108552665D01*
X146190845Y-108588986D01*
X146277764Y-108685521D01*
X146277767Y-108685523D01*
X146277770Y-108685526D01*
X146422407Y-108790612D01*
X146585733Y-108863329D01*
X146760609Y-108900500D01*
X146760610Y-108900500D01*
X146939389Y-108900500D01*
X146939391Y-108900500D01*
X147114267Y-108863329D01*
X147277593Y-108790612D01*
X147422230Y-108685526D01*
X147541859Y-108552665D01*
X147631250Y-108397835D01*
X147686497Y-108227803D01*
X147705185Y-108050000D01*
X147686497Y-107872197D01*
X147646415Y-107748837D01*
X147631252Y-107702170D01*
X147631249Y-107702164D01*
X147631079Y-107701869D01*
X147541859Y-107547335D01*
X147465981Y-107463064D01*
X147422235Y-107414478D01*
X147422232Y-107414476D01*
X147422231Y-107414475D01*
X147422230Y-107414474D01*
X147277593Y-107309388D01*
X147114267Y-107236671D01*
X147114265Y-107236670D01*
X146977473Y-107207594D01*
X146949989Y-107201752D01*
X146888508Y-107168561D01*
X146888090Y-107168144D01*
X146786819Y-107066873D01*
X146753334Y-107005550D01*
X146750500Y-106979192D01*
X146750500Y-106496197D01*
X146770185Y-106429158D01*
X146782352Y-106413223D01*
X146791859Y-106402665D01*
X146881250Y-106247835D01*
X146936497Y-106077803D01*
X146955185Y-105900000D01*
X146936497Y-105722197D01*
X146881250Y-105552165D01*
X146791859Y-105397335D01*
X146745003Y-105345296D01*
X146672235Y-105264478D01*
X146672232Y-105264476D01*
X146672231Y-105264475D01*
X146672230Y-105264474D01*
X146527593Y-105159388D01*
X146364267Y-105086671D01*
X146364265Y-105086670D01*
X146236594Y-105059533D01*
X146189391Y-105049500D01*
X146010609Y-105049500D01*
X145979954Y-105056015D01*
X145835733Y-105086670D01*
X145835728Y-105086672D01*
X145672408Y-105159387D01*
X145527768Y-105264475D01*
X145408140Y-105397336D01*
X145318750Y-105552164D01*
X145318747Y-105552170D01*
X145263504Y-105722192D01*
X145263503Y-105722194D01*
X145244815Y-105900000D01*
X132000500Y-105900000D01*
X132000500Y-103082401D01*
X132575746Y-103082401D01*
X132585745Y-103292327D01*
X132635296Y-103496578D01*
X132635298Y-103496582D01*
X132722598Y-103687743D01*
X132722601Y-103687748D01*
X132722602Y-103687750D01*
X132722604Y-103687753D01*
X132741475Y-103714253D01*
X132844515Y-103858953D01*
X132844520Y-103858959D01*
X132996620Y-104003985D01*
X132996622Y-104003986D01*
X133173428Y-104117613D01*
X133368543Y-104195725D01*
X133471729Y-104215612D01*
X133574914Y-104235500D01*
X133574915Y-104235500D01*
X134159192Y-104235500D01*
X134226231Y-104255185D01*
X134246873Y-104271819D01*
X134509564Y-104534510D01*
X134519635Y-104547080D01*
X134519822Y-104546926D01*
X134524796Y-104552937D01*
X134524798Y-104552940D01*
X134553345Y-104579748D01*
X134577243Y-104602190D01*
X134598966Y-104623912D01*
X134604758Y-104628405D01*
X134609198Y-104632198D01*
X134625260Y-104647280D01*
X134644607Y-104665448D01*
X134663198Y-104675668D01*
X134679463Y-104686352D01*
X134696234Y-104699361D01*
X134696237Y-104699363D01*
X134740827Y-104718658D01*
X134746056Y-104721220D01*
X134788632Y-104744627D01*
X134809193Y-104749905D01*
X134827597Y-104756207D01*
X134847074Y-104764636D01*
X134884927Y-104770630D01*
X134895054Y-104772235D01*
X134900764Y-104773417D01*
X134947823Y-104785500D01*
X134969045Y-104785500D01*
X134988442Y-104787026D01*
X135009405Y-104790347D01*
X135057772Y-104785774D01*
X135063609Y-104785500D01*
X135624876Y-104785500D01*
X135691915Y-104805185D01*
X135726450Y-104838376D01*
X135787627Y-104925745D01*
X135939255Y-105077373D01*
X136114909Y-105200368D01*
X136309253Y-105290992D01*
X136516381Y-105346492D01*
X136668966Y-105359841D01*
X136729998Y-105365181D01*
X136730000Y-105365181D01*
X136730002Y-105365181D01*
X136783404Y-105360508D01*
X136943619Y-105346492D01*
X137150747Y-105290992D01*
X137345091Y-105200368D01*
X137520745Y-105077373D01*
X137672373Y-104925745D01*
X137795368Y-104750091D01*
X137885992Y-104555747D01*
X137941492Y-104348619D01*
X137960181Y-104135000D01*
X137941492Y-103921381D01*
X137885992Y-103714253D01*
X137795368Y-103519910D01*
X137779029Y-103496576D01*
X137672376Y-103344259D01*
X137672371Y-103344253D01*
X137520745Y-103192627D01*
X137345090Y-103069631D01*
X137247919Y-103024320D01*
X137150747Y-102979008D01*
X137150743Y-102979007D01*
X137150739Y-102979005D01*
X136943624Y-102923509D01*
X136943620Y-102923508D01*
X136943619Y-102923508D01*
X136943618Y-102923507D01*
X136943613Y-102923507D01*
X136730002Y-102904819D01*
X136729998Y-102904819D01*
X136516386Y-102923507D01*
X136516375Y-102923509D01*
X136309260Y-102979005D01*
X136309251Y-102979009D01*
X136114910Y-103069631D01*
X136114908Y-103069632D01*
X135939259Y-103192623D01*
X135939253Y-103192628D01*
X135787627Y-103344254D01*
X135726450Y-103431624D01*
X135671873Y-103475249D01*
X135624876Y-103484500D01*
X135584670Y-103484500D01*
X135517631Y-103464815D01*
X135471876Y-103412011D01*
X135461932Y-103342854D01*
X135484254Y-103187602D01*
X135474254Y-102977670D01*
X135424704Y-102773424D01*
X135424701Y-102773417D01*
X135337401Y-102582256D01*
X135337398Y-102582251D01*
X135337397Y-102582250D01*
X135337396Y-102582247D01*
X135215486Y-102411048D01*
X135215484Y-102411046D01*
X135215479Y-102411040D01*
X135063379Y-102266014D01*
X134886574Y-102152388D01*
X134691455Y-102074274D01*
X134485086Y-102034500D01*
X134485085Y-102034500D01*
X133627575Y-102034500D01*
X133470782Y-102049472D01*
X133470778Y-102049473D01*
X133269127Y-102108683D01*
X133082313Y-102204991D01*
X132917116Y-102334905D01*
X132917112Y-102334909D01*
X132779478Y-102493746D01*
X132674398Y-102675750D01*
X132605656Y-102874365D01*
X132605656Y-102874367D01*
X132577582Y-103069632D01*
X132575746Y-103082401D01*
X132000500Y-103082401D01*
X132000500Y-99390000D01*
X136245207Y-99390000D01*
X136264348Y-99633219D01*
X136321303Y-99870457D01*
X136414668Y-100095861D01*
X136538504Y-100297942D01*
X137274070Y-99562375D01*
X137276884Y-99575915D01*
X137346442Y-99710156D01*
X137449638Y-99820652D01*
X137578819Y-99899209D01*
X137630002Y-99913549D01*
X136892056Y-100651494D01*
X137094138Y-100775331D01*
X137319542Y-100868696D01*
X137556780Y-100925651D01*
X137556779Y-100925651D01*
X137800000Y-100944792D01*
X138043219Y-100925651D01*
X138280457Y-100868696D01*
X138505861Y-100775331D01*
X138707942Y-100651494D01*
X137971568Y-99915121D01*
X138088458Y-99864349D01*
X138205739Y-99768934D01*
X138292928Y-99645415D01*
X138323354Y-99559802D01*
X139061494Y-100297942D01*
X139185331Y-100095861D01*
X139278696Y-99870457D01*
X139335651Y-99633219D01*
X139354792Y-99390000D01*
X139335651Y-99146780D01*
X139278696Y-98909542D01*
X139185331Y-98684138D01*
X139072149Y-98499442D01*
X139053904Y-98431996D01*
X139075020Y-98365394D01*
X139103560Y-98335389D01*
X139207546Y-98257546D01*
X139293796Y-98142331D01*
X139344091Y-98007483D01*
X139350500Y-97947873D01*
X139350499Y-95752128D01*
X139345299Y-95703757D01*
X139344091Y-95692516D01*
X139293797Y-95557671D01*
X139293793Y-95557664D01*
X139207547Y-95442455D01*
X139207544Y-95442452D01*
X139092335Y-95356206D01*
X139092328Y-95356202D01*
X138957482Y-95305908D01*
X138957483Y-95305908D01*
X138897883Y-95299501D01*
X138897881Y-95299500D01*
X138897873Y-95299500D01*
X138897864Y-95299500D01*
X136702129Y-95299500D01*
X136702123Y-95299501D01*
X136642516Y-95305908D01*
X136507671Y-95356202D01*
X136507664Y-95356206D01*
X136392455Y-95442452D01*
X136392452Y-95442455D01*
X136306206Y-95557664D01*
X136306202Y-95557671D01*
X136255908Y-95692517D01*
X136252167Y-95727318D01*
X136249501Y-95752123D01*
X136249500Y-95752135D01*
X136249500Y-97947870D01*
X136249501Y-97947876D01*
X136255908Y-98007483D01*
X136306202Y-98142328D01*
X136306206Y-98142335D01*
X136375358Y-98234709D01*
X136392454Y-98257546D01*
X136496434Y-98335386D01*
X136538305Y-98391319D01*
X136543289Y-98461011D01*
X136527851Y-98499441D01*
X136414667Y-98684140D01*
X136321303Y-98909542D01*
X136264348Y-99146780D01*
X136245207Y-99390000D01*
X132000500Y-99390000D01*
X132000500Y-97001439D01*
X132000566Y-96998576D01*
X132008487Y-96827238D01*
X132018302Y-96627446D01*
X132018818Y-96621955D01*
X132044670Y-96436633D01*
X132072331Y-96250162D01*
X132073292Y-96245137D01*
X132116689Y-96060626D01*
X132161993Y-95879764D01*
X132163323Y-95875216D01*
X132223915Y-95694431D01*
X132286457Y-95519641D01*
X132288100Y-95515527D01*
X132365368Y-95340530D01*
X132444615Y-95172977D01*
X132446444Y-95169423D01*
X132539781Y-95001852D01*
X132634990Y-94843005D01*
X132636979Y-94839904D01*
X132745570Y-94681381D01*
X132855924Y-94532586D01*
X132857928Y-94530033D01*
X132980875Y-94381973D01*
X133105351Y-94244636D01*
X133107361Y-94242526D01*
X133242526Y-94107361D01*
X133244636Y-94105351D01*
X133381973Y-93980875D01*
X133530033Y-93857928D01*
X133532586Y-93855924D01*
X133681381Y-93745570D01*
X133839904Y-93636979D01*
X133843005Y-93634990D01*
X134001858Y-93539778D01*
X134169423Y-93446444D01*
X134172977Y-93444615D01*
X134340530Y-93365368D01*
X134515538Y-93288095D01*
X134519641Y-93286457D01*
X134694431Y-93223915D01*
X134875216Y-93163323D01*
X134879764Y-93161993D01*
X135060626Y-93116689D01*
X135245137Y-93073292D01*
X135250162Y-93072331D01*
X135436651Y-93044667D01*
X135621955Y-93018818D01*
X135627446Y-93018302D01*
X135826958Y-93008500D01*
X135968945Y-93001935D01*
X135998577Y-93000566D01*
X136001440Y-93000500D01*
X159998560Y-93000500D01*
X160001423Y-93000566D01*
G37*
G04 #@! TD.AperFunction*
M02*
