%TF.GenerationSoftware,KiCad,Pcbnew,9.0.2*%
%TF.CreationDate,2025-06-15T01:16:02-07:00*%
%TF.ProjectId,SDM26_BSPD_1.0,53444d32-365f-4425-9350-445f312e302e,rev?*%
%TF.SameCoordinates,Original*%
%TF.FileFunction,Copper,L4,Bot*%
%TF.FilePolarity,Positive*%
%FSLAX46Y46*%
G04 Gerber Fmt 4.6, Leading zero omitted, Abs format (unit mm)*
G04 Created by KiCad (PCBNEW 9.0.2) date 2025-06-15 01:16:02*
%MOMM*%
%LPD*%
G01*
G04 APERTURE LIST*
%TA.AperFunction,ComponentPad*%
%ADD10C,2.700000*%
%TD*%
%TA.AperFunction,ComponentPad*%
%ADD11C,2.400000*%
%TD*%
%TA.AperFunction,ComponentPad*%
%ADD12C,1.303000*%
%TD*%
%TA.AperFunction,ViaPad*%
%ADD13C,0.600000*%
%TD*%
%TA.AperFunction,Conductor*%
%ADD14C,0.500000*%
%TD*%
%TA.AperFunction,Conductor*%
%ADD15C,0.300000*%
%TD*%
%TA.AperFunction,Conductor*%
%ADD16C,0.200000*%
%TD*%
G04 APERTURE END LIST*
D10*
%TO.P,J1,1,Pin_1*%
%TO.N,/TPS_MAIN*%
X113700000Y-109500000D03*
%TO.P,J1,2,Pin_2*%
%TO.N,BSPD KILL SIGNAL*%
X113700000Y-113500000D03*
%TO.P,J1,3,Pin_3*%
%TO.N,/12V MASTER*%
X113700000Y-117500000D03*
%TO.P,J1,4,Pin_4*%
%TO.N,unconnected-(J1-Pin_4-Pad4)*%
X109700000Y-111500000D03*
%TO.P,J1,5,Pin_5*%
%TO.N,/5V PDM*%
X109700000Y-115500000D03*
%TO.P,J1,6,Pin_6*%
%TO.N,/BSE*%
X105700000Y-109500000D03*
%TO.P,J1,7,Pin_7*%
%TO.N,GND*%
X105700000Y-113500000D03*
%TO.P,J1,8,Pin_8*%
%TO.N,/12V IGNITION*%
X105700000Y-117500000D03*
%TD*%
D11*
%TO.P,RED_TP2,1,1*%
%TO.N,/HB\u002AT10_REF*%
X169000000Y-116000000D03*
%TD*%
%TO.P,RED_TP1,1,1*%
%TO.N,/TIMING_REF*%
X165000000Y-116000000D03*
%TD*%
D12*
%TO.P,VR1,1,CCW*%
%TO.N,+5V*%
X119000000Y-106000000D03*
%TO.P,VR1,2,Wiper*%
%TO.N,/TIMING_REF*%
X121540000Y-108540000D03*
%TO.P,VR1,3,CW*%
%TO.N,GND*%
X124080000Y-106000000D03*
%TD*%
D11*
%TO.P,BLACK_TP1,1,1*%
%TO.N,GND*%
X165000000Y-129000000D03*
%TD*%
%TO.P,WHITE_TP2,1,1*%
%TO.N,/TPS_MAIN*%
X181000000Y-129000000D03*
%TD*%
%TO.P,RED_TP5,1,1*%
%TO.N,/TPS_LOW_REF*%
X181000000Y-116000000D03*
%TD*%
D12*
%TO.P,VR6,1,CCW*%
%TO.N,+5V*%
X180500000Y-106000000D03*
%TO.P,VR6,2,Wiper*%
%TO.N,/BSE_LOW_REF*%
X183040000Y-108540000D03*
%TO.P,VR6,3,CW*%
%TO.N,GND*%
X185580000Y-106000000D03*
%TD*%
%TO.P,VR2,1,CCW*%
%TO.N,+5V*%
X131300000Y-106000000D03*
%TO.P,VR2,2,Wiper*%
%TO.N,/HB\u002AT10_REF*%
X133840000Y-108540000D03*
%TO.P,VR2,3,CW*%
%TO.N,GND*%
X136380000Y-106000000D03*
%TD*%
%TO.P,VR3,1,CCW*%
%TO.N,+5V*%
X143620000Y-106000000D03*
%TO.P,VR3,2,Wiper*%
%TO.N,/TPS_10\u0025_REF*%
X146160000Y-108540000D03*
%TO.P,VR3,3,CW*%
%TO.N,GND*%
X148700000Y-106000000D03*
%TD*%
D11*
%TO.P,WHITE_TP1,1,1*%
%TO.N,/BSE*%
X185000000Y-129000000D03*
%TD*%
%TO.P,RED_TP6,1,1*%
%TO.N,/BSE_LOW_REF*%
X185000000Y-116000000D03*
%TD*%
D12*
%TO.P,VR4,1,CCW*%
%TO.N,+5V*%
X155900000Y-106000000D03*
%TO.P,VR4,2,Wiper*%
%TO.N,/HEAVY_BRAKING_REF*%
X158440000Y-108540000D03*
%TO.P,VR4,3,CW*%
%TO.N,GND*%
X160980000Y-106000000D03*
%TD*%
%TO.P,VR5,1,CCW*%
%TO.N,+5V*%
X168200000Y-106000000D03*
%TO.P,VR5,2,Wiper*%
%TO.N,/TPS_LOW_REF*%
X170740000Y-108540000D03*
%TO.P,VR5,3,CW*%
%TO.N,GND*%
X173280000Y-106000000D03*
%TD*%
D11*
%TO.P,RED_TP3,1,1*%
%TO.N,/TPS_10\u0025_REF*%
X173000000Y-116000000D03*
%TD*%
%TO.P,RED_TP4,1,1*%
%TO.N,/HEAVY_BRAKING_REF*%
X177000000Y-116000000D03*
%TD*%
D13*
%TO.N,/12V IGNITION*%
X135919669Y-133780331D03*
X140900000Y-133100000D03*
%TO.N,GND*%
X171100000Y-137700000D03*
X130800000Y-123500000D03*
X148825000Y-118425000D03*
X132500000Y-132600000D03*
X130600000Y-138500000D03*
X106700000Y-139100000D03*
X175100000Y-137700000D03*
X108900000Y-125700000D03*
X141100000Y-115100000D03*
X109700000Y-125700000D03*
X111300000Y-125700000D03*
X108100000Y-139100000D03*
X183100000Y-137700000D03*
X111300000Y-139100000D03*
X112100000Y-125700000D03*
X113700000Y-125700000D03*
X107400000Y-125700000D03*
X179100000Y-137700000D03*
X108900000Y-139100000D03*
X115300000Y-125700000D03*
X112900000Y-125700000D03*
X109700000Y-139100000D03*
X110500000Y-125700000D03*
X112100000Y-139100000D03*
X137400000Y-138500000D03*
X123550000Y-116050000D03*
X108100000Y-125700000D03*
X105300000Y-125700000D03*
X106700000Y-125700000D03*
X105300000Y-139100000D03*
X152600000Y-126500000D03*
X142500000Y-119600000D03*
X106000000Y-125700000D03*
X114500000Y-125700000D03*
X112600000Y-102625000D03*
X123800000Y-138500000D03*
X113700000Y-139100000D03*
X118600000Y-126400000D03*
X115300000Y-139100000D03*
X112900000Y-139100000D03*
X107400000Y-139100000D03*
X167100000Y-137700000D03*
X127300000Y-133575000D03*
X130800000Y-121000000D03*
X132200000Y-115100000D03*
X114500000Y-139100000D03*
X106000000Y-139100000D03*
X138400000Y-131900000D03*
X110500000Y-139100000D03*
%TO.N,/HB\u002AT10_FAULT*%
X124230762Y-112049999D03*
X132300000Y-114009620D03*
%TO.N,/12V MASTER*%
X137000000Y-133800000D03*
X140400000Y-136800000D03*
%TO.N,/5V PDM*%
X134700000Y-134000000D03*
X134700000Y-135750000D03*
%TO.N,+5V*%
X129475000Y-132700000D03*
X136500000Y-121700000D03*
X128600000Y-117300000D03*
X152500000Y-120800000D03*
X152200000Y-116000000D03*
X138500000Y-125575000D03*
X126700000Y-122000000D03*
X146975000Y-119800000D03*
%TO.N,/BL+TL+(HB\u002AT10)_FAULT*%
X132700000Y-111450000D03*
X122100000Y-113600000D03*
%TO.N,/TPS_MAIN*%
X137600000Y-102600000D03*
X139150000Y-102600000D03*
X151500000Y-102600000D03*
X149400000Y-102600000D03*
%TO.N,/TPS_LOW_FAULT*%
X148050000Y-121750000D03*
X156000000Y-120500000D03*
%TO.N,/TPS_10\u0025_REF*%
X150000000Y-109800000D03*
X126750000Y-110450000D03*
%TO.N,/TPS_10\u0025_FAULT*%
X131087851Y-120250000D03*
X156000000Y-123500000D03*
%TO.N,/TPS_LOW_REF*%
X170740000Y-111860000D03*
X152100000Y-114000000D03*
X149800000Y-111700000D03*
%TO.N,/HB\u002AT10_REF*%
X122900000Y-110800000D03*
X144000000Y-109300000D03*
X150000000Y-110600000D03*
%TO.N,Net-(U1-ST)*%
X133200000Y-134200000D03*
X143200000Y-137600000D03*
%TO.N,/HEAVY_BRAKING_FAULT*%
X131600000Y-119600000D03*
X156000000Y-122000000D03*
%TO.N,/HEAVY_BRAKING_REF*%
X130400000Y-110800000D03*
%TO.N,/TIMING_REF*%
X163800000Y-105700000D03*
X163800000Y-111500000D03*
%TD*%
D14*
%TO.N,/12V IGNITION*%
X136651000Y-133049000D02*
X140849000Y-133049000D01*
X140849000Y-133049000D02*
X140900000Y-133100000D01*
X135919669Y-133780331D02*
X136651000Y-133049000D01*
D15*
%TO.N,/HB\u002AT10_FAULT*%
X127709620Y-114009620D02*
X125749999Y-112049999D01*
X125749999Y-112049999D02*
X124230762Y-112049999D01*
X132300000Y-114009620D02*
X127709620Y-114009620D01*
D14*
%TO.N,/12V MASTER*%
X137000000Y-133800000D02*
X140000000Y-136800000D01*
X140000000Y-136800000D02*
X140400000Y-136800000D01*
%TO.N,/5V PDM*%
X134700000Y-134000000D02*
X134700000Y-135750000D01*
D16*
%TO.N,/BL+TL+(HB\u002AT10)_FAULT*%
X122100000Y-112700000D02*
X122100000Y-113600000D01*
X123350000Y-111450000D02*
X122100000Y-112700000D01*
X132700000Y-111450000D02*
X123350000Y-111450000D01*
D15*
%TO.N,/TPS_MAIN*%
X149400000Y-102600000D02*
X151500000Y-102600000D01*
X137600000Y-102600000D02*
X139150000Y-102600000D01*
%TO.N,/TPS_LOW_FAULT*%
X148050000Y-121750000D02*
X154750000Y-121750000D01*
X154750000Y-121750000D02*
X156000000Y-120500000D01*
%TO.N,/TPS_10\u0025_REF*%
X144551000Y-110149000D02*
X127051000Y-110149000D01*
X146160000Y-108540000D02*
X144551000Y-110149000D01*
X150000000Y-109800000D02*
X164700000Y-109800000D01*
X170300000Y-113300000D02*
X173000000Y-116000000D01*
X164700000Y-109800000D02*
X168200000Y-113300000D01*
X168200000Y-113300000D02*
X170300000Y-113300000D01*
X127051000Y-110149000D02*
X126750000Y-110450000D01*
%TO.N,/TPS_10\u0025_FAULT*%
X134337851Y-123500000D02*
X156000000Y-123500000D01*
X131087851Y-120250000D02*
X134337851Y-123500000D01*
%TO.N,/TPS_LOW_REF*%
X170740000Y-108540000D02*
X173540000Y-108540000D01*
X152100000Y-114000000D02*
X149800000Y-111700000D01*
X173540000Y-108540000D02*
X181000000Y-116000000D01*
X170740000Y-111860000D02*
X170740000Y-108540000D01*
%TO.N,/HB\u002AT10_REF*%
X133840000Y-108540000D02*
X143240000Y-108540000D01*
X133840000Y-108540000D02*
X125160000Y-108540000D01*
X143240000Y-108540000D02*
X144000000Y-109300000D01*
X169000000Y-115500000D02*
X164100000Y-110600000D01*
X164100000Y-110600000D02*
X150000000Y-110600000D01*
X125160000Y-108540000D02*
X122900000Y-110800000D01*
%TO.N,Net-(U1-ST)*%
X135629346Y-137600000D02*
X143200000Y-137600000D01*
X133200000Y-135170654D02*
X135629346Y-137600000D01*
X133200000Y-134200000D02*
X133200000Y-135170654D01*
%TO.N,/HEAVY_BRAKING_FAULT*%
X134413500Y-122413500D02*
X155586500Y-122413500D01*
X155586500Y-122413500D02*
X156000000Y-122000000D01*
X131600000Y-119600000D02*
X134413500Y-122413500D01*
%TO.N,/HEAVY_BRAKING_REF*%
X147900000Y-110800000D02*
X150160000Y-108540000D01*
X173500000Y-112500000D02*
X177000000Y-116000000D01*
X168900000Y-112500000D02*
X170459346Y-112500000D01*
X170459346Y-112500000D02*
X170470346Y-112511000D01*
X170470346Y-112511000D02*
X171009654Y-112511000D01*
X158440000Y-108540000D02*
X164940000Y-108540000D01*
X171020654Y-112500000D02*
X173500000Y-112500000D01*
X150160000Y-108540000D02*
X158440000Y-108540000D01*
X164940000Y-108540000D02*
X168900000Y-112500000D01*
X171009654Y-112511000D02*
X171020654Y-112500000D01*
X130400000Y-110800000D02*
X147900000Y-110800000D01*
%TO.N,/TIMING_REF*%
X165000000Y-112700000D02*
X165000000Y-116000000D01*
X163800000Y-105700000D02*
X161700000Y-103600000D01*
X161700000Y-103600000D02*
X121800000Y-103600000D01*
X121800000Y-103600000D02*
X121540000Y-103860000D01*
X163800000Y-111500000D02*
X165000000Y-112700000D01*
X121540000Y-103860000D02*
X121540000Y-108540000D01*
%TD*%
%TA.AperFunction,Conductor*%
%TO.N,GND*%
G36*
X115843039Y-125219685D02*
G01*
X115888794Y-125272489D01*
X115900000Y-125324000D01*
X115900000Y-139375500D01*
X115880315Y-139442539D01*
X115827511Y-139488294D01*
X115776000Y-139499500D01*
X104924000Y-139499500D01*
X104856961Y-139479815D01*
X104811206Y-139427011D01*
X104800000Y-139375500D01*
X104800000Y-125324000D01*
X104819685Y-125256961D01*
X104872489Y-125211206D01*
X104924000Y-125200000D01*
X115776000Y-125200000D01*
X115843039Y-125219685D01*
G37*
%TD.AperFunction*%
%TD*%
M02*
