M48
; DRILL file {KiCad 9.0.2} date 2025-06-15T01:15:55-0700
; FORMAT={-:-/ absolute / metric / decimal}
; #@! TF.CreationDate,2025-06-15T01:15:55-07:00
; #@! TF.GenerationSoftware,Kicad,Pcbnew,9.0.2
; #@! TF.FileFunction,Plated,1,4,PTH
FMAT,2
METRIC
; #@! TA.AperFunction,Plated,PTH,ViaDrill
T1C0.300
; #@! TA.AperFunction,Plated,PTH,ComponentDrill
T2C0.760
; #@! TA.AperFunction,Plated,PTH,ComponentDrill
T3C1.600
; #@! TA.AperFunction,Plated,PTH,ComponentDrill
T4C1.850
%
G90
G05
T1
X105.3Y-125.7
X105.3Y-139.1
X106.0Y-125.7
X106.0Y-139.1
X106.7Y-125.7
X106.7Y-139.1
X107.4Y-125.7
X107.4Y-139.1
X108.1Y-125.7
X108.1Y-139.1
X108.9Y-125.7
X108.9Y-139.1
X109.7Y-125.7
X109.7Y-139.1
X110.5Y-125.7
X110.5Y-139.1
X111.3Y-125.7
X111.3Y-139.1
X112.1Y-125.7
X112.1Y-139.1
X112.6Y-102.625
X112.9Y-125.7
X112.9Y-139.1
X113.7Y-125.7
X113.7Y-139.1
X114.5Y-125.7
X114.5Y-139.1
X115.3Y-125.7
X115.3Y-139.1
X118.6Y-126.4
X122.1Y-113.6
X122.9Y-110.8
X123.55Y-116.05
X123.8Y-138.5
X124.231Y-112.05
X126.7Y-122.0
X126.75Y-110.45
X127.3Y-133.575
X128.6Y-117.3
X129.475Y-132.7
X130.4Y-110.8
X130.6Y-138.5
X130.8Y-121.0
X130.8Y-123.5
X131.088Y-120.25
X131.6Y-119.6
X132.2Y-115.1
X132.3Y-114.01
X132.5Y-132.6
X132.7Y-111.45
X133.2Y-134.2
X134.7Y-134.0
X134.7Y-135.75
X135.92Y-133.78
X136.5Y-121.7
X137.0Y-133.8
X137.4Y-138.5
X137.6Y-102.6
X138.4Y-131.9
X138.5Y-125.575
X139.15Y-102.6
X140.4Y-136.8
X140.9Y-133.1
X141.1Y-115.1
X142.5Y-119.6
X143.2Y-137.6
X144.0Y-109.3
X146.975Y-119.8
X148.05Y-121.75
X148.825Y-118.425
X149.4Y-102.6
X149.8Y-111.7
X150.0Y-109.8
X150.0Y-110.6
X151.5Y-102.6
X152.1Y-114.0
X152.2Y-116.0
X152.5Y-120.8
X152.6Y-126.5
X156.0Y-120.5
X156.0Y-122.0
X156.0Y-123.5
X163.8Y-105.7
X163.8Y-111.5
X167.1Y-137.7
X170.74Y-111.86
X171.1Y-137.7
X175.1Y-137.7
X179.1Y-137.7
X183.1Y-137.7
T2
X119.0Y-106.0
X121.54Y-108.54
X124.08Y-106.0
X131.3Y-106.0
X133.84Y-108.54
X136.38Y-106.0
X143.62Y-106.0
X146.16Y-108.54
X148.7Y-106.0
X155.9Y-106.0
X158.44Y-108.54
X160.98Y-106.0
X168.2Y-106.0
X170.74Y-108.54
X173.28Y-106.0
X180.5Y-106.0
X183.04Y-108.54
X185.58Y-106.0
T3
X165.0Y-116.0
X165.0Y-129.0
X169.0Y-116.0
X173.0Y-116.0
X177.0Y-116.0
X181.0Y-116.0
X181.0Y-129.0
X185.0Y-116.0
X185.0Y-129.0
T4
X105.7Y-109.5
X105.7Y-113.5
X105.7Y-117.5
X109.7Y-111.5
X109.7Y-115.5
X113.7Y-109.5
X113.7Y-113.5
X113.7Y-117.5
M30
