%TF.GenerationSoftware,KiCad,Pcbnew,7.0.8*%
%TF.CreationDate,2024-02-01T01:18:02-07:00*%
%TF.ProjectId,loggerpanel,6c6f6767-6572-4706-916e-656c2e6b6963,v1*%
%TF.SameCoordinates,Original*%
%TF.FileFunction,Drillmap*%
%TF.FilePolarity,Positive*%
%FSLAX45Y45*%
G04 Gerber Fmt 4.5, Leading zero omitted, Abs format (unit mm)*
G04 Created by KiCad (PCBNEW 7.0.8) date 2024-02-01 01:18:02*
%MOMM*%
%LPD*%
G01*
G04 APERTURE LIST*
%ADD10C,0.100000*%
%ADD11C,0.200000*%
G04 APERTURE END LIST*
D10*
X21000000Y-12600000D02*
G75*
G03*
X21400000Y-12200000I0J400000D01*
G01*
X7700000Y-12200000D02*
G75*
G03*
X8100000Y-12600000I400000J0D01*
G01*
X21400000Y-9000000D02*
X21400000Y-12200000D01*
X21000000Y-12600000D02*
X8100000Y-12600000D01*
X21400000Y-9000000D02*
G75*
G03*
X21000000Y-8600000I-400000J0D01*
G01*
X8100000Y-8600000D02*
G75*
G03*
X7700000Y-9000000I0J-400000D01*
G01*
X7700000Y-12200000D02*
X7700000Y-9000000D01*
X8100000Y-8600000D02*
X21000000Y-8600000D01*
D11*
X7955777Y-12916484D02*
X7955777Y-12716484D01*
X7955777Y-12716484D02*
X8003396Y-12716484D01*
X8003396Y-12716484D02*
X8031967Y-12726008D01*
X8031967Y-12726008D02*
X8051015Y-12745055D01*
X8051015Y-12745055D02*
X8060539Y-12764103D01*
X8060539Y-12764103D02*
X8070062Y-12802198D01*
X8070062Y-12802198D02*
X8070062Y-12830769D01*
X8070062Y-12830769D02*
X8060539Y-12868865D01*
X8060539Y-12868865D02*
X8051015Y-12887912D01*
X8051015Y-12887912D02*
X8031967Y-12906960D01*
X8031967Y-12906960D02*
X8003396Y-12916484D01*
X8003396Y-12916484D02*
X7955777Y-12916484D01*
X8155777Y-12916484D02*
X8155777Y-12783150D01*
X8155777Y-12821246D02*
X8165301Y-12802198D01*
X8165301Y-12802198D02*
X8174824Y-12792674D01*
X8174824Y-12792674D02*
X8193872Y-12783150D01*
X8193872Y-12783150D02*
X8212920Y-12783150D01*
X8279586Y-12916484D02*
X8279586Y-12783150D01*
X8279586Y-12716484D02*
X8270062Y-12726008D01*
X8270062Y-12726008D02*
X8279586Y-12735531D01*
X8279586Y-12735531D02*
X8289110Y-12726008D01*
X8289110Y-12726008D02*
X8279586Y-12716484D01*
X8279586Y-12716484D02*
X8279586Y-12735531D01*
X8403396Y-12916484D02*
X8384348Y-12906960D01*
X8384348Y-12906960D02*
X8374824Y-12887912D01*
X8374824Y-12887912D02*
X8374824Y-12716484D01*
X8508158Y-12916484D02*
X8489110Y-12906960D01*
X8489110Y-12906960D02*
X8479586Y-12887912D01*
X8479586Y-12887912D02*
X8479586Y-12716484D01*
X8736729Y-12916484D02*
X8736729Y-12716484D01*
X8736729Y-12716484D02*
X8803396Y-12859341D01*
X8803396Y-12859341D02*
X8870063Y-12716484D01*
X8870063Y-12716484D02*
X8870063Y-12916484D01*
X9051015Y-12916484D02*
X9051015Y-12811722D01*
X9051015Y-12811722D02*
X9041491Y-12792674D01*
X9041491Y-12792674D02*
X9022444Y-12783150D01*
X9022444Y-12783150D02*
X8984348Y-12783150D01*
X8984348Y-12783150D02*
X8965301Y-12792674D01*
X9051015Y-12906960D02*
X9031967Y-12916484D01*
X9031967Y-12916484D02*
X8984348Y-12916484D01*
X8984348Y-12916484D02*
X8965301Y-12906960D01*
X8965301Y-12906960D02*
X8955777Y-12887912D01*
X8955777Y-12887912D02*
X8955777Y-12868865D01*
X8955777Y-12868865D02*
X8965301Y-12849817D01*
X8965301Y-12849817D02*
X8984348Y-12840293D01*
X8984348Y-12840293D02*
X9031967Y-12840293D01*
X9031967Y-12840293D02*
X9051015Y-12830769D01*
X9146253Y-12783150D02*
X9146253Y-12983150D01*
X9146253Y-12792674D02*
X9165301Y-12783150D01*
X9165301Y-12783150D02*
X9203396Y-12783150D01*
X9203396Y-12783150D02*
X9222444Y-12792674D01*
X9222444Y-12792674D02*
X9231967Y-12802198D01*
X9231967Y-12802198D02*
X9241491Y-12821246D01*
X9241491Y-12821246D02*
X9241491Y-12878388D01*
X9241491Y-12878388D02*
X9231967Y-12897436D01*
X9231967Y-12897436D02*
X9222444Y-12906960D01*
X9222444Y-12906960D02*
X9203396Y-12916484D01*
X9203396Y-12916484D02*
X9165301Y-12916484D01*
X9165301Y-12916484D02*
X9146253Y-12906960D01*
X9327205Y-12897436D02*
X9336729Y-12906960D01*
X9336729Y-12906960D02*
X9327205Y-12916484D01*
X9327205Y-12916484D02*
X9317682Y-12906960D01*
X9317682Y-12906960D02*
X9327205Y-12897436D01*
X9327205Y-12897436D02*
X9327205Y-12916484D01*
X9327205Y-12792674D02*
X9336729Y-12802198D01*
X9336729Y-12802198D02*
X9327205Y-12811722D01*
X9327205Y-12811722D02*
X9317682Y-12802198D01*
X9317682Y-12802198D02*
X9327205Y-12792674D01*
X9327205Y-12792674D02*
X9327205Y-12811722D01*
M02*
