  0
SECTION
  2
HEADER
  9
$ANGBASE
  50
0.0
  9
$ANGDIR
  70
1
  9
$MEASUREMENT
  70
1
  0
ENDSEC
  0
SECTION
  2
TABLES
  0
TABLE
  2
LTYPE
  70
4
  0
LTYPE
  5
40F
  2
CONTINUOUS
  70
0
  3
Solid line
  72
65
  73
0
  40
0.0
  0
LTYPE
  5
410
  2
DASHDOT
 70
0
  3
Dash Dot ____ _ ____ _
 72
65
 73
4
 40
2.0
 49
1.25
 49
-0.25
 49
0.25
 49
-0.25
  0
LTYPE
  5
411
  2
DASHED
 70
0
  3
Dashed __ __ __ __ __
 72
65
 73
2
 40
0.75
 49
0.5
 49
-0.25
  0
LTYPE
  5
43B
  2
DOTTED
 70
0
  3
Dotted .  .  .  .
 72
65
 73
2
 40
0.2
 49
0.0
 49
-0.2
  0
ENDTAB
  0
TABLE
  2
STYLE
  70
4
  0
STYLE
  2
KICAD
  70
0
  40
0
  41
1
  42
1
  50
0
  71
0
  3
isocp.shx
  0
STYLE
  2
KICADB
  70
0
  40
0
  41
1
  42
1
  50
0
  71
0
  3
isocp.shx
  0
STYLE
  2
KICADI
  70
0
  40
0
  41
1
  42
1
  50
15
  71
0
  3
isocp.shx
  0
STYLE
  2
KICADBI
  70
0
  40
0
  41
1
  42
1
  50
15
  71
0
  3
isocp.shx
  0
ENDTAB
  0
TABLE
  2
LAYER
  70
1
  0
LAYER
  2
BLACK
  70
0
  62
7
  6
CONTINUOUS
  0
ENDTAB
  0
ENDSEC
  0
SECTION
  2
ENTITIES
0
LINE
8
BLACK
6
CONTINUOUS
10
104
20
-89.91
11
104.042
21
-89.9276
0
LINE
8
BLACK
6
CONTINUOUS
10
104.042
20
-89.9276
11
104.06
21
-89.97
0
LINE
8
BLACK
6
CONTINUOUS
10
104.06
20
-89.97
11
104.06
21
-91.91
0
LINE
8
BLACK
6
CONTINUOUS
10
104.06
20
-91.91
11
114.45
21
-91.91
0
LINE
8
BLACK
6
CONTINUOUS
10
114.45
20
-91.91
11
114.939
21
-91.9275
0
LINE
8
BLACK
6
CONTINUOUS
10
114.939
20
-91.9275
11
115.426
21
-91.9798
0
LINE
8
BLACK
6
CONTINUOUS
10
115.426
20
-91.9798
11
115.908
21
-92.0668
0
LINE
8
BLACK
6
CONTINUOUS
10
115.908
20
-92.0668
11
116.383
21
-92.1879
0
LINE
8
BLACK
6
CONTINUOUS
10
116.383
20
-92.1879
11
116.847
21
-92.3425
0
LINE
8
BLACK
6
CONTINUOUS
10
116.847
20
-92.3425
11
117.3
21
-92.5299
0
LINE
8
BLACK
6
CONTINUOUS
10
117.3
20
-92.5299
11
117.738
21
-92.7491
0
LINE
8
BLACK
6
CONTINUOUS
10
117.738
20
-92.7491
11
118.159
21
-92.999
0
LINE
8
BLACK
6
CONTINUOUS
10
118.159
20
-92.999
11
118.561
21
-93.2783
0
LINE
8
BLACK
6
CONTINUOUS
10
118.561
20
-93.2783
11
118.942
21
-93.5856
0
LINE
8
BLACK
6
CONTINUOUS
10
118.942
20
-93.5856
11
119.301
21
-93.9192
0
LINE
8
BLACK
6
CONTINUOUS
10
119.301
20
-93.9192
11
119.634
21
-94.2777
0
LINE
8
BLACK
6
CONTINUOUS
10
119.634
20
-94.2777
11
119.942
21
-94.659
0
LINE
8
BLACK
6
CONTINUOUS
10
119.942
20
-94.659
11
120.221
21
-95.0612
0
LINE
8
BLACK
6
CONTINUOUS
10
120.221
20
-95.0612
11
120.471
21
-95.4824
0
LINE
8
BLACK
6
CONTINUOUS
10
120.471
20
-95.4824
11
120.69
21
-95.9203
0
LINE
8
BLACK
6
CONTINUOUS
10
120.69
20
-95.9203
11
120.877
21
-96.3727
0
LINE
8
BLACK
6
CONTINUOUS
10
120.877
20
-96.3727
11
121.032
21
-96.8373
0
LINE
8
BLACK
6
CONTINUOUS
10
121.032
20
-96.8373
11
121.153
21
-97.3118
0
LINE
8
BLACK
6
CONTINUOUS
10
121.153
20
-97.3118
11
121.24
21
-97.7937
0
LINE
8
BLACK
6
CONTINUOUS
10
121.24
20
-97.7937
11
121.293
21
-98.2806
0
LINE
8
BLACK
6
CONTINUOUS
10
121.293
20
-98.2806
11
121.31
21
-98.77
0
LINE
8
BLACK
6
CONTINUOUS
10
121.31
20
-98.77
11
121.31
21
-110.37
0
LINE
8
BLACK
6
CONTINUOUS
10
121.31
20
-110.37
11
121.293
21
-110.859
0
LINE
8
BLACK
6
CONTINUOUS
10
121.293
20
-110.859
11
121.24
21
-111.346
0
LINE
8
BLACK
6
CONTINUOUS
10
121.24
20
-111.346
11
121.153
21
-111.828
0
LINE
8
BLACK
6
CONTINUOUS
10
121.153
20
-111.828
11
121.032
21
-112.303
0
LINE
8
BLACK
6
CONTINUOUS
10
121.032
20
-112.303
11
120.877
21
-112.767
0
LINE
8
BLACK
6
CONTINUOUS
10
120.877
20
-112.767
11
120.69
21
-113.22
0
LINE
8
BLACK
6
CONTINUOUS
10
120.69
20
-113.22
11
120.471
21
-113.658
0
LINE
8
BLACK
6
CONTINUOUS
10
120.471
20
-113.658
11
120.221
21
-114.079
0
LINE
8
BLACK
6
CONTINUOUS
10
120.221
20
-114.079
11
119.942
21
-114.481
0
LINE
8
BLACK
6
CONTINUOUS
10
119.942
20
-114.481
11
119.634
21
-114.862
0
LINE
8
BLACK
6
CONTINUOUS
10
119.634
20
-114.862
11
119.301
21
-115.221
0
LINE
8
BLACK
6
CONTINUOUS
10
119.301
20
-115.221
11
118.942
21
-115.554
0
LINE
8
BLACK
6
CONTINUOUS
10
118.942
20
-115.554
11
118.561
21
-115.862
0
LINE
8
BLACK
6
CONTINUOUS
10
118.561
20
-115.862
11
118.159
21
-116.141
0
LINE
8
BLACK
6
CONTINUOUS
10
118.159
20
-116.141
11
117.738
21
-116.391
0
LINE
8
BLACK
6
CONTINUOUS
10
117.738
20
-116.391
11
117.3
21
-116.61
0
LINE
8
BLACK
6
CONTINUOUS
10
117.3
20
-116.61
11
116.847
21
-116.797
0
LINE
8
BLACK
6
CONTINUOUS
10
116.847
20
-116.797
11
116.383
21
-116.952
0
LINE
8
BLACK
6
CONTINUOUS
10
116.383
20
-116.952
11
115.908
21
-117.073
0
LINE
8
BLACK
6
CONTINUOUS
10
115.908
20
-117.073
11
115.426
21
-117.16
0
LINE
8
BLACK
6
CONTINUOUS
10
115.426
20
-117.16
11
114.939
21
-117.213
0
LINE
8
BLACK
6
CONTINUOUS
10
114.939
20
-117.213
11
114.45
21
-117.23
0
LINE
8
BLACK
6
CONTINUOUS
10
114.45
20
-117.23
11
83.55
21
-117.23
0
LINE
8
BLACK
6
CONTINUOUS
10
83.55
20
-117.23
11
83.0606
21
-117.213
0
LINE
8
BLACK
6
CONTINUOUS
10
83.0606
20
-117.213
11
82.5737
21
-117.16
0
LINE
8
BLACK
6
CONTINUOUS
10
82.5737
20
-117.16
11
82.0918
21
-117.073
0
LINE
8
BLACK
6
CONTINUOUS
10
82.0918
20
-117.073
11
81.6173
21
-116.952
0
LINE
8
BLACK
6
CONTINUOUS
10
81.6173
20
-116.952
11
81.1527
21
-116.797
0
LINE
8
BLACK
6
CONTINUOUS
10
81.1527
20
-116.797
11
80.7003
21
-116.61
0
LINE
8
BLACK
6
CONTINUOUS
10
80.7003
20
-116.61
11
80.2624
21
-116.391
0
LINE
8
BLACK
6
CONTINUOUS
10
80.2624
20
-116.391
11
79.8412
21
-116.141
0
LINE
8
BLACK
6
CONTINUOUS
10
79.8412
20
-116.141
11
79.439
21
-115.862
0
LINE
8
BLACK
6
CONTINUOUS
10
79.439
20
-115.862
11
79.0577
21
-115.554
0
LINE
8
BLACK
6
CONTINUOUS
10
79.0577
20
-115.554
11
78.6992
21
-115.221
0
LINE
8
BLACK
6
CONTINUOUS
10
78.6992
20
-115.221
11
78.3656
21
-114.862
0
LINE
8
BLACK
6
CONTINUOUS
10
78.3656
20
-114.862
11
78.0583
21
-114.481
0
LINE
8
BLACK
6
CONTINUOUS
10
78.0583
20
-114.481
11
77.779
21
-114.079
0
LINE
8
BLACK
6
CONTINUOUS
10
77.779
20
-114.079
11
77.5291
21
-113.658
0
LINE
8
BLACK
6
CONTINUOUS
10
77.5291
20
-113.658
11
77.3099
21
-113.22
0
LINE
8
BLACK
6
CONTINUOUS
10
77.3099
20
-113.22
11
77.1225
21
-112.767
0
LINE
8
BLACK
6
CONTINUOUS
10
77.1225
20
-112.767
11
76.9679
21
-112.303
0
LINE
8
BLACK
6
CONTINUOUS
10
76.9679
20
-112.303
11
76.8468
21
-111.828
0
LINE
8
BLACK
6
CONTINUOUS
10
76.8468
20
-111.828
11
76.7598
21
-111.346
0
LINE
8
BLACK
6
CONTINUOUS
10
76.7598
20
-111.346
11
76.7075
21
-110.859
0
LINE
8
BLACK
6
CONTINUOUS
10
76.7075
20
-110.859
11
76.69
21
-110.37
0
LINE
8
BLACK
6
CONTINUOUS
10
76.69
20
-110.37
11
76.69
21
-98.77
0
LINE
8
BLACK
6
CONTINUOUS
10
76.69
20
-98.77
11
76.7075
21
-98.2806
0
LINE
8
BLACK
6
CONTINUOUS
10
76.7075
20
-98.2806
11
76.7598
21
-97.7937
0
LINE
8
BLACK
6
CONTINUOUS
10
76.7598
20
-97.7937
11
76.8468
21
-97.3118
0
LINE
8
BLACK
6
CONTINUOUS
10
76.8468
20
-97.3118
11
76.9679
21
-96.8373
0
LINE
8
BLACK
6
CONTINUOUS
10
76.9679
20
-96.8373
11
77.1225
21
-96.3727
0
LINE
8
BLACK
6
CONTINUOUS
10
77.1225
20
-96.3727
11
77.3099
21
-95.9203
0
LINE
8
BLACK
6
CONTINUOUS
10
77.3099
20
-95.9203
11
77.5291
21
-95.4824
0
LINE
8
BLACK
6
CONTINUOUS
10
77.5291
20
-95.4824
11
77.779
21
-95.0612
0
LINE
8
BLACK
6
CONTINUOUS
10
77.779
20
-95.0612
11
78.0583
21
-94.659
0
LINE
8
BLACK
6
CONTINUOUS
10
78.0583
20
-94.659
11
78.3656
21
-94.2777
0
LINE
8
BLACK
6
CONTINUOUS
10
78.3656
20
-94.2777
11
78.6992
21
-93.9192
0
LINE
8
BLACK
6
CONTINUOUS
10
78.6992
20
-93.9192
11
79.0577
21
-93.5856
0
LINE
8
BLACK
6
CONTINUOUS
10
79.0577
20
-93.5856
11
79.439
21
-93.2783
0
LINE
8
BLACK
6
CONTINUOUS
10
79.439
20
-93.2783
11
79.8412
21
-92.999
0
LINE
8
BLACK
6
CONTINUOUS
10
79.8412
20
-92.999
11
80.2624
21
-92.7491
0
LINE
8
BLACK
6
CONTINUOUS
10
80.2624
20
-92.7491
11
80.7003
21
-92.5299
0
LINE
8
BLACK
6
CONTINUOUS
10
80.7003
20
-92.5299
11
81.1527
21
-92.3425
0
LINE
8
BLACK
6
CONTINUOUS
10
81.1527
20
-92.3425
11
81.6173
21
-92.1879
0
LINE
8
BLACK
6
CONTINUOUS
10
81.6173
20
-92.1879
11
82.0918
21
-92.0668
0
LINE
8
BLACK
6
CONTINUOUS
10
82.0918
20
-92.0668
11
82.5737
21
-91.9798
0
LINE
8
BLACK
6
CONTINUOUS
10
82.5737
20
-91.9798
11
83.0606
21
-91.9275
0
LINE
8
BLACK
6
CONTINUOUS
10
83.0606
20
-91.9275
11
83.55
21
-91.91
0
LINE
8
BLACK
6
CONTINUOUS
10
83.55
20
-91.91
11
93.94
21
-91.91
0
LINE
8
BLACK
6
CONTINUOUS
10
93.94
20
-91.91
11
93.94
21
-89.97
0
LINE
8
BLACK
6
CONTINUOUS
10
93.94
20
-89.97
11
93.9576
21
-89.9276
0
LINE
8
BLACK
6
CONTINUOUS
10
93.9576
20
-89.9276
11
94
21
-89.91
0
LINE
8
BLACK
6
CONTINUOUS
10
94
20
-89.91
11
104
21
-89.91
0
LINE
8
BLACK
6
CONTINUOUS
10
94.06
20
-90.03
11
94.06
21
-91.97
0
LINE
8
BLACK
6
CONTINUOUS
10
94.06
20
-91.97
11
94.0424
21
-92.0124
0
LINE
8
BLACK
6
CONTINUOUS
10
94.0424
20
-92.0124
11
94
21
-92.03
0
LINE
8
BLACK
6
CONTINUOUS
10
94
20
-92.03
11
83.55
21
-92.03
0
LINE
8
BLACK
6
CONTINUOUS
10
83.55
20
-92.03
11
83.2978
21
-92.03
0
LINE
8
BLACK
6
CONTINUOUS
10
83.2978
20
-92.03
11
82.7948
21
-92.0677
0
LINE
8
BLACK
6
CONTINUOUS
10
82.7948
20
-92.0677
11
82.2961
21
-92.1429
0
LINE
8
BLACK
6
CONTINUOUS
10
82.2961
20
-92.1429
11
81.8043
21
-92.2551
0
LINE
8
BLACK
6
CONTINUOUS
10
81.8043
20
-92.2551
11
81.3224
21
-92.4038
0
LINE
8
BLACK
6
CONTINUOUS
10
81.3224
20
-92.4038
11
80.8528
21
-92.588
0
LINE
8
BLACK
6
CONTINUOUS
10
80.8528
20
-92.588
11
80.3984
21
-92.8069
0
LINE
8
BLACK
6
CONTINUOUS
10
80.3984
20
-92.8069
11
79.9616
21
-93.0591
0
LINE
8
BLACK
6
CONTINUOUS
10
79.9616
20
-93.0591
11
79.5449
21
-93.3432
0
LINE
8
BLACK
6
CONTINUOUS
10
79.5449
20
-93.3432
11
79.1505
21
-93.6577
0
LINE
8
BLACK
6
CONTINUOUS
10
79.1505
20
-93.6577
11
78.7808
21
-94.0008
0
LINE
8
BLACK
6
CONTINUOUS
10
78.7808
20
-94.0008
11
78.4377
21
-94.3705
0
LINE
8
BLACK
6
CONTINUOUS
10
78.4377
20
-94.3705
11
78.1232
21
-94.7649
0
LINE
8
BLACK
6
CONTINUOUS
10
78.1232
20
-94.7649
11
77.8391
21
-95.1816
0
LINE
8
BLACK
6
CONTINUOUS
10
77.8391
20
-95.1816
11
77.5869
21
-95.6184
0
LINE
8
BLACK
6
CONTINUOUS
10
77.5869
20
-95.6184
11
77.368
21
-96.0728
0
LINE
8
BLACK
6
CONTINUOUS
10
77.368
20
-96.0728
11
77.1838
21
-96.5424
0
LINE
8
BLACK
6
CONTINUOUS
10
77.1838
20
-96.5424
11
77.0351
21
-97.0243
0
LINE
8
BLACK
6
CONTINUOUS
10
77.0351
20
-97.0243
11
76.9229
21
-97.5161
0
LINE
8
BLACK
6
CONTINUOUS
10
76.9229
20
-97.5161
11
76.8477
21
-98.0148
0
LINE
8
BLACK
6
CONTINUOUS
10
76.8477
20
-98.0148
11
76.81
21
-98.5178
0
LINE
8
BLACK
6
CONTINUOUS
10
76.81
20
-98.5178
11
76.81
21
-98.77
0
LINE
8
BLACK
6
CONTINUOUS
10
76.81
20
-98.77
11
76.81
21
-110.37
0
LINE
8
BLACK
6
CONTINUOUS
10
76.81
20
-110.37
11
76.81
21
-110.622
0
LINE
8
BLACK
6
CONTINUOUS
10
76.81
20
-110.622
11
76.8477
21
-111.125
0
LINE
8
BLACK
6
CONTINUOUS
10
76.8477
20
-111.125
11
76.9229
21
-111.624
0
LINE
8
BLACK
6
CONTINUOUS
10
76.9229
20
-111.624
11
77.0351
21
-112.116
0
LINE
8
BLACK
6
CONTINUOUS
10
77.0351
20
-112.116
11
77.1838
21
-112.598
0
LINE
8
BLACK
6
CONTINUOUS
10
77.1838
20
-112.598
11
77.368
21
-113.067
0
LINE
8
BLACK
6
CONTINUOUS
10
77.368
20
-113.067
11
77.5869
21
-113.522
0
LINE
8
BLACK
6
CONTINUOUS
10
77.5869
20
-113.522
11
77.8391
21
-113.958
0
LINE
8
BLACK
6
CONTINUOUS
10
77.8391
20
-113.958
11
78.1232
21
-114.375
0
LINE
8
BLACK
6
CONTINUOUS
10
78.1232
20
-114.375
11
78.4377
21
-114.769
0
LINE
8
BLACK
6
CONTINUOUS
10
78.4377
20
-114.769
11
78.7808
21
-115.139
0
LINE
8
BLACK
6
CONTINUOUS
10
78.7808
20
-115.139
11
79.1505
21
-115.482
0
LINE
8
BLACK
6
CONTINUOUS
10
79.1505
20
-115.482
11
79.5449
21
-115.797
0
LINE
8
BLACK
6
CONTINUOUS
10
79.5449
20
-115.797
11
79.9616
21
-116.081
0
LINE
8
BLACK
6
CONTINUOUS
10
79.9616
20
-116.081
11
80.3984
21
-116.333
0
LINE
8
BLACK
6
CONTINUOUS
10
80.3984
20
-116.333
11
80.8528
21
-116.552
0
LINE
8
BLACK
6
CONTINUOUS
10
80.8528
20
-116.552
11
81.3224
21
-116.736
0
LINE
8
BLACK
6
CONTINUOUS
10
81.3224
20
-116.736
11
81.8043
21
-116.885
0
LINE
8
BLACK
6
CONTINUOUS
10
81.8043
20
-116.885
11
82.2961
21
-116.997
0
LINE
8
BLACK
6
CONTINUOUS
10
82.2961
20
-116.997
11
82.7948
21
-117.072
0
LINE
8
BLACK
6
CONTINUOUS
10
82.7948
20
-117.072
11
83.2978
21
-117.11
0
LINE
8
BLACK
6
CONTINUOUS
10
83.2978
20
-117.11
11
83.55
21
-117.11
0
LINE
8
BLACK
6
CONTINUOUS
10
83.55
20
-117.11
11
114.45
21
-117.11
0
LINE
8
BLACK
6
CONTINUOUS
10
114.45
20
-117.11
11
114.702
21
-117.11
0
LINE
8
BLACK
6
CONTINUOUS
10
114.702
20
-117.11
11
115.205
21
-117.072
0
LINE
8
BLACK
6
CONTINUOUS
10
115.205
20
-117.072
11
115.704
21
-116.997
0
LINE
8
BLACK
6
CONTINUOUS
10
115.704
20
-116.997
11
116.196
21
-116.885
0
LINE
8
BLACK
6
CONTINUOUS
10
116.196
20
-116.885
11
116.678
21
-116.736
0
LINE
8
BLACK
6
CONTINUOUS
10
116.678
20
-116.736
11
117.147
21
-116.552
0
LINE
8
BLACK
6
CONTINUOUS
10
117.147
20
-116.552
11
117.602
21
-116.333
0
LINE
8
BLACK
6
CONTINUOUS
10
117.602
20
-116.333
11
118.038
21
-116.081
0
LINE
8
BLACK
6
CONTINUOUS
10
118.038
20
-116.081
11
118.455
21
-115.797
0
LINE
8
BLACK
6
CONTINUOUS
10
118.455
20
-115.797
11
118.849
21
-115.482
0
LINE
8
BLACK
6
CONTINUOUS
10
118.849
20
-115.482
11
119.219
21
-115.139
0
LINE
8
BLACK
6
CONTINUOUS
10
119.219
20
-115.139
11
119.562
21
-114.769
0
LINE
8
BLACK
6
CONTINUOUS
10
119.562
20
-114.769
11
119.877
21
-114.375
0
LINE
8
BLACK
6
CONTINUOUS
10
119.877
20
-114.375
11
120.161
21
-113.958
0
LINE
8
BLACK
6
CONTINUOUS
10
120.161
20
-113.958
11
120.413
21
-113.522
0
LINE
8
BLACK
6
CONTINUOUS
10
120.413
20
-113.522
11
120.632
21
-113.067
0
LINE
8
BLACK
6
CONTINUOUS
10
120.632
20
-113.067
11
120.816
21
-112.598
0
LINE
8
BLACK
6
CONTINUOUS
10
120.816
20
-112.598
11
120.965
21
-112.116
0
LINE
8
BLACK
6
CONTINUOUS
10
120.965
20
-112.116
11
121.077
21
-111.624
0
LINE
8
BLACK
6
CONTINUOUS
10
121.077
20
-111.624
11
121.152
21
-111.125
0
LINE
8
BLACK
6
CONTINUOUS
10
121.152
20
-111.125
11
121.19
21
-110.622
0
LINE
8
BLACK
6
CONTINUOUS
10
121.19
20
-110.622
11
121.19
21
-110.37
0
LINE
8
BLACK
6
CONTINUOUS
10
121.19
20
-110.37
11
121.19
21
-98.77
0
LINE
8
BLACK
6
CONTINUOUS
10
121.19
20
-98.77
11
121.19
21
-98.5178
0
LINE
8
BLACK
6
CONTINUOUS
10
121.19
20
-98.5178
11
121.152
21
-98.0148
0
LINE
8
BLACK
6
CONTINUOUS
10
121.152
20
-98.0148
11
121.077
21
-97.5161
0
LINE
8
BLACK
6
CONTINUOUS
10
121.077
20
-97.5161
11
120.965
21
-97.0243
0
LINE
8
BLACK
6
CONTINUOUS
10
120.965
20
-97.0243
11
120.816
21
-96.5424
0
LINE
8
BLACK
6
CONTINUOUS
10
120.816
20
-96.5424
11
120.632
21
-96.0728
0
LINE
8
BLACK
6
CONTINUOUS
10
120.632
20
-96.0728
11
120.413
21
-95.6184
0
LINE
8
BLACK
6
CONTINUOUS
10
120.413
20
-95.6184
11
120.161
21
-95.1816
0
LINE
8
BLACK
6
CONTINUOUS
10
120.161
20
-95.1816
11
119.877
21
-94.7649
0
LINE
8
BLACK
6
CONTINUOUS
10
119.877
20
-94.7649
11
119.562
21
-94.3705
0
LINE
8
BLACK
6
CONTINUOUS
10
119.562
20
-94.3705
11
119.219
21
-94.0008
0
LINE
8
BLACK
6
CONTINUOUS
10
119.219
20
-94.0008
11
118.849
21
-93.6577
0
LINE
8
BLACK
6
CONTINUOUS
10
118.849
20
-93.6577
11
118.455
21
-93.3432
0
LINE
8
BLACK
6
CONTINUOUS
10
118.455
20
-93.3432
11
118.038
21
-93.0591
0
LINE
8
BLACK
6
CONTINUOUS
10
118.038
20
-93.0591
11
117.602
21
-92.8069
0
LINE
8
BLACK
6
CONTINUOUS
10
117.602
20
-92.8069
11
117.147
21
-92.588
0
LINE
8
BLACK
6
CONTINUOUS
10
117.147
20
-92.588
11
116.678
21
-92.4038
0
LINE
8
BLACK
6
CONTINUOUS
10
116.678
20
-92.4038
11
116.196
21
-92.2551
0
LINE
8
BLACK
6
CONTINUOUS
10
116.196
20
-92.2551
11
115.704
21
-92.1429
0
LINE
8
BLACK
6
CONTINUOUS
10
115.704
20
-92.1429
11
115.205
21
-92.0677
0
LINE
8
BLACK
6
CONTINUOUS
10
115.205
20
-92.0677
11
114.702
21
-92.03
0
LINE
8
BLACK
6
CONTINUOUS
10
114.702
20
-92.03
11
114.45
21
-92.03
0
LINE
8
BLACK
6
CONTINUOUS
10
114.45
20
-92.03
11
104
21
-92.03
0
LINE
8
BLACK
6
CONTINUOUS
10
104
20
-92.03
11
103.958
21
-92.0124
0
LINE
8
BLACK
6
CONTINUOUS
10
103.958
20
-92.0124
11
103.94
21
-91.97
0
LINE
8
BLACK
6
CONTINUOUS
10
103.94
20
-91.97
11
103.94
21
-90.03
0
LINE
8
BLACK
6
CONTINUOUS
10
103.94
20
-90.03
11
94.06
21
-90.03
0
LINE
8
BLACK
6
CONTINUOUS
10
182
20
-89.91
11
182.042
21
-89.9276
0
LINE
8
BLACK
6
CONTINUOUS
10
182.042
20
-89.9276
11
182.06
21
-89.97
0
LINE
8
BLACK
6
CONTINUOUS
10
182.06
20
-89.97
11
182.06
21
-91.91
0
LINE
8
BLACK
6
CONTINUOUS
10
182.06
20
-91.91
11
192.45
21
-91.91
0
LINE
8
BLACK
6
CONTINUOUS
10
192.45
20
-91.91
11
192.939
21
-91.9275
0
LINE
8
BLACK
6
CONTINUOUS
10
192.939
20
-91.9275
11
193.426
21
-91.9798
0
LINE
8
BLACK
6
CONTINUOUS
10
193.426
20
-91.9798
11
193.908
21
-92.0668
0
LINE
8
BLACK
6
CONTINUOUS
10
193.908
20
-92.0668
11
194.383
21
-92.1879
0
LINE
8
BLACK
6
CONTINUOUS
10
194.383
20
-92.1879
11
194.847
21
-92.3425
0
LINE
8
BLACK
6
CONTINUOUS
10
194.847
20
-92.3425
11
195.3
21
-92.5299
0
LINE
8
BLACK
6
CONTINUOUS
10
195.3
20
-92.5299
11
195.738
21
-92.7491
0
LINE
8
BLACK
6
CONTINUOUS
10
195.738
20
-92.7491
11
196.159
21
-92.999
0
LINE
8
BLACK
6
CONTINUOUS
10
196.159
20
-92.999
11
196.561
21
-93.2783
0
LINE
8
BLACK
6
CONTINUOUS
10
196.561
20
-93.2783
11
196.942
21
-93.5856
0
LINE
8
BLACK
6
CONTINUOUS
10
196.942
20
-93.5856
11
197.301
21
-93.9192
0
LINE
8
BLACK
6
CONTINUOUS
10
197.301
20
-93.9192
11
197.634
21
-94.2777
0
LINE
8
BLACK
6
CONTINUOUS
10
197.634
20
-94.2777
11
197.942
21
-94.659
0
LINE
8
BLACK
6
CONTINUOUS
10
197.942
20
-94.659
11
198.221
21
-95.0612
0
LINE
8
BLACK
6
CONTINUOUS
10
198.221
20
-95.0612
11
198.471
21
-95.4824
0
LINE
8
BLACK
6
CONTINUOUS
10
198.471
20
-95.4824
11
198.69
21
-95.9203
0
LINE
8
BLACK
6
CONTINUOUS
10
198.69
20
-95.9203
11
198.877
21
-96.3727
0
LINE
8
BLACK
6
CONTINUOUS
10
198.877
20
-96.3727
11
199.032
21
-96.8373
0
LINE
8
BLACK
6
CONTINUOUS
10
199.032
20
-96.8373
11
199.153
21
-97.3118
0
LINE
8
BLACK
6
CONTINUOUS
10
199.153
20
-97.3118
11
199.24
21
-97.7937
0
LINE
8
BLACK
6
CONTINUOUS
10
199.24
20
-97.7937
11
199.293
21
-98.2806
0
LINE
8
BLACK
6
CONTINUOUS
10
199.293
20
-98.2806
11
199.31
21
-98.77
0
LINE
8
BLACK
6
CONTINUOUS
10
199.31
20
-98.77
11
199.31
21
-110.37
0
LINE
8
BLACK
6
CONTINUOUS
10
199.31
20
-110.37
11
199.293
21
-110.859
0
LINE
8
BLACK
6
CONTINUOUS
10
199.293
20
-110.859
11
199.24
21
-111.346
0
LINE
8
BLACK
6
CONTINUOUS
10
199.24
20
-111.346
11
199.153
21
-111.828
0
LINE
8
BLACK
6
CONTINUOUS
10
199.153
20
-111.828
11
199.032
21
-112.303
0
LINE
8
BLACK
6
CONTINUOUS
10
199.032
20
-112.303
11
198.877
21
-112.767
0
LINE
8
BLACK
6
CONTINUOUS
10
198.877
20
-112.767
11
198.69
21
-113.22
0
LINE
8
BLACK
6
CONTINUOUS
10
198.69
20
-113.22
11
198.471
21
-113.658
0
LINE
8
BLACK
6
CONTINUOUS
10
198.471
20
-113.658
11
198.221
21
-114.079
0
LINE
8
BLACK
6
CONTINUOUS
10
198.221
20
-114.079
11
197.942
21
-114.481
0
LINE
8
BLACK
6
CONTINUOUS
10
197.942
20
-114.481
11
197.634
21
-114.862
0
LINE
8
BLACK
6
CONTINUOUS
10
197.634
20
-114.862
11
197.301
21
-115.221
0
LINE
8
BLACK
6
CONTINUOUS
10
197.301
20
-115.221
11
196.942
21
-115.554
0
LINE
8
BLACK
6
CONTINUOUS
10
196.942
20
-115.554
11
196.561
21
-115.862
0
LINE
8
BLACK
6
CONTINUOUS
10
196.561
20
-115.862
11
196.159
21
-116.141
0
LINE
8
BLACK
6
CONTINUOUS
10
196.159
20
-116.141
11
195.738
21
-116.391
0
LINE
8
BLACK
6
CONTINUOUS
10
195.738
20
-116.391
11
195.3
21
-116.61
0
LINE
8
BLACK
6
CONTINUOUS
10
195.3
20
-116.61
11
194.847
21
-116.797
0
LINE
8
BLACK
6
CONTINUOUS
10
194.847
20
-116.797
11
194.383
21
-116.952
0
LINE
8
BLACK
6
CONTINUOUS
10
194.383
20
-116.952
11
193.908
21
-117.073
0
LINE
8
BLACK
6
CONTINUOUS
10
193.908
20
-117.073
11
193.426
21
-117.16
0
LINE
8
BLACK
6
CONTINUOUS
10
193.426
20
-117.16
11
192.939
21
-117.213
0
LINE
8
BLACK
6
CONTINUOUS
10
192.939
20
-117.213
11
192.45
21
-117.23
0
LINE
8
BLACK
6
CONTINUOUS
10
192.45
20
-117.23
11
161.55
21
-117.23
0
LINE
8
BLACK
6
CONTINUOUS
10
161.55
20
-117.23
11
161.061
21
-117.213
0
LINE
8
BLACK
6
CONTINUOUS
10
161.061
20
-117.213
11
160.574
21
-117.16
0
LINE
8
BLACK
6
CONTINUOUS
10
160.574
20
-117.16
11
160.092
21
-117.073
0
LINE
8
BLACK
6
CONTINUOUS
10
160.092
20
-117.073
11
159.617
21
-116.952
0
LINE
8
BLACK
6
CONTINUOUS
10
159.617
20
-116.952
11
159.153
21
-116.797
0
LINE
8
BLACK
6
CONTINUOUS
10
159.153
20
-116.797
11
158.7
21
-116.61
0
LINE
8
BLACK
6
CONTINUOUS
10
158.7
20
-116.61
11
158.262
21
-116.391
0
LINE
8
BLACK
6
CONTINUOUS
10
158.262
20
-116.391
11
157.841
21
-116.141
0
LINE
8
BLACK
6
CONTINUOUS
10
157.841
20
-116.141
11
157.439
21
-115.862
0
LINE
8
BLACK
6
CONTINUOUS
10
157.439
20
-115.862
11
157.058
21
-115.554
0
LINE
8
BLACK
6
CONTINUOUS
10
157.058
20
-115.554
11
156.699
21
-115.221
0
LINE
8
BLACK
6
CONTINUOUS
10
156.699
20
-115.221
11
156.366
21
-114.862
0
LINE
8
BLACK
6
CONTINUOUS
10
156.366
20
-114.862
11
156.058
21
-114.481
0
LINE
8
BLACK
6
CONTINUOUS
10
156.058
20
-114.481
11
155.779
21
-114.079
0
LINE
8
BLACK
6
CONTINUOUS
10
155.779
20
-114.079
11
155.529
21
-113.658
0
LINE
8
BLACK
6
CONTINUOUS
10
155.529
20
-113.658
11
155.31
21
-113.22
0
LINE
8
BLACK
6
CONTINUOUS
10
155.31
20
-113.22
11
155.123
21
-112.767
0
LINE
8
BLACK
6
CONTINUOUS
10
155.123
20
-112.767
11
154.968
21
-112.303
0
LINE
8
BLACK
6
CONTINUOUS
10
154.968
20
-112.303
11
154.847
21
-111.828
0
LINE
8
BLACK
6
CONTINUOUS
10
154.847
20
-111.828
11
154.76
21
-111.346
0
LINE
8
BLACK
6
CONTINUOUS
10
154.76
20
-111.346
11
154.707
21
-110.859
0
LINE
8
BLACK
6
CONTINUOUS
10
154.707
20
-110.859
11
154.69
21
-110.37
0
LINE
8
BLACK
6
CONTINUOUS
10
154.69
20
-110.37
11
154.69
21
-98.77
0
LINE
8
BLACK
6
CONTINUOUS
10
154.69
20
-98.77
11
154.707
21
-98.2806
0
LINE
8
BLACK
6
CONTINUOUS
10
154.707
20
-98.2806
11
154.76
21
-97.7937
0
LINE
8
BLACK
6
CONTINUOUS
10
154.76
20
-97.7937
11
154.847
21
-97.3118
0
LINE
8
BLACK
6
CONTINUOUS
10
154.847
20
-97.3118
11
154.968
21
-96.8373
0
LINE
8
BLACK
6
CONTINUOUS
10
154.968
20
-96.8373
11
155.123
21
-96.3727
0
LINE
8
BLACK
6
CONTINUOUS
10
155.123
20
-96.3727
11
155.31
21
-95.9203
0
LINE
8
BLACK
6
CONTINUOUS
10
155.31
20
-95.9203
11
155.529
21
-95.4824
0
LINE
8
BLACK
6
CONTINUOUS
10
155.529
20
-95.4824
11
155.779
21
-95.0612
0
LINE
8
BLACK
6
CONTINUOUS
10
155.779
20
-95.0612
11
156.058
21
-94.659
0
LINE
8
BLACK
6
CONTINUOUS
10
156.058
20
-94.659
11
156.366
21
-94.2777
0
LINE
8
BLACK
6
CONTINUOUS
10
156.366
20
-94.2777
11
156.699
21
-93.9192
0
LINE
8
BLACK
6
CONTINUOUS
10
156.699
20
-93.9192
11
157.058
21
-93.5856
0
LINE
8
BLACK
6
CONTINUOUS
10
157.058
20
-93.5856
11
157.439
21
-93.2783
0
LINE
8
BLACK
6
CONTINUOUS
10
157.439
20
-93.2783
11
157.841
21
-92.999
0
LINE
8
BLACK
6
CONTINUOUS
10
157.841
20
-92.999
11
158.262
21
-92.7491
0
LINE
8
BLACK
6
CONTINUOUS
10
158.262
20
-92.7491
11
158.7
21
-92.5299
0
LINE
8
BLACK
6
CONTINUOUS
10
158.7
20
-92.5299
11
159.153
21
-92.3425
0
LINE
8
BLACK
6
CONTINUOUS
10
159.153
20
-92.3425
11
159.617
21
-92.1879
0
LINE
8
BLACK
6
CONTINUOUS
10
159.617
20
-92.1879
11
160.092
21
-92.0668
0
LINE
8
BLACK
6
CONTINUOUS
10
160.092
20
-92.0668
11
160.574
21
-91.9798
0
LINE
8
BLACK
6
CONTINUOUS
10
160.574
20
-91.9798
11
161.061
21
-91.9275
0
LINE
8
BLACK
6
CONTINUOUS
10
161.061
20
-91.9275
11
161.55
21
-91.91
0
LINE
8
BLACK
6
CONTINUOUS
10
161.55
20
-91.91
11
171.94
21
-91.91
0
LINE
8
BLACK
6
CONTINUOUS
10
171.94
20
-91.91
11
171.94
21
-89.97
0
LINE
8
BLACK
6
CONTINUOUS
10
171.94
20
-89.97
11
171.958
21
-89.9276
0
LINE
8
BLACK
6
CONTINUOUS
10
171.958
20
-89.9276
11
172
21
-89.91
0
LINE
8
BLACK
6
CONTINUOUS
10
172
20
-89.91
11
182
21
-89.91
0
LINE
8
BLACK
6
CONTINUOUS
10
172.06
20
-90.03
11
172.06
21
-91.97
0
LINE
8
BLACK
6
CONTINUOUS
10
172.06
20
-91.97
11
172.042
21
-92.0124
0
LINE
8
BLACK
6
CONTINUOUS
10
172.042
20
-92.0124
11
172
21
-92.03
0
LINE
8
BLACK
6
CONTINUOUS
10
172
20
-92.03
11
161.55
21
-92.03
0
LINE
8
BLACK
6
CONTINUOUS
10
161.55
20
-92.03
11
161.298
21
-92.03
0
LINE
8
BLACK
6
CONTINUOUS
10
161.298
20
-92.03
11
160.795
21
-92.0677
0
LINE
8
BLACK
6
CONTINUOUS
10
160.795
20
-92.0677
11
160.296
21
-92.1429
0
LINE
8
BLACK
6
CONTINUOUS
10
160.296
20
-92.1429
11
159.804
21
-92.2551
0
LINE
8
BLACK
6
CONTINUOUS
10
159.804
20
-92.2551
11
159.322
21
-92.4038
0
LINE
8
BLACK
6
CONTINUOUS
10
159.322
20
-92.4038
11
158.853
21
-92.588
0
LINE
8
BLACK
6
CONTINUOUS
10
158.853
20
-92.588
11
158.398
21
-92.8069
0
LINE
8
BLACK
6
CONTINUOUS
10
158.398
20
-92.8069
11
157.962
21
-93.0591
0
LINE
8
BLACK
6
CONTINUOUS
10
157.962
20
-93.0591
11
157.545
21
-93.3432
0
LINE
8
BLACK
6
CONTINUOUS
10
157.545
20
-93.3432
11
157.151
21
-93.6577
0
LINE
8
BLACK
6
CONTINUOUS
10
157.151
20
-93.6577
11
156.781
21
-94.0008
0
LINE
8
BLACK
6
CONTINUOUS
10
156.781
20
-94.0008
11
156.438
21
-94.3705
0
LINE
8
BLACK
6
CONTINUOUS
10
156.438
20
-94.3705
11
156.123
21
-94.7649
0
LINE
8
BLACK
6
CONTINUOUS
10
156.123
20
-94.7649
11
155.839
21
-95.1816
0
LINE
8
BLACK
6
CONTINUOUS
10
155.839
20
-95.1816
11
155.587
21
-95.6184
0
LINE
8
BLACK
6
CONTINUOUS
10
155.587
20
-95.6184
11
155.368
21
-96.0728
0
LINE
8
BLACK
6
CONTINUOUS
10
155.368
20
-96.0728
11
155.184
21
-96.5424
0
LINE
8
BLACK
6
CONTINUOUS
10
155.184
20
-96.5424
11
155.035
21
-97.0243
0
LINE
8
BLACK
6
CONTINUOUS
10
155.035
20
-97.0243
11
154.923
21
-97.5161
0
LINE
8
BLACK
6
CONTINUOUS
10
154.923
20
-97.5161
11
154.848
21
-98.0148
0
LINE
8
BLACK
6
CONTINUOUS
10
154.848
20
-98.0148
11
154.81
21
-98.5178
0
LINE
8
BLACK
6
CONTINUOUS
10
154.81
20
-98.5178
11
154.81
21
-98.77
0
LINE
8
BLACK
6
CONTINUOUS
10
154.81
20
-98.77
11
154.81
21
-110.37
0
LINE
8
BLACK
6
CONTINUOUS
10
154.81
20
-110.37
11
154.81
21
-110.622
0
LINE
8
BLACK
6
CONTINUOUS
10
154.81
20
-110.622
11
154.848
21
-111.125
0
LINE
8
BLACK
6
CONTINUOUS
10
154.848
20
-111.125
11
154.923
21
-111.624
0
LINE
8
BLACK
6
CONTINUOUS
10
154.923
20
-111.624
11
155.035
21
-112.116
0
LINE
8
BLACK
6
CONTINUOUS
10
155.035
20
-112.116
11
155.184
21
-112.598
0
LINE
8
BLACK
6
CONTINUOUS
10
155.184
20
-112.598
11
155.368
21
-113.067
0
LINE
8
BLACK
6
CONTINUOUS
10
155.368
20
-113.067
11
155.587
21
-113.522
0
LINE
8
BLACK
6
CONTINUOUS
10
155.587
20
-113.522
11
155.839
21
-113.958
0
LINE
8
BLACK
6
CONTINUOUS
10
155.839
20
-113.958
11
156.123
21
-114.375
0
LINE
8
BLACK
6
CONTINUOUS
10
156.123
20
-114.375
11
156.438
21
-114.769
0
LINE
8
BLACK
6
CONTINUOUS
10
156.438
20
-114.769
11
156.781
21
-115.139
0
LINE
8
BLACK
6
CONTINUOUS
10
156.781
20
-115.139
11
157.151
21
-115.482
0
LINE
8
BLACK
6
CONTINUOUS
10
157.151
20
-115.482
11
157.545
21
-115.797
0
LINE
8
BLACK
6
CONTINUOUS
10
157.545
20
-115.797
11
157.962
21
-116.081
0
LINE
8
BLACK
6
CONTINUOUS
10
157.962
20
-116.081
11
158.398
21
-116.333
0
LINE
8
BLACK
6
CONTINUOUS
10
158.398
20
-116.333
11
158.853
21
-116.552
0
LINE
8
BLACK
6
CONTINUOUS
10
158.853
20
-116.552
11
159.322
21
-116.736
0
LINE
8
BLACK
6
CONTINUOUS
10
159.322
20
-116.736
11
159.804
21
-116.885
0
LINE
8
BLACK
6
CONTINUOUS
10
159.804
20
-116.885
11
160.296
21
-116.997
0
LINE
8
BLACK
6
CONTINUOUS
10
160.296
20
-116.997
11
160.795
21
-117.072
0
LINE
8
BLACK
6
CONTINUOUS
10
160.795
20
-117.072
11
161.298
21
-117.11
0
LINE
8
BLACK
6
CONTINUOUS
10
161.298
20
-117.11
11
161.55
21
-117.11
0
LINE
8
BLACK
6
CONTINUOUS
10
161.55
20
-117.11
11
192.45
21
-117.11
0
LINE
8
BLACK
6
CONTINUOUS
10
192.45
20
-117.11
11
192.702
21
-117.11
0
LINE
8
BLACK
6
CONTINUOUS
10
192.702
20
-117.11
11
193.205
21
-117.072
0
LINE
8
BLACK
6
CONTINUOUS
10
193.205
20
-117.072
11
193.704
21
-116.997
0
LINE
8
BLACK
6
CONTINUOUS
10
193.704
20
-116.997
11
194.196
21
-116.885
0
LINE
8
BLACK
6
CONTINUOUS
10
194.196
20
-116.885
11
194.678
21
-116.736
0
LINE
8
BLACK
6
CONTINUOUS
10
194.678
20
-116.736
11
195.147
21
-116.552
0
LINE
8
BLACK
6
CONTINUOUS
10
195.147
20
-116.552
11
195.602
21
-116.333
0
LINE
8
BLACK
6
CONTINUOUS
10
195.602
20
-116.333
11
196.038
21
-116.081
0
LINE
8
BLACK
6
CONTINUOUS
10
196.038
20
-116.081
11
196.455
21
-115.797
0
LINE
8
BLACK
6
CONTINUOUS
10
196.455
20
-115.797
11
196.849
21
-115.482
0
LINE
8
BLACK
6
CONTINUOUS
10
196.849
20
-115.482
11
197.219
21
-115.139
0
LINE
8
BLACK
6
CONTINUOUS
10
197.219
20
-115.139
11
197.562
21
-114.769
0
LINE
8
BLACK
6
CONTINUOUS
10
197.562
20
-114.769
11
197.877
21
-114.375
0
LINE
8
BLACK
6
CONTINUOUS
10
197.877
20
-114.375
11
198.161
21
-113.958
0
LINE
8
BLACK
6
CONTINUOUS
10
198.161
20
-113.958
11
198.413
21
-113.522
0
LINE
8
BLACK
6
CONTINUOUS
10
198.413
20
-113.522
11
198.632
21
-113.067
0
LINE
8
BLACK
6
CONTINUOUS
10
198.632
20
-113.067
11
198.816
21
-112.598
0
LINE
8
BLACK
6
CONTINUOUS
10
198.816
20
-112.598
11
198.965
21
-112.116
0
LINE
8
BLACK
6
CONTINUOUS
10
198.965
20
-112.116
11
199.077
21
-111.624
0
LINE
8
BLACK
6
CONTINUOUS
10
199.077
20
-111.624
11
199.152
21
-111.125
0
LINE
8
BLACK
6
CONTINUOUS
10
199.152
20
-111.125
11
199.19
21
-110.622
0
LINE
8
BLACK
6
CONTINUOUS
10
199.19
20
-110.622
11
199.19
21
-110.37
0
LINE
8
BLACK
6
CONTINUOUS
10
199.19
20
-110.37
11
199.19
21
-98.77
0
LINE
8
BLACK
6
CONTINUOUS
10
199.19
20
-98.77
11
199.19
21
-98.5178
0
LINE
8
BLACK
6
CONTINUOUS
10
199.19
20
-98.5178
11
199.152
21
-98.0148
0
LINE
8
BLACK
6
CONTINUOUS
10
199.152
20
-98.0148
11
199.077
21
-97.5161
0
LINE
8
BLACK
6
CONTINUOUS
10
199.077
20
-97.5161
11
198.965
21
-97.0243
0
LINE
8
BLACK
6
CONTINUOUS
10
198.965
20
-97.0243
11
198.816
21
-96.5424
0
LINE
8
BLACK
6
CONTINUOUS
10
198.816
20
-96.5424
11
198.632
21
-96.0728
0
LINE
8
BLACK
6
CONTINUOUS
10
198.632
20
-96.0728
11
198.413
21
-95.6184
0
LINE
8
BLACK
6
CONTINUOUS
10
198.413
20
-95.6184
11
198.161
21
-95.1816
0
LINE
8
BLACK
6
CONTINUOUS
10
198.161
20
-95.1816
11
197.877
21
-94.7649
0
LINE
8
BLACK
6
CONTINUOUS
10
197.877
20
-94.7649
11
197.562
21
-94.3705
0
LINE
8
BLACK
6
CONTINUOUS
10
197.562
20
-94.3705
11
197.219
21
-94.0008
0
LINE
8
BLACK
6
CONTINUOUS
10
197.219
20
-94.0008
11
196.849
21
-93.6577
0
LINE
8
BLACK
6
CONTINUOUS
10
196.849
20
-93.6577
11
196.455
21
-93.3432
0
LINE
8
BLACK
6
CONTINUOUS
10
196.455
20
-93.3432
11
196.038
21
-93.0591
0
LINE
8
BLACK
6
CONTINUOUS
10
196.038
20
-93.0591
11
195.602
21
-92.8069
0
LINE
8
BLACK
6
CONTINUOUS
10
195.602
20
-92.8069
11
195.147
21
-92.588
0
LINE
8
BLACK
6
CONTINUOUS
10
195.147
20
-92.588
11
194.678
21
-92.4038
0
LINE
8
BLACK
6
CONTINUOUS
10
194.678
20
-92.4038
11
194.196
21
-92.2551
0
LINE
8
BLACK
6
CONTINUOUS
10
194.196
20
-92.2551
11
193.704
21
-92.1429
0
LINE
8
BLACK
6
CONTINUOUS
10
193.704
20
-92.1429
11
193.205
21
-92.0677
0
LINE
8
BLACK
6
CONTINUOUS
10
193.205
20
-92.0677
11
192.702
21
-92.03
0
LINE
8
BLACK
6
CONTINUOUS
10
192.702
20
-92.03
11
192.45
21
-92.03
0
LINE
8
BLACK
6
CONTINUOUS
10
192.45
20
-92.03
11
182
21
-92.03
0
LINE
8
BLACK
6
CONTINUOUS
10
182
20
-92.03
11
181.958
21
-92.0124
0
LINE
8
BLACK
6
CONTINUOUS
10
181.958
20
-92.0124
11
181.94
21
-91.97
0
LINE
8
BLACK
6
CONTINUOUS
10
181.94
20
-91.97
11
181.94
21
-90.03
0
LINE
8
BLACK
6
CONTINUOUS
10
181.94
20
-90.03
11
172.06
21
-90.03
0
LINE
8
BLACK
6
CONTINUOUS
10
138.534
20
-99.4435
11
138.883
21
-99.5203
0
LINE
8
BLACK
6
CONTINUOUS
10
138.883
20
-99.5203
11
139.221
21
-99.6344
0
LINE
8
BLACK
6
CONTINUOUS
10
139.221
20
-99.6344
11
139.546
21
-99.7844
0
LINE
8
BLACK
6
CONTINUOUS
10
139.546
20
-99.7844
11
139.852
21
-99.9686
0
LINE
8
BLACK
6
CONTINUOUS
10
139.852
20
-99.9686
11
140.136
21
-100.185
0
LINE
8
BLACK
6
CONTINUOUS
10
140.136
20
-100.185
11
140.396
21
-100.431
0
LINE
8
BLACK
6
CONTINUOUS
10
140.396
20
-100.431
11
140.627
21
-100.703
0
LINE
8
BLACK
6
CONTINUOUS
10
140.627
20
-100.703
11
140.828
21
-100.999
0
LINE
8
BLACK
6
CONTINUOUS
10
140.828
20
-100.999
11
140.995
21
-101.314
0
LINE
8
BLACK
6
CONTINUOUS
10
140.995
20
-101.314
11
141.127
21
-101.646
0
LINE
8
BLACK
6
CONTINUOUS
10
141.127
20
-101.646
11
141.223
21
-101.991
0
LINE
8
BLACK
6
CONTINUOUS
10
141.223
20
-101.991
11
141.281
21
-102.343
0
LINE
8
BLACK
6
CONTINUOUS
10
141.281
20
-102.343
11
141.3
21
-102.7
0
LINE
8
BLACK
6
CONTINUOUS
10
141.3
20
-102.7
11
141.281
21
-103.057
0
LINE
8
BLACK
6
CONTINUOUS
10
141.281
20
-103.057
11
141.223
21
-103.409
0
LINE
8
BLACK
6
CONTINUOUS
10
141.223
20
-103.409
11
141.127
21
-103.754
0
LINE
8
BLACK
6
CONTINUOUS
10
141.127
20
-103.754
11
140.995
21
-104.086
0
LINE
8
BLACK
6
CONTINUOUS
10
140.995
20
-104.086
11
140.828
21
-104.401
0
LINE
8
BLACK
6
CONTINUOUS
10
140.828
20
-104.401
11
140.627
21
-104.697
0
LINE
8
BLACK
6
CONTINUOUS
10
140.627
20
-104.697
11
140.396
21
-104.969
0
LINE
8
BLACK
6
CONTINUOUS
10
140.396
20
-104.969
11
140.136
21
-105.215
0
LINE
8
BLACK
6
CONTINUOUS
10
140.136
20
-105.215
11
139.852
21
-105.431
0
LINE
8
BLACK
6
CONTINUOUS
10
139.852
20
-105.431
11
139.546
21
-105.616
0
LINE
8
BLACK
6
CONTINUOUS
10
139.546
20
-105.616
11
139.221
21
-105.766
0
LINE
8
BLACK
6
CONTINUOUS
10
139.221
20
-105.766
11
138.883
21
-105.88
0
LINE
8
BLACK
6
CONTINUOUS
10
138.883
20
-105.88
11
138.534
21
-105.957
0
LINE
8
BLACK
6
CONTINUOUS
10
138.534
20
-105.957
11
138.179
21
-105.995
0
LINE
8
BLACK
6
CONTINUOUS
10
138.179
20
-105.995
11
137.821
21
-105.995
0
LINE
8
BLACK
6
CONTINUOUS
10
137.821
20
-105.995
11
137.466
21
-105.957
0
LINE
8
BLACK
6
CONTINUOUS
10
137.466
20
-105.957
11
137.117
21
-105.88
0
LINE
8
BLACK
6
CONTINUOUS
10
137.117
20
-105.88
11
136.779
21
-105.766
0
LINE
8
BLACK
6
CONTINUOUS
10
136.779
20
-105.766
11
136.454
21
-105.616
0
LINE
8
BLACK
6
CONTINUOUS
10
136.454
20
-105.616
11
136.148
21
-105.431
0
LINE
8
BLACK
6
CONTINUOUS
10
136.148
20
-105.431
11
135.864
21
-105.215
0
LINE
8
BLACK
6
CONTINUOUS
10
135.864
20
-105.215
11
135.604
21
-104.969
0
LINE
8
BLACK
6
CONTINUOUS
10
135.604
20
-104.969
11
135.373
21
-104.697
0
LINE
8
BLACK
6
CONTINUOUS
10
135.373
20
-104.697
11
135.172
21
-104.401
0
LINE
8
BLACK
6
CONTINUOUS
10
135.172
20
-104.401
11
135.005
21
-104.086
0
LINE
8
BLACK
6
CONTINUOUS
10
135.005
20
-104.086
11
134.873
21
-103.754
0
LINE
8
BLACK
6
CONTINUOUS
10
134.873
20
-103.754
11
134.777
21
-103.409
0
LINE
8
BLACK
6
CONTINUOUS
10
134.777
20
-103.409
11
134.719
21
-103.057
0
LINE
8
BLACK
6
CONTINUOUS
10
134.719
20
-103.057
11
134.7
21
-102.7
0
LINE
8
BLACK
6
CONTINUOUS
10
134.7
20
-102.7
11
134.719
21
-102.343
0
LINE
8
BLACK
6
CONTINUOUS
10
134.719
20
-102.343
11
134.777
21
-101.991
0
LINE
8
BLACK
6
CONTINUOUS
10
134.777
20
-101.991
11
134.873
21
-101.646
0
LINE
8
BLACK
6
CONTINUOUS
10
134.873
20
-101.646
11
135.005
21
-101.314
0
LINE
8
BLACK
6
CONTINUOUS
10
135.005
20
-101.314
11
135.172
21
-100.999
0
LINE
8
BLACK
6
CONTINUOUS
10
135.172
20
-100.999
11
135.373
21
-100.703
0
LINE
8
BLACK
6
CONTINUOUS
10
135.373
20
-100.703
11
135.604
21
-100.431
0
LINE
8
BLACK
6
CONTINUOUS
10
135.604
20
-100.431
11
135.864
21
-100.185
0
LINE
8
BLACK
6
CONTINUOUS
10
135.864
20
-100.185
11
136.148
21
-99.9686
0
LINE
8
BLACK
6
CONTINUOUS
10
136.148
20
-99.9686
11
136.454
21
-99.7844
0
LINE
8
BLACK
6
CONTINUOUS
10
136.454
20
-99.7844
11
136.779
21
-99.6344
0
LINE
8
BLACK
6
CONTINUOUS
10
136.779
20
-99.6344
11
137.117
21
-99.5203
0
LINE
8
BLACK
6
CONTINUOUS
10
137.117
20
-99.5203
11
137.466
21
-99.4435
0
LINE
8
BLACK
6
CONTINUOUS
10
137.466
20
-99.4435
11
137.821
21
-99.4048
0
LINE
8
BLACK
6
CONTINUOUS
10
137.821
20
-99.4048
11
138.179
21
-99.4048
0
LINE
8
BLACK
6
CONTINUOUS
10
138.179
20
-99.4048
11
138.534
21
-99.4435
0
LINE
8
BLACK
6
CONTINUOUS
10
134.815
20
-103.059
11
134.875
21
-103.413
0
LINE
8
BLACK
6
CONTINUOUS
10
134.875
20
-103.413
11
134.975
21
-103.759
0
LINE
8
BLACK
6
CONTINUOUS
10
134.975
20
-103.759
11
135.112
21
-104.091
0
LINE
8
BLACK
6
CONTINUOUS
10
135.112
20
-104.091
11
135.286
21
-104.405
0
LINE
8
BLACK
6
CONTINUOUS
10
135.286
20
-104.405
11
135.494
21
-104.698
0
LINE
8
BLACK
6
CONTINUOUS
10
135.494
20
-104.698
11
135.734
21
-104.966
0
LINE
8
BLACK
6
CONTINUOUS
10
135.734
20
-104.966
11
136.002
21
-105.206
0
LINE
8
BLACK
6
CONTINUOUS
10
136.002
20
-105.206
11
136.295
21
-105.414
0
LINE
8
BLACK
6
CONTINUOUS
10
136.295
20
-105.414
11
136.609
21
-105.588
0
LINE
8
BLACK
6
CONTINUOUS
10
136.609
20
-105.588
11
136.941
21
-105.725
0
LINE
8
BLACK
6
CONTINUOUS
10
136.941
20
-105.725
11
137.287
21
-105.825
0
LINE
8
BLACK
6
CONTINUOUS
10
137.287
20
-105.825
11
137.641
21
-105.885
0
LINE
8
BLACK
6
CONTINUOUS
10
137.641
20
-105.885
11
138
21
-105.905
0
LINE
8
BLACK
6
CONTINUOUS
10
138
20
-105.905
11
138.359
21
-105.885
0
LINE
8
BLACK
6
CONTINUOUS
10
138.359
20
-105.885
11
138.713
21
-105.825
0
LINE
8
BLACK
6
CONTINUOUS
10
138.713
20
-105.825
11
139.059
21
-105.725
0
LINE
8
BLACK
6
CONTINUOUS
10
139.059
20
-105.725
11
139.391
21
-105.588
0
LINE
8
BLACK
6
CONTINUOUS
10
139.391
20
-105.588
11
139.705
21
-105.414
0
LINE
8
BLACK
6
CONTINUOUS
10
139.705
20
-105.414
11
139.998
21
-105.206
0
LINE
8
BLACK
6
CONTINUOUS
10
139.998
20
-105.206
11
140.266
21
-104.966
0
LINE
8
BLACK
6
CONTINUOUS
10
140.266
20
-104.966
11
140.506
21
-104.698
0
LINE
8
BLACK
6
CONTINUOUS
10
140.506
20
-104.698
11
140.714
21
-104.405
0
LINE
8
BLACK
6
CONTINUOUS
10
140.714
20
-104.405
11
140.888
21
-104.091
0
LINE
8
BLACK
6
CONTINUOUS
10
140.888
20
-104.091
11
141.025
21
-103.759
0
LINE
8
BLACK
6
CONTINUOUS
10
141.025
20
-103.759
11
141.125
21
-103.413
0
LINE
8
BLACK
6
CONTINUOUS
10
141.125
20
-103.413
11
141.185
21
-103.059
0
LINE
8
BLACK
6
CONTINUOUS
10
141.185
20
-103.059
11
141.205
21
-102.7
0
LINE
8
BLACK
6
CONTINUOUS
10
141.205
20
-102.7
11
141.185
21
-102.341
0
LINE
8
BLACK
6
CONTINUOUS
10
141.185
20
-102.341
11
141.125
21
-101.987
0
LINE
8
BLACK
6
CONTINUOUS
10
141.125
20
-101.987
11
141.025
21
-101.641
0
LINE
8
BLACK
6
CONTINUOUS
10
141.025
20
-101.641
11
140.888
21
-101.309
0
LINE
8
BLACK
6
CONTINUOUS
10
140.888
20
-101.309
11
140.714
21
-100.995
0
LINE
8
BLACK
6
CONTINUOUS
10
140.714
20
-100.995
11
140.506
21
-100.702
0
LINE
8
BLACK
6
CONTINUOUS
10
140.506
20
-100.702
11
140.266
21
-100.434
0
LINE
8
BLACK
6
CONTINUOUS
10
140.266
20
-100.434
11
139.998
21
-100.194
0
LINE
8
BLACK
6
CONTINUOUS
10
139.998
20
-100.194
11
139.705
21
-99.9862
0
LINE
8
BLACK
6
CONTINUOUS
10
139.705
20
-99.9862
11
139.391
21
-99.8124
0
LINE
8
BLACK
6
CONTINUOUS
10
139.391
20
-99.8124
11
139.059
21
-99.6748
0
LINE
8
BLACK
6
CONTINUOUS
10
139.059
20
-99.6748
11
138.713
21
-99.5753
0
LINE
8
BLACK
6
CONTINUOUS
10
138.713
20
-99.5753
11
138.359
21
-99.5151
0
LINE
8
BLACK
6
CONTINUOUS
10
138.359
20
-99.5151
11
138
21
-99.495
0
LINE
8
BLACK
6
CONTINUOUS
10
138
20
-99.495
11
137.641
21
-99.5151
0
LINE
8
BLACK
6
CONTINUOUS
10
137.641
20
-99.5151
11
137.287
21
-99.5753
0
LINE
8
BLACK
6
CONTINUOUS
10
137.287
20
-99.5753
11
136.941
21
-99.6748
0
LINE
8
BLACK
6
CONTINUOUS
10
136.941
20
-99.6748
11
136.609
21
-99.8124
0
LINE
8
BLACK
6
CONTINUOUS
10
136.609
20
-99.8124
11
136.295
21
-99.9862
0
LINE
8
BLACK
6
CONTINUOUS
10
136.295
20
-99.9862
11
136.002
21
-100.194
0
LINE
8
BLACK
6
CONTINUOUS
10
136.002
20
-100.194
11
135.734
21
-100.434
0
LINE
8
BLACK
6
CONTINUOUS
10
135.734
20
-100.434
11
135.494
21
-100.702
0
LINE
8
BLACK
6
CONTINUOUS
10
135.494
20
-100.702
11
135.286
21
-100.995
0
LINE
8
BLACK
6
CONTINUOUS
10
135.286
20
-100.995
11
135.112
21
-101.309
0
LINE
8
BLACK
6
CONTINUOUS
10
135.112
20
-101.309
11
134.975
21
-101.641
0
LINE
8
BLACK
6
CONTINUOUS
10
134.975
20
-101.641
11
134.875
21
-101.987
0
LINE
8
BLACK
6
CONTINUOUS
10
134.875
20
-101.987
11
134.815
21
-102.341
0
LINE
8
BLACK
6
CONTINUOUS
10
134.815
20
-102.341
11
134.795
21
-102.7
0
LINE
8
BLACK
6
CONTINUOUS
10
134.795
20
-102.7
11
134.815
21
-103.059
0
LINE
8
BLACK
6
CONTINUOUS
10
209
20
-82.95
11
209.374
21
-82.9673
0
LINE
8
BLACK
6
CONTINUOUS
10
209.374
20
-82.9673
11
209.744
21
-83.019
0
LINE
8
BLACK
6
CONTINUOUS
10
209.744
20
-83.019
11
210.108
21
-83.1046
0
LINE
8
BLACK
6
CONTINUOUS
10
210.108
20
-83.1046
11
210.463
21
-83.2235
0
LINE
8
BLACK
6
CONTINUOUS
10
210.463
20
-83.2235
11
210.805
21
-83.3746
0
LINE
8
BLACK
6
CONTINUOUS
10
210.805
20
-83.3746
11
211.132
21
-83.5566
0
LINE
8
BLACK
6
CONTINUOUS
10
211.132
20
-83.5566
11
211.441
21
-83.768
0
LINE
8
BLACK
6
CONTINUOUS
10
211.441
20
-83.768
11
211.728
21
-84.007
0
LINE
8
BLACK
6
CONTINUOUS
10
211.728
20
-84.007
11
211.993
21
-84.2715
0
LINE
8
BLACK
6
CONTINUOUS
10
211.993
20
-84.2715
11
212.232
21
-84.5593
0
LINE
8
BLACK
6
CONTINUOUS
10
212.232
20
-84.5593
11
212.443
21
-84.8679
0
LINE
8
BLACK
6
CONTINUOUS
10
212.443
20
-84.8679
11
212.625
21
-85.1948
0
LINE
8
BLACK
6
CONTINUOUS
10
212.625
20
-85.1948
11
212.777
21
-85.537
0
LINE
8
BLACK
6
CONTINUOUS
10
212.777
20
-85.537
11
212.895
21
-85.8917
0
LINE
8
BLACK
6
CONTINUOUS
10
212.895
20
-85.8917
11
212.981
21
-86.2558
0
LINE
8
BLACK
6
CONTINUOUS
10
212.981
20
-86.2558
11
213.033
21
-86.6263
0
LINE
8
BLACK
6
CONTINUOUS
10
213.033
20
-86.6263
11
213.05
21
-87
0
LINE
8
BLACK
6
CONTINUOUS
10
213.05
20
-87
11
213.05
21
-122
0
LINE
8
BLACK
6
CONTINUOUS
10
213.05
20
-122
11
213.033
21
-122.374
0
LINE
8
BLACK
6
CONTINUOUS
10
213.033
20
-122.374
11
212.981
21
-122.744
0
LINE
8
BLACK
6
CONTINUOUS
10
212.981
20
-122.744
11
212.895
21
-123.108
0
LINE
8
BLACK
6
CONTINUOUS
10
212.895
20
-123.108
11
212.777
21
-123.463
0
LINE
8
BLACK
6
CONTINUOUS
10
212.777
20
-123.463
11
212.625
21
-123.805
0
LINE
8
BLACK
6
CONTINUOUS
10
212.625
20
-123.805
11
212.443
21
-124.132
0
LINE
8
BLACK
6
CONTINUOUS
10
212.443
20
-124.132
11
212.232
21
-124.441
0
LINE
8
BLACK
6
CONTINUOUS
10
212.232
20
-124.441
11
211.993
21
-124.728
0
LINE
8
BLACK
6
CONTINUOUS
10
211.993
20
-124.728
11
211.728
21
-124.993
0
LINE
8
BLACK
6
CONTINUOUS
10
211.728
20
-124.993
11
211.441
21
-125.232
0
LINE
8
BLACK
6
CONTINUOUS
10
211.441
20
-125.232
11
211.132
21
-125.443
0
LINE
8
BLACK
6
CONTINUOUS
10
211.132
20
-125.443
11
210.805
21
-125.625
0
LINE
8
BLACK
6
CONTINUOUS
10
210.805
20
-125.625
11
210.463
21
-125.777
0
LINE
8
BLACK
6
CONTINUOUS
10
210.463
20
-125.777
11
210.108
21
-125.895
0
LINE
8
BLACK
6
CONTINUOUS
10
210.108
20
-125.895
11
209.744
21
-125.981
0
LINE
8
BLACK
6
CONTINUOUS
10
209.744
20
-125.981
11
209.374
21
-126.033
0
LINE
8
BLACK
6
CONTINUOUS
10
209.374
20
-126.033
11
209
21
-126.05
0
LINE
8
BLACK
6
CONTINUOUS
10
209
20
-126.05
11
67
21
-126.05
0
LINE
8
BLACK
6
CONTINUOUS
10
67
20
-126.05
11
66.6263
21
-126.033
0
LINE
8
BLACK
6
CONTINUOUS
10
66.6263
20
-126.033
11
66.2558
21
-125.981
0
LINE
8
BLACK
6
CONTINUOUS
10
66.2558
20
-125.981
11
65.8917
21
-125.895
0
LINE
8
BLACK
6
CONTINUOUS
10
65.8917
20
-125.895
11
65.537
21
-125.777
0
LINE
8
BLACK
6
CONTINUOUS
10
65.537
20
-125.777
11
65.1948
21
-125.625
0
LINE
8
BLACK
6
CONTINUOUS
10
65.1948
20
-125.625
11
64.8679
21
-125.443
0
LINE
8
BLACK
6
CONTINUOUS
10
64.8679
20
-125.443
11
64.5593
21
-125.232
0
LINE
8
BLACK
6
CONTINUOUS
10
64.5593
20
-125.232
11
64.2715
21
-124.993
0
LINE
8
BLACK
6
CONTINUOUS
10
64.2715
20
-124.993
11
64.007
21
-124.728
0
LINE
8
BLACK
6
CONTINUOUS
10
64.007
20
-124.728
11
63.768
21
-124.441
0
LINE
8
BLACK
6
CONTINUOUS
10
63.768
20
-124.441
11
63.5566
21
-124.132
0
LINE
8
BLACK
6
CONTINUOUS
10
63.5566
20
-124.132
11
63.3746
21
-123.805
0
LINE
8
BLACK
6
CONTINUOUS
10
63.3746
20
-123.805
11
63.2235
21
-123.463
0
LINE
8
BLACK
6
CONTINUOUS
10
63.2235
20
-123.463
11
63.1046
21
-123.108
0
LINE
8
BLACK
6
CONTINUOUS
10
63.1046
20
-123.108
11
63.019
21
-122.744
0
LINE
8
BLACK
6
CONTINUOUS
10
63.019
20
-122.744
11
62.9673
21
-122.374
0
LINE
8
BLACK
6
CONTINUOUS
10
62.9673
20
-122.374
11
62.95
21
-122
0
LINE
8
BLACK
6
CONTINUOUS
10
62.95
20
-122
11
62.95
21
-87
0
LINE
8
BLACK
6
CONTINUOUS
10
62.95
20
-87
11
62.9673
21
-86.6263
0
LINE
8
BLACK
6
CONTINUOUS
10
62.9673
20
-86.6263
11
63.019
21
-86.2558
0
LINE
8
BLACK
6
CONTINUOUS
10
63.019
20
-86.2558
11
63.1046
21
-85.8917
0
LINE
8
BLACK
6
CONTINUOUS
10
63.1046
20
-85.8917
11
63.2235
21
-85.537
0
LINE
8
BLACK
6
CONTINUOUS
10
63.2235
20
-85.537
11
63.3746
21
-85.1948
0
LINE
8
BLACK
6
CONTINUOUS
10
63.3746
20
-85.1948
11
63.5566
21
-84.8679
0
LINE
8
BLACK
6
CONTINUOUS
10
63.5566
20
-84.8679
11
63.768
21
-84.5593
0
LINE
8
BLACK
6
CONTINUOUS
10
63.768
20
-84.5593
11
64.007
21
-84.2715
0
LINE
8
BLACK
6
CONTINUOUS
10
64.007
20
-84.2715
11
64.2715
21
-84.007
0
LINE
8
BLACK
6
CONTINUOUS
10
64.2715
20
-84.007
11
64.5593
21
-83.768
0
LINE
8
BLACK
6
CONTINUOUS
10
64.5593
20
-83.768
11
64.8679
21
-83.5566
0
LINE
8
BLACK
6
CONTINUOUS
10
64.8679
20
-83.5566
11
65.1948
21
-83.3746
0
LINE
8
BLACK
6
CONTINUOUS
10
65.1948
20
-83.3746
11
65.537
21
-83.2235
0
LINE
8
BLACK
6
CONTINUOUS
10
65.537
20
-83.2235
11
65.8917
21
-83.1046
0
LINE
8
BLACK
6
CONTINUOUS
10
65.8917
20
-83.1046
11
66.2558
21
-83.019
0
LINE
8
BLACK
6
CONTINUOUS
10
66.2558
20
-83.019
11
66.6263
21
-82.9673
0
LINE
8
BLACK
6
CONTINUOUS
10
66.6263
20
-82.9673
11
67
21
-82.95
0
LINE
8
BLACK
6
CONTINUOUS
10
67
20
-82.95
11
209
21
-82.95
0
LINE
8
BLACK
6
CONTINUOUS
10
67
20
-83.05
11
66.8174
21
-83.05
0
LINE
8
BLACK
6
CONTINUOUS
10
66.8174
20
-83.05
11
66.4537
21
-83.0837
0
LINE
8
BLACK
6
CONTINUOUS
10
66.4537
20
-83.0837
11
66.0947
21
-83.1508
0
LINE
8
BLACK
6
CONTINUOUS
10
66.0947
20
-83.1508
11
65.7434
21
-83.2508
0
LINE
8
BLACK
6
CONTINUOUS
10
65.7434
20
-83.2508
11
65.4028
21
-83.3827
0
LINE
8
BLACK
6
CONTINUOUS
10
65.4028
20
-83.3827
11
65.0759
21
-83.5455
0
LINE
8
BLACK
6
CONTINUOUS
10
65.0759
20
-83.5455
11
64.7653
21
-83.7378
0
LINE
8
BLACK
6
CONTINUOUS
10
64.7653
20
-83.7378
11
64.4739
21
-83.9579
0
LINE
8
BLACK
6
CONTINUOUS
10
64.4739
20
-83.9579
11
64.2039
21
-84.2039
0
LINE
8
BLACK
6
CONTINUOUS
10
64.2039
20
-84.2039
11
63.9579
21
-84.4739
0
LINE
8
BLACK
6
CONTINUOUS
10
63.9579
20
-84.4739
11
63.7378
21
-84.7653
0
LINE
8
BLACK
6
CONTINUOUS
10
63.7378
20
-84.7653
11
63.5455
21
-85.0759
0
LINE
8
BLACK
6
CONTINUOUS
10
63.5455
20
-85.0759
11
63.3827
21
-85.4028
0
LINE
8
BLACK
6
CONTINUOUS
10
63.3827
20
-85.4028
11
63.2508
21
-85.7434
0
LINE
8
BLACK
6
CONTINUOUS
10
63.2508
20
-85.7434
11
63.1508
21
-86.0947
0
LINE
8
BLACK
6
CONTINUOUS
10
63.1508
20
-86.0947
11
63.0837
21
-86.4537
0
LINE
8
BLACK
6
CONTINUOUS
10
63.0837
20
-86.4537
11
63.05
21
-86.8174
0
LINE
8
BLACK
6
CONTINUOUS
10
63.05
20
-86.8174
11
63.05
21
-87
0
LINE
8
BLACK
6
CONTINUOUS
10
63.05
20
-87
11
63.05
21
-122
0
LINE
8
BLACK
6
CONTINUOUS
10
63.05
20
-122
11
63.05
21
-122.183
0
LINE
8
BLACK
6
CONTINUOUS
10
63.05
20
-122.183
11
63.0837
21
-122.546
0
LINE
8
BLACK
6
CONTINUOUS
10
63.0837
20
-122.546
11
63.1508
21
-122.905
0
LINE
8
BLACK
6
CONTINUOUS
10
63.1508
20
-122.905
11
63.2508
21
-123.257
0
LINE
8
BLACK
6
CONTINUOUS
10
63.2508
20
-123.257
11
63.3827
21
-123.597
0
LINE
8
BLACK
6
CONTINUOUS
10
63.3827
20
-123.597
11
63.5455
21
-123.924
0
LINE
8
BLACK
6
CONTINUOUS
10
63.5455
20
-123.924
11
63.7378
21
-124.235
0
LINE
8
BLACK
6
CONTINUOUS
10
63.7378
20
-124.235
11
63.9579
21
-124.526
0
LINE
8
BLACK
6
CONTINUOUS
10
63.9579
20
-124.526
11
64.2039
21
-124.796
0
LINE
8
BLACK
6
CONTINUOUS
10
64.2039
20
-124.796
11
64.4739
21
-125.042
0
LINE
8
BLACK
6
CONTINUOUS
10
64.4739
20
-125.042
11
64.7653
21
-125.262
0
LINE
8
BLACK
6
CONTINUOUS
10
64.7653
20
-125.262
11
65.0759
21
-125.454
0
LINE
8
BLACK
6
CONTINUOUS
10
65.0759
20
-125.454
11
65.4028
21
-125.617
0
LINE
8
BLACK
6
CONTINUOUS
10
65.4028
20
-125.617
11
65.7434
21
-125.749
0
LINE
8
BLACK
6
CONTINUOUS
10
65.7434
20
-125.749
11
66.0947
21
-125.849
0
LINE
8
BLACK
6
CONTINUOUS
10
66.0947
20
-125.849
11
66.4537
21
-125.916
0
LINE
8
BLACK
6
CONTINUOUS
10
66.4537
20
-125.916
11
66.8174
21
-125.95
0
LINE
8
BLACK
6
CONTINUOUS
10
66.8174
20
-125.95
11
67
21
-125.95
0
LINE
8
BLACK
6
CONTINUOUS
10
67
20
-125.95
11
209
21
-125.95
0
LINE
8
BLACK
6
CONTINUOUS
10
209
20
-125.95
11
209.183
21
-125.95
0
LINE
8
BLACK
6
CONTINUOUS
10
209.183
20
-125.95
11
209.546
21
-125.916
0
LINE
8
BLACK
6
CONTINUOUS
10
209.546
20
-125.916
11
209.905
21
-125.849
0
LINE
8
BLACK
6
CONTINUOUS
10
209.905
20
-125.849
11
210.257
21
-125.749
0
LINE
8
BLACK
6
CONTINUOUS
10
210.257
20
-125.749
11
210.597
21
-125.617
0
LINE
8
BLACK
6
CONTINUOUS
10
210.597
20
-125.617
11
210.924
21
-125.454
0
LINE
8
BLACK
6
CONTINUOUS
10
210.924
20
-125.454
11
211.235
21
-125.262
0
LINE
8
BLACK
6
CONTINUOUS
10
211.235
20
-125.262
11
211.526
21
-125.042
0
LINE
8
BLACK
6
CONTINUOUS
10
211.526
20
-125.042
11
211.796
21
-124.796
0
LINE
8
BLACK
6
CONTINUOUS
10
211.796
20
-124.796
11
212.042
21
-124.526
0
LINE
8
BLACK
6
CONTINUOUS
10
212.042
20
-124.526
11
212.262
21
-124.235
0
LINE
8
BLACK
6
CONTINUOUS
10
212.262
20
-124.235
11
212.454
21
-123.924
0
LINE
8
BLACK
6
CONTINUOUS
10
212.454
20
-123.924
11
212.617
21
-123.597
0
LINE
8
BLACK
6
CONTINUOUS
10
212.617
20
-123.597
11
212.749
21
-123.257
0
LINE
8
BLACK
6
CONTINUOUS
10
212.749
20
-123.257
11
212.849
21
-122.905
0
LINE
8
BLACK
6
CONTINUOUS
10
212.849
20
-122.905
11
212.916
21
-122.546
0
LINE
8
BLACK
6
CONTINUOUS
10
212.916
20
-122.546
11
212.95
21
-122.183
0
LINE
8
BLACK
6
CONTINUOUS
10
212.95
20
-122.183
11
212.95
21
-122
0
LINE
8
BLACK
6
CONTINUOUS
10
212.95
20
-122
11
212.95
21
-87
0
LINE
8
BLACK
6
CONTINUOUS
10
212.95
20
-87
11
212.95
21
-86.8174
0
LINE
8
BLACK
6
CONTINUOUS
10
212.95
20
-86.8174
11
212.916
21
-86.4537
0
LINE
8
BLACK
6
CONTINUOUS
10
212.916
20
-86.4537
11
212.849
21
-86.0947
0
LINE
8
BLACK
6
CONTINUOUS
10
212.849
20
-86.0947
11
212.749
21
-85.7434
0
LINE
8
BLACK
6
CONTINUOUS
10
212.749
20
-85.7434
11
212.617
21
-85.4028
0
LINE
8
BLACK
6
CONTINUOUS
10
212.617
20
-85.4028
11
212.454
21
-85.0759
0
LINE
8
BLACK
6
CONTINUOUS
10
212.454
20
-85.0759
11
212.262
21
-84.7653
0
LINE
8
BLACK
6
CONTINUOUS
10
212.262
20
-84.7653
11
212.042
21
-84.4739
0
LINE
8
BLACK
6
CONTINUOUS
10
212.042
20
-84.4739
11
211.796
21
-84.2039
0
LINE
8
BLACK
6
CONTINUOUS
10
211.796
20
-84.2039
11
211.526
21
-83.9579
0
LINE
8
BLACK
6
CONTINUOUS
10
211.526
20
-83.9579
11
211.235
21
-83.7378
0
LINE
8
BLACK
6
CONTINUOUS
10
211.235
20
-83.7378
11
210.924
21
-83.5455
0
LINE
8
BLACK
6
CONTINUOUS
10
210.924
20
-83.5455
11
210.597
21
-83.3827
0
LINE
8
BLACK
6
CONTINUOUS
10
210.597
20
-83.3827
11
210.257
21
-83.2508
0
LINE
8
BLACK
6
CONTINUOUS
10
210.257
20
-83.2508
11
209.905
21
-83.1508
0
LINE
8
BLACK
6
CONTINUOUS
10
209.905
20
-83.1508
11
209.546
21
-83.0837
0
LINE
8
BLACK
6
CONTINUOUS
10
209.546
20
-83.0837
11
209.183
21
-83.05
0
LINE
8
BLACK
6
CONTINUOUS
10
209.183
20
-83.05
11
209
21
-83.05
0
LINE
8
BLACK
6
CONTINUOUS
10
209
20
-83.05
11
67
21
-83.05
  0
ENDSEC
  0
EOF
