%TF.GenerationSoftware,KiCad,Pcbnew,9.0.0*%
%TF.CreationDate,2025-03-18T23:21:23-07:00*%
%TF.ProjectId,BSPD,42535044-2e6b-4696-9361-645f70636258,rev?*%
%TF.SameCoordinates,Original*%
%TF.FileFunction,Copper,L4,Bot*%
%TF.FilePolarity,Positive*%
%FSLAX46Y46*%
G04 Gerber Fmt 4.6, Leading zero omitted, Abs format (unit mm)*
G04 Created by KiCad (PCBNEW 9.0.0) date 2025-03-18 23:21:23*
%MOMM*%
%LPD*%
G01*
G04 APERTURE LIST*
%TA.AperFunction,ComponentPad*%
%ADD10C,2.400000*%
%TD*%
%TA.AperFunction,ComponentPad*%
%ADD11R,1.050000X1.500000*%
%TD*%
%TA.AperFunction,ComponentPad*%
%ADD12O,1.050000X1.500000*%
%TD*%
%TA.AperFunction,ComponentPad*%
%ADD13R,1.210000X1.210000*%
%TD*%
%TA.AperFunction,ComponentPad*%
%ADD14C,1.210000*%
%TD*%
%TA.AperFunction,ViaPad*%
%ADD15C,0.600000*%
%TD*%
%TA.AperFunction,Conductor*%
%ADD16C,0.600000*%
%TD*%
%TA.AperFunction,Conductor*%
%ADD17C,0.400000*%
%TD*%
%TA.AperFunction,Conductor*%
%ADD18C,0.800000*%
%TD*%
G04 APERTURE END LIST*
D10*
%TO.P,J1,1,Pin_1*%
%TO.N,GND*%
X55000000Y-116300000D03*
%TO.P,J1,2,Pin_2*%
%TO.N,x*%
X55000000Y-112100000D03*
%TO.P,J1,3,Pin_3*%
%TO.N,Throttle2*%
X55000000Y-107900000D03*
%TO.P,J1,4,Pin_4*%
%TO.N,Throttle1*%
X55000000Y-103700000D03*
%TO.P,J1,5,Pin_5*%
%TO.N,IGN_PWR*%
X48650000Y-103700000D03*
%TO.P,J1,6,Pin_6*%
%TO.N,BSPD_OUT*%
X48650000Y-107900000D03*
%TO.P,J1,7,Pin_7*%
%TO.N,Brake*%
X48650000Y-112100000D03*
%TO.P,J1,8,Pin_8*%
%TO.N,MASTER_PWR*%
X48650000Y-116300000D03*
%TD*%
D11*
%TO.P,Q2,1,E*%
%TO.N,GND*%
X127330000Y-112360000D03*
D12*
%TO.P,Q2,2,B*%
%TO.N,Net-(Q2-B)*%
X128600000Y-112360000D03*
%TO.P,Q2,3,C*%
%TO.N,Net-(Q2-C)*%
X129870000Y-112360000D03*
%TD*%
D13*
%TO.P,RV7,1,1*%
%TO.N,+5V*%
X123460000Y-95000000D03*
D14*
%TO.P,RV7,2,2*%
%TO.N,Net-(BR1-IN1-)*%
X126000000Y-95000000D03*
%TO.P,RV7,3,3*%
%TO.N,GND*%
X128540000Y-95000000D03*
%TD*%
D13*
%TO.P,RV1,1,1*%
%TO.N,+5V*%
X61460000Y-95000000D03*
D14*
%TO.P,RV1,2,2*%
%TO.N,/Throttle_Low*%
X64000000Y-95000000D03*
%TO.P,RV1,3,3*%
%TO.N,GND*%
X66540000Y-95000000D03*
%TD*%
D13*
%TO.P,RV4,1,1*%
%TO.N,+5V*%
X93000000Y-95000000D03*
D14*
%TO.P,RV4,2,2*%
%TO.N,/Brake_High*%
X95540000Y-95000000D03*
%TO.P,RV4,3,3*%
%TO.N,GND*%
X98080000Y-95000000D03*
%TD*%
D13*
%TO.P,RV5,1,1*%
%TO.N,+5V*%
X103460000Y-95000000D03*
D14*
%TO.P,RV5,2,2*%
%TO.N,/Throttle_10\u0025*%
X106000000Y-95000000D03*
%TO.P,RV5,3,3*%
%TO.N,GND*%
X108540000Y-95000000D03*
%TD*%
D13*
%TO.P,RV3,1,1*%
%TO.N,+5V*%
X82460000Y-95000000D03*
D14*
%TO.P,RV3,2,2*%
%TO.N,/Brake_Low*%
X85000000Y-95000000D03*
%TO.P,RV3,3,3*%
%TO.N,GND*%
X87540000Y-95000000D03*
%TD*%
D11*
%TO.P,Q1,1,E*%
%TO.N,GND*%
X121230000Y-112360000D03*
D12*
%TO.P,Q1,2,B*%
%TO.N,/FAULT>100MS*%
X122500000Y-112360000D03*
%TO.P,Q1,3,C*%
%TO.N,BSPD_OUT*%
X123770000Y-112360000D03*
%TD*%
D13*
%TO.P,RV6,1,1*%
%TO.N,+5V*%
X113460000Y-95000000D03*
D14*
%TO.P,RV6,2,2*%
%TO.N,/Heavy_Braking*%
X116000000Y-95000000D03*
%TO.P,RV6,3,3*%
%TO.N,GND*%
X118540000Y-95000000D03*
%TD*%
D13*
%TO.P,RV2,1,1*%
%TO.N,+5V*%
X71920000Y-95000000D03*
D14*
%TO.P,RV2,2,2*%
%TO.N,/Throttle_High*%
X74460000Y-95000000D03*
%TO.P,RV2,3,3*%
%TO.N,GND*%
X77000000Y-95000000D03*
%TD*%
D15*
%TO.N,GND*%
X86600000Y-115700000D03*
X85800000Y-115700000D03*
X72700000Y-105150000D03*
X83100000Y-108100000D03*
X86600000Y-112000000D03*
X86600000Y-112800000D03*
X85800000Y-112800000D03*
X85800000Y-112000000D03*
%TO.N,/B_HVY*%
X70000000Y-101000000D03*
X77000000Y-102000000D03*
X83000000Y-104000000D03*
X109400000Y-105450000D03*
%TO.N,/T_10\u0025*%
X77000000Y-101000000D03*
X83000000Y-102000000D03*
X109450000Y-104200000D03*
%TO.N,/B_L*%
X71000000Y-118000000D03*
X78000000Y-118000000D03*
%TO.N,/T2_H*%
X77000000Y-116000000D03*
X67000000Y-118000000D03*
X86750000Y-106250000D03*
%TO.N,/T1_H*%
X63000000Y-101000000D03*
X77000000Y-104000000D03*
%TO.N,/T1_L*%
X67000000Y-101000000D03*
X77000000Y-103000000D03*
%TO.N,/T2_L*%
X85750000Y-106250000D03*
X77000000Y-115000000D03*
X63000000Y-118000000D03*
%TO.N,BSPD_OUT*%
X58500000Y-109750000D03*
X73900000Y-120250000D03*
%TO.N,+10V*%
X128750000Y-104050000D03*
X72000000Y-119000000D03*
%TO.N,IGN_PWR*%
X78685000Y-121565000D03*
%TO.N,+5V*%
X96800000Y-114300000D03*
X90800000Y-105400000D03*
%TO.N,Brake*%
X59575000Y-112475000D03*
X69000000Y-113700000D03*
%TO.N,/Brake_Low*%
X71500000Y-114000000D03*
%TO.N,/Brake_High*%
X73985500Y-113745250D03*
%TO.N,Throttle1*%
X64562000Y-107995250D03*
%TO.N,/Throttle_High*%
X68500000Y-105000000D03*
X66250000Y-110645250D03*
%TO.N,/Throttle_Low*%
X65561500Y-105000000D03*
X64000000Y-114250000D03*
%TO.N,Throttle2*%
X63950000Y-110995250D03*
%TO.N,MASTER_PWR*%
X123000000Y-126800000D03*
%TD*%
D16*
%TO.N,/B_HVY*%
X71000000Y-102000000D02*
X77000000Y-102000000D01*
X83000000Y-104000000D02*
X107950000Y-104000000D01*
D17*
X70000000Y-101000000D02*
X71000000Y-102000000D01*
D16*
X107950000Y-104000000D02*
X109400000Y-105450000D01*
%TO.N,/T_10\u0025*%
X83000000Y-102000000D02*
X107250000Y-102000000D01*
X107250000Y-102000000D02*
X109450000Y-104200000D01*
%TO.N,/B_L*%
X72000000Y-117000000D02*
X71000000Y-118000000D01*
X78000000Y-118000000D02*
X77000000Y-117000000D01*
X77000000Y-117000000D02*
X72000000Y-117000000D01*
%TO.N,/T2_H*%
X69000000Y-116000000D02*
X77000000Y-116000000D01*
X86750000Y-106250000D02*
X86750000Y-108250000D01*
X67000000Y-118000000D02*
X69000000Y-116000000D01*
X79000000Y-116000000D02*
X77000000Y-116000000D01*
X86750000Y-108250000D02*
X79000000Y-116000000D01*
%TO.N,/T1_H*%
X63000000Y-101000000D02*
X66000000Y-104000000D01*
X66000000Y-104000000D02*
X77000000Y-104000000D01*
%TO.N,/T1_L*%
X67000000Y-101000000D02*
X69000000Y-103000000D01*
X69000000Y-103000000D02*
X77000000Y-103000000D01*
%TO.N,/T2_L*%
X66000000Y-115000000D02*
X74000000Y-115000000D01*
X74000000Y-115000000D02*
X76000000Y-115000000D01*
X78000000Y-115000000D02*
X77000000Y-115000000D01*
X76000000Y-115000000D02*
X77000000Y-115000000D01*
X63000000Y-118000000D02*
X66000000Y-115000000D01*
X85750000Y-106250000D02*
X85750000Y-107250000D01*
X85750000Y-107250000D02*
X78000000Y-115000000D01*
D17*
%TO.N,BSPD_OUT*%
X58650000Y-114641364D02*
X64258636Y-120250000D01*
X64258636Y-120250000D02*
X73900000Y-120250000D01*
X58500000Y-109750000D02*
X58650000Y-109900000D01*
X58650000Y-109900000D02*
X58650000Y-114641364D01*
D16*
%TO.N,+10V*%
X112950000Y-115800000D02*
X88100000Y-115800000D01*
X84900000Y-119000000D02*
X72000000Y-119000000D01*
X88100000Y-115800000D02*
X84900000Y-119000000D01*
X128750000Y-104050000D02*
X124700000Y-104050000D01*
X124700000Y-104050000D02*
X112950000Y-115800000D01*
D18*
%TO.N,IGN_PWR*%
X52100000Y-106350000D02*
X48800000Y-103050000D01*
X56900000Y-119900000D02*
X54100000Y-119900000D01*
X58565000Y-121565000D02*
X56900000Y-119900000D01*
X52100000Y-117900000D02*
X52100000Y-106350000D01*
X54100000Y-119900000D02*
X52100000Y-117900000D01*
X78685000Y-121565000D02*
X58565000Y-121565000D01*
%TO.N,+5V*%
X101410000Y-92950000D02*
X111410000Y-92950000D01*
X101410000Y-92950000D02*
X103460000Y-95000000D01*
X121410000Y-92950000D02*
X123460000Y-95000000D01*
D16*
X90800000Y-105400000D02*
X90800000Y-108300000D01*
D18*
X90950000Y-92950000D02*
X93000000Y-95000000D01*
X71850000Y-92950000D02*
X80410000Y-92950000D01*
X111410000Y-92950000D02*
X121410000Y-92950000D01*
X90950000Y-92950000D02*
X101410000Y-92950000D01*
X71920000Y-95000000D02*
X71900000Y-95000000D01*
X69850000Y-92950000D02*
X71850000Y-92950000D01*
D16*
X90800000Y-108300000D02*
X96800000Y-114300000D01*
D18*
X63510000Y-92950000D02*
X69850000Y-92950000D01*
X80410000Y-92950000D02*
X82460000Y-95000000D01*
X71900000Y-95000000D02*
X69850000Y-92950000D01*
X61460000Y-95000000D02*
X63510000Y-92950000D01*
X111410000Y-92950000D02*
X113460000Y-95000000D01*
X80410000Y-92950000D02*
X90950000Y-92950000D01*
D17*
%TO.N,Brake*%
X62700000Y-115600000D02*
X64070682Y-115600000D01*
X64070682Y-115600000D02*
X65970682Y-113700000D01*
X65970682Y-113700000D02*
X69000000Y-113700000D01*
X59575000Y-112475000D02*
X62700000Y-115600000D01*
D16*
%TO.N,/Brake_Low*%
X71500000Y-114000000D02*
X78000000Y-107500000D01*
X78000000Y-107500000D02*
X78000000Y-100000000D01*
X81500000Y-96500000D02*
X83500000Y-96500000D01*
X83500000Y-96500000D02*
X85000000Y-95000000D01*
X78000000Y-100000000D02*
X81500000Y-96500000D01*
%TO.N,/Brake_High*%
X79000000Y-108730750D02*
X79000000Y-100500000D01*
X81500000Y-98000000D02*
X92540000Y-98000000D01*
X73985500Y-113745250D02*
X79000000Y-108730750D01*
X79000000Y-100500000D02*
X81500000Y-98000000D01*
X92540000Y-98000000D02*
X95540000Y-95000000D01*
D17*
%TO.N,Throttle1*%
X60266750Y-103700000D02*
X55800000Y-103700000D01*
X55800000Y-103700000D02*
X55150000Y-103050000D01*
X64562000Y-107995250D02*
X60266750Y-103700000D01*
%TO.N,/Throttle_High*%
X68500000Y-105000000D02*
X68500000Y-108395250D01*
X68500000Y-108395250D02*
X66250000Y-110645250D01*
%TO.N,/Throttle_Low*%
X64000000Y-114250000D02*
X65550000Y-112700000D01*
X65550000Y-112700000D02*
X65550000Y-105206750D01*
%TO.N,Throttle2*%
X60854750Y-107900000D02*
X55555000Y-107900000D01*
X55555000Y-107900000D02*
X55150000Y-107495000D01*
X63950000Y-110995250D02*
X60854750Y-107900000D01*
D18*
%TO.N,MASTER_PWR*%
X48650000Y-122950000D02*
X48650000Y-116300000D01*
X52500000Y-126800000D02*
X48650000Y-122950000D01*
X123000000Y-126800000D02*
X52500000Y-126800000D01*
%TD*%
%TA.AperFunction,Conductor*%
%TO.N,GND*%
G36*
X77142539Y-104820185D02*
G01*
X77188294Y-104872989D01*
X77199500Y-104924500D01*
X77199500Y-107117059D01*
X77179815Y-107184098D01*
X77163181Y-107204740D01*
X70878213Y-113489707D01*
X70878210Y-113489711D01*
X70790609Y-113620814D01*
X70790602Y-113620827D01*
X70730264Y-113766498D01*
X70730261Y-113766510D01*
X70699500Y-113921153D01*
X70699500Y-114075500D01*
X70679815Y-114142539D01*
X70627011Y-114188294D01*
X70575500Y-114199500D01*
X69845134Y-114199500D01*
X69778095Y-114179815D01*
X69732340Y-114127011D01*
X69722396Y-114057853D01*
X69730573Y-114028047D01*
X69735357Y-114016498D01*
X69769737Y-113933497D01*
X69800500Y-113778842D01*
X69800500Y-113621158D01*
X69800500Y-113621155D01*
X69800499Y-113621153D01*
X69798380Y-113610499D01*
X69769737Y-113466503D01*
X69764529Y-113453929D01*
X69709397Y-113320827D01*
X69709390Y-113320814D01*
X69621789Y-113189711D01*
X69621786Y-113189707D01*
X69510292Y-113078213D01*
X69510288Y-113078210D01*
X69379185Y-112990609D01*
X69379172Y-112990602D01*
X69233501Y-112930264D01*
X69233489Y-112930261D01*
X69078845Y-112899500D01*
X69078842Y-112899500D01*
X68921158Y-112899500D01*
X68921155Y-112899500D01*
X68766510Y-112930261D01*
X68766498Y-112930264D01*
X68622136Y-112990061D01*
X68574684Y-112999500D01*
X66355744Y-112999500D01*
X66288705Y-112979815D01*
X66242950Y-112927011D01*
X66233006Y-112857853D01*
X66234127Y-112851309D01*
X66250499Y-112768998D01*
X66250500Y-112768996D01*
X66250500Y-111563097D01*
X66270185Y-111496058D01*
X66322989Y-111450303D01*
X66350309Y-111441480D01*
X66366291Y-111438300D01*
X66483497Y-111414987D01*
X66629179Y-111354644D01*
X66760289Y-111267039D01*
X66871789Y-111155539D01*
X66959394Y-111024429D01*
X66959395Y-111024426D01*
X66959397Y-111024423D01*
X67019192Y-110880062D01*
X67046069Y-110839836D01*
X69044114Y-108841793D01*
X69120775Y-108727061D01*
X69130061Y-108704644D01*
X69166347Y-108617039D01*
X69173580Y-108599578D01*
X69186724Y-108533501D01*
X69200500Y-108464245D01*
X69200500Y-105425316D01*
X69209939Y-105377864D01*
X69269735Y-105233501D01*
X69269737Y-105233497D01*
X69300500Y-105078842D01*
X69300500Y-104924500D01*
X69320185Y-104857461D01*
X69372989Y-104811706D01*
X69424500Y-104800500D01*
X77075500Y-104800500D01*
X77142539Y-104820185D01*
G37*
%TD.AperFunction*%
%TA.AperFunction,Conductor*%
G36*
X86890834Y-93859383D02*
G01*
X86921554Y-93866528D01*
X86924105Y-93869153D01*
X86927618Y-93870185D01*
X86948265Y-93894013D01*
X86970249Y-93916634D01*
X86970976Y-93920222D01*
X86973373Y-93922989D01*
X86977860Y-93954201D01*
X86984124Y-93985112D01*
X86982795Y-93988523D01*
X86983317Y-93992147D01*
X86970217Y-94020831D01*
X86958775Y-94050221D01*
X86955216Y-94053679D01*
X86954292Y-94055703D01*
X86954011Y-94055960D01*
X86953682Y-94060129D01*
X87540000Y-94646446D01*
X87540001Y-94646446D01*
X88126316Y-94060129D01*
X88125306Y-94047292D01*
X88103862Y-94019479D01*
X88097889Y-93949865D01*
X88130500Y-93888073D01*
X88191341Y-93853720D01*
X88219417Y-93850500D01*
X90525638Y-93850500D01*
X90592677Y-93870185D01*
X90613319Y-93886819D01*
X91858181Y-95131681D01*
X91891666Y-95193004D01*
X91894500Y-95219362D01*
X91894500Y-95652870D01*
X91894501Y-95652876D01*
X91900908Y-95712483D01*
X91951202Y-95847328D01*
X91951206Y-95847335D01*
X92037452Y-95962544D01*
X92037455Y-95962547D01*
X92152664Y-96048793D01*
X92152671Y-96048797D01*
X92287517Y-96099091D01*
X92287516Y-96099091D01*
X92294444Y-96099835D01*
X92347127Y-96105500D01*
X93003060Y-96105499D01*
X93070098Y-96125183D01*
X93115853Y-96177987D01*
X93125797Y-96247146D01*
X93096772Y-96310702D01*
X93090740Y-96317180D01*
X92244741Y-97163181D01*
X92183418Y-97196666D01*
X92157060Y-97199500D01*
X84231941Y-97199500D01*
X84164902Y-97179815D01*
X84119147Y-97127011D01*
X84109203Y-97057853D01*
X84138228Y-96994297D01*
X84144260Y-96987819D01*
X84990259Y-96141819D01*
X85051582Y-96108334D01*
X85077940Y-96105500D01*
X85087010Y-96105500D01*
X85258872Y-96078279D01*
X85260377Y-96077790D01*
X85424365Y-96024507D01*
X85579408Y-95945508D01*
X85587169Y-95939869D01*
X86953683Y-95939869D01*
X86960854Y-95945081D01*
X87115826Y-96024044D01*
X87115829Y-96024045D01*
X87281243Y-96077790D01*
X87453036Y-96105000D01*
X87626964Y-96105000D01*
X87798756Y-96077790D01*
X87964170Y-96024045D01*
X87964173Y-96024044D01*
X88119145Y-95945080D01*
X88126316Y-95939869D01*
X87540001Y-95353554D01*
X87540000Y-95353554D01*
X86953683Y-95939869D01*
X85587169Y-95939869D01*
X85720185Y-95843228D01*
X85843228Y-95720185D01*
X85945508Y-95579408D01*
X86024507Y-95424365D01*
X86078279Y-95258872D01*
X86087188Y-95202625D01*
X86105500Y-95087010D01*
X86105500Y-94913035D01*
X86435000Y-94913035D01*
X86435000Y-95086964D01*
X86462209Y-95258756D01*
X86515954Y-95424170D01*
X86515955Y-95424173D01*
X86594919Y-95579146D01*
X86600129Y-95586316D01*
X87186446Y-95000000D01*
X87186446Y-94999999D01*
X87143002Y-94956555D01*
X87210000Y-94956555D01*
X87210000Y-95043445D01*
X87232489Y-95127375D01*
X87275934Y-95202625D01*
X87337375Y-95264066D01*
X87412625Y-95307511D01*
X87496555Y-95330000D01*
X87583445Y-95330000D01*
X87667375Y-95307511D01*
X87742625Y-95264066D01*
X87804066Y-95202625D01*
X87847511Y-95127375D01*
X87870000Y-95043445D01*
X87870000Y-94999999D01*
X87893554Y-94999999D01*
X87893554Y-95000001D01*
X88479869Y-95586316D01*
X88485080Y-95579145D01*
X88564044Y-95424173D01*
X88564045Y-95424170D01*
X88617790Y-95258756D01*
X88645000Y-95086964D01*
X88645000Y-94913035D01*
X88617790Y-94741243D01*
X88564045Y-94575829D01*
X88564044Y-94575826D01*
X88485081Y-94420854D01*
X88479869Y-94413683D01*
X87893554Y-94999999D01*
X87870000Y-94999999D01*
X87870000Y-94956555D01*
X87847511Y-94872625D01*
X87804066Y-94797375D01*
X87742625Y-94735934D01*
X87667375Y-94692489D01*
X87583445Y-94670000D01*
X87496555Y-94670000D01*
X87412625Y-94692489D01*
X87337375Y-94735934D01*
X87275934Y-94797375D01*
X87232489Y-94872625D01*
X87210000Y-94956555D01*
X87143002Y-94956555D01*
X86600129Y-94413682D01*
X86594918Y-94420854D01*
X86515955Y-94575826D01*
X86515954Y-94575829D01*
X86462209Y-94741243D01*
X86435000Y-94913035D01*
X86105500Y-94913035D01*
X86105500Y-94912989D01*
X86078279Y-94741127D01*
X86024505Y-94575630D01*
X85945641Y-94420854D01*
X85945508Y-94420592D01*
X85892139Y-94347135D01*
X85843233Y-94279821D01*
X85843229Y-94279816D01*
X85720183Y-94156770D01*
X85720178Y-94156766D01*
X85607386Y-94074818D01*
X85564720Y-94019488D01*
X85558741Y-93949875D01*
X85591347Y-93888080D01*
X85652185Y-93853723D01*
X85680271Y-93850500D01*
X86860579Y-93850500D01*
X86890834Y-93859383D01*
G37*
%TD.AperFunction*%
%TA.AperFunction,Conductor*%
G36*
X136504043Y-89500765D02*
G01*
X136752895Y-89517075D01*
X136768953Y-89519190D01*
X136976105Y-89560395D01*
X137009535Y-89567045D01*
X137025202Y-89571243D01*
X137194947Y-89628863D01*
X137257481Y-89650091D01*
X137272458Y-89656294D01*
X137481799Y-89759529D01*
X137492460Y-89764787D01*
X137506508Y-89772897D01*
X137710464Y-89909177D01*
X137723328Y-89919048D01*
X137907749Y-90080781D01*
X137919218Y-90092250D01*
X138080951Y-90276671D01*
X138090825Y-90289539D01*
X138227102Y-90493492D01*
X138235212Y-90507539D01*
X138343702Y-90727534D01*
X138349909Y-90742520D01*
X138428756Y-90974797D01*
X138432954Y-90990464D01*
X138480807Y-91231035D01*
X138482925Y-91247116D01*
X138499235Y-91495956D01*
X138499500Y-91504066D01*
X138499500Y-129495933D01*
X138499235Y-129504043D01*
X138482925Y-129752883D01*
X138480807Y-129768964D01*
X138432954Y-130009535D01*
X138428756Y-130025202D01*
X138349909Y-130257479D01*
X138343702Y-130272465D01*
X138235212Y-130492460D01*
X138227102Y-130506507D01*
X138090825Y-130710460D01*
X138080951Y-130723328D01*
X137919218Y-130907749D01*
X137907749Y-130919218D01*
X137723328Y-131080951D01*
X137710460Y-131090825D01*
X137506507Y-131227102D01*
X137492460Y-131235212D01*
X137272465Y-131343702D01*
X137257479Y-131349909D01*
X137025202Y-131428756D01*
X137009535Y-131432954D01*
X136768964Y-131480807D01*
X136752883Y-131482925D01*
X136504043Y-131499235D01*
X136495933Y-131499500D01*
X41504067Y-131499500D01*
X41495957Y-131499235D01*
X41247116Y-131482925D01*
X41231035Y-131480807D01*
X40990464Y-131432954D01*
X40974797Y-131428756D01*
X40742520Y-131349909D01*
X40727534Y-131343702D01*
X40507539Y-131235212D01*
X40493492Y-131227102D01*
X40289539Y-131090825D01*
X40276671Y-131080951D01*
X40092250Y-130919218D01*
X40080781Y-130907749D01*
X39919048Y-130723328D01*
X39909174Y-130710460D01*
X39772897Y-130506507D01*
X39764787Y-130492460D01*
X39658855Y-130277652D01*
X39656294Y-130272458D01*
X39650090Y-130257479D01*
X39571243Y-130025202D01*
X39567045Y-130009535D01*
X39529113Y-129818838D01*
X39519190Y-129768953D01*
X39517075Y-129752895D01*
X39500765Y-129504043D01*
X39500500Y-129495933D01*
X39500500Y-127878711D01*
X133149500Y-127878711D01*
X133149500Y-128121288D01*
X133181161Y-128361785D01*
X133243947Y-128596104D01*
X133336773Y-128820205D01*
X133336776Y-128820212D01*
X133458064Y-129030289D01*
X133458066Y-129030292D01*
X133458067Y-129030293D01*
X133605733Y-129222736D01*
X133605739Y-129222743D01*
X133777256Y-129394260D01*
X133777263Y-129394266D01*
X133890321Y-129481018D01*
X133969711Y-129541936D01*
X134179788Y-129663224D01*
X134375269Y-129744195D01*
X134396244Y-129752883D01*
X134403900Y-129756054D01*
X134638211Y-129818838D01*
X134818586Y-129842584D01*
X134878711Y-129850500D01*
X134878712Y-129850500D01*
X135121289Y-129850500D01*
X135169388Y-129844167D01*
X135361789Y-129818838D01*
X135596100Y-129756054D01*
X135820212Y-129663224D01*
X136030289Y-129541936D01*
X136222738Y-129394265D01*
X136394265Y-129222738D01*
X136541936Y-129030289D01*
X136663224Y-128820212D01*
X136756054Y-128596100D01*
X136818838Y-128361789D01*
X136850500Y-128121288D01*
X136850500Y-127878712D01*
X136818838Y-127638211D01*
X136756054Y-127403900D01*
X136663224Y-127179788D01*
X136541936Y-126969711D01*
X136394265Y-126777262D01*
X136394260Y-126777256D01*
X136222743Y-126605739D01*
X136222736Y-126605733D01*
X136030293Y-126458067D01*
X136030292Y-126458066D01*
X136030289Y-126458064D01*
X135820212Y-126336776D01*
X135820205Y-126336773D01*
X135596104Y-126243947D01*
X135361785Y-126181161D01*
X135121289Y-126149500D01*
X135121288Y-126149500D01*
X134878712Y-126149500D01*
X134878711Y-126149500D01*
X134638214Y-126181161D01*
X134403895Y-126243947D01*
X134179794Y-126336773D01*
X134179785Y-126336777D01*
X133969706Y-126458067D01*
X133777263Y-126605733D01*
X133777256Y-126605739D01*
X133605739Y-126777256D01*
X133605733Y-126777263D01*
X133458067Y-126969706D01*
X133336777Y-127179785D01*
X133336773Y-127179794D01*
X133243947Y-127403895D01*
X133181161Y-127638214D01*
X133149500Y-127878711D01*
X39500500Y-127878711D01*
X39500500Y-116188549D01*
X46949500Y-116188549D01*
X46949500Y-116411450D01*
X46949501Y-116411466D01*
X46978594Y-116632452D01*
X46978595Y-116632457D01*
X46978596Y-116632463D01*
X47036290Y-116847780D01*
X47036293Y-116847790D01*
X47121593Y-117053722D01*
X47121595Y-117053726D01*
X47233052Y-117246774D01*
X47233057Y-117246780D01*
X47233058Y-117246782D01*
X47368751Y-117423622D01*
X47368757Y-117423629D01*
X47526370Y-117581242D01*
X47526377Y-117581248D01*
X47700986Y-117715229D01*
X47742189Y-117771656D01*
X47749500Y-117813605D01*
X47749500Y-123038696D01*
X47784103Y-123212658D01*
X47784105Y-123212666D01*
X47815526Y-123288524D01*
X47815529Y-123288529D01*
X47818046Y-123294606D01*
X47851987Y-123376547D01*
X47911063Y-123464959D01*
X47914169Y-123469607D01*
X47914172Y-123469613D01*
X47950534Y-123524034D01*
X51925966Y-127499466D01*
X51960326Y-127522423D01*
X51985040Y-127538936D01*
X52073453Y-127598013D01*
X52155393Y-127631953D01*
X52161480Y-127634474D01*
X52161485Y-127634477D01*
X52197940Y-127649577D01*
X52237334Y-127665895D01*
X52411303Y-127700499D01*
X52411307Y-127700500D01*
X52411308Y-127700500D01*
X123088693Y-127700500D01*
X123088694Y-127700499D01*
X123146682Y-127688964D01*
X123262658Y-127665896D01*
X123262661Y-127665894D01*
X123262666Y-127665894D01*
X123426547Y-127598013D01*
X123574035Y-127499464D01*
X123699464Y-127374035D01*
X123798013Y-127226547D01*
X123865894Y-127062666D01*
X123900500Y-126888691D01*
X123900500Y-126711309D01*
X123900500Y-126711306D01*
X123900499Y-126711304D01*
X123865896Y-126537341D01*
X123865893Y-126537332D01*
X123798016Y-126373459D01*
X123798009Y-126373446D01*
X123699464Y-126225965D01*
X123699461Y-126225961D01*
X123574038Y-126100538D01*
X123574034Y-126100535D01*
X123426553Y-126001990D01*
X123426540Y-126001983D01*
X123262667Y-125934106D01*
X123262658Y-125934103D01*
X123088694Y-125899500D01*
X123088691Y-125899500D01*
X52924362Y-125899500D01*
X52857323Y-125879815D01*
X52836681Y-125863181D01*
X50054666Y-123081166D01*
X53034500Y-123081166D01*
X53034500Y-123338833D01*
X53051106Y-123464959D01*
X53068131Y-123594273D01*
X53101473Y-123718709D01*
X53134816Y-123843147D01*
X53233412Y-124081177D01*
X53233416Y-124081187D01*
X53362239Y-124304315D01*
X53519086Y-124508723D01*
X53519092Y-124508730D01*
X53701269Y-124690907D01*
X53701276Y-124690913D01*
X53905684Y-124847760D01*
X54128812Y-124976583D01*
X54128813Y-124976583D01*
X54128816Y-124976585D01*
X54287508Y-125042317D01*
X54366852Y-125075183D01*
X54366853Y-125075183D01*
X54366855Y-125075184D01*
X54615727Y-125141869D01*
X54871174Y-125175500D01*
X54871181Y-125175500D01*
X55128819Y-125175500D01*
X55128826Y-125175500D01*
X55384273Y-125141869D01*
X55633145Y-125075184D01*
X55871184Y-124976585D01*
X56094316Y-124847760D01*
X56298725Y-124690912D01*
X56480912Y-124508725D01*
X56637760Y-124304316D01*
X56766585Y-124081184D01*
X56865184Y-123843145D01*
X56931869Y-123594273D01*
X56965500Y-123338826D01*
X56965500Y-123081174D01*
X56931869Y-122825727D01*
X56865184Y-122576855D01*
X56766585Y-122338816D01*
X56637760Y-122115684D01*
X56480912Y-121911275D01*
X56480907Y-121911269D01*
X56298730Y-121729092D01*
X56298723Y-121729086D01*
X56094315Y-121572239D01*
X55871187Y-121443416D01*
X55871177Y-121443412D01*
X55633147Y-121344816D01*
X55508709Y-121311473D01*
X55384273Y-121278131D01*
X55327507Y-121270657D01*
X55128833Y-121244500D01*
X55128826Y-121244500D01*
X54871174Y-121244500D01*
X54871166Y-121244500D01*
X54644110Y-121274394D01*
X54615727Y-121278131D01*
X54553509Y-121294802D01*
X54366852Y-121344816D01*
X54128822Y-121443412D01*
X54128812Y-121443416D01*
X53905684Y-121572239D01*
X53701276Y-121729086D01*
X53701269Y-121729092D01*
X53519092Y-121911269D01*
X53519086Y-121911276D01*
X53362239Y-122115684D01*
X53233416Y-122338812D01*
X53233412Y-122338822D01*
X53134816Y-122576852D01*
X53068131Y-122825728D01*
X53034500Y-123081166D01*
X50054666Y-123081166D01*
X49586819Y-122613319D01*
X49553334Y-122551996D01*
X49550500Y-122525638D01*
X49550500Y-117813605D01*
X49570185Y-117746566D01*
X49599014Y-117715229D01*
X49663228Y-117665956D01*
X49773624Y-117581247D01*
X49931247Y-117423624D01*
X50066948Y-117246774D01*
X50178405Y-117053726D01*
X50263710Y-116847781D01*
X50321404Y-116632463D01*
X50350500Y-116411457D01*
X50350500Y-116188543D01*
X50321404Y-115967537D01*
X50263710Y-115752219D01*
X50178405Y-115546274D01*
X50066948Y-115353226D01*
X49931247Y-115176376D01*
X49931242Y-115176370D01*
X49773629Y-115018757D01*
X49773622Y-115018751D01*
X49596782Y-114883058D01*
X49596780Y-114883057D01*
X49596774Y-114883052D01*
X49403726Y-114771595D01*
X49403722Y-114771593D01*
X49197790Y-114686293D01*
X49197783Y-114686291D01*
X49197781Y-114686290D01*
X48982463Y-114628596D01*
X48982457Y-114628595D01*
X48982452Y-114628594D01*
X48761466Y-114599501D01*
X48761463Y-114599500D01*
X48761457Y-114599500D01*
X48538543Y-114599500D01*
X48538537Y-114599500D01*
X48538533Y-114599501D01*
X48317547Y-114628594D01*
X48317540Y-114628595D01*
X48317537Y-114628596D01*
X48315343Y-114629184D01*
X48102219Y-114686290D01*
X48102209Y-114686293D01*
X47896277Y-114771593D01*
X47896273Y-114771595D01*
X47703226Y-114883052D01*
X47703217Y-114883058D01*
X47526377Y-115018751D01*
X47526370Y-115018757D01*
X47368757Y-115176370D01*
X47368751Y-115176377D01*
X47233058Y-115353217D01*
X47233052Y-115353226D01*
X47121595Y-115546273D01*
X47121593Y-115546277D01*
X47036293Y-115752209D01*
X47036290Y-115752219D01*
X46988228Y-115931592D01*
X46978597Y-115967534D01*
X46978594Y-115967547D01*
X46949501Y-116188533D01*
X46949500Y-116188549D01*
X39500500Y-116188549D01*
X39500500Y-111988549D01*
X46949500Y-111988549D01*
X46949500Y-112211450D01*
X46949501Y-112211466D01*
X46978594Y-112432452D01*
X46978595Y-112432457D01*
X46978596Y-112432463D01*
X46997964Y-112504745D01*
X47036290Y-112647780D01*
X47036293Y-112647790D01*
X47120594Y-112851309D01*
X47121595Y-112853726D01*
X47233052Y-113046774D01*
X47233057Y-113046780D01*
X47233058Y-113046782D01*
X47368751Y-113223622D01*
X47368757Y-113223629D01*
X47526370Y-113381242D01*
X47526377Y-113381248D01*
X47637478Y-113466498D01*
X47703226Y-113516948D01*
X47896274Y-113628405D01*
X48102219Y-113713710D01*
X48317537Y-113771404D01*
X48538543Y-113800500D01*
X48538550Y-113800500D01*
X48761450Y-113800500D01*
X48761457Y-113800500D01*
X48982463Y-113771404D01*
X49197781Y-113713710D01*
X49403726Y-113628405D01*
X49596774Y-113516948D01*
X49773624Y-113381247D01*
X49931247Y-113223624D01*
X50066948Y-113046774D01*
X50178405Y-112853726D01*
X50263710Y-112647781D01*
X50321404Y-112432463D01*
X50350500Y-112211457D01*
X50350500Y-111988543D01*
X50321404Y-111767537D01*
X50263710Y-111552219D01*
X50243165Y-111502620D01*
X50219609Y-111445750D01*
X50178405Y-111346274D01*
X50066948Y-111153226D01*
X49931247Y-110976376D01*
X49931242Y-110976370D01*
X49773629Y-110818757D01*
X49773622Y-110818751D01*
X49596782Y-110683058D01*
X49596780Y-110683057D01*
X49596774Y-110683052D01*
X49403726Y-110571595D01*
X49403722Y-110571593D01*
X49197790Y-110486293D01*
X49197783Y-110486291D01*
X49197781Y-110486290D01*
X48982463Y-110428596D01*
X48982457Y-110428595D01*
X48982452Y-110428594D01*
X48761466Y-110399501D01*
X48761463Y-110399500D01*
X48761457Y-110399500D01*
X48538543Y-110399500D01*
X48538537Y-110399500D01*
X48538533Y-110399501D01*
X48317547Y-110428594D01*
X48317540Y-110428595D01*
X48317537Y-110428596D01*
X48107194Y-110484957D01*
X48102219Y-110486290D01*
X48102209Y-110486293D01*
X47896277Y-110571593D01*
X47896273Y-110571595D01*
X47703226Y-110683052D01*
X47703217Y-110683058D01*
X47526377Y-110818751D01*
X47526370Y-110818757D01*
X47368757Y-110976370D01*
X47368751Y-110976377D01*
X47233058Y-111153217D01*
X47233052Y-111153226D01*
X47121595Y-111346273D01*
X47121593Y-111346277D01*
X47036293Y-111552209D01*
X47036290Y-111552219D01*
X46979114Y-111765606D01*
X46978597Y-111767534D01*
X46978594Y-111767547D01*
X46949501Y-111988533D01*
X46949500Y-111988549D01*
X39500500Y-111988549D01*
X39500500Y-109871166D01*
X40684500Y-109871166D01*
X40684500Y-110128833D01*
X40701808Y-110260289D01*
X40718131Y-110384273D01*
X40751473Y-110508709D01*
X40784816Y-110633147D01*
X40883412Y-110871177D01*
X40883416Y-110871187D01*
X41012239Y-111094315D01*
X41169086Y-111298723D01*
X41169092Y-111298730D01*
X41351269Y-111480907D01*
X41351276Y-111480913D01*
X41555684Y-111637760D01*
X41778812Y-111766583D01*
X41778813Y-111766583D01*
X41778816Y-111766585D01*
X41849227Y-111795750D01*
X42016852Y-111865183D01*
X42016853Y-111865183D01*
X42016855Y-111865184D01*
X42265727Y-111931869D01*
X42521174Y-111965500D01*
X42521181Y-111965500D01*
X42778819Y-111965500D01*
X42778826Y-111965500D01*
X43034273Y-111931869D01*
X43283145Y-111865184D01*
X43521184Y-111766585D01*
X43744316Y-111637760D01*
X43948725Y-111480912D01*
X44130912Y-111298725D01*
X44287760Y-111094316D01*
X44416585Y-110871184D01*
X44515184Y-110633145D01*
X44581869Y-110384273D01*
X44615500Y-110128826D01*
X44615500Y-109871174D01*
X44581869Y-109615727D01*
X44515184Y-109366855D01*
X44494511Y-109316947D01*
X44482317Y-109287508D01*
X44416585Y-109128816D01*
X44355855Y-109023629D01*
X44287760Y-108905684D01*
X44130913Y-108701276D01*
X44130907Y-108701269D01*
X43948730Y-108519092D01*
X43948723Y-108519086D01*
X43744315Y-108362239D01*
X43521187Y-108233416D01*
X43521177Y-108233412D01*
X43283147Y-108134816D01*
X43158709Y-108101473D01*
X43034273Y-108068131D01*
X42977507Y-108060657D01*
X42778833Y-108034500D01*
X42778826Y-108034500D01*
X42521174Y-108034500D01*
X42521166Y-108034500D01*
X42294110Y-108064394D01*
X42265727Y-108068131D01*
X42203509Y-108084802D01*
X42016852Y-108134816D01*
X41778822Y-108233412D01*
X41778812Y-108233416D01*
X41555684Y-108362239D01*
X41351276Y-108519086D01*
X41351269Y-108519092D01*
X41169092Y-108701269D01*
X41169086Y-108701276D01*
X41012239Y-108905684D01*
X40883416Y-109128812D01*
X40883412Y-109128822D01*
X40784816Y-109366852D01*
X40745466Y-109513710D01*
X40719366Y-109611120D01*
X40718131Y-109615728D01*
X40684500Y-109871166D01*
X39500500Y-109871166D01*
X39500500Y-107788549D01*
X46949500Y-107788549D01*
X46949500Y-108011450D01*
X46949501Y-108011466D01*
X46978594Y-108232452D01*
X46978595Y-108232457D01*
X46978596Y-108232463D01*
X47016637Y-108374435D01*
X47036290Y-108447780D01*
X47036293Y-108447790D01*
X47111424Y-108629172D01*
X47121595Y-108653726D01*
X47233052Y-108846774D01*
X47233057Y-108846780D01*
X47233058Y-108846782D01*
X47368751Y-109023622D01*
X47368757Y-109023629D01*
X47526370Y-109181242D01*
X47526377Y-109181248D01*
X47604299Y-109241039D01*
X47703226Y-109316948D01*
X47896274Y-109428405D01*
X48102219Y-109513710D01*
X48317537Y-109571404D01*
X48538543Y-109600500D01*
X48538550Y-109600500D01*
X48761450Y-109600500D01*
X48761457Y-109600500D01*
X48982463Y-109571404D01*
X49197781Y-109513710D01*
X49403726Y-109428405D01*
X49596774Y-109316948D01*
X49773624Y-109181247D01*
X49931247Y-109023624D01*
X50066948Y-108846774D01*
X50178405Y-108653726D01*
X50263710Y-108447781D01*
X50321404Y-108232463D01*
X50350500Y-108011457D01*
X50350500Y-107788543D01*
X50321404Y-107567537D01*
X50263710Y-107352219D01*
X50178405Y-107146274D01*
X50066948Y-106953226D01*
X49931247Y-106776376D01*
X49931242Y-106776370D01*
X49773629Y-106618757D01*
X49773622Y-106618751D01*
X49596782Y-106483058D01*
X49596780Y-106483057D01*
X49596774Y-106483052D01*
X49403726Y-106371595D01*
X49403722Y-106371593D01*
X49197790Y-106286293D01*
X49197783Y-106286291D01*
X49197781Y-106286290D01*
X48982463Y-106228596D01*
X48982457Y-106228595D01*
X48982452Y-106228594D01*
X48761466Y-106199501D01*
X48761463Y-106199500D01*
X48761457Y-106199500D01*
X48538543Y-106199500D01*
X48538537Y-106199500D01*
X48538533Y-106199501D01*
X48317547Y-106228594D01*
X48317540Y-106228595D01*
X48317537Y-106228596D01*
X48195454Y-106261308D01*
X48102219Y-106286290D01*
X48102209Y-106286293D01*
X47896277Y-106371593D01*
X47896273Y-106371595D01*
X47703226Y-106483052D01*
X47703217Y-106483058D01*
X47526377Y-106618751D01*
X47526370Y-106618757D01*
X47368757Y-106776370D01*
X47368751Y-106776377D01*
X47233058Y-106953217D01*
X47233052Y-106953226D01*
X47121595Y-107146273D01*
X47121593Y-107146277D01*
X47036293Y-107352209D01*
X47036290Y-107352219D01*
X46978597Y-107567534D01*
X46978594Y-107567547D01*
X46949501Y-107788533D01*
X46949500Y-107788549D01*
X39500500Y-107788549D01*
X39500500Y-103588549D01*
X46949500Y-103588549D01*
X46949500Y-103811450D01*
X46949501Y-103811466D01*
X46978594Y-104032452D01*
X46978595Y-104032457D01*
X46978596Y-104032463D01*
X47032463Y-104233497D01*
X47036290Y-104247780D01*
X47036293Y-104247790D01*
X47114592Y-104436819D01*
X47121595Y-104453726D01*
X47233052Y-104646774D01*
X47233057Y-104646780D01*
X47233058Y-104646782D01*
X47368751Y-104823622D01*
X47368757Y-104823629D01*
X47526370Y-104981242D01*
X47526377Y-104981248D01*
X47577938Y-105020812D01*
X47703226Y-105116948D01*
X47896274Y-105228405D01*
X48102219Y-105313710D01*
X48317537Y-105371404D01*
X48538543Y-105400500D01*
X48538550Y-105400500D01*
X48761450Y-105400500D01*
X48761457Y-105400500D01*
X48982463Y-105371404D01*
X49197781Y-105313710D01*
X49403726Y-105228405D01*
X49512264Y-105165739D01*
X49580162Y-105149266D01*
X49646190Y-105172118D01*
X49661945Y-105185445D01*
X51163181Y-106686680D01*
X51196666Y-106748003D01*
X51199500Y-106774361D01*
X51199500Y-117988696D01*
X51234103Y-118162658D01*
X51234105Y-118162666D01*
X51262105Y-118230263D01*
X51301987Y-118326547D01*
X51334028Y-118374499D01*
X51338262Y-118380835D01*
X51400537Y-118474038D01*
X53525960Y-120599461D01*
X53525963Y-120599463D01*
X53525964Y-120599464D01*
X53570436Y-120629179D01*
X53673453Y-120698013D01*
X53755393Y-120731953D01*
X53837334Y-120765895D01*
X54011303Y-120800499D01*
X54011307Y-120800500D01*
X54011308Y-120800500D01*
X54011309Y-120800500D01*
X56475638Y-120800500D01*
X56542677Y-120820185D01*
X56563319Y-120836819D01*
X57298740Y-121572239D01*
X57865536Y-122139035D01*
X57990962Y-122264461D01*
X57990966Y-122264465D01*
X58138449Y-122363011D01*
X58138451Y-122363012D01*
X58138453Y-122363013D01*
X58169718Y-122375963D01*
X58169719Y-122375964D01*
X58169720Y-122375964D01*
X58302334Y-122430895D01*
X58476304Y-122465499D01*
X58476308Y-122465500D01*
X58476309Y-122465500D01*
X78773693Y-122465500D01*
X78773694Y-122465499D01*
X78831682Y-122453964D01*
X78947658Y-122430896D01*
X78947661Y-122430894D01*
X78947666Y-122430894D01*
X79111547Y-122363013D01*
X79259035Y-122264464D01*
X79384464Y-122139035D01*
X79483013Y-121991547D01*
X79550894Y-121827666D01*
X79585500Y-121653691D01*
X79585500Y-121476309D01*
X79585500Y-121476306D01*
X79585499Y-121476304D01*
X79550896Y-121302341D01*
X79550893Y-121302332D01*
X79483016Y-121138459D01*
X79483009Y-121138446D01*
X79384464Y-120990965D01*
X79384461Y-120990961D01*
X79259038Y-120865538D01*
X79259034Y-120865535D01*
X79111553Y-120766990D01*
X79111540Y-120766983D01*
X78947667Y-120699106D01*
X78947658Y-120699103D01*
X78773694Y-120664500D01*
X78773691Y-120664500D01*
X74780342Y-120664500D01*
X74713303Y-120644815D01*
X74667548Y-120592011D01*
X74657604Y-120522853D01*
X74665781Y-120493047D01*
X74669737Y-120483497D01*
X74700500Y-120328842D01*
X74700500Y-120171158D01*
X74700500Y-120171155D01*
X74700499Y-120171153D01*
X74669738Y-120016510D01*
X74669737Y-120016503D01*
X74651284Y-119971952D01*
X74643815Y-119902483D01*
X74675091Y-119840004D01*
X74735180Y-119804352D01*
X74765845Y-119800500D01*
X84978844Y-119800500D01*
X84978845Y-119800499D01*
X85133497Y-119769737D01*
X85279179Y-119709394D01*
X85410289Y-119621789D01*
X88395259Y-116636819D01*
X88456582Y-116603334D01*
X88482940Y-116600500D01*
X113028844Y-116600500D01*
X113028845Y-116600499D01*
X113183497Y-116569737D01*
X113329179Y-116509394D01*
X113460289Y-116421789D01*
X115398589Y-114483489D01*
X117411122Y-112470957D01*
X118319924Y-111562155D01*
X120205000Y-111562155D01*
X120205000Y-112110000D01*
X120949670Y-112110000D01*
X120929925Y-112129745D01*
X120880556Y-112215255D01*
X120855000Y-112310630D01*
X120855000Y-112409370D01*
X120880556Y-112504745D01*
X120929925Y-112590255D01*
X120949670Y-112610000D01*
X120205000Y-112610000D01*
X120205000Y-113157844D01*
X120211401Y-113217372D01*
X120211403Y-113217379D01*
X120261645Y-113352086D01*
X120261649Y-113352093D01*
X120347809Y-113467187D01*
X120347812Y-113467190D01*
X120462906Y-113553350D01*
X120462913Y-113553354D01*
X120597620Y-113603596D01*
X120597627Y-113603598D01*
X120657155Y-113609999D01*
X120657172Y-113610000D01*
X120980000Y-113610000D01*
X120980000Y-112640330D01*
X120999745Y-112660075D01*
X121085255Y-112709444D01*
X121180630Y-112735000D01*
X121279370Y-112735000D01*
X121374745Y-112709444D01*
X121460255Y-112660075D01*
X121474500Y-112645830D01*
X121474500Y-112686002D01*
X121477617Y-112701671D01*
X121480000Y-112725865D01*
X121480000Y-113610000D01*
X121802828Y-113610000D01*
X121802844Y-113609999D01*
X121862372Y-113603598D01*
X121862376Y-113603597D01*
X121997089Y-113553352D01*
X121997896Y-113552748D01*
X121998845Y-113552393D01*
X122004876Y-113549101D01*
X122005349Y-113549967D01*
X122063360Y-113528329D01*
X122119661Y-113537451D01*
X122200873Y-113571091D01*
X122364288Y-113603596D01*
X122398992Y-113610499D01*
X122398996Y-113610500D01*
X122398997Y-113610500D01*
X122601004Y-113610500D01*
X122601005Y-113610499D01*
X122799127Y-113571091D01*
X122985756Y-113493786D01*
X123066110Y-113440094D01*
X123132786Y-113419217D01*
X123200166Y-113437701D01*
X123203865Y-113440078D01*
X123284244Y-113493786D01*
X123470873Y-113571091D01*
X123634288Y-113603596D01*
X123668992Y-113610499D01*
X123668996Y-113610500D01*
X123668997Y-113610500D01*
X123871004Y-113610500D01*
X123871005Y-113610499D01*
X124069127Y-113571091D01*
X124255756Y-113493786D01*
X124423718Y-113381558D01*
X124566558Y-113238718D01*
X124678786Y-113070756D01*
X124756091Y-112884127D01*
X124795500Y-112686003D01*
X124795500Y-112033997D01*
X124756091Y-111835873D01*
X124678786Y-111649244D01*
X124678782Y-111649239D01*
X124678780Y-111649234D01*
X124664419Y-111627740D01*
X124620596Y-111562155D01*
X126305000Y-111562155D01*
X126305000Y-112110000D01*
X127049670Y-112110000D01*
X127029925Y-112129745D01*
X126980556Y-112215255D01*
X126955000Y-112310630D01*
X126955000Y-112409370D01*
X126980556Y-112504745D01*
X127029925Y-112590255D01*
X127049670Y-112610000D01*
X126305000Y-112610000D01*
X126305000Y-113157844D01*
X126311401Y-113217372D01*
X126311403Y-113217379D01*
X126361645Y-113352086D01*
X126361649Y-113352093D01*
X126447809Y-113467187D01*
X126447812Y-113467190D01*
X126562906Y-113553350D01*
X126562913Y-113553354D01*
X126697620Y-113603596D01*
X126697627Y-113603598D01*
X126757155Y-113609999D01*
X126757172Y-113610000D01*
X127080000Y-113610000D01*
X127080000Y-112640330D01*
X127099745Y-112660075D01*
X127185255Y-112709444D01*
X127280630Y-112735000D01*
X127379370Y-112735000D01*
X127474745Y-112709444D01*
X127560255Y-112660075D01*
X127574500Y-112645830D01*
X127574500Y-112686002D01*
X127577617Y-112701671D01*
X127580000Y-112725865D01*
X127580000Y-113610000D01*
X127902828Y-113610000D01*
X127902844Y-113609999D01*
X127962372Y-113603598D01*
X127962376Y-113603597D01*
X128097089Y-113553352D01*
X128097896Y-113552748D01*
X128098845Y-113552393D01*
X128104876Y-113549101D01*
X128105349Y-113549967D01*
X128163360Y-113528329D01*
X128219661Y-113537451D01*
X128300873Y-113571091D01*
X128464288Y-113603596D01*
X128498992Y-113610499D01*
X128498996Y-113610500D01*
X128498997Y-113610500D01*
X128701004Y-113610500D01*
X128701005Y-113610499D01*
X128899127Y-113571091D01*
X129085756Y-113493786D01*
X129166110Y-113440094D01*
X129232786Y-113419217D01*
X129300166Y-113437701D01*
X129303865Y-113440078D01*
X129384244Y-113493786D01*
X129570873Y-113571091D01*
X129734288Y-113603596D01*
X129768992Y-113610499D01*
X129768996Y-113610500D01*
X129768997Y-113610500D01*
X129971004Y-113610500D01*
X129971005Y-113610499D01*
X130169127Y-113571091D01*
X130355756Y-113493786D01*
X130523718Y-113381558D01*
X130666558Y-113238718D01*
X130778786Y-113070756D01*
X130856091Y-112884127D01*
X130895500Y-112686003D01*
X130895500Y-112033997D01*
X130856091Y-111835873D01*
X130778786Y-111649244D01*
X130778784Y-111649241D01*
X130778782Y-111649237D01*
X130666558Y-111481281D01*
X130523718Y-111338441D01*
X130355762Y-111226217D01*
X130355752Y-111226212D01*
X130169127Y-111148909D01*
X130169119Y-111148907D01*
X129971007Y-111109500D01*
X129971003Y-111109500D01*
X129768997Y-111109500D01*
X129768992Y-111109500D01*
X129570880Y-111148907D01*
X129570872Y-111148909D01*
X129384244Y-111226213D01*
X129303891Y-111279904D01*
X129237213Y-111300782D01*
X129169833Y-111282297D01*
X129166109Y-111279904D01*
X129085755Y-111226213D01*
X128899127Y-111148909D01*
X128899119Y-111148907D01*
X128701007Y-111109500D01*
X128701003Y-111109500D01*
X128498997Y-111109500D01*
X128498992Y-111109500D01*
X128300880Y-111148907D01*
X128300868Y-111148910D01*
X128219661Y-111182547D01*
X128150191Y-111190016D01*
X128105140Y-111170405D01*
X128104872Y-111170897D01*
X128099374Y-111167894D01*
X128097895Y-111167251D01*
X128097086Y-111166645D01*
X127962379Y-111116403D01*
X127962372Y-111116401D01*
X127902844Y-111110000D01*
X127580000Y-111110000D01*
X127580000Y-111994134D01*
X127577617Y-112018326D01*
X127574500Y-112033995D01*
X127574500Y-112074170D01*
X127560255Y-112059925D01*
X127474745Y-112010556D01*
X127379370Y-111985000D01*
X127280630Y-111985000D01*
X127185255Y-112010556D01*
X127099745Y-112059925D01*
X127080000Y-112079670D01*
X127080000Y-111110000D01*
X126757155Y-111110000D01*
X126697627Y-111116401D01*
X126697620Y-111116403D01*
X126562913Y-111166645D01*
X126562906Y-111166649D01*
X126447812Y-111252809D01*
X126447809Y-111252812D01*
X126361649Y-111367906D01*
X126361645Y-111367913D01*
X126311403Y-111502620D01*
X126311401Y-111502627D01*
X126305000Y-111562155D01*
X124620596Y-111562155D01*
X124566558Y-111481282D01*
X124566555Y-111481278D01*
X124423718Y-111338441D01*
X124255762Y-111226217D01*
X124255752Y-111226212D01*
X124069127Y-111148909D01*
X124069119Y-111148907D01*
X123871007Y-111109500D01*
X123871003Y-111109500D01*
X123668997Y-111109500D01*
X123668992Y-111109500D01*
X123470880Y-111148907D01*
X123470872Y-111148909D01*
X123284244Y-111226213D01*
X123203891Y-111279904D01*
X123137213Y-111300782D01*
X123069833Y-111282297D01*
X123066109Y-111279904D01*
X122985755Y-111226213D01*
X122799127Y-111148909D01*
X122799119Y-111148907D01*
X122601007Y-111109500D01*
X122601003Y-111109500D01*
X122398997Y-111109500D01*
X122398992Y-111109500D01*
X122200880Y-111148907D01*
X122200868Y-111148910D01*
X122119661Y-111182547D01*
X122050191Y-111190016D01*
X122005140Y-111170405D01*
X122004872Y-111170897D01*
X121999374Y-111167894D01*
X121997895Y-111167251D01*
X121997086Y-111166645D01*
X121862379Y-111116403D01*
X121862372Y-111116401D01*
X121802844Y-111110000D01*
X121480000Y-111110000D01*
X121480000Y-111994134D01*
X121477617Y-112018326D01*
X121474500Y-112033995D01*
X121474500Y-112074170D01*
X121460255Y-112059925D01*
X121374745Y-112010556D01*
X121279370Y-111985000D01*
X121180630Y-111985000D01*
X121085255Y-112010556D01*
X120999745Y-112059925D01*
X120980000Y-112079670D01*
X120980000Y-111110000D01*
X120657155Y-111110000D01*
X120597627Y-111116401D01*
X120597620Y-111116403D01*
X120462913Y-111166645D01*
X120462906Y-111166649D01*
X120347812Y-111252809D01*
X120347809Y-111252812D01*
X120261649Y-111367906D01*
X120261645Y-111367913D01*
X120211403Y-111502620D01*
X120211401Y-111502627D01*
X120205000Y-111562155D01*
X118319924Y-111562155D01*
X118410909Y-111471170D01*
X124995259Y-104886819D01*
X125056582Y-104853334D01*
X125082940Y-104850500D01*
X128828844Y-104850500D01*
X128828845Y-104850499D01*
X128983497Y-104819737D01*
X129129179Y-104759394D01*
X129260289Y-104671789D01*
X129371789Y-104560289D01*
X129459394Y-104429179D01*
X129519737Y-104283497D01*
X129550500Y-104128842D01*
X129550500Y-103971158D01*
X129550500Y-103971155D01*
X129550499Y-103971153D01*
X129520596Y-103820821D01*
X129519737Y-103816503D01*
X129517644Y-103811450D01*
X129459397Y-103670827D01*
X129459390Y-103670814D01*
X129371789Y-103539711D01*
X129371786Y-103539707D01*
X129260291Y-103428212D01*
X129260288Y-103428210D01*
X129129185Y-103340609D01*
X129129172Y-103340602D01*
X128983501Y-103280264D01*
X128983489Y-103280261D01*
X128828845Y-103249500D01*
X128828842Y-103249500D01*
X124778842Y-103249500D01*
X124621157Y-103249500D01*
X124621154Y-103249500D01*
X124466509Y-103280261D01*
X124466497Y-103280264D01*
X124423832Y-103297936D01*
X124423833Y-103297937D01*
X124320823Y-103340604D01*
X124320814Y-103340609D01*
X124189712Y-103428209D01*
X124189710Y-103428212D01*
X112654741Y-114963181D01*
X112593418Y-114996666D01*
X112567060Y-114999500D01*
X97527350Y-114999500D01*
X97460311Y-114979815D01*
X97414556Y-114927011D01*
X97404612Y-114857853D01*
X97424248Y-114806609D01*
X97509390Y-114679185D01*
X97509390Y-114679184D01*
X97509394Y-114679179D01*
X97569737Y-114533497D01*
X97600500Y-114378842D01*
X97600500Y-114221158D01*
X97594252Y-114189744D01*
X97594252Y-114189742D01*
X97594252Y-114189741D01*
X97569738Y-114066506D01*
X97569736Y-114066500D01*
X97538846Y-113991925D01*
X97538836Y-113991904D01*
X97538824Y-113991873D01*
X97509394Y-113920821D01*
X97475980Y-113870814D01*
X97421790Y-113789712D01*
X97369671Y-113737593D01*
X97310289Y-113678211D01*
X91636819Y-108004741D01*
X91603334Y-107943418D01*
X91600500Y-107917060D01*
X91600500Y-105321155D01*
X91600499Y-105321153D01*
X91582050Y-105228404D01*
X91569737Y-105166503D01*
X91549211Y-105116948D01*
X91509397Y-105020827D01*
X91509389Y-105020812D01*
X91491067Y-104993392D01*
X91470188Y-104926715D01*
X91488672Y-104859334D01*
X91540650Y-104812644D01*
X91594168Y-104800500D01*
X107567060Y-104800500D01*
X107634099Y-104820185D01*
X107654741Y-104836819D01*
X108889707Y-106071786D01*
X108889711Y-106071789D01*
X109020814Y-106159390D01*
X109020818Y-106159392D01*
X109020821Y-106159394D01*
X109166503Y-106219738D01*
X109321153Y-106250499D01*
X109321157Y-106250500D01*
X109321158Y-106250500D01*
X109478844Y-106250500D01*
X109478845Y-106250499D01*
X109633498Y-106219738D01*
X109779179Y-106159394D01*
X109910290Y-106071789D01*
X110021789Y-105960290D01*
X110109394Y-105829179D01*
X110169738Y-105683498D01*
X110200500Y-105528843D01*
X110200500Y-105371158D01*
X110169738Y-105216503D01*
X110109394Y-105070821D01*
X110109392Y-105070818D01*
X110109390Y-105070814D01*
X110021789Y-104939711D01*
X110021786Y-104939707D01*
X110019759Y-104937680D01*
X110019036Y-104936356D01*
X110017924Y-104935001D01*
X110018180Y-104934790D01*
X109986274Y-104876357D01*
X109991258Y-104806665D01*
X110019756Y-104762321D01*
X110071789Y-104710289D01*
X110159394Y-104579179D01*
X110219737Y-104433497D01*
X110246265Y-104300136D01*
X110250500Y-104278845D01*
X110250500Y-104121155D01*
X110250499Y-104121153D01*
X110219737Y-103966503D01*
X110200953Y-103921153D01*
X110159397Y-103820827D01*
X110159390Y-103820814D01*
X110071789Y-103689711D01*
X110071786Y-103689707D01*
X107760292Y-101378213D01*
X107760288Y-101378210D01*
X107629185Y-101290609D01*
X107629172Y-101290602D01*
X107483501Y-101230264D01*
X107483489Y-101230261D01*
X107328845Y-101199500D01*
X107328842Y-101199500D01*
X82921158Y-101199500D01*
X82921155Y-101199500D01*
X82766510Y-101230261D01*
X82766498Y-101230264D01*
X82620827Y-101290602D01*
X82620814Y-101290609D01*
X82489711Y-101378210D01*
X82489707Y-101378213D01*
X82378213Y-101489707D01*
X82378210Y-101489711D01*
X82290609Y-101620814D01*
X82290602Y-101620827D01*
X82230264Y-101766498D01*
X82230261Y-101766510D01*
X82199500Y-101921153D01*
X82199500Y-102078846D01*
X82230261Y-102233489D01*
X82230264Y-102233501D01*
X82290602Y-102379172D01*
X82290609Y-102379185D01*
X82378210Y-102510288D01*
X82378213Y-102510292D01*
X82489707Y-102621786D01*
X82489711Y-102621789D01*
X82620814Y-102709390D01*
X82620827Y-102709397D01*
X82766498Y-102769735D01*
X82766503Y-102769737D01*
X82921153Y-102800499D01*
X82921156Y-102800500D01*
X82921158Y-102800500D01*
X106867060Y-102800500D01*
X106896500Y-102809144D01*
X106926487Y-102815668D01*
X106931502Y-102819422D01*
X106934099Y-102820185D01*
X106954741Y-102836819D01*
X107105741Y-102987819D01*
X107139226Y-103049142D01*
X107134242Y-103118834D01*
X107092370Y-103174767D01*
X107026906Y-103199184D01*
X107018060Y-103199500D01*
X82921155Y-103199500D01*
X82766510Y-103230261D01*
X82766498Y-103230264D01*
X82620827Y-103290602D01*
X82620814Y-103290609D01*
X82489711Y-103378210D01*
X82489707Y-103378213D01*
X82378213Y-103489707D01*
X82378210Y-103489711D01*
X82290609Y-103620814D01*
X82290602Y-103620827D01*
X82230264Y-103766498D01*
X82230261Y-103766510D01*
X82199500Y-103921153D01*
X82199500Y-104078846D01*
X82230261Y-104233489D01*
X82230264Y-104233501D01*
X82290602Y-104379172D01*
X82290609Y-104379185D01*
X82378210Y-104510288D01*
X82378213Y-104510292D01*
X82489707Y-104621786D01*
X82489711Y-104621789D01*
X82620814Y-104709390D01*
X82620827Y-104709397D01*
X82748587Y-104762316D01*
X82766503Y-104769737D01*
X82921153Y-104800499D01*
X82921156Y-104800500D01*
X82921158Y-104800500D01*
X90005832Y-104800500D01*
X90072871Y-104820185D01*
X90118626Y-104872989D01*
X90128570Y-104942147D01*
X90108933Y-104993392D01*
X90090610Y-105020812D01*
X90090602Y-105020827D01*
X90030264Y-105166498D01*
X90030261Y-105166510D01*
X89999500Y-105321153D01*
X89999500Y-108378846D01*
X90030261Y-108533489D01*
X90030264Y-108533501D01*
X90090602Y-108679172D01*
X90090609Y-108679185D01*
X90178210Y-108810288D01*
X90178213Y-108810292D01*
X96155741Y-114787819D01*
X96189226Y-114849142D01*
X96184242Y-114918834D01*
X96142370Y-114974767D01*
X96076906Y-114999184D01*
X96068060Y-114999500D01*
X88021154Y-114999500D01*
X87866509Y-115030261D01*
X87866497Y-115030264D01*
X87823832Y-115047936D01*
X87823833Y-115047937D01*
X87720823Y-115090604D01*
X87720814Y-115090609D01*
X87589712Y-115178209D01*
X87589710Y-115178212D01*
X84604741Y-118163181D01*
X84543418Y-118196666D01*
X84517060Y-118199500D01*
X78924500Y-118199500D01*
X78857461Y-118179815D01*
X78811706Y-118127011D01*
X78800500Y-118075500D01*
X78800500Y-117921157D01*
X78800499Y-117921153D01*
X78781960Y-117827949D01*
X78769738Y-117766503D01*
X78709394Y-117620821D01*
X78709392Y-117620818D01*
X78709390Y-117620814D01*
X78621789Y-117489711D01*
X78621786Y-117489707D01*
X78144259Y-117012181D01*
X78110774Y-116950858D01*
X78115758Y-116881167D01*
X78157629Y-116825233D01*
X78223094Y-116800816D01*
X78231940Y-116800500D01*
X79078844Y-116800500D01*
X79078845Y-116800499D01*
X79233497Y-116769737D01*
X79379179Y-116709394D01*
X79510289Y-116621789D01*
X87371789Y-108760289D01*
X87393991Y-108727061D01*
X87459394Y-108629179D01*
X87519737Y-108483497D01*
X87550500Y-108328842D01*
X87550500Y-106171158D01*
X87550500Y-106171155D01*
X87550499Y-106171153D01*
X87530734Y-106071789D01*
X87519737Y-106016503D01*
X87481195Y-105923453D01*
X87459397Y-105870827D01*
X87459390Y-105870814D01*
X87371789Y-105739711D01*
X87371786Y-105739707D01*
X87260292Y-105628213D01*
X87260288Y-105628210D01*
X87129185Y-105540609D01*
X87129172Y-105540602D01*
X86983501Y-105480264D01*
X86983489Y-105480261D01*
X86828845Y-105449500D01*
X86828842Y-105449500D01*
X86671158Y-105449500D01*
X86671155Y-105449500D01*
X86516510Y-105480261D01*
X86516498Y-105480264D01*
X86370827Y-105540602D01*
X86370814Y-105540609D01*
X86318891Y-105575304D01*
X86252214Y-105596182D01*
X86184833Y-105577698D01*
X86181109Y-105575304D01*
X86129185Y-105540609D01*
X86129172Y-105540602D01*
X85983501Y-105480264D01*
X85983489Y-105480261D01*
X85828845Y-105449500D01*
X85828842Y-105449500D01*
X85671158Y-105449500D01*
X85671155Y-105449500D01*
X85516510Y-105480261D01*
X85516498Y-105480264D01*
X85370827Y-105540602D01*
X85370814Y-105540609D01*
X85239711Y-105628210D01*
X85239707Y-105628213D01*
X85128213Y-105739707D01*
X85128210Y-105739711D01*
X85040609Y-105870814D01*
X85040602Y-105870827D01*
X84980264Y-106016498D01*
X84980261Y-106016510D01*
X84949500Y-106171153D01*
X84949500Y-106867060D01*
X84929815Y-106934099D01*
X84913181Y-106954741D01*
X77704741Y-114163181D01*
X77643418Y-114196666D01*
X77617060Y-114199500D01*
X74962690Y-114199500D01*
X74895651Y-114179815D01*
X74849896Y-114127011D01*
X74839952Y-114057853D01*
X74868977Y-113994297D01*
X74875009Y-113987819D01*
X79621786Y-109241042D01*
X79621789Y-109241039D01*
X79709394Y-109109929D01*
X79769737Y-108964247D01*
X79800500Y-108809592D01*
X79800500Y-108651908D01*
X79800500Y-100882940D01*
X79820185Y-100815901D01*
X79836819Y-100795259D01*
X81795259Y-98836819D01*
X81856582Y-98803334D01*
X81882940Y-98800500D01*
X92618844Y-98800500D01*
X92618845Y-98800499D01*
X92773497Y-98769737D01*
X92919179Y-98709394D01*
X93050289Y-98621789D01*
X95530259Y-96141819D01*
X95591582Y-96108334D01*
X95617940Y-96105500D01*
X95627010Y-96105500D01*
X95798872Y-96078279D01*
X95800377Y-96077790D01*
X95964365Y-96024507D01*
X96119408Y-95945508D01*
X96127169Y-95939869D01*
X97493683Y-95939869D01*
X97500854Y-95945081D01*
X97655826Y-96024044D01*
X97655829Y-96024045D01*
X97821243Y-96077790D01*
X97993036Y-96105000D01*
X98166964Y-96105000D01*
X98338756Y-96077790D01*
X98504170Y-96024045D01*
X98504173Y-96024044D01*
X98659145Y-95945080D01*
X98666316Y-95939869D01*
X98080001Y-95353554D01*
X98080000Y-95353554D01*
X97493683Y-95939869D01*
X96127169Y-95939869D01*
X96260185Y-95843228D01*
X96383228Y-95720185D01*
X96485508Y-95579408D01*
X96564507Y-95424365D01*
X96618279Y-95258872D01*
X96627188Y-95202625D01*
X96645500Y-95087010D01*
X96645500Y-94913035D01*
X96975000Y-94913035D01*
X96975000Y-95086964D01*
X97002209Y-95258756D01*
X97055954Y-95424170D01*
X97055955Y-95424173D01*
X97134919Y-95579146D01*
X97140129Y-95586316D01*
X97726446Y-95000000D01*
X97726446Y-94999999D01*
X97683002Y-94956555D01*
X97750000Y-94956555D01*
X97750000Y-95043445D01*
X97772489Y-95127375D01*
X97815934Y-95202625D01*
X97877375Y-95264066D01*
X97952625Y-95307511D01*
X98036555Y-95330000D01*
X98123445Y-95330000D01*
X98207375Y-95307511D01*
X98282625Y-95264066D01*
X98344066Y-95202625D01*
X98387511Y-95127375D01*
X98410000Y-95043445D01*
X98410000Y-94999999D01*
X98433554Y-94999999D01*
X98433554Y-95000001D01*
X99019869Y-95586316D01*
X99025080Y-95579145D01*
X99104044Y-95424173D01*
X99104045Y-95424170D01*
X99157790Y-95258756D01*
X99185000Y-95086964D01*
X99185000Y-94913035D01*
X99157790Y-94741243D01*
X99104045Y-94575829D01*
X99104044Y-94575826D01*
X99025081Y-94420854D01*
X99019869Y-94413683D01*
X98433554Y-94999999D01*
X98410000Y-94999999D01*
X98410000Y-94956555D01*
X98387511Y-94872625D01*
X98344066Y-94797375D01*
X98282625Y-94735934D01*
X98207375Y-94692489D01*
X98123445Y-94670000D01*
X98036555Y-94670000D01*
X97952625Y-94692489D01*
X97877375Y-94735934D01*
X97815934Y-94797375D01*
X97772489Y-94872625D01*
X97750000Y-94956555D01*
X97683002Y-94956555D01*
X97140129Y-94413682D01*
X97134918Y-94420854D01*
X97055955Y-94575826D01*
X97055954Y-94575829D01*
X97002209Y-94741243D01*
X96975000Y-94913035D01*
X96645500Y-94913035D01*
X96645500Y-94912989D01*
X96618279Y-94741127D01*
X96564505Y-94575630D01*
X96485641Y-94420854D01*
X96485508Y-94420592D01*
X96432139Y-94347135D01*
X96383233Y-94279821D01*
X96383229Y-94279816D01*
X96260183Y-94156770D01*
X96260178Y-94156766D01*
X96147386Y-94074818D01*
X96104720Y-94019488D01*
X96098741Y-93949875D01*
X96131347Y-93888080D01*
X96192185Y-93853723D01*
X96220271Y-93850500D01*
X97400579Y-93850500D01*
X97467618Y-93870185D01*
X97513373Y-93922989D01*
X97523317Y-93992147D01*
X97494292Y-94055703D01*
X97494011Y-94055960D01*
X97493682Y-94060129D01*
X98080000Y-94646446D01*
X98080001Y-94646446D01*
X98666316Y-94060129D01*
X98665306Y-94047292D01*
X98643862Y-94019479D01*
X98637889Y-93949865D01*
X98670500Y-93888073D01*
X98731341Y-93853720D01*
X98759417Y-93850500D01*
X100985638Y-93850500D01*
X101052677Y-93870185D01*
X101073319Y-93886819D01*
X102318181Y-95131681D01*
X102351666Y-95193004D01*
X102354500Y-95219362D01*
X102354500Y-95652870D01*
X102354501Y-95652876D01*
X102360908Y-95712483D01*
X102411202Y-95847328D01*
X102411206Y-95847335D01*
X102497452Y-95962544D01*
X102497455Y-95962547D01*
X102612664Y-96048793D01*
X102612671Y-96048797D01*
X102747517Y-96099091D01*
X102747516Y-96099091D01*
X102754444Y-96099835D01*
X102807127Y-96105500D01*
X104112872Y-96105499D01*
X104172483Y-96099091D01*
X104307331Y-96048796D01*
X104422546Y-95962546D01*
X104508796Y-95847331D01*
X104559091Y-95712483D01*
X104565500Y-95652873D01*
X104565499Y-94347128D01*
X104559091Y-94287517D01*
X104556218Y-94279815D01*
X104508797Y-94152671D01*
X104508795Y-94152668D01*
X104508792Y-94152664D01*
X104431047Y-94048810D01*
X104406630Y-93983347D01*
X104421481Y-93915074D01*
X104470886Y-93865668D01*
X104530314Y-93850500D01*
X105319729Y-93850500D01*
X105386768Y-93870185D01*
X105432523Y-93922989D01*
X105442467Y-93992147D01*
X105413442Y-94055703D01*
X105392614Y-94074818D01*
X105279821Y-94156766D01*
X105279816Y-94156770D01*
X105156770Y-94279816D01*
X105156766Y-94279821D01*
X105054494Y-94420588D01*
X104975494Y-94575630D01*
X104921720Y-94741127D01*
X104894500Y-94912989D01*
X104894500Y-95087010D01*
X104921720Y-95258872D01*
X104975494Y-95424369D01*
X105054494Y-95579411D01*
X105156766Y-95720178D01*
X105156770Y-95720183D01*
X105279816Y-95843229D01*
X105279821Y-95843233D01*
X105383848Y-95918812D01*
X105420592Y-95945508D01*
X105519381Y-95995844D01*
X105575630Y-96024505D01*
X105575632Y-96024505D01*
X105575635Y-96024507D01*
X105650380Y-96048793D01*
X105741127Y-96078279D01*
X105912990Y-96105500D01*
X105912995Y-96105500D01*
X106087010Y-96105500D01*
X106258872Y-96078279D01*
X106260377Y-96077790D01*
X106424365Y-96024507D01*
X106579408Y-95945508D01*
X106587169Y-95939869D01*
X107953683Y-95939869D01*
X107960854Y-95945081D01*
X108115826Y-96024044D01*
X108115829Y-96024045D01*
X108281243Y-96077790D01*
X108453036Y-96105000D01*
X108626964Y-96105000D01*
X108798756Y-96077790D01*
X108964170Y-96024045D01*
X108964173Y-96024044D01*
X109119145Y-95945080D01*
X109126316Y-95939869D01*
X108540001Y-95353554D01*
X108540000Y-95353554D01*
X107953683Y-95939869D01*
X106587169Y-95939869D01*
X106720185Y-95843228D01*
X106843228Y-95720185D01*
X106945508Y-95579408D01*
X107024507Y-95424365D01*
X107078279Y-95258872D01*
X107087188Y-95202625D01*
X107105500Y-95087010D01*
X107105500Y-94913035D01*
X107435000Y-94913035D01*
X107435000Y-95086964D01*
X107462209Y-95258756D01*
X107515954Y-95424170D01*
X107515955Y-95424173D01*
X107594919Y-95579146D01*
X107600129Y-95586316D01*
X108186446Y-95000000D01*
X108186446Y-94999999D01*
X108143002Y-94956555D01*
X108210000Y-94956555D01*
X108210000Y-95043445D01*
X108232489Y-95127375D01*
X108275934Y-95202625D01*
X108337375Y-95264066D01*
X108412625Y-95307511D01*
X108496555Y-95330000D01*
X108583445Y-95330000D01*
X108667375Y-95307511D01*
X108742625Y-95264066D01*
X108804066Y-95202625D01*
X108847511Y-95127375D01*
X108870000Y-95043445D01*
X108870000Y-94999999D01*
X108893554Y-94999999D01*
X108893554Y-95000001D01*
X109479869Y-95586316D01*
X109485080Y-95579145D01*
X109564044Y-95424173D01*
X109564045Y-95424170D01*
X109617790Y-95258756D01*
X109645000Y-95086964D01*
X109645000Y-94913035D01*
X109617790Y-94741243D01*
X109564045Y-94575829D01*
X109564044Y-94575826D01*
X109485081Y-94420854D01*
X109479869Y-94413683D01*
X108893554Y-94999999D01*
X108870000Y-94999999D01*
X108870000Y-94956555D01*
X108847511Y-94872625D01*
X108804066Y-94797375D01*
X108742625Y-94735934D01*
X108667375Y-94692489D01*
X108583445Y-94670000D01*
X108496555Y-94670000D01*
X108412625Y-94692489D01*
X108337375Y-94735934D01*
X108275934Y-94797375D01*
X108232489Y-94872625D01*
X108210000Y-94956555D01*
X108143002Y-94956555D01*
X107600129Y-94413682D01*
X107594918Y-94420854D01*
X107515955Y-94575826D01*
X107515954Y-94575829D01*
X107462209Y-94741243D01*
X107435000Y-94913035D01*
X107105500Y-94913035D01*
X107105500Y-94912989D01*
X107078279Y-94741127D01*
X107024505Y-94575630D01*
X106945641Y-94420854D01*
X106945508Y-94420592D01*
X106892139Y-94347135D01*
X106843233Y-94279821D01*
X106843229Y-94279816D01*
X106720183Y-94156770D01*
X106720178Y-94156766D01*
X106607386Y-94074818D01*
X106564720Y-94019488D01*
X106558741Y-93949875D01*
X106591347Y-93888080D01*
X106652185Y-93853723D01*
X106680271Y-93850500D01*
X107860579Y-93850500D01*
X107927618Y-93870185D01*
X107973373Y-93922989D01*
X107983317Y-93992147D01*
X107954292Y-94055703D01*
X107954011Y-94055960D01*
X107953682Y-94060129D01*
X108540000Y-94646446D01*
X108540001Y-94646446D01*
X109126316Y-94060129D01*
X109125306Y-94047292D01*
X109103862Y-94019479D01*
X109097889Y-93949865D01*
X109130500Y-93888073D01*
X109191341Y-93853720D01*
X109219417Y-93850500D01*
X110985638Y-93850500D01*
X111052677Y-93870185D01*
X111073319Y-93886819D01*
X112318181Y-95131681D01*
X112351666Y-95193004D01*
X112354500Y-95219362D01*
X112354500Y-95652870D01*
X112354501Y-95652876D01*
X112360908Y-95712483D01*
X112411202Y-95847328D01*
X112411206Y-95847335D01*
X112497452Y-95962544D01*
X112497455Y-95962547D01*
X112612664Y-96048793D01*
X112612671Y-96048797D01*
X112747517Y-96099091D01*
X112747516Y-96099091D01*
X112754444Y-96099835D01*
X112807127Y-96105500D01*
X114112872Y-96105499D01*
X114172483Y-96099091D01*
X114307331Y-96048796D01*
X114422546Y-95962546D01*
X114508796Y-95847331D01*
X114559091Y-95712483D01*
X114565500Y-95652873D01*
X114565499Y-94347128D01*
X114559091Y-94287517D01*
X114556218Y-94279815D01*
X114508797Y-94152671D01*
X114508795Y-94152668D01*
X114508792Y-94152664D01*
X114431047Y-94048810D01*
X114406630Y-93983347D01*
X114421481Y-93915074D01*
X114470886Y-93865668D01*
X114530314Y-93850500D01*
X115319729Y-93850500D01*
X115386768Y-93870185D01*
X115432523Y-93922989D01*
X115442467Y-93992147D01*
X115413442Y-94055703D01*
X115392614Y-94074818D01*
X115279821Y-94156766D01*
X115279816Y-94156770D01*
X115156770Y-94279816D01*
X115156766Y-94279821D01*
X115054494Y-94420588D01*
X114975494Y-94575630D01*
X114921720Y-94741127D01*
X114894500Y-94912989D01*
X114894500Y-95087010D01*
X114921720Y-95258872D01*
X114975494Y-95424369D01*
X115054494Y-95579411D01*
X115156766Y-95720178D01*
X115156770Y-95720183D01*
X115279816Y-95843229D01*
X115279821Y-95843233D01*
X115383848Y-95918812D01*
X115420592Y-95945508D01*
X115519381Y-95995844D01*
X115575630Y-96024505D01*
X115575632Y-96024505D01*
X115575635Y-96024507D01*
X115650380Y-96048793D01*
X115741127Y-96078279D01*
X115912990Y-96105500D01*
X115912995Y-96105500D01*
X116087010Y-96105500D01*
X116258872Y-96078279D01*
X116260377Y-96077790D01*
X116424365Y-96024507D01*
X116579408Y-95945508D01*
X116587169Y-95939869D01*
X117953683Y-95939869D01*
X117960854Y-95945081D01*
X118115826Y-96024044D01*
X118115829Y-96024045D01*
X118281243Y-96077790D01*
X118453036Y-96105000D01*
X118626964Y-96105000D01*
X118798756Y-96077790D01*
X118964170Y-96024045D01*
X118964173Y-96024044D01*
X119119145Y-95945080D01*
X119126316Y-95939869D01*
X118540001Y-95353554D01*
X118540000Y-95353554D01*
X117953683Y-95939869D01*
X116587169Y-95939869D01*
X116720185Y-95843228D01*
X116843228Y-95720185D01*
X116945508Y-95579408D01*
X117024507Y-95424365D01*
X117078279Y-95258872D01*
X117087188Y-95202625D01*
X117105500Y-95087010D01*
X117105500Y-94913035D01*
X117435000Y-94913035D01*
X117435000Y-95086964D01*
X117462209Y-95258756D01*
X117515954Y-95424170D01*
X117515955Y-95424173D01*
X117594919Y-95579146D01*
X117600129Y-95586316D01*
X118186446Y-95000000D01*
X118186446Y-94999999D01*
X118143002Y-94956555D01*
X118210000Y-94956555D01*
X118210000Y-95043445D01*
X118232489Y-95127375D01*
X118275934Y-95202625D01*
X118337375Y-95264066D01*
X118412625Y-95307511D01*
X118496555Y-95330000D01*
X118583445Y-95330000D01*
X118667375Y-95307511D01*
X118742625Y-95264066D01*
X118804066Y-95202625D01*
X118847511Y-95127375D01*
X118870000Y-95043445D01*
X118870000Y-94999999D01*
X118893554Y-94999999D01*
X118893554Y-95000001D01*
X119479869Y-95586316D01*
X119485080Y-95579145D01*
X119564044Y-95424173D01*
X119564045Y-95424170D01*
X119617790Y-95258756D01*
X119645000Y-95086964D01*
X119645000Y-94913035D01*
X119617790Y-94741243D01*
X119564045Y-94575829D01*
X119564044Y-94575826D01*
X119485081Y-94420854D01*
X119479869Y-94413683D01*
X118893554Y-94999999D01*
X118870000Y-94999999D01*
X118870000Y-94956555D01*
X118847511Y-94872625D01*
X118804066Y-94797375D01*
X118742625Y-94735934D01*
X118667375Y-94692489D01*
X118583445Y-94670000D01*
X118496555Y-94670000D01*
X118412625Y-94692489D01*
X118337375Y-94735934D01*
X118275934Y-94797375D01*
X118232489Y-94872625D01*
X118210000Y-94956555D01*
X118143002Y-94956555D01*
X117600129Y-94413682D01*
X117594918Y-94420854D01*
X117515955Y-94575826D01*
X117515954Y-94575829D01*
X117462209Y-94741243D01*
X117435000Y-94913035D01*
X117105500Y-94913035D01*
X117105500Y-94912989D01*
X117078279Y-94741127D01*
X117024505Y-94575630D01*
X116945641Y-94420854D01*
X116945508Y-94420592D01*
X116892139Y-94347135D01*
X116843233Y-94279821D01*
X116843229Y-94279816D01*
X116720183Y-94156770D01*
X116720178Y-94156766D01*
X116607386Y-94074818D01*
X116564720Y-94019488D01*
X116558741Y-93949875D01*
X116591347Y-93888080D01*
X116652185Y-93853723D01*
X116680271Y-93850500D01*
X117860579Y-93850500D01*
X117927618Y-93870185D01*
X117973373Y-93922989D01*
X117983317Y-93992147D01*
X117954292Y-94055703D01*
X117954011Y-94055960D01*
X117953682Y-94060129D01*
X118540000Y-94646446D01*
X118540001Y-94646446D01*
X119126316Y-94060129D01*
X119125306Y-94047292D01*
X119103862Y-94019479D01*
X119097889Y-93949865D01*
X119130500Y-93888073D01*
X119191341Y-93853720D01*
X119219417Y-93850500D01*
X120985638Y-93850500D01*
X121052677Y-93870185D01*
X121073319Y-93886819D01*
X122318181Y-95131681D01*
X122351666Y-95193004D01*
X122354500Y-95219362D01*
X122354500Y-95652870D01*
X122354501Y-95652876D01*
X122360908Y-95712483D01*
X122411202Y-95847328D01*
X122411206Y-95847335D01*
X122497452Y-95962544D01*
X122497455Y-95962547D01*
X122612664Y-96048793D01*
X122612671Y-96048797D01*
X122747517Y-96099091D01*
X122747516Y-96099091D01*
X122754444Y-96099835D01*
X122807127Y-96105500D01*
X124112872Y-96105499D01*
X124172483Y-96099091D01*
X124307331Y-96048796D01*
X124422546Y-95962546D01*
X124508796Y-95847331D01*
X124559091Y-95712483D01*
X124565500Y-95652873D01*
X124565499Y-94912989D01*
X124894500Y-94912989D01*
X124894500Y-95087010D01*
X124921720Y-95258872D01*
X124975494Y-95424369D01*
X125054494Y-95579411D01*
X125156766Y-95720178D01*
X125156770Y-95720183D01*
X125279816Y-95843229D01*
X125279821Y-95843233D01*
X125383848Y-95918812D01*
X125420592Y-95945508D01*
X125519381Y-95995844D01*
X125575630Y-96024505D01*
X125575632Y-96024505D01*
X125575635Y-96024507D01*
X125650380Y-96048793D01*
X125741127Y-96078279D01*
X125912990Y-96105500D01*
X125912995Y-96105500D01*
X126087010Y-96105500D01*
X126258872Y-96078279D01*
X126260377Y-96077790D01*
X126424365Y-96024507D01*
X126579408Y-95945508D01*
X126587169Y-95939869D01*
X127953683Y-95939869D01*
X127960854Y-95945081D01*
X128115826Y-96024044D01*
X128115829Y-96024045D01*
X128281243Y-96077790D01*
X128453036Y-96105000D01*
X128626964Y-96105000D01*
X128798756Y-96077790D01*
X128964170Y-96024045D01*
X128964173Y-96024044D01*
X129119145Y-95945080D01*
X129126316Y-95939869D01*
X128540001Y-95353554D01*
X128540000Y-95353554D01*
X127953683Y-95939869D01*
X126587169Y-95939869D01*
X126720185Y-95843228D01*
X126843228Y-95720185D01*
X126945508Y-95579408D01*
X127024507Y-95424365D01*
X127078279Y-95258872D01*
X127087188Y-95202625D01*
X127105500Y-95087010D01*
X127105500Y-94913035D01*
X127435000Y-94913035D01*
X127435000Y-95086964D01*
X127462209Y-95258756D01*
X127515954Y-95424170D01*
X127515955Y-95424173D01*
X127594919Y-95579146D01*
X127600129Y-95586316D01*
X128186446Y-95000000D01*
X128186446Y-94999999D01*
X128143002Y-94956555D01*
X128210000Y-94956555D01*
X128210000Y-95043445D01*
X128232489Y-95127375D01*
X128275934Y-95202625D01*
X128337375Y-95264066D01*
X128412625Y-95307511D01*
X128496555Y-95330000D01*
X128583445Y-95330000D01*
X128667375Y-95307511D01*
X128742625Y-95264066D01*
X128804066Y-95202625D01*
X128847511Y-95127375D01*
X128870000Y-95043445D01*
X128870000Y-94999999D01*
X128893554Y-94999999D01*
X128893554Y-95000001D01*
X129479869Y-95586316D01*
X129485080Y-95579145D01*
X129564044Y-95424173D01*
X129564045Y-95424170D01*
X129617790Y-95258756D01*
X129645000Y-95086964D01*
X129645000Y-94913035D01*
X129617790Y-94741243D01*
X129564045Y-94575829D01*
X129564044Y-94575826D01*
X129485081Y-94420854D01*
X129479869Y-94413683D01*
X128893554Y-94999999D01*
X128870000Y-94999999D01*
X128870000Y-94956555D01*
X128847511Y-94872625D01*
X128804066Y-94797375D01*
X128742625Y-94735934D01*
X128667375Y-94692489D01*
X128583445Y-94670000D01*
X128496555Y-94670000D01*
X128412625Y-94692489D01*
X128337375Y-94735934D01*
X128275934Y-94797375D01*
X128232489Y-94872625D01*
X128210000Y-94956555D01*
X128143002Y-94956555D01*
X127600129Y-94413682D01*
X127594918Y-94420854D01*
X127515955Y-94575826D01*
X127515954Y-94575829D01*
X127462209Y-94741243D01*
X127435000Y-94913035D01*
X127105500Y-94913035D01*
X127105500Y-94912989D01*
X127078279Y-94741127D01*
X127024505Y-94575630D01*
X126945641Y-94420854D01*
X126945508Y-94420592D01*
X126892139Y-94347135D01*
X126843233Y-94279821D01*
X126843229Y-94279816D01*
X126720183Y-94156770D01*
X126720178Y-94156766D01*
X126587167Y-94060129D01*
X127953682Y-94060129D01*
X128540000Y-94646446D01*
X128540001Y-94646446D01*
X129126316Y-94060129D01*
X129119146Y-94054919D01*
X128964173Y-93975955D01*
X128964170Y-93975954D01*
X128798756Y-93922209D01*
X128626964Y-93895000D01*
X128453036Y-93895000D01*
X128281243Y-93922209D01*
X128115829Y-93975954D01*
X128115826Y-93975955D01*
X127960854Y-94054918D01*
X127953682Y-94060129D01*
X126587167Y-94060129D01*
X126579411Y-94054494D01*
X126579410Y-94054493D01*
X126579408Y-94054492D01*
X126513345Y-94020831D01*
X126424369Y-93975494D01*
X126258872Y-93921720D01*
X126087010Y-93894500D01*
X126087005Y-93894500D01*
X125912995Y-93894500D01*
X125912990Y-93894500D01*
X125741127Y-93921720D01*
X125575630Y-93975494D01*
X125420588Y-94054494D01*
X125279821Y-94156766D01*
X125279816Y-94156770D01*
X125156770Y-94279816D01*
X125156766Y-94279821D01*
X125054494Y-94420588D01*
X124975494Y-94575630D01*
X124921720Y-94741127D01*
X124894500Y-94912989D01*
X124565499Y-94912989D01*
X124565499Y-94347128D01*
X124559091Y-94287517D01*
X124556218Y-94279815D01*
X124508797Y-94152671D01*
X124508793Y-94152664D01*
X124422547Y-94037455D01*
X124422544Y-94037452D01*
X124307335Y-93951206D01*
X124307328Y-93951202D01*
X124172482Y-93900908D01*
X124172483Y-93900908D01*
X124112883Y-93894501D01*
X124112881Y-93894500D01*
X124112873Y-93894500D01*
X124112865Y-93894500D01*
X123679362Y-93894500D01*
X123612323Y-93874815D01*
X123591681Y-93858181D01*
X122612211Y-92878711D01*
X132899500Y-92878711D01*
X132899500Y-93121288D01*
X132931161Y-93361785D01*
X132993947Y-93596104D01*
X133086773Y-93820205D01*
X133086776Y-93820212D01*
X133208064Y-94030289D01*
X133208066Y-94030292D01*
X133208067Y-94030293D01*
X133355733Y-94222736D01*
X133355739Y-94222743D01*
X133527256Y-94394260D01*
X133527263Y-94394266D01*
X133640321Y-94481018D01*
X133719711Y-94541936D01*
X133929788Y-94663224D01*
X134153900Y-94756054D01*
X134388211Y-94818838D01*
X134568586Y-94842584D01*
X134628711Y-94850500D01*
X134628712Y-94850500D01*
X134871289Y-94850500D01*
X134919388Y-94844167D01*
X135111789Y-94818838D01*
X135346100Y-94756054D01*
X135570212Y-94663224D01*
X135780289Y-94541936D01*
X135972738Y-94394265D01*
X136144265Y-94222738D01*
X136291936Y-94030289D01*
X136413224Y-93820212D01*
X136506054Y-93596100D01*
X136568838Y-93361789D01*
X136600500Y-93121288D01*
X136600500Y-92878712D01*
X136568838Y-92638211D01*
X136506054Y-92403900D01*
X136413224Y-92179788D01*
X136291936Y-91969711D01*
X136144265Y-91777262D01*
X136144260Y-91777256D01*
X135972743Y-91605739D01*
X135972736Y-91605733D01*
X135780293Y-91458067D01*
X135780292Y-91458066D01*
X135780289Y-91458064D01*
X135570212Y-91336776D01*
X135570205Y-91336773D01*
X135346104Y-91243947D01*
X135111785Y-91181161D01*
X134871289Y-91149500D01*
X134871288Y-91149500D01*
X134628712Y-91149500D01*
X134628711Y-91149500D01*
X134388214Y-91181161D01*
X134153895Y-91243947D01*
X133929794Y-91336773D01*
X133929785Y-91336777D01*
X133719706Y-91458067D01*
X133527263Y-91605733D01*
X133527256Y-91605739D01*
X133355739Y-91777256D01*
X133355733Y-91777263D01*
X133208067Y-91969706D01*
X133086777Y-92179785D01*
X133086773Y-92179794D01*
X132993947Y-92403895D01*
X132931161Y-92638214D01*
X132899500Y-92878711D01*
X122612211Y-92878711D01*
X121984035Y-92250535D01*
X121984030Y-92250531D01*
X121929622Y-92214178D01*
X121929616Y-92214175D01*
X121924959Y-92211063D01*
X121836547Y-92151987D01*
X121754606Y-92118046D01*
X121672666Y-92084105D01*
X121672658Y-92084103D01*
X121498696Y-92049500D01*
X121498692Y-92049500D01*
X121498691Y-92049500D01*
X111498692Y-92049500D01*
X111498691Y-92049500D01*
X101498692Y-92049500D01*
X101498691Y-92049500D01*
X91038692Y-92049500D01*
X91038691Y-92049500D01*
X80498692Y-92049500D01*
X80498691Y-92049500D01*
X71938691Y-92049500D01*
X69938692Y-92049500D01*
X69938691Y-92049500D01*
X63598692Y-92049500D01*
X63421308Y-92049500D01*
X63421303Y-92049500D01*
X63247339Y-92084103D01*
X63247323Y-92084108D01*
X63131453Y-92132102D01*
X63131454Y-92132103D01*
X63083453Y-92151987D01*
X63009708Y-92201262D01*
X62935963Y-92250535D01*
X61328317Y-93858181D01*
X61266994Y-93891666D01*
X61240636Y-93894500D01*
X60807129Y-93894500D01*
X60807123Y-93894501D01*
X60747516Y-93900908D01*
X60612671Y-93951202D01*
X60612664Y-93951206D01*
X60497455Y-94037452D01*
X60497452Y-94037455D01*
X60411206Y-94152664D01*
X60411202Y-94152671D01*
X60360908Y-94287517D01*
X60354501Y-94347116D01*
X60354501Y-94347123D01*
X60354500Y-94347135D01*
X60354500Y-95652870D01*
X60354501Y-95652876D01*
X60360908Y-95712483D01*
X60411202Y-95847328D01*
X60411206Y-95847335D01*
X60497452Y-95962544D01*
X60497455Y-95962547D01*
X60612664Y-96048793D01*
X60612671Y-96048797D01*
X60747517Y-96099091D01*
X60747516Y-96099091D01*
X60754444Y-96099835D01*
X60807127Y-96105500D01*
X62112872Y-96105499D01*
X62172483Y-96099091D01*
X62307331Y-96048796D01*
X62422546Y-95962546D01*
X62508796Y-95847331D01*
X62559091Y-95712483D01*
X62565500Y-95652873D01*
X62565499Y-95219360D01*
X62574145Y-95189914D01*
X62580667Y-95159934D01*
X62584419Y-95154920D01*
X62585183Y-95152322D01*
X62601813Y-95131685D01*
X62688508Y-95044990D01*
X62749829Y-95011507D01*
X62819521Y-95016491D01*
X62875454Y-95058363D01*
X62898660Y-95113275D01*
X62921720Y-95258872D01*
X62975494Y-95424369D01*
X63054494Y-95579411D01*
X63156766Y-95720178D01*
X63156770Y-95720183D01*
X63279816Y-95843229D01*
X63279821Y-95843233D01*
X63383848Y-95918812D01*
X63420592Y-95945508D01*
X63519381Y-95995844D01*
X63575630Y-96024505D01*
X63575632Y-96024505D01*
X63575635Y-96024507D01*
X63650380Y-96048793D01*
X63741127Y-96078279D01*
X63912990Y-96105500D01*
X63912995Y-96105500D01*
X64087010Y-96105500D01*
X64258872Y-96078279D01*
X64260377Y-96077790D01*
X64424365Y-96024507D01*
X64579408Y-95945508D01*
X64587169Y-95939869D01*
X65953683Y-95939869D01*
X65960854Y-95945081D01*
X66115826Y-96024044D01*
X66115829Y-96024045D01*
X66281243Y-96077790D01*
X66453036Y-96105000D01*
X66626964Y-96105000D01*
X66798756Y-96077790D01*
X66964170Y-96024045D01*
X66964173Y-96024044D01*
X67119145Y-95945080D01*
X67126316Y-95939869D01*
X66540001Y-95353554D01*
X66540000Y-95353554D01*
X65953683Y-95939869D01*
X64587169Y-95939869D01*
X64720185Y-95843228D01*
X64843228Y-95720185D01*
X64945508Y-95579408D01*
X65024507Y-95424365D01*
X65078279Y-95258872D01*
X65087188Y-95202625D01*
X65105500Y-95087010D01*
X65105500Y-94913035D01*
X65435000Y-94913035D01*
X65435000Y-95086964D01*
X65462209Y-95258756D01*
X65515954Y-95424170D01*
X65515955Y-95424173D01*
X65594919Y-95579146D01*
X65600129Y-95586316D01*
X66186446Y-95000000D01*
X66186446Y-94999999D01*
X66143002Y-94956555D01*
X66210000Y-94956555D01*
X66210000Y-95043445D01*
X66232489Y-95127375D01*
X66275934Y-95202625D01*
X66337375Y-95264066D01*
X66412625Y-95307511D01*
X66496555Y-95330000D01*
X66583445Y-95330000D01*
X66667375Y-95307511D01*
X66742625Y-95264066D01*
X66804066Y-95202625D01*
X66847511Y-95127375D01*
X66870000Y-95043445D01*
X66870000Y-94999999D01*
X66893554Y-94999999D01*
X66893554Y-95000001D01*
X67479869Y-95586316D01*
X67485080Y-95579145D01*
X67564044Y-95424173D01*
X67564045Y-95424170D01*
X67617790Y-95258756D01*
X67645000Y-95086964D01*
X67645000Y-94913035D01*
X67617790Y-94741243D01*
X67564045Y-94575829D01*
X67564044Y-94575826D01*
X67485081Y-94420854D01*
X67479869Y-94413683D01*
X66893554Y-94999999D01*
X66870000Y-94999999D01*
X66870000Y-94956555D01*
X66847511Y-94872625D01*
X66804066Y-94797375D01*
X66742625Y-94735934D01*
X66667375Y-94692489D01*
X66583445Y-94670000D01*
X66496555Y-94670000D01*
X66412625Y-94692489D01*
X66337375Y-94735934D01*
X66275934Y-94797375D01*
X66232489Y-94872625D01*
X66210000Y-94956555D01*
X66143002Y-94956555D01*
X65600129Y-94413682D01*
X65594918Y-94420854D01*
X65515955Y-94575826D01*
X65515954Y-94575829D01*
X65462209Y-94741243D01*
X65435000Y-94913035D01*
X65105500Y-94913035D01*
X65105500Y-94912989D01*
X65078279Y-94741127D01*
X65024505Y-94575630D01*
X64945641Y-94420854D01*
X64945508Y-94420592D01*
X64892139Y-94347135D01*
X64843233Y-94279821D01*
X64843229Y-94279816D01*
X64720183Y-94156770D01*
X64720178Y-94156766D01*
X64607386Y-94074818D01*
X64564720Y-94019488D01*
X64558741Y-93949875D01*
X64591347Y-93888080D01*
X64652185Y-93853723D01*
X64680271Y-93850500D01*
X65860579Y-93850500D01*
X65927618Y-93870185D01*
X65973373Y-93922989D01*
X65983317Y-93992147D01*
X65954292Y-94055703D01*
X65954011Y-94055960D01*
X65953682Y-94060129D01*
X66540000Y-94646446D01*
X66540001Y-94646446D01*
X67126316Y-94060129D01*
X67125306Y-94047292D01*
X67103862Y-94019479D01*
X67097889Y-93949865D01*
X67130500Y-93888073D01*
X67191341Y-93853720D01*
X67219417Y-93850500D01*
X69425638Y-93850500D01*
X69492677Y-93870185D01*
X69513319Y-93886819D01*
X70778181Y-95151681D01*
X70811666Y-95213004D01*
X70814500Y-95239362D01*
X70814500Y-95652870D01*
X70814501Y-95652876D01*
X70820908Y-95712483D01*
X70871202Y-95847328D01*
X70871206Y-95847335D01*
X70957452Y-95962544D01*
X70957455Y-95962547D01*
X71072664Y-96048793D01*
X71072671Y-96048797D01*
X71207517Y-96099091D01*
X71207516Y-96099091D01*
X71214444Y-96099835D01*
X71267127Y-96105500D01*
X72572872Y-96105499D01*
X72632483Y-96099091D01*
X72767331Y-96048796D01*
X72882546Y-95962546D01*
X72968796Y-95847331D01*
X73019091Y-95712483D01*
X73025500Y-95652873D01*
X73025499Y-94347128D01*
X73019091Y-94287517D01*
X73016218Y-94279815D01*
X72968797Y-94152671D01*
X72968795Y-94152668D01*
X72968792Y-94152664D01*
X72891047Y-94048810D01*
X72866630Y-93983347D01*
X72881481Y-93915074D01*
X72930886Y-93865668D01*
X72990314Y-93850500D01*
X73779729Y-93850500D01*
X73846768Y-93870185D01*
X73892523Y-93922989D01*
X73902467Y-93992147D01*
X73873442Y-94055703D01*
X73852614Y-94074818D01*
X73739821Y-94156766D01*
X73739816Y-94156770D01*
X73616770Y-94279816D01*
X73616766Y-94279821D01*
X73514494Y-94420588D01*
X73435494Y-94575630D01*
X73381720Y-94741127D01*
X73354500Y-94912989D01*
X73354500Y-95087010D01*
X73381720Y-95258872D01*
X73435494Y-95424369D01*
X73514494Y-95579411D01*
X73616766Y-95720178D01*
X73616770Y-95720183D01*
X73739816Y-95843229D01*
X73739821Y-95843233D01*
X73843848Y-95918812D01*
X73880592Y-95945508D01*
X73979381Y-95995844D01*
X74035630Y-96024505D01*
X74035632Y-96024505D01*
X74035635Y-96024507D01*
X74110380Y-96048793D01*
X74201127Y-96078279D01*
X74372990Y-96105500D01*
X74372995Y-96105500D01*
X74547010Y-96105500D01*
X74718872Y-96078279D01*
X74720377Y-96077790D01*
X74884365Y-96024507D01*
X75039408Y-95945508D01*
X75047169Y-95939869D01*
X76413683Y-95939869D01*
X76420854Y-95945081D01*
X76575826Y-96024044D01*
X76575829Y-96024045D01*
X76741243Y-96077790D01*
X76913036Y-96105000D01*
X77086964Y-96105000D01*
X77258756Y-96077790D01*
X77424170Y-96024045D01*
X77424173Y-96024044D01*
X77579145Y-95945080D01*
X77586316Y-95939869D01*
X77000001Y-95353554D01*
X77000000Y-95353554D01*
X76413683Y-95939869D01*
X75047169Y-95939869D01*
X75180185Y-95843228D01*
X75303228Y-95720185D01*
X75405508Y-95579408D01*
X75484507Y-95424365D01*
X75538279Y-95258872D01*
X75547188Y-95202625D01*
X75565500Y-95087010D01*
X75565500Y-94913035D01*
X75895000Y-94913035D01*
X75895000Y-95086964D01*
X75922209Y-95258756D01*
X75975954Y-95424170D01*
X75975955Y-95424173D01*
X76054919Y-95579146D01*
X76060129Y-95586316D01*
X76646446Y-95000000D01*
X76646446Y-94999999D01*
X76603002Y-94956555D01*
X76670000Y-94956555D01*
X76670000Y-95043445D01*
X76692489Y-95127375D01*
X76735934Y-95202625D01*
X76797375Y-95264066D01*
X76872625Y-95307511D01*
X76956555Y-95330000D01*
X77043445Y-95330000D01*
X77127375Y-95307511D01*
X77202625Y-95264066D01*
X77264066Y-95202625D01*
X77307511Y-95127375D01*
X77330000Y-95043445D01*
X77330000Y-94999999D01*
X77353554Y-94999999D01*
X77353554Y-95000001D01*
X77939869Y-95586316D01*
X77945080Y-95579145D01*
X78024044Y-95424173D01*
X78024045Y-95424170D01*
X78077790Y-95258756D01*
X78105000Y-95086964D01*
X78105000Y-94913035D01*
X78077790Y-94741243D01*
X78024045Y-94575829D01*
X78024044Y-94575826D01*
X77945081Y-94420854D01*
X77939869Y-94413683D01*
X77353554Y-94999999D01*
X77330000Y-94999999D01*
X77330000Y-94956555D01*
X77307511Y-94872625D01*
X77264066Y-94797375D01*
X77202625Y-94735934D01*
X77127375Y-94692489D01*
X77043445Y-94670000D01*
X76956555Y-94670000D01*
X76872625Y-94692489D01*
X76797375Y-94735934D01*
X76735934Y-94797375D01*
X76692489Y-94872625D01*
X76670000Y-94956555D01*
X76603002Y-94956555D01*
X76060129Y-94413682D01*
X76054918Y-94420854D01*
X75975955Y-94575826D01*
X75975954Y-94575829D01*
X75922209Y-94741243D01*
X75895000Y-94913035D01*
X75565500Y-94913035D01*
X75565500Y-94912989D01*
X75538279Y-94741127D01*
X75484505Y-94575630D01*
X75405641Y-94420854D01*
X75405508Y-94420592D01*
X75352139Y-94347135D01*
X75303233Y-94279821D01*
X75303229Y-94279816D01*
X75180183Y-94156770D01*
X75180178Y-94156766D01*
X75067386Y-94074818D01*
X75024720Y-94019488D01*
X75018741Y-93949875D01*
X75051347Y-93888080D01*
X75112185Y-93853723D01*
X75140271Y-93850500D01*
X76320579Y-93850500D01*
X76387618Y-93870185D01*
X76433373Y-93922989D01*
X76443317Y-93992147D01*
X76414292Y-94055703D01*
X76414011Y-94055960D01*
X76413682Y-94060129D01*
X77000000Y-94646446D01*
X77000001Y-94646446D01*
X77586316Y-94060129D01*
X77585306Y-94047292D01*
X77563862Y-94019479D01*
X77557889Y-93949865D01*
X77590500Y-93888073D01*
X77651341Y-93853720D01*
X77679417Y-93850500D01*
X79985638Y-93850500D01*
X80052677Y-93870185D01*
X80073319Y-93886819D01*
X81318181Y-95131681D01*
X81351666Y-95193004D01*
X81354500Y-95219362D01*
X81354500Y-95611603D01*
X81348494Y-95632054D01*
X81347266Y-95653336D01*
X81338847Y-95664910D01*
X81334815Y-95678642D01*
X81318706Y-95692599D01*
X81306167Y-95709840D01*
X81288035Y-95719176D01*
X81282011Y-95724397D01*
X81275426Y-95727178D01*
X81268523Y-95729860D01*
X81266502Y-95730263D01*
X81252703Y-95735979D01*
X81251493Y-95736479D01*
X81251442Y-95736500D01*
X81120827Y-95790602D01*
X81120814Y-95790609D01*
X80989712Y-95878209D01*
X80989711Y-95878211D01*
X80989710Y-95878212D01*
X77489711Y-99378211D01*
X77433960Y-99433962D01*
X77378209Y-99489712D01*
X77290609Y-99620814D01*
X77290602Y-99620827D01*
X77230264Y-99766498D01*
X77230261Y-99766510D01*
X77199500Y-99921153D01*
X77199500Y-100075500D01*
X77179815Y-100142539D01*
X77127011Y-100188294D01*
X77075500Y-100199500D01*
X76921155Y-100199500D01*
X76766510Y-100230261D01*
X76766498Y-100230264D01*
X76620827Y-100290602D01*
X76620814Y-100290609D01*
X76489711Y-100378210D01*
X76489707Y-100378213D01*
X76378213Y-100489707D01*
X76378210Y-100489711D01*
X76290609Y-100620814D01*
X76290602Y-100620827D01*
X76230264Y-100766498D01*
X76230261Y-100766510D01*
X76199500Y-100921153D01*
X76199500Y-101075500D01*
X76179815Y-101142539D01*
X76127011Y-101188294D01*
X76075500Y-101199500D01*
X71241519Y-101199500D01*
X71174480Y-101179815D01*
X71153838Y-101163181D01*
X70796071Y-100805414D01*
X70769191Y-100765185D01*
X70709397Y-100620827D01*
X70709390Y-100620814D01*
X70621789Y-100489711D01*
X70621786Y-100489707D01*
X70510292Y-100378213D01*
X70510288Y-100378210D01*
X70379185Y-100290609D01*
X70379172Y-100290602D01*
X70233501Y-100230264D01*
X70233489Y-100230261D01*
X70078845Y-100199500D01*
X70078842Y-100199500D01*
X69921158Y-100199500D01*
X69921155Y-100199500D01*
X69766510Y-100230261D01*
X69766498Y-100230264D01*
X69620827Y-100290602D01*
X69620814Y-100290609D01*
X69489711Y-100378210D01*
X69489707Y-100378213D01*
X69378213Y-100489707D01*
X69378210Y-100489711D01*
X69290609Y-100620814D01*
X69290602Y-100620827D01*
X69230264Y-100766498D01*
X69230261Y-100766510D01*
X69199500Y-100921153D01*
X69199500Y-101078846D01*
X69230261Y-101233489D01*
X69230264Y-101233501D01*
X69290602Y-101379172D01*
X69290609Y-101379185D01*
X69378210Y-101510288D01*
X69378213Y-101510292D01*
X69489707Y-101621786D01*
X69489711Y-101621789D01*
X69620814Y-101709390D01*
X69620827Y-101709397D01*
X69765185Y-101769191D01*
X69805414Y-101796071D01*
X69997162Y-101987819D01*
X70030647Y-102049142D01*
X70025663Y-102118834D01*
X69983791Y-102174767D01*
X69918327Y-102199184D01*
X69909481Y-102199500D01*
X69382940Y-102199500D01*
X69315901Y-102179815D01*
X69295259Y-102163181D01*
X67510292Y-100378213D01*
X67510288Y-100378210D01*
X67379185Y-100290609D01*
X67379172Y-100290602D01*
X67233501Y-100230264D01*
X67233489Y-100230261D01*
X67078845Y-100199500D01*
X67078842Y-100199500D01*
X66921158Y-100199500D01*
X66921155Y-100199500D01*
X66766510Y-100230261D01*
X66766498Y-100230264D01*
X66620827Y-100290602D01*
X66620814Y-100290609D01*
X66489711Y-100378210D01*
X66489707Y-100378213D01*
X66378213Y-100489707D01*
X66378210Y-100489711D01*
X66290609Y-100620814D01*
X66290602Y-100620827D01*
X66230264Y-100766498D01*
X66230261Y-100766510D01*
X66199500Y-100921153D01*
X66199500Y-101078846D01*
X66230261Y-101233489D01*
X66230264Y-101233501D01*
X66290602Y-101379172D01*
X66290609Y-101379185D01*
X66378210Y-101510288D01*
X66378213Y-101510292D01*
X67855741Y-102987819D01*
X67889226Y-103049142D01*
X67884242Y-103118834D01*
X67842370Y-103174767D01*
X67776906Y-103199184D01*
X67768060Y-103199500D01*
X66382940Y-103199500D01*
X66315901Y-103179815D01*
X66295259Y-103163181D01*
X63510292Y-100378213D01*
X63510288Y-100378210D01*
X63379185Y-100290609D01*
X63379172Y-100290602D01*
X63233501Y-100230264D01*
X63233489Y-100230261D01*
X63078845Y-100199500D01*
X63078842Y-100199500D01*
X62921158Y-100199500D01*
X62921155Y-100199500D01*
X62766510Y-100230261D01*
X62766498Y-100230264D01*
X62620827Y-100290602D01*
X62620814Y-100290609D01*
X62489711Y-100378210D01*
X62489707Y-100378213D01*
X62378213Y-100489707D01*
X62378210Y-100489711D01*
X62290609Y-100620814D01*
X62290602Y-100620827D01*
X62230264Y-100766498D01*
X62230261Y-100766510D01*
X62199500Y-100921153D01*
X62199500Y-101078846D01*
X62230261Y-101233489D01*
X62230264Y-101233501D01*
X62290602Y-101379172D01*
X62290609Y-101379185D01*
X62378210Y-101510288D01*
X62378213Y-101510292D01*
X65061529Y-104193607D01*
X65095014Y-104254930D01*
X65090030Y-104324622D01*
X65055116Y-104373501D01*
X65055518Y-104373903D01*
X65053106Y-104376314D01*
X65052521Y-104377134D01*
X65051214Y-104378206D01*
X64939713Y-104489707D01*
X64939710Y-104489711D01*
X64852109Y-104620814D01*
X64852102Y-104620827D01*
X64791764Y-104766498D01*
X64791761Y-104766510D01*
X64761000Y-104921153D01*
X64761000Y-105078846D01*
X64791761Y-105233489D01*
X64791764Y-105233501D01*
X64840061Y-105350100D01*
X64849500Y-105397552D01*
X64849500Y-106992730D01*
X64829815Y-107059769D01*
X64777011Y-107105524D01*
X64707853Y-107115468D01*
X64644297Y-107086443D01*
X64637819Y-107080411D01*
X60713295Y-103155887D01*
X60598557Y-103079222D01*
X60471082Y-103026421D01*
X60471072Y-103026418D01*
X60335746Y-102999500D01*
X60335744Y-102999500D01*
X60335743Y-102999500D01*
X56630727Y-102999500D01*
X56563688Y-102979815D01*
X56523340Y-102937501D01*
X56511514Y-102917018D01*
X56416948Y-102753226D01*
X56377867Y-102702294D01*
X56281248Y-102576377D01*
X56281242Y-102576370D01*
X56123629Y-102418757D01*
X56123622Y-102418751D01*
X55946782Y-102283058D01*
X55946780Y-102283057D01*
X55946774Y-102283052D01*
X55753726Y-102171595D01*
X55753722Y-102171593D01*
X55547790Y-102086293D01*
X55547783Y-102086291D01*
X55547781Y-102086290D01*
X55332463Y-102028596D01*
X55332457Y-102028595D01*
X55332452Y-102028594D01*
X55111466Y-101999501D01*
X55111463Y-101999500D01*
X55111457Y-101999500D01*
X54888543Y-101999500D01*
X54888537Y-101999500D01*
X54888533Y-101999501D01*
X54667547Y-102028594D01*
X54667540Y-102028595D01*
X54667537Y-102028596D01*
X54480001Y-102078846D01*
X54452219Y-102086290D01*
X54452209Y-102086293D01*
X54246277Y-102171593D01*
X54246273Y-102171595D01*
X54053226Y-102283052D01*
X54053217Y-102283058D01*
X53876377Y-102418751D01*
X53876370Y-102418757D01*
X53718757Y-102576370D01*
X53718751Y-102576377D01*
X53583058Y-102753217D01*
X53583052Y-102753226D01*
X53471595Y-102946273D01*
X53471593Y-102946277D01*
X53386293Y-103152209D01*
X53386290Y-103152219D01*
X53347246Y-103297936D01*
X53328597Y-103367534D01*
X53328594Y-103367547D01*
X53299501Y-103588533D01*
X53299500Y-103588549D01*
X53299500Y-103811450D01*
X53299501Y-103811466D01*
X53328594Y-104032452D01*
X53328595Y-104032457D01*
X53328596Y-104032463D01*
X53382463Y-104233497D01*
X53386290Y-104247780D01*
X53386293Y-104247790D01*
X53464592Y-104436819D01*
X53471595Y-104453726D01*
X53583052Y-104646774D01*
X53583057Y-104646780D01*
X53583058Y-104646782D01*
X53718751Y-104823622D01*
X53718757Y-104823629D01*
X53876370Y-104981242D01*
X53876377Y-104981248D01*
X53927938Y-105020812D01*
X54053226Y-105116948D01*
X54246274Y-105228405D01*
X54452219Y-105313710D01*
X54667537Y-105371404D01*
X54888543Y-105400500D01*
X54888550Y-105400500D01*
X55111450Y-105400500D01*
X55111457Y-105400500D01*
X55332463Y-105371404D01*
X55547781Y-105313710D01*
X55753726Y-105228405D01*
X55946774Y-105116948D01*
X56123624Y-104981247D01*
X56281247Y-104823624D01*
X56416948Y-104646774D01*
X56523340Y-104462499D01*
X56573908Y-104414284D01*
X56630727Y-104400500D01*
X59925231Y-104400500D01*
X59992270Y-104420185D01*
X60012912Y-104436819D01*
X63765928Y-108189835D01*
X63792808Y-108230064D01*
X63852602Y-108374422D01*
X63852609Y-108374435D01*
X63940210Y-108505538D01*
X63940213Y-108505542D01*
X64051707Y-108617036D01*
X64051711Y-108617039D01*
X64182814Y-108704640D01*
X64182827Y-108704647D01*
X64317161Y-108760289D01*
X64328503Y-108764987D01*
X64422690Y-108783722D01*
X64483153Y-108795749D01*
X64483156Y-108795750D01*
X64483158Y-108795750D01*
X64640843Y-108795750D01*
X64654488Y-108793035D01*
X64701309Y-108783722D01*
X64770899Y-108789949D01*
X64826077Y-108832811D01*
X64849322Y-108898700D01*
X64849500Y-108905339D01*
X64849500Y-110491810D01*
X64829815Y-110558849D01*
X64777011Y-110604604D01*
X64707853Y-110614548D01*
X64644297Y-110585523D01*
X64622398Y-110560701D01*
X64571789Y-110484961D01*
X64571786Y-110484957D01*
X64460292Y-110373463D01*
X64460288Y-110373460D01*
X64329185Y-110285859D01*
X64329172Y-110285852D01*
X64184814Y-110226058D01*
X64144585Y-110199178D01*
X61301296Y-107355888D01*
X61301295Y-107355887D01*
X61186557Y-107279222D01*
X61059082Y-107226421D01*
X61059072Y-107226418D01*
X60923746Y-107199500D01*
X60923744Y-107199500D01*
X60923743Y-107199500D01*
X56630727Y-107199500D01*
X56563688Y-107179815D01*
X56523340Y-107137501D01*
X56478461Y-107059769D01*
X56416948Y-106953226D01*
X56281247Y-106776376D01*
X56281242Y-106776370D01*
X56123629Y-106618757D01*
X56123622Y-106618751D01*
X55946782Y-106483058D01*
X55946780Y-106483057D01*
X55946774Y-106483052D01*
X55753726Y-106371595D01*
X55753722Y-106371593D01*
X55547790Y-106286293D01*
X55547783Y-106286291D01*
X55547781Y-106286290D01*
X55332463Y-106228596D01*
X55332457Y-106228595D01*
X55332452Y-106228594D01*
X55111466Y-106199501D01*
X55111463Y-106199500D01*
X55111457Y-106199500D01*
X54888543Y-106199500D01*
X54888537Y-106199500D01*
X54888533Y-106199501D01*
X54667547Y-106228594D01*
X54667540Y-106228595D01*
X54667537Y-106228596D01*
X54545454Y-106261308D01*
X54452219Y-106286290D01*
X54452209Y-106286293D01*
X54246277Y-106371593D01*
X54246273Y-106371595D01*
X54053226Y-106483052D01*
X54053217Y-106483058D01*
X53876377Y-106618751D01*
X53876370Y-106618757D01*
X53718757Y-106776370D01*
X53718751Y-106776377D01*
X53583058Y-106953217D01*
X53583052Y-106953226D01*
X53471595Y-107146273D01*
X53471593Y-107146277D01*
X53386293Y-107352209D01*
X53386290Y-107352219D01*
X53328597Y-107567534D01*
X53328594Y-107567547D01*
X53299501Y-107788533D01*
X53299500Y-107788549D01*
X53299500Y-108011450D01*
X53299501Y-108011466D01*
X53328594Y-108232452D01*
X53328595Y-108232457D01*
X53328596Y-108232463D01*
X53366637Y-108374435D01*
X53386290Y-108447780D01*
X53386293Y-108447790D01*
X53461424Y-108629172D01*
X53471595Y-108653726D01*
X53583052Y-108846774D01*
X53583057Y-108846780D01*
X53583058Y-108846782D01*
X53718751Y-109023622D01*
X53718757Y-109023629D01*
X53876370Y-109181242D01*
X53876377Y-109181248D01*
X53954299Y-109241039D01*
X54053226Y-109316948D01*
X54246274Y-109428405D01*
X54452219Y-109513710D01*
X54667537Y-109571404D01*
X54888543Y-109600500D01*
X54888550Y-109600500D01*
X55111450Y-109600500D01*
X55111457Y-109600500D01*
X55332463Y-109571404D01*
X55547781Y-109513710D01*
X55753726Y-109428405D01*
X55946774Y-109316948D01*
X56123624Y-109181247D01*
X56281247Y-109023624D01*
X56416948Y-108846774D01*
X56523340Y-108662499D01*
X56573908Y-108614284D01*
X56630727Y-108600500D01*
X60513231Y-108600500D01*
X60580270Y-108620185D01*
X60600912Y-108636819D01*
X63153928Y-111189835D01*
X63180808Y-111230064D01*
X63240602Y-111374422D01*
X63240609Y-111374435D01*
X63328210Y-111505538D01*
X63328213Y-111505542D01*
X63439707Y-111617036D01*
X63439711Y-111617039D01*
X63570814Y-111704640D01*
X63570827Y-111704647D01*
X63716498Y-111764985D01*
X63716503Y-111764987D01*
X63871153Y-111795749D01*
X63871156Y-111795750D01*
X63871158Y-111795750D01*
X64028844Y-111795750D01*
X64028845Y-111795749D01*
X64183497Y-111764987D01*
X64327685Y-111705263D01*
X64329172Y-111704647D01*
X64329172Y-111704646D01*
X64329179Y-111704644D01*
X64460289Y-111617039D01*
X64571789Y-111505539D01*
X64622398Y-111429798D01*
X64676010Y-111384993D01*
X64745335Y-111376286D01*
X64808363Y-111406440D01*
X64845082Y-111465884D01*
X64849500Y-111498689D01*
X64849500Y-112358480D01*
X64829815Y-112425519D01*
X64813181Y-112446161D01*
X63805412Y-113453929D01*
X63765184Y-113480809D01*
X63620823Y-113540604D01*
X63620814Y-113540609D01*
X63489711Y-113628210D01*
X63489707Y-113628213D01*
X63378213Y-113739707D01*
X63378210Y-113739711D01*
X63290609Y-113870814D01*
X63290602Y-113870827D01*
X63230264Y-114016498D01*
X63230261Y-114016510D01*
X63199500Y-114171153D01*
X63199500Y-114328846D01*
X63230261Y-114483489D01*
X63230264Y-114483501D01*
X63290602Y-114629172D01*
X63290609Y-114629184D01*
X63342343Y-114706609D01*
X63345380Y-114716309D01*
X63352035Y-114723989D01*
X63355643Y-114749086D01*
X63363221Y-114773286D01*
X63360532Y-114783086D01*
X63361979Y-114793147D01*
X63351444Y-114816213D01*
X63344737Y-114840666D01*
X63337176Y-114847457D01*
X63332954Y-114856703D01*
X63311621Y-114870412D01*
X63292758Y-114887357D01*
X63281160Y-114889988D01*
X63274176Y-114894477D01*
X63239241Y-114899500D01*
X63041518Y-114899500D01*
X62974479Y-114879815D01*
X62953837Y-114863181D01*
X60371072Y-112280416D01*
X60344192Y-112240187D01*
X60284397Y-112095827D01*
X60284390Y-112095814D01*
X60196789Y-111964711D01*
X60196786Y-111964707D01*
X60085292Y-111853213D01*
X60085288Y-111853210D01*
X59954185Y-111765609D01*
X59954172Y-111765602D01*
X59808501Y-111705264D01*
X59808489Y-111705261D01*
X59653845Y-111674500D01*
X59653842Y-111674500D01*
X59496158Y-111674500D01*
X59496157Y-111674500D01*
X59490095Y-111675097D01*
X59489909Y-111673214D01*
X59429078Y-111667759D01*
X59373909Y-111624886D01*
X59350677Y-111558992D01*
X59350500Y-111552378D01*
X59350500Y-109831686D01*
X59350500Y-109831007D01*
X59350069Y-109828842D01*
X59323580Y-109695672D01*
X59290347Y-109615442D01*
X59288327Y-109608179D01*
X59288353Y-109606325D01*
X59286175Y-109599144D01*
X59269737Y-109516503D01*
X59239048Y-109442412D01*
X59209397Y-109370827D01*
X59209390Y-109370814D01*
X59121789Y-109239711D01*
X59121786Y-109239707D01*
X59010292Y-109128213D01*
X59010288Y-109128210D01*
X58879185Y-109040609D01*
X58879172Y-109040602D01*
X58733501Y-108980264D01*
X58733489Y-108980261D01*
X58578845Y-108949500D01*
X58578842Y-108949500D01*
X58421158Y-108949500D01*
X58421155Y-108949500D01*
X58266510Y-108980261D01*
X58266498Y-108980264D01*
X58120827Y-109040602D01*
X58120814Y-109040609D01*
X57989711Y-109128210D01*
X57989707Y-109128213D01*
X57878213Y-109239707D01*
X57878210Y-109239711D01*
X57790609Y-109370814D01*
X57790602Y-109370827D01*
X57730264Y-109516498D01*
X57730261Y-109516510D01*
X57699500Y-109671153D01*
X57699500Y-109828845D01*
X57730261Y-109983489D01*
X57730264Y-109983501D01*
X57790602Y-110129172D01*
X57790609Y-110129185D01*
X57878210Y-110260288D01*
X57878213Y-110260292D01*
X57913180Y-110295258D01*
X57946666Y-110356580D01*
X57949500Y-110382940D01*
X57949500Y-114572370D01*
X57949500Y-114710358D01*
X57949500Y-114710360D01*
X57949499Y-114710360D01*
X57976418Y-114845686D01*
X57976421Y-114845696D01*
X58029222Y-114973171D01*
X58105887Y-115087909D01*
X58105888Y-115087910D01*
X63470798Y-120452819D01*
X63504283Y-120514142D01*
X63499299Y-120583834D01*
X63457427Y-120639767D01*
X63391963Y-120664184D01*
X63383117Y-120664500D01*
X58989361Y-120664500D01*
X58922322Y-120644815D01*
X58901680Y-120628181D01*
X57474041Y-119200540D01*
X57474040Y-119200539D01*
X57419862Y-119164339D01*
X57414959Y-119161063D01*
X57326547Y-119101987D01*
X57235004Y-119064069D01*
X57229196Y-119061663D01*
X57229194Y-119061662D01*
X57162666Y-119034105D01*
X57162658Y-119034103D01*
X56988696Y-118999500D01*
X56988692Y-118999500D01*
X56988691Y-118999500D01*
X54524362Y-118999500D01*
X54457323Y-118979815D01*
X54436681Y-118963181D01*
X53036819Y-117563319D01*
X53003334Y-117501996D01*
X53000500Y-117475638D01*
X53000500Y-116188575D01*
X53300000Y-116188575D01*
X53300000Y-116411424D01*
X53329085Y-116632354D01*
X53329088Y-116632367D01*
X53386763Y-116847618D01*
X53472045Y-117053502D01*
X53472054Y-117053520D01*
X53583464Y-117246491D01*
X53583473Y-117246504D01*
X53634040Y-117312403D01*
X53634043Y-117312403D01*
X54435387Y-116511058D01*
X54440889Y-116531591D01*
X54519881Y-116668408D01*
X54631592Y-116780119D01*
X54768409Y-116859111D01*
X54788940Y-116864612D01*
X53987595Y-117665955D01*
X53987595Y-117665956D01*
X54053507Y-117716533D01*
X54246485Y-117827949D01*
X54246497Y-117827954D01*
X54452381Y-117913236D01*
X54667632Y-117970911D01*
X54667645Y-117970914D01*
X54888575Y-118000000D01*
X55111425Y-118000000D01*
X55332354Y-117970914D01*
X55332367Y-117970911D01*
X55547618Y-117913236D01*
X55753502Y-117827954D01*
X55753514Y-117827949D01*
X55946498Y-117716530D01*
X56012403Y-117665957D01*
X56012404Y-117665956D01*
X55211059Y-116864612D01*
X55231591Y-116859111D01*
X55368408Y-116780119D01*
X55480119Y-116668408D01*
X55559111Y-116531591D01*
X55564612Y-116511059D01*
X56365956Y-117312404D01*
X56365957Y-117312403D01*
X56416530Y-117246498D01*
X56527949Y-117053514D01*
X56527954Y-117053502D01*
X56613236Y-116847618D01*
X56670911Y-116632367D01*
X56670914Y-116632354D01*
X56700000Y-116411424D01*
X56700000Y-116188575D01*
X56670914Y-115967645D01*
X56670911Y-115967632D01*
X56613236Y-115752381D01*
X56527954Y-115546497D01*
X56527949Y-115546485D01*
X56416533Y-115353507D01*
X56365956Y-115287595D01*
X56365955Y-115287595D01*
X55564612Y-116088939D01*
X55559111Y-116068409D01*
X55480119Y-115931592D01*
X55368408Y-115819881D01*
X55231591Y-115740889D01*
X55211058Y-115735387D01*
X56012403Y-114934043D01*
X56012403Y-114934040D01*
X55946504Y-114883473D01*
X55946491Y-114883464D01*
X55753520Y-114772054D01*
X55753502Y-114772045D01*
X55547618Y-114686763D01*
X55332367Y-114629088D01*
X55332354Y-114629085D01*
X55111425Y-114600000D01*
X54888575Y-114600000D01*
X54667645Y-114629085D01*
X54667632Y-114629088D01*
X54452381Y-114686763D01*
X54246497Y-114772045D01*
X54246479Y-114772054D01*
X54053511Y-114883462D01*
X53987595Y-114934042D01*
X54788941Y-115735387D01*
X54768409Y-115740889D01*
X54631592Y-115819881D01*
X54519881Y-115931592D01*
X54440889Y-116068409D01*
X54435387Y-116088940D01*
X53634042Y-115287595D01*
X53583462Y-115353511D01*
X53472054Y-115546479D01*
X53472045Y-115546497D01*
X53386763Y-115752381D01*
X53329088Y-115967632D01*
X53329085Y-115967645D01*
X53300000Y-116188575D01*
X53000500Y-116188575D01*
X53000500Y-111988549D01*
X53299500Y-111988549D01*
X53299500Y-112211450D01*
X53299501Y-112211466D01*
X53328594Y-112432452D01*
X53328595Y-112432457D01*
X53328596Y-112432463D01*
X53347964Y-112504745D01*
X53386290Y-112647780D01*
X53386293Y-112647790D01*
X53470594Y-112851309D01*
X53471595Y-112853726D01*
X53583052Y-113046774D01*
X53583057Y-113046780D01*
X53583058Y-113046782D01*
X53718751Y-113223622D01*
X53718757Y-113223629D01*
X53876370Y-113381242D01*
X53876377Y-113381248D01*
X53987478Y-113466498D01*
X54053226Y-113516948D01*
X54246274Y-113628405D01*
X54452219Y-113713710D01*
X54667537Y-113771404D01*
X54888543Y-113800500D01*
X54888550Y-113800500D01*
X55111450Y-113800500D01*
X55111457Y-113800500D01*
X55332463Y-113771404D01*
X55547781Y-113713710D01*
X55753726Y-113628405D01*
X55946774Y-113516948D01*
X56123624Y-113381247D01*
X56281247Y-113223624D01*
X56416948Y-113046774D01*
X56528405Y-112853726D01*
X56613710Y-112647781D01*
X56671404Y-112432463D01*
X56700500Y-112211457D01*
X56700500Y-111988543D01*
X56671404Y-111767537D01*
X56613710Y-111552219D01*
X56593165Y-111502620D01*
X56569609Y-111445750D01*
X56528405Y-111346274D01*
X56416948Y-111153226D01*
X56281247Y-110976376D01*
X56281242Y-110976370D01*
X56123629Y-110818757D01*
X56123622Y-110818751D01*
X55946782Y-110683058D01*
X55946780Y-110683057D01*
X55946774Y-110683052D01*
X55753726Y-110571595D01*
X55753722Y-110571593D01*
X55547790Y-110486293D01*
X55547783Y-110486291D01*
X55547781Y-110486290D01*
X55332463Y-110428596D01*
X55332457Y-110428595D01*
X55332452Y-110428594D01*
X55111466Y-110399501D01*
X55111463Y-110399500D01*
X55111457Y-110399500D01*
X54888543Y-110399500D01*
X54888537Y-110399500D01*
X54888533Y-110399501D01*
X54667547Y-110428594D01*
X54667540Y-110428595D01*
X54667537Y-110428596D01*
X54457194Y-110484957D01*
X54452219Y-110486290D01*
X54452209Y-110486293D01*
X54246277Y-110571593D01*
X54246273Y-110571595D01*
X54053226Y-110683052D01*
X54053217Y-110683058D01*
X53876377Y-110818751D01*
X53876370Y-110818757D01*
X53718757Y-110976370D01*
X53718751Y-110976377D01*
X53583058Y-111153217D01*
X53583052Y-111153226D01*
X53471595Y-111346273D01*
X53471593Y-111346277D01*
X53386293Y-111552209D01*
X53386290Y-111552219D01*
X53329114Y-111765606D01*
X53328597Y-111767534D01*
X53328594Y-111767547D01*
X53299501Y-111988533D01*
X53299500Y-111988549D01*
X53000500Y-111988549D01*
X53000500Y-106261308D01*
X53000499Y-106261307D01*
X52992231Y-106219737D01*
X52965895Y-106087334D01*
X52911194Y-105955276D01*
X52898013Y-105923453D01*
X52898011Y-105923451D01*
X52898011Y-105923449D01*
X52799465Y-105775966D01*
X52763206Y-105739707D01*
X52674035Y-105650536D01*
X50319410Y-103295911D01*
X50287316Y-103240322D01*
X50284621Y-103230263D01*
X50263710Y-103152219D01*
X50178405Y-102946274D01*
X50066948Y-102753226D01*
X50027867Y-102702294D01*
X49931248Y-102576377D01*
X49931242Y-102576370D01*
X49773629Y-102418757D01*
X49773622Y-102418751D01*
X49596782Y-102283058D01*
X49596780Y-102283057D01*
X49596774Y-102283052D01*
X49403726Y-102171595D01*
X49403722Y-102171593D01*
X49197790Y-102086293D01*
X49197783Y-102086291D01*
X49197781Y-102086290D01*
X48982463Y-102028596D01*
X48982457Y-102028595D01*
X48982452Y-102028594D01*
X48761466Y-101999501D01*
X48761463Y-101999500D01*
X48761457Y-101999500D01*
X48538543Y-101999500D01*
X48538537Y-101999500D01*
X48538533Y-101999501D01*
X48317547Y-102028594D01*
X48317540Y-102028595D01*
X48317537Y-102028596D01*
X48130001Y-102078846D01*
X48102219Y-102086290D01*
X48102209Y-102086293D01*
X47896277Y-102171593D01*
X47896273Y-102171595D01*
X47703226Y-102283052D01*
X47703217Y-102283058D01*
X47526377Y-102418751D01*
X47526370Y-102418757D01*
X47368757Y-102576370D01*
X47368751Y-102576377D01*
X47233058Y-102753217D01*
X47233052Y-102753226D01*
X47121595Y-102946273D01*
X47121593Y-102946277D01*
X47036293Y-103152209D01*
X47036290Y-103152219D01*
X46997246Y-103297936D01*
X46978597Y-103367534D01*
X46978594Y-103367547D01*
X46949501Y-103588533D01*
X46949500Y-103588549D01*
X39500500Y-103588549D01*
X39500500Y-96661166D01*
X53034500Y-96661166D01*
X53034500Y-96918833D01*
X53060657Y-97117507D01*
X53068131Y-97174273D01*
X53074891Y-97199500D01*
X53134816Y-97423147D01*
X53233412Y-97661177D01*
X53233416Y-97661187D01*
X53362239Y-97884315D01*
X53519086Y-98088723D01*
X53519092Y-98088730D01*
X53701269Y-98270907D01*
X53701276Y-98270913D01*
X53905684Y-98427760D01*
X54128812Y-98556583D01*
X54128813Y-98556583D01*
X54128816Y-98556585D01*
X54286225Y-98621786D01*
X54366852Y-98655183D01*
X54366853Y-98655183D01*
X54366855Y-98655184D01*
X54615727Y-98721869D01*
X54871174Y-98755500D01*
X54871181Y-98755500D01*
X55128819Y-98755500D01*
X55128826Y-98755500D01*
X55384273Y-98721869D01*
X55633145Y-98655184D01*
X55871184Y-98556585D01*
X56094316Y-98427760D01*
X56298725Y-98270912D01*
X56480912Y-98088725D01*
X56637760Y-97884316D01*
X56766585Y-97661184D01*
X56865184Y-97423145D01*
X56931869Y-97174273D01*
X56965500Y-96918826D01*
X56965500Y-96661174D01*
X56931869Y-96405727D01*
X56865184Y-96156855D01*
X56766585Y-95918816D01*
X56743142Y-95878212D01*
X56637760Y-95695684D01*
X56480913Y-95491276D01*
X56480907Y-95491269D01*
X56298730Y-95309092D01*
X56298723Y-95309086D01*
X56094315Y-95152239D01*
X55871187Y-95023416D01*
X55871177Y-95023412D01*
X55633147Y-94924816D01*
X55508709Y-94891473D01*
X55384273Y-94858131D01*
X55326311Y-94850500D01*
X55128833Y-94824500D01*
X55128826Y-94824500D01*
X54871174Y-94824500D01*
X54871166Y-94824500D01*
X54644110Y-94854394D01*
X54615727Y-94858131D01*
X54561635Y-94872625D01*
X54366852Y-94924816D01*
X54128822Y-95023412D01*
X54128812Y-95023416D01*
X53905684Y-95152239D01*
X53701276Y-95309086D01*
X53701269Y-95309092D01*
X53519092Y-95491269D01*
X53519086Y-95491276D01*
X53362239Y-95695684D01*
X53233416Y-95918812D01*
X53233412Y-95918822D01*
X53134816Y-96156852D01*
X53068131Y-96405728D01*
X53034500Y-96661166D01*
X39500500Y-96661166D01*
X39500500Y-91504066D01*
X39500765Y-91495956D01*
X39503248Y-91458067D01*
X39517075Y-91247102D01*
X39519190Y-91231048D01*
X39567045Y-90990462D01*
X39571243Y-90974797D01*
X39594337Y-90906762D01*
X39650093Y-90742512D01*
X39656291Y-90727547D01*
X39764790Y-90507533D01*
X39772893Y-90493498D01*
X39909182Y-90289527D01*
X39919039Y-90276681D01*
X40080786Y-90092244D01*
X40092244Y-90080786D01*
X40276681Y-89919039D01*
X40289527Y-89909182D01*
X40493498Y-89772893D01*
X40507533Y-89764790D01*
X40727547Y-89656291D01*
X40742512Y-89650093D01*
X40906762Y-89594337D01*
X40974797Y-89571243D01*
X40990464Y-89567045D01*
X41231048Y-89519190D01*
X41247102Y-89517075D01*
X41495957Y-89500765D01*
X41504067Y-89500500D01*
X41565892Y-89500500D01*
X136434108Y-89500500D01*
X136495933Y-89500500D01*
X136504043Y-89500765D01*
G37*
%TD.AperFunction*%
%TD*%
M02*
