G04 #@! TF.GenerationSoftware,KiCad,Pcbnew,9.0.0*
G04 #@! TF.CreationDate,2025-04-17T12:04:21-07:00*
G04 #@! TF.ProjectId,BSPD,42535044-2e6b-4696-9361-645f70636258,rev?*
G04 #@! TF.SameCoordinates,Original*
G04 #@! TF.FileFunction,Legend,Bot*
G04 #@! TF.FilePolarity,Positive*
%FSLAX46Y46*%
G04 Gerber Fmt 4.6, Leading zero omitted, Abs format (unit mm)*
G04 Created by KiCad (PCBNEW 9.0.0) date 2025-04-17 12:04:21*
%MOMM*%
%LPD*%
G01*
G04 APERTURE LIST*
%ADD10C,0.200000*%
%ADD11C,3.430000*%
%ADD12C,2.400000*%
%ADD13C,1.400000*%
%ADD14C,3.200000*%
G04 APERTURE END LIST*
D10*
X136114229Y-120558395D02*
X136066609Y-120463157D01*
X136066609Y-120463157D02*
X136066609Y-120272681D01*
X136066609Y-120272681D02*
X136114229Y-120177443D01*
X136114229Y-120177443D02*
X136209467Y-120129824D01*
X136209467Y-120129824D02*
X136257086Y-120129824D01*
X136257086Y-120129824D02*
X136352324Y-120177443D01*
X136352324Y-120177443D02*
X136399943Y-120272681D01*
X136399943Y-120272681D02*
X136399943Y-120415538D01*
X136399943Y-120415538D02*
X136447562Y-120510776D01*
X136447562Y-120510776D02*
X136542800Y-120558395D01*
X136542800Y-120558395D02*
X136590419Y-120558395D01*
X136590419Y-120558395D02*
X136685657Y-120510776D01*
X136685657Y-120510776D02*
X136733276Y-120415538D01*
X136733276Y-120415538D02*
X136733276Y-120272681D01*
X136733276Y-120272681D02*
X136685657Y-120177443D01*
X136114229Y-119320300D02*
X136066609Y-119415538D01*
X136066609Y-119415538D02*
X136066609Y-119606014D01*
X136066609Y-119606014D02*
X136114229Y-119701252D01*
X136114229Y-119701252D02*
X136209467Y-119748871D01*
X136209467Y-119748871D02*
X136590419Y-119748871D01*
X136590419Y-119748871D02*
X136685657Y-119701252D01*
X136685657Y-119701252D02*
X136733276Y-119606014D01*
X136733276Y-119606014D02*
X136733276Y-119415538D01*
X136733276Y-119415538D02*
X136685657Y-119320300D01*
X136685657Y-119320300D02*
X136590419Y-119272681D01*
X136590419Y-119272681D02*
X136495181Y-119272681D01*
X136495181Y-119272681D02*
X136399943Y-119748871D01*
X136733276Y-118986966D02*
X136733276Y-118606014D01*
X137066609Y-118844109D02*
X136209467Y-118844109D01*
X136209467Y-118844109D02*
X136114229Y-118796490D01*
X136114229Y-118796490D02*
X136066609Y-118701252D01*
X136066609Y-118701252D02*
X136066609Y-118606014D01*
X136066609Y-117082204D02*
X136590419Y-117082204D01*
X136590419Y-117082204D02*
X136685657Y-117129823D01*
X136685657Y-117129823D02*
X136733276Y-117225061D01*
X136733276Y-117225061D02*
X136733276Y-117415537D01*
X136733276Y-117415537D02*
X136685657Y-117510775D01*
X136114229Y-117082204D02*
X136066609Y-117177442D01*
X136066609Y-117177442D02*
X136066609Y-117415537D01*
X136066609Y-117415537D02*
X136114229Y-117510775D01*
X136114229Y-117510775D02*
X136209467Y-117558394D01*
X136209467Y-117558394D02*
X136304705Y-117558394D01*
X136304705Y-117558394D02*
X136399943Y-117510775D01*
X136399943Y-117510775D02*
X136447562Y-117415537D01*
X136447562Y-117415537D02*
X136447562Y-117177442D01*
X136447562Y-117177442D02*
X136495181Y-117082204D01*
X136733276Y-116606013D02*
X136066609Y-116606013D01*
X136638038Y-116606013D02*
X136685657Y-116558394D01*
X136685657Y-116558394D02*
X136733276Y-116463156D01*
X136733276Y-116463156D02*
X136733276Y-116320299D01*
X136733276Y-116320299D02*
X136685657Y-116225061D01*
X136685657Y-116225061D02*
X136590419Y-116177442D01*
X136590419Y-116177442D02*
X136066609Y-116177442D01*
X136066609Y-115272680D02*
X137066609Y-115272680D01*
X136114229Y-115272680D02*
X136066609Y-115367918D01*
X136066609Y-115367918D02*
X136066609Y-115558394D01*
X136066609Y-115558394D02*
X136114229Y-115653632D01*
X136114229Y-115653632D02*
X136161848Y-115701251D01*
X136161848Y-115701251D02*
X136257086Y-115748870D01*
X136257086Y-115748870D02*
X136542800Y-115748870D01*
X136542800Y-115748870D02*
X136638038Y-115701251D01*
X136638038Y-115701251D02*
X136685657Y-115653632D01*
X136685657Y-115653632D02*
X136733276Y-115558394D01*
X136733276Y-115558394D02*
X136733276Y-115367918D01*
X136733276Y-115367918D02*
X136685657Y-115272680D01*
X136066609Y-114034584D02*
X136733276Y-114034584D01*
X136542800Y-114034584D02*
X136638038Y-113986965D01*
X136638038Y-113986965D02*
X136685657Y-113939346D01*
X136685657Y-113939346D02*
X136733276Y-113844108D01*
X136733276Y-113844108D02*
X136733276Y-113748870D01*
X136114229Y-113034584D02*
X136066609Y-113129822D01*
X136066609Y-113129822D02*
X136066609Y-113320298D01*
X136066609Y-113320298D02*
X136114229Y-113415536D01*
X136114229Y-113415536D02*
X136209467Y-113463155D01*
X136209467Y-113463155D02*
X136590419Y-113463155D01*
X136590419Y-113463155D02*
X136685657Y-113415536D01*
X136685657Y-113415536D02*
X136733276Y-113320298D01*
X136733276Y-113320298D02*
X136733276Y-113129822D01*
X136733276Y-113129822D02*
X136685657Y-113034584D01*
X136685657Y-113034584D02*
X136590419Y-112986965D01*
X136590419Y-112986965D02*
X136495181Y-112986965D01*
X136495181Y-112986965D02*
X136399943Y-113463155D01*
X136114229Y-112606012D02*
X136066609Y-112510774D01*
X136066609Y-112510774D02*
X136066609Y-112320298D01*
X136066609Y-112320298D02*
X136114229Y-112225060D01*
X136114229Y-112225060D02*
X136209467Y-112177441D01*
X136209467Y-112177441D02*
X136257086Y-112177441D01*
X136257086Y-112177441D02*
X136352324Y-112225060D01*
X136352324Y-112225060D02*
X136399943Y-112320298D01*
X136399943Y-112320298D02*
X136399943Y-112463155D01*
X136399943Y-112463155D02*
X136447562Y-112558393D01*
X136447562Y-112558393D02*
X136542800Y-112606012D01*
X136542800Y-112606012D02*
X136590419Y-112606012D01*
X136590419Y-112606012D02*
X136685657Y-112558393D01*
X136685657Y-112558393D02*
X136733276Y-112463155D01*
X136733276Y-112463155D02*
X136733276Y-112320298D01*
X136733276Y-112320298D02*
X136685657Y-112225060D01*
X136114229Y-111367917D02*
X136066609Y-111463155D01*
X136066609Y-111463155D02*
X136066609Y-111653631D01*
X136066609Y-111653631D02*
X136114229Y-111748869D01*
X136114229Y-111748869D02*
X136209467Y-111796488D01*
X136209467Y-111796488D02*
X136590419Y-111796488D01*
X136590419Y-111796488D02*
X136685657Y-111748869D01*
X136685657Y-111748869D02*
X136733276Y-111653631D01*
X136733276Y-111653631D02*
X136733276Y-111463155D01*
X136733276Y-111463155D02*
X136685657Y-111367917D01*
X136685657Y-111367917D02*
X136590419Y-111320298D01*
X136590419Y-111320298D02*
X136495181Y-111320298D01*
X136495181Y-111320298D02*
X136399943Y-111796488D01*
X136733276Y-111034583D02*
X136733276Y-110653631D01*
X137066609Y-110891726D02*
X136209467Y-110891726D01*
X136209467Y-110891726D02*
X136114229Y-110844107D01*
X136114229Y-110844107D02*
X136066609Y-110748869D01*
X136066609Y-110748869D02*
X136066609Y-110653631D01*
X136066609Y-109558392D02*
X136733276Y-109558392D01*
X136638038Y-109558392D02*
X136685657Y-109510773D01*
X136685657Y-109510773D02*
X136733276Y-109415535D01*
X136733276Y-109415535D02*
X136733276Y-109272678D01*
X136733276Y-109272678D02*
X136685657Y-109177440D01*
X136685657Y-109177440D02*
X136590419Y-109129821D01*
X136590419Y-109129821D02*
X136066609Y-109129821D01*
X136590419Y-109129821D02*
X136685657Y-109082202D01*
X136685657Y-109082202D02*
X136733276Y-108986964D01*
X136733276Y-108986964D02*
X136733276Y-108844107D01*
X136733276Y-108844107D02*
X136685657Y-108748868D01*
X136685657Y-108748868D02*
X136590419Y-108701249D01*
X136590419Y-108701249D02*
X136066609Y-108701249D01*
X136733276Y-108320297D02*
X136066609Y-108082202D01*
X136733276Y-107844107D02*
X136066609Y-108082202D01*
X136066609Y-108082202D02*
X135828514Y-108177440D01*
X135828514Y-108177440D02*
X135780895Y-108225059D01*
X135780895Y-108225059D02*
X135733276Y-108320297D01*
X136733276Y-106796487D02*
X136066609Y-106606011D01*
X136066609Y-106606011D02*
X136542800Y-106415535D01*
X136542800Y-106415535D02*
X136066609Y-106225059D01*
X136066609Y-106225059D02*
X136733276Y-106034583D01*
X136066609Y-105653630D02*
X136733276Y-105653630D01*
X137066609Y-105653630D02*
X137018990Y-105701249D01*
X137018990Y-105701249D02*
X136971371Y-105653630D01*
X136971371Y-105653630D02*
X137018990Y-105606011D01*
X137018990Y-105606011D02*
X137066609Y-105653630D01*
X137066609Y-105653630D02*
X136971371Y-105653630D01*
X136066609Y-105034583D02*
X136114229Y-105129821D01*
X136114229Y-105129821D02*
X136209467Y-105177440D01*
X136209467Y-105177440D02*
X137066609Y-105177440D01*
X136066609Y-104510773D02*
X136114229Y-104606011D01*
X136114229Y-104606011D02*
X136209467Y-104653630D01*
X136209467Y-104653630D02*
X137066609Y-104653630D01*
X136733276Y-103510772D02*
X136733276Y-103129820D01*
X137066609Y-103367915D02*
X136209467Y-103367915D01*
X136209467Y-103367915D02*
X136114229Y-103320296D01*
X136114229Y-103320296D02*
X136066609Y-103225058D01*
X136066609Y-103225058D02*
X136066609Y-103129820D01*
X136066609Y-102653629D02*
X136114229Y-102748867D01*
X136114229Y-102748867D02*
X136161848Y-102796486D01*
X136161848Y-102796486D02*
X136257086Y-102844105D01*
X136257086Y-102844105D02*
X136542800Y-102844105D01*
X136542800Y-102844105D02*
X136638038Y-102796486D01*
X136638038Y-102796486D02*
X136685657Y-102748867D01*
X136685657Y-102748867D02*
X136733276Y-102653629D01*
X136733276Y-102653629D02*
X136733276Y-102510772D01*
X136733276Y-102510772D02*
X136685657Y-102415534D01*
X136685657Y-102415534D02*
X136638038Y-102367915D01*
X136638038Y-102367915D02*
X136542800Y-102320296D01*
X136542800Y-102320296D02*
X136257086Y-102320296D01*
X136257086Y-102320296D02*
X136161848Y-102367915D01*
X136161848Y-102367915D02*
X136114229Y-102415534D01*
X136114229Y-102415534D02*
X136066609Y-102510772D01*
X136066609Y-102510772D02*
X136066609Y-102653629D01*
X136066609Y-100986962D02*
X136114229Y-101082200D01*
X136114229Y-101082200D02*
X136209467Y-101129819D01*
X136209467Y-101129819D02*
X137066609Y-101129819D01*
X136066609Y-100606009D02*
X136733276Y-100606009D01*
X137066609Y-100606009D02*
X137018990Y-100653628D01*
X137018990Y-100653628D02*
X136971371Y-100606009D01*
X136971371Y-100606009D02*
X137018990Y-100558390D01*
X137018990Y-100558390D02*
X137066609Y-100606009D01*
X137066609Y-100606009D02*
X136971371Y-100606009D01*
X136733276Y-100225057D02*
X136066609Y-99986962D01*
X136066609Y-99986962D02*
X136733276Y-99748867D01*
X136114229Y-98986962D02*
X136066609Y-99082200D01*
X136066609Y-99082200D02*
X136066609Y-99272676D01*
X136066609Y-99272676D02*
X136114229Y-99367914D01*
X136114229Y-99367914D02*
X136209467Y-99415533D01*
X136209467Y-99415533D02*
X136590419Y-99415533D01*
X136590419Y-99415533D02*
X136685657Y-99367914D01*
X136685657Y-99367914D02*
X136733276Y-99272676D01*
X136733276Y-99272676D02*
X136733276Y-99082200D01*
X136733276Y-99082200D02*
X136685657Y-98986962D01*
X136685657Y-98986962D02*
X136590419Y-98939343D01*
X136590419Y-98939343D02*
X136495181Y-98939343D01*
X136495181Y-98939343D02*
X136399943Y-99415533D01*
%LPC*%
D11*
X55000000Y-123210000D03*
X42650000Y-110000000D03*
X55000000Y-96790000D03*
D12*
X55000000Y-116300000D03*
X55000000Y-112100000D03*
X55000000Y-107900000D03*
X55000000Y-103700000D03*
X48650000Y-103700000D03*
X48650000Y-107900000D03*
X48650000Y-112100000D03*
X48650000Y-116300000D03*
D13*
X113730000Y-92500000D03*
X116230000Y-95000000D03*
X113730000Y-97500000D03*
X103730000Y-92500000D03*
X106230000Y-95000000D03*
X103730000Y-97500000D03*
D14*
X135000000Y-128000000D03*
D13*
X72000000Y-92500000D03*
X74500000Y-95000000D03*
X72000000Y-97500000D03*
D14*
X134750000Y-93000000D03*
D13*
X93230000Y-92500000D03*
X95730000Y-95000000D03*
X93230000Y-97500000D03*
X61500000Y-92500000D03*
X64000000Y-95000000D03*
X61500000Y-97500000D03*
X123230000Y-92500000D03*
X125730000Y-95000000D03*
X123230000Y-97500000D03*
X82230000Y-92500000D03*
X84730000Y-95000000D03*
X82230000Y-97500000D03*
%LPD*%
M02*
