<?xml version="1.0" standalone="no"?>
<!DOCTYPE svg PUBLIC "-//W3C//DTD SVG 20010904//EN"
 "http://www.w3.org/TR/2001/REC-SVG-20010904/DTD/svg10.dtd">
<svg version="1.0" xmlns="http://www.w3.org/2000/svg"
 width="50.000000pt" height="50.000000pt" viewBox="0 0 50.000000 50.000000"
 preserveAspectRatio="xMidYMid meet">
<metadata>
Created by potrace 1.10, written by Peter Selinger 2001-2011
</metadata>
<g transform="translate(0.000000,50.000000) scale(0.100000,-0.100000)"
fill="#ffffff" stroke="none">
<path d="M265 483 c-16 -3 -32 -8 -35 -12 -10 -14 -147 -121 -155 -121 -13 0
34 46 77 76 21 15 36 29 34 31 -8 9 -76 12 -71 3 3 -4 -2 -13 -9 -19 -9 -8
-17 -8 -20 -2 -3 5 -3 11 1 14 5 2 3 2 -4 1 -6 -2 -17 4 -24 12 -14 17 -50 15
-57 -4 -3 -9 3 -11 22 -6 31 7 32 -1 6 -41 -16 -24 -20 -46 -19 -107 1 -48 6
-83 15 -95 12 -16 13 -14 14 20 0 52 14 74 56 92 25 10 42 12 60 5 37 -14 49
-13 34 5 -7 8 -20 15 -29 15 -12 1 -8 8 14 28 17 15 36 40 44 55 13 25 19 27
81 27 l66 0 14 -37 c23 -65 21 -75 -14 -69 -38 6 -98 -5 -103 -20 -2 -7 15
-11 47 -10 27 1 50 3 50 6 0 3 9 6 20 6 16 0 20 -10 26 -52 7 -56 0 -89 -23
-115 -7 -9 -13 -20 -11 -25 1 -5 -6 -33 -16 -62 -17 -52 -17 -54 0 -67 11 -8
28 -14 39 -15 16 0 13 4 -13 20 -30 19 -32 21 -18 42 8 13 17 34 21 48 12 43
37 90 47 90 5 0 7 -20 4 -48 -7 -55 7 -21 17 43 5 28 4 34 -3 20 -7 -17 -9
-18 -9 -2 -1 25 2 32 17 31 6 -1 13 10 13 25 1 14 3 38 5 54 1 15 -1 27 -7 27
-5 0 -9 5 -9 11 0 5 5 7 10 4 6 -3 10 1 10 9 0 9 5 16 10 16 6 0 10 18 10 40
0 30 -5 42 -21 51 -17 9 -24 7 -38 -8 -9 -10 -15 -26 -13 -37 3 -11 0 -16 -7
-12 -6 4 -11 13 -11 19 -1 16 -65 47 -93 46 -12 -1 -35 -4 -52 -6z m-130 -49
c-62 -53 -85 -76 -85 -85 0 -6 4 -8 9 -4 5 3 12 1 15 -4 10 -15 -34 -25 -48
-11 -8 10 -8 11 1 6 9 -5 13 1 14 18 2 45 5 51 18 48 7 -1 10 2 6 8 -11 18 7
35 19 17 11 -13 14 -12 31 8 11 13 27 24 35 24 9 0 4 -9 -15 -25z m345 -8 c0
-19 -4 -38 -10 -41 -5 -3 -10 -2 -10 3 0 5 -3 24 -6 41 -5 24 -3 31 10 31 12
0 16 -9 16 -34z m-30 -65 c13 -41 9 -71 -10 -71 -6 0 -9 3 -7 8 3 4 2 28 -3
55 -8 57 2 62 20 8z"/>
<path d="M91 292 l-24 -19 34 -7 c25 -5 37 -2 45 9 16 22 19 19 20 -20 0 -19
-2 -35 -6 -35 -8 0 -30 -46 -30 -63 0 -18 46 42 66 86 20 44 14 54 -41 62 -32
5 -46 3 -64 -13z m34 -12 c3 -5 1 -10 -4 -10 -6 0 -11 5 -11 10 0 6 2 10 4 10
3 0 8 -4 11 -10z"/>
<path d="M260 275 c0 -30 29 -45 69 -36 l26 5 -25 4 c-29 5 -50 20 -50 36 0 6
7 2 15 -8 15 -20 15 -20 30 0 8 11 15 14 15 7 0 -7 7 -13 16 -13 9 0 14 6 12
13 -3 7 -26 13 -56 15 -50 3 -52 2 -52 -23z"/>
<path d="M480 261 c0 -22 -4 -51 -10 -66 -7 -17 -7 -24 0 -20 6 4 10 -27 10
-84 0 -54 4 -91 10 -91 6 0 10 55 10 144 0 86 -4 147 -10 151 -6 4 -10 -10
-10 -34z"/>
<path d="M90 235 c7 -9 16 -12 19 -8 4 4 10 11 15 16 5 4 -3 7 -19 7 -24 0
-26 -2 -15 -15z"/>
<path d="M26 183 c6 -4 14 -34 17 -65 7 -55 33 -118 50 -118 5 0 7 6 4 13 -8
23 11 43 47 45 21 2 36 -2 36 -8 0 -6 4 -9 9 -5 5 3 31 9 56 14 36 7 48 6 52
-5 10 -26 21 -14 17 18 -1 18 -3 39 -3 46 -1 20 -21 3 -21 -18 0 -26 -71 -40
-125 -24 -34 10 -39 15 -37 35 4 23 3 23 -11 4 -8 -10 -13 -24 -11 -30 6 -16
-12 -38 -25 -31 -12 8 -11 66 1 66 4 0 8 7 8 16 0 11 -6 15 -19 11 -15 -3 -21
1 -23 16 -2 11 -10 22 -18 24 -10 3 -11 2 -4 -4z"/>
<path d="M276 177 c3 -10 9 -15 12 -12 3 3 0 11 -7 18 -10 9 -11 8 -5 -6z"/>
<path d="M171 159 c-22 -9 -23 -11 -7 -27 9 -10 16 -24 16 -31 0 -9 5 -7 16 3
8 9 20 17 25 17 5 1 14 3 19 4 6 1 15 3 20 4 6 0 10 6 10 11 0 15 -47 12 -53
-2 -4 -10 -8 -9 -16 2 -7 10 -6 17 2 22 16 11 -3 9 -32 -3z"/>
<path d="M152 20 c2 -8 18 -16 34 -17 18 -1 22 0 9 4 -11 3 -26 10 -34 17 -11
9 -13 8 -9 -4z"/>
</g>
</svg>
