%TF.GenerationSoftware,KiCad,Pcbnew,9.0.0*%
%TF.CreationDate,2025-03-18T22:56:01-07:00*%
%TF.ProjectId,timingGatesSTM32V1,74696d69-6e67-4476-9174-657353544d33,rev?*%
%TF.SameCoordinates,Original*%
%TF.FileFunction,Drillmap*%
%TF.FilePolarity,Positive*%
%FSLAX45Y45*%
G04 Gerber Fmt 4.5, Leading zero omitted, Abs format (unit mm)*
G04 Created by KiCad (PCBNEW 9.0.0) date 2025-03-18 22:56:01*
%MOMM*%
%LPD*%
G01*
G04 APERTURE LIST*
%ADD10C,0.050000*%
%ADD11C,0.200000*%
%ADD12C,0.100000*%
%ADD13C,0.320000*%
G04 APERTURE END LIST*
D10*
X6324000Y-8524000D02*
G75*
G02*
X6334000Y-8514000I10000J0D01*
G01*
X9049000Y-12914000D02*
X6599000Y-12914000D01*
X6324000Y-12639000D02*
X6324000Y-8524000D01*
X9324000Y-8789000D02*
X9324000Y-12639000D01*
X6334000Y-8514000D02*
X9049000Y-8514000D01*
X9324000Y-12639000D02*
G75*
G02*
X9049000Y-12914000I-275000J0D01*
G01*
X9049000Y-8514000D02*
G75*
G02*
X9324000Y-8789000I0J-275000D01*
G01*
X6599000Y-12914000D02*
G75*
G02*
X6324000Y-12639000I0J275000D01*
G01*
D11*
D12*
X8146470Y-10373970D02*
X8245530Y-10473030D01*
X8245530Y-10373970D02*
X8146470Y-10473030D01*
X8654470Y-10272370D02*
X8753530Y-10371430D01*
X8753530Y-10272370D02*
X8654470Y-10371430D01*
X8654470Y-10475570D02*
X8753530Y-10574630D01*
X8753530Y-10475570D02*
X8654470Y-10574630D01*
D13*
X8760000Y-10840000D02*
G75*
G02*
X8440000Y-10840000I-160000J0D01*
G01*
X8440000Y-10840000D02*
G75*
G02*
X8760000Y-10840000I160000J0D01*
G01*
D11*
X6582277Y-13227984D02*
X6582277Y-13027984D01*
X6582277Y-13027984D02*
X6629896Y-13027984D01*
X6629896Y-13027984D02*
X6658467Y-13037508D01*
X6658467Y-13037508D02*
X6677515Y-13056555D01*
X6677515Y-13056555D02*
X6687039Y-13075603D01*
X6687039Y-13075603D02*
X6696562Y-13113698D01*
X6696562Y-13113698D02*
X6696562Y-13142269D01*
X6696562Y-13142269D02*
X6687039Y-13180365D01*
X6687039Y-13180365D02*
X6677515Y-13199412D01*
X6677515Y-13199412D02*
X6658467Y-13218460D01*
X6658467Y-13218460D02*
X6629896Y-13227984D01*
X6629896Y-13227984D02*
X6582277Y-13227984D01*
X6782277Y-13227984D02*
X6782277Y-13094650D01*
X6782277Y-13132746D02*
X6791801Y-13113698D01*
X6791801Y-13113698D02*
X6801324Y-13104174D01*
X6801324Y-13104174D02*
X6820372Y-13094650D01*
X6820372Y-13094650D02*
X6839420Y-13094650D01*
X6906086Y-13227984D02*
X6906086Y-13094650D01*
X6906086Y-13027984D02*
X6896562Y-13037508D01*
X6896562Y-13037508D02*
X6906086Y-13047031D01*
X6906086Y-13047031D02*
X6915610Y-13037508D01*
X6915610Y-13037508D02*
X6906086Y-13027984D01*
X6906086Y-13027984D02*
X6906086Y-13047031D01*
X7029896Y-13227984D02*
X7010848Y-13218460D01*
X7010848Y-13218460D02*
X7001324Y-13199412D01*
X7001324Y-13199412D02*
X7001324Y-13027984D01*
X7134658Y-13227984D02*
X7115610Y-13218460D01*
X7115610Y-13218460D02*
X7106086Y-13199412D01*
X7106086Y-13199412D02*
X7106086Y-13027984D01*
X7363229Y-13227984D02*
X7363229Y-13027984D01*
X7363229Y-13027984D02*
X7429896Y-13170841D01*
X7429896Y-13170841D02*
X7496562Y-13027984D01*
X7496562Y-13027984D02*
X7496562Y-13227984D01*
X7677515Y-13227984D02*
X7677515Y-13123222D01*
X7677515Y-13123222D02*
X7667991Y-13104174D01*
X7667991Y-13104174D02*
X7648943Y-13094650D01*
X7648943Y-13094650D02*
X7610848Y-13094650D01*
X7610848Y-13094650D02*
X7591801Y-13104174D01*
X7677515Y-13218460D02*
X7658467Y-13227984D01*
X7658467Y-13227984D02*
X7610848Y-13227984D01*
X7610848Y-13227984D02*
X7591801Y-13218460D01*
X7591801Y-13218460D02*
X7582277Y-13199412D01*
X7582277Y-13199412D02*
X7582277Y-13180365D01*
X7582277Y-13180365D02*
X7591801Y-13161317D01*
X7591801Y-13161317D02*
X7610848Y-13151793D01*
X7610848Y-13151793D02*
X7658467Y-13151793D01*
X7658467Y-13151793D02*
X7677515Y-13142269D01*
X7772753Y-13094650D02*
X7772753Y-13294650D01*
X7772753Y-13104174D02*
X7791801Y-13094650D01*
X7791801Y-13094650D02*
X7829896Y-13094650D01*
X7829896Y-13094650D02*
X7848943Y-13104174D01*
X7848943Y-13104174D02*
X7858467Y-13113698D01*
X7858467Y-13113698D02*
X7867991Y-13132746D01*
X7867991Y-13132746D02*
X7867991Y-13189888D01*
X7867991Y-13189888D02*
X7858467Y-13208936D01*
X7858467Y-13208936D02*
X7848943Y-13218460D01*
X7848943Y-13218460D02*
X7829896Y-13227984D01*
X7829896Y-13227984D02*
X7791801Y-13227984D01*
X7791801Y-13227984D02*
X7772753Y-13218460D01*
X7953705Y-13208936D02*
X7963229Y-13218460D01*
X7963229Y-13218460D02*
X7953705Y-13227984D01*
X7953705Y-13227984D02*
X7944182Y-13218460D01*
X7944182Y-13218460D02*
X7953705Y-13208936D01*
X7953705Y-13208936D02*
X7953705Y-13227984D01*
X7953705Y-13104174D02*
X7963229Y-13113698D01*
X7963229Y-13113698D02*
X7953705Y-13123222D01*
X7953705Y-13123222D02*
X7944182Y-13113698D01*
X7944182Y-13113698D02*
X7953705Y-13104174D01*
X7953705Y-13104174D02*
X7953705Y-13123222D01*
D12*
X6222440Y-13506970D02*
X6321500Y-13606030D01*
X6321500Y-13506970D02*
X6222440Y-13606030D01*
D11*
X6620372Y-13447984D02*
X6639420Y-13447984D01*
X6639420Y-13447984D02*
X6658467Y-13457508D01*
X6658467Y-13457508D02*
X6667991Y-13467031D01*
X6667991Y-13467031D02*
X6677515Y-13486079D01*
X6677515Y-13486079D02*
X6687039Y-13524174D01*
X6687039Y-13524174D02*
X6687039Y-13571793D01*
X6687039Y-13571793D02*
X6677515Y-13609888D01*
X6677515Y-13609888D02*
X6667991Y-13628936D01*
X6667991Y-13628936D02*
X6658467Y-13638460D01*
X6658467Y-13638460D02*
X6639420Y-13647984D01*
X6639420Y-13647984D02*
X6620372Y-13647984D01*
X6620372Y-13647984D02*
X6601324Y-13638460D01*
X6601324Y-13638460D02*
X6591801Y-13628936D01*
X6591801Y-13628936D02*
X6582277Y-13609888D01*
X6582277Y-13609888D02*
X6572753Y-13571793D01*
X6572753Y-13571793D02*
X6572753Y-13524174D01*
X6572753Y-13524174D02*
X6582277Y-13486079D01*
X6582277Y-13486079D02*
X6591801Y-13467031D01*
X6591801Y-13467031D02*
X6601324Y-13457508D01*
X6601324Y-13457508D02*
X6620372Y-13447984D01*
X6772753Y-13628936D02*
X6782277Y-13638460D01*
X6782277Y-13638460D02*
X6772753Y-13647984D01*
X6772753Y-13647984D02*
X6763229Y-13638460D01*
X6763229Y-13638460D02*
X6772753Y-13628936D01*
X6772753Y-13628936D02*
X6772753Y-13647984D01*
X6877515Y-13647984D02*
X6915610Y-13647984D01*
X6915610Y-13647984D02*
X6934658Y-13638460D01*
X6934658Y-13638460D02*
X6944182Y-13628936D01*
X6944182Y-13628936D02*
X6963229Y-13600365D01*
X6963229Y-13600365D02*
X6972753Y-13562269D01*
X6972753Y-13562269D02*
X6972753Y-13486079D01*
X6972753Y-13486079D02*
X6963229Y-13467031D01*
X6963229Y-13467031D02*
X6953705Y-13457508D01*
X6953705Y-13457508D02*
X6934658Y-13447984D01*
X6934658Y-13447984D02*
X6896562Y-13447984D01*
X6896562Y-13447984D02*
X6877515Y-13457508D01*
X6877515Y-13457508D02*
X6867991Y-13467031D01*
X6867991Y-13467031D02*
X6858467Y-13486079D01*
X6858467Y-13486079D02*
X6858467Y-13533698D01*
X6858467Y-13533698D02*
X6867991Y-13552746D01*
X6867991Y-13552746D02*
X6877515Y-13562269D01*
X6877515Y-13562269D02*
X6896562Y-13571793D01*
X6896562Y-13571793D02*
X6934658Y-13571793D01*
X6934658Y-13571793D02*
X6953705Y-13562269D01*
X6953705Y-13562269D02*
X6963229Y-13552746D01*
X6963229Y-13552746D02*
X6972753Y-13533698D01*
X7067991Y-13647984D02*
X7106086Y-13647984D01*
X7106086Y-13647984D02*
X7125134Y-13638460D01*
X7125134Y-13638460D02*
X7134658Y-13628936D01*
X7134658Y-13628936D02*
X7153705Y-13600365D01*
X7153705Y-13600365D02*
X7163229Y-13562269D01*
X7163229Y-13562269D02*
X7163229Y-13486079D01*
X7163229Y-13486079D02*
X7153705Y-13467031D01*
X7153705Y-13467031D02*
X7144182Y-13457508D01*
X7144182Y-13457508D02*
X7125134Y-13447984D01*
X7125134Y-13447984D02*
X7087039Y-13447984D01*
X7087039Y-13447984D02*
X7067991Y-13457508D01*
X7067991Y-13457508D02*
X7058467Y-13467031D01*
X7058467Y-13467031D02*
X7048943Y-13486079D01*
X7048943Y-13486079D02*
X7048943Y-13533698D01*
X7048943Y-13533698D02*
X7058467Y-13552746D01*
X7058467Y-13552746D02*
X7067991Y-13562269D01*
X7067991Y-13562269D02*
X7087039Y-13571793D01*
X7087039Y-13571793D02*
X7125134Y-13571793D01*
X7125134Y-13571793D02*
X7144182Y-13562269D01*
X7144182Y-13562269D02*
X7153705Y-13552746D01*
X7153705Y-13552746D02*
X7163229Y-13533698D01*
X7353705Y-13647984D02*
X7239420Y-13647984D01*
X7296562Y-13647984D02*
X7296562Y-13447984D01*
X7296562Y-13447984D02*
X7277515Y-13476555D01*
X7277515Y-13476555D02*
X7258467Y-13495603D01*
X7258467Y-13495603D02*
X7239420Y-13505127D01*
X7439420Y-13647984D02*
X7439420Y-13514650D01*
X7439420Y-13533698D02*
X7448943Y-13524174D01*
X7448943Y-13524174D02*
X7467991Y-13514650D01*
X7467991Y-13514650D02*
X7496563Y-13514650D01*
X7496563Y-13514650D02*
X7515610Y-13524174D01*
X7515610Y-13524174D02*
X7525134Y-13543222D01*
X7525134Y-13543222D02*
X7525134Y-13647984D01*
X7525134Y-13543222D02*
X7534658Y-13524174D01*
X7534658Y-13524174D02*
X7553705Y-13514650D01*
X7553705Y-13514650D02*
X7582277Y-13514650D01*
X7582277Y-13514650D02*
X7601324Y-13524174D01*
X7601324Y-13524174D02*
X7610848Y-13543222D01*
X7610848Y-13543222D02*
X7610848Y-13647984D01*
X7706086Y-13647984D02*
X7706086Y-13514650D01*
X7706086Y-13533698D02*
X7715610Y-13524174D01*
X7715610Y-13524174D02*
X7734658Y-13514650D01*
X7734658Y-13514650D02*
X7763229Y-13514650D01*
X7763229Y-13514650D02*
X7782277Y-13524174D01*
X7782277Y-13524174D02*
X7791801Y-13543222D01*
X7791801Y-13543222D02*
X7791801Y-13647984D01*
X7791801Y-13543222D02*
X7801324Y-13524174D01*
X7801324Y-13524174D02*
X7820372Y-13514650D01*
X7820372Y-13514650D02*
X7848943Y-13514650D01*
X7848943Y-13514650D02*
X7867991Y-13524174D01*
X7867991Y-13524174D02*
X7877515Y-13543222D01*
X7877515Y-13543222D02*
X7877515Y-13647984D01*
X8267991Y-13438460D02*
X8096563Y-13695603D01*
X8525134Y-13447984D02*
X8544182Y-13447984D01*
X8544182Y-13447984D02*
X8563229Y-13457508D01*
X8563229Y-13457508D02*
X8572753Y-13467031D01*
X8572753Y-13467031D02*
X8582277Y-13486079D01*
X8582277Y-13486079D02*
X8591801Y-13524174D01*
X8591801Y-13524174D02*
X8591801Y-13571793D01*
X8591801Y-13571793D02*
X8582277Y-13609888D01*
X8582277Y-13609888D02*
X8572753Y-13628936D01*
X8572753Y-13628936D02*
X8563229Y-13638460D01*
X8563229Y-13638460D02*
X8544182Y-13647984D01*
X8544182Y-13647984D02*
X8525134Y-13647984D01*
X8525134Y-13647984D02*
X8506087Y-13638460D01*
X8506087Y-13638460D02*
X8496563Y-13628936D01*
X8496563Y-13628936D02*
X8487039Y-13609888D01*
X8487039Y-13609888D02*
X8477515Y-13571793D01*
X8477515Y-13571793D02*
X8477515Y-13524174D01*
X8477515Y-13524174D02*
X8487039Y-13486079D01*
X8487039Y-13486079D02*
X8496563Y-13467031D01*
X8496563Y-13467031D02*
X8506087Y-13457508D01*
X8506087Y-13457508D02*
X8525134Y-13447984D01*
X8677515Y-13628936D02*
X8687039Y-13638460D01*
X8687039Y-13638460D02*
X8677515Y-13647984D01*
X8677515Y-13647984D02*
X8667991Y-13638460D01*
X8667991Y-13638460D02*
X8677515Y-13628936D01*
X8677515Y-13628936D02*
X8677515Y-13647984D01*
X8810848Y-13447984D02*
X8829896Y-13447984D01*
X8829896Y-13447984D02*
X8848944Y-13457508D01*
X8848944Y-13457508D02*
X8858468Y-13467031D01*
X8858468Y-13467031D02*
X8867991Y-13486079D01*
X8867991Y-13486079D02*
X8877515Y-13524174D01*
X8877515Y-13524174D02*
X8877515Y-13571793D01*
X8877515Y-13571793D02*
X8867991Y-13609888D01*
X8867991Y-13609888D02*
X8858468Y-13628936D01*
X8858468Y-13628936D02*
X8848944Y-13638460D01*
X8848944Y-13638460D02*
X8829896Y-13647984D01*
X8829896Y-13647984D02*
X8810848Y-13647984D01*
X8810848Y-13647984D02*
X8791801Y-13638460D01*
X8791801Y-13638460D02*
X8782277Y-13628936D01*
X8782277Y-13628936D02*
X8772753Y-13609888D01*
X8772753Y-13609888D02*
X8763229Y-13571793D01*
X8763229Y-13571793D02*
X8763229Y-13524174D01*
X8763229Y-13524174D02*
X8772753Y-13486079D01*
X8772753Y-13486079D02*
X8782277Y-13467031D01*
X8782277Y-13467031D02*
X8791801Y-13457508D01*
X8791801Y-13457508D02*
X8810848Y-13447984D01*
X8944182Y-13447984D02*
X9067991Y-13447984D01*
X9067991Y-13447984D02*
X9001325Y-13524174D01*
X9001325Y-13524174D02*
X9029896Y-13524174D01*
X9029896Y-13524174D02*
X9048944Y-13533698D01*
X9048944Y-13533698D02*
X9058468Y-13543222D01*
X9058468Y-13543222D02*
X9067991Y-13562269D01*
X9067991Y-13562269D02*
X9067991Y-13609888D01*
X9067991Y-13609888D02*
X9058468Y-13628936D01*
X9058468Y-13628936D02*
X9048944Y-13638460D01*
X9048944Y-13638460D02*
X9029896Y-13647984D01*
X9029896Y-13647984D02*
X8972753Y-13647984D01*
X8972753Y-13647984D02*
X8953706Y-13638460D01*
X8953706Y-13638460D02*
X8944182Y-13628936D01*
X9163229Y-13647984D02*
X9201325Y-13647984D01*
X9201325Y-13647984D02*
X9220372Y-13638460D01*
X9220372Y-13638460D02*
X9229896Y-13628936D01*
X9229896Y-13628936D02*
X9248944Y-13600365D01*
X9248944Y-13600365D02*
X9258468Y-13562269D01*
X9258468Y-13562269D02*
X9258468Y-13486079D01*
X9258468Y-13486079D02*
X9248944Y-13467031D01*
X9248944Y-13467031D02*
X9239420Y-13457508D01*
X9239420Y-13457508D02*
X9220372Y-13447984D01*
X9220372Y-13447984D02*
X9182277Y-13447984D01*
X9182277Y-13447984D02*
X9163229Y-13457508D01*
X9163229Y-13457508D02*
X9153706Y-13467031D01*
X9153706Y-13467031D02*
X9144182Y-13486079D01*
X9144182Y-13486079D02*
X9144182Y-13533698D01*
X9144182Y-13533698D02*
X9153706Y-13552746D01*
X9153706Y-13552746D02*
X9163229Y-13562269D01*
X9163229Y-13562269D02*
X9182277Y-13571793D01*
X9182277Y-13571793D02*
X9220372Y-13571793D01*
X9220372Y-13571793D02*
X9239420Y-13562269D01*
X9239420Y-13562269D02*
X9248944Y-13552746D01*
X9248944Y-13552746D02*
X9258468Y-13533698D01*
X9382277Y-13447984D02*
X9401325Y-13447984D01*
X9401325Y-13447984D02*
X9420372Y-13457508D01*
X9420372Y-13457508D02*
X9429896Y-13467031D01*
X9429896Y-13467031D02*
X9439420Y-13486079D01*
X9439420Y-13486079D02*
X9448944Y-13524174D01*
X9448944Y-13524174D02*
X9448944Y-13571793D01*
X9448944Y-13571793D02*
X9439420Y-13609888D01*
X9439420Y-13609888D02*
X9429896Y-13628936D01*
X9429896Y-13628936D02*
X9420372Y-13638460D01*
X9420372Y-13638460D02*
X9401325Y-13647984D01*
X9401325Y-13647984D02*
X9382277Y-13647984D01*
X9382277Y-13647984D02*
X9363229Y-13638460D01*
X9363229Y-13638460D02*
X9353706Y-13628936D01*
X9353706Y-13628936D02*
X9344182Y-13609888D01*
X9344182Y-13609888D02*
X9334658Y-13571793D01*
X9334658Y-13571793D02*
X9334658Y-13524174D01*
X9334658Y-13524174D02*
X9344182Y-13486079D01*
X9344182Y-13486079D02*
X9353706Y-13467031D01*
X9353706Y-13467031D02*
X9363229Y-13457508D01*
X9363229Y-13457508D02*
X9382277Y-13447984D01*
X9525134Y-13447984D02*
X9525134Y-13486079D01*
X9601325Y-13447984D02*
X9601325Y-13486079D01*
X9896563Y-13724174D02*
X9887039Y-13714650D01*
X9887039Y-13714650D02*
X9867991Y-13686079D01*
X9867991Y-13686079D02*
X9858468Y-13667031D01*
X9858468Y-13667031D02*
X9848944Y-13638460D01*
X9848944Y-13638460D02*
X9839420Y-13590841D01*
X9839420Y-13590841D02*
X9839420Y-13552746D01*
X9839420Y-13552746D02*
X9848944Y-13505127D01*
X9848944Y-13505127D02*
X9858468Y-13476555D01*
X9858468Y-13476555D02*
X9867991Y-13457508D01*
X9867991Y-13457508D02*
X9887039Y-13428936D01*
X9887039Y-13428936D02*
X9896563Y-13419412D01*
X9953706Y-13447984D02*
X10077515Y-13447984D01*
X10077515Y-13447984D02*
X10010849Y-13524174D01*
X10010849Y-13524174D02*
X10039420Y-13524174D01*
X10039420Y-13524174D02*
X10058468Y-13533698D01*
X10058468Y-13533698D02*
X10067991Y-13543222D01*
X10067991Y-13543222D02*
X10077515Y-13562269D01*
X10077515Y-13562269D02*
X10077515Y-13609888D01*
X10077515Y-13609888D02*
X10067991Y-13628936D01*
X10067991Y-13628936D02*
X10058468Y-13638460D01*
X10058468Y-13638460D02*
X10039420Y-13647984D01*
X10039420Y-13647984D02*
X9982277Y-13647984D01*
X9982277Y-13647984D02*
X9963230Y-13638460D01*
X9963230Y-13638460D02*
X9953706Y-13628936D01*
X10315611Y-13647984D02*
X10315611Y-13447984D01*
X10401325Y-13647984D02*
X10401325Y-13543222D01*
X10401325Y-13543222D02*
X10391801Y-13524174D01*
X10391801Y-13524174D02*
X10372753Y-13514650D01*
X10372753Y-13514650D02*
X10344182Y-13514650D01*
X10344182Y-13514650D02*
X10325134Y-13524174D01*
X10325134Y-13524174D02*
X10315611Y-13533698D01*
X10525134Y-13647984D02*
X10506087Y-13638460D01*
X10506087Y-13638460D02*
X10496563Y-13628936D01*
X10496563Y-13628936D02*
X10487039Y-13609888D01*
X10487039Y-13609888D02*
X10487039Y-13552746D01*
X10487039Y-13552746D02*
X10496563Y-13533698D01*
X10496563Y-13533698D02*
X10506087Y-13524174D01*
X10506087Y-13524174D02*
X10525134Y-13514650D01*
X10525134Y-13514650D02*
X10553706Y-13514650D01*
X10553706Y-13514650D02*
X10572753Y-13524174D01*
X10572753Y-13524174D02*
X10582277Y-13533698D01*
X10582277Y-13533698D02*
X10591801Y-13552746D01*
X10591801Y-13552746D02*
X10591801Y-13609888D01*
X10591801Y-13609888D02*
X10582277Y-13628936D01*
X10582277Y-13628936D02*
X10572753Y-13638460D01*
X10572753Y-13638460D02*
X10553706Y-13647984D01*
X10553706Y-13647984D02*
X10525134Y-13647984D01*
X10706087Y-13647984D02*
X10687039Y-13638460D01*
X10687039Y-13638460D02*
X10677515Y-13619412D01*
X10677515Y-13619412D02*
X10677515Y-13447984D01*
X10858468Y-13638460D02*
X10839420Y-13647984D01*
X10839420Y-13647984D02*
X10801325Y-13647984D01*
X10801325Y-13647984D02*
X10782277Y-13638460D01*
X10782277Y-13638460D02*
X10772753Y-13619412D01*
X10772753Y-13619412D02*
X10772753Y-13543222D01*
X10772753Y-13543222D02*
X10782277Y-13524174D01*
X10782277Y-13524174D02*
X10801325Y-13514650D01*
X10801325Y-13514650D02*
X10839420Y-13514650D01*
X10839420Y-13514650D02*
X10858468Y-13524174D01*
X10858468Y-13524174D02*
X10867992Y-13543222D01*
X10867992Y-13543222D02*
X10867992Y-13562269D01*
X10867992Y-13562269D02*
X10772753Y-13581317D01*
X10944182Y-13638460D02*
X10963230Y-13647984D01*
X10963230Y-13647984D02*
X11001325Y-13647984D01*
X11001325Y-13647984D02*
X11020373Y-13638460D01*
X11020373Y-13638460D02*
X11029896Y-13619412D01*
X11029896Y-13619412D02*
X11029896Y-13609888D01*
X11029896Y-13609888D02*
X11020373Y-13590841D01*
X11020373Y-13590841D02*
X11001325Y-13581317D01*
X11001325Y-13581317D02*
X10972753Y-13581317D01*
X10972753Y-13581317D02*
X10953706Y-13571793D01*
X10953706Y-13571793D02*
X10944182Y-13552746D01*
X10944182Y-13552746D02*
X10944182Y-13543222D01*
X10944182Y-13543222D02*
X10953706Y-13524174D01*
X10953706Y-13524174D02*
X10972753Y-13514650D01*
X10972753Y-13514650D02*
X11001325Y-13514650D01*
X11001325Y-13514650D02*
X11020373Y-13524174D01*
X11096563Y-13724174D02*
X11106087Y-13714650D01*
X11106087Y-13714650D02*
X11125134Y-13686079D01*
X11125134Y-13686079D02*
X11134658Y-13667031D01*
X11134658Y-13667031D02*
X11144182Y-13638460D01*
X11144182Y-13638460D02*
X11153706Y-13590841D01*
X11153706Y-13590841D02*
X11153706Y-13552746D01*
X11153706Y-13552746D02*
X11144182Y-13505127D01*
X11144182Y-13505127D02*
X11134658Y-13476555D01*
X11134658Y-13476555D02*
X11125134Y-13457508D01*
X11125134Y-13457508D02*
X11106087Y-13428936D01*
X11106087Y-13428936D02*
X11096563Y-13419412D01*
X11458468Y-13724174D02*
X11448944Y-13714650D01*
X11448944Y-13714650D02*
X11429896Y-13686079D01*
X11429896Y-13686079D02*
X11420372Y-13667031D01*
X11420372Y-13667031D02*
X11410849Y-13638460D01*
X11410849Y-13638460D02*
X11401325Y-13590841D01*
X11401325Y-13590841D02*
X11401325Y-13552746D01*
X11401325Y-13552746D02*
X11410849Y-13505127D01*
X11410849Y-13505127D02*
X11420372Y-13476555D01*
X11420372Y-13476555D02*
X11429896Y-13457508D01*
X11429896Y-13457508D02*
X11448944Y-13428936D01*
X11448944Y-13428936D02*
X11458468Y-13419412D01*
X11534658Y-13514650D02*
X11534658Y-13647984D01*
X11534658Y-13533698D02*
X11544182Y-13524174D01*
X11544182Y-13524174D02*
X11563230Y-13514650D01*
X11563230Y-13514650D02*
X11591801Y-13514650D01*
X11591801Y-13514650D02*
X11610849Y-13524174D01*
X11610849Y-13524174D02*
X11620372Y-13543222D01*
X11620372Y-13543222D02*
X11620372Y-13647984D01*
X11744182Y-13647984D02*
X11725134Y-13638460D01*
X11725134Y-13638460D02*
X11715611Y-13628936D01*
X11715611Y-13628936D02*
X11706087Y-13609888D01*
X11706087Y-13609888D02*
X11706087Y-13552746D01*
X11706087Y-13552746D02*
X11715611Y-13533698D01*
X11715611Y-13533698D02*
X11725134Y-13524174D01*
X11725134Y-13524174D02*
X11744182Y-13514650D01*
X11744182Y-13514650D02*
X11772753Y-13514650D01*
X11772753Y-13514650D02*
X11791801Y-13524174D01*
X11791801Y-13524174D02*
X11801325Y-13533698D01*
X11801325Y-13533698D02*
X11810849Y-13552746D01*
X11810849Y-13552746D02*
X11810849Y-13609888D01*
X11810849Y-13609888D02*
X11801325Y-13628936D01*
X11801325Y-13628936D02*
X11791801Y-13638460D01*
X11791801Y-13638460D02*
X11772753Y-13647984D01*
X11772753Y-13647984D02*
X11744182Y-13647984D01*
X11867992Y-13514650D02*
X11944182Y-13514650D01*
X11896563Y-13447984D02*
X11896563Y-13619412D01*
X11896563Y-13619412D02*
X11906087Y-13638460D01*
X11906087Y-13638460D02*
X11925134Y-13647984D01*
X11925134Y-13647984D02*
X11944182Y-13647984D01*
X12163230Y-13514650D02*
X12163230Y-13714650D01*
X12163230Y-13524174D02*
X12182277Y-13514650D01*
X12182277Y-13514650D02*
X12220373Y-13514650D01*
X12220373Y-13514650D02*
X12239420Y-13524174D01*
X12239420Y-13524174D02*
X12248944Y-13533698D01*
X12248944Y-13533698D02*
X12258468Y-13552746D01*
X12258468Y-13552746D02*
X12258468Y-13609888D01*
X12258468Y-13609888D02*
X12248944Y-13628936D01*
X12248944Y-13628936D02*
X12239420Y-13638460D01*
X12239420Y-13638460D02*
X12220373Y-13647984D01*
X12220373Y-13647984D02*
X12182277Y-13647984D01*
X12182277Y-13647984D02*
X12163230Y-13638460D01*
X12372753Y-13647984D02*
X12353706Y-13638460D01*
X12353706Y-13638460D02*
X12344182Y-13619412D01*
X12344182Y-13619412D02*
X12344182Y-13447984D01*
X12534658Y-13647984D02*
X12534658Y-13543222D01*
X12534658Y-13543222D02*
X12525134Y-13524174D01*
X12525134Y-13524174D02*
X12506087Y-13514650D01*
X12506087Y-13514650D02*
X12467992Y-13514650D01*
X12467992Y-13514650D02*
X12448944Y-13524174D01*
X12534658Y-13638460D02*
X12515611Y-13647984D01*
X12515611Y-13647984D02*
X12467992Y-13647984D01*
X12467992Y-13647984D02*
X12448944Y-13638460D01*
X12448944Y-13638460D02*
X12439420Y-13619412D01*
X12439420Y-13619412D02*
X12439420Y-13600365D01*
X12439420Y-13600365D02*
X12448944Y-13581317D01*
X12448944Y-13581317D02*
X12467992Y-13571793D01*
X12467992Y-13571793D02*
X12515611Y-13571793D01*
X12515611Y-13571793D02*
X12534658Y-13562269D01*
X12601325Y-13514650D02*
X12677515Y-13514650D01*
X12629896Y-13447984D02*
X12629896Y-13619412D01*
X12629896Y-13619412D02*
X12639420Y-13638460D01*
X12639420Y-13638460D02*
X12658468Y-13647984D01*
X12658468Y-13647984D02*
X12677515Y-13647984D01*
X12820373Y-13638460D02*
X12801325Y-13647984D01*
X12801325Y-13647984D02*
X12763230Y-13647984D01*
X12763230Y-13647984D02*
X12744182Y-13638460D01*
X12744182Y-13638460D02*
X12734658Y-13619412D01*
X12734658Y-13619412D02*
X12734658Y-13543222D01*
X12734658Y-13543222D02*
X12744182Y-13524174D01*
X12744182Y-13524174D02*
X12763230Y-13514650D01*
X12763230Y-13514650D02*
X12801325Y-13514650D01*
X12801325Y-13514650D02*
X12820373Y-13524174D01*
X12820373Y-13524174D02*
X12829896Y-13543222D01*
X12829896Y-13543222D02*
X12829896Y-13562269D01*
X12829896Y-13562269D02*
X12734658Y-13581317D01*
X13001325Y-13647984D02*
X13001325Y-13447984D01*
X13001325Y-13638460D02*
X12982277Y-13647984D01*
X12982277Y-13647984D02*
X12944182Y-13647984D01*
X12944182Y-13647984D02*
X12925134Y-13638460D01*
X12925134Y-13638460D02*
X12915611Y-13628936D01*
X12915611Y-13628936D02*
X12906087Y-13609888D01*
X12906087Y-13609888D02*
X12906087Y-13552746D01*
X12906087Y-13552746D02*
X12915611Y-13533698D01*
X12915611Y-13533698D02*
X12925134Y-13524174D01*
X12925134Y-13524174D02*
X12944182Y-13514650D01*
X12944182Y-13514650D02*
X12982277Y-13514650D01*
X12982277Y-13514650D02*
X13001325Y-13524174D01*
X13077515Y-13724174D02*
X13087039Y-13714650D01*
X13087039Y-13714650D02*
X13106087Y-13686079D01*
X13106087Y-13686079D02*
X13115611Y-13667031D01*
X13115611Y-13667031D02*
X13125134Y-13638460D01*
X13125134Y-13638460D02*
X13134658Y-13590841D01*
X13134658Y-13590841D02*
X13134658Y-13552746D01*
X13134658Y-13552746D02*
X13125134Y-13505127D01*
X13125134Y-13505127D02*
X13115611Y-13476555D01*
X13115611Y-13476555D02*
X13106087Y-13457508D01*
X13106087Y-13457508D02*
X13087039Y-13428936D01*
X13087039Y-13428936D02*
X13077515Y-13419412D01*
X6321500Y-13820500D02*
G75*
G02*
X6121500Y-13820500I-100000J0D01*
G01*
X6121500Y-13820500D02*
G75*
G02*
X6321500Y-13820500I100000J0D01*
G01*
X6563229Y-13711984D02*
X6687039Y-13711984D01*
X6687039Y-13711984D02*
X6620372Y-13788174D01*
X6620372Y-13788174D02*
X6648943Y-13788174D01*
X6648943Y-13788174D02*
X6667991Y-13797698D01*
X6667991Y-13797698D02*
X6677515Y-13807222D01*
X6677515Y-13807222D02*
X6687039Y-13826269D01*
X6687039Y-13826269D02*
X6687039Y-13873888D01*
X6687039Y-13873888D02*
X6677515Y-13892936D01*
X6677515Y-13892936D02*
X6667991Y-13902460D01*
X6667991Y-13902460D02*
X6648943Y-13911984D01*
X6648943Y-13911984D02*
X6591801Y-13911984D01*
X6591801Y-13911984D02*
X6572753Y-13902460D01*
X6572753Y-13902460D02*
X6563229Y-13892936D01*
X6772753Y-13892936D02*
X6782277Y-13902460D01*
X6782277Y-13902460D02*
X6772753Y-13911984D01*
X6772753Y-13911984D02*
X6763229Y-13902460D01*
X6763229Y-13902460D02*
X6772753Y-13892936D01*
X6772753Y-13892936D02*
X6772753Y-13911984D01*
X6858467Y-13731031D02*
X6867991Y-13721508D01*
X6867991Y-13721508D02*
X6887039Y-13711984D01*
X6887039Y-13711984D02*
X6934658Y-13711984D01*
X6934658Y-13711984D02*
X6953705Y-13721508D01*
X6953705Y-13721508D02*
X6963229Y-13731031D01*
X6963229Y-13731031D02*
X6972753Y-13750079D01*
X6972753Y-13750079D02*
X6972753Y-13769127D01*
X6972753Y-13769127D02*
X6963229Y-13797698D01*
X6963229Y-13797698D02*
X6848943Y-13911984D01*
X6848943Y-13911984D02*
X6972753Y-13911984D01*
X7096562Y-13711984D02*
X7115610Y-13711984D01*
X7115610Y-13711984D02*
X7134658Y-13721508D01*
X7134658Y-13721508D02*
X7144182Y-13731031D01*
X7144182Y-13731031D02*
X7153705Y-13750079D01*
X7153705Y-13750079D02*
X7163229Y-13788174D01*
X7163229Y-13788174D02*
X7163229Y-13835793D01*
X7163229Y-13835793D02*
X7153705Y-13873888D01*
X7153705Y-13873888D02*
X7144182Y-13892936D01*
X7144182Y-13892936D02*
X7134658Y-13902460D01*
X7134658Y-13902460D02*
X7115610Y-13911984D01*
X7115610Y-13911984D02*
X7096562Y-13911984D01*
X7096562Y-13911984D02*
X7077515Y-13902460D01*
X7077515Y-13902460D02*
X7067991Y-13892936D01*
X7067991Y-13892936D02*
X7058467Y-13873888D01*
X7058467Y-13873888D02*
X7048943Y-13835793D01*
X7048943Y-13835793D02*
X7048943Y-13788174D01*
X7048943Y-13788174D02*
X7058467Y-13750079D01*
X7058467Y-13750079D02*
X7067991Y-13731031D01*
X7067991Y-13731031D02*
X7077515Y-13721508D01*
X7077515Y-13721508D02*
X7096562Y-13711984D01*
X7287039Y-13711984D02*
X7306086Y-13711984D01*
X7306086Y-13711984D02*
X7325134Y-13721508D01*
X7325134Y-13721508D02*
X7334658Y-13731031D01*
X7334658Y-13731031D02*
X7344182Y-13750079D01*
X7344182Y-13750079D02*
X7353705Y-13788174D01*
X7353705Y-13788174D02*
X7353705Y-13835793D01*
X7353705Y-13835793D02*
X7344182Y-13873888D01*
X7344182Y-13873888D02*
X7334658Y-13892936D01*
X7334658Y-13892936D02*
X7325134Y-13902460D01*
X7325134Y-13902460D02*
X7306086Y-13911984D01*
X7306086Y-13911984D02*
X7287039Y-13911984D01*
X7287039Y-13911984D02*
X7267991Y-13902460D01*
X7267991Y-13902460D02*
X7258467Y-13892936D01*
X7258467Y-13892936D02*
X7248943Y-13873888D01*
X7248943Y-13873888D02*
X7239420Y-13835793D01*
X7239420Y-13835793D02*
X7239420Y-13788174D01*
X7239420Y-13788174D02*
X7248943Y-13750079D01*
X7248943Y-13750079D02*
X7258467Y-13731031D01*
X7258467Y-13731031D02*
X7267991Y-13721508D01*
X7267991Y-13721508D02*
X7287039Y-13711984D01*
X7439420Y-13911984D02*
X7439420Y-13778650D01*
X7439420Y-13797698D02*
X7448943Y-13788174D01*
X7448943Y-13788174D02*
X7467991Y-13778650D01*
X7467991Y-13778650D02*
X7496563Y-13778650D01*
X7496563Y-13778650D02*
X7515610Y-13788174D01*
X7515610Y-13788174D02*
X7525134Y-13807222D01*
X7525134Y-13807222D02*
X7525134Y-13911984D01*
X7525134Y-13807222D02*
X7534658Y-13788174D01*
X7534658Y-13788174D02*
X7553705Y-13778650D01*
X7553705Y-13778650D02*
X7582277Y-13778650D01*
X7582277Y-13778650D02*
X7601324Y-13788174D01*
X7601324Y-13788174D02*
X7610848Y-13807222D01*
X7610848Y-13807222D02*
X7610848Y-13911984D01*
X7706086Y-13911984D02*
X7706086Y-13778650D01*
X7706086Y-13797698D02*
X7715610Y-13788174D01*
X7715610Y-13788174D02*
X7734658Y-13778650D01*
X7734658Y-13778650D02*
X7763229Y-13778650D01*
X7763229Y-13778650D02*
X7782277Y-13788174D01*
X7782277Y-13788174D02*
X7791801Y-13807222D01*
X7791801Y-13807222D02*
X7791801Y-13911984D01*
X7791801Y-13807222D02*
X7801324Y-13788174D01*
X7801324Y-13788174D02*
X7820372Y-13778650D01*
X7820372Y-13778650D02*
X7848943Y-13778650D01*
X7848943Y-13778650D02*
X7867991Y-13788174D01*
X7867991Y-13788174D02*
X7877515Y-13807222D01*
X7877515Y-13807222D02*
X7877515Y-13911984D01*
X8267991Y-13702460D02*
X8096563Y-13959603D01*
X8525134Y-13711984D02*
X8544182Y-13711984D01*
X8544182Y-13711984D02*
X8563229Y-13721508D01*
X8563229Y-13721508D02*
X8572753Y-13731031D01*
X8572753Y-13731031D02*
X8582277Y-13750079D01*
X8582277Y-13750079D02*
X8591801Y-13788174D01*
X8591801Y-13788174D02*
X8591801Y-13835793D01*
X8591801Y-13835793D02*
X8582277Y-13873888D01*
X8582277Y-13873888D02*
X8572753Y-13892936D01*
X8572753Y-13892936D02*
X8563229Y-13902460D01*
X8563229Y-13902460D02*
X8544182Y-13911984D01*
X8544182Y-13911984D02*
X8525134Y-13911984D01*
X8525134Y-13911984D02*
X8506087Y-13902460D01*
X8506087Y-13902460D02*
X8496563Y-13892936D01*
X8496563Y-13892936D02*
X8487039Y-13873888D01*
X8487039Y-13873888D02*
X8477515Y-13835793D01*
X8477515Y-13835793D02*
X8477515Y-13788174D01*
X8477515Y-13788174D02*
X8487039Y-13750079D01*
X8487039Y-13750079D02*
X8496563Y-13731031D01*
X8496563Y-13731031D02*
X8506087Y-13721508D01*
X8506087Y-13721508D02*
X8525134Y-13711984D01*
X8677515Y-13892936D02*
X8687039Y-13902460D01*
X8687039Y-13902460D02*
X8677515Y-13911984D01*
X8677515Y-13911984D02*
X8667991Y-13902460D01*
X8667991Y-13902460D02*
X8677515Y-13892936D01*
X8677515Y-13892936D02*
X8677515Y-13911984D01*
X8877515Y-13911984D02*
X8763229Y-13911984D01*
X8820372Y-13911984D02*
X8820372Y-13711984D01*
X8820372Y-13711984D02*
X8801325Y-13740555D01*
X8801325Y-13740555D02*
X8782277Y-13759603D01*
X8782277Y-13759603D02*
X8763229Y-13769127D01*
X8953706Y-13731031D02*
X8963229Y-13721508D01*
X8963229Y-13721508D02*
X8982277Y-13711984D01*
X8982277Y-13711984D02*
X9029896Y-13711984D01*
X9029896Y-13711984D02*
X9048944Y-13721508D01*
X9048944Y-13721508D02*
X9058468Y-13731031D01*
X9058468Y-13731031D02*
X9067991Y-13750079D01*
X9067991Y-13750079D02*
X9067991Y-13769127D01*
X9067991Y-13769127D02*
X9058468Y-13797698D01*
X9058468Y-13797698D02*
X8944182Y-13911984D01*
X8944182Y-13911984D02*
X9067991Y-13911984D01*
X9239420Y-13711984D02*
X9201325Y-13711984D01*
X9201325Y-13711984D02*
X9182277Y-13721508D01*
X9182277Y-13721508D02*
X9172753Y-13731031D01*
X9172753Y-13731031D02*
X9153706Y-13759603D01*
X9153706Y-13759603D02*
X9144182Y-13797698D01*
X9144182Y-13797698D02*
X9144182Y-13873888D01*
X9144182Y-13873888D02*
X9153706Y-13892936D01*
X9153706Y-13892936D02*
X9163229Y-13902460D01*
X9163229Y-13902460D02*
X9182277Y-13911984D01*
X9182277Y-13911984D02*
X9220372Y-13911984D01*
X9220372Y-13911984D02*
X9239420Y-13902460D01*
X9239420Y-13902460D02*
X9248944Y-13892936D01*
X9248944Y-13892936D02*
X9258468Y-13873888D01*
X9258468Y-13873888D02*
X9258468Y-13826269D01*
X9258468Y-13826269D02*
X9248944Y-13807222D01*
X9248944Y-13807222D02*
X9239420Y-13797698D01*
X9239420Y-13797698D02*
X9220372Y-13788174D01*
X9220372Y-13788174D02*
X9182277Y-13788174D01*
X9182277Y-13788174D02*
X9163229Y-13797698D01*
X9163229Y-13797698D02*
X9153706Y-13807222D01*
X9153706Y-13807222D02*
X9144182Y-13826269D01*
X9382277Y-13711984D02*
X9401325Y-13711984D01*
X9401325Y-13711984D02*
X9420372Y-13721508D01*
X9420372Y-13721508D02*
X9429896Y-13731031D01*
X9429896Y-13731031D02*
X9439420Y-13750079D01*
X9439420Y-13750079D02*
X9448944Y-13788174D01*
X9448944Y-13788174D02*
X9448944Y-13835793D01*
X9448944Y-13835793D02*
X9439420Y-13873888D01*
X9439420Y-13873888D02*
X9429896Y-13892936D01*
X9429896Y-13892936D02*
X9420372Y-13902460D01*
X9420372Y-13902460D02*
X9401325Y-13911984D01*
X9401325Y-13911984D02*
X9382277Y-13911984D01*
X9382277Y-13911984D02*
X9363229Y-13902460D01*
X9363229Y-13902460D02*
X9353706Y-13892936D01*
X9353706Y-13892936D02*
X9344182Y-13873888D01*
X9344182Y-13873888D02*
X9334658Y-13835793D01*
X9334658Y-13835793D02*
X9334658Y-13788174D01*
X9334658Y-13788174D02*
X9344182Y-13750079D01*
X9344182Y-13750079D02*
X9353706Y-13731031D01*
X9353706Y-13731031D02*
X9363229Y-13721508D01*
X9363229Y-13721508D02*
X9382277Y-13711984D01*
X9525134Y-13711984D02*
X9525134Y-13750079D01*
X9601325Y-13711984D02*
X9601325Y-13750079D01*
X9896563Y-13988174D02*
X9887039Y-13978650D01*
X9887039Y-13978650D02*
X9867991Y-13950079D01*
X9867991Y-13950079D02*
X9858468Y-13931031D01*
X9858468Y-13931031D02*
X9848944Y-13902460D01*
X9848944Y-13902460D02*
X9839420Y-13854841D01*
X9839420Y-13854841D02*
X9839420Y-13816746D01*
X9839420Y-13816746D02*
X9848944Y-13769127D01*
X9848944Y-13769127D02*
X9858468Y-13740555D01*
X9858468Y-13740555D02*
X9867991Y-13721508D01*
X9867991Y-13721508D02*
X9887039Y-13692936D01*
X9887039Y-13692936D02*
X9896563Y-13683412D01*
X10077515Y-13911984D02*
X9963230Y-13911984D01*
X10020372Y-13911984D02*
X10020372Y-13711984D01*
X10020372Y-13711984D02*
X10001325Y-13740555D01*
X10001325Y-13740555D02*
X9982277Y-13759603D01*
X9982277Y-13759603D02*
X9963230Y-13769127D01*
X10315611Y-13911984D02*
X10315611Y-13711984D01*
X10401325Y-13911984D02*
X10401325Y-13807222D01*
X10401325Y-13807222D02*
X10391801Y-13788174D01*
X10391801Y-13788174D02*
X10372753Y-13778650D01*
X10372753Y-13778650D02*
X10344182Y-13778650D01*
X10344182Y-13778650D02*
X10325134Y-13788174D01*
X10325134Y-13788174D02*
X10315611Y-13797698D01*
X10525134Y-13911984D02*
X10506087Y-13902460D01*
X10506087Y-13902460D02*
X10496563Y-13892936D01*
X10496563Y-13892936D02*
X10487039Y-13873888D01*
X10487039Y-13873888D02*
X10487039Y-13816746D01*
X10487039Y-13816746D02*
X10496563Y-13797698D01*
X10496563Y-13797698D02*
X10506087Y-13788174D01*
X10506087Y-13788174D02*
X10525134Y-13778650D01*
X10525134Y-13778650D02*
X10553706Y-13778650D01*
X10553706Y-13778650D02*
X10572753Y-13788174D01*
X10572753Y-13788174D02*
X10582277Y-13797698D01*
X10582277Y-13797698D02*
X10591801Y-13816746D01*
X10591801Y-13816746D02*
X10591801Y-13873888D01*
X10591801Y-13873888D02*
X10582277Y-13892936D01*
X10582277Y-13892936D02*
X10572753Y-13902460D01*
X10572753Y-13902460D02*
X10553706Y-13911984D01*
X10553706Y-13911984D02*
X10525134Y-13911984D01*
X10706087Y-13911984D02*
X10687039Y-13902460D01*
X10687039Y-13902460D02*
X10677515Y-13883412D01*
X10677515Y-13883412D02*
X10677515Y-13711984D01*
X10858468Y-13902460D02*
X10839420Y-13911984D01*
X10839420Y-13911984D02*
X10801325Y-13911984D01*
X10801325Y-13911984D02*
X10782277Y-13902460D01*
X10782277Y-13902460D02*
X10772753Y-13883412D01*
X10772753Y-13883412D02*
X10772753Y-13807222D01*
X10772753Y-13807222D02*
X10782277Y-13788174D01*
X10782277Y-13788174D02*
X10801325Y-13778650D01*
X10801325Y-13778650D02*
X10839420Y-13778650D01*
X10839420Y-13778650D02*
X10858468Y-13788174D01*
X10858468Y-13788174D02*
X10867992Y-13807222D01*
X10867992Y-13807222D02*
X10867992Y-13826269D01*
X10867992Y-13826269D02*
X10772753Y-13845317D01*
X10934658Y-13988174D02*
X10944182Y-13978650D01*
X10944182Y-13978650D02*
X10963230Y-13950079D01*
X10963230Y-13950079D02*
X10972753Y-13931031D01*
X10972753Y-13931031D02*
X10982277Y-13902460D01*
X10982277Y-13902460D02*
X10991801Y-13854841D01*
X10991801Y-13854841D02*
X10991801Y-13816746D01*
X10991801Y-13816746D02*
X10982277Y-13769127D01*
X10982277Y-13769127D02*
X10972753Y-13740555D01*
X10972753Y-13740555D02*
X10963230Y-13721508D01*
X10963230Y-13721508D02*
X10944182Y-13692936D01*
X10944182Y-13692936D02*
X10934658Y-13683412D01*
X11296563Y-13988174D02*
X11287039Y-13978650D01*
X11287039Y-13978650D02*
X11267991Y-13950079D01*
X11267991Y-13950079D02*
X11258468Y-13931031D01*
X11258468Y-13931031D02*
X11248944Y-13902460D01*
X11248944Y-13902460D02*
X11239420Y-13854841D01*
X11239420Y-13854841D02*
X11239420Y-13816746D01*
X11239420Y-13816746D02*
X11248944Y-13769127D01*
X11248944Y-13769127D02*
X11258468Y-13740555D01*
X11258468Y-13740555D02*
X11267991Y-13721508D01*
X11267991Y-13721508D02*
X11287039Y-13692936D01*
X11287039Y-13692936D02*
X11296563Y-13683412D01*
X11372753Y-13778650D02*
X11372753Y-13911984D01*
X11372753Y-13797698D02*
X11382277Y-13788174D01*
X11382277Y-13788174D02*
X11401325Y-13778650D01*
X11401325Y-13778650D02*
X11429896Y-13778650D01*
X11429896Y-13778650D02*
X11448944Y-13788174D01*
X11448944Y-13788174D02*
X11458468Y-13807222D01*
X11458468Y-13807222D02*
X11458468Y-13911984D01*
X11582277Y-13911984D02*
X11563230Y-13902460D01*
X11563230Y-13902460D02*
X11553706Y-13892936D01*
X11553706Y-13892936D02*
X11544182Y-13873888D01*
X11544182Y-13873888D02*
X11544182Y-13816746D01*
X11544182Y-13816746D02*
X11553706Y-13797698D01*
X11553706Y-13797698D02*
X11563230Y-13788174D01*
X11563230Y-13788174D02*
X11582277Y-13778650D01*
X11582277Y-13778650D02*
X11610849Y-13778650D01*
X11610849Y-13778650D02*
X11629896Y-13788174D01*
X11629896Y-13788174D02*
X11639420Y-13797698D01*
X11639420Y-13797698D02*
X11648944Y-13816746D01*
X11648944Y-13816746D02*
X11648944Y-13873888D01*
X11648944Y-13873888D02*
X11639420Y-13892936D01*
X11639420Y-13892936D02*
X11629896Y-13902460D01*
X11629896Y-13902460D02*
X11610849Y-13911984D01*
X11610849Y-13911984D02*
X11582277Y-13911984D01*
X11706087Y-13778650D02*
X11782277Y-13778650D01*
X11734658Y-13711984D02*
X11734658Y-13883412D01*
X11734658Y-13883412D02*
X11744182Y-13902460D01*
X11744182Y-13902460D02*
X11763230Y-13911984D01*
X11763230Y-13911984D02*
X11782277Y-13911984D01*
X12001325Y-13778650D02*
X12001325Y-13978650D01*
X12001325Y-13788174D02*
X12020372Y-13778650D01*
X12020372Y-13778650D02*
X12058468Y-13778650D01*
X12058468Y-13778650D02*
X12077515Y-13788174D01*
X12077515Y-13788174D02*
X12087039Y-13797698D01*
X12087039Y-13797698D02*
X12096563Y-13816746D01*
X12096563Y-13816746D02*
X12096563Y-13873888D01*
X12096563Y-13873888D02*
X12087039Y-13892936D01*
X12087039Y-13892936D02*
X12077515Y-13902460D01*
X12077515Y-13902460D02*
X12058468Y-13911984D01*
X12058468Y-13911984D02*
X12020372Y-13911984D01*
X12020372Y-13911984D02*
X12001325Y-13902460D01*
X12210849Y-13911984D02*
X12191801Y-13902460D01*
X12191801Y-13902460D02*
X12182277Y-13883412D01*
X12182277Y-13883412D02*
X12182277Y-13711984D01*
X12372753Y-13911984D02*
X12372753Y-13807222D01*
X12372753Y-13807222D02*
X12363230Y-13788174D01*
X12363230Y-13788174D02*
X12344182Y-13778650D01*
X12344182Y-13778650D02*
X12306087Y-13778650D01*
X12306087Y-13778650D02*
X12287039Y-13788174D01*
X12372753Y-13902460D02*
X12353706Y-13911984D01*
X12353706Y-13911984D02*
X12306087Y-13911984D01*
X12306087Y-13911984D02*
X12287039Y-13902460D01*
X12287039Y-13902460D02*
X12277515Y-13883412D01*
X12277515Y-13883412D02*
X12277515Y-13864365D01*
X12277515Y-13864365D02*
X12287039Y-13845317D01*
X12287039Y-13845317D02*
X12306087Y-13835793D01*
X12306087Y-13835793D02*
X12353706Y-13835793D01*
X12353706Y-13835793D02*
X12372753Y-13826269D01*
X12439420Y-13778650D02*
X12515611Y-13778650D01*
X12467992Y-13711984D02*
X12467992Y-13883412D01*
X12467992Y-13883412D02*
X12477515Y-13902460D01*
X12477515Y-13902460D02*
X12496563Y-13911984D01*
X12496563Y-13911984D02*
X12515611Y-13911984D01*
X12658468Y-13902460D02*
X12639420Y-13911984D01*
X12639420Y-13911984D02*
X12601325Y-13911984D01*
X12601325Y-13911984D02*
X12582277Y-13902460D01*
X12582277Y-13902460D02*
X12572753Y-13883412D01*
X12572753Y-13883412D02*
X12572753Y-13807222D01*
X12572753Y-13807222D02*
X12582277Y-13788174D01*
X12582277Y-13788174D02*
X12601325Y-13778650D01*
X12601325Y-13778650D02*
X12639420Y-13778650D01*
X12639420Y-13778650D02*
X12658468Y-13788174D01*
X12658468Y-13788174D02*
X12667992Y-13807222D01*
X12667992Y-13807222D02*
X12667992Y-13826269D01*
X12667992Y-13826269D02*
X12572753Y-13845317D01*
X12839420Y-13911984D02*
X12839420Y-13711984D01*
X12839420Y-13902460D02*
X12820373Y-13911984D01*
X12820373Y-13911984D02*
X12782277Y-13911984D01*
X12782277Y-13911984D02*
X12763230Y-13902460D01*
X12763230Y-13902460D02*
X12753706Y-13892936D01*
X12753706Y-13892936D02*
X12744182Y-13873888D01*
X12744182Y-13873888D02*
X12744182Y-13816746D01*
X12744182Y-13816746D02*
X12753706Y-13797698D01*
X12753706Y-13797698D02*
X12763230Y-13788174D01*
X12763230Y-13788174D02*
X12782277Y-13778650D01*
X12782277Y-13778650D02*
X12820373Y-13778650D01*
X12820373Y-13778650D02*
X12839420Y-13788174D01*
X12915611Y-13988174D02*
X12925134Y-13978650D01*
X12925134Y-13978650D02*
X12944182Y-13950079D01*
X12944182Y-13950079D02*
X12953706Y-13931031D01*
X12953706Y-13931031D02*
X12963230Y-13902460D01*
X12963230Y-13902460D02*
X12972753Y-13854841D01*
X12972753Y-13854841D02*
X12972753Y-13816746D01*
X12972753Y-13816746D02*
X12963230Y-13769127D01*
X12963230Y-13769127D02*
X12953706Y-13740555D01*
X12953706Y-13740555D02*
X12944182Y-13721508D01*
X12944182Y-13721508D02*
X12925134Y-13692936D01*
X12925134Y-13692936D02*
X12915611Y-13683412D01*
M02*
