%TF.GenerationSoftware,KiCad,Pcbnew,9.0.0*%
%TF.CreationDate,2025-03-18T22:56:01-07:00*%
%TF.ProjectId,timingGatesSTM32V1,74696d69-6e67-4476-9174-657353544d33,rev?*%
%TF.SameCoordinates,Original*%
%TF.FileFunction,Drillmap*%
%TF.FilePolarity,Positive*%
%FSLAX45Y45*%
G04 Gerber Fmt 4.5, Leading zero omitted, Abs format (unit mm)*
G04 Created by KiCad (PCBNEW 9.0.0) date 2025-03-18 22:56:01*
%MOMM*%
%LPD*%
G01*
G04 APERTURE LIST*
%ADD10C,0.050000*%
%ADD11C,0.200000*%
%ADD12C,0.100000*%
%ADD13C,0.250000*%
G04 APERTURE END LIST*
D10*
X6324000Y-8524000D02*
G75*
G02*
X6334000Y-8514000I10000J0D01*
G01*
X9049000Y-12914000D02*
X6599000Y-12914000D01*
X6324000Y-12639000D02*
X6324000Y-8524000D01*
X9324000Y-8789000D02*
X9324000Y-12639000D01*
X6334000Y-8514000D02*
X9049000Y-8514000D01*
X9324000Y-12639000D02*
G75*
G02*
X9049000Y-12914000I-275000J0D01*
G01*
X9049000Y-8514000D02*
G75*
G02*
X9324000Y-8789000I0J-275000D01*
G01*
X6599000Y-12914000D02*
G75*
G02*
X6324000Y-12639000I0J275000D01*
G01*
D11*
D12*
X6610000Y-11946000D02*
X6640000Y-11976000D01*
X6640000Y-11946000D02*
X6610000Y-11976000D01*
X6615000Y-9404000D02*
X6645000Y-9434000D01*
X6645000Y-9404000D02*
X6615000Y-9434000D01*
X6713000Y-8607000D02*
X6743000Y-8637000D01*
X6743000Y-8607000D02*
X6713000Y-8637000D01*
X6775000Y-10255000D02*
X6805000Y-10285000D01*
X6805000Y-10255000D02*
X6775000Y-10285000D01*
X6775000Y-10515000D02*
X6805000Y-10545000D01*
X6805000Y-10515000D02*
X6775000Y-10545000D01*
X6990935Y-9504500D02*
X7020935Y-9534500D01*
X7020935Y-9504500D02*
X6990935Y-9534500D01*
X7000018Y-10164500D02*
X7030018Y-10194500D01*
X7030018Y-10164500D02*
X7000018Y-10194500D01*
X7007500Y-9404500D02*
X7037500Y-9434500D01*
X7037500Y-9404500D02*
X7007500Y-9434500D01*
X7020548Y-10691935D02*
X7050548Y-10721935D01*
X7050548Y-10691935D02*
X7020548Y-10721935D01*
X7274000Y-9340000D02*
X7304000Y-9370000D01*
X7304000Y-9340000D02*
X7274000Y-9370000D01*
X7345000Y-11145000D02*
X7375000Y-11175000D01*
X7375000Y-11145000D02*
X7345000Y-11175000D01*
X7405000Y-11145000D02*
X7435000Y-11175000D01*
X7435000Y-11145000D02*
X7405000Y-11175000D01*
X7524500Y-9335000D02*
X7554500Y-9365000D01*
X7554500Y-9335000D02*
X7524500Y-9365000D01*
X7525000Y-11715000D02*
X7555000Y-11745000D01*
X7555000Y-11715000D02*
X7525000Y-11745000D01*
X7525000Y-12020000D02*
X7555000Y-12050000D01*
X7555000Y-12020000D02*
X7525000Y-12050000D01*
X7584500Y-11025647D02*
X7614500Y-11055647D01*
X7614500Y-11025647D02*
X7584500Y-11055647D01*
X7625000Y-8755000D02*
X7655000Y-8785000D01*
X7655000Y-8755000D02*
X7625000Y-8785000D01*
X7685000Y-11885000D02*
X7715000Y-11915000D01*
X7715000Y-11885000D02*
X7685000Y-11915000D01*
X7721000Y-8755000D02*
X7751000Y-8785000D01*
X7751000Y-8755000D02*
X7721000Y-8785000D01*
X7747926Y-9582927D02*
X7777926Y-9612927D01*
X7777926Y-9582927D02*
X7747926Y-9612927D01*
X7755306Y-9085306D02*
X7785306Y-9115306D01*
X7785306Y-9085306D02*
X7755306Y-9115306D01*
X7785000Y-11885000D02*
X7815000Y-11915000D01*
X7815000Y-11885000D02*
X7785000Y-11915000D01*
X7829500Y-9784000D02*
X7859500Y-9814000D01*
X7859500Y-9784000D02*
X7829500Y-9814000D01*
X7883000Y-9702000D02*
X7913000Y-9732000D01*
X7913000Y-9702000D02*
X7883000Y-9732000D01*
X7885000Y-9559000D02*
X7915000Y-9589000D01*
X7915000Y-9559000D02*
X7885000Y-9589000D01*
X7985000Y-11835000D02*
X8015000Y-11865000D01*
X8015000Y-11835000D02*
X7985000Y-11865000D01*
X7999000Y-12367000D02*
X8029000Y-12397000D01*
X8029000Y-12367000D02*
X7999000Y-12397000D01*
X8096470Y-10720000D02*
X8126470Y-10750000D01*
X8126470Y-10720000D02*
X8096470Y-10750000D01*
X8143828Y-9970909D02*
X8173828Y-10000909D01*
X8173828Y-9970909D02*
X8143828Y-10000909D01*
X8144468Y-10094486D02*
X8174468Y-10124486D01*
X8174468Y-10094486D02*
X8144468Y-10124486D01*
X8423500Y-8836000D02*
X8453500Y-8866000D01*
X8453500Y-8836000D02*
X8423500Y-8866000D01*
X8435000Y-10575000D02*
X8465000Y-10605000D01*
X8465000Y-10575000D02*
X8435000Y-10605000D01*
X8511574Y-9970909D02*
X8541574Y-10000909D01*
X8541574Y-9970909D02*
X8511574Y-10000909D01*
X8562000Y-10575000D02*
X8592000Y-10605000D01*
X8592000Y-10575000D02*
X8562000Y-10605000D01*
X8720000Y-12020000D02*
X8750000Y-12050000D01*
X8750000Y-12020000D02*
X8720000Y-12050000D01*
X8720640Y-9795360D02*
X8750640Y-9825360D01*
X8750640Y-9795360D02*
X8720640Y-9825360D01*
X9037000Y-12315000D02*
X9067000Y-12345000D01*
X9067000Y-12315000D02*
X9037000Y-12345000D01*
X7180000Y-12773750D02*
G75*
G02*
X7120000Y-12773750I-30000J0D01*
G01*
X7120000Y-12773750D02*
G75*
G02*
X7180000Y-12773750I30000J0D01*
G01*
X7180000Y-12808750D02*
X7180000Y-12738750D01*
X7120000Y-12738750D02*
G75*
G02*
X7180000Y-12738750I30000J0D01*
G01*
X7120000Y-12738750D02*
X7120000Y-12808750D01*
X7120000Y-12808750D02*
G75*
G03*
X7180000Y-12808750I30000J0D01*
G01*
X7880000Y-12773750D02*
G75*
G02*
X7820000Y-12773750I-30000J0D01*
G01*
X7820000Y-12773750D02*
G75*
G02*
X7880000Y-12773750I30000J0D01*
G01*
X7820000Y-12738750D02*
X7820000Y-12808750D01*
X7880000Y-12808750D02*
G75*
G02*
X7820000Y-12808750I-30000J0D01*
G01*
X7880000Y-12808750D02*
X7880000Y-12738750D01*
X7880000Y-12738750D02*
G75*
G03*
X7820000Y-12738750I-30000J0D01*
G01*
X7250000Y-12461250D02*
X7250000Y-12546250D01*
X7207500Y-12503750D02*
X7292500Y-12503750D01*
X7750000Y-12461250D02*
X7750000Y-12546250D01*
X7707500Y-12503750D02*
X7792500Y-12503750D01*
X9085588Y-11447588D02*
X9085588Y-11380412D01*
X9018412Y-11380412D01*
X9018412Y-11447588D01*
X9085588Y-11447588D01*
X9085588Y-11697588D02*
X9085588Y-11630412D01*
X9018412Y-11630412D01*
X9018412Y-11697588D01*
X9085588Y-11697588D01*
X9085588Y-11947588D02*
X9085588Y-11880412D01*
X9018412Y-11880412D01*
X9018412Y-11947588D01*
X9085588Y-11947588D01*
X9085588Y-12197588D02*
X9085588Y-12130412D01*
X9018412Y-12130412D01*
X9018412Y-12197588D01*
X9085588Y-12197588D01*
X6466980Y-9877700D02*
X6516980Y-9827700D01*
X6466980Y-9777700D01*
X6416980Y-9827700D01*
X6466980Y-9877700D01*
X6466980Y-10131700D02*
X6516980Y-10081700D01*
X6466980Y-10031700D01*
X6416980Y-10081700D01*
X6466980Y-10131700D01*
X6466980Y-10385700D02*
X6516980Y-10335700D01*
X6466980Y-10285700D01*
X6416980Y-10335700D01*
X6466980Y-10385700D01*
X6466980Y-10639700D02*
X6516980Y-10589700D01*
X6466980Y-10539700D01*
X6416980Y-10589700D01*
X6466980Y-10639700D01*
X6466980Y-10893700D02*
X6516980Y-10843700D01*
X6466980Y-10793700D01*
X6416980Y-10843700D01*
X6466980Y-10893700D01*
X6524000Y-8764000D02*
X6574000Y-8714000D01*
X6524000Y-8664000D01*
X6474000Y-8714000D01*
X6524000Y-8764000D01*
X6524000Y-8964000D02*
X6574000Y-8914000D01*
X6524000Y-8864000D01*
X6474000Y-8914000D01*
X6524000Y-8964000D01*
X6604000Y-11416000D02*
X6654000Y-11366000D01*
X6604000Y-11316000D01*
X6554000Y-11366000D01*
X6604000Y-11416000D01*
X6858000Y-11416000D02*
X6908000Y-11366000D01*
X6858000Y-11316000D01*
X6808000Y-11366000D01*
X6858000Y-11416000D01*
X7112000Y-11416000D02*
X7162000Y-11366000D01*
X7112000Y-11316000D01*
X7062000Y-11366000D01*
X7112000Y-11416000D01*
X7366000Y-11416000D02*
X7416000Y-11366000D01*
X7366000Y-11316000D01*
X7316000Y-11366000D01*
X7366000Y-11416000D01*
X7620000Y-11416000D02*
X7670000Y-11366000D01*
X7620000Y-11316000D01*
X7570000Y-11366000D01*
X7620000Y-11416000D01*
X7874000Y-11416000D02*
X7924000Y-11366000D01*
X7874000Y-11316000D01*
X7824000Y-11366000D01*
X7874000Y-11416000D01*
X8128000Y-11416000D02*
X8178000Y-11366000D01*
X8128000Y-11316000D01*
X8078000Y-11366000D01*
X8128000Y-11416000D01*
X8382000Y-11416000D02*
X8432000Y-11366000D01*
X8382000Y-11316000D01*
X8332000Y-11366000D01*
X8382000Y-11416000D01*
X8850000Y-12664000D02*
X8900000Y-12614000D01*
X8850000Y-12564000D01*
X8800000Y-12614000D01*
X8850000Y-12664000D01*
X9006980Y-8861700D02*
X9056980Y-8811700D01*
X9006980Y-8761700D01*
X8956980Y-8811700D01*
X9006980Y-8861700D01*
X9006980Y-9115700D02*
X9056980Y-9065700D01*
X9006980Y-9015700D01*
X8956980Y-9065700D01*
X9006980Y-9115700D01*
X9006980Y-9369700D02*
X9056980Y-9319700D01*
X9006980Y-9269700D01*
X8956980Y-9319700D01*
X9006980Y-9369700D01*
X9006980Y-9623700D02*
X9056980Y-9573700D01*
X9006980Y-9523700D01*
X8956980Y-9573700D01*
X9006980Y-9623700D01*
X9006980Y-9877700D02*
X9056980Y-9827700D01*
X9006980Y-9777700D01*
X8956980Y-9827700D01*
X9006980Y-9877700D01*
X9006980Y-10131700D02*
X9056980Y-10081700D01*
X9006980Y-10031700D01*
X8956980Y-10081700D01*
X9006980Y-10131700D01*
X9006980Y-10385700D02*
X9056980Y-10335700D01*
X9006980Y-10285700D01*
X8956980Y-10335700D01*
X9006980Y-10385700D01*
X9006980Y-10639700D02*
X9056980Y-10589700D01*
X9006980Y-10539700D01*
X8956980Y-10589700D01*
X9006980Y-10639700D01*
X9006980Y-10893700D02*
X9056980Y-10843700D01*
X9006980Y-10793700D01*
X8956980Y-10843700D01*
X9006980Y-10893700D01*
X9104000Y-12664000D02*
X9154000Y-12614000D01*
X9104000Y-12564000D01*
X9054000Y-12614000D01*
X9104000Y-12664000D01*
D13*
X6479000Y-12511000D02*
X6729000Y-12761000D01*
X6729000Y-12511000D02*
X6479000Y-12761000D01*
X6729000Y-12636000D02*
G75*
G02*
X6479000Y-12636000I-125000J0D01*
G01*
X6479000Y-12636000D02*
G75*
G02*
X6729000Y-12636000I125000J0D01*
G01*
X8257000Y-12511000D02*
X8507000Y-12761000D01*
X8507000Y-12511000D02*
X8257000Y-12761000D01*
X8507000Y-12636000D02*
G75*
G02*
X8257000Y-12636000I-125000J0D01*
G01*
X8257000Y-12636000D02*
G75*
G02*
X8507000Y-12636000I125000J0D01*
G01*
D11*
X6582277Y-13227984D02*
X6582277Y-13027984D01*
X6582277Y-13027984D02*
X6629896Y-13027984D01*
X6629896Y-13027984D02*
X6658467Y-13037508D01*
X6658467Y-13037508D02*
X6677515Y-13056555D01*
X6677515Y-13056555D02*
X6687039Y-13075603D01*
X6687039Y-13075603D02*
X6696562Y-13113698D01*
X6696562Y-13113698D02*
X6696562Y-13142269D01*
X6696562Y-13142269D02*
X6687039Y-13180365D01*
X6687039Y-13180365D02*
X6677515Y-13199412D01*
X6677515Y-13199412D02*
X6658467Y-13218460D01*
X6658467Y-13218460D02*
X6629896Y-13227984D01*
X6629896Y-13227984D02*
X6582277Y-13227984D01*
X6782277Y-13227984D02*
X6782277Y-13094650D01*
X6782277Y-13132746D02*
X6791801Y-13113698D01*
X6791801Y-13113698D02*
X6801324Y-13104174D01*
X6801324Y-13104174D02*
X6820372Y-13094650D01*
X6820372Y-13094650D02*
X6839420Y-13094650D01*
X6906086Y-13227984D02*
X6906086Y-13094650D01*
X6906086Y-13027984D02*
X6896562Y-13037508D01*
X6896562Y-13037508D02*
X6906086Y-13047031D01*
X6906086Y-13047031D02*
X6915610Y-13037508D01*
X6915610Y-13037508D02*
X6906086Y-13027984D01*
X6906086Y-13027984D02*
X6906086Y-13047031D01*
X7029896Y-13227984D02*
X7010848Y-13218460D01*
X7010848Y-13218460D02*
X7001324Y-13199412D01*
X7001324Y-13199412D02*
X7001324Y-13027984D01*
X7134658Y-13227984D02*
X7115610Y-13218460D01*
X7115610Y-13218460D02*
X7106086Y-13199412D01*
X7106086Y-13199412D02*
X7106086Y-13027984D01*
X7363229Y-13227984D02*
X7363229Y-13027984D01*
X7363229Y-13027984D02*
X7429896Y-13170841D01*
X7429896Y-13170841D02*
X7496562Y-13027984D01*
X7496562Y-13027984D02*
X7496562Y-13227984D01*
X7677515Y-13227984D02*
X7677515Y-13123222D01*
X7677515Y-13123222D02*
X7667991Y-13104174D01*
X7667991Y-13104174D02*
X7648943Y-13094650D01*
X7648943Y-13094650D02*
X7610848Y-13094650D01*
X7610848Y-13094650D02*
X7591801Y-13104174D01*
X7677515Y-13218460D02*
X7658467Y-13227984D01*
X7658467Y-13227984D02*
X7610848Y-13227984D01*
X7610848Y-13227984D02*
X7591801Y-13218460D01*
X7591801Y-13218460D02*
X7582277Y-13199412D01*
X7582277Y-13199412D02*
X7582277Y-13180365D01*
X7582277Y-13180365D02*
X7591801Y-13161317D01*
X7591801Y-13161317D02*
X7610848Y-13151793D01*
X7610848Y-13151793D02*
X7658467Y-13151793D01*
X7658467Y-13151793D02*
X7677515Y-13142269D01*
X7772753Y-13094650D02*
X7772753Y-13294650D01*
X7772753Y-13104174D02*
X7791801Y-13094650D01*
X7791801Y-13094650D02*
X7829896Y-13094650D01*
X7829896Y-13094650D02*
X7848943Y-13104174D01*
X7848943Y-13104174D02*
X7858467Y-13113698D01*
X7858467Y-13113698D02*
X7867991Y-13132746D01*
X7867991Y-13132746D02*
X7867991Y-13189888D01*
X7867991Y-13189888D02*
X7858467Y-13208936D01*
X7858467Y-13208936D02*
X7848943Y-13218460D01*
X7848943Y-13218460D02*
X7829896Y-13227984D01*
X7829896Y-13227984D02*
X7791801Y-13227984D01*
X7791801Y-13227984D02*
X7772753Y-13218460D01*
X7953705Y-13208936D02*
X7963229Y-13218460D01*
X7963229Y-13218460D02*
X7953705Y-13227984D01*
X7953705Y-13227984D02*
X7944182Y-13218460D01*
X7944182Y-13218460D02*
X7953705Y-13208936D01*
X7953705Y-13208936D02*
X7953705Y-13227984D01*
X7953705Y-13104174D02*
X7963229Y-13113698D01*
X7963229Y-13113698D02*
X7953705Y-13123222D01*
X7953705Y-13123222D02*
X7944182Y-13113698D01*
X7944182Y-13113698D02*
X7953705Y-13104174D01*
X7953705Y-13104174D02*
X7953705Y-13123222D01*
D12*
X6291500Y-13541500D02*
X6321500Y-13571500D01*
X6321500Y-13541500D02*
X6291500Y-13571500D01*
D11*
X6620372Y-13447984D02*
X6639420Y-13447984D01*
X6639420Y-13447984D02*
X6658467Y-13457508D01*
X6658467Y-13457508D02*
X6667991Y-13467031D01*
X6667991Y-13467031D02*
X6677515Y-13486079D01*
X6677515Y-13486079D02*
X6687039Y-13524174D01*
X6687039Y-13524174D02*
X6687039Y-13571793D01*
X6687039Y-13571793D02*
X6677515Y-13609888D01*
X6677515Y-13609888D02*
X6667991Y-13628936D01*
X6667991Y-13628936D02*
X6658467Y-13638460D01*
X6658467Y-13638460D02*
X6639420Y-13647984D01*
X6639420Y-13647984D02*
X6620372Y-13647984D01*
X6620372Y-13647984D02*
X6601324Y-13638460D01*
X6601324Y-13638460D02*
X6591801Y-13628936D01*
X6591801Y-13628936D02*
X6582277Y-13609888D01*
X6582277Y-13609888D02*
X6572753Y-13571793D01*
X6572753Y-13571793D02*
X6572753Y-13524174D01*
X6572753Y-13524174D02*
X6582277Y-13486079D01*
X6582277Y-13486079D02*
X6591801Y-13467031D01*
X6591801Y-13467031D02*
X6601324Y-13457508D01*
X6601324Y-13457508D02*
X6620372Y-13447984D01*
X6772753Y-13628936D02*
X6782277Y-13638460D01*
X6782277Y-13638460D02*
X6772753Y-13647984D01*
X6772753Y-13647984D02*
X6763229Y-13638460D01*
X6763229Y-13638460D02*
X6772753Y-13628936D01*
X6772753Y-13628936D02*
X6772753Y-13647984D01*
X6848943Y-13447984D02*
X6972753Y-13447984D01*
X6972753Y-13447984D02*
X6906086Y-13524174D01*
X6906086Y-13524174D02*
X6934658Y-13524174D01*
X6934658Y-13524174D02*
X6953705Y-13533698D01*
X6953705Y-13533698D02*
X6963229Y-13543222D01*
X6963229Y-13543222D02*
X6972753Y-13562269D01*
X6972753Y-13562269D02*
X6972753Y-13609888D01*
X6972753Y-13609888D02*
X6963229Y-13628936D01*
X6963229Y-13628936D02*
X6953705Y-13638460D01*
X6953705Y-13638460D02*
X6934658Y-13647984D01*
X6934658Y-13647984D02*
X6877515Y-13647984D01*
X6877515Y-13647984D02*
X6858467Y-13638460D01*
X6858467Y-13638460D02*
X6848943Y-13628936D01*
X7096562Y-13447984D02*
X7115610Y-13447984D01*
X7115610Y-13447984D02*
X7134658Y-13457508D01*
X7134658Y-13457508D02*
X7144182Y-13467031D01*
X7144182Y-13467031D02*
X7153705Y-13486079D01*
X7153705Y-13486079D02*
X7163229Y-13524174D01*
X7163229Y-13524174D02*
X7163229Y-13571793D01*
X7163229Y-13571793D02*
X7153705Y-13609888D01*
X7153705Y-13609888D02*
X7144182Y-13628936D01*
X7144182Y-13628936D02*
X7134658Y-13638460D01*
X7134658Y-13638460D02*
X7115610Y-13647984D01*
X7115610Y-13647984D02*
X7096562Y-13647984D01*
X7096562Y-13647984D02*
X7077515Y-13638460D01*
X7077515Y-13638460D02*
X7067991Y-13628936D01*
X7067991Y-13628936D02*
X7058467Y-13609888D01*
X7058467Y-13609888D02*
X7048943Y-13571793D01*
X7048943Y-13571793D02*
X7048943Y-13524174D01*
X7048943Y-13524174D02*
X7058467Y-13486079D01*
X7058467Y-13486079D02*
X7067991Y-13467031D01*
X7067991Y-13467031D02*
X7077515Y-13457508D01*
X7077515Y-13457508D02*
X7096562Y-13447984D01*
X7287039Y-13447984D02*
X7306086Y-13447984D01*
X7306086Y-13447984D02*
X7325134Y-13457508D01*
X7325134Y-13457508D02*
X7334658Y-13467031D01*
X7334658Y-13467031D02*
X7344182Y-13486079D01*
X7344182Y-13486079D02*
X7353705Y-13524174D01*
X7353705Y-13524174D02*
X7353705Y-13571793D01*
X7353705Y-13571793D02*
X7344182Y-13609888D01*
X7344182Y-13609888D02*
X7334658Y-13628936D01*
X7334658Y-13628936D02*
X7325134Y-13638460D01*
X7325134Y-13638460D02*
X7306086Y-13647984D01*
X7306086Y-13647984D02*
X7287039Y-13647984D01*
X7287039Y-13647984D02*
X7267991Y-13638460D01*
X7267991Y-13638460D02*
X7258467Y-13628936D01*
X7258467Y-13628936D02*
X7248943Y-13609888D01*
X7248943Y-13609888D02*
X7239420Y-13571793D01*
X7239420Y-13571793D02*
X7239420Y-13524174D01*
X7239420Y-13524174D02*
X7248943Y-13486079D01*
X7248943Y-13486079D02*
X7258467Y-13467031D01*
X7258467Y-13467031D02*
X7267991Y-13457508D01*
X7267991Y-13457508D02*
X7287039Y-13447984D01*
X7439420Y-13647984D02*
X7439420Y-13514650D01*
X7439420Y-13533698D02*
X7448943Y-13524174D01*
X7448943Y-13524174D02*
X7467991Y-13514650D01*
X7467991Y-13514650D02*
X7496563Y-13514650D01*
X7496563Y-13514650D02*
X7515610Y-13524174D01*
X7515610Y-13524174D02*
X7525134Y-13543222D01*
X7525134Y-13543222D02*
X7525134Y-13647984D01*
X7525134Y-13543222D02*
X7534658Y-13524174D01*
X7534658Y-13524174D02*
X7553705Y-13514650D01*
X7553705Y-13514650D02*
X7582277Y-13514650D01*
X7582277Y-13514650D02*
X7601324Y-13524174D01*
X7601324Y-13524174D02*
X7610848Y-13543222D01*
X7610848Y-13543222D02*
X7610848Y-13647984D01*
X7706086Y-13647984D02*
X7706086Y-13514650D01*
X7706086Y-13533698D02*
X7715610Y-13524174D01*
X7715610Y-13524174D02*
X7734658Y-13514650D01*
X7734658Y-13514650D02*
X7763229Y-13514650D01*
X7763229Y-13514650D02*
X7782277Y-13524174D01*
X7782277Y-13524174D02*
X7791801Y-13543222D01*
X7791801Y-13543222D02*
X7791801Y-13647984D01*
X7791801Y-13543222D02*
X7801324Y-13524174D01*
X7801324Y-13524174D02*
X7820372Y-13514650D01*
X7820372Y-13514650D02*
X7848943Y-13514650D01*
X7848943Y-13514650D02*
X7867991Y-13524174D01*
X7867991Y-13524174D02*
X7877515Y-13543222D01*
X7877515Y-13543222D02*
X7877515Y-13647984D01*
X8267991Y-13438460D02*
X8096563Y-13695603D01*
X8525134Y-13447984D02*
X8544182Y-13447984D01*
X8544182Y-13447984D02*
X8563229Y-13457508D01*
X8563229Y-13457508D02*
X8572753Y-13467031D01*
X8572753Y-13467031D02*
X8582277Y-13486079D01*
X8582277Y-13486079D02*
X8591801Y-13524174D01*
X8591801Y-13524174D02*
X8591801Y-13571793D01*
X8591801Y-13571793D02*
X8582277Y-13609888D01*
X8582277Y-13609888D02*
X8572753Y-13628936D01*
X8572753Y-13628936D02*
X8563229Y-13638460D01*
X8563229Y-13638460D02*
X8544182Y-13647984D01*
X8544182Y-13647984D02*
X8525134Y-13647984D01*
X8525134Y-13647984D02*
X8506087Y-13638460D01*
X8506087Y-13638460D02*
X8496563Y-13628936D01*
X8496563Y-13628936D02*
X8487039Y-13609888D01*
X8487039Y-13609888D02*
X8477515Y-13571793D01*
X8477515Y-13571793D02*
X8477515Y-13524174D01*
X8477515Y-13524174D02*
X8487039Y-13486079D01*
X8487039Y-13486079D02*
X8496563Y-13467031D01*
X8496563Y-13467031D02*
X8506087Y-13457508D01*
X8506087Y-13457508D02*
X8525134Y-13447984D01*
X8677515Y-13628936D02*
X8687039Y-13638460D01*
X8687039Y-13638460D02*
X8677515Y-13647984D01*
X8677515Y-13647984D02*
X8667991Y-13638460D01*
X8667991Y-13638460D02*
X8677515Y-13628936D01*
X8677515Y-13628936D02*
X8677515Y-13647984D01*
X8810848Y-13447984D02*
X8829896Y-13447984D01*
X8829896Y-13447984D02*
X8848944Y-13457508D01*
X8848944Y-13457508D02*
X8858468Y-13467031D01*
X8858468Y-13467031D02*
X8867991Y-13486079D01*
X8867991Y-13486079D02*
X8877515Y-13524174D01*
X8877515Y-13524174D02*
X8877515Y-13571793D01*
X8877515Y-13571793D02*
X8867991Y-13609888D01*
X8867991Y-13609888D02*
X8858468Y-13628936D01*
X8858468Y-13628936D02*
X8848944Y-13638460D01*
X8848944Y-13638460D02*
X8829896Y-13647984D01*
X8829896Y-13647984D02*
X8810848Y-13647984D01*
X8810848Y-13647984D02*
X8791801Y-13638460D01*
X8791801Y-13638460D02*
X8782277Y-13628936D01*
X8782277Y-13628936D02*
X8772753Y-13609888D01*
X8772753Y-13609888D02*
X8763229Y-13571793D01*
X8763229Y-13571793D02*
X8763229Y-13524174D01*
X8763229Y-13524174D02*
X8772753Y-13486079D01*
X8772753Y-13486079D02*
X8782277Y-13467031D01*
X8782277Y-13467031D02*
X8791801Y-13457508D01*
X8791801Y-13457508D02*
X8810848Y-13447984D01*
X9067991Y-13647984D02*
X8953706Y-13647984D01*
X9010848Y-13647984D02*
X9010848Y-13447984D01*
X9010848Y-13447984D02*
X8991801Y-13476555D01*
X8991801Y-13476555D02*
X8972753Y-13495603D01*
X8972753Y-13495603D02*
X8953706Y-13505127D01*
X9258468Y-13647984D02*
X9144182Y-13647984D01*
X9201325Y-13647984D02*
X9201325Y-13447984D01*
X9201325Y-13447984D02*
X9182277Y-13476555D01*
X9182277Y-13476555D02*
X9163229Y-13495603D01*
X9163229Y-13495603D02*
X9144182Y-13505127D01*
X9372753Y-13533698D02*
X9353706Y-13524174D01*
X9353706Y-13524174D02*
X9344182Y-13514650D01*
X9344182Y-13514650D02*
X9334658Y-13495603D01*
X9334658Y-13495603D02*
X9334658Y-13486079D01*
X9334658Y-13486079D02*
X9344182Y-13467031D01*
X9344182Y-13467031D02*
X9353706Y-13457508D01*
X9353706Y-13457508D02*
X9372753Y-13447984D01*
X9372753Y-13447984D02*
X9410849Y-13447984D01*
X9410849Y-13447984D02*
X9429896Y-13457508D01*
X9429896Y-13457508D02*
X9439420Y-13467031D01*
X9439420Y-13467031D02*
X9448944Y-13486079D01*
X9448944Y-13486079D02*
X9448944Y-13495603D01*
X9448944Y-13495603D02*
X9439420Y-13514650D01*
X9439420Y-13514650D02*
X9429896Y-13524174D01*
X9429896Y-13524174D02*
X9410849Y-13533698D01*
X9410849Y-13533698D02*
X9372753Y-13533698D01*
X9372753Y-13533698D02*
X9353706Y-13543222D01*
X9353706Y-13543222D02*
X9344182Y-13552746D01*
X9344182Y-13552746D02*
X9334658Y-13571793D01*
X9334658Y-13571793D02*
X9334658Y-13609888D01*
X9334658Y-13609888D02*
X9344182Y-13628936D01*
X9344182Y-13628936D02*
X9353706Y-13638460D01*
X9353706Y-13638460D02*
X9372753Y-13647984D01*
X9372753Y-13647984D02*
X9410849Y-13647984D01*
X9410849Y-13647984D02*
X9429896Y-13638460D01*
X9429896Y-13638460D02*
X9439420Y-13628936D01*
X9439420Y-13628936D02*
X9448944Y-13609888D01*
X9448944Y-13609888D02*
X9448944Y-13571793D01*
X9448944Y-13571793D02*
X9439420Y-13552746D01*
X9439420Y-13552746D02*
X9429896Y-13543222D01*
X9429896Y-13543222D02*
X9410849Y-13533698D01*
X9525134Y-13447984D02*
X9525134Y-13486079D01*
X9601325Y-13447984D02*
X9601325Y-13486079D01*
X9896563Y-13724174D02*
X9887039Y-13714650D01*
X9887039Y-13714650D02*
X9867991Y-13686079D01*
X9867991Y-13686079D02*
X9858468Y-13667031D01*
X9858468Y-13667031D02*
X9848944Y-13638460D01*
X9848944Y-13638460D02*
X9839420Y-13590841D01*
X9839420Y-13590841D02*
X9839420Y-13552746D01*
X9839420Y-13552746D02*
X9848944Y-13505127D01*
X9848944Y-13505127D02*
X9858468Y-13476555D01*
X9858468Y-13476555D02*
X9867991Y-13457508D01*
X9867991Y-13457508D02*
X9887039Y-13428936D01*
X9887039Y-13428936D02*
X9896563Y-13419412D01*
X9953706Y-13447984D02*
X10077515Y-13447984D01*
X10077515Y-13447984D02*
X10010849Y-13524174D01*
X10010849Y-13524174D02*
X10039420Y-13524174D01*
X10039420Y-13524174D02*
X10058468Y-13533698D01*
X10058468Y-13533698D02*
X10067991Y-13543222D01*
X10067991Y-13543222D02*
X10077515Y-13562269D01*
X10077515Y-13562269D02*
X10077515Y-13609888D01*
X10077515Y-13609888D02*
X10067991Y-13628936D01*
X10067991Y-13628936D02*
X10058468Y-13638460D01*
X10058468Y-13638460D02*
X10039420Y-13647984D01*
X10039420Y-13647984D02*
X9982277Y-13647984D01*
X9982277Y-13647984D02*
X9963230Y-13638460D01*
X9963230Y-13638460D02*
X9953706Y-13628936D01*
X10144182Y-13447984D02*
X10277515Y-13447984D01*
X10277515Y-13447984D02*
X10191801Y-13647984D01*
X10506087Y-13647984D02*
X10506087Y-13447984D01*
X10591801Y-13647984D02*
X10591801Y-13543222D01*
X10591801Y-13543222D02*
X10582277Y-13524174D01*
X10582277Y-13524174D02*
X10563230Y-13514650D01*
X10563230Y-13514650D02*
X10534658Y-13514650D01*
X10534658Y-13514650D02*
X10515611Y-13524174D01*
X10515611Y-13524174D02*
X10506087Y-13533698D01*
X10715611Y-13647984D02*
X10696563Y-13638460D01*
X10696563Y-13638460D02*
X10687039Y-13628936D01*
X10687039Y-13628936D02*
X10677515Y-13609888D01*
X10677515Y-13609888D02*
X10677515Y-13552746D01*
X10677515Y-13552746D02*
X10687039Y-13533698D01*
X10687039Y-13533698D02*
X10696563Y-13524174D01*
X10696563Y-13524174D02*
X10715611Y-13514650D01*
X10715611Y-13514650D02*
X10744182Y-13514650D01*
X10744182Y-13514650D02*
X10763230Y-13524174D01*
X10763230Y-13524174D02*
X10772753Y-13533698D01*
X10772753Y-13533698D02*
X10782277Y-13552746D01*
X10782277Y-13552746D02*
X10782277Y-13609888D01*
X10782277Y-13609888D02*
X10772753Y-13628936D01*
X10772753Y-13628936D02*
X10763230Y-13638460D01*
X10763230Y-13638460D02*
X10744182Y-13647984D01*
X10744182Y-13647984D02*
X10715611Y-13647984D01*
X10896563Y-13647984D02*
X10877515Y-13638460D01*
X10877515Y-13638460D02*
X10867992Y-13619412D01*
X10867992Y-13619412D02*
X10867992Y-13447984D01*
X11048944Y-13638460D02*
X11029896Y-13647984D01*
X11029896Y-13647984D02*
X10991801Y-13647984D01*
X10991801Y-13647984D02*
X10972753Y-13638460D01*
X10972753Y-13638460D02*
X10963230Y-13619412D01*
X10963230Y-13619412D02*
X10963230Y-13543222D01*
X10963230Y-13543222D02*
X10972753Y-13524174D01*
X10972753Y-13524174D02*
X10991801Y-13514650D01*
X10991801Y-13514650D02*
X11029896Y-13514650D01*
X11029896Y-13514650D02*
X11048944Y-13524174D01*
X11048944Y-13524174D02*
X11058468Y-13543222D01*
X11058468Y-13543222D02*
X11058468Y-13562269D01*
X11058468Y-13562269D02*
X10963230Y-13581317D01*
X11134658Y-13638460D02*
X11153706Y-13647984D01*
X11153706Y-13647984D02*
X11191801Y-13647984D01*
X11191801Y-13647984D02*
X11210849Y-13638460D01*
X11210849Y-13638460D02*
X11220372Y-13619412D01*
X11220372Y-13619412D02*
X11220372Y-13609888D01*
X11220372Y-13609888D02*
X11210849Y-13590841D01*
X11210849Y-13590841D02*
X11191801Y-13581317D01*
X11191801Y-13581317D02*
X11163230Y-13581317D01*
X11163230Y-13581317D02*
X11144182Y-13571793D01*
X11144182Y-13571793D02*
X11134658Y-13552746D01*
X11134658Y-13552746D02*
X11134658Y-13543222D01*
X11134658Y-13543222D02*
X11144182Y-13524174D01*
X11144182Y-13524174D02*
X11163230Y-13514650D01*
X11163230Y-13514650D02*
X11191801Y-13514650D01*
X11191801Y-13514650D02*
X11210849Y-13524174D01*
X11287039Y-13724174D02*
X11296563Y-13714650D01*
X11296563Y-13714650D02*
X11315611Y-13686079D01*
X11315611Y-13686079D02*
X11325134Y-13667031D01*
X11325134Y-13667031D02*
X11334658Y-13638460D01*
X11334658Y-13638460D02*
X11344182Y-13590841D01*
X11344182Y-13590841D02*
X11344182Y-13552746D01*
X11344182Y-13552746D02*
X11334658Y-13505127D01*
X11334658Y-13505127D02*
X11325134Y-13476555D01*
X11325134Y-13476555D02*
X11315611Y-13457508D01*
X11315611Y-13457508D02*
X11296563Y-13428936D01*
X11296563Y-13428936D02*
X11287039Y-13419412D01*
D12*
X6321500Y-13820500D02*
G75*
G02*
X6261500Y-13820500I-30000J0D01*
G01*
X6261500Y-13820500D02*
G75*
G02*
X6321500Y-13820500I30000J0D01*
G01*
D11*
X6620372Y-13711984D02*
X6639420Y-13711984D01*
X6639420Y-13711984D02*
X6658467Y-13721508D01*
X6658467Y-13721508D02*
X6667991Y-13731031D01*
X6667991Y-13731031D02*
X6677515Y-13750079D01*
X6677515Y-13750079D02*
X6687039Y-13788174D01*
X6687039Y-13788174D02*
X6687039Y-13835793D01*
X6687039Y-13835793D02*
X6677515Y-13873888D01*
X6677515Y-13873888D02*
X6667991Y-13892936D01*
X6667991Y-13892936D02*
X6658467Y-13902460D01*
X6658467Y-13902460D02*
X6639420Y-13911984D01*
X6639420Y-13911984D02*
X6620372Y-13911984D01*
X6620372Y-13911984D02*
X6601324Y-13902460D01*
X6601324Y-13902460D02*
X6591801Y-13892936D01*
X6591801Y-13892936D02*
X6582277Y-13873888D01*
X6582277Y-13873888D02*
X6572753Y-13835793D01*
X6572753Y-13835793D02*
X6572753Y-13788174D01*
X6572753Y-13788174D02*
X6582277Y-13750079D01*
X6582277Y-13750079D02*
X6591801Y-13731031D01*
X6591801Y-13731031D02*
X6601324Y-13721508D01*
X6601324Y-13721508D02*
X6620372Y-13711984D01*
X6772753Y-13892936D02*
X6782277Y-13902460D01*
X6782277Y-13902460D02*
X6772753Y-13911984D01*
X6772753Y-13911984D02*
X6763229Y-13902460D01*
X6763229Y-13902460D02*
X6772753Y-13892936D01*
X6772753Y-13892936D02*
X6772753Y-13911984D01*
X6953705Y-13711984D02*
X6915610Y-13711984D01*
X6915610Y-13711984D02*
X6896562Y-13721508D01*
X6896562Y-13721508D02*
X6887039Y-13731031D01*
X6887039Y-13731031D02*
X6867991Y-13759603D01*
X6867991Y-13759603D02*
X6858467Y-13797698D01*
X6858467Y-13797698D02*
X6858467Y-13873888D01*
X6858467Y-13873888D02*
X6867991Y-13892936D01*
X6867991Y-13892936D02*
X6877515Y-13902460D01*
X6877515Y-13902460D02*
X6896562Y-13911984D01*
X6896562Y-13911984D02*
X6934658Y-13911984D01*
X6934658Y-13911984D02*
X6953705Y-13902460D01*
X6953705Y-13902460D02*
X6963229Y-13892936D01*
X6963229Y-13892936D02*
X6972753Y-13873888D01*
X6972753Y-13873888D02*
X6972753Y-13826269D01*
X6972753Y-13826269D02*
X6963229Y-13807222D01*
X6963229Y-13807222D02*
X6953705Y-13797698D01*
X6953705Y-13797698D02*
X6934658Y-13788174D01*
X6934658Y-13788174D02*
X6896562Y-13788174D01*
X6896562Y-13788174D02*
X6877515Y-13797698D01*
X6877515Y-13797698D02*
X6867991Y-13807222D01*
X6867991Y-13807222D02*
X6858467Y-13826269D01*
X7096562Y-13711984D02*
X7115610Y-13711984D01*
X7115610Y-13711984D02*
X7134658Y-13721508D01*
X7134658Y-13721508D02*
X7144182Y-13731031D01*
X7144182Y-13731031D02*
X7153705Y-13750079D01*
X7153705Y-13750079D02*
X7163229Y-13788174D01*
X7163229Y-13788174D02*
X7163229Y-13835793D01*
X7163229Y-13835793D02*
X7153705Y-13873888D01*
X7153705Y-13873888D02*
X7144182Y-13892936D01*
X7144182Y-13892936D02*
X7134658Y-13902460D01*
X7134658Y-13902460D02*
X7115610Y-13911984D01*
X7115610Y-13911984D02*
X7096562Y-13911984D01*
X7096562Y-13911984D02*
X7077515Y-13902460D01*
X7077515Y-13902460D02*
X7067991Y-13892936D01*
X7067991Y-13892936D02*
X7058467Y-13873888D01*
X7058467Y-13873888D02*
X7048943Y-13835793D01*
X7048943Y-13835793D02*
X7048943Y-13788174D01*
X7048943Y-13788174D02*
X7058467Y-13750079D01*
X7058467Y-13750079D02*
X7067991Y-13731031D01*
X7067991Y-13731031D02*
X7077515Y-13721508D01*
X7077515Y-13721508D02*
X7096562Y-13711984D01*
X7287039Y-13711984D02*
X7306086Y-13711984D01*
X7306086Y-13711984D02*
X7325134Y-13721508D01*
X7325134Y-13721508D02*
X7334658Y-13731031D01*
X7334658Y-13731031D02*
X7344182Y-13750079D01*
X7344182Y-13750079D02*
X7353705Y-13788174D01*
X7353705Y-13788174D02*
X7353705Y-13835793D01*
X7353705Y-13835793D02*
X7344182Y-13873888D01*
X7344182Y-13873888D02*
X7334658Y-13892936D01*
X7334658Y-13892936D02*
X7325134Y-13902460D01*
X7325134Y-13902460D02*
X7306086Y-13911984D01*
X7306086Y-13911984D02*
X7287039Y-13911984D01*
X7287039Y-13911984D02*
X7267991Y-13902460D01*
X7267991Y-13902460D02*
X7258467Y-13892936D01*
X7258467Y-13892936D02*
X7248943Y-13873888D01*
X7248943Y-13873888D02*
X7239420Y-13835793D01*
X7239420Y-13835793D02*
X7239420Y-13788174D01*
X7239420Y-13788174D02*
X7248943Y-13750079D01*
X7248943Y-13750079D02*
X7258467Y-13731031D01*
X7258467Y-13731031D02*
X7267991Y-13721508D01*
X7267991Y-13721508D02*
X7287039Y-13711984D01*
X7439420Y-13911984D02*
X7439420Y-13778650D01*
X7439420Y-13797698D02*
X7448943Y-13788174D01*
X7448943Y-13788174D02*
X7467991Y-13778650D01*
X7467991Y-13778650D02*
X7496563Y-13778650D01*
X7496563Y-13778650D02*
X7515610Y-13788174D01*
X7515610Y-13788174D02*
X7525134Y-13807222D01*
X7525134Y-13807222D02*
X7525134Y-13911984D01*
X7525134Y-13807222D02*
X7534658Y-13788174D01*
X7534658Y-13788174D02*
X7553705Y-13778650D01*
X7553705Y-13778650D02*
X7582277Y-13778650D01*
X7582277Y-13778650D02*
X7601324Y-13788174D01*
X7601324Y-13788174D02*
X7610848Y-13807222D01*
X7610848Y-13807222D02*
X7610848Y-13911984D01*
X7706086Y-13911984D02*
X7706086Y-13778650D01*
X7706086Y-13797698D02*
X7715610Y-13788174D01*
X7715610Y-13788174D02*
X7734658Y-13778650D01*
X7734658Y-13778650D02*
X7763229Y-13778650D01*
X7763229Y-13778650D02*
X7782277Y-13788174D01*
X7782277Y-13788174D02*
X7791801Y-13807222D01*
X7791801Y-13807222D02*
X7791801Y-13911984D01*
X7791801Y-13807222D02*
X7801324Y-13788174D01*
X7801324Y-13788174D02*
X7820372Y-13778650D01*
X7820372Y-13778650D02*
X7848943Y-13778650D01*
X7848943Y-13778650D02*
X7867991Y-13788174D01*
X7867991Y-13788174D02*
X7877515Y-13807222D01*
X7877515Y-13807222D02*
X7877515Y-13911984D01*
X8267991Y-13702460D02*
X8096563Y-13959603D01*
X8525134Y-13711984D02*
X8544182Y-13711984D01*
X8544182Y-13711984D02*
X8563229Y-13721508D01*
X8563229Y-13721508D02*
X8572753Y-13731031D01*
X8572753Y-13731031D02*
X8582277Y-13750079D01*
X8582277Y-13750079D02*
X8591801Y-13788174D01*
X8591801Y-13788174D02*
X8591801Y-13835793D01*
X8591801Y-13835793D02*
X8582277Y-13873888D01*
X8582277Y-13873888D02*
X8572753Y-13892936D01*
X8572753Y-13892936D02*
X8563229Y-13902460D01*
X8563229Y-13902460D02*
X8544182Y-13911984D01*
X8544182Y-13911984D02*
X8525134Y-13911984D01*
X8525134Y-13911984D02*
X8506087Y-13902460D01*
X8506087Y-13902460D02*
X8496563Y-13892936D01*
X8496563Y-13892936D02*
X8487039Y-13873888D01*
X8487039Y-13873888D02*
X8477515Y-13835793D01*
X8477515Y-13835793D02*
X8477515Y-13788174D01*
X8477515Y-13788174D02*
X8487039Y-13750079D01*
X8487039Y-13750079D02*
X8496563Y-13731031D01*
X8496563Y-13731031D02*
X8506087Y-13721508D01*
X8506087Y-13721508D02*
X8525134Y-13711984D01*
X8677515Y-13892936D02*
X8687039Y-13902460D01*
X8687039Y-13902460D02*
X8677515Y-13911984D01*
X8677515Y-13911984D02*
X8667991Y-13902460D01*
X8667991Y-13902460D02*
X8677515Y-13892936D01*
X8677515Y-13892936D02*
X8677515Y-13911984D01*
X8810848Y-13711984D02*
X8829896Y-13711984D01*
X8829896Y-13711984D02*
X8848944Y-13721508D01*
X8848944Y-13721508D02*
X8858468Y-13731031D01*
X8858468Y-13731031D02*
X8867991Y-13750079D01*
X8867991Y-13750079D02*
X8877515Y-13788174D01*
X8877515Y-13788174D02*
X8877515Y-13835793D01*
X8877515Y-13835793D02*
X8867991Y-13873888D01*
X8867991Y-13873888D02*
X8858468Y-13892936D01*
X8858468Y-13892936D02*
X8848944Y-13902460D01*
X8848944Y-13902460D02*
X8829896Y-13911984D01*
X8829896Y-13911984D02*
X8810848Y-13911984D01*
X8810848Y-13911984D02*
X8791801Y-13902460D01*
X8791801Y-13902460D02*
X8782277Y-13892936D01*
X8782277Y-13892936D02*
X8772753Y-13873888D01*
X8772753Y-13873888D02*
X8763229Y-13835793D01*
X8763229Y-13835793D02*
X8763229Y-13788174D01*
X8763229Y-13788174D02*
X8772753Y-13750079D01*
X8772753Y-13750079D02*
X8782277Y-13731031D01*
X8782277Y-13731031D02*
X8791801Y-13721508D01*
X8791801Y-13721508D02*
X8810848Y-13711984D01*
X8953706Y-13731031D02*
X8963229Y-13721508D01*
X8963229Y-13721508D02*
X8982277Y-13711984D01*
X8982277Y-13711984D02*
X9029896Y-13711984D01*
X9029896Y-13711984D02*
X9048944Y-13721508D01*
X9048944Y-13721508D02*
X9058468Y-13731031D01*
X9058468Y-13731031D02*
X9067991Y-13750079D01*
X9067991Y-13750079D02*
X9067991Y-13769127D01*
X9067991Y-13769127D02*
X9058468Y-13797698D01*
X9058468Y-13797698D02*
X8944182Y-13911984D01*
X8944182Y-13911984D02*
X9067991Y-13911984D01*
X9134658Y-13711984D02*
X9258468Y-13711984D01*
X9258468Y-13711984D02*
X9191801Y-13788174D01*
X9191801Y-13788174D02*
X9220372Y-13788174D01*
X9220372Y-13788174D02*
X9239420Y-13797698D01*
X9239420Y-13797698D02*
X9248944Y-13807222D01*
X9248944Y-13807222D02*
X9258468Y-13826269D01*
X9258468Y-13826269D02*
X9258468Y-13873888D01*
X9258468Y-13873888D02*
X9248944Y-13892936D01*
X9248944Y-13892936D02*
X9239420Y-13902460D01*
X9239420Y-13902460D02*
X9220372Y-13911984D01*
X9220372Y-13911984D02*
X9163229Y-13911984D01*
X9163229Y-13911984D02*
X9144182Y-13902460D01*
X9144182Y-13902460D02*
X9134658Y-13892936D01*
X9429896Y-13711984D02*
X9391801Y-13711984D01*
X9391801Y-13711984D02*
X9372753Y-13721508D01*
X9372753Y-13721508D02*
X9363229Y-13731031D01*
X9363229Y-13731031D02*
X9344182Y-13759603D01*
X9344182Y-13759603D02*
X9334658Y-13797698D01*
X9334658Y-13797698D02*
X9334658Y-13873888D01*
X9334658Y-13873888D02*
X9344182Y-13892936D01*
X9344182Y-13892936D02*
X9353706Y-13902460D01*
X9353706Y-13902460D02*
X9372753Y-13911984D01*
X9372753Y-13911984D02*
X9410849Y-13911984D01*
X9410849Y-13911984D02*
X9429896Y-13902460D01*
X9429896Y-13902460D02*
X9439420Y-13892936D01*
X9439420Y-13892936D02*
X9448944Y-13873888D01*
X9448944Y-13873888D02*
X9448944Y-13826269D01*
X9448944Y-13826269D02*
X9439420Y-13807222D01*
X9439420Y-13807222D02*
X9429896Y-13797698D01*
X9429896Y-13797698D02*
X9410849Y-13788174D01*
X9410849Y-13788174D02*
X9372753Y-13788174D01*
X9372753Y-13788174D02*
X9353706Y-13797698D01*
X9353706Y-13797698D02*
X9344182Y-13807222D01*
X9344182Y-13807222D02*
X9334658Y-13826269D01*
X9525134Y-13711984D02*
X9525134Y-13750079D01*
X9601325Y-13711984D02*
X9601325Y-13750079D01*
X9896563Y-13988174D02*
X9887039Y-13978650D01*
X9887039Y-13978650D02*
X9867991Y-13950079D01*
X9867991Y-13950079D02*
X9858468Y-13931031D01*
X9858468Y-13931031D02*
X9848944Y-13902460D01*
X9848944Y-13902460D02*
X9839420Y-13854841D01*
X9839420Y-13854841D02*
X9839420Y-13816746D01*
X9839420Y-13816746D02*
X9848944Y-13769127D01*
X9848944Y-13769127D02*
X9858468Y-13740555D01*
X9858468Y-13740555D02*
X9867991Y-13721508D01*
X9867991Y-13721508D02*
X9887039Y-13692936D01*
X9887039Y-13692936D02*
X9896563Y-13683412D01*
X10010849Y-13711984D02*
X10029896Y-13711984D01*
X10029896Y-13711984D02*
X10048944Y-13721508D01*
X10048944Y-13721508D02*
X10058468Y-13731031D01*
X10058468Y-13731031D02*
X10067991Y-13750079D01*
X10067991Y-13750079D02*
X10077515Y-13788174D01*
X10077515Y-13788174D02*
X10077515Y-13835793D01*
X10077515Y-13835793D02*
X10067991Y-13873888D01*
X10067991Y-13873888D02*
X10058468Y-13892936D01*
X10058468Y-13892936D02*
X10048944Y-13902460D01*
X10048944Y-13902460D02*
X10029896Y-13911984D01*
X10029896Y-13911984D02*
X10010849Y-13911984D01*
X10010849Y-13911984D02*
X9991801Y-13902460D01*
X9991801Y-13902460D02*
X9982277Y-13892936D01*
X9982277Y-13892936D02*
X9972753Y-13873888D01*
X9972753Y-13873888D02*
X9963230Y-13835793D01*
X9963230Y-13835793D02*
X9963230Y-13788174D01*
X9963230Y-13788174D02*
X9972753Y-13750079D01*
X9972753Y-13750079D02*
X9982277Y-13731031D01*
X9982277Y-13731031D02*
X9991801Y-13721508D01*
X9991801Y-13721508D02*
X10010849Y-13711984D01*
X10315611Y-13911984D02*
X10315611Y-13711984D01*
X10401325Y-13911984D02*
X10401325Y-13807222D01*
X10401325Y-13807222D02*
X10391801Y-13788174D01*
X10391801Y-13788174D02*
X10372753Y-13778650D01*
X10372753Y-13778650D02*
X10344182Y-13778650D01*
X10344182Y-13778650D02*
X10325134Y-13788174D01*
X10325134Y-13788174D02*
X10315611Y-13797698D01*
X10525134Y-13911984D02*
X10506087Y-13902460D01*
X10506087Y-13902460D02*
X10496563Y-13892936D01*
X10496563Y-13892936D02*
X10487039Y-13873888D01*
X10487039Y-13873888D02*
X10487039Y-13816746D01*
X10487039Y-13816746D02*
X10496563Y-13797698D01*
X10496563Y-13797698D02*
X10506087Y-13788174D01*
X10506087Y-13788174D02*
X10525134Y-13778650D01*
X10525134Y-13778650D02*
X10553706Y-13778650D01*
X10553706Y-13778650D02*
X10572753Y-13788174D01*
X10572753Y-13788174D02*
X10582277Y-13797698D01*
X10582277Y-13797698D02*
X10591801Y-13816746D01*
X10591801Y-13816746D02*
X10591801Y-13873888D01*
X10591801Y-13873888D02*
X10582277Y-13892936D01*
X10582277Y-13892936D02*
X10572753Y-13902460D01*
X10572753Y-13902460D02*
X10553706Y-13911984D01*
X10553706Y-13911984D02*
X10525134Y-13911984D01*
X10706087Y-13911984D02*
X10687039Y-13902460D01*
X10687039Y-13902460D02*
X10677515Y-13883412D01*
X10677515Y-13883412D02*
X10677515Y-13711984D01*
X10858468Y-13902460D02*
X10839420Y-13911984D01*
X10839420Y-13911984D02*
X10801325Y-13911984D01*
X10801325Y-13911984D02*
X10782277Y-13902460D01*
X10782277Y-13902460D02*
X10772753Y-13883412D01*
X10772753Y-13883412D02*
X10772753Y-13807222D01*
X10772753Y-13807222D02*
X10782277Y-13788174D01*
X10782277Y-13788174D02*
X10801325Y-13778650D01*
X10801325Y-13778650D02*
X10839420Y-13778650D01*
X10839420Y-13778650D02*
X10858468Y-13788174D01*
X10858468Y-13788174D02*
X10867992Y-13807222D01*
X10867992Y-13807222D02*
X10867992Y-13826269D01*
X10867992Y-13826269D02*
X10772753Y-13845317D01*
X10944182Y-13902460D02*
X10963230Y-13911984D01*
X10963230Y-13911984D02*
X11001325Y-13911984D01*
X11001325Y-13911984D02*
X11020373Y-13902460D01*
X11020373Y-13902460D02*
X11029896Y-13883412D01*
X11029896Y-13883412D02*
X11029896Y-13873888D01*
X11029896Y-13873888D02*
X11020373Y-13854841D01*
X11020373Y-13854841D02*
X11001325Y-13845317D01*
X11001325Y-13845317D02*
X10972753Y-13845317D01*
X10972753Y-13845317D02*
X10953706Y-13835793D01*
X10953706Y-13835793D02*
X10944182Y-13816746D01*
X10944182Y-13816746D02*
X10944182Y-13807222D01*
X10944182Y-13807222D02*
X10953706Y-13788174D01*
X10953706Y-13788174D02*
X10972753Y-13778650D01*
X10972753Y-13778650D02*
X11001325Y-13778650D01*
X11001325Y-13778650D02*
X11020373Y-13788174D01*
X11267992Y-13835793D02*
X11420373Y-13835793D01*
X11344182Y-13911984D02*
X11344182Y-13759603D01*
X11658468Y-13731031D02*
X11667992Y-13721508D01*
X11667992Y-13721508D02*
X11687039Y-13711984D01*
X11687039Y-13711984D02*
X11734658Y-13711984D01*
X11734658Y-13711984D02*
X11753706Y-13721508D01*
X11753706Y-13721508D02*
X11763230Y-13731031D01*
X11763230Y-13731031D02*
X11772753Y-13750079D01*
X11772753Y-13750079D02*
X11772753Y-13769127D01*
X11772753Y-13769127D02*
X11763230Y-13797698D01*
X11763230Y-13797698D02*
X11648944Y-13911984D01*
X11648944Y-13911984D02*
X11772753Y-13911984D01*
X12001325Y-13902460D02*
X12020373Y-13911984D01*
X12020373Y-13911984D02*
X12058468Y-13911984D01*
X12058468Y-13911984D02*
X12077515Y-13902460D01*
X12077515Y-13902460D02*
X12087039Y-13883412D01*
X12087039Y-13883412D02*
X12087039Y-13873888D01*
X12087039Y-13873888D02*
X12077515Y-13854841D01*
X12077515Y-13854841D02*
X12058468Y-13845317D01*
X12058468Y-13845317D02*
X12029896Y-13845317D01*
X12029896Y-13845317D02*
X12010849Y-13835793D01*
X12010849Y-13835793D02*
X12001325Y-13816746D01*
X12001325Y-13816746D02*
X12001325Y-13807222D01*
X12001325Y-13807222D02*
X12010849Y-13788174D01*
X12010849Y-13788174D02*
X12029896Y-13778650D01*
X12029896Y-13778650D02*
X12058468Y-13778650D01*
X12058468Y-13778650D02*
X12077515Y-13788174D01*
X12201325Y-13911984D02*
X12182277Y-13902460D01*
X12182277Y-13902460D02*
X12172754Y-13883412D01*
X12172754Y-13883412D02*
X12172754Y-13711984D01*
X12306087Y-13911984D02*
X12287039Y-13902460D01*
X12287039Y-13902460D02*
X12277515Y-13892936D01*
X12277515Y-13892936D02*
X12267992Y-13873888D01*
X12267992Y-13873888D02*
X12267992Y-13816746D01*
X12267992Y-13816746D02*
X12277515Y-13797698D01*
X12277515Y-13797698D02*
X12287039Y-13788174D01*
X12287039Y-13788174D02*
X12306087Y-13778650D01*
X12306087Y-13778650D02*
X12334658Y-13778650D01*
X12334658Y-13778650D02*
X12353706Y-13788174D01*
X12353706Y-13788174D02*
X12363230Y-13797698D01*
X12363230Y-13797698D02*
X12372754Y-13816746D01*
X12372754Y-13816746D02*
X12372754Y-13873888D01*
X12372754Y-13873888D02*
X12363230Y-13892936D01*
X12363230Y-13892936D02*
X12353706Y-13902460D01*
X12353706Y-13902460D02*
X12334658Y-13911984D01*
X12334658Y-13911984D02*
X12306087Y-13911984D01*
X12429896Y-13778650D02*
X12506087Y-13778650D01*
X12458468Y-13711984D02*
X12458468Y-13883412D01*
X12458468Y-13883412D02*
X12467992Y-13902460D01*
X12467992Y-13902460D02*
X12487039Y-13911984D01*
X12487039Y-13911984D02*
X12506087Y-13911984D01*
X12563230Y-13902460D02*
X12582277Y-13911984D01*
X12582277Y-13911984D02*
X12620373Y-13911984D01*
X12620373Y-13911984D02*
X12639420Y-13902460D01*
X12639420Y-13902460D02*
X12648944Y-13883412D01*
X12648944Y-13883412D02*
X12648944Y-13873888D01*
X12648944Y-13873888D02*
X12639420Y-13854841D01*
X12639420Y-13854841D02*
X12620373Y-13845317D01*
X12620373Y-13845317D02*
X12591801Y-13845317D01*
X12591801Y-13845317D02*
X12572754Y-13835793D01*
X12572754Y-13835793D02*
X12563230Y-13816746D01*
X12563230Y-13816746D02*
X12563230Y-13807222D01*
X12563230Y-13807222D02*
X12572754Y-13788174D01*
X12572754Y-13788174D02*
X12591801Y-13778650D01*
X12591801Y-13778650D02*
X12620373Y-13778650D01*
X12620373Y-13778650D02*
X12639420Y-13788174D01*
X12715611Y-13988174D02*
X12725135Y-13978650D01*
X12725135Y-13978650D02*
X12744182Y-13950079D01*
X12744182Y-13950079D02*
X12753706Y-13931031D01*
X12753706Y-13931031D02*
X12763230Y-13902460D01*
X12763230Y-13902460D02*
X12772754Y-13854841D01*
X12772754Y-13854841D02*
X12772754Y-13816746D01*
X12772754Y-13816746D02*
X12763230Y-13769127D01*
X12763230Y-13769127D02*
X12753706Y-13740555D01*
X12753706Y-13740555D02*
X12744182Y-13721508D01*
X12744182Y-13721508D02*
X12725135Y-13692936D01*
X12725135Y-13692936D02*
X12715611Y-13683412D01*
D12*
X6279000Y-14042000D02*
X6279000Y-14127000D01*
X6236500Y-14084500D02*
X6321500Y-14084500D01*
D11*
X6620372Y-13975984D02*
X6639420Y-13975984D01*
X6639420Y-13975984D02*
X6658467Y-13985508D01*
X6658467Y-13985508D02*
X6667991Y-13995031D01*
X6667991Y-13995031D02*
X6677515Y-14014079D01*
X6677515Y-14014079D02*
X6687039Y-14052174D01*
X6687039Y-14052174D02*
X6687039Y-14099793D01*
X6687039Y-14099793D02*
X6677515Y-14137888D01*
X6677515Y-14137888D02*
X6667991Y-14156936D01*
X6667991Y-14156936D02*
X6658467Y-14166460D01*
X6658467Y-14166460D02*
X6639420Y-14175984D01*
X6639420Y-14175984D02*
X6620372Y-14175984D01*
X6620372Y-14175984D02*
X6601324Y-14166460D01*
X6601324Y-14166460D02*
X6591801Y-14156936D01*
X6591801Y-14156936D02*
X6582277Y-14137888D01*
X6582277Y-14137888D02*
X6572753Y-14099793D01*
X6572753Y-14099793D02*
X6572753Y-14052174D01*
X6572753Y-14052174D02*
X6582277Y-14014079D01*
X6582277Y-14014079D02*
X6591801Y-13995031D01*
X6591801Y-13995031D02*
X6601324Y-13985508D01*
X6601324Y-13985508D02*
X6620372Y-13975984D01*
X6772753Y-14156936D02*
X6782277Y-14166460D01*
X6782277Y-14166460D02*
X6772753Y-14175984D01*
X6772753Y-14175984D02*
X6763229Y-14166460D01*
X6763229Y-14166460D02*
X6772753Y-14156936D01*
X6772753Y-14156936D02*
X6772753Y-14175984D01*
X6896562Y-14061698D02*
X6877515Y-14052174D01*
X6877515Y-14052174D02*
X6867991Y-14042650D01*
X6867991Y-14042650D02*
X6858467Y-14023603D01*
X6858467Y-14023603D02*
X6858467Y-14014079D01*
X6858467Y-14014079D02*
X6867991Y-13995031D01*
X6867991Y-13995031D02*
X6877515Y-13985508D01*
X6877515Y-13985508D02*
X6896562Y-13975984D01*
X6896562Y-13975984D02*
X6934658Y-13975984D01*
X6934658Y-13975984D02*
X6953705Y-13985508D01*
X6953705Y-13985508D02*
X6963229Y-13995031D01*
X6963229Y-13995031D02*
X6972753Y-14014079D01*
X6972753Y-14014079D02*
X6972753Y-14023603D01*
X6972753Y-14023603D02*
X6963229Y-14042650D01*
X6963229Y-14042650D02*
X6953705Y-14052174D01*
X6953705Y-14052174D02*
X6934658Y-14061698D01*
X6934658Y-14061698D02*
X6896562Y-14061698D01*
X6896562Y-14061698D02*
X6877515Y-14071222D01*
X6877515Y-14071222D02*
X6867991Y-14080746D01*
X6867991Y-14080746D02*
X6858467Y-14099793D01*
X6858467Y-14099793D02*
X6858467Y-14137888D01*
X6858467Y-14137888D02*
X6867991Y-14156936D01*
X6867991Y-14156936D02*
X6877515Y-14166460D01*
X6877515Y-14166460D02*
X6896562Y-14175984D01*
X6896562Y-14175984D02*
X6934658Y-14175984D01*
X6934658Y-14175984D02*
X6953705Y-14166460D01*
X6953705Y-14166460D02*
X6963229Y-14156936D01*
X6963229Y-14156936D02*
X6972753Y-14137888D01*
X6972753Y-14137888D02*
X6972753Y-14099793D01*
X6972753Y-14099793D02*
X6963229Y-14080746D01*
X6963229Y-14080746D02*
X6953705Y-14071222D01*
X6953705Y-14071222D02*
X6934658Y-14061698D01*
X7153705Y-13975984D02*
X7058467Y-13975984D01*
X7058467Y-13975984D02*
X7048943Y-14071222D01*
X7048943Y-14071222D02*
X7058467Y-14061698D01*
X7058467Y-14061698D02*
X7077515Y-14052174D01*
X7077515Y-14052174D02*
X7125134Y-14052174D01*
X7125134Y-14052174D02*
X7144182Y-14061698D01*
X7144182Y-14061698D02*
X7153705Y-14071222D01*
X7153705Y-14071222D02*
X7163229Y-14090269D01*
X7163229Y-14090269D02*
X7163229Y-14137888D01*
X7163229Y-14137888D02*
X7153705Y-14156936D01*
X7153705Y-14156936D02*
X7144182Y-14166460D01*
X7144182Y-14166460D02*
X7125134Y-14175984D01*
X7125134Y-14175984D02*
X7077515Y-14175984D01*
X7077515Y-14175984D02*
X7058467Y-14166460D01*
X7058467Y-14166460D02*
X7048943Y-14156936D01*
X7287039Y-13975984D02*
X7306086Y-13975984D01*
X7306086Y-13975984D02*
X7325134Y-13985508D01*
X7325134Y-13985508D02*
X7334658Y-13995031D01*
X7334658Y-13995031D02*
X7344182Y-14014079D01*
X7344182Y-14014079D02*
X7353705Y-14052174D01*
X7353705Y-14052174D02*
X7353705Y-14099793D01*
X7353705Y-14099793D02*
X7344182Y-14137888D01*
X7344182Y-14137888D02*
X7334658Y-14156936D01*
X7334658Y-14156936D02*
X7325134Y-14166460D01*
X7325134Y-14166460D02*
X7306086Y-14175984D01*
X7306086Y-14175984D02*
X7287039Y-14175984D01*
X7287039Y-14175984D02*
X7267991Y-14166460D01*
X7267991Y-14166460D02*
X7258467Y-14156936D01*
X7258467Y-14156936D02*
X7248943Y-14137888D01*
X7248943Y-14137888D02*
X7239420Y-14099793D01*
X7239420Y-14099793D02*
X7239420Y-14052174D01*
X7239420Y-14052174D02*
X7248943Y-14014079D01*
X7248943Y-14014079D02*
X7258467Y-13995031D01*
X7258467Y-13995031D02*
X7267991Y-13985508D01*
X7267991Y-13985508D02*
X7287039Y-13975984D01*
X7439420Y-14175984D02*
X7439420Y-14042650D01*
X7439420Y-14061698D02*
X7448943Y-14052174D01*
X7448943Y-14052174D02*
X7467991Y-14042650D01*
X7467991Y-14042650D02*
X7496563Y-14042650D01*
X7496563Y-14042650D02*
X7515610Y-14052174D01*
X7515610Y-14052174D02*
X7525134Y-14071222D01*
X7525134Y-14071222D02*
X7525134Y-14175984D01*
X7525134Y-14071222D02*
X7534658Y-14052174D01*
X7534658Y-14052174D02*
X7553705Y-14042650D01*
X7553705Y-14042650D02*
X7582277Y-14042650D01*
X7582277Y-14042650D02*
X7601324Y-14052174D01*
X7601324Y-14052174D02*
X7610848Y-14071222D01*
X7610848Y-14071222D02*
X7610848Y-14175984D01*
X7706086Y-14175984D02*
X7706086Y-14042650D01*
X7706086Y-14061698D02*
X7715610Y-14052174D01*
X7715610Y-14052174D02*
X7734658Y-14042650D01*
X7734658Y-14042650D02*
X7763229Y-14042650D01*
X7763229Y-14042650D02*
X7782277Y-14052174D01*
X7782277Y-14052174D02*
X7791801Y-14071222D01*
X7791801Y-14071222D02*
X7791801Y-14175984D01*
X7791801Y-14071222D02*
X7801324Y-14052174D01*
X7801324Y-14052174D02*
X7820372Y-14042650D01*
X7820372Y-14042650D02*
X7848943Y-14042650D01*
X7848943Y-14042650D02*
X7867991Y-14052174D01*
X7867991Y-14052174D02*
X7877515Y-14071222D01*
X7877515Y-14071222D02*
X7877515Y-14175984D01*
X8267991Y-13966460D02*
X8096563Y-14223603D01*
X8525134Y-13975984D02*
X8544182Y-13975984D01*
X8544182Y-13975984D02*
X8563229Y-13985508D01*
X8563229Y-13985508D02*
X8572753Y-13995031D01*
X8572753Y-13995031D02*
X8582277Y-14014079D01*
X8582277Y-14014079D02*
X8591801Y-14052174D01*
X8591801Y-14052174D02*
X8591801Y-14099793D01*
X8591801Y-14099793D02*
X8582277Y-14137888D01*
X8582277Y-14137888D02*
X8572753Y-14156936D01*
X8572753Y-14156936D02*
X8563229Y-14166460D01*
X8563229Y-14166460D02*
X8544182Y-14175984D01*
X8544182Y-14175984D02*
X8525134Y-14175984D01*
X8525134Y-14175984D02*
X8506087Y-14166460D01*
X8506087Y-14166460D02*
X8496563Y-14156936D01*
X8496563Y-14156936D02*
X8487039Y-14137888D01*
X8487039Y-14137888D02*
X8477515Y-14099793D01*
X8477515Y-14099793D02*
X8477515Y-14052174D01*
X8477515Y-14052174D02*
X8487039Y-14014079D01*
X8487039Y-14014079D02*
X8496563Y-13995031D01*
X8496563Y-13995031D02*
X8506087Y-13985508D01*
X8506087Y-13985508D02*
X8525134Y-13975984D01*
X8677515Y-14156936D02*
X8687039Y-14166460D01*
X8687039Y-14166460D02*
X8677515Y-14175984D01*
X8677515Y-14175984D02*
X8667991Y-14166460D01*
X8667991Y-14166460D02*
X8677515Y-14156936D01*
X8677515Y-14156936D02*
X8677515Y-14175984D01*
X8810848Y-13975984D02*
X8829896Y-13975984D01*
X8829896Y-13975984D02*
X8848944Y-13985508D01*
X8848944Y-13985508D02*
X8858468Y-13995031D01*
X8858468Y-13995031D02*
X8867991Y-14014079D01*
X8867991Y-14014079D02*
X8877515Y-14052174D01*
X8877515Y-14052174D02*
X8877515Y-14099793D01*
X8877515Y-14099793D02*
X8867991Y-14137888D01*
X8867991Y-14137888D02*
X8858468Y-14156936D01*
X8858468Y-14156936D02*
X8848944Y-14166460D01*
X8848944Y-14166460D02*
X8829896Y-14175984D01*
X8829896Y-14175984D02*
X8810848Y-14175984D01*
X8810848Y-14175984D02*
X8791801Y-14166460D01*
X8791801Y-14166460D02*
X8782277Y-14156936D01*
X8782277Y-14156936D02*
X8772753Y-14137888D01*
X8772753Y-14137888D02*
X8763229Y-14099793D01*
X8763229Y-14099793D02*
X8763229Y-14052174D01*
X8763229Y-14052174D02*
X8772753Y-14014079D01*
X8772753Y-14014079D02*
X8782277Y-13995031D01*
X8782277Y-13995031D02*
X8791801Y-13985508D01*
X8791801Y-13985508D02*
X8810848Y-13975984D01*
X8944182Y-13975984D02*
X9067991Y-13975984D01*
X9067991Y-13975984D02*
X9001325Y-14052174D01*
X9001325Y-14052174D02*
X9029896Y-14052174D01*
X9029896Y-14052174D02*
X9048944Y-14061698D01*
X9048944Y-14061698D02*
X9058468Y-14071222D01*
X9058468Y-14071222D02*
X9067991Y-14090269D01*
X9067991Y-14090269D02*
X9067991Y-14137888D01*
X9067991Y-14137888D02*
X9058468Y-14156936D01*
X9058468Y-14156936D02*
X9048944Y-14166460D01*
X9048944Y-14166460D02*
X9029896Y-14175984D01*
X9029896Y-14175984D02*
X8972753Y-14175984D01*
X8972753Y-14175984D02*
X8953706Y-14166460D01*
X8953706Y-14166460D02*
X8944182Y-14156936D01*
X9134658Y-13975984D02*
X9258468Y-13975984D01*
X9258468Y-13975984D02*
X9191801Y-14052174D01*
X9191801Y-14052174D02*
X9220372Y-14052174D01*
X9220372Y-14052174D02*
X9239420Y-14061698D01*
X9239420Y-14061698D02*
X9248944Y-14071222D01*
X9248944Y-14071222D02*
X9258468Y-14090269D01*
X9258468Y-14090269D02*
X9258468Y-14137888D01*
X9258468Y-14137888D02*
X9248944Y-14156936D01*
X9248944Y-14156936D02*
X9239420Y-14166460D01*
X9239420Y-14166460D02*
X9220372Y-14175984D01*
X9220372Y-14175984D02*
X9163229Y-14175984D01*
X9163229Y-14175984D02*
X9144182Y-14166460D01*
X9144182Y-14166460D02*
X9134658Y-14156936D01*
X9439420Y-13975984D02*
X9344182Y-13975984D01*
X9344182Y-13975984D02*
X9334658Y-14071222D01*
X9334658Y-14071222D02*
X9344182Y-14061698D01*
X9344182Y-14061698D02*
X9363229Y-14052174D01*
X9363229Y-14052174D02*
X9410849Y-14052174D01*
X9410849Y-14052174D02*
X9429896Y-14061698D01*
X9429896Y-14061698D02*
X9439420Y-14071222D01*
X9439420Y-14071222D02*
X9448944Y-14090269D01*
X9448944Y-14090269D02*
X9448944Y-14137888D01*
X9448944Y-14137888D02*
X9439420Y-14156936D01*
X9439420Y-14156936D02*
X9429896Y-14166460D01*
X9429896Y-14166460D02*
X9410849Y-14175984D01*
X9410849Y-14175984D02*
X9363229Y-14175984D01*
X9363229Y-14175984D02*
X9344182Y-14166460D01*
X9344182Y-14166460D02*
X9334658Y-14156936D01*
X9525134Y-13975984D02*
X9525134Y-14014079D01*
X9601325Y-13975984D02*
X9601325Y-14014079D01*
X9896563Y-14252174D02*
X9887039Y-14242650D01*
X9887039Y-14242650D02*
X9867991Y-14214079D01*
X9867991Y-14214079D02*
X9858468Y-14195031D01*
X9858468Y-14195031D02*
X9848944Y-14166460D01*
X9848944Y-14166460D02*
X9839420Y-14118841D01*
X9839420Y-14118841D02*
X9839420Y-14080746D01*
X9839420Y-14080746D02*
X9848944Y-14033127D01*
X9848944Y-14033127D02*
X9858468Y-14004555D01*
X9858468Y-14004555D02*
X9867991Y-13985508D01*
X9867991Y-13985508D02*
X9887039Y-13956936D01*
X9887039Y-13956936D02*
X9896563Y-13947412D01*
X9963230Y-13995031D02*
X9972753Y-13985508D01*
X9972753Y-13985508D02*
X9991801Y-13975984D01*
X9991801Y-13975984D02*
X10039420Y-13975984D01*
X10039420Y-13975984D02*
X10058468Y-13985508D01*
X10058468Y-13985508D02*
X10067991Y-13995031D01*
X10067991Y-13995031D02*
X10077515Y-14014079D01*
X10077515Y-14014079D02*
X10077515Y-14033127D01*
X10077515Y-14033127D02*
X10067991Y-14061698D01*
X10067991Y-14061698D02*
X9953706Y-14175984D01*
X9953706Y-14175984D02*
X10077515Y-14175984D01*
X10315611Y-14175984D02*
X10315611Y-13975984D01*
X10401325Y-14175984D02*
X10401325Y-14071222D01*
X10401325Y-14071222D02*
X10391801Y-14052174D01*
X10391801Y-14052174D02*
X10372753Y-14042650D01*
X10372753Y-14042650D02*
X10344182Y-14042650D01*
X10344182Y-14042650D02*
X10325134Y-14052174D01*
X10325134Y-14052174D02*
X10315611Y-14061698D01*
X10525134Y-14175984D02*
X10506087Y-14166460D01*
X10506087Y-14166460D02*
X10496563Y-14156936D01*
X10496563Y-14156936D02*
X10487039Y-14137888D01*
X10487039Y-14137888D02*
X10487039Y-14080746D01*
X10487039Y-14080746D02*
X10496563Y-14061698D01*
X10496563Y-14061698D02*
X10506087Y-14052174D01*
X10506087Y-14052174D02*
X10525134Y-14042650D01*
X10525134Y-14042650D02*
X10553706Y-14042650D01*
X10553706Y-14042650D02*
X10572753Y-14052174D01*
X10572753Y-14052174D02*
X10582277Y-14061698D01*
X10582277Y-14061698D02*
X10591801Y-14080746D01*
X10591801Y-14080746D02*
X10591801Y-14137888D01*
X10591801Y-14137888D02*
X10582277Y-14156936D01*
X10582277Y-14156936D02*
X10572753Y-14166460D01*
X10572753Y-14166460D02*
X10553706Y-14175984D01*
X10553706Y-14175984D02*
X10525134Y-14175984D01*
X10706087Y-14175984D02*
X10687039Y-14166460D01*
X10687039Y-14166460D02*
X10677515Y-14147412D01*
X10677515Y-14147412D02*
X10677515Y-13975984D01*
X10858468Y-14166460D02*
X10839420Y-14175984D01*
X10839420Y-14175984D02*
X10801325Y-14175984D01*
X10801325Y-14175984D02*
X10782277Y-14166460D01*
X10782277Y-14166460D02*
X10772753Y-14147412D01*
X10772753Y-14147412D02*
X10772753Y-14071222D01*
X10772753Y-14071222D02*
X10782277Y-14052174D01*
X10782277Y-14052174D02*
X10801325Y-14042650D01*
X10801325Y-14042650D02*
X10839420Y-14042650D01*
X10839420Y-14042650D02*
X10858468Y-14052174D01*
X10858468Y-14052174D02*
X10867992Y-14071222D01*
X10867992Y-14071222D02*
X10867992Y-14090269D01*
X10867992Y-14090269D02*
X10772753Y-14109317D01*
X10944182Y-14166460D02*
X10963230Y-14175984D01*
X10963230Y-14175984D02*
X11001325Y-14175984D01*
X11001325Y-14175984D02*
X11020373Y-14166460D01*
X11020373Y-14166460D02*
X11029896Y-14147412D01*
X11029896Y-14147412D02*
X11029896Y-14137888D01*
X11029896Y-14137888D02*
X11020373Y-14118841D01*
X11020373Y-14118841D02*
X11001325Y-14109317D01*
X11001325Y-14109317D02*
X10972753Y-14109317D01*
X10972753Y-14109317D02*
X10953706Y-14099793D01*
X10953706Y-14099793D02*
X10944182Y-14080746D01*
X10944182Y-14080746D02*
X10944182Y-14071222D01*
X10944182Y-14071222D02*
X10953706Y-14052174D01*
X10953706Y-14052174D02*
X10972753Y-14042650D01*
X10972753Y-14042650D02*
X11001325Y-14042650D01*
X11001325Y-14042650D02*
X11020373Y-14052174D01*
X11096563Y-14252174D02*
X11106087Y-14242650D01*
X11106087Y-14242650D02*
X11125134Y-14214079D01*
X11125134Y-14214079D02*
X11134658Y-14195031D01*
X11134658Y-14195031D02*
X11144182Y-14166460D01*
X11144182Y-14166460D02*
X11153706Y-14118841D01*
X11153706Y-14118841D02*
X11153706Y-14080746D01*
X11153706Y-14080746D02*
X11144182Y-14033127D01*
X11144182Y-14033127D02*
X11134658Y-14004555D01*
X11134658Y-14004555D02*
X11125134Y-13985508D01*
X11125134Y-13985508D02*
X11106087Y-13956936D01*
X11106087Y-13956936D02*
X11096563Y-13947412D01*
D12*
X6307588Y-14382088D02*
X6307588Y-14314912D01*
X6240412Y-14314912D01*
X6240412Y-14382088D01*
X6307588Y-14382088D01*
D11*
X6620372Y-14239984D02*
X6639420Y-14239984D01*
X6639420Y-14239984D02*
X6658467Y-14249508D01*
X6658467Y-14249508D02*
X6667991Y-14259031D01*
X6667991Y-14259031D02*
X6677515Y-14278079D01*
X6677515Y-14278079D02*
X6687039Y-14316174D01*
X6687039Y-14316174D02*
X6687039Y-14363793D01*
X6687039Y-14363793D02*
X6677515Y-14401888D01*
X6677515Y-14401888D02*
X6667991Y-14420936D01*
X6667991Y-14420936D02*
X6658467Y-14430460D01*
X6658467Y-14430460D02*
X6639420Y-14439984D01*
X6639420Y-14439984D02*
X6620372Y-14439984D01*
X6620372Y-14439984D02*
X6601324Y-14430460D01*
X6601324Y-14430460D02*
X6591801Y-14420936D01*
X6591801Y-14420936D02*
X6582277Y-14401888D01*
X6582277Y-14401888D02*
X6572753Y-14363793D01*
X6572753Y-14363793D02*
X6572753Y-14316174D01*
X6572753Y-14316174D02*
X6582277Y-14278079D01*
X6582277Y-14278079D02*
X6591801Y-14259031D01*
X6591801Y-14259031D02*
X6601324Y-14249508D01*
X6601324Y-14249508D02*
X6620372Y-14239984D01*
X6772753Y-14420936D02*
X6782277Y-14430460D01*
X6782277Y-14430460D02*
X6772753Y-14439984D01*
X6772753Y-14439984D02*
X6763229Y-14430460D01*
X6763229Y-14430460D02*
X6772753Y-14420936D01*
X6772753Y-14420936D02*
X6772753Y-14439984D01*
X6877515Y-14439984D02*
X6915610Y-14439984D01*
X6915610Y-14439984D02*
X6934658Y-14430460D01*
X6934658Y-14430460D02*
X6944182Y-14420936D01*
X6944182Y-14420936D02*
X6963229Y-14392365D01*
X6963229Y-14392365D02*
X6972753Y-14354269D01*
X6972753Y-14354269D02*
X6972753Y-14278079D01*
X6972753Y-14278079D02*
X6963229Y-14259031D01*
X6963229Y-14259031D02*
X6953705Y-14249508D01*
X6953705Y-14249508D02*
X6934658Y-14239984D01*
X6934658Y-14239984D02*
X6896562Y-14239984D01*
X6896562Y-14239984D02*
X6877515Y-14249508D01*
X6877515Y-14249508D02*
X6867991Y-14259031D01*
X6867991Y-14259031D02*
X6858467Y-14278079D01*
X6858467Y-14278079D02*
X6858467Y-14325698D01*
X6858467Y-14325698D02*
X6867991Y-14344746D01*
X6867991Y-14344746D02*
X6877515Y-14354269D01*
X6877515Y-14354269D02*
X6896562Y-14363793D01*
X6896562Y-14363793D02*
X6934658Y-14363793D01*
X6934658Y-14363793D02*
X6953705Y-14354269D01*
X6953705Y-14354269D02*
X6963229Y-14344746D01*
X6963229Y-14344746D02*
X6972753Y-14325698D01*
X7153705Y-14239984D02*
X7058467Y-14239984D01*
X7058467Y-14239984D02*
X7048943Y-14335222D01*
X7048943Y-14335222D02*
X7058467Y-14325698D01*
X7058467Y-14325698D02*
X7077515Y-14316174D01*
X7077515Y-14316174D02*
X7125134Y-14316174D01*
X7125134Y-14316174D02*
X7144182Y-14325698D01*
X7144182Y-14325698D02*
X7153705Y-14335222D01*
X7153705Y-14335222D02*
X7163229Y-14354269D01*
X7163229Y-14354269D02*
X7163229Y-14401888D01*
X7163229Y-14401888D02*
X7153705Y-14420936D01*
X7153705Y-14420936D02*
X7144182Y-14430460D01*
X7144182Y-14430460D02*
X7125134Y-14439984D01*
X7125134Y-14439984D02*
X7077515Y-14439984D01*
X7077515Y-14439984D02*
X7058467Y-14430460D01*
X7058467Y-14430460D02*
X7048943Y-14420936D01*
X7287039Y-14239984D02*
X7306086Y-14239984D01*
X7306086Y-14239984D02*
X7325134Y-14249508D01*
X7325134Y-14249508D02*
X7334658Y-14259031D01*
X7334658Y-14259031D02*
X7344182Y-14278079D01*
X7344182Y-14278079D02*
X7353705Y-14316174D01*
X7353705Y-14316174D02*
X7353705Y-14363793D01*
X7353705Y-14363793D02*
X7344182Y-14401888D01*
X7344182Y-14401888D02*
X7334658Y-14420936D01*
X7334658Y-14420936D02*
X7325134Y-14430460D01*
X7325134Y-14430460D02*
X7306086Y-14439984D01*
X7306086Y-14439984D02*
X7287039Y-14439984D01*
X7287039Y-14439984D02*
X7267991Y-14430460D01*
X7267991Y-14430460D02*
X7258467Y-14420936D01*
X7258467Y-14420936D02*
X7248943Y-14401888D01*
X7248943Y-14401888D02*
X7239420Y-14363793D01*
X7239420Y-14363793D02*
X7239420Y-14316174D01*
X7239420Y-14316174D02*
X7248943Y-14278079D01*
X7248943Y-14278079D02*
X7258467Y-14259031D01*
X7258467Y-14259031D02*
X7267991Y-14249508D01*
X7267991Y-14249508D02*
X7287039Y-14239984D01*
X7439420Y-14439984D02*
X7439420Y-14306650D01*
X7439420Y-14325698D02*
X7448943Y-14316174D01*
X7448943Y-14316174D02*
X7467991Y-14306650D01*
X7467991Y-14306650D02*
X7496563Y-14306650D01*
X7496563Y-14306650D02*
X7515610Y-14316174D01*
X7515610Y-14316174D02*
X7525134Y-14335222D01*
X7525134Y-14335222D02*
X7525134Y-14439984D01*
X7525134Y-14335222D02*
X7534658Y-14316174D01*
X7534658Y-14316174D02*
X7553705Y-14306650D01*
X7553705Y-14306650D02*
X7582277Y-14306650D01*
X7582277Y-14306650D02*
X7601324Y-14316174D01*
X7601324Y-14316174D02*
X7610848Y-14335222D01*
X7610848Y-14335222D02*
X7610848Y-14439984D01*
X7706086Y-14439984D02*
X7706086Y-14306650D01*
X7706086Y-14325698D02*
X7715610Y-14316174D01*
X7715610Y-14316174D02*
X7734658Y-14306650D01*
X7734658Y-14306650D02*
X7763229Y-14306650D01*
X7763229Y-14306650D02*
X7782277Y-14316174D01*
X7782277Y-14316174D02*
X7791801Y-14335222D01*
X7791801Y-14335222D02*
X7791801Y-14439984D01*
X7791801Y-14335222D02*
X7801324Y-14316174D01*
X7801324Y-14316174D02*
X7820372Y-14306650D01*
X7820372Y-14306650D02*
X7848943Y-14306650D01*
X7848943Y-14306650D02*
X7867991Y-14316174D01*
X7867991Y-14316174D02*
X7877515Y-14335222D01*
X7877515Y-14335222D02*
X7877515Y-14439984D01*
X8267991Y-14230460D02*
X8096563Y-14487603D01*
X8525134Y-14239984D02*
X8544182Y-14239984D01*
X8544182Y-14239984D02*
X8563229Y-14249508D01*
X8563229Y-14249508D02*
X8572753Y-14259031D01*
X8572753Y-14259031D02*
X8582277Y-14278079D01*
X8582277Y-14278079D02*
X8591801Y-14316174D01*
X8591801Y-14316174D02*
X8591801Y-14363793D01*
X8591801Y-14363793D02*
X8582277Y-14401888D01*
X8582277Y-14401888D02*
X8572753Y-14420936D01*
X8572753Y-14420936D02*
X8563229Y-14430460D01*
X8563229Y-14430460D02*
X8544182Y-14439984D01*
X8544182Y-14439984D02*
X8525134Y-14439984D01*
X8525134Y-14439984D02*
X8506087Y-14430460D01*
X8506087Y-14430460D02*
X8496563Y-14420936D01*
X8496563Y-14420936D02*
X8487039Y-14401888D01*
X8487039Y-14401888D02*
X8477515Y-14363793D01*
X8477515Y-14363793D02*
X8477515Y-14316174D01*
X8477515Y-14316174D02*
X8487039Y-14278079D01*
X8487039Y-14278079D02*
X8496563Y-14259031D01*
X8496563Y-14259031D02*
X8506087Y-14249508D01*
X8506087Y-14249508D02*
X8525134Y-14239984D01*
X8677515Y-14420936D02*
X8687039Y-14430460D01*
X8687039Y-14430460D02*
X8677515Y-14439984D01*
X8677515Y-14439984D02*
X8667991Y-14430460D01*
X8667991Y-14430460D02*
X8677515Y-14420936D01*
X8677515Y-14420936D02*
X8677515Y-14439984D01*
X8810848Y-14239984D02*
X8829896Y-14239984D01*
X8829896Y-14239984D02*
X8848944Y-14249508D01*
X8848944Y-14249508D02*
X8858468Y-14259031D01*
X8858468Y-14259031D02*
X8867991Y-14278079D01*
X8867991Y-14278079D02*
X8877515Y-14316174D01*
X8877515Y-14316174D02*
X8877515Y-14363793D01*
X8877515Y-14363793D02*
X8867991Y-14401888D01*
X8867991Y-14401888D02*
X8858468Y-14420936D01*
X8858468Y-14420936D02*
X8848944Y-14430460D01*
X8848944Y-14430460D02*
X8829896Y-14439984D01*
X8829896Y-14439984D02*
X8810848Y-14439984D01*
X8810848Y-14439984D02*
X8791801Y-14430460D01*
X8791801Y-14430460D02*
X8782277Y-14420936D01*
X8782277Y-14420936D02*
X8772753Y-14401888D01*
X8772753Y-14401888D02*
X8763229Y-14363793D01*
X8763229Y-14363793D02*
X8763229Y-14316174D01*
X8763229Y-14316174D02*
X8772753Y-14278079D01*
X8772753Y-14278079D02*
X8782277Y-14259031D01*
X8782277Y-14259031D02*
X8791801Y-14249508D01*
X8791801Y-14249508D02*
X8810848Y-14239984D01*
X8944182Y-14239984D02*
X9067991Y-14239984D01*
X9067991Y-14239984D02*
X9001325Y-14316174D01*
X9001325Y-14316174D02*
X9029896Y-14316174D01*
X9029896Y-14316174D02*
X9048944Y-14325698D01*
X9048944Y-14325698D02*
X9058468Y-14335222D01*
X9058468Y-14335222D02*
X9067991Y-14354269D01*
X9067991Y-14354269D02*
X9067991Y-14401888D01*
X9067991Y-14401888D02*
X9058468Y-14420936D01*
X9058468Y-14420936D02*
X9048944Y-14430460D01*
X9048944Y-14430460D02*
X9029896Y-14439984D01*
X9029896Y-14439984D02*
X8972753Y-14439984D01*
X8972753Y-14439984D02*
X8953706Y-14430460D01*
X8953706Y-14430460D02*
X8944182Y-14420936D01*
X9134658Y-14239984D02*
X9267991Y-14239984D01*
X9267991Y-14239984D02*
X9182277Y-14439984D01*
X9429896Y-14306650D02*
X9429896Y-14439984D01*
X9382277Y-14230460D02*
X9334658Y-14373317D01*
X9334658Y-14373317D02*
X9458468Y-14373317D01*
X9525134Y-14239984D02*
X9525134Y-14278079D01*
X9601325Y-14239984D02*
X9601325Y-14278079D01*
X9896563Y-14516174D02*
X9887039Y-14506650D01*
X9887039Y-14506650D02*
X9867991Y-14478079D01*
X9867991Y-14478079D02*
X9858468Y-14459031D01*
X9858468Y-14459031D02*
X9848944Y-14430460D01*
X9848944Y-14430460D02*
X9839420Y-14382841D01*
X9839420Y-14382841D02*
X9839420Y-14344746D01*
X9839420Y-14344746D02*
X9848944Y-14297127D01*
X9848944Y-14297127D02*
X9858468Y-14268555D01*
X9858468Y-14268555D02*
X9867991Y-14249508D01*
X9867991Y-14249508D02*
X9887039Y-14220936D01*
X9887039Y-14220936D02*
X9896563Y-14211412D01*
X10058468Y-14306650D02*
X10058468Y-14439984D01*
X10010849Y-14230460D02*
X9963230Y-14373317D01*
X9963230Y-14373317D02*
X10087039Y-14373317D01*
X10315611Y-14439984D02*
X10315611Y-14239984D01*
X10401325Y-14439984D02*
X10401325Y-14335222D01*
X10401325Y-14335222D02*
X10391801Y-14316174D01*
X10391801Y-14316174D02*
X10372753Y-14306650D01*
X10372753Y-14306650D02*
X10344182Y-14306650D01*
X10344182Y-14306650D02*
X10325134Y-14316174D01*
X10325134Y-14316174D02*
X10315611Y-14325698D01*
X10525134Y-14439984D02*
X10506087Y-14430460D01*
X10506087Y-14430460D02*
X10496563Y-14420936D01*
X10496563Y-14420936D02*
X10487039Y-14401888D01*
X10487039Y-14401888D02*
X10487039Y-14344746D01*
X10487039Y-14344746D02*
X10496563Y-14325698D01*
X10496563Y-14325698D02*
X10506087Y-14316174D01*
X10506087Y-14316174D02*
X10525134Y-14306650D01*
X10525134Y-14306650D02*
X10553706Y-14306650D01*
X10553706Y-14306650D02*
X10572753Y-14316174D01*
X10572753Y-14316174D02*
X10582277Y-14325698D01*
X10582277Y-14325698D02*
X10591801Y-14344746D01*
X10591801Y-14344746D02*
X10591801Y-14401888D01*
X10591801Y-14401888D02*
X10582277Y-14420936D01*
X10582277Y-14420936D02*
X10572753Y-14430460D01*
X10572753Y-14430460D02*
X10553706Y-14439984D01*
X10553706Y-14439984D02*
X10525134Y-14439984D01*
X10706087Y-14439984D02*
X10687039Y-14430460D01*
X10687039Y-14430460D02*
X10677515Y-14411412D01*
X10677515Y-14411412D02*
X10677515Y-14239984D01*
X10858468Y-14430460D02*
X10839420Y-14439984D01*
X10839420Y-14439984D02*
X10801325Y-14439984D01*
X10801325Y-14439984D02*
X10782277Y-14430460D01*
X10782277Y-14430460D02*
X10772753Y-14411412D01*
X10772753Y-14411412D02*
X10772753Y-14335222D01*
X10772753Y-14335222D02*
X10782277Y-14316174D01*
X10782277Y-14316174D02*
X10801325Y-14306650D01*
X10801325Y-14306650D02*
X10839420Y-14306650D01*
X10839420Y-14306650D02*
X10858468Y-14316174D01*
X10858468Y-14316174D02*
X10867992Y-14335222D01*
X10867992Y-14335222D02*
X10867992Y-14354269D01*
X10867992Y-14354269D02*
X10772753Y-14373317D01*
X10944182Y-14430460D02*
X10963230Y-14439984D01*
X10963230Y-14439984D02*
X11001325Y-14439984D01*
X11001325Y-14439984D02*
X11020373Y-14430460D01*
X11020373Y-14430460D02*
X11029896Y-14411412D01*
X11029896Y-14411412D02*
X11029896Y-14401888D01*
X11029896Y-14401888D02*
X11020373Y-14382841D01*
X11020373Y-14382841D02*
X11001325Y-14373317D01*
X11001325Y-14373317D02*
X10972753Y-14373317D01*
X10972753Y-14373317D02*
X10953706Y-14363793D01*
X10953706Y-14363793D02*
X10944182Y-14344746D01*
X10944182Y-14344746D02*
X10944182Y-14335222D01*
X10944182Y-14335222D02*
X10953706Y-14316174D01*
X10953706Y-14316174D02*
X10972753Y-14306650D01*
X10972753Y-14306650D02*
X11001325Y-14306650D01*
X11001325Y-14306650D02*
X11020373Y-14316174D01*
X11096563Y-14516174D02*
X11106087Y-14506650D01*
X11106087Y-14506650D02*
X11125134Y-14478079D01*
X11125134Y-14478079D02*
X11134658Y-14459031D01*
X11134658Y-14459031D02*
X11144182Y-14430460D01*
X11144182Y-14430460D02*
X11153706Y-14382841D01*
X11153706Y-14382841D02*
X11153706Y-14344746D01*
X11153706Y-14344746D02*
X11144182Y-14297127D01*
X11144182Y-14297127D02*
X11134658Y-14268555D01*
X11134658Y-14268555D02*
X11125134Y-14249508D01*
X11125134Y-14249508D02*
X11106087Y-14220936D01*
X11106087Y-14220936D02*
X11096563Y-14211412D01*
D12*
X6271500Y-14662500D02*
X6321500Y-14612500D01*
X6271500Y-14562500D01*
X6221500Y-14612500D01*
X6271500Y-14662500D01*
D11*
X6687039Y-14703984D02*
X6572753Y-14703984D01*
X6629896Y-14703984D02*
X6629896Y-14503984D01*
X6629896Y-14503984D02*
X6610848Y-14532555D01*
X6610848Y-14532555D02*
X6591801Y-14551603D01*
X6591801Y-14551603D02*
X6572753Y-14561127D01*
X6772753Y-14684936D02*
X6782277Y-14694460D01*
X6782277Y-14694460D02*
X6772753Y-14703984D01*
X6772753Y-14703984D02*
X6763229Y-14694460D01*
X6763229Y-14694460D02*
X6772753Y-14684936D01*
X6772753Y-14684936D02*
X6772753Y-14703984D01*
X6906086Y-14503984D02*
X6925134Y-14503984D01*
X6925134Y-14503984D02*
X6944182Y-14513508D01*
X6944182Y-14513508D02*
X6953705Y-14523031D01*
X6953705Y-14523031D02*
X6963229Y-14542079D01*
X6963229Y-14542079D02*
X6972753Y-14580174D01*
X6972753Y-14580174D02*
X6972753Y-14627793D01*
X6972753Y-14627793D02*
X6963229Y-14665888D01*
X6963229Y-14665888D02*
X6953705Y-14684936D01*
X6953705Y-14684936D02*
X6944182Y-14694460D01*
X6944182Y-14694460D02*
X6925134Y-14703984D01*
X6925134Y-14703984D02*
X6906086Y-14703984D01*
X6906086Y-14703984D02*
X6887039Y-14694460D01*
X6887039Y-14694460D02*
X6877515Y-14684936D01*
X6877515Y-14684936D02*
X6867991Y-14665888D01*
X6867991Y-14665888D02*
X6858467Y-14627793D01*
X6858467Y-14627793D02*
X6858467Y-14580174D01*
X6858467Y-14580174D02*
X6867991Y-14542079D01*
X6867991Y-14542079D02*
X6877515Y-14523031D01*
X6877515Y-14523031D02*
X6887039Y-14513508D01*
X6887039Y-14513508D02*
X6906086Y-14503984D01*
X7096562Y-14503984D02*
X7115610Y-14503984D01*
X7115610Y-14503984D02*
X7134658Y-14513508D01*
X7134658Y-14513508D02*
X7144182Y-14523031D01*
X7144182Y-14523031D02*
X7153705Y-14542079D01*
X7153705Y-14542079D02*
X7163229Y-14580174D01*
X7163229Y-14580174D02*
X7163229Y-14627793D01*
X7163229Y-14627793D02*
X7153705Y-14665888D01*
X7153705Y-14665888D02*
X7144182Y-14684936D01*
X7144182Y-14684936D02*
X7134658Y-14694460D01*
X7134658Y-14694460D02*
X7115610Y-14703984D01*
X7115610Y-14703984D02*
X7096562Y-14703984D01*
X7096562Y-14703984D02*
X7077515Y-14694460D01*
X7077515Y-14694460D02*
X7067991Y-14684936D01*
X7067991Y-14684936D02*
X7058467Y-14665888D01*
X7058467Y-14665888D02*
X7048943Y-14627793D01*
X7048943Y-14627793D02*
X7048943Y-14580174D01*
X7048943Y-14580174D02*
X7058467Y-14542079D01*
X7058467Y-14542079D02*
X7067991Y-14523031D01*
X7067991Y-14523031D02*
X7077515Y-14513508D01*
X7077515Y-14513508D02*
X7096562Y-14503984D01*
X7287039Y-14503984D02*
X7306086Y-14503984D01*
X7306086Y-14503984D02*
X7325134Y-14513508D01*
X7325134Y-14513508D02*
X7334658Y-14523031D01*
X7334658Y-14523031D02*
X7344182Y-14542079D01*
X7344182Y-14542079D02*
X7353705Y-14580174D01*
X7353705Y-14580174D02*
X7353705Y-14627793D01*
X7353705Y-14627793D02*
X7344182Y-14665888D01*
X7344182Y-14665888D02*
X7334658Y-14684936D01*
X7334658Y-14684936D02*
X7325134Y-14694460D01*
X7325134Y-14694460D02*
X7306086Y-14703984D01*
X7306086Y-14703984D02*
X7287039Y-14703984D01*
X7287039Y-14703984D02*
X7267991Y-14694460D01*
X7267991Y-14694460D02*
X7258467Y-14684936D01*
X7258467Y-14684936D02*
X7248943Y-14665888D01*
X7248943Y-14665888D02*
X7239420Y-14627793D01*
X7239420Y-14627793D02*
X7239420Y-14580174D01*
X7239420Y-14580174D02*
X7248943Y-14542079D01*
X7248943Y-14542079D02*
X7258467Y-14523031D01*
X7258467Y-14523031D02*
X7267991Y-14513508D01*
X7267991Y-14513508D02*
X7287039Y-14503984D01*
X7439420Y-14703984D02*
X7439420Y-14570650D01*
X7439420Y-14589698D02*
X7448943Y-14580174D01*
X7448943Y-14580174D02*
X7467991Y-14570650D01*
X7467991Y-14570650D02*
X7496563Y-14570650D01*
X7496563Y-14570650D02*
X7515610Y-14580174D01*
X7515610Y-14580174D02*
X7525134Y-14599222D01*
X7525134Y-14599222D02*
X7525134Y-14703984D01*
X7525134Y-14599222D02*
X7534658Y-14580174D01*
X7534658Y-14580174D02*
X7553705Y-14570650D01*
X7553705Y-14570650D02*
X7582277Y-14570650D01*
X7582277Y-14570650D02*
X7601324Y-14580174D01*
X7601324Y-14580174D02*
X7610848Y-14599222D01*
X7610848Y-14599222D02*
X7610848Y-14703984D01*
X7706086Y-14703984D02*
X7706086Y-14570650D01*
X7706086Y-14589698D02*
X7715610Y-14580174D01*
X7715610Y-14580174D02*
X7734658Y-14570650D01*
X7734658Y-14570650D02*
X7763229Y-14570650D01*
X7763229Y-14570650D02*
X7782277Y-14580174D01*
X7782277Y-14580174D02*
X7791801Y-14599222D01*
X7791801Y-14599222D02*
X7791801Y-14703984D01*
X7791801Y-14599222D02*
X7801324Y-14580174D01*
X7801324Y-14580174D02*
X7820372Y-14570650D01*
X7820372Y-14570650D02*
X7848943Y-14570650D01*
X7848943Y-14570650D02*
X7867991Y-14580174D01*
X7867991Y-14580174D02*
X7877515Y-14599222D01*
X7877515Y-14599222D02*
X7877515Y-14703984D01*
X8267991Y-14494460D02*
X8096563Y-14751603D01*
X8525134Y-14503984D02*
X8544182Y-14503984D01*
X8544182Y-14503984D02*
X8563229Y-14513508D01*
X8563229Y-14513508D02*
X8572753Y-14523031D01*
X8572753Y-14523031D02*
X8582277Y-14542079D01*
X8582277Y-14542079D02*
X8591801Y-14580174D01*
X8591801Y-14580174D02*
X8591801Y-14627793D01*
X8591801Y-14627793D02*
X8582277Y-14665888D01*
X8582277Y-14665888D02*
X8572753Y-14684936D01*
X8572753Y-14684936D02*
X8563229Y-14694460D01*
X8563229Y-14694460D02*
X8544182Y-14703984D01*
X8544182Y-14703984D02*
X8525134Y-14703984D01*
X8525134Y-14703984D02*
X8506087Y-14694460D01*
X8506087Y-14694460D02*
X8496563Y-14684936D01*
X8496563Y-14684936D02*
X8487039Y-14665888D01*
X8487039Y-14665888D02*
X8477515Y-14627793D01*
X8477515Y-14627793D02*
X8477515Y-14580174D01*
X8477515Y-14580174D02*
X8487039Y-14542079D01*
X8487039Y-14542079D02*
X8496563Y-14523031D01*
X8496563Y-14523031D02*
X8506087Y-14513508D01*
X8506087Y-14513508D02*
X8525134Y-14503984D01*
X8677515Y-14684936D02*
X8687039Y-14694460D01*
X8687039Y-14694460D02*
X8677515Y-14703984D01*
X8677515Y-14703984D02*
X8667991Y-14694460D01*
X8667991Y-14694460D02*
X8677515Y-14684936D01*
X8677515Y-14684936D02*
X8677515Y-14703984D01*
X8810848Y-14503984D02*
X8829896Y-14503984D01*
X8829896Y-14503984D02*
X8848944Y-14513508D01*
X8848944Y-14513508D02*
X8858468Y-14523031D01*
X8858468Y-14523031D02*
X8867991Y-14542079D01*
X8867991Y-14542079D02*
X8877515Y-14580174D01*
X8877515Y-14580174D02*
X8877515Y-14627793D01*
X8877515Y-14627793D02*
X8867991Y-14665888D01*
X8867991Y-14665888D02*
X8858468Y-14684936D01*
X8858468Y-14684936D02*
X8848944Y-14694460D01*
X8848944Y-14694460D02*
X8829896Y-14703984D01*
X8829896Y-14703984D02*
X8810848Y-14703984D01*
X8810848Y-14703984D02*
X8791801Y-14694460D01*
X8791801Y-14694460D02*
X8782277Y-14684936D01*
X8782277Y-14684936D02*
X8772753Y-14665888D01*
X8772753Y-14665888D02*
X8763229Y-14627793D01*
X8763229Y-14627793D02*
X8763229Y-14580174D01*
X8763229Y-14580174D02*
X8772753Y-14542079D01*
X8772753Y-14542079D02*
X8782277Y-14523031D01*
X8782277Y-14523031D02*
X8791801Y-14513508D01*
X8791801Y-14513508D02*
X8810848Y-14503984D01*
X8944182Y-14503984D02*
X9067991Y-14503984D01*
X9067991Y-14503984D02*
X9001325Y-14580174D01*
X9001325Y-14580174D02*
X9029896Y-14580174D01*
X9029896Y-14580174D02*
X9048944Y-14589698D01*
X9048944Y-14589698D02*
X9058468Y-14599222D01*
X9058468Y-14599222D02*
X9067991Y-14618269D01*
X9067991Y-14618269D02*
X9067991Y-14665888D01*
X9067991Y-14665888D02*
X9058468Y-14684936D01*
X9058468Y-14684936D02*
X9048944Y-14694460D01*
X9048944Y-14694460D02*
X9029896Y-14703984D01*
X9029896Y-14703984D02*
X8972753Y-14703984D01*
X8972753Y-14703984D02*
X8953706Y-14694460D01*
X8953706Y-14694460D02*
X8944182Y-14684936D01*
X9163229Y-14703984D02*
X9201325Y-14703984D01*
X9201325Y-14703984D02*
X9220372Y-14694460D01*
X9220372Y-14694460D02*
X9229896Y-14684936D01*
X9229896Y-14684936D02*
X9248944Y-14656365D01*
X9248944Y-14656365D02*
X9258468Y-14618269D01*
X9258468Y-14618269D02*
X9258468Y-14542079D01*
X9258468Y-14542079D02*
X9248944Y-14523031D01*
X9248944Y-14523031D02*
X9239420Y-14513508D01*
X9239420Y-14513508D02*
X9220372Y-14503984D01*
X9220372Y-14503984D02*
X9182277Y-14503984D01*
X9182277Y-14503984D02*
X9163229Y-14513508D01*
X9163229Y-14513508D02*
X9153706Y-14523031D01*
X9153706Y-14523031D02*
X9144182Y-14542079D01*
X9144182Y-14542079D02*
X9144182Y-14589698D01*
X9144182Y-14589698D02*
X9153706Y-14608746D01*
X9153706Y-14608746D02*
X9163229Y-14618269D01*
X9163229Y-14618269D02*
X9182277Y-14627793D01*
X9182277Y-14627793D02*
X9220372Y-14627793D01*
X9220372Y-14627793D02*
X9239420Y-14618269D01*
X9239420Y-14618269D02*
X9248944Y-14608746D01*
X9248944Y-14608746D02*
X9258468Y-14589698D01*
X9429896Y-14570650D02*
X9429896Y-14703984D01*
X9382277Y-14494460D02*
X9334658Y-14637317D01*
X9334658Y-14637317D02*
X9458468Y-14637317D01*
X9525134Y-14503984D02*
X9525134Y-14542079D01*
X9601325Y-14503984D02*
X9601325Y-14542079D01*
X9896563Y-14780174D02*
X9887039Y-14770650D01*
X9887039Y-14770650D02*
X9867991Y-14742079D01*
X9867991Y-14742079D02*
X9858468Y-14723031D01*
X9858468Y-14723031D02*
X9848944Y-14694460D01*
X9848944Y-14694460D02*
X9839420Y-14646841D01*
X9839420Y-14646841D02*
X9839420Y-14608746D01*
X9839420Y-14608746D02*
X9848944Y-14561127D01*
X9848944Y-14561127D02*
X9858468Y-14532555D01*
X9858468Y-14532555D02*
X9867991Y-14513508D01*
X9867991Y-14513508D02*
X9887039Y-14484936D01*
X9887039Y-14484936D02*
X9896563Y-14475412D01*
X9963230Y-14523031D02*
X9972753Y-14513508D01*
X9972753Y-14513508D02*
X9991801Y-14503984D01*
X9991801Y-14503984D02*
X10039420Y-14503984D01*
X10039420Y-14503984D02*
X10058468Y-14513508D01*
X10058468Y-14513508D02*
X10067991Y-14523031D01*
X10067991Y-14523031D02*
X10077515Y-14542079D01*
X10077515Y-14542079D02*
X10077515Y-14561127D01*
X10077515Y-14561127D02*
X10067991Y-14589698D01*
X10067991Y-14589698D02*
X9953706Y-14703984D01*
X9953706Y-14703984D02*
X10077515Y-14703984D01*
X10248944Y-14503984D02*
X10210849Y-14503984D01*
X10210849Y-14503984D02*
X10191801Y-14513508D01*
X10191801Y-14513508D02*
X10182277Y-14523031D01*
X10182277Y-14523031D02*
X10163230Y-14551603D01*
X10163230Y-14551603D02*
X10153706Y-14589698D01*
X10153706Y-14589698D02*
X10153706Y-14665888D01*
X10153706Y-14665888D02*
X10163230Y-14684936D01*
X10163230Y-14684936D02*
X10172753Y-14694460D01*
X10172753Y-14694460D02*
X10191801Y-14703984D01*
X10191801Y-14703984D02*
X10229896Y-14703984D01*
X10229896Y-14703984D02*
X10248944Y-14694460D01*
X10248944Y-14694460D02*
X10258468Y-14684936D01*
X10258468Y-14684936D02*
X10267991Y-14665888D01*
X10267991Y-14665888D02*
X10267991Y-14618269D01*
X10267991Y-14618269D02*
X10258468Y-14599222D01*
X10258468Y-14599222D02*
X10248944Y-14589698D01*
X10248944Y-14589698D02*
X10229896Y-14580174D01*
X10229896Y-14580174D02*
X10191801Y-14580174D01*
X10191801Y-14580174D02*
X10172753Y-14589698D01*
X10172753Y-14589698D02*
X10163230Y-14599222D01*
X10163230Y-14599222D02*
X10153706Y-14618269D01*
X10506087Y-14703984D02*
X10506087Y-14503984D01*
X10591801Y-14703984D02*
X10591801Y-14599222D01*
X10591801Y-14599222D02*
X10582277Y-14580174D01*
X10582277Y-14580174D02*
X10563230Y-14570650D01*
X10563230Y-14570650D02*
X10534658Y-14570650D01*
X10534658Y-14570650D02*
X10515611Y-14580174D01*
X10515611Y-14580174D02*
X10506087Y-14589698D01*
X10715611Y-14703984D02*
X10696563Y-14694460D01*
X10696563Y-14694460D02*
X10687039Y-14684936D01*
X10687039Y-14684936D02*
X10677515Y-14665888D01*
X10677515Y-14665888D02*
X10677515Y-14608746D01*
X10677515Y-14608746D02*
X10687039Y-14589698D01*
X10687039Y-14589698D02*
X10696563Y-14580174D01*
X10696563Y-14580174D02*
X10715611Y-14570650D01*
X10715611Y-14570650D02*
X10744182Y-14570650D01*
X10744182Y-14570650D02*
X10763230Y-14580174D01*
X10763230Y-14580174D02*
X10772753Y-14589698D01*
X10772753Y-14589698D02*
X10782277Y-14608746D01*
X10782277Y-14608746D02*
X10782277Y-14665888D01*
X10782277Y-14665888D02*
X10772753Y-14684936D01*
X10772753Y-14684936D02*
X10763230Y-14694460D01*
X10763230Y-14694460D02*
X10744182Y-14703984D01*
X10744182Y-14703984D02*
X10715611Y-14703984D01*
X10896563Y-14703984D02*
X10877515Y-14694460D01*
X10877515Y-14694460D02*
X10867992Y-14675412D01*
X10867992Y-14675412D02*
X10867992Y-14503984D01*
X11048944Y-14694460D02*
X11029896Y-14703984D01*
X11029896Y-14703984D02*
X10991801Y-14703984D01*
X10991801Y-14703984D02*
X10972753Y-14694460D01*
X10972753Y-14694460D02*
X10963230Y-14675412D01*
X10963230Y-14675412D02*
X10963230Y-14599222D01*
X10963230Y-14599222D02*
X10972753Y-14580174D01*
X10972753Y-14580174D02*
X10991801Y-14570650D01*
X10991801Y-14570650D02*
X11029896Y-14570650D01*
X11029896Y-14570650D02*
X11048944Y-14580174D01*
X11048944Y-14580174D02*
X11058468Y-14599222D01*
X11058468Y-14599222D02*
X11058468Y-14618269D01*
X11058468Y-14618269D02*
X10963230Y-14637317D01*
X11134658Y-14694460D02*
X11153706Y-14703984D01*
X11153706Y-14703984D02*
X11191801Y-14703984D01*
X11191801Y-14703984D02*
X11210849Y-14694460D01*
X11210849Y-14694460D02*
X11220372Y-14675412D01*
X11220372Y-14675412D02*
X11220372Y-14665888D01*
X11220372Y-14665888D02*
X11210849Y-14646841D01*
X11210849Y-14646841D02*
X11191801Y-14637317D01*
X11191801Y-14637317D02*
X11163230Y-14637317D01*
X11163230Y-14637317D02*
X11144182Y-14627793D01*
X11144182Y-14627793D02*
X11134658Y-14608746D01*
X11134658Y-14608746D02*
X11134658Y-14599222D01*
X11134658Y-14599222D02*
X11144182Y-14580174D01*
X11144182Y-14580174D02*
X11163230Y-14570650D01*
X11163230Y-14570650D02*
X11191801Y-14570650D01*
X11191801Y-14570650D02*
X11210849Y-14580174D01*
X11287039Y-14780174D02*
X11296563Y-14770650D01*
X11296563Y-14770650D02*
X11315611Y-14742079D01*
X11315611Y-14742079D02*
X11325134Y-14723031D01*
X11325134Y-14723031D02*
X11334658Y-14694460D01*
X11334658Y-14694460D02*
X11344182Y-14646841D01*
X11344182Y-14646841D02*
X11344182Y-14608746D01*
X11344182Y-14608746D02*
X11334658Y-14561127D01*
X11334658Y-14561127D02*
X11325134Y-14532555D01*
X11325134Y-14532555D02*
X11315611Y-14513508D01*
X11315611Y-14513508D02*
X11296563Y-14484936D01*
X11296563Y-14484936D02*
X11287039Y-14475412D01*
X6121500Y-14776500D02*
X6321500Y-14976500D01*
X6321500Y-14776500D02*
X6121500Y-14976500D01*
X6321500Y-14876500D02*
G75*
G02*
X6121500Y-14876500I-100000J0D01*
G01*
X6121500Y-14876500D02*
G75*
G02*
X6321500Y-14876500I100000J0D01*
G01*
X6572753Y-14787031D02*
X6582277Y-14777508D01*
X6582277Y-14777508D02*
X6601324Y-14767984D01*
X6601324Y-14767984D02*
X6648943Y-14767984D01*
X6648943Y-14767984D02*
X6667991Y-14777508D01*
X6667991Y-14777508D02*
X6677515Y-14787031D01*
X6677515Y-14787031D02*
X6687039Y-14806079D01*
X6687039Y-14806079D02*
X6687039Y-14825127D01*
X6687039Y-14825127D02*
X6677515Y-14853698D01*
X6677515Y-14853698D02*
X6563229Y-14967984D01*
X6563229Y-14967984D02*
X6687039Y-14967984D01*
X6772753Y-14948936D02*
X6782277Y-14958460D01*
X6782277Y-14958460D02*
X6772753Y-14967984D01*
X6772753Y-14967984D02*
X6763229Y-14958460D01*
X6763229Y-14958460D02*
X6772753Y-14948936D01*
X6772753Y-14948936D02*
X6772753Y-14967984D01*
X6963229Y-14767984D02*
X6867991Y-14767984D01*
X6867991Y-14767984D02*
X6858467Y-14863222D01*
X6858467Y-14863222D02*
X6867991Y-14853698D01*
X6867991Y-14853698D02*
X6887039Y-14844174D01*
X6887039Y-14844174D02*
X6934658Y-14844174D01*
X6934658Y-14844174D02*
X6953705Y-14853698D01*
X6953705Y-14853698D02*
X6963229Y-14863222D01*
X6963229Y-14863222D02*
X6972753Y-14882269D01*
X6972753Y-14882269D02*
X6972753Y-14929888D01*
X6972753Y-14929888D02*
X6963229Y-14948936D01*
X6963229Y-14948936D02*
X6953705Y-14958460D01*
X6953705Y-14958460D02*
X6934658Y-14967984D01*
X6934658Y-14967984D02*
X6887039Y-14967984D01*
X6887039Y-14967984D02*
X6867991Y-14958460D01*
X6867991Y-14958460D02*
X6858467Y-14948936D01*
X7096562Y-14767984D02*
X7115610Y-14767984D01*
X7115610Y-14767984D02*
X7134658Y-14777508D01*
X7134658Y-14777508D02*
X7144182Y-14787031D01*
X7144182Y-14787031D02*
X7153705Y-14806079D01*
X7153705Y-14806079D02*
X7163229Y-14844174D01*
X7163229Y-14844174D02*
X7163229Y-14891793D01*
X7163229Y-14891793D02*
X7153705Y-14929888D01*
X7153705Y-14929888D02*
X7144182Y-14948936D01*
X7144182Y-14948936D02*
X7134658Y-14958460D01*
X7134658Y-14958460D02*
X7115610Y-14967984D01*
X7115610Y-14967984D02*
X7096562Y-14967984D01*
X7096562Y-14967984D02*
X7077515Y-14958460D01*
X7077515Y-14958460D02*
X7067991Y-14948936D01*
X7067991Y-14948936D02*
X7058467Y-14929888D01*
X7058467Y-14929888D02*
X7048943Y-14891793D01*
X7048943Y-14891793D02*
X7048943Y-14844174D01*
X7048943Y-14844174D02*
X7058467Y-14806079D01*
X7058467Y-14806079D02*
X7067991Y-14787031D01*
X7067991Y-14787031D02*
X7077515Y-14777508D01*
X7077515Y-14777508D02*
X7096562Y-14767984D01*
X7287039Y-14767984D02*
X7306086Y-14767984D01*
X7306086Y-14767984D02*
X7325134Y-14777508D01*
X7325134Y-14777508D02*
X7334658Y-14787031D01*
X7334658Y-14787031D02*
X7344182Y-14806079D01*
X7344182Y-14806079D02*
X7353705Y-14844174D01*
X7353705Y-14844174D02*
X7353705Y-14891793D01*
X7353705Y-14891793D02*
X7344182Y-14929888D01*
X7344182Y-14929888D02*
X7334658Y-14948936D01*
X7334658Y-14948936D02*
X7325134Y-14958460D01*
X7325134Y-14958460D02*
X7306086Y-14967984D01*
X7306086Y-14967984D02*
X7287039Y-14967984D01*
X7287039Y-14967984D02*
X7267991Y-14958460D01*
X7267991Y-14958460D02*
X7258467Y-14948936D01*
X7258467Y-14948936D02*
X7248943Y-14929888D01*
X7248943Y-14929888D02*
X7239420Y-14891793D01*
X7239420Y-14891793D02*
X7239420Y-14844174D01*
X7239420Y-14844174D02*
X7248943Y-14806079D01*
X7248943Y-14806079D02*
X7258467Y-14787031D01*
X7258467Y-14787031D02*
X7267991Y-14777508D01*
X7267991Y-14777508D02*
X7287039Y-14767984D01*
X7439420Y-14967984D02*
X7439420Y-14834650D01*
X7439420Y-14853698D02*
X7448943Y-14844174D01*
X7448943Y-14844174D02*
X7467991Y-14834650D01*
X7467991Y-14834650D02*
X7496563Y-14834650D01*
X7496563Y-14834650D02*
X7515610Y-14844174D01*
X7515610Y-14844174D02*
X7525134Y-14863222D01*
X7525134Y-14863222D02*
X7525134Y-14967984D01*
X7525134Y-14863222D02*
X7534658Y-14844174D01*
X7534658Y-14844174D02*
X7553705Y-14834650D01*
X7553705Y-14834650D02*
X7582277Y-14834650D01*
X7582277Y-14834650D02*
X7601324Y-14844174D01*
X7601324Y-14844174D02*
X7610848Y-14863222D01*
X7610848Y-14863222D02*
X7610848Y-14967984D01*
X7706086Y-14967984D02*
X7706086Y-14834650D01*
X7706086Y-14853698D02*
X7715610Y-14844174D01*
X7715610Y-14844174D02*
X7734658Y-14834650D01*
X7734658Y-14834650D02*
X7763229Y-14834650D01*
X7763229Y-14834650D02*
X7782277Y-14844174D01*
X7782277Y-14844174D02*
X7791801Y-14863222D01*
X7791801Y-14863222D02*
X7791801Y-14967984D01*
X7791801Y-14863222D02*
X7801324Y-14844174D01*
X7801324Y-14844174D02*
X7820372Y-14834650D01*
X7820372Y-14834650D02*
X7848943Y-14834650D01*
X7848943Y-14834650D02*
X7867991Y-14844174D01*
X7867991Y-14844174D02*
X7877515Y-14863222D01*
X7877515Y-14863222D02*
X7877515Y-14967984D01*
X8267991Y-14758460D02*
X8096563Y-15015603D01*
X8525134Y-14767984D02*
X8544182Y-14767984D01*
X8544182Y-14767984D02*
X8563229Y-14777508D01*
X8563229Y-14777508D02*
X8572753Y-14787031D01*
X8572753Y-14787031D02*
X8582277Y-14806079D01*
X8582277Y-14806079D02*
X8591801Y-14844174D01*
X8591801Y-14844174D02*
X8591801Y-14891793D01*
X8591801Y-14891793D02*
X8582277Y-14929888D01*
X8582277Y-14929888D02*
X8572753Y-14948936D01*
X8572753Y-14948936D02*
X8563229Y-14958460D01*
X8563229Y-14958460D02*
X8544182Y-14967984D01*
X8544182Y-14967984D02*
X8525134Y-14967984D01*
X8525134Y-14967984D02*
X8506087Y-14958460D01*
X8506087Y-14958460D02*
X8496563Y-14948936D01*
X8496563Y-14948936D02*
X8487039Y-14929888D01*
X8487039Y-14929888D02*
X8477515Y-14891793D01*
X8477515Y-14891793D02*
X8477515Y-14844174D01*
X8477515Y-14844174D02*
X8487039Y-14806079D01*
X8487039Y-14806079D02*
X8496563Y-14787031D01*
X8496563Y-14787031D02*
X8506087Y-14777508D01*
X8506087Y-14777508D02*
X8525134Y-14767984D01*
X8677515Y-14948936D02*
X8687039Y-14958460D01*
X8687039Y-14958460D02*
X8677515Y-14967984D01*
X8677515Y-14967984D02*
X8667991Y-14958460D01*
X8667991Y-14958460D02*
X8677515Y-14948936D01*
X8677515Y-14948936D02*
X8677515Y-14967984D01*
X8810848Y-14767984D02*
X8829896Y-14767984D01*
X8829896Y-14767984D02*
X8848944Y-14777508D01*
X8848944Y-14777508D02*
X8858468Y-14787031D01*
X8858468Y-14787031D02*
X8867991Y-14806079D01*
X8867991Y-14806079D02*
X8877515Y-14844174D01*
X8877515Y-14844174D02*
X8877515Y-14891793D01*
X8877515Y-14891793D02*
X8867991Y-14929888D01*
X8867991Y-14929888D02*
X8858468Y-14948936D01*
X8858468Y-14948936D02*
X8848944Y-14958460D01*
X8848944Y-14958460D02*
X8829896Y-14967984D01*
X8829896Y-14967984D02*
X8810848Y-14967984D01*
X8810848Y-14967984D02*
X8791801Y-14958460D01*
X8791801Y-14958460D02*
X8782277Y-14948936D01*
X8782277Y-14948936D02*
X8772753Y-14929888D01*
X8772753Y-14929888D02*
X8763229Y-14891793D01*
X8763229Y-14891793D02*
X8763229Y-14844174D01*
X8763229Y-14844174D02*
X8772753Y-14806079D01*
X8772753Y-14806079D02*
X8782277Y-14787031D01*
X8782277Y-14787031D02*
X8791801Y-14777508D01*
X8791801Y-14777508D02*
X8810848Y-14767984D01*
X8972753Y-14967984D02*
X9010848Y-14967984D01*
X9010848Y-14967984D02*
X9029896Y-14958460D01*
X9029896Y-14958460D02*
X9039420Y-14948936D01*
X9039420Y-14948936D02*
X9058468Y-14920365D01*
X9058468Y-14920365D02*
X9067991Y-14882269D01*
X9067991Y-14882269D02*
X9067991Y-14806079D01*
X9067991Y-14806079D02*
X9058468Y-14787031D01*
X9058468Y-14787031D02*
X9048944Y-14777508D01*
X9048944Y-14777508D02*
X9029896Y-14767984D01*
X9029896Y-14767984D02*
X8991801Y-14767984D01*
X8991801Y-14767984D02*
X8972753Y-14777508D01*
X8972753Y-14777508D02*
X8963229Y-14787031D01*
X8963229Y-14787031D02*
X8953706Y-14806079D01*
X8953706Y-14806079D02*
X8953706Y-14853698D01*
X8953706Y-14853698D02*
X8963229Y-14872746D01*
X8963229Y-14872746D02*
X8972753Y-14882269D01*
X8972753Y-14882269D02*
X8991801Y-14891793D01*
X8991801Y-14891793D02*
X9029896Y-14891793D01*
X9029896Y-14891793D02*
X9048944Y-14882269D01*
X9048944Y-14882269D02*
X9058468Y-14872746D01*
X9058468Y-14872746D02*
X9067991Y-14853698D01*
X9182277Y-14853698D02*
X9163229Y-14844174D01*
X9163229Y-14844174D02*
X9153706Y-14834650D01*
X9153706Y-14834650D02*
X9144182Y-14815603D01*
X9144182Y-14815603D02*
X9144182Y-14806079D01*
X9144182Y-14806079D02*
X9153706Y-14787031D01*
X9153706Y-14787031D02*
X9163229Y-14777508D01*
X9163229Y-14777508D02*
X9182277Y-14767984D01*
X9182277Y-14767984D02*
X9220372Y-14767984D01*
X9220372Y-14767984D02*
X9239420Y-14777508D01*
X9239420Y-14777508D02*
X9248944Y-14787031D01*
X9248944Y-14787031D02*
X9258468Y-14806079D01*
X9258468Y-14806079D02*
X9258468Y-14815603D01*
X9258468Y-14815603D02*
X9248944Y-14834650D01*
X9248944Y-14834650D02*
X9239420Y-14844174D01*
X9239420Y-14844174D02*
X9220372Y-14853698D01*
X9220372Y-14853698D02*
X9182277Y-14853698D01*
X9182277Y-14853698D02*
X9163229Y-14863222D01*
X9163229Y-14863222D02*
X9153706Y-14872746D01*
X9153706Y-14872746D02*
X9144182Y-14891793D01*
X9144182Y-14891793D02*
X9144182Y-14929888D01*
X9144182Y-14929888D02*
X9153706Y-14948936D01*
X9153706Y-14948936D02*
X9163229Y-14958460D01*
X9163229Y-14958460D02*
X9182277Y-14967984D01*
X9182277Y-14967984D02*
X9220372Y-14967984D01*
X9220372Y-14967984D02*
X9239420Y-14958460D01*
X9239420Y-14958460D02*
X9248944Y-14948936D01*
X9248944Y-14948936D02*
X9258468Y-14929888D01*
X9258468Y-14929888D02*
X9258468Y-14891793D01*
X9258468Y-14891793D02*
X9248944Y-14872746D01*
X9248944Y-14872746D02*
X9239420Y-14863222D01*
X9239420Y-14863222D02*
X9220372Y-14853698D01*
X9429896Y-14834650D02*
X9429896Y-14967984D01*
X9382277Y-14758460D02*
X9334658Y-14901317D01*
X9334658Y-14901317D02*
X9458468Y-14901317D01*
X9525134Y-14767984D02*
X9525134Y-14806079D01*
X9601325Y-14767984D02*
X9601325Y-14806079D01*
X9896563Y-15044174D02*
X9887039Y-15034650D01*
X9887039Y-15034650D02*
X9867991Y-15006079D01*
X9867991Y-15006079D02*
X9858468Y-14987031D01*
X9858468Y-14987031D02*
X9848944Y-14958460D01*
X9848944Y-14958460D02*
X9839420Y-14910841D01*
X9839420Y-14910841D02*
X9839420Y-14872746D01*
X9839420Y-14872746D02*
X9848944Y-14825127D01*
X9848944Y-14825127D02*
X9858468Y-14796555D01*
X9858468Y-14796555D02*
X9867991Y-14777508D01*
X9867991Y-14777508D02*
X9887039Y-14748936D01*
X9887039Y-14748936D02*
X9896563Y-14739412D01*
X9963230Y-14787031D02*
X9972753Y-14777508D01*
X9972753Y-14777508D02*
X9991801Y-14767984D01*
X9991801Y-14767984D02*
X10039420Y-14767984D01*
X10039420Y-14767984D02*
X10058468Y-14777508D01*
X10058468Y-14777508D02*
X10067991Y-14787031D01*
X10067991Y-14787031D02*
X10077515Y-14806079D01*
X10077515Y-14806079D02*
X10077515Y-14825127D01*
X10077515Y-14825127D02*
X10067991Y-14853698D01*
X10067991Y-14853698D02*
X9953706Y-14967984D01*
X9953706Y-14967984D02*
X10077515Y-14967984D01*
X10315611Y-14967984D02*
X10315611Y-14767984D01*
X10401325Y-14967984D02*
X10401325Y-14863222D01*
X10401325Y-14863222D02*
X10391801Y-14844174D01*
X10391801Y-14844174D02*
X10372753Y-14834650D01*
X10372753Y-14834650D02*
X10344182Y-14834650D01*
X10344182Y-14834650D02*
X10325134Y-14844174D01*
X10325134Y-14844174D02*
X10315611Y-14853698D01*
X10525134Y-14967984D02*
X10506087Y-14958460D01*
X10506087Y-14958460D02*
X10496563Y-14948936D01*
X10496563Y-14948936D02*
X10487039Y-14929888D01*
X10487039Y-14929888D02*
X10487039Y-14872746D01*
X10487039Y-14872746D02*
X10496563Y-14853698D01*
X10496563Y-14853698D02*
X10506087Y-14844174D01*
X10506087Y-14844174D02*
X10525134Y-14834650D01*
X10525134Y-14834650D02*
X10553706Y-14834650D01*
X10553706Y-14834650D02*
X10572753Y-14844174D01*
X10572753Y-14844174D02*
X10582277Y-14853698D01*
X10582277Y-14853698D02*
X10591801Y-14872746D01*
X10591801Y-14872746D02*
X10591801Y-14929888D01*
X10591801Y-14929888D02*
X10582277Y-14948936D01*
X10582277Y-14948936D02*
X10572753Y-14958460D01*
X10572753Y-14958460D02*
X10553706Y-14967984D01*
X10553706Y-14967984D02*
X10525134Y-14967984D01*
X10706087Y-14967984D02*
X10687039Y-14958460D01*
X10687039Y-14958460D02*
X10677515Y-14939412D01*
X10677515Y-14939412D02*
X10677515Y-14767984D01*
X10858468Y-14958460D02*
X10839420Y-14967984D01*
X10839420Y-14967984D02*
X10801325Y-14967984D01*
X10801325Y-14967984D02*
X10782277Y-14958460D01*
X10782277Y-14958460D02*
X10772753Y-14939412D01*
X10772753Y-14939412D02*
X10772753Y-14863222D01*
X10772753Y-14863222D02*
X10782277Y-14844174D01*
X10782277Y-14844174D02*
X10801325Y-14834650D01*
X10801325Y-14834650D02*
X10839420Y-14834650D01*
X10839420Y-14834650D02*
X10858468Y-14844174D01*
X10858468Y-14844174D02*
X10867992Y-14863222D01*
X10867992Y-14863222D02*
X10867992Y-14882269D01*
X10867992Y-14882269D02*
X10772753Y-14901317D01*
X10944182Y-14958460D02*
X10963230Y-14967984D01*
X10963230Y-14967984D02*
X11001325Y-14967984D01*
X11001325Y-14967984D02*
X11020373Y-14958460D01*
X11020373Y-14958460D02*
X11029896Y-14939412D01*
X11029896Y-14939412D02*
X11029896Y-14929888D01*
X11029896Y-14929888D02*
X11020373Y-14910841D01*
X11020373Y-14910841D02*
X11001325Y-14901317D01*
X11001325Y-14901317D02*
X10972753Y-14901317D01*
X10972753Y-14901317D02*
X10953706Y-14891793D01*
X10953706Y-14891793D02*
X10944182Y-14872746D01*
X10944182Y-14872746D02*
X10944182Y-14863222D01*
X10944182Y-14863222D02*
X10953706Y-14844174D01*
X10953706Y-14844174D02*
X10972753Y-14834650D01*
X10972753Y-14834650D02*
X11001325Y-14834650D01*
X11001325Y-14834650D02*
X11020373Y-14844174D01*
X11096563Y-15044174D02*
X11106087Y-15034650D01*
X11106087Y-15034650D02*
X11125134Y-15006079D01*
X11125134Y-15006079D02*
X11134658Y-14987031D01*
X11134658Y-14987031D02*
X11144182Y-14958460D01*
X11144182Y-14958460D02*
X11153706Y-14910841D01*
X11153706Y-14910841D02*
X11153706Y-14872746D01*
X11153706Y-14872746D02*
X11144182Y-14825127D01*
X11144182Y-14825127D02*
X11134658Y-14796555D01*
X11134658Y-14796555D02*
X11125134Y-14777508D01*
X11125134Y-14777508D02*
X11106087Y-14748936D01*
X11106087Y-14748936D02*
X11096563Y-14739412D01*
M02*
