M48
; DRILL file {KiCad 9.0.0} date 2025-04-17T12:04:56-0700
; FORMAT={-:-/ absolute / metric / decimal}
; #@! TF.CreationDate,2025-04-17T12:04:56-07:00
; #@! TF.GenerationSoftware,Kicad,Pcbnew,9.0.0
; #@! TF.FileFunction,Plated,1,4,PTH
FMAT,2
METRIC
; #@! TA.AperFunction,Plated,PTH,ViaDrill
T1C0.300
; #@! TA.AperFunction,Plated,PTH,ComponentDrill
T2C0.900
; #@! TA.AperFunction,Plated,PTH,ComponentDrill
T3C1.200
%
G90
G05
T1
X58.5Y-109.75
X59.575Y-112.475
X63.0Y-101.0
X63.0Y-118.0
X63.7Y-97.5
X63.95Y-110.995
X64.0Y-114.25
X64.4Y-97.5
X64.562Y-107.995
X65.561Y-105.0
X66.25Y-110.645
X67.0Y-101.0
X67.0Y-118.0
X68.5Y-105.0
X69.0Y-113.7
X69.8Y-99.0
X70.0Y-101.0
X70.5Y-99.0
X71.0Y-118.0
X71.5Y-114.0
X72.0Y-119.0
X72.7Y-105.15
X73.9Y-120.25
X73.986Y-113.745
X76.5Y-115.0
X77.0Y-102.0
X77.0Y-103.0
X77.0Y-104.0
X77.0Y-116.0
X78.0Y-118.0
X78.685Y-121.565
X83.0Y-102.0
X83.0Y-104.0
X83.1Y-108.1
X84.4Y-105.1
X84.7Y-97.6
X85.6Y-97.6
X85.75Y-106.25
X85.8Y-112.0
X85.8Y-112.8
X85.8Y-115.7
X86.6Y-112.0
X86.6Y-112.8
X86.6Y-115.7
X86.75Y-106.25
X87.3Y-100.55
X87.5Y-118.75
X88.1Y-100.55
X88.85Y-100.55
X90.8Y-105.4
X96.8Y-114.3
X98.5Y-111.8
X100.5Y-113.6
X109.4Y-105.45
X109.4Y-108.7
X109.4Y-110.1
X109.45Y-104.2
X110.1Y-96.6
X110.1Y-97.3
X118.275Y-114.025
X121.6Y-108.3
X121.6Y-109.1
X121.9Y-114.0
X123.0Y-126.8
X124.3Y-103.7
X125.175Y-113.95
X125.2Y-100.825
X127.2Y-103.7
X134.4Y-112.3
T2
X61.5Y-92.5
X61.5Y-97.5
X64.0Y-95.0
X72.0Y-92.5
X72.0Y-97.5
X74.5Y-95.0
X82.23Y-92.5
X82.23Y-97.5
X84.73Y-95.0
X93.23Y-92.5
X93.23Y-97.5
X95.73Y-95.0
X103.73Y-92.5
X103.73Y-97.5
X106.23Y-95.0
X113.73Y-92.5
X113.73Y-97.5
X116.23Y-95.0
X123.23Y-92.5
X123.23Y-97.5
X125.73Y-95.0
T3
X48.65Y-103.7
X48.65Y-107.9
X48.65Y-112.1
X48.65Y-116.3
X55.0Y-103.7
X55.0Y-107.9
X55.0Y-112.1
X55.0Y-116.3
M30
