G04 #@! TF.GenerationSoftware,KiCad,Pcbnew,9.0.0*
G04 #@! TF.CreationDate,2025-04-17T12:04:47-07:00*
G04 #@! TF.ProjectId,BSPD,42535044-2e6b-4696-9361-645f70636258,rev?*
G04 #@! TF.SameCoordinates,Original*
G04 #@! TF.FileFunction,Soldermask,Top*
G04 #@! TF.FilePolarity,Negative*
%FSLAX46Y46*%
G04 Gerber Fmt 4.6, Leading zero omitted, Abs format (unit mm)*
G04 Created by KiCad (PCBNEW 9.0.0) date 2025-04-17 12:04:47*
%MOMM*%
%LPD*%
G01*
G04 APERTURE LIST*
G04 Aperture macros list*
%AMRoundRect*
0 Rectangle with rounded corners*
0 $1 Rounding radius*
0 $2 $3 $4 $5 $6 $7 $8 $9 X,Y pos of 4 corners*
0 Add a 4 corners polygon primitive as box body*
4,1,4,$2,$3,$4,$5,$6,$7,$8,$9,$2,$3,0*
0 Add four circle primitives for the rounded corners*
1,1,$1+$1,$2,$3*
1,1,$1+$1,$4,$5*
1,1,$1+$1,$6,$7*
1,1,$1+$1,$8,$9*
0 Add four rect primitives between the rounded corners*
20,1,$1+$1,$2,$3,$4,$5,0*
20,1,$1+$1,$4,$5,$6,$7,0*
20,1,$1+$1,$6,$7,$8,$9,0*
20,1,$1+$1,$8,$9,$2,$3,0*%
G04 Aperture macros list end*
%ADD10RoundRect,0.200000X-0.200000X-0.275000X0.200000X-0.275000X0.200000X0.275000X-0.200000X0.275000X0*%
%ADD11C,3.430000*%
%ADD12C,2.400000*%
%ADD13C,1.400000*%
%ADD14RoundRect,0.200000X-0.275000X0.200000X-0.275000X-0.200000X0.275000X-0.200000X0.275000X0.200000X0*%
%ADD15R,0.450000X1.475000*%
%ADD16RoundRect,0.200000X0.200000X0.275000X-0.200000X0.275000X-0.200000X-0.275000X0.200000X-0.275000X0*%
%ADD17C,3.200000*%
%ADD18RoundRect,0.225000X-0.225000X-0.250000X0.225000X-0.250000X0.225000X0.250000X-0.225000X0.250000X0*%
%ADD19R,1.825000X0.700000*%
%ADD20RoundRect,0.225000X0.250000X-0.225000X0.250000X0.225000X-0.250000X0.225000X-0.250000X-0.225000X0*%
%ADD21RoundRect,0.225000X-0.250000X0.225000X-0.250000X-0.225000X0.250000X-0.225000X0.250000X0.225000X0*%
%ADD22R,3.500000X1.600000*%
%ADD23R,9.750000X12.200000*%
%ADD24RoundRect,0.200000X0.275000X-0.200000X0.275000X0.200000X-0.275000X0.200000X-0.275000X-0.200000X0*%
%ADD25RoundRect,0.243750X0.456250X-0.243750X0.456250X0.243750X-0.456250X0.243750X-0.456250X-0.243750X0*%
%ADD26R,0.700000X2.000000*%
%ADD27R,1.475000X0.450000*%
%ADD28R,2.100000X1.000000*%
%ADD29R,5.850000X4.900000*%
%ADD30R,1.525000X0.650000*%
G04 APERTURE END LIST*
D10*
X80175000Y-107000000D03*
X81825000Y-107000000D03*
D11*
X55000000Y-123210000D03*
X42650000Y-110000000D03*
X55000000Y-96790000D03*
D12*
X55000000Y-116300000D03*
X55000000Y-112100000D03*
X55000000Y-107900000D03*
X55000000Y-103700000D03*
X48650000Y-103700000D03*
X48650000Y-107900000D03*
X48650000Y-112100000D03*
X48650000Y-116300000D03*
D10*
X80175000Y-115500000D03*
X81825000Y-115500000D03*
D13*
X113730000Y-92500000D03*
X116230000Y-95000000D03*
X113730000Y-97500000D03*
X103730000Y-92500000D03*
X106230000Y-95000000D03*
X103730000Y-97500000D03*
D14*
X71000000Y-115175000D03*
X71000000Y-116825000D03*
D15*
X62961500Y-112433250D03*
X63611500Y-112433250D03*
X64261500Y-112433250D03*
X64911500Y-112433250D03*
X65561500Y-112433250D03*
X66211500Y-112433250D03*
X66861500Y-112433250D03*
X66861500Y-106557250D03*
X66211500Y-106557250D03*
X65561500Y-106557250D03*
X64911500Y-106557250D03*
X64261500Y-106557250D03*
X63611500Y-106557250D03*
X62961500Y-106557250D03*
D16*
X116400000Y-116050000D03*
X114750000Y-116050000D03*
D14*
X137000000Y-103675000D03*
X137000000Y-105325000D03*
X63000000Y-115220250D03*
X63000000Y-116870250D03*
D17*
X135000000Y-128000000D03*
D10*
X80175000Y-113000000D03*
X81825000Y-113000000D03*
D14*
X119700000Y-112375000D03*
X119700000Y-114025000D03*
D13*
X72000000Y-92500000D03*
X74500000Y-95000000D03*
X72000000Y-97500000D03*
D17*
X134750000Y-93000000D03*
D10*
X129975000Y-103200000D03*
X131625000Y-103200000D03*
X80175000Y-103000000D03*
X81825000Y-103000000D03*
D16*
X122475000Y-116075000D03*
X120825000Y-116075000D03*
D18*
X118525000Y-101000000D03*
X120075000Y-101000000D03*
D19*
X88438000Y-104190000D03*
X88438000Y-105460000D03*
X88438000Y-106730000D03*
X88438000Y-108000000D03*
X88438000Y-109270000D03*
X88438000Y-110540000D03*
X88438000Y-111810000D03*
X95562000Y-111810000D03*
X95562000Y-110540000D03*
X95562000Y-109270000D03*
X95562000Y-108000000D03*
X95562000Y-106730000D03*
X95562000Y-105460000D03*
X95562000Y-104190000D03*
D14*
X134400000Y-109125000D03*
X134400000Y-110775000D03*
D16*
X120125000Y-102800000D03*
X118475000Y-102800000D03*
D20*
X89157000Y-126615000D03*
X89157000Y-125065000D03*
D21*
X89157000Y-121565000D03*
X89157000Y-123115000D03*
D10*
X80175000Y-118000000D03*
X81825000Y-118000000D03*
D20*
X72400000Y-128575000D03*
X72400000Y-127025000D03*
D22*
X93425000Y-121560000D03*
D23*
X103700000Y-124100000D03*
D22*
X93425000Y-126640000D03*
D14*
X67000000Y-115045250D03*
X67000000Y-116695250D03*
D21*
X72400000Y-123825000D03*
X72400000Y-125375000D03*
D10*
X80175000Y-105000000D03*
X81825000Y-105000000D03*
D13*
X93230000Y-92500000D03*
X95730000Y-95000000D03*
X93230000Y-97500000D03*
X61500000Y-92500000D03*
X64000000Y-95000000D03*
X61500000Y-97500000D03*
X123230000Y-92500000D03*
X125730000Y-95000000D03*
X123230000Y-97500000D03*
D24*
X70000000Y-103825000D03*
X70000000Y-102175000D03*
D14*
X134800000Y-103675000D03*
X134800000Y-105325000D03*
D10*
X80175000Y-101000000D03*
X81825000Y-101000000D03*
D25*
X137200000Y-111037500D03*
X137200000Y-109162500D03*
D21*
X130457000Y-121565000D03*
X130457000Y-123115000D03*
D20*
X130457000Y-126715000D03*
X130457000Y-125165000D03*
D15*
X70735500Y-112495250D03*
X71385500Y-112495250D03*
X72035500Y-112495250D03*
X72685500Y-112495250D03*
X73335500Y-112495250D03*
X73985500Y-112495250D03*
X74635500Y-112495250D03*
X74635500Y-106619250D03*
X73985500Y-106619250D03*
X73335500Y-106619250D03*
X72685500Y-106619250D03*
X72035500Y-106619250D03*
X71385500Y-106619250D03*
X70735500Y-106619250D03*
D24*
X67000000Y-103825000D03*
X67000000Y-102175000D03*
X130450000Y-116925000D03*
X130450000Y-115275000D03*
X63000000Y-104000000D03*
X63000000Y-102350000D03*
D26*
X123300000Y-112400000D03*
X128700000Y-112400000D03*
X128700000Y-106400000D03*
X123300000Y-106400000D03*
D22*
X126332000Y-126680000D03*
D23*
X116057000Y-124140000D03*
D22*
X126332000Y-121600000D03*
D14*
X75000000Y-115000000D03*
X75000000Y-116650000D03*
D10*
X80175000Y-110500000D03*
X81825000Y-110500000D03*
D13*
X82230000Y-92500000D03*
X84730000Y-95000000D03*
X82230000Y-97500000D03*
D19*
X100438000Y-104190000D03*
X100438000Y-105460000D03*
X100438000Y-106730000D03*
X100438000Y-108000000D03*
X100438000Y-109270000D03*
X100438000Y-110540000D03*
X100438000Y-111810000D03*
X107562000Y-111810000D03*
X107562000Y-110540000D03*
X107562000Y-109270000D03*
X107562000Y-108000000D03*
X107562000Y-106730000D03*
X107562000Y-105460000D03*
X107562000Y-104190000D03*
D16*
X128025000Y-115825000D03*
X126375000Y-115825000D03*
D27*
X122788000Y-100825000D03*
X122788000Y-101475000D03*
X122788000Y-102125000D03*
X122788000Y-102775000D03*
X127212000Y-102775000D03*
X127212000Y-102125000D03*
X127212000Y-101475000D03*
X127212000Y-100825000D03*
D24*
X75000000Y-103825000D03*
X75000000Y-102175000D03*
D28*
X74650000Y-123920000D03*
X74650000Y-128480000D03*
D29*
X81450000Y-126200000D03*
D30*
X111100000Y-104200000D03*
X111100000Y-105470000D03*
X111100000Y-106740000D03*
X111100000Y-108010000D03*
X111100000Y-109280000D03*
X111100000Y-110550000D03*
X111100000Y-111820000D03*
X116524000Y-111820000D03*
X116524000Y-110550000D03*
X116524000Y-109280000D03*
X116524000Y-108010000D03*
X116524000Y-106740000D03*
X116524000Y-105470000D03*
X116524000Y-104200000D03*
M02*
