M48
; DRILL file {KiCad 9.0.0} date 2025-04-17T11:51:36-0700
; FORMAT={-:-/ absolute / metric / decimal}
; #@! TF.CreationDate,2025-04-17T11:51:36-07:00
; #@! TF.GenerationSoftware,Kicad,Pcbnew,9.0.0
; #@! TF.FileFunction,Plated,1,4,PTH
FMAT,2
METRIC
; #@! TA.AperFunction,Plated,PTH,ViaDrill
T1C0.300
; #@! TA.AperFunction,Plated,PTH,ComponentDrill
T2C0.600
; #@! TA.AperFunction,Plated,PTH,ComponentDrill
T3C0.850
; #@! TA.AperFunction,Plated,PTH,ComponentDrill
T4C0.950
; #@! TA.AperFunction,Plated,PTH,ComponentDrill
T5C1.000
%
G90
G05
T1
X133.0Y-112.0
X133.15Y-102.0
X133.25Y-97.5
X134.048Y-102.046
X134.5Y-97.5
X138.25Y-106.0
X138.25Y-106.75
X138.75Y-102.75
X138.803Y-101.952
X139.0Y-106.0
X139.0Y-106.75
X139.75Y-106.0
X139.75Y-106.75
X141.04Y-97.44
X141.617Y-99.409
X141.75Y-118.75
X142.234Y-98.9
X142.25Y-88.25
X142.25Y-89.0
X142.25Y-89.75
X142.5Y-118.75
X142.75Y-134.0
X142.75Y-134.75
X143.0Y-88.25
X143.0Y-89.0
X143.0Y-89.75
X143.0Y-103.1
X143.031Y-101.229
X143.25Y-118.75
X143.5Y-134.0
X143.5Y-134.75
X143.98Y-104.6
X144.25Y-134.0
X144.25Y-134.75
X144.275Y-94.55
X145.25Y-125.5
X145.25Y-126.25
X145.6Y-98.6
X146.0Y-102.4
X146.0Y-125.5
X146.0Y-126.25
X146.75Y-125.5
X146.75Y-126.25
X147.5Y-97.25
X147.5Y-100.0
X147.5Y-102.5
X148.0Y-112.0
X148.25Y-88.75
X148.25Y-89.5
X148.25Y-97.25
X148.25Y-100.0
X148.25Y-102.5
X148.7Y-130.362
X148.8Y-113.8
X149.0Y-97.25
X149.0Y-100.0
X149.0Y-102.5
X149.5Y-92.5
X150.775Y-107.55
X151.0Y-87.5
X151.0Y-113.0
X152.0Y-127.062
X152.25Y-89.7
X153.0Y-89.7
X153.0Y-110.0
X153.0Y-113.0
X154.4Y-97.25
X154.5Y-93.0
X154.5Y-93.75
X155.475Y-106.35
X155.6Y-127.0
X156.0Y-109.0
X156.05Y-133.4
X156.412Y-104.737
X156.768Y-121.1
X157.5Y-133.4
X157.668Y-127.4
X157.75Y-87.75
X157.75Y-88.5
X157.75Y-89.25
X157.75Y-90.475
X157.75Y-94.85
X157.75Y-96.25
X158.4Y-133.4
X158.5Y-87.75
X158.5Y-88.5
X158.5Y-89.25
X158.75Y-108.75
X158.768Y-127.4
X159.568Y-121.1
X160.768Y-122.2
X160.768Y-123.4
X161.0Y-108.8
X162.668Y-123.8
X162.75Y-101.4
X162.75Y-102.2
X163.5Y-123.8
X163.779Y-97.11
X164.5Y-129.0
X164.5Y-129.75
X164.525Y-119.675
X165.25Y-129.0
X165.25Y-129.75
X165.25Y-130.5
X165.625Y-118.375
X165.637Y-97.862
X171.425Y-110.4
X171.5Y-112.5
T3
X147.5Y-134.05
X152.5Y-134.05
T4
X105.6Y-98.8
X105.6Y-101.34
X105.6Y-103.88
X105.6Y-106.42
X105.6Y-108.96
X105.6Y-125.16
X105.6Y-127.7
X105.6Y-130.24
X105.6Y-132.78
X105.6Y-135.32
X131.0Y-88.64
X131.0Y-91.18
X131.0Y-93.72
X131.0Y-96.26
X131.0Y-98.8
X131.0Y-101.34
X131.0Y-103.88
X131.0Y-106.42
X131.0Y-108.96
X131.0Y-115.0
X131.0Y-117.54
X131.0Y-120.08
X131.0Y-122.62
X131.0Y-125.16
X131.0Y-127.7
X131.0Y-130.24
X131.0Y-132.78
X131.0Y-135.32
X137.0Y-120.287
X137.0Y-122.787
X137.0Y-125.287
X137.0Y-127.787
X169.0Y-88.46
X169.0Y-91.0
X169.0Y-93.54
X169.0Y-96.08
X169.0Y-98.62
X169.0Y-101.16
X169.0Y-103.7
X169.0Y-106.24
X169.0Y-108.78
X169.0Y-115.0
X169.0Y-117.54
X169.0Y-120.08
X169.0Y-122.62
X169.0Y-125.16
X169.0Y-127.7
X169.0Y-130.24
X169.0Y-132.78
X169.0Y-135.32
X194.4Y-88.46
X194.4Y-91.0
X194.4Y-93.54
X194.4Y-96.08
X194.4Y-98.62
X194.4Y-115.0
X194.4Y-117.54
X194.4Y-120.08
X194.4Y-122.62
X194.4Y-125.16
T5
X137.05Y-111.75
X137.05Y-114.25
X143.0Y-111.725
X143.0Y-114.265
X159.485Y-98.75
X161.95Y-114.0
X161.95Y-116.5
X162.025Y-98.75
T2
X146.5Y-137.1G85X146.5Y-136.4
G05
X153.5Y-136.4G85X153.5Y-137.1
G05
M30
