%TF.GenerationSoftware,KiCad,Pcbnew,9.0.2*%
%TF.CreationDate,2025-06-15T01:11:38-07:00*%
%TF.ProjectId,SDM26_SplitterV1.1,53444d32-365f-4537-906c-697474657256,rev?*%
%TF.SameCoordinates,Original*%
%TF.FileFunction,Copper,L2,Bot*%
%TF.FilePolarity,Positive*%
%FSLAX46Y46*%
G04 Gerber Fmt 4.6, Leading zero omitted, Abs format (unit mm)*
G04 Created by KiCad (PCBNEW 9.0.2) date 2025-06-15 01:11:38*
%MOMM*%
%LPD*%
G01*
G04 APERTURE LIST*
G04 Aperture macros list*
%AMRoundRect*
0 Rectangle with rounded corners*
0 $1 Rounding radius*
0 $2 $3 $4 $5 $6 $7 $8 $9 X,Y pos of 4 corners*
0 Add a 4 corners polygon primitive as box body*
4,1,4,$2,$3,$4,$5,$6,$7,$8,$9,$2,$3,0*
0 Add four circle primitives for the rounded corners*
1,1,$1+$1,$2,$3*
1,1,$1+$1,$4,$5*
1,1,$1+$1,$6,$7*
1,1,$1+$1,$8,$9*
0 Add four rect primitives between the rounded corners*
20,1,$1+$1,$2,$3,$4,$5,0*
20,1,$1+$1,$4,$5,$6,$7,0*
20,1,$1+$1,$6,$7,$8,$9,0*
20,1,$1+$1,$8,$9,$2,$3,0*%
G04 Aperture macros list end*
%TA.AperFunction,ComponentPad*%
%ADD10RoundRect,0.250000X-0.725000X0.600000X-0.725000X-0.600000X0.725000X-0.600000X0.725000X0.600000X0*%
%TD*%
%TA.AperFunction,ComponentPad*%
%ADD11O,1.950000X1.700000*%
%TD*%
%TA.AperFunction,ComponentPad*%
%ADD12RoundRect,0.250000X0.725000X-0.600000X0.725000X0.600000X-0.725000X0.600000X-0.725000X-0.600000X0*%
%TD*%
%TA.AperFunction,ViaPad*%
%ADD13C,0.600000*%
%TD*%
%TA.AperFunction,Conductor*%
%ADD14C,0.300000*%
%TD*%
G04 APERTURE END LIST*
D10*
%TO.P,J4,1,Pin_1*%
%TO.N,GND*%
X109900000Y-82350000D03*
D11*
%TO.P,J4,2,Pin_2*%
%TO.N,/CANH*%
X109900000Y-84850000D03*
%TO.P,J4,3,Pin_3*%
%TO.N,/CANL*%
X109900000Y-87350000D03*
%TO.P,J4,4,Pin_4*%
%TO.N,+5V*%
X109900000Y-89850000D03*
%TD*%
D12*
%TO.P,J1,1,Pin_1*%
%TO.N,GND*%
X99900000Y-119850000D03*
D11*
%TO.P,J1,2,Pin_2*%
%TO.N,/CANH*%
X99900000Y-117350000D03*
%TO.P,J1,3,Pin_3*%
%TO.N,/CANL*%
X99900000Y-114850000D03*
%TO.P,J1,4,Pin_4*%
%TO.N,+5V*%
X99900000Y-112350000D03*
%TD*%
D12*
%TO.P,J2,1,Pin_1*%
%TO.N,GND*%
X99900000Y-104850000D03*
D11*
%TO.P,J2,2,Pin_2*%
%TO.N,/CANH*%
X99900000Y-102350000D03*
%TO.P,J2,3,Pin_3*%
%TO.N,/CANL*%
X99900000Y-99850000D03*
%TO.P,J2,4,Pin_4*%
%TO.N,+5V*%
X99900000Y-97350000D03*
%TD*%
D10*
%TO.P,J6,1,Pin_1*%
%TO.N,GND*%
X109900000Y-112350000D03*
D11*
%TO.P,J6,2,Pin_2*%
%TO.N,/CANH*%
X109900000Y-114850000D03*
%TO.P,J6,3,Pin_3*%
%TO.N,/CANL*%
X109900000Y-117350000D03*
%TO.P,J6,4,Pin_4*%
%TO.N,+5V*%
X109900000Y-119850000D03*
%TD*%
D12*
%TO.P,J3,1,Pin_1*%
%TO.N,GND*%
X99900000Y-89850000D03*
D11*
%TO.P,J3,2,Pin_2*%
%TO.N,/CANH*%
X99900000Y-87350000D03*
%TO.P,J3,3,Pin_3*%
%TO.N,/CANL*%
X99900000Y-84850000D03*
%TO.P,J3,4,Pin_4*%
%TO.N,+5V*%
X99900000Y-82350000D03*
%TD*%
D10*
%TO.P,J5,1,Pin_1*%
%TO.N,GND*%
X109900000Y-97350000D03*
D11*
%TO.P,J5,2,Pin_2*%
%TO.N,/CANH*%
X109900000Y-99850000D03*
%TO.P,J5,3,Pin_3*%
%TO.N,/CANL*%
X109900000Y-102350000D03*
%TO.P,J5,4,Pin_4*%
%TO.N,+5V*%
X109900000Y-104850000D03*
%TD*%
D13*
%TO.N,GND*%
X114412500Y-79000000D03*
%TD*%
D14*
%TO.N,/CANH*%
X99900000Y-102350000D02*
X97000000Y-99450000D01*
X103000000Y-87350000D02*
X105500000Y-84850000D01*
X114000000Y-103950000D02*
X114000000Y-110750000D01*
X99900000Y-87350000D02*
X103000000Y-87350000D01*
X97300000Y-114750000D02*
X97300000Y-104950000D01*
X113900000Y-88850000D02*
X113900000Y-95850000D01*
X99900000Y-117350000D02*
X97300000Y-114750000D01*
X97300000Y-104950000D02*
X99900000Y-102350000D01*
X109900000Y-84850000D02*
X113900000Y-88850000D01*
X97000000Y-90250000D02*
X99900000Y-87350000D01*
X105500000Y-84850000D02*
X109900000Y-84850000D01*
X97000000Y-99450000D02*
X97000000Y-90250000D01*
X109900000Y-99850000D02*
X114000000Y-103950000D01*
X113900000Y-95850000D02*
X109900000Y-99850000D01*
X114000000Y-110750000D02*
X109900000Y-114850000D01*
%TD*%
%TA.AperFunction,Conductor*%
%TO.N,GND*%
G36*
X114403244Y-73100670D02*
G01*
X114707046Y-73116592D01*
X114719953Y-73117949D01*
X114851089Y-73138718D01*
X115017209Y-73165028D01*
X115029896Y-73167724D01*
X115320625Y-73245625D01*
X115332965Y-73249635D01*
X115613938Y-73357490D01*
X115625790Y-73362767D01*
X115893968Y-73499411D01*
X115905199Y-73505896D01*
X116157608Y-73669812D01*
X116168109Y-73677441D01*
X116402010Y-73866850D01*
X116411655Y-73875535D01*
X116624464Y-74088344D01*
X116633149Y-74097989D01*
X116822558Y-74331890D01*
X116830187Y-74342391D01*
X116994101Y-74594796D01*
X117000591Y-74606036D01*
X117137231Y-74874206D01*
X117142510Y-74886064D01*
X117250363Y-75167033D01*
X117254374Y-75179376D01*
X117332273Y-75470097D01*
X117334971Y-75482794D01*
X117382050Y-75780046D01*
X117383407Y-75792953D01*
X117399330Y-76096756D01*
X117399500Y-76103246D01*
X117399500Y-126096753D01*
X117399330Y-126103243D01*
X117383407Y-126407046D01*
X117382050Y-126419953D01*
X117334971Y-126717205D01*
X117332273Y-126729902D01*
X117254374Y-127020623D01*
X117250363Y-127032966D01*
X117142510Y-127313935D01*
X117137231Y-127325793D01*
X117000591Y-127593963D01*
X116994101Y-127605203D01*
X116830187Y-127857608D01*
X116822558Y-127868109D01*
X116633149Y-128102010D01*
X116624464Y-128111655D01*
X116411655Y-128324464D01*
X116402010Y-128333149D01*
X116168109Y-128522558D01*
X116157608Y-128530187D01*
X115905203Y-128694101D01*
X115893963Y-128700591D01*
X115625793Y-128837231D01*
X115613935Y-128842510D01*
X115332966Y-128950363D01*
X115320623Y-128954374D01*
X115029902Y-129032273D01*
X115017205Y-129034971D01*
X114719953Y-129082050D01*
X114707046Y-129083407D01*
X114403244Y-129099330D01*
X114396754Y-129099500D01*
X95403246Y-129099500D01*
X95396756Y-129099330D01*
X95092953Y-129083407D01*
X95080046Y-129082050D01*
X94782794Y-129034971D01*
X94770097Y-129032273D01*
X94479376Y-128954374D01*
X94467033Y-128950363D01*
X94186064Y-128842510D01*
X94174206Y-128837231D01*
X93906036Y-128700591D01*
X93894796Y-128694101D01*
X93642391Y-128530187D01*
X93631890Y-128522558D01*
X93397989Y-128333149D01*
X93388344Y-128324464D01*
X93175535Y-128111655D01*
X93166850Y-128102010D01*
X92977441Y-127868109D01*
X92969812Y-127857608D01*
X92805896Y-127605199D01*
X92799408Y-127593963D01*
X92662768Y-127325793D01*
X92657489Y-127313935D01*
X92549636Y-127032966D01*
X92545625Y-127020623D01*
X92538563Y-126994266D01*
X92467724Y-126729896D01*
X92465028Y-126717205D01*
X92417949Y-126419953D01*
X92416592Y-126407046D01*
X92400670Y-126103243D01*
X92400500Y-126096753D01*
X92400500Y-125478711D01*
X103199500Y-125478711D01*
X103199500Y-125721288D01*
X103231161Y-125961785D01*
X103293947Y-126196104D01*
X103330750Y-126284954D01*
X103386776Y-126420212D01*
X103508064Y-126630289D01*
X103508066Y-126630292D01*
X103508067Y-126630293D01*
X103655733Y-126822736D01*
X103655739Y-126822743D01*
X103827256Y-126994260D01*
X103827263Y-126994266D01*
X103877698Y-127032966D01*
X104019711Y-127141936D01*
X104229788Y-127263224D01*
X104453900Y-127356054D01*
X104688211Y-127418838D01*
X104868586Y-127442584D01*
X104928711Y-127450500D01*
X104928712Y-127450500D01*
X105171289Y-127450500D01*
X105219388Y-127444167D01*
X105411789Y-127418838D01*
X105646100Y-127356054D01*
X105870212Y-127263224D01*
X106080289Y-127141936D01*
X106272738Y-126994265D01*
X106444265Y-126822738D01*
X106591936Y-126630289D01*
X106713224Y-126420212D01*
X106806054Y-126196100D01*
X106868838Y-125961789D01*
X106900500Y-125721288D01*
X106900500Y-125478712D01*
X106868838Y-125238211D01*
X106806054Y-125003900D01*
X106713224Y-124779788D01*
X106591936Y-124569711D01*
X106444265Y-124377262D01*
X106444260Y-124377256D01*
X106272743Y-124205739D01*
X106272736Y-124205733D01*
X106080293Y-124058067D01*
X106080292Y-124058066D01*
X106080289Y-124058064D01*
X105870212Y-123936776D01*
X105870205Y-123936773D01*
X105646104Y-123843947D01*
X105411785Y-123781161D01*
X105171289Y-123749500D01*
X105171288Y-123749500D01*
X104928712Y-123749500D01*
X104928711Y-123749500D01*
X104688214Y-123781161D01*
X104453895Y-123843947D01*
X104229794Y-123936773D01*
X104229785Y-123936777D01*
X104019706Y-124058067D01*
X103827263Y-124205733D01*
X103827256Y-124205739D01*
X103655739Y-124377256D01*
X103655733Y-124377263D01*
X103508067Y-124569706D01*
X103386777Y-124779785D01*
X103386773Y-124779794D01*
X103293947Y-125003895D01*
X103231161Y-125238214D01*
X103199500Y-125478711D01*
X92400500Y-125478711D01*
X92400500Y-99514071D01*
X96349499Y-99514071D01*
X96374497Y-99639738D01*
X96374499Y-99639744D01*
X96423534Y-99758125D01*
X96494726Y-99864673D01*
X96494727Y-99864674D01*
X98454555Y-101824501D01*
X98488040Y-101885824D01*
X98484805Y-101950499D01*
X98457754Y-102033755D01*
X98457753Y-102033759D01*
X98424500Y-102243713D01*
X98424500Y-102456286D01*
X98457753Y-102666240D01*
X98457754Y-102666244D01*
X98484805Y-102749499D01*
X98486800Y-102819340D01*
X98454555Y-102875497D01*
X96794726Y-104535326D01*
X96723534Y-104641874D01*
X96674499Y-104760255D01*
X96674497Y-104760261D01*
X96649500Y-104885928D01*
X96649500Y-104885931D01*
X96649500Y-114814069D01*
X96669392Y-114914069D01*
X96674499Y-114939744D01*
X96723534Y-115058125D01*
X96794726Y-115164673D01*
X96794727Y-115164674D01*
X98454555Y-116824501D01*
X98488040Y-116885824D01*
X98484805Y-116950499D01*
X98457754Y-117033755D01*
X98457753Y-117033759D01*
X98424500Y-117243713D01*
X98424500Y-117456286D01*
X98457753Y-117666239D01*
X98523444Y-117868414D01*
X98619951Y-118057820D01*
X98744890Y-118229786D01*
X98884068Y-118368964D01*
X98917553Y-118430287D01*
X98912569Y-118499979D01*
X98870697Y-118555912D01*
X98861484Y-118562183D01*
X98706659Y-118657680D01*
X98706655Y-118657683D01*
X98582684Y-118781654D01*
X98490643Y-118930875D01*
X98490641Y-118930880D01*
X98435494Y-119097302D01*
X98435493Y-119097309D01*
X98425000Y-119200013D01*
X98425000Y-119600000D01*
X99495854Y-119600000D01*
X99457370Y-119666657D01*
X99425000Y-119787465D01*
X99425000Y-119912535D01*
X99457370Y-120033343D01*
X99495854Y-120100000D01*
X98425001Y-120100000D01*
X98425001Y-120499986D01*
X98435494Y-120602697D01*
X98490641Y-120769119D01*
X98490643Y-120769124D01*
X98582684Y-120918345D01*
X98706654Y-121042315D01*
X98855875Y-121134356D01*
X98855880Y-121134358D01*
X99022302Y-121189505D01*
X99022309Y-121189506D01*
X99125019Y-121199999D01*
X99649999Y-121199999D01*
X99650000Y-121199998D01*
X99650000Y-120254145D01*
X99716657Y-120292630D01*
X99837465Y-120325000D01*
X99962535Y-120325000D01*
X100083343Y-120292630D01*
X100150000Y-120254145D01*
X100150000Y-121199999D01*
X100674972Y-121199999D01*
X100674986Y-121199998D01*
X100777697Y-121189505D01*
X100944119Y-121134358D01*
X100944124Y-121134356D01*
X101093345Y-121042315D01*
X101217315Y-120918345D01*
X101309356Y-120769124D01*
X101309358Y-120769119D01*
X101364505Y-120602697D01*
X101364506Y-120602690D01*
X101374999Y-120499986D01*
X101375000Y-120499973D01*
X101375000Y-120100000D01*
X100304146Y-120100000D01*
X100342630Y-120033343D01*
X100375000Y-119912535D01*
X100375000Y-119787465D01*
X100342630Y-119666657D01*
X100304146Y-119600000D01*
X101374999Y-119600000D01*
X101374999Y-119200028D01*
X101374998Y-119200013D01*
X101364505Y-119097302D01*
X101309358Y-118930880D01*
X101309356Y-118930875D01*
X101217315Y-118781654D01*
X101093345Y-118657684D01*
X100938515Y-118562184D01*
X100891791Y-118510236D01*
X100880568Y-118441273D01*
X100908412Y-118377191D01*
X100915909Y-118368986D01*
X101055104Y-118229792D01*
X101180051Y-118057816D01*
X101276557Y-117868412D01*
X101342246Y-117666243D01*
X101375500Y-117456287D01*
X101375500Y-117243713D01*
X101342246Y-117033757D01*
X101276557Y-116831588D01*
X101180051Y-116642184D01*
X101180049Y-116642181D01*
X101180048Y-116642179D01*
X101055109Y-116470213D01*
X100904792Y-116319896D01*
X100904784Y-116319890D01*
X100740204Y-116200316D01*
X100697540Y-116144989D01*
X100691561Y-116075376D01*
X100724166Y-116013580D01*
X100740199Y-115999686D01*
X100904792Y-115880104D01*
X101055104Y-115729792D01*
X101055106Y-115729788D01*
X101055109Y-115729786D01*
X101180048Y-115557820D01*
X101180047Y-115557820D01*
X101180051Y-115557816D01*
X101276557Y-115368412D01*
X101342246Y-115166243D01*
X101375500Y-114956287D01*
X101375500Y-114743713D01*
X101342246Y-114533757D01*
X101276557Y-114331588D01*
X101180051Y-114142184D01*
X101180049Y-114142181D01*
X101180048Y-114142179D01*
X101055109Y-113970213D01*
X100904792Y-113819896D01*
X100820598Y-113758726D01*
X100740204Y-113700316D01*
X100697540Y-113644989D01*
X100691561Y-113575376D01*
X100724166Y-113513580D01*
X100740199Y-113499686D01*
X100904792Y-113380104D01*
X101055104Y-113229792D01*
X101055106Y-113229788D01*
X101055109Y-113229786D01*
X101180048Y-113057820D01*
X101180047Y-113057820D01*
X101180051Y-113057816D01*
X101276557Y-112868412D01*
X101342246Y-112666243D01*
X101375500Y-112456287D01*
X101375500Y-112243713D01*
X101342246Y-112033757D01*
X101276557Y-111831588D01*
X101276554Y-111831582D01*
X101236597Y-111753160D01*
X101236596Y-111753159D01*
X101209516Y-111700013D01*
X101180051Y-111642184D01*
X101147443Y-111597302D01*
X101055109Y-111470213D01*
X100904786Y-111319890D01*
X100732820Y-111194951D01*
X100543414Y-111098444D01*
X100543413Y-111098443D01*
X100543412Y-111098443D01*
X100341243Y-111032754D01*
X100341241Y-111032753D01*
X100341240Y-111032753D01*
X100179957Y-111007208D01*
X100131287Y-110999500D01*
X99668713Y-110999500D01*
X99620042Y-111007208D01*
X99458760Y-111032753D01*
X99256585Y-111098444D01*
X99067179Y-111194951D01*
X98895213Y-111319890D01*
X98744890Y-111470213D01*
X98619951Y-111642179D01*
X98523444Y-111831585D01*
X98457753Y-112033760D01*
X98424500Y-112243713D01*
X98424500Y-112456286D01*
X98457753Y-112666239D01*
X98523444Y-112868414D01*
X98619951Y-113057820D01*
X98744890Y-113229786D01*
X98895209Y-113380105D01*
X98895214Y-113380109D01*
X99059793Y-113499682D01*
X99102459Y-113555011D01*
X99108438Y-113624625D01*
X99075833Y-113686420D01*
X99059793Y-113700318D01*
X98895214Y-113819890D01*
X98895209Y-113819894D01*
X98744890Y-113970213D01*
X98619951Y-114142179D01*
X98523444Y-114331585D01*
X98457753Y-114533760D01*
X98433742Y-114685359D01*
X98403813Y-114748494D01*
X98344501Y-114785425D01*
X98274638Y-114784427D01*
X98223588Y-114753642D01*
X97986819Y-114516873D01*
X97953334Y-114455550D01*
X97950500Y-114429192D01*
X97950500Y-105270807D01*
X97970185Y-105203768D01*
X97986814Y-105183131D01*
X98213320Y-104956625D01*
X98274642Y-104923141D01*
X98344334Y-104928125D01*
X98400267Y-104969997D01*
X98424684Y-105035461D01*
X98425000Y-105044307D01*
X98425000Y-105499971D01*
X98425001Y-105499987D01*
X98435494Y-105602697D01*
X98490641Y-105769119D01*
X98490643Y-105769124D01*
X98582684Y-105918345D01*
X98706654Y-106042315D01*
X98855875Y-106134356D01*
X98855880Y-106134358D01*
X99022302Y-106189505D01*
X99022309Y-106189506D01*
X99125019Y-106199999D01*
X99649999Y-106199999D01*
X99650000Y-106199998D01*
X99650000Y-105254145D01*
X99716657Y-105292630D01*
X99837465Y-105325000D01*
X99962535Y-105325000D01*
X100083343Y-105292630D01*
X100150000Y-105254145D01*
X100150000Y-106199999D01*
X100674972Y-106199999D01*
X100674986Y-106199998D01*
X100777697Y-106189505D01*
X100944119Y-106134358D01*
X100944124Y-106134356D01*
X101093345Y-106042315D01*
X101217315Y-105918345D01*
X101309356Y-105769124D01*
X101309358Y-105769119D01*
X101364505Y-105602697D01*
X101364506Y-105602690D01*
X101374999Y-105499986D01*
X101375000Y-105499973D01*
X101375000Y-105100000D01*
X100304146Y-105100000D01*
X100342630Y-105033343D01*
X100375000Y-104912535D01*
X100375000Y-104787465D01*
X100342630Y-104666657D01*
X100304146Y-104600000D01*
X101374999Y-104600000D01*
X101374999Y-104200028D01*
X101374998Y-104200013D01*
X101364505Y-104097302D01*
X101309358Y-103930880D01*
X101309356Y-103930875D01*
X101217315Y-103781654D01*
X101093345Y-103657684D01*
X100938515Y-103562184D01*
X100891791Y-103510236D01*
X100880568Y-103441273D01*
X100908412Y-103377191D01*
X100915909Y-103368986D01*
X101055104Y-103229792D01*
X101180051Y-103057816D01*
X101276557Y-102868412D01*
X101342246Y-102666243D01*
X101375500Y-102456287D01*
X101375500Y-102243713D01*
X101342246Y-102033757D01*
X101276557Y-101831588D01*
X101180051Y-101642184D01*
X101180049Y-101642181D01*
X101180048Y-101642179D01*
X101055109Y-101470213D01*
X100904792Y-101319896D01*
X100904784Y-101319890D01*
X100740204Y-101200316D01*
X100697540Y-101144989D01*
X100691561Y-101075376D01*
X100724166Y-101013580D01*
X100740199Y-100999686D01*
X100904792Y-100880104D01*
X101055104Y-100729792D01*
X101055106Y-100729788D01*
X101055109Y-100729786D01*
X101180048Y-100557820D01*
X101180047Y-100557820D01*
X101180051Y-100557816D01*
X101276557Y-100368412D01*
X101342246Y-100166243D01*
X101375500Y-99956287D01*
X101375500Y-99743713D01*
X101342246Y-99533757D01*
X101276557Y-99331588D01*
X101180051Y-99142184D01*
X101180049Y-99142181D01*
X101180048Y-99142179D01*
X101055109Y-98970213D01*
X100904792Y-98819896D01*
X100820598Y-98758726D01*
X100740204Y-98700316D01*
X100697540Y-98644989D01*
X100691561Y-98575376D01*
X100724166Y-98513580D01*
X100740199Y-98499686D01*
X100904792Y-98380104D01*
X101055104Y-98229792D01*
X101055106Y-98229788D01*
X101055109Y-98229786D01*
X101180048Y-98057820D01*
X101180047Y-98057820D01*
X101180051Y-98057816D01*
X101276557Y-97868412D01*
X101342246Y-97666243D01*
X101375500Y-97456287D01*
X101375500Y-97243713D01*
X101342246Y-97033757D01*
X101276557Y-96831588D01*
X101276554Y-96831582D01*
X101236597Y-96753160D01*
X101236596Y-96753159D01*
X101209516Y-96700013D01*
X101180051Y-96642184D01*
X101147443Y-96597302D01*
X101055109Y-96470213D01*
X100904786Y-96319890D01*
X100732820Y-96194951D01*
X100543414Y-96098444D01*
X100543413Y-96098443D01*
X100543412Y-96098443D01*
X100341243Y-96032754D01*
X100341241Y-96032753D01*
X100341240Y-96032753D01*
X100179957Y-96007208D01*
X100131287Y-95999500D01*
X99668713Y-95999500D01*
X99620042Y-96007208D01*
X99458760Y-96032753D01*
X99256585Y-96098444D01*
X99067179Y-96194951D01*
X98895213Y-96319890D01*
X98744890Y-96470213D01*
X98619951Y-96642179D01*
X98523444Y-96831585D01*
X98457753Y-97033760D01*
X98424500Y-97243713D01*
X98424500Y-97456286D01*
X98457753Y-97666239D01*
X98523444Y-97868414D01*
X98619951Y-98057820D01*
X98744890Y-98229786D01*
X98895209Y-98380105D01*
X98895214Y-98380109D01*
X99059793Y-98499682D01*
X99102459Y-98555011D01*
X99108438Y-98624625D01*
X99075833Y-98686420D01*
X99059793Y-98700318D01*
X98895214Y-98819890D01*
X98895209Y-98819894D01*
X98744890Y-98970213D01*
X98619951Y-99142179D01*
X98523444Y-99331585D01*
X98457753Y-99533760D01*
X98433742Y-99685359D01*
X98403813Y-99748494D01*
X98344501Y-99785425D01*
X98274638Y-99784427D01*
X98223588Y-99753642D01*
X97686819Y-99216873D01*
X97653334Y-99155550D01*
X97650500Y-99129192D01*
X97650500Y-90570807D01*
X97670185Y-90503768D01*
X97686814Y-90483131D01*
X98213322Y-89956622D01*
X98274642Y-89923140D01*
X98344333Y-89928124D01*
X98400267Y-89969995D01*
X98424684Y-90035460D01*
X98425000Y-90044306D01*
X98425000Y-90499971D01*
X98425001Y-90499987D01*
X98435494Y-90602697D01*
X98490641Y-90769119D01*
X98490643Y-90769124D01*
X98582684Y-90918345D01*
X98706654Y-91042315D01*
X98855875Y-91134356D01*
X98855880Y-91134358D01*
X99022302Y-91189505D01*
X99022309Y-91189506D01*
X99125019Y-91199999D01*
X99649999Y-91199999D01*
X99650000Y-91199998D01*
X99650000Y-90254145D01*
X99716657Y-90292630D01*
X99837465Y-90325000D01*
X99962535Y-90325000D01*
X100083343Y-90292630D01*
X100150000Y-90254145D01*
X100150000Y-91199999D01*
X100674972Y-91199999D01*
X100674986Y-91199998D01*
X100777697Y-91189505D01*
X100944119Y-91134358D01*
X100944124Y-91134356D01*
X101093345Y-91042315D01*
X101217315Y-90918345D01*
X101309356Y-90769124D01*
X101309358Y-90769119D01*
X101364505Y-90602697D01*
X101364506Y-90602690D01*
X101374999Y-90499986D01*
X101375000Y-90499973D01*
X101375000Y-90100000D01*
X100304146Y-90100000D01*
X100342630Y-90033343D01*
X100375000Y-89912535D01*
X100375000Y-89787465D01*
X100342630Y-89666657D01*
X100304146Y-89600000D01*
X101374999Y-89600000D01*
X101374999Y-89200028D01*
X101374998Y-89200013D01*
X101364505Y-89097302D01*
X101309358Y-88930880D01*
X101309356Y-88930875D01*
X101217315Y-88781654D01*
X101093345Y-88657684D01*
X100938515Y-88562184D01*
X100891791Y-88510236D01*
X100880568Y-88441273D01*
X100908412Y-88377191D01*
X100915909Y-88368986D01*
X101055104Y-88229792D01*
X101055110Y-88229784D01*
X101182915Y-88053875D01*
X101184259Y-88054851D01*
X101230705Y-88012834D01*
X101284618Y-88000500D01*
X103064071Y-88000500D01*
X103148615Y-87983682D01*
X103189744Y-87975501D01*
X103308127Y-87926465D01*
X103414669Y-87855277D01*
X105733127Y-85536819D01*
X105794450Y-85503334D01*
X105820808Y-85500500D01*
X108515382Y-85500500D01*
X108582421Y-85520185D01*
X108616099Y-85554591D01*
X108617085Y-85553875D01*
X108744890Y-85729786D01*
X108895209Y-85880105D01*
X108895214Y-85880109D01*
X109059793Y-85999682D01*
X109102459Y-86055011D01*
X109108438Y-86124625D01*
X109075833Y-86186420D01*
X109059793Y-86200318D01*
X108895214Y-86319890D01*
X108895209Y-86319894D01*
X108744890Y-86470213D01*
X108619951Y-86642179D01*
X108523444Y-86831585D01*
X108457753Y-87033760D01*
X108424500Y-87243713D01*
X108424500Y-87456286D01*
X108457753Y-87666239D01*
X108457753Y-87666241D01*
X108457754Y-87666243D01*
X108519175Y-87855277D01*
X108523444Y-87868414D01*
X108619951Y-88057820D01*
X108744890Y-88229786D01*
X108895209Y-88380105D01*
X108895214Y-88380109D01*
X109059793Y-88499682D01*
X109102459Y-88555011D01*
X109108438Y-88624625D01*
X109075833Y-88686420D01*
X109059793Y-88700318D01*
X108895214Y-88819890D01*
X108895209Y-88819894D01*
X108744890Y-88970213D01*
X108619951Y-89142179D01*
X108523444Y-89331585D01*
X108457753Y-89533760D01*
X108427622Y-89724000D01*
X108424500Y-89743713D01*
X108424500Y-89956287D01*
X108434534Y-90019644D01*
X108457753Y-90166239D01*
X108523444Y-90368414D01*
X108619951Y-90557820D01*
X108744890Y-90729786D01*
X108895213Y-90880109D01*
X109067179Y-91005048D01*
X109067181Y-91005049D01*
X109067184Y-91005051D01*
X109256588Y-91101557D01*
X109458757Y-91167246D01*
X109668713Y-91200500D01*
X109668714Y-91200500D01*
X110131286Y-91200500D01*
X110131287Y-91200500D01*
X110341243Y-91167246D01*
X110543412Y-91101557D01*
X110732816Y-91005051D01*
X110754789Y-90989086D01*
X110904786Y-90880109D01*
X110904788Y-90880106D01*
X110904792Y-90880104D01*
X111055104Y-90729792D01*
X111055106Y-90729788D01*
X111055109Y-90729786D01*
X111180048Y-90557820D01*
X111180047Y-90557820D01*
X111180051Y-90557816D01*
X111276557Y-90368412D01*
X111342246Y-90166243D01*
X111375500Y-89956287D01*
X111375500Y-89743713D01*
X111342246Y-89533757D01*
X111276557Y-89331588D01*
X111180051Y-89142184D01*
X111180049Y-89142181D01*
X111180048Y-89142179D01*
X111055109Y-88970213D01*
X110904792Y-88819896D01*
X110858043Y-88785931D01*
X110740204Y-88700316D01*
X110697540Y-88644989D01*
X110691561Y-88575376D01*
X110724166Y-88513580D01*
X110740199Y-88499686D01*
X110904792Y-88380104D01*
X111055104Y-88229792D01*
X111055106Y-88229788D01*
X111055109Y-88229786D01*
X111180048Y-88057820D01*
X111180047Y-88057820D01*
X111180051Y-88057816D01*
X111276557Y-87868412D01*
X111342246Y-87666243D01*
X111366257Y-87514639D01*
X111396186Y-87451506D01*
X111455497Y-87414574D01*
X111525360Y-87415572D01*
X111576411Y-87446357D01*
X113213181Y-89083127D01*
X113246666Y-89144450D01*
X113249500Y-89170808D01*
X113249500Y-95529191D01*
X113229815Y-95596230D01*
X113213181Y-95616872D01*
X111586680Y-97243372D01*
X111525357Y-97276857D01*
X111455665Y-97271873D01*
X111399732Y-97230001D01*
X111375315Y-97164537D01*
X111374999Y-97155691D01*
X111374999Y-96700028D01*
X111374998Y-96700013D01*
X111364505Y-96597302D01*
X111309358Y-96430880D01*
X111309356Y-96430875D01*
X111217315Y-96281654D01*
X111093345Y-96157684D01*
X110944124Y-96065643D01*
X110944119Y-96065641D01*
X110777697Y-96010494D01*
X110777690Y-96010493D01*
X110674986Y-96000000D01*
X110150000Y-96000000D01*
X110150000Y-96945854D01*
X110083343Y-96907370D01*
X109962535Y-96875000D01*
X109837465Y-96875000D01*
X109716657Y-96907370D01*
X109650000Y-96945854D01*
X109650000Y-96000000D01*
X109125028Y-96000000D01*
X109125012Y-96000001D01*
X109022302Y-96010494D01*
X108855880Y-96065641D01*
X108855875Y-96065643D01*
X108706654Y-96157684D01*
X108582684Y-96281654D01*
X108490643Y-96430875D01*
X108490641Y-96430880D01*
X108435494Y-96597302D01*
X108435493Y-96597309D01*
X108425000Y-96700013D01*
X108425000Y-97100000D01*
X109495854Y-97100000D01*
X109457370Y-97166657D01*
X109425000Y-97287465D01*
X109425000Y-97412535D01*
X109457370Y-97533343D01*
X109495854Y-97600000D01*
X108425001Y-97600000D01*
X108425001Y-97999986D01*
X108435494Y-98102697D01*
X108490641Y-98269119D01*
X108490643Y-98269124D01*
X108582684Y-98418345D01*
X108706654Y-98542315D01*
X108861484Y-98637815D01*
X108908208Y-98689763D01*
X108919431Y-98758726D01*
X108891587Y-98822808D01*
X108884069Y-98831035D01*
X108744889Y-98970215D01*
X108619951Y-99142179D01*
X108523444Y-99331585D01*
X108457753Y-99533760D01*
X108424500Y-99743713D01*
X108424500Y-99956286D01*
X108457753Y-100166239D01*
X108523444Y-100368414D01*
X108619951Y-100557820D01*
X108744890Y-100729786D01*
X108895209Y-100880105D01*
X108895214Y-100880109D01*
X109059793Y-100999682D01*
X109102459Y-101055011D01*
X109108438Y-101124625D01*
X109075833Y-101186420D01*
X109059793Y-101200318D01*
X108895214Y-101319890D01*
X108895209Y-101319894D01*
X108744890Y-101470213D01*
X108619951Y-101642179D01*
X108523444Y-101831585D01*
X108457753Y-102033760D01*
X108424500Y-102243713D01*
X108424500Y-102456286D01*
X108457753Y-102666239D01*
X108457753Y-102666241D01*
X108457754Y-102666243D01*
X108507498Y-102819340D01*
X108523444Y-102868414D01*
X108619951Y-103057820D01*
X108744890Y-103229786D01*
X108895209Y-103380105D01*
X108895214Y-103380109D01*
X109059793Y-103499682D01*
X109102459Y-103555011D01*
X109108438Y-103624625D01*
X109075833Y-103686420D01*
X109059793Y-103700318D01*
X108895214Y-103819890D01*
X108895209Y-103819894D01*
X108744890Y-103970213D01*
X108619951Y-104142179D01*
X108523444Y-104331585D01*
X108457753Y-104533760D01*
X108427622Y-104724000D01*
X108424500Y-104743713D01*
X108424500Y-104956287D01*
X108434534Y-105019644D01*
X108457753Y-105166239D01*
X108523444Y-105368414D01*
X108619951Y-105557820D01*
X108744890Y-105729786D01*
X108895213Y-105880109D01*
X109067179Y-106005048D01*
X109067181Y-106005049D01*
X109067184Y-106005051D01*
X109256588Y-106101557D01*
X109458757Y-106167246D01*
X109668713Y-106200500D01*
X109668714Y-106200500D01*
X110131286Y-106200500D01*
X110131287Y-106200500D01*
X110341243Y-106167246D01*
X110543412Y-106101557D01*
X110732816Y-106005051D01*
X110754789Y-105989086D01*
X110904786Y-105880109D01*
X110904788Y-105880106D01*
X110904792Y-105880104D01*
X111055104Y-105729792D01*
X111055106Y-105729788D01*
X111055109Y-105729786D01*
X111180048Y-105557820D01*
X111180047Y-105557820D01*
X111180051Y-105557816D01*
X111276557Y-105368412D01*
X111342246Y-105166243D01*
X111375500Y-104956287D01*
X111375500Y-104743713D01*
X111342246Y-104533757D01*
X111276557Y-104331588D01*
X111180051Y-104142184D01*
X111180049Y-104142181D01*
X111180048Y-104142179D01*
X111055109Y-103970213D01*
X110904792Y-103819896D01*
X110852156Y-103781654D01*
X110740204Y-103700316D01*
X110697540Y-103644989D01*
X110691561Y-103575376D01*
X110724166Y-103513580D01*
X110740199Y-103499686D01*
X110904792Y-103380104D01*
X111055104Y-103229792D01*
X111055106Y-103229788D01*
X111055109Y-103229786D01*
X111180048Y-103057820D01*
X111180047Y-103057820D01*
X111180051Y-103057816D01*
X111276557Y-102868412D01*
X111342246Y-102666243D01*
X111366257Y-102514639D01*
X111396186Y-102451506D01*
X111455497Y-102414574D01*
X111525360Y-102415572D01*
X111576411Y-102446357D01*
X113313181Y-104183127D01*
X113346666Y-104244450D01*
X113349500Y-104270808D01*
X113349500Y-110429191D01*
X113329815Y-110496230D01*
X113313181Y-110516872D01*
X111586680Y-112243372D01*
X111525357Y-112276857D01*
X111455665Y-112271873D01*
X111399732Y-112230001D01*
X111375315Y-112164537D01*
X111374999Y-112155691D01*
X111374999Y-111700028D01*
X111374998Y-111700013D01*
X111364505Y-111597302D01*
X111309358Y-111430880D01*
X111309356Y-111430875D01*
X111217315Y-111281654D01*
X111093345Y-111157684D01*
X110944124Y-111065643D01*
X110944119Y-111065641D01*
X110777697Y-111010494D01*
X110777690Y-111010493D01*
X110674986Y-111000000D01*
X110150000Y-111000000D01*
X110150000Y-111945854D01*
X110083343Y-111907370D01*
X109962535Y-111875000D01*
X109837465Y-111875000D01*
X109716657Y-111907370D01*
X109650000Y-111945854D01*
X109650000Y-111000000D01*
X109125028Y-111000000D01*
X109125012Y-111000001D01*
X109022302Y-111010494D01*
X108855880Y-111065641D01*
X108855875Y-111065643D01*
X108706654Y-111157684D01*
X108582684Y-111281654D01*
X108490643Y-111430875D01*
X108490641Y-111430880D01*
X108435494Y-111597302D01*
X108435493Y-111597309D01*
X108425000Y-111700013D01*
X108425000Y-112100000D01*
X109495854Y-112100000D01*
X109457370Y-112166657D01*
X109425000Y-112287465D01*
X109425000Y-112412535D01*
X109457370Y-112533343D01*
X109495854Y-112600000D01*
X108425001Y-112600000D01*
X108425001Y-112999986D01*
X108435494Y-113102697D01*
X108490641Y-113269119D01*
X108490643Y-113269124D01*
X108582684Y-113418345D01*
X108706654Y-113542315D01*
X108861484Y-113637815D01*
X108908208Y-113689763D01*
X108919431Y-113758726D01*
X108891587Y-113822808D01*
X108884069Y-113831035D01*
X108744889Y-113970215D01*
X108619951Y-114142179D01*
X108523444Y-114331585D01*
X108457753Y-114533760D01*
X108424500Y-114743713D01*
X108424500Y-114956286D01*
X108457753Y-115166239D01*
X108523444Y-115368414D01*
X108619951Y-115557820D01*
X108744890Y-115729786D01*
X108895209Y-115880105D01*
X108895214Y-115880109D01*
X109059793Y-115999682D01*
X109102459Y-116055011D01*
X109108438Y-116124625D01*
X109075833Y-116186420D01*
X109059793Y-116200318D01*
X108895214Y-116319890D01*
X108895209Y-116319894D01*
X108744890Y-116470213D01*
X108619951Y-116642179D01*
X108523444Y-116831585D01*
X108457753Y-117033760D01*
X108424500Y-117243713D01*
X108424500Y-117456286D01*
X108457753Y-117666239D01*
X108523444Y-117868414D01*
X108619951Y-118057820D01*
X108744890Y-118229786D01*
X108895209Y-118380105D01*
X108895214Y-118380109D01*
X109059793Y-118499682D01*
X109102459Y-118555011D01*
X109108438Y-118624625D01*
X109075833Y-118686420D01*
X109059793Y-118700318D01*
X108895214Y-118819890D01*
X108895209Y-118819894D01*
X108744890Y-118970213D01*
X108619951Y-119142179D01*
X108523444Y-119331585D01*
X108457753Y-119533760D01*
X108424500Y-119743713D01*
X108424500Y-119956286D01*
X108457753Y-120166239D01*
X108523444Y-120368414D01*
X108619951Y-120557820D01*
X108744890Y-120729786D01*
X108895213Y-120880109D01*
X109067179Y-121005048D01*
X109067181Y-121005049D01*
X109067184Y-121005051D01*
X109256588Y-121101557D01*
X109458757Y-121167246D01*
X109668713Y-121200500D01*
X109668714Y-121200500D01*
X110131286Y-121200500D01*
X110131287Y-121200500D01*
X110341243Y-121167246D01*
X110543412Y-121101557D01*
X110732816Y-121005051D01*
X110754789Y-120989086D01*
X110904786Y-120880109D01*
X110904788Y-120880106D01*
X110904792Y-120880104D01*
X111055104Y-120729792D01*
X111055106Y-120729788D01*
X111055109Y-120729786D01*
X111180048Y-120557820D01*
X111180047Y-120557820D01*
X111180051Y-120557816D01*
X111276557Y-120368412D01*
X111342246Y-120166243D01*
X111375500Y-119956287D01*
X111375500Y-119743713D01*
X111342246Y-119533757D01*
X111276557Y-119331588D01*
X111180051Y-119142184D01*
X111180049Y-119142181D01*
X111180048Y-119142179D01*
X111055109Y-118970213D01*
X110904792Y-118819896D01*
X110852156Y-118781654D01*
X110740204Y-118700316D01*
X110697540Y-118644989D01*
X110691561Y-118575376D01*
X110724166Y-118513580D01*
X110740199Y-118499686D01*
X110904792Y-118380104D01*
X111055104Y-118229792D01*
X111055106Y-118229788D01*
X111055109Y-118229786D01*
X111180048Y-118057820D01*
X111180047Y-118057820D01*
X111180051Y-118057816D01*
X111276557Y-117868412D01*
X111342246Y-117666243D01*
X111375500Y-117456287D01*
X111375500Y-117243713D01*
X111342246Y-117033757D01*
X111276557Y-116831588D01*
X111180051Y-116642184D01*
X111180049Y-116642181D01*
X111180048Y-116642179D01*
X111055109Y-116470213D01*
X110904792Y-116319896D01*
X110904784Y-116319890D01*
X110740204Y-116200316D01*
X110697540Y-116144989D01*
X110691561Y-116075376D01*
X110724166Y-116013580D01*
X110740199Y-115999686D01*
X110904792Y-115880104D01*
X111055104Y-115729792D01*
X111055106Y-115729788D01*
X111055109Y-115729786D01*
X111180048Y-115557820D01*
X111180047Y-115557820D01*
X111180051Y-115557816D01*
X111276557Y-115368412D01*
X111342246Y-115166243D01*
X111375500Y-114956287D01*
X111375500Y-114743713D01*
X111342246Y-114533757D01*
X111315192Y-114450498D01*
X111313198Y-114380660D01*
X111345441Y-114324503D01*
X114505277Y-111164669D01*
X114576466Y-111058126D01*
X114625501Y-110939743D01*
X114650500Y-110814069D01*
X114650500Y-110685931D01*
X114650500Y-103885931D01*
X114650500Y-103885928D01*
X114625502Y-103760261D01*
X114625501Y-103760260D01*
X114625501Y-103760256D01*
X114586975Y-103667246D01*
X114586974Y-103667243D01*
X114576468Y-103641878D01*
X114576462Y-103641868D01*
X114505278Y-103535332D01*
X114505272Y-103535325D01*
X111345443Y-100375497D01*
X111311958Y-100314174D01*
X111315193Y-100249498D01*
X111342246Y-100166243D01*
X111375500Y-99956287D01*
X111375500Y-99743713D01*
X111342246Y-99533757D01*
X111315192Y-99450498D01*
X111313198Y-99380660D01*
X111345441Y-99324503D01*
X114405276Y-96264670D01*
X114476465Y-96158127D01*
X114525501Y-96039744D01*
X114533506Y-95999500D01*
X114550500Y-95914069D01*
X114550500Y-88785931D01*
X114550500Y-88785928D01*
X114525502Y-88660261D01*
X114525501Y-88660260D01*
X114525501Y-88660256D01*
X114476465Y-88541873D01*
X114470372Y-88532754D01*
X114457560Y-88513580D01*
X114405274Y-88435327D01*
X114405271Y-88435324D01*
X111345443Y-85375497D01*
X111311958Y-85314174D01*
X111315193Y-85249498D01*
X111342246Y-85166243D01*
X111375500Y-84956287D01*
X111375500Y-84743713D01*
X111342246Y-84533757D01*
X111276557Y-84331588D01*
X111180051Y-84142184D01*
X111180049Y-84142181D01*
X111180048Y-84142179D01*
X111055109Y-83970213D01*
X110915931Y-83831035D01*
X110882446Y-83769712D01*
X110887430Y-83700020D01*
X110929302Y-83644087D01*
X110938516Y-83637815D01*
X111093343Y-83542317D01*
X111217315Y-83418345D01*
X111309356Y-83269124D01*
X111309358Y-83269119D01*
X111364505Y-83102697D01*
X111364506Y-83102690D01*
X111374999Y-82999986D01*
X111375000Y-82999973D01*
X111375000Y-82600000D01*
X110304146Y-82600000D01*
X110342630Y-82533343D01*
X110375000Y-82412535D01*
X110375000Y-82287465D01*
X110342630Y-82166657D01*
X110304146Y-82100000D01*
X111374999Y-82100000D01*
X111374999Y-81700028D01*
X111374998Y-81700013D01*
X111364505Y-81597302D01*
X111309358Y-81430880D01*
X111309356Y-81430875D01*
X111217315Y-81281654D01*
X111093345Y-81157684D01*
X110944124Y-81065643D01*
X110944119Y-81065641D01*
X110777697Y-81010494D01*
X110777690Y-81010493D01*
X110674986Y-81000000D01*
X110150000Y-81000000D01*
X110150000Y-81945854D01*
X110083343Y-81907370D01*
X109962535Y-81875000D01*
X109837465Y-81875000D01*
X109716657Y-81907370D01*
X109650000Y-81945854D01*
X109650000Y-81000000D01*
X109125028Y-81000000D01*
X109125012Y-81000001D01*
X109022302Y-81010494D01*
X108855880Y-81065641D01*
X108855875Y-81065643D01*
X108706654Y-81157684D01*
X108582684Y-81281654D01*
X108490643Y-81430875D01*
X108490641Y-81430880D01*
X108435494Y-81597302D01*
X108435493Y-81597309D01*
X108425000Y-81700013D01*
X108425000Y-82100000D01*
X109495854Y-82100000D01*
X109457370Y-82166657D01*
X109425000Y-82287465D01*
X109425000Y-82412535D01*
X109457370Y-82533343D01*
X109495854Y-82600000D01*
X108425001Y-82600000D01*
X108425001Y-82999986D01*
X108435494Y-83102697D01*
X108490641Y-83269119D01*
X108490643Y-83269124D01*
X108582684Y-83418345D01*
X108706654Y-83542315D01*
X108861484Y-83637815D01*
X108908208Y-83689763D01*
X108919431Y-83758726D01*
X108891587Y-83822808D01*
X108884069Y-83831035D01*
X108744889Y-83970215D01*
X108617085Y-84146125D01*
X108615740Y-84145148D01*
X108569295Y-84187166D01*
X108515382Y-84199500D01*
X105435929Y-84199500D01*
X105310261Y-84224497D01*
X105310255Y-84224499D01*
X105191874Y-84273534D01*
X105085326Y-84344726D01*
X105085325Y-84344727D01*
X102766873Y-86663181D01*
X102705550Y-86696666D01*
X102679192Y-86699500D01*
X101284618Y-86699500D01*
X101217579Y-86679815D01*
X101183900Y-86645408D01*
X101182915Y-86646125D01*
X101055109Y-86470213D01*
X100904792Y-86319896D01*
X100904784Y-86319890D01*
X100740204Y-86200316D01*
X100697540Y-86144989D01*
X100691561Y-86075376D01*
X100724166Y-86013580D01*
X100740199Y-85999686D01*
X100904792Y-85880104D01*
X101055104Y-85729792D01*
X101055106Y-85729788D01*
X101055109Y-85729786D01*
X101180048Y-85557820D01*
X101180047Y-85557820D01*
X101180051Y-85557816D01*
X101276557Y-85368412D01*
X101342246Y-85166243D01*
X101375500Y-84956287D01*
X101375500Y-84743713D01*
X101342246Y-84533757D01*
X101276557Y-84331588D01*
X101180051Y-84142184D01*
X101180049Y-84142181D01*
X101180048Y-84142179D01*
X101055109Y-83970213D01*
X100904792Y-83819896D01*
X100820598Y-83758726D01*
X100740204Y-83700316D01*
X100697540Y-83644989D01*
X100691561Y-83575376D01*
X100724166Y-83513580D01*
X100740199Y-83499686D01*
X100904792Y-83380104D01*
X101055104Y-83229792D01*
X101055106Y-83229788D01*
X101055109Y-83229786D01*
X101180048Y-83057820D01*
X101180047Y-83057820D01*
X101180051Y-83057816D01*
X101276557Y-82868412D01*
X101342246Y-82666243D01*
X101375500Y-82456287D01*
X101375500Y-82243713D01*
X101342246Y-82033757D01*
X101276557Y-81831588D01*
X101276554Y-81831582D01*
X101236597Y-81753160D01*
X101236596Y-81753159D01*
X101209516Y-81700013D01*
X101180051Y-81642184D01*
X101147443Y-81597302D01*
X101055109Y-81470213D01*
X100904786Y-81319890D01*
X100732820Y-81194951D01*
X100543414Y-81098444D01*
X100543413Y-81098443D01*
X100543412Y-81098443D01*
X100341243Y-81032754D01*
X100341241Y-81032753D01*
X100341240Y-81032753D01*
X100179957Y-81007208D01*
X100131287Y-80999500D01*
X99668713Y-80999500D01*
X99620042Y-81007208D01*
X99458760Y-81032753D01*
X99256585Y-81098444D01*
X99067179Y-81194951D01*
X98895213Y-81319890D01*
X98744890Y-81470213D01*
X98619951Y-81642179D01*
X98523444Y-81831585D01*
X98457753Y-82033760D01*
X98424500Y-82243713D01*
X98424500Y-82456286D01*
X98457753Y-82666239D01*
X98523444Y-82868414D01*
X98619951Y-83057820D01*
X98744890Y-83229786D01*
X98895209Y-83380105D01*
X98895214Y-83380109D01*
X99059793Y-83499682D01*
X99102459Y-83555011D01*
X99108438Y-83624625D01*
X99075833Y-83686420D01*
X99059793Y-83700318D01*
X98895214Y-83819890D01*
X98895209Y-83819894D01*
X98744890Y-83970213D01*
X98619951Y-84142179D01*
X98523444Y-84331585D01*
X98457753Y-84533760D01*
X98424500Y-84743713D01*
X98424500Y-84956286D01*
X98457753Y-85166239D01*
X98523444Y-85368414D01*
X98619951Y-85557820D01*
X98744890Y-85729786D01*
X98895209Y-85880105D01*
X98895214Y-85880109D01*
X99059793Y-85999682D01*
X99102459Y-86055011D01*
X99108438Y-86124625D01*
X99075833Y-86186420D01*
X99059793Y-86200318D01*
X98895214Y-86319890D01*
X98895209Y-86319894D01*
X98744890Y-86470213D01*
X98619951Y-86642179D01*
X98523444Y-86831585D01*
X98457753Y-87033760D01*
X98424500Y-87243713D01*
X98424500Y-87456286D01*
X98457753Y-87666240D01*
X98457754Y-87666244D01*
X98484805Y-87749499D01*
X98486800Y-87819340D01*
X98454555Y-87875497D01*
X96494726Y-89835326D01*
X96423534Y-89941874D01*
X96374499Y-90060255D01*
X96374497Y-90060261D01*
X96349500Y-90185928D01*
X96349500Y-90185931D01*
X96349500Y-99514069D01*
X96349500Y-99514071D01*
X96349499Y-99514071D01*
X92400500Y-99514071D01*
X92400500Y-76478711D01*
X103199500Y-76478711D01*
X103199500Y-76721288D01*
X103231161Y-76961785D01*
X103293947Y-77196104D01*
X103386773Y-77420205D01*
X103386776Y-77420212D01*
X103508064Y-77630289D01*
X103508066Y-77630292D01*
X103508067Y-77630293D01*
X103655733Y-77822736D01*
X103655739Y-77822743D01*
X103827256Y-77994260D01*
X103827262Y-77994265D01*
X104019711Y-78141936D01*
X104229788Y-78263224D01*
X104453900Y-78356054D01*
X104688211Y-78418838D01*
X104868586Y-78442584D01*
X104928711Y-78450500D01*
X104928712Y-78450500D01*
X105171289Y-78450500D01*
X105219388Y-78444167D01*
X105411789Y-78418838D01*
X105646100Y-78356054D01*
X105870212Y-78263224D01*
X106080289Y-78141936D01*
X106272738Y-77994265D01*
X106444265Y-77822738D01*
X106591936Y-77630289D01*
X106713224Y-77420212D01*
X106806054Y-77196100D01*
X106868838Y-76961789D01*
X106900500Y-76721288D01*
X106900500Y-76478712D01*
X106868838Y-76238211D01*
X106806054Y-76003900D01*
X106713224Y-75779788D01*
X106591936Y-75569711D01*
X106444265Y-75377262D01*
X106444260Y-75377256D01*
X106272743Y-75205739D01*
X106272736Y-75205733D01*
X106080293Y-75058067D01*
X106080292Y-75058066D01*
X106080289Y-75058064D01*
X105870212Y-74936776D01*
X105870205Y-74936773D01*
X105646104Y-74843947D01*
X105411785Y-74781161D01*
X105171289Y-74749500D01*
X105171288Y-74749500D01*
X104928712Y-74749500D01*
X104928711Y-74749500D01*
X104688214Y-74781161D01*
X104453895Y-74843947D01*
X104229794Y-74936773D01*
X104229785Y-74936777D01*
X104019706Y-75058067D01*
X103827263Y-75205733D01*
X103827256Y-75205739D01*
X103655739Y-75377256D01*
X103655733Y-75377263D01*
X103508067Y-75569706D01*
X103386777Y-75779785D01*
X103386773Y-75779794D01*
X103293947Y-76003895D01*
X103231161Y-76238214D01*
X103199500Y-76478711D01*
X92400500Y-76478711D01*
X92400500Y-76103246D01*
X92400670Y-76096756D01*
X92403953Y-76034108D01*
X92416592Y-75792951D01*
X92417949Y-75780046D01*
X92465028Y-75482794D01*
X92467723Y-75470107D01*
X92545627Y-75179368D01*
X92549636Y-75167033D01*
X92591465Y-75058064D01*
X92657493Y-74886054D01*
X92662763Y-74874215D01*
X92799415Y-74606023D01*
X92805891Y-74594808D01*
X92969819Y-74342380D01*
X92977434Y-74331899D01*
X93166858Y-74097979D01*
X93175525Y-74088354D01*
X93388354Y-73875525D01*
X93397979Y-73866858D01*
X93631899Y-73677434D01*
X93642380Y-73669819D01*
X93894808Y-73505891D01*
X93906023Y-73499415D01*
X94174215Y-73362763D01*
X94186054Y-73357493D01*
X94467040Y-73249633D01*
X94479368Y-73245627D01*
X94770107Y-73167723D01*
X94782786Y-73165029D01*
X95080046Y-73117949D01*
X95092951Y-73116592D01*
X95396756Y-73100669D01*
X95403246Y-73100500D01*
X95465892Y-73100500D01*
X114334108Y-73100500D01*
X114396754Y-73100500D01*
X114403244Y-73100670D01*
G37*
%TD.AperFunction*%
%TD*%
M02*
