%TF.GenerationSoftware,KiCad,Pcbnew,9.0.2*%
%TF.CreationDate,2025-06-15T01:11:38-07:00*%
%TF.ProjectId,SDM26_SplitterV1.1,53444d32-365f-4537-906c-697474657256,rev?*%
%TF.SameCoordinates,Original*%
%TF.FileFunction,Legend,Top*%
%TF.FilePolarity,Positive*%
%FSLAX46Y46*%
G04 Gerber Fmt 4.6, Leading zero omitted, Abs format (unit mm)*
G04 Created by KiCad (PCBNEW 9.0.2) date 2025-06-15 01:11:38*
%MOMM*%
%LPD*%
G01*
G04 APERTURE LIST*
%ADD10C,0.150000*%
%ADD11C,0.254000*%
%ADD12C,0.120000*%
%ADD13C,0.200000*%
G04 APERTURE END LIST*
D10*
X101004819Y-126361904D02*
X100004819Y-126361904D01*
X100481009Y-126361904D02*
X100481009Y-125790476D01*
X101004819Y-125790476D02*
X100004819Y-125790476D01*
X101004819Y-124790476D02*
X101004819Y-125361904D01*
X101004819Y-125076190D02*
X100004819Y-125076190D01*
X100004819Y-125076190D02*
X100147676Y-125171428D01*
X100147676Y-125171428D02*
X100242914Y-125266666D01*
X100242914Y-125266666D02*
X100290533Y-125361904D01*
X106354819Y-86433333D02*
X107069104Y-86433333D01*
X107069104Y-86433333D02*
X107211961Y-86480952D01*
X107211961Y-86480952D02*
X107307200Y-86576190D01*
X107307200Y-86576190D02*
X107354819Y-86719047D01*
X107354819Y-86719047D02*
X107354819Y-86814285D01*
X106688152Y-85528571D02*
X107354819Y-85528571D01*
X106307200Y-85766666D02*
X107021485Y-86004761D01*
X107021485Y-86004761D02*
X107021485Y-85385714D01*
X102354819Y-116683333D02*
X103069104Y-116683333D01*
X103069104Y-116683333D02*
X103211961Y-116730952D01*
X103211961Y-116730952D02*
X103307200Y-116826190D01*
X103307200Y-116826190D02*
X103354819Y-116969047D01*
X103354819Y-116969047D02*
X103354819Y-117064285D01*
X103354819Y-115683333D02*
X103354819Y-116254761D01*
X103354819Y-115969047D02*
X102354819Y-115969047D01*
X102354819Y-115969047D02*
X102497676Y-116064285D01*
X102497676Y-116064285D02*
X102592914Y-116159523D01*
X102592914Y-116159523D02*
X102640533Y-116254761D01*
X110954819Y-76266666D02*
X110478628Y-76599999D01*
X110954819Y-76838094D02*
X109954819Y-76838094D01*
X109954819Y-76838094D02*
X109954819Y-76457142D01*
X109954819Y-76457142D02*
X110002438Y-76361904D01*
X110002438Y-76361904D02*
X110050057Y-76314285D01*
X110050057Y-76314285D02*
X110145295Y-76266666D01*
X110145295Y-76266666D02*
X110288152Y-76266666D01*
X110288152Y-76266666D02*
X110383390Y-76314285D01*
X110383390Y-76314285D02*
X110431009Y-76361904D01*
X110431009Y-76361904D02*
X110478628Y-76457142D01*
X110478628Y-76457142D02*
X110478628Y-76838094D01*
X110954819Y-75314285D02*
X110954819Y-75885713D01*
X110954819Y-75599999D02*
X109954819Y-75599999D01*
X109954819Y-75599999D02*
X110097676Y-75695237D01*
X110097676Y-75695237D02*
X110192914Y-75790475D01*
X110192914Y-75790475D02*
X110240533Y-75885713D01*
X102354819Y-101433333D02*
X103069104Y-101433333D01*
X103069104Y-101433333D02*
X103211961Y-101480952D01*
X103211961Y-101480952D02*
X103307200Y-101576190D01*
X103307200Y-101576190D02*
X103354819Y-101719047D01*
X103354819Y-101719047D02*
X103354819Y-101814285D01*
X102450057Y-101004761D02*
X102402438Y-100957142D01*
X102402438Y-100957142D02*
X102354819Y-100861904D01*
X102354819Y-100861904D02*
X102354819Y-100623809D01*
X102354819Y-100623809D02*
X102402438Y-100528571D01*
X102402438Y-100528571D02*
X102450057Y-100480952D01*
X102450057Y-100480952D02*
X102545295Y-100433333D01*
X102545295Y-100433333D02*
X102640533Y-100433333D01*
X102640533Y-100433333D02*
X102783390Y-100480952D01*
X102783390Y-100480952D02*
X103354819Y-101052380D01*
X103354819Y-101052380D02*
X103354819Y-100433333D01*
X101004819Y-77361904D02*
X100004819Y-77361904D01*
X100481009Y-77361904D02*
X100481009Y-76790476D01*
X101004819Y-76790476D02*
X100004819Y-76790476D01*
X100100057Y-76361904D02*
X100052438Y-76314285D01*
X100052438Y-76314285D02*
X100004819Y-76219047D01*
X100004819Y-76219047D02*
X100004819Y-75980952D01*
X100004819Y-75980952D02*
X100052438Y-75885714D01*
X100052438Y-75885714D02*
X100100057Y-75838095D01*
X100100057Y-75838095D02*
X100195295Y-75790476D01*
X100195295Y-75790476D02*
X100290533Y-75790476D01*
X100290533Y-75790476D02*
X100433390Y-75838095D01*
X100433390Y-75838095D02*
X101004819Y-76409523D01*
X101004819Y-76409523D02*
X101004819Y-75790476D01*
X106354819Y-116433333D02*
X107069104Y-116433333D01*
X107069104Y-116433333D02*
X107211961Y-116480952D01*
X107211961Y-116480952D02*
X107307200Y-116576190D01*
X107307200Y-116576190D02*
X107354819Y-116719047D01*
X107354819Y-116719047D02*
X107354819Y-116814285D01*
X106354819Y-115528571D02*
X106354819Y-115719047D01*
X106354819Y-115719047D02*
X106402438Y-115814285D01*
X106402438Y-115814285D02*
X106450057Y-115861904D01*
X106450057Y-115861904D02*
X106592914Y-115957142D01*
X106592914Y-115957142D02*
X106783390Y-116004761D01*
X106783390Y-116004761D02*
X107164342Y-116004761D01*
X107164342Y-116004761D02*
X107259580Y-115957142D01*
X107259580Y-115957142D02*
X107307200Y-115909523D01*
X107307200Y-115909523D02*
X107354819Y-115814285D01*
X107354819Y-115814285D02*
X107354819Y-115623809D01*
X107354819Y-115623809D02*
X107307200Y-115528571D01*
X107307200Y-115528571D02*
X107259580Y-115480952D01*
X107259580Y-115480952D02*
X107164342Y-115433333D01*
X107164342Y-115433333D02*
X106926247Y-115433333D01*
X106926247Y-115433333D02*
X106831009Y-115480952D01*
X106831009Y-115480952D02*
X106783390Y-115528571D01*
X106783390Y-115528571D02*
X106735771Y-115623809D01*
X106735771Y-115623809D02*
X106735771Y-115814285D01*
X106735771Y-115814285D02*
X106783390Y-115909523D01*
X106783390Y-115909523D02*
X106831009Y-115957142D01*
X106831009Y-115957142D02*
X106926247Y-116004761D01*
D11*
X117074318Y-78721190D02*
X117074318Y-79325952D01*
X117074318Y-79325952D02*
X115804318Y-79325952D01*
X116409080Y-78297857D02*
X116409080Y-77874523D01*
X117074318Y-77693095D02*
X117074318Y-78297857D01*
X117074318Y-78297857D02*
X115804318Y-78297857D01*
X115804318Y-78297857D02*
X115804318Y-77693095D01*
X117074318Y-77148809D02*
X115804318Y-77148809D01*
X115804318Y-77148809D02*
X115804318Y-76846428D01*
X115804318Y-76846428D02*
X115864794Y-76664999D01*
X115864794Y-76664999D02*
X115985746Y-76544047D01*
X115985746Y-76544047D02*
X116106699Y-76483570D01*
X116106699Y-76483570D02*
X116348603Y-76423094D01*
X116348603Y-76423094D02*
X116530032Y-76423094D01*
X116530032Y-76423094D02*
X116771937Y-76483570D01*
X116771937Y-76483570D02*
X116892889Y-76544047D01*
X116892889Y-76544047D02*
X117013842Y-76664999D01*
X117013842Y-76664999D02*
X117074318Y-76846428D01*
X117074318Y-76846428D02*
X117074318Y-77148809D01*
X117074318Y-75213570D02*
X117074318Y-75939285D01*
X117074318Y-75576428D02*
X115804318Y-75576428D01*
X115804318Y-75576428D02*
X115985746Y-75697380D01*
X115985746Y-75697380D02*
X116106699Y-75818332D01*
X116106699Y-75818332D02*
X116167175Y-75939285D01*
D10*
X102354819Y-86683333D02*
X103069104Y-86683333D01*
X103069104Y-86683333D02*
X103211961Y-86730952D01*
X103211961Y-86730952D02*
X103307200Y-86826190D01*
X103307200Y-86826190D02*
X103354819Y-86969047D01*
X103354819Y-86969047D02*
X103354819Y-87064285D01*
X102354819Y-86302380D02*
X102354819Y-85683333D01*
X102354819Y-85683333D02*
X102735771Y-86016666D01*
X102735771Y-86016666D02*
X102735771Y-85873809D01*
X102735771Y-85873809D02*
X102783390Y-85778571D01*
X102783390Y-85778571D02*
X102831009Y-85730952D01*
X102831009Y-85730952D02*
X102926247Y-85683333D01*
X102926247Y-85683333D02*
X103164342Y-85683333D01*
X103164342Y-85683333D02*
X103259580Y-85730952D01*
X103259580Y-85730952D02*
X103307200Y-85778571D01*
X103307200Y-85778571D02*
X103354819Y-85873809D01*
X103354819Y-85873809D02*
X103354819Y-86159523D01*
X103354819Y-86159523D02*
X103307200Y-86254761D01*
X103307200Y-86254761D02*
X103259580Y-86302380D01*
X106354819Y-101433333D02*
X107069104Y-101433333D01*
X107069104Y-101433333D02*
X107211961Y-101480952D01*
X107211961Y-101480952D02*
X107307200Y-101576190D01*
X107307200Y-101576190D02*
X107354819Y-101719047D01*
X107354819Y-101719047D02*
X107354819Y-101814285D01*
X106354819Y-100480952D02*
X106354819Y-100957142D01*
X106354819Y-100957142D02*
X106831009Y-101004761D01*
X106831009Y-101004761D02*
X106783390Y-100957142D01*
X106783390Y-100957142D02*
X106735771Y-100861904D01*
X106735771Y-100861904D02*
X106735771Y-100623809D01*
X106735771Y-100623809D02*
X106783390Y-100528571D01*
X106783390Y-100528571D02*
X106831009Y-100480952D01*
X106831009Y-100480952D02*
X106926247Y-100433333D01*
X106926247Y-100433333D02*
X107164342Y-100433333D01*
X107164342Y-100433333D02*
X107259580Y-100480952D01*
X107259580Y-100480952D02*
X107307200Y-100528571D01*
X107307200Y-100528571D02*
X107354819Y-100623809D01*
X107354819Y-100623809D02*
X107354819Y-100861904D01*
X107354819Y-100861904D02*
X107307200Y-100957142D01*
X107307200Y-100957142D02*
X107259580Y-101004761D01*
D12*
%TO.C,J4*%
X107800000Y-82050000D02*
X107800000Y-82650000D01*
X107800000Y-82650000D02*
X108400000Y-82350000D01*
X108290000Y-79740000D02*
X116710000Y-79740000D01*
X108290000Y-80960000D02*
X108290000Y-79740000D01*
X108290000Y-91240000D02*
X110490000Y-91240000D01*
X108290000Y-92460000D02*
X108290000Y-91240000D01*
X108400000Y-82350000D02*
X107800000Y-82050000D01*
X110490000Y-80960000D02*
X108290000Y-80960000D01*
X110490000Y-80960000D02*
X110490000Y-79740000D01*
X110490000Y-83520000D02*
X110490000Y-83680000D01*
X110490000Y-86020000D02*
X110490000Y-86180000D01*
X110490000Y-88520000D02*
X110490000Y-88680000D01*
X110490000Y-91240000D02*
X110490000Y-92460000D01*
X111490000Y-80960000D02*
X111490000Y-91240000D01*
X111490000Y-82030000D02*
X114910000Y-82030000D01*
X111490000Y-82350000D02*
X111490000Y-82030000D01*
X111490000Y-82670000D02*
X111490000Y-82350000D01*
X111490000Y-84530000D02*
X114910000Y-84530000D01*
X111490000Y-84850000D02*
X111490000Y-84530000D01*
X111490000Y-85170000D02*
X111490000Y-84850000D01*
X111490000Y-87030000D02*
X114910000Y-87030000D01*
X111490000Y-87350000D02*
X111490000Y-87030000D01*
X111490000Y-87670000D02*
X111490000Y-87350000D01*
X111490000Y-89530000D02*
X114910000Y-89530000D01*
X111490000Y-89850000D02*
X111490000Y-89530000D01*
X111490000Y-90170000D02*
X111490000Y-89850000D01*
X114910000Y-82030000D02*
X114990000Y-82350000D01*
X114910000Y-82670000D02*
X111490000Y-82670000D01*
X114910000Y-84530000D02*
X114990000Y-84850000D01*
X114910000Y-85170000D02*
X111490000Y-85170000D01*
X114910000Y-87030000D02*
X114990000Y-87350000D01*
X114910000Y-87670000D02*
X111490000Y-87670000D01*
X114910000Y-89530000D02*
X114990000Y-89850000D01*
X114910000Y-90170000D02*
X111490000Y-90170000D01*
X114990000Y-82350000D02*
X114910000Y-82670000D01*
X114990000Y-84850000D02*
X114910000Y-85170000D01*
X114990000Y-87350000D02*
X114910000Y-87670000D01*
X114990000Y-89850000D02*
X114910000Y-90170000D01*
X115490000Y-79740000D02*
X115490000Y-80960000D01*
X115490000Y-80960000D02*
X110490000Y-80960000D01*
X115490000Y-91240000D02*
X110490000Y-91240000D01*
X115490000Y-92460000D02*
X115490000Y-91240000D01*
X116710000Y-79740000D02*
X116710000Y-92460000D01*
X116710000Y-92460000D02*
X108290000Y-92460000D01*
%TO.C,J1*%
X93090000Y-109740000D02*
X101510000Y-109740000D01*
X93090000Y-122460000D02*
X93090000Y-109740000D01*
X94310000Y-109740000D02*
X94310000Y-110960000D01*
X94310000Y-110960000D02*
X99310000Y-110960000D01*
X94310000Y-121240000D02*
X99310000Y-121240000D01*
X94310000Y-122460000D02*
X94310000Y-121240000D01*
X94810000Y-112350000D02*
X94890000Y-112030000D01*
X94810000Y-114850000D02*
X94890000Y-114530000D01*
X94810000Y-117350000D02*
X94890000Y-117030000D01*
X94810000Y-119850000D02*
X94890000Y-119530000D01*
X94890000Y-112030000D02*
X98310000Y-112030000D01*
X94890000Y-112670000D02*
X94810000Y-112350000D01*
X94890000Y-114530000D02*
X98310000Y-114530000D01*
X94890000Y-115170000D02*
X94810000Y-114850000D01*
X94890000Y-117030000D02*
X98310000Y-117030000D01*
X94890000Y-117670000D02*
X94810000Y-117350000D01*
X94890000Y-119530000D02*
X98310000Y-119530000D01*
X94890000Y-120170000D02*
X94810000Y-119850000D01*
X98310000Y-112030000D02*
X98310000Y-112350000D01*
X98310000Y-112350000D02*
X98310000Y-112670000D01*
X98310000Y-112670000D02*
X94890000Y-112670000D01*
X98310000Y-114530000D02*
X98310000Y-114850000D01*
X98310000Y-114850000D02*
X98310000Y-115170000D01*
X98310000Y-115170000D02*
X94890000Y-115170000D01*
X98310000Y-117030000D02*
X98310000Y-117350000D01*
X98310000Y-117350000D02*
X98310000Y-117670000D01*
X98310000Y-117670000D02*
X94890000Y-117670000D01*
X98310000Y-119530000D02*
X98310000Y-119850000D01*
X98310000Y-119850000D02*
X98310000Y-120170000D01*
X98310000Y-120170000D02*
X94890000Y-120170000D01*
X98310000Y-121240000D02*
X98310000Y-110960000D01*
X99310000Y-110960000D02*
X99310000Y-109740000D01*
X99310000Y-113680000D02*
X99310000Y-113520000D01*
X99310000Y-116180000D02*
X99310000Y-116020000D01*
X99310000Y-118680000D02*
X99310000Y-118520000D01*
X99310000Y-121240000D02*
X99310000Y-122460000D01*
X99310000Y-121240000D02*
X101510000Y-121240000D01*
X101400000Y-119850000D02*
X102000000Y-120150000D01*
X101510000Y-109740000D02*
X101510000Y-110960000D01*
X101510000Y-110960000D02*
X99310000Y-110960000D01*
X101510000Y-121240000D02*
X101510000Y-122460000D01*
X101510000Y-122460000D02*
X93090000Y-122460000D01*
X102000000Y-119550000D02*
X101400000Y-119850000D01*
X102000000Y-120150000D02*
X102000000Y-119550000D01*
%TO.C,R1*%
X111490000Y-75959420D02*
X111490000Y-76240580D01*
X112510000Y-75959420D02*
X112510000Y-76240580D01*
%TO.C,J2*%
X93090000Y-94740000D02*
X101510000Y-94740000D01*
X93090000Y-107460000D02*
X93090000Y-94740000D01*
X94310000Y-94740000D02*
X94310000Y-95960000D01*
X94310000Y-95960000D02*
X99310000Y-95960000D01*
X94310000Y-106240000D02*
X99310000Y-106240000D01*
X94310000Y-107460000D02*
X94310000Y-106240000D01*
X94810000Y-97350000D02*
X94890000Y-97030000D01*
X94810000Y-99850000D02*
X94890000Y-99530000D01*
X94810000Y-102350000D02*
X94890000Y-102030000D01*
X94810000Y-104850000D02*
X94890000Y-104530000D01*
X94890000Y-97030000D02*
X98310000Y-97030000D01*
X94890000Y-97670000D02*
X94810000Y-97350000D01*
X94890000Y-99530000D02*
X98310000Y-99530000D01*
X94890000Y-100170000D02*
X94810000Y-99850000D01*
X94890000Y-102030000D02*
X98310000Y-102030000D01*
X94890000Y-102670000D02*
X94810000Y-102350000D01*
X94890000Y-104530000D02*
X98310000Y-104530000D01*
X94890000Y-105170000D02*
X94810000Y-104850000D01*
X98310000Y-97030000D02*
X98310000Y-97350000D01*
X98310000Y-97350000D02*
X98310000Y-97670000D01*
X98310000Y-97670000D02*
X94890000Y-97670000D01*
X98310000Y-99530000D02*
X98310000Y-99850000D01*
X98310000Y-99850000D02*
X98310000Y-100170000D01*
X98310000Y-100170000D02*
X94890000Y-100170000D01*
X98310000Y-102030000D02*
X98310000Y-102350000D01*
X98310000Y-102350000D02*
X98310000Y-102670000D01*
X98310000Y-102670000D02*
X94890000Y-102670000D01*
X98310000Y-104530000D02*
X98310000Y-104850000D01*
X98310000Y-104850000D02*
X98310000Y-105170000D01*
X98310000Y-105170000D02*
X94890000Y-105170000D01*
X98310000Y-106240000D02*
X98310000Y-95960000D01*
X99310000Y-95960000D02*
X99310000Y-94740000D01*
X99310000Y-98680000D02*
X99310000Y-98520000D01*
X99310000Y-101180000D02*
X99310000Y-101020000D01*
X99310000Y-103680000D02*
X99310000Y-103520000D01*
X99310000Y-106240000D02*
X99310000Y-107460000D01*
X99310000Y-106240000D02*
X101510000Y-106240000D01*
X101400000Y-104850000D02*
X102000000Y-105150000D01*
X101510000Y-94740000D02*
X101510000Y-95960000D01*
X101510000Y-95960000D02*
X99310000Y-95960000D01*
X101510000Y-106240000D02*
X101510000Y-107460000D01*
X101510000Y-107460000D02*
X93090000Y-107460000D01*
X102000000Y-104550000D02*
X101400000Y-104850000D01*
X102000000Y-105150000D02*
X102000000Y-104550000D01*
%TO.C,J6*%
X107800000Y-112050000D02*
X107800000Y-112650000D01*
X107800000Y-112650000D02*
X108400000Y-112350000D01*
X108290000Y-109740000D02*
X116710000Y-109740000D01*
X108290000Y-110960000D02*
X108290000Y-109740000D01*
X108290000Y-121240000D02*
X110490000Y-121240000D01*
X108290000Y-122460000D02*
X108290000Y-121240000D01*
X108400000Y-112350000D02*
X107800000Y-112050000D01*
X110490000Y-110960000D02*
X108290000Y-110960000D01*
X110490000Y-110960000D02*
X110490000Y-109740000D01*
X110490000Y-113520000D02*
X110490000Y-113680000D01*
X110490000Y-116020000D02*
X110490000Y-116180000D01*
X110490000Y-118520000D02*
X110490000Y-118680000D01*
X110490000Y-121240000D02*
X110490000Y-122460000D01*
X111490000Y-110960000D02*
X111490000Y-121240000D01*
X111490000Y-112030000D02*
X114910000Y-112030000D01*
X111490000Y-112350000D02*
X111490000Y-112030000D01*
X111490000Y-112670000D02*
X111490000Y-112350000D01*
X111490000Y-114530000D02*
X114910000Y-114530000D01*
X111490000Y-114850000D02*
X111490000Y-114530000D01*
X111490000Y-115170000D02*
X111490000Y-114850000D01*
X111490000Y-117030000D02*
X114910000Y-117030000D01*
X111490000Y-117350000D02*
X111490000Y-117030000D01*
X111490000Y-117670000D02*
X111490000Y-117350000D01*
X111490000Y-119530000D02*
X114910000Y-119530000D01*
X111490000Y-119850000D02*
X111490000Y-119530000D01*
X111490000Y-120170000D02*
X111490000Y-119850000D01*
X114910000Y-112030000D02*
X114990000Y-112350000D01*
X114910000Y-112670000D02*
X111490000Y-112670000D01*
X114910000Y-114530000D02*
X114990000Y-114850000D01*
X114910000Y-115170000D02*
X111490000Y-115170000D01*
X114910000Y-117030000D02*
X114990000Y-117350000D01*
X114910000Y-117670000D02*
X111490000Y-117670000D01*
X114910000Y-119530000D02*
X114990000Y-119850000D01*
X114910000Y-120170000D02*
X111490000Y-120170000D01*
X114990000Y-112350000D02*
X114910000Y-112670000D01*
X114990000Y-114850000D02*
X114910000Y-115170000D01*
X114990000Y-117350000D02*
X114910000Y-117670000D01*
X114990000Y-119850000D02*
X114910000Y-120170000D01*
X115490000Y-109740000D02*
X115490000Y-110960000D01*
X115490000Y-110960000D02*
X110490000Y-110960000D01*
X115490000Y-121240000D02*
X110490000Y-121240000D01*
X115490000Y-122460000D02*
X115490000Y-121240000D01*
X116710000Y-109740000D02*
X116710000Y-122460000D01*
X116710000Y-122460000D02*
X108290000Y-122460000D01*
D13*
%TO.C,LED1*%
X113575000Y-75300000D02*
X113575000Y-77625000D01*
X113575000Y-77625000D02*
X115225000Y-77625000D01*
X115225000Y-77625000D02*
X115225000Y-75300000D01*
D12*
%TO.C,J3*%
X93090000Y-79740000D02*
X101510000Y-79740000D01*
X93090000Y-92460000D02*
X93090000Y-79740000D01*
X94310000Y-79740000D02*
X94310000Y-80960000D01*
X94310000Y-80960000D02*
X99310000Y-80960000D01*
X94310000Y-91240000D02*
X99310000Y-91240000D01*
X94310000Y-92460000D02*
X94310000Y-91240000D01*
X94810000Y-82350000D02*
X94890000Y-82030000D01*
X94810000Y-84850000D02*
X94890000Y-84530000D01*
X94810000Y-87350000D02*
X94890000Y-87030000D01*
X94810000Y-89850000D02*
X94890000Y-89530000D01*
X94890000Y-82030000D02*
X98310000Y-82030000D01*
X94890000Y-82670000D02*
X94810000Y-82350000D01*
X94890000Y-84530000D02*
X98310000Y-84530000D01*
X94890000Y-85170000D02*
X94810000Y-84850000D01*
X94890000Y-87030000D02*
X98310000Y-87030000D01*
X94890000Y-87670000D02*
X94810000Y-87350000D01*
X94890000Y-89530000D02*
X98310000Y-89530000D01*
X94890000Y-90170000D02*
X94810000Y-89850000D01*
X98310000Y-82030000D02*
X98310000Y-82350000D01*
X98310000Y-82350000D02*
X98310000Y-82670000D01*
X98310000Y-82670000D02*
X94890000Y-82670000D01*
X98310000Y-84530000D02*
X98310000Y-84850000D01*
X98310000Y-84850000D02*
X98310000Y-85170000D01*
X98310000Y-85170000D02*
X94890000Y-85170000D01*
X98310000Y-87030000D02*
X98310000Y-87350000D01*
X98310000Y-87350000D02*
X98310000Y-87670000D01*
X98310000Y-87670000D02*
X94890000Y-87670000D01*
X98310000Y-89530000D02*
X98310000Y-89850000D01*
X98310000Y-89850000D02*
X98310000Y-90170000D01*
X98310000Y-90170000D02*
X94890000Y-90170000D01*
X98310000Y-91240000D02*
X98310000Y-80960000D01*
X99310000Y-80960000D02*
X99310000Y-79740000D01*
X99310000Y-83680000D02*
X99310000Y-83520000D01*
X99310000Y-86180000D02*
X99310000Y-86020000D01*
X99310000Y-88680000D02*
X99310000Y-88520000D01*
X99310000Y-91240000D02*
X99310000Y-92460000D01*
X99310000Y-91240000D02*
X101510000Y-91240000D01*
X101400000Y-89850000D02*
X102000000Y-90150000D01*
X101510000Y-79740000D02*
X101510000Y-80960000D01*
X101510000Y-80960000D02*
X99310000Y-80960000D01*
X101510000Y-91240000D02*
X101510000Y-92460000D01*
X101510000Y-92460000D02*
X93090000Y-92460000D01*
X102000000Y-89550000D02*
X101400000Y-89850000D01*
X102000000Y-90150000D02*
X102000000Y-89550000D01*
%TO.C,J5*%
X107800000Y-97050000D02*
X107800000Y-97650000D01*
X107800000Y-97650000D02*
X108400000Y-97350000D01*
X108290000Y-94740000D02*
X116710000Y-94740000D01*
X108290000Y-95960000D02*
X108290000Y-94740000D01*
X108290000Y-106240000D02*
X110490000Y-106240000D01*
X108290000Y-107460000D02*
X108290000Y-106240000D01*
X108400000Y-97350000D02*
X107800000Y-97050000D01*
X110490000Y-95960000D02*
X108290000Y-95960000D01*
X110490000Y-95960000D02*
X110490000Y-94740000D01*
X110490000Y-98520000D02*
X110490000Y-98680000D01*
X110490000Y-101020000D02*
X110490000Y-101180000D01*
X110490000Y-103520000D02*
X110490000Y-103680000D01*
X110490000Y-106240000D02*
X110490000Y-107460000D01*
X111490000Y-95960000D02*
X111490000Y-106240000D01*
X111490000Y-97030000D02*
X114910000Y-97030000D01*
X111490000Y-97350000D02*
X111490000Y-97030000D01*
X111490000Y-97670000D02*
X111490000Y-97350000D01*
X111490000Y-99530000D02*
X114910000Y-99530000D01*
X111490000Y-99850000D02*
X111490000Y-99530000D01*
X111490000Y-100170000D02*
X111490000Y-99850000D01*
X111490000Y-102030000D02*
X114910000Y-102030000D01*
X111490000Y-102350000D02*
X111490000Y-102030000D01*
X111490000Y-102670000D02*
X111490000Y-102350000D01*
X111490000Y-104530000D02*
X114910000Y-104530000D01*
X111490000Y-104850000D02*
X111490000Y-104530000D01*
X111490000Y-105170000D02*
X111490000Y-104850000D01*
X114910000Y-97030000D02*
X114990000Y-97350000D01*
X114910000Y-97670000D02*
X111490000Y-97670000D01*
X114910000Y-99530000D02*
X114990000Y-99850000D01*
X114910000Y-100170000D02*
X111490000Y-100170000D01*
X114910000Y-102030000D02*
X114990000Y-102350000D01*
X114910000Y-102670000D02*
X111490000Y-102670000D01*
X114910000Y-104530000D02*
X114990000Y-104850000D01*
X114910000Y-105170000D02*
X111490000Y-105170000D01*
X114990000Y-97350000D02*
X114910000Y-97670000D01*
X114990000Y-99850000D02*
X114910000Y-100170000D01*
X114990000Y-102350000D02*
X114910000Y-102670000D01*
X114990000Y-104850000D02*
X114910000Y-105170000D01*
X115490000Y-94740000D02*
X115490000Y-95960000D01*
X115490000Y-95960000D02*
X110490000Y-95960000D01*
X115490000Y-106240000D02*
X110490000Y-106240000D01*
X115490000Y-107460000D02*
X115490000Y-106240000D01*
X116710000Y-94740000D02*
X116710000Y-107460000D01*
X116710000Y-107460000D02*
X108290000Y-107460000D01*
%TD*%
M02*
