M48
; DRILL file {KiCad 9.0.2} date 2025-06-15T01:10:16-0700
; FORMAT={-:-/ absolute / metric / decimal}
; #@! TF.CreationDate,2025-06-15T01:10:16-07:00
; #@! TF.GenerationSoftware,Kicad,Pcbnew,9.0.2
; #@! TF.FileFunction,Plated,1,2,PTH
FMAT,2
METRIC
; #@! TA.AperFunction,Plated,PTH,ViaDrill
T1C0.300
; #@! TA.AperFunction,Plated,PTH,ComponentDrill
T2C0.950
%
G90
G05
T1
X114.412Y-79.0
T2
X99.9Y-82.35
X99.9Y-84.85
X99.9Y-87.35
X99.9Y-89.85
X99.9Y-97.35
X99.9Y-99.85
X99.9Y-102.35
X99.9Y-104.85
X99.9Y-112.35
X99.9Y-114.85
X99.9Y-117.35
X99.9Y-119.85
X109.9Y-82.35
X109.9Y-84.85
X109.9Y-87.35
X109.9Y-89.85
X109.9Y-97.35
X109.9Y-99.85
X109.9Y-102.35
X109.9Y-104.85
X109.9Y-112.35
X109.9Y-114.85
X109.9Y-117.35
X109.9Y-119.85
M30
