%TF.GenerationSoftware,KiCad,Pcbnew,8.0.2*%
%TF.CreationDate,2025-02-01T19:12:37-07:00*%
%TF.ProjectId,SDM25_IMU_STM32,53444d32-355f-4494-9d55-5f53544d3332,rev?*%
%TF.SameCoordinates,Original*%
%TF.FileFunction,Drillmap*%
%TF.FilePolarity,Positive*%
%FSLAX45Y45*%
G04 Gerber Fmt 4.5, Leading zero omitted, Abs format (unit mm)*
G04 Created by KiCad (PCBNEW 8.0.2) date 2025-02-01 19:12:37*
%MOMM*%
%LPD*%
G01*
G04 APERTURE LIST*
%ADD10C,0.050000*%
%ADD11C,0.200000*%
%ADD12C,0.100000*%
%ADD13C,0.320000*%
G04 APERTURE END LIST*
D10*
X11190000Y-8100000D02*
G75*
G02*
X11590000Y-8500000I0J-400000D01*
G01*
X8700000Y-12770000D02*
G75*
G02*
X8300000Y-12370000I0J400000D01*
G01*
X8300000Y-12370000D02*
X8300000Y-8500000D01*
X8300000Y-8500000D02*
G75*
G02*
X8700000Y-8100000I400000J0D01*
G01*
X11590000Y-8500000D02*
X11590000Y-12370000D01*
X11590000Y-12370000D02*
G75*
G02*
X11190000Y-12770000I-400000J0D01*
G01*
X8700000Y-8100000D02*
X11190000Y-8100000D01*
X11190000Y-12770000D02*
X8700000Y-12770000D01*
D11*
D12*
X10712470Y-9743870D02*
X10811530Y-9842930D01*
X10811530Y-9743870D02*
X10712470Y-9842930D01*
X11220470Y-9642270D02*
X11319530Y-9741330D01*
X11319530Y-9642270D02*
X11220470Y-9741330D01*
X11220470Y-9845470D02*
X11319530Y-9944530D01*
X11319530Y-9845470D02*
X11220470Y-9944530D01*
D13*
X8860000Y-8500000D02*
G75*
G02*
X8540000Y-8500000I-160000J0D01*
G01*
X8540000Y-8500000D02*
G75*
G02*
X8860000Y-8500000I160000J0D01*
G01*
X8860000Y-11650000D02*
G75*
G02*
X8540000Y-11650000I-160000J0D01*
G01*
X8540000Y-11650000D02*
G75*
G02*
X8860000Y-11650000I160000J0D01*
G01*
X11360000Y-8500000D02*
G75*
G02*
X11040000Y-8500000I-160000J0D01*
G01*
X11040000Y-8500000D02*
G75*
G02*
X11360000Y-8500000I160000J0D01*
G01*
X11360000Y-11650000D02*
G75*
G02*
X11040000Y-11650000I-160000J0D01*
G01*
X11040000Y-11650000D02*
G75*
G02*
X11360000Y-11650000I160000J0D01*
G01*
D11*
X8558277Y-13083984D02*
X8558277Y-12883984D01*
X8558277Y-12883984D02*
X8605896Y-12883984D01*
X8605896Y-12883984D02*
X8634467Y-12893508D01*
X8634467Y-12893508D02*
X8653515Y-12912555D01*
X8653515Y-12912555D02*
X8663039Y-12931603D01*
X8663039Y-12931603D02*
X8672563Y-12969698D01*
X8672563Y-12969698D02*
X8672563Y-12998269D01*
X8672563Y-12998269D02*
X8663039Y-13036365D01*
X8663039Y-13036365D02*
X8653515Y-13055412D01*
X8653515Y-13055412D02*
X8634467Y-13074460D01*
X8634467Y-13074460D02*
X8605896Y-13083984D01*
X8605896Y-13083984D02*
X8558277Y-13083984D01*
X8758277Y-13083984D02*
X8758277Y-12950650D01*
X8758277Y-12988746D02*
X8767801Y-12969698D01*
X8767801Y-12969698D02*
X8777324Y-12960174D01*
X8777324Y-12960174D02*
X8796372Y-12950650D01*
X8796372Y-12950650D02*
X8815420Y-12950650D01*
X8882086Y-13083984D02*
X8882086Y-12950650D01*
X8882086Y-12883984D02*
X8872563Y-12893508D01*
X8872563Y-12893508D02*
X8882086Y-12903031D01*
X8882086Y-12903031D02*
X8891610Y-12893508D01*
X8891610Y-12893508D02*
X8882086Y-12883984D01*
X8882086Y-12883984D02*
X8882086Y-12903031D01*
X9005896Y-13083984D02*
X8986848Y-13074460D01*
X8986848Y-13074460D02*
X8977324Y-13055412D01*
X8977324Y-13055412D02*
X8977324Y-12883984D01*
X9110658Y-13083984D02*
X9091610Y-13074460D01*
X9091610Y-13074460D02*
X9082086Y-13055412D01*
X9082086Y-13055412D02*
X9082086Y-12883984D01*
X9339229Y-13083984D02*
X9339229Y-12883984D01*
X9339229Y-12883984D02*
X9405896Y-13026841D01*
X9405896Y-13026841D02*
X9472563Y-12883984D01*
X9472563Y-12883984D02*
X9472563Y-13083984D01*
X9653515Y-13083984D02*
X9653515Y-12979222D01*
X9653515Y-12979222D02*
X9643991Y-12960174D01*
X9643991Y-12960174D02*
X9624944Y-12950650D01*
X9624944Y-12950650D02*
X9586848Y-12950650D01*
X9586848Y-12950650D02*
X9567801Y-12960174D01*
X9653515Y-13074460D02*
X9634467Y-13083984D01*
X9634467Y-13083984D02*
X9586848Y-13083984D01*
X9586848Y-13083984D02*
X9567801Y-13074460D01*
X9567801Y-13074460D02*
X9558277Y-13055412D01*
X9558277Y-13055412D02*
X9558277Y-13036365D01*
X9558277Y-13036365D02*
X9567801Y-13017317D01*
X9567801Y-13017317D02*
X9586848Y-13007793D01*
X9586848Y-13007793D02*
X9634467Y-13007793D01*
X9634467Y-13007793D02*
X9653515Y-12998269D01*
X9748753Y-12950650D02*
X9748753Y-13150650D01*
X9748753Y-12960174D02*
X9767801Y-12950650D01*
X9767801Y-12950650D02*
X9805896Y-12950650D01*
X9805896Y-12950650D02*
X9824944Y-12960174D01*
X9824944Y-12960174D02*
X9834467Y-12969698D01*
X9834467Y-12969698D02*
X9843991Y-12988746D01*
X9843991Y-12988746D02*
X9843991Y-13045888D01*
X9843991Y-13045888D02*
X9834467Y-13064936D01*
X9834467Y-13064936D02*
X9824944Y-13074460D01*
X9824944Y-13074460D02*
X9805896Y-13083984D01*
X9805896Y-13083984D02*
X9767801Y-13083984D01*
X9767801Y-13083984D02*
X9748753Y-13074460D01*
X9929705Y-13064936D02*
X9939229Y-13074460D01*
X9939229Y-13074460D02*
X9929705Y-13083984D01*
X9929705Y-13083984D02*
X9920182Y-13074460D01*
X9920182Y-13074460D02*
X9929705Y-13064936D01*
X9929705Y-13064936D02*
X9929705Y-13083984D01*
X9929705Y-12960174D02*
X9939229Y-12969698D01*
X9939229Y-12969698D02*
X9929705Y-12979222D01*
X9929705Y-12979222D02*
X9920182Y-12969698D01*
X9920182Y-12969698D02*
X9929705Y-12960174D01*
X9929705Y-12960174D02*
X9929705Y-12979222D01*
D12*
X8198440Y-13362970D02*
X8297500Y-13462030D01*
X8297500Y-13362970D02*
X8198440Y-13462030D01*
D11*
X8596372Y-13303984D02*
X8615420Y-13303984D01*
X8615420Y-13303984D02*
X8634467Y-13313508D01*
X8634467Y-13313508D02*
X8643991Y-13323031D01*
X8643991Y-13323031D02*
X8653515Y-13342079D01*
X8653515Y-13342079D02*
X8663039Y-13380174D01*
X8663039Y-13380174D02*
X8663039Y-13427793D01*
X8663039Y-13427793D02*
X8653515Y-13465888D01*
X8653515Y-13465888D02*
X8643991Y-13484936D01*
X8643991Y-13484936D02*
X8634467Y-13494460D01*
X8634467Y-13494460D02*
X8615420Y-13503984D01*
X8615420Y-13503984D02*
X8596372Y-13503984D01*
X8596372Y-13503984D02*
X8577324Y-13494460D01*
X8577324Y-13494460D02*
X8567801Y-13484936D01*
X8567801Y-13484936D02*
X8558277Y-13465888D01*
X8558277Y-13465888D02*
X8548753Y-13427793D01*
X8548753Y-13427793D02*
X8548753Y-13380174D01*
X8548753Y-13380174D02*
X8558277Y-13342079D01*
X8558277Y-13342079D02*
X8567801Y-13323031D01*
X8567801Y-13323031D02*
X8577324Y-13313508D01*
X8577324Y-13313508D02*
X8596372Y-13303984D01*
X8748753Y-13484936D02*
X8758277Y-13494460D01*
X8758277Y-13494460D02*
X8748753Y-13503984D01*
X8748753Y-13503984D02*
X8739229Y-13494460D01*
X8739229Y-13494460D02*
X8748753Y-13484936D01*
X8748753Y-13484936D02*
X8748753Y-13503984D01*
X8853515Y-13503984D02*
X8891610Y-13503984D01*
X8891610Y-13503984D02*
X8910658Y-13494460D01*
X8910658Y-13494460D02*
X8920182Y-13484936D01*
X8920182Y-13484936D02*
X8939229Y-13456365D01*
X8939229Y-13456365D02*
X8948753Y-13418269D01*
X8948753Y-13418269D02*
X8948753Y-13342079D01*
X8948753Y-13342079D02*
X8939229Y-13323031D01*
X8939229Y-13323031D02*
X8929705Y-13313508D01*
X8929705Y-13313508D02*
X8910658Y-13303984D01*
X8910658Y-13303984D02*
X8872563Y-13303984D01*
X8872563Y-13303984D02*
X8853515Y-13313508D01*
X8853515Y-13313508D02*
X8843991Y-13323031D01*
X8843991Y-13323031D02*
X8834467Y-13342079D01*
X8834467Y-13342079D02*
X8834467Y-13389698D01*
X8834467Y-13389698D02*
X8843991Y-13408746D01*
X8843991Y-13408746D02*
X8853515Y-13418269D01*
X8853515Y-13418269D02*
X8872563Y-13427793D01*
X8872563Y-13427793D02*
X8910658Y-13427793D01*
X8910658Y-13427793D02*
X8929705Y-13418269D01*
X8929705Y-13418269D02*
X8939229Y-13408746D01*
X8939229Y-13408746D02*
X8948753Y-13389698D01*
X9043991Y-13503984D02*
X9082086Y-13503984D01*
X9082086Y-13503984D02*
X9101134Y-13494460D01*
X9101134Y-13494460D02*
X9110658Y-13484936D01*
X9110658Y-13484936D02*
X9129705Y-13456365D01*
X9129705Y-13456365D02*
X9139229Y-13418269D01*
X9139229Y-13418269D02*
X9139229Y-13342079D01*
X9139229Y-13342079D02*
X9129705Y-13323031D01*
X9129705Y-13323031D02*
X9120182Y-13313508D01*
X9120182Y-13313508D02*
X9101134Y-13303984D01*
X9101134Y-13303984D02*
X9063039Y-13303984D01*
X9063039Y-13303984D02*
X9043991Y-13313508D01*
X9043991Y-13313508D02*
X9034467Y-13323031D01*
X9034467Y-13323031D02*
X9024944Y-13342079D01*
X9024944Y-13342079D02*
X9024944Y-13389698D01*
X9024944Y-13389698D02*
X9034467Y-13408746D01*
X9034467Y-13408746D02*
X9043991Y-13418269D01*
X9043991Y-13418269D02*
X9063039Y-13427793D01*
X9063039Y-13427793D02*
X9101134Y-13427793D01*
X9101134Y-13427793D02*
X9120182Y-13418269D01*
X9120182Y-13418269D02*
X9129705Y-13408746D01*
X9129705Y-13408746D02*
X9139229Y-13389698D01*
X9329705Y-13503984D02*
X9215420Y-13503984D01*
X9272563Y-13503984D02*
X9272563Y-13303984D01*
X9272563Y-13303984D02*
X9253515Y-13332555D01*
X9253515Y-13332555D02*
X9234467Y-13351603D01*
X9234467Y-13351603D02*
X9215420Y-13361127D01*
X9415420Y-13503984D02*
X9415420Y-13370650D01*
X9415420Y-13389698D02*
X9424944Y-13380174D01*
X9424944Y-13380174D02*
X9443991Y-13370650D01*
X9443991Y-13370650D02*
X9472563Y-13370650D01*
X9472563Y-13370650D02*
X9491610Y-13380174D01*
X9491610Y-13380174D02*
X9501134Y-13399222D01*
X9501134Y-13399222D02*
X9501134Y-13503984D01*
X9501134Y-13399222D02*
X9510658Y-13380174D01*
X9510658Y-13380174D02*
X9529705Y-13370650D01*
X9529705Y-13370650D02*
X9558277Y-13370650D01*
X9558277Y-13370650D02*
X9577325Y-13380174D01*
X9577325Y-13380174D02*
X9586848Y-13399222D01*
X9586848Y-13399222D02*
X9586848Y-13503984D01*
X9682086Y-13503984D02*
X9682086Y-13370650D01*
X9682086Y-13389698D02*
X9691610Y-13380174D01*
X9691610Y-13380174D02*
X9710658Y-13370650D01*
X9710658Y-13370650D02*
X9739229Y-13370650D01*
X9739229Y-13370650D02*
X9758277Y-13380174D01*
X9758277Y-13380174D02*
X9767801Y-13399222D01*
X9767801Y-13399222D02*
X9767801Y-13503984D01*
X9767801Y-13399222D02*
X9777325Y-13380174D01*
X9777325Y-13380174D02*
X9796372Y-13370650D01*
X9796372Y-13370650D02*
X9824944Y-13370650D01*
X9824944Y-13370650D02*
X9843991Y-13380174D01*
X9843991Y-13380174D02*
X9853515Y-13399222D01*
X9853515Y-13399222D02*
X9853515Y-13503984D01*
X10243991Y-13294460D02*
X10072563Y-13551603D01*
X10501134Y-13303984D02*
X10520182Y-13303984D01*
X10520182Y-13303984D02*
X10539229Y-13313508D01*
X10539229Y-13313508D02*
X10548753Y-13323031D01*
X10548753Y-13323031D02*
X10558277Y-13342079D01*
X10558277Y-13342079D02*
X10567801Y-13380174D01*
X10567801Y-13380174D02*
X10567801Y-13427793D01*
X10567801Y-13427793D02*
X10558277Y-13465888D01*
X10558277Y-13465888D02*
X10548753Y-13484936D01*
X10548753Y-13484936D02*
X10539229Y-13494460D01*
X10539229Y-13494460D02*
X10520182Y-13503984D01*
X10520182Y-13503984D02*
X10501134Y-13503984D01*
X10501134Y-13503984D02*
X10482087Y-13494460D01*
X10482087Y-13494460D02*
X10472563Y-13484936D01*
X10472563Y-13484936D02*
X10463039Y-13465888D01*
X10463039Y-13465888D02*
X10453515Y-13427793D01*
X10453515Y-13427793D02*
X10453515Y-13380174D01*
X10453515Y-13380174D02*
X10463039Y-13342079D01*
X10463039Y-13342079D02*
X10472563Y-13323031D01*
X10472563Y-13323031D02*
X10482087Y-13313508D01*
X10482087Y-13313508D02*
X10501134Y-13303984D01*
X10653515Y-13484936D02*
X10663039Y-13494460D01*
X10663039Y-13494460D02*
X10653515Y-13503984D01*
X10653515Y-13503984D02*
X10643991Y-13494460D01*
X10643991Y-13494460D02*
X10653515Y-13484936D01*
X10653515Y-13484936D02*
X10653515Y-13503984D01*
X10786848Y-13303984D02*
X10805896Y-13303984D01*
X10805896Y-13303984D02*
X10824944Y-13313508D01*
X10824944Y-13313508D02*
X10834468Y-13323031D01*
X10834468Y-13323031D02*
X10843991Y-13342079D01*
X10843991Y-13342079D02*
X10853515Y-13380174D01*
X10853515Y-13380174D02*
X10853515Y-13427793D01*
X10853515Y-13427793D02*
X10843991Y-13465888D01*
X10843991Y-13465888D02*
X10834468Y-13484936D01*
X10834468Y-13484936D02*
X10824944Y-13494460D01*
X10824944Y-13494460D02*
X10805896Y-13503984D01*
X10805896Y-13503984D02*
X10786848Y-13503984D01*
X10786848Y-13503984D02*
X10767801Y-13494460D01*
X10767801Y-13494460D02*
X10758277Y-13484936D01*
X10758277Y-13484936D02*
X10748753Y-13465888D01*
X10748753Y-13465888D02*
X10739229Y-13427793D01*
X10739229Y-13427793D02*
X10739229Y-13380174D01*
X10739229Y-13380174D02*
X10748753Y-13342079D01*
X10748753Y-13342079D02*
X10758277Y-13323031D01*
X10758277Y-13323031D02*
X10767801Y-13313508D01*
X10767801Y-13313508D02*
X10786848Y-13303984D01*
X10920182Y-13303984D02*
X11043991Y-13303984D01*
X11043991Y-13303984D02*
X10977325Y-13380174D01*
X10977325Y-13380174D02*
X11005896Y-13380174D01*
X11005896Y-13380174D02*
X11024944Y-13389698D01*
X11024944Y-13389698D02*
X11034468Y-13399222D01*
X11034468Y-13399222D02*
X11043991Y-13418269D01*
X11043991Y-13418269D02*
X11043991Y-13465888D01*
X11043991Y-13465888D02*
X11034468Y-13484936D01*
X11034468Y-13484936D02*
X11024944Y-13494460D01*
X11024944Y-13494460D02*
X11005896Y-13503984D01*
X11005896Y-13503984D02*
X10948753Y-13503984D01*
X10948753Y-13503984D02*
X10929706Y-13494460D01*
X10929706Y-13494460D02*
X10920182Y-13484936D01*
X11139229Y-13503984D02*
X11177325Y-13503984D01*
X11177325Y-13503984D02*
X11196372Y-13494460D01*
X11196372Y-13494460D02*
X11205896Y-13484936D01*
X11205896Y-13484936D02*
X11224944Y-13456365D01*
X11224944Y-13456365D02*
X11234467Y-13418269D01*
X11234467Y-13418269D02*
X11234467Y-13342079D01*
X11234467Y-13342079D02*
X11224944Y-13323031D01*
X11224944Y-13323031D02*
X11215420Y-13313508D01*
X11215420Y-13313508D02*
X11196372Y-13303984D01*
X11196372Y-13303984D02*
X11158277Y-13303984D01*
X11158277Y-13303984D02*
X11139229Y-13313508D01*
X11139229Y-13313508D02*
X11129706Y-13323031D01*
X11129706Y-13323031D02*
X11120182Y-13342079D01*
X11120182Y-13342079D02*
X11120182Y-13389698D01*
X11120182Y-13389698D02*
X11129706Y-13408746D01*
X11129706Y-13408746D02*
X11139229Y-13418269D01*
X11139229Y-13418269D02*
X11158277Y-13427793D01*
X11158277Y-13427793D02*
X11196372Y-13427793D01*
X11196372Y-13427793D02*
X11215420Y-13418269D01*
X11215420Y-13418269D02*
X11224944Y-13408746D01*
X11224944Y-13408746D02*
X11234467Y-13389698D01*
X11358277Y-13303984D02*
X11377325Y-13303984D01*
X11377325Y-13303984D02*
X11396372Y-13313508D01*
X11396372Y-13313508D02*
X11405896Y-13323031D01*
X11405896Y-13323031D02*
X11415420Y-13342079D01*
X11415420Y-13342079D02*
X11424944Y-13380174D01*
X11424944Y-13380174D02*
X11424944Y-13427793D01*
X11424944Y-13427793D02*
X11415420Y-13465888D01*
X11415420Y-13465888D02*
X11405896Y-13484936D01*
X11405896Y-13484936D02*
X11396372Y-13494460D01*
X11396372Y-13494460D02*
X11377325Y-13503984D01*
X11377325Y-13503984D02*
X11358277Y-13503984D01*
X11358277Y-13503984D02*
X11339229Y-13494460D01*
X11339229Y-13494460D02*
X11329706Y-13484936D01*
X11329706Y-13484936D02*
X11320182Y-13465888D01*
X11320182Y-13465888D02*
X11310658Y-13427793D01*
X11310658Y-13427793D02*
X11310658Y-13380174D01*
X11310658Y-13380174D02*
X11320182Y-13342079D01*
X11320182Y-13342079D02*
X11329706Y-13323031D01*
X11329706Y-13323031D02*
X11339229Y-13313508D01*
X11339229Y-13313508D02*
X11358277Y-13303984D01*
X11501134Y-13303984D02*
X11501134Y-13342079D01*
X11577325Y-13303984D02*
X11577325Y-13342079D01*
X11872563Y-13580174D02*
X11863039Y-13570650D01*
X11863039Y-13570650D02*
X11843991Y-13542079D01*
X11843991Y-13542079D02*
X11834468Y-13523031D01*
X11834468Y-13523031D02*
X11824944Y-13494460D01*
X11824944Y-13494460D02*
X11815420Y-13446841D01*
X11815420Y-13446841D02*
X11815420Y-13408746D01*
X11815420Y-13408746D02*
X11824944Y-13361127D01*
X11824944Y-13361127D02*
X11834468Y-13332555D01*
X11834468Y-13332555D02*
X11843991Y-13313508D01*
X11843991Y-13313508D02*
X11863039Y-13284936D01*
X11863039Y-13284936D02*
X11872563Y-13275412D01*
X11929706Y-13303984D02*
X12053515Y-13303984D01*
X12053515Y-13303984D02*
X11986848Y-13380174D01*
X11986848Y-13380174D02*
X12015420Y-13380174D01*
X12015420Y-13380174D02*
X12034468Y-13389698D01*
X12034468Y-13389698D02*
X12043991Y-13399222D01*
X12043991Y-13399222D02*
X12053515Y-13418269D01*
X12053515Y-13418269D02*
X12053515Y-13465888D01*
X12053515Y-13465888D02*
X12043991Y-13484936D01*
X12043991Y-13484936D02*
X12034468Y-13494460D01*
X12034468Y-13494460D02*
X12015420Y-13503984D01*
X12015420Y-13503984D02*
X11958277Y-13503984D01*
X11958277Y-13503984D02*
X11939229Y-13494460D01*
X11939229Y-13494460D02*
X11929706Y-13484936D01*
X12291610Y-13503984D02*
X12291610Y-13303984D01*
X12377325Y-13503984D02*
X12377325Y-13399222D01*
X12377325Y-13399222D02*
X12367801Y-13380174D01*
X12367801Y-13380174D02*
X12348753Y-13370650D01*
X12348753Y-13370650D02*
X12320182Y-13370650D01*
X12320182Y-13370650D02*
X12301134Y-13380174D01*
X12301134Y-13380174D02*
X12291610Y-13389698D01*
X12501134Y-13503984D02*
X12482087Y-13494460D01*
X12482087Y-13494460D02*
X12472563Y-13484936D01*
X12472563Y-13484936D02*
X12463039Y-13465888D01*
X12463039Y-13465888D02*
X12463039Y-13408746D01*
X12463039Y-13408746D02*
X12472563Y-13389698D01*
X12472563Y-13389698D02*
X12482087Y-13380174D01*
X12482087Y-13380174D02*
X12501134Y-13370650D01*
X12501134Y-13370650D02*
X12529706Y-13370650D01*
X12529706Y-13370650D02*
X12548753Y-13380174D01*
X12548753Y-13380174D02*
X12558277Y-13389698D01*
X12558277Y-13389698D02*
X12567801Y-13408746D01*
X12567801Y-13408746D02*
X12567801Y-13465888D01*
X12567801Y-13465888D02*
X12558277Y-13484936D01*
X12558277Y-13484936D02*
X12548753Y-13494460D01*
X12548753Y-13494460D02*
X12529706Y-13503984D01*
X12529706Y-13503984D02*
X12501134Y-13503984D01*
X12682087Y-13503984D02*
X12663039Y-13494460D01*
X12663039Y-13494460D02*
X12653515Y-13475412D01*
X12653515Y-13475412D02*
X12653515Y-13303984D01*
X12834468Y-13494460D02*
X12815420Y-13503984D01*
X12815420Y-13503984D02*
X12777325Y-13503984D01*
X12777325Y-13503984D02*
X12758277Y-13494460D01*
X12758277Y-13494460D02*
X12748753Y-13475412D01*
X12748753Y-13475412D02*
X12748753Y-13399222D01*
X12748753Y-13399222D02*
X12758277Y-13380174D01*
X12758277Y-13380174D02*
X12777325Y-13370650D01*
X12777325Y-13370650D02*
X12815420Y-13370650D01*
X12815420Y-13370650D02*
X12834468Y-13380174D01*
X12834468Y-13380174D02*
X12843991Y-13399222D01*
X12843991Y-13399222D02*
X12843991Y-13418269D01*
X12843991Y-13418269D02*
X12748753Y-13437317D01*
X12920182Y-13494460D02*
X12939230Y-13503984D01*
X12939230Y-13503984D02*
X12977325Y-13503984D01*
X12977325Y-13503984D02*
X12996372Y-13494460D01*
X12996372Y-13494460D02*
X13005896Y-13475412D01*
X13005896Y-13475412D02*
X13005896Y-13465888D01*
X13005896Y-13465888D02*
X12996372Y-13446841D01*
X12996372Y-13446841D02*
X12977325Y-13437317D01*
X12977325Y-13437317D02*
X12948753Y-13437317D01*
X12948753Y-13437317D02*
X12929706Y-13427793D01*
X12929706Y-13427793D02*
X12920182Y-13408746D01*
X12920182Y-13408746D02*
X12920182Y-13399222D01*
X12920182Y-13399222D02*
X12929706Y-13380174D01*
X12929706Y-13380174D02*
X12948753Y-13370650D01*
X12948753Y-13370650D02*
X12977325Y-13370650D01*
X12977325Y-13370650D02*
X12996372Y-13380174D01*
X13072563Y-13580174D02*
X13082087Y-13570650D01*
X13082087Y-13570650D02*
X13101134Y-13542079D01*
X13101134Y-13542079D02*
X13110658Y-13523031D01*
X13110658Y-13523031D02*
X13120182Y-13494460D01*
X13120182Y-13494460D02*
X13129706Y-13446841D01*
X13129706Y-13446841D02*
X13129706Y-13408746D01*
X13129706Y-13408746D02*
X13120182Y-13361127D01*
X13120182Y-13361127D02*
X13110658Y-13332555D01*
X13110658Y-13332555D02*
X13101134Y-13313508D01*
X13101134Y-13313508D02*
X13082087Y-13284936D01*
X13082087Y-13284936D02*
X13072563Y-13275412D01*
X13434468Y-13580174D02*
X13424944Y-13570650D01*
X13424944Y-13570650D02*
X13405896Y-13542079D01*
X13405896Y-13542079D02*
X13396372Y-13523031D01*
X13396372Y-13523031D02*
X13386849Y-13494460D01*
X13386849Y-13494460D02*
X13377325Y-13446841D01*
X13377325Y-13446841D02*
X13377325Y-13408746D01*
X13377325Y-13408746D02*
X13386849Y-13361127D01*
X13386849Y-13361127D02*
X13396372Y-13332555D01*
X13396372Y-13332555D02*
X13405896Y-13313508D01*
X13405896Y-13313508D02*
X13424944Y-13284936D01*
X13424944Y-13284936D02*
X13434468Y-13275412D01*
X13510658Y-13370650D02*
X13510658Y-13503984D01*
X13510658Y-13389698D02*
X13520182Y-13380174D01*
X13520182Y-13380174D02*
X13539230Y-13370650D01*
X13539230Y-13370650D02*
X13567801Y-13370650D01*
X13567801Y-13370650D02*
X13586849Y-13380174D01*
X13586849Y-13380174D02*
X13596372Y-13399222D01*
X13596372Y-13399222D02*
X13596372Y-13503984D01*
X13720182Y-13503984D02*
X13701134Y-13494460D01*
X13701134Y-13494460D02*
X13691611Y-13484936D01*
X13691611Y-13484936D02*
X13682087Y-13465888D01*
X13682087Y-13465888D02*
X13682087Y-13408746D01*
X13682087Y-13408746D02*
X13691611Y-13389698D01*
X13691611Y-13389698D02*
X13701134Y-13380174D01*
X13701134Y-13380174D02*
X13720182Y-13370650D01*
X13720182Y-13370650D02*
X13748753Y-13370650D01*
X13748753Y-13370650D02*
X13767801Y-13380174D01*
X13767801Y-13380174D02*
X13777325Y-13389698D01*
X13777325Y-13389698D02*
X13786849Y-13408746D01*
X13786849Y-13408746D02*
X13786849Y-13465888D01*
X13786849Y-13465888D02*
X13777325Y-13484936D01*
X13777325Y-13484936D02*
X13767801Y-13494460D01*
X13767801Y-13494460D02*
X13748753Y-13503984D01*
X13748753Y-13503984D02*
X13720182Y-13503984D01*
X13843992Y-13370650D02*
X13920182Y-13370650D01*
X13872563Y-13303984D02*
X13872563Y-13475412D01*
X13872563Y-13475412D02*
X13882087Y-13494460D01*
X13882087Y-13494460D02*
X13901134Y-13503984D01*
X13901134Y-13503984D02*
X13920182Y-13503984D01*
X14139230Y-13370650D02*
X14139230Y-13570650D01*
X14139230Y-13380174D02*
X14158277Y-13370650D01*
X14158277Y-13370650D02*
X14196373Y-13370650D01*
X14196373Y-13370650D02*
X14215420Y-13380174D01*
X14215420Y-13380174D02*
X14224944Y-13389698D01*
X14224944Y-13389698D02*
X14234468Y-13408746D01*
X14234468Y-13408746D02*
X14234468Y-13465888D01*
X14234468Y-13465888D02*
X14224944Y-13484936D01*
X14224944Y-13484936D02*
X14215420Y-13494460D01*
X14215420Y-13494460D02*
X14196373Y-13503984D01*
X14196373Y-13503984D02*
X14158277Y-13503984D01*
X14158277Y-13503984D02*
X14139230Y-13494460D01*
X14348753Y-13503984D02*
X14329706Y-13494460D01*
X14329706Y-13494460D02*
X14320182Y-13475412D01*
X14320182Y-13475412D02*
X14320182Y-13303984D01*
X14510658Y-13503984D02*
X14510658Y-13399222D01*
X14510658Y-13399222D02*
X14501134Y-13380174D01*
X14501134Y-13380174D02*
X14482087Y-13370650D01*
X14482087Y-13370650D02*
X14443992Y-13370650D01*
X14443992Y-13370650D02*
X14424944Y-13380174D01*
X14510658Y-13494460D02*
X14491611Y-13503984D01*
X14491611Y-13503984D02*
X14443992Y-13503984D01*
X14443992Y-13503984D02*
X14424944Y-13494460D01*
X14424944Y-13494460D02*
X14415420Y-13475412D01*
X14415420Y-13475412D02*
X14415420Y-13456365D01*
X14415420Y-13456365D02*
X14424944Y-13437317D01*
X14424944Y-13437317D02*
X14443992Y-13427793D01*
X14443992Y-13427793D02*
X14491611Y-13427793D01*
X14491611Y-13427793D02*
X14510658Y-13418269D01*
X14577325Y-13370650D02*
X14653515Y-13370650D01*
X14605896Y-13303984D02*
X14605896Y-13475412D01*
X14605896Y-13475412D02*
X14615420Y-13494460D01*
X14615420Y-13494460D02*
X14634468Y-13503984D01*
X14634468Y-13503984D02*
X14653515Y-13503984D01*
X14796373Y-13494460D02*
X14777325Y-13503984D01*
X14777325Y-13503984D02*
X14739230Y-13503984D01*
X14739230Y-13503984D02*
X14720182Y-13494460D01*
X14720182Y-13494460D02*
X14710658Y-13475412D01*
X14710658Y-13475412D02*
X14710658Y-13399222D01*
X14710658Y-13399222D02*
X14720182Y-13380174D01*
X14720182Y-13380174D02*
X14739230Y-13370650D01*
X14739230Y-13370650D02*
X14777325Y-13370650D01*
X14777325Y-13370650D02*
X14796373Y-13380174D01*
X14796373Y-13380174D02*
X14805896Y-13399222D01*
X14805896Y-13399222D02*
X14805896Y-13418269D01*
X14805896Y-13418269D02*
X14710658Y-13437317D01*
X14977325Y-13503984D02*
X14977325Y-13303984D01*
X14977325Y-13494460D02*
X14958277Y-13503984D01*
X14958277Y-13503984D02*
X14920182Y-13503984D01*
X14920182Y-13503984D02*
X14901134Y-13494460D01*
X14901134Y-13494460D02*
X14891611Y-13484936D01*
X14891611Y-13484936D02*
X14882087Y-13465888D01*
X14882087Y-13465888D02*
X14882087Y-13408746D01*
X14882087Y-13408746D02*
X14891611Y-13389698D01*
X14891611Y-13389698D02*
X14901134Y-13380174D01*
X14901134Y-13380174D02*
X14920182Y-13370650D01*
X14920182Y-13370650D02*
X14958277Y-13370650D01*
X14958277Y-13370650D02*
X14977325Y-13380174D01*
X15053515Y-13580174D02*
X15063039Y-13570650D01*
X15063039Y-13570650D02*
X15082087Y-13542079D01*
X15082087Y-13542079D02*
X15091611Y-13523031D01*
X15091611Y-13523031D02*
X15101134Y-13494460D01*
X15101134Y-13494460D02*
X15110658Y-13446841D01*
X15110658Y-13446841D02*
X15110658Y-13408746D01*
X15110658Y-13408746D02*
X15101134Y-13361127D01*
X15101134Y-13361127D02*
X15091611Y-13332555D01*
X15091611Y-13332555D02*
X15082087Y-13313508D01*
X15082087Y-13313508D02*
X15063039Y-13284936D01*
X15063039Y-13284936D02*
X15053515Y-13275412D01*
X8297500Y-13676500D02*
G75*
G02*
X8097500Y-13676500I-100000J0D01*
G01*
X8097500Y-13676500D02*
G75*
G02*
X8297500Y-13676500I100000J0D01*
G01*
X8539229Y-13567984D02*
X8663039Y-13567984D01*
X8663039Y-13567984D02*
X8596372Y-13644174D01*
X8596372Y-13644174D02*
X8624944Y-13644174D01*
X8624944Y-13644174D02*
X8643991Y-13653698D01*
X8643991Y-13653698D02*
X8653515Y-13663222D01*
X8653515Y-13663222D02*
X8663039Y-13682269D01*
X8663039Y-13682269D02*
X8663039Y-13729888D01*
X8663039Y-13729888D02*
X8653515Y-13748936D01*
X8653515Y-13748936D02*
X8643991Y-13758460D01*
X8643991Y-13758460D02*
X8624944Y-13767984D01*
X8624944Y-13767984D02*
X8567801Y-13767984D01*
X8567801Y-13767984D02*
X8548753Y-13758460D01*
X8548753Y-13758460D02*
X8539229Y-13748936D01*
X8748753Y-13748936D02*
X8758277Y-13758460D01*
X8758277Y-13758460D02*
X8748753Y-13767984D01*
X8748753Y-13767984D02*
X8739229Y-13758460D01*
X8739229Y-13758460D02*
X8748753Y-13748936D01*
X8748753Y-13748936D02*
X8748753Y-13767984D01*
X8834467Y-13587031D02*
X8843991Y-13577508D01*
X8843991Y-13577508D02*
X8863039Y-13567984D01*
X8863039Y-13567984D02*
X8910658Y-13567984D01*
X8910658Y-13567984D02*
X8929705Y-13577508D01*
X8929705Y-13577508D02*
X8939229Y-13587031D01*
X8939229Y-13587031D02*
X8948753Y-13606079D01*
X8948753Y-13606079D02*
X8948753Y-13625127D01*
X8948753Y-13625127D02*
X8939229Y-13653698D01*
X8939229Y-13653698D02*
X8824944Y-13767984D01*
X8824944Y-13767984D02*
X8948753Y-13767984D01*
X9072563Y-13567984D02*
X9091610Y-13567984D01*
X9091610Y-13567984D02*
X9110658Y-13577508D01*
X9110658Y-13577508D02*
X9120182Y-13587031D01*
X9120182Y-13587031D02*
X9129705Y-13606079D01*
X9129705Y-13606079D02*
X9139229Y-13644174D01*
X9139229Y-13644174D02*
X9139229Y-13691793D01*
X9139229Y-13691793D02*
X9129705Y-13729888D01*
X9129705Y-13729888D02*
X9120182Y-13748936D01*
X9120182Y-13748936D02*
X9110658Y-13758460D01*
X9110658Y-13758460D02*
X9091610Y-13767984D01*
X9091610Y-13767984D02*
X9072563Y-13767984D01*
X9072563Y-13767984D02*
X9053515Y-13758460D01*
X9053515Y-13758460D02*
X9043991Y-13748936D01*
X9043991Y-13748936D02*
X9034467Y-13729888D01*
X9034467Y-13729888D02*
X9024944Y-13691793D01*
X9024944Y-13691793D02*
X9024944Y-13644174D01*
X9024944Y-13644174D02*
X9034467Y-13606079D01*
X9034467Y-13606079D02*
X9043991Y-13587031D01*
X9043991Y-13587031D02*
X9053515Y-13577508D01*
X9053515Y-13577508D02*
X9072563Y-13567984D01*
X9263039Y-13567984D02*
X9282086Y-13567984D01*
X9282086Y-13567984D02*
X9301134Y-13577508D01*
X9301134Y-13577508D02*
X9310658Y-13587031D01*
X9310658Y-13587031D02*
X9320182Y-13606079D01*
X9320182Y-13606079D02*
X9329705Y-13644174D01*
X9329705Y-13644174D02*
X9329705Y-13691793D01*
X9329705Y-13691793D02*
X9320182Y-13729888D01*
X9320182Y-13729888D02*
X9310658Y-13748936D01*
X9310658Y-13748936D02*
X9301134Y-13758460D01*
X9301134Y-13758460D02*
X9282086Y-13767984D01*
X9282086Y-13767984D02*
X9263039Y-13767984D01*
X9263039Y-13767984D02*
X9243991Y-13758460D01*
X9243991Y-13758460D02*
X9234467Y-13748936D01*
X9234467Y-13748936D02*
X9224944Y-13729888D01*
X9224944Y-13729888D02*
X9215420Y-13691793D01*
X9215420Y-13691793D02*
X9215420Y-13644174D01*
X9215420Y-13644174D02*
X9224944Y-13606079D01*
X9224944Y-13606079D02*
X9234467Y-13587031D01*
X9234467Y-13587031D02*
X9243991Y-13577508D01*
X9243991Y-13577508D02*
X9263039Y-13567984D01*
X9415420Y-13767984D02*
X9415420Y-13634650D01*
X9415420Y-13653698D02*
X9424944Y-13644174D01*
X9424944Y-13644174D02*
X9443991Y-13634650D01*
X9443991Y-13634650D02*
X9472563Y-13634650D01*
X9472563Y-13634650D02*
X9491610Y-13644174D01*
X9491610Y-13644174D02*
X9501134Y-13663222D01*
X9501134Y-13663222D02*
X9501134Y-13767984D01*
X9501134Y-13663222D02*
X9510658Y-13644174D01*
X9510658Y-13644174D02*
X9529705Y-13634650D01*
X9529705Y-13634650D02*
X9558277Y-13634650D01*
X9558277Y-13634650D02*
X9577325Y-13644174D01*
X9577325Y-13644174D02*
X9586848Y-13663222D01*
X9586848Y-13663222D02*
X9586848Y-13767984D01*
X9682086Y-13767984D02*
X9682086Y-13634650D01*
X9682086Y-13653698D02*
X9691610Y-13644174D01*
X9691610Y-13644174D02*
X9710658Y-13634650D01*
X9710658Y-13634650D02*
X9739229Y-13634650D01*
X9739229Y-13634650D02*
X9758277Y-13644174D01*
X9758277Y-13644174D02*
X9767801Y-13663222D01*
X9767801Y-13663222D02*
X9767801Y-13767984D01*
X9767801Y-13663222D02*
X9777325Y-13644174D01*
X9777325Y-13644174D02*
X9796372Y-13634650D01*
X9796372Y-13634650D02*
X9824944Y-13634650D01*
X9824944Y-13634650D02*
X9843991Y-13644174D01*
X9843991Y-13644174D02*
X9853515Y-13663222D01*
X9853515Y-13663222D02*
X9853515Y-13767984D01*
X10243991Y-13558460D02*
X10072563Y-13815603D01*
X10501134Y-13567984D02*
X10520182Y-13567984D01*
X10520182Y-13567984D02*
X10539229Y-13577508D01*
X10539229Y-13577508D02*
X10548753Y-13587031D01*
X10548753Y-13587031D02*
X10558277Y-13606079D01*
X10558277Y-13606079D02*
X10567801Y-13644174D01*
X10567801Y-13644174D02*
X10567801Y-13691793D01*
X10567801Y-13691793D02*
X10558277Y-13729888D01*
X10558277Y-13729888D02*
X10548753Y-13748936D01*
X10548753Y-13748936D02*
X10539229Y-13758460D01*
X10539229Y-13758460D02*
X10520182Y-13767984D01*
X10520182Y-13767984D02*
X10501134Y-13767984D01*
X10501134Y-13767984D02*
X10482087Y-13758460D01*
X10482087Y-13758460D02*
X10472563Y-13748936D01*
X10472563Y-13748936D02*
X10463039Y-13729888D01*
X10463039Y-13729888D02*
X10453515Y-13691793D01*
X10453515Y-13691793D02*
X10453515Y-13644174D01*
X10453515Y-13644174D02*
X10463039Y-13606079D01*
X10463039Y-13606079D02*
X10472563Y-13587031D01*
X10472563Y-13587031D02*
X10482087Y-13577508D01*
X10482087Y-13577508D02*
X10501134Y-13567984D01*
X10653515Y-13748936D02*
X10663039Y-13758460D01*
X10663039Y-13758460D02*
X10653515Y-13767984D01*
X10653515Y-13767984D02*
X10643991Y-13758460D01*
X10643991Y-13758460D02*
X10653515Y-13748936D01*
X10653515Y-13748936D02*
X10653515Y-13767984D01*
X10853515Y-13767984D02*
X10739229Y-13767984D01*
X10796372Y-13767984D02*
X10796372Y-13567984D01*
X10796372Y-13567984D02*
X10777325Y-13596555D01*
X10777325Y-13596555D02*
X10758277Y-13615603D01*
X10758277Y-13615603D02*
X10739229Y-13625127D01*
X10929706Y-13587031D02*
X10939229Y-13577508D01*
X10939229Y-13577508D02*
X10958277Y-13567984D01*
X10958277Y-13567984D02*
X11005896Y-13567984D01*
X11005896Y-13567984D02*
X11024944Y-13577508D01*
X11024944Y-13577508D02*
X11034468Y-13587031D01*
X11034468Y-13587031D02*
X11043991Y-13606079D01*
X11043991Y-13606079D02*
X11043991Y-13625127D01*
X11043991Y-13625127D02*
X11034468Y-13653698D01*
X11034468Y-13653698D02*
X10920182Y-13767984D01*
X10920182Y-13767984D02*
X11043991Y-13767984D01*
X11215420Y-13567984D02*
X11177325Y-13567984D01*
X11177325Y-13567984D02*
X11158277Y-13577508D01*
X11158277Y-13577508D02*
X11148753Y-13587031D01*
X11148753Y-13587031D02*
X11129706Y-13615603D01*
X11129706Y-13615603D02*
X11120182Y-13653698D01*
X11120182Y-13653698D02*
X11120182Y-13729888D01*
X11120182Y-13729888D02*
X11129706Y-13748936D01*
X11129706Y-13748936D02*
X11139229Y-13758460D01*
X11139229Y-13758460D02*
X11158277Y-13767984D01*
X11158277Y-13767984D02*
X11196372Y-13767984D01*
X11196372Y-13767984D02*
X11215420Y-13758460D01*
X11215420Y-13758460D02*
X11224944Y-13748936D01*
X11224944Y-13748936D02*
X11234467Y-13729888D01*
X11234467Y-13729888D02*
X11234467Y-13682269D01*
X11234467Y-13682269D02*
X11224944Y-13663222D01*
X11224944Y-13663222D02*
X11215420Y-13653698D01*
X11215420Y-13653698D02*
X11196372Y-13644174D01*
X11196372Y-13644174D02*
X11158277Y-13644174D01*
X11158277Y-13644174D02*
X11139229Y-13653698D01*
X11139229Y-13653698D02*
X11129706Y-13663222D01*
X11129706Y-13663222D02*
X11120182Y-13682269D01*
X11358277Y-13567984D02*
X11377325Y-13567984D01*
X11377325Y-13567984D02*
X11396372Y-13577508D01*
X11396372Y-13577508D02*
X11405896Y-13587031D01*
X11405896Y-13587031D02*
X11415420Y-13606079D01*
X11415420Y-13606079D02*
X11424944Y-13644174D01*
X11424944Y-13644174D02*
X11424944Y-13691793D01*
X11424944Y-13691793D02*
X11415420Y-13729888D01*
X11415420Y-13729888D02*
X11405896Y-13748936D01*
X11405896Y-13748936D02*
X11396372Y-13758460D01*
X11396372Y-13758460D02*
X11377325Y-13767984D01*
X11377325Y-13767984D02*
X11358277Y-13767984D01*
X11358277Y-13767984D02*
X11339229Y-13758460D01*
X11339229Y-13758460D02*
X11329706Y-13748936D01*
X11329706Y-13748936D02*
X11320182Y-13729888D01*
X11320182Y-13729888D02*
X11310658Y-13691793D01*
X11310658Y-13691793D02*
X11310658Y-13644174D01*
X11310658Y-13644174D02*
X11320182Y-13606079D01*
X11320182Y-13606079D02*
X11329706Y-13587031D01*
X11329706Y-13587031D02*
X11339229Y-13577508D01*
X11339229Y-13577508D02*
X11358277Y-13567984D01*
X11501134Y-13567984D02*
X11501134Y-13606079D01*
X11577325Y-13567984D02*
X11577325Y-13606079D01*
X11872563Y-13844174D02*
X11863039Y-13834650D01*
X11863039Y-13834650D02*
X11843991Y-13806079D01*
X11843991Y-13806079D02*
X11834468Y-13787031D01*
X11834468Y-13787031D02*
X11824944Y-13758460D01*
X11824944Y-13758460D02*
X11815420Y-13710841D01*
X11815420Y-13710841D02*
X11815420Y-13672746D01*
X11815420Y-13672746D02*
X11824944Y-13625127D01*
X11824944Y-13625127D02*
X11834468Y-13596555D01*
X11834468Y-13596555D02*
X11843991Y-13577508D01*
X11843991Y-13577508D02*
X11863039Y-13548936D01*
X11863039Y-13548936D02*
X11872563Y-13539412D01*
X12034468Y-13634650D02*
X12034468Y-13767984D01*
X11986848Y-13558460D02*
X11939229Y-13701317D01*
X11939229Y-13701317D02*
X12063039Y-13701317D01*
X12291610Y-13767984D02*
X12291610Y-13567984D01*
X12377325Y-13767984D02*
X12377325Y-13663222D01*
X12377325Y-13663222D02*
X12367801Y-13644174D01*
X12367801Y-13644174D02*
X12348753Y-13634650D01*
X12348753Y-13634650D02*
X12320182Y-13634650D01*
X12320182Y-13634650D02*
X12301134Y-13644174D01*
X12301134Y-13644174D02*
X12291610Y-13653698D01*
X12501134Y-13767984D02*
X12482087Y-13758460D01*
X12482087Y-13758460D02*
X12472563Y-13748936D01*
X12472563Y-13748936D02*
X12463039Y-13729888D01*
X12463039Y-13729888D02*
X12463039Y-13672746D01*
X12463039Y-13672746D02*
X12472563Y-13653698D01*
X12472563Y-13653698D02*
X12482087Y-13644174D01*
X12482087Y-13644174D02*
X12501134Y-13634650D01*
X12501134Y-13634650D02*
X12529706Y-13634650D01*
X12529706Y-13634650D02*
X12548753Y-13644174D01*
X12548753Y-13644174D02*
X12558277Y-13653698D01*
X12558277Y-13653698D02*
X12567801Y-13672746D01*
X12567801Y-13672746D02*
X12567801Y-13729888D01*
X12567801Y-13729888D02*
X12558277Y-13748936D01*
X12558277Y-13748936D02*
X12548753Y-13758460D01*
X12548753Y-13758460D02*
X12529706Y-13767984D01*
X12529706Y-13767984D02*
X12501134Y-13767984D01*
X12682087Y-13767984D02*
X12663039Y-13758460D01*
X12663039Y-13758460D02*
X12653515Y-13739412D01*
X12653515Y-13739412D02*
X12653515Y-13567984D01*
X12834468Y-13758460D02*
X12815420Y-13767984D01*
X12815420Y-13767984D02*
X12777325Y-13767984D01*
X12777325Y-13767984D02*
X12758277Y-13758460D01*
X12758277Y-13758460D02*
X12748753Y-13739412D01*
X12748753Y-13739412D02*
X12748753Y-13663222D01*
X12748753Y-13663222D02*
X12758277Y-13644174D01*
X12758277Y-13644174D02*
X12777325Y-13634650D01*
X12777325Y-13634650D02*
X12815420Y-13634650D01*
X12815420Y-13634650D02*
X12834468Y-13644174D01*
X12834468Y-13644174D02*
X12843991Y-13663222D01*
X12843991Y-13663222D02*
X12843991Y-13682269D01*
X12843991Y-13682269D02*
X12748753Y-13701317D01*
X12920182Y-13758460D02*
X12939230Y-13767984D01*
X12939230Y-13767984D02*
X12977325Y-13767984D01*
X12977325Y-13767984D02*
X12996372Y-13758460D01*
X12996372Y-13758460D02*
X13005896Y-13739412D01*
X13005896Y-13739412D02*
X13005896Y-13729888D01*
X13005896Y-13729888D02*
X12996372Y-13710841D01*
X12996372Y-13710841D02*
X12977325Y-13701317D01*
X12977325Y-13701317D02*
X12948753Y-13701317D01*
X12948753Y-13701317D02*
X12929706Y-13691793D01*
X12929706Y-13691793D02*
X12920182Y-13672746D01*
X12920182Y-13672746D02*
X12920182Y-13663222D01*
X12920182Y-13663222D02*
X12929706Y-13644174D01*
X12929706Y-13644174D02*
X12948753Y-13634650D01*
X12948753Y-13634650D02*
X12977325Y-13634650D01*
X12977325Y-13634650D02*
X12996372Y-13644174D01*
X13072563Y-13844174D02*
X13082087Y-13834650D01*
X13082087Y-13834650D02*
X13101134Y-13806079D01*
X13101134Y-13806079D02*
X13110658Y-13787031D01*
X13110658Y-13787031D02*
X13120182Y-13758460D01*
X13120182Y-13758460D02*
X13129706Y-13710841D01*
X13129706Y-13710841D02*
X13129706Y-13672746D01*
X13129706Y-13672746D02*
X13120182Y-13625127D01*
X13120182Y-13625127D02*
X13110658Y-13596555D01*
X13110658Y-13596555D02*
X13101134Y-13577508D01*
X13101134Y-13577508D02*
X13082087Y-13548936D01*
X13082087Y-13548936D02*
X13072563Y-13539412D01*
X13434468Y-13844174D02*
X13424944Y-13834650D01*
X13424944Y-13834650D02*
X13405896Y-13806079D01*
X13405896Y-13806079D02*
X13396372Y-13787031D01*
X13396372Y-13787031D02*
X13386849Y-13758460D01*
X13386849Y-13758460D02*
X13377325Y-13710841D01*
X13377325Y-13710841D02*
X13377325Y-13672746D01*
X13377325Y-13672746D02*
X13386849Y-13625127D01*
X13386849Y-13625127D02*
X13396372Y-13596555D01*
X13396372Y-13596555D02*
X13405896Y-13577508D01*
X13405896Y-13577508D02*
X13424944Y-13548936D01*
X13424944Y-13548936D02*
X13434468Y-13539412D01*
X13510658Y-13634650D02*
X13510658Y-13767984D01*
X13510658Y-13653698D02*
X13520182Y-13644174D01*
X13520182Y-13644174D02*
X13539230Y-13634650D01*
X13539230Y-13634650D02*
X13567801Y-13634650D01*
X13567801Y-13634650D02*
X13586849Y-13644174D01*
X13586849Y-13644174D02*
X13596372Y-13663222D01*
X13596372Y-13663222D02*
X13596372Y-13767984D01*
X13720182Y-13767984D02*
X13701134Y-13758460D01*
X13701134Y-13758460D02*
X13691611Y-13748936D01*
X13691611Y-13748936D02*
X13682087Y-13729888D01*
X13682087Y-13729888D02*
X13682087Y-13672746D01*
X13682087Y-13672746D02*
X13691611Y-13653698D01*
X13691611Y-13653698D02*
X13701134Y-13644174D01*
X13701134Y-13644174D02*
X13720182Y-13634650D01*
X13720182Y-13634650D02*
X13748753Y-13634650D01*
X13748753Y-13634650D02*
X13767801Y-13644174D01*
X13767801Y-13644174D02*
X13777325Y-13653698D01*
X13777325Y-13653698D02*
X13786849Y-13672746D01*
X13786849Y-13672746D02*
X13786849Y-13729888D01*
X13786849Y-13729888D02*
X13777325Y-13748936D01*
X13777325Y-13748936D02*
X13767801Y-13758460D01*
X13767801Y-13758460D02*
X13748753Y-13767984D01*
X13748753Y-13767984D02*
X13720182Y-13767984D01*
X13843992Y-13634650D02*
X13920182Y-13634650D01*
X13872563Y-13567984D02*
X13872563Y-13739412D01*
X13872563Y-13739412D02*
X13882087Y-13758460D01*
X13882087Y-13758460D02*
X13901134Y-13767984D01*
X13901134Y-13767984D02*
X13920182Y-13767984D01*
X14139230Y-13634650D02*
X14139230Y-13834650D01*
X14139230Y-13644174D02*
X14158277Y-13634650D01*
X14158277Y-13634650D02*
X14196373Y-13634650D01*
X14196373Y-13634650D02*
X14215420Y-13644174D01*
X14215420Y-13644174D02*
X14224944Y-13653698D01*
X14224944Y-13653698D02*
X14234468Y-13672746D01*
X14234468Y-13672746D02*
X14234468Y-13729888D01*
X14234468Y-13729888D02*
X14224944Y-13748936D01*
X14224944Y-13748936D02*
X14215420Y-13758460D01*
X14215420Y-13758460D02*
X14196373Y-13767984D01*
X14196373Y-13767984D02*
X14158277Y-13767984D01*
X14158277Y-13767984D02*
X14139230Y-13758460D01*
X14348753Y-13767984D02*
X14329706Y-13758460D01*
X14329706Y-13758460D02*
X14320182Y-13739412D01*
X14320182Y-13739412D02*
X14320182Y-13567984D01*
X14510658Y-13767984D02*
X14510658Y-13663222D01*
X14510658Y-13663222D02*
X14501134Y-13644174D01*
X14501134Y-13644174D02*
X14482087Y-13634650D01*
X14482087Y-13634650D02*
X14443992Y-13634650D01*
X14443992Y-13634650D02*
X14424944Y-13644174D01*
X14510658Y-13758460D02*
X14491611Y-13767984D01*
X14491611Y-13767984D02*
X14443992Y-13767984D01*
X14443992Y-13767984D02*
X14424944Y-13758460D01*
X14424944Y-13758460D02*
X14415420Y-13739412D01*
X14415420Y-13739412D02*
X14415420Y-13720365D01*
X14415420Y-13720365D02*
X14424944Y-13701317D01*
X14424944Y-13701317D02*
X14443992Y-13691793D01*
X14443992Y-13691793D02*
X14491611Y-13691793D01*
X14491611Y-13691793D02*
X14510658Y-13682269D01*
X14577325Y-13634650D02*
X14653515Y-13634650D01*
X14605896Y-13567984D02*
X14605896Y-13739412D01*
X14605896Y-13739412D02*
X14615420Y-13758460D01*
X14615420Y-13758460D02*
X14634468Y-13767984D01*
X14634468Y-13767984D02*
X14653515Y-13767984D01*
X14796373Y-13758460D02*
X14777325Y-13767984D01*
X14777325Y-13767984D02*
X14739230Y-13767984D01*
X14739230Y-13767984D02*
X14720182Y-13758460D01*
X14720182Y-13758460D02*
X14710658Y-13739412D01*
X14710658Y-13739412D02*
X14710658Y-13663222D01*
X14710658Y-13663222D02*
X14720182Y-13644174D01*
X14720182Y-13644174D02*
X14739230Y-13634650D01*
X14739230Y-13634650D02*
X14777325Y-13634650D01*
X14777325Y-13634650D02*
X14796373Y-13644174D01*
X14796373Y-13644174D02*
X14805896Y-13663222D01*
X14805896Y-13663222D02*
X14805896Y-13682269D01*
X14805896Y-13682269D02*
X14710658Y-13701317D01*
X14977325Y-13767984D02*
X14977325Y-13567984D01*
X14977325Y-13758460D02*
X14958277Y-13767984D01*
X14958277Y-13767984D02*
X14920182Y-13767984D01*
X14920182Y-13767984D02*
X14901134Y-13758460D01*
X14901134Y-13758460D02*
X14891611Y-13748936D01*
X14891611Y-13748936D02*
X14882087Y-13729888D01*
X14882087Y-13729888D02*
X14882087Y-13672746D01*
X14882087Y-13672746D02*
X14891611Y-13653698D01*
X14891611Y-13653698D02*
X14901134Y-13644174D01*
X14901134Y-13644174D02*
X14920182Y-13634650D01*
X14920182Y-13634650D02*
X14958277Y-13634650D01*
X14958277Y-13634650D02*
X14977325Y-13644174D01*
X15053515Y-13844174D02*
X15063039Y-13834650D01*
X15063039Y-13834650D02*
X15082087Y-13806079D01*
X15082087Y-13806079D02*
X15091611Y-13787031D01*
X15091611Y-13787031D02*
X15101134Y-13758460D01*
X15101134Y-13758460D02*
X15110658Y-13710841D01*
X15110658Y-13710841D02*
X15110658Y-13672746D01*
X15110658Y-13672746D02*
X15101134Y-13625127D01*
X15101134Y-13625127D02*
X15091611Y-13596555D01*
X15091611Y-13596555D02*
X15082087Y-13577508D01*
X15082087Y-13577508D02*
X15063039Y-13548936D01*
X15063039Y-13548936D02*
X15053515Y-13539412D01*
M02*
