G04 #@! TF.GenerationSoftware,KiCad,Pcbnew,8.0.2*
G04 #@! TF.CreationDate,2025-01-25T00:12:53-07:00*
G04 #@! TF.ProjectId,SDM25_IMU_STM32,53444d32-355f-4494-9d55-5f53544d3332,rev?*
G04 #@! TF.SameCoordinates,Original*
G04 #@! TF.FileFunction,Copper,L2,Inr*
G04 #@! TF.FilePolarity,Positive*
%FSLAX46Y46*%
G04 Gerber Fmt 4.6, Leading zero omitted, Abs format (unit mm)*
G04 Created by KiCad (PCBNEW 8.0.2) date 2025-01-25 00:12:53*
%MOMM*%
%LPD*%
G01*
G04 APERTURE LIST*
G04 Aperture macros list*
%AMRoundRect*
0 Rectangle with rounded corners*
0 $1 Rounding radius*
0 $2 $3 $4 $5 $6 $7 $8 $9 X,Y pos of 4 corners*
0 Add a 4 corners polygon primitive as box body*
4,1,4,$2,$3,$4,$5,$6,$7,$8,$9,$2,$3,0*
0 Add four circle primitives for the rounded corners*
1,1,$1+$1,$2,$3*
1,1,$1+$1,$4,$5*
1,1,$1+$1,$6,$7*
1,1,$1+$1,$8,$9*
0 Add four rect primitives between the rounded corners*
20,1,$1+$1,$2,$3,$4,$5,0*
20,1,$1+$1,$4,$5,$6,$7,0*
20,1,$1+$1,$6,$7,$8,$9,0*
20,1,$1+$1,$8,$9,$2,$3,0*%
G04 Aperture macros list end*
G04 #@! TA.AperFunction,ComponentPad*
%ADD10O,1.200000X1.900000*%
G04 #@! TD*
G04 #@! TA.AperFunction,ComponentPad*
%ADD11C,1.450000*%
G04 #@! TD*
G04 #@! TA.AperFunction,ComponentPad*
%ADD12R,1.700000X1.700000*%
G04 #@! TD*
G04 #@! TA.AperFunction,ComponentPad*
%ADD13O,1.700000X1.700000*%
G04 #@! TD*
G04 #@! TA.AperFunction,ComponentPad*
%ADD14RoundRect,0.250000X0.600000X0.725000X-0.600000X0.725000X-0.600000X-0.725000X0.600000X-0.725000X0*%
G04 #@! TD*
G04 #@! TA.AperFunction,ComponentPad*
%ADD15O,1.700000X1.950000*%
G04 #@! TD*
G04 #@! TA.AperFunction,ViaPad*
%ADD16C,0.600000*%
G04 #@! TD*
G04 #@! TA.AperFunction,ViaPad*
%ADD17C,0.700000*%
G04 #@! TD*
G04 APERTURE END LIST*
D10*
X101100000Y-126237500D03*
D11*
X102100000Y-123537500D03*
X107100000Y-123537500D03*
D10*
X108100000Y-126237500D03*
D12*
X111375000Y-102000000D03*
D13*
X108835000Y-102000000D03*
D14*
X96200000Y-123850000D03*
D15*
X93700000Y-123850000D03*
X91200000Y-123850000D03*
X88700000Y-123850000D03*
D12*
X86225000Y-110175000D03*
D13*
X86225000Y-107635000D03*
D16*
X107500000Y-116100000D03*
X97250000Y-114116262D03*
X108300003Y-116100000D03*
X104200000Y-99450000D03*
X101900000Y-85100000D03*
X95000000Y-102000000D03*
X91000000Y-85000000D03*
X91150000Y-107850000D03*
X84250000Y-102750000D03*
X97000000Y-98000000D03*
X91700000Y-93100000D03*
X91000000Y-83500000D03*
X100550000Y-120150000D03*
X91000000Y-84250000D03*
X96000000Y-103000000D03*
X85000000Y-102750000D03*
D17*
X103800000Y-106600000D03*
X105968170Y-112575000D03*
D16*
X95150000Y-119550000D03*
X85000000Y-101950000D03*
X95000000Y-103000000D03*
X104950000Y-85050000D03*
X100000000Y-91950000D03*
X105900000Y-120100000D03*
X101500000Y-92650000D03*
X112750000Y-89650000D03*
X112000000Y-89650000D03*
D17*
X104868170Y-112575000D03*
D16*
X84250000Y-102000000D03*
X111250000Y-89650000D03*
X99850000Y-120150000D03*
X97000000Y-99000000D03*
X91750000Y-85000000D03*
X95700000Y-89420000D03*
X104600000Y-96800000D03*
X95000000Y-99000000D03*
D17*
X106600000Y-106600000D03*
X109868170Y-108975000D03*
D16*
X92400000Y-93100000D03*
X91750000Y-83450000D03*
X95150000Y-88850000D03*
X94450000Y-119550000D03*
X97000000Y-102000000D03*
X100750000Y-92650000D03*
X110700000Y-103800000D03*
X97000000Y-103000000D03*
X101500000Y-91950000D03*
X100750000Y-91950000D03*
D17*
X110700000Y-108975000D03*
D16*
X104900000Y-85900000D03*
X104950000Y-84250000D03*
X96000000Y-99000000D03*
X111250000Y-88950000D03*
X85000000Y-103500000D03*
X96000000Y-98000000D03*
X105900000Y-120850000D03*
X91750000Y-84250000D03*
X112560000Y-100240000D03*
X96000000Y-102000000D03*
X84250000Y-103500000D03*
X95000000Y-98000000D03*
X112750000Y-88950000D03*
X97275000Y-112975000D03*
X106900000Y-103100000D03*
X112000000Y-88950000D03*
X100000000Y-92650000D03*
X104600000Y-98590000D03*
X100350000Y-97100000D03*
X97000000Y-87300000D03*
X89000000Y-99000000D03*
X92100000Y-112000000D03*
X99000000Y-108394239D03*
X102150000Y-117525000D03*
X98450000Y-119100000D03*
X98450000Y-113750000D03*
X102150000Y-116825000D03*
X92050000Y-116700000D03*
X85500000Y-99000000D03*
X96390000Y-95660000D03*
X110930000Y-99740000D03*
X101150000Y-97750000D03*
X97000000Y-86300000D03*
G04 #@! TA.AperFunction,Conductor*
G36*
X111903032Y-81500648D02*
G01*
X112236929Y-81517052D01*
X112249037Y-81518245D01*
X112352146Y-81533539D01*
X112576699Y-81566849D01*
X112588617Y-81569219D01*
X112909951Y-81649709D01*
X112921588Y-81653240D01*
X112992806Y-81678722D01*
X113233467Y-81764832D01*
X113244688Y-81769479D01*
X113544163Y-81911120D01*
X113554871Y-81916844D01*
X113838988Y-82087137D01*
X113849106Y-82093897D01*
X114115170Y-82291224D01*
X114124576Y-82298944D01*
X114370013Y-82521395D01*
X114378604Y-82529986D01*
X114565755Y-82736475D01*
X114601055Y-82775423D01*
X114608775Y-82784829D01*
X114806102Y-83050893D01*
X114812862Y-83061011D01*
X114978149Y-83336777D01*
X114983148Y-83345116D01*
X114988883Y-83355844D01*
X115037229Y-83458064D01*
X115130514Y-83655297D01*
X115135170Y-83666540D01*
X115246759Y-83978411D01*
X115250292Y-83990055D01*
X115330777Y-84311369D01*
X115333151Y-84323305D01*
X115381754Y-84650962D01*
X115382947Y-84663071D01*
X115399351Y-84996966D01*
X115399500Y-85003051D01*
X115399500Y-123696948D01*
X115399351Y-123703033D01*
X115382947Y-124036928D01*
X115381754Y-124049037D01*
X115333151Y-124376694D01*
X115330777Y-124388630D01*
X115250292Y-124709944D01*
X115246759Y-124721588D01*
X115135170Y-125033459D01*
X115130514Y-125044702D01*
X114988885Y-125344151D01*
X114983148Y-125354883D01*
X114812862Y-125638988D01*
X114806102Y-125649106D01*
X114608775Y-125915170D01*
X114601055Y-125924576D01*
X114378611Y-126170006D01*
X114370006Y-126178611D01*
X114124576Y-126401055D01*
X114115170Y-126408775D01*
X113849106Y-126606102D01*
X113838988Y-126612862D01*
X113554883Y-126783148D01*
X113544151Y-126788885D01*
X113244702Y-126930514D01*
X113233459Y-126935170D01*
X112921588Y-127046759D01*
X112909944Y-127050292D01*
X112588630Y-127130777D01*
X112576694Y-127133151D01*
X112249037Y-127181754D01*
X112236928Y-127182947D01*
X111921989Y-127198419D01*
X111903031Y-127199351D01*
X111896949Y-127199500D01*
X109225640Y-127199500D01*
X109158601Y-127179815D01*
X109112846Y-127127011D01*
X109102902Y-127057853D01*
X109115155Y-127019206D01*
X109119870Y-127009950D01*
X109119873Y-127009945D01*
X109173402Y-126845201D01*
X109200500Y-126674111D01*
X109200500Y-125800889D01*
X109173402Y-125629799D01*
X109119873Y-125465055D01*
X109041232Y-125310712D01*
X108939414Y-125170572D01*
X108816928Y-125048086D01*
X108676788Y-124946268D01*
X108522445Y-124867627D01*
X108357701Y-124814098D01*
X108357699Y-124814097D01*
X108357698Y-124814097D01*
X108226271Y-124793281D01*
X108186611Y-124787000D01*
X108013389Y-124787000D01*
X107961760Y-124795177D01*
X107842303Y-124814097D01*
X107842300Y-124814097D01*
X107842299Y-124814098D01*
X107831197Y-124817705D01*
X107761358Y-124819699D01*
X107701526Y-124783617D01*
X107670699Y-124720916D01*
X107678665Y-124651501D01*
X107721757Y-124598200D01*
X107890745Y-124479873D01*
X108042373Y-124328245D01*
X108165368Y-124152591D01*
X108255992Y-123958247D01*
X108311492Y-123751119D01*
X108327511Y-123568017D01*
X108330181Y-123537501D01*
X108330181Y-123537498D01*
X108318918Y-123408760D01*
X108311492Y-123323881D01*
X108255992Y-123116753D01*
X108165368Y-122922410D01*
X108111311Y-122845209D01*
X108042376Y-122746759D01*
X108042371Y-122746753D01*
X107890745Y-122595127D01*
X107715090Y-122472131D01*
X107617919Y-122426820D01*
X107520747Y-122381508D01*
X107520743Y-122381507D01*
X107520739Y-122381505D01*
X107313624Y-122326009D01*
X107313620Y-122326008D01*
X107313619Y-122326008D01*
X107313618Y-122326007D01*
X107313613Y-122326007D01*
X107100002Y-122307319D01*
X107099998Y-122307319D01*
X106886386Y-122326007D01*
X106886375Y-122326009D01*
X106679260Y-122381505D01*
X106679251Y-122381509D01*
X106484910Y-122472131D01*
X106484908Y-122472132D01*
X106309259Y-122595123D01*
X106309253Y-122595128D01*
X106157628Y-122746753D01*
X106157623Y-122746759D01*
X106034632Y-122922408D01*
X106034631Y-122922410D01*
X105944009Y-123116751D01*
X105944005Y-123116760D01*
X105888509Y-123323875D01*
X105888507Y-123323886D01*
X105869819Y-123537498D01*
X105869819Y-123537501D01*
X105888507Y-123751113D01*
X105888509Y-123751124D01*
X105944005Y-123958239D01*
X105944007Y-123958243D01*
X105944008Y-123958247D01*
X105979026Y-124033343D01*
X106034631Y-124152590D01*
X106034632Y-124152591D01*
X106157627Y-124328245D01*
X106309255Y-124479873D01*
X106484909Y-124602868D01*
X106679253Y-124693492D01*
X106886381Y-124748992D01*
X107038966Y-124762341D01*
X107099998Y-124767681D01*
X107100000Y-124767681D01*
X107100002Y-124767681D01*
X107153404Y-124763008D01*
X107313619Y-124748992D01*
X107432726Y-124717077D01*
X107502573Y-124718740D01*
X107560435Y-124757902D01*
X107587940Y-124822130D01*
X107576354Y-124891032D01*
X107529356Y-124942733D01*
X107525088Y-124945117D01*
X107523218Y-124946263D01*
X107447608Y-125001197D01*
X107383072Y-125048086D01*
X107383070Y-125048088D01*
X107383069Y-125048088D01*
X107260588Y-125170569D01*
X107260588Y-125170570D01*
X107260586Y-125170572D01*
X107219912Y-125226555D01*
X107158768Y-125310711D01*
X107080128Y-125465052D01*
X107026597Y-125629802D01*
X106999500Y-125800889D01*
X106999500Y-126674110D01*
X107026597Y-126845197D01*
X107080129Y-127009950D01*
X107084845Y-127019206D01*
X107097741Y-127087875D01*
X107071464Y-127152615D01*
X107014358Y-127192872D01*
X106974360Y-127199500D01*
X102225640Y-127199500D01*
X102158601Y-127179815D01*
X102112846Y-127127011D01*
X102102902Y-127057853D01*
X102115155Y-127019206D01*
X102119870Y-127009950D01*
X102119873Y-127009945D01*
X102173402Y-126845201D01*
X102200500Y-126674111D01*
X102200500Y-125800889D01*
X102173402Y-125629799D01*
X102119873Y-125465055D01*
X102041232Y-125310712D01*
X101939414Y-125170572D01*
X101816928Y-125048086D01*
X101676788Y-124946268D01*
X101676787Y-124946267D01*
X101676781Y-124946263D01*
X101672636Y-124943723D01*
X101673521Y-124942277D01*
X101628077Y-124899338D01*
X101611297Y-124831513D01*
X101633850Y-124765383D01*
X101688575Y-124721944D01*
X101758097Y-124714988D01*
X101767256Y-124717072D01*
X101886381Y-124748992D01*
X102038966Y-124762341D01*
X102099998Y-124767681D01*
X102100000Y-124767681D01*
X102100002Y-124767681D01*
X102153404Y-124763008D01*
X102313619Y-124748992D01*
X102520747Y-124693492D01*
X102715091Y-124602868D01*
X102890745Y-124479873D01*
X103042373Y-124328245D01*
X103165368Y-124152591D01*
X103255992Y-123958247D01*
X103311492Y-123751119D01*
X103327511Y-123568017D01*
X103330181Y-123537501D01*
X103330181Y-123537498D01*
X103318918Y-123408760D01*
X103311492Y-123323881D01*
X103255992Y-123116753D01*
X103165368Y-122922410D01*
X103111311Y-122845209D01*
X103042376Y-122746759D01*
X103042371Y-122746753D01*
X102890745Y-122595127D01*
X102715090Y-122472131D01*
X102617919Y-122426820D01*
X102520747Y-122381508D01*
X102520743Y-122381507D01*
X102520739Y-122381505D01*
X102313624Y-122326009D01*
X102313620Y-122326008D01*
X102313619Y-122326008D01*
X102313618Y-122326007D01*
X102313613Y-122326007D01*
X102100002Y-122307319D01*
X102099998Y-122307319D01*
X101886386Y-122326007D01*
X101886375Y-122326009D01*
X101679260Y-122381505D01*
X101679251Y-122381509D01*
X101484910Y-122472131D01*
X101484908Y-122472132D01*
X101309259Y-122595123D01*
X101309253Y-122595128D01*
X101157628Y-122746753D01*
X101157623Y-122746759D01*
X101034632Y-122922408D01*
X101034631Y-122922410D01*
X100944009Y-123116751D01*
X100944005Y-123116760D01*
X100888509Y-123323875D01*
X100888507Y-123323886D01*
X100869819Y-123537498D01*
X100869819Y-123537501D01*
X100888507Y-123751113D01*
X100888509Y-123751124D01*
X100944005Y-123958239D01*
X100944007Y-123958243D01*
X100944008Y-123958247D01*
X100979026Y-124033343D01*
X101034631Y-124152590D01*
X101034632Y-124152591D01*
X101157627Y-124328245D01*
X101309255Y-124479873D01*
X101332954Y-124496467D01*
X101478240Y-124598198D01*
X101521865Y-124652775D01*
X101529057Y-124722274D01*
X101497535Y-124784629D01*
X101437305Y-124820042D01*
X101368799Y-124817704D01*
X101357701Y-124814098D01*
X101357699Y-124814097D01*
X101357698Y-124814097D01*
X101226271Y-124793281D01*
X101186611Y-124787000D01*
X101013389Y-124787000D01*
X100973728Y-124793281D01*
X100842302Y-124814097D01*
X100677552Y-124867628D01*
X100523211Y-124946268D01*
X100443256Y-125004359D01*
X100383072Y-125048086D01*
X100383070Y-125048088D01*
X100383069Y-125048088D01*
X100260588Y-125170569D01*
X100260588Y-125170570D01*
X100260586Y-125170572D01*
X100219912Y-125226555D01*
X100158768Y-125310711D01*
X100080128Y-125465052D01*
X100026597Y-125629802D01*
X99999500Y-125800889D01*
X99999500Y-126674110D01*
X100026597Y-126845197D01*
X100080129Y-127009950D01*
X100084845Y-127019206D01*
X100097741Y-127087875D01*
X100071464Y-127152615D01*
X100014358Y-127192872D01*
X99974360Y-127199500D01*
X87003051Y-127199500D01*
X86996968Y-127199351D01*
X86976900Y-127198365D01*
X86663071Y-127182947D01*
X86650962Y-127181754D01*
X86323305Y-127133151D01*
X86311369Y-127130777D01*
X85990055Y-127050292D01*
X85978411Y-127046759D01*
X85666540Y-126935170D01*
X85655301Y-126930515D01*
X85355844Y-126788883D01*
X85345121Y-126783150D01*
X85061011Y-126612862D01*
X85050893Y-126606102D01*
X84784829Y-126408775D01*
X84775423Y-126401055D01*
X84736475Y-126365755D01*
X84529986Y-126178604D01*
X84521395Y-126170013D01*
X84298944Y-125924576D01*
X84291224Y-125915170D01*
X84093897Y-125649106D01*
X84087137Y-125638988D01*
X84081631Y-125629802D01*
X83916844Y-125354871D01*
X83911120Y-125344163D01*
X83769479Y-125044688D01*
X83764829Y-125033459D01*
X83754685Y-125005109D01*
X83687631Y-124817704D01*
X83653240Y-124721588D01*
X83649707Y-124709944D01*
X83569219Y-124388617D01*
X83566848Y-124376694D01*
X83559661Y-124328245D01*
X83518245Y-124049037D01*
X83517052Y-124036927D01*
X83500649Y-123703032D01*
X83500500Y-123696948D01*
X83500500Y-123618713D01*
X87349500Y-123618713D01*
X87349500Y-124081287D01*
X87382754Y-124291243D01*
X87412476Y-124382719D01*
X87448444Y-124493414D01*
X87544951Y-124682820D01*
X87669890Y-124854786D01*
X87820213Y-125005109D01*
X87992179Y-125130048D01*
X87992181Y-125130049D01*
X87992184Y-125130051D01*
X88181588Y-125226557D01*
X88383757Y-125292246D01*
X88593713Y-125325500D01*
X88593714Y-125325500D01*
X88806286Y-125325500D01*
X88806287Y-125325500D01*
X89016243Y-125292246D01*
X89218412Y-125226557D01*
X89407816Y-125130051D01*
X89429789Y-125114086D01*
X89579786Y-125005109D01*
X89579788Y-125005106D01*
X89579792Y-125005104D01*
X89730104Y-124854792D01*
X89849683Y-124690204D01*
X89905011Y-124647540D01*
X89974624Y-124641561D01*
X90036420Y-124674166D01*
X90050313Y-124690199D01*
X90142950Y-124817704D01*
X90169896Y-124854792D01*
X90320213Y-125005109D01*
X90492179Y-125130048D01*
X90492181Y-125130049D01*
X90492184Y-125130051D01*
X90681588Y-125226557D01*
X90883757Y-125292246D01*
X91093713Y-125325500D01*
X91093714Y-125325500D01*
X91306286Y-125325500D01*
X91306287Y-125325500D01*
X91516243Y-125292246D01*
X91718412Y-125226557D01*
X91907816Y-125130051D01*
X91929789Y-125114086D01*
X92079786Y-125005109D01*
X92079788Y-125005106D01*
X92079792Y-125005104D01*
X92230104Y-124854792D01*
X92349683Y-124690204D01*
X92405011Y-124647540D01*
X92474624Y-124641561D01*
X92536420Y-124674166D01*
X92550313Y-124690199D01*
X92642950Y-124817704D01*
X92669896Y-124854792D01*
X92820213Y-125005109D01*
X92992179Y-125130048D01*
X92992181Y-125130049D01*
X92992184Y-125130051D01*
X93181588Y-125226557D01*
X93383757Y-125292246D01*
X93593713Y-125325500D01*
X93593714Y-125325500D01*
X93806286Y-125325500D01*
X93806287Y-125325500D01*
X94016243Y-125292246D01*
X94218412Y-125226557D01*
X94407816Y-125130051D01*
X94525290Y-125044702D01*
X94579784Y-125005110D01*
X94579784Y-125005109D01*
X94579792Y-125005104D01*
X94718967Y-124865928D01*
X94780286Y-124832446D01*
X94849978Y-124837430D01*
X94905912Y-124879301D01*
X94912184Y-124888515D01*
X95007684Y-125043345D01*
X95131654Y-125167315D01*
X95280875Y-125259356D01*
X95280880Y-125259358D01*
X95447302Y-125314505D01*
X95447309Y-125314506D01*
X95550019Y-125324999D01*
X95949999Y-125324999D01*
X95950000Y-125324998D01*
X95950000Y-124254145D01*
X96016657Y-124292630D01*
X96137465Y-124325000D01*
X96262535Y-124325000D01*
X96383343Y-124292630D01*
X96450000Y-124254145D01*
X96450000Y-125324999D01*
X96849972Y-125324999D01*
X96849986Y-125324998D01*
X96952697Y-125314505D01*
X97119119Y-125259358D01*
X97119124Y-125259356D01*
X97268345Y-125167315D01*
X97392315Y-125043345D01*
X97484356Y-124894124D01*
X97484358Y-124894119D01*
X97539505Y-124727697D01*
X97539506Y-124727690D01*
X97549999Y-124624986D01*
X97550000Y-124624973D01*
X97550000Y-124100000D01*
X96604146Y-124100000D01*
X96642630Y-124033343D01*
X96675000Y-123912535D01*
X96675000Y-123787465D01*
X96642630Y-123666657D01*
X96604146Y-123600000D01*
X97549999Y-123600000D01*
X97549999Y-123075028D01*
X97549998Y-123075013D01*
X97539505Y-122972302D01*
X97484358Y-122805880D01*
X97484356Y-122805875D01*
X97392315Y-122656654D01*
X97268345Y-122532684D01*
X97119124Y-122440643D01*
X97119119Y-122440641D01*
X96952697Y-122385494D01*
X96952690Y-122385493D01*
X96849986Y-122375000D01*
X96450000Y-122375000D01*
X96450000Y-123445854D01*
X96383343Y-123407370D01*
X96262535Y-123375000D01*
X96137465Y-123375000D01*
X96016657Y-123407370D01*
X95950000Y-123445854D01*
X95950000Y-122375000D01*
X95550028Y-122375000D01*
X95550012Y-122375001D01*
X95447302Y-122385494D01*
X95280880Y-122440641D01*
X95280875Y-122440643D01*
X95131654Y-122532684D01*
X95007683Y-122656655D01*
X95007680Y-122656659D01*
X94912183Y-122811484D01*
X94860235Y-122858209D01*
X94791273Y-122869430D01*
X94727191Y-122841587D01*
X94718964Y-122834068D01*
X94579786Y-122694890D01*
X94407820Y-122569951D01*
X94218414Y-122473444D01*
X94218413Y-122473443D01*
X94218412Y-122473443D01*
X94016243Y-122407754D01*
X94016241Y-122407753D01*
X94016240Y-122407753D01*
X93850533Y-122381508D01*
X93806287Y-122374500D01*
X93593713Y-122374500D01*
X93549467Y-122381508D01*
X93383760Y-122407753D01*
X93181585Y-122473444D01*
X92992179Y-122569951D01*
X92820213Y-122694890D01*
X92669894Y-122845209D01*
X92669890Y-122845214D01*
X92550318Y-123009793D01*
X92494989Y-123052459D01*
X92425375Y-123058438D01*
X92363580Y-123025833D01*
X92349682Y-123009793D01*
X92230109Y-122845214D01*
X92230105Y-122845209D01*
X92079786Y-122694890D01*
X91907820Y-122569951D01*
X91718414Y-122473444D01*
X91718413Y-122473443D01*
X91718412Y-122473443D01*
X91516243Y-122407754D01*
X91516241Y-122407753D01*
X91516240Y-122407753D01*
X91350533Y-122381508D01*
X91306287Y-122374500D01*
X91093713Y-122374500D01*
X91049467Y-122381508D01*
X90883760Y-122407753D01*
X90681585Y-122473444D01*
X90492179Y-122569951D01*
X90320213Y-122694890D01*
X90169894Y-122845209D01*
X90169890Y-122845214D01*
X90050318Y-123009793D01*
X89994989Y-123052459D01*
X89925375Y-123058438D01*
X89863580Y-123025833D01*
X89849682Y-123009793D01*
X89730109Y-122845214D01*
X89730105Y-122845209D01*
X89579786Y-122694890D01*
X89407820Y-122569951D01*
X89218414Y-122473444D01*
X89218413Y-122473443D01*
X89218412Y-122473443D01*
X89016243Y-122407754D01*
X89016241Y-122407753D01*
X89016240Y-122407753D01*
X88850533Y-122381508D01*
X88806287Y-122374500D01*
X88593713Y-122374500D01*
X88549467Y-122381508D01*
X88383760Y-122407753D01*
X88181585Y-122473444D01*
X87992179Y-122569951D01*
X87820213Y-122694890D01*
X87669890Y-122845213D01*
X87544951Y-123017179D01*
X87448444Y-123206585D01*
X87382753Y-123408760D01*
X87373069Y-123469905D01*
X87349500Y-123618713D01*
X83500500Y-123618713D01*
X83500500Y-119099996D01*
X97644435Y-119099996D01*
X97644435Y-119100003D01*
X97664630Y-119279249D01*
X97664631Y-119279254D01*
X97724211Y-119449523D01*
X97820184Y-119602262D01*
X97947738Y-119729816D01*
X98100478Y-119825789D01*
X98270745Y-119885368D01*
X98270750Y-119885369D01*
X98449996Y-119905565D01*
X98450000Y-119905565D01*
X98450004Y-119905565D01*
X98629249Y-119885369D01*
X98629252Y-119885368D01*
X98629255Y-119885368D01*
X98799522Y-119825789D01*
X98952262Y-119729816D01*
X99079816Y-119602262D01*
X99175789Y-119449522D01*
X99235368Y-119279255D01*
X99255565Y-119100000D01*
X99235368Y-118920745D01*
X99175789Y-118750478D01*
X99079816Y-118597738D01*
X98952262Y-118470184D01*
X98799523Y-118374211D01*
X98629254Y-118314631D01*
X98629249Y-118314630D01*
X98450004Y-118294435D01*
X98449996Y-118294435D01*
X98270750Y-118314630D01*
X98270745Y-118314631D01*
X98100476Y-118374211D01*
X97947737Y-118470184D01*
X97820184Y-118597737D01*
X97724211Y-118750476D01*
X97664631Y-118920745D01*
X97664630Y-118920750D01*
X97644435Y-119099996D01*
X83500500Y-119099996D01*
X83500500Y-116378711D01*
X85149500Y-116378711D01*
X85149500Y-116621288D01*
X85176422Y-116825789D01*
X85181162Y-116861789D01*
X85187480Y-116885368D01*
X85243947Y-117096104D01*
X85288567Y-117203825D01*
X85336776Y-117320212D01*
X85458064Y-117530289D01*
X85458066Y-117530292D01*
X85458067Y-117530293D01*
X85605733Y-117722736D01*
X85605739Y-117722743D01*
X85777256Y-117894260D01*
X85777262Y-117894265D01*
X85969711Y-118041936D01*
X86179788Y-118163224D01*
X86403900Y-118256054D01*
X86638211Y-118318838D01*
X86818586Y-118342584D01*
X86878711Y-118350500D01*
X86878712Y-118350500D01*
X87121289Y-118350500D01*
X87169388Y-118344167D01*
X87361789Y-118318838D01*
X87596100Y-118256054D01*
X87820212Y-118163224D01*
X88030289Y-118041936D01*
X88222738Y-117894265D01*
X88394265Y-117722738D01*
X88541936Y-117530289D01*
X88663224Y-117320212D01*
X88756054Y-117096100D01*
X88818838Y-116861789D01*
X88840138Y-116699996D01*
X91244435Y-116699996D01*
X91244435Y-116700003D01*
X91264630Y-116879249D01*
X91264631Y-116879254D01*
X91324211Y-117049523D01*
X91353480Y-117096104D01*
X91420184Y-117202262D01*
X91547738Y-117329816D01*
X91700478Y-117425789D01*
X91870745Y-117485368D01*
X91870750Y-117485369D01*
X92049996Y-117505565D01*
X92050000Y-117505565D01*
X92050004Y-117505565D01*
X92229249Y-117485369D01*
X92229252Y-117485368D01*
X92229255Y-117485368D01*
X92399522Y-117425789D01*
X92552262Y-117329816D01*
X92679816Y-117202262D01*
X92775789Y-117049522D01*
X92835368Y-116879255D01*
X92837336Y-116861789D01*
X92841482Y-116824996D01*
X101344435Y-116824996D01*
X101344435Y-116825003D01*
X101364630Y-117004249D01*
X101364632Y-117004257D01*
X101410047Y-117134046D01*
X101413608Y-117203825D01*
X101410047Y-117215954D01*
X101364632Y-117345742D01*
X101364630Y-117345750D01*
X101344435Y-117524996D01*
X101344435Y-117525003D01*
X101364630Y-117704249D01*
X101364631Y-117704254D01*
X101424211Y-117874523D01*
X101520184Y-118027262D01*
X101647738Y-118154816D01*
X101800478Y-118250789D01*
X101815525Y-118256054D01*
X101970745Y-118310368D01*
X101970750Y-118310369D01*
X102149996Y-118330565D01*
X102150000Y-118330565D01*
X102150004Y-118330565D01*
X102329249Y-118310369D01*
X102329252Y-118310368D01*
X102329255Y-118310368D01*
X102499522Y-118250789D01*
X102652262Y-118154816D01*
X102779816Y-118027262D01*
X102875789Y-117874522D01*
X102935368Y-117704255D01*
X102955565Y-117525000D01*
X102953375Y-117505565D01*
X102935369Y-117345750D01*
X102935366Y-117345737D01*
X102889953Y-117215955D01*
X102886391Y-117146176D01*
X102889953Y-117134045D01*
X102935366Y-117004262D01*
X102935369Y-117004249D01*
X102955565Y-116825003D01*
X102955565Y-116824996D01*
X102935369Y-116645750D01*
X102935368Y-116645745D01*
X102891630Y-116520750D01*
X102875789Y-116475478D01*
X102859480Y-116449523D01*
X102779815Y-116322737D01*
X102652262Y-116195184D01*
X102500772Y-116099996D01*
X106694435Y-116099996D01*
X106694435Y-116100003D01*
X106714630Y-116279249D01*
X106714631Y-116279254D01*
X106774211Y-116449523D01*
X106870184Y-116602262D01*
X106997738Y-116729816D01*
X107088080Y-116786582D01*
X107146817Y-116823489D01*
X107150478Y-116825789D01*
X107253349Y-116861785D01*
X107320745Y-116885368D01*
X107320750Y-116885369D01*
X107499996Y-116905565D01*
X107500000Y-116905565D01*
X107500004Y-116905565D01*
X107679249Y-116885369D01*
X107679251Y-116885368D01*
X107679255Y-116885368D01*
X107679258Y-116885366D01*
X107679262Y-116885366D01*
X107856095Y-116823489D01*
X107856846Y-116825637D01*
X107915128Y-116816035D01*
X107943592Y-116824391D01*
X107943908Y-116823489D01*
X108120748Y-116885368D01*
X108120753Y-116885369D01*
X108299999Y-116905565D01*
X108300003Y-116905565D01*
X108300007Y-116905565D01*
X108479252Y-116885369D01*
X108479255Y-116885368D01*
X108479258Y-116885368D01*
X108649525Y-116825789D01*
X108802265Y-116729816D01*
X108929819Y-116602262D01*
X109025792Y-116449522D01*
X109050570Y-116378711D01*
X110149500Y-116378711D01*
X110149500Y-116621288D01*
X110176422Y-116825789D01*
X110181162Y-116861789D01*
X110187480Y-116885368D01*
X110243947Y-117096104D01*
X110288567Y-117203825D01*
X110336776Y-117320212D01*
X110458064Y-117530289D01*
X110458066Y-117530292D01*
X110458067Y-117530293D01*
X110605733Y-117722736D01*
X110605739Y-117722743D01*
X110777256Y-117894260D01*
X110777262Y-117894265D01*
X110969711Y-118041936D01*
X111179788Y-118163224D01*
X111403900Y-118256054D01*
X111638211Y-118318838D01*
X111818586Y-118342584D01*
X111878711Y-118350500D01*
X111878712Y-118350500D01*
X112121289Y-118350500D01*
X112169388Y-118344167D01*
X112361789Y-118318838D01*
X112596100Y-118256054D01*
X112820212Y-118163224D01*
X113030289Y-118041936D01*
X113222738Y-117894265D01*
X113394265Y-117722738D01*
X113541936Y-117530289D01*
X113663224Y-117320212D01*
X113756054Y-117096100D01*
X113818838Y-116861789D01*
X113850500Y-116621288D01*
X113850500Y-116378712D01*
X113818838Y-116138211D01*
X113756054Y-115903900D01*
X113752133Y-115894435D01*
X113744195Y-115875269D01*
X113663224Y-115679788D01*
X113541936Y-115469711D01*
X113422939Y-115314631D01*
X113394266Y-115277263D01*
X113394260Y-115277256D01*
X113222743Y-115105739D01*
X113222736Y-115105733D01*
X113030293Y-114958067D01*
X113030292Y-114958066D01*
X113030289Y-114958064D01*
X112820212Y-114836776D01*
X112820205Y-114836773D01*
X112596104Y-114743947D01*
X112361785Y-114681161D01*
X112121289Y-114649500D01*
X112121288Y-114649500D01*
X111878712Y-114649500D01*
X111878711Y-114649500D01*
X111638214Y-114681161D01*
X111403895Y-114743947D01*
X111179794Y-114836773D01*
X111179785Y-114836777D01*
X110969706Y-114958067D01*
X110777263Y-115105733D01*
X110777256Y-115105739D01*
X110605739Y-115277256D01*
X110605733Y-115277263D01*
X110458067Y-115469706D01*
X110336777Y-115679785D01*
X110336773Y-115679794D01*
X110243947Y-115903895D01*
X110181161Y-116138214D01*
X110149500Y-116378711D01*
X109050570Y-116378711D01*
X109085371Y-116279255D01*
X109094556Y-116197737D01*
X109105568Y-116100003D01*
X109105568Y-116099996D01*
X109085372Y-115920750D01*
X109085371Y-115920745D01*
X109025791Y-115750476D01*
X108929818Y-115597737D01*
X108802265Y-115470184D01*
X108649526Y-115374211D01*
X108479257Y-115314631D01*
X108479252Y-115314630D01*
X108300007Y-115294435D01*
X108299999Y-115294435D01*
X108120753Y-115314630D01*
X108120740Y-115314633D01*
X107943909Y-115376510D01*
X107943160Y-115374369D01*
X107884824Y-115383958D01*
X107856408Y-115375611D01*
X107856094Y-115376510D01*
X107679262Y-115314633D01*
X107679249Y-115314630D01*
X107500004Y-115294435D01*
X107499996Y-115294435D01*
X107320750Y-115314630D01*
X107320745Y-115314631D01*
X107150476Y-115374211D01*
X106997737Y-115470184D01*
X106870184Y-115597737D01*
X106774211Y-115750476D01*
X106714631Y-115920745D01*
X106714630Y-115920750D01*
X106694435Y-116099996D01*
X102500772Y-116099996D01*
X102499523Y-116099211D01*
X102329254Y-116039631D01*
X102329249Y-116039630D01*
X102150004Y-116019435D01*
X102149996Y-116019435D01*
X101970750Y-116039630D01*
X101970745Y-116039631D01*
X101800476Y-116099211D01*
X101647737Y-116195184D01*
X101520184Y-116322737D01*
X101424211Y-116475476D01*
X101364631Y-116645745D01*
X101364630Y-116645750D01*
X101344435Y-116824996D01*
X92841482Y-116824996D01*
X92855565Y-116700003D01*
X92855565Y-116699996D01*
X92835369Y-116520750D01*
X92835368Y-116520745D01*
X92810446Y-116449522D01*
X92775789Y-116350478D01*
X92679816Y-116197738D01*
X92552262Y-116070184D01*
X92503639Y-116039632D01*
X92399523Y-115974211D01*
X92229254Y-115914631D01*
X92229249Y-115914630D01*
X92050004Y-115894435D01*
X92049996Y-115894435D01*
X91870750Y-115914630D01*
X91870745Y-115914631D01*
X91700476Y-115974211D01*
X91547737Y-116070184D01*
X91420184Y-116197737D01*
X91324211Y-116350476D01*
X91264631Y-116520745D01*
X91264630Y-116520750D01*
X91244435Y-116699996D01*
X88840138Y-116699996D01*
X88850500Y-116621288D01*
X88850500Y-116378712D01*
X88818838Y-116138211D01*
X88756054Y-115903900D01*
X88752133Y-115894435D01*
X88744195Y-115875269D01*
X88663224Y-115679788D01*
X88541936Y-115469711D01*
X88422939Y-115314631D01*
X88394266Y-115277263D01*
X88394260Y-115277256D01*
X88222743Y-115105739D01*
X88222736Y-115105733D01*
X88030293Y-114958067D01*
X88030292Y-114958066D01*
X88030289Y-114958064D01*
X87820212Y-114836776D01*
X87820205Y-114836773D01*
X87596104Y-114743947D01*
X87361785Y-114681161D01*
X87121289Y-114649500D01*
X87121288Y-114649500D01*
X86878712Y-114649500D01*
X86878711Y-114649500D01*
X86638214Y-114681161D01*
X86403895Y-114743947D01*
X86179794Y-114836773D01*
X86179785Y-114836777D01*
X85969706Y-114958067D01*
X85777263Y-115105733D01*
X85777256Y-115105739D01*
X85605739Y-115277256D01*
X85605733Y-115277263D01*
X85458067Y-115469706D01*
X85336777Y-115679785D01*
X85336773Y-115679794D01*
X85243947Y-115903895D01*
X85181161Y-116138214D01*
X85149500Y-116378711D01*
X83500500Y-116378711D01*
X83500500Y-114116258D01*
X96444435Y-114116258D01*
X96444435Y-114116265D01*
X96464630Y-114295511D01*
X96464631Y-114295516D01*
X96524211Y-114465785D01*
X96567934Y-114535369D01*
X96620184Y-114618524D01*
X96747738Y-114746078D01*
X96900478Y-114842051D01*
X97070745Y-114901630D01*
X97070750Y-114901631D01*
X97249996Y-114921827D01*
X97250000Y-114921827D01*
X97250004Y-114921827D01*
X97429249Y-114901631D01*
X97429252Y-114901630D01*
X97429255Y-114901630D01*
X97599522Y-114842051D01*
X97752262Y-114746078D01*
X97879816Y-114618524D01*
X97940973Y-114521193D01*
X97993305Y-114474904D01*
X98062359Y-114464255D01*
X98093840Y-114473674D01*
X98093905Y-114473489D01*
X98097937Y-114474899D01*
X98099769Y-114475448D01*
X98100474Y-114475787D01*
X98100475Y-114475787D01*
X98100478Y-114475789D01*
X98230241Y-114521195D01*
X98270745Y-114535368D01*
X98270750Y-114535369D01*
X98449996Y-114555565D01*
X98450000Y-114555565D01*
X98450004Y-114555565D01*
X98629249Y-114535369D01*
X98629252Y-114535368D01*
X98629255Y-114535368D01*
X98799522Y-114475789D01*
X98952262Y-114379816D01*
X99079816Y-114252262D01*
X99175789Y-114099522D01*
X99235368Y-113929255D01*
X99255565Y-113750000D01*
X99235368Y-113570745D01*
X99175789Y-113400478D01*
X99170831Y-113392588D01*
X99119376Y-113310697D01*
X99079816Y-113247738D01*
X98952262Y-113120184D01*
X98799523Y-113024211D01*
X98629254Y-112964631D01*
X98629249Y-112964630D01*
X98450004Y-112944435D01*
X98449996Y-112944435D01*
X98270750Y-112964630D01*
X98270745Y-112964631D01*
X98100476Y-113024211D01*
X97947737Y-113120184D01*
X97820182Y-113247739D01*
X97759027Y-113345067D01*
X97706692Y-113391357D01*
X97637639Y-113402005D01*
X97606158Y-113392588D01*
X97606094Y-113392772D01*
X97602100Y-113391374D01*
X97600243Y-113390819D01*
X97599525Y-113390473D01*
X97429262Y-113330895D01*
X97429249Y-113330892D01*
X97250004Y-113310697D01*
X97249996Y-113310697D01*
X97070750Y-113330892D01*
X97070745Y-113330893D01*
X96900476Y-113390473D01*
X96747737Y-113486446D01*
X96620184Y-113613999D01*
X96524211Y-113766738D01*
X96464631Y-113937007D01*
X96464630Y-113937012D01*
X96444435Y-114116258D01*
X83500500Y-114116258D01*
X83500500Y-111999996D01*
X91294435Y-111999996D01*
X91294435Y-112000003D01*
X91314630Y-112179249D01*
X91314631Y-112179254D01*
X91374211Y-112349523D01*
X91470184Y-112502262D01*
X91597738Y-112629816D01*
X91750478Y-112725789D01*
X91920745Y-112785368D01*
X91920750Y-112785369D01*
X92099996Y-112805565D01*
X92100000Y-112805565D01*
X92100004Y-112805565D01*
X92279249Y-112785369D01*
X92279252Y-112785368D01*
X92279255Y-112785368D01*
X92449522Y-112725789D01*
X92602262Y-112629816D01*
X92729816Y-112502262D01*
X92825789Y-112349522D01*
X92885368Y-112179255D01*
X92905565Y-112000000D01*
X92885368Y-111820745D01*
X92825789Y-111650478D01*
X92729816Y-111497738D01*
X92602262Y-111370184D01*
X92449523Y-111274211D01*
X92279254Y-111214631D01*
X92279249Y-111214630D01*
X92100004Y-111194435D01*
X92099996Y-111194435D01*
X91920750Y-111214630D01*
X91920745Y-111214631D01*
X91750476Y-111274211D01*
X91597737Y-111370184D01*
X91470184Y-111497737D01*
X91374211Y-111650476D01*
X91314631Y-111820745D01*
X91314630Y-111820750D01*
X91294435Y-111999996D01*
X83500500Y-111999996D01*
X83500500Y-107634999D01*
X84869341Y-107634999D01*
X84869341Y-107635000D01*
X84889936Y-107870403D01*
X84889938Y-107870413D01*
X84951094Y-108098655D01*
X84951096Y-108098659D01*
X84951097Y-108098663D01*
X85005339Y-108214984D01*
X85050965Y-108312830D01*
X85050967Y-108312834D01*
X85107965Y-108394235D01*
X85186501Y-108506396D01*
X85186506Y-108506402D01*
X85308430Y-108628326D01*
X85341915Y-108689649D01*
X85336931Y-108759341D01*
X85295059Y-108815274D01*
X85264083Y-108832189D01*
X85132669Y-108881203D01*
X85132664Y-108881206D01*
X85017455Y-108967452D01*
X85017452Y-108967455D01*
X84931206Y-109082664D01*
X84931202Y-109082671D01*
X84880908Y-109217517D01*
X84874501Y-109277116D01*
X84874501Y-109277123D01*
X84874500Y-109277135D01*
X84874500Y-111072870D01*
X84874501Y-111072876D01*
X84880908Y-111132483D01*
X84931202Y-111267328D01*
X84931206Y-111267335D01*
X85017452Y-111382544D01*
X85017455Y-111382547D01*
X85132664Y-111468793D01*
X85132671Y-111468797D01*
X85267517Y-111519091D01*
X85267516Y-111519091D01*
X85274444Y-111519835D01*
X85327127Y-111525500D01*
X87122872Y-111525499D01*
X87182483Y-111519091D01*
X87317331Y-111468796D01*
X87432546Y-111382546D01*
X87518796Y-111267331D01*
X87569091Y-111132483D01*
X87575500Y-111072873D01*
X87575499Y-109277128D01*
X87569091Y-109217517D01*
X87562484Y-109199804D01*
X87518797Y-109082671D01*
X87518793Y-109082664D01*
X87432547Y-108967455D01*
X87432544Y-108967452D01*
X87317335Y-108881206D01*
X87317328Y-108881202D01*
X87185917Y-108832189D01*
X87129983Y-108790318D01*
X87105566Y-108724853D01*
X87120418Y-108656580D01*
X87141563Y-108628332D01*
X87263495Y-108506401D01*
X87342035Y-108394235D01*
X98194435Y-108394235D01*
X98194435Y-108394242D01*
X98214630Y-108573488D01*
X98214631Y-108573493D01*
X98274211Y-108743762D01*
X98370184Y-108896501D01*
X98497738Y-109024055D01*
X98650478Y-109120028D01*
X98820745Y-109179607D01*
X98820750Y-109179608D01*
X98999996Y-109199804D01*
X99000000Y-109199804D01*
X99000004Y-109199804D01*
X99179249Y-109179608D01*
X99179252Y-109179607D01*
X99179255Y-109179607D01*
X99349522Y-109120028D01*
X99502262Y-109024055D01*
X99629816Y-108896501D01*
X99725789Y-108743761D01*
X99785368Y-108573494D01*
X99785369Y-108573488D01*
X99805565Y-108394242D01*
X99805565Y-108394235D01*
X99785369Y-108214989D01*
X99785368Y-108214984D01*
X99744666Y-108098664D01*
X99725789Y-108044717D01*
X99629816Y-107891977D01*
X99502262Y-107764423D01*
X99349523Y-107668450D01*
X99179254Y-107608870D01*
X99179249Y-107608869D01*
X99000004Y-107588674D01*
X98999996Y-107588674D01*
X98820750Y-107608869D01*
X98820745Y-107608870D01*
X98650476Y-107668450D01*
X98497737Y-107764423D01*
X98370184Y-107891976D01*
X98274211Y-108044715D01*
X98214631Y-108214984D01*
X98214630Y-108214989D01*
X98194435Y-108394235D01*
X87342035Y-108394235D01*
X87399035Y-108312830D01*
X87498903Y-108098663D01*
X87560063Y-107870408D01*
X87580659Y-107635000D01*
X87560063Y-107399592D01*
X87498903Y-107171337D01*
X87399035Y-106957171D01*
X87263495Y-106763599D01*
X87263494Y-106763597D01*
X87096402Y-106596506D01*
X87096395Y-106596501D01*
X86902834Y-106460967D01*
X86902830Y-106460965D01*
X86902828Y-106460964D01*
X86688663Y-106361097D01*
X86688659Y-106361096D01*
X86688655Y-106361094D01*
X86460413Y-106299938D01*
X86460403Y-106299936D01*
X86225001Y-106279341D01*
X86224999Y-106279341D01*
X85989596Y-106299936D01*
X85989586Y-106299938D01*
X85761344Y-106361094D01*
X85761335Y-106361098D01*
X85547171Y-106460964D01*
X85547169Y-106460965D01*
X85353597Y-106596505D01*
X85186505Y-106763597D01*
X85050965Y-106957169D01*
X85050964Y-106957171D01*
X84951098Y-107171335D01*
X84951094Y-107171344D01*
X84889938Y-107399586D01*
X84889936Y-107399596D01*
X84869341Y-107634999D01*
X83500500Y-107634999D01*
X83500500Y-101999999D01*
X107479341Y-101999999D01*
X107479341Y-102000000D01*
X107499936Y-102235403D01*
X107499938Y-102235413D01*
X107561094Y-102463655D01*
X107561096Y-102463659D01*
X107561097Y-102463663D01*
X107645499Y-102644663D01*
X107660965Y-102677830D01*
X107660967Y-102677834D01*
X107769281Y-102832521D01*
X107796505Y-102871401D01*
X107963599Y-103038495D01*
X108060384Y-103106265D01*
X108157165Y-103174032D01*
X108157167Y-103174033D01*
X108157170Y-103174035D01*
X108371337Y-103273903D01*
X108599592Y-103335063D01*
X108776034Y-103350500D01*
X108834999Y-103355659D01*
X108835000Y-103355659D01*
X108835001Y-103355659D01*
X108893966Y-103350500D01*
X109070408Y-103335063D01*
X109298663Y-103273903D01*
X109512830Y-103174035D01*
X109706401Y-103038495D01*
X109828329Y-102916566D01*
X109889648Y-102883084D01*
X109959340Y-102888068D01*
X110015274Y-102929939D01*
X110032189Y-102960917D01*
X110081202Y-103092328D01*
X110081206Y-103092335D01*
X110167452Y-103207544D01*
X110167455Y-103207547D01*
X110282664Y-103293793D01*
X110282671Y-103293797D01*
X110417517Y-103344091D01*
X110417516Y-103344091D01*
X110424444Y-103344835D01*
X110477127Y-103350500D01*
X112272872Y-103350499D01*
X112332483Y-103344091D01*
X112467331Y-103293796D01*
X112582546Y-103207546D01*
X112668796Y-103092331D01*
X112719091Y-102957483D01*
X112725500Y-102897873D01*
X112725499Y-101102128D01*
X112719091Y-101042517D01*
X112717810Y-101039083D01*
X112668797Y-100907671D01*
X112668793Y-100907664D01*
X112582547Y-100792455D01*
X112582544Y-100792452D01*
X112467335Y-100706206D01*
X112467328Y-100706202D01*
X112332482Y-100655908D01*
X112332483Y-100655908D01*
X112272883Y-100649501D01*
X112272881Y-100649500D01*
X112272873Y-100649500D01*
X112272865Y-100649500D01*
X111417560Y-100649500D01*
X111350521Y-100629815D01*
X111304766Y-100577011D01*
X111294822Y-100507853D01*
X111323847Y-100444297D01*
X111351584Y-100420509D01*
X111432262Y-100369816D01*
X111559816Y-100242262D01*
X111655789Y-100089522D01*
X111715368Y-99919255D01*
X111728178Y-99805565D01*
X111735565Y-99740003D01*
X111735565Y-99739996D01*
X111715369Y-99560750D01*
X111715368Y-99560745D01*
X111676618Y-99450003D01*
X111655789Y-99390478D01*
X111559816Y-99237738D01*
X111432262Y-99110184D01*
X111416812Y-99100476D01*
X111279523Y-99014211D01*
X111109254Y-98954631D01*
X111109249Y-98954630D01*
X110930004Y-98934435D01*
X110929996Y-98934435D01*
X110750750Y-98954630D01*
X110750745Y-98954631D01*
X110580476Y-99014211D01*
X110427737Y-99110184D01*
X110300184Y-99237737D01*
X110204211Y-99390476D01*
X110144631Y-99560745D01*
X110144630Y-99560750D01*
X110124435Y-99739996D01*
X110124435Y-99740003D01*
X110144630Y-99919249D01*
X110144631Y-99919254D01*
X110204211Y-100089523D01*
X110258416Y-100175789D01*
X110300184Y-100242262D01*
X110427738Y-100369816D01*
X110512509Y-100423081D01*
X110558799Y-100475415D01*
X110569447Y-100544468D01*
X110541072Y-100608316D01*
X110482683Y-100646689D01*
X110459791Y-100651364D01*
X110417516Y-100655909D01*
X110282671Y-100706202D01*
X110282664Y-100706206D01*
X110167455Y-100792452D01*
X110167452Y-100792455D01*
X110081206Y-100907664D01*
X110081203Y-100907669D01*
X110032189Y-101039083D01*
X109990317Y-101095016D01*
X109924853Y-101119433D01*
X109856580Y-101104581D01*
X109828326Y-101083430D01*
X109706402Y-100961506D01*
X109706395Y-100961501D01*
X109512834Y-100825967D01*
X109512830Y-100825965D01*
X109512828Y-100825964D01*
X109298663Y-100726097D01*
X109298659Y-100726096D01*
X109298655Y-100726094D01*
X109070413Y-100664938D01*
X109070403Y-100664936D01*
X108835001Y-100644341D01*
X108834999Y-100644341D01*
X108599596Y-100664936D01*
X108599586Y-100664938D01*
X108371344Y-100726094D01*
X108371335Y-100726098D01*
X108157171Y-100825964D01*
X108157169Y-100825965D01*
X107963597Y-100961505D01*
X107796505Y-101128597D01*
X107660965Y-101322169D01*
X107660964Y-101322171D01*
X107561098Y-101536335D01*
X107561094Y-101536344D01*
X107499938Y-101764586D01*
X107499936Y-101764596D01*
X107479341Y-101999999D01*
X83500500Y-101999999D01*
X83500500Y-98999996D01*
X84694435Y-98999996D01*
X84694435Y-99000003D01*
X84714630Y-99179249D01*
X84714631Y-99179254D01*
X84774211Y-99349523D01*
X84837347Y-99450003D01*
X84870184Y-99502262D01*
X84997738Y-99629816D01*
X85150478Y-99725789D01*
X85320745Y-99785368D01*
X85320750Y-99785369D01*
X85499996Y-99805565D01*
X85500000Y-99805565D01*
X85500004Y-99805565D01*
X85679249Y-99785369D01*
X85679252Y-99785368D01*
X85679255Y-99785368D01*
X85849522Y-99725789D01*
X86002262Y-99629816D01*
X86129816Y-99502262D01*
X86225789Y-99349522D01*
X86285368Y-99179255D01*
X86286689Y-99167534D01*
X86305565Y-99000003D01*
X86305565Y-98999996D01*
X88194435Y-98999996D01*
X88194435Y-99000003D01*
X88214630Y-99179249D01*
X88214631Y-99179254D01*
X88274211Y-99349523D01*
X88337347Y-99450003D01*
X88370184Y-99502262D01*
X88497738Y-99629816D01*
X88650478Y-99725789D01*
X88820745Y-99785368D01*
X88820750Y-99785369D01*
X88999996Y-99805565D01*
X89000000Y-99805565D01*
X89000004Y-99805565D01*
X89179249Y-99785369D01*
X89179252Y-99785368D01*
X89179255Y-99785368D01*
X89349522Y-99725789D01*
X89502262Y-99629816D01*
X89629816Y-99502262D01*
X89662657Y-99449996D01*
X103394435Y-99449996D01*
X103394435Y-99450003D01*
X103414630Y-99629249D01*
X103414631Y-99629254D01*
X103474211Y-99799523D01*
X103549444Y-99919254D01*
X103570184Y-99952262D01*
X103697738Y-100079816D01*
X103850478Y-100175789D01*
X104020745Y-100235368D01*
X104020750Y-100235369D01*
X104199996Y-100255565D01*
X104200000Y-100255565D01*
X104200004Y-100255565D01*
X104379249Y-100235369D01*
X104379252Y-100235368D01*
X104379255Y-100235368D01*
X104549522Y-100175789D01*
X104702262Y-100079816D01*
X104829816Y-99952262D01*
X104925789Y-99799522D01*
X104985368Y-99629255D01*
X104987434Y-99610920D01*
X105005565Y-99450003D01*
X105005565Y-99449997D01*
X104996461Y-99369201D01*
X105008515Y-99300379D01*
X105053710Y-99250323D01*
X105058946Y-99247032D01*
X105102262Y-99219816D01*
X105229816Y-99092262D01*
X105325789Y-98939522D01*
X105347827Y-98876540D01*
X111954200Y-98876540D01*
X111954200Y-99023459D01*
X111982858Y-99167534D01*
X111982861Y-99167544D01*
X112039078Y-99303266D01*
X112039083Y-99303275D01*
X112120698Y-99425419D01*
X112120701Y-99425423D01*
X112224576Y-99529298D01*
X112224580Y-99529301D01*
X112346724Y-99610916D01*
X112346730Y-99610919D01*
X112346731Y-99610920D01*
X112482458Y-99667140D01*
X112626540Y-99695799D01*
X112626544Y-99695800D01*
X112626545Y-99695800D01*
X112773456Y-99695800D01*
X112773457Y-99695799D01*
X112917542Y-99667140D01*
X113053269Y-99610920D01*
X113175420Y-99529301D01*
X113279301Y-99425420D01*
X113360920Y-99303269D01*
X113417140Y-99167542D01*
X113445800Y-99023455D01*
X113445800Y-98876545D01*
X113417140Y-98732458D01*
X113360920Y-98596731D01*
X113360919Y-98596730D01*
X113360916Y-98596724D01*
X113279301Y-98474580D01*
X113279298Y-98474576D01*
X113175423Y-98370701D01*
X113175419Y-98370698D01*
X113053275Y-98289083D01*
X113053266Y-98289078D01*
X112917544Y-98232861D01*
X112917545Y-98232861D01*
X112917542Y-98232860D01*
X112917538Y-98232859D01*
X112917534Y-98232858D01*
X112773459Y-98204200D01*
X112773455Y-98204200D01*
X112626545Y-98204200D01*
X112626540Y-98204200D01*
X112482465Y-98232858D01*
X112482455Y-98232861D01*
X112346733Y-98289078D01*
X112346724Y-98289083D01*
X112224580Y-98370698D01*
X112224576Y-98370701D01*
X112120701Y-98474576D01*
X112120698Y-98474580D01*
X112039083Y-98596724D01*
X112039078Y-98596733D01*
X111982861Y-98732455D01*
X111982858Y-98732465D01*
X111954200Y-98876540D01*
X105347827Y-98876540D01*
X105385368Y-98769255D01*
X105388707Y-98739621D01*
X105405565Y-98590003D01*
X105405565Y-98589996D01*
X105385369Y-98410750D01*
X105385368Y-98410745D01*
X105371175Y-98370184D01*
X105325789Y-98240478D01*
X105321002Y-98232860D01*
X105229815Y-98087737D01*
X105102262Y-97960184D01*
X104949523Y-97864211D01*
X104939032Y-97860540D01*
X106874200Y-97860540D01*
X106874200Y-98007459D01*
X106902858Y-98151534D01*
X106902861Y-98151544D01*
X106959078Y-98287266D01*
X106959083Y-98287275D01*
X107040698Y-98409419D01*
X107040701Y-98409423D01*
X107144576Y-98513298D01*
X107144580Y-98513301D01*
X107266724Y-98594916D01*
X107266730Y-98594919D01*
X107266731Y-98594920D01*
X107402458Y-98651140D01*
X107501293Y-98670799D01*
X107546540Y-98679799D01*
X107546544Y-98679800D01*
X107546545Y-98679800D01*
X107693456Y-98679800D01*
X107693457Y-98679799D01*
X107837542Y-98651140D01*
X107973269Y-98594920D01*
X108095420Y-98513301D01*
X108199301Y-98409420D01*
X108280920Y-98287269D01*
X108337140Y-98151542D01*
X108365800Y-98007455D01*
X108365800Y-97860545D01*
X108337140Y-97716458D01*
X108280920Y-97580731D01*
X108280919Y-97580730D01*
X108280916Y-97580724D01*
X108199301Y-97458580D01*
X108199298Y-97458576D01*
X108095423Y-97354701D01*
X108095419Y-97354698D01*
X107973275Y-97273083D01*
X107973266Y-97273078D01*
X107837544Y-97216861D01*
X107837545Y-97216861D01*
X107837542Y-97216860D01*
X107837538Y-97216859D01*
X107837534Y-97216858D01*
X107693459Y-97188200D01*
X107693455Y-97188200D01*
X107546545Y-97188200D01*
X107546540Y-97188200D01*
X107402465Y-97216858D01*
X107402455Y-97216861D01*
X107266733Y-97273078D01*
X107266724Y-97273083D01*
X107144580Y-97354698D01*
X107144576Y-97354701D01*
X107040701Y-97458576D01*
X107040698Y-97458580D01*
X106959083Y-97580724D01*
X106959078Y-97580733D01*
X106902861Y-97716455D01*
X106902858Y-97716465D01*
X106874200Y-97860540D01*
X104939032Y-97860540D01*
X104779254Y-97804631D01*
X104779249Y-97804630D01*
X104600004Y-97784435D01*
X104599996Y-97784435D01*
X104420750Y-97804630D01*
X104420745Y-97804631D01*
X104250476Y-97864211D01*
X104097737Y-97960184D01*
X103970184Y-98087737D01*
X103874211Y-98240476D01*
X103814631Y-98410745D01*
X103814630Y-98410750D01*
X103794435Y-98589996D01*
X103794435Y-98590003D01*
X103803538Y-98670799D01*
X103791483Y-98739621D01*
X103746291Y-98789675D01*
X103697741Y-98820181D01*
X103697739Y-98820182D01*
X103570184Y-98947737D01*
X103474211Y-99100476D01*
X103414631Y-99270745D01*
X103414630Y-99270750D01*
X103394435Y-99449996D01*
X89662657Y-99449996D01*
X89725789Y-99349522D01*
X89785368Y-99179255D01*
X89786689Y-99167534D01*
X89805565Y-99000003D01*
X89805565Y-98999996D01*
X89785369Y-98820750D01*
X89785368Y-98820745D01*
X89767351Y-98769255D01*
X89725789Y-98650478D01*
X89692017Y-98596731D01*
X89653461Y-98535369D01*
X89629816Y-98497738D01*
X89502262Y-98370184D01*
X89373191Y-98289083D01*
X89349523Y-98274211D01*
X89179254Y-98214631D01*
X89179249Y-98214630D01*
X89000004Y-98194435D01*
X88999996Y-98194435D01*
X88820750Y-98214630D01*
X88820745Y-98214631D01*
X88650476Y-98274211D01*
X88497737Y-98370184D01*
X88370184Y-98497737D01*
X88274211Y-98650476D01*
X88214631Y-98820745D01*
X88214630Y-98820750D01*
X88194435Y-98999996D01*
X86305565Y-98999996D01*
X86285369Y-98820750D01*
X86285368Y-98820745D01*
X86267351Y-98769255D01*
X86225789Y-98650478D01*
X86192017Y-98596731D01*
X86153461Y-98535369D01*
X86129816Y-98497738D01*
X86002262Y-98370184D01*
X85873191Y-98289083D01*
X85849523Y-98274211D01*
X85679254Y-98214631D01*
X85679249Y-98214630D01*
X85500004Y-98194435D01*
X85499996Y-98194435D01*
X85320750Y-98214630D01*
X85320745Y-98214631D01*
X85150476Y-98274211D01*
X84997737Y-98370184D01*
X84870184Y-98497737D01*
X84774211Y-98650476D01*
X84714631Y-98820745D01*
X84714630Y-98820750D01*
X84694435Y-98999996D01*
X83500500Y-98999996D01*
X83500500Y-97099996D01*
X99544435Y-97099996D01*
X99544435Y-97100003D01*
X99564630Y-97279249D01*
X99564631Y-97279254D01*
X99624211Y-97449523D01*
X99700384Y-97570750D01*
X99720184Y-97602262D01*
X99847738Y-97729816D01*
X99934664Y-97784435D01*
X99966803Y-97804630D01*
X100000478Y-97825789D01*
X100099791Y-97860540D01*
X100170745Y-97885368D01*
X100170750Y-97885369D01*
X100254906Y-97894850D01*
X100279176Y-97897585D01*
X100343591Y-97924651D01*
X100382336Y-97979850D01*
X100424211Y-98099523D01*
X100512778Y-98240476D01*
X100520184Y-98252262D01*
X100647738Y-98379816D01*
X100696961Y-98410745D01*
X100798553Y-98474580D01*
X100800478Y-98475789D01*
X100863202Y-98497737D01*
X100970745Y-98535368D01*
X100970750Y-98535369D01*
X101149996Y-98555565D01*
X101150000Y-98555565D01*
X101150004Y-98555565D01*
X101329249Y-98535369D01*
X101329252Y-98535368D01*
X101329255Y-98535368D01*
X101499522Y-98475789D01*
X101652262Y-98379816D01*
X101779816Y-98252262D01*
X101875789Y-98099522D01*
X101935368Y-97929255D01*
X101935887Y-97924651D01*
X101955565Y-97750003D01*
X101955565Y-97749996D01*
X101935369Y-97570750D01*
X101935368Y-97570745D01*
X101896118Y-97458576D01*
X101875789Y-97400478D01*
X101847023Y-97354698D01*
X101799619Y-97279254D01*
X101779816Y-97247738D01*
X101652262Y-97120184D01*
X101620144Y-97100003D01*
X101499523Y-97024211D01*
X101329254Y-96964631D01*
X101329249Y-96964630D01*
X101220822Y-96952414D01*
X101156408Y-96925348D01*
X101117663Y-96870148D01*
X101108702Y-96844540D01*
X111954200Y-96844540D01*
X111954200Y-96991459D01*
X111982858Y-97135534D01*
X111982861Y-97135544D01*
X112039078Y-97271266D01*
X112039083Y-97271275D01*
X112120698Y-97393419D01*
X112120701Y-97393423D01*
X112224576Y-97497298D01*
X112224580Y-97497301D01*
X112346724Y-97578916D01*
X112346730Y-97578919D01*
X112346731Y-97578920D01*
X112482458Y-97635140D01*
X112626540Y-97663799D01*
X112626544Y-97663800D01*
X112626545Y-97663800D01*
X112773456Y-97663800D01*
X112773457Y-97663799D01*
X112917542Y-97635140D01*
X113053269Y-97578920D01*
X113175420Y-97497301D01*
X113279301Y-97393420D01*
X113360920Y-97271269D01*
X113417140Y-97135542D01*
X113445800Y-96991455D01*
X113445800Y-96844545D01*
X113417140Y-96700458D01*
X113360920Y-96564731D01*
X113360919Y-96564730D01*
X113360916Y-96564724D01*
X113279301Y-96442580D01*
X113279298Y-96442576D01*
X113175423Y-96338701D01*
X113175419Y-96338698D01*
X113053275Y-96257083D01*
X113053266Y-96257078D01*
X112917544Y-96200861D01*
X112917545Y-96200861D01*
X112917542Y-96200860D01*
X112917538Y-96200859D01*
X112917534Y-96200858D01*
X112773459Y-96172200D01*
X112773455Y-96172200D01*
X112626545Y-96172200D01*
X112626540Y-96172200D01*
X112482465Y-96200858D01*
X112482455Y-96200861D01*
X112346733Y-96257078D01*
X112346724Y-96257083D01*
X112224580Y-96338698D01*
X112224576Y-96338701D01*
X112120701Y-96442576D01*
X112120698Y-96442580D01*
X112039083Y-96564724D01*
X112039078Y-96564733D01*
X111982861Y-96700455D01*
X111982858Y-96700465D01*
X111954200Y-96844540D01*
X101108702Y-96844540D01*
X101075789Y-96750478D01*
X100979816Y-96597738D01*
X100852262Y-96470184D01*
X100808324Y-96442576D01*
X100699523Y-96374211D01*
X100529254Y-96314631D01*
X100529249Y-96314630D01*
X100350004Y-96294435D01*
X100349996Y-96294435D01*
X100170750Y-96314630D01*
X100170745Y-96314631D01*
X100000476Y-96374211D01*
X99847737Y-96470184D01*
X99720184Y-96597737D01*
X99624211Y-96750476D01*
X99564631Y-96920745D01*
X99564630Y-96920750D01*
X99544435Y-97099996D01*
X83500500Y-97099996D01*
X83500500Y-95659996D01*
X95584435Y-95659996D01*
X95584435Y-95660003D01*
X95604630Y-95839249D01*
X95604631Y-95839254D01*
X95664211Y-96009523D01*
X95760184Y-96162262D01*
X95887738Y-96289816D01*
X95965533Y-96338698D01*
X96022051Y-96374211D01*
X96040478Y-96385789D01*
X96202766Y-96442576D01*
X96210745Y-96445368D01*
X96210750Y-96445369D01*
X96389996Y-96465565D01*
X96390000Y-96465565D01*
X96390004Y-96465565D01*
X96569249Y-96445369D01*
X96569252Y-96445368D01*
X96569255Y-96445368D01*
X96739522Y-96385789D01*
X96892262Y-96289816D01*
X97019816Y-96162262D01*
X97115789Y-96009522D01*
X97175368Y-95839255D01*
X97195565Y-95660000D01*
X97175368Y-95480745D01*
X97115789Y-95310478D01*
X97019816Y-95157738D01*
X96892262Y-95030184D01*
X96739523Y-94934211D01*
X96569254Y-94874631D01*
X96569249Y-94874630D01*
X96390004Y-94854435D01*
X96389996Y-94854435D01*
X96210750Y-94874630D01*
X96210745Y-94874631D01*
X96040476Y-94934211D01*
X95887737Y-95030184D01*
X95760184Y-95157737D01*
X95664211Y-95310476D01*
X95604631Y-95480745D01*
X95604630Y-95480750D01*
X95584435Y-95659996D01*
X83500500Y-95659996D01*
X83500500Y-85003051D01*
X83500649Y-84996967D01*
X83506458Y-84878712D01*
X83506458Y-84878711D01*
X85149500Y-84878711D01*
X85149500Y-85121288D01*
X85181161Y-85361785D01*
X85243947Y-85596104D01*
X85327467Y-85797738D01*
X85336776Y-85820212D01*
X85458064Y-86030289D01*
X85458066Y-86030292D01*
X85458067Y-86030293D01*
X85605733Y-86222736D01*
X85605739Y-86222743D01*
X85777256Y-86394260D01*
X85777262Y-86394265D01*
X85969711Y-86541936D01*
X86179788Y-86663224D01*
X86403900Y-86756054D01*
X86638211Y-86818838D01*
X86818586Y-86842584D01*
X86878711Y-86850500D01*
X86878712Y-86850500D01*
X87121289Y-86850500D01*
X87169388Y-86844167D01*
X87361789Y-86818838D01*
X87596100Y-86756054D01*
X87820212Y-86663224D01*
X88030289Y-86541936D01*
X88222738Y-86394265D01*
X88317007Y-86299996D01*
X96194435Y-86299996D01*
X96194435Y-86300003D01*
X96214630Y-86479249D01*
X96214633Y-86479262D01*
X96274209Y-86649520D01*
X96327309Y-86734029D01*
X96346309Y-86801266D01*
X96327309Y-86865971D01*
X96274209Y-86950479D01*
X96214633Y-87120737D01*
X96214630Y-87120750D01*
X96194435Y-87299996D01*
X96194435Y-87300003D01*
X96214630Y-87479249D01*
X96214631Y-87479254D01*
X96274211Y-87649523D01*
X96370184Y-87802262D01*
X96497738Y-87929816D01*
X96650478Y-88025789D01*
X96820745Y-88085368D01*
X96820750Y-88085369D01*
X96999996Y-88105565D01*
X97000000Y-88105565D01*
X97000004Y-88105565D01*
X97179249Y-88085369D01*
X97179252Y-88085368D01*
X97179255Y-88085368D01*
X97349522Y-88025789D01*
X97502262Y-87929816D01*
X97629816Y-87802262D01*
X97725789Y-87649522D01*
X97785368Y-87479255D01*
X97805565Y-87300000D01*
X97785368Y-87120745D01*
X97725789Y-86950478D01*
X97725788Y-86950475D01*
X97672691Y-86865973D01*
X97653690Y-86798736D01*
X97672691Y-86734027D01*
X97725788Y-86649524D01*
X97725789Y-86649522D01*
X97785368Y-86479255D01*
X97805565Y-86300000D01*
X97796860Y-86222743D01*
X97785369Y-86120750D01*
X97785368Y-86120745D01*
X97725788Y-85950476D01*
X97686582Y-85888080D01*
X97629816Y-85797738D01*
X97502262Y-85670184D01*
X97349523Y-85574211D01*
X97179254Y-85514631D01*
X97179249Y-85514630D01*
X97000004Y-85494435D01*
X96999996Y-85494435D01*
X96820750Y-85514630D01*
X96820745Y-85514631D01*
X96650476Y-85574211D01*
X96497737Y-85670184D01*
X96370184Y-85797737D01*
X96274211Y-85950476D01*
X96214631Y-86120745D01*
X96214630Y-86120750D01*
X96194435Y-86299996D01*
X88317007Y-86299996D01*
X88394265Y-86222738D01*
X88541936Y-86030289D01*
X88663224Y-85820212D01*
X88756054Y-85596100D01*
X88818838Y-85361789D01*
X88850500Y-85121288D01*
X88850500Y-84878712D01*
X88850500Y-84878711D01*
X110149500Y-84878711D01*
X110149500Y-85121288D01*
X110181161Y-85361785D01*
X110243947Y-85596104D01*
X110327467Y-85797738D01*
X110336776Y-85820212D01*
X110458064Y-86030289D01*
X110458066Y-86030292D01*
X110458067Y-86030293D01*
X110605733Y-86222736D01*
X110605739Y-86222743D01*
X110777256Y-86394260D01*
X110777262Y-86394265D01*
X110969711Y-86541936D01*
X111179788Y-86663224D01*
X111403900Y-86756054D01*
X111638211Y-86818838D01*
X111818586Y-86842584D01*
X111878711Y-86850500D01*
X111878712Y-86850500D01*
X112121289Y-86850500D01*
X112169388Y-86844167D01*
X112361789Y-86818838D01*
X112596100Y-86756054D01*
X112820212Y-86663224D01*
X113030289Y-86541936D01*
X113222738Y-86394265D01*
X113394265Y-86222738D01*
X113541936Y-86030289D01*
X113663224Y-85820212D01*
X113756054Y-85596100D01*
X113818838Y-85361789D01*
X113850500Y-85121288D01*
X113850500Y-84878712D01*
X113818838Y-84638211D01*
X113756054Y-84403900D01*
X113663224Y-84179788D01*
X113541936Y-83969711D01*
X113394265Y-83777262D01*
X113394260Y-83777256D01*
X113222743Y-83605739D01*
X113222736Y-83605733D01*
X113030293Y-83458067D01*
X113030292Y-83458066D01*
X113030289Y-83458064D01*
X112820212Y-83336776D01*
X112820205Y-83336773D01*
X112596104Y-83243947D01*
X112361785Y-83181161D01*
X112121289Y-83149500D01*
X112121288Y-83149500D01*
X111878712Y-83149500D01*
X111878711Y-83149500D01*
X111638214Y-83181161D01*
X111403895Y-83243947D01*
X111179794Y-83336773D01*
X111179785Y-83336777D01*
X110969706Y-83458067D01*
X110777263Y-83605733D01*
X110777256Y-83605739D01*
X110605739Y-83777256D01*
X110605733Y-83777263D01*
X110458067Y-83969706D01*
X110336777Y-84179785D01*
X110336773Y-84179794D01*
X110243947Y-84403895D01*
X110181161Y-84638214D01*
X110149500Y-84878711D01*
X88850500Y-84878711D01*
X88818838Y-84638211D01*
X88756054Y-84403900D01*
X88663224Y-84179788D01*
X88541936Y-83969711D01*
X88394265Y-83777262D01*
X88394260Y-83777256D01*
X88222743Y-83605739D01*
X88222736Y-83605733D01*
X88030293Y-83458067D01*
X88030292Y-83458066D01*
X88030289Y-83458064D01*
X87820212Y-83336776D01*
X87820205Y-83336773D01*
X87596104Y-83243947D01*
X87361785Y-83181161D01*
X87121289Y-83149500D01*
X87121288Y-83149500D01*
X86878712Y-83149500D01*
X86878711Y-83149500D01*
X86638214Y-83181161D01*
X86403895Y-83243947D01*
X86179794Y-83336773D01*
X86179785Y-83336777D01*
X85969706Y-83458067D01*
X85777263Y-83605733D01*
X85777256Y-83605739D01*
X85605739Y-83777256D01*
X85605733Y-83777263D01*
X85458067Y-83969706D01*
X85336777Y-84179785D01*
X85336773Y-84179794D01*
X85243947Y-84403895D01*
X85181161Y-84638214D01*
X85149500Y-84878711D01*
X83506458Y-84878711D01*
X83517052Y-84663068D01*
X83518245Y-84650962D01*
X83520136Y-84638211D01*
X83566849Y-84323296D01*
X83569218Y-84311385D01*
X83649710Y-83990043D01*
X83653240Y-83978411D01*
X83725212Y-83777263D01*
X83764835Y-83666525D01*
X83769476Y-83655318D01*
X83911124Y-83355828D01*
X83916840Y-83345136D01*
X84087145Y-83060998D01*
X84093888Y-83050905D01*
X84291232Y-82784818D01*
X84298935Y-82775433D01*
X84521405Y-82529975D01*
X84529975Y-82521405D01*
X84775433Y-82298935D01*
X84784818Y-82291232D01*
X85050905Y-82093888D01*
X85060998Y-82087145D01*
X85345136Y-81916840D01*
X85355828Y-81911124D01*
X85655318Y-81769476D01*
X85666525Y-81764835D01*
X85978412Y-81653239D01*
X85990043Y-81649710D01*
X86311385Y-81569218D01*
X86323296Y-81566849D01*
X86650962Y-81518244D01*
X86663068Y-81517052D01*
X86996967Y-81500648D01*
X87003051Y-81500500D01*
X87065892Y-81500500D01*
X111834108Y-81500500D01*
X111896949Y-81500500D01*
X111903032Y-81500648D01*
G37*
G04 #@! TD.AperFunction*
M02*
